<?xml version="1.0" encoding="us-ascii" standalone="no"?><svg xmlns="http://www.w3.org/2000/svg" xmlns:xlink="http://www.w3.org/1999/xlink" contentStyleType="text/css" height="654px" preserveAspectRatio="none" style="width:461px;height:654px;background:#FFFFFF;" version="1.1" viewBox="0 0 461 654" width="461px" zoomAndPan="magnify"><defs/><g><text fill="#000000" font-family="sans-serif" font-size="14" font-weight="bold" lengthAdjust="spacing" textLength="228" x="118.25" y="30.1074">System Sequence Diagram (SSD)</text><rect fill="#FFFFFF" height="429.0742" style="stroke:#181818;stroke-width:1.0;" width="10" x="68.5" y="133.2422"/><rect fill="#FFFFFF" height="31.291" style="stroke:#181818;stroke-width:1.0;" width="10" x="408.5" y="156.5332"/><rect fill="#FFFFFF" height="62.582" style="stroke:#181818;stroke-width:1.0;" width="10" x="408.5" y="262.6973"/><rect fill="#FFFFFF" height="31.291" style="stroke:#181818;stroke-width:1.0;" width="10" x="408.5" y="356.5703"/><rect fill="#FFFFFF" height="31.291" style="stroke:#181818;stroke-width:1.0;" width="10" x="408.5" y="452.4434"/><rect fill="#FFFFFF" height="31.291" style="stroke:#181818;stroke-width:1.0;" width="10" x="408.5" y="515.0254"/><rect fill="none" height="193.0371" style="stroke:#000000;stroke-width:1.5;" width="445.5" x="10" y="202.8242"/><rect fill="none" height="144.4551" style="stroke:#000000;stroke-width:1.5;" width="445.5" x="10" y="409.8613"/><line style="stroke:#181818;stroke-width:0.5;stroke-dasharray:5.0,5.0;" x1="73" x2="73" y1="123.2422" y2="571.3164"/><line style="stroke:#181818;stroke-width:0.5;stroke-dasharray:5.0,5.0;" x1="413.5" x2="413.5" y1="123.2422" y2="571.3164"/><text fill="#000000" font-family="sans-serif" font-size="14" lengthAdjust="spacing" textLength="101" x="20" y="119.7285">Unregisted User</text><ellipse cx="73.5" cy="53.1211" fill="#E3E3E3" rx="8" ry="8" style="stroke:#181818;stroke-width:0.5;"/><path d="M73.5,61.1211 L73.5,88.1211 M60.5,69.1211 L86.5,69.1211 M73.5,88.1211 L60.5,103.1211 M73.5,88.1211 L86.5,103.1211 " fill="none" style="stroke:#181818;stroke-width:0.5;"/><text fill="#000000" font-family="sans-serif" font-size="14" lengthAdjust="spacing" textLength="101" x="20" y="585.4238">Unregisted User</text><ellipse cx="73.5" cy="597.4375" fill="#E3E3E3" rx="8" ry="8" style="stroke:#181818;stroke-width:0.5;"/><path d="M73.5,605.4375 L73.5,632.4375 M60.5,613.4375 L86.5,613.4375 M73.5,632.4375 L60.5,647.4375 M73.5,632.4375 L86.5,647.4375 " fill="none" style="stroke:#181818;stroke-width:0.5;"/><rect fill="#E3E3E3" height="32.6211" rx="2.5" ry="2.5" style="stroke:#181818;stroke-width:0.5;" width="64" x="381.5" y="89.6211"/><text fill="#000000" font-family="sans-serif" font-size="14" lengthAdjust="spacing" textLength="50" x="388.5" y="111.7285">:System</text><rect fill="#E3E3E3" height="32.6211" rx="2.5" ry="2.5" style="stroke:#181818;stroke-width:0.5;" width="64" x="381.5" y="570.3164"/><text fill="#000000" font-family="sans-serif" font-size="14" lengthAdjust="spacing" textLength="50" x="388.5" y="592.4238">:System</text><rect fill="#FFFFFF" height="429.0742" style="stroke:#181818;stroke-width:1.0;" width="10" x="68.5" y="133.2422"/><rect fill="#FFFFFF" height="31.291" style="stroke:#181818;stroke-width:1.0;" width="10" x="408.5" y="156.5332"/><rect fill="#FFFFFF" height="62.582" style="stroke:#181818;stroke-width:1.0;" width="10" x="408.5" y="262.6973"/><rect fill="#FFFFFF" height="31.291" style="stroke:#181818;stroke-width:1.0;" width="10" x="408.5" y="356.5703"/><rect fill="#FFFFFF" height="31.291" style="stroke:#181818;stroke-width:1.0;" width="10" x="408.5" y="452.4434"/><rect fill="#FFFFFF" height="31.291" style="stroke:#181818;stroke-width:1.0;" width="10" x="408.5" y="515.0254"/><polygon fill="#181818" points="396.5,152.5332,406.5,156.5332,396.5,160.5332,400.5,156.5332" style="stroke:#181818;stroke-width:1.0;"/><line style="stroke:#181818;stroke-width:1.0;" x1="78.5" x2="402.5" y1="156.5332" y2="156.5332"/><text fill="#000000" font-family="sans-serif" font-size="13" font-weight="bold" lengthAdjust="spacing" textLength="7" x="85.5" y="151.2705">1</text><text fill="#000000" font-family="sans-serif" font-size="13" lengthAdjust="spacing" textLength="96" x="96.5" y="151.2705">initiates program</text><polygon fill="#181818" points="89.5,183.8242,79.5,187.8242,89.5,191.8242,85.5,187.8242" style="stroke:#181818;stroke-width:1.0;"/><line style="stroke:#181818;stroke-width:1.0;stroke-dasharray:2.0,2.0;" x1="83.5" x2="412.5" y1="187.8242" y2="187.8242"/><text fill="#000000" font-family="sans-serif" font-size="13" font-weight="bold" lengthAdjust="spacing" textLength="7" x="95.5" y="182.5615">2</text><text fill="#000000" font-family="sans-serif" font-size="13" lengthAdjust="spacing" textLength="202" x="106.5" y="182.5615">displays list filtered by most recent</text><path d="M10,202.8242 L71,202.8242 L71,212.1152 L61,222.1152 L10,222.1152 L10,202.8242 " fill="#EEEEEE" style="stroke:#000000;stroke-width:1.5;"/><rect fill="none" height="193.0371" style="stroke:#000000;stroke-width:1.5;" width="445.5" x="10" y="202.8242"/><text fill="#000000" font-family="sans-serif" font-size="13" font-weight="bold" lengthAdjust="spacing" textLength="16" x="25" y="217.8525">alt</text><text fill="#000000" font-family="sans-serif" font-size="11" font-weight="bold" lengthAdjust="spacing" textLength="183" x="86" y="216.6943">[The user wishes to sort the list]</text><polygon fill="#181818" points="396.5,258.6973,406.5,262.6973,396.5,266.6973,400.5,262.6973" style="stroke:#181818;stroke-width:1.0;"/><line style="stroke:#181818;stroke-width:1.0;" x1="78.5" x2="402.5" y1="262.6973" y2="262.6973"/><text fill="#000000" font-family="sans-serif" font-size="13" font-weight="bold" lengthAdjust="spacing" textLength="7" x="85.5" y="248.7891">3</text><text fill="#000000" font-family="sans-serif" font-size="13" lengthAdjust="spacing" textLength="239" x="96.5" y="240.1436">selects type of business (bying or rental),</text><text fill="#000000" font-family="sans-serif" font-size="13" lengthAdjust="spacing" textLength="239" x="100.5" y="257.4346">the type of property, the number of rooms</text><polygon fill="#181818" points="89.5,289.9883,79.5,293.9883,89.5,297.9883,85.5,293.9883" style="stroke:#181818;stroke-width:1.0;"/><line style="stroke:#181818;stroke-width:1.0;stroke-dasharray:2.0,2.0;" x1="83.5" x2="407.5" y1="293.9883" y2="293.9883"/><text fill="#000000" font-family="sans-serif" font-size="13" font-weight="bold" lengthAdjust="spacing" textLength="7" x="95.5" y="288.7256">4</text><text fill="#000000" font-family="sans-serif" font-size="13" lengthAdjust="spacing" textLength="141" x="106.5" y="288.7256">shows the requested list</text><polygon fill="#181818" points="89.5,321.2793,79.5,325.2793,89.5,329.2793,85.5,325.2793" style="stroke:#181818;stroke-width:1.0;"/><line style="stroke:#181818;stroke-width:1.0;stroke-dasharray:2.0,2.0;" x1="83.5" x2="412.5" y1="325.2793" y2="325.2793"/><text fill="#000000" font-family="sans-serif" font-size="13" font-weight="bold" lengthAdjust="spacing" textLength="7" x="95.5" y="320.0166">5</text><text fill="#000000" font-family="sans-serif" font-size="13" lengthAdjust="spacing" textLength="191" x="106.5" y="320.0166">allows to sort by price or location</text><polygon fill="#181818" points="396.5,352.5703,406.5,356.5703,396.5,360.5703,400.5,356.5703" style="stroke:#181818;stroke-width:1.0;"/><line style="stroke:#181818;stroke-width:1.0;" x1="78.5" x2="402.5" y1="356.5703" y2="356.5703"/><text fill="#000000" font-family="sans-serif" font-size="13" font-weight="bold" lengthAdjust="spacing" textLength="7" x="85.5" y="351.3076">6</text><text fill="#000000" font-family="sans-serif" font-size="13" lengthAdjust="spacing" textLength="138" x="96.5" y="351.3076">selects price or location</text><polygon fill="#181818" points="89.5,383.8613,79.5,387.8613,89.5,391.8613,85.5,387.8613" style="stroke:#181818;stroke-width:1.0;"/><line style="stroke:#181818;stroke-width:1.0;stroke-dasharray:2.0,2.0;" x1="83.5" x2="412.5" y1="387.8613" y2="387.8613"/><text fill="#000000" font-family="sans-serif" font-size="13" font-weight="bold" lengthAdjust="spacing" textLength="7" x="95.5" y="382.5986">7</text><text fill="#000000" font-family="sans-serif" font-size="13" lengthAdjust="spacing" textLength="119" x="106.5" y="382.5986">shows requested list</text><path d="M10,409.8613 L71,409.8613 L71,419.1523 L61,429.1523 L10,429.1523 L10,409.8613 " fill="#EEEEEE" style="stroke:#000000;stroke-width:1.5;"/><rect fill="none" height="144.4551" style="stroke:#000000;stroke-width:1.5;" width="445.5" x="10" y="409.8613"/><text fill="#000000" font-family="sans-serif" font-size="13" font-weight="bold" lengthAdjust="spacing" textLength="16" x="25" y="424.8896">alt</text><text fill="#000000" font-family="sans-serif" font-size="11" font-weight="bold" lengthAdjust="spacing" textLength="214" x="86" y="423.7314">[The user doesn't wish to sort the list]</text><polygon fill="#181818" points="396.5,448.4434,406.5,452.4434,396.5,456.4434,400.5,452.4434" style="stroke:#181818;stroke-width:1.0;"/><line style="stroke:#181818;stroke-width:1.0;" x1="78.5" x2="402.5" y1="452.4434" y2="452.4434"/><text fill="#000000" font-family="sans-serif" font-size="13" font-weight="bold" lengthAdjust="spacing" textLength="7" x="85.5" y="447.1807">8</text><text fill="#000000" font-family="sans-serif" font-size="13" lengthAdjust="spacing" textLength="174" x="96.5" y="447.1807">doesn't select any parameters</text><polygon fill="#181818" points="89.5,479.7344,79.5,483.7344,89.5,487.7344,85.5,483.7344" style="stroke:#181818;stroke-width:1.0;"/><line style="stroke:#181818;stroke-width:1.0;stroke-dasharray:2.0,2.0;" x1="83.5" x2="412.5" y1="483.7344" y2="483.7344"/><text fill="#000000" font-family="sans-serif" font-size="13" font-weight="bold" lengthAdjust="spacing" textLength="7" x="95.5" y="478.4717">9</text><text fill="#000000" font-family="sans-serif" font-size="13" lengthAdjust="spacing" textLength="295" x="106.5" y="478.4717">allows to sort by type of business (buying or rental)</text><polygon fill="#181818" points="396.5,511.0254,406.5,515.0254,396.5,519.0254,400.5,515.0254" style="stroke:#181818;stroke-width:1.0;"/><line style="stroke:#181818;stroke-width:1.0;" x1="78.5" x2="402.5" y1="515.0254" y2="515.0254"/><text fill="#000000" font-family="sans-serif" font-size="13" font-weight="bold" lengthAdjust="spacing" textLength="14" x="85.5" y="509.7627">10</text><text fill="#000000" font-family="sans-serif" font-size="13" lengthAdjust="spacing" textLength="242" x="103.5" y="509.7627">selects type of business (buying or rental)</text><polygon fill="#181818" points="89.5,542.3164,79.5,546.3164,89.5,550.3164,85.5,546.3164" style="stroke:#181818;stroke-width:1.0;"/><line style="stroke:#181818;stroke-width:1.0;stroke-dasharray:2.0,2.0;" x1="83.5" x2="412.5" y1="546.3164" y2="546.3164"/><text fill="#000000" font-family="sans-serif" font-size="13" font-weight="bold" lengthAdjust="spacing" textLength="14" x="95.5" y="541.0537">11</text><text fill="#000000" font-family="sans-serif" font-size="13" lengthAdjust="spacing" textLength="119" x="113.5" y="541.0537">shows requested list</text><!--SRC=[lLD1JiD03Bpd5LOlKAdzG0zSu0U16nStSHEhczsmTgZoUxoR1Y48LUc1FQsydibunf4Z-nuZTj057wesXev0uq25VBxqM1sneL97Hn2fKlID-zeWBTRXnBw10pgXeb1MQor7KUgWfBU1V4NmnDYazlkoV5eN1GuQ_D3jATgzqX1XzU8ZDMoe6bw4uWfGuD4nUItiIyeLz-WLLhk9EhzFrqp1xwWq0mgmCzrX-p2BsG5xLhO-WJw6f2StVg9dEZYVCsvh56Uo7TGilSDHm9bMEB1JYYPvFvg9LZ2Bae24hccH69t2Sqims91mOcbDZGQG41NKwedtD_r2pYAm_h4d20VO3yAUHE1-FwO8pCTe67Jh3RpwJ3Utsi0zHHqtkJfvd-enX4x-ReEquIIPAgQ8SsnP-KKKEfTXvt7Dj3woROVfTg52vU0lMNV1aMMU6qRwDiwocbGbNwSi5qAj0uc_qnpkrT7Ee6aWG6_Uf1-CRBzkoEUdqmixCtnRcXkzlvRv7zBu0000]--></g></svg>