<?xml version="1.0" encoding="us-ascii" standalone="no"?><svg xmlns="http://www.w3.org/2000/svg" xmlns:xlink="http://www.w3.org/1999/xlink" contentStyleType="text/css" height="1192px" preserveAspectRatio="none" style="width:2177px;height:1192px;background:#FFFFFF;" version="1.1" viewBox="0 0 2177 1192" width="2177px" zoomAndPan="magnify"><defs/><g><!--class Employee--><g id="elem_Employee"><rect codeLine="11" fill="#F1F1F1" height="48" id="Employee" rx="2.5" ry="2.5" style="stroke:#181818;stroke-width:0.5;" width="94" x="787" y="609.5"/><ellipse cx="802" cy="625.5" fill="#ADD1B2" rx="11" ry="11" style="stroke:#181818;stroke-width:1.0;"/><path d="M804.7656,621.375 Q804.9219,621.1563 805.1094,621.0469 Q805.2969,620.9375 805.5156,620.9375 Q805.8906,620.9375 806.125,621.2031 Q806.3594,621.4531 806.3594,622.0625 L806.3594,623.5156 Q806.3594,624.125 806.125,624.3906 Q805.8906,624.6563 805.5156,624.6563 Q805.1719,624.6563 804.9688,624.4531 Q804.7656,624.2656 804.6563,623.75 Q804.6094,623.3906 804.4219,623.2031 Q804.0938,622.8281 803.4844,622.6094 Q802.875,622.3906 802.25,622.3906 Q801.4844,622.3906 800.8438,622.7188 Q800.2188,623.0469 799.7188,623.7969 Q799.2344,624.5469 799.2344,625.5781 L799.2344,626.6719 Q799.2344,627.9063 800.125,628.7344 Q801.0156,629.5469 802.6094,629.5469 Q803.5469,629.5469 804.2031,629.2969 Q804.5938,629.1406 805.0156,628.7031 Q805.2813,628.4375 805.4219,628.3594 Q805.5781,628.2813 805.7813,628.2813 Q806.1094,628.2813 806.3594,628.5469 Q806.625,628.7969 806.625,629.1406 Q806.625,629.4844 806.2813,629.8906 Q805.7813,630.4688 804.9844,630.7969 Q803.9063,631.25 802.6094,631.25 Q801.0938,631.25 799.8906,630.625 Q798.9063,630.125 798.2188,629.0625 Q797.5313,627.9844 797.5313,626.7031 L797.5313,625.5469 Q797.5313,624.2188 798.1406,623.0781 Q798.7656,621.9219 799.8594,621.3125 Q800.9531,620.6875 802.1875,620.6875 Q802.9219,620.6875 803.5625,620.8594 Q804.2188,621.0156 804.7656,621.375 Z " fill="#000000"/><text fill="#000000" font-family="sans-serif" font-size="14" lengthAdjust="spacing" textLength="62" x="816" y="631.2969">Employee</text><line style="stroke:#181818;stroke-width:0.5;" x1="788" x2="880" y1="641.5" y2="641.5"/><line style="stroke:#181818;stroke-width:0.5;" x1="788" x2="880" y1="649.5" y2="649.5"/></g><!--class Role--><g id="elem_Role"><rect codeLine="15" fill="#F1F1F1" height="178.3477" id="Role" rx="2.5" ry="2.5" style="stroke:#181818;stroke-width:0.5;" width="147" x="244.5" y="951"/><ellipse cx="299.25" cy="967" fill="#ADD1B2" rx="11" ry="11" style="stroke:#181818;stroke-width:1.0;"/><path d="M302.0156,962.875 Q302.1719,962.6563 302.3594,962.5469 Q302.5469,962.4375 302.7656,962.4375 Q303.1406,962.4375 303.375,962.7031 Q303.6094,962.9531 303.6094,963.5625 L303.6094,965.0156 Q303.6094,965.625 303.375,965.8906 Q303.1406,966.1563 302.7656,966.1563 Q302.4219,966.1563 302.2188,965.9531 Q302.0156,965.7656 301.9063,965.25 Q301.8594,964.8906 301.6719,964.7031 Q301.3438,964.3281 300.7344,964.1094 Q300.125,963.8906 299.5,963.8906 Q298.7344,963.8906 298.0938,964.2188 Q297.4688,964.5469 296.9688,965.2969 Q296.4844,966.0469 296.4844,967.0781 L296.4844,968.1719 Q296.4844,969.4063 297.375,970.2344 Q298.2656,971.0469 299.8594,971.0469 Q300.7969,971.0469 301.4531,970.7969 Q301.8438,970.6406 302.2656,970.2031 Q302.5313,969.9375 302.6719,969.8594 Q302.8281,969.7813 303.0313,969.7813 Q303.3594,969.7813 303.6094,970.0469 Q303.875,970.2969 303.875,970.6406 Q303.875,970.9844 303.5313,971.3906 Q303.0313,971.9688 302.2344,972.2969 Q301.1563,972.75 299.8594,972.75 Q298.3438,972.75 297.1406,972.125 Q296.1563,971.625 295.4688,970.5625 Q294.7813,969.4844 294.7813,968.2031 L294.7813,967.0469 Q294.7813,965.7188 295.3906,964.5781 Q296.0156,963.4219 297.1094,962.8125 Q298.2031,962.1875 299.4375,962.1875 Q300.1719,962.1875 300.8125,962.3594 Q301.4688,962.5156 302.0156,962.875 Z " fill="#000000"/><text fill="#000000" font-family="sans-serif" font-size="14" lengthAdjust="spacing" textLength="29" x="319.75" y="972.7969">Role</text><line style="stroke:#181818;stroke-width:0.5;" x1="245.5" x2="390.5" y1="983" y2="983"/><text fill="#000000" font-family="sans-serif" font-size="14" lengthAdjust="spacing" textLength="57" x="250.5" y="1002.1074">-String id</text><text fill="#000000" font-family="sans-serif" font-size="14" lengthAdjust="spacing" textLength="115" x="250.5" y="1020.7285">-String description</text><line style="stroke:#181818;stroke-width:1.0;" x1="245.5" x2="390.5" y1="1028.2422" y2="1028.2422"/><text fill="#000000" font-family="sans-serif" font-size="14" lengthAdjust="spacing" textLength="135" x="250.5" y="1047.3496">+Role(id, description)</text><text fill="#000000" font-family="sans-serif" font-size="14" lengthAdjust="spacing" textLength="40" x="250.5" y="1065.9707">+setID</text><text fill="#000000" font-family="sans-serif" font-size="14" lengthAdjust="spacing" textLength="98" x="250.5" y="1084.5918">+setDescription</text><text fill="#000000" font-family="sans-serif" font-size="14" lengthAdjust="spacing" textLength="41" x="250.5" y="1103.2129">+getID</text><text fill="#000000" font-family="sans-serif" font-size="14" lengthAdjust="spacing" textLength="99" x="250.5" y="1121.834">+getDescription</text></g><!--class Address--><g id="elem_Address"><rect codeLine="26" fill="#F1F1F1" height="345.9375" id="Address" rx="2.5" ry="2.5" style="stroke:#181818;stroke-width:0.5;" width="294" x="7" y="460.5"/><ellipse cx="123.75" cy="476.5" fill="#ADD1B2" rx="11" ry="11" style="stroke:#181818;stroke-width:1.0;"/><path d="M126.5156,472.375 Q126.6719,472.1563 126.8594,472.0469 Q127.0469,471.9375 127.2656,471.9375 Q127.6406,471.9375 127.875,472.2031 Q128.1094,472.4531 128.1094,473.0625 L128.1094,474.5156 Q128.1094,475.125 127.875,475.3906 Q127.6406,475.6563 127.2656,475.6563 Q126.9219,475.6563 126.7188,475.4531 Q126.5156,475.2656 126.4063,474.75 Q126.3594,474.3906 126.1719,474.2031 Q125.8438,473.8281 125.2344,473.6094 Q124.625,473.3906 124,473.3906 Q123.2344,473.3906 122.5938,473.7188 Q121.9688,474.0469 121.4688,474.7969 Q120.9844,475.5469 120.9844,476.5781 L120.9844,477.6719 Q120.9844,478.9063 121.875,479.7344 Q122.7656,480.5469 124.3594,480.5469 Q125.2969,480.5469 125.9531,480.2969 Q126.3438,480.1406 126.7656,479.7031 Q127.0313,479.4375 127.1719,479.3594 Q127.3281,479.2813 127.5313,479.2813 Q127.8594,479.2813 128.1094,479.5469 Q128.375,479.7969 128.375,480.1406 Q128.375,480.4844 128.0313,480.8906 Q127.5313,481.4688 126.7344,481.7969 Q125.6563,482.25 124.3594,482.25 Q122.8438,482.25 121.6406,481.625 Q120.6563,481.125 119.9688,480.0625 Q119.2813,478.9844 119.2813,477.7031 L119.2813,476.5469 Q119.2813,475.2188 119.8906,474.0781 Q120.5156,472.9219 121.6094,472.3125 Q122.7031,471.6875 123.9375,471.6875 Q124.6719,471.6875 125.3125,471.8594 Q125.9688,472.0156 126.5156,472.375 Z " fill="#000000"/><text fill="#000000" font-family="sans-serif" font-size="14" lengthAdjust="spacing" textLength="52" x="144.25" y="482.2969">Address</text><line style="stroke:#181818;stroke-width:0.5;" x1="8" x2="300" y1="492.5" y2="492.5"/><text fill="#000000" font-family="sans-serif" font-size="14" lengthAdjust="spacing" textLength="82" x="13" y="511.6074">-String street</text><text fill="#000000" font-family="sans-serif" font-size="14" lengthAdjust="spacing" textLength="67" x="13" y="530.2285">-String city</text><text fill="#000000" font-family="sans-serif" font-size="14" lengthAdjust="spacing" textLength="87" x="13" y="548.8496">-String district</text><text fill="#000000" font-family="sans-serif" font-size="14" lengthAdjust="spacing" textLength="77" x="13" y="567.4707">-String state</text><text fill="#000000" font-family="sans-serif" font-size="14" lengthAdjust="spacing" textLength="97" x="13" y="586.0918">-String zipCode</text><line style="stroke:#181818;stroke-width:1.0;" x1="8" x2="300" y1="593.6055" y2="593.6055"/><text fill="#000000" font-family="sans-serif" font-size="14" lengthAdjust="spacing" textLength="282" x="13" y="612.7129">+Address(street, city, district, state, zipCode)</text><text fill="#000000" font-family="sans-serif" font-size="14" lengthAdjust="spacing" textLength="75" x="13" y="631.334">+setStreet()</text><text fill="#000000" font-family="sans-serif" font-size="14" lengthAdjust="spacing" textLength="61" x="13" y="649.9551">+setCity()</text><text fill="#000000" font-family="sans-serif" font-size="14" lengthAdjust="spacing" textLength="80" x="13" y="668.5762">+setDistrict()</text><text fill="#000000" font-family="sans-serif" font-size="14" lengthAdjust="spacing" textLength="70" x="13" y="687.1973">+setState()</text><text fill="#000000" font-family="sans-serif" font-size="14" lengthAdjust="spacing" textLength="90" x="13" y="705.8184">+setZipCode()</text><text fill="#000000" font-family="sans-serif" font-size="14" lengthAdjust="spacing" textLength="76" x="13" y="724.4395">+getStreet()</text><text fill="#000000" font-family="sans-serif" font-size="14" lengthAdjust="spacing" textLength="62" x="13" y="743.0605">+getCity()</text><text fill="#000000" font-family="sans-serif" font-size="14" lengthAdjust="spacing" textLength="81" x="13" y="761.6816">+getDistrict()</text><text fill="#000000" font-family="sans-serif" font-size="14" lengthAdjust="spacing" textLength="71" x="13" y="780.3027">+getState()</text><text fill="#000000" font-family="sans-serif" font-size="14" lengthAdjust="spacing" textLength="91" x="13" y="798.9238">+getZipCode()</text></g><!--class PassportCard--><g id="elem_PassportCard"><rect codeLine="46" fill="#F1F1F1" height="122.4844" id="PassportCard" rx="2.5" ry="2.5" style="stroke:#181818;stroke-width:0.5;" width="221" x="426.5" y="979"/><ellipse cx="489.25" cy="995" fill="#ADD1B2" rx="11" ry="11" style="stroke:#181818;stroke-width:1.0;"/><path d="M492.0156,990.875 Q492.1719,990.6563 492.3594,990.5469 Q492.5469,990.4375 492.7656,990.4375 Q493.1406,990.4375 493.375,990.7031 Q493.6094,990.9531 493.6094,991.5625 L493.6094,993.0156 Q493.6094,993.625 493.375,993.8906 Q493.1406,994.1563 492.7656,994.1563 Q492.4219,994.1563 492.2188,993.9531 Q492.0156,993.7656 491.9063,993.25 Q491.8594,992.8906 491.6719,992.7031 Q491.3438,992.3281 490.7344,992.1094 Q490.125,991.8906 489.5,991.8906 Q488.7344,991.8906 488.0938,992.2188 Q487.4688,992.5469 486.9688,993.2969 Q486.4844,994.0469 486.4844,995.0781 L486.4844,996.1719 Q486.4844,997.4063 487.375,998.2344 Q488.2656,999.0469 489.8594,999.0469 Q490.7969,999.0469 491.4531,998.7969 Q491.8438,998.6406 492.2656,998.2031 Q492.5313,997.9375 492.6719,997.8594 Q492.8281,997.7813 493.0313,997.7813 Q493.3594,997.7813 493.6094,998.0469 Q493.875,998.2969 493.875,998.6406 Q493.875,998.9844 493.5313,999.3906 Q493.0313,999.9688 492.2344,1000.2969 Q491.1563,1000.75 489.8594,1000.75 Q488.3438,1000.75 487.1406,1000.125 Q486.1563,999.625 485.4688,998.5625 Q484.7813,997.4844 484.7813,996.2031 L484.7813,995.0469 Q484.7813,993.7188 485.3906,992.5781 Q486.0156,991.4219 487.1094,990.8125 Q488.2031,990.1875 489.4375,990.1875 Q490.1719,990.1875 490.8125,990.3594 Q491.4688,990.5156 492.0156,990.875 Z " fill="#000000"/><text fill="#000000" font-family="sans-serif" font-size="14" lengthAdjust="spacing" textLength="87" x="509.75" y="1000.7969">PassportCard</text><line style="stroke:#181818;stroke-width:0.5;" x1="427.5" x2="646.5" y1="1011" y2="1011"/><text fill="#000000" font-family="sans-serif" font-size="14" lengthAdjust="spacing" textLength="150" x="432.5" y="1030.1074">-String passportNumber</text><line style="stroke:#181818;stroke-width:1.0;" x1="427.5" x2="646.5" y1="1037.6211" y2="1037.6211"/><text fill="#000000" font-family="sans-serif" font-size="14" lengthAdjust="spacing" textLength="209" x="432.5" y="1056.7285">+PassportCard(passportNumber)</text><text fill="#000000" font-family="sans-serif" font-size="14" lengthAdjust="spacing" textLength="143" x="432.5" y="1075.3496">+getPassportNumber()</text><text fill="#000000" font-family="sans-serif" font-size="14" lengthAdjust="spacing" textLength="142" x="432.5" y="1093.9707">+setPassportNumber()</text></g><!--class Person--><g id="elem_Person"><rect codeLine="54" fill="#F1F1F1" height="327.3164" id="Person" rx="2.5" ry="2.5" style="stroke:#181818;stroke-width:0.5;" width="306" x="384" y="470"/><ellipse cx="510.25" cy="486" fill="#ADD1B2" rx="11" ry="11" style="stroke:#181818;stroke-width:1.0;"/><path d="M513.0156,481.875 Q513.1719,481.6563 513.3594,481.5469 Q513.5469,481.4375 513.7656,481.4375 Q514.1406,481.4375 514.375,481.7031 Q514.6094,481.9531 514.6094,482.5625 L514.6094,484.0156 Q514.6094,484.625 514.375,484.8906 Q514.1406,485.1563 513.7656,485.1563 Q513.4219,485.1563 513.2188,484.9531 Q513.0156,484.7656 512.9063,484.25 Q512.8594,483.8906 512.6719,483.7031 Q512.3438,483.3281 511.7344,483.1094 Q511.125,482.8906 510.5,482.8906 Q509.7344,482.8906 509.0938,483.2188 Q508.4688,483.5469 507.9688,484.2969 Q507.4844,485.0469 507.4844,486.0781 L507.4844,487.1719 Q507.4844,488.4063 508.375,489.2344 Q509.2656,490.0469 510.8594,490.0469 Q511.7969,490.0469 512.4531,489.7969 Q512.8438,489.6406 513.2656,489.2031 Q513.5313,488.9375 513.6719,488.8594 Q513.8281,488.7813 514.0313,488.7813 Q514.3594,488.7813 514.6094,489.0469 Q514.875,489.2969 514.875,489.6406 Q514.875,489.9844 514.5313,490.3906 Q514.0313,490.9688 513.2344,491.2969 Q512.1563,491.75 510.8594,491.75 Q509.3438,491.75 508.1406,491.125 Q507.1563,490.625 506.4688,489.5625 Q505.7813,488.4844 505.7813,487.2031 L505.7813,486.0469 Q505.7813,484.7188 506.3906,483.5781 Q507.0156,482.4219 508.1094,481.8125 Q509.2031,481.1875 510.4375,481.1875 Q511.1719,481.1875 511.8125,481.3594 Q512.4688,481.5156 513.0156,481.875 Z " fill="#000000"/><text fill="#000000" font-family="sans-serif" font-size="14" lengthAdjust="spacing" textLength="45" x="530.75" y="491.7969">Person</text><line style="stroke:#181818;stroke-width:0.5;" x1="385" x2="689" y1="502" y2="502"/><text fill="#000000" font-family="sans-serif" font-size="14" lengthAdjust="spacing" textLength="81" x="390" y="521.1074">-String name</text><text fill="#000000" font-family="sans-serif" font-size="14" lengthAdjust="spacing" textLength="131" x="390" y="539.7285">-String emailAddress</text><text fill="#000000" font-family="sans-serif" font-size="14" lengthAdjust="spacing" textLength="113" x="390" y="558.3496">-String taxNumber</text><text fill="#000000" font-family="sans-serif" font-size="14" lengthAdjust="spacing" textLength="158" x="390" y="576.9707">-String telephoneNumber</text><line style="stroke:#181818;stroke-width:1.0;" x1="385" x2="689" y1="584.4844" y2="584.4844"/><text fill="#000000" font-family="sans-serif" font-size="14" lengthAdjust="spacing" textLength="294" x="390" y="603.5918">+Person(name, passportNumber, emailAdress,</text><text fill="#000000" font-family="sans-serif" font-size="14" lengthAdjust="spacing" textLength="242" x="390" y="622.2129">taxNumber, contactTelephoneNumber,</text><text fill="#000000" font-family="sans-serif" font-size="14" lengthAdjust="spacing" textLength="88" x="390" y="640.834">address, role)</text><text fill="#000000" font-family="sans-serif" font-size="14" lengthAdjust="spacing" textLength="73" x="390" y="659.4551">+setName()</text><text fill="#000000" font-family="sans-serif" font-size="14" lengthAdjust="spacing" textLength="123" x="390" y="678.0762">+setEmailAddress()</text><text fill="#000000" font-family="sans-serif" font-size="14" lengthAdjust="spacing" textLength="109" x="390" y="696.6973">+setTaxNumber()</text><text fill="#000000" font-family="sans-serif" font-size="14" lengthAdjust="spacing" textLength="154" x="390" y="715.3184">+setTelephoneNumber()</text><text fill="#000000" font-family="sans-serif" font-size="14" lengthAdjust="spacing" textLength="74" x="390" y="733.9395">+getName()</text><text fill="#000000" font-family="sans-serif" font-size="14" lengthAdjust="spacing" textLength="124" x="390" y="752.5605">+getEmailAddress()</text><text fill="#000000" font-family="sans-serif" font-size="14" lengthAdjust="spacing" textLength="110" x="390" y="771.1816">+getTaxNumber()</text><text fill="#000000" font-family="sans-serif" font-size="14" lengthAdjust="spacing" textLength="155" x="390" y="789.8027">+getTelephoneNumber()</text></g><!--class ApproveVisitRequestController--><g id="elem_ApproveVisitRequestController"><rect codeLine="72" fill="#F1F1F1" height="159.7266" id="ApproveVisitRequestController" rx="2.5" ry="2.5" style="stroke:#181818;stroke-width:0.5;" width="369" x="1127.5" y="553.5"/><ellipse cx="1210.75" cy="569.5" fill="#ADD1B2" rx="11" ry="11" style="stroke:#181818;stroke-width:1.0;"/><path d="M1213.5156,565.375 Q1213.6719,565.1563 1213.8594,565.0469 Q1214.0469,564.9375 1214.2656,564.9375 Q1214.6406,564.9375 1214.875,565.2031 Q1215.1094,565.4531 1215.1094,566.0625 L1215.1094,567.5156 Q1215.1094,568.125 1214.875,568.3906 Q1214.6406,568.6563 1214.2656,568.6563 Q1213.9219,568.6563 1213.7188,568.4531 Q1213.5156,568.2656 1213.4063,567.75 Q1213.3594,567.3906 1213.1719,567.2031 Q1212.8438,566.8281 1212.2344,566.6094 Q1211.625,566.3906 1211,566.3906 Q1210.2344,566.3906 1209.5938,566.7188 Q1208.9688,567.0469 1208.4688,567.7969 Q1207.9844,568.5469 1207.9844,569.5781 L1207.9844,570.6719 Q1207.9844,571.9063 1208.875,572.7344 Q1209.7656,573.5469 1211.3594,573.5469 Q1212.2969,573.5469 1212.9531,573.2969 Q1213.3438,573.1406 1213.7656,572.7031 Q1214.0313,572.4375 1214.1719,572.3594 Q1214.3281,572.2813 1214.5313,572.2813 Q1214.8594,572.2813 1215.1094,572.5469 Q1215.375,572.7969 1215.375,573.1406 Q1215.375,573.4844 1215.0313,573.8906 Q1214.5313,574.4688 1213.7344,574.7969 Q1212.6563,575.25 1211.3594,575.25 Q1209.8438,575.25 1208.6406,574.625 Q1207.6563,574.125 1206.9688,573.0625 Q1206.2813,571.9844 1206.2813,570.7031 L1206.2813,569.5469 Q1206.2813,568.2188 1206.8906,567.0781 Q1207.5156,565.9219 1208.6094,565.3125 Q1209.7031,564.6875 1210.9375,564.6875 Q1211.6719,564.6875 1212.3125,564.8594 Q1212.9688,565.0156 1213.5156,565.375 Z " fill="#000000"/><text fill="#000000" font-family="sans-serif" font-size="14" lengthAdjust="spacing" textLength="194" x="1231.25" y="575.2969">ApproveVisitRequestController</text><line style="stroke:#181818;stroke-width:0.5;" x1="1128.5" x2="1495.5" y1="585.5" y2="585.5"/><line style="stroke:#181818;stroke-width:1.0;" x1="1128.5" x2="1495.5" y1="593.5" y2="593.5"/><text fill="#000000" font-family="sans-serif" font-size="14" lengthAdjust="spacing" textLength="123" x="1133.5" y="612.6074">+getLoggedAgent()</text><text fill="#000000" font-family="sans-serif" font-size="14" lengthAdjust="spacing" textLength="168" x="1133.5" y="631.2285">+toVisitRequestsListDTO()</text><text fill="#000000" font-family="sans-serif" font-size="14" lengthAdjust="spacing" textLength="357" x="1133.5" y="649.8496">+sendDates(beginDate, endDate, visitRequestsListDTO)</text><text fill="#000000" font-family="sans-serif" font-size="14" lengthAdjust="spacing" textLength="166" x="1133.5" y="668.4707">+sendAlgorithm(algorithm)</text><text fill="#000000" font-family="sans-serif" font-size="14" lengthAdjust="spacing" textLength="352" x="1133.5" y="687.0918">+sortVisitRequestsList(visitRequestsListDTO, algorithm)</text><text fill="#000000" font-family="sans-serif" font-size="14" lengthAdjust="spacing" textLength="211" x="1133.5" y="705.7129">+getVisitRequestedByID(valueOf)</text></g><!--class ApproveVisitRequestUI--><g id="elem_ApproveVisitRequestUI"><rect codeLine="82" fill="#F1F1F1" height="85.2422" id="ApproveVisitRequestUI" rx="2.5" ry="2.5" style="stroke:#181818;stroke-width:0.5;" width="176" x="916" y="591"/><ellipse cx="931" cy="607" fill="#ADD1B2" rx="11" ry="11" style="stroke:#181818;stroke-width:1.0;"/><path d="M933.7656,602.875 Q933.9219,602.6563 934.1094,602.5469 Q934.2969,602.4375 934.5156,602.4375 Q934.8906,602.4375 935.125,602.7031 Q935.3594,602.9531 935.3594,603.5625 L935.3594,605.0156 Q935.3594,605.625 935.125,605.8906 Q934.8906,606.1563 934.5156,606.1563 Q934.1719,606.1563 933.9688,605.9531 Q933.7656,605.7656 933.6563,605.25 Q933.6094,604.8906 933.4219,604.7031 Q933.0938,604.3281 932.4844,604.1094 Q931.875,603.8906 931.25,603.8906 Q930.4844,603.8906 929.8438,604.2188 Q929.2188,604.5469 928.7188,605.2969 Q928.2344,606.0469 928.2344,607.0781 L928.2344,608.1719 Q928.2344,609.4063 929.125,610.2344 Q930.0156,611.0469 931.6094,611.0469 Q932.5469,611.0469 933.2031,610.7969 Q933.5938,610.6406 934.0156,610.2031 Q934.2813,609.9375 934.4219,609.8594 Q934.5781,609.7813 934.7813,609.7813 Q935.1094,609.7813 935.3594,610.0469 Q935.625,610.2969 935.625,610.6406 Q935.625,610.9844 935.2813,611.3906 Q934.7813,611.9688 933.9844,612.2969 Q932.9063,612.75 931.6094,612.75 Q930.0938,612.75 928.8906,612.125 Q927.9063,611.625 927.2188,610.5625 Q926.5313,609.4844 926.5313,608.2031 L926.5313,607.0469 Q926.5313,605.7188 927.1406,604.5781 Q927.7656,603.4219 928.8594,602.8125 Q929.9531,602.1875 931.1875,602.1875 Q931.9219,602.1875 932.5625,602.3594 Q933.2188,602.5156 933.7656,602.875 Z " fill="#000000"/><text fill="#000000" font-family="sans-serif" font-size="14" lengthAdjust="spacing" textLength="144" x="945" y="612.7969">ApproveVisitRequestUI</text><line style="stroke:#181818;stroke-width:0.5;" x1="917" x2="1091" y1="623" y2="623"/><line style="stroke:#181818;stroke-width:1.0;" x1="917" x2="1091" y1="631" y2="631"/><text fill="#000000" font-family="sans-serif" font-size="14" lengthAdjust="spacing" textLength="89" x="922" y="650.1074">+submitData()</text><text fill="#000000" font-family="sans-serif" font-size="14" lengthAdjust="spacing" textLength="96" x="922" y="668.7285">+requestData()</text></g><!--class VisitRequest--><g id="elem_VisitRequest"><rect codeLine="88" fill="#F1F1F1" height="364.5586" id="VisitRequest" rx="2.5" ry="2.5" style="stroke:#181818;stroke-width:0.5;" width="638" x="1532" y="451"/><ellipse cx="1807.25" cy="467" fill="#ADD1B2" rx="11" ry="11" style="stroke:#181818;stroke-width:1.0;"/><path d="M1810.0156,462.875 Q1810.1719,462.6563 1810.3594,462.5469 Q1810.5469,462.4375 1810.7656,462.4375 Q1811.1406,462.4375 1811.375,462.7031 Q1811.6094,462.9531 1811.6094,463.5625 L1811.6094,465.0156 Q1811.6094,465.625 1811.375,465.8906 Q1811.1406,466.1563 1810.7656,466.1563 Q1810.4219,466.1563 1810.2188,465.9531 Q1810.0156,465.7656 1809.9063,465.25 Q1809.8594,464.8906 1809.6719,464.7031 Q1809.3438,464.3281 1808.7344,464.1094 Q1808.125,463.8906 1807.5,463.8906 Q1806.7344,463.8906 1806.0938,464.2188 Q1805.4688,464.5469 1804.9688,465.2969 Q1804.4844,466.0469 1804.4844,467.0781 L1804.4844,468.1719 Q1804.4844,469.4063 1805.375,470.2344 Q1806.2656,471.0469 1807.8594,471.0469 Q1808.7969,471.0469 1809.4531,470.7969 Q1809.8438,470.6406 1810.2656,470.2031 Q1810.5313,469.9375 1810.6719,469.8594 Q1810.8281,469.7813 1811.0313,469.7813 Q1811.3594,469.7813 1811.6094,470.0469 Q1811.875,470.2969 1811.875,470.6406 Q1811.875,470.9844 1811.5313,471.3906 Q1811.0313,471.9688 1810.2344,472.2969 Q1809.1563,472.75 1807.8594,472.75 Q1806.3438,472.75 1805.1406,472.125 Q1804.1563,471.625 1803.4688,470.5625 Q1802.7813,469.4844 1802.7813,468.2031 L1802.7813,467.0469 Q1802.7813,465.7188 1803.3906,464.5781 Q1804.0156,463.4219 1805.1094,462.8125 Q1806.2031,462.1875 1807.4375,462.1875 Q1808.1719,462.1875 1808.8125,462.3594 Q1809.4688,462.5156 1810.0156,462.875 Z " fill="#000000"/><text fill="#000000" font-family="sans-serif" font-size="14" lengthAdjust="spacing" textLength="79" x="1827.75" y="472.7969">VisitRequest</text><line style="stroke:#181818;stroke-width:0.5;" x1="1533" x2="2169" y1="483" y2="483"/><text fill="#000000" font-family="sans-serif" font-size="14" lengthAdjust="spacing" textLength="61" x="1538" y="502.1074">-String id;</text><text fill="#000000" font-family="sans-serif" font-size="14" lengthAdjust="spacing" textLength="70" x="1538" y="520.7285">-User user;</text><text fill="#000000" font-family="sans-serif" font-size="14" lengthAdjust="spacing" textLength="202" x="1538" y="539.3496">-Announcement announcement;</text><text fill="#000000" font-family="sans-serif" font-size="14" lengthAdjust="spacing" textLength="78" x="1538" y="557.9707">-String date;</text><text fill="#000000" font-family="sans-serif" font-size="14" lengthAdjust="spacing" textLength="117" x="1538" y="576.5918">-String timeFrame;</text><line style="stroke:#181818;stroke-width:1.0;" x1="1533" x2="2169" y1="584.1055" y2="584.1055"/><text fill="#000000" font-family="sans-serif" font-size="14" lengthAdjust="spacing" textLength="626" x="1538" y="603.2129">+VisitRequest(name, emailAddress, password, telephoneNumber, announcement, date, timeFrame)</text><text fill="#000000" font-family="sans-serif" font-size="14" lengthAdjust="spacing" textLength="129" x="1538" y="621.834">+setVisitRequestID()</text><text fill="#000000" font-family="sans-serif" font-size="14" lengthAdjust="spacing" textLength="130" x="1538" y="640.4551">+getVisitRequestID()</text><text fill="#000000" font-family="sans-serif" font-size="14" lengthAdjust="spacing" textLength="66" x="1538" y="659.0762">+setUser()</text><text fill="#000000" font-family="sans-serif" font-size="14" lengthAdjust="spacing" textLength="67" x="1538" y="677.6973">+getUser()</text><text fill="#000000" font-family="sans-serif" font-size="14" lengthAdjust="spacing" textLength="132" x="1538" y="696.3184">+setAnnouncement()</text><text fill="#000000" font-family="sans-serif" font-size="14" lengthAdjust="spacing" textLength="133" x="1538" y="714.9395">+getAnnouncement()</text><text fill="#000000" font-family="sans-serif" font-size="14" lengthAdjust="spacing" textLength="67" x="1538" y="733.5605">+setDate()</text><text fill="#000000" font-family="sans-serif" font-size="14" lengthAdjust="spacing" textLength="68" x="1538" y="752.1816">+getDate()</text><text fill="#000000" font-family="sans-serif" font-size="14" lengthAdjust="spacing" textLength="109" x="1538" y="770.8027">+setTimeFrame()</text><text fill="#000000" font-family="sans-serif" font-size="14" lengthAdjust="spacing" textLength="110" x="1538" y="789.4238">+getTimeFrame()</text><text fill="#000000" font-family="sans-serif" font-size="14" lengthAdjust="spacing" textLength="67" x="1538" y="808.0449">+toString()</text></g><!--class User--><g id="elem_User"><rect codeLine="109" fill="#F1F1F1" height="290.0742" id="User" rx="2.5" ry="2.5" style="stroke:#181818;stroke-width:0.5;" width="426" x="683" y="895"/><ellipse cx="877.25" cy="911" fill="#ADD1B2" rx="11" ry="11" style="stroke:#181818;stroke-width:1.0;"/><path d="M880.0156,906.875 Q880.1719,906.6563 880.3594,906.5469 Q880.5469,906.4375 880.7656,906.4375 Q881.1406,906.4375 881.375,906.7031 Q881.6094,906.9531 881.6094,907.5625 L881.6094,909.0156 Q881.6094,909.625 881.375,909.8906 Q881.1406,910.1563 880.7656,910.1563 Q880.4219,910.1563 880.2188,909.9531 Q880.0156,909.7656 879.9063,909.25 Q879.8594,908.8906 879.6719,908.7031 Q879.3438,908.3281 878.7344,908.1094 Q878.125,907.8906 877.5,907.8906 Q876.7344,907.8906 876.0938,908.2188 Q875.4688,908.5469 874.9688,909.2969 Q874.4844,910.0469 874.4844,911.0781 L874.4844,912.1719 Q874.4844,913.4063 875.375,914.2344 Q876.2656,915.0469 877.8594,915.0469 Q878.7969,915.0469 879.4531,914.7969 Q879.8438,914.6406 880.2656,914.2031 Q880.5313,913.9375 880.6719,913.8594 Q880.8281,913.7813 881.0313,913.7813 Q881.3594,913.7813 881.6094,914.0469 Q881.875,914.2969 881.875,914.6406 Q881.875,914.9844 881.5313,915.3906 Q881.0313,915.9688 880.2344,916.2969 Q879.1563,916.75 877.8594,916.75 Q876.3438,916.75 875.1406,916.125 Q874.1563,915.625 873.4688,914.5625 Q872.7813,913.4844 872.7813,912.2031 L872.7813,911.0469 Q872.7813,909.7188 873.3906,908.5781 Q874.0156,907.4219 875.1094,906.8125 Q876.2031,906.1875 877.4375,906.1875 Q878.1719,906.1875 878.8125,906.3594 Q879.4688,906.5156 880.0156,906.875 Z " fill="#000000"/><text fill="#000000" font-family="sans-serif" font-size="14" lengthAdjust="spacing" textLength="29" x="897.75" y="916.7969">User</text><line style="stroke:#181818;stroke-width:0.5;" x1="684" x2="1108" y1="927" y2="927"/><text fill="#000000" font-family="sans-serif" font-size="14" lengthAdjust="spacing" textLength="81" x="689" y="946.1074">-String name</text><text fill="#000000" font-family="sans-serif" font-size="14" lengthAdjust="spacing" textLength="131" x="689" y="964.7285">-String emailAddress</text><text fill="#000000" font-family="sans-serif" font-size="14" lengthAdjust="spacing" textLength="106" x="689" y="983.3496">-String password</text><text fill="#000000" font-family="sans-serif" font-size="14" lengthAdjust="spacing" textLength="209" x="689" y="1001.9707">-String contactTelephoneNumber</text><line style="stroke:#181818;stroke-width:1.0;" x1="684" x2="1108" y1="1009.4844" y2="1009.4844"/><text fill="#000000" font-family="sans-serif" font-size="14" lengthAdjust="spacing" textLength="414" x="689" y="1028.5918">+User(name, emailAddress, password, contactTelephoneNumber)</text><text fill="#000000" font-family="sans-serif" font-size="14" lengthAdjust="spacing" textLength="73" x="689" y="1047.2129">+setName()</text><text fill="#000000" font-family="sans-serif" font-size="14" lengthAdjust="spacing" textLength="123" x="689" y="1065.834">+setEmailAddress()</text><text fill="#000000" font-family="sans-serif" font-size="14" lengthAdjust="spacing" textLength="98" x="689" y="1084.4551">+setPassword()</text><text fill="#000000" font-family="sans-serif" font-size="14" lengthAdjust="spacing" textLength="203" x="689" y="1103.0762">+setContactTelephoneNumber()</text><text fill="#000000" font-family="sans-serif" font-size="14" lengthAdjust="spacing" textLength="74" x="689" y="1121.6973">+getName()</text><text fill="#000000" font-family="sans-serif" font-size="14" lengthAdjust="spacing" textLength="124" x="689" y="1140.3184">+getEmailAddress()</text><text fill="#000000" font-family="sans-serif" font-size="14" lengthAdjust="spacing" textLength="99" x="689" y="1158.9395">+getPassword()</text><text fill="#000000" font-family="sans-serif" font-size="14" lengthAdjust="spacing" textLength="204" x="689" y="1177.5605">+getContactTelephoneNumber()</text></g><!--class Agency--><g id="elem_Agency"><rect codeLine="126" fill="#F1F1F1" height="364.5586" id="Agency" rx="2.5" ry="2.5" style="stroke:#181818;stroke-width:0.5;" width="318" x="675" y="7"/><ellipse cx="806.25" cy="23" fill="#ADD1B2" rx="11" ry="11" style="stroke:#181818;stroke-width:1.0;"/><path d="M809.0156,18.875 Q809.1719,18.6563 809.3594,18.5469 Q809.5469,18.4375 809.7656,18.4375 Q810.1406,18.4375 810.375,18.7031 Q810.6094,18.9531 810.6094,19.5625 L810.6094,21.0156 Q810.6094,21.625 810.375,21.8906 Q810.1406,22.1563 809.7656,22.1563 Q809.4219,22.1563 809.2188,21.9531 Q809.0156,21.7656 808.9063,21.25 Q808.8594,20.8906 808.6719,20.7031 Q808.3438,20.3281 807.7344,20.1094 Q807.125,19.8906 806.5,19.8906 Q805.7344,19.8906 805.0938,20.2188 Q804.4688,20.5469 803.9688,21.2969 Q803.4844,22.0469 803.4844,23.0781 L803.4844,24.1719 Q803.4844,25.4063 804.375,26.2344 Q805.2656,27.0469 806.8594,27.0469 Q807.7969,27.0469 808.4531,26.7969 Q808.8438,26.6406 809.2656,26.2031 Q809.5313,25.9375 809.6719,25.8594 Q809.8281,25.7813 810.0313,25.7813 Q810.3594,25.7813 810.6094,26.0469 Q810.875,26.2969 810.875,26.6406 Q810.875,26.9844 810.5313,27.3906 Q810.0313,27.9688 809.2344,28.2969 Q808.1563,28.75 806.8594,28.75 Q805.3438,28.75 804.1406,28.125 Q803.1563,27.625 802.4688,26.5625 Q801.7813,25.4844 801.7813,24.2031 L801.7813,23.0469 Q801.7813,21.7188 802.3906,20.5781 Q803.0156,19.4219 804.1094,18.8125 Q805.2031,18.1875 806.4375,18.1875 Q807.1719,18.1875 807.8125,18.3594 Q808.4688,18.5156 809.0156,18.875 Z " fill="#000000"/><text fill="#000000" font-family="sans-serif" font-size="14" lengthAdjust="spacing" textLength="47" x="826.75" y="28.7969">Agency</text><line style="stroke:#181818;stroke-width:0.5;" x1="676" x2="992" y1="39" y2="39"/><text fill="#000000" font-family="sans-serif" font-size="14" lengthAdjust="spacing" textLength="105" x="681" y="58.1074">-String agencyID</text><text fill="#000000" font-family="sans-serif" font-size="14" lengthAdjust="spacing" textLength="128" x="681" y="76.7285">-String agencyName</text><text fill="#000000" font-family="sans-serif" font-size="14" lengthAdjust="spacing" textLength="131" x="681" y="95.3496">-String emailAddress</text><text fill="#000000" font-family="sans-serif" font-size="14" lengthAdjust="spacing" textLength="209" x="681" y="113.9707">-String contactTelephoneNumber</text><text fill="#000000" font-family="sans-serif" font-size="14" lengthAdjust="spacing" textLength="97" x="681" y="132.5918">-String address</text><line style="stroke:#181818;stroke-width:1.0;" x1="676" x2="992" y1="140.1055" y2="140.1055"/><text fill="#000000" font-family="sans-serif" font-size="14" lengthAdjust="spacing" textLength="306" x="681" y="159.2129">+Agency(agencyID, agencyName, emailAddress,</text><text fill="#000000" font-family="sans-serif" font-size="14" lengthAdjust="spacing" textLength="227" x="681" y="177.834">contactTelephoneNumber, address)</text><text fill="#000000" font-family="sans-serif" font-size="14" lengthAdjust="spacing" textLength="97" x="681" y="196.4551">+setAgencyID()</text><text fill="#000000" font-family="sans-serif" font-size="14" lengthAdjust="spacing" textLength="110" x="681" y="215.0762">+setAgencyName</text><text fill="#000000" font-family="sans-serif" font-size="14" lengthAdjust="spacing" textLength="113" x="681" y="233.6973">+setEmailAddress</text><text fill="#000000" font-family="sans-serif" font-size="14" lengthAdjust="spacing" textLength="193" x="681" y="252.3184">+setContactTelephoneNumber</text><text fill="#000000" font-family="sans-serif" font-size="14" lengthAdjust="spacing" textLength="79" x="681" y="270.9395">+setAddress</text><text fill="#000000" font-family="sans-serif" font-size="14" lengthAdjust="spacing" textLength="88" x="681" y="289.5605">+getAgencyID</text><text fill="#000000" font-family="sans-serif" font-size="14" lengthAdjust="spacing" textLength="111" x="681" y="308.1816">+getAgencyName</text><text fill="#000000" font-family="sans-serif" font-size="14" lengthAdjust="spacing" textLength="114" x="681" y="326.8027">+getEmailAddress</text><text fill="#000000" font-family="sans-serif" font-size="14" lengthAdjust="spacing" textLength="194" x="681" y="345.4238">+getContactTelephoneNumber</text><text fill="#000000" font-family="sans-serif" font-size="14" lengthAdjust="spacing" textLength="80" x="681" y="364.0449">+getAddress</text></g><!--reverse link Person to Employee--><g id="link_Person_Employee"><path codeLine="146" d="M710.31,633.5 C724.48,633.5 735,633.5 735,633.5 C735,633.5 761.32,633.5 786.82,633.5 " fill="none" id="Person-backto-Employee" style="stroke:#181818;stroke-width:1.0;"/><polygon fill="none" points="710.13,640.5,690.13,633.5,710.13,626.5,710.13,640.5" style="stroke:#181818;stroke-width:1.0;"/></g><!--reverse link Person to Role--><g id="link_Person_Role"><path codeLine="147" d="M446.37,801.9 C418.69,853.03 389.35,907.22 365.72,950.87 " fill="none" id="Person-backto-Role" style="stroke:#181818;stroke-width:1.0;stroke-dasharray:7.0,7.0;"/><polygon fill="#181818" points="448.87,797.28,441.0638,803.2852,446.4867,801.6755,448.0965,807.0984,448.87,797.28" style="stroke:#181818;stroke-width:1.0;"/><text fill="#000000" font-family="sans-serif" font-size="13" lengthAdjust="spacing" textLength="21" x="422" y="861.0283">role</text></g><!--link Address to Person--><g id="link_Address_Person"><path codeLine="148" d="M301.26,633.5 C326.66,633.5 353.15,633.5 378.83,633.5 " fill="none" id="Address-to-Person" style="stroke:#181818;stroke-width:1.0;stroke-dasharray:7.0,7.0;"/><polygon fill="#181818" points="383.95,633.5,374.95,629.5,378.95,633.5,374.95,637.5,383.95,633.5" style="stroke:#181818;stroke-width:1.0;"/><text fill="#000000" font-family="sans-serif" font-size="13" lengthAdjust="spacing" textLength="46" x="319.5" y="626.5283">address</text></g><!--reverse link Person to PassportCard--><g id="link_Person_PassportCard"><path codeLine="149" d="M537,802.55 C537,865.17 537,932.3 537,978.97 " fill="none" id="Person-backto-PassportCard" style="stroke:#181818;stroke-width:1.0;stroke-dasharray:7.0,7.0;"/><polygon fill="#181818" points="537,797.28,533,806.28,537,802.28,541,806.28,537,797.28" style="stroke:#181818;stroke-width:1.0;"/><text fill="#000000" font-family="sans-serif" font-size="13" lengthAdjust="spacing" textLength="95" x="538" y="861.0283">passportNumber</text></g><!--link Employee to ApproveVisitRequestUI--><g id="link_Employee_ApproveVisitRequestUI"><path codeLine="150" d="M881.05,633.5 C886.79,633.5 890.67,633.5 890.67,633.5 C890.67,633.5 899.72,633.5 910.59,633.5 " fill="none" id="Employee-to-ApproveVisitRequestUI" style="stroke:#181818;stroke-width:1.0;stroke-dasharray:7.0,7.0;"/><polygon fill="#181818" points="915.69,633.5,906.69,629.5,910.69,633.5,906.69,637.5,915.69,633.5" style="stroke:#181818;stroke-width:1.0;"/></g><!--link ApproveVisitRequestUI to ApproveVisitRequestController--><g id="link_ApproveVisitRequestUI_ApproveVisitRequestController"><path codeLine="151" d="M1092.39,633.5 C1101.03,633.5 1106.67,633.5 1106.67,633.5 C1106.67,633.5 1112.89,633.5 1122.27,633.5 " fill="none" id="ApproveVisitRequestUI-to-ApproveVisitRequestController" style="stroke:#181818;stroke-width:1.0;stroke-dasharray:7.0,7.0;"/><polygon fill="#181818" points="1127.44,633.5,1118.44,629.5,1122.44,633.5,1118.44,637.5,1127.44,633.5" style="stroke:#181818;stroke-width:1.0;"/></g><!--link Employee to User--><g id="link_Employee_User"><path codeLine="152" d="M837.56,657.7 C844,699.74 858.12,791.87 870.87,875.04 " fill="none" id="Employee-to-User" style="stroke:#181818;stroke-width:1.0;"/><polygon fill="none" points="877.79,874.01,873.9,894.84,863.95,876.13,877.79,874.01" style="stroke:#181818;stroke-width:1.0;"/></g><!--link Agency to Employee--><g id="link_Agency_Employee"><path codeLine="153" d="M834,372.19 C834,460.46 834,557.37 834,604.14 " fill="none" id="Agency-to-Employee" style="stroke:#181818;stroke-width:1.0;stroke-dasharray:7.0,7.0;"/><polygon fill="#181818" points="834,609.32,838,600.32,834,604.32,830,600.32,834,609.32" style="stroke:#181818;stroke-width:1.0;"/><text fill="#000000" font-family="sans-serif" font-size="13" lengthAdjust="spacing" textLength="42" x="835" y="417.0283">agency</text></g><!--link ApproveVisitRequestController to VisitRequest--><g id="link_ApproveVisitRequestController_VisitRequest"><path codeLine="154" d="M1496.85,633.5 C1502.74,633.5 1513.26,633.5 1526.31,633.5 " fill="none" id="ApproveVisitRequestController-to-VisitRequest" style="stroke:#181818;stroke-width:1.0;stroke-dasharray:7.0,7.0;"/><polygon fill="#181818" points="1531.64,633.5,1522.64,629.5,1526.64,633.5,1522.64,637.5,1531.64,633.5" style="stroke:#181818;stroke-width:1.0;"/></g><!--SRC=[dLRVJzim47xFN-4tCf6YFSE4r3LCGaA0WErXuiLD3jSYiJFRWPLj__kkIHoVGzQDzQ6jlxlxxfTzze5zbAhXXjUiraeN6wDhOCwqa0H9muj7Bk3MRIjW1Wh7bQYeWjtmKZzB9TW3hooLL5A1spR06brjTulaO4QeZTC9iIegRktIEIFNhOFpGgjR-GBiVP8SLF3WcDFCIB5nh9IxSAHMITBPiBEwgVGMWFr8abyUlD7L3c3uMTmYASOfosXPWYsCR3gc3bzqFuSxorIM6LLuruiikFDy_9jF20v548jOF8QrB4i3riQ1MMS0N0GLqctZQ2LgoS9D3Bc327cHpKgN42Kq-4nxDrd7dOs4MS-IUTEGwcsddmPWXOPacGyCAJL1AhB-sdDwH4n9HKmgNfEA2QcWf6DPh_6hmHsrugQCQziCaiksNeE9waADqbWlEBkES9BQAq481epLAWv3yJfk5DHSLaDd8e7Ztsci7eKAcerMC9T7vo_TkSWc-MRUpyvDTgz6Sjm56bU5kuk9KOVtGMNCu448-LuYFKd_ZCHFu3llW6An2z99oYdcESKCfvZZnFBxCzOqHZ_15scbku5lBLYtmcGndGgCdmc-UCXreOM0SYb0ZRlEQMfjBt1JvdTN8ITLvhWdRRe68LNU7Py1ozZJZ2KnN5P26-asTShzFo_5jhrocyxHPMngYsbGKoW_Ri_pz8bNBLmzaBqvKvlFvzEQs7PTIuVPS9-nwLK7Q6IZDA-6xKc__conw2r-3UkbKhfL1THORiR9uYIUTrZB676oXazuKtZOHqk360u1FLpzaNZM1YVwv1HbaV-iyva5Fs47KnTOrlcQ1m5QxB8cUdI9Kbe3eZK7x-PiFFxoUCJU-N3fwPXYJlT5fCth6lE_KyhNDBwqPaTADAkwGknlqZpBMmVHzS17hwzPuZUFeocpsCCSpXrEbs8xAJVlmE7948EN_zo9VKNtbDJCFmewDwaF8ID-9wsvLt-uAZmlsTS3Mpg5ndIc7VjBSm8DLHV1qmG8ViIS7x7VZmX-i77zjSe-_5pqxqx_p1m5HqVzA_Eukoa9tBrN1oQK-l8JE_hqG8t98sLyqFQUZqxdntOoFyoFy5ckJlVVWabt-36rHTk4n4Q_62BYmvuz7hP6ilzUnIYf9FaD]--></g></svg>