<?xml version="1.0" encoding="us-ascii" standalone="no"?><svg xmlns="http://www.w3.org/2000/svg" xmlns:xlink="http://www.w3.org/1999/xlink" contentStyleType="text/css" height="604px" preserveAspectRatio="none" style="width:460px;height:604px;background:#FFFFFF;" version="1.1" viewBox="0 0 460 604" width="460px" zoomAndPan="magnify"><defs/><g><text fill="#000000" font-family="sans-serif" font-size="14" font-weight="bold" lengthAdjust="spacing" textLength="284" x="89.5" y="27.6738">US018 - System Sequence Diagram (SSD)</text><rect fill="#FFFFFF" height="478.7109" style="stroke:#181818;stroke-width:1.0;" width="10" x="79" y="82.2813"/><rect fill="#FFFFFF" height="43.0469" style="stroke:#181818;stroke-width:1.0;" width="10" x="399" y="102.8047"/><rect fill="#FFFFFF" height="66.5703" style="stroke:#181818;stroke-width:1.0;" width="10" x="399" y="174.375"/><rect fill="#FFFFFF" height="125.6172" style="stroke:#181818;stroke-width:1.0;" width="10" x="399" y="269.4688"/><rect fill="#FFFFFF" height="42.8125" style="stroke:#181818;stroke-width:1.0;" width="10" x="399" y="423.6094"/><rect fill="#FFFFFF" height="50.5234" style="stroke:#181818;stroke-width:1.0;" width="10" x="399" y="509.4688"/><rect fill="none" height="88.0938" style="stroke:#000000;stroke-width:1.5;" width="424" x="20" y="189.375"/><rect fill="none" height="218.4766" style="stroke:#000000;stroke-width:1.5;" width="444" x="10" y="334.5156"/><rect fill="none" height="159.4297" style="stroke:#000000;stroke-width:1.5;" width="424" x="20" y="358.0391"/><line style="stroke:#181818;stroke-width:0.5;stroke-dasharray:5.0,5.0;" x1="84" x2="84" y1="72.2813" y2="569.9922"/><line style="stroke:#181818;stroke-width:0.5;stroke-dasharray:5.0,5.0;" x1="404" x2="404" y1="72.2813" y2="569.9922"/><rect fill="#E3E3E3" height="29.6406" rx="2.5" ry="2.5" style="stroke:#181818;stroke-width:0.5;" width="108" x="30" y="41.6406"/><text fill="#000000" font-family="sans-serif" font-size="14" lengthAdjust="spacing" textLength="94" x="37" y="61.3145">Store Manager</text><rect fill="#E3E3E3" height="29.6406" rx="2.5" ry="2.5" style="stroke:#181818;stroke-width:0.5;" width="108" x="30" y="568.9922"/><text fill="#000000" font-family="sans-serif" font-size="14" lengthAdjust="spacing" textLength="94" x="37" y="588.666">Store Manager</text><rect fill="#E3E3E3" height="29.6406" rx="2.5" ry="2.5" style="stroke:#181818;stroke-width:0.5;" width="60" x="374" y="41.6406"/><text fill="#000000" font-family="sans-serif" font-size="14" lengthAdjust="spacing" textLength="46" x="381" y="61.3145">System</text><rect fill="#E3E3E3" height="29.6406" rx="2.5" ry="2.5" style="stroke:#181818;stroke-width:0.5;" width="60" x="374" y="568.9922"/><text fill="#000000" font-family="sans-serif" font-size="14" lengthAdjust="spacing" textLength="46" x="381" y="588.666">System</text><rect fill="#FFFFFF" height="478.7109" style="stroke:#181818;stroke-width:1.0;" width="10" x="79" y="82.2813"/><rect fill="#FFFFFF" height="43.0469" style="stroke:#181818;stroke-width:1.0;" width="10" x="399" y="102.8047"/><rect fill="#FFFFFF" height="66.5703" style="stroke:#181818;stroke-width:1.0;" width="10" x="399" y="174.375"/><rect fill="#FFFFFF" height="125.6172" style="stroke:#181818;stroke-width:1.0;" width="10" x="399" y="269.4688"/><rect fill="#FFFFFF" height="42.8125" style="stroke:#181818;stroke-width:1.0;" width="10" x="399" y="423.6094"/><rect fill="#FFFFFF" height="50.5234" style="stroke:#181818;stroke-width:1.0;" width="10" x="399" y="509.4688"/><polygon fill="#181818" points="387,98.8047,397,102.8047,387,106.8047,391,102.8047" style="stroke:#181818;stroke-width:1.0;"/><line style="stroke:#181818;stroke-width:1.0;" x1="89" x2="393" y1="102.8047" y2="102.8047"/><text fill="#000000" font-family="sans-serif" font-size="13" lengthAdjust="spacing" textLength="127" x="96" y="98.0498">asks to analyse deals</text><polygon fill="#181818" points="100,141.8516,90,145.8516,100,149.8516,96,145.8516" style="stroke:#181818;stroke-width:1.0;"/><line style="stroke:#181818;stroke-width:1.0;stroke-dasharray:2.0,2.0;" x1="94" x2="403" y1="145.8516" y2="145.8516"/><text fill="#000000" font-family="sans-serif" font-size="13" lengthAdjust="spacing" textLength="200" x="106" y="126.5732">shows available regression models</text><text fill="#000000" font-family="sans-serif" font-size="13" lengthAdjust="spacing" textLength="132" x="114" y="141.0967">and asks to select one</text><polygon fill="#181818" points="387,170.375,397,174.375,387,178.375,391,174.375" style="stroke:#181818;stroke-width:1.0;"/><line style="stroke:#181818;stroke-width:1.0;" x1="89" x2="393" y1="174.375" y2="174.375"/><text fill="#000000" font-family="sans-serif" font-size="13" lengthAdjust="spacing" textLength="156" x="96" y="169.6201">selects a regression model</text><path d="M20,189.375 L81,189.375 L81,195.8984 L71,205.8984 L20,205.8984 L20,189.375 " fill="#EEEEEE" style="stroke:#000000;stroke-width:1.5;"/><rect fill="none" height="88.0938" style="stroke:#000000;stroke-width:1.5;" width="424" x="20" y="189.375"/><text fill="#000000" font-family="sans-serif" font-size="13" font-weight="bold" lengthAdjust="spacing" textLength="16" x="35" y="202.1436">alt</text><text fill="#000000" font-family="sans-serif" font-size="11" font-weight="bold" lengthAdjust="spacing" textLength="213" x="96" y="201.333">[if simple-linear regression is chosen]</text><polygon fill="#181818" points="100,236.9453,90,240.9453,100,244.9453,96,240.9453" style="stroke:#181818;stroke-width:1.0;"/><line style="stroke:#181818;stroke-width:1.0;stroke-dasharray:2.0,2.0;" x1="94" x2="403" y1="240.9453" y2="240.9453"/><text fill="#000000" font-family="sans-serif" font-size="13" lengthAdjust="spacing" textLength="181" x="106" y="221.667">displays regression parameters</text><text fill="#000000" font-family="sans-serif" font-size="13" lengthAdjust="spacing" textLength="132" x="110" y="236.1904">and asks to select one</text><polygon fill="#181818" points="387,265.4688,397,269.4688,387,273.4688,391,269.4688" style="stroke:#181818;stroke-width:1.0;"/><line style="stroke:#181818;stroke-width:1.0;" x1="89" x2="393" y1="269.4688" y2="269.4688"/><text fill="#000000" font-family="sans-serif" font-size="13" lengthAdjust="spacing" textLength="168" x="96" y="264.7139">selects regression parameter</text><polygon fill="#181818" points="100,315.5156,90,319.5156,100,323.5156,96,319.5156" style="stroke:#181818;stroke-width:1.0;"/><line style="stroke:#181818;stroke-width:1.0;stroke-dasharray:2.0,2.0;" x1="94" x2="398" y1="319.5156" y2="319.5156"/><text fill="#000000" font-family="sans-serif" font-size="13" lengthAdjust="spacing" textLength="286" x="106" y="300.2373">shows regression analysis report and asks if user</text><text fill="#000000" font-family="sans-serif" font-size="13" lengthAdjust="spacing" textLength="203" x="110" y="314.7607">wants to make a custom prediction</text><path d="M10,334.5156 L71,334.5156 L71,341.0391 L61,351.0391 L10,351.0391 L10,334.5156 " fill="#EEEEEE" style="stroke:#000000;stroke-width:1.5;"/><rect fill="none" height="218.4766" style="stroke:#000000;stroke-width:1.5;" width="444" x="10" y="334.5156"/><text fill="#000000" font-family="sans-serif" font-size="13" font-weight="bold" lengthAdjust="spacing" textLength="16" x="25" y="347.2842">alt</text><text fill="#000000" font-family="sans-serif" font-size="11" font-weight="bold" lengthAdjust="spacing" textLength="88" x="86" y="346.4736">[if option == "Y"]</text><path d="M20,358.0391 L81,358.0391 L81,364.5625 L71,374.5625 L20,374.5625 L20,358.0391 " fill="#EEEEEE" style="stroke:#000000;stroke-width:1.5;"/><rect fill="none" height="159.4297" style="stroke:#000000;stroke-width:1.5;" width="424" x="20" y="358.0391"/><text fill="#000000" font-family="sans-serif" font-size="13" font-weight="bold" lengthAdjust="spacing" textLength="16" x="35" y="370.8076">alt</text><text fill="#000000" font-family="sans-serif" font-size="11" font-weight="bold" lengthAdjust="spacing" textLength="253" x="96" y="369.9971">[if RegressionModelOption == "SimpleLinear"]</text><polygon fill="#181818" points="100,391.0859,90,395.0859,100,399.0859,96,395.0859" style="stroke:#181818;stroke-width:1.0;"/><line style="stroke:#181818;stroke-width:1.0;stroke-dasharray:2.0,2.0;" x1="94" x2="403" y1="395.0859" y2="395.0859"/><text fill="#000000" font-family="sans-serif" font-size="13" lengthAdjust="spacing" textLength="79" x="106" y="390.3311">requests data</text><polygon fill="#181818" points="387,419.6094,397,423.6094,387,427.6094,391,423.6094" style="stroke:#181818;stroke-width:1.0;"/><line style="stroke:#181818;stroke-width:1.0;" x1="89" x2="393" y1="423.6094" y2="423.6094"/><text fill="#000000" font-family="sans-serif" font-size="13" lengthAdjust="spacing" textLength="191" x="96" y="418.8545">inputs requested data(parameter)</text><line style="stroke:#000000;stroke-width:1.0;stroke-dasharray:2.0,2.0;" x1="20" x2="444" y1="432.6094" y2="432.6094"/><text fill="#000000" font-family="sans-serif" font-size="11" font-weight="bold" lengthAdjust="spacing" textLength="242" x="25" y="442.5674">[if RegressionModelOption == "MultiLinear"]</text><polygon fill="#181818" points="100,462.4219,90,466.4219,100,470.4219,96,466.4219" style="stroke:#181818;stroke-width:1.0;"/><line style="stroke:#181818;stroke-width:1.0;stroke-dasharray:2.0,2.0;" x1="94" x2="403" y1="466.4219" y2="466.4219"/><text fill="#000000" font-family="sans-serif" font-size="13" lengthAdjust="spacing" textLength="79" x="106" y="461.667">requests data</text><polygon fill="#181818" points="387,505.4688,397,509.4688,387,513.4688,391,509.4688" style="stroke:#181818;stroke-width:1.0;"/><line style="stroke:#181818;stroke-width:1.0;" x1="89" x2="393" y1="509.4688" y2="509.4688"/><text fill="#000000" font-family="sans-serif" font-size="13" lengthAdjust="spacing" textLength="271" x="96" y="490.1904">inputs requested data(parameter1, parameter2,</text><text fill="#000000" font-family="sans-serif" font-size="13" lengthAdjust="spacing" textLength="215" x="100" y="504.7139">parameter3, parameter4, parameter5)</text><polygon fill="#181818" points="100,540.9922,90,544.9922,100,548.9922,96,544.9922" style="stroke:#181818;stroke-width:1.0;"/><line style="stroke:#181818;stroke-width:1.0;stroke-dasharray:2.0,2.0;" x1="94" x2="398" y1="544.9922" y2="544.9922"/><text fill="#000000" font-family="sans-serif" font-size="13" lengthAdjust="spacing" textLength="108" x="106" y="540.2373">displays prediction</text><!--SRC=[hLDDRzim3BthLn0vDK03jFi0XWBTgSS60sRiCA0Npc8T8hBaYNA3_FlHSk9eSLfimtInBJq-yZqzovPzXn5RQ8CFzIQ6bY35denC9ntMMsoeIdj74AbEw1jN0cI3DkpOD_2CJiYOn4cXtwgRsq-mWcelYLgew6TFlYPuO6o6igkgUbWQOvGaSSqT-WIBAeL8i4Ql7UC2K01htJe3PSPyEhuQeoX-mKG7kCaFM7q-ThzJy5OW1L1gjnS2IphigUv0T82lj7Aak5DvOQTZl20x_94jQ2A9SF1gcYKdyEH1QUtKGiYfJH0y6Urorc4-sGZN5ZFgsNW6NG9-1k6sSxHox0bZMSO2zIO8-KjAB4ldS2zbGRv2IXIpZF-WuXBtJ0TvQrxtkg0ORuk7lIx4T1fGJUY5eiwyqqpaWLlSwlr3tKiA6jj8bhLjy4VJGZTymVqzBBul3EWw77oT-gq7rx-SS5Ns-J7RF9PS63eEoHQTmMB233gkkM_bwTn3_QFwR64c99iPhoORb-VblsTZsDGuqjkIrhrBN2gQrbz9-qED_oxszlgKdtVNJqMQtXSd7uhtZyjNMy_c6m9uZdlhZodIbCCxL_qB]--></g></svg>