<?xml version="1.0" encoding="us-ascii" standalone="no"?><svg xmlns="http://www.w3.org/2000/svg" xmlns:xlink="http://www.w3.org/1999/xlink" contentStyleType="text/css" height="777px" preserveAspectRatio="none" style="width:1257px;height:777px;background:#FFFFFF;" version="1.1" viewBox="0 0 1257 777" width="1257px" zoomAndPan="magnify"><defs/><g><rect fill="#FFFFFF" height="627.8906" style="stroke:#181818;stroke-width:1.0;" width="10" x="190" y="81.8047"/><rect fill="#FFFFFF" height="328.9453" style="stroke:#181818;stroke-width:1.0;" width="10" x="426" y="133.8516"/><rect fill="#FFFFFF" height="236.1406" style="stroke:#181818;stroke-width:1.0;" width="10" x="431" y="226.6563"/><rect fill="#FFFFFF" height="39.5234" style="stroke:#181818;stroke-width:1.0;" width="10" x="436" y="291.7031"/><rect fill="#FFFFFF" height="30" style="stroke:#181818;stroke-width:1.0;" width="10" x="880" y="390.2734"/><rect fill="#FFFFFF" height="165.8516" style="stroke:#181818;stroke-width:1.0;" width="10" x="1005" y="508.3203"/><rect fill="#FFFFFF" height="39.5234" style="stroke:#181818;stroke-width:1.0;" width="10" x="1010" y="586.125"/><rect fill="none" height="373.9922" style="stroke:#000000;stroke-width:1.5;" width="885" x="93.5" y="96.8047"/><rect fill="none" height="188.6172" style="stroke:#000000;stroke-width:1.5;" width="652" x="316.5" y="246.6563"/><rect fill="none" height="75.0469" style="stroke:#000000;stroke-width:1.5;" width="632" x="326.5" y="353.2266"/><rect fill="none" height="99.5703" style="stroke:#000000;stroke-width:1.5;" width="302.5" x="948.5" y="541.0781"/><line style="stroke:#181818;stroke-width:0.5;stroke-dasharray:5.0,5.0;" x1="194.5" x2="194.5" y1="51.2813" y2="727.6953"/><line style="stroke:#181818;stroke-width:0.5;stroke-dasharray:5.0,5.0;" x1="430.5" x2="430.5" y1="51.2813" y2="727.6953"/><line style="stroke:#181818;stroke-width:0.5;stroke-dasharray:5.0,5.0;" x1="884.5" x2="884.5" y1="179.9922" y2="727.6953"/><line style="stroke:#181818;stroke-width:0.5;stroke-dasharray:5.0,5.0;" x1="1009.5" x2="1009.5" y1="515.9375" y2="727.6953"/><rect fill="#E3E3E3" height="29.6406" rx="2.5" ry="2.5" style="stroke:#181818;stroke-width:0.5;" width="183" x="103.5" y="20.6406"/><text fill="#000000" font-family="sans-serif" font-size="14" lengthAdjust="spacing" textLength="169" x="110.5" y="40.3145">ApprovePropertyController</text><rect fill="#E3E3E3" height="29.6406" rx="2.5" ry="2.5" style="stroke:#181818;stroke-width:0.5;" width="183" x="103.5" y="726.6953"/><text fill="#000000" font-family="sans-serif" font-size="14" lengthAdjust="spacing" textLength="169" x="110.5" y="746.3691">ApprovePropertyController</text><rect fill="#E3E3E3" height="29.6406" rx="2.5" ry="2.5" style="stroke:#181818;stroke-width:0.5;" width="189" x="336.5" y="20.6406"/><text fill="#000000" font-family="sans-serif" font-size="14" lengthAdjust="spacing" textLength="175" x="343.5" y="40.3145">PropertyRequestRepository</text><rect fill="#E3E3E3" height="29.6406" rx="2.5" ry="2.5" style="stroke:#181818;stroke-width:0.5;" width="189" x="336.5" y="726.6953"/><text fill="#000000" font-family="sans-serif" font-size="14" lengthAdjust="spacing" textLength="175" x="343.5" y="746.3691">PropertyRequestRepository</text><rect fill="#E3E3E3" height="45.2813" rx="2.5" ry="2.5" style="stroke:#181818;stroke-width:0.5;" width="127" x="821.5" y="726.6953"/><text fill="#000000" font-family="sans-serif" font-size="14" lengthAdjust="spacing" textLength="55" x="855.5" y="746.3691">requests</text><text fill="#000000" font-family="sans-serif" font-size="14" lengthAdjust="spacing" textLength="113" x="828.5" y="762.0098">:ArrayList&lt;String&gt;</text><rect fill="#E3E3E3" height="45.2813" rx="2.5" ry="2.5" style="stroke:#181818;stroke-width:0.5;" width="103" x="958.5" y="726.6953"/><text fill="#000000" font-family="sans-serif" font-size="14" lengthAdjust="spacing" textLength="65" x="975.5" y="746.3691">assembler</text><text fill="#000000" font-family="sans-serif" font-size="14" lengthAdjust="spacing" textLength="85" x="969.5" y="762.0098">:StringBuilder</text><rect fill="#FFFFFF" height="627.8906" style="stroke:#181818;stroke-width:1.0;" width="10" x="190" y="81.8047"/><rect fill="#FFFFFF" height="328.9453" style="stroke:#181818;stroke-width:1.0;" width="10" x="426" y="133.8516"/><rect fill="#FFFFFF" height="236.1406" style="stroke:#181818;stroke-width:1.0;" width="10" x="431" y="226.6563"/><rect fill="#FFFFFF" height="39.5234" style="stroke:#181818;stroke-width:1.0;" width="10" x="436" y="291.7031"/><rect fill="#FFFFFF" height="30" style="stroke:#181818;stroke-width:1.0;" width="10" x="880" y="390.2734"/><rect fill="#FFFFFF" height="165.8516" style="stroke:#181818;stroke-width:1.0;" width="10" x="1005" y="508.3203"/><rect fill="#FFFFFF" height="39.5234" style="stroke:#181818;stroke-width:1.0;" width="10" x="1010" y="586.125"/><polygon fill="#181818" points="178,77.8047,188,81.8047,178,85.8047,182,81.8047" style="stroke:#181818;stroke-width:1.0;"/><line style="stroke:#181818;stroke-width:1.0;" x1="0" x2="184" y1="81.8047" y2="81.8047"/><text fill="#000000" font-family="sans-serif" font-size="13" font-weight="bold" lengthAdjust="spacing" textLength="18" x="7" y="77.0498">5.1</text><text fill="#000000" font-family="sans-serif" font-size="13" lengthAdjust="spacing" textLength="149" x="29" y="77.0498">displayRequestList(email)</text><path d="M93.5,96.8047 L236.5,96.8047 L236.5,103.3281 L226.5,113.3281 L93.5,113.3281 L93.5,96.8047 " fill="#EEEEEE" style="stroke:#000000;stroke-width:1.5;"/><rect fill="none" height="373.9922" style="stroke:#000000;stroke-width:1.5;" width="885" x="93.5" y="96.8047"/><text fill="#000000" font-family="sans-serif" font-size="13" font-weight="bold" lengthAdjust="spacing" textLength="98" x="108.5" y="109.5732">Get Display List</text><polygon fill="#181818" points="414,129.8516,424,133.8516,414,137.8516,418,133.8516" style="stroke:#181818;stroke-width:1.0;"/><line style="stroke:#181818;stroke-width:1.0;" x1="200" x2="420" y1="133.8516" y2="133.8516"/><text fill="#000000" font-family="sans-serif" font-size="13" font-weight="bold" lengthAdjust="spacing" textLength="18" x="207" y="129.0967">5.2</text><text fill="#000000" font-family="sans-serif" font-size="13" lengthAdjust="spacing" textLength="175" x="229" y="129.0967">getRequestListByEmail(email)</text><polygon fill="#181818" points="809.5,158.375,819.5,162.375,809.5,166.375,813.5,162.375" style="stroke:#181818;stroke-width:1.0;"/><line style="stroke:#181818;stroke-width:1.0;" x1="436" x2="815.5" y1="162.375" y2="162.375"/><text fill="#000000" font-family="sans-serif" font-size="13" font-weight="bold" lengthAdjust="spacing" textLength="18" x="443" y="157.6201">5.3</text><text fill="#000000" font-family="sans-serif" font-size="13" lengthAdjust="spacing" textLength="44" x="465" y="157.6201">create()</text><rect fill="#E3E3E3" height="45.2813" rx="2.5" ry="2.5" style="stroke:#181818;stroke-width:0.5;" width="127" x="821.5" y="141.8516"/><text fill="#000000" font-family="sans-serif" font-size="14" lengthAdjust="spacing" textLength="55" x="855.5" y="161.5254">requests</text><text fill="#000000" font-family="sans-serif" font-size="14" lengthAdjust="spacing" textLength="113" x="828.5" y="177.166">:ArrayList&lt;String&gt;</text><line style="stroke:#181818;stroke-width:1.0;" x1="436" x2="483" y1="213.6563" y2="213.6563"/><line style="stroke:#181818;stroke-width:1.0;" x1="483" x2="483" y1="213.6563" y2="226.6563"/><line style="stroke:#181818;stroke-width:1.0;" x1="442" x2="483" y1="226.6563" y2="226.6563"/><polygon fill="#181818" points="452,222.6563,442,226.6563,452,230.6563,448,226.6563" style="stroke:#181818;stroke-width:1.0;"/><text fill="#000000" font-family="sans-serif" font-size="13" font-weight="bold" lengthAdjust="spacing" textLength="18" x="448" y="208.9014">5.4</text><text fill="#000000" font-family="sans-serif" font-size="13" lengthAdjust="spacing" textLength="139" x="470" y="208.9014">getNumberOfRequests()</text><path d="M316.5,246.6563 L389.5,246.6563 L389.5,253.1797 L379.5,263.1797 L316.5,263.1797 L316.5,246.6563 " fill="#EEEEEE" style="stroke:#000000;stroke-width:1.5;"/><rect fill="none" height="188.6172" style="stroke:#000000;stroke-width:1.5;" width="652" x="316.5" y="246.6563"/><text fill="#000000" font-family="sans-serif" font-size="13" font-weight="bold" lengthAdjust="spacing" textLength="28" x="331.5" y="259.4248">loop</text><text fill="#000000" font-family="sans-serif" font-size="11" font-weight="bold" lengthAdjust="spacing" textLength="257" x="404.5" y="258.6143">[for each member of announcementRequests]</text><line style="stroke:#181818;stroke-width:1.0;" x1="441" x2="488" y1="278.7031" y2="278.7031"/><line style="stroke:#181818;stroke-width:1.0;" x1="488" x2="488" y1="278.7031" y2="291.7031"/><line style="stroke:#181818;stroke-width:1.0;" x1="447" x2="488" y1="291.7031" y2="291.7031"/><polygon fill="#181818" points="457,287.7031,447,291.7031,457,295.7031,453,291.7031" style="stroke:#181818;stroke-width:1.0;"/><text fill="#000000" font-family="sans-serif" font-size="13" font-weight="bold" lengthAdjust="spacing" textLength="18" x="453" y="273.9482">5.5</text><text fill="#000000" font-family="sans-serif" font-size="13" lengthAdjust="spacing" textLength="173" x="475" y="273.9482">announcementRequests.get(i)</text><line style="stroke:#181818;stroke-width:1.0;stroke-dasharray:2.0,2.0;" x1="446" x2="488" y1="330.2266" y2="330.2266"/><line style="stroke:#181818;stroke-width:1.0;stroke-dasharray:2.0,2.0;" x1="488" x2="488" y1="330.2266" y2="343.2266"/><line style="stroke:#181818;stroke-width:1.0;stroke-dasharray:2.0,2.0;" x1="441" x2="488" y1="343.2266" y2="343.2266"/><polygon fill="#181818" points="451,339.2266,441,343.2266,451,347.2266,447,343.2266" style="stroke:#181818;stroke-width:1.0;"/><text fill="#000000" font-family="sans-serif" font-size="13" font-weight="bold" lengthAdjust="spacing" textLength="18" x="453" y="325.4717">5.6</text><text fill="#000000" font-family="sans-serif" font-size="13" lengthAdjust="spacing" textLength="256" x="475" y="325.4717">requestObject.getAgent().getEmailAddress()</text><path d="M326.5,353.2266 L387.5,353.2266 L387.5,359.75 L377.5,369.75 L326.5,369.75 L326.5,353.2266 " fill="#EEEEEE" style="stroke:#000000;stroke-width:1.5;"/><rect fill="none" height="75.0469" style="stroke:#000000;stroke-width:1.5;" width="632" x="326.5" y="353.2266"/><text fill="#000000" font-family="sans-serif" font-size="13" font-weight="bold" lengthAdjust="spacing" textLength="16" x="341.5" y="365.9951">alt</text><text fill="#000000" font-family="sans-serif" font-size="11" font-weight="bold" lengthAdjust="spacing" textLength="333" x="402.5" y="365.1846">[email.equals(requestObject.getAgent().getEmailAddress())]</text><polygon fill="#181818" points="868,386.2734,878,390.2734,868,394.2734,872,390.2734" style="stroke:#181818;stroke-width:1.0;"/><line style="stroke:#181818;stroke-width:1.0;" x1="441" x2="874" y1="390.2734" y2="390.2734"/><text fill="#000000" font-family="sans-serif" font-size="13" font-weight="bold" lengthAdjust="spacing" textLength="18" x="448" y="385.5186">5.7</text><text fill="#000000" font-family="sans-serif" font-size="13" lengthAdjust="spacing" textLength="398" x="470" y="385.5186">requests.add((idx+1) + "|" + announcementRequests.get(i).toString())</text><polygon fill="#181818" points="211,458.7969,201,462.7969,211,466.7969,207,462.7969" style="stroke:#181818;stroke-width:1.0;"/><line style="stroke:#181818;stroke-width:1.0;stroke-dasharray:2.0,2.0;" x1="205" x2="430" y1="462.7969" y2="462.7969"/><text fill="#000000" font-family="sans-serif" font-size="13" font-weight="bold" lengthAdjust="spacing" textLength="18" x="217" y="458.042">5.8</text><text fill="#000000" font-family="sans-serif" font-size="13" lengthAdjust="spacing" textLength="50" x="239" y="458.042">requests</text><polygon fill="#181818" points="946.5,494.3203,956.5,498.3203,946.5,502.3203,950.5,498.3203" style="stroke:#181818;stroke-width:1.0;"/><line style="stroke:#181818;stroke-width:1.0;" x1="200" x2="952.5" y1="498.3203" y2="498.3203"/><text fill="#000000" font-family="sans-serif" font-size="13" font-weight="bold" lengthAdjust="spacing" textLength="18" x="207" y="493.5654">5.9</text><text fill="#000000" font-family="sans-serif" font-size="13" lengthAdjust="spacing" textLength="109" x="229" y="493.5654">new StringBuilder()</text><rect fill="#E3E3E3" height="45.2813" rx="2.5" ry="2.5" style="stroke:#181818;stroke-width:0.5;" width="103" x="958.5" y="477.7969"/><text fill="#000000" font-family="sans-serif" font-size="14" lengthAdjust="spacing" textLength="65" x="975.5" y="497.4707">assembler</text><text fill="#000000" font-family="sans-serif" font-size="14" lengthAdjust="spacing" textLength="85" x="969.5" y="513.1113">:StringBuilder</text><path d="M948.5,541.0781 L1021.5,541.0781 L1021.5,547.6016 L1011.5,557.6016 L948.5,557.6016 L948.5,541.0781 " fill="#EEEEEE" style="stroke:#000000;stroke-width:1.5;"/><rect fill="none" height="99.5703" style="stroke:#000000;stroke-width:1.5;" width="302.5" x="948.5" y="541.0781"/><text fill="#000000" font-family="sans-serif" font-size="13" font-weight="bold" lengthAdjust="spacing" textLength="28" x="963.5" y="553.8467">loop</text><text fill="#000000" font-family="sans-serif" font-size="11" font-weight="bold" lengthAdjust="spacing" textLength="148" x="1036.5" y="553.0361">[for each item in requests]</text><line style="stroke:#181818;stroke-width:1.0;" x1="1015" x2="1062" y1="573.125" y2="573.125"/><line style="stroke:#181818;stroke-width:1.0;" x1="1062" x2="1062" y1="573.125" y2="586.125"/><line style="stroke:#181818;stroke-width:1.0;" x1="1021" x2="1062" y1="586.125" y2="586.125"/><polygon fill="#181818" points="1031,582.125,1021,586.125,1031,590.125,1027,586.125" style="stroke:#181818;stroke-width:1.0;"/><text fill="#000000" font-family="sans-serif" font-size="13" font-weight="bold" lengthAdjust="spacing" textLength="25" x="1027" y="568.3701">5.10</text><text fill="#000000" font-family="sans-serif" font-size="13" lengthAdjust="spacing" textLength="70" x="1056" y="568.3701">append(line)</text><line style="stroke:#181818;stroke-width:1.0;" x1="1020" x2="1062" y1="624.6484" y2="624.6484"/><line style="stroke:#181818;stroke-width:1.0;" x1="1062" x2="1062" y1="624.6484" y2="637.6484"/><line style="stroke:#181818;stroke-width:1.0;" x1="1015" x2="1062" y1="637.6484" y2="637.6484"/><polygon fill="#181818" points="1025,633.6484,1015,637.6484,1025,641.6484,1021,637.6484" style="stroke:#181818;stroke-width:1.0;"/><text fill="#000000" font-family="sans-serif" font-size="13" font-weight="bold" lengthAdjust="spacing" textLength="25" x="1027" y="619.8936">5.11</text><text fill="#000000" font-family="sans-serif" font-size="13" lengthAdjust="spacing" textLength="183" x="1056" y="619.8936">append(System.lineSeparator())</text><line style="stroke:#181818;stroke-width:1.0;stroke-dasharray:2.0,2.0;" x1="200" x2="242" y1="673.1719" y2="673.1719"/><line style="stroke:#181818;stroke-width:1.0;stroke-dasharray:2.0,2.0;" x1="242" x2="242" y1="673.1719" y2="686.1719"/><line style="stroke:#181818;stroke-width:1.0;stroke-dasharray:2.0,2.0;" x1="195" x2="242" y1="686.1719" y2="686.1719"/><polygon fill="#181818" points="205,682.1719,195,686.1719,205,690.1719,201,686.1719" style="stroke:#181818;stroke-width:1.0;"/><text fill="#000000" font-family="sans-serif" font-size="13" font-weight="bold" lengthAdjust="spacing" textLength="25" x="207" y="668.417">5.12</text><text fill="#000000" font-family="sans-serif" font-size="13" lengthAdjust="spacing" textLength="183" x="236" y="668.417">requests = assembler.toString()</text><polygon fill="#181818" points="11,705.6953,1,709.6953,11,713.6953,7,709.6953" style="stroke:#181818;stroke-width:1.0;"/><line style="stroke:#181818;stroke-width:1.0;stroke-dasharray:2.0,2.0;" x1="5" x2="194" y1="709.6953" y2="709.6953"/><text fill="#000000" font-family="sans-serif" font-size="13" font-weight="bold" lengthAdjust="spacing" textLength="25" x="17" y="704.9404">5.13</text><text fill="#000000" font-family="sans-serif" font-size="13" lengthAdjust="spacing" textLength="50" x="46" y="704.9404">requests</text><!--SRC=[ZLJ1Rjim3BthAuYSx1OnqCCkGLSWxOPTXdLehhieDkDebILDbDiPsCTFiXDRTX8t0H8u9ldUuwCeUXNASCihgBJI-Txg2i7P6Xdr4SFpLrxYnZKImMBkk2fbd41xNkXteKhOSKd8_5idSc6uSh1O6sFr6_wqsg1rpPDMpcefqIw04-Jztt7LCVq5_zH8xWMD9k6qRTegEtqxBZw42NwfrTfQtdmNvEutpdg93p40ZUiu4LPRhyKNmghBVwo5B0vY-pXZZDTEgxhQ-kHFsHrZouUe5rX18SX8VjGV12HOSI5JLbfT6_Y63hvqEH2YZETEl767iIKHeiS_wThJbEWYYiVcQ-0uClMGftwTOWq4T7FZaNEBlZH9VQzpoLCrFrfFddS7LPJCoc1IQmCxRG5vleSAMqFr3hXIkbOvLgYE3H83_xbQopc4p0jCHDe2pQYwm7E1wF3kUVlRhqPWM9UUCad3OpkETL5OfE1402vmpezMcNJGJZ3pSRzGoVKC7SL7Fj6WcZ9U54aYYh-tTodSmkBVml_EU9SvtIr6J3RjYFh8QRTT35N1mfUTztcqIdtXh7MpmPRgt8PDLgpVy7O55Bx3w1Q83tDq6OmFiN1OWL3ZVeUh9MO9nzGOBowHGk7aN0u4rm1i6lAyMS3POBYMVT_74KNM3A2j9N7tbso7pqDLD7rs5fNTBvSVJoyQm7y0]--></g></svg>