<?xml version="1.0" encoding="us-ascii" standalone="no"?><svg xmlns="http://www.w3.org/2000/svg" xmlns:xlink="http://www.w3.org/1999/xlink" contentStyleType="text/css" height="529.6px" preserveAspectRatio="none" style="width:768px;height:529px;background:#FFFFFF;" version="1.1" viewBox="0 0 768 529" width="768.8px" zoomAndPan="magnify"><defs/><g><!--class AnnouncementRepository--><g id="elem_AnnouncementRepository"><rect codeLine="10" fill="#F1F1F1" height="56.7375" id="AnnouncementRepository" rx="1" ry="1" style="stroke:#181818;stroke-width:0.20000000000000004;" width="172" x="257" y="183.2"/><ellipse cx="308.7" cy="189.6" fill="#ADD1B2" rx="4.4" ry="4.4" style="stroke:#181818;stroke-width:0.4000000000000001;"/><path d="M309.8063,187.95 Q309.8688,187.8625 309.9438,187.8188 Q310.0188,187.775 310.1063,187.775 Q310.2563,187.775 310.35,187.8813 Q310.4438,187.9813 310.4438,188.225 L310.4438,188.8063 Q310.4438,189.05 310.35,189.1563 Q310.2563,189.2625 310.1063,189.2625 Q309.9688,189.2625 309.8875,189.1813 Q309.8063,189.1063 309.7625,188.9 Q309.7438,188.7563 309.6688,188.6813 Q309.5375,188.5313 309.2938,188.4438 Q309.05,188.3563 308.8,188.3563 Q308.4938,188.3563 308.2375,188.4875 Q307.9875,188.6188 307.7875,188.9188 Q307.5938,189.2188 307.5938,189.6313 L307.5938,190.0688 Q307.5938,190.5625 307.95,190.8938 Q308.3063,191.2188 308.9438,191.2188 Q309.3188,191.2188 309.5813,191.1188 Q309.7375,191.0563 309.9063,190.8813 Q310.0125,190.775 310.0688,190.7438 Q310.1313,190.7125 310.2125,190.7125 Q310.3438,190.7125 310.4438,190.8188 Q310.55,190.9188 310.55,191.0563 Q310.55,191.1938 310.4125,191.3563 Q310.2125,191.5875 309.8938,191.7188 Q309.4625,191.9 308.9438,191.9 Q308.3375,191.9 307.8563,191.65 Q307.4625,191.45 307.1875,191.025 Q306.9125,190.5938 306.9125,190.0813 L306.9125,189.6188 Q306.9125,189.0875 307.1563,188.6313 Q307.4063,188.1688 307.8438,187.925 Q308.2813,187.675 308.775,187.675 Q309.0688,187.675 309.325,187.7438 Q309.5875,187.8063 309.8063,187.95 Z " fill="#000000"/><text fill="#000000" font-family="sans-serif" font-size="5.6" lengthAdjust="spacing" textLength="65.2" x="316.9" y="191.5414">AnnouncementRepository</text><line style="stroke:#181818;stroke-width:0.20000000000000004;" x1="257.4" x2="428.6" y1="196" y2="196"/><text fill="#000000" font-family="sans-serif" font-size="5.6" lengthAdjust="spacing" textLength="112.4" x="259.4" y="202.6695">-announcements: ArrayList&lt;Announcement&gt;</text><line style="stroke:#181818;stroke-width:0.4000000000000001;" x1="257.4" x2="428.6" y1="205.4563" y2="205.4563"/><text fill="#000000" font-family="sans-serif" font-size="5.6" lengthAdjust="spacing" textLength="147.2" x="259.4" y="212.1258">+addAnnouncement(announcement: Announcement): void</text><text fill="#000000" font-family="sans-serif" font-size="5.6" lengthAdjust="spacing" textLength="167.2" x="259.4" y="218.382">+validateAnnouncement(announcement: Announcement): boolean</text><text fill="#000000" font-family="sans-serif" font-size="5.6" lengthAdjust="spacing" textLength="126" x="259.4" y="224.6383">+getAnnouncements(): ArrayList&lt;Announcement&gt;</text><text fill="#000000" font-family="sans-serif" font-size="5.6" lengthAdjust="spacing" textLength="125.2" x="259.4" y="230.8945">+getAnnouncementWithID(ID: int): Announcement</text><text fill="#000000" font-family="sans-serif" font-size="5.6" lengthAdjust="spacing" textLength="150" x="259.4" y="237.1508">+checkAnnouncementExists(announcementID: int): boolean</text></g><!--class Employee--><g id="elem_Employee"><rect codeLine="20" fill="#F1F1F1" height="44.225" id="Employee" rx="1" ry="1" style="stroke:#181818;stroke-width:0.20000000000000004;" width="42.4" x="20.2" y="189.4"/><ellipse cx="28.36" cy="195.8" fill="#ADD1B2" rx="4.4" ry="4.4" style="stroke:#181818;stroke-width:0.4000000000000001;"/><path d="M29.4663,194.15 Q29.5288,194.0625 29.6038,194.0188 Q29.6788,193.975 29.7663,193.975 Q29.9163,193.975 30.01,194.0813 Q30.1038,194.1813 30.1038,194.425 L30.1038,195.0063 Q30.1038,195.25 30.01,195.3563 Q29.9163,195.4625 29.7663,195.4625 Q29.6288,195.4625 29.5475,195.3813 Q29.4663,195.3063 29.4225,195.1 Q29.4038,194.9563 29.3288,194.8813 Q29.1975,194.7313 28.9538,194.6438 Q28.71,194.5563 28.46,194.5563 Q28.1538,194.5563 27.8975,194.6875 Q27.6475,194.8188 27.4475,195.1188 Q27.2538,195.4188 27.2538,195.8313 L27.2538,196.2688 Q27.2538,196.7625 27.61,197.0938 Q27.9663,197.4188 28.6038,197.4188 Q28.9788,197.4188 29.2413,197.3188 Q29.3975,197.2563 29.5663,197.0813 Q29.6725,196.975 29.7288,196.9438 Q29.7913,196.9125 29.8725,196.9125 Q30.0038,196.9125 30.1038,197.0188 Q30.21,197.1188 30.21,197.2563 Q30.21,197.3938 30.0725,197.5563 Q29.8725,197.7875 29.5538,197.9188 Q29.1225,198.1 28.6038,198.1 Q27.9975,198.1 27.5163,197.85 Q27.1225,197.65 26.8475,197.225 Q26.5725,196.7938 26.5725,196.2813 L26.5725,195.8188 Q26.5725,195.2875 26.8163,194.8313 Q27.0663,194.3688 27.5038,194.125 Q27.9413,193.875 28.435,193.875 Q28.7288,193.875 28.985,193.9438 Q29.2475,194.0063 29.4663,194.15 Z " fill="#000000"/><text fill="#000000" font-family="sans-serif" font-size="5.6" lengthAdjust="spacing" textLength="24.8" x="34.44" y="197.7414">Employee</text><line style="stroke:#181818;stroke-width:0.20000000000000004;" x1="20.6" x2="62.2" y1="202.2" y2="202.2"/><text fill="#000000" font-family="sans-serif" font-size="5.6" lengthAdjust="spacing" textLength="30" x="22.6" y="208.8695">email: Email</text><text fill="#000000" font-family="sans-serif" font-size="5.6" lengthAdjust="spacing" textLength="32" x="22.6" y="215.1258">name: String</text><text fill="#000000" font-family="sans-serif" font-size="5.6" lengthAdjust="spacing" textLength="37.6" x="22.6" y="221.382">position: String</text><text fill="#000000" font-family="sans-serif" font-size="5.6" lengthAdjust="spacing" textLength="34" x="22.6" y="227.6383">phone: String</text><line style="stroke:#181818;stroke-width:0.20000000000000004;" x1="20.6" x2="62.2" y1="230.425" y2="230.425"/></g><!--class Person--><g id="elem_Person"><rect codeLine="27" fill="#F1F1F1" height="69.25" id="Person" rx="1" ry="1" style="stroke:#181818;stroke-width:0.20000000000000004;" width="77.2" x="2.8" y="52.4"/><ellipse cx="30.7" cy="58.8" fill="#ADD1B2" rx="4.4" ry="4.4" style="stroke:#181818;stroke-width:0.4000000000000001;"/><path d="M31.8063,57.15 Q31.8688,57.0625 31.9438,57.0188 Q32.0188,56.975 32.1063,56.975 Q32.2563,56.975 32.35,57.0813 Q32.4438,57.1813 32.4438,57.425 L32.4438,58.0063 Q32.4438,58.25 32.35,58.3563 Q32.2563,58.4625 32.1063,58.4625 Q31.9688,58.4625 31.8875,58.3813 Q31.8063,58.3063 31.7625,58.1 Q31.7438,57.9563 31.6688,57.8813 Q31.5375,57.7313 31.2938,57.6438 Q31.05,57.5563 30.8,57.5563 Q30.4938,57.5563 30.2375,57.6875 Q29.9875,57.8188 29.7875,58.1188 Q29.5938,58.4188 29.5938,58.8313 L29.5938,59.2688 Q29.5938,59.7625 29.95,60.0938 Q30.3063,60.4188 30.9438,60.4188 Q31.3188,60.4188 31.5813,60.3188 Q31.7375,60.2563 31.9063,60.0813 Q32.0125,59.975 32.0688,59.9438 Q32.1313,59.9125 32.2125,59.9125 Q32.3438,59.9125 32.4438,60.0188 Q32.55,60.1188 32.55,60.2563 Q32.55,60.3938 32.4125,60.5563 Q32.2125,60.7875 31.8938,60.9188 Q31.4625,61.1 30.9438,61.1 Q30.3375,61.1 29.8563,60.85 Q29.4625,60.65 29.1875,60.225 Q28.9125,59.7938 28.9125,59.2813 L28.9125,58.8188 Q28.9125,58.2875 29.1563,57.8313 Q29.4063,57.3688 29.8438,57.125 Q30.2813,56.875 30.775,56.875 Q31.0688,56.875 31.325,56.9438 Q31.5875,57.0063 31.8063,57.15 Z " fill="#000000"/><text fill="#000000" font-family="sans-serif" font-size="5.6" lengthAdjust="spacing" textLength="18" x="38.9" y="60.7414">Person</text><line style="stroke:#181818;stroke-width:0.20000000000000004;" x1="3.2" x2="79.6" y1="65.2" y2="65.2"/><text fill="#000000" font-family="sans-serif" font-size="5.6" lengthAdjust="spacing" textLength="32" x="5.2" y="71.8695">name: String</text><text fill="#000000" font-family="sans-serif" font-size="5.6" lengthAdjust="spacing" textLength="44.8" x="5.2" y="78.1258">taxNumber: String</text><text fill="#000000" font-family="sans-serif" font-size="5.6" lengthAdjust="spacing" textLength="52" x="5.2" y="84.382">emailAddress: String</text><text fill="#000000" font-family="sans-serif" font-size="5.6" lengthAdjust="spacing" textLength="62.8" x="5.2" y="90.6383">telephoneNumber: String</text><text fill="#000000" font-family="sans-serif" font-size="5.6" lengthAdjust="spacing" textLength="44.4" x="5.2" y="96.8945">address: Address</text><text fill="#000000" font-family="sans-serif" font-size="5.6" lengthAdjust="spacing" textLength="24.4" x="5.2" y="103.1508">role: Role</text><text fill="#000000" font-family="sans-serif" font-size="5.6" lengthAdjust="spacing" textLength="72.4" x="5.2" y="109.407">passportCard: PassportCard</text><line style="stroke:#181818;stroke-width:0.20000000000000004;" x1="3.2" x2="79.6" y1="112.1938" y2="112.1938"/><text fill="#000000" font-family="sans-serif" font-size="5.6" lengthAdjust="spacing" textLength="29.6" x="5.2" y="118.8633">+getName()</text></g><!--class ApproveRequestController--><g id="elem_ApproveRequestController"><rect codeLine="39" fill="#F1F1F1" height="44.225" id="ApproveRequestController" rx="1" ry="1" style="stroke:#181818;stroke-width:0.20000000000000004;" width="375.2" x="391" y="64.8"/><ellipse cx="543.3" cy="71.2" fill="#ADD1B2" rx="4.4" ry="4.4" style="stroke:#181818;stroke-width:0.4000000000000001;"/><path d="M544.4063,69.55 Q544.4688,69.4625 544.5438,69.4188 Q544.6188,69.375 544.7063,69.375 Q544.8563,69.375 544.95,69.4813 Q545.0438,69.5813 545.0438,69.825 L545.0438,70.4063 Q545.0438,70.65 544.95,70.7563 Q544.8563,70.8625 544.7063,70.8625 Q544.5688,70.8625 544.4875,70.7813 Q544.4063,70.7063 544.3625,70.5 Q544.3438,70.3563 544.2688,70.2813 Q544.1375,70.1313 543.8938,70.0438 Q543.65,69.9563 543.4,69.9563 Q543.0938,69.9563 542.8375,70.0875 Q542.5875,70.2188 542.3875,70.5188 Q542.1938,70.8188 542.1938,71.2313 L542.1938,71.6688 Q542.1938,72.1625 542.55,72.4938 Q542.9063,72.8188 543.5438,72.8188 Q543.9188,72.8188 544.1813,72.7188 Q544.3375,72.6563 544.5063,72.4813 Q544.6125,72.375 544.6688,72.3438 Q544.7313,72.3125 544.8125,72.3125 Q544.9438,72.3125 545.0438,72.4188 Q545.15,72.5188 545.15,72.6563 Q545.15,72.7938 545.0125,72.9563 Q544.8125,73.1875 544.4938,73.3188 Q544.0625,73.5 543.5438,73.5 Q542.9375,73.5 542.4563,73.25 Q542.0625,73.05 541.7875,72.625 Q541.5125,72.1938 541.5125,71.6813 L541.5125,71.2188 Q541.5125,70.6875 541.7563,70.2313 Q542.0063,69.7688 542.4438,69.525 Q542.8813,69.275 543.375,69.275 Q543.6688,69.275 543.925,69.3438 Q544.1875,69.4063 544.4063,69.55 Z " fill="#000000"/><text fill="#000000" font-family="sans-serif" font-size="5.6" lengthAdjust="spacing" textLength="67.2" x="551.5" y="73.1414">ApproveRequestController</text><line style="stroke:#181818;stroke-width:0.20000000000000004;" x1="391.4" x2="765.8" y1="77.6" y2="77.6"/><text fill="#000000" font-family="sans-serif" font-size="5.6" lengthAdjust="spacing" textLength="66.4" x="393.4" y="84.2695">-repositories: Repositories</text><line style="stroke:#181818;stroke-width:0.4000000000000001;" x1="391.4" x2="765.8" y1="87.0563" y2="87.0563"/><text fill="#000000" font-family="sans-serif" font-size="5.6" lengthAdjust="spacing" textLength="64" x="393.4" y="93.7258">+getLoggedUser(): String</text><text fill="#000000" font-family="sans-serif" font-size="5.6" lengthAdjust="spacing" textLength="134" x="393.4" y="99.982">+sortRequests(email: String): ArrayList&lt;RequestDto&gt;</text><text fill="#000000" font-family="sans-serif" font-size="5.6" lengthAdjust="spacing" textLength="370.4" x="393.4" y="106.2383">+judgePropertyRequest(propertyID: int, acceptance: String, commissionType: String, commissionValue: double, justificationMessage: String): String</text></g><!--class Message--><g id="elem_Message"><rect codeLine="47" fill="#F1F1F1" height="25.4563" id="Message" rx="1" ry="1" style="stroke:#181818;stroke-width:0.20000000000000004;" width="47.2" x="638.6" y="198.8"/><ellipse cx="649.64" cy="205.2" fill="#B4A7E5" rx="4.4" ry="4.4" style="stroke:#181818;stroke-width:0.4000000000000001;"/><path d="M650.0213,203.8563 L650.0213,206.5188 L650.7088,206.5188 Q650.9525,206.5188 651.0588,206.6125 Q651.165,206.7063 651.165,206.8625 Q651.165,207.0125 651.0588,207.1063 Q650.9525,207.2 650.7088,207.2 L648.6525,207.2 Q648.4088,207.2 648.3025,207.1063 Q648.1963,207.0125 648.1963,206.8563 Q648.1963,206.7063 648.3025,206.6125 Q648.4088,206.5188 648.6525,206.5188 L649.34,206.5188 L649.34,203.8563 L648.6525,203.8563 Q648.4088,203.8563 648.3025,203.7625 Q648.1963,203.6688 648.1963,203.5125 Q648.1963,203.3625 648.3025,203.2688 Q648.4088,203.175 648.6525,203.175 L650.7088,203.175 Q650.9525,203.175 651.0588,203.2688 Q651.165,203.3625 651.165,203.5125 Q651.165,203.6688 651.0588,203.7625 Q650.9525,203.8563 650.7088,203.8563 L650.0213,203.8563 Z " fill="#000000"/><text fill="#000000" font-family="sans-serif" font-size="5.6" font-style="italic" lengthAdjust="spacing" textLength="23.2" x="656.36" y="207.1414">Message</text><line style="stroke:#181818;stroke-width:0.20000000000000004;" x1="639" x2="685.4" y1="211.6" y2="211.6"/><line style="stroke:#181818;stroke-width:0.20000000000000004;" x1="639" x2="685.4" y1="214.8" y2="214.8"/><text fill="#000000" font-family="sans-serif" font-size="5.6" lengthAdjust="spacing" textLength="42.4" x="641" y="221.4695">+sendMessage()</text></g><!--class Agency--><g id="elem_Agency"><rect codeLine="51" fill="#F1F1F1" height="119.3" id="Agency" rx="1" ry="1" style="stroke:#181818;stroke-width:0.20000000000000004;" width="169.2" x="449.2" y="152"/><ellipse cx="522.7" cy="158.4" fill="#ADD1B2" rx="4.4" ry="4.4" style="stroke:#181818;stroke-width:0.4000000000000001;"/><path d="M523.8063,156.75 Q523.8688,156.6625 523.9438,156.6188 Q524.0188,156.575 524.1063,156.575 Q524.2563,156.575 524.35,156.6813 Q524.4438,156.7813 524.4438,157.025 L524.4438,157.6063 Q524.4438,157.85 524.35,157.9563 Q524.2563,158.0625 524.1063,158.0625 Q523.9688,158.0625 523.8875,157.9813 Q523.8063,157.9063 523.7625,157.7 Q523.7438,157.5563 523.6688,157.4813 Q523.5375,157.3313 523.2938,157.2438 Q523.05,157.1563 522.8,157.1563 Q522.4938,157.1563 522.2375,157.2875 Q521.9875,157.4188 521.7875,157.7188 Q521.5938,158.0188 521.5938,158.4313 L521.5938,158.8688 Q521.5938,159.3625 521.95,159.6938 Q522.3063,160.0188 522.9438,160.0188 Q523.3188,160.0188 523.5813,159.9188 Q523.7375,159.8563 523.9063,159.6813 Q524.0125,159.575 524.0688,159.5438 Q524.1313,159.5125 524.2125,159.5125 Q524.3438,159.5125 524.4438,159.6188 Q524.55,159.7188 524.55,159.8563 Q524.55,159.9938 524.4125,160.1563 Q524.2125,160.3875 523.8938,160.5188 Q523.4625,160.7 522.9438,160.7 Q522.3375,160.7 521.8563,160.45 Q521.4625,160.25 521.1875,159.825 Q520.9125,159.3938 520.9125,158.8813 L520.9125,158.4188 Q520.9125,157.8875 521.1563,157.4313 Q521.4063,156.9688 521.8438,156.725 Q522.2813,156.475 522.775,156.475 Q523.0688,156.475 523.325,156.5438 Q523.5875,156.6063 523.8063,156.75 Z " fill="#000000"/><text fill="#000000" font-family="sans-serif" font-size="5.6" lengthAdjust="spacing" textLength="18.8" x="530.9" y="160.3414">Agency</text><line style="stroke:#181818;stroke-width:0.20000000000000004;" x1="449.6" x2="618" y1="164.8" y2="164.8"/><text fill="#000000" font-family="sans-serif" font-size="5.6" lengthAdjust="spacing" textLength="43.6" x="451.6" y="171.4695">-agencyID: String</text><text fill="#000000" font-family="sans-serif" font-size="5.6" lengthAdjust="spacing" textLength="52.8" x="451.6" y="177.7258">-agencyName: String</text><text fill="#000000" font-family="sans-serif" font-size="5.6" lengthAdjust="spacing" textLength="54" x="451.6" y="183.982">-emailAddress: String</text><text fill="#000000" font-family="sans-serif" font-size="5.6" lengthAdjust="spacing" textLength="85.2" x="451.6" y="190.2383">-contactTelephoneNumber: String</text><text fill="#000000" font-family="sans-serif" font-size="5.6" lengthAdjust="spacing" textLength="46.4" x="451.6" y="196.4945">-address: Address</text><line style="stroke:#181818;stroke-width:0.20000000000000004;" x1="449.6" x2="618" y1="199.2813" y2="199.2813"/><text fill="#000000" font-family="sans-serif" font-size="5.6" lengthAdjust="spacing" textLength="39.2" x="451.6" y="205.9508">+getAgencyID()</text><text fill="#000000" font-family="sans-serif" font-size="5.6" lengthAdjust="spacing" textLength="80.4" x="451.6" y="212.207">+setAgencyID(agencyID: String)</text><text fill="#000000" font-family="sans-serif" font-size="5.6" lengthAdjust="spacing" textLength="48.4" x="451.6" y="218.4633">+getAgencyName()</text><text fill="#000000" font-family="sans-serif" font-size="5.6" lengthAdjust="spacing" textLength="98.8" x="451.6" y="224.7195">+setAgencyName(agencyName: String)</text><text fill="#000000" font-family="sans-serif" font-size="5.6" lengthAdjust="spacing" textLength="49.6" x="451.6" y="230.9758">+getEmailAddress()</text><text fill="#000000" font-family="sans-serif" font-size="5.6" lengthAdjust="spacing" textLength="101.2" x="451.6" y="237.232">+setEmailAddress(emailAddress: String)</text><text fill="#000000" font-family="sans-serif" font-size="5.6" lengthAdjust="spacing" textLength="81.6" x="451.6" y="243.4883">+getContactTelephoneNumber()</text><text fill="#000000" font-family="sans-serif" font-size="5.6" lengthAdjust="spacing" textLength="164.4" x="451.6" y="249.7445">+setContactTelephoneNumber(contactTelephoneNumber: String)</text><text fill="#000000" font-family="sans-serif" font-size="5.6" lengthAdjust="spacing" textLength="36" x="451.6" y="256.0008">+getAddress()</text><text fill="#000000" font-family="sans-serif" font-size="5.6" lengthAdjust="spacing" textLength="80" x="451.6" y="262.257">+setAddress(address: Address)</text><text fill="#000000" font-family="sans-serif" font-size="5.6" lengthAdjust="spacing" textLength="26.8" x="451.6" y="268.5133">+toString()</text></g><!--class Announcement--><g id="elem_Announcement"><rect codeLine="70" fill="#F1F1F1" height="106.7875" id="Announcement" rx="1" ry="1" style="stroke:#181818;stroke-width:0.20000000000000004;" width="130" x="356" y="320.4"/><ellipse cx="400.3" cy="326.8" fill="#ADD1B2" rx="4.4" ry="4.4" style="stroke:#181818;stroke-width:0.4000000000000001;"/><path d="M401.4063,325.15 Q401.4688,325.0625 401.5438,325.0188 Q401.6188,324.975 401.7063,324.975 Q401.8563,324.975 401.95,325.0813 Q402.0438,325.1813 402.0438,325.425 L402.0438,326.0063 Q402.0438,326.25 401.95,326.3563 Q401.8563,326.4625 401.7063,326.4625 Q401.5688,326.4625 401.4875,326.3813 Q401.4063,326.3063 401.3625,326.1 Q401.3438,325.9563 401.2688,325.8813 Q401.1375,325.7313 400.8938,325.6438 Q400.65,325.5563 400.4,325.5563 Q400.0938,325.5563 399.8375,325.6875 Q399.5875,325.8188 399.3875,326.1188 Q399.1938,326.4188 399.1938,326.8313 L399.1938,327.2688 Q399.1938,327.7625 399.55,328.0938 Q399.9063,328.4188 400.5438,328.4188 Q400.9188,328.4188 401.1813,328.3188 Q401.3375,328.2563 401.5063,328.0813 Q401.6125,327.975 401.6688,327.9438 Q401.7313,327.9125 401.8125,327.9125 Q401.9438,327.9125 402.0438,328.0188 Q402.15,328.1188 402.15,328.2563 Q402.15,328.3938 402.0125,328.5563 Q401.8125,328.7875 401.4938,328.9188 Q401.0625,329.1 400.5438,329.1 Q399.9375,329.1 399.4563,328.85 Q399.0625,328.65 398.7875,328.225 Q398.5125,327.7938 398.5125,327.2813 L398.5125,326.8188 Q398.5125,326.2875 398.7563,325.8313 Q399.0063,325.3688 399.4438,325.125 Q399.8813,324.875 400.375,324.875 Q400.6688,324.875 400.925,324.9438 Q401.1875,325.0063 401.4063,325.15 Z " fill="#000000"/><text fill="#000000" font-family="sans-serif" font-size="5.6" lengthAdjust="spacing" textLength="38" x="408.5" y="328.7414">Announcement</text><line style="stroke:#181818;stroke-width:0.20000000000000004;" x1="356.4" x2="485.6" y1="333.2" y2="333.2"/><text fill="#000000" font-family="sans-serif" font-size="5.6" lengthAdjust="spacing" textLength="22" x="358.4" y="339.8695">-cont: int</text><text fill="#000000" font-family="sans-serif" font-size="5.6" lengthAdjust="spacing" textLength="45.6" x="358.4" y="346.1258">-request: Request</text><text fill="#000000" font-family="sans-serif" font-size="5.6" lengthAdjust="spacing" textLength="54" x="358.4" y="352.382">-announcementID: int</text><text fill="#000000" font-family="sans-serif" font-size="5.6" lengthAdjust="spacing" textLength="61.2" x="358.4" y="358.6383">-acceptanceDate: String</text><text fill="#000000" font-family="sans-serif" font-size="5.6" lengthAdjust="spacing" textLength="82" x="358.4" y="364.8945">-commission: CommissionDetails</text><line style="stroke:#181818;stroke-width:0.4000000000000001;" x1="356.4" x2="485.6" y1="367.6813" y2="367.6813"/><text fill="#000000" font-family="sans-serif" font-size="5.6" lengthAdjust="spacing" textLength="36.4" x="358.4" y="374.3508">+getRequest()</text><text fill="#000000" font-family="sans-serif" font-size="5.6" lengthAdjust="spacing" textLength="79.6" x="358.4" y="380.607">+setRequest(request: Request)</text><text fill="#000000" font-family="sans-serif" font-size="5.6" lengthAdjust="spacing" textLength="58.4" x="358.4" y="386.8633">+getAnnouncementID()</text><text fill="#000000" font-family="sans-serif" font-size="5.6" lengthAdjust="spacing" textLength="110" x="358.4" y="393.1195">+setAnnouncementID(announcementID: int)</text><text fill="#000000" font-family="sans-serif" font-size="5.6" lengthAdjust="spacing" textLength="56.8" x="358.4" y="399.3758">+getAcceptanceDate()</text><text fill="#000000" font-family="sans-serif" font-size="5.6" lengthAdjust="spacing" textLength="115.6" x="358.4" y="405.632">+setAcceptanceDate(acceptanceDate: String)</text><text fill="#000000" font-family="sans-serif" font-size="5.6" lengthAdjust="spacing" textLength="45.6" x="358.4" y="411.8883">+getCommission()</text><text fill="#000000" font-family="sans-serif" font-size="5.6" lengthAdjust="spacing" textLength="125.2" x="358.4" y="418.1445">+setCommission(commission: CommissionDetails)</text><text fill="#000000" font-family="sans-serif" font-size="5.6" lengthAdjust="spacing" textLength="26.8" x="358.4" y="424.4008">+toString()</text></g><!--class SendEmail--><g id="elem_SendEmail"><rect codeLine="87" fill="#F1F1F1" height="25.4563" id="SendEmail" rx="1" ry="1" style="stroke:#181818;stroke-width:0.20000000000000004;" width="47.2" x="648.2" y="361"/><ellipse cx="657.62" cy="367.4" fill="#ADD1B2" rx="4.4" ry="4.4" style="stroke:#181818;stroke-width:0.4000000000000001;"/><path d="M658.7263,365.75 Q658.7888,365.6625 658.8638,365.6188 Q658.9388,365.575 659.0263,365.575 Q659.1763,365.575 659.27,365.6813 Q659.3638,365.7813 659.3638,366.025 L659.3638,366.6063 Q659.3638,366.85 659.27,366.9563 Q659.1763,367.0625 659.0263,367.0625 Q658.8888,367.0625 658.8075,366.9813 Q658.7263,366.9063 658.6825,366.7 Q658.6638,366.5563 658.5888,366.4813 Q658.4575,366.3313 658.2138,366.2438 Q657.97,366.1563 657.72,366.1563 Q657.4138,366.1563 657.1575,366.2875 Q656.9075,366.4188 656.7075,366.7188 Q656.5138,367.0188 656.5138,367.4313 L656.5138,367.8688 Q656.5138,368.3625 656.87,368.6938 Q657.2263,369.0188 657.8638,369.0188 Q658.2388,369.0188 658.5013,368.9188 Q658.6575,368.8563 658.8263,368.6813 Q658.9325,368.575 658.9888,368.5438 Q659.0513,368.5125 659.1325,368.5125 Q659.2638,368.5125 659.3638,368.6188 Q659.47,368.7188 659.47,368.8563 Q659.47,368.9938 659.3325,369.1563 Q659.1325,369.3875 658.8138,369.5188 Q658.3825,369.7 657.8638,369.7 Q657.2575,369.7 656.7763,369.45 Q656.3825,369.25 656.1075,368.825 Q655.8325,368.3938 655.8325,367.8813 L655.8325,367.4188 Q655.8325,366.8875 656.0763,366.4313 Q656.3263,365.9688 656.7638,365.725 Q657.2013,365.475 657.695,365.475 Q657.9888,365.475 658.245,365.5438 Q658.5075,365.6063 658.7263,365.75 Z " fill="#000000"/><text fill="#000000" font-family="sans-serif" font-size="5.6" lengthAdjust="spacing" textLength="26.8" x="663.98" y="369.3414">SendEmail</text><line style="stroke:#181818;stroke-width:0.20000000000000004;" x1="648.6" x2="695" y1="373.8" y2="373.8"/><line style="stroke:#181818;stroke-width:0.20000000000000004;" x1="648.6" x2="695" y1="377" y2="377"/><text fill="#000000" font-family="sans-serif" font-size="5.6" lengthAdjust="spacing" textLength="42.4" x="650.6" y="383.6695">+sendMessage()</text></g><!--class SendNotification--><g id="elem_SendNotification"><rect codeLine="90" fill="#F1F1F1" height="25.4563" id="SendNotification" rx="1" ry="1" style="stroke:#181818;stroke-width:0.20000000000000004;" width="53.6" x="574.6" y="361"/><ellipse cx="580.6" cy="367.4" fill="#ADD1B2" rx="4.4" ry="4.4" style="stroke:#181818;stroke-width:0.4000000000000001;"/><path d="M581.7063,365.75 Q581.7688,365.6625 581.8438,365.6188 Q581.9188,365.575 582.0063,365.575 Q582.1563,365.575 582.25,365.6813 Q582.3438,365.7813 582.3438,366.025 L582.3438,366.6063 Q582.3438,366.85 582.25,366.9563 Q582.1563,367.0625 582.0063,367.0625 Q581.8688,367.0625 581.7875,366.9813 Q581.7063,366.9063 581.6625,366.7 Q581.6438,366.5563 581.5688,366.4813 Q581.4375,366.3313 581.1938,366.2438 Q580.95,366.1563 580.7,366.1563 Q580.3938,366.1563 580.1375,366.2875 Q579.8875,366.4188 579.6875,366.7188 Q579.4938,367.0188 579.4938,367.4313 L579.4938,367.8688 Q579.4938,368.3625 579.85,368.6938 Q580.2063,369.0188 580.8438,369.0188 Q581.2188,369.0188 581.4813,368.9188 Q581.6375,368.8563 581.8063,368.6813 Q581.9125,368.575 581.9688,368.5438 Q582.0313,368.5125 582.1125,368.5125 Q582.2438,368.5125 582.3438,368.6188 Q582.45,368.7188 582.45,368.8563 Q582.45,368.9938 582.3125,369.1563 Q582.1125,369.3875 581.7938,369.5188 Q581.3625,369.7 580.8438,369.7 Q580.2375,369.7 579.7563,369.45 Q579.3625,369.25 579.0875,368.825 Q578.8125,368.3938 578.8125,367.8813 L578.8125,367.4188 Q578.8125,366.8875 579.0563,366.4313 Q579.3063,365.9688 579.7438,365.725 Q580.1813,365.475 580.675,365.475 Q580.9688,365.475 581.225,365.5438 Q581.4875,365.6063 581.7063,365.75 Z " fill="#000000"/><text fill="#000000" font-family="sans-serif" font-size="5.6" lengthAdjust="spacing" textLength="40.8" x="586.2" y="369.3414">SendNotification</text><line style="stroke:#181818;stroke-width:0.20000000000000004;" x1="575" x2="627.8" y1="373.8" y2="373.8"/><line style="stroke:#181818;stroke-width:0.20000000000000004;" x1="575" x2="627.8" y1="377" y2="377"/><text fill="#000000" font-family="sans-serif" font-size="5.6" lengthAdjust="spacing" textLength="42.4" x="577" y="383.6695">+sendMessage()</text></g><!--class Commission--><g id="elem_Commission"><rect codeLine="93" fill="#F1F1F1" height="50.4813" id="Commission" rx="1" ry="1" style="stroke:#181818;stroke-width:0.20000000000000004;" width="71.6" x="385.2" y="476.4"/><ellipse cx="404.1" cy="482.8" fill="#ADD1B2" rx="4.4" ry="4.4" style="stroke:#181818;stroke-width:0.4000000000000001;"/><path d="M405.2063,481.15 Q405.2688,481.0625 405.3438,481.0188 Q405.4188,480.975 405.5063,480.975 Q405.6563,480.975 405.75,481.0813 Q405.8438,481.1813 405.8438,481.425 L405.8438,482.0063 Q405.8438,482.25 405.75,482.3563 Q405.6563,482.4625 405.5063,482.4625 Q405.3688,482.4625 405.2875,482.3813 Q405.2063,482.3063 405.1625,482.1 Q405.1438,481.9563 405.0688,481.8813 Q404.9375,481.7313 404.6938,481.6438 Q404.45,481.5563 404.2,481.5563 Q403.8938,481.5563 403.6375,481.6875 Q403.3875,481.8188 403.1875,482.1188 Q402.9938,482.4188 402.9938,482.8313 L402.9938,483.2688 Q402.9938,483.7625 403.35,484.0938 Q403.7063,484.4188 404.3438,484.4188 Q404.7188,484.4188 404.9813,484.3188 Q405.1375,484.2563 405.3063,484.0813 Q405.4125,483.975 405.4688,483.9438 Q405.5313,483.9125 405.6125,483.9125 Q405.7438,483.9125 405.8438,484.0188 Q405.95,484.1188 405.95,484.2563 Q405.95,484.3938 405.8125,484.5563 Q405.6125,484.7875 405.2938,484.9188 Q404.8625,485.1 404.3438,485.1 Q403.7375,485.1 403.2563,484.85 Q402.8625,484.65 402.5875,484.225 Q402.3125,483.7938 402.3125,483.2813 L402.3125,482.8188 Q402.3125,482.2875 402.5563,481.8313 Q402.8063,481.3688 403.2438,481.125 Q403.6813,480.875 404.175,480.875 Q404.4688,480.875 404.725,480.9438 Q404.9875,481.0063 405.2063,481.15 Z " fill="#000000"/><text fill="#000000" font-family="sans-serif" font-size="5.6" lengthAdjust="spacing" textLength="30.4" x="412.3" y="484.7414">Commission</text><line style="stroke:#181818;stroke-width:0.20000000000000004;" x1="385.6" x2="456.4" y1="489.2" y2="489.2"/><text fill="#000000" font-family="sans-serif" font-size="5.6" lengthAdjust="spacing" textLength="62" x="387.6" y="495.8695">-commissionType: String</text><text fill="#000000" font-family="sans-serif" font-size="5.6" lengthAdjust="spacing" textLength="66.8" x="387.6" y="502.1258">-commissionValue: Double</text><line style="stroke:#181818;stroke-width:0.4000000000000001;" x1="385.6" x2="456.4" y1="504.9125" y2="504.9125"/><text fill="#000000" font-family="sans-serif" font-size="5.6" lengthAdjust="spacing" textLength="26.8" x="387.6" y="511.582">+toString()</text><text fill="#000000" font-family="sans-serif" font-size="5.6" lengthAdjust="spacing" textLength="60" x="387.6" y="517.8383">+getCommissionValue()</text><text fill="#000000" font-family="sans-serif" font-size="5.6" lengthAdjust="spacing" textLength="58.4" x="387.6" y="524.0945">+getCommissionType()</text></g><!--class Request--><g id="elem_Request"><rect codeLine="102" fill="#F1F1F1" height="144.325" id="Request" rx="1" ry="1" style="stroke:#181818;stroke-width:0.20000000000000004;" width="129.6" x="95" y="301.6"/><ellipse cx="147.5" cy="308" fill="#ADD1B2" rx="4.4" ry="4.4" style="stroke:#181818;stroke-width:0.4000000000000001;"/><path d="M148.6063,306.35 Q148.6688,306.2625 148.7438,306.2188 Q148.8188,306.175 148.9063,306.175 Q149.0563,306.175 149.15,306.2813 Q149.2438,306.3813 149.2438,306.625 L149.2438,307.2063 Q149.2438,307.45 149.15,307.5563 Q149.0563,307.6625 148.9063,307.6625 Q148.7688,307.6625 148.6875,307.5813 Q148.6063,307.5063 148.5625,307.3 Q148.5438,307.1563 148.4688,307.0813 Q148.3375,306.9313 148.0938,306.8438 Q147.85,306.7563 147.6,306.7563 Q147.2938,306.7563 147.0375,306.8875 Q146.7875,307.0188 146.5875,307.3188 Q146.3938,307.6188 146.3938,308.0313 L146.3938,308.4688 Q146.3938,308.9625 146.75,309.2938 Q147.1063,309.6188 147.7438,309.6188 Q148.1188,309.6188 148.3813,309.5188 Q148.5375,309.4563 148.7063,309.2813 Q148.8125,309.175 148.8688,309.1438 Q148.9313,309.1125 149.0125,309.1125 Q149.1438,309.1125 149.2438,309.2188 Q149.35,309.3188 149.35,309.4563 Q149.35,309.5938 149.2125,309.7563 Q149.0125,309.9875 148.6938,310.1188 Q148.2625,310.3 147.7438,310.3 Q147.1375,310.3 146.6563,310.05 Q146.2625,309.85 145.9875,309.425 Q145.7125,308.9938 145.7125,308.4813 L145.7125,308.0188 Q145.7125,307.4875 145.9563,307.0313 Q146.2063,306.5688 146.6438,306.325 Q147.0813,306.075 147.575,306.075 Q147.8688,306.075 148.125,306.1438 Q148.3875,306.2063 148.6063,306.35 Z " fill="#000000"/><text fill="#000000" font-family="sans-serif" font-size="5.6" lengthAdjust="spacing" textLength="21.2" x="155.7" y="309.9414">Request</text><line style="stroke:#181818;stroke-width:0.20000000000000004;" x1="95.4" x2="224.2" y1="314.4" y2="314.4"/><text fill="#000000" font-family="sans-serif" font-size="5.6" lengthAdjust="spacing" textLength="22" x="97.4" y="321.0695">-cont: int</text><text fill="#000000" font-family="sans-serif" font-size="5.6" lengthAdjust="spacing" textLength="48" x="97.4" y="327.3258">-property: Property</text><text fill="#000000" font-family="sans-serif" font-size="5.6" lengthAdjust="spacing" textLength="38.4" x="97.4" y="333.582">-owner: Person</text><text fill="#000000" font-family="sans-serif" font-size="5.6" lengthAdjust="spacing" textLength="51.2" x="97.4" y="339.8383">-requestDate: String</text><text fill="#000000" font-family="sans-serif" font-size="5.6" lengthAdjust="spacing" textLength="44.4" x="97.4" y="346.0945">-agent: Employee</text><text fill="#000000" font-family="sans-serif" font-size="5.6" lengthAdjust="spacing" textLength="63.2" x="97.4" y="352.3508">-transaction: Transaction</text><text fill="#000000" font-family="sans-serif" font-size="5.6" lengthAdjust="spacing" textLength="35.6" x="97.4" y="358.607">-requestID: int</text><line style="stroke:#181818;stroke-width:0.4000000000000001;" x1="95.4" x2="224.2" y1="361.3938" y2="361.3938"/><text fill="#000000" font-family="sans-serif" font-size="5.6" lengthAdjust="spacing" textLength="31.6" x="97.4" y="368.0633">+getOwner()</text><text fill="#000000" font-family="sans-serif" font-size="5.6" lengthAdjust="spacing" textLength="67.6" x="97.4" y="374.3195">+setOwner(owner: Person)</text><text fill="#000000" font-family="sans-serif" font-size="5.6" lengthAdjust="spacing" textLength="30" x="97.4" y="380.5758">+getAgent()</text><text fill="#000000" font-family="sans-serif" font-size="5.6" lengthAdjust="spacing" textLength="72" x="97.4" y="386.832">+setAgent(agent: Employee)</text><text fill="#000000" font-family="sans-serif" font-size="5.6" lengthAdjust="spacing" textLength="36.8" x="97.4" y="393.0883">+getProperty()</text><text fill="#000000" font-family="sans-serif" font-size="5.6" lengthAdjust="spacing" textLength="82.4" x="97.4" y="399.3445">+setProperty(property: Property)</text><text fill="#000000" font-family="sans-serif" font-size="5.6" lengthAdjust="spacing" textLength="48.4" x="97.4" y="405.6008">+getRequestDate()</text><text fill="#000000" font-family="sans-serif" font-size="5.6" lengthAdjust="spacing" textLength="97.2" x="97.4" y="411.857">+setRequestDate(requestDate: String)</text><text fill="#000000" font-family="sans-serif" font-size="5.6" lengthAdjust="spacing" textLength="64" x="97.4" y="418.1133">+getTypeOfTransaction()</text><text fill="#000000" font-family="sans-serif" font-size="5.6" lengthAdjust="spacing" textLength="124.8" x="97.4" y="424.3695">+setTypeOfTransaction(transaction: Transaction)</text><text fill="#000000" font-family="sans-serif" font-size="5.6" lengthAdjust="spacing" textLength="41.6" x="97.4" y="430.6258">+getRequestID()</text><text fill="#000000" font-family="sans-serif" font-size="5.6" lengthAdjust="spacing" textLength="74.8" x="97.4" y="436.882">+setRequestID(requestID: int)</text><text fill="#000000" font-family="sans-serif" font-size="5.6" lengthAdjust="spacing" textLength="26.8" x="97.4" y="443.1383">+toString()</text></g><!--class RequestsRepository--><g id="elem_RequestsRepository"><rect codeLine="125" fill="#F1F1F1" height="100.5313" id="RequestsRepository" rx="1" ry="1" style="stroke:#181818;stroke-width:0.20000000000000004;" width="154.4" x="82.6" y="161.4"/><ellipse cx="132.5" cy="167.8" fill="#ADD1B2" rx="4.4" ry="4.4" style="stroke:#181818;stroke-width:0.4000000000000001;"/><path d="M133.6063,166.15 Q133.6688,166.0625 133.7438,166.0188 Q133.8188,165.975 133.9063,165.975 Q134.0563,165.975 134.15,166.0813 Q134.2438,166.1813 134.2438,166.425 L134.2438,167.0063 Q134.2438,167.25 134.15,167.3563 Q134.0563,167.4625 133.9063,167.4625 Q133.7688,167.4625 133.6875,167.3813 Q133.6063,167.3063 133.5625,167.1 Q133.5438,166.9563 133.4688,166.8813 Q133.3375,166.7313 133.0938,166.6438 Q132.85,166.5563 132.6,166.5563 Q132.2938,166.5563 132.0375,166.6875 Q131.7875,166.8188 131.5875,167.1188 Q131.3938,167.4188 131.3938,167.8313 L131.3938,168.2688 Q131.3938,168.7625 131.75,169.0938 Q132.1063,169.4188 132.7438,169.4188 Q133.1188,169.4188 133.3813,169.3188 Q133.5375,169.2563 133.7063,169.0813 Q133.8125,168.975 133.8688,168.9438 Q133.9313,168.9125 134.0125,168.9125 Q134.1438,168.9125 134.2438,169.0188 Q134.35,169.1188 134.35,169.2563 Q134.35,169.3938 134.2125,169.5563 Q134.0125,169.7875 133.6938,169.9188 Q133.2625,170.1 132.7438,170.1 Q132.1375,170.1 131.6563,169.85 Q131.2625,169.65 130.9875,169.225 Q130.7125,168.7938 130.7125,168.2813 L130.7125,167.8188 Q130.7125,167.2875 130.9563,166.8313 Q131.2063,166.3688 131.6438,166.125 Q132.0813,165.875 132.575,165.875 Q132.8688,165.875 133.125,165.9438 Q133.3875,166.0063 133.6063,166.15 Z " fill="#000000"/><text fill="#000000" font-family="sans-serif" font-size="5.6" lengthAdjust="spacing" textLength="51.2" x="140.7" y="169.7414">RequestsRepository</text><line style="stroke:#181818;stroke-width:0.20000000000000004;" x1="83" x2="236.6" y1="174.2" y2="174.2"/><text fill="#000000" font-family="sans-serif" font-size="5.6" lengthAdjust="spacing" textLength="80" x="85" y="180.8695">-listingRequests: List&lt;Request&gt;</text><line style="stroke:#181818;stroke-width:0.4000000000000001;" x1="83" x2="236.6" y1="183.6563" y2="183.6563"/><text fill="#000000" font-family="sans-serif" font-size="5.6" lengthAdjust="spacing" textLength="108.8" x="85" y="190.3258">+getListingRequests(): ArrayList&lt;Request&gt;</text><text fill="#000000" font-family="sans-serif" font-size="5.6" lengthAdjust="spacing" textLength="115.2" x="85" y="196.582">+validateRequest(request: Request): boolean</text><text fill="#000000" font-family="sans-serif" font-size="5.6" lengthAdjust="spacing" textLength="89.6" x="85" y="202.8383">+getRequestWithID(n: int): Request</text><text fill="#000000" font-family="sans-serif" font-size="5.6" lengthAdjust="spacing" textLength="74" x="85" y="209.0945">+getNumberOfRequests(): int</text><text fill="#000000" font-family="sans-serif" font-size="5.6" lengthAdjust="spacing" textLength="119.6" x="85" y="215.3508">+containsProperty(property: Property): boolean</text><text fill="#000000" font-family="sans-serif" font-size="5.6" lengthAdjust="spacing" textLength="116.8" x="85" y="221.607">+checkRequestExists(propertyID: int): boolean</text><text fill="#000000" font-family="sans-serif" font-size="5.6" lengthAdjust="spacing" textLength="70.4" x="85" y="227.8633">+sortRequestList(): boolean</text><text fill="#000000" font-family="sans-serif" font-size="5.6" lengthAdjust="spacing" textLength="92" x="85" y="234.1195">+swapRequests(n1: int, n2: int): void</text><text fill="#000000" font-family="sans-serif" font-size="5.6" lengthAdjust="spacing" textLength="149.6" x="85" y="240.3758">+getRequestListByEmail(email: String): ArrayList&lt;Request&gt;</text><text fill="#000000" font-family="sans-serif" font-size="5.6" lengthAdjust="spacing" textLength="101.2" x="85" y="246.632">+deleteRequest(request: Request): void</text><text fill="#000000" font-family="sans-serif" font-size="5.6" lengthAdjust="spacing" textLength="104.4" x="85" y="252.8883">+getRequest(request: Request): Request</text><text fill="#000000" font-family="sans-serif" font-size="5.6" lengthAdjust="spacing" textLength="105.2" x="85" y="259.1445">+addRequest(request: Request): boolean</text></g><!--class Repositories--><g id="elem_Repositories"><rect codeLine="142" fill="#F1F1F1" height="69.25" id="Repositories" rx="1" ry="1" style="stroke:#181818;stroke-width:0.20000000000000004;" width="85.2" x="196.8" y="52.4"/><ellipse cx="221.9" cy="58.8" fill="#ADD1B2" rx="4.4" ry="4.4" style="stroke:#181818;stroke-width:0.4000000000000001;"/><path d="M223.0063,57.15 Q223.0688,57.0625 223.1438,57.0188 Q223.2188,56.975 223.3063,56.975 Q223.4563,56.975 223.55,57.0813 Q223.6438,57.1813 223.6438,57.425 L223.6438,58.0063 Q223.6438,58.25 223.55,58.3563 Q223.4563,58.4625 223.3063,58.4625 Q223.1688,58.4625 223.0875,58.3813 Q223.0063,58.3063 222.9625,58.1 Q222.9438,57.9563 222.8688,57.8813 Q222.7375,57.7313 222.4938,57.6438 Q222.25,57.5563 222,57.5563 Q221.6938,57.5563 221.4375,57.6875 Q221.1875,57.8188 220.9875,58.1188 Q220.7938,58.4188 220.7938,58.8313 L220.7938,59.2688 Q220.7938,59.7625 221.15,60.0938 Q221.5063,60.4188 222.1438,60.4188 Q222.5188,60.4188 222.7813,60.3188 Q222.9375,60.2563 223.1063,60.0813 Q223.2125,59.975 223.2688,59.9438 Q223.3313,59.9125 223.4125,59.9125 Q223.5438,59.9125 223.6438,60.0188 Q223.75,60.1188 223.75,60.2563 Q223.75,60.3938 223.6125,60.5563 Q223.4125,60.7875 223.0938,60.9188 Q222.6625,61.1 222.1438,61.1 Q221.5375,61.1 221.0563,60.85 Q220.6625,60.65 220.3875,60.225 Q220.1125,59.7938 220.1125,59.2813 L220.1125,58.8188 Q220.1125,58.2875 220.3563,57.8313 Q220.6063,57.3688 221.0438,57.125 Q221.4813,56.875 221.975,56.875 Q222.2688,56.875 222.525,56.9438 Q222.7875,57.0063 223.0063,57.15 Z " fill="#000000"/><text fill="#000000" font-family="sans-serif" font-size="5.6" lengthAdjust="spacing" textLength="31.6" x="230.1" y="60.7414">Repositories</text><line style="stroke:#181818;stroke-width:0.20000000000000004;" x1="197.2" x2="281.6" y1="65.2" y2="65.2"/><line style="stroke:#181818;stroke-width:0.20000000000000004;" x1="197.2" x2="281.6" y1="68.4" y2="68.4"/><text fill="#000000" font-family="sans-serif" font-size="5.6" lengthAdjust="spacing" textLength="37.6" x="199.2" y="75.0695">-Repositories()</text><text fill="#000000" font-family="sans-serif" font-size="5.6" lengthAdjust="spacing" textLength="72.8" x="199.2" y="81.3258">+getInstance() : Repositories</text><text fill="#000000" font-family="sans-serif" font-size="5.6" lengthAdjust="spacing" textLength="58.8" x="199.2" y="87.582">+getOwnerRepository()</text><text fill="#000000" font-family="sans-serif" font-size="5.6" lengthAdjust="spacing" textLength="67.2" x="199.2" y="93.8383">+getEmployeeRepository()</text><text fill="#000000" font-family="sans-serif" font-size="5.6" lengthAdjust="spacing" textLength="76.8" x="199.2" y="100.0945">+getPropertyTypeRepository()</text><text fill="#000000" font-family="sans-serif" font-size="5.6" lengthAdjust="spacing" textLength="64" x="199.2" y="106.3508">+getPropertyRepository()</text><text fill="#000000" font-family="sans-serif" font-size="5.6" lengthAdjust="spacing" textLength="80.4" x="199.2" y="112.607">+getAnnouncementRepository()</text><text fill="#000000" font-family="sans-serif" font-size="5.6" lengthAdjust="spacing" textLength="63.6" x="199.2" y="118.8633">+getRequestRepository()</text></g><!--class CreateAnnouncementController--><g id="elem_CreateAnnouncementController"><rect fill="#F1F1F1" height="19.2" id="CreateAnnouncementController" rx="1" ry="1" style="stroke:#181818;stroke-width:0.20000000000000004;" width="92.8" x="193" y="2.8"/><ellipse cx="199" cy="9.2" fill="#ADD1B2" rx="4.4" ry="4.4" style="stroke:#181818;stroke-width:0.4000000000000001;"/><path d="M200.1063,7.55 Q200.1688,7.4625 200.2438,7.4188 Q200.3188,7.375 200.4063,7.375 Q200.5563,7.375 200.65,7.4813 Q200.7438,7.5813 200.7438,7.825 L200.7438,8.4063 Q200.7438,8.65 200.65,8.7563 Q200.5563,8.8625 200.4063,8.8625 Q200.2688,8.8625 200.1875,8.7813 Q200.1063,8.7063 200.0625,8.5 Q200.0438,8.3563 199.9688,8.2813 Q199.8375,8.1313 199.5938,8.0438 Q199.35,7.9563 199.1,7.9563 Q198.7938,7.9563 198.5375,8.0875 Q198.2875,8.2188 198.0875,8.5188 Q197.8938,8.8188 197.8938,9.2313 L197.8938,9.6688 Q197.8938,10.1625 198.25,10.4938 Q198.6063,10.8188 199.2438,10.8188 Q199.6188,10.8188 199.8813,10.7188 Q200.0375,10.6563 200.2063,10.4813 Q200.3125,10.375 200.3688,10.3438 Q200.4313,10.3125 200.5125,10.3125 Q200.6438,10.3125 200.7438,10.4188 Q200.85,10.5188 200.85,10.6563 Q200.85,10.7938 200.7125,10.9563 Q200.5125,11.1875 200.1938,11.3188 Q199.7625,11.5 199.2438,11.5 Q198.6375,11.5 198.1563,11.25 Q197.7625,11.05 197.4875,10.625 Q197.2125,10.1938 197.2125,9.6813 L197.2125,9.2188 Q197.2125,8.6875 197.4563,8.2313 Q197.7063,7.7688 198.1438,7.525 Q198.5813,7.275 199.075,7.275 Q199.3688,7.275 199.625,7.3438 Q199.8875,7.4063 200.1063,7.55 Z " fill="#000000"/><text fill="#000000" font-family="sans-serif" font-size="5.6" lengthAdjust="spacing" textLength="80" x="204.6" y="11.1414">CreateAnnouncementController</text><line style="stroke:#181818;stroke-width:0.20000000000000004;" x1="193.4" x2="285.4" y1="15.6" y2="15.6"/><line style="stroke:#181818;stroke-width:0.20000000000000004;" x1="193.4" x2="285.4" y1="18.8" y2="18.8"/></g><!--class ApproveRequestUI--><g id="elem_ApproveRequestUI"><rect fill="#F1F1F1" height="19.2" id="ApproveRequestUI" rx="1" ry="1" style="stroke:#181818;stroke-width:0.20000000000000004;" width="60" x="548.6" y="2.8"/><ellipse cx="554.6" cy="9.2" fill="#ADD1B2" rx="4.4" ry="4.4" style="stroke:#181818;stroke-width:0.4000000000000001;"/><path d="M555.7063,7.55 Q555.7688,7.4625 555.8438,7.4188 Q555.9188,7.375 556.0063,7.375 Q556.1563,7.375 556.25,7.4813 Q556.3438,7.5813 556.3438,7.825 L556.3438,8.4063 Q556.3438,8.65 556.25,8.7563 Q556.1563,8.8625 556.0063,8.8625 Q555.8688,8.8625 555.7875,8.7813 Q555.7063,8.7063 555.6625,8.5 Q555.6438,8.3563 555.5688,8.2813 Q555.4375,8.1313 555.1938,8.0438 Q554.95,7.9563 554.7,7.9563 Q554.3938,7.9563 554.1375,8.0875 Q553.8875,8.2188 553.6875,8.5188 Q553.4938,8.8188 553.4938,9.2313 L553.4938,9.6688 Q553.4938,10.1625 553.85,10.4938 Q554.2063,10.8188 554.8438,10.8188 Q555.2188,10.8188 555.4813,10.7188 Q555.6375,10.6563 555.8063,10.4813 Q555.9125,10.375 555.9688,10.3438 Q556.0313,10.3125 556.1125,10.3125 Q556.2438,10.3125 556.3438,10.4188 Q556.45,10.5188 556.45,10.6563 Q556.45,10.7938 556.3125,10.9563 Q556.1125,11.1875 555.7938,11.3188 Q555.3625,11.5 554.8438,11.5 Q554.2375,11.5 553.7563,11.25 Q553.3625,11.05 553.0875,10.625 Q552.8125,10.1938 552.8125,9.6813 L552.8125,9.2188 Q552.8125,8.6875 553.0563,8.2313 Q553.3063,7.7688 553.7438,7.525 Q554.1813,7.275 554.675,7.275 Q554.9688,7.275 555.225,7.3438 Q555.4875,7.4063 555.7063,7.55 Z " fill="#000000"/><text fill="#000000" font-family="sans-serif" font-size="5.6" lengthAdjust="spacing" textLength="47.2" x="560.2" y="11.1414">ApproveRequestUI</text><line style="stroke:#181818;stroke-width:0.20000000000000004;" x1="549" x2="608.2" y1="15.6" y2="15.6"/><line style="stroke:#181818;stroke-width:0.20000000000000004;" x1="549" x2="608.2" y1="18.8" y2="18.8"/></g><!--reverse link Person to Employee--><g id="link_Person_Employee"><path d="M41.4,129.796 C41.4,149.804 41.4,172.844 41.4,189.296 " fill="none" id="Person-backto-Employee" style="stroke:#181818;stroke-width:0.4000000000000001;"/><polygon fill="none" points="38.6,129.72,41.4,121.72,44.2,129.72,38.6,129.72" style="stroke:#181818;stroke-width:0.4000000000000001;"/></g><!--reverse link Message to SendEmail--><g id="link_Message_SendEmail"><path d="M663.428,232.612 C665.448,266.596 669.42,333.368 671.06,360.988 " fill="none" id="Message-backto-SendEmail" style="stroke:#181818;stroke-width:0.4000000000000001;stroke-dasharray:7.0,7.0;"/><polygon fill="none" points="660.624,232.684,662.944,224.532,666.216,232.352,660.624,232.684" style="stroke:#181818;stroke-width:0.4000000000000001;"/></g><!--reverse link Message to SendNotification--><g id="link_Message_SendNotification"><path d="M654.636,232.076 C641.9,265.888 616.536,333.224 606.076,360.988 " fill="none" id="Message-backto-SendNotification" style="stroke:#181818;stroke-width:0.4000000000000001;stroke-dasharray:7.0,7.0;"/><polygon fill="none" points="652.04,231.028,657.48,224.532,657.28,233.004,652.04,231.028" style="stroke:#181818;stroke-width:0.4000000000000001;"/></g><!--link Employee to Request--><g id="link_Employee_Request"><path codeLine="153" d="M51.492,233.896 C57.128,245.356 64.616,259.42 72.6,271.2 C79.096,280.78 86.348,290.488 93.824,299.912 " fill="none" id="Employee-to-Request" style="stroke:#181818;stroke-width:0.4000000000000001;"/><polygon fill="#181818" points="95.124,301.548,94.1347,297.7347,93.8788,299.9829,91.6306,299.727,95.124,301.548" style="stroke:#181818;stroke-width:0.4000000000000001;"/><text fill="#000000" font-family="sans-serif" font-size="5.2" lengthAdjust="spacing" textLength="18.4" x="86.2" y="288.3074">accepts</text></g><!--link CreateAnnouncementController to Repositories--><g id="link_CreateAnnouncementController_Repositories"><path codeLine="154" d="M239.4,22.148 C239.4,29.348 239.4,39.796 239.4,50.196 " fill="none" id="CreateAnnouncementController-to-Repositories" style="stroke:#181818;stroke-width:0.4000000000000001;stroke-dasharray:7.0,7.0;"/><polygon fill="#181818" points="239.4,52.276,241,48.676,239.4,50.276,237.8,48.676,239.4,52.276" style="stroke:#181818;stroke-width:0.4000000000000001;"/><text fill="#000000" font-family="sans-serif" font-size="5.2" lengthAdjust="spacing" textLength="28.8" x="239.8" y="39.1074">Repositories</text></g><!--link Repositories to Repositories--><g id="link_Repositories_Repositories"><path codeLine="155" d="M282.116,77.78 C293.432,78.308 302,81.38 302,87 C302,92.268 294.468,95.296 284.204,96.088 " fill="none" id="Repositories-to-Repositories" style="stroke:#181818;stroke-width:0.4000000000000001;"/><polygon fill="#181818" points="282.116,96.22,285.8056,97.6009,284.1124,96.0999,285.6134,94.4067,282.116,96.22" style="stroke:#181818;stroke-width:0.4000000000000001;"/><text fill="#000000" font-family="sans-serif" font-size="5.2" lengthAdjust="spacing" textLength="19.6" x="304.4" y="88.9074">instance</text></g><!--link Repositories to AnnouncementRepository--><g id="link_Repositories_AnnouncementRepository"><path codeLine="156" d="M268.12,121.72 C283.844,140.512 303.136,163.56 318.196,181.56 " fill="none" id="Repositories-to-AnnouncementRepository" style="stroke:#181818;stroke-width:0.4000000000000001;stroke-dasharray:7.0,7.0;"/><polygon fill="#181818" points="319.548,183.176,318.4656,179.3881,318.2648,181.6419,316.011,181.4412,319.548,183.176" style="stroke:#181818;stroke-width:0.4000000000000001;"/><text fill="#000000" font-family="sans-serif" font-size="5.2" lengthAdjust="spacing" textLength="58.8" x="282.6" y="138.7074">announcementRepository</text><text fill="#000000" font-family="sans-serif" font-size="5.2" lengthAdjust="spacing" textLength="2.8" x="314.0298" y="178.8832">1</text></g><!--link AnnouncementRepository to Announcement--><g id="link_AnnouncementRepository_Announcement"><path codeLine="157" d="M349.284,240.004 C353.184,255.084 358.856,273.788 366.2,289.6 C370.7,299.284 376.192,309.144 381.948,318.544 " fill="none" id="AnnouncementRepository-to-Announcement" style="stroke:#181818;stroke-width:0.4000000000000001;"/><polygon fill="#181818" points="383.024,320.292,382.4941,316.3883,381.9733,318.5903,379.7713,318.0695,383.024,320.292" style="stroke:#181818;stroke-width:0.4000000000000001;"/><text fill="#000000" font-family="sans-serif" font-size="5.2" lengthAdjust="spacing" textLength="34" x="366.6" y="288.3074">announcement</text><text fill="#000000" font-family="sans-serif" font-size="5.2" lengthAdjust="spacing" textLength="2.8" x="346.9648" y="247.7964">1</text><text fill="#000000" font-family="sans-serif" font-size="5.2" lengthAdjust="spacing" textLength="2" x="378.7707" y="316.1505">*</text></g><!--link Repositories to RequestsRepository--><g id="link_Repositories_RequestsRepository"><path codeLine="158" d="M217.332,121.72 C209.78,133.464 201.16,146.876 192.928,159.676 " fill="none" id="Repositories-to-RequestsRepository" style="stroke:#181818;stroke-width:0.4000000000000001;stroke-dasharray:7.0,7.0;"/><polygon fill="#181818" points="191.824,161.396,195.1166,159.233,192.9055,159.7136,192.4248,157.5025,191.824,161.396" style="stroke:#181818;stroke-width:0.4000000000000001;"/><text fill="#000000" font-family="sans-serif" font-size="5.2" lengthAdjust="spacing" textLength="42" x="209.8" y="138.7074">requestRepository</text><text fill="#000000" font-family="sans-serif" font-size="5.2" lengthAdjust="spacing" textLength="2.8" x="190.9859" y="157.1104">1</text></g><!--link RequestsRepository to Request--><g id="link_RequestsRepository_Request"><path codeLine="159" d="M159.8,261.852 C159.8,273.764 159.8,286.728 159.8,299.468 " fill="none" id="RequestsRepository-to-Request" style="stroke:#181818;stroke-width:0.4000000000000001;"/><polygon fill="#181818" points="159.8,301.512,161.4,297.912,159.8,299.512,158.2,297.912,159.8,301.512" style="stroke:#181818;stroke-width:0.4000000000000001;"/><text fill="#000000" font-family="sans-serif" font-size="5.2" lengthAdjust="spacing" textLength="17.2" x="160.2" y="288.3074">request</text><text fill="#000000" font-family="sans-serif" font-size="5.2" lengthAdjust="spacing" textLength="2.8" x="156.9147" y="269.7947">1</text><text fill="#000000" font-family="sans-serif" font-size="5.2" lengthAdjust="spacing" textLength="2" x="157.7547" y="297.2234">*</text></g><!--link ApproveRequestUI to ApproveRequestController--><g id="link_ApproveRequestUI_ApproveRequestController"><path codeLine="162" d="M578.6,22.148 C578.6,32.276 578.6,48.84 578.6,62.64 " fill="none" id="ApproveRequestUI-to-ApproveRequestController" style="stroke:#181818;stroke-width:0.4000000000000001;stroke-dasharray:7.0,7.0;"/><polygon fill="#181818" points="578.6,64.656,580.2,61.056,578.6,62.656,577,61.056,578.6,64.656" style="stroke:#181818;stroke-width:0.4000000000000001;"/></g><!--link ApproveRequestController to Agency--><g id="link_ApproveRequestController_Agency"><path codeLine="163" d="M570.692,109.248 C566.548,120.708 561.24,135.376 555.948,149.996 " fill="none" id="ApproveRequestController-to-Agency" style="stroke:#181818;stroke-width:0.4000000000000001;stroke-dasharray:7.0,7.0;"/><polygon fill="#181818" points="555.236,151.964,557.9651,149.1229,555.9163,150.0832,554.9559,148.0344,555.236,151.964" style="stroke:#181818;stroke-width:0.4000000000000001;"/></g><!--link Agency to Announcement--><g id="link_Agency_Announcement"><path codeLine="164" d="M492.356,271.296 C481.536,286.784 469.916,303.404 459.268,318.644 " fill="none" id="Agency-to-Announcement" style="stroke:#181818;stroke-width:0.4000000000000001;"/><polygon fill="#181818" points="458.108,320.304,461.4837,318.2731,459.2553,318.6658,458.8626,316.4374,458.108,320.304" style="stroke:#181818;stroke-width:0.4000000000000001;"/><text fill="#000000" font-family="sans-serif" font-size="5.2" lengthAdjust="spacing" textLength="48" x="481.4" y="288.3074">lists announcements</text></g><!--link Agency to Request--><g id="link_Agency_Request"><path codeLine="165" d="M449.092,265.312 C445.696,267.32 442.32,269.288 439,271.2 C423.836,279.928 420.668,283.692 404.2,289.6 C379.26,298.548 371.224,294.136 345.8,301.6 C305.464,313.44 261.536,330.208 226.504,344.56 " fill="none" id="Agency-to-Request" style="stroke:#181818;stroke-width:0.4000000000000001;"/><polygon fill="#181818" points="224.632,345.328,228.5699,345.4411,226.4822,344.5685,227.3547,342.4808,224.632,345.328" style="stroke:#181818;stroke-width:0.4000000000000001;"/><text fill="#000000" font-family="sans-serif" font-size="5.2" lengthAdjust="spacing" textLength="42.8" x="419.4" y="288.3074">manages requests</text></g><!--link Announcement to Commission--><g id="link_Announcement_Commission"><path codeLine="166" d="M421,427.324 C421,444.316 421,462.328 421,476.312 " fill="none" id="Announcement-Commission" style="stroke:#181818;stroke-width:0.4000000000000001;"/><polygon fill="#000000" points="423,463.3047,424.1756,459.6867,421.8244,459.6867,423,463.3047" style="stroke:#000000;stroke-width:0.4000000000000001;"/><text fill="#000000" font-family="sans-serif" font-size="5.2" lengthAdjust="spacing" textLength="38" x="426.6" y="463.1074">has commission</text></g><!--link ApproveRequestController to Message--><g id="link_ApproveRequestController_Message"><path codeLine="167" d="M596.76,109.244 C606.624,121.496 618.776,137.244 628.6,152 C638.456,166.8 648.332,184.652 654.8,196.856 " fill="none" id="ApproveRequestController-to-Message" style="stroke:#181818;stroke-width:0.4000000000000001;stroke-dasharray:7.0,7.0;"/><polygon fill="#181818" points="655.808,198.764,655.5336,194.834,654.8704,196.9974,652.707,196.3342,655.808,198.764" style="stroke:#181818;stroke-width:0.4000000000000001;"/></g><!--SRC=[bHTDRziszCvVGUHIUusBTi0kmc30itCmq2L1acvdHdgnkKYaHj99lAB_VIH5YOyIxRONMtpVttnyfv-vQ9bY3MsaaELUoGQeKGSW4TEoyfdjuDuSQw0AIiF4hiO4Uiyg-Sh5ZZwnMcDCpGMOOmkqbVNH7N8ugOma257MJEkLCOe_7WniIodk-Nz0Fo8I8IlGqDBVFXBYoUbA27aG9JGWp1sqKdCZrP5-9PGkA4D8NT2LKkpucMlpE-PQEjA5_NbFMLLXp0pp5ucgUK5V9AyyrmkhUSKC_3ZhevGrCE6vTs0mLi_cvmoTqF_DpNwxcMqt1ULUDaPwXd8FvJE6NhrPoJgnCBBtfdth0tpLjBKy0b1uCo0gJMz1QIc-4W8DutLX2UmV4Qo1WjxRv8aTyMdWKaJ0Neg8_XP4Tv9ihb9kmzwk3yqZg07YDQsgIe7MaGngy797nAod2mn4MOyAUcT_IMlLjhRkranL1Rr59-8ZUstjcCsZywksLV85xk3V0sYpbi9OOJMeK5-gBpWELjyTEiMQib8_ozqEgYyQb4jkCDFXj5KUPEjP26U7JeeWa6oCx4hWdqErWribMr3c692pDfn3AYyfAqjeRS-MGsGlQIcRXcjjK_DWEp07_ulL1ukevE6nXakhIXl-n4lcqlcdZQOT2CZ68Q74gWJrn4gWWSf5o1ghRSq4I1BO7OYoQrFVgFxeJ1-Y4y7Nk3WwHBOWEfGT6uQLvk54TGJ1unhnjlhU2fPOOpkOHh2ncVCnNwYV4QU7Jdr1t5V87yoVm7DE8ndhhEDOsWcAyn73FauDx47ZWFOaHdPIajoZmHCQoPdWopQqbIzfrr7-OpBBGurtyA7CDtO6epmlK5KNT3ryRy3OEAOTsZVHd0I_Ui3Ob7bk1eTgwGAImdD3TX2HM8v4fF2yWuEKw5YKW61dOz0n93dgKdHlkzRN7kLs_7SNqtSQEp9UopWoVfO_cZXKHcvYZL1XQ6tyq8g9HOvDWkLPSWYd1bThI7osKFkPQw-IyEN1ybMu_kckDrpHamfrGy4KmnthOKOneMq_-fGzn0CMX1fWgE4RfpNMG7TCJ8cLvzIYWlF7aIq3SUzQf1yWK__deuvAAni3Co4Pc5qERfwGxr7457KgNcDJS9T6K1hGamtHtzAJ5REs5xGbxV45nJVsCbq3Kj9PxevV9XlboIaqMI438co3ej_cuW3jrXi_sM-Ui0cyNnFTBS25FfVSLArVB8Eei5EEbf0H0rftdC-pCVgLjODbubDOOyIllQXXuOx-EZ5_7Fsa-lx-rCMsijVSsSXcrEJ8S6ZjxVS3gK8Z9IwAeOmmg2jJgtqhj9_xipcTR9Vl-uwF5JdmzIsSGVMfT6rq1fr1vHzQ0pgucs2imyFhOR5O3gEq29Us9ci5euSJsh4_V5YceIhe1JvVa0JRQKZ8UGXWIkZaNdowEFLqB99L8oB82Nedokc- -2KLEHAKjo4pLuf-o2FL6JAiDWOsi192qgVBbwrNUUezGqu-T3oNNrr9sDcTqf6VVWhgzBcDoQDzj672NZIwDrGdKRN4U0Cew9BkcKON_Naxmpf1_WS0]--></g></svg>