<?xml version="1.0" encoding="us-ascii" standalone="no"?><svg xmlns="http://www.w3.org/2000/svg" xmlns:xlink="http://www.w3.org/1999/xlink" contentStyleType="text/css" height="1937px" preserveAspectRatio="none" style="width:2600px;height:1937px;background:#FFFFFF;" version="1.1" viewBox="0 0 2600 1937" width="2600px" zoomAndPan="magnify"><defs/><g><rect fill="#FFFFFF" height="1757.1719" style="stroke:#181818;stroke-width:1.0;" width="10" x="44.5" y="90.6406"/><rect fill="#FFFFFF" height="589.7578" style="stroke:#181818;stroke-width:1.0;" width="10" x="387.5" y="111.1641"/><rect fill="#FFFFFF" height="28.5234" style="stroke:#181818;stroke-width:1.0;" width="10" x="387.5" y="729.4453"/><rect fill="#FFFFFF" height="82.0469" style="stroke:#181818;stroke-width:1.0;" width="10" x="387.5" y="786.4922"/><rect fill="#FFFFFF" height="42.8125" style="stroke:#181818;stroke-width:1.0;" width="10" x="387.5" y="897.0625"/><rect fill="#FFFFFF" height="28.5234" style="stroke:#181818;stroke-width:1.0;" width="10" x="387.5" y="968.3984"/><rect fill="#FFFFFF" height="807.3672" style="stroke:#181818;stroke-width:1.0;" width="10" x="387.5" y="1025.4453"/><rect fill="#FFFFFF" height="71.4531" style="stroke:#181818;stroke-width:1.0;" width="10" x="968.5" y="180.3281"/><rect fill="#FFFFFF" height="368.5703" style="stroke:#181818;stroke-width:1.0;" width="10" x="968.5" y="303.8281"/><rect fill="#FFFFFF" height="82.4531" style="stroke:#181818;stroke-width:1.0;" width="10" x="973.5" y="554.4219"/><rect fill="#FFFFFF" height="743.3203" style="stroke:#181818;stroke-width:1.0;" width="10" x="968.5" y="1060.9688"/><rect fill="#FFFFFF" height="38.7852" style="stroke:#181818;stroke-width:1.0;" width="10" x="1220.5" y="1170.0625"/><rect fill="#FFFFFF" height="71.4531" style="stroke:#181818;stroke-width:1.0;" width="10" x="1418.5" y="446.4453"/><rect fill="#FFFFFF" height="28.5234" style="stroke:#181818;stroke-width:1.0;" width="10" x="1418.5" y="1089.4922"/><rect fill="#FFFFFF" height="366.75" style="stroke:#181818;stroke-width:1.0;" width="10" x="1418.5" y="1402.0156"/><rect fill="#FFFFFF" height="28.5234" style="stroke:#181818;stroke-width:1.0;" width="10" x="1511.5" y="332.3516"/><rect fill="#FFFFFF" height="28.5234" style="stroke:#181818;stroke-width:1.0;" width="10" x="1511.5" y="389.3984"/><rect fill="#FFFFFF" height="111.5703" style="stroke:#181818;stroke-width:1.0;" width="10" x="1639.5" y="1247.6328"/><rect fill="#FFFFFF" height="39.5234" style="stroke:#181818;stroke-width:1.0;" width="10" x="1644.5" y="1284.1563"/><rect fill="#FFFFFF" height="70.0469" style="stroke:#181818;stroke-width:1.0;" width="10" x="1639.5" y="1670.1953"/><rect fill="#FFFFFF" height="33.5234" style="stroke:#181818;stroke-width:1.0;" width="10" x="1644.5" y="1706.7188"/><rect fill="#FFFFFF" height="102.5625" style="stroke:#181818;stroke-width:1.0;" width="10" x="1819" y="1440.5391"/><rect fill="#FFFFFF" height="70.0469" style="stroke:#181818;stroke-width:1.0;" width="10" x="2309" y="1571.625"/><rect fill="#FFFFFF" height="33.5234" style="stroke:#181818;stroke-width:1.0;" width="10" x="2314" y="1608.1484"/><rect fill="none" height="1574.0313" style="stroke:#000000;stroke-width:1.5;" width="2584" x="10" y="266.7813"/><rect fill="none" height="201.9531" style="stroke:#000000;stroke-width:1.5;" width="448.5" x="20" y="831.4922"/><rect fill="none" height="643.75" style="stroke:#000000;stroke-width:1.5;" width="1711.5" x="872.5" y="1133.0156"/><line style="stroke:#181818;stroke-width:0.5;stroke-dasharray:5.0,5.0;" x1="49" x2="49" y1="80.6406" y2="1857.8125"/><line style="stroke:#181818;stroke-width:0.5;stroke-dasharray:5.0,5.0;" x1="392.5" x2="392.5" y1="80.6406" y2="1857.8125"/><line style="stroke:#181818;stroke-width:0.5;stroke-dasharray:5.0,5.0;" x1="973.5" x2="973.5" y1="149.4844" y2="1857.8125"/><line style="stroke:#181818;stroke-width:0.5;stroke-dasharray:5.0,5.0;" x1="1225" x2="1225" y1="80.6406" y2="1857.8125"/><line style="stroke:#181818;stroke-width:0.5;stroke-dasharray:5.0,5.0;" x1="1423" x2="1423" y1="80.6406" y2="1857.8125"/><line style="stroke:#181818;stroke-width:0.5;stroke-dasharray:5.0,5.0;" x1="1516" x2="1516" y1="80.6406" y2="1857.8125"/><line style="stroke:#181818;stroke-width:0.5;stroke-dasharray:5.0,5.0;" x1="1644" x2="1644" y1="80.6406" y2="1857.8125"/><line style="stroke:#181818;stroke-width:0.5;stroke-dasharray:5.0,5.0;" x1="1823.5" x2="1823.5" y1="1448.1563" y2="1857.8125"/><line style="stroke:#181818;stroke-width:0.5;stroke-dasharray:5.0,5.0;" x1="2167" x2="2167" y1="1504.4375" y2="1857.8125"/><line style="stroke:#181818;stroke-width:0.5;stroke-dasharray:5.0,5.0;" x1="2314" x2="2314" y1="80.6406" y2="1857.8125"/><text fill="#000000" font-family="sans-serif" font-size="14" lengthAdjust="spacing" textLength="33" x="30" y="77.6738">Actor</text><ellipse cx="49.5" cy="13.5" fill="#E3E3E3" rx="8" ry="8" style="stroke:#181818;stroke-width:0.5;"/><path d="M49.5,21.5 L49.5,48.5 M36.5,29.5 L62.5,29.5 M49.5,48.5 L36.5,63.5 M49.5,48.5 L62.5,63.5 " fill="none" style="stroke:#181818;stroke-width:0.5;"/><text fill="#000000" font-family="sans-serif" font-size="14" lengthAdjust="spacing" textLength="33" x="30" y="1869.4863">Actor</text><ellipse cx="49.5" cy="1880.9531" fill="#E3E3E3" rx="8" ry="8" style="stroke:#181818;stroke-width:0.5;"/><path d="M49.5,1888.9531 L49.5,1915.9531 M36.5,1896.9531 L62.5,1896.9531 M49.5,1915.9531 L36.5,1930.9531 M49.5,1915.9531 L62.5,1930.9531 " fill="none" style="stroke:#181818;stroke-width:0.5;"/><rect fill="#E3E3E3" height="29.6406" rx="2.5" ry="2.5" style="stroke:#181818;stroke-width:0.5;" width="132" x="326.5" y="50"/><text fill="#000000" font-family="sans-serif" font-size="14" lengthAdjust="spacing" textLength="118" x="333.5" y="69.6738">ApproveRequestUI</text><rect fill="#E3E3E3" height="29.6406" rx="2.5" ry="2.5" style="stroke:#181818;stroke-width:0.5;" width="132" x="326.5" y="1856.8125"/><text fill="#000000" font-family="sans-serif" font-size="14" lengthAdjust="spacing" textLength="118" x="333.5" y="1876.4863">ApproveRequestUI</text><rect fill="#E3E3E3" height="29.6406" rx="2.5" ry="2.5" style="stroke:#181818;stroke-width:0.5;" width="182" x="882.5" y="1856.8125"/><text fill="#000000" font-family="sans-serif" font-size="14" lengthAdjust="spacing" textLength="168" x="889.5" y="1876.4863">ApproveRequestController</text><rect fill="#E3E3E3" height="45.2813" rx="2.5" ry="2.5" style="stroke:#181818;stroke-width:0.5;" width="85" x="1183" y="34.3594"/><text fill="#000000" font-family="sans-serif" font-size="14" lengthAdjust="spacing" textLength="71" x="1190" y="54.0332">&#171;interface&#187;</text><text fill="#000000" font-family="sans-serif" font-size="14" lengthAdjust="spacing" textLength="61" x="1195" y="69.6738">:Message</text><rect fill="#E3E3E3" height="45.2813" rx="2.5" ry="2.5" style="stroke:#181818;stroke-width:0.5;" width="85" x="1183" y="1856.8125"/><text fill="#000000" font-family="sans-serif" font-size="14" lengthAdjust="spacing" textLength="71" x="1190" y="1876.4863">&#171;interface&#187;</text><text fill="#000000" font-family="sans-serif" font-size="14" lengthAdjust="spacing" textLength="61" x="1195" y="1892.127">:Message</text><rect fill="#E3E3E3" height="45.2813" rx="2.5" ry="2.5" style="stroke:#181818;stroke-width:0.5;" width="69" x="1389" y="34.3594"/><text fill="#000000" font-family="sans-serif" font-size="14" lengthAdjust="spacing" textLength="46" x="1400.5" y="54.0332">agency</text><text fill="#000000" font-family="sans-serif" font-size="14" lengthAdjust="spacing" textLength="55" x="1396" y="69.6738">: Agency</text><rect fill="#E3E3E3" height="45.2813" rx="2.5" ry="2.5" style="stroke:#181818;stroke-width:0.5;" width="69" x="1389" y="1856.8125"/><text fill="#000000" font-family="sans-serif" font-size="14" lengthAdjust="spacing" textLength="46" x="1400.5" y="1876.4863">agency</text><text fill="#000000" font-family="sans-serif" font-size="14" lengthAdjust="spacing" textLength="55" x="1396" y="1892.127">: Agency</text><rect fill="#E3E3E3" height="45.2813" rx="2.5" ry="2.5" style="stroke:#181818;stroke-width:0.5;" width="97" x="1468" y="34.3594"/><text fill="#000000" font-family="sans-serif" font-size="14" lengthAdjust="spacing" textLength="74" x="1479.5" y="54.0332">repositories</text><text fill="#000000" font-family="sans-serif" font-size="14" lengthAdjust="spacing" textLength="83" x="1475" y="69.6738">:Repositories</text><rect fill="#E3E3E3" height="45.2813" rx="2.5" ry="2.5" style="stroke:#181818;stroke-width:0.5;" width="97" x="1468" y="1856.8125"/><text fill="#000000" font-family="sans-serif" font-size="14" lengthAdjust="spacing" textLength="74" x="1479.5" y="1876.4863">repositories</text><text fill="#000000" font-family="sans-serif" font-size="14" lengthAdjust="spacing" textLength="83" x="1475" y="1892.127">:Repositories</text><rect fill="#E3E3E3" height="45.2813" rx="2.5" ry="2.5" style="stroke:#181818;stroke-width:0.5;" width="139" x="1575" y="34.3594"/><text fill="#000000" font-family="sans-serif" font-size="14" lengthAdjust="spacing" textLength="116" x="1586.5" y="54.0332">requestRepository</text><text fill="#000000" font-family="sans-serif" font-size="14" lengthAdjust="spacing" textLength="125" x="1582" y="69.6738">:RequestRepository</text><rect fill="#E3E3E3" height="45.2813" rx="2.5" ry="2.5" style="stroke:#181818;stroke-width:0.5;" width="139" x="1575" y="1856.8125"/><text fill="#000000" font-family="sans-serif" font-size="14" lengthAdjust="spacing" textLength="116" x="1586.5" y="1876.4863">requestRepository</text><text fill="#000000" font-family="sans-serif" font-size="14" lengthAdjust="spacing" textLength="125" x="1582" y="1892.127">:RequestRepository</text><rect fill="#E3E3E3" height="45.2813" rx="2.5" ry="2.5" style="stroke:#181818;stroke-width:0.5;" width="113" x="1767.5" y="1856.8125"/><text fill="#000000" font-family="sans-serif" font-size="14" lengthAdjust="spacing" textLength="94" x="1777" y="1876.4863">announcement</text><text fill="#000000" font-family="sans-serif" font-size="14" lengthAdjust="spacing" textLength="99" x="1774.5" y="1892.127">:Announcement</text><rect fill="#E3E3E3" height="45.2813" rx="2.5" ry="2.5" style="stroke:#181818;stroke-width:0.5;" width="94" x="2120" y="1856.8125"/><text fill="#000000" font-family="sans-serif" font-size="14" lengthAdjust="spacing" textLength="73" x="2130.5" y="1876.4863">commission</text><text fill="#000000" font-family="sans-serif" font-size="14" lengthAdjust="spacing" textLength="80" x="2127" y="1892.127">:Commission</text><rect fill="#E3E3E3" height="45.2813" rx="2.5" ry="2.5" style="stroke:#181818;stroke-width:0.5;" width="180" x="2224" y="34.3594"/><text fill="#000000" font-family="sans-serif" font-size="14" lengthAdjust="spacing" textLength="162" x="2233" y="54.0332">announcementRepository</text><text fill="#000000" font-family="sans-serif" font-size="14" lengthAdjust="spacing" textLength="166" x="2231" y="69.6738">:announcementRepository</text><rect fill="#E3E3E3" height="45.2813" rx="2.5" ry="2.5" style="stroke:#181818;stroke-width:0.5;" width="180" x="2224" y="1856.8125"/><text fill="#000000" font-family="sans-serif" font-size="14" lengthAdjust="spacing" textLength="162" x="2233" y="1876.4863">announcementRepository</text><text fill="#000000" font-family="sans-serif" font-size="14" lengthAdjust="spacing" textLength="166" x="2231" y="1892.127">:announcementRepository</text><rect fill="#FFFFFF" height="1757.1719" style="stroke:#181818;stroke-width:1.0;" width="10" x="44.5" y="90.6406"/><rect fill="#FFFFFF" height="589.7578" style="stroke:#181818;stroke-width:1.0;" width="10" x="387.5" y="111.1641"/><rect fill="#FFFFFF" height="28.5234" style="stroke:#181818;stroke-width:1.0;" width="10" x="387.5" y="729.4453"/><rect fill="#FFFFFF" height="82.0469" style="stroke:#181818;stroke-width:1.0;" width="10" x="387.5" y="786.4922"/><rect fill="#FFFFFF" height="42.8125" style="stroke:#181818;stroke-width:1.0;" width="10" x="387.5" y="897.0625"/><rect fill="#FFFFFF" height="28.5234" style="stroke:#181818;stroke-width:1.0;" width="10" x="387.5" y="968.3984"/><rect fill="#FFFFFF" height="807.3672" style="stroke:#181818;stroke-width:1.0;" width="10" x="387.5" y="1025.4453"/><rect fill="#FFFFFF" height="71.4531" style="stroke:#181818;stroke-width:1.0;" width="10" x="968.5" y="180.3281"/><rect fill="#FFFFFF" height="368.5703" style="stroke:#181818;stroke-width:1.0;" width="10" x="968.5" y="303.8281"/><rect fill="#FFFFFF" height="82.4531" style="stroke:#181818;stroke-width:1.0;" width="10" x="973.5" y="554.4219"/><rect fill="#FFFFFF" height="743.3203" style="stroke:#181818;stroke-width:1.0;" width="10" x="968.5" y="1060.9688"/><rect fill="#FFFFFF" height="38.7852" style="stroke:#181818;stroke-width:1.0;" width="10" x="1220.5" y="1170.0625"/><rect fill="#FFFFFF" height="71.4531" style="stroke:#181818;stroke-width:1.0;" width="10" x="1418.5" y="446.4453"/><rect fill="#FFFFFF" height="28.5234" style="stroke:#181818;stroke-width:1.0;" width="10" x="1418.5" y="1089.4922"/><rect fill="#FFFFFF" height="366.75" style="stroke:#181818;stroke-width:1.0;" width="10" x="1418.5" y="1402.0156"/><rect fill="#FFFFFF" height="28.5234" style="stroke:#181818;stroke-width:1.0;" width="10" x="1511.5" y="332.3516"/><rect fill="#FFFFFF" height="28.5234" style="stroke:#181818;stroke-width:1.0;" width="10" x="1511.5" y="389.3984"/><rect fill="#FFFFFF" height="111.5703" style="stroke:#181818;stroke-width:1.0;" width="10" x="1639.5" y="1247.6328"/><rect fill="#FFFFFF" height="39.5234" style="stroke:#181818;stroke-width:1.0;" width="10" x="1644.5" y="1284.1563"/><rect fill="#FFFFFF" height="70.0469" style="stroke:#181818;stroke-width:1.0;" width="10" x="1639.5" y="1670.1953"/><rect fill="#FFFFFF" height="33.5234" style="stroke:#181818;stroke-width:1.0;" width="10" x="1644.5" y="1706.7188"/><rect fill="#FFFFFF" height="102.5625" style="stroke:#181818;stroke-width:1.0;" width="10" x="1819" y="1440.5391"/><rect fill="#FFFFFF" height="70.0469" style="stroke:#181818;stroke-width:1.0;" width="10" x="2309" y="1571.625"/><rect fill="#FFFFFF" height="33.5234" style="stroke:#181818;stroke-width:1.0;" width="10" x="2314" y="1608.1484"/><polygon fill="#181818" points="375.5,107.1641,385.5,111.1641,375.5,115.1641,379.5,111.1641" style="stroke:#181818;stroke-width:1.0;"/><line style="stroke:#181818;stroke-width:1.0;" x1="54.5" x2="381.5" y1="111.1641" y2="111.1641"/><text fill="#000000" font-family="sans-serif" font-size="13" font-weight="bold" lengthAdjust="spacing" textLength="7" x="61.5" y="106.4092">1</text><text fill="#000000" font-family="sans-serif" font-size="13" lengthAdjust="spacing" textLength="279" x="72.5" y="106.4092">asks to receive the list of announcement agency</text><polygon fill="#181818" points="870.5,135.6875,880.5,139.6875,870.5,143.6875,874.5,139.6875" style="stroke:#181818;stroke-width:1.0;"/><line style="stroke:#181818;stroke-width:1.0;" x1="397.5" x2="876.5" y1="139.6875" y2="139.6875"/><text fill="#000000" font-family="sans-serif" font-size="13" font-weight="bold" lengthAdjust="spacing" textLength="7" x="404.5" y="134.9326">2</text><text fill="#000000" font-family="sans-serif" font-size="13" lengthAdjust="spacing" textLength="44" x="415.5" y="134.9326">create()</text><rect fill="#E3E3E3" height="29.6406" rx="2.5" ry="2.5" style="stroke:#181818;stroke-width:0.5;" width="182" x="882.5" y="119.1641"/><text fill="#000000" font-family="sans-serif" font-size="14" lengthAdjust="spacing" textLength="168" x="889.5" y="138.8379">ApproveRequestController</text><polygon fill="#181818" points="956.5,176.3281,966.5,180.3281,956.5,184.3281,960.5,180.3281" style="stroke:#181818;stroke-width:1.0;"/><line style="stroke:#181818;stroke-width:1.0;" x1="397.5" x2="962.5" y1="180.3281" y2="180.3281"/><text fill="#000000" font-family="sans-serif" font-size="13" font-weight="bold" lengthAdjust="spacing" textLength="7" x="404.5" y="175.5732">3</text><text fill="#000000" font-family="sans-serif" font-size="13" lengthAdjust="spacing" textLength="95" x="415.5" y="175.5732">getLoggedUser()</text><rect fill="none" height="37.9297" style="stroke:#000000;stroke-width:1.5;" width="188" x="879.5" y="188.3281"/><path d="M879.5,188.3281 L941.5,188.3281 L941.5,194.3281 L931.5,204.3281 L879.5,204.3281 L879.5,188.3281 " fill="#EEEEEE" style="stroke:#000000;stroke-width:2.0;"/><text fill="#000000" font-family="sans-serif" font-size="13" font-weight="bold" lengthAdjust="spacing" textLength="17" x="892.5" y="202.0967">ref</text><text fill="#000000" font-family="sans-serif" font-size="12" lengthAdjust="spacing" textLength="129" x="909" y="219.1914">Get Logged User Email</text><polygon fill="#181818" points="408.5,247.7813,398.5,251.7813,408.5,255.7813,404.5,251.7813" style="stroke:#181818;stroke-width:1.0;"/><line style="stroke:#181818;stroke-width:1.0;stroke-dasharray:2.0,2.0;" x1="402.5" x2="972.5" y1="251.7813" y2="251.7813"/><text fill="#000000" font-family="sans-serif" font-size="13" font-weight="bold" lengthAdjust="spacing" textLength="7" x="414.5" y="247.0264">4</text><text fill="#000000" font-family="sans-serif" font-size="13" lengthAdjust="spacing" textLength="31" x="425.5" y="247.0264">email</text><path d="M10,266.7813 L83,266.7813 L83,273.3047 L73,283.3047 L10,283.3047 L10,266.7813 " fill="#EEEEEE" style="stroke:#000000;stroke-width:1.5;"/><rect fill="none" height="1574.0313" style="stroke:#000000;stroke-width:1.5;" width="2584" x="10" y="266.7813"/><text fill="#000000" font-family="sans-serif" font-size="13" font-weight="bold" lengthAdjust="spacing" textLength="28" x="25" y="279.5498">loop</text><text fill="#000000" font-family="sans-serif" font-size="11" font-weight="bold" lengthAdjust="spacing" textLength="187" x="98" y="278.7393">[while input does not equal to "0"]</text><polygon fill="#181818" points="956.5,299.8281,966.5,303.8281,956.5,307.8281,960.5,303.8281" style="stroke:#181818;stroke-width:1.0;"/><line style="stroke:#181818;stroke-width:1.0;" x1="397.5" x2="962.5" y1="303.8281" y2="303.8281"/><text fill="#000000" font-family="sans-serif" font-size="13" font-weight="bold" lengthAdjust="spacing" textLength="7" x="404.5" y="299.0732">5</text><text fill="#000000" font-family="sans-serif" font-size="13" lengthAdjust="spacing" textLength="116" x="415.5" y="299.0732">sortRequests(email)</text><polygon fill="#181818" points="1499.5,328.3516,1509.5,332.3516,1499.5,336.3516,1503.5,332.3516" style="stroke:#181818;stroke-width:1.0;"/><line style="stroke:#181818;stroke-width:1.0;" x1="978.5" x2="1505.5" y1="332.3516" y2="332.3516"/><text fill="#000000" font-family="sans-serif" font-size="13" font-weight="bold" lengthAdjust="spacing" textLength="7" x="985.5" y="327.5967">6</text><text fill="#000000" font-family="sans-serif" font-size="13" lengthAdjust="spacing" textLength="75" x="996.5" y="327.5967">getInstance()</text><polygon fill="#181818" points="989.5,356.875,979.5,360.875,989.5,364.875,985.5,360.875" style="stroke:#181818;stroke-width:1.0;"/><line style="stroke:#181818;stroke-width:1.0;stroke-dasharray:2.0,2.0;" x1="983.5" x2="1515.5" y1="360.875" y2="360.875"/><text fill="#000000" font-family="sans-serif" font-size="13" font-weight="bold" lengthAdjust="spacing" textLength="7" x="995.5" y="356.1201">7</text><text fill="#000000" font-family="sans-serif" font-size="13" lengthAdjust="spacing" textLength="67" x="1006.5" y="356.1201">repositories</text><polygon fill="#181818" points="1499.5,385.3984,1509.5,389.3984,1499.5,393.3984,1503.5,389.3984" style="stroke:#181818;stroke-width:1.0;"/><line style="stroke:#181818;stroke-width:1.0;" x1="978.5" x2="1505.5" y1="389.3984" y2="389.3984"/><text fill="#000000" font-family="sans-serif" font-size="13" font-weight="bold" lengthAdjust="spacing" textLength="7" x="985.5" y="384.6436">8</text><text fill="#000000" font-family="sans-serif" font-size="13" lengthAdjust="spacing" textLength="136" x="996.5" y="384.6436">getRequestRepository()</text><polygon fill="#181818" points="989.5,413.9219,979.5,417.9219,989.5,421.9219,985.5,417.9219" style="stroke:#181818;stroke-width:1.0;"/><line style="stroke:#181818;stroke-width:1.0;stroke-dasharray:2.0,2.0;" x1="983.5" x2="1515.5" y1="417.9219" y2="417.9219"/><text fill="#000000" font-family="sans-serif" font-size="13" font-weight="bold" lengthAdjust="spacing" textLength="7" x="995.5" y="413.167">9</text><text fill="#000000" font-family="sans-serif" font-size="13" lengthAdjust="spacing" textLength="113" x="1006.5" y="413.167">requestRepository()</text><polygon fill="#181818" points="1406.5,442.4453,1416.5,446.4453,1406.5,450.4453,1410.5,446.4453" style="stroke:#181818;stroke-width:1.0;"/><line style="stroke:#181818;stroke-width:1.0;" x1="978.5" x2="1412.5" y1="446.4453" y2="446.4453"/><text fill="#000000" font-family="sans-serif" font-size="13" font-weight="bold" lengthAdjust="spacing" textLength="14" x="985.5" y="441.6904">10</text><text fill="#000000" font-family="sans-serif" font-size="13" lengthAdjust="spacing" textLength="109" x="1003.5" y="441.6904">sortRequest(email)</text><rect fill="none" height="37.9297" style="stroke:#000000;stroke-width:1.5;" width="103" x="1386" y="454.4453"/><path d="M1386,454.4453 L1448,454.4453 L1448,460.4453 L1438,470.4453 L1386,470.4453 L1386,454.4453 " fill="#EEEEEE" style="stroke:#000000;stroke-width:2.0;"/><text fill="#000000" font-family="sans-serif" font-size="13" font-weight="bold" lengthAdjust="spacing" textLength="17" x="1399" y="468.2139">ref</text><text fill="#000000" font-family="sans-serif" font-size="12" lengthAdjust="spacing" textLength="95" x="1390" y="485.3086">Sort Request List</text><polygon fill="#181818" points="989.5,513.8984,979.5,517.8984,989.5,521.8984,985.5,517.8984" style="stroke:#181818;stroke-width:1.0;"/><line style="stroke:#181818;stroke-width:1.0;stroke-dasharray:2.0,2.0;" x1="983.5" x2="1422.5" y1="517.8984" y2="517.8984"/><text fill="#000000" font-family="sans-serif" font-size="13" font-weight="bold" lengthAdjust="spacing" textLength="14" x="995.5" y="513.1436">11</text><text fill="#000000" font-family="sans-serif" font-size="13" lengthAdjust="spacing" textLength="64" x="1013.5" y="513.1436">requestList</text><line style="stroke:#181818;stroke-width:1.0;" x1="978.5" x2="1025.5" y1="541.4219" y2="541.4219"/><line style="stroke:#181818;stroke-width:1.0;" x1="1025.5" x2="1025.5" y1="541.4219" y2="554.4219"/><line style="stroke:#181818;stroke-width:1.0;" x1="984.5" x2="1025.5" y1="554.4219" y2="554.4219"/><polygon fill="#181818" points="994.5,550.4219,984.5,554.4219,994.5,558.4219,990.5,554.4219" style="stroke:#181818;stroke-width:1.0;"/><text fill="#000000" font-family="sans-serif" font-size="13" font-weight="bold" lengthAdjust="spacing" textLength="14" x="990.5" y="536.667">12</text><text fill="#000000" font-family="sans-serif" font-size="13" lengthAdjust="spacing" textLength="103" x="1008.5" y="536.667">toDto(requestList)</text><rect fill="none" height="37.9297" style="stroke:#000000;stroke-width:1.5;" width="188" x="879.5" y="567.4219"/><path d="M879.5,567.4219 L941.5,567.4219 L941.5,573.4219 L931.5,583.4219 L879.5,583.4219 L879.5,567.4219 " fill="#EEEEEE" style="stroke:#000000;stroke-width:2.0;"/><text fill="#000000" font-family="sans-serif" font-size="13" font-weight="bold" lengthAdjust="spacing" textLength="17" x="892.5" y="581.1904">ref</text><text fill="#000000" font-family="sans-serif" font-size="12" lengthAdjust="spacing" textLength="109" x="919" y="598.2852">Request List To Dto</text><line style="stroke:#181818;stroke-width:1.0;stroke-dasharray:2.0,2.0;" x1="983.5" x2="1025.5" y1="635.875" y2="635.875"/><line style="stroke:#181818;stroke-width:1.0;stroke-dasharray:2.0,2.0;" x1="1025.5" x2="1025.5" y1="635.875" y2="648.875"/><line style="stroke:#181818;stroke-width:1.0;stroke-dasharray:2.0,2.0;" x1="978.5" x2="1025.5" y1="648.875" y2="648.875"/><polygon fill="#181818" points="988.5,644.875,978.5,648.875,988.5,652.875,984.5,648.875" style="stroke:#181818;stroke-width:1.0;"/><text fill="#000000" font-family="sans-serif" font-size="13" font-weight="bold" lengthAdjust="spacing" textLength="14" x="990.5" y="631.1201">13</text><text fill="#000000" font-family="sans-serif" font-size="13" lengthAdjust="spacing" textLength="91" x="1008.5" y="631.1201">requestsDtoList</text><polygon fill="#181818" points="408.5,668.3984,398.5,672.3984,408.5,676.3984,404.5,672.3984" style="stroke:#181818;stroke-width:1.0;"/><line style="stroke:#181818;stroke-width:1.0;stroke-dasharray:2.0,2.0;" x1="402.5" x2="972.5" y1="672.3984" y2="672.3984"/><text fill="#000000" font-family="sans-serif" font-size="13" font-weight="bold" lengthAdjust="spacing" textLength="14" x="414.5" y="667.6436">14</text><text fill="#000000" font-family="sans-serif" font-size="13" lengthAdjust="spacing" textLength="91" x="432.5" y="667.6436">requestsDtoList</text><polygon fill="#181818" points="65.5,696.9219,55.5,700.9219,65.5,704.9219,61.5,700.9219" style="stroke:#181818;stroke-width:1.0;"/><line style="stroke:#181818;stroke-width:1.0;stroke-dasharray:2.0,2.0;" x1="59.5" x2="391.5" y1="700.9219" y2="700.9219"/><text fill="#000000" font-family="sans-serif" font-size="13" font-weight="bold" lengthAdjust="spacing" textLength="14" x="71.5" y="696.167">15</text><text fill="#000000" font-family="sans-serif" font-size="13" lengthAdjust="spacing" textLength="291" x="89.5" y="696.167">shows the list of properties and asks to select one</text><polygon fill="#181818" points="375.5,725.4453,385.5,729.4453,375.5,733.4453,379.5,729.4453" style="stroke:#181818;stroke-width:1.0;"/><line style="stroke:#181818;stroke-width:1.0;" x1="54.5" x2="381.5" y1="729.4453" y2="729.4453"/><text fill="#000000" font-family="sans-serif" font-size="13" font-weight="bold" lengthAdjust="spacing" textLength="14" x="61.5" y="724.6904">16</text><text fill="#000000" font-family="sans-serif" font-size="13" lengthAdjust="spacing" textLength="100" x="79.5" y="724.6904">selects a request</text><polygon fill="#181818" points="65.5,753.9688,55.5,757.9688,65.5,761.9688,61.5,757.9688" style="stroke:#181818;stroke-width:1.0;"/><line style="stroke:#181818;stroke-width:1.0;stroke-dasharray:2.0,2.0;" x1="59.5" x2="391.5" y1="757.9688" y2="757.9688"/><text fill="#000000" font-family="sans-serif" font-size="13" font-weight="bold" lengthAdjust="spacing" textLength="14" x="71.5" y="753.2139">17</text><text fill="#000000" font-family="sans-serif" font-size="13" lengthAdjust="spacing" textLength="117" x="89.5" y="753.2139">asks for acceptance</text><polygon fill="#181818" points="375.5,782.4922,385.5,786.4922,375.5,790.4922,379.5,786.4922" style="stroke:#181818;stroke-width:1.0;"/><line style="stroke:#181818;stroke-width:1.0;" x1="54.5" x2="381.5" y1="786.4922" y2="786.4922"/><text fill="#000000" font-family="sans-serif" font-size="13" font-weight="bold" lengthAdjust="spacing" textLength="14" x="61.5" y="781.7373">18</text><text fill="#000000" font-family="sans-serif" font-size="13" lengthAdjust="spacing" textLength="200" x="79.5" y="781.7373">inputs requested data(acceptance)</text><path d="M20,831.4922 L81,831.4922 L81,838.0156 L71,848.0156 L20,848.0156 L20,831.4922 " fill="#EEEEEE" style="stroke:#000000;stroke-width:1.5;"/><rect fill="none" height="201.9531" style="stroke:#000000;stroke-width:1.5;" width="448.5" x="20" y="831.4922"/><text fill="#000000" font-family="sans-serif" font-size="13" font-weight="bold" lengthAdjust="spacing" textLength="16" x="35" y="844.2607">alt</text><text fill="#000000" font-family="sans-serif" font-size="11" font-weight="bold" lengthAdjust="spacing" textLength="123" x="96" y="843.4502">[if (acceptance) == "N"]</text><polygon fill="#181818" points="65.5,864.5391,55.5,868.5391,65.5,872.5391,61.5,868.5391" style="stroke:#181818;stroke-width:1.0;"/><line style="stroke:#181818;stroke-width:1.0;stroke-dasharray:2.0,2.0;" x1="59.5" x2="391.5" y1="868.5391" y2="868.5391"/><text fill="#000000" font-family="sans-serif" font-size="13" font-weight="bold" lengthAdjust="spacing" textLength="14" x="71.5" y="863.7842">19</text><text fill="#000000" font-family="sans-serif" font-size="13" lengthAdjust="spacing" textLength="115" x="89.5" y="863.7842">asks for justification</text><polygon fill="#181818" points="375.5,893.0625,385.5,897.0625,375.5,901.0625,379.5,897.0625" style="stroke:#181818;stroke-width:1.0;"/><line style="stroke:#181818;stroke-width:1.0;" x1="54.5" x2="381.5" y1="897.0625" y2="897.0625"/><text fill="#000000" font-family="sans-serif" font-size="13" font-weight="bold" lengthAdjust="spacing" textLength="14" x="61.5" y="892.3076">20</text><text fill="#000000" font-family="sans-serif" font-size="13" lengthAdjust="spacing" textLength="251" x="79.5" y="892.3076">inputs requested data(justificationMessage)</text><line style="stroke:#000000;stroke-width:1.0;stroke-dasharray:2.0,2.0;" x1="20" x2="468.5" y1="906.0625" y2="906.0625"/><text fill="#000000" font-family="sans-serif" font-size="11" font-weight="bold" lengthAdjust="spacing" textLength="123" x="25" y="916.0205">[if (acceptance) == "Y"]</text><polygon fill="#181818" points="65.5,935.875,55.5,939.875,65.5,943.875,61.5,939.875" style="stroke:#181818;stroke-width:1.0;"/><line style="stroke:#181818;stroke-width:1.0;stroke-dasharray:2.0,2.0;" x1="59.5" x2="391.5" y1="939.875" y2="939.875"/><text fill="#000000" font-family="sans-serif" font-size="13" font-weight="bold" lengthAdjust="spacing" textLength="14" x="71.5" y="935.1201">21</text><text fill="#000000" font-family="sans-serif" font-size="13" lengthAdjust="spacing" textLength="215" x="89.5" y="935.1201">displays and asks for comission type</text><polygon fill="#181818" points="375.5,964.3984,385.5,968.3984,375.5,972.3984,379.5,968.3984" style="stroke:#181818;stroke-width:1.0;"/><line style="stroke:#181818;stroke-width:1.0;" x1="54.5" x2="381.5" y1="968.3984" y2="968.3984"/><text fill="#000000" font-family="sans-serif" font-size="13" font-weight="bold" lengthAdjust="spacing" textLength="14" x="61.5" y="963.6436">22</text><text fill="#000000" font-family="sans-serif" font-size="13" lengthAdjust="spacing" textLength="231" x="79.5" y="963.6436">inputs requested data(commissionType)</text><polygon fill="#181818" points="65.5,992.9219,55.5,996.9219,65.5,1000.9219,61.5,996.9219" style="stroke:#181818;stroke-width:1.0;"/><line style="stroke:#181818;stroke-width:1.0;stroke-dasharray:2.0,2.0;" x1="59.5" x2="391.5" y1="996.9219" y2="996.9219"/><text fill="#000000" font-family="sans-serif" font-size="13" font-weight="bold" lengthAdjust="spacing" textLength="14" x="71.5" y="992.167">23</text><text fill="#000000" font-family="sans-serif" font-size="13" lengthAdjust="spacing" textLength="219" x="89.5" y="992.167">displays and asks for comission value</text><polygon fill="#181818" points="375.5,1021.4453,385.5,1025.4453,375.5,1029.4453,379.5,1025.4453" style="stroke:#181818;stroke-width:1.0;"/><line style="stroke:#181818;stroke-width:1.0;" x1="54.5" x2="381.5" y1="1025.4453" y2="1025.4453"/><text fill="#000000" font-family="sans-serif" font-size="13" font-weight="bold" lengthAdjust="spacing" textLength="14" x="61.5" y="1020.6904">24</text><text fill="#000000" font-family="sans-serif" font-size="13" lengthAdjust="spacing" textLength="236" x="79.5" y="1020.6904">inputs requested data(commissionValue)</text><polygon fill="#181818" points="956.5,1056.9688,966.5,1060.9688,956.5,1064.9688,960.5,1060.9688" style="stroke:#181818;stroke-width:1.0;"/><line style="stroke:#181818;stroke-width:1.0;" x1="397.5" x2="962.5" y1="1060.9688" y2="1060.9688"/><text fill="#000000" font-family="sans-serif" font-size="13" font-weight="bold" lengthAdjust="spacing" textLength="14" x="404.5" y="1056.2139">25</text><text fill="#000000" font-family="sans-serif" font-size="13" lengthAdjust="spacing" textLength="534" x="422.5" y="1056.2139">controller(requestID, acceptance, justificationMessage, commissionType, commissionValue)</text><polygon fill="#181818" points="1406.5,1085.4922,1416.5,1089.4922,1406.5,1093.4922,1410.5,1089.4922" style="stroke:#181818;stroke-width:1.0;"/><line style="stroke:#181818;stroke-width:1.0;" x1="978.5" x2="1412.5" y1="1089.4922" y2="1089.4922"/><text fill="#000000" font-family="sans-serif" font-size="13" font-weight="bold" lengthAdjust="spacing" textLength="14" x="985.5" y="1084.7373">26</text><text fill="#000000" font-family="sans-serif" font-size="13" lengthAdjust="spacing" textLength="157" x="1003.5" y="1084.7373">getRequestByID(requestID)</text><polygon fill="#181818" points="989.5,1114.0156,979.5,1118.0156,989.5,1122.0156,985.5,1118.0156" style="stroke:#181818;stroke-width:1.0;"/><line style="stroke:#181818;stroke-width:1.0;stroke-dasharray:2.0,2.0;" x1="983.5" x2="1422.5" y1="1118.0156" y2="1118.0156"/><text fill="#000000" font-family="sans-serif" font-size="13" font-weight="bold" lengthAdjust="spacing" textLength="14" x="995.5" y="1113.2607">27</text><text fill="#000000" font-family="sans-serif" font-size="13" lengthAdjust="spacing" textLength="43" x="1013.5" y="1113.2607">request</text><path d="M872.5,1133.0156 L933.5,1133.0156 L933.5,1139.5391 L923.5,1149.5391 L872.5,1149.5391 L872.5,1133.0156 " fill="#EEEEEE" style="stroke:#000000;stroke-width:1.5;"/><rect fill="none" height="643.75" style="stroke:#000000;stroke-width:1.5;" width="1711.5" x="872.5" y="1133.0156"/><text fill="#000000" font-family="sans-serif" font-size="13" font-weight="bold" lengthAdjust="spacing" textLength="16" x="887.5" y="1145.7842">alt</text><text fill="#000000" font-family="sans-serif" font-size="11" font-weight="bold" lengthAdjust="spacing" textLength="118" x="948.5" y="1144.9736">[if  acceptance == "N"]</text><polygon fill="#181818" points="1208.5,1166.0625,1218.5,1170.0625,1208.5,1174.0625,1212.5,1170.0625" style="stroke:#181818;stroke-width:1.0;"/><line style="stroke:#181818;stroke-width:1.0;" x1="978.5" x2="1214.5" y1="1170.0625" y2="1170.0625"/><text fill="#000000" font-family="sans-serif" font-size="13" font-weight="bold" lengthAdjust="spacing" textLength="14" x="985.5" y="1165.3076">28</text><text fill="#000000" font-family="sans-serif" font-size="13" lengthAdjust="spacing" textLength="205" x="1003.5" y="1165.3076">sendMessage(justification, request)</text><polygon fill="#181818" points="989.5,1204.8477,979.5,1208.8477,989.5,1212.8477,985.5,1208.8477" style="stroke:#181818;stroke-width:1.0;"/><line style="stroke:#181818;stroke-width:1.0;stroke-dasharray:2.0,2.0;" x1="983.5" x2="1224.5" y1="1208.8477" y2="1208.8477"/><text fill="#000000" font-family="sans-serif" font-size="13" font-weight="bold" lengthAdjust="spacing" textLength="14" x="995.5" y="1204.0928">29</text><text fill="#000000" font-family="sans-serif" font-size="13" lengthAdjust="spacing" textLength="104" x="1013.5" y="1204.0928">operationSuccess</text><path d="M1235,1183.0625 L1235,1222.0625 L1424,1222.0625 L1424,1193.0625 L1414,1183.0625 L1235,1183.0625 " fill="#FAFAFA" style="stroke:#181818;stroke-width:0.5;"/><path d="M1414,1183.0625 L1414,1193.0625 L1424,1193.0625 L1414,1183.0625 " fill="#FAFAFA" style="stroke:#181818;stroke-width:0.5;"/><text fill="#000000" font-family="sans-serif" font-size="13" lengthAdjust="spacing" textLength="145" x="1241" y="1199.8311">Message implementation</text><text fill="#000000" font-family="sans-serif" font-size="13" lengthAdjust="spacing" textLength="168" x="1241" y="1214.3545">will depend on message type</text><polygon fill="#181818" points="1627.5,1243.6328,1637.5,1247.6328,1627.5,1251.6328,1631.5,1247.6328" style="stroke:#181818;stroke-width:1.0;"/><line style="stroke:#181818;stroke-width:1.0;" x1="978.5" x2="1633.5" y1="1247.6328" y2="1247.6328"/><text fill="#000000" font-family="sans-serif" font-size="13" font-weight="bold" lengthAdjust="spacing" textLength="14" x="985.5" y="1242.8779">30</text><text fill="#000000" font-family="sans-serif" font-size="13" lengthAdjust="spacing" textLength="140" x="1003.5" y="1242.8779">removeRequest(request)</text><line style="stroke:#181818;stroke-width:1.0;stroke-dasharray:2.0,2.0;" x1="1649.5" x2="1696.5" y1="1271.1563" y2="1271.1563"/><line style="stroke:#181818;stroke-width:1.0;stroke-dasharray:2.0,2.0;" x1="1696.5" x2="1696.5" y1="1271.1563" y2="1284.1563"/><line style="stroke:#181818;stroke-width:1.0;stroke-dasharray:2.0,2.0;" x1="1655.5" x2="1696.5" y1="1284.1563" y2="1284.1563"/><polygon fill="#181818" points="1665.5,1280.1563,1655.5,1284.1563,1665.5,1288.1563,1661.5,1284.1563" style="stroke:#181818;stroke-width:1.0;"/><text fill="#000000" font-family="sans-serif" font-size="13" font-weight="bold" lengthAdjust="spacing" textLength="14" x="1661.5" y="1266.4014">31</text><text fill="#000000" font-family="sans-serif" font-size="13" lengthAdjust="spacing" textLength="123" x="1679.5" y="1266.4014">checkExists(request)</text><line style="stroke:#181818;stroke-width:1.0;stroke-dasharray:2.0,2.0;" x1="1654.5" x2="1696.5" y1="1322.6797" y2="1322.6797"/><line style="stroke:#181818;stroke-width:1.0;stroke-dasharray:2.0,2.0;" x1="1696.5" x2="1696.5" y1="1322.6797" y2="1335.6797"/><line style="stroke:#181818;stroke-width:1.0;stroke-dasharray:2.0,2.0;" x1="1649.5" x2="1696.5" y1="1335.6797" y2="1335.6797"/><polygon fill="#181818" points="1659.5,1331.6797,1649.5,1335.6797,1659.5,1339.6797,1655.5,1335.6797" style="stroke:#181818;stroke-width:1.0;"/><text fill="#000000" font-family="sans-serif" font-size="13" font-weight="bold" lengthAdjust="spacing" textLength="14" x="1661.5" y="1317.9248">32</text><text fill="#000000" font-family="sans-serif" font-size="13" lengthAdjust="spacing" textLength="4" x="1679.5" y="1317.9248">&#160;</text><polygon fill="#181818" points="989.5,1355.2031,979.5,1359.2031,989.5,1363.2031,985.5,1359.2031" style="stroke:#181818;stroke-width:1.0;"/><line style="stroke:#181818;stroke-width:1.0;stroke-dasharray:2.0,2.0;" x1="983.5" x2="1643.5" y1="1359.2031" y2="1359.2031"/><text fill="#000000" font-family="sans-serif" font-size="13" font-weight="bold" lengthAdjust="spacing" textLength="14" x="995.5" y="1354.4482">33</text><text fill="#000000" font-family="sans-serif" font-size="13" lengthAdjust="spacing" textLength="97" x="1013.5" y="1354.4482">operationSucess</text><line style="stroke:#000000;stroke-width:1.0;stroke-dasharray:2.0,2.0;" x1="872.5" x2="2584" y1="1368.2031" y2="1368.2031"/><text fill="#000000" font-family="sans-serif" font-size="11" font-weight="bold" lengthAdjust="spacing" textLength="115" x="877.5" y="1378.1611">[if acceptance == "Y"]</text><polygon fill="#181818" points="1406.5,1398.0156,1416.5,1402.0156,1406.5,1406.0156,1410.5,1402.0156" style="stroke:#181818;stroke-width:1.0;"/><line style="stroke:#181818;stroke-width:1.0;" x1="978.5" x2="1412.5" y1="1402.0156" y2="1402.0156"/><text fill="#000000" font-family="sans-serif" font-size="13" font-weight="bold" lengthAdjust="spacing" textLength="14" x="985.5" y="1397.2607">34</text><text fill="#000000" font-family="sans-serif" font-size="13" lengthAdjust="spacing" textLength="403" x="1003.5" y="1397.2607">createAnnouncement(requestID, commissionValue, commissionType)</text><polygon fill="#181818" points="1755.5,1426.5391,1765.5,1430.5391,1755.5,1434.5391,1759.5,1430.5391" style="stroke:#181818;stroke-width:1.0;"/><line style="stroke:#181818;stroke-width:1.0;" x1="1428.5" x2="1761.5" y1="1430.5391" y2="1430.5391"/><text fill="#000000" font-family="sans-serif" font-size="13" font-weight="bold" lengthAdjust="spacing" textLength="14" x="1435.5" y="1425.7842">35</text><text fill="#000000" font-family="sans-serif" font-size="13" lengthAdjust="spacing" textLength="297" x="1453.5" y="1425.7842">create(request, commisionType, commissionValue)</text><rect fill="#E3E3E3" height="45.2813" rx="2.5" ry="2.5" style="stroke:#181818;stroke-width:0.5;" width="113" x="1767.5" y="1410.0156"/><text fill="#000000" font-family="sans-serif" font-size="14" lengthAdjust="spacing" textLength="94" x="1777" y="1429.6895">announcement</text><text fill="#000000" font-family="sans-serif" font-size="14" lengthAdjust="spacing" textLength="99" x="1774.5" y="1445.3301">:Announcement</text><polygon fill="#181818" points="2108,1482.8203,2118,1486.8203,2108,1490.8203,2112,1486.8203" style="stroke:#181818;stroke-width:1.0;"/><line style="stroke:#181818;stroke-width:1.0;" x1="1829" x2="2114" y1="1486.8203" y2="1486.8203"/><text fill="#000000" font-family="sans-serif" font-size="13" font-weight="bold" lengthAdjust="spacing" textLength="14" x="1836" y="1482.0654">36</text><text fill="#000000" font-family="sans-serif" font-size="13" lengthAdjust="spacing" textLength="249" x="1854" y="1482.0654">create(commissionType,commissionValue)</text><rect fill="#E3E3E3" height="45.2813" rx="2.5" ry="2.5" style="stroke:#181818;stroke-width:0.5;" width="94" x="2120" y="1466.2969"/><text fill="#000000" font-family="sans-serif" font-size="14" lengthAdjust="spacing" textLength="73" x="2130.5" y="1485.9707">commission</text><text fill="#000000" font-family="sans-serif" font-size="14" lengthAdjust="spacing" textLength="80" x="2127" y="1501.6113">:Commission</text><polygon fill="#181818" points="1439.5,1539.1016,1429.5,1543.1016,1439.5,1547.1016,1435.5,1543.1016" style="stroke:#181818;stroke-width:1.0;"/><line style="stroke:#181818;stroke-width:1.0;stroke-dasharray:2.0,2.0;" x1="1433.5" x2="1823" y1="1543.1016" y2="1543.1016"/><text fill="#000000" font-family="sans-serif" font-size="13" font-weight="bold" lengthAdjust="spacing" textLength="14" x="1445.5" y="1538.3467">37</text><text fill="#000000" font-family="sans-serif" font-size="13" lengthAdjust="spacing" textLength="85" x="1463.5" y="1538.3467">announcement</text><polygon fill="#181818" points="2297,1567.625,2307,1571.625,2297,1575.625,2301,1571.625" style="stroke:#181818;stroke-width:1.0;"/><line style="stroke:#181818;stroke-width:1.0;" x1="1428.5" x2="2303" y1="1571.625" y2="1571.625"/><text fill="#000000" font-family="sans-serif" font-size="13" font-weight="bold" lengthAdjust="spacing" textLength="14" x="1435.5" y="1566.8701">38</text><text fill="#000000" font-family="sans-serif" font-size="13" lengthAdjust="spacing" textLength="201" x="1453.5" y="1566.8701">addAnnouncement(announcement)</text><line style="stroke:#181818;stroke-width:1.0;" x1="2319" x2="2366" y1="1595.1484" y2="1595.1484"/><line style="stroke:#181818;stroke-width:1.0;" x1="2366" x2="2366" y1="1595.1484" y2="1608.1484"/><line style="stroke:#181818;stroke-width:1.0;" x1="2325" x2="2366" y1="1608.1484" y2="1608.1484"/><polygon fill="#181818" points="2335,1604.1484,2325,1608.1484,2335,1612.1484,2331,1608.1484" style="stroke:#181818;stroke-width:1.0;"/><text fill="#000000" font-family="sans-serif" font-size="13" font-weight="bold" lengthAdjust="spacing" textLength="14" x="2331" y="1590.3936">39</text><text fill="#000000" font-family="sans-serif" font-size="13" lengthAdjust="spacing" textLength="223" x="2349" y="1590.3936">validateAnnouncement(announcement)</text><polygon fill="#181818" points="1439.5,1637.6719,1429.5,1641.6719,1439.5,1645.6719,1435.5,1641.6719" style="stroke:#181818;stroke-width:1.0;"/><line style="stroke:#181818;stroke-width:1.0;stroke-dasharray:2.0,2.0;" x1="1433.5" x2="2313" y1="1641.6719" y2="1641.6719"/><text fill="#000000" font-family="sans-serif" font-size="13" font-weight="bold" lengthAdjust="spacing" textLength="14" x="1445.5" y="1636.917">40</text><text fill="#000000" font-family="sans-serif" font-size="13" lengthAdjust="spacing" textLength="104" x="1463.5" y="1636.917">operationSuccess</text><polygon fill="#181818" points="1627.5,1666.1953,1637.5,1670.1953,1627.5,1674.1953,1631.5,1670.1953" style="stroke:#181818;stroke-width:1.0;"/><line style="stroke:#181818;stroke-width:1.0;" x1="1428.5" x2="1633.5" y1="1670.1953" y2="1670.1953"/><text fill="#000000" font-family="sans-serif" font-size="13" font-weight="bold" lengthAdjust="spacing" textLength="14" x="1435.5" y="1665.4404">41</text><text fill="#000000" font-family="sans-serif" font-size="13" lengthAdjust="spacing" textLength="140" x="1453.5" y="1665.4404">removeRequest(request)</text><line style="stroke:#181818;stroke-width:1.0;" x1="1649.5" x2="1696.5" y1="1693.7188" y2="1693.7188"/><line style="stroke:#181818;stroke-width:1.0;" x1="1696.5" x2="1696.5" y1="1693.7188" y2="1706.7188"/><line style="stroke:#181818;stroke-width:1.0;" x1="1655.5" x2="1696.5" y1="1706.7188" y2="1706.7188"/><polygon fill="#181818" points="1665.5,1702.7188,1655.5,1706.7188,1665.5,1710.7188,1661.5,1706.7188" style="stroke:#181818;stroke-width:1.0;"/><text fill="#000000" font-family="sans-serif" font-size="13" font-weight="bold" lengthAdjust="spacing" textLength="14" x="1661.5" y="1688.9639">42</text><text fill="#000000" font-family="sans-serif" font-size="13" lengthAdjust="spacing" textLength="123" x="1679.5" y="1688.9639">checkExists(request)</text><polygon fill="#181818" points="1439.5,1736.2422,1429.5,1740.2422,1439.5,1744.2422,1435.5,1740.2422" style="stroke:#181818;stroke-width:1.0;"/><line style="stroke:#181818;stroke-width:1.0;stroke-dasharray:2.0,2.0;" x1="1433.5" x2="1643.5" y1="1740.2422" y2="1740.2422"/><text fill="#000000" font-family="sans-serif" font-size="13" font-weight="bold" lengthAdjust="spacing" textLength="14" x="1445.5" y="1735.4873">43</text><text fill="#000000" font-family="sans-serif" font-size="13" lengthAdjust="spacing" textLength="104" x="1463.5" y="1735.4873">operationSuccess</text><polygon fill="#181818" points="989.5,1764.7656,979.5,1768.7656,989.5,1772.7656,985.5,1768.7656" style="stroke:#181818;stroke-width:1.0;"/><line style="stroke:#181818;stroke-width:1.0;stroke-dasharray:2.0,2.0;" x1="983.5" x2="1422.5" y1="1768.7656" y2="1768.7656"/><text fill="#000000" font-family="sans-serif" font-size="13" font-weight="bold" lengthAdjust="spacing" textLength="14" x="995.5" y="1764.0107">44</text><text fill="#000000" font-family="sans-serif" font-size="13" lengthAdjust="spacing" textLength="104" x="1013.5" y="1764.0107">operationSuccess</text><polygon fill="#181818" points="408.5,1800.2891,398.5,1804.2891,408.5,1808.2891,404.5,1804.2891" style="stroke:#181818;stroke-width:1.0;"/><line style="stroke:#181818;stroke-width:1.0;stroke-dasharray:2.0,2.0;" x1="402.5" x2="972.5" y1="1804.2891" y2="1804.2891"/><text fill="#000000" font-family="sans-serif" font-size="13" font-weight="bold" lengthAdjust="spacing" textLength="14" x="414.5" y="1799.5342">45</text><text fill="#000000" font-family="sans-serif" font-size="13" lengthAdjust="spacing" textLength="53" x="432.5" y="1799.5342">message</text><polygon fill="#181818" points="65.5,1828.8125,55.5,1832.8125,65.5,1836.8125,61.5,1832.8125" style="stroke:#181818;stroke-width:1.0;"/><line style="stroke:#181818;stroke-width:1.0;stroke-dasharray:2.0,2.0;" x1="59.5" x2="391.5" y1="1832.8125" y2="1832.8125"/><text fill="#000000" font-family="sans-serif" font-size="13" font-weight="bold" lengthAdjust="spacing" textLength="14" x="71.5" y="1828.0576">46</text><text fill="#000000" font-family="sans-serif" font-size="13" lengthAdjust="spacing" textLength="151" x="89.5" y="1828.0576">display success message</text><!--SRC=[pLXDZzis4BtpLmnqgHruWPw3P85DDYWCf3raimKAzC98OvjTYLH5UZV-znrINoH5kRA3fk5bbnhEcpV3cI5f_IHapHjUGQMaoW-DgX1CSqIc1qdDyoU-nmTpAX4Qp0sN-z9Ve0-yK2z2xc77IusCyQDHybXzmOQndmwYGDWfPRwehupdHZMGtTa_6N0DTtkKXX6E4RcekJGahEj6FUCd_Fk8sZnktRh7xRb5xvKqZIfBR47pOHeglNaZfC5cntEylVrJlluLjIRFd4xtVwX07sH-efMEPtvoAzkFrXNnp0rsBZ3t1svkYIgyfdLF6eooyKBnJ34z89H26r0xu5AgeyoniWen6ZbA00GpEl7g5G7c3P9ujPv8IRP7yr7jzrWyQcneoOZcHQB17L346k_RnfS3ZL_GG8i45We-L5oK36N1F7itlO_ef0MchB5IgHfU3e9oXlBaQA1Gg44g0xHblBInoNxEKjverPXkN_NAsLWd7V8ftKBMOAsqeBmIg6d7FddJh8tHLchAtTm6SS0xgyREWzx4pFtLVbpE6xdOZouuW-Jq7peqjRJOBnPvrcOweVext6-mpRu1jwi96lRpaBZjvqqlXcuy41fqSF2HQin9RDAsgAtPET-SWbleEJOIi6Cg21qBO8swDshbWQ-lhaRV9_YiW81JjPZoIjDQvrcwEbFLl4pJ3bkpfDKsFAhNWthHGOEZrbmZjL4gU2wBeHTgBEdq02KnY2brlAXvjWj9kISLjCS90OU_etE5vpdMhiGd1Y8BhYNf7fxQNS4DNutwwyXYAWbuQK3imDU2jsyX-osRP_ZNKHkn4patGic8unA6WNvtP4LSaOxW9Ay_ifXM8NHTyfEtIvPZhYgXDU63ETLu1Ka2w10-4y1wShPTmE2PbyTle_2xHGWvkDQGEdd6IL_0s_kDbrKRICNVrgtli3-FhGULDDCUnmx_xhIz7vbuC7q6dczjYPpjazPpQiZPiB57ZTzrz-XRTesA6w7dNHnTuSkYcuMflkbzyYyt_PMDzG2JGDWsvFGVZkIl3WxbGPlk97Il5Vk36OuKEtfGKTMbkwgrDUilUH5bIST6JQofgq7LQRYowTTOcRKmFUQNXCjjPZLUT5T362uE_5ABDylPKSKSC7_wy5NOgzeFHUsQrBo4ncoQHLcsl2pwlXrL9dNjkKRHFWdklDU4txQY9XHtgVbkGZ7sNoZ4rpUH-Q-HpboFlQ01deLcPwMEsOXCulV3960LjUC9cN-nueVONnbiwratt82PU0QPa1ROikT54UoilvAkosacIx3P5NIkz85ERr74AVh_Ek9lxkHqWBaTNaRdcxJTy5BcnpqVBY7t_S-7-TtzFlURsVVcX0zBl3ZjRO6kQDtJD_LCwouPB7omXY_7z2KRT6ju1iA-7P9FOCl9_fepUGotFtpz0m00]--></g></svg>