<?xml version="1.0" encoding="us-ascii" standalone="no"?><svg xmlns="http://www.w3.org/2000/svg" xmlns:xlink="http://www.w3.org/1999/xlink" contentStyleType="text/css" height="448px" preserveAspectRatio="none" style="width:1230px;height:448px;background:#FFFFFF;" version="1.1" viewBox="0 0 1230 448" width="1230px" zoomAndPan="magnify"><defs/><g><rect fill="#FFFFFF" height="327.4688" style="stroke:#181818;stroke-width:1.0;" width="10" x="93.5" y="61.2813"/><rect fill="#FFFFFF" height="306.9453" style="stroke:#181818;stroke-width:1.0;" width="10" x="303.5" y="81.8047"/><rect fill="#FFFFFF" height="33.5234" style="stroke:#181818;stroke-width:1.0;" width="10" x="308.5" y="263.0625"/><rect fill="#FFFFFF" height="28.5234" style="stroke:#181818;stroke-width:1.0;" width="10" x="499.5" y="198.0156"/><rect fill="#FFFFFF" height="51.5234" style="stroke:#181818;stroke-width:1.0;" width="10" x="750" y="337.2266"/><rect fill="none" height="255.4219" style="stroke:#000000;stroke-width:1.5;" width="1042" x="182" y="96.8047"/><rect fill="none" height="184.2578" style="stroke:#000000;stroke-width:1.5;" width="1022" x="192" y="160.9688"/><line style="stroke:#181818;stroke-width:0.5;stroke-dasharray:5.0,5.0;" x1="98" x2="98" y1="51.2813" y2="397.75"/><line style="stroke:#181818;stroke-width:0.5;stroke-dasharray:5.0,5.0;" x1="308" x2="308" y1="51.2813" y2="397.75"/><line style="stroke:#181818;stroke-width:0.5;stroke-dasharray:5.0,5.0;" x1="504" x2="504" y1="51.2813" y2="397.75"/><line style="stroke:#181818;stroke-width:0.5;stroke-dasharray:5.0,5.0;" x1="755" x2="755" y1="143.6484" y2="397.75"/><line style="stroke:#181818;stroke-width:0.5;stroke-dasharray:5.0,5.0;" x1="1069" x2="1069" y1="306.3828" y2="397.75"/><rect fill="#E2E2F0" height="29.6406" rx="2.5" ry="2.5" style="stroke:#181818;stroke-width:0.5;" width="187" x="5" y="20.6406"/><text fill="#000000" font-family="sans-serif" font-size="14" lengthAdjust="spacing" textLength="173" x="12" y="40.3145">:ApprovePropertyController</text><rect fill="#E2E2F0" height="29.6406" rx="2.5" ry="2.5" style="stroke:#181818;stroke-width:0.5;" width="187" x="5" y="396.75"/><text fill="#000000" font-family="sans-serif" font-size="14" lengthAdjust="spacing" textLength="173" x="12" y="416.4238">:ApprovePropertyController</text><rect fill="#E2E2F0" height="29.6406" rx="2.5" ry="2.5" style="stroke:#181818;stroke-width:0.5;" width="213" x="202" y="20.6406"/><text fill="#000000" font-family="sans-serif" font-size="14" lengthAdjust="spacing" textLength="199" x="209" y="40.3145">:announcementRequestMapper</text><rect fill="#E2E2F0" height="29.6406" rx="2.5" ry="2.5" style="stroke:#181818;stroke-width:0.5;" width="213" x="202" y="396.75"/><text fill="#000000" font-family="sans-serif" font-size="14" lengthAdjust="spacing" textLength="199" x="209" y="416.4238">:announcementRequestMapper</text><rect fill="#E2E2F0" height="45.2813" rx="2.5" ry="2.5" style="stroke:#181818;stroke-width:0.5;" width="143" x="433" y="5"/><text fill="#000000" font-family="sans-serif" font-size="14" lengthAdjust="spacing" textLength="70" x="467.5" y="24.6738">requestList</text><text fill="#000000" font-family="sans-serif" font-size="14" lengthAdjust="spacing" textLength="129" x="440" y="40.3145">:ArrayList&lt;Request&gt;</text><rect fill="#E2E2F0" height="45.2813" rx="2.5" ry="2.5" style="stroke:#181818;stroke-width:0.5;" width="143" x="433" y="396.75"/><text fill="#000000" font-family="sans-serif" font-size="14" lengthAdjust="spacing" textLength="70" x="467.5" y="416.4238">requestList</text><text fill="#000000" font-family="sans-serif" font-size="14" lengthAdjust="spacing" textLength="129" x="440" y="432.0645">:ArrayList&lt;Request&gt;</text><rect fill="#E2E2F0" height="29.6406" rx="2.5" ry="2.5" style="stroke:#181818;stroke-width:0.5;" width="338" x="586" y="396.75"/><text fill="#000000" font-family="sans-serif" font-size="14" lengthAdjust="spacing" textLength="324" x="593" y="416.4238">announcementRequestDtoList : List&lt;RequestDTO&gt;</text><rect fill="#E2E2F0" height="29.6406" rx="2.5" ry="2.5" style="stroke:#181818;stroke-width:0.5;" width="270" x="934" y="396.75"/><text fill="#000000" font-family="sans-serif" font-size="14" lengthAdjust="spacing" textLength="256" x="941" y="416.4238">announcementRequestDto:RequestDTO</text><rect fill="#FFFFFF" height="327.4688" style="stroke:#181818;stroke-width:1.0;" width="10" x="93.5" y="61.2813"/><rect fill="#FFFFFF" height="306.9453" style="stroke:#181818;stroke-width:1.0;" width="10" x="303.5" y="81.8047"/><rect fill="#FFFFFF" height="33.5234" style="stroke:#181818;stroke-width:1.0;" width="10" x="308.5" y="263.0625"/><rect fill="#FFFFFF" height="28.5234" style="stroke:#181818;stroke-width:1.0;" width="10" x="499.5" y="198.0156"/><rect fill="#FFFFFF" height="51.5234" style="stroke:#181818;stroke-width:1.0;" width="10" x="750" y="337.2266"/><polygon fill="#181818" points="291.5,77.8047,301.5,81.8047,291.5,85.8047,295.5,81.8047" style="stroke:#181818;stroke-width:1.0;"/><line style="stroke:#181818;stroke-width:1.0;" x1="103.5" x2="297.5" y1="81.8047" y2="81.8047"/><text fill="#000000" font-family="sans-serif" font-size="13" font-weight="bold" lengthAdjust="spacing" textLength="7" x="110.5" y="77.0498">1</text><text fill="#000000" font-family="sans-serif" font-size="13" lengthAdjust="spacing" textLength="89" x="121.5" y="77.0498">toDto(requests)</text><path d="M182,96.8047 L349,96.8047 L349,103.3281 L339,113.3281 L182,113.3281 L182,96.8047 " fill="#EEEEEE" style="stroke:#000000;stroke-width:1.5;"/><rect fill="none" height="255.4219" style="stroke:#000000;stroke-width:1.5;" width="1042" x="182" y="96.8047"/><text fill="#000000" font-family="sans-serif" font-size="13" font-weight="bold" lengthAdjust="spacing" textLength="122" x="197" y="109.5732">Request List To Dto</text><polygon fill="#181818" points="574,129.8516,584,133.8516,574,137.8516,578,133.8516" style="stroke:#181818;stroke-width:1.0;"/><line style="stroke:#181818;stroke-width:1.0;stroke-dasharray:2.0,2.0;" x1="313.5" x2="580" y1="133.8516" y2="133.8516"/><text fill="#000000" font-family="sans-serif" font-size="13" font-weight="bold" lengthAdjust="spacing" textLength="7" x="320.5" y="129.0967">2</text><text fill="#000000" font-family="sans-serif" font-size="13" lengthAdjust="spacing" textLength="44" x="331.5" y="129.0967">create()</text><rect fill="#E2E2F0" height="29.6406" rx="2.5" ry="2.5" style="stroke:#181818;stroke-width:0.5;" width="338" x="586" y="113.3281"/><text fill="#000000" font-family="sans-serif" font-size="14" lengthAdjust="spacing" textLength="324" x="593" y="133.002">announcementRequestDtoList : List&lt;RequestDTO&gt;</text><path d="M192,160.9688 L265,160.9688 L265,167.4922 L255,177.4922 L192,177.4922 L192,160.9688 " fill="#EEEEEE" style="stroke:#000000;stroke-width:1.5;"/><rect fill="none" height="184.2578" style="stroke:#000000;stroke-width:1.5;" width="1022" x="192" y="160.9688"/><text fill="#000000" font-family="sans-serif" font-size="13" font-weight="bold" lengthAdjust="spacing" textLength="28" x="207" y="173.7373">loop</text><text fill="#000000" font-family="sans-serif" font-size="11" font-weight="bold" lengthAdjust="spacing" textLength="171" x="280" y="172.9268">[for each object in requestList]</text><polygon fill="#181818" points="487.5,194.0156,497.5,198.0156,487.5,202.0156,491.5,198.0156" style="stroke:#181818;stroke-width:1.0;"/><line style="stroke:#181818;stroke-width:1.0;" x1="313.5" x2="493.5" y1="198.0156" y2="198.0156"/><text fill="#000000" font-family="sans-serif" font-size="13" font-weight="bold" lengthAdjust="spacing" textLength="7" x="320.5" y="193.2607">3</text><text fill="#000000" font-family="sans-serif" font-size="13" lengthAdjust="spacing" textLength="43" x="331.5" y="193.2607">get(idx)</text><polygon fill="#181818" points="324.5,222.5391,314.5,226.5391,324.5,230.5391,320.5,226.5391" style="stroke:#181818;stroke-width:1.0;"/><line style="stroke:#181818;stroke-width:1.0;stroke-dasharray:2.0,2.0;" x1="318.5" x2="503.5" y1="226.5391" y2="226.5391"/><text fill="#000000" font-family="sans-serif" font-size="13" font-weight="bold" lengthAdjust="spacing" textLength="7" x="330.5" y="221.7842">4</text><text fill="#000000" font-family="sans-serif" font-size="13" lengthAdjust="spacing" textLength="43" x="341.5" y="221.7842">request</text><line style="stroke:#181818;stroke-width:1.0;" x1="313.5" x2="360.5" y1="250.0625" y2="250.0625"/><line style="stroke:#181818;stroke-width:1.0;" x1="360.5" x2="360.5" y1="250.0625" y2="263.0625"/><line style="stroke:#181818;stroke-width:1.0;" x1="319.5" x2="360.5" y1="263.0625" y2="263.0625"/><polygon fill="#181818" points="329.5,259.0625,319.5,263.0625,329.5,267.0625,325.5,263.0625" style="stroke:#181818;stroke-width:1.0;"/><text fill="#000000" font-family="sans-serif" font-size="13" font-weight="bold" lengthAdjust="spacing" textLength="7" x="325.5" y="245.3076">5</text><text fill="#000000" font-family="sans-serif" font-size="13" lengthAdjust="spacing" textLength="161" x="336.5" y="245.3076">requestDto = toDto(request)</text><polygon fill="#181818" points="922,292.5859,932,296.5859,922,300.5859,926,296.5859" style="stroke:#181818;stroke-width:1.0;"/><line style="stroke:#181818;stroke-width:1.0;" x1="313.5" x2="928" y1="296.5859" y2="296.5859"/><text fill="#000000" font-family="sans-serif" font-size="13" font-weight="bold" lengthAdjust="spacing" textLength="7" x="320.5" y="291.8311">6</text><text fill="#000000" font-family="sans-serif" font-size="13" lengthAdjust="spacing" textLength="44" x="331.5" y="291.8311">create()</text><rect fill="#E2E2F0" height="29.6406" rx="2.5" ry="2.5" style="stroke:#181818;stroke-width:0.5;" width="270" x="934" y="276.0625"/><text fill="#000000" font-family="sans-serif" font-size="14" lengthAdjust="spacing" textLength="256" x="941" y="295.7363">announcementRequestDto:RequestDTO</text><polygon fill="#181818" points="738,333.2266,748,337.2266,738,341.2266,742,337.2266" style="stroke:#181818;stroke-width:1.0;"/><line style="stroke:#181818;stroke-width:1.0;" x1="313.5" x2="744" y1="337.2266" y2="337.2266"/><text fill="#000000" font-family="sans-serif" font-size="13" font-weight="bold" lengthAdjust="spacing" textLength="7" x="320.5" y="332.4717">7</text><text fill="#000000" font-family="sans-serif" font-size="13" lengthAdjust="spacing" textLength="92" x="331.5" y="332.4717">add(requestDto)</text><polygon fill="#181818" points="114.5,375.75,104.5,379.75,114.5,383.75,110.5,379.75" style="stroke:#181818;stroke-width:1.0;"/><line style="stroke:#181818;stroke-width:1.0;stroke-dasharray:2.0,2.0;" x1="108.5" x2="302.5" y1="379.75" y2="379.75"/><text fill="#000000" font-family="sans-serif" font-size="13" font-weight="bold" lengthAdjust="spacing" textLength="7" x="120.5" y="374.9951">8</text><text fill="#000000" font-family="sans-serif" font-size="13" lengthAdjust="spacing" textLength="91" x="131.5" y="374.9951">requestsDtoList</text><!--SRC=[ZL8zJyCm4DtlLvowa5GAtIE8LD4H148TMLpdQ8qIspYNYlvxdDHrd08IYsLRx-kUVNDWjbsvMjb6QExRvbQQTjNHPqzQKb4hiNUY1H0z6zstEt80LZXMKbbFm4MvjjQP8xquOydnwS5eTgPfo2rGT2ZZyOecj3QzjsX9y-jWr_6Ji3RGsd4xfxWpwb5rZ6-wN3idJiFXBj2haHbGtPpxYzk6pIXLOYgosJwVTHerGluZKqxSaLfx6WZ9wYYOqWPWscDHXI5z03PU9Riaps7lJ6yng8xnS6jmI1DLGq51el1g8V1owGMb8m_ASe3668luRXoIa0Sqkm-IZ4fZqcPKgM9xNcDFdAdwAvyyOxKHLQHJX5kewIS34ezhWW-Dz_CEyZy7hOPsvpCcVZ_0eHGF5tMTJOQ9mUMXWNGDvpLfDNcn6BWBNmVW6m00]--></g></svg>