<?xml version="1.0" encoding="us-ascii" standalone="no"?><svg xmlns="http://www.w3.org/2000/svg" xmlns:xlink="http://www.w3.org/1999/xlink" contentStyleType="text/css" height="635px" preserveAspectRatio="none" style="width:438px;height:635px;background:#FFFFFF;" version="1.1" viewBox="0 0 438 635" width="438px" zoomAndPan="magnify"><defs/><g><text fill="#000000" font-family="sans-serif" font-size="14" font-weight="bold" lengthAdjust="spacing" textLength="228" x="106.75" y="27.6738">System Sequence Diagram (SSD)</text><rect fill="#FFFFFF" height="418.6172" style="stroke:#181818;stroke-width:1.0;" width="10" x="46.5" y="127.2813"/><rect fill="#FFFFFF" height="52.0469" style="stroke:#181818;stroke-width:1.0;" width="10" x="375.5" y="147.8047"/><rect fill="#FFFFFF" height="28.5234" style="stroke:#181818;stroke-width:1.0;" width="10" x="375.5" y="228.375"/><rect fill="#FFFFFF" height="52.0469" style="stroke:#181818;stroke-width:1.0;" width="10" x="375.5" y="285.4219"/><rect fill="#FFFFFF" height="42.8125" style="stroke:#181818;stroke-width:1.0;" width="10" x="375.5" y="365.9922"/><rect fill="#FFFFFF" height="28.5234" style="stroke:#181818;stroke-width:1.0;" width="10" x="375.5" y="437.3281"/><rect fill="#FFFFFF" height="35.5234" style="stroke:#181818;stroke-width:1.0;" width="10" x="375.5" y="494.375"/><rect fill="none" height="375.0938" style="stroke:#000000;stroke-width:1.5;" width="422.5" x="10" y="162.8047"/><rect fill="none" height="201.9531" style="stroke:#000000;stroke-width:1.5;" width="402.5" x="20" y="300.4219"/><line style="stroke:#181818;stroke-width:0.5;stroke-dasharray:5.0,5.0;" x1="51" x2="51" y1="117.2813" y2="554.8984"/><line style="stroke:#181818;stroke-width:0.5;stroke-dasharray:5.0,5.0;" x1="380.5" x2="380.5" y1="117.2813" y2="554.8984"/><text fill="#000000" font-family="sans-serif" font-size="14" lengthAdjust="spacing" textLength="37" x="30" y="114.3145">Agent</text><ellipse cx="51.5" cy="50.1406" fill="#E3E3E3" rx="8" ry="8" style="stroke:#181818;stroke-width:0.5;"/><path d="M51.5,58.1406 L51.5,85.1406 M38.5,66.1406 L64.5,66.1406 M51.5,85.1406 L38.5,100.1406 M51.5,85.1406 L64.5,100.1406 " fill="none" style="stroke:#181818;stroke-width:0.5;"/><text fill="#000000" font-family="sans-serif" font-size="14" lengthAdjust="spacing" textLength="37" x="30" y="566.5723">Agent</text><ellipse cx="51.5" cy="578.0391" fill="#E3E3E3" rx="8" ry="8" style="stroke:#181818;stroke-width:0.5;"/><path d="M51.5,586.0391 L51.5,613.0391 M38.5,594.0391 L64.5,594.0391 M51.5,613.0391 L38.5,628.0391 M51.5,613.0391 L64.5,628.0391 " fill="none" style="stroke:#181818;stroke-width:0.5;"/><rect fill="#E3E3E3" height="29.6406" rx="2.5" ry="2.5" style="stroke:#181818;stroke-width:0.5;" width="64" x="348.5" y="86.6406"/><text fill="#000000" font-family="sans-serif" font-size="14" lengthAdjust="spacing" textLength="50" x="355.5" y="106.3145">:System</text><rect fill="#E3E3E3" height="29.6406" rx="2.5" ry="2.5" style="stroke:#181818;stroke-width:0.5;" width="64" x="348.5" y="553.8984"/><text fill="#000000" font-family="sans-serif" font-size="14" lengthAdjust="spacing" textLength="50" x="355.5" y="573.5723">:System</text><rect fill="#FFFFFF" height="418.6172" style="stroke:#181818;stroke-width:1.0;" width="10" x="46.5" y="127.2813"/><rect fill="#FFFFFF" height="52.0469" style="stroke:#181818;stroke-width:1.0;" width="10" x="375.5" y="147.8047"/><rect fill="#FFFFFF" height="28.5234" style="stroke:#181818;stroke-width:1.0;" width="10" x="375.5" y="228.375"/><rect fill="#FFFFFF" height="52.0469" style="stroke:#181818;stroke-width:1.0;" width="10" x="375.5" y="285.4219"/><rect fill="#FFFFFF" height="42.8125" style="stroke:#181818;stroke-width:1.0;" width="10" x="375.5" y="365.9922"/><rect fill="#FFFFFF" height="28.5234" style="stroke:#181818;stroke-width:1.0;" width="10" x="375.5" y="437.3281"/><rect fill="#FFFFFF" height="35.5234" style="stroke:#181818;stroke-width:1.0;" width="10" x="375.5" y="494.375"/><polygon fill="#181818" points="363.5,143.8047,373.5,147.8047,363.5,151.8047,367.5,147.8047" style="stroke:#181818;stroke-width:1.0;"/><line style="stroke:#181818;stroke-width:1.0;" x1="56.5" x2="369.5" y1="147.8047" y2="147.8047"/><text fill="#000000" font-family="sans-serif" font-size="13" font-weight="bold" lengthAdjust="spacing" textLength="7" x="63.5" y="143.0498">1</text><text fill="#000000" font-family="sans-serif" font-size="13" lengthAdjust="spacing" textLength="287" x="74.5" y="143.0498">asks to receive the list of announcement requests</text><path d="M10,162.8047 L83,162.8047 L83,169.3281 L73,179.3281 L10,179.3281 L10,162.8047 " fill="#EEEEEE" style="stroke:#000000;stroke-width:1.5;"/><rect fill="none" height="375.0938" style="stroke:#000000;stroke-width:1.5;" width="422.5" x="10" y="162.8047"/><text fill="#000000" font-family="sans-serif" font-size="13" font-weight="bold" lengthAdjust="spacing" textLength="28" x="25" y="175.5732">loop</text><text fill="#000000" font-family="sans-serif" font-size="11" font-weight="bold" lengthAdjust="spacing" textLength="187" x="98" y="174.7627">[while input does not equal to "0"]</text><polygon fill="#181818" points="67.5,195.8516,57.5,199.8516,67.5,203.8516,63.5,199.8516" style="stroke:#181818;stroke-width:1.0;"/><line style="stroke:#181818;stroke-width:1.0;stroke-dasharray:2.0,2.0;" x1="61.5" x2="379.5" y1="199.8516" y2="199.8516"/><text fill="#000000" font-family="sans-serif" font-size="13" font-weight="bold" lengthAdjust="spacing" textLength="7" x="73.5" y="195.0967">2</text><text fill="#000000" font-family="sans-serif" font-size="13" lengthAdjust="spacing" textLength="284" x="84.5" y="195.0967">shows the list of requests and asks to select one</text><polygon fill="#181818" points="363.5,224.375,373.5,228.375,363.5,232.375,367.5,228.375" style="stroke:#181818;stroke-width:1.0;"/><line style="stroke:#181818;stroke-width:1.0;" x1="56.5" x2="369.5" y1="228.375" y2="228.375"/><text fill="#000000" font-family="sans-serif" font-size="13" font-weight="bold" lengthAdjust="spacing" textLength="7" x="63.5" y="223.6201">3</text><text fill="#000000" font-family="sans-serif" font-size="13" lengthAdjust="spacing" textLength="100" x="74.5" y="223.6201">selects a request</text><polygon fill="#181818" points="67.5,252.8984,57.5,256.8984,67.5,260.8984,63.5,256.8984" style="stroke:#181818;stroke-width:1.0;"/><line style="stroke:#181818;stroke-width:1.0;stroke-dasharray:2.0,2.0;" x1="61.5" x2="379.5" y1="256.8984" y2="256.8984"/><text fill="#000000" font-family="sans-serif" font-size="13" font-weight="bold" lengthAdjust="spacing" textLength="7" x="73.5" y="252.1436">4</text><text fill="#000000" font-family="sans-serif" font-size="13" lengthAdjust="spacing" textLength="117" x="84.5" y="252.1436">asks for acceptance</text><polygon fill="#181818" points="363.5,281.4219,373.5,285.4219,363.5,289.4219,367.5,285.4219" style="stroke:#181818;stroke-width:1.0;"/><line style="stroke:#181818;stroke-width:1.0;stroke-dasharray:2.0,2.0;" x1="56.5" x2="369.5" y1="285.4219" y2="285.4219"/><text fill="#000000" font-family="sans-serif" font-size="13" font-weight="bold" lengthAdjust="spacing" textLength="7" x="63.5" y="280.667">5</text><text fill="#000000" font-family="sans-serif" font-size="13" lengthAdjust="spacing" textLength="197" x="74.5" y="280.667">types requested data(acceptance)</text><path d="M20,300.4219 L81,300.4219 L81,306.9453 L71,316.9453 L20,316.9453 L20,300.4219 " fill="#EEEEEE" style="stroke:#000000;stroke-width:1.5;"/><rect fill="none" height="201.9531" style="stroke:#000000;stroke-width:1.5;" width="402.5" x="20" y="300.4219"/><text fill="#000000" font-family="sans-serif" font-size="13" font-weight="bold" lengthAdjust="spacing" textLength="16" x="35" y="313.1904">alt</text><text fill="#000000" font-family="sans-serif" font-size="11" font-weight="bold" lengthAdjust="spacing" textLength="159" x="96" y="312.3799">[if acceptance is equal to "0"]</text><polygon fill="#181818" points="67.5,333.4688,57.5,337.4688,67.5,341.4688,63.5,337.4688" style="stroke:#181818;stroke-width:1.0;"/><line style="stroke:#181818;stroke-width:1.0;stroke-dasharray:2.0,2.0;" x1="61.5" x2="379.5" y1="337.4688" y2="337.4688"/><text fill="#000000" font-family="sans-serif" font-size="13" font-weight="bold" lengthAdjust="spacing" textLength="7" x="73.5" y="332.7139">6</text><text fill="#000000" font-family="sans-serif" font-size="13" lengthAdjust="spacing" textLength="115" x="84.5" y="332.7139">asks for justification</text><polygon fill="#181818" points="363.5,361.9922,373.5,365.9922,363.5,369.9922,367.5,365.9922" style="stroke:#181818;stroke-width:1.0;"/><line style="stroke:#181818;stroke-width:1.0;stroke-dasharray:2.0,2.0;" x1="56.5" x2="369.5" y1="365.9922" y2="365.9922"/><text fill="#000000" font-family="sans-serif" font-size="13" font-weight="bold" lengthAdjust="spacing" textLength="7" x="63.5" y="361.2373">7</text><text fill="#000000" font-family="sans-serif" font-size="13" lengthAdjust="spacing" textLength="233" x="74.5" y="361.2373">inputs requested data(justification email)</text><line style="stroke:#000000;stroke-width:1.0;stroke-dasharray:2.0,2.0;" x1="20" x2="422.5" y1="374.9922" y2="374.9922"/><text fill="#000000" font-family="sans-serif" font-size="11" font-weight="bold" lengthAdjust="spacing" textLength="149" x="25" y="384.9502">[acceptance is equal to "1"]</text><polygon fill="#181818" points="67.5,404.8047,57.5,408.8047,67.5,412.8047,63.5,408.8047" style="stroke:#181818;stroke-width:1.0;"/><line style="stroke:#181818;stroke-width:1.0;stroke-dasharray:2.0,2.0;" x1="61.5" x2="379.5" y1="408.8047" y2="408.8047"/><text fill="#000000" font-family="sans-serif" font-size="13" font-weight="bold" lengthAdjust="spacing" textLength="7" x="73.5" y="404.0498">8</text><text fill="#000000" font-family="sans-serif" font-size="13" lengthAdjust="spacing" textLength="215" x="84.5" y="404.0498">displays and asks for comission type</text><polygon fill="#181818" points="363.5,433.3281,373.5,437.3281,363.5,441.3281,367.5,437.3281" style="stroke:#181818;stroke-width:1.0;"/><line style="stroke:#181818;stroke-width:1.0;stroke-dasharray:2.0,2.0;" x1="56.5" x2="369.5" y1="437.3281" y2="437.3281"/><text fill="#000000" font-family="sans-serif" font-size="13" font-weight="bold" lengthAdjust="spacing" textLength="7" x="63.5" y="432.5732">9</text><text fill="#000000" font-family="sans-serif" font-size="13" lengthAdjust="spacing" textLength="232" x="74.5" y="432.5732">inputs requested data(commission type)</text><polygon fill="#181818" points="67.5,461.8516,57.5,465.8516,67.5,469.8516,63.5,465.8516" style="stroke:#181818;stroke-width:1.0;"/><line style="stroke:#181818;stroke-width:1.0;stroke-dasharray:2.0,2.0;" x1="61.5" x2="379.5" y1="465.8516" y2="465.8516"/><text fill="#000000" font-family="sans-serif" font-size="13" font-weight="bold" lengthAdjust="spacing" textLength="14" x="73.5" y="461.0967">10</text><text fill="#000000" font-family="sans-serif" font-size="13" lengthAdjust="spacing" textLength="219" x="91.5" y="461.0967">displays and asks for comission value</text><polygon fill="#181818" points="363.5,490.375,373.5,494.375,363.5,498.375,367.5,494.375" style="stroke:#181818;stroke-width:1.0;"/><line style="stroke:#181818;stroke-width:1.0;stroke-dasharray:2.0,2.0;" x1="56.5" x2="369.5" y1="494.375" y2="494.375"/><text fill="#000000" font-family="sans-serif" font-size="13" font-weight="bold" lengthAdjust="spacing" textLength="14" x="63.5" y="489.6201">11</text><text fill="#000000" font-family="sans-serif" font-size="13" lengthAdjust="spacing" textLength="236" x="81.5" y="489.6201">inputs requested data(commission value)</text><polygon fill="#181818" points="67.5,525.8984,57.5,529.8984,67.5,533.8984,63.5,529.8984" style="stroke:#181818;stroke-width:1.0;"/><line style="stroke:#181818;stroke-width:1.0;stroke-dasharray:2.0,2.0;" x1="61.5" x2="379.5" y1="529.8984" y2="529.8984"/><text fill="#000000" font-family="sans-serif" font-size="13" font-weight="bold" lengthAdjust="spacing" textLength="14" x="73.5" y="525.1436">12</text><text fill="#000000" font-family="sans-serif" font-size="13" lengthAdjust="spacing" textLength="151" x="91.5" y="525.1436">display success message</text><!--SRC=[jPHDRkCm38NtEWNXLRieCDrcKQ10R-0JS6JQKQCVZqaboErBot5gDvbnWK6rC6I8v7kVA8aFBlOuO82GOhBx8GK26J8PlgxqQ0_OKIrdJp2G5OoTNmRm7fjqSh635ZsJCU94G-ip2mMewK-cQ0dU77PZ-4DTlpqQWrbIpE4t3JgtaWQeNZkAKW4ob9dHykAiwp4ALBkfNbcUfYNF7L7e4cz0Hvd2qykilzE40uEaqJkve_Bj2RnZWTG2nfYokWjZqZ1QPU5Ivrfx5flA-vHwEEsT0Yf_5cWICSGaeCdeHvtgLrL2vt4nygIU9dCxtR9qufMHMLiTDLV7J5xt6r8aqz1NG_TXfnGjCrSqDo0Rtefug_r0QwdNRbjQfTmwMIrVB2qzoRdNFRhueGOQ57puhFwuoh-7YLx0jGj3u7Yztz-6UiyihdKMnQMumRM1LVf_mxKI00he_By19- -aD-UlWC_RW8tZtkDvSNv6Mfk2OnwDZ3tu2LnLM4fieFudn15z_ccAeh5z9ET1iVac5N3MzZ93q8y-g5kNQdvnLA6yEjFVdS0F]--></g></svg>