<?xml version="1.0" encoding="us-ascii" standalone="no"?><svg xmlns="http://www.w3.org/2000/svg" xmlns:xlink="http://www.w3.org/1999/xlink" contentStyleType="text/css" height="509px" preserveAspectRatio="none" style="width:431px;height:509px;background:#FFFFFF;" version="1.1" viewBox="0 0 431 509" width="431px" zoomAndPan="magnify"><defs/><g><text fill="#000000" font-family="sans-serif" font-size="14" font-weight="bold" lengthAdjust="spacing" textLength="156" x="130.75" y="25.1074">Domain Model - US012</text><!--class Person--><g id="elem_Person"><rect
        fill="#F1F1F1" height="111.1055" id="Person" rx="2.5" ry="2.5" style="stroke:#181818;stroke-width:0.5;" width="124" x="128" y="237.6211"/><text fill="#000000" font-family="sans-serif" font-size="14" lengthAdjust="spacing" textLength="45" x="167.5" y="257.7285">Person</text><line style="stroke:#181818;stroke-width:0.5;" x1="129" x2="251" y1="266.2422" y2="266.2422"/><text fill="#000000" font-family="sans-serif" font-size="14" lengthAdjust="spacing" textLength="35" x="134" y="285.3496">name</text><text fill="#000000" font-family="sans-serif" font-size="14" lengthAdjust="spacing" textLength="67" x="134" y="303.9707">taxNumber</text><text fill="#000000" font-family="sans-serif" font-size="14" lengthAdjust="spacing" textLength="85" x="134" y="322.5918">emailAddress</text><text fill="#000000" font-family="sans-serif" font-size="14" lengthAdjust="spacing" textLength="112" x="134" y="341.2129">telephoneNumber</text></g><!--class PassportCard--><g id="elem_PassportCard"><rect
        fill="#F1F1F1" height="55.2422" id="PassportCard" rx="2.5" ry="2.5" style="stroke:#181818;stroke-width:0.5;" width="116" x="7" y="84.1211"/><text fill="#000000" font-family="sans-serif" font-size="14" lengthAdjust="spacing" textLength="87" x="21.5" y="104.2285">PassportCard</text><line style="stroke:#181818;stroke-width:0.5;" x1="8" x2="122" y1="112.7422" y2="112.7422"/><text fill="#000000" font-family="sans-serif" font-size="14" lengthAdjust="spacing" textLength="104" x="13" y="131.8496">passportNumber</text></g><!--class Employee--><g id="elem_Employee"><rect
        fill="#F1F1F1" height="36.6211" id="Employee" rx="2.5" ry="2.5" style="stroke:#181818;stroke-width:0.5;" width="68" x="156" y="437.1211"/><text fill="#000000" font-family="sans-serif" font-size="14" lengthAdjust="spacing" textLength="62" x="159" y="457.2285">Employee</text><line style="stroke:#181818;stroke-width:0.5;" x1="157" x2="223" y1="465.7422" y2="465.7422"/></g><!--class User--><g id="elem_User"><rect
        fill="#F1F1F1" height="92.4844" id="User" rx="2.5" ry="2.5" style="stroke:#181818;stroke-width:0.5;" width="97" x="23.5" y="409.6211"/><text fill="#000000" font-family="sans-serif" font-size="14" lengthAdjust="spacing" textLength="29" x="57.5" y="429.7285">User</text><line style="stroke:#181818;stroke-width:0.5;" x1="24.5" x2="119.5" y1="438.2422" y2="438.2422"/><text fill="#000000" font-family="sans-serif" font-size="14" lengthAdjust="spacing" textLength="35" x="29.5" y="457.3496">name</text><text fill="#000000" font-family="sans-serif" font-size="14" lengthAdjust="spacing" textLength="85" x="29.5" y="475.9707">emailAddress</text><text fill="#000000" font-family="sans-serif" font-size="14" lengthAdjust="spacing" textLength="60" x="29.5" y="494.5918">password</text></g><!--class LegacyFile--><g id="elem_LegacyFile"><rect
        fill="#F1F1F1" height="55.2422" id="LegacyFile" rx="2.5" ry="2.5" style="stroke:#181818;stroke-width:0.5;" width="75" x="349.5" y="428.1211"/><text fill="#000000" font-family="sans-serif" font-size="14" lengthAdjust="spacing" textLength="69" x="352.5" y="448.2285">LegacyFile</text><line style="stroke:#181818;stroke-width:0.5;" x1="350.5" x2="423.5" y1="456.7422" y2="456.7422"/><text fill="#000000" font-family="sans-serif" font-size="14" lengthAdjust="spacing" textLength="47" x="355.5" y="475.8496">filePath</text></g><!--class Address--><g id="elem_Address"><rect
        fill="#F1F1F1" height="129.7266" id="Address" rx="2.5" ry="2.5" style="stroke:#181818;stroke-width:0.5;" width="63" x="158.5" y="46.6211"/><text fill="#000000" font-family="sans-serif" font-size="14" lengthAdjust="spacing" textLength="52" x="164" y="66.7285">Address</text><line style="stroke:#181818;stroke-width:0.5;" x1="159.5" x2="220.5" y1="75.2422" y2="75.2422"/><text fill="#000000" font-family="sans-serif" font-size="14" lengthAdjust="spacing" textLength="36" x="164.5" y="94.3496">street</text><text fill="#000000" font-family="sans-serif" font-size="14" lengthAdjust="spacing" textLength="21" x="164.5" y="112.9707">city</text><text fill="#000000" font-family="sans-serif" font-size="14" lengthAdjust="spacing" textLength="41" x="164.5" y="131.5918">district</text><text fill="#000000" font-family="sans-serif" font-size="14" lengthAdjust="spacing" textLength="31" x="164.5" y="150.2129">state</text><text fill="#000000" font-family="sans-serif" font-size="14" lengthAdjust="spacing" textLength="51" x="164.5" y="168.834">zipCode</text></g><!--class Role--><g id="elem_Role"><rect
        fill="#F1F1F1" height="73.8633" id="Role" rx="2.5" ry="2.5" style="stroke:#181818;stroke-width:0.5;" width="81" x="256.5" y="74.6211"/><text fill="#000000" font-family="sans-serif" font-size="14" lengthAdjust="spacing" textLength="29" x="282.5" y="94.7285">Role</text><line style="stroke:#181818;stroke-width:0.5;" x1="257.5" x2="336.5" y1="103.2422" y2="103.2422"/><text fill="#000000" font-family="sans-serif" font-size="14" lengthAdjust="spacing" textLength="11" x="262.5" y="122.3496">id</text><text fill="#000000" font-family="sans-serif" font-size="14" lengthAdjust="spacing" textLength="69" x="262.5" y="140.9707">description</text></g><!--link Role to Person--><g id="link_Role_Person"><path
        d="M275.35,148.9411 C262.15,171.0811 244.9,200.0211 229.36,226.0911 " fill="none" id="Role-to-Person" style="stroke:#181818;stroke-width:1.0;"/><polygon fill="#181818" points="222.59,237.4411,229.0947,234.3283,228.7232,227.1268,222.2185,230.2396,222.59,237.4411" style="stroke:#181818;stroke-width:1.0;"/></g><!--link Address to Person--><g id="link_Address_Person"><path
        d="M190,176.6611 C190,192.0811 190,208.6111 190,224.2011 " fill="none" id="Address-to-Person" style="stroke:#181818;stroke-width:1.0;"/><polygon fill="#181818" points="190,237.6011,194,231.6011,190,225.6011,186,231.6011,190,237.6011" style="stroke:#181818;stroke-width:1.0;"/></g><!--link PassportCard to Person--><g id="link_PassportCard_Person"><path
        d="M83.71,139.4911 C99.73,162.4911 123.45,196.5511 144.42,226.6711 " fill="none" id="PassportCard-to-Person" style="stroke:#181818;stroke-width:1.0;"/><polygon fill="#181818" points="152,237.5611,151.855,230.3514,145.1441,227.7124,145.2892,234.922,152,237.5611" style="stroke:#181818;stroke-width:1.0;"/></g><!--reverse link User to Employee--><g id="link_User_Employee"><path
        d="M140.88,455.6211 C145.91,455.6211 150.94,455.6211 155.97,455.6211 " fill="none" id="User-backto-Employee" style="stroke:#181818;stroke-width:1.0;"/><polygon fill="none" points="140.86,462.6211,120.86,455.6211,140.86,448.6211,140.86,462.6211" style="stroke:#181818;stroke-width:1.0;"/></g><!--reverse link Person to Employee--><g id="link_Person_Employee"><path
        d="M190,369.2511 C190,394.4711 190,420.3711 190,436.9311 " fill="none" id="Person-backto-Employee" style="stroke:#181818;stroke-width:1.0;"/><polygon fill="none" points="183,368.9111,190,348.9111,197,368.9111,183,368.9111" style="stroke:#181818;stroke-width:1.0;"/></g><!--link Employee to LegacyFile--><g id="link_Employee_LegacyFile"><path
        d="M224.31,455.6211 C257.62,455.6211 308.27,455.6211 344.2,455.6211 " fill="none" id="Employee-to-LegacyFile" style="stroke:#181818;stroke-width:1.0;"/><polygon fill="#181818" points="349.39,455.6211,340.39,451.6211,344.39,455.6211,340.39,459.6211,349.39,455.6211" style="stroke:#181818;stroke-width:1.0;"/><text fill="#000000" font-family="sans-serif" font-size="13" lengthAdjust="spacing" textLength="89" x="242.25" y="448.6494">wants to import</text><text fill="#000000" font-family="sans-serif" font-size="13" lengthAdjust="spacing" textLength="7" x="232.1083" y="450.9654">1</text><text fill="#000000" font-family="sans-serif" font-size="13" lengthAdjust="spacing" textLength="5" x="336.4933" y="450.9808">*</text></g><!--SRC=[PL9DImCn4BtdLmoz28M5rgE7WbG5GQLO-WDYCjqTcY-IARLL_xlPxBhTrZs4oPlttYHlatRaWepIWlNEgoPwYy1nZo8DdI3LJjQuvgD1YAXOkjgC2QcHsX_8rR2L9g4GDmQt3EmXKjqmQ6fLv9qOYPIHATqpH_hOCpuhxzPqGfW9qP16K1HL7b9gYznudOHWudo41sybENZr6WrKi5dFvhT253zOOKpUmPU0_3bfiHGiFz_szWDZsM6Mctkj8wRKjT5WQBp3dlGpkEKb-CXB6NNl6NheclfeW_57n4mRi4t2U7sKVyDRmuEF-YnxmLggunCPxCNRNAuaDsTARz2r4qT4BgKYFfP2KqP9SK-Gt4q_KLZcsCv6xtwOGhfJObAHGlbTcTO7EgsgVIZiI-Jl9XVWE3On15ErZ-9xKL8PeLcGmKv_XYVp2LGBc4mdepZku20Tf_PXaMq7Y5y0]--></g></svg>