<?xml version="1.0" encoding="us-ascii" standalone="no"?><svg xmlns="http://www.w3.org/2000/svg" xmlns:xlink="http://www.w3.org/1999/xlink" contentStyleType="text/css" height="816.9px" preserveAspectRatio="none" style="width:1488px;height:816px;background:#FFFFFF;" version="1.1" viewBox="0 0 1488 816" width="1488.9px" zoomAndPan="magnify"><defs/><g><rect fill="#FFFFFF" height="686.7424" style="stroke:#181818;stroke-width:0.6999999999999998;" width="7" x="22.75" y="65.5348"/><rect fill="#FFFFFF" height="205.7645" style="stroke:#181818;stroke-width:0.6999999999999998;" width="7" x="218.05" y="81.8385"/><rect fill="#FFFFFF" height="52.9074" style="stroke:#181818;stroke-width:0.6999999999999998;" width="7" x="305.9" y="309.5066"/><rect fill="#FFFFFF" height="367.9594" style="stroke:#181818;stroke-width:0.6999999999999998;" width="7" x="305.9" y="384.3178"/><rect fill="#FFFFFF" height="154.957" style="stroke:#181818;stroke-width:0.6999999999999998;" width="7" x="701.4" y="110.7422"/><rect fill="#FFFFFF" height="313.652" style="stroke:#181818;stroke-width:0.6999999999999998;" width="7" x="701.4" y="406.2215"/><rect fill="#FFFFFF" height="71.3111" style="stroke:#181818;stroke-width:0.6999999999999998;" width="7" x="1049.3" y="428.1252"/><rect fill="#FFFFFF" height="21.9037" style="stroke:#181818;stroke-width:0.6999999999999998;" width="7" x="1148" y="134.277"/><rect fill="#FFFFFF" height="21.9037" style="stroke:#181818;stroke-width:0.6999999999999998;" width="7" x="1148" y="588.4512"/><rect fill="#FFFFFF" height="21.9037" style="stroke:#181818;stroke-width:0.6999999999999998;" width="7" x="1221.5" y="178.0844"/><rect fill="#FFFFFF" height="21.9037" style="stroke:#181818;stroke-width:0.6999999999999998;" width="7" x="1221.5" y="632.2586"/><rect fill="#FFFFFF" height="21.9037" style="stroke:#181818;stroke-width:0.6999999999999998;" width="7" x="1325.8" y="243.7955"/><rect fill="#FFFFFF" height="21.9037" style="stroke:#181818;stroke-width:0.6999999999999998;" width="7" x="1435.35" y="676.066"/><rect fill="none" height="79.2148" style="stroke:#000000;stroke-width:1.0499999999999998;" width="1085.35" x="7" y="469.6289"/><rect fill="none" height="188.7334" style="stroke:#000000;stroke-width:1.0499999999999998;" width="1478.05" x="7" y="558.6437"/><line style="stroke:#181818;stroke-width:0.3499999999999999;stroke-dasharray:5.0,5.0;" x1="25.9" x2="25.9" y1="58.5348" y2="759.2771"/><line style="stroke:#181818;stroke-width:0.3499999999999999;stroke-dasharray:5.0,5.0;" x1="221.55" x2="221.55" y1="58.5348" y2="759.2771"/><line style="stroke:#181818;stroke-width:0.3499999999999999;stroke-dasharray:5.0,5.0;" x1="309.05" x2="309.05" y1="58.5348" y2="759.2771"/><line style="stroke:#181818;stroke-width:0.3499999999999999;stroke-dasharray:5.0,5.0;" x1="704.55" x2="704.55" y1="109.7059" y2="759.2771"/><line style="stroke:#181818;stroke-width:0.3499999999999999;stroke-dasharray:5.0,5.0;" x1="1052.45" x2="1052.45" y1="58.5348" y2="759.2771"/><line style="stroke:#181818;stroke-width:0.3499999999999999;stroke-dasharray:5.0,5.0;" x1="1151.15" x2="1151.15" y1="58.5348" y2="759.2771"/><line style="stroke:#181818;stroke-width:0.3499999999999999;stroke-dasharray:5.0,5.0;" x1="1224.65" x2="1224.65" y1="58.5348" y2="759.2771"/><line style="stroke:#181818;stroke-width:0.3499999999999999;stroke-dasharray:5.0,5.0;" x1="1328.95" x2="1328.95" y1="58.5348" y2="759.2771"/><line style="stroke:#181818;stroke-width:0.3499999999999999;stroke-dasharray:5.0,5.0;" x1="1438.85" x2="1438.85" y1="58.5348" y2="759.2771"/><text fill="#000000" font-family="sans-serif" font-size="9.8" lengthAdjust="spacing" textLength="20.3" x="14" y="56.0752">User</text><ellipse cx="26.25" cy="9.45" fill="#E3E3E3" rx="5.6" ry="5.6" style="stroke:#181818;stroke-width:0.3499999999999999;"/><path d="M26.25,15.05 L26.25,33.95 M17.15,20.65 L35.35,20.65 M26.25,33.95 L17.15,44.45 M26.25,33.95 L35.35,44.45 " fill="none" style="stroke:#181818;stroke-width:0.3499999999999999;"/><text fill="#000000" font-family="sans-serif" font-size="9.8" lengthAdjust="spacing" textLength="20.3" x="14" y="769.1523">User</text><ellipse cx="26.25" cy="777.5619" fill="#E3E3E3" rx="5.6" ry="5.6" style="stroke:#181818;stroke-width:0.3499999999999999;"/><path d="M26.25,783.1619 L26.25,802.0619 M17.15,788.7619 L35.35,788.7619 M26.25,802.0619 L17.15,812.5619 M26.25,802.0619 L35.35,812.5619 " fill="none" style="stroke:#181818;stroke-width:0.3499999999999999;"/><rect fill="#E3E3E3" height="22.8348" rx="1.75" ry="1.75" style="stroke:#181818;stroke-width:0.3499999999999999;" width="88.2" x="177.45" y="35"/><text fill="#000000" font-family="sans-serif" font-size="9.8" lengthAdjust="spacing" textLength="78.4" x="182.35" y="50.4752">DisplayPropertyUI</text><rect fill="#E3E3E3" height="22.8348" rx="1.75" ry="1.75" style="stroke:#181818;stroke-width:0.3499999999999999;" width="88.2" x="177.45" y="758.5771"/><text fill="#000000" font-family="sans-serif" font-size="9.8" lengthAdjust="spacing" textLength="78.4" x="182.35" y="774.0523">DisplayPropertyUI</text><rect fill="#E3E3E3" height="22.8348" rx="1.75" ry="1.75" style="stroke:#181818;stroke-width:0.3499999999999999;" width="73.5" x="272.65" y="35"/><text fill="#000000" font-family="sans-serif" font-size="9.8" lengthAdjust="spacing" textLength="63.7" x="277.55" y="50.4752">VisitRequestUI</text><rect fill="#E3E3E3" height="22.8348" rx="1.75" ry="1.75" style="stroke:#181818;stroke-width:0.3499999999999999;" width="73.5" x="272.65" y="758.5771"/><text fill="#000000" font-family="sans-serif" font-size="9.8" lengthAdjust="spacing" textLength="63.7" x="277.55" y="774.0523">VisitRequestUI</text><rect fill="#E3E3E3" height="22.8348" rx="1.75" ry="1.75" style="stroke:#181818;stroke-width:0.3499999999999999;" width="108.5" x="650.65" y="758.5771"/><text fill="#000000" font-family="sans-serif" font-size="9.8" lengthAdjust="spacing" textLength="98.7" x="655.55" y="774.0523">VisitRequestController</text><rect fill="#E3E3E3" height="22.8348" rx="1.75" ry="1.75" style="stroke:#181818;stroke-width:0.3499999999999999;" width="65.1" x="1020.25" y="35"/><text fill="#000000" font-family="sans-serif" font-size="9.8" lengthAdjust="spacing" textLength="55.3" x="1025.15" y="50.4752">VisitRequest</text><rect fill="#E3E3E3" height="22.8348" rx="1.75" ry="1.75" style="stroke:#181818;stroke-width:0.3499999999999999;" width="65.1" x="1020.25" y="758.5771"/><text fill="#000000" font-family="sans-serif" font-size="9.8" lengthAdjust="spacing" textLength="55.3" x="1025.15" y="774.0523">VisitRequest</text><rect fill="#E3E3E3" height="22.8348" rx="1.75" ry="1.75" style="stroke:#181818;stroke-width:0.3499999999999999;" width="65.1" x="1118.95" y="35"/><text fill="#000000" font-family="sans-serif" font-size="9.8" lengthAdjust="spacing" textLength="55.3" x="1123.85" y="50.4752">Repositories</text><rect fill="#E3E3E3" height="22.8348" rx="1.75" ry="1.75" style="stroke:#181818;stroke-width:0.3499999999999999;" width="65.1" x="1118.95" y="758.5771"/><text fill="#000000" font-family="sans-serif" font-size="9.8" lengthAdjust="spacing" textLength="55.3" x="1123.85" y="774.0523">Repositories</text><rect fill="#E3E3E3" height="35.8695" rx="1.75" ry="1.75" style="stroke:#181818;stroke-width:0.3499999999999999;" width="67.9" x="1191.05" y="21.9652"/><text fill="#000000" font-family="sans-serif" font-size="9.8" lengthAdjust="spacing" textLength="51.8" x="1199.1" y="37.4404">repositories</text><text fill="#000000" font-family="sans-serif" font-size="9.8" lengthAdjust="spacing" textLength="58.1" x="1195.95" y="50.4752">:Repositories</text><rect fill="#E3E3E3" height="35.8695" rx="1.75" ry="1.75" style="stroke:#181818;stroke-width:0.3499999999999999;" width="67.9" x="1191.05" y="758.5771"/><text fill="#000000" font-family="sans-serif" font-size="9.8" lengthAdjust="spacing" textLength="51.8" x="1199.1" y="774.0523">repositories</text><text fill="#000000" font-family="sans-serif" font-size="9.8" lengthAdjust="spacing" textLength="58.1" x="1195.95" y="787.0871">:Repositories</text><rect fill="#E3E3E3" height="35.8695" rx="1.75" ry="1.75" style="stroke:#181818;stroke-width:0.3499999999999999;" width="126.7" x="1265.95" y="21.9652"/><text fill="#000000" font-family="sans-serif" font-size="9.8" lengthAdjust="spacing" textLength="113.4" x="1272.6" y="37.4404">announcementRepository</text><text fill="#000000" font-family="sans-serif" font-size="9.8" lengthAdjust="spacing" textLength="116.9" x="1270.85" y="50.4752">:AnnouncementRepository</text><rect fill="#E3E3E3" height="35.8695" rx="1.75" ry="1.75" style="stroke:#181818;stroke-width:0.3499999999999999;" width="126.7" x="1265.95" y="758.5771"/><text fill="#000000" font-family="sans-serif" font-size="9.8" lengthAdjust="spacing" textLength="113.4" x="1272.6" y="774.0523">announcementRepository</text><text fill="#000000" font-family="sans-serif" font-size="9.8" lengthAdjust="spacing" textLength="116.9" x="1270.85" y="787.0871">:AnnouncementRepository</text><rect fill="#E3E3E3" height="35.8695" rx="1.75" ry="1.75" style="stroke:#181818;stroke-width:0.3499999999999999;" width="78.4" x="1399.65" y="21.9652"/><text fill="#000000" font-family="sans-serif" font-size="9.8" lengthAdjust="spacing" textLength="64.4" x="1406.65" y="37.4404">visitRepository</text><text fill="#000000" font-family="sans-serif" font-size="9.8" lengthAdjust="spacing" textLength="68.6" x="1404.55" y="50.4752">:VisitRepository</text><rect fill="#E3E3E3" height="35.8695" rx="1.75" ry="1.75" style="stroke:#181818;stroke-width:0.3499999999999999;" width="78.4" x="1399.65" y="758.5771"/><text fill="#000000" font-family="sans-serif" font-size="9.8" lengthAdjust="spacing" textLength="64.4" x="1406.65" y="774.0523">visitRepository</text><text fill="#000000" font-family="sans-serif" font-size="9.8" lengthAdjust="spacing" textLength="68.6" x="1404.55" y="787.0871">:VisitRepository</text><rect fill="#FFFFFF" height="686.7424" style="stroke:#181818;stroke-width:0.6999999999999998;" width="7" x="22.75" y="65.5348"/><rect fill="#FFFFFF" height="205.7645" style="stroke:#181818;stroke-width:0.6999999999999998;" width="7" x="218.05" y="81.8385"/><rect fill="#FFFFFF" height="52.9074" style="stroke:#181818;stroke-width:0.6999999999999998;" width="7" x="305.9" y="309.5066"/><rect fill="#FFFFFF" height="367.9594" style="stroke:#181818;stroke-width:0.6999999999999998;" width="7" x="305.9" y="384.3178"/><rect fill="#FFFFFF" height="154.957" style="stroke:#181818;stroke-width:0.6999999999999998;" width="7" x="701.4" y="110.7422"/><rect fill="#FFFFFF" height="313.652" style="stroke:#181818;stroke-width:0.6999999999999998;" width="7" x="701.4" y="406.2215"/><rect fill="#FFFFFF" height="71.3111" style="stroke:#181818;stroke-width:0.6999999999999998;" width="7" x="1049.3" y="428.1252"/><rect fill="#FFFFFF" height="21.9037" style="stroke:#181818;stroke-width:0.6999999999999998;" width="7" x="1148" y="134.277"/><rect fill="#FFFFFF" height="21.9037" style="stroke:#181818;stroke-width:0.6999999999999998;" width="7" x="1148" y="588.4512"/><rect fill="#FFFFFF" height="21.9037" style="stroke:#181818;stroke-width:0.6999999999999998;" width="7" x="1221.5" y="178.0844"/><rect fill="#FFFFFF" height="21.9037" style="stroke:#181818;stroke-width:0.6999999999999998;" width="7" x="1221.5" y="632.2586"/><rect fill="#FFFFFF" height="21.9037" style="stroke:#181818;stroke-width:0.6999999999999998;" width="7" x="1325.8" y="243.7955"/><rect fill="#FFFFFF" height="21.9037" style="stroke:#181818;stroke-width:0.6999999999999998;" width="7" x="1435.35" y="676.066"/><polygon fill="#181818" points="209.65,79.0385,216.65,81.8385,209.65,84.6385,212.45,81.8385" style="stroke:#181818;stroke-width:0.6999999999999998;"/><line style="stroke:#181818;stroke-width:0.6999999999999998;" x1="29.75" x2="213.85" y1="81.8385" y2="81.8385"/><text fill="#000000" font-family="sans-serif" font-size="9.1" font-weight="bold" lengthAdjust="spacing" textLength="4.9" x="34.65" y="78.1546">1</text><text fill="#000000" font-family="sans-serif" font-size="9.1" lengthAdjust="spacing" textLength="128.1" x="42.35" y="78.1546">asks to create new visit request</text><polygon fill="#181818" points="642.25,100.9422,649.25,103.7422,642.25,106.5422,645.05,103.7422" style="stroke:#181818;stroke-width:0.6999999999999998;"/><line style="stroke:#181818;stroke-width:0.6999999999999998;" x1="225.05" x2="646.45" y1="103.7422" y2="103.7422"/><text fill="#000000" font-family="sans-serif" font-size="9.1" font-weight="bold" lengthAdjust="spacing" textLength="4.9" x="229.95" y="100.0583">2</text><text fill="#000000" font-family="sans-serif" font-size="9.1" lengthAdjust="spacing" textLength="25.2" x="237.65" y="100.0583">create</text><rect fill="#E3E3E3" height="22.8348" rx="1.75" ry="1.75" style="stroke:#181818;stroke-width:0.3499999999999999;" width="108.5" x="650.65" y="87.4385"/><text fill="#000000" font-family="sans-serif" font-size="9.8" lengthAdjust="spacing" textLength="98.7" x="655.55" y="102.9137">VisitRequestController</text><polygon fill="#181818" points="1139.6,131.477,1146.6,134.277,1139.6,137.077,1142.4,134.277" style="stroke:#181818;stroke-width:0.6999999999999998;"/><line style="stroke:#181818;stroke-width:0.6999999999999998;" x1="708.4" x2="1143.8" y1="134.277" y2="134.277"/><text fill="#000000" font-family="sans-serif" font-size="9.1" font-weight="bold" lengthAdjust="spacing" textLength="4.9" x="713.3" y="130.5931">3</text><text fill="#000000" font-family="sans-serif" font-size="9.1" lengthAdjust="spacing" textLength="52.5" x="721" y="130.5931">getInstance()</text><polygon fill="#181818" points="716.1,153.3807,709.1,156.1807,716.1,158.9807,713.3,156.1807" style="stroke:#181818;stroke-width:0.6999999999999998;"/><line style="stroke:#181818;stroke-width:0.6999999999999998;stroke-dasharray:2.0,2.0;" x1="711.9" x2="1150.8" y1="156.1807" y2="156.1807"/><text fill="#000000" font-family="sans-serif" font-size="9.1" font-weight="bold" lengthAdjust="spacing" textLength="4.9" x="720.3" y="152.4968">4</text><text fill="#000000" font-family="sans-serif" font-size="9.1" lengthAdjust="spacing" textLength="46.9" x="728" y="152.4968">repositories</text><polygon fill="#181818" points="1213.1,175.2844,1220.1,178.0844,1213.1,180.8844,1215.9,178.0844" style="stroke:#181818;stroke-width:0.6999999999999998;"/><line style="stroke:#181818;stroke-width:0.6999999999999998;" x1="708.4" x2="1217.3" y1="178.0844" y2="178.0844"/><text fill="#000000" font-family="sans-serif" font-size="9.1" font-weight="bold" lengthAdjust="spacing" textLength="4.9" x="713.3" y="174.4005">5</text><text fill="#000000" font-family="sans-serif" font-size="9.1" lengthAdjust="spacing" textLength="79.8" x="721" y="174.4005">getVisitRepository()</text><polygon fill="#181818" points="716.1,197.1881,709.1,199.9881,716.1,202.7881,713.3,199.9881" style="stroke:#181818;stroke-width:0.6999999999999998;"/><line style="stroke:#181818;stroke-width:0.6999999999999998;stroke-dasharray:2.0,2.0;" x1="711.9" x2="1224.3" y1="199.9881" y2="199.9881"/><text fill="#000000" font-family="sans-serif" font-size="9.1" font-weight="bold" lengthAdjust="spacing" textLength="4.9" x="720.3" y="196.3042">6</text><text fill="#000000" font-family="sans-serif" font-size="9.1" lengthAdjust="spacing" textLength="74.2" x="728" y="196.3042">getVisitRepository</text><polygon fill="#181818" points="693,219.0918,700,221.8918,693,224.6918,695.8,221.8918" style="stroke:#181818;stroke-width:0.6999999999999998;"/><line style="stroke:#181818;stroke-width:0.6999999999999998;" x1="225.05" x2="697.2" y1="221.8918" y2="221.8918"/><text fill="#000000" font-family="sans-serif" font-size="9.1" font-weight="bold" lengthAdjust="spacing" textLength="4.9" x="229.95" y="218.2079">7</text><text fill="#000000" font-family="sans-serif" font-size="9.1" lengthAdjust="spacing" textLength="67.2" x="237.65" y="218.2079">getPropertyList()</text><polygon fill="#181818" points="1317.4,240.9955,1324.4,243.7955,1317.4,246.5955,1320.2,243.7955" style="stroke:#181818;stroke-width:0.6999999999999998;"/><line style="stroke:#181818;stroke-width:0.6999999999999998;" x1="708.4" x2="1321.6" y1="243.7955" y2="243.7955"/><text fill="#000000" font-family="sans-serif" font-size="9.1" font-weight="bold" lengthAdjust="spacing" textLength="4.9" x="713.3" y="240.1116">8</text><text fill="#000000" font-family="sans-serif" font-size="9.1" lengthAdjust="spacing" textLength="67.2" x="721" y="240.1116">getPropertyList()</text><polygon fill="#181818" points="712.6,262.8992,705.6,265.6992,712.6,268.4992,709.8,265.6992" style="stroke:#181818;stroke-width:0.6999999999999998;"/><line style="stroke:#181818;stroke-width:0.6999999999999998;stroke-dasharray:2.0,2.0;" x1="708.4" x2="1328.6" y1="265.6992" y2="265.6992"/><text fill="#000000" font-family="sans-serif" font-size="9.1" font-weight="bold" lengthAdjust="spacing" textLength="4.9" x="716.8" y="262.0153">9</text><text fill="#000000" font-family="sans-serif" font-size="9.1" lengthAdjust="spacing" textLength="61.6" x="724.5" y="262.0153">getPropertyList</text><polygon fill="#181818" points="37.45,284.8029,30.45,287.6029,37.45,290.4029,34.65,287.6029" style="stroke:#181818;stroke-width:0.6999999999999998;"/><line style="stroke:#181818;stroke-width:0.6999999999999998;stroke-dasharray:2.0,2.0;" x1="33.25" x2="220.85" y1="287.6029" y2="287.6029"/><text fill="#000000" font-family="sans-serif" font-size="9.1" font-weight="bold" lengthAdjust="spacing" textLength="9.8" x="41.65" y="283.919">10</text><text fill="#000000" font-family="sans-serif" font-size="9.1" lengthAdjust="spacing" textLength="158.9" x="54.25" y="283.919">shows list of available properties to visit</text><polygon fill="#181818" points="297.5,306.7066,304.5,309.5066,297.5,312.3066,300.3,309.5066" style="stroke:#181818;stroke-width:0.6999999999999998;"/><line style="stroke:#181818;stroke-width:0.6999999999999998;" x1="29.75" x2="301.7" y1="309.5066" y2="309.5066"/><text fill="#000000" font-family="sans-serif" font-size="9.1" font-weight="bold" lengthAdjust="spacing" textLength="9.8" x="34.65" y="305.8228">11</text><text fill="#000000" font-family="sans-serif" font-size="9.1" lengthAdjust="spacing" textLength="137.9" x="47.25" y="305.8228">chooses one property from the list</text><line style="stroke:#181818;stroke-width:0.6999999999999998;stroke-dasharray:2.0,2.0;" x1="312.9" x2="342.3" y1="331.4104" y2="331.4104"/><line style="stroke:#181818;stroke-width:0.6999999999999998;stroke-dasharray:2.0,2.0;" x1="342.3" x2="342.3" y1="331.4104" y2="340.5104"/><line style="stroke:#181818;stroke-width:0.6999999999999998;stroke-dasharray:2.0,2.0;" x1="313.6" x2="342.3" y1="340.5104" y2="340.5104"/><polygon fill="#181818" points="320.6,337.7104,313.6,340.5104,320.6,343.3104,317.8,340.5104" style="stroke:#181818;stroke-width:0.6999999999999998;"/><text fill="#000000" font-family="sans-serif" font-size="9.1" font-weight="bold" lengthAdjust="spacing" textLength="9.8" x="317.8" y="327.7265">12</text><text fill="#000000" font-family="sans-serif" font-size="9.1" lengthAdjust="spacing" textLength="59.5" x="330.4" y="327.7265">keepProperty()</text><polygon fill="#181818" points="37.45,359.6141,30.45,362.4141,37.45,365.2141,34.65,362.4141" style="stroke:#181818;stroke-width:0.6999999999999998;"/><line style="stroke:#181818;stroke-width:0.6999999999999998;stroke-dasharray:2.0,2.0;" x1="33.25" x2="308.7" y1="362.4141" y2="362.4141"/><text fill="#000000" font-family="sans-serif" font-size="9.1" font-weight="bold" lengthAdjust="spacing" textLength="9.8" x="41.65" y="358.7302">13</text><text fill="#000000" font-family="sans-serif" font-size="9.1" lengthAdjust="spacing" textLength="210" x="54.25" y="358.7302">asks for required data (Prefered time frame and day)</text><polygon fill="#181818" points="297.5,381.5178,304.5,384.3178,297.5,387.1178,300.3,384.3178" style="stroke:#181818;stroke-width:0.6999999999999998;"/><line style="stroke:#181818;stroke-width:0.6999999999999998;" x1="29.75" x2="301.7" y1="384.3178" y2="384.3178"/><text fill="#000000" font-family="sans-serif" font-size="9.1" font-weight="bold" lengthAdjust="spacing" textLength="9.8" x="34.65" y="380.6339">14</text><text fill="#000000" font-family="sans-serif" font-size="9.1" lengthAdjust="spacing" textLength="85.4" x="47.25" y="380.6339">types requested data</text><polygon fill="#181818" points="693,403.4215,700,406.2215,693,409.0215,695.8,406.2215" style="stroke:#181818;stroke-width:0.6999999999999998;"/><line style="stroke:#181818;stroke-width:0.6999999999999998;" x1="312.9" x2="697.2" y1="406.2215" y2="406.2215"/><text fill="#000000" font-family="sans-serif" font-size="9.1" font-weight="bold" lengthAdjust="spacing" textLength="9.8" x="317.8" y="402.5376">15</text><text fill="#000000" font-family="sans-serif" font-size="9.1" lengthAdjust="spacing" textLength="362.6" x="330.4" y="402.5376">createVisitRequest(name of the user, telephone number, property id, time frame and date)</text><polygon fill="#181818" points="1040.9,425.3252,1047.9,428.1252,1040.9,430.9252,1043.7,428.1252" style="stroke:#181818;stroke-width:0.6999999999999998;"/><line style="stroke:#181818;stroke-width:0.6999999999999998;" x1="708.4" x2="1045.1" y1="428.1252" y2="428.1252"/><text fill="#000000" font-family="sans-serif" font-size="9.1" font-weight="bold" lengthAdjust="spacing" textLength="9.8" x="713.3" y="424.4413">16</text><text fill="#000000" font-family="sans-serif" font-size="9.1" lengthAdjust="spacing" textLength="315" x="725.9" y="424.4413">createVisitRequest(name, telephoneNumber, propertyID, timeFrame and date)</text><line style="stroke:#181818;stroke-width:0.6999999999999998;stroke-dasharray:2.0,2.0;" x1="1056.3" x2="1085.7" y1="450.0289" y2="450.0289"/><line style="stroke:#181818;stroke-width:0.6999999999999998;stroke-dasharray:2.0,2.0;" x1="1085.7" x2="1085.7" y1="450.0289" y2="459.1289"/><line style="stroke:#181818;stroke-width:0.6999999999999998;stroke-dasharray:2.0,2.0;" x1="1057" x2="1085.7" y1="459.1289" y2="459.1289"/><polygon fill="#181818" points="1064,456.3289,1057,459.1289,1064,461.9289,1061.2,459.1289" style="stroke:#181818;stroke-width:0.6999999999999998;"/><text fill="#000000" font-family="sans-serif" font-size="9.1" font-weight="bold" lengthAdjust="spacing" textLength="9.8" x="1061.2" y="446.345">17</text><text fill="#000000" font-family="sans-serif" font-size="9.1" lengthAdjust="spacing" textLength="69.3" x="1073.8" y="446.345">checkIfOverlaps()</text><path d="M7,469.6289 L49.7,469.6289 L49.7,476.1326 L42.7,483.1326 L7,483.1326 L7,469.6289 " fill="#EEEEEE" style="stroke:#000000;stroke-width:1.0499999999999998;"/><rect fill="none" height="79.2148" style="stroke:#000000;stroke-width:1.0499999999999998;" width="1085.35" x="7" y="469.6289"/><text fill="#000000" font-family="sans-serif" font-size="9.1" font-weight="bold" lengthAdjust="spacing" textLength="11.2" x="17.5" y="480.1487">alt</text><text fill="#000000" font-family="sans-serif" font-size="7.7" font-weight="bold" lengthAdjust="spacing" textLength="169.4" x="60.2" y="479.338">[if request does overlap with existing ones]</text><polygon fill="#181818" points="716.1,496.6363,709.1,499.4363,716.1,502.2363,713.3,499.4363" style="stroke:#181818;stroke-width:0.6999999999999998;"/><line style="stroke:#181818;stroke-width:0.6999999999999998;stroke-dasharray:2.0,2.0;" x1="711.9" x2="1052.1" y1="499.4363" y2="499.4363"/><text fill="#000000" font-family="sans-serif" font-size="9.1" font-weight="bold" lengthAdjust="spacing" textLength="9.8" x="720.3" y="495.7524">18</text><text fill="#000000" font-family="sans-serif" font-size="9.1" lengthAdjust="spacing" textLength="57.4" x="732.9" y="495.7524">invalid request</text><polygon fill="#181818" points="320.6,518.54,313.6,521.34,320.6,524.14,317.8,521.34" style="stroke:#181818;stroke-width:0.6999999999999998;"/><line style="stroke:#181818;stroke-width:0.6999999999999998;stroke-dasharray:2.0,2.0;" x1="316.4" x2="700.7" y1="521.34" y2="521.34"/><text fill="#000000" font-family="sans-serif" font-size="9.1" font-weight="bold" lengthAdjust="spacing" textLength="9.8" x="324.8" y="517.6562">19</text><text fill="#000000" font-family="sans-serif" font-size="9.1" lengthAdjust="spacing" textLength="57.4" x="337.4" y="517.6562">invalid request</text><polygon fill="#181818" points="37.45,540.4437,30.45,543.2437,37.45,546.0437,34.65,543.2437" style="stroke:#181818;stroke-width:0.6999999999999998;"/><line style="stroke:#181818;stroke-width:0.6999999999999998;stroke-dasharray:2.0,2.0;" x1="33.25" x2="305.2" y1="543.2437" y2="543.2437"/><text fill="#000000" font-family="sans-serif" font-size="9.1" font-weight="bold" lengthAdjust="spacing" textLength="9.8" x="41.65" y="539.5599">20</text><text fill="#000000" font-family="sans-serif" font-size="9.1" lengthAdjust="spacing" textLength="153.3" x="54.25" y="539.5599">informs user that the request is invalid</text><path d="M7,558.6437 L49.7,558.6437 L49.7,565.1475 L42.7,572.1475 L7,572.1475 L7,558.6437 " fill="#EEEEEE" style="stroke:#000000;stroke-width:1.0499999999999998;"/><rect fill="none" height="188.7334" style="stroke:#000000;stroke-width:1.0499999999999998;" width="1478.05" x="7" y="558.6437"/><text fill="#000000" font-family="sans-serif" font-size="9.1" font-weight="bold" lengthAdjust="spacing" textLength="11.2" x="17.5" y="569.1636">alt</text><text fill="#000000" font-family="sans-serif" font-size="7.7" font-weight="bold" lengthAdjust="spacing" textLength="179.2" x="60.2" y="568.3528">[if request doesn't overlap with existing ones]</text><polygon fill="#181818" points="1139.6,585.6512,1146.6,588.4512,1139.6,591.2512,1142.4,588.4512" style="stroke:#181818;stroke-width:0.6999999999999998;"/><line style="stroke:#181818;stroke-width:0.6999999999999998;" x1="708.4" x2="1143.8" y1="588.4512" y2="588.4512"/><text fill="#000000" font-family="sans-serif" font-size="9.1" font-weight="bold" lengthAdjust="spacing" textLength="9.8" x="713.3" y="584.7673">21</text><text fill="#000000" font-family="sans-serif" font-size="9.1" lengthAdjust="spacing" textLength="52.5" x="725.9" y="584.7673">getInstance()</text><polygon fill="#181818" points="716.1,607.5549,709.1,610.3549,716.1,613.1549,713.3,610.3549" style="stroke:#181818;stroke-width:0.6999999999999998;"/><line style="stroke:#181818;stroke-width:0.6999999999999998;stroke-dasharray:2.0,2.0;" x1="711.9" x2="1150.8" y1="610.3549" y2="610.3549"/><text fill="#000000" font-family="sans-serif" font-size="9.1" font-weight="bold" lengthAdjust="spacing" textLength="9.8" x="720.3" y="606.671">22</text><text fill="#000000" font-family="sans-serif" font-size="9.1" lengthAdjust="spacing" textLength="46.9" x="732.9" y="606.671">repositories</text><polygon fill="#181818" points="1213.1,629.4586,1220.1,632.2586,1213.1,635.0586,1215.9,632.2586" style="stroke:#181818;stroke-width:0.6999999999999998;"/><line style="stroke:#181818;stroke-width:0.6999999999999998;" x1="708.4" x2="1217.3" y1="632.2586" y2="632.2586"/><text fill="#000000" font-family="sans-serif" font-size="9.1" font-weight="bold" lengthAdjust="spacing" textLength="9.8" x="713.3" y="628.5747">23</text><text fill="#000000" font-family="sans-serif" font-size="9.1" lengthAdjust="spacing" textLength="79.8" x="725.9" y="628.5747">getVisitRepository()</text><polygon fill="#181818" points="716.1,651.3623,709.1,654.1623,716.1,656.9623,713.3,654.1623" style="stroke:#181818;stroke-width:0.6999999999999998;"/><line style="stroke:#181818;stroke-width:0.6999999999999998;stroke-dasharray:2.0,2.0;" x1="711.9" x2="1224.3" y1="654.1623" y2="654.1623"/><text fill="#000000" font-family="sans-serif" font-size="9.1" font-weight="bold" lengthAdjust="spacing" textLength="9.8" x="720.3" y="650.4784">24</text><text fill="#000000" font-family="sans-serif" font-size="9.1" lengthAdjust="spacing" textLength="74.2" x="732.9" y="650.4784">getVisitRepository</text><polygon fill="#181818" points="1426.95,673.266,1433.95,676.066,1426.95,678.866,1429.75,676.066" style="stroke:#181818;stroke-width:0.6999999999999998;"/><line style="stroke:#181818;stroke-width:0.6999999999999998;" x1="708.4" x2="1431.15" y1="676.066" y2="676.066"/><text fill="#000000" font-family="sans-serif" font-size="9.1" font-weight="bold" lengthAdjust="spacing" textLength="9.8" x="713.3" y="672.3821">25</text><text fill="#000000" font-family="sans-serif" font-size="9.1" lengthAdjust="spacing" textLength="72.1" x="725.9" y="672.3821">addVisitRequest()</text><polygon fill="#181818" points="716.1,695.1697,709.1,697.9697,716.1,700.7697,713.3,697.9697" style="stroke:#181818;stroke-width:0.6999999999999998;"/><line style="stroke:#181818;stroke-width:0.6999999999999998;stroke-dasharray:2.0,2.0;" x1="711.9" x2="1438.15" y1="697.9697" y2="697.9697"/><text fill="#000000" font-family="sans-serif" font-size="9.1" font-weight="bold" lengthAdjust="spacing" textLength="9.8" x="720.3" y="694.2858">26</text><text fill="#000000" font-family="sans-serif" font-size="9.1" lengthAdjust="spacing" textLength="66.5" x="732.9" y="694.2858">addVisitRequest</text><polygon fill="#181818" points="320.6,717.0734,313.6,719.8734,320.6,722.6734,317.8,719.8734" style="stroke:#181818;stroke-width:0.6999999999999998;"/><line style="stroke:#181818;stroke-width:0.6999999999999998;stroke-dasharray:2.0,2.0;" x1="316.4" x2="704.2" y1="719.8734" y2="719.8734"/><text fill="#000000" font-family="sans-serif" font-size="9.1" font-weight="bold" lengthAdjust="spacing" textLength="9.8" x="324.8" y="716.1896">27</text><text fill="#000000" font-family="sans-serif" font-size="9.1" lengthAdjust="spacing" textLength="68.6" x="337.4" y="716.1896">succefull request</text><polygon fill="#181818" points="37.45,738.9771,30.45,741.7771,37.45,744.5771,34.65,741.7771" style="stroke:#181818;stroke-width:0.6999999999999998;"/><line style="stroke:#181818;stroke-width:0.6999999999999998;stroke-dasharray:2.0,2.0;" x1="33.25" x2="305.2" y1="741.7771" y2="741.7771"/><text fill="#000000" font-family="sans-serif" font-size="9.1" font-weight="bold" lengthAdjust="spacing" textLength="9.8" x="41.65" y="738.0933">28</text><text fill="#000000" font-family="sans-serif" font-size="9.1" lengthAdjust="spacing" textLength="130.9" x="54.25" y="738.0933">informs user of succefull request</text><!--SRC=[hLPDRzim3BtxLmYzz0FfOJdsC21eEo10iHNfcjCkgat7GXp9a-Ia_lUZfDYMlvrYEWH8H3wIZ-HJr9xnZ4fw80V1HPX8SG2YPGw1gcuo6kxf3jvqaGAH46hATwble18QYHFZEnBJL44Gq5mBdXy-G0Oqr4AITmMIK4NUtvut0Jff5hACSasUcCfIMhnAaO7KnVlQMgs_DOosJ36zWRyvA5rQB0Sj7WNNKgIfY_ZuU_CoQ6eCjis4Df09D12IWJBNc-VNnlsLz0p-y0VV_ieu-FTDJygvo7a81-2wSYiGOzLxOT5MdVX7bx_dlct-SkMgGZzxi07iI3KuxWFpIUw_6ux90rhk5T62X1AC2OSJiVXOXIKe20YU6W8ROtynno0Wa27uxWwn74PzNtdP5bG_cs_63nD4fnteDLSuKI7StDP6_gbmR4bau1Yu-tCwYDleGgzJ10tWTde-WCkpHREVReNK7xQ1vINP1QrzlFJwGJtw7LIvGozCwJQNPLMhYlKnwohogaFvgiLp2wbfxDMmEizZprLpF6nPPZxDd3wWj8YJ8Yb24n4JUgGifHyeGvaBQWZ5yRKpwp0yu6fQwvbVcZbDX53e9tW5Kv0OXO_e16oepjGl_VoMBZ-BjGV8olgHnOwHAy9kMOmoQBQAIOX8H3KbDwyIOZ1VDKFLZL5AWL1kRelRdcgMVTNe8WDLhkiPUJB_gdrkPtr9lE4c2-JQa96ZR2-8XXIonD3bD7rHqyQYHJTv3RUJAk0FvNOpd8aN_MSh-Fh9nVun5BeH7cM-8mCO-BwAdq2uNyU_ZY1JcYcp4YsaL1CMbqoJI9WHSjRan7H2u1D7npo2cAjgUu-TSnhdbZ1-f2cBcWeyTRmvwIkqxpZsgpdwKjXvLgrjO1nNuQ3iSE6KKMr7hUILgJALIMpWKG_BFNtYrtgiLVEgklZT-lfRzb_UjmlUlB5oBte7HqkUd_9Ntik9SY_ZgrOcssmQHGrXcj5mRntdT7hRQcyhuZH0Gm168WQNh_5Sw7c64oCujdkLLgay327EqtHOhGR_NymH9NpzPeJeoi-02lVcqdxP_U_sZ_frmY9yLuNG7-8p-0S0]--></g></svg>