<?xml version="1.0" encoding="us-ascii" standalone="no"?><svg xmlns="http://www.w3.org/2000/svg" xmlns:xlink="http://www.w3.org/1999/xlink" contentStyleType="text/css" height="1179.5px" preserveAspectRatio="none" style="width:900px;height:1179px;background:#FFFFFF;" version="1.1" viewBox="0 0 900 1179" width="900.2px" zoomAndPan="magnify"><defs/><g><!--class User--><g id="elem_User"><rect codeLine="11" fill="#F1F1F1" height="150.9129" id="User" rx="1.75" ry="1.75" style="stroke:#181818;stroke-width:0.3499999999999999;" width="178.5" x="463.75" y="4.9"/><ellipse cx="539.875" cy="16.1" fill="#ADD1B2" rx="7.7" ry="7.7" style="stroke:#181818;stroke-width:0.6999999999999998;"/><path d="M541.8109,13.2125 Q541.9203,13.0594 542.0516,12.9828 Q542.1828,12.9062 542.3359,12.9062 Q542.5984,12.9062 542.7625,13.0922 Q542.9266,13.2672 542.9266,13.6937 L542.9266,14.7109 Q542.9266,15.1375 542.7625,15.3234 Q542.5984,15.5094 542.3359,15.5094 Q542.0953,15.5094 541.9531,15.3672 Q541.8109,15.2359 541.7344,14.875 Q541.7016,14.6234 541.5703,14.4922 Q541.3406,14.2297 540.9141,14.0766 Q540.4875,13.9234 540.05,13.9234 Q539.5141,13.9234 539.0656,14.1531 Q538.6281,14.3828 538.2781,14.9078 Q537.9391,15.4328 537.9391,16.1547 L537.9391,16.9203 Q537.9391,17.7844 538.5625,18.3641 Q539.1859,18.9328 540.3016,18.9328 Q540.9578,18.9328 541.4172,18.7578 Q541.6906,18.6484 541.9859,18.3422 Q542.1719,18.1562 542.2703,18.1016 Q542.3797,18.0469 542.5219,18.0469 Q542.7516,18.0469 542.9266,18.2328 Q543.1125,18.4078 543.1125,18.6484 Q543.1125,18.8891 542.8719,19.1734 Q542.5219,19.5781 541.9641,19.8078 Q541.2094,20.125 540.3016,20.125 Q539.2406,20.125 538.3984,19.6875 Q537.7094,19.3375 537.2281,18.5937 Q536.7469,17.8391 536.7469,16.9422 L536.7469,16.1328 Q536.7469,15.2031 537.1734,14.4047 Q537.6109,13.5953 538.3766,13.1687 Q539.1422,12.7312 540.0062,12.7312 Q540.5203,12.7312 540.9687,12.8516 Q541.4281,12.9609 541.8109,13.2125 Z " fill="#000000"/><text fill="#000000" font-family="sans-serif" font-size="9.8" lengthAdjust="spacing" textLength="20.3" x="554.225" y="20.1578">User</text><line style="stroke:#181818;stroke-width:0.3499999999999999;" x1="464.45" x2="641.55" y1="27.3" y2="27.3"/><text fill="#000000" font-family="sans-serif" font-size="9.8" lengthAdjust="spacing" textLength="56.7" x="467.95" y="40.6752">-String name</text><text fill="#000000" font-family="sans-serif" font-size="9.8" lengthAdjust="spacing" textLength="91.7" x="467.95" y="53.71">-String emailAddress</text><text fill="#000000" font-family="sans-serif" font-size="9.8" lengthAdjust="spacing" textLength="74.2" x="467.95" y="66.7447">-String password</text><text fill="#000000" font-family="sans-serif" font-size="9.8" lengthAdjust="spacing" textLength="110.6" x="467.95" y="79.7795">-String telephoneNumber</text><line style="stroke:#181818;stroke-width:0.6999999999999998;" x1="464.45" x2="641.55" y1="85.0391" y2="85.0391"/><text fill="#000000" font-family="sans-serif" font-size="9.8" lengthAdjust="spacing" textLength="170.1" x="467.95" y="98.4143">+User(name, emailAddress, password)</text><text fill="#000000" font-family="sans-serif" font-size="9.8" lengthAdjust="spacing" textLength="44.8" x="467.95" y="111.449">+getName</text><text fill="#000000" font-family="sans-serif" font-size="9.8" lengthAdjust="spacing" textLength="79.8" x="467.95" y="124.4838">+getEmailAddress</text><text fill="#000000" font-family="sans-serif" font-size="9.8" lengthAdjust="spacing" textLength="62.3" x="467.95" y="137.5186">+getPassword</text><text fill="#000000" font-family="sans-serif" font-size="9.8" lengthAdjust="spacing" textLength="101.5" x="467.95" y="150.5533">+getTelephoneNumber</text></g><!--class AnnouncementRepository--><g id="elem_AnnouncementRepository"><rect codeLine="25" fill="#F1F1F1" height="59.6695" id="AnnouncementRepository" rx="1.75" ry="1.75" style="stroke:#181818;stroke-width:0.3499999999999999;" width="179.2" x="716.1" y="876.75"/><ellipse cx="745.815" cy="887.95" fill="#ADD1B2" rx="7.7" ry="7.7" style="stroke:#181818;stroke-width:0.6999999999999998;"/><path d="M747.7509,885.0625 Q747.8603,884.9094 747.9916,884.8328 Q748.1228,884.7562 748.2759,884.7562 Q748.5384,884.7562 748.7025,884.9422 Q748.8666,885.1172 748.8666,885.5437 L748.8666,886.5609 Q748.8666,886.9875 748.7025,887.1734 Q748.5384,887.3594 748.2759,887.3594 Q748.0353,887.3594 747.8931,887.2172 Q747.7509,887.0859 747.6744,886.725 Q747.6416,886.4734 747.5103,886.3422 Q747.2806,886.0797 746.8541,885.9266 Q746.4275,885.7734 745.99,885.7734 Q745.4541,885.7734 745.0056,886.0031 Q744.5681,886.2328 744.2181,886.7578 Q743.8791,887.2828 743.8791,888.0047 L743.8791,888.7703 Q743.8791,889.6344 744.5025,890.2141 Q745.1259,890.7828 746.2416,890.7828 Q746.8978,890.7828 747.3572,890.6078 Q747.6306,890.4984 747.9259,890.1922 Q748.1119,890.0062 748.2103,889.9516 Q748.3197,889.8969 748.4619,889.8969 Q748.6916,889.8969 748.8666,890.0828 Q749.0525,890.2578 749.0525,890.4984 Q749.0525,890.7391 748.8119,891.0234 Q748.4619,891.4281 747.9041,891.6578 Q747.1494,891.975 746.2416,891.975 Q745.1806,891.975 744.3384,891.5375 Q743.6494,891.1875 743.1681,890.4437 Q742.6869,889.6891 742.6869,888.7922 L742.6869,887.9828 Q742.6869,887.0531 743.1134,886.2547 Q743.5509,885.4453 744.3166,885.0187 Q745.0822,884.5812 745.9462,884.5812 Q746.4603,884.5812 746.9087,884.7016 Q747.3681,884.8109 747.7509,885.0625 Z " fill="#000000"/><text fill="#000000" font-family="sans-serif" font-size="9.8" lengthAdjust="spacing" textLength="114.1" x="759.885" y="892.0078">AnnouncementRepository</text><line style="stroke:#181818;stroke-width:0.3499999999999999;" x1="716.8" x2="894.6" y1="899.15" y2="899.15"/><line style="stroke:#181818;stroke-width:0.3499999999999999;" x1="716.8" x2="894.6" y1="904.75" y2="904.75"/><text fill="#000000" font-family="sans-serif" font-size="9.8" lengthAdjust="spacing" textLength="93.1" x="720.3" y="918.1252">+getAnnouncement()</text><text fill="#000000" font-family="sans-serif" font-size="9.8" lengthAdjust="spacing" textLength="170.8" x="720.3" y="931.16">+addPropertyAnnouncement(property)</text></g><!--class Repositories--><g id="elem_Repositories"><rect codeLine="137" fill="#F1F1F1" height="98.7738" id="Repositories" rx="1.75" ry="1.75" style="stroke:#181818;stroke-width:0.3499999999999999;" width="142.8" x="513.8" y="624.05"/><ellipse cx="554.575" cy="635.25" fill="#ADD1B2" rx="7.7" ry="7.7" style="stroke:#181818;stroke-width:0.6999999999999998;"/><path d="M556.5109,632.3625 Q556.6203,632.2094 556.7516,632.1328 Q556.8828,632.0562 557.0359,632.0562 Q557.2984,632.0562 557.4625,632.2422 Q557.6266,632.4172 557.6266,632.8437 L557.6266,633.8609 Q557.6266,634.2875 557.4625,634.4734 Q557.2984,634.6594 557.0359,634.6594 Q556.7953,634.6594 556.6531,634.5172 Q556.5109,634.3859 556.4344,634.025 Q556.4016,633.7734 556.2703,633.6422 Q556.0406,633.3797 555.6141,633.2266 Q555.1875,633.0734 554.75,633.0734 Q554.2141,633.0734 553.7656,633.3031 Q553.3281,633.5328 552.9781,634.0578 Q552.6391,634.5828 552.6391,635.3047 L552.6391,636.0703 Q552.6391,636.9344 553.2625,637.5141 Q553.8859,638.0828 555.0016,638.0828 Q555.6578,638.0828 556.1172,637.9078 Q556.3906,637.7984 556.6859,637.4922 Q556.8719,637.3062 556.9703,637.2516 Q557.0797,637.1969 557.2219,637.1969 Q557.4516,637.1969 557.6266,637.3828 Q557.8125,637.5578 557.8125,637.7984 Q557.8125,638.0391 557.5719,638.3234 Q557.2219,638.7281 556.6641,638.9578 Q555.9094,639.275 555.0016,639.275 Q553.9406,639.275 553.0984,638.8375 Q552.4094,638.4875 551.9281,637.7437 Q551.4469,636.9891 551.4469,636.0922 L551.4469,635.2828 Q551.4469,634.3531 551.8734,633.5547 Q552.3109,632.7453 553.0766,632.3187 Q553.8422,631.8812 554.7062,631.8812 Q555.2203,631.8812 555.6687,632.0016 Q556.1281,632.1109 556.5109,632.3625 Z " fill="#000000"/><text fill="#000000" font-family="sans-serif" font-size="9.8" lengthAdjust="spacing" textLength="55.3" x="568.925" y="639.3078">Repositories</text><line style="stroke:#181818;stroke-width:0.3499999999999999;" x1="514.5" x2="655.9" y1="646.45" y2="646.45"/><line style="stroke:#181818;stroke-width:0.3499999999999999;" x1="514.5" x2="655.9" y1="652.05" y2="652.05"/><text fill="#000000" font-family="sans-serif" font-size="9.8" lengthAdjust="spacing" textLength="65.8" x="518" y="665.4252">-Repositories()</text><text fill="#000000" font-family="sans-serif" font-size="9.8" lengthAdjust="spacing" textLength="63.7" x="518" y="678.46">+getInstance()</text><text fill="#000000" font-family="sans-serif" font-size="9.8" lengthAdjust="spacing" textLength="100.1" x="518" y="691.4947">+getAgentRepository()</text><text fill="#000000" font-family="sans-serif" font-size="9.8" lengthAdjust="spacing" textLength="134.4" x="518" y="704.5295">+getPropertyTypeRepository()</text><text fill="#000000" font-family="sans-serif" font-size="9.8" lengthAdjust="spacing" textLength="112" x="518" y="717.5643">+getPropertyRepository()</text></g><polygon fill="none" points="525.1954,722.8238,517.4997,735.504,511.272,727.9373" style="stroke:#181818;stroke-width:0.6999999999999998;"/><line style="stroke:#181818;stroke-width:0.6999999999999998;" x1="514.3858" x2="507.85" y1="731.7207" y2="737.1"/><polygon fill="none" points="617.7817,722.8238,629.5813,731.8115,621.4011,737.2082" style="stroke:#181818;stroke-width:0.6999999999999998;"/><line style="stroke:#181818;stroke-width:0.6999999999999998;" x1="625.4912" x2="627.2" y1="734.5098" y2="737.1"/><line style="stroke:#181818;stroke-width:0.6999999999999998;" x1="585.2" x2="585.2" y1="624.05" y2="606.27"/><!--class VisitsRequestRepository--><g id="elem_VisitsRequestRepository"><rect codeLine="31" fill="#F1F1F1" height="85.7391" id="VisitsRequestRepository" rx="1.75" ry="1.75" style="stroke:#181818;stroke-width:0.3499999999999999;" width="151.2" x="540.4" y="863.8"/><ellipse cx="560.35" cy="875" fill="#ADD1B2" rx="7.7" ry="7.7" style="stroke:#181818;stroke-width:0.6999999999999998;"/><path d="M562.2859,872.1125 Q562.3953,871.9594 562.5266,871.8828 Q562.6578,871.8062 562.8109,871.8062 Q563.0734,871.8062 563.2375,871.9922 Q563.4016,872.1672 563.4016,872.5937 L563.4016,873.6109 Q563.4016,874.0375 563.2375,874.2234 Q563.0734,874.4094 562.8109,874.4094 Q562.5703,874.4094 562.4281,874.2672 Q562.2859,874.1359 562.2094,873.775 Q562.1766,873.5234 562.0453,873.3922 Q561.8156,873.1297 561.3891,872.9766 Q560.9625,872.8234 560.525,872.8234 Q559.9891,872.8234 559.5406,873.0531 Q559.1031,873.2828 558.7531,873.8078 Q558.4141,874.3328 558.4141,875.0547 L558.4141,875.8203 Q558.4141,876.6844 559.0375,877.2641 Q559.6609,877.8328 560.7766,877.8328 Q561.4328,877.8328 561.8922,877.6578 Q562.1656,877.5484 562.4609,877.2422 Q562.6469,877.0562 562.7453,877.0016 Q562.8547,876.9469 562.9969,876.9469 Q563.2266,876.9469 563.4016,877.1328 Q563.5875,877.3078 563.5875,877.5484 Q563.5875,877.7891 563.3469,878.0734 Q562.9969,878.4781 562.4391,878.7078 Q561.6844,879.025 560.7766,879.025 Q559.7156,879.025 558.8734,878.5875 Q558.1844,878.2375 557.7031,877.4937 Q557.2219,876.7391 557.2219,875.8422 L557.2219,875.0328 Q557.2219,874.1031 557.6484,873.3047 Q558.0859,872.4953 558.8516,872.0687 Q559.6172,871.6312 560.4812,871.6312 Q560.9953,871.6312 561.4437,871.7516 Q561.9031,871.8609 562.2859,872.1125 Z " fill="#000000"/><text fill="#000000" font-family="sans-serif" font-size="9.8" lengthAdjust="spacing" textLength="107.8" x="572.25" y="879.0578">VisitsRequestRepository</text><line style="stroke:#181818;stroke-width:0.3499999999999999;" x1="541.1" x2="690.9" y1="886.2" y2="886.2"/><line style="stroke:#181818;stroke-width:0.3499999999999999;" x1="541.1" x2="690.9" y1="891.8" y2="891.8"/><text fill="#000000" font-family="sans-serif" font-size="9.8" lengthAdjust="spacing" textLength="81.9" x="544.6" y="905.1752">+getVisitRequest()</text><text fill="#000000" font-family="sans-serif" font-size="9.8" lengthAdjust="spacing" textLength="138.6" x="544.6" y="918.21">+addVisitRequest(visitRequest)</text><text fill="#000000" font-family="sans-serif" font-size="9.8" lengthAdjust="spacing" textLength="86.1" x="544.6" y="931.2447">+getVisitAccepted()</text><text fill="#000000" font-family="sans-serif" font-size="9.8" lengthAdjust="spacing" textLength="142.8" x="544.6" y="944.2795">+addVisitAccepted(visitRequest)</text></g><!--class VisitRequest--><g id="elem_VisitRequest"><rect codeLine="38" fill="#F1F1F1" height="85.7391" id="VisitRequest" rx="1.75" ry="1.75" style="stroke:#181818;stroke-width:0.3499999999999999;" width="89.6" x="135.1" y="863.8"/><ellipse cx="150.955" cy="875" fill="#ADD1B2" rx="7.7" ry="7.7" style="stroke:#181818;stroke-width:0.6999999999999998;"/><path d="M152.8909,872.1125 Q153.0003,871.9594 153.1316,871.8828 Q153.2628,871.8062 153.4159,871.8062 Q153.6784,871.8062 153.8425,871.9922 Q154.0066,872.1672 154.0066,872.5937 L154.0066,873.6109 Q154.0066,874.0375 153.8425,874.2234 Q153.6784,874.4094 153.4159,874.4094 Q153.1753,874.4094 153.0331,874.2672 Q152.8909,874.1359 152.8144,873.775 Q152.7816,873.5234 152.6503,873.3922 Q152.4206,873.1297 151.9941,872.9766 Q151.5675,872.8234 151.13,872.8234 Q150.5941,872.8234 150.1456,873.0531 Q149.7081,873.2828 149.3581,873.8078 Q149.0191,874.3328 149.0191,875.0547 L149.0191,875.8203 Q149.0191,876.6844 149.6425,877.2641 Q150.2659,877.8328 151.3816,877.8328 Q152.0378,877.8328 152.4972,877.6578 Q152.7706,877.5484 153.0659,877.2422 Q153.2519,877.0562 153.3503,877.0016 Q153.4597,876.9469 153.6019,876.9469 Q153.8316,876.9469 154.0066,877.1328 Q154.1925,877.3078 154.1925,877.5484 Q154.1925,877.7891 153.9519,878.0734 Q153.6019,878.4781 153.0441,878.7078 Q152.2894,879.025 151.3816,879.025 Q150.3206,879.025 149.4784,878.5875 Q148.7894,878.2375 148.3081,877.4937 Q147.8269,876.7391 147.8269,875.8422 L147.8269,875.0328 Q147.8269,874.1031 148.2534,873.3047 Q148.6909,872.4953 149.4566,872.0687 Q150.2222,871.6312 151.0862,871.6312 Q151.6003,871.6312 152.0487,871.7516 Q152.5081,871.8609 152.8909,872.1125 Z " fill="#000000"/><text fill="#000000" font-family="sans-serif" font-size="9.8" lengthAdjust="spacing" textLength="55.3" x="161.945" y="879.0578">VisitRequest</text><line style="stroke:#181818;stroke-width:0.3499999999999999;" x1="135.8" x2="224" y1="886.2" y2="886.2"/><text fill="#000000" font-family="sans-serif" font-size="9.8" lengthAdjust="spacing" textLength="46.2" x="139.3" y="899.5752">-User user</text><text fill="#000000" font-family="sans-serif" font-size="9.8" lengthAdjust="spacing" textLength="81.2" x="139.3" y="912.61">-Property property</text><text fill="#000000" font-family="sans-serif" font-size="9.8" lengthAdjust="spacing" textLength="51.8" x="139.3" y="925.6447">-String date</text><text fill="#000000" font-family="sans-serif" font-size="9.8" lengthAdjust="spacing" textLength="79.1" x="139.3" y="938.6795">-String timeFrame</text><line style="stroke:#181818;stroke-width:0.3499999999999999;" x1="135.8" x2="224" y1="943.9391" y2="943.9391"/></g><!--class Property--><g id="elem_Property"><rect codeLine="45" fill="#F1F1F1" height="203.052" id="Property" rx="1.75" ry="1.75" style="stroke:#181818;stroke-width:0.3499999999999999;" width="136.5" x="111.65" y="571.9"/><ellipse cx="158.025" cy="583.1" fill="#ADD1B2" rx="7.7" ry="7.7" style="stroke:#181818;stroke-width:0.6999999999999998;"/><path d="M159.9609,580.2125 Q160.0703,580.0594 160.2016,579.9828 Q160.3328,579.9062 160.4859,579.9062 Q160.7484,579.9062 160.9125,580.0922 Q161.0766,580.2672 161.0766,580.6937 L161.0766,581.7109 Q161.0766,582.1375 160.9125,582.3234 Q160.7484,582.5094 160.4859,582.5094 Q160.2453,582.5094 160.1031,582.3672 Q159.9609,582.2359 159.8844,581.875 Q159.8516,581.6234 159.7203,581.4922 Q159.4906,581.2297 159.0641,581.0766 Q158.6375,580.9234 158.2,580.9234 Q157.6641,580.9234 157.2156,581.1531 Q156.7781,581.3828 156.4281,581.9078 Q156.0891,582.4328 156.0891,583.1547 L156.0891,583.9203 Q156.0891,584.7844 156.7125,585.3641 Q157.3359,585.9328 158.4516,585.9328 Q159.1078,585.9328 159.5672,585.7578 Q159.8406,585.6484 160.1359,585.3422 Q160.3219,585.1562 160.4203,585.1016 Q160.5297,585.0469 160.6719,585.0469 Q160.9016,585.0469 161.0766,585.2328 Q161.2625,585.4078 161.2625,585.6484 Q161.2625,585.8891 161.0219,586.1734 Q160.6719,586.5781 160.1141,586.8078 Q159.3594,587.125 158.4516,587.125 Q157.3906,587.125 156.5484,586.6875 Q155.8594,586.3375 155.3781,585.5937 Q154.8969,584.8391 154.8969,583.9422 L154.8969,583.1328 Q154.8969,582.2031 155.3234,581.4047 Q155.7609,580.5953 156.5266,580.1687 Q157.2922,579.7312 158.1562,579.7312 Q158.6703,579.7312 159.1187,579.8516 Q159.5781,579.9609 159.9609,580.2125 Z " fill="#000000"/><text fill="#000000" font-family="sans-serif" font-size="9.8" lengthAdjust="spacing" textLength="37.8" x="172.375" y="587.1578">Property</text><line style="stroke:#181818;stroke-width:0.3499999999999999;" x1="112.35" x2="247.45" y1="594.3" y2="594.3"/><text fill="#000000" font-family="sans-serif" font-size="9.8" lengthAdjust="spacing" textLength="106.4" x="115.85" y="607.6752">-Double areaOfProperty</text><text fill="#000000" font-family="sans-serif" font-size="9.8" lengthAdjust="spacing" textLength="128.1" x="115.85" y="620.71">-Double distanceFromCentre</text><text fill="#000000" font-family="sans-serif" font-size="9.8" lengthAdjust="spacing" textLength="104.3" x="115.85" y="633.7447">-String acceptanceDate</text><text fill="#000000" font-family="sans-serif" font-size="9.8" lengthAdjust="spacing" textLength="86.8" x="115.85" y="646.7795">-String requestDate</text><text fill="#000000" font-family="sans-serif" font-size="9.8" lengthAdjust="spacing" textLength="2.8" x="115.85" y="659.8143">&#160;</text><text fill="#000000" font-family="sans-serif" font-size="9.8" lengthAdjust="spacing" textLength="92.4" x="115.85" y="672.849">+getAcceptanceDate</text><line style="stroke:#181818;stroke-width:0.3499999999999999;" x1="112.35" x2="247.45" y1="678.1086" y2="678.1086"/><text fill="#000000" font-family="sans-serif" font-size="9.8" lengthAdjust="spacing" textLength="93.1" x="115.85" y="691.4838">-setAreaOfProperty()</text><text fill="#000000" font-family="sans-serif" font-size="9.8" lengthAdjust="spacing" textLength="115.5" x="115.85" y="704.5186">-setDistanceFromCentre()</text><text fill="#000000" font-family="sans-serif" font-size="9.8" lengthAdjust="spacing" textLength="81.9" x="115.85" y="717.5533">-setRequestDate()</text><text fill="#000000" font-family="sans-serif" font-size="9.8" lengthAdjust="spacing" textLength="96.6" x="115.85" y="730.5881">-setAcceptanceDate()</text><text fill="#000000" font-family="sans-serif" font-size="9.8" lengthAdjust="spacing" textLength="84.7" x="115.85" y="743.6229">+getRequestDate()</text><text fill="#000000" font-family="sans-serif" font-size="9.8" lengthAdjust="spacing" textLength="95.9" x="115.85" y="756.6576">+getAreaOfProperty()</text><text fill="#000000" font-family="sans-serif" font-size="9.8" lengthAdjust="spacing" textLength="118.3" x="115.85" y="769.6924">+getDistanceFromCentre()</text></g><polygon fill="none" points="113.2778,774.952,109.6937,789.3451,101.5003,783.9686" style="stroke:#181818;stroke-width:0.6999999999999998;"/><line style="stroke:#181818;stroke-width:0.6999999999999998;" x1="105.597" x2="104.125" y1="786.6568" y2="788.9"/><polygon fill="none" points="246.676,774.952,258.4631,783.9561,250.2754,789.3413" style="stroke:#181818;stroke-width:0.6999999999999998;"/><line style="stroke:#181818;stroke-width:0.6999999999999998;" x1="254.3693" x2="255.85" y1="786.6487" y2="788.9"/><line style="stroke:#181818;stroke-width:0.6999999999999998;" x1="248.15" x2="262.43" y1="747.5012" y2="763"/><line style="stroke:#181818;stroke-width:0.6999999999999998;" x1="179.9" x2="179.9" y1="571.9" y2="557.683"/><line style="stroke:#181818;stroke-width:0.6999999999999998;" x1="243.612" x2="252.525" y1="571.9" y2="557.697"/><line style="stroke:#181818;stroke-width:0.6999999999999998;" x1="116.1803" x2="107.275" y1="571.9" y2="557.711"/><line style="stroke:#181818;stroke-width:0.6999999999999998;" x1="161.6484" x2="157.5" y1="774.952" y2="798.028"/><!--class TypeOfTransaction--><g id="elem_TypeOfTransaction"><rect codeLine="62" fill="#F1F1F1" height="111.8086" id="TypeOfTransaction" rx="1.75" ry="1.75" style="stroke:#181818;stroke-width:0.3499999999999999;" width="112" x="4.9" y="345.45"/><ellipse cx="17.29" cy="356.65" fill="#ADD1B2" rx="7.7" ry="7.7" style="stroke:#181818;stroke-width:0.6999999999999998;"/><path d="M19.2259,353.7625 Q19.3353,353.6094 19.4666,353.5328 Q19.5978,353.4562 19.7509,353.4562 Q20.0134,353.4562 20.1775,353.6422 Q20.3416,353.8172 20.3416,354.2437 L20.3416,355.2609 Q20.3416,355.6875 20.1775,355.8734 Q20.0134,356.0594 19.7509,356.0594 Q19.5103,356.0594 19.3681,355.9172 Q19.2259,355.7859 19.1494,355.425 Q19.1166,355.1734 18.9853,355.0422 Q18.7556,354.7797 18.3291,354.6266 Q17.9025,354.4734 17.465,354.4734 Q16.9291,354.4734 16.4806,354.7031 Q16.0431,354.9328 15.6931,355.4578 Q15.3541,355.9828 15.3541,356.7047 L15.3541,357.4703 Q15.3541,358.3344 15.9775,358.9141 Q16.6009,359.4828 17.7166,359.4828 Q18.3728,359.4828 18.8322,359.3078 Q19.1056,359.1984 19.4009,358.8922 Q19.5869,358.7062 19.6853,358.6516 Q19.7947,358.5969 19.9369,358.5969 Q20.1666,358.5969 20.3416,358.7828 Q20.5275,358.9578 20.5275,359.1984 Q20.5275,359.4391 20.2869,359.7234 Q19.9369,360.1281 19.3791,360.3578 Q18.6244,360.675 17.7166,360.675 Q16.6556,360.675 15.8134,360.2375 Q15.1244,359.8875 14.6431,359.1437 Q14.1619,358.3891 14.1619,357.4922 L14.1619,356.6828 Q14.1619,355.7531 14.5884,354.9547 Q15.0259,354.1453 15.7916,353.7187 Q16.5572,353.2812 17.4212,353.2812 Q17.9353,353.2812 18.3837,353.4016 Q18.8431,353.5109 19.2259,353.7625 Z " fill="#000000"/><text fill="#000000" font-family="sans-serif" font-size="9.8" lengthAdjust="spacing" textLength="85.4" x="27.51" y="360.7078">TypeOfTransaction</text><line style="stroke:#181818;stroke-width:0.3499999999999999;" x1="5.6" x2="116.2" y1="367.85" y2="367.85"/><text fill="#000000" font-family="sans-serif" font-size="9.8" lengthAdjust="spacing" textLength="103.6" x="9.1" y="381.2252">-String transactionType</text><text fill="#000000" font-family="sans-serif" font-size="9.8" lengthAdjust="spacing" textLength="98.7" x="9.1" y="394.26">-String monetaryValue</text><line style="stroke:#181818;stroke-width:0.3499999999999999;" x1="5.6" x2="116.2" y1="399.5195" y2="399.5195"/><text fill="#000000" font-family="sans-serif" font-size="9.8" lengthAdjust="spacing" textLength="98.7" x="9.1" y="412.8947">-setTransactionType()</text><text fill="#000000" font-family="sans-serif" font-size="9.8" lengthAdjust="spacing" textLength="90.3" x="9.1" y="425.9295">-setMonetaryValue()</text><text fill="#000000" font-family="sans-serif" font-size="9.8" lengthAdjust="spacing" textLength="101.5" x="9.1" y="438.9643">+getTransactionType()</text><text fill="#000000" font-family="sans-serif" font-size="9.8" lengthAdjust="spacing" textLength="93.1" x="9.1" y="451.999">+getMonetaryValue()</text></g><!--class Address--><g id="elem_Address"><rect codeLine="72" fill="#F1F1F1" height="229.1215" id="Address" rx="1.75" ry="1.75" style="stroke:#181818;stroke-width:0.3499999999999999;" width="76.3" x="141.75" y="287"/><ellipse cx="160.125" cy="298.2" fill="#ADD1B2" rx="7.7" ry="7.7" style="stroke:#181818;stroke-width:0.6999999999999998;"/><path d="M162.0609,295.3125 Q162.1703,295.1594 162.3016,295.0828 Q162.4328,295.0062 162.5859,295.0062 Q162.8484,295.0062 163.0125,295.1922 Q163.1766,295.3672 163.1766,295.7937 L163.1766,296.8109 Q163.1766,297.2375 163.0125,297.4234 Q162.8484,297.6094 162.5859,297.6094 Q162.3453,297.6094 162.2031,297.4672 Q162.0609,297.3359 161.9844,296.975 Q161.9516,296.7234 161.8203,296.5922 Q161.5906,296.3297 161.1641,296.1766 Q160.7375,296.0234 160.3,296.0234 Q159.7641,296.0234 159.3156,296.2531 Q158.8781,296.4828 158.5281,297.0078 Q158.1891,297.5328 158.1891,298.2547 L158.1891,299.0203 Q158.1891,299.8844 158.8125,300.4641 Q159.4359,301.0328 160.5516,301.0328 Q161.2078,301.0328 161.6672,300.8578 Q161.9406,300.7484 162.2359,300.4422 Q162.4219,300.2562 162.5203,300.2016 Q162.6297,300.1469 162.7719,300.1469 Q163.0016,300.1469 163.1766,300.3328 Q163.3625,300.5078 163.3625,300.7484 Q163.3625,300.9891 163.1219,301.2734 Q162.7719,301.6781 162.2141,301.9078 Q161.4594,302.225 160.5516,302.225 Q159.4906,302.225 158.6484,301.7875 Q157.9594,301.4375 157.4781,300.6937 Q156.9969,299.9391 156.9969,299.0422 L156.9969,298.2328 Q156.9969,297.3031 157.4234,296.5047 Q157.8609,295.6953 158.6266,295.2687 Q159.3922,294.8312 160.2562,294.8312 Q160.7703,294.8312 161.2187,294.9516 Q161.6781,295.0609 162.0609,295.3125 Z " fill="#000000"/><text fill="#000000" font-family="sans-serif" font-size="9.8" lengthAdjust="spacing" textLength="36.4" x="171.675" y="302.2578">Address</text><line style="stroke:#181818;stroke-width:0.3499999999999999;" x1="142.45" x2="217.35" y1="309.4" y2="309.4"/><text fill="#000000" font-family="sans-serif" font-size="9.8" lengthAdjust="spacing" textLength="57.4" x="145.95" y="322.7752">-String street</text><text fill="#000000" font-family="sans-serif" font-size="9.8" lengthAdjust="spacing" textLength="46.9" x="145.95" y="335.81">-String city</text><text fill="#000000" font-family="sans-serif" font-size="9.8" lengthAdjust="spacing" textLength="60.9" x="145.95" y="348.8447">-String district</text><text fill="#000000" font-family="sans-serif" font-size="9.8" lengthAdjust="spacing" textLength="53.9" x="145.95" y="361.8795">-String state</text><text fill="#000000" font-family="sans-serif" font-size="9.8" lengthAdjust="spacing" textLength="67.9" x="145.95" y="374.9143">-String zipCode</text><line style="stroke:#181818;stroke-width:0.3499999999999999;" x1="142.45" x2="217.35" y1="380.1738" y2="380.1738"/><text fill="#000000" font-family="sans-serif" font-size="9.8" lengthAdjust="spacing" textLength="50.4" x="145.95" y="393.549">-setStreet()</text><text fill="#000000" font-family="sans-serif" font-size="9.8" lengthAdjust="spacing" textLength="40.6" x="145.95" y="406.5838">-setCity()</text><text fill="#000000" font-family="sans-serif" font-size="9.8" lengthAdjust="spacing" textLength="53.9" x="145.95" y="419.6186">-setDistrict()</text><text fill="#000000" font-family="sans-serif" font-size="9.8" lengthAdjust="spacing" textLength="46.9" x="145.95" y="432.6533">-setState()</text><text fill="#000000" font-family="sans-serif" font-size="9.8" lengthAdjust="spacing" textLength="60.9" x="145.95" y="445.6881">-setZipCode()</text><text fill="#000000" font-family="sans-serif" font-size="9.8" lengthAdjust="spacing" textLength="53.2" x="145.95" y="458.7229">+getStreet()</text><text fill="#000000" font-family="sans-serif" font-size="9.8" lengthAdjust="spacing" textLength="43.4" x="145.95" y="471.7576">+getCity()</text><text fill="#000000" font-family="sans-serif" font-size="9.8" lengthAdjust="spacing" textLength="56.7" x="145.95" y="484.7924">+getDistrict()</text><text fill="#000000" font-family="sans-serif" font-size="9.8" lengthAdjust="spacing" textLength="49.7" x="145.95" y="497.8271">+getState()</text><text fill="#000000" font-family="sans-serif" font-size="9.8" lengthAdjust="spacing" textLength="63.7" x="145.95" y="510.8619">+getZipCode()</text></g><!--class PropertyTypeRepository--><g id="elem_PropertyTypeRepository"><rect codeLine="91" fill="#F1F1F1" height="59.6695" id="PropertyTypeRepository" rx="1.75" ry="1.75" style="stroke:#181818;stroke-width:0.3499999999999999;" width="130.2" x="385.7" y="876.75"/><ellipse cx="396.2" cy="887.95" fill="#ADD1B2" rx="7.7" ry="7.7" style="stroke:#181818;stroke-width:0.6999999999999998;"/><path d="M398.1359,885.0625 Q398.2453,884.9094 398.3766,884.8328 Q398.5078,884.7562 398.6609,884.7562 Q398.9234,884.7562 399.0875,884.9422 Q399.2516,885.1172 399.2516,885.5437 L399.2516,886.5609 Q399.2516,886.9875 399.0875,887.1734 Q398.9234,887.3594 398.6609,887.3594 Q398.4203,887.3594 398.2781,887.2172 Q398.1359,887.0859 398.0594,886.725 Q398.0266,886.4734 397.8953,886.3422 Q397.6656,886.0797 397.2391,885.9266 Q396.8125,885.7734 396.375,885.7734 Q395.8391,885.7734 395.3906,886.0031 Q394.9531,886.2328 394.6031,886.7578 Q394.2641,887.2828 394.2641,888.0047 L394.2641,888.7703 Q394.2641,889.6344 394.8875,890.2141 Q395.5109,890.7828 396.6266,890.7828 Q397.2828,890.7828 397.7422,890.6078 Q398.0156,890.4984 398.3109,890.1922 Q398.4969,890.0062 398.5953,889.9516 Q398.7047,889.8969 398.8469,889.8969 Q399.0766,889.8969 399.2516,890.0828 Q399.4375,890.2578 399.4375,890.4984 Q399.4375,890.7391 399.1969,891.0234 Q398.8469,891.4281 398.2891,891.6578 Q397.5344,891.975 396.6266,891.975 Q395.5656,891.975 394.7234,891.5375 Q394.0344,891.1875 393.5531,890.4437 Q393.0719,889.6891 393.0719,888.7922 L393.0719,887.9828 Q393.0719,887.0531 393.4984,886.2547 Q393.9359,885.4453 394.7016,885.0187 Q395.4672,884.5812 396.3312,884.5812 Q396.8453,884.5812 397.2937,884.7016 Q397.7531,884.8109 398.1359,885.0625 Z " fill="#000000"/><text fill="#000000" font-family="sans-serif" font-size="9.8" lengthAdjust="spacing" textLength="107.8" x="406" y="892.0078">PropertyTypeRepository</text><line style="stroke:#181818;stroke-width:0.3499999999999999;" x1="386.4" x2="515.2" y1="899.15" y2="899.15"/><line style="stroke:#181818;stroke-width:0.3499999999999999;" x1="386.4" x2="515.2" y1="904.75" y2="904.75"/><text fill="#000000" font-family="sans-serif" font-size="9.8" lengthAdjust="spacing" textLength="67.2" x="389.9" y="918.1252">+addProperty()</text><text fill="#000000" font-family="sans-serif" font-size="9.8" lengthAdjust="spacing" textLength="86.8" x="389.9" y="931.16">+getPropertyType()</text></g><!--class Photo--><g id="elem_Photo"><rect codeLine="96" fill="#F1F1F1" height="72.7043" id="Photo" rx="1.75" ry="1.75" style="stroke:#181818;stroke-width:0.3499999999999999;" width="81.2" x="242.9" y="365.05"/><ellipse cx="268.205" cy="376.25" fill="#ADD1B2" rx="7.7" ry="7.7" style="stroke:#181818;stroke-width:0.6999999999999998;"/><path d="M270.1409,373.3625 Q270.2503,373.2094 270.3816,373.1328 Q270.5128,373.0562 270.6659,373.0562 Q270.9284,373.0562 271.0925,373.2422 Q271.2566,373.4172 271.2566,373.8437 L271.2566,374.8609 Q271.2566,375.2875 271.0925,375.4734 Q270.9284,375.6594 270.6659,375.6594 Q270.4253,375.6594 270.2831,375.5172 Q270.1409,375.3859 270.0644,375.025 Q270.0316,374.7734 269.9003,374.6422 Q269.6706,374.3797 269.2441,374.2266 Q268.8175,374.0734 268.38,374.0734 Q267.8441,374.0734 267.3956,374.3031 Q266.9581,374.5328 266.6081,375.0578 Q266.2691,375.5828 266.2691,376.3047 L266.2691,377.0703 Q266.2691,377.9344 266.8925,378.5141 Q267.5159,379.0828 268.6316,379.0828 Q269.2878,379.0828 269.7472,378.9078 Q270.0206,378.7984 270.3159,378.4922 Q270.5019,378.3062 270.6003,378.2516 Q270.7097,378.1969 270.8519,378.1969 Q271.0816,378.1969 271.2566,378.3828 Q271.4425,378.5578 271.4425,378.7984 Q271.4425,379.0391 271.2019,379.3234 Q270.8519,379.7281 270.2941,379.9578 Q269.5394,380.275 268.6316,380.275 Q267.5706,380.275 266.7284,379.8375 Q266.0394,379.4875 265.5581,378.7437 Q265.0769,377.9891 265.0769,377.0922 L265.0769,376.2828 Q265.0769,375.3531 265.5034,374.5547 Q265.9409,373.7453 266.7066,373.3187 Q267.4722,372.8812 268.3362,372.8812 Q268.8503,372.8812 269.2987,373.0016 Q269.7581,373.1109 270.1409,373.3625 Z " fill="#000000"/><text fill="#000000" font-family="sans-serif" font-size="9.8" lengthAdjust="spacing" textLength="25.9" x="281.295" y="380.3078">Photo</text><line style="stroke:#181818;stroke-width:0.3499999999999999;" x1="243.6" x2="323.4" y1="387.45" y2="387.45"/><text fill="#000000" font-family="sans-serif" font-size="9.8" lengthAdjust="spacing" textLength="71.4" x="247.1" y="400.8252">-Integer photoID</text><text fill="#000000" font-family="sans-serif" font-size="9.8" lengthAdjust="spacing" textLength="72.8" x="247.1" y="413.86">-String photoURI</text><line style="stroke:#181818;stroke-width:0.3499999999999999;" x1="243.6" x2="323.4" y1="419.1195" y2="419.1195"/><text fill="#000000" font-family="sans-serif" font-size="9.8" lengthAdjust="spacing" textLength="72.8" x="247.1" y="432.4947">+setPhotoData()</text></g><!--class Building--><g id="elem_Building"><rect codeLine="103" fill="#F1F1F1" height="150.9129" id="Building" rx="1.75" ry="1.75" style="stroke:#181818;stroke-width:0.3499999999999999;" width="111.3" x="249.55" y="830.9"/><ellipse cx="284.725" cy="842.1" fill="#ADD1B2" rx="7.7" ry="7.7" style="stroke:#181818;stroke-width:0.6999999999999998;"/><path d="M286.6609,839.2125 Q286.7703,839.0594 286.9016,838.9828 Q287.0328,838.9062 287.1859,838.9062 Q287.4484,838.9062 287.6125,839.0922 Q287.7766,839.2672 287.7766,839.6937 L287.7766,840.7109 Q287.7766,841.1375 287.6125,841.3234 Q287.4484,841.5094 287.1859,841.5094 Q286.9453,841.5094 286.8031,841.3672 Q286.6609,841.2359 286.5844,840.875 Q286.5516,840.6234 286.4203,840.4922 Q286.1906,840.2297 285.7641,840.0766 Q285.3375,839.9234 284.9,839.9234 Q284.3641,839.9234 283.9156,840.1531 Q283.4781,840.3828 283.1281,840.9078 Q282.7891,841.4328 282.7891,842.1547 L282.7891,842.9203 Q282.7891,843.7844 283.4125,844.3641 Q284.0359,844.9328 285.1516,844.9328 Q285.8078,844.9328 286.2672,844.7578 Q286.5406,844.6484 286.8359,844.3422 Q287.0219,844.1562 287.1203,844.1016 Q287.2297,844.0469 287.3719,844.0469 Q287.6016,844.0469 287.7766,844.2328 Q287.9625,844.4078 287.9625,844.6484 Q287.9625,844.8891 287.7219,845.1734 Q287.3719,845.5781 286.8141,845.8078 Q286.0594,846.125 285.1516,846.125 Q284.0906,846.125 283.2484,845.6875 Q282.5594,845.3375 282.0781,844.5937 Q281.5969,843.8391 281.5969,842.9422 L281.5969,842.1328 Q281.5969,841.2031 282.0234,840.4047 Q282.4609,839.5953 283.2266,839.1687 Q283.9922,838.7312 284.8562,838.7312 Q285.3703,838.7312 285.8187,838.8516 Q286.2781,838.9609 286.6609,839.2125 Z " fill="#000000"/><text fill="#000000" font-family="sans-serif" font-size="9.8" lengthAdjust="spacing" textLength="35" x="299.075" y="846.1578">Building</text><line style="stroke:#181818;stroke-width:0.3499999999999999;" x1="250.25" x2="360.15" y1="853.3" y2="853.3"/><text fill="#000000" font-family="sans-serif" font-size="9.8" lengthAdjust="spacing" textLength="81.2" x="253.75" y="866.6752">-Integer bedrooms</text><text fill="#000000" font-family="sans-serif" font-size="9.8" lengthAdjust="spacing" textLength="84" x="253.75" y="879.71">-Integer bathrooms</text><text fill="#000000" font-family="sans-serif" font-size="9.8" lengthAdjust="spacing" textLength="102.9" x="253.75" y="892.7447">-Integer parkingSpaces</text><line style="stroke:#181818;stroke-width:0.3499999999999999;" x1="250.25" x2="360.15" y1="898.0043" y2="898.0043"/><text fill="#000000" font-family="sans-serif" font-size="9.8" lengthAdjust="spacing" textLength="68.6" x="253.75" y="911.3795">-setBedrooms()</text><text fill="#000000" font-family="sans-serif" font-size="9.8" lengthAdjust="spacing" textLength="71.4" x="253.75" y="924.4143">-setBathrooms()</text><text fill="#000000" font-family="sans-serif" font-size="9.8" lengthAdjust="spacing" textLength="90.3" x="253.75" y="937.449">-setParkingSpaces()</text><text fill="#000000" font-family="sans-serif" font-size="9.8" lengthAdjust="spacing" textLength="71.4" x="253.75" y="950.4838">+getBedrooms()</text><text fill="#000000" font-family="sans-serif" font-size="9.8" lengthAdjust="spacing" textLength="74.2" x="253.75" y="963.5186">+getBathrooms()</text><text fill="#000000" font-family="sans-serif" font-size="9.8" lengthAdjust="spacing" textLength="93.1" x="253.75" y="976.5533">+getParkingSpaces()</text></g><!--class Equipment--><g id="elem_Equipment"><rect codeLine="116" fill="#F1F1F1" height="72.7043" id="Equipment" rx="1.75" ry="1.75" style="stroke:#181818;stroke-width:0.3499999999999999;" width="107.1" x="337.05" y="637"/><ellipse cx="364.56" cy="648.2" fill="#ADD1B2" rx="7.7" ry="7.7" style="stroke:#181818;stroke-width:0.6999999999999998;"/><path d="M366.4959,645.3125 Q366.6053,645.1594 366.7366,645.0828 Q366.8678,645.0062 367.0209,645.0062 Q367.2834,645.0062 367.4475,645.1922 Q367.6116,645.3672 367.6116,645.7937 L367.6116,646.8109 Q367.6116,647.2375 367.4475,647.4234 Q367.2834,647.6094 367.0209,647.6094 Q366.7803,647.6094 366.6381,647.4672 Q366.4959,647.3359 366.4194,646.975 Q366.3866,646.7234 366.2553,646.5922 Q366.0256,646.3297 365.5991,646.1766 Q365.1725,646.0234 364.735,646.0234 Q364.1991,646.0234 363.7506,646.2531 Q363.3131,646.4828 362.9631,647.0078 Q362.6241,647.5328 362.6241,648.2547 L362.6241,649.0203 Q362.6241,649.8844 363.2475,650.4641 Q363.8709,651.0328 364.9866,651.0328 Q365.6428,651.0328 366.1022,650.8578 Q366.3756,650.7484 366.6709,650.4422 Q366.8569,650.2562 366.9553,650.2016 Q367.0647,650.1469 367.2069,650.1469 Q367.4366,650.1469 367.6116,650.3328 Q367.7975,650.5078 367.7975,650.7484 Q367.7975,650.9891 367.5569,651.2734 Q367.2069,651.6781 366.6491,651.9078 Q365.8944,652.225 364.9866,652.225 Q363.9256,652.225 363.0834,651.7875 Q362.3944,651.4375 361.9131,650.6937 Q361.4319,649.9391 361.4319,649.0422 L361.4319,648.2328 Q361.4319,647.3031 361.8584,646.5047 Q362.2959,645.6953 363.0616,645.2687 Q363.8272,644.8312 364.6912,644.8312 Q365.2053,644.8312 365.6537,644.9516 Q366.1131,645.0609 366.4959,645.3125 Z " fill="#000000"/><text fill="#000000" font-family="sans-serif" font-size="9.8" lengthAdjust="spacing" textLength="46.9" x="378.14" y="652.2578">Equipment</text><line style="stroke:#181818;stroke-width:0.3499999999999999;" x1="337.75" x2="443.45" y1="659.4" y2="659.4"/><text fill="#000000" font-family="sans-serif" font-size="9.8" lengthAdjust="spacing" textLength="56.7" x="341.25" y="672.7752">-String name</text><line style="stroke:#181818;stroke-width:0.3499999999999999;" x1="337.75" x2="443.45" y1="678.0348" y2="678.0348"/><text fill="#000000" font-family="sans-serif" font-size="9.8" lengthAdjust="spacing" textLength="95.9" x="341.25" y="691.41">-setEquipmentName()</text><text fill="#000000" font-family="sans-serif" font-size="9.8" lengthAdjust="spacing" textLength="98.7" x="341.25" y="704.4447">+getEquipmentName()</text></g><!--class House--><g id="elem_House"><rect codeLine="123" fill="#F1F1F1" height="150.9129" id="House" rx="1.75" ry="1.75" style="stroke:#181818;stroke-width:0.3499999999999999;" width="98" x="256.2" y="1024.1"/><ellipse cx="288.225" cy="1035.3" fill="#ADD1B2" rx="7.7" ry="7.7" style="stroke:#181818;stroke-width:0.6999999999999998;"/><path d="M290.1609,1032.4125 Q290.2703,1032.2594 290.4016,1032.1828 Q290.5328,1032.1062 290.6859,1032.1062 Q290.9484,1032.1062 291.1125,1032.2922 Q291.2766,1032.4672 291.2766,1032.8937 L291.2766,1033.9109 Q291.2766,1034.3375 291.1125,1034.5234 Q290.9484,1034.7094 290.6859,1034.7094 Q290.4453,1034.7094 290.3031,1034.5672 Q290.1609,1034.4359 290.0844,1034.075 Q290.0516,1033.8234 289.9203,1033.6922 Q289.6906,1033.4297 289.2641,1033.2766 Q288.8375,1033.1234 288.4,1033.1234 Q287.8641,1033.1234 287.4156,1033.3531 Q286.9781,1033.5828 286.6281,1034.1078 Q286.2891,1034.6328 286.2891,1035.3547 L286.2891,1036.1203 Q286.2891,1036.9844 286.9125,1037.5641 Q287.5359,1038.1328 288.6516,1038.1328 Q289.3078,1038.1328 289.7672,1037.9578 Q290.0406,1037.8484 290.3359,1037.5422 Q290.5219,1037.3562 290.6203,1037.3016 Q290.7297,1037.2469 290.8719,1037.2469 Q291.1016,1037.2469 291.2766,1037.4328 Q291.4625,1037.6078 291.4625,1037.8484 Q291.4625,1038.0891 291.2219,1038.3734 Q290.8719,1038.7781 290.3141,1039.0078 Q289.5594,1039.325 288.6516,1039.325 Q287.5906,1039.325 286.7484,1038.8875 Q286.0594,1038.5375 285.5781,1037.7937 Q285.0969,1037.0391 285.0969,1036.1422 L285.0969,1035.3328 Q285.0969,1034.4031 285.5234,1033.6047 Q285.9609,1032.7953 286.7266,1032.3687 Q287.4922,1031.9312 288.3562,1031.9312 Q288.8703,1031.9312 289.3187,1032.0516 Q289.7781,1032.1609 290.1609,1032.4125 Z " fill="#000000"/><text fill="#000000" font-family="sans-serif" font-size="9.8" lengthAdjust="spacing" textLength="28" x="302.575" y="1039.3578">House</text><line style="stroke:#181818;stroke-width:0.3499999999999999;" x1="256.9" x2="353.5" y1="1046.5" y2="1046.5"/><text fill="#000000" font-family="sans-serif" font-size="9.8" lengthAdjust="spacing" textLength="86.1" x="260.4" y="1059.8752">-Boolean basement</text><text fill="#000000" font-family="sans-serif" font-size="9.8" lengthAdjust="spacing" textLength="56" x="260.4" y="1072.91">-Boolean loft</text><text fill="#000000" font-family="sans-serif" font-size="9.8" lengthAdjust="spacing" textLength="89.6" x="260.4" y="1085.9447">-String sunExposure</text><line style="stroke:#181818;stroke-width:0.3499999999999999;" x1="256.9" x2="353.5" y1="1091.2043" y2="1091.2043"/><text fill="#000000" font-family="sans-serif" font-size="9.8" lengthAdjust="spacing" textLength="67.9" x="260.4" y="1104.5795">-setBasement()</text><text fill="#000000" font-family="sans-serif" font-size="9.8" lengthAdjust="spacing" textLength="40.6" x="260.4" y="1117.6143">-setLoft()</text><text fill="#000000" font-family="sans-serif" font-size="9.8" lengthAdjust="spacing" textLength="82.6" x="260.4" y="1130.649">-setSunExposure()</text><text fill="#000000" font-family="sans-serif" font-size="9.8" lengthAdjust="spacing" textLength="70.7" x="260.4" y="1143.6838">+getBasement()</text><text fill="#000000" font-family="sans-serif" font-size="9.8" lengthAdjust="spacing" textLength="43.4" x="260.4" y="1156.7186">+getLoft()</text><text fill="#000000" font-family="sans-serif" font-size="9.8" lengthAdjust="spacing" textLength="85.4" x="260.4" y="1169.7533">+getSunExposure()</text></g><!--class VisitRequestUI--><g id="elem_VisitRequestUI"><rect codeLine="144" fill="#F1F1F1" height="46.6348" id="VisitRequestUI" rx="1.75" ry="1.75" style="stroke:#181818;stroke-width:0.3499999999999999;" width="86.1" x="509.95" y="198.1"/><ellipse cx="520.45" cy="209.3" fill="#ADD1B2" rx="7.7" ry="7.7" style="stroke:#181818;stroke-width:0.6999999999999998;"/><path d="M522.3859,206.4125 Q522.4953,206.2594 522.6266,206.1828 Q522.7578,206.1062 522.9109,206.1062 Q523.1734,206.1062 523.3375,206.2922 Q523.5016,206.4672 523.5016,206.8937 L523.5016,207.9109 Q523.5016,208.3375 523.3375,208.5234 Q523.1734,208.7094 522.9109,208.7094 Q522.6703,208.7094 522.5281,208.5672 Q522.3859,208.4359 522.3094,208.075 Q522.2766,207.8234 522.1453,207.6922 Q521.9156,207.4297 521.4891,207.2766 Q521.0625,207.1234 520.625,207.1234 Q520.0891,207.1234 519.6406,207.3531 Q519.2031,207.5828 518.8531,208.1078 Q518.5141,208.6328 518.5141,209.3547 L518.5141,210.1203 Q518.5141,210.9844 519.1375,211.5641 Q519.7609,212.1328 520.8766,212.1328 Q521.5328,212.1328 521.9922,211.9578 Q522.2656,211.8484 522.5609,211.5422 Q522.7469,211.3562 522.8453,211.3016 Q522.9547,211.2469 523.0969,211.2469 Q523.3266,211.2469 523.5016,211.4328 Q523.6875,211.6078 523.6875,211.8484 Q523.6875,212.0891 523.4469,212.3734 Q523.0969,212.7781 522.5391,213.0078 Q521.7844,213.325 520.8766,213.325 Q519.8156,213.325 518.9734,212.8875 Q518.2844,212.5375 517.8031,211.7937 Q517.3219,211.0391 517.3219,210.1422 L517.3219,209.3328 Q517.3219,208.4031 517.7484,207.6047 Q518.1859,206.7953 518.9516,206.3687 Q519.7172,205.9312 520.5812,205.9312 Q521.0953,205.9312 521.5437,206.0516 Q522.0031,206.1609 522.3859,206.4125 Z " fill="#000000"/><text fill="#000000" font-family="sans-serif" font-size="9.8" lengthAdjust="spacing" textLength="63.7" x="530.25" y="213.3578">VisitRequestUI</text><line style="stroke:#181818;stroke-width:0.3499999999999999;" x1="510.65" x2="595.35" y1="220.5" y2="220.5"/><line style="stroke:#181818;stroke-width:0.3499999999999999;" x1="510.65" x2="595.35" y1="226.1" y2="226.1"/><text fill="#000000" font-family="sans-serif" font-size="9.8" lengthAdjust="spacing" textLength="72.1" x="514.15" y="239.4752">+keepProperty()</text></g><!--class VisitRequestController--><g id="elem_VisitRequestController"><rect codeLine="148" fill="#F1F1F1" height="46.6348" id="VisitRequestController" rx="1.75" ry="1.75" style="stroke:#181818;stroke-width:0.3499999999999999;" width="342.3" x="381.85" y="378"/><ellipse cx="500.675" cy="389.2" fill="#ADD1B2" rx="7.7" ry="7.7" style="stroke:#181818;stroke-width:0.6999999999999998;"/><path d="M502.6109,386.3125 Q502.7203,386.1594 502.8516,386.0828 Q502.9828,386.0062 503.1359,386.0062 Q503.3984,386.0062 503.5625,386.1922 Q503.7266,386.3672 503.7266,386.7937 L503.7266,387.8109 Q503.7266,388.2375 503.5625,388.4234 Q503.3984,388.6094 503.1359,388.6094 Q502.8953,388.6094 502.7531,388.4672 Q502.6109,388.3359 502.5344,387.975 Q502.5016,387.7234 502.3703,387.5922 Q502.1406,387.3297 501.7141,387.1766 Q501.2875,387.0234 500.85,387.0234 Q500.3141,387.0234 499.8656,387.2531 Q499.4281,387.4828 499.0781,388.0078 Q498.7391,388.5328 498.7391,389.2547 L498.7391,390.0203 Q498.7391,390.8844 499.3625,391.4641 Q499.9859,392.0328 501.1016,392.0328 Q501.7578,392.0328 502.2172,391.8578 Q502.4906,391.7484 502.7859,391.4422 Q502.9719,391.2562 503.0703,391.2016 Q503.1797,391.1469 503.3219,391.1469 Q503.5516,391.1469 503.7266,391.3328 Q503.9125,391.5078 503.9125,391.7484 Q503.9125,391.9891 503.6719,392.2734 Q503.3219,392.6781 502.7641,392.9078 Q502.0094,393.225 501.1016,393.225 Q500.0406,393.225 499.1984,392.7875 Q498.5094,392.4375 498.0281,391.6937 Q497.5469,390.9391 497.5469,390.0422 L497.5469,389.2328 Q497.5469,388.3031 497.9734,387.5047 Q498.4109,386.6953 499.1766,386.2687 Q499.9422,385.8312 500.8062,385.8312 Q501.3203,385.8312 501.7687,385.9516 Q502.2281,386.0609 502.6109,386.3125 Z " fill="#000000"/><text fill="#000000" font-family="sans-serif" font-size="9.8" lengthAdjust="spacing" textLength="98.7" x="515.025" y="393.2578">VisitRequestController</text><line style="stroke:#181818;stroke-width:0.3499999999999999;" x1="382.55" x2="723.45" y1="400.4" y2="400.4"/><line style="stroke:#181818;stroke-width:0.3499999999999999;" x1="382.55" x2="723.45" y1="406" y2="406"/><text fill="#000000" font-family="sans-serif" font-size="9.8" lengthAdjust="spacing" textLength="333.9" x="386.05" y="419.3752">+createVisitRequest(name, telephoneNumber, date, timeFrame, propertyID)</text></g><!--class Land--><g id="elem_Land"><rect codeLine="152" fill="#F1F1F1" height="33.6" id="Land" rx="1.75" ry="1.75" style="stroke:#181818;stroke-width:0.3499999999999999;" width="44.8" x="65.8" y="889.7"/><ellipse cx="76.3" cy="900.9" fill="#ADD1B2" rx="7.7" ry="7.7" style="stroke:#181818;stroke-width:0.6999999999999998;"/><path d="M78.2359,898.0125 Q78.3453,897.8594 78.4766,897.7828 Q78.6078,897.7062 78.7609,897.7062 Q79.0234,897.7062 79.1875,897.8922 Q79.3516,898.0672 79.3516,898.4937 L79.3516,899.5109 Q79.3516,899.9375 79.1875,900.1234 Q79.0234,900.3094 78.7609,900.3094 Q78.5203,900.3094 78.3781,900.1672 Q78.2359,900.0359 78.1594,899.675 Q78.1266,899.4234 77.9953,899.2922 Q77.7656,899.0297 77.3391,898.8766 Q76.9125,898.7234 76.475,898.7234 Q75.9391,898.7234 75.4906,898.9531 Q75.0531,899.1828 74.7031,899.7078 Q74.3641,900.2328 74.3641,900.9547 L74.3641,901.7203 Q74.3641,902.5844 74.9875,903.1641 Q75.6109,903.7328 76.7266,903.7328 Q77.3828,903.7328 77.8422,903.5578 Q78.1156,903.4484 78.4109,903.1422 Q78.5969,902.9562 78.6953,902.9016 Q78.8047,902.8469 78.9469,902.8469 Q79.1766,902.8469 79.3516,903.0328 Q79.5375,903.2078 79.5375,903.4484 Q79.5375,903.6891 79.2969,903.9734 Q78.9469,904.3781 78.3891,904.6078 Q77.6344,904.925 76.7266,904.925 Q75.6656,904.925 74.8234,904.4875 Q74.1344,904.1375 73.6531,903.3937 Q73.1719,902.6391 73.1719,901.7422 L73.1719,900.9328 Q73.1719,900.0031 73.5984,899.2047 Q74.0359,898.3953 74.8016,897.9687 Q75.5672,897.5312 76.4312,897.5312 Q76.9453,897.5312 77.3937,897.6516 Q77.8531,897.7609 78.2359,898.0125 Z " fill="#000000"/><text fill="#000000" font-family="sans-serif" font-size="9.8" lengthAdjust="spacing" textLength="22.4" x="86.1" y="904.9578">Land</text><line style="stroke:#181818;stroke-width:0.3499999999999999;" x1="66.5" x2="109.9" y1="912.1" y2="912.1"/><line style="stroke:#181818;stroke-width:0.3499999999999999;" x1="66.5" x2="109.9" y1="917.7" y2="917.7"/></g><!--reverse link Repositories to AnnouncementRepository--><g id="link_Repositories_AnnouncementRepository"><path d="M592.9,673.4 C592.9,673.4 720.125,673.4 720.125,673.4 C720.125,673.4 720.125,813.897 720.125,876.743 " fill="none" id="Repositories-backto-AnnouncementRepository" style="stroke:#181818;stroke-width:0.6999999999999998;"/></g><!--reverse link Repositories to VisitsRequestRepository--><g id="link_Repositories_VisitsRequestRepository"><path d="M627.2,737.1 C627.2,737.1 627.2,813.568 627.2,863.751 " fill="none" id="Repositories-backto-VisitsRequestRepository" style="stroke:#181818;stroke-width:0.6999999999999998;"/></g><!--reverse link Repositories to PropertyTypeRepository--><g id="link_Repositories_PropertyTypeRepository"><path d="M507.85,737.1 C507.85,737.1 507.85,827.974 507.85,876.603 " fill="none" id="Repositories-backto-PropertyTypeRepository" style="stroke:#181818;stroke-width:0.6999999999999998;"/></g><!--reverse link Property to Building--><g id="link_Property_Building"><path d="M255.85,788.9 C255.85,788.9 255.85,807.94 255.85,830.69 " fill="none" id="Property-backto-Building" style="stroke:#181818;stroke-width:0.6999999999999998;"/></g><!--reverse link Building to House--><g id="link_Building_House"><path d="M305.2,996.303 C305.2,996.303 305.2,1023.799 305.2,1023.799 " fill="none" id="Building-backto-House" style="stroke:#181818;stroke-width:0.6999999999999998;"/><polygon fill="none" points="300.3,996.303,305.2,982.303,310.1,996.303,300.3,996.303" style="stroke:#181818;stroke-width:0.6999999999999998;"/></g><!--reverse link Property to Land--><g id="link_Property_Land"><path d="M104.125,788.9 C104.125,788.9 104.125,857.136 104.125,889.651 " fill="none" id="Property-backto-Land" style="stroke:#181818;stroke-width:0.6999999999999998;"/></g><!--link User to VisitRequestUI--><g id="link_User_VisitRequestUI"><path codeLine="159" d="M553,156.184 C553,156.184 553,194.39 553,194.39 " fill="none" id="User-to-VisitRequestUI" style="stroke:#181818;stroke-width:0.6999999999999998;stroke-dasharray:7.0,7.0;"/><polygon fill="#181818" points="553,197.89,555.8,191.59,553,194.39,550.2,191.59,553,197.89" style="stroke:#181818;stroke-width:0.6999999999999998;"/></g><!--link VisitRequestUI to VisitRequestController--><g id="link_VisitRequestUI_VisitRequestController"><path codeLine="160" d="M553,245.07 C553,245.07 553,374.423 553,374.423 " fill="none" id="VisitRequestUI-to-VisitRequestController" style="stroke:#181818;stroke-width:0.6999999999999998;stroke-dasharray:7.0,7.0;"/><polygon fill="#181818" points="553,377.923,555.8,371.623,553,374.423,550.2,371.623,553,377.923" style="stroke:#181818;stroke-width:0.6999999999999998;"/></g><!--link VisitRequest to VisitsRequestRepository--><g id="link_VisitRequest_VisitsRequestRepository"><path codeLine="163" d="M202.3,863.8 C202.3,840.721 202.3,816.9 202.3,816.9 C202.3,816.9 583.8,816.9 583.8,816.9 C583.8,816.9 583.8,840.721 583.8,863.8 " fill="none" id="VisitRequest-VisitsRequestRepository" style="stroke:#181818;stroke-width:0.6999999999999998;"/><polygon fill="#000000" points="344.75,810.3519,338.4184,808.2946,338.4184,812.4091,344.75,810.3519" style="stroke:#000000;stroke-width:0.6999999999999998;"/><text fill="#000000" font-family="sans-serif" font-size="9.1" lengthAdjust="spacing" textLength="44.8" x="347.55" y="814.1198">is stored in</text><text fill="#000000" font-family="sans-serif" font-size="9.1" lengthAdjust="spacing" textLength="16.8" x="187.2062" y="855.7824">1...*</text><text fill="#000000" font-family="sans-serif" font-size="9.1" lengthAdjust="spacing" textLength="4.9" x="574.677" y="855.7824">1</text></g><!--link VisitRequestController to Repositories--><g id="link_VisitRequestController_Repositories"><path codeLine="164" d="M585.2,425.11 C585.2,425.11 585.2,606.27 585.2,606.27 " fill="none" id="VisitRequestController-to-Repositories" style="stroke:#181818;stroke-width:0.6999999999999998;stroke-dasharray:7.0,7.0;"/><polygon fill="#181818" points="585.2,609.77,588,603.47,585.2,606.27,582.4,603.47,585.2,609.77" style="stroke:#181818;stroke-width:0.6999999999999998;"/></g><!--link VisitRequestController to VisitRequest--><g id="link_VisitRequestController_VisitRequest"><path codeLine="165" d="M471.975,425.061 C471.975,511.119 471.975,802.9 471.975,802.9 C471.975,802.9 179.9,802.9 179.9,802.9 C179.9,802.9 179.9,860.265 179.9,860.265 " fill="none" id="VisitRequestController-to-VisitRequest" style="stroke:#181818;stroke-width:0.6999999999999998;stroke-dasharray:7.0,7.0;"/><polygon fill="#181818" points="179.9,863.765,182.7,857.465,179.9,860.265,177.1,857.465,179.9,863.765" style="stroke:#181818;stroke-width:0.6999999999999998;"/></g><!--link Property to PropertyTypeRepository--><g id="link_Property_PropertyTypeRepository"><path codeLine="168" d="M262.43,763 C330.148,763 414.925,763 414.925,763 C414.925,763 414.925,834.337 414.925,876.421 " fill="none" id="Property-PropertyTypeRepository" style="stroke:#181818;stroke-width:0.6999999999999998;"/><polygon fill="#000000" points="315.5796,754.3631,319.4323,759.7924,321.8878,756.491,315.5796,754.3631" style="stroke:#000000;stroke-width:0.6999999999999998;"/><text fill="#000000" font-family="sans-serif" font-size="9.1" lengthAdjust="spacing" textLength="70" x="324.688" y="760.2198">has propertyType</text><text fill="#000000" font-family="sans-serif" font-size="9.1" lengthAdjust="spacing" textLength="4.9" x="267.874" y="766.2835">1</text><text fill="#000000" font-family="sans-serif" font-size="9.1" lengthAdjust="spacing" textLength="4.9" x="404.1565" y="868.8265">1</text></g><!--link Address to Property--><g id="link_Address_Property"><path codeLine="169" d="M179.9,515.991 C179.9,529.781 179.9,543.872 179.9,557.683 " fill="none" id="Address-Property" style="stroke:#181818;stroke-width:0.6999999999999998;"/><polygon fill="#000000" points="183.4,526.7889,181.3428,533.1204,185.4572,533.1204,183.4,526.7889" style="stroke:#000000;stroke-width:0.6999999999999998;"/><text fill="#000000" font-family="sans-serif" font-size="9.1" lengthAdjust="spacing" textLength="49.7" x="189.7" y="534.0568">has address</text><text fill="#000000" font-family="sans-serif" font-size="9.1" lengthAdjust="spacing" textLength="4.9" x="174.8813" y="531.6467">1</text><text fill="#000000" font-family="sans-serif" font-size="9.1" lengthAdjust="spacing" textLength="4.9" x="174.889" y="550.0932">1</text></g><!--link Equipment to Building--><g id="link_Equipment_Building"><path codeLine="170" d="M348.95,709.821 C348.95,742.091 348.95,790.237 348.95,830.816 " fill="none" id="Equipment-Building" style="stroke:#181818;stroke-width:0.6999999999999998;"/><polygon fill="#000000" points="267.75,773.5739,265.6928,779.9054,269.8072,779.9054,267.75,773.5739" style="stroke:#000000;stroke-width:0.6999999999999998;"/><text fill="#000000" font-family="sans-serif" font-size="9.1" lengthAdjust="spacing" textLength="74.2" x="274.05" y="780.8418">has equipmentList</text><text fill="#000000" font-family="sans-serif" font-size="9.1" lengthAdjust="spacing" textLength="4.9" x="338.3997" y="725.0888">1</text><text fill="#000000" font-family="sans-serif" font-size="9.1" lengthAdjust="spacing" textLength="4.9" x="346.9539" y="823.0132">1</text></g><!--link Photo to Property--><g id="link_Photo_Property"><path codeLine="171" d="M252.525,438.123 C252.525,468.937 252.525,514.696 252.525,557.697 " fill="none" id="Photo-Property" style="stroke:#181818;stroke-width:0.6999999999999998;"/><polygon fill="#000000" points="256.025,487.8619,253.9678,494.1934,258.0822,494.1934,256.025,487.8619" style="stroke:#000000;stroke-width:0.6999999999999998;"/><text fill="#000000" font-family="sans-serif" font-size="9.1" lengthAdjust="spacing" textLength="44.8" x="262.325" y="495.1298">has photos</text><text fill="#000000" font-family="sans-serif" font-size="9.1" lengthAdjust="spacing" textLength="23.1" x="224.2423" y="453.1557">1...30</text><text fill="#000000" font-family="sans-serif" font-size="9.1" lengthAdjust="spacing" textLength="4.9" x="250.8048" y="550.1079">1</text></g><!--link TypeOfTransaction to Property--><g id="link_TypeOfTransaction_Property"><path codeLine="172" d="M107.275,457.471 C107.275,486.465 107.275,522.991 107.275,557.711 " fill="none" id="TypeOfTransaction-Property" style="stroke:#181818;stroke-width:0.6999999999999998;"/><polygon fill="#000000" points="19.775,497.5429,17.7178,503.8744,21.8322,503.8744,19.775,497.5429" style="stroke:#000000;stroke-width:0.6999999999999998;"/><text fill="#000000" font-family="sans-serif" font-size="9.1" lengthAdjust="spacing" textLength="80.5" x="26.075" y="504.8108">has type of property</text><text fill="#000000" font-family="sans-serif" font-size="9.1" lengthAdjust="spacing" textLength="4.9" x="106.1498" y="472.6334">1</text><text fill="#000000" font-family="sans-serif" font-size="9.1" lengthAdjust="spacing" textLength="4.9" x="98.9732" y="550.1225">1</text></g><!--reverse link Property to VisitRequest--><g id="link_Property_VisitRequest"><path codeLine="175" d="M157.5,798.028 C157.5,798.028 157.5,863.576 157.5,863.576 " fill="none" id="Property-backto-VisitRequest" style="stroke:#181818;stroke-width:0.6999999999999998;"/><polygon fill="#181818" points="157.5,788.928,154.7,793.128,157.5,797.328,160.3,793.128,157.5,788.928" style="stroke:#181818;stroke-width:0.6999999999999998;"/></g><!--SRC=[ZLPBRziu4BxhLn2-96bjezszBOe2TfoY1j8sY9CUUcEaiKn48bMIQki6-UzBKXGr8oj5VJ4qCz-y7pIFGZPSyverF7_a9UpiiGAc8RTSbXLa9WcO0o_KJo5BjkULmPnIgxRPoWDeuL0vi7yGin8IxB41fhGzg2n3hBpYngoirUAXjR3DbTo9ty3UPDbP1NlBh69Qb0VB2k4T4afcMS2mUmEQFMNC_HOxXtTEILu38K3DHRKg2Wt644RZDFnKkY142nKq1oNXSri_WEvuYqNuV-tDdNi3Sw9rdbHTT78bsC-z6_xZQko29zvWyvvmDpBzdFLXhgHKhKje3TBUGgECi4eV6Voo80l34ac0UKhgCEWyEiQBuaQh1hGz4dOJYHV8w5VXT9fR-Dw2-Nkh0HL1o2eX_q0V5nIvodDeB1HZQA9Jx3DnDf9ZFuJUQ4rVmpvkriTAobvmIxl6YXe-Q5_4PAFN4FLlLFlWHeHhu5_sDqHfP1N2X3due5LzwTAigGaUOl82cx5rtKKIw1t3k88IIp53dh4viOEOjuCgH5qHs-T35Kx5Go-TkXh8KnvvngH7GoRlt1xuih_JN1eUvfcEi1qONfBmQZSVbklZLrwrA3Tt588Y_OG1oCLfXEUC4SdjEC7KMUE20qj8kHXtbqk75haT0STL_osQIrMWg7P1DmhcKfmKtkj5f9sbXVxMwKJX4QMUW9JsjKDAEmXjXq7foN3uNFxTia2x2Ad6UeZ-Wx8gPduhBPHkk1jFssxeKlUq-zjjbyJNBWC1wTgMOtNhLbI5bx-A3ew6kpVn08LMgZOZAhU72RAxPkwcbJjtGi4CLLn77QWgwru1ejrWDCh821v88tXtJYWyXNhrlHMDt_8JTp8PJqB-RY6jOthI-b6vrPhAswSpcbWhLG6NBayct1TAhTH-D0cjlFhb-gFLoADrnA8CNJiWRlK1Hd93S9w4SA6R2MuuUBX7-qS5fY4LMzdjDxmYItASNsZfFmeGvlF4PRlVnjbv16ZGy4oUmKlbzgwgAj0HbBjjRO5SukujCthppCCrd0ydS9vkvdQ3Z5rpMQGE6ER72vp5eOrFdAVip7kG7bndprcupilb-r5y6VqyaHY2ScLxwOKoUpjpRxRmT9ozNIwNhsPO1VkFlMF2kFshD1HCo6pQGB2Dw_ydESnodlNPw3m93hsm8Bqp1svIXiF1YuTcGAV7Io_EusCopIUob7PRBmozqBLRxLdOXo4l_xwPBHROjy4RBsEoaplD9W9AeEvrlnyUM4CUs2i76kNeVm00]--></g></svg>