<?xml version="1.0" encoding="us-ascii" standalone="no"?><svg xmlns="http://www.w3.org/2000/svg" xmlns:xlink="http://www.w3.org/1999/xlink" contentStyleType="text/css" height="926px" preserveAspectRatio="none" style="width:1503px;height:926px;background:#FFFFFF;" version="1.1" viewBox="0 0 1503 926" width="1503px" zoomAndPan="magnify"><defs/><g><text fill="#000000" font-family="sans-serif" font-size="14" font-weight="bold" lengthAdjust="spacing" textLength="156" x="666.5" y="25.1074">Domain Model - US011</text><!--class Employee--><g id="elem_Employee"><rect
        fill="#F1F1F1" height="111.1055" id="Employee" rx="2.5" ry="2.5" style="stroke:#181818;stroke-width:0.5;" width="124" x="410" y="808.6211"/><text fill="#000000" font-family="sans-serif" font-size="14" lengthAdjust="spacing" textLength="62" x="441" y="828.7285">Employee</text><line style="stroke:#181818;stroke-width:0.5;" x1="411" x2="533" y1="837.2422" y2="837.2422"/><text fill="#000000" font-family="sans-serif" font-size="14" lengthAdjust="spacing" textLength="35" x="416" y="856.3496">name</text><text fill="#000000" font-family="sans-serif" font-size="14" lengthAdjust="spacing" textLength="101" x="416" y="874.9707">position = agent</text><text fill="#000000" font-family="sans-serif" font-size="14" lengthAdjust="spacing" textLength="85" x="416" y="893.5918">emailAddress</text><text fill="#000000" font-family="sans-serif" font-size="14" lengthAdjust="spacing" textLength="112" x="416" y="912.2129">telephoneNumber</text></g><!--class PurchaseOrder--><g id="elem_PurchaseOrder"><rect
        fill="#F1F1F1" height="185.5898" id="PurchaseOrder" rx="2.5" ry="2.5" style="stroke:#181818;stroke-width:0.5;" width="125" x="322.5" y="162.6211"/><text fill="#000000" font-family="sans-serif" font-size="14" lengthAdjust="spacing" textLength="97" x="336.5" y="182.7285">PurchaseOrder</text><line style="stroke:#181818;stroke-width:0.5;" x1="323.5" x2="446.5" y1="191.2422" y2="191.2422"/><text fill="#000000" font-family="sans-serif" font-size="14" lengthAdjust="spacing" textLength="62" x="328.5" y="210.3496">userEmail</text><text fill="#000000" font-family="sans-serif" font-size="14" lengthAdjust="spacing" textLength="82" x="328.5" y="228.9707">orderAmount</text><text fill="#000000" font-family="sans-serif" font-size="14" lengthAdjust="spacing" textLength="73" x="328.5" y="247.5918">acceptance</text><text fill="#000000" font-family="sans-serif" font-size="14" lengthAdjust="spacing" textLength="109" x="328.5" y="266.2129">purchaseOrderID</text><text fill="#000000" font-family="sans-serif" font-size="14" lengthAdjust="spacing" textLength="66" x="328.5" y="284.834">userEmail;</text><text fill="#000000" font-family="sans-serif" font-size="14" lengthAdjust="spacing" textLength="86" x="328.5" y="303.4551">orderAmount;</text><text fill="#000000" font-family="sans-serif" font-size="14" lengthAdjust="spacing" textLength="77" x="328.5" y="322.0762">acceptance;</text><text fill="#000000" font-family="sans-serif" font-size="14" lengthAdjust="spacing" textLength="113" x="328.5" y="340.6973">purchaseOrderID;</text></g><!--class PurchaseOrderRepository--><g id="elem_PurchaseOrderRepository"><rect
        fill="#F1F1F1" height="36.6211" id="PurchaseOrderRepository" rx="2.5" ry="2.5" style="stroke:#181818;stroke-width:0.5;" width="171" x="152.5" y="46.6211"/><text fill="#000000" font-family="sans-serif" font-size="14" lengthAdjust="spacing" textLength="165" x="155.5" y="66.7285">PurchaseOrderRepository</text><line style="stroke:#181818;stroke-width:0.5;" x1="153.5" x2="322.5" y1="75.2422" y2="75.2422"/></g><!--class Person--><g id="elem_Person"><rect
        fill="#F1F1F1" height="111.1055" id="Person" rx="2.5" ry="2.5" style="stroke:#181818;stroke-width:0.5;" width="124" x="691" y="636.6211"/><text fill="#000000" font-family="sans-serif" font-size="14" lengthAdjust="spacing" textLength="45" x="730.5" y="656.7285">Person</text><line style="stroke:#181818;stroke-width:0.5;" x1="692" x2="814" y1="665.2422" y2="665.2422"/><text fill="#000000" font-family="sans-serif" font-size="14" lengthAdjust="spacing" textLength="35" x="697" y="684.3496">name</text><text fill="#000000" font-family="sans-serif" font-size="14" lengthAdjust="spacing" textLength="67" x="697" y="702.9707">taxNumber</text><text fill="#000000" font-family="sans-serif" font-size="14" lengthAdjust="spacing" textLength="85" x="697" y="721.5918">emailAddress</text><text fill="#000000" font-family="sans-serif" font-size="14" lengthAdjust="spacing" textLength="112" x="697" y="740.2129">telephoneNumber</text></g><!--class PassportCard--><g id="elem_PassportCard"><rect
        fill="#F1F1F1" height="55.2422" id="PassportCard" rx="2.5" ry="2.5" style="stroke:#181818;stroke-width:0.5;" width="147" x="603.5" y="465.1211"/><text fill="#000000" font-family="sans-serif" font-size="14" lengthAdjust="spacing" textLength="87" x="633.5" y="485.2285">PassportCard</text><line style="stroke:#181818;stroke-width:0.5;" x1="604.5" x2="749.5" y1="493.7422" y2="493.7422"/><text fill="#000000" font-family="sans-serif" font-size="14" lengthAdjust="spacing" textLength="135" x="609.5" y="512.8496">passportCardNumber</text></g><!--class Address--><g id="elem_Address"><rect
        fill="#F1F1F1" height="129.7266" id="Address" rx="2.5" ry="2.5" style="stroke:#181818;stroke-width:0.5;" width="63" x="957.5" y="427.6211"/><text fill="#000000" font-family="sans-serif" font-size="14" lengthAdjust="spacing" textLength="52" x="963" y="447.7285">Address</text><line style="stroke:#181818;stroke-width:0.5;" x1="958.5" x2="1019.5" y1="456.2422" y2="456.2422"/><text fill="#000000" font-family="sans-serif" font-size="14" lengthAdjust="spacing" textLength="36" x="963.5" y="475.3496">street</text><text fill="#000000" font-family="sans-serif" font-size="14" lengthAdjust="spacing" textLength="21" x="963.5" y="493.9707">city</text><text fill="#000000" font-family="sans-serif" font-size="14" lengthAdjust="spacing" textLength="41" x="963.5" y="512.5918">district</text><text fill="#000000" font-family="sans-serif" font-size="14" lengthAdjust="spacing" textLength="31" x="963.5" y="531.2129">state</text><text fill="#000000" font-family="sans-serif" font-size="14" lengthAdjust="spacing" textLength="51" x="963.5" y="549.834">zipCode</text></g><!--class Property--><g id="elem_Property"><rect
        fill="#F1F1F1" height="129.7266" id="Property" rx="2.5" ry="2.5" style="stroke:#181818;stroke-width:0.5;" width="141" x="1012.5" y="190.6211"/><text fill="#000000" font-family="sans-serif" font-size="14" lengthAdjust="spacing" textLength="54" x="1056" y="210.7285">Property</text><line style="stroke:#181818;stroke-width:0.5;" x1="1013.5" x2="1152.5" y1="219.2422" y2="219.2422"/><text fill="#000000" font-family="sans-serif" font-size="14" lengthAdjust="spacing" textLength="85" x="1018.5" y="238.3496">propertyType</text><text fill="#000000" font-family="sans-serif" font-size="14" lengthAdjust="spacing" textLength="98" x="1018.5" y="256.9707">areaOfProperty</text><text fill="#000000" font-family="sans-serif" font-size="14" lengthAdjust="spacing" textLength="129" x="1018.5" y="275.5918">distanceFromCentre</text><text fill="#000000" font-family="sans-serif" font-size="14" lengthAdjust="spacing" textLength="117" x="1018.5" y="294.2129">dateOfAcceptance</text><text fill="#000000" font-family="sans-serif" font-size="14" lengthAdjust="spacing" textLength="96" x="1018.5" y="312.834">dateOfRequest</text></g><!--class Building--><g id="elem_Building"><rect
        fill="#F1F1F1" height="129.7266" id="Building" rx="2.5" ry="2.5" style="stroke:#181818;stroke-width:0.5;" width="135" x="1313.5" y="427.6211"/><text fill="#000000" font-family="sans-serif" font-size="14" lengthAdjust="spacing" textLength="50" x="1356" y="447.7285">Building</text><line style="stroke:#181818;stroke-width:0.5;" x1="1314.5" x2="1447.5" y1="456.2422" y2="456.2422"/><text fill="#000000" font-family="sans-serif" font-size="14" lengthAdjust="spacing" textLength="63" x="1319.5" y="475.3496">bedrooms</text><text fill="#000000" font-family="sans-serif" font-size="14" lengthAdjust="spacing" textLength="67" x="1319.5" y="493.9707">bathrooms</text><text fill="#000000" font-family="sans-serif" font-size="14" lengthAdjust="spacing" textLength="94" x="1319.5" y="512.5918">parkingSpaces</text><text fill="#000000" font-family="sans-serif" font-size="14" lengthAdjust="spacing" textLength="123" x="1319.5" y="531.2129">availableEquipment</text><text fill="#000000" font-family="sans-serif" font-size="14" lengthAdjust="spacing" textLength="66" x="1319.5" y="549.834">equipment</text></g><!--class House--><g id="elem_House"><rect
        fill="#F1F1F1" height="92.4844" id="House" rx="2.5" ry="2.5" style="stroke:#181818;stroke-width:0.5;" width="94" x="1402" y="646.1211"/><text fill="#000000" font-family="sans-serif" font-size="14" lengthAdjust="spacing" textLength="40" x="1429" y="666.2285">House</text><line style="stroke:#181818;stroke-width:0.5;" x1="1403" x2="1495" y1="674.7422" y2="674.7422"/><text fill="#000000" font-family="sans-serif" font-size="14" lengthAdjust="spacing" textLength="62" x="1408" y="693.8496">basement</text><text fill="#000000" font-family="sans-serif" font-size="14" lengthAdjust="spacing" textLength="19" x="1408" y="712.4707">loft</text><text fill="#000000" font-family="sans-serif" font-size="14" lengthAdjust="spacing" textLength="82" x="1408" y="731.0918">sunExposure</text></g><!--class Equipment--><g id="elem_Equipment"><rect
        fill="#F1F1F1" height="73.8633" id="Equipment" rx="2.5" ry="2.5" style="stroke:#181818;stroke-width:0.5;" width="107" x="1259.5" y="655.1211"/><text fill="#000000" font-family="sans-serif" font-size="14" lengthAdjust="spacing" textLength="67" x="1279.5" y="675.2285">Equipment</text><line style="stroke:#181818;stroke-width:0.5;" x1="1260.5" x2="1365.5" y1="683.7422" y2="683.7422"/><text fill="#000000" font-family="sans-serif" font-size="14" lengthAdjust="spacing" textLength="91" x="1265.5" y="702.8496">centralHeating</text><text fill="#000000" font-family="sans-serif" font-size="14" lengthAdjust="spacing" textLength="95" x="1265.5" y="721.4707">airConditioning</text></g><!--class Commission--><g id="elem_Commission"><rect
        fill="#F1F1F1" height="73.8633" id="Commission" rx="2.5" ry="2.5" style="stroke:#181818;stroke-width:0.5;" width="121" x="166.5" y="218.6211"/><text fill="#000000" font-family="sans-serif" font-size="14" lengthAdjust="spacing" textLength="76" x="189" y="238.7285">Commission</text><line style="stroke:#181818;stroke-width:0.5;" x1="167.5" x2="286.5" y1="247.2422" y2="247.2422"/><text fill="#000000" font-family="sans-serif" font-size="14" lengthAdjust="spacing" textLength="105" x="172.5" y="266.3496">commissionType</text><text fill="#000000" font-family="sans-serif" font-size="14" lengthAdjust="spacing" textLength="109" x="172.5" y="284.9707">commissionValue</text></g><!--class Photo--><g id="elem_Photo"><rect
        fill="#F1F1F1" height="92.4844" id="Photo" rx="2.5" ry="2.5" style="stroke:#181818;stroke-width:0.5;" width="70" x="1056" y="446.6211"/><text fill="#000000" font-family="sans-serif" font-size="14" lengthAdjust="spacing" textLength="37" x="1072.5" y="466.7285">Photo</text><line style="stroke:#181818;stroke-width:0.5;" x1="1057" x2="1125" y1="475.2422" y2="475.2422"/><text fill="#000000" font-family="sans-serif" font-size="14" lengthAdjust="spacing" textLength="58" x="1062" y="494.3496">photoURI</text><text fill="#000000" font-family="sans-serif" font-size="14" lengthAdjust="spacing" textLength="49" x="1062" y="512.9707">photoID</text><text fill="#000000" font-family="sans-serif" font-size="14" lengthAdjust="spacing" textLength="58" x="1062" y="531.5918">photoList</text></g><!--class Transaction--><g id="elem_Transaction"><rect
        fill="#F1F1F1" height="73.8633" id="Transaction" rx="2.5" ry="2.5" style="stroke:#181818;stroke-width:0.5;" width="114" x="1161" y="455.6211"/><text fill="#000000" font-family="sans-serif" font-size="14" lengthAdjust="spacing" textLength="75" x="1180.5" y="475.7285">Transaction</text><line style="stroke:#181818;stroke-width:0.5;" x1="1162" x2="1274" y1="484.2422" y2="484.2422"/><text fill="#000000" font-family="sans-serif" font-size="14" lengthAdjust="spacing" textLength="102" x="1167" y="503.3496">transactionType</text><text fill="#000000" font-family="sans-serif" font-size="14" lengthAdjust="spacing" textLength="95" x="1167" y="521.9707">monetaryValue</text></g><!--class Request--><g id="elem_Request"><rect
        fill="#F1F1F1" height="73.8633" id="Request" rx="2.5" ry="2.5" style="stroke:#181818;stroke-width:0.5;" width="90" x="795" y="218.6211"/><text fill="#000000" font-family="sans-serif" font-size="14" lengthAdjust="spacing" textLength="53" x="813.5" y="238.7285">Request</text><line style="stroke:#181818;stroke-width:0.5;" x1="796" x2="884" y1="247.2422" y2="247.2422"/><text fill="#000000" font-family="sans-serif" font-size="14" lengthAdjust="spacing" textLength="11" x="801" y="266.3496">id</text><text fill="#000000" font-family="sans-serif" font-size="14" lengthAdjust="spacing" textLength="78" x="801" y="284.9707">requestDate</text></g><!--class Agency--><g id="elem_Agency"><rect
        fill="#F1F1F1" height="111.1055" id="Agency" rx="2.5" ry="2.5" style="stroke:#181818;stroke-width:0.5;" width="124" x="7" y="200.1211"/><text fill="#000000" font-family="sans-serif" font-size="14" lengthAdjust="spacing" textLength="47" x="45.5" y="220.2285">Agency</text><line style="stroke:#181818;stroke-width:0.5;" x1="8" x2="130" y1="228.7422" y2="228.7422"/><text fill="#000000" font-family="sans-serif" font-size="14" lengthAdjust="spacing" textLength="59" x="13" y="247.8496">agencyID</text><text fill="#000000" font-family="sans-serif" font-size="14" lengthAdjust="spacing" textLength="35" x="13" y="266.4707">name</text><text fill="#000000" font-family="sans-serif" font-size="14" lengthAdjust="spacing" textLength="33" x="13" y="285.0918">email</text><text fill="#000000" font-family="sans-serif" font-size="14" lengthAdjust="spacing" textLength="112" x="13" y="303.7129">telephoneNumber</text></g><!--class Announcement--><g id="elem_Announcement"><rect
        fill="#F1F1F1" height="73.8633" id="Announcement" rx="2.5" ry="2.5" style="stroke:#181818;stroke-width:0.5;" width="115" x="609.5" y="218.6211"/><text fill="#000000" font-family="sans-serif" font-size="14" lengthAdjust="spacing" textLength="95" x="619.5" y="238.7285">Announcement</text><line style="stroke:#181818;stroke-width:0.5;" x1="610.5" x2="723.5" y1="247.2422" y2="247.2422"/><text fill="#000000" font-family="sans-serif" font-size="14" lengthAdjust="spacing" textLength="11" x="615.5" y="266.3496">id</text><text fill="#000000" font-family="sans-serif" font-size="14" lengthAdjust="spacing" textLength="103" x="615.5" y="284.9707">acceptanceDate</text></g><!--class StoreManager--><g id="elem_StoreManager"><rect fill="#F1F1F1" height="36.6211" id="StoreManager" rx="2.5" ry="2.5" style="stroke:#181818;stroke-width:0.5;" width="96" x="21" y="46.6211"/><text fill="#000000" font-family="sans-serif" font-size="14" lengthAdjust="spacing" textLength="90" x="24" y="66.7285">StoreManager</text><line style="stroke:#181818;stroke-width:0.5;" x1="22" x2="116" y1="75.2422" y2="75.2422"/></g><!--reverse link Property to Building--><g id="link_Property_Building"><path d="M1172.64,281.6011 C1226.18,300.5511 1292.1,331.5211 1336,378.6211 C1348.74,392.2911 1358.05,410.0111 1364.78,427.3511 " fill="none" id="Property-backto-Building" style="stroke:#181818;stroke-width:1.0;"/><polygon fill="none" points="1170.25,288.1811,1153.54,275.1611,1174.72,274.9211,1170.25,288.1811" style="stroke:#181818;stroke-width:1.0;"/></g><!--reverse link Building to House--><g id="link_Building_House"><path d="M1416.98,576.4511 C1418.38,580.2111 1419.73,583.9411 1421,587.6211 C1427.52,606.4411 1433.48,627.6111 1438.21,645.8811 " fill="none" id="Building-backto-House" style="stroke:#181818;stroke-width:1.0;"/><polygon fill="none" points="1410.38,578.8111,1409.63,557.6311,1423.42,573.7111,1410.38,578.8111" style="stroke:#181818;stroke-width:1.0;"/></g><!--link PurchaseOrder to Announcement--><g id="link_PurchaseOrder_Announcement"><path
        d="M447.58,255.6211 C495.94,255.6211 562.34,255.6211 609.39,255.6211 " fill="none" id="PurchaseOrder-Announcement" style="stroke:#181818;stroke-width:1.0;"/><polygon fill="#000000" points="475,243.2666,465.9549,240.3277,465.9549,246.2055,475,243.2666" style="stroke:#000000;stroke-width:1.0;"/><text fill="#000000" font-family="sans-serif" font-size="13" lengthAdjust="spacing" textLength="112" x="479" y="248.6494">has Announcement</text><text fill="#000000" font-family="sans-serif" font-size="13" lengthAdjust="spacing" textLength="24" x="455.2711" y="270.5621">1...*</text><text fill="#000000" font-family="sans-serif" font-size="13" lengthAdjust="spacing" textLength="7" x="594.5603" y="251.5878">1</text></g><!--link Agency to Announcement--><g id="link_Agency_Announcement"><path
        d="M95.03,199.9811 C109.66,175.5111 130.47,149.2711 157.5,135.6211 C210.06,109.0811 443.52,156.3711 465,162.6211 C515.6,177.3511 569.67,202.8111 609.12,223.3811 " fill="none" id="Agency-Announcement" style="stroke:#181818;stroke-width:1.0;"/><polygon fill="#000000" points="167.4948,123.494,158.5927,120.1468,158.3255,126.0186,167.4948,123.494" style="stroke:#000000;stroke-width:1.0;"/><text fill="#000000" font-family="sans-serif" font-size="13" lengthAdjust="spacing" textLength="94" x="171.5" y="128.6494">wants to publish</text><text fill="#000000" font-family="sans-serif" font-size="13" lengthAdjust="spacing" textLength="7" x="90.9167" y="188.8034">1</text><text fill="#000000" font-family="sans-serif" font-size="13" lengthAdjust="spacing" textLength="13" x="588.6761" y="215.7236">..*</text></g><!--link Announcement to Request--><g id="link_Announcement_Request"><path
        d="M724.61,255.6211 C747.51,255.6211 773.46,255.6211 794.95,255.6211 " fill="none" id="Announcement-Request" style="stroke:#181818;stroke-width:1.0;"/><polygon fill="#000000" points="751.75,243.2666,742.7049,240.3277,742.7049,246.2055,751.75,243.2666" style="stroke:#000000;stroke-width:1.0;"/><text fill="#000000" font-family="sans-serif" font-size="13" lengthAdjust="spacing" textLength="21" x="755.75" y="248.6494">of a</text><text fill="#000000" font-family="sans-serif" font-size="13" lengthAdjust="spacing" textLength="7" x="732.4397" y="251.5878">1</text></g><!--link Property to Address--><g id="link_Property_Address"><path
        d="M1057.31,320.8311 C1044.05,353.9911 1027.91,394.3411 1014.65,427.4811 " fill="none" id="Property-Address" style="stroke:#181818;stroke-width:1.0;"/><text fill="#000000" font-family="sans-serif" font-size="13" lengthAdjust="spacing" textLength="36" x="1035" y="393.6494">stores</text><text fill="#000000" font-family="sans-serif" font-size="13" lengthAdjust="spacing" textLength="7" x="1047.2998" y="342.4899">1</text><text fill="#000000" font-family="sans-serif" font-size="13" lengthAdjust="spacing" textLength="7" x="1010.0727" y="416.4859">1</text></g><!--link Address to Property--><g id="link_Address_Property"><path
        d="M957.3,460.0511 C938.6,437.4311 920.92,406.2311 934,378.6211 C950.46,343.8711 982.2,315.7211 1012.17,295.2611 "
        fill="none" id="Address-Property" style="stroke:#181818;stroke-width:1.0;"/><polygon fill="#000000" points="937.4204,393.0105,943.0663,385.3571,937.4895,383.5002,937.4204,393.0105" style="stroke:#000000;stroke-width:1.0;"/><text fill="#000000" font-family="sans-serif" font-size="13" lengthAdjust="spacing" textLength="71" x="948" y="393.6494">has address</text><text fill="#000000" font-family="sans-serif" font-size="13" lengthAdjust="spacing" textLength="7" x="942.6" y="448.1571">1</text><text fill="#000000" font-family="sans-serif" font-size="13" lengthAdjust="spacing" textLength="7" x="997.5047" y="295.5298">1</text></g><!--link StoreManager to Agency--><g id="link_StoreManager_Agency"><path
        d="M69,83.8511 C69,110.1611 69,160.6311 69,199.9111 " fill="none" id="StoreManager-Agency" style="stroke:#181818;stroke-width:1.0;"/><polygon fill="#000000" points="74,128.2666,76.9389,119.2215,71.0611,119.2215,74,128.2666" style="stroke:#000000;stroke-width:1.0;"/><text fill="#000000" font-family="sans-serif" font-size="13" lengthAdjust="spacing" textLength="53" x="83" y="128.6494">manages</text></g><!--link Agency to Employee--><g id="link_Agency_Employee"><path
        d="M105.3,311.2411 C181.82,426.4011 358.93,692.9511 435.57,808.2911 " fill="none" id="Agency-Employee" style="stroke:#181818;stroke-width:1.0;"/><polygon fill="#000000" points="304.2329,593.1021,306.7908,602.2622,311.6865,599.0093,304.2329,593.1021" style="stroke:#000000;stroke-width:1.0;"/><text fill="#000000" font-family="sans-serif" font-size="13" lengthAdjust="spacing" textLength="88" x="316" y="602.6494">is in an agency</text><text fill="#000000" font-family="sans-serif" font-size="13" lengthAdjust="spacing" textLength="7" x="102.2975" y="333.0953">1</text><text fill="#000000" font-family="sans-serif" font-size="13" lengthAdjust="spacing" textLength="7" x="423.7035" y="797.4905">1</text></g><!--link Property to Transaction--><g id="link_Property_Transaction"><path
        d="M1136.71,320.7911 C1150.29,338.8011 1164.09,358.8811 1175,378.6211 C1188.55,403.1511 1199.67,432.8211 1207.2,455.6111 " fill="none" id="Property-Transaction" style="stroke:#181818;stroke-width:1.0;"/><polygon fill="#000000" points="1191.3167,392.6975,1189.7302,383.3202,1184.5213,386.0436,1191.3167,392.6975" style="stroke:#000000;stroke-width:1.0;"/><text fill="#000000" font-family="sans-serif" font-size="13" lengthAdjust="spacing" textLength="129" x="1198" y="393.6494">has a transaction type</text><text fill="#000000" font-family="sans-serif" font-size="13" lengthAdjust="spacing" textLength="7" x="1134.8879" y="342.4457">1</text><text fill="#000000" font-family="sans-serif" font-size="13" lengthAdjust="spacing" textLength="7" x="1197.5634" y="444.2879">1</text></g><!--link Property to Photo--><g id="link_Property_Photo"><path
        d="M1085.19,320.8311 C1086.54,360.6511 1088.25,410.8311 1089.46,446.4711 " fill="none" id="Property-Photo" style="stroke:#181818;stroke-width:1.0;"/><polygon fill="#000000" points="1093.1698,393.2637,1095.7998,384.124,1089.9254,384.3237,1093.1698,393.2637" style="stroke:#000000;stroke-width:1.0;"/><text fill="#000000" font-family="sans-serif" font-size="13" lengthAdjust="spacing" textLength="64" x="1102" y="393.6494">has photos</text><text fill="#000000" font-family="sans-serif" font-size="13" lengthAdjust="spacing" textLength="7" x="1078.0549" y="342.4899">1</text><text fill="#000000" font-family="sans-serif" font-size="13" lengthAdjust="spacing" textLength="13" x="1075.2791" y="435.4585">..*</text></g><!--link Commission to Announcement--><g id="link_Commission_Announcement"><path
        d="M250.56,218.6211 C264.38,199.5311 283.35,177.2611 305,162.6211 C380.58,111.5111 422.01,106.5711 508.5,135.6211 C557.09,151.9411 602.64,189.7011 632.33,218.5411 " fill="none" id="Commission-Announcement" style="stroke:#181818;stroke-width:1.0;"/><polygon fill="#000000" points="387.5,123.2676,396.5457,126.2047,396.5445,120.3268,387.5,123.2676" style="stroke:#000000;stroke-width:1.0;"/><text fill="#000000" font-family="sans-serif" font-size="13" lengthAdjust="spacing" textLength="106" x="401.5" y="128.6494">has a commission</text><text fill="#000000" font-family="sans-serif" font-size="13" lengthAdjust="spacing" textLength="7" x="247.2586" y="207.2998">1</text><text fill="#000000" font-family="sans-serif" font-size="13" lengthAdjust="spacing" textLength="7" x="618.531" y="207.4886">1</text></g><!--link Building to Equipment--><g id="link_Building_Equipment"><path
        d="M1326.9,557.7811 C1321.22,567.3011 1316.32,577.3711 1313,587.6211 C1306.03,609.1611 1305.92,634.5711 1307.6,654.8211 " fill="none" id="Building-Equipment" style="stroke:#181818;stroke-width:1.0;"/><polygon fill="#000000" points="1317.0247,602.1706,1321.6715,593.8725,1315.9066,592.7259,1317.0247,602.1706" style="stroke:#000000;stroke-width:1.0;"/><text fill="#000000" font-family="sans-serif" font-size="13" lengthAdjust="spacing" textLength="85" x="1327" y="602.6494">has equipment</text><text fill="#000000" font-family="sans-serif" font-size="13" lengthAdjust="spacing" textLength="7" x="1313.96" y="579.4347">1</text><text fill="#000000" font-family="sans-serif" font-size="13" lengthAdjust="spacing" textLength="13" x="1292.4803" y="643.7294">..*</text></g><!--link PassportCard to Person--><g id="link_PassportCard_Person"><path
        d="M670.58,520.2111 C666.2,543.7811 662.98,578.6911 674,606.6211 C678.13,617.0811 684.23,627.0111 691.25,636.1411 " fill="none" id="PassportCard-Person" style="stroke:#181818;stroke-width:1.0;"/><polygon fill="#000000" points="678.1224,592.3442,676.8167,601.7648,682.6033,600.733,678.1224,592.3442" style="stroke:#000000;stroke-width:1.0;"/><text fill="#000000" font-family="sans-serif" font-size="13" lengthAdjust="spacing" textLength="115" x="688" y="602.6494">has a passport card</text><text fill="#000000" font-family="sans-serif" font-size="13" lengthAdjust="spacing" textLength="7" x="661.286" y="542.5909">1</text><text fill="#000000" font-family="sans-serif" font-size="13" lengthAdjust="spacing" textLength="7" x="676.2977" y="625.3222">1</text></g><!--link Address to Person--><g id="link_Address_Person"><path
        d="M957.32,530.2611 C948.77,539.5111 939.3,549.2011 930,557.6211 C893.92,590.3111 850.28,623.2911 815.36,648.2911 " fill="none" id="Address-Person" style="stroke:#181818;stroke-width:1.0;"/><polygon fill="#000000" points="902.8447,594.07,894.0107,597.5929,897.7685,602.1126,902.8447,594.07" style="stroke:#000000;stroke-width:1.0;"/><text fill="#000000" font-family="sans-serif" font-size="13" lengthAdjust="spacing" textLength="71" x="908" y="602.6494">has address</text><text fill="#000000" font-family="sans-serif" font-size="13" lengthAdjust="spacing" textLength="7" x="942.6244" y="533.7255">1</text><text fill="#000000" font-family="sans-serif" font-size="13" lengthAdjust="spacing" textLength="7" x="822.9751" y="639.2795">1</text></g><!--link Request to Property--><g id="link_Request_Property"><path
        d="M885.14,255.6211 C920.82,255.6211 971.29,255.6211 1012.32,255.6211 " fill="none" id="Request-Property" style="stroke:#181818;stroke-width:1.0;"/><polygon fill="#000000" points="921.75,243.2666,912.7049,240.3277,912.7049,246.2055,921.75,243.2666" style="stroke:#000000;stroke-width:1.0;"/><text fill="#000000" font-family="sans-serif" font-size="13" lengthAdjust="spacing" textLength="59" x="925.75" y="248.6494">listing of a</text><text fill="#000000" font-family="sans-serif" font-size="13" lengthAdjust="spacing" textLength="7" x="892.892" y="251.3288">1</text><text fill="#000000" font-family="sans-serif" font-size="13" lengthAdjust="spacing" textLength="7" x="997.6702" y="251.802">1</text></g><!--link Request to Person--><g id="link_Request_Person"><path
        d="M842.31,292.8311 C845.23,357.7211 845.97,497.2411 808,606.6211 C804.5,616.7111 799.54,626.7811 794.03,636.2811 " fill="none" id="Request-Person" style="stroke:#181818;stroke-width:1.0;"/><polygon fill="#000000" points="845.304,497.7179,849.4734,489.17,843.6528,488.3518,845.304,497.7179" style="stroke:#000000;stroke-width:1.0;"/><text fill="#000000" font-family="sans-serif" font-size="13" lengthAdjust="spacing" textLength="77" x="855" y="498.1494">has an owner</text><text fill="#000000" font-family="sans-serif" font-size="13" lengthAdjust="spacing" textLength="13" x="828.616" y="314.4656">..*</text><text fill="#000000" font-family="sans-serif" font-size="13" lengthAdjust="spacing" textLength="7" x="791.604" y="625.4793">1</text></g><!--link Person to Employee--><g id="link_Person_Employee"><path
        d="M690.99,730.6411 C644.44,758.8011 580.97,797.2011 534.34,825.4011 " fill="none" id="Person-Employee" style="stroke:#181818;stroke-width:1.0;"/></g><!--link Employee to Request--><g id="link_Employee_Request"><path
        d="M470.04,808.5011 C469.55,751.9611 473.11,661.7011 496,587.6211 C520.08,509.6711 527.06,484.0411 586,427.6211 C642.14,373.8811 678.36,393.2211 742,348.6211 C765.12,332.4111 788.28,310.9711 806.28,292.8711 " fill="none" id="Employee-Request" style="stroke:#181818;stroke-width:1.0;"/><polygon fill="#000000" points="503.7311,593.0784,496.3287,599.0496,501.2523,602.2602,503.7311,593.0784" style="stroke:#000000;stroke-width:1.0;"/><text fill="#000000" font-family="sans-serif" font-size="13" lengthAdjust="spacing" textLength="150" x="510" y="602.6494">acts as agent assigned to</text><text fill="#000000" font-family="sans-serif" font-size="13" lengthAdjust="spacing" textLength="7" x="462.3404" y="797.3259">1</text><text fill="#000000" font-family="sans-serif" font-size="13" lengthAdjust="spacing" textLength="13" x="786.6186" y="314.5122">..*</text></g><!--SRC=[bLLDJnin4BtxLrXSa2g1u0eKAGrK89M22ErzOa-o5hlsOdiB0V7VE_vOxsu2gff3ufrzyzvulk8UbMx1GiCReuseh6cGUziXS-LD2-8HrhZmcngvHU51h-inm5KWpRFIQxw2sY5Z-pMkFFU6MxMkF9SgU2cZsSX9rE3Sp7khbft7Qs7qGhqYFsAiKXAvK5QGI3mtw2iZ7MDUUGhXmZIWDByn4cj-m7yjZewFIJCIyhiQ_ChOXh-nVSuF93fXLHl5zzyPIw3BfgtD1f50d3uQ6eo7rZWLeFmhfmjh7ur8QlLCIelEHOF76jlAQFpPDKkqhD3UTLPKuF3MIhI9kdDeBmD1V3BXnQmnNQO68R2bT8eiF_Q_llY4-1vZcCPktaO8j8xYthgFXvSSutzUXBvQO_qShCoSxSYq3S-S2UYyHKpN4yflua4giYhXCm1y2kzLjNCgOY0gojQqQFscLysF3viskO15k5trg48UKlYTUdTEHRC9AKdbTZMRPZWPx_6fG-VPS8DldQfbQ61yyQZbJXnBbDQO9gLj2RuQdgYRgQVN2veIJ1RuGtc6POsNJvrgcz97vQd8NXdgZwBP1v4bgTx5jpQhdBnENxvG_JkB0qtHUMCfxo4BK5yXUA9BCIaxDrh6xWwsuZitJQESKwLvH36Kf0-ctr1t8-6xoj2GvrA5yw_xw-61EhYSVr2H1hy72zf1N0dPsm-M8aiR2JtOpPPehbxoKpB-s6Ix29trNfffHZCiDWa8yPn3AWE2PJG_dOMPrZIl0bD-Hvh3yFQo_zu2fzjhu7IBwlIZHN0Qo2UqVE_uyF3monwjlxtZlKcC_8IVSm9EZ2ob8eB99RhkE3s3zYvixRPRrifLR898hZdv4MzM75WPbFW-XvFs0O4ShIcQYaNukG5DHR01bACvuKsqENu-2J2nb2LDk3Ek7AUT3peNyaFTSLkTn1p0kB6ufyuYgHtNc8xKoyajjcoCQYS3uPyjgOqcfnSR1eLyoqwPo9HPpKvbAuJ0ncjtTA-yt7kLVXLp4N1dh4_tfnxv_HdhgvVR803xN8I2Kj73miY5JHJZIySB31rmbjWrDy-Q9YOxK0HzvLWfuIG50mFLXGXS-hEbWrDhZJAqu3dxy5f3jDEBiRy0]--></g></svg>