<?xml version="1.0" encoding="us-ascii" standalone="no"?><svg xmlns="http://www.w3.org/2000/svg" xmlns:xlink="http://www.w3.org/1999/xlink" contentStyleType="text/css" height="454.5px" preserveAspectRatio="none" style="width:1285px;height:454px;background:#FFFFFF;" version="1.1" viewBox="0 0 1285 454" width="1285.2px" zoomAndPan="magnify"><defs/><g><!--class PropertyListUI--><g id="elem_PropertyListUI"><rect fill="#F1F1F1" height="43.2" id="PropertyListUI" rx="2.25" ry="2.25" style="stroke:#181818;stroke-width:0.45;" width="108" x="187.2" y="31.5"/><ellipse cx="200.7" cy="45.9" fill="#ADD1B2" rx="9.9" ry="9.9" style="stroke:#181818;stroke-width:0.9;"/><path d="M203.1891,42.1875 Q203.3297,41.9906 203.4984,41.8922 Q203.6672,41.7938 203.8641,41.7938 Q204.2016,41.7938 204.4125,42.0328 Q204.6234,42.2578 204.6234,42.8063 L204.6234,44.1141 Q204.6234,44.6625 204.4125,44.9016 Q204.2016,45.1406 203.8641,45.1406 Q203.5547,45.1406 203.3719,44.9578 Q203.1891,44.7891 203.0906,44.325 Q203.0484,44.0016 202.8797,43.8328 Q202.5844,43.4953 202.0359,43.2984 Q201.4875,43.1016 200.925,43.1016 Q200.2359,43.1016 199.6594,43.3969 Q199.0969,43.6922 198.6469,44.3672 Q198.2109,45.0422 198.2109,45.9703 L198.2109,46.9547 Q198.2109,48.0656 199.0125,48.8109 Q199.8141,49.5422 201.2484,49.5422 Q202.0922,49.5422 202.6828,49.3172 Q203.0344,49.1766 203.4141,48.7828 Q203.6531,48.5438 203.7797,48.4734 Q203.9203,48.4031 204.1031,48.4031 Q204.3984,48.4031 204.6234,48.6422 Q204.8625,48.8672 204.8625,49.1766 Q204.8625,49.4859 204.5531,49.8516 Q204.1031,50.3719 203.3859,50.6672 Q202.4156,51.075 201.2484,51.075 Q199.8844,51.075 198.8016,50.5125 Q197.9156,50.0625 197.2969,49.1063 Q196.6781,48.1359 196.6781,46.9828 L196.6781,45.9422 Q196.6781,44.7469 197.2266,43.7203 Q197.7891,42.6797 198.7734,42.1313 Q199.7578,41.5688 200.8688,41.5688 Q201.5297,41.5688 202.1063,41.7234 Q202.6969,41.8641 203.1891,42.1875 Z " fill="#000000"/><text fill="#000000" font-family="sans-serif" font-size="12.6" lengthAdjust="spacing" textLength="79.2" x="213.3" y="51.1172">PropertyListUI</text><line style="stroke:#181818;stroke-width:0.45;" x1="188.1" x2="294.3" y1="60.3" y2="60.3"/><line style="stroke:#181818;stroke-width:0.45;" x1="188.1" x2="294.3" y1="67.5" y2="67.5"/></g><!--class PropertyListController--><g id="elem_PropertyListController"><rect  fill="#F1F1F1" height="76.718" id="PropertyListController" rx="2.25" ry="2.25" style="stroke:#181818;stroke-width:0.45;" width="558" x="326.7" y="14.85"/><ellipse cx="539.775" cy="29.25" fill="#ADD1B2" rx="9.9" ry="9.9" style="stroke:#181818;stroke-width:0.9;"/><path d="M542.2641,25.5375 Q542.4047,25.3406 542.5734,25.2422 Q542.7422,25.1438 542.9391,25.1438 Q543.2766,25.1438 543.4875,25.3828 Q543.6984,25.6078 543.6984,26.1563 L543.6984,27.4641 Q543.6984,28.0125 543.4875,28.2516 Q543.2766,28.4906 542.9391,28.4906 Q542.6297,28.4906 542.4469,28.3078 Q542.2641,28.1391 542.1656,27.675 Q542.1234,27.3516 541.9547,27.1828 Q541.6594,26.8453 541.1109,26.6484 Q540.5625,26.4516 540,26.4516 Q539.3109,26.4516 538.7344,26.7469 Q538.1719,27.0422 537.7219,27.7172 Q537.2859,28.3922 537.2859,29.3203 L537.2859,30.3047 Q537.2859,31.4156 538.0875,32.1609 Q538.8891,32.8922 540.3234,32.8922 Q541.1672,32.8922 541.7578,32.6672 Q542.1094,32.5266 542.4891,32.1328 Q542.7281,31.8938 542.8547,31.8234 Q542.9953,31.7531 543.1781,31.7531 Q543.4734,31.7531 543.6984,31.9922 Q543.9375,32.2172 543.9375,32.5266 Q543.9375,32.8359 543.6281,33.2016 Q543.1781,33.7219 542.4609,34.0172 Q541.4906,34.425 540.3234,34.425 Q538.9594,34.425 537.8766,33.8625 Q536.9906,33.4125 536.3719,32.4563 Q535.7531,31.4859 535.7531,30.3328 L535.7531,29.2922 Q535.7531,28.0969 536.3016,27.0703 Q536.8641,26.0297 537.8484,25.4813 Q538.8328,24.9188 539.9438,24.9188 Q540.6047,24.9188 541.1813,25.0734 Q541.7719,25.2141 542.2641,25.5375 Z " fill="#000000"/><text fill="#000000" font-family="sans-serif" font-size="12.6" lengthAdjust="spacing" textLength="124.2" x="558.225" y="34.4672">PropertyListController</text><line style="stroke:#181818;stroke-width:0.45;" x1="327.6" x2="883.8" y1="43.65" y2="43.65"/><line style="stroke:#181818;stroke-width:0.9;" x1="327.6" x2="883.8" y1="50.85" y2="50.85"/><text fill="#000000" font-family="sans-serif" font-size="12.6" lengthAdjust="spacing" textLength="547.2" x="332.1" y="68.0467">+createSelectedParameters(businessType, propertyType, numberRooms, priceSorting, location)</text><text fill="#000000" font-family="sans-serif" font-size="12.6" lengthAdjust="spacing" textLength="430.2" x="332.1" y="84.8057">+displayAnnouncementList(AnnouncementRepository, SelectedParameters)</text></g><!--class Repositories--><g id="elem_Repositories"><rect fill="#F1F1F1" height="93.477" id="Repositories" rx="2.25" ry="2.25" style="stroke:#181818;stroke-width:0.45;" width="191.7" x="977.85" y="6.3"/><ellipse cx="1034.325" cy="20.7" fill="#ADD1B2" rx="9.9" ry="9.9" style="stroke:#181818;stroke-width:0.9;"/><path d="M1036.8141,16.9875 Q1036.9547,16.7906 1037.1234,16.6922 Q1037.2922,16.5938 1037.4891,16.5938 Q1037.8266,16.5938 1038.0375,16.8328 Q1038.2484,17.0578 1038.2484,17.6063 L1038.2484,18.9141 Q1038.2484,19.4625 1038.0375,19.7016 Q1037.8266,19.9406 1037.4891,19.9406 Q1037.1797,19.9406 1036.9969,19.7578 Q1036.8141,19.5891 1036.7156,19.125 Q1036.6734,18.8016 1036.5047,18.6328 Q1036.2094,18.2953 1035.6609,18.0984 Q1035.1125,17.9016 1034.55,17.9016 Q1033.8609,17.9016 1033.2844,18.1969 Q1032.7219,18.4922 1032.2719,19.1672 Q1031.8359,19.8422 1031.8359,20.7703 L1031.8359,21.7547 Q1031.8359,22.8656 1032.6375,23.6109 Q1033.4391,24.3422 1034.8734,24.3422 Q1035.7172,24.3422 1036.3078,24.1172 Q1036.6594,23.9766 1037.0391,23.5828 Q1037.2781,23.3438 1037.4047,23.2734 Q1037.5453,23.2031 1037.7281,23.2031 Q1038.0234,23.2031 1038.2484,23.4422 Q1038.4875,23.6672 1038.4875,23.9766 Q1038.4875,24.2859 1038.1781,24.6516 Q1037.7281,25.1719 1037.0109,25.4672 Q1036.0406,25.875 1034.8734,25.875 Q1033.5094,25.875 1032.4266,25.3125 Q1031.5406,24.8625 1030.9219,23.9063 Q1030.3031,22.9359 1030.3031,21.7828 L1030.3031,20.7422 Q1030.3031,19.5469 1030.8516,18.5203 Q1031.4141,17.4797 1032.3984,16.9313 Q1033.3828,16.3688 1034.4938,16.3688 Q1035.1547,16.3688 1035.7313,16.5234 Q1036.3219,16.6641 1036.8141,16.9875 Z " fill="#000000"/><text fill="#000000" font-family="sans-serif" font-size="12.6" lengthAdjust="spacing" textLength="71.1" x="1052.775" y="25.9172">Repositories</text><line style="stroke:#181818;stroke-width:0.45;" x1="978.75" x2="1168.65" y1="35.1" y2="35.1"/><line style="stroke:#181818;stroke-width:0.45;" x1="978.75" x2="1168.65" y1="42.3" y2="42.3"/><text fill="#000000" font-family="sans-serif" font-size="12.6" lengthAdjust="spacing" textLength="84.6" x="983.25" y="59.4967">-Repositories()</text><text fill="#000000" font-family="sans-serif" font-size="12.6" lengthAdjust="spacing" textLength="163.8" x="983.25" y="76.2557">+getInstance() : Repositories</text><text fill="#000000" font-family="sans-serif" font-size="12.6" lengthAdjust="spacing" textLength="180.9" x="983.25" y="93.0146">+getAnnouncementRepository()</text></g><!--class AnnouncementRepository--><g id="elem_AnnouncementRepository"><rect fill="#F1F1F1" height="76.718" id="AnnouncementRepository" rx="2.25" ry="2.25" style="stroke:#181818;stroke-width:0.45;" width="230.4" x="927.9" y="271.8"/><ellipse cx="966.105" cy="286.2" fill="#ADD1B2" rx="9.9" ry="9.9" style="stroke:#181818;stroke-width:0.9;"/><path d="M968.5941,282.4875 Q968.7347,282.2906 968.9034,282.1922 Q969.0722,282.0938 969.2691,282.0938 Q969.6066,282.0938 969.8175,282.3328 Q970.0284,282.5578 970.0284,283.1063 L970.0284,284.4141 Q970.0284,284.9625 969.8175,285.2016 Q969.6066,285.4406 969.2691,285.4406 Q968.9597,285.4406 968.7769,285.2578 Q968.5941,285.0891 968.4956,284.625 Q968.4534,284.3016 968.2847,284.1328 Q967.9894,283.7953 967.4409,283.5984 Q966.8925,283.4016 966.33,283.4016 Q965.6409,283.4016 965.0644,283.6969 Q964.5019,283.9922 964.0519,284.6672 Q963.6159,285.3422 963.6159,286.2703 L963.6159,287.2547 Q963.6159,288.3656 964.4175,289.1109 Q965.2191,289.8422 966.6534,289.8422 Q967.4972,289.8422 968.0878,289.6172 Q968.4394,289.4766 968.8191,289.0828 Q969.0581,288.8438 969.1847,288.7734 Q969.3253,288.7031 969.5081,288.7031 Q969.8034,288.7031 970.0284,288.9422 Q970.2675,289.1672 970.2675,289.4766 Q970.2675,289.7859 969.9581,290.1516 Q969.5081,290.6719 968.7909,290.9672 Q967.8206,291.375 966.6534,291.375 Q965.2894,291.375 964.2066,290.8125 Q963.3206,290.3625 962.7019,289.4063 Q962.0831,288.4359 962.0831,287.2828 L962.0831,286.2422 Q962.0831,285.0469 962.6316,284.0203 Q963.1941,282.9797 964.1784,282.4313 Q965.1628,281.8688 966.2738,281.8688 Q966.9347,281.8688 967.5113,282.0234 Q968.1019,282.1641 968.5941,282.4875 Z " fill="#000000"/><text fill="#000000" font-family="sans-serif" font-size="12.6" lengthAdjust="spacing" textLength="146.7" x="984.195" y="291.4172">AnnouncementRepository</text><line style="stroke:#181818;stroke-width:0.45;" x1="928.8" x2="1157.4" y1="300.6" y2="300.6"/><line style="stroke:#181818;stroke-width:0.9;" x1="928.8" x2="1157.4" y1="307.8" y2="307.8"/><text fill="#000000" font-family="sans-serif" font-size="12.6" lengthAdjust="spacing" textLength="110.7" x="933.3" y="324.9967">+getAnnouncement</text><text fill="#000000" font-family="sans-serif" font-size="12.6" lengthAdjust="spacing" textLength="219.6" x="933.3" y="341.7557">+addPropertyAnnouncement(property)</text></g><!--class SelectedParameters--><g id="elem_SelectedParameters"><rect fill="#F1F1F1" height="277.8258" id="SelectedParameters" rx="2.25" ry="2.25" style="stroke:#181818;stroke-width:0.45;" width="520.2" x="345.6" y="171"/><ellipse cx="544.275" cy="185.4" fill="#ADD1B2" rx="9.9" ry="9.9" style="stroke:#181818;stroke-width:0.9;"/><path d="M546.7641,181.6875 Q546.9047,181.4906 547.0734,181.3922 Q547.2422,181.2938 547.4391,181.2938 Q547.7766,181.2938 547.9875,181.5328 Q548.1984,181.7578 548.1984,182.3063 L548.1984,183.6141 Q548.1984,184.1625 547.9875,184.4016 Q547.7766,184.6406 547.4391,184.6406 Q547.1297,184.6406 546.9469,184.4578 Q546.7641,184.2891 546.6656,183.825 Q546.6234,183.5016 546.4547,183.3328 Q546.1594,182.9953 545.6109,182.7984 Q545.0625,182.6016 544.5,182.6016 Q543.8109,182.6016 543.2344,182.8969 Q542.6719,183.1922 542.2219,183.8672 Q541.7859,184.5422 541.7859,185.4703 L541.7859,186.4547 Q541.7859,187.5656 542.5875,188.3109 Q543.3891,189.0422 544.8234,189.0422 Q545.6672,189.0422 546.2578,188.8172 Q546.6094,188.6766 546.9891,188.2828 Q547.2281,188.0438 547.3547,187.9734 Q547.4953,187.9031 547.6781,187.9031 Q547.9734,187.9031 548.1984,188.1422 Q548.4375,188.3672 548.4375,188.6766 Q548.4375,188.9859 548.1281,189.3516 Q547.6781,189.8719 546.9609,190.1672 Q545.9906,190.575 544.8234,190.575 Q543.4594,190.575 542.3766,190.0125 Q541.4906,189.5625 540.8719,188.6063 Q540.2531,187.6359 540.2531,186.4828 L540.2531,185.4422 Q540.2531,184.2469 540.8016,183.2203 Q541.3641,182.1797 542.3484,181.6313 Q543.3328,181.0688 544.4438,181.0688 Q545.1047,181.0688 545.6813,181.2234 Q546.2719,181.3641 546.7641,181.6875 Z " fill="#000000"/><text fill="#000000" font-family="sans-serif" font-size="12.6" lengthAdjust="spacing" textLength="115.2" x="562.725" y="190.6172">SelectedParameters</text><line style="stroke:#181818;stroke-width:0.45;" x1="346.5" x2="864.9" y1="199.8" y2="199.8"/><text fill="#000000" font-family="sans-serif" font-size="12.6" lengthAdjust="spacing" textLength="120.6" x="351" y="216.9967">-String businessType</text><text fill="#000000" font-family="sans-serif" font-size="12.6" lengthAdjust="spacing" textLength="117.9" x="351" y="233.7557">-String propertyType</text><text fill="#000000" font-family="sans-serif" font-size="12.6" lengthAdjust="spacing" textLength="104.4" x="351" y="250.5146">-int numberRooms</text><text fill="#000000" font-family="sans-serif" font-size="12.6" lengthAdjust="spacing" textLength="109.8" x="351" y="267.2736">-String priceSorting</text><line style="stroke:#181818;stroke-width:0.9;" x1="346.5" x2="864.9" y1="274.0359" y2="274.0359"/><text fill="#000000" font-family="sans-serif" font-size="12.6" lengthAdjust="spacing" textLength="509.4" x="351" y="291.2326">+SelectedParameters(businessType,propertyType, numberRooms, priceSorting, address)</text><text fill="#000000" font-family="sans-serif" font-size="12.6" lengthAdjust="spacing" textLength="110.7" x="351" y="307.9916">+setPropertyPrice()</text><text fill="#000000" font-family="sans-serif" font-size="12.6" lengthAdjust="spacing" textLength="113.4" x="351" y="324.7506">+setBusinessType()</text><text fill="#000000" font-family="sans-serif" font-size="12.6" lengthAdjust="spacing" textLength="117" x="351" y="341.5096">+setNumberRooms()</text><text fill="#000000" font-family="sans-serif" font-size="12.6" lengthAdjust="spacing" textLength="80.1" x="351" y="358.2686">+setAddress()</text><text fill="#000000" font-family="sans-serif" font-size="12.6" lengthAdjust="spacing" textLength="73.8" x="351" y="375.0275">+getAdress()</text><text fill="#000000" font-family="sans-serif" font-size="12.6" lengthAdjust="spacing" textLength="105.3" x="351" y="391.7865">+getBusinessType</text><text fill="#000000" font-family="sans-serif" font-size="12.6" lengthAdjust="spacing" textLength="102.6" x="351" y="408.5455">+getPropertyType</text><text fill="#000000" font-family="sans-serif" font-size="12.6" lengthAdjust="spacing" textLength="108.9" x="351" y="425.3045">+getNumberRooms</text><text fill="#000000" font-family="sans-serif" font-size="12.6" lengthAdjust="spacing" textLength="102.6" x="351" y="442.0635">+getPropertyPrice</text></g><!--class Address--><g id="elem_Address"><rect fill="#F1F1F1" height="160.5129" id="Address" rx="2.25" ry="2.25" style="stroke:#181818;stroke-width:0.45;" width="264.6" x="6.3" y="229.95"/><ellipse cx="111.375" cy="244.35" fill="#ADD1B2" rx="9.9" ry="9.9" style="stroke:#181818;stroke-width:0.9;"/><path d="M113.8641,240.6375 Q114.0047,240.4406 114.1734,240.3422 Q114.3422,240.2438 114.5391,240.2438 Q114.8766,240.2438 115.0875,240.4828 Q115.2984,240.7078 115.2984,241.2563 L115.2984,242.5641 Q115.2984,243.1125 115.0875,243.3516 Q114.8766,243.5906 114.5391,243.5906 Q114.2297,243.5906 114.0469,243.4078 Q113.8641,243.2391 113.7656,242.775 Q113.7234,242.4516 113.5547,242.2828 Q113.2594,241.9453 112.7109,241.7484 Q112.1625,241.5516 111.6,241.5516 Q110.9109,241.5516 110.3344,241.8469 Q109.7719,242.1422 109.3219,242.8172 Q108.8859,243.4922 108.8859,244.4203 L108.8859,245.4047 Q108.8859,246.5156 109.6875,247.2609 Q110.4891,247.9922 111.9234,247.9922 Q112.7672,247.9922 113.3578,247.7672 Q113.7094,247.6266 114.0891,247.2328 Q114.3281,246.9938 114.4547,246.9234 Q114.5953,246.8531 114.7781,246.8531 Q115.0734,246.8531 115.2984,247.0922 Q115.5375,247.3172 115.5375,247.6266 Q115.5375,247.9359 115.2281,248.3016 Q114.7781,248.8219 114.0609,249.1172 Q113.0906,249.525 111.9234,249.525 Q110.5594,249.525 109.4766,248.9625 Q108.5906,248.5125 107.9719,247.5563 Q107.3531,246.5859 107.3531,245.4328 L107.3531,244.3922 Q107.3531,243.1969 107.9016,242.1703 Q108.4641,241.1297 109.4484,240.5813 Q110.4328,240.0188 111.5438,240.0188 Q112.2047,240.0188 112.7813,240.1734 Q113.3719,240.3141 113.8641,240.6375 Z " fill="#000000"/><text fill="#000000" font-family="sans-serif" font-size="12.6" lengthAdjust="spacing" textLength="46.8" x="129.825" y="249.5672">Address</text><line style="stroke:#181818;stroke-width:0.45;" x1="7.2" x2="270" y1="258.75" y2="258.75"/><text fill="#000000" font-family="sans-serif" font-size="12.6" lengthAdjust="spacing" textLength="73.8" x="11.7" y="275.9467">-String street</text><text fill="#000000" font-family="sans-serif" font-size="12.6" lengthAdjust="spacing" textLength="60.3" x="11.7" y="292.7057">-String city</text><text fill="#000000" font-family="sans-serif" font-size="12.6" lengthAdjust="spacing" textLength="78.3" x="11.7" y="309.4646">-String district</text><text fill="#000000" font-family="sans-serif" font-size="12.6" lengthAdjust="spacing" textLength="69.3" x="11.7" y="326.2236">-String state</text><text fill="#000000" font-family="sans-serif" font-size="12.6" lengthAdjust="spacing" textLength="87.3" x="11.7" y="342.9826">-String zipCode</text><line style="stroke:#181818;stroke-width:0.9;" x1="7.2" x2="270" y1="349.7449" y2="349.7449"/><text fill="#000000" font-family="sans-serif" font-size="12.6" lengthAdjust="spacing" textLength="253.8" x="11.7" y="366.9416">+Address(street, city, district, state, zipCode)</text><text fill="#000000" font-family="sans-serif" font-size="12.6" lengthAdjust="spacing" textLength="107.1" x="11.7" y="383.7006">+setAddressData()</text></g><!--link PropertyListUI to PropertyListController--><g id="link_PropertyListUI_PropertyListController"><path d="M295.551,53.1 C304.407,53.1 313.434,53.1 321.885,53.1 " fill="none" id="PropertyListUI-to-PropertyListController" style="stroke:#181818;stroke-width:0.9;stroke-dasharray:7.0,7.0;"/><polygon fill="#181818" points="326.52,53.1,318.42,49.5,322.02,53.1,318.42,56.7,326.52,53.1" style="stroke:#181818;stroke-width:0.9;"/></g><!--link PropertyListController to SelectedParameters--><g id="link_PropertyListController_SelectedParameters"><path d="M605.7,91.377 C605.7,111.717 605.7,138.339 605.7,165.942 " fill="none" id="PropertyListController-to-SelectedParameters" style="stroke:#181818;stroke-width:0.9;stroke-dasharray:7.0,7.0;"/><polygon fill="#181818" points="605.7,170.739,609.3,162.639,605.7,166.239,602.1,162.639,605.7,170.739" style="stroke:#181818;stroke-width:0.9;"/></g><!--link PropertyListController to Repositories--><g id="link_PropertyListController_Repositories"><path d="M885.033,53.1 C916.263,53.1 946.368,53.1 973.017,53.1 " fill="none" id="PropertyListController-to-Repositories" style="stroke:#181818;stroke-width:0.9;stroke-dasharray:7.0,7.0;"/><polygon fill="#181818" points="977.607,53.1,969.507,49.5,973.107,53.1,969.507,56.7,977.607,53.1" style="stroke:#181818;stroke-width:0.9;"/><text fill="#000000" font-family="sans-serif" font-size="11.7" lengthAdjust="spacing" textLength="60.3" x="901.125" y="46.8255">repositories</text></g><!--link PropertyListController to AnnouncementRepository--><g id="link_PropertyListController_AnnouncementRepository"><path d="M693.972,91.503 C774.531,125.721 881.1,171 881.1,171 C881.1,171 947.763,227.853 995.562,268.614 " fill="none" id="PropertyListController-to-AnnouncementRepository" style="stroke:#181818;stroke-width:0.9;stroke-dasharray:7.0,7.0;"/><polygon fill="#181818" points="999.261,271.764,995.4217,263.7746,995.8326,268.8492,990.758,269.2601,999.261,271.764" style="stroke:#181818;stroke-width:0.9;"/><text fill="#000000" font-family="sans-serif" font-size="11.7" lengthAdjust="spacing" textLength="134.1" x="816.3" y="140.4255">AnnouncementRepository</text></g><!--link Repositories to AnnouncementRepository--><g id="link_Repositories_AnnouncementRepository"><path d="M1068.192,99.909 C1062.504,147.348 1053.702,220.779 1048.176,266.85 " fill="none" id="Repositories-to-AnnouncementRepository" style="stroke:#181818;stroke-width:0.9;"/><polygon fill="#181818" points="1047.618,271.494,1052.1436,263.8724,1048.146,267.0251,1044.9933,263.0275,1047.618,271.494" style="stroke:#181818;stroke-width:0.9;"/></g><!--link Repositories to Repositories--><g id="link_Repositories_Repositories"><path d="M1169.775,38.637 C1188.099,40.374 1201.05,45.189 1201.05,53.1 C1201.05,60.327 1190.223,64.98 1174.374,67.05 " fill="none" id="Repositories-to-Repositories" style="stroke:#181818;stroke-width:0.9;"/><polygon fill="#181818" points="1169.775,67.563,1178.2255,70.2385,1174.247,67.0618,1177.4237,63.0833,1169.775,67.563" style="stroke:#181818;stroke-width:0.9;"/><text fill="#000000" font-family="sans-serif" font-size="11.7" lengthAdjust="spacing" textLength="67.5" x="1206.45" y="58.0755">getInstance()</text></g><!--link Address to SelectedParameters--><g id="link_Address_SelectedParameters"><path d="M271.206,310.05 C291.006,310.05 312.003,310.05 333.441,310.05 " fill="none" id="Address-to-SelectedParameters" style="stroke:#181818;stroke-width:0.9;stroke-dasharray:7.0,7.0;"/><polygon fill="#181818" points="345.402,310.05,340.002,306.45,334.602,310.05,340.002,313.65,345.402,310.05" style="stroke:#181818;stroke-width:0.9;"/><text fill="#000000" font-family="sans-serif" font-size="11.7" lengthAdjust="spacing" textLength="41.4" x="287.55" y="303.7755">address</text></g><!--SRC=[ZLJ9Rjim4BtpAtYpt4f6ppaOSDABWI8melO3Q6eY4w58WHoXK8B-Uwc55gcbZIwItkmpRsPdtuIgcM4LhRJI_6Pq1HHD0sIIr8o_iH9oR2LG0noPAcMeO6-iqB-5AkahapQKIA40snfehMNR_P3TYb0Rr2Imuf9PUq8qujeWdBbMkNW7-esGdOHNfAYf4UKDQI6wT8HMXFGsz69q3GRR7yBYhpFz8EJFckX9ApHQIZ1EXRedoxB-_PLo0mmX1-aSGt7fyW44OvDhOrs-rlvq6QUq7hqDVwgfhc1UjAvi9n8SSbUJQqXAfUQiot0_-Y-4hILhJqhfHd6eG66NKH82Br1hAr2RDgNBJFParwTCIy2LFFzj48Qn6q7tKzFke03hMnM1oLYNStrMrZ63GxAd3v7ENMCzN1B4MzVu8DDyPcv6b1M5dsyeJVoOWX3B_lZ2SaSun-5mq94WdFaW40h3sS-q9nfuZlaY_aUlJxFBrMsSqJZXLSUUU1RGj-ZI-GW5Zq7m47-U8eVmQOXwXxgPB937UHjxz3BlOOy-pteOgVRPTlFp71cYnqEpQ00mWhZ0DWBSwhaFZZD3j-uHyYxg9rt0n3bVxX0ZxHsdTs_fu2BrTcCBfZPzPyW6Zi-kq-6uSPJ8ngqwE8lbX3UrZ_7wFhZR7IpbjjNw4ZhxTG69ecJPyNDwY-oY4q9MrlJBuT2V_x6lpcIaF_aB]--></g></svg>