<?xml version="1.0" encoding="us-ascii" standalone="no"?><svg xmlns="http://www.w3.org/2000/svg" xmlns:xlink="http://www.w3.org/1999/xlink" contentStyleType="text/css" height="1831.5px" preserveAspectRatio="none" style="width:1369px;height:1831px;background:#FFFFFF;" version="1.1" viewBox="0 0 1369 1831" width="1369.8px" zoomAndPan="magnify"><defs/><g><rect fill="#FFFFFF" height="1664.0262" style="stroke:#181818;stroke-width:0.9;" width="9" x="76.5" y="84.259"/><rect fill="#FFFFFF" height="322.6781" style="stroke:#181818;stroke-width:0.9;" width="9" x="298.8" y="105.2209"/><rect fill="#FFFFFF" height="751.1098" style="stroke:#181818;stroke-width:0.9;" width="9" x="298.8" y="456.0609"/><rect fill="#FFFFFF" height="112.6477" style="stroke:#181818;stroke-width:0.9;" width="9" x="303.3" y="620.5324"/><rect fill="#FFFFFF" height="112.6477" style="stroke:#181818;stroke-width:0.9;" width="9" x="303.3" y="791.3039"/><rect fill="#FFFFFF" height="112.6477" style="stroke:#181818;stroke-width:0.9;" width="9" x="303.3" y="985.7373"/><rect fill="#FFFFFF" height="208.8334" style="stroke:#181818;stroke-width:0.9;" width="9" x="298.8" y="1258.9945"/><rect fill="#FFFFFF" height="208.8334" style="stroke:#181818;stroke-width:0.9;" width="9" x="298.8" y="1525.9518"/><rect fill="#FFFFFF" height="197.1334" style="stroke:#181818;stroke-width:0.9;" width="9" x="765" y="196.3037"/><rect fill="#FFFFFF" height="84.4857" style="stroke:#181818;stroke-width:0.9;" width="9" x="765" y="484.2229"/><rect fill="#FFFFFF" height="84.4857" style="stroke:#181818;stroke-width:0.9;" width="9" x="765" y="648.6943"/><rect fill="#FFFFFF" height="84.4857" style="stroke:#181818;stroke-width:0.9;" width="9" x="765" y="819.4658"/><rect fill="#FFFFFF" height="84.4857" style="stroke:#181818;stroke-width:0.9;" width="9" x="765" y="1013.8992"/><rect fill="#FFFFFF" height="84.4857" style="stroke:#181818;stroke-width:0.9;" width="9" x="765" y="1287.1564"/><rect fill="#FFFFFF" height="84.4857" style="stroke:#181818;stroke-width:0.9;" width="9" x="765" y="1554.1137"/><rect fill="#FFFFFF" height="28.1619" style="stroke:#181818;stroke-width:0.9;" width="9" x="887.85" y="224.4656"/><rect fill="#FFFFFF" height="28.1619" style="stroke:#181818;stroke-width:0.9;" width="9" x="984.15" y="280.7895"/><rect fill="#FFFFFF" height="28.1619" style="stroke:#181818;stroke-width:0.9;" width="9" x="1119.15" y="337.1133"/><rect fill="#FFFFFF" height="28.1619" style="stroke:#181818;stroke-width:0.9;" width="9" x="1276.2" y="512.3848"/><rect fill="#FFFFFF" height="28.1619" style="stroke:#181818;stroke-width:0.9;" width="9" x="1276.2" y="676.8563"/><rect fill="#FFFFFF" height="28.1619" style="stroke:#181818;stroke-width:0.9;" width="9" x="1276.2" y="847.6277"/><rect fill="#FFFFFF" height="28.1619" style="stroke:#181818;stroke-width:0.9;" width="9" x="1276.2" y="1042.0611"/><rect fill="#FFFFFF" height="28.1619" style="stroke:#181818;stroke-width:0.9;" width="9" x="1276.2" y="1315.3184"/><rect fill="#FFFFFF" height="28.1619" style="stroke:#181818;stroke-width:0.9;" width="9" x="1276.2" y="1582.2756"/><rect fill="none" height="242.6572" style="stroke:#000000;stroke-width:1.35;" width="968.4" x="246.6" y="157.9799"/><rect fill="none" height="158.1715" style="stroke:#000000;stroke-width:1.35;" width="1337.4" x="18" y="582.2086"/><rect fill="none" height="158.1715" style="stroke:#000000;stroke-width:1.35;" width="1337.4" x="18" y="752.9801"/><rect fill="none" height="188.1334" style="stroke:#000000;stroke-width:1.35;" width="1355.4" x="9" y="923.7516"/><rect fill="none" height="158.1715" style="stroke:#000000;stroke-width:1.35;" width="1337.4" x="18" y="947.4135"/><rect fill="none" height="254.3572" style="stroke:#000000;stroke-width:1.35;" width="1337.4" x="18" y="1220.6707"/><rect fill="none" height="254.3572" style="stroke:#000000;stroke-width:1.35;" width="1337.4" x="18" y="1487.6279"/><line style="stroke:#181818;stroke-width:0.45;stroke-dasharray:5.0,5.0;" x1="81" x2="81" y1="75.259" y2="1757.2852"/><line style="stroke:#181818;stroke-width:0.45;stroke-dasharray:5.0,5.0;" x1="303.3" x2="303.3" y1="75.259" y2="1757.2852"/><line style="stroke:#181818;stroke-width:0.45;stroke-dasharray:5.0,5.0;" x1="769.5" x2="769.5" y1="141.0504" y2="1757.2852"/><line style="stroke:#181818;stroke-width:0.45;stroke-dasharray:5.0,5.0;" x1="891.9" x2="891.9" y1="75.259" y2="1757.2852"/><line style="stroke:#181818;stroke-width:0.45;stroke-dasharray:5.0,5.0;" x1="988.2" x2="988.2" y1="75.259" y2="1757.2852"/><line style="stroke:#181818;stroke-width:0.45;stroke-dasharray:5.0,5.0;" x1="1123.2" x2="1123.2" y1="75.259" y2="1757.2852"/><line style="stroke:#181818;stroke-width:0.45;stroke-dasharray:5.0,5.0;" x1="1280.7" x2="1280.7" y1="75.259" y2="1757.2852"/><text fill="#000000" font-family="sans-serif" font-size="12.6" lengthAdjust="spacing" textLength="102.6" x="27" y="72.0967">Unregistered User</text><ellipse cx="81" cy="12.15" fill="#E3E3E3" rx="7.2" ry="7.2" style="stroke:#181818;stroke-width:0.45;"/><path d="M81,19.35 L81,43.65 M69.3,26.55 L92.7,26.55 M81,43.65 L69.3,57.15 M81,43.65 L92.7,57.15 " fill="none" style="stroke:#181818;stroke-width:0.45;"/><text fill="#000000" font-family="sans-serif" font-size="12.6" lengthAdjust="spacing" textLength="102.6" x="27" y="1769.9818">Unregistered User</text><ellipse cx="81" cy="1780.7941" fill="#E3E3E3" rx="7.2" ry="7.2" style="stroke:#181818;stroke-width:0.45;"/><path d="M81,1787.9941 L81,1812.2941 M69.3,1795.1941 L92.7,1795.1941 M81,1812.2941 L69.3,1825.7941 M81,1812.2941 L92.7,1825.7941 " fill="none" style="stroke:#181818;stroke-width:0.45;"/><rect fill="#E3E3E3" height="29.359" rx="2.25" ry="2.25" style="stroke:#181818;stroke-width:0.45;" width="95.4" x="255.6" y="45"/><text fill="#000000" font-family="sans-serif" font-size="12.6" lengthAdjust="spacing" textLength="82.8" x="261.9" y="64.8967">:PropertyListUI</text><rect fill="#E3E3E3" height="29.359" rx="2.25" ry="2.25" style="stroke:#181818;stroke-width:0.45;" width="95.4" x="255.6" y="1756.3852"/><text fill="#000000" font-family="sans-serif" font-size="12.6" lengthAdjust="spacing" textLength="82.8" x="261.9" y="1776.2818">:PropertyListUI</text><rect fill="#E3E3E3" height="29.359" rx="2.25" ry="2.25" style="stroke:#181818;stroke-width:0.45;" width="140.4" x="699.3" y="1756.3852"/><text fill="#000000" font-family="sans-serif" font-size="12.6" lengthAdjust="spacing" textLength="127.8" x="705.6" y="1776.2818">:PropertyListController</text><rect fill="#E3E3E3" height="29.359" rx="2.25" ry="2.25" style="stroke:#181818;stroke-width:0.45;" width="87.3" x="848.7" y="45"/><text fill="#000000" font-family="sans-serif" font-size="12.6" lengthAdjust="spacing" textLength="74.7" x="855" y="64.8967">:Repositories</text><rect fill="#E3E3E3" height="29.359" rx="2.25" ry="2.25" style="stroke:#181818;stroke-width:0.45;" width="87.3" x="848.7" y="1756.3852"/><text fill="#000000" font-family="sans-serif" font-size="12.6" lengthAdjust="spacing" textLength="74.7" x="855" y="1776.2818">:Repositories</text><rect fill="#E3E3E3" height="46.118" rx="2.25" ry="2.25" style="stroke:#181818;stroke-width:0.45;" width="87.3" x="945" y="28.241"/><text fill="#000000" font-family="sans-serif" font-size="12.6" lengthAdjust="spacing" textLength="66.6" x="955.35" y="48.1377">repositories</text><text fill="#000000" font-family="sans-serif" font-size="12.6" lengthAdjust="spacing" textLength="74.7" x="951.3" y="64.8967">:Repositories</text><rect fill="#E3E3E3" height="46.118" rx="2.25" ry="2.25" style="stroke:#181818;stroke-width:0.45;" width="87.3" x="945" y="1756.3852"/><text fill="#000000" font-family="sans-serif" font-size="12.6" lengthAdjust="spacing" textLength="66.6" x="955.35" y="1776.2818">repositories</text><text fill="#000000" font-family="sans-serif" font-size="12.6" lengthAdjust="spacing" textLength="74.7" x="951.3" y="1793.0408">:Repositories</text><rect fill="#E3E3E3" height="46.118" rx="2.25" ry="2.25" style="stroke:#181818;stroke-width:0.45;" width="164.7" x="1041.3" y="28.241"/><text fill="#000000" font-family="sans-serif" font-size="12.6" lengthAdjust="spacing" textLength="152.1" x="1047.6" y="48.1377">announcementsRepository</text><text fill="#000000" font-family="sans-serif" font-size="12.6" lengthAdjust="spacing" textLength="150.3" x="1048.5" y="64.8967">:AnnouncementRepository</text><rect fill="#E3E3E3" height="46.118" rx="2.25" ry="2.25" style="stroke:#181818;stroke-width:0.45;" width="164.7" x="1041.3" y="1756.3852"/><text fill="#000000" font-family="sans-serif" font-size="12.6" lengthAdjust="spacing" textLength="152.1" x="1047.6" y="1776.2818">announcementsRepository</text><text fill="#000000" font-family="sans-serif" font-size="12.6" lengthAdjust="spacing" textLength="150.3" x="1048.5" y="1793.0408">:AnnouncementRepository</text><rect fill="#E3E3E3" height="29.359" rx="2.25" ry="2.25" style="stroke:#181818;stroke-width:0.45;" width="131.4" x="1215" y="45"/><text fill="#000000" font-family="sans-serif" font-size="12.6" lengthAdjust="spacing" textLength="118.8" x="1221.3" y="64.8967">:SelectedParameters</text><rect fill="#E3E3E3" height="29.359" rx="2.25" ry="2.25" style="stroke:#181818;stroke-width:0.45;" width="131.4" x="1215" y="1756.3852"/><text fill="#000000" font-family="sans-serif" font-size="12.6" lengthAdjust="spacing" textLength="118.8" x="1221.3" y="1776.2818">:SelectedParameters</text><rect fill="#FFFFFF" height="1664.0262" style="stroke:#181818;stroke-width:0.9;" width="9" x="76.5" y="84.259"/><rect fill="#FFFFFF" height="322.6781" style="stroke:#181818;stroke-width:0.9;" width="9" x="298.8" y="105.2209"/><rect fill="#FFFFFF" height="751.1098" style="stroke:#181818;stroke-width:0.9;" width="9" x="298.8" y="456.0609"/><rect fill="#FFFFFF" height="112.6477" style="stroke:#181818;stroke-width:0.9;" width="9" x="303.3" y="620.5324"/><rect fill="#FFFFFF" height="112.6477" style="stroke:#181818;stroke-width:0.9;" width="9" x="303.3" y="791.3039"/><rect fill="#FFFFFF" height="112.6477" style="stroke:#181818;stroke-width:0.9;" width="9" x="303.3" y="985.7373"/><rect fill="#FFFFFF" height="208.8334" style="stroke:#181818;stroke-width:0.9;" width="9" x="298.8" y="1258.9945"/><rect fill="#FFFFFF" height="208.8334" style="stroke:#181818;stroke-width:0.9;" width="9" x="298.8" y="1525.9518"/><rect fill="#FFFFFF" height="197.1334" style="stroke:#181818;stroke-width:0.9;" width="9" x="765" y="196.3037"/><rect fill="#FFFFFF" height="84.4857" style="stroke:#181818;stroke-width:0.9;" width="9" x="765" y="484.2229"/><rect fill="#FFFFFF" height="84.4857" style="stroke:#181818;stroke-width:0.9;" width="9" x="765" y="648.6943"/><rect fill="#FFFFFF" height="84.4857" style="stroke:#181818;stroke-width:0.9;" width="9" x="765" y="819.4658"/><rect fill="#FFFFFF" height="84.4857" style="stroke:#181818;stroke-width:0.9;" width="9" x="765" y="1013.8992"/><rect fill="#FFFFFF" height="84.4857" style="stroke:#181818;stroke-width:0.9;" width="9" x="765" y="1287.1564"/><rect fill="#FFFFFF" height="84.4857" style="stroke:#181818;stroke-width:0.9;" width="9" x="765" y="1554.1137"/><rect fill="#FFFFFF" height="28.1619" style="stroke:#181818;stroke-width:0.9;" width="9" x="887.85" y="224.4656"/><rect fill="#FFFFFF" height="28.1619" style="stroke:#181818;stroke-width:0.9;" width="9" x="984.15" y="280.7895"/><rect fill="#FFFFFF" height="28.1619" style="stroke:#181818;stroke-width:0.9;" width="9" x="1119.15" y="337.1133"/><rect fill="#FFFFFF" height="28.1619" style="stroke:#181818;stroke-width:0.9;" width="9" x="1276.2" y="512.3848"/><rect fill="#FFFFFF" height="28.1619" style="stroke:#181818;stroke-width:0.9;" width="9" x="1276.2" y="676.8563"/><rect fill="#FFFFFF" height="28.1619" style="stroke:#181818;stroke-width:0.9;" width="9" x="1276.2" y="847.6277"/><rect fill="#FFFFFF" height="28.1619" style="stroke:#181818;stroke-width:0.9;" width="9" x="1276.2" y="1042.0611"/><rect fill="#FFFFFF" height="28.1619" style="stroke:#181818;stroke-width:0.9;" width="9" x="1276.2" y="1315.3184"/><rect fill="#FFFFFF" height="28.1619" style="stroke:#181818;stroke-width:0.9;" width="9" x="1276.2" y="1582.2756"/><polygon fill="#181818" points="288,101.6209,297,105.2209,288,108.8209,291.6,105.2209" style="stroke:#181818;stroke-width:0.9;"/><line style="stroke:#181818;stroke-width:0.9;" x1="85.5" x2="293.4" y1="105.2209" y2="105.2209"/><text fill="#000000" font-family="sans-serif" font-size="11.7" font-weight="bold" lengthAdjust="spacing" textLength="6.3" x="91.8" y="100.4845">1</text><text fill="#000000" font-family="sans-serif" font-size="11.7" lengthAdjust="spacing" textLength="86.4" x="101.7" y="100.4845">initiates program</text><polygon fill="#181818" points="688.5,129.7828,697.5,133.3828,688.5,136.9828,692.1,133.3828" style="stroke:#181818;stroke-width:0.9;"/><line style="stroke:#181818;stroke-width:0.9;" x1="307.8" x2="693.9" y1="133.3828" y2="133.3828"/><text fill="#000000" font-family="sans-serif" font-size="11.7" font-weight="bold" lengthAdjust="spacing" textLength="6.3" x="314.1" y="128.6464">2</text><text fill="#000000" font-family="sans-serif" font-size="11.7" lengthAdjust="spacing" textLength="32.4" x="324" y="128.6464">create</text><rect fill="#E3E3E3" height="29.359" rx="2.25" ry="2.25" style="stroke:#181818;stroke-width:0.45;" width="140.4" x="699.3" y="112.4209"/><text fill="#000000" font-family="sans-serif" font-size="12.6" lengthAdjust="spacing" textLength="127.8" x="705.6" y="132.3176">:PropertyListController</text><path d="M246.6,157.9799 L312.3,157.9799 L312.3,166.3418 L303.3,175.3418 L246.6,175.3418 L246.6,157.9799 " fill="#EEEEEE" style="stroke:#000000;stroke-width:1.35;"/><rect fill="none" height="242.6572" style="stroke:#000000;stroke-width:1.35;" width="968.4" x="246.6" y="157.9799"/><text fill="#000000" font-family="sans-serif" font-size="11.7" font-weight="bold" lengthAdjust="spacing" textLength="25.2" x="260.1" y="171.5054">loop</text><text fill="#000000" font-family="sans-serif" font-size="9.9" font-weight="bold" lengthAdjust="spacing" textLength="282.6" x="325.8" y="170.463">[everytime that is required to displayAnnouncementList]</text><polygon fill="#181818" points="754.2,192.7037,763.2,196.3037,754.2,199.9037,757.8,196.3037" style="stroke:#181818;stroke-width:0.9;"/><line style="stroke:#181818;stroke-width:0.9;" x1="307.8" x2="759.6" y1="196.3037" y2="196.3037"/><text fill="#000000" font-family="sans-serif" font-size="11.7" font-weight="bold" lengthAdjust="spacing" textLength="6.3" x="314.1" y="191.5673">3</text><text fill="#000000" font-family="sans-serif" font-size="11.7" lengthAdjust="spacing" textLength="388.8" x="324" y="191.5673">displayAnnouncementList(AnnouncementRepository, SelectedParameters)</text><polygon fill="#181818" points="877.05,220.8656,886.05,224.4656,877.05,228.0656,880.65,224.4656" style="stroke:#181818;stroke-width:0.9;"/><line style="stroke:#181818;stroke-width:0.9;" x1="774" x2="882.45" y1="224.4656" y2="224.4656"/><text fill="#000000" font-family="sans-serif" font-size="11.7" font-weight="bold" lengthAdjust="spacing" textLength="6.3" x="780.3" y="219.7292">4</text><text fill="#000000" font-family="sans-serif" font-size="11.7" lengthAdjust="spacing" textLength="67.5" x="790.2" y="219.7292">getInstance()</text><polygon fill="#181818" points="783.9,249.0275,774.9,252.6275,783.9,256.2275,780.3,252.6275" style="stroke:#181818;stroke-width:0.9;"/><line style="stroke:#181818;stroke-width:0.9;stroke-dasharray:2.0,2.0;" x1="778.5" x2="891.45" y1="252.6275" y2="252.6275"/><text fill="#000000" font-family="sans-serif" font-size="11.7" font-weight="bold" lengthAdjust="spacing" textLength="6.3" x="789.3" y="247.8911">5</text><text fill="#000000" font-family="sans-serif" font-size="11.7" lengthAdjust="spacing" textLength="60.3" x="799.2" y="247.8911">repositories</text><polygon fill="#181818" points="973.35,277.1895,982.35,280.7895,973.35,284.3895,976.95,280.7895" style="stroke:#181818;stroke-width:0.9;"/><line style="stroke:#181818;stroke-width:0.9;" x1="774" x2="978.75" y1="280.7895" y2="280.7895"/><text fill="#000000" font-family="sans-serif" font-size="11.7" font-weight="bold" lengthAdjust="spacing" textLength="6.3" x="780.3" y="276.053">6</text><text fill="#000000" font-family="sans-serif" font-size="11.7" lengthAdjust="spacing" textLength="157.5" x="790.2" y="276.053">getAnnouncementRepository()</text><polygon fill="#181818" points="783.9,305.3514,774.9,308.9514,783.9,312.5514,780.3,308.9514" style="stroke:#181818;stroke-width:0.9;"/><line style="stroke:#181818;stroke-width:0.9;stroke-dasharray:2.0,2.0;" x1="778.5" x2="987.75" y1="308.9514" y2="308.9514"/><text fill="#000000" font-family="sans-serif" font-size="11.7" font-weight="bold" lengthAdjust="spacing" textLength="6.3" x="789.3" y="304.2149">7</text><text fill="#000000" font-family="sans-serif" font-size="11.7" lengthAdjust="spacing" textLength="134.1" x="799.2" y="304.2149">AnnouncementRepository</text><polygon fill="#181818" points="1108.35,333.5133,1117.35,337.1133,1108.35,340.7133,1111.95,337.1133" style="stroke:#181818;stroke-width:0.9;"/><line style="stroke:#181818;stroke-width:0.9;" x1="774" x2="1113.75" y1="337.1133" y2="337.1133"/><text fill="#000000" font-family="sans-serif" font-size="11.7" font-weight="bold" lengthAdjust="spacing" textLength="6.3" x="780.3" y="332.3769">8</text><text fill="#000000" font-family="sans-serif" font-size="11.7" lengthAdjust="spacing" textLength="235.8" x="790.2" y="332.3769">getAnnouncement(AnnouncementRepository)</text><polygon fill="#181818" points="783.9,361.6752,774.9,365.2752,783.9,368.8752,780.3,365.2752" style="stroke:#181818;stroke-width:0.9;"/><line style="stroke:#181818;stroke-width:0.9;stroke-dasharray:2.0,2.0;" x1="778.5" x2="1122.75" y1="365.2752" y2="365.2752"/><text fill="#000000" font-family="sans-serif" font-size="11.7" font-weight="bold" lengthAdjust="spacing" textLength="6.3" x="789.3" y="360.5388">9</text><text fill="#000000" font-family="sans-serif" font-size="11.7" lengthAdjust="spacing" textLength="94.5" x="799.2" y="360.5388">getAnnouncement</text><polygon fill="#181818" points="317.7,389.8371,308.7,393.4371,317.7,397.0371,314.1,393.4371" style="stroke:#181818;stroke-width:0.9;"/><line style="stroke:#181818;stroke-width:0.9;stroke-dasharray:2.0,2.0;" x1="312.3" x2="768.6" y1="393.4371" y2="393.4371"/><text fill="#000000" font-family="sans-serif" font-size="11.7" font-weight="bold" lengthAdjust="spacing" textLength="12.6" x="323.1" y="388.7007">10</text><text fill="#000000" font-family="sans-serif" font-size="11.7" lengthAdjust="spacing" textLength="134.1" x="339.3" y="388.7007">displayAnnouncementList</text><polygon fill="#181818" points="95.4,424.299,86.4,427.899,95.4,431.499,91.8,427.899" style="stroke:#181818;stroke-width:0.9;"/><line style="stroke:#181818;stroke-width:0.9;stroke-dasharray:2.0,2.0;" x1="90" x2="302.4" y1="427.899" y2="427.899"/><text fill="#000000" font-family="sans-serif" font-size="11.7" font-weight="bold" lengthAdjust="spacing" textLength="12.6" x="100.8" y="423.1626">11</text><text fill="#000000" font-family="sans-serif" font-size="11.7" lengthAdjust="spacing" textLength="175.5" x="117" y="423.1626">display list filtered by most recent</text><polygon fill="#181818" points="288,452.4609,297,456.0609,288,459.6609,291.6,456.0609" style="stroke:#181818;stroke-width:0.9;"/><line style="stroke:#181818;stroke-width:0.9;" x1="85.5" x2="293.4" y1="456.0609" y2="456.0609"/><text fill="#000000" font-family="sans-serif" font-size="11.7" font-weight="bold" lengthAdjust="spacing" textLength="12.6" x="91.8" y="451.3245">12</text><text fill="#000000" font-family="sans-serif" font-size="11.7" lengthAdjust="spacing" textLength="141.3" x="108" y="451.3245">wants to select parameters</text><polygon fill="#181818" points="754.2,480.6229,763.2,484.2229,754.2,487.8229,757.8,484.2229" style="stroke:#181818;stroke-width:0.9;"/><line style="stroke:#181818;stroke-width:0.9;" x1="307.8" x2="759.6" y1="484.2229" y2="484.2229"/><text fill="#000000" font-family="sans-serif" font-size="11.7" font-weight="bold" lengthAdjust="spacing" textLength="12.6" x="314.1" y="479.4864">13</text><text fill="#000000" font-family="sans-serif" font-size="11.7" lengthAdjust="spacing" textLength="145.8" x="330.3" y="479.4864">createSelectedParameters()</text><polygon fill="#181818" points="1265.4,508.7848,1274.4,512.3848,1265.4,515.9848,1269,512.3848" style="stroke:#181818;stroke-width:0.9;"/><line style="stroke:#181818;stroke-width:0.9;" x1="774" x2="1270.8" y1="512.3848" y2="512.3848"/><text fill="#000000" font-family="sans-serif" font-size="11.7" font-weight="bold" lengthAdjust="spacing" textLength="12.6" x="780.3" y="507.6483">14</text><text fill="#000000" font-family="sans-serif" font-size="11.7" lengthAdjust="spacing" textLength="113.4" x="796.5" y="507.6483">SelectedParameters()</text><polygon fill="#181818" points="783.9,536.9467,774.9,540.5467,783.9,544.1467,780.3,540.5467" style="stroke:#181818;stroke-width:0.9;"/><line style="stroke:#181818;stroke-width:0.9;stroke-dasharray:2.0,2.0;" x1="778.5" x2="1279.8" y1="540.5467" y2="540.5467"/><text fill="#000000" font-family="sans-serif" font-size="11.7" font-weight="bold" lengthAdjust="spacing" textLength="12.6" x="789.3" y="535.8103">15</text><text fill="#000000" font-family="sans-serif" font-size="11.7" lengthAdjust="spacing" textLength="106.2" x="805.5" y="535.8103">SelectedParameters</text><polygon fill="#181818" points="317.7,565.1086,308.7,568.7086,317.7,572.3086,314.1,568.7086" style="stroke:#181818;stroke-width:0.9;"/><line style="stroke:#181818;stroke-width:0.9;stroke-dasharray:2.0,2.0;" x1="312.3" x2="768.6" y1="568.7086" y2="568.7086"/><text fill="#000000" font-family="sans-serif" font-size="11.7" font-weight="bold" lengthAdjust="spacing" textLength="12.6" x="323.1" y="563.9722">16</text><text fill="#000000" font-family="sans-serif" font-size="11.7" lengthAdjust="spacing" textLength="138.6" x="339.3" y="563.9722">createSelectedParameters</text><path d="M18,582.2086 L76.5,582.2086 L76.5,590.5705 L67.5,599.5705 L18,599.5705 L18,582.2086 " fill="#EEEEEE" style="stroke:#000000;stroke-width:1.35;"/><rect fill="none" height="158.1715" style="stroke:#000000;stroke-width:1.35;" width="1337.4" x="18" y="582.2086"/><text fill="#000000" font-family="sans-serif" font-size="11.7" font-weight="bold" lengthAdjust="spacing" textLength="18" x="31.5" y="595.7341">opt</text><text fill="#000000" font-family="sans-serif" font-size="9.9" font-weight="bold" lengthAdjust="spacing" textLength="90.9" x="90" y="594.6917">[type of business]</text><polygon fill="#181818" points="292.5,616.9324,301.5,620.5324,292.5,624.1324,296.1,620.5324" style="stroke:#181818;stroke-width:0.9;"/><line style="stroke:#181818;stroke-width:0.9;" x1="85.5" x2="297.9" y1="620.5324" y2="620.5324"/><text fill="#000000" font-family="sans-serif" font-size="11.7" font-weight="bold" lengthAdjust="spacing" textLength="12.6" x="91.8" y="615.796">17</text><text fill="#000000" font-family="sans-serif" font-size="11.7" lengthAdjust="spacing" textLength="126.9" x="108" y="615.796">selects type of business</text><polygon fill="#181818" points="754.2,645.0943,763.2,648.6943,754.2,652.2943,757.8,648.6943" style="stroke:#181818;stroke-width:0.9;"/><line style="stroke:#181818;stroke-width:0.9;" x1="312.3" x2="759.6" y1="648.6943" y2="648.6943"/><text fill="#000000" font-family="sans-serif" font-size="11.7" font-weight="bold" lengthAdjust="spacing" textLength="12.6" x="318.6" y="643.9579">18</text><text fill="#000000" font-family="sans-serif" font-size="11.7" lengthAdjust="spacing" textLength="97.2" x="334.8" y="643.9579">setBusinessType()</text><polygon fill="#181818" points="1265.4,673.2563,1274.4,676.8563,1265.4,680.4563,1269,676.8563" style="stroke:#181818;stroke-width:0.9;"/><line style="stroke:#181818;stroke-width:0.9;" x1="774" x2="1270.8" y1="676.8563" y2="676.8563"/><text fill="#000000" font-family="sans-serif" font-size="11.7" font-weight="bold" lengthAdjust="spacing" textLength="12.6" x="780.3" y="672.1198">19</text><text fill="#000000" font-family="sans-serif" font-size="11.7" lengthAdjust="spacing" textLength="97.2" x="796.5" y="672.1198">setBusinessType()</text><polygon fill="#181818" points="783.9,701.4182,774.9,705.0182,783.9,708.6182,780.3,705.0182" style="stroke:#181818;stroke-width:0.9;"/><line style="stroke:#181818;stroke-width:0.9;stroke-dasharray:2.0,2.0;" x1="778.5" x2="1279.8" y1="705.0182" y2="705.0182"/><text fill="#000000" font-family="sans-serif" font-size="11.7" font-weight="bold" lengthAdjust="spacing" textLength="12.6" x="789.3" y="700.2817">20</text><text fill="#000000" font-family="sans-serif" font-size="11.7" lengthAdjust="spacing" textLength="90" x="805.5" y="700.2817">setBusinessType</text><polygon fill="#181818" points="317.7,729.5801,308.7,733.1801,317.7,736.7801,314.1,733.1801" style="stroke:#181818;stroke-width:0.9;"/><line style="stroke:#181818;stroke-width:0.9;stroke-dasharray:2.0,2.0;" x1="312.3" x2="768.6" y1="733.1801" y2="733.1801"/><text fill="#000000" font-family="sans-serif" font-size="11.7" font-weight="bold" lengthAdjust="spacing" textLength="12.6" x="323.1" y="728.4437">21</text><text fill="#000000" font-family="sans-serif" font-size="11.7" lengthAdjust="spacing" textLength="90" x="339.3" y="728.4437">setBusinessType</text><path d="M18,752.9801 L76.5,752.9801 L76.5,761.342 L67.5,770.342 L18,770.342 L18,752.9801 " fill="#EEEEEE" style="stroke:#000000;stroke-width:1.35;"/><rect fill="none" height="158.1715" style="stroke:#000000;stroke-width:1.35;" width="1337.4" x="18" y="752.9801"/><text fill="#000000" font-family="sans-serif" font-size="11.7" font-weight="bold" lengthAdjust="spacing" textLength="18" x="31.5" y="766.5056">opt</text><text fill="#000000" font-family="sans-serif" font-size="9.9" font-weight="bold" lengthAdjust="spacing" textLength="87.3" x="90" y="765.4632">[type of property]</text><polygon fill="#181818" points="292.5,787.7039,301.5,791.3039,292.5,794.9039,296.1,791.3039" style="stroke:#181818;stroke-width:0.9;"/><line style="stroke:#181818;stroke-width:0.9;" x1="85.5" x2="297.9" y1="791.3039" y2="791.3039"/><text fill="#000000" font-family="sans-serif" font-size="11.7" font-weight="bold" lengthAdjust="spacing" textLength="12.6" x="91.8" y="786.5675">22</text><text fill="#000000" font-family="sans-serif" font-size="11.7" lengthAdjust="spacing" textLength="126" x="108" y="786.5675">selects  type of property</text><polygon fill="#181818" points="754.2,815.8658,763.2,819.4658,754.2,823.0658,757.8,819.4658" style="stroke:#181818;stroke-width:0.9;"/><line style="stroke:#181818;stroke-width:0.9;" x1="312.3" x2="759.6" y1="819.4658" y2="819.4658"/><text fill="#000000" font-family="sans-serif" font-size="11.7" font-weight="bold" lengthAdjust="spacing" textLength="12.6" x="318.6" y="814.7294">23</text><text fill="#000000" font-family="sans-serif" font-size="11.7" lengthAdjust="spacing" textLength="92.7" x="334.8" y="814.7294">setPropertyType()</text><polygon fill="#181818" points="1265.4,844.0277,1274.4,847.6277,1265.4,851.2277,1269,847.6277" style="stroke:#181818;stroke-width:0.9;"/><line style="stroke:#181818;stroke-width:0.9;" x1="774" x2="1270.8" y1="847.6277" y2="847.6277"/><text fill="#000000" font-family="sans-serif" font-size="11.7" font-weight="bold" lengthAdjust="spacing" textLength="12.6" x="780.3" y="842.8913">24</text><text fill="#000000" font-family="sans-serif" font-size="11.7" lengthAdjust="spacing" textLength="92.7" x="796.5" y="842.8913">setPropertyType()</text><polygon fill="#181818" points="783.9,872.1896,774.9,875.7896,783.9,879.3896,780.3,875.7896" style="stroke:#181818;stroke-width:0.9;"/><line style="stroke:#181818;stroke-width:0.9;stroke-dasharray:2.0,2.0;" x1="778.5" x2="1279.8" y1="875.7896" y2="875.7896"/><text fill="#000000" font-family="sans-serif" font-size="11.7" font-weight="bold" lengthAdjust="spacing" textLength="12.6" x="789.3" y="871.0532">25</text><text fill="#000000" font-family="sans-serif" font-size="11.7" lengthAdjust="spacing" textLength="85.5" x="805.5" y="871.0532">setPropertyType</text><polygon fill="#181818" points="317.7,900.3516,308.7,903.9516,317.7,907.5516,314.1,903.9516" style="stroke:#181818;stroke-width:0.9;"/><line style="stroke:#181818;stroke-width:0.9;stroke-dasharray:2.0,2.0;" x1="312.3" x2="768.6" y1="903.9516" y2="903.9516"/><text fill="#000000" font-family="sans-serif" font-size="11.7" font-weight="bold" lengthAdjust="spacing" textLength="12.6" x="323.1" y="899.2151">26</text><text fill="#000000" font-family="sans-serif" font-size="11.7" lengthAdjust="spacing" textLength="85.5" x="339.3" y="899.2151">setPropertyType</text><path d="M9,923.7516 L63.9,923.7516 L63.9,932.1135 L54.9,941.1135 L9,941.1135 L9,923.7516 " fill="#EEEEEE" style="stroke:#000000;stroke-width:1.35;"/><rect fill="none" height="188.1334" style="stroke:#000000;stroke-width:1.35;" width="1355.4" x="9" y="923.7516"/><text fill="#000000" font-family="sans-serif" font-size="11.7" font-weight="bold" lengthAdjust="spacing" textLength="14.4" x="22.5" y="937.2771">alt</text><text fill="#000000" font-family="sans-serif" font-size="9.9" font-weight="bold" lengthAdjust="spacing" textLength="112.5" x="77.4" y="936.2347">[propertyType != Land]</text><path d="M18,947.4135 L76.5,947.4135 L76.5,955.7754 L67.5,964.7754 L18,964.7754 L18,947.4135 " fill="#EEEEEE" style="stroke:#000000;stroke-width:1.35;"/><rect fill="none" height="158.1715" style="stroke:#000000;stroke-width:1.35;" width="1337.4" x="18" y="947.4135"/><text fill="#000000" font-family="sans-serif" font-size="11.7" font-weight="bold" lengthAdjust="spacing" textLength="18" x="31.5" y="960.939">opt</text><text fill="#000000" font-family="sans-serif" font-size="9.9" font-weight="bold" lengthAdjust="spacing" textLength="95.4" x="90" y="959.8966">[number of rooms]</text><polygon fill="#181818" points="292.5,982.1373,301.5,985.7373,292.5,989.3373,296.1,985.7373" style="stroke:#181818;stroke-width:0.9;"/><line style="stroke:#181818;stroke-width:0.9;" x1="85.5" x2="297.9" y1="985.7373" y2="985.7373"/><text fill="#000000" font-family="sans-serif" font-size="11.7" font-weight="bold" lengthAdjust="spacing" textLength="12.6" x="91.8" y="981.0009">27</text><text fill="#000000" font-family="sans-serif" font-size="11.7" lengthAdjust="spacing" textLength="128.7" x="108" y="981.0009">selects number of rooms</text><polygon fill="#181818" points="754.2,1010.2992,763.2,1013.8992,754.2,1017.4992,757.8,1013.8992" style="stroke:#181818;stroke-width:0.9;"/><line style="stroke:#181818;stroke-width:0.9;" x1="312.3" x2="759.6" y1="1013.8992" y2="1013.8992"/><text fill="#000000" font-family="sans-serif" font-size="11.7" font-weight="bold" lengthAdjust="spacing" textLength="12.6" x="318.6" y="1009.1628">28</text><text fill="#000000" font-family="sans-serif" font-size="11.7" lengthAdjust="spacing" textLength="100.8" x="334.8" y="1009.1628">setNumberRooms()</text><polygon fill="#181818" points="1265.4,1038.4611,1274.4,1042.0611,1265.4,1045.6611,1269,1042.0611" style="stroke:#181818;stroke-width:0.9;"/><line style="stroke:#181818;stroke-width:0.9;" x1="774" x2="1270.8" y1="1042.0611" y2="1042.0611"/><text fill="#000000" font-family="sans-serif" font-size="11.7" font-weight="bold" lengthAdjust="spacing" textLength="12.6" x="780.3" y="1037.3247">29</text><text fill="#000000" font-family="sans-serif" font-size="11.7" lengthAdjust="spacing" textLength="100.8" x="796.5" y="1037.3247">setNumberRooms()</text><polygon fill="#181818" points="783.9,1066.623,774.9,1070.223,783.9,1073.823,780.3,1070.223" style="stroke:#181818;stroke-width:0.9;"/><line style="stroke:#181818;stroke-width:0.9;stroke-dasharray:2.0,2.0;" x1="778.5" x2="1279.8" y1="1070.223" y2="1070.223"/><text fill="#000000" font-family="sans-serif" font-size="11.7" font-weight="bold" lengthAdjust="spacing" textLength="12.6" x="789.3" y="1065.4866">30</text><text fill="#000000" font-family="sans-serif" font-size="11.7" lengthAdjust="spacing" textLength="93.6" x="805.5" y="1065.4866">setNumberRooms</text><polygon fill="#181818" points="317.7,1094.785,308.7,1098.385,317.7,1101.985,314.1,1098.385" style="stroke:#181818;stroke-width:0.9;"/><line style="stroke:#181818;stroke-width:0.9;stroke-dasharray:2.0,2.0;" x1="312.3" x2="768.6" y1="1098.385" y2="1098.385"/><text fill="#000000" font-family="sans-serif" font-size="11.7" font-weight="bold" lengthAdjust="spacing" textLength="12.6" x="323.1" y="1093.6485">31</text><text fill="#000000" font-family="sans-serif" font-size="11.7" lengthAdjust="spacing" textLength="93.6" x="339.3" y="1093.6485">setNumberRooms</text><line style="stroke:#181818;stroke-width:0.9;" x1="307.8" x2="345.6" y1="1139.1469" y2="1139.1469"/><line style="stroke:#181818;stroke-width:0.9;" x1="345.6" x2="345.6" y1="1139.1469" y2="1150.8469"/><line style="stroke:#181818;stroke-width:0.9;" x1="308.7" x2="345.6" y1="1150.8469" y2="1150.8469"/><polygon fill="#181818" points="317.7,1147.2469,308.7,1150.8469,317.7,1154.4469,314.1,1150.8469" style="stroke:#181818;stroke-width:0.9;"/><text fill="#000000" font-family="sans-serif" font-size="11.7" font-weight="bold" lengthAdjust="spacing" textLength="12.6" x="314.1" y="1134.4104">32</text><text fill="#000000" font-family="sans-serif" font-size="11.7" font-weight="bold" lengthAdjust="spacing" textLength="36" x="330.3" y="1134.4104">loop: [</text><text fill="#000000" font-family="sans-serif" font-size="11.7" lengthAdjust="spacing" textLength="388.8" x="366.3" y="1134.4104">displayAnnouncementList(AnnouncementRepository, SelectedParameters)</text><text fill="#000000" font-family="sans-serif" font-size="11.7" font-weight="bold" lengthAdjust="spacing" textLength="3.6" x="755.1" y="1134.4104">]</text><polygon fill="#181818" points="95.4,1175.4088,86.4,1179.0088,95.4,1182.6088,91.8,1179.0088" style="stroke:#181818;stroke-width:0.9;"/><line style="stroke:#181818;stroke-width:0.9;stroke-dasharray:2.0,2.0;" x1="90" x2="297.9" y1="1179.0088" y2="1179.0088"/><text fill="#000000" font-family="sans-serif" font-size="11.7" font-weight="bold" lengthAdjust="spacing" textLength="12.6" x="100.8" y="1174.2724">33</text><text fill="#000000" font-family="sans-serif" font-size="11.7" lengthAdjust="spacing" textLength="107.1" x="117" y="1174.2724">shows requested list</text><polygon fill="#181818" points="95.4,1203.5707,86.4,1207.1707,95.4,1210.7707,91.8,1207.1707" style="stroke:#181818;stroke-width:0.9;"/><line style="stroke:#181818;stroke-width:0.9;stroke-dasharray:2.0,2.0;" x1="90" x2="302.4" y1="1207.1707" y2="1207.1707"/><text fill="#000000" font-family="sans-serif" font-size="11.7" font-weight="bold" lengthAdjust="spacing" textLength="12.6" x="100.8" y="1202.4343">34</text><text fill="#000000" font-family="sans-serif" font-size="11.7" lengthAdjust="spacing" textLength="172.8" x="117" y="1202.4343">allows to sort by price or address</text><path d="M18,1220.6707 L72.9,1220.6707 L72.9,1229.0326 L63.9,1238.0326 L18,1238.0326 L18,1220.6707 " fill="#EEEEEE" style="stroke:#000000;stroke-width:1.35;"/><rect fill="none" height="254.3572" style="stroke:#000000;stroke-width:1.35;" width="1337.4" x="18" y="1220.6707"/><text fill="#000000" font-family="sans-serif" font-size="11.7" font-weight="bold" lengthAdjust="spacing" textLength="14.4" x="31.5" y="1234.1962">alt</text><text fill="#000000" font-family="sans-serif" font-size="9.9" font-weight="bold" lengthAdjust="spacing" textLength="70.2" x="86.4" y="1233.1538">[sort by price]</text><polygon fill="#181818" points="288,1255.3945,297,1258.9945,288,1262.5945,291.6,1258.9945" style="stroke:#181818;stroke-width:0.9;"/><line style="stroke:#181818;stroke-width:0.9;" x1="85.5" x2="293.4" y1="1258.9945" y2="1258.9945"/><text fill="#000000" font-family="sans-serif" font-size="11.7" font-weight="bold" lengthAdjust="spacing" textLength="12.6" x="91.8" y="1254.2581">35</text><text fill="#000000" font-family="sans-serif" font-size="11.7" lengthAdjust="spacing" textLength="66.6" x="108" y="1254.2581">selects price</text><polygon fill="#181818" points="754.2,1283.5564,763.2,1287.1564,754.2,1290.7564,757.8,1287.1564" style="stroke:#181818;stroke-width:0.9;"/><line style="stroke:#181818;stroke-width:0.9;" x1="307.8" x2="759.6" y1="1287.1564" y2="1287.1564"/><text fill="#000000" font-family="sans-serif" font-size="11.7" font-weight="bold" lengthAdjust="spacing" textLength="12.6" x="314.1" y="1282.42">36</text><text fill="#000000" font-family="sans-serif" font-size="11.7" lengthAdjust="spacing" textLength="69.3" x="330.3" y="1282.42">priceSorting()</text><polygon fill="#181818" points="1265.4,1311.7184,1274.4,1315.3184,1265.4,1318.9184,1269,1315.3184" style="stroke:#181818;stroke-width:0.9;"/><line style="stroke:#181818;stroke-width:0.9;" x1="774" x2="1270.8" y1="1315.3184" y2="1315.3184"/><text fill="#000000" font-family="sans-serif" font-size="11.7" font-weight="bold" lengthAdjust="spacing" textLength="12.6" x="780.3" y="1310.5819">37</text><text fill="#000000" font-family="sans-serif" font-size="11.7" lengthAdjust="spacing" textLength="69.3" x="796.5" y="1310.5819">priceSorting()</text><polygon fill="#181818" points="783.9,1339.8803,774.9,1343.4803,783.9,1347.0803,780.3,1343.4803" style="stroke:#181818;stroke-width:0.9;"/><line style="stroke:#181818;stroke-width:0.9;stroke-dasharray:2.0,2.0;" x1="778.5" x2="1279.8" y1="1343.4803" y2="1343.4803"/><text fill="#000000" font-family="sans-serif" font-size="11.7" font-weight="bold" lengthAdjust="spacing" textLength="12.6" x="789.3" y="1338.7438">38</text><text fill="#000000" font-family="sans-serif" font-size="11.7" lengthAdjust="spacing" textLength="62.1" x="805.5" y="1338.7438">priceSorting</text><polygon fill="#181818" points="317.7,1368.0422,308.7,1371.6422,317.7,1375.2422,314.1,1371.6422" style="stroke:#181818;stroke-width:0.9;"/><line style="stroke:#181818;stroke-width:0.9;stroke-dasharray:2.0,2.0;" x1="312.3" x2="768.6" y1="1371.6422" y2="1371.6422"/><text fill="#000000" font-family="sans-serif" font-size="11.7" font-weight="bold" lengthAdjust="spacing" textLength="12.6" x="323.1" y="1366.9058">39</text><text fill="#000000" font-family="sans-serif" font-size="11.7" lengthAdjust="spacing" textLength="62.1" x="339.3" y="1366.9058">priceSorting</text><line style="stroke:#181818;stroke-width:0.9;" x1="307.8" x2="345.6" y1="1399.8041" y2="1399.8041"/><line style="stroke:#181818;stroke-width:0.9;" x1="345.6" x2="345.6" y1="1399.8041" y2="1411.5041"/><line style="stroke:#181818;stroke-width:0.9;" x1="308.7" x2="345.6" y1="1411.5041" y2="1411.5041"/><polygon fill="#181818" points="317.7,1407.9041,308.7,1411.5041,317.7,1415.1041,314.1,1411.5041" style="stroke:#181818;stroke-width:0.9;"/><text fill="#000000" font-family="sans-serif" font-size="11.7" font-weight="bold" lengthAdjust="spacing" textLength="12.6" x="314.1" y="1395.0677">40</text><text fill="#000000" font-family="sans-serif" font-size="11.7" font-weight="bold" lengthAdjust="spacing" textLength="36" x="330.3" y="1395.0677">loop: [</text><text fill="#000000" font-family="sans-serif" font-size="11.7" lengthAdjust="spacing" textLength="388.8" x="366.3" y="1395.0677">displayAnnouncementList(AnnouncementRepository, SelectedParameters)</text><text fill="#000000" font-family="sans-serif" font-size="11.7" font-weight="bold" lengthAdjust="spacing" textLength="3.6" x="755.1" y="1395.0677">]</text><polygon fill="#181818" points="95.4,1436.066,86.4,1439.666,95.4,1443.266,91.8,1439.666" style="stroke:#181818;stroke-width:0.9;"/><line style="stroke:#181818;stroke-width:0.9;stroke-dasharray:2.0,2.0;" x1="90" x2="297.9" y1="1439.666" y2="1439.666"/><text fill="#000000" font-family="sans-serif" font-size="11.7" font-weight="bold" lengthAdjust="spacing" textLength="12.6" x="100.8" y="1434.9296">41</text><text fill="#000000" font-family="sans-serif" font-size="11.7" lengthAdjust="spacing" textLength="107.1" x="117" y="1434.9296">shows requested list</text><polygon fill="#181818" points="95.4,1464.2279,86.4,1467.8279,95.4,1471.4279,91.8,1467.8279" style="stroke:#181818;stroke-width:0.9;"/><line style="stroke:#181818;stroke-width:0.9;stroke-dasharray:2.0,2.0;" x1="90" x2="302.4" y1="1467.8279" y2="1467.8279"/><text fill="#000000" font-family="sans-serif" font-size="11.7" font-weight="bold" lengthAdjust="spacing" textLength="12.6" x="100.8" y="1463.0915">42</text><text fill="#000000" font-family="sans-serif" font-size="11.7" lengthAdjust="spacing" textLength="172.8" x="117" y="1463.0915">allows to sort by price or address</text><path d="M18,1487.6279 L72.9,1487.6279 L72.9,1495.9898 L63.9,1504.9898 L18,1504.9898 L18,1487.6279 " fill="#EEEEEE" style="stroke:#000000;stroke-width:1.35;"/><rect fill="none" height="254.3572" style="stroke:#000000;stroke-width:1.35;" width="1337.4" x="18" y="1487.6279"/><text fill="#000000" font-family="sans-serif" font-size="11.7" font-weight="bold" lengthAdjust="spacing" textLength="14.4" x="31.5" y="1501.1534">alt</text><text fill="#000000" font-family="sans-serif" font-size="9.9" font-weight="bold" lengthAdjust="spacing" textLength="86.4" x="86.4" y="1500.111">[sort by address]</text><polygon fill="#181818" points="288,1522.3518,297,1525.9518,288,1529.5518,291.6,1525.9518" style="stroke:#181818;stroke-width:0.9;"/><line style="stroke:#181818;stroke-width:0.9;" x1="85.5" x2="293.4" y1="1525.9518" y2="1525.9518"/><text fill="#000000" font-family="sans-serif" font-size="11.7" font-weight="bold" lengthAdjust="spacing" textLength="12.6" x="91.8" y="1521.2153">43</text><text fill="#000000" font-family="sans-serif" font-size="11.7" lengthAdjust="spacing" textLength="82.8" x="108" y="1521.2153">selects address</text><polygon fill="#181818" points="754.2,1550.5137,763.2,1554.1137,754.2,1557.7137,757.8,1554.1137" style="stroke:#181818;stroke-width:0.9;"/><line style="stroke:#181818;stroke-width:0.9;" x1="307.8" x2="759.6" y1="1554.1137" y2="1554.1137"/><text fill="#000000" font-family="sans-serif" font-size="11.7" font-weight="bold" lengthAdjust="spacing" textLength="12.6" x="314.1" y="1549.3772">44</text><text fill="#000000" font-family="sans-serif" font-size="11.7" lengthAdjust="spacing" textLength="66.6" x="330.3" y="1549.3772">setAddress()</text><polygon fill="#181818" points="1265.4,1578.6756,1274.4,1582.2756,1265.4,1585.8756,1269,1582.2756" style="stroke:#181818;stroke-width:0.9;"/><line style="stroke:#181818;stroke-width:0.9;" x1="774" x2="1270.8" y1="1582.2756" y2="1582.2756"/><text fill="#000000" font-family="sans-serif" font-size="11.7" font-weight="bold" lengthAdjust="spacing" textLength="12.6" x="780.3" y="1577.5392">45</text><text fill="#000000" font-family="sans-serif" font-size="11.7" lengthAdjust="spacing" textLength="66.6" x="796.5" y="1577.5392">setAddress()</text><polygon fill="#181818" points="783.9,1606.8375,774.9,1610.4375,783.9,1614.0375,780.3,1610.4375" style="stroke:#181818;stroke-width:0.9;"/><line style="stroke:#181818;stroke-width:0.9;stroke-dasharray:2.0,2.0;" x1="778.5" x2="1279.8" y1="1610.4375" y2="1610.4375"/><text fill="#000000" font-family="sans-serif" font-size="11.7" font-weight="bold" lengthAdjust="spacing" textLength="12.6" x="789.3" y="1605.7011">46</text><text fill="#000000" font-family="sans-serif" font-size="11.7" lengthAdjust="spacing" textLength="59.4" x="805.5" y="1605.7011">setAddress</text><polygon fill="#181818" points="317.7,1634.9994,308.7,1638.5994,317.7,1642.1994,314.1,1638.5994" style="stroke:#181818;stroke-width:0.9;"/><line style="stroke:#181818;stroke-width:0.9;stroke-dasharray:2.0,2.0;" x1="312.3" x2="768.6" y1="1638.5994" y2="1638.5994"/><text fill="#000000" font-family="sans-serif" font-size="11.7" font-weight="bold" lengthAdjust="spacing" textLength="12.6" x="323.1" y="1633.863">47</text><text fill="#000000" font-family="sans-serif" font-size="11.7" lengthAdjust="spacing" textLength="59.4" x="339.3" y="1633.863">setAddress</text><line style="stroke:#181818;stroke-width:0.9;" x1="307.8" x2="345.6" y1="1666.7613" y2="1666.7613"/><line style="stroke:#181818;stroke-width:0.9;" x1="345.6" x2="345.6" y1="1666.7613" y2="1678.4613"/><line style="stroke:#181818;stroke-width:0.9;" x1="308.7" x2="345.6" y1="1678.4613" y2="1678.4613"/><polygon fill="#181818" points="317.7,1674.8613,308.7,1678.4613,317.7,1682.0613,314.1,1678.4613" style="stroke:#181818;stroke-width:0.9;"/><text fill="#000000" font-family="sans-serif" font-size="11.7" font-weight="bold" lengthAdjust="spacing" textLength="12.6" x="314.1" y="1662.0249">48</text><text fill="#000000" font-family="sans-serif" font-size="11.7" font-weight="bold" lengthAdjust="spacing" textLength="36" x="330.3" y="1662.0249">loop: [</text><text fill="#000000" font-family="sans-serif" font-size="11.7" lengthAdjust="spacing" textLength="388.8" x="366.3" y="1662.0249">displayAnnouncementList(AnnouncementRepository, SelectedParameters)</text><text fill="#000000" font-family="sans-serif" font-size="11.7" font-weight="bold" lengthAdjust="spacing" textLength="3.6" x="755.1" y="1662.0249">]</text><polygon fill="#181818" points="95.4,1703.0232,86.4,1706.6232,95.4,1710.2232,91.8,1706.6232" style="stroke:#181818;stroke-width:0.9;"/><line style="stroke:#181818;stroke-width:0.9;stroke-dasharray:2.0,2.0;" x1="90" x2="297.9" y1="1706.6232" y2="1706.6232"/><text fill="#000000" font-family="sans-serif" font-size="11.7" font-weight="bold" lengthAdjust="spacing" textLength="12.6" x="100.8" y="1701.8868">49</text><text fill="#000000" font-family="sans-serif" font-size="11.7" lengthAdjust="spacing" textLength="107.1" x="117" y="1701.8868">shows requested list</text><polygon fill="#181818" points="95.4,1731.1852,86.4,1734.7852,95.4,1738.3852,91.8,1734.7852" style="stroke:#181818;stroke-width:0.9;"/><line style="stroke:#181818;stroke-width:0.9;stroke-dasharray:2.0,2.0;" x1="90" x2="302.4" y1="1734.7852" y2="1734.7852"/><text fill="#000000" font-family="sans-serif" font-size="11.7" font-weight="bold" lengthAdjust="spacing" textLength="12.6" x="100.8" y="1730.0487">50</text><text fill="#000000" font-family="sans-serif" font-size="11.7" lengthAdjust="spacing" textLength="172.8" x="117" y="1730.0487">allows to sort by price or address</text><!--SRC=[tLZ1Rjim3BthAxXUrXhh3nJOWAwd0iLGDCjfsq6rsKIe8tcIqiv_Fyfk7DcMRALDTvXkiSdtHFAHacCUXQouvXlOAAdojLOR1Akto4ptfkBv8r_XmjObWiRSShagVGEpveLw5d853xmqo1ZVMYMtctlKZ7rSYmBXGIbxh_umdbkbuMGfDQw4iQYnWAL1VGBSm5KfK5f6e5RaekBImid5hLOLQblVaFdokh5RNa_ON2bfjIhB7MRtS-1pXvKoWdOZq3IM_eE-hVRU_9GJddNVZqkfjZB73KLbzaO4SUczsRzemCAl1fjVO4brmEBMvHyfZUr65hVCPLWySOkxR39uMUrlEFz2-OCB459OGNO6AgrM1DCPTWYKP_0MkP7pFg5PHZ2vHZBjsPLALO1Fg6ihd9hMt88mf9pVM-7gRHKKmbGbh_rONUrwC25A8eoudeRpzWd6gJeRqUnpjbSB19Qt4TgMhmFQs0hjjJJK73cUdWNTEvgUr21nzUZEXsdHSv05fjD7ugpRACEPJewvFZpYUXnlf4rI8wyJuWvJZ7CGaTvCFWu88BGYcnlbQR3NkGGTi2i_MRkXajhN7cEavL0MpI0PJI0NO3l9EZeeYGCUHDcU9_Sr7MRqW8ugFsAFamPRR2m-qu0rRaIPPcv0rOsDW-TZDnt78sZGB2dpfw_DnIsXp-BsiEbm29MHa4QY6GDFLJ007D96B1TiNXYCzOnKPS7M5O9wWFkj4HBDU8E3khRbDFD-iUfELDcW_Ve2zvtWvoRXp24JANOQIKh5foe_O8dwJvT_IWOf3FFZOTpGm-518echfdgvCAQgPjxnTRBPNLpVLJO994UGZS_oFhAPPNWNsV3ITbLtpF3XCznmMOnmdRxQZnud5AtK9dAv2aiinNLEP76XVMlGxnnoYWGIj1RNMnhN8PARa9r7DWcHfhm9zQKGfGbmMeI-48VFI8iiSELejfXbxhfq0J-ox0YVI5dsAylOvENBhDLp-rM7z25VD9UmQGzUbix5NQwKjkwULccHqrpLm8j2-wTnvBBcch7don8wgpLagOqKQA06OK6yGgvEZ_NvsBJB379gauIQmuTchsk9K2jCmgOrmBzKxUkK-qRrnZjyrCM-eaCm4Ks7J0yKDSsqonRbk9AUn7sBeFV0HvJp1EYycF_RyPiWu6RvAMh_RlmB]--></g></svg>