<?xml version="1.0" encoding="us-ascii" standalone="no"?><svg xmlns="http://www.w3.org/2000/svg" xmlns:xlink="http://www.w3.org/1999/xlink" contentStyleType="text/css" height="922px" preserveAspectRatio="none" style="width:2064px;height:922px;background:#FFFFFF;" version="1.1" viewBox="0 0 2064 922" width="2064px" zoomAndPan="magnify"><defs/><g><rect fill="#FFFFFF" height="736.0234" style="stroke:#181818;stroke-width:1.0;" width="10" x="73" y="93.6211"/><rect fill="#FFFFFF" height="31.291" style="stroke:#181818;stroke-width:1.0;" width="10" x="394" y="116.9121"/><rect fill="#FFFFFF" height="681.4414" style="stroke:#181818;stroke-width:1.0;" width="10" x="543" y="148.2031"/><rect fill="#FFFFFF" height="219.0371" style="stroke:#181818;stroke-width:1.0;" width="10" x="971" y="223.1152"/><rect fill="#FFFFFF" height="31.291" style="stroke:#181818;stroke-width:1.0;" width="10" x="971" y="564.3164"/><rect fill="#FFFFFF" height="31.291" style="stroke:#181818;stroke-width:1.0;" width="10" x="971" y="626.8984"/><rect fill="#FFFFFF" height="31.291" style="stroke:#181818;stroke-width:1.0;" width="10" x="971" y="689.4805"/><rect fill="#FFFFFF" height="31.291" style="stroke:#181818;stroke-width:1.0;" width="10" x="971" y="752.0625"/><rect fill="#FFFFFF" height="31.291" style="stroke:#181818;stroke-width:1.0;" width="10" x="1125.5" y="254.4063"/><rect fill="#FFFFFF" height="31.291" style="stroke:#181818;stroke-width:1.0;" width="10" x="1269.5" y="316.9883"/><rect fill="#FFFFFF" height="31.291" style="stroke:#181818;stroke-width:1.0;" width="10" x="1964" y="379.5703"/><rect fill="none" height="50.582" style="stroke:#000000;stroke-width:1.5;" width="619" x="10" y="457.1523"/><rect fill="none" height="300.9102" style="stroke:#000000;stroke-width:1.5;" width="1072" x="10" y="521.7344"/><line style="stroke:#181818;stroke-width:0.5;stroke-dasharray:5.0,5.0;" x1="78" x2="78" y1="83.6211" y2="839.6445"/><line style="stroke:#181818;stroke-width:0.5;stroke-dasharray:5.0,5.0;" x1="399" x2="399" y1="83.6211" y2="839.6445"/><line style="stroke:#181818;stroke-width:0.5;stroke-dasharray:5.0,5.0;" x1="548" x2="548" y1="83.6211" y2="839.6445"/><line style="stroke:#181818;stroke-width:0.5;stroke-dasharray:5.0,5.0;" x1="976" x2="976" y1="188.0137" y2="839.6445"/><line style="stroke:#181818;stroke-width:0.5;stroke-dasharray:5.0,5.0;" x1="1130" x2="1130" y1="83.6211" y2="839.6445"/><line style="stroke:#181818;stroke-width:0.5;stroke-dasharray:5.0,5.0;" x1="1274" x2="1274" y1="83.6211" y2="839.6445"/><line style="stroke:#181818;stroke-width:0.5;stroke-dasharray:5.0,5.0;" x1="1543" x2="1543" y1="83.6211" y2="839.6445"/><line style="stroke:#181818;stroke-width:0.5;stroke-dasharray:5.0,5.0;" x1="1761" x2="1761" y1="83.6211" y2="839.6445"/><line style="stroke:#181818;stroke-width:0.5;stroke-dasharray:5.0,5.0;" x1="1837" x2="1837" y1="83.6211" y2="839.6445"/><line style="stroke:#181818;stroke-width:0.5;stroke-dasharray:5.0,5.0;" x1="1969" x2="1969" y1="83.6211" y2="839.6445"/><text fill="#000000" font-family="sans-serif" font-size="14" lengthAdjust="spacing" textLength="110" x="20" y="80.1074">Network Manager</text><ellipse cx="78" cy="13.5" fill="#E3E3E3" rx="8" ry="8" style="stroke:#181818;stroke-width:0.5;"/><path d="M78,21.5 L78,48.5 M65,29.5 L91,29.5 M78,48.5 L65,63.5 M78,48.5 L91,63.5 " fill="none" style="stroke:#181818;stroke-width:0.5;"/><text fill="#000000" font-family="sans-serif" font-size="14" lengthAdjust="spacing" textLength="110" x="20" y="853.752">Network Manager</text><ellipse cx="78" cy="865.7656" fill="#E3E3E3" rx="8" ry="8" style="stroke:#181818;stroke-width:0.5;"/><path d="M78,873.7656 L78,900.7656 M65,881.7656 L91,881.7656 M78,900.7656 L65,915.7656 M78,900.7656 L91,915.7656 " fill="none" style="stroke:#181818;stroke-width:0.5;"/><rect fill="#E3E3E3" height="32.6211" rx="2.5" ry="2.5" style="stroke:#181818;stroke-width:0.5;" width="136" x="331" y="50"/><text fill="#000000" font-family="sans-serif" font-size="14" lengthAdjust="spacing" textLength="122" x="338" y="72.1074">:NetworkManagerUI</text><rect fill="#E3E3E3" height="32.6211" rx="2.5" ry="2.5" style="stroke:#181818;stroke-width:0.5;" width="136" x="331" y="838.6445"/><text fill="#000000" font-family="sans-serif" font-size="14" lengthAdjust="spacing" textLength="122" x="338" y="860.752">:NetworkManagerUI</text><rect fill="#E3E3E3" height="32.6211" rx="2.5" ry="2.5" style="stroke:#181818;stroke-width:0.5;" width="142" x="477" y="50"/><text fill="#000000" font-family="sans-serif" font-size="14" lengthAdjust="spacing" textLength="128" x="484" y="72.1074">:NetworkManagingUI</text><rect fill="#E3E3E3" height="32.6211" rx="2.5" ry="2.5" style="stroke:#181818;stroke-width:0.5;" width="142" x="477" y="838.6445"/><text fill="#000000" font-family="sans-serif" font-size="14" lengthAdjust="spacing" textLength="128" x="484" y="860.752">:NetworkManagingUI</text><rect fill="#E3E3E3" height="32.6211" rx="2.5" ry="2.5" style="stroke:#181818;stroke-width:0.5;" width="192" x="880" y="838.6445"/><text fill="#000000" font-family="sans-serif" font-size="14" lengthAdjust="spacing" textLength="178" x="887" y="860.752">:NetworkManagingController</text><rect fill="#E3E3E3" height="32.6211" rx="2.5" ry="2.5" style="stroke:#181818;stroke-width:0.5;" width="97" x="1082" y="50"/><text fill="#000000" font-family="sans-serif" font-size="14" lengthAdjust="spacing" textLength="83" x="1089" y="72.1074">:Repositories</text><rect fill="#E3E3E3" height="32.6211" rx="2.5" ry="2.5" style="stroke:#181818;stroke-width:0.5;" width="97" x="1082" y="838.6445"/><text fill="#000000" font-family="sans-serif" font-size="14" lengthAdjust="spacing" textLength="83" x="1089" y="860.752">:Repositories</text><rect fill="#E3E3E3" height="32.6211" rx="2.5" ry="2.5" style="stroke:#181818;stroke-width:0.5;" width="171" x="1189" y="50"/><text fill="#000000" font-family="sans-serif" font-size="14" lengthAdjust="spacing" textLength="157" x="1196" y="72.1074">repositories:Repositories</text><rect fill="#E3E3E3" height="32.6211" rx="2.5" ry="2.5" style="stroke:#181818;stroke-width:0.5;" width="171" x="1189" y="838.6445"/><text fill="#000000" font-family="sans-serif" font-size="14" lengthAdjust="spacing" textLength="157" x="1196" y="860.752">repositories:Repositories</text><rect fill="#E3E3E3" height="32.6211" rx="2.5" ry="2.5" style="stroke:#181818;stroke-width:0.5;" width="347" x="1370" y="50"/><text fill="#000000" font-family="sans-serif" font-size="14" lengthAdjust="spacing" textLength="333" x="1377" y="72.1074">purchaseOrderRepository:PurchaseOrderRepository</text><rect fill="#E3E3E3" height="32.6211" rx="2.5" ry="2.5" style="stroke:#181818;stroke-width:0.5;" width="347" x="1370" y="838.6445"/><text fill="#000000" font-family="sans-serif" font-size="14" lengthAdjust="spacing" textLength="333" x="1377" y="860.752">purchaseOrderRepository:PurchaseOrderRepository</text><rect fill="#E3E3E3" height="32.6211" rx="2.5" ry="2.5" style="stroke:#181818;stroke-width:0.5;" width="68" x="1727" y="50"/><text fill="#000000" font-family="sans-serif" font-size="14" lengthAdjust="spacing" textLength="54" x="1734" y="72.1074">:Network</text><rect fill="#E3E3E3" height="32.6211" rx="2.5" ry="2.5" style="stroke:#181818;stroke-width:0.5;" width="68" x="1727" y="838.6445"/><text fill="#000000" font-family="sans-serif" font-size="14" lengthAdjust="spacing" textLength="54" x="1734" y="860.752">:Network</text><rect fill="#E3E3E3" height="32.6211" rx="2.5" ry="2.5" style="stroke:#181818;stroke-width:0.5;" width="65" x="1805" y="50"/><text fill="#000000" font-family="sans-serif" font-size="14" lengthAdjust="spacing" textLength="51" x="1812" y="72.1074">:Agency</text><rect fill="#E3E3E3" height="32.6211" rx="2.5" ry="2.5" style="stroke:#181818;stroke-width:0.5;" width="65" x="1805" y="838.6445"/><text fill="#000000" font-family="sans-serif" font-size="14" lengthAdjust="spacing" textLength="51" x="1812" y="860.752">:Agency</text><rect fill="#E3E3E3" height="32.6211" rx="2.5" ry="2.5" style="stroke:#181818;stroke-width:0.5;" width="178" x="1880" y="50"/><text fill="#000000" font-family="sans-serif" font-size="14" lengthAdjust="spacing" textLength="164" x="1887" y="72.1074">purchaseOrderRepository</text><rect fill="#E3E3E3" height="32.6211" rx="2.5" ry="2.5" style="stroke:#181818;stroke-width:0.5;" width="178" x="1880" y="838.6445"/><text fill="#000000" font-family="sans-serif" font-size="14" lengthAdjust="spacing" textLength="164" x="1887" y="860.752">purchaseOrderRepository</text><rect fill="#FFFFFF" height="736.0234" style="stroke:#181818;stroke-width:1.0;" width="10" x="73" y="93.6211"/><rect fill="#FFFFFF" height="31.291" style="stroke:#181818;stroke-width:1.0;" width="10" x="394" y="116.9121"/><rect fill="#FFFFFF" height="681.4414" style="stroke:#181818;stroke-width:1.0;" width="10" x="543" y="148.2031"/><rect fill="#FFFFFF" height="219.0371" style="stroke:#181818;stroke-width:1.0;" width="10" x="971" y="223.1152"/><rect fill="#FFFFFF" height="31.291" style="stroke:#181818;stroke-width:1.0;" width="10" x="971" y="564.3164"/><rect fill="#FFFFFF" height="31.291" style="stroke:#181818;stroke-width:1.0;" width="10" x="971" y="626.8984"/><rect fill="#FFFFFF" height="31.291" style="stroke:#181818;stroke-width:1.0;" width="10" x="971" y="689.4805"/><rect fill="#FFFFFF" height="31.291" style="stroke:#181818;stroke-width:1.0;" width="10" x="971" y="752.0625"/><rect fill="#FFFFFF" height="31.291" style="stroke:#181818;stroke-width:1.0;" width="10" x="1125.5" y="254.4063"/><rect fill="#FFFFFF" height="31.291" style="stroke:#181818;stroke-width:1.0;" width="10" x="1269.5" y="316.9883"/><rect fill="#FFFFFF" height="31.291" style="stroke:#181818;stroke-width:1.0;" width="10" x="1964" y="379.5703"/><polygon fill="#181818" points="382,112.9121,392,116.9121,382,120.9121,386,116.9121" style="stroke:#181818;stroke-width:1.0;"/><line style="stroke:#181818;stroke-width:1.0;" x1="83" x2="388" y1="116.9121" y2="116.9121"/><text fill="#000000" font-family="sans-serif" font-size="13" font-weight="bold" lengthAdjust="spacing" textLength="7" x="90" y="111.6494">1</text><text fill="#000000" font-family="sans-serif" font-size="13" lengthAdjust="spacing" textLength="281" x="101" y="111.6494">asks to analyse the deals made by the agencies</text><polygon fill="#181818" points="531,144.2031,541,148.2031,531,152.2031,535,148.2031" style="stroke:#181818;stroke-width:1.0;"/><line style="stroke:#181818;stroke-width:1.0;" x1="399" x2="537" y1="148.2031" y2="148.2031"/><text fill="#000000" font-family="sans-serif" font-size="13" font-weight="bold" lengthAdjust="spacing" textLength="7" x="406" y="142.9404">2</text><text fill="#000000" font-family="sans-serif" font-size="13" lengthAdjust="spacing" textLength="62" x="417" y="142.9404">changeUI()</text><polygon fill="#181818" points="868,175.4941,878,179.4941,868,183.4941,872,179.4941" style="stroke:#181818;stroke-width:1.0;"/><line style="stroke:#181818;stroke-width:1.0;" x1="553" x2="874" y1="179.4941" y2="179.4941"/><text fill="#000000" font-family="sans-serif" font-size="13" font-weight="bold" lengthAdjust="spacing" textLength="7" x="560" y="174.2314">3</text><text fill="#000000" font-family="sans-serif" font-size="13" lengthAdjust="spacing" textLength="36" x="571" y="174.2314">create</text><rect fill="#E3E3E3" height="32.6211" rx="2.5" ry="2.5" style="stroke:#181818;stroke-width:0.5;" width="192" x="880" y="156.2031"/><text fill="#000000" font-family="sans-serif" font-size="14" lengthAdjust="spacing" textLength="178" x="887" y="178.3105">:NetworkManagingController</text><polygon fill="#181818" points="959,219.1152,969,223.1152,959,227.1152,963,223.1152" style="stroke:#181818;stroke-width:1.0;"/><line style="stroke:#181818;stroke-width:1.0;" x1="553" x2="965" y1="223.1152" y2="223.1152"/><text fill="#000000" font-family="sans-serif" font-size="13" font-weight="bold" lengthAdjust="spacing" textLength="7" x="560" y="217.8525">4</text><text fill="#000000" font-family="sans-serif" font-size="13" lengthAdjust="spacing" textLength="183" x="571" y="217.8525">getAllAgenciesPurchaseDeals()</text><polygon fill="#181818" points="1113.5,250.4063,1123.5,254.4063,1113.5,258.4063,1117.5,254.4063" style="stroke:#181818;stroke-width:1.0;"/><line style="stroke:#181818;stroke-width:1.0;" x1="981" x2="1119.5" y1="254.4063" y2="254.4063"/><text fill="#000000" font-family="sans-serif" font-size="13" font-weight="bold" lengthAdjust="spacing" textLength="7" x="988" y="249.1436">5</text><text fill="#000000" font-family="sans-serif" font-size="13" lengthAdjust="spacing" textLength="75" x="999" y="249.1436">getInstance()</text><polygon fill="#181818" points="992,281.6973,982,285.6973,992,289.6973,988,285.6973" style="stroke:#181818;stroke-width:1.0;"/><line style="stroke:#181818;stroke-width:1.0;stroke-dasharray:2.0,2.0;" x1="986" x2="1129.5" y1="285.6973" y2="285.6973"/><text fill="#000000" font-family="sans-serif" font-size="13" font-weight="bold" lengthAdjust="spacing" textLength="7" x="998" y="280.4346">6</text><text fill="#000000" font-family="sans-serif" font-size="13" lengthAdjust="spacing" textLength="67" x="1009" y="280.4346">repositories</text><polygon fill="#181818" points="1257.5,312.9883,1267.5,316.9883,1257.5,320.9883,1261.5,316.9883" style="stroke:#181818;stroke-width:1.0;"/><line style="stroke:#181818;stroke-width:1.0;" x1="981" x2="1263.5" y1="316.9883" y2="316.9883"/><text fill="#000000" font-family="sans-serif" font-size="13" font-weight="bold" lengthAdjust="spacing" textLength="7" x="988" y="311.7256">7</text><text fill="#000000" font-family="sans-serif" font-size="13" lengthAdjust="spacing" textLength="175" x="999" y="311.7256">getPurchaseOrderRepository()</text><polygon fill="#181818" points="992,344.2793,982,348.2793,992,352.2793,988,348.2793" style="stroke:#181818;stroke-width:1.0;"/><line style="stroke:#181818;stroke-width:1.0;stroke-dasharray:2.0,2.0;" x1="986" x2="1273.5" y1="348.2793" y2="348.2793"/><text fill="#000000" font-family="sans-serif" font-size="13" font-weight="bold" lengthAdjust="spacing" textLength="7" x="998" y="343.0166">8</text><text fill="#000000" font-family="sans-serif" font-size="13" lengthAdjust="spacing" textLength="147" x="1009" y="343.0166">purchaseOrderRepository</text><polygon fill="#181818" points="1952,375.5703,1962,379.5703,1952,383.5703,1956,379.5703" style="stroke:#181818;stroke-width:1.0;"/><line style="stroke:#181818;stroke-width:1.0;" x1="981" x2="1958" y1="379.5703" y2="379.5703"/><text fill="#000000" font-family="sans-serif" font-size="13" font-weight="bold" lengthAdjust="spacing" textLength="7" x="988" y="374.3076">9</text><text fill="#000000" font-family="sans-serif" font-size="13" lengthAdjust="spacing" textLength="175" x="999" y="374.3076">getPurchaseOrdersAccepted()</text><polygon fill="#181818" points="992,406.8613,982,410.8613,992,414.8613,988,410.8613" style="stroke:#181818;stroke-width:1.0;"/><line style="stroke:#181818;stroke-width:1.0;stroke-dasharray:2.0,2.0;" x1="986" x2="1968" y1="410.8613" y2="410.8613"/><text fill="#000000" font-family="sans-serif" font-size="13" font-weight="bold" lengthAdjust="spacing" textLength="14" x="998" y="405.5986">10</text><text fill="#000000" font-family="sans-serif" font-size="13" lengthAdjust="spacing" textLength="149" x="1016" y="405.5986">PurchaseOrdersAccepted</text><polygon fill="#181818" points="564,438.1523,554,442.1523,564,446.1523,560,442.1523" style="stroke:#181818;stroke-width:1.0;"/><line style="stroke:#181818;stroke-width:1.0;stroke-dasharray:2.0,2.0;" x1="558" x2="975" y1="442.1523" y2="442.1523"/><text fill="#000000" font-family="sans-serif" font-size="13" font-weight="bold" lengthAdjust="spacing" textLength="14" x="570" y="436.8896">11</text><text fill="#000000" font-family="sans-serif" font-size="13" lengthAdjust="spacing" textLength="175" x="588" y="436.8896">getAllAgenciesPurchaseDeals</text><path d="M10,457.1523 L71,457.1523 L71,466.4434 L61,476.4434 L10,476.4434 L10,457.1523 " fill="#EEEEEE" style="stroke:#000000;stroke-width:1.5;"/><rect fill="none" height="50.582" style="stroke:#000000;stroke-width:1.5;" width="619" x="10" y="457.1523"/><text fill="#000000" font-family="sans-serif" font-size="13" font-weight="bold" lengthAdjust="spacing" textLength="16" x="25" y="472.1807">alt</text><text fill="#000000" font-family="sans-serif" font-size="11" font-weight="bold" lengthAdjust="spacing" textLength="164" x="86" y="471.0225">[there are no purchase deals]</text><polygon fill="#181818" points="94,495.7344,84,499.7344,94,503.7344,90,499.7344" style="stroke:#181818;stroke-width:1.0;"/><line style="stroke:#181818;stroke-width:1.0;stroke-dasharray:2.0,2.0;" x1="88" x2="542" y1="499.7344" y2="499.7344"/><text fill="#000000" font-family="sans-serif" font-size="13" font-weight="bold" lengthAdjust="spacing" textLength="14" x="100" y="494.4717">12</text><text fill="#000000" font-family="sans-serif" font-size="13" lengthAdjust="spacing" textLength="336" x="118" y="494.4717">informs network manager that there are no purchase deals</text><path d="M10,521.7344 L71,521.7344 L71,531.0254 L61,541.0254 L10,541.0254 L10,521.7344 " fill="#EEEEEE" style="stroke:#000000;stroke-width:1.5;"/><rect fill="none" height="300.9102" style="stroke:#000000;stroke-width:1.5;" width="1072" x="10" y="521.7344"/><text fill="#000000" font-family="sans-serif" font-size="13" font-weight="bold" lengthAdjust="spacing" textLength="16" x="25" y="536.7627">alt</text><text fill="#000000" font-family="sans-serif" font-size="11" font-weight="bold" lengthAdjust="spacing" textLength="196" x="86" y="535.6045">[there is atleast one purchase deal]</text><polygon fill="#181818" points="959,560.3164,969,564.3164,959,568.3164,963,564.3164" style="stroke:#181818;stroke-width:1.0;"/><line style="stroke:#181818;stroke-width:1.0;" x1="553" x2="965" y1="564.3164" y2="564.3164"/><text fill="#000000" font-family="sans-serif" font-size="13" font-weight="bold" lengthAdjust="spacing" textLength="14" x="560" y="559.0537">13</text><text fill="#000000" font-family="sans-serif" font-size="13" lengthAdjust="spacing" textLength="284" x="578" y="559.0537">copyAllContents(agenciesAndPurchaseDeals, l1)</text><polygon fill="#181818" points="564,591.6074,554,595.6074,564,599.6074,560,595.6074" style="stroke:#181818;stroke-width:1.0;"/><line style="stroke:#181818;stroke-width:1.0;stroke-dasharray:2.0,2.0;" x1="558" x2="975" y1="595.6074" y2="595.6074"/><text fill="#000000" font-family="sans-serif" font-size="13" font-weight="bold" lengthAdjust="spacing" textLength="14" x="570" y="590.3447">14</text><text fill="#000000" font-family="sans-serif" font-size="13" lengthAdjust="spacing" textLength="95" x="588" y="590.3447">copyAllContents</text><polygon fill="#181818" points="959,622.8984,969,626.8984,959,630.8984,963,626.8984" style="stroke:#181818;stroke-width:1.0;"/><line style="stroke:#181818;stroke-width:1.0;" x1="553" x2="965" y1="626.8984" y2="626.8984"/><text fill="#000000" font-family="sans-serif" font-size="13" font-weight="bold" lengthAdjust="spacing" textLength="14" x="560" y="621.6357">15</text><text fill="#000000" font-family="sans-serif" font-size="13" lengthAdjust="spacing" textLength="284" x="578" y="621.6357">copyAllContents(agenciesAndPurchaseDeals, l2)</text><polygon fill="#181818" points="564,654.1895,554,658.1895,564,662.1895,560,658.1895" style="stroke:#181818;stroke-width:1.0;"/><line style="stroke:#181818;stroke-width:1.0;stroke-dasharray:2.0,2.0;" x1="558" x2="975" y1="658.1895" y2="658.1895"/><text fill="#000000" font-family="sans-serif" font-size="13" font-weight="bold" lengthAdjust="spacing" textLength="14" x="570" y="652.9268">16</text><text fill="#000000" font-family="sans-serif" font-size="13" lengthAdjust="spacing" textLength="95" x="588" y="652.9268">copyAllContents</text><polygon fill="#181818" points="959,685.4805,969,689.4805,959,693.4805,963,689.4805" style="stroke:#181818;stroke-width:1.0;"/><line style="stroke:#181818;stroke-width:1.0;" x1="553" x2="965" y1="689.4805" y2="689.4805"/><text fill="#000000" font-family="sans-serif" font-size="13" font-weight="bold" lengthAdjust="spacing" textLength="14" x="560" y="684.2178">17</text><text fill="#000000" font-family="sans-serif" font-size="13" lengthAdjust="spacing" textLength="381" x="578" y="684.2178">testForEveryNumber(l1, l2, agenciesAndPurchaseDeals, answers)</text><polygon fill="#181818" points="564,716.7715,554,720.7715,564,724.7715,560,720.7715" style="stroke:#181818;stroke-width:1.0;"/><line style="stroke:#181818;stroke-width:1.0;stroke-dasharray:2.0,2.0;" x1="558" x2="975" y1="720.7715" y2="720.7715"/><text fill="#000000" font-family="sans-serif" font-size="13" font-weight="bold" lengthAdjust="spacing" textLength="14" x="570" y="715.5088">18</text><text fill="#000000" font-family="sans-serif" font-size="13" lengthAdjust="spacing" textLength="118" x="588" y="715.5088">testForEveryNumber</text><polygon fill="#181818" points="959,748.0625,969,752.0625,959,756.0625,963,752.0625" style="stroke:#181818;stroke-width:1.0;"/><line style="stroke:#181818;stroke-width:1.0;" x1="553" x2="965" y1="752.0625" y2="752.0625"/><text fill="#000000" font-family="sans-serif" font-size="13" font-weight="bold" lengthAdjust="spacing" textLength="14" x="560" y="746.7998">19</text><text fill="#000000" font-family="sans-serif" font-size="13" lengthAdjust="spacing" textLength="199" x="578" y="746.7998">organizeList(l1, l2, answers.get(0))</text><polygon fill="#181818" points="564,779.3535,554,783.3535,564,787.3535,560,783.3535" style="stroke:#181818;stroke-width:1.0;"/><line style="stroke:#181818;stroke-width:1.0;stroke-dasharray:2.0,2.0;" x1="558" x2="975" y1="783.3535" y2="783.3535"/><text fill="#000000" font-family="sans-serif" font-size="13" font-weight="bold" lengthAdjust="spacing" textLength="14" x="570" y="778.0908">20</text><text fill="#000000" font-family="sans-serif" font-size="13" lengthAdjust="spacing" textLength="70" x="588" y="778.0908">organizeList</text><polygon fill="#181818" points="94,810.6445,84,814.6445,94,818.6445,90,814.6445" style="stroke:#181818;stroke-width:1.0;"/><line style="stroke:#181818;stroke-width:1.0;stroke-dasharray:2.0,2.0;" x1="88" x2="542" y1="814.6445" y2="814.6445"/><text fill="#000000" font-family="sans-serif" font-size="13" font-weight="bold" lengthAdjust="spacing" textLength="14" x="100" y="809.3818">21</text><text fill="#000000" font-family="sans-serif" font-size="13" lengthAdjust="spacing" textLength="332" x="118" y="809.3818">shows network manager the 2 sublists and their diference</text><!--SRC=[vLRRYjim47ttLmnvoYwxfRkFUIY4RGk1xRPikn-Ws1D7H9RCIDcGVdr7SfBw9kT2oKi51YFDvSoPqR7jIkfIa2YWCDgaIp85WgCr9lPmKefq9NBywROAWJ1rGkUgRc2N8ZCRgNDO26KnISJQ6RqkvaZydZf3C7f1jp6qWcz2SomQWR0mzKS9nt0obQNG3aQJdTtEx6qM3DkR0pwCeiSfx0vxFHdjo2YrmzO-_VNwtF9_nT9OoHL8jC6blj6qfTf9ru-YVkMQqgMm-9qof8FVTlAZVpz4Yvpr5ryljMKnpL6dLSZgDGczbE_2uQvp2V0Aht3_gTCacB3loe8pm5jgQtcmbWWPyen08JA4-JRi21_UrnxY7N9qcXwE_UfaQcKFtURqp8FEyMqslgbyEVNnuBqcrVmSRDeWgeHT57vgRcyz4a8EUP4_U-VefafDTpJj6_pP4xalxHZwCByDonuC8HsZg4zebNwcBT_w5Dlf6YaRyzynywiH-3vQBmq6gdLnE6EaEkfK5xaoWyNIqMBfj68ZTtomRhgaxaYY7WhiD4snT9WDCd0oSBzYoUEyz2CQfELaHBqCHKHauF8r0qVKfV_o2UMyzX6h7p_Q7B1N-dWKifSB1bo9xmIaNXWgBEZTLxQeT8rJY7FoeCvYCAK5uHGAwy1eR8Ov2Msipwafjqom__oYTdQy_nfCTTOW-mxKmz0udYHuvpQ_1Mvm-YvHt7z4pED_HOn3wxuQ-lAEj7q9VvbZzU1Pk8CuHqBR3Ul8rOdgWhqgLuPoeULlV9RM_MMfuk83IzluuytLAQbZEfiCRvASeOnsQJPzkeZm27OzLuo1bKrdVaiIP7B1QiT_EZtAc1o7w7yIazfnGF47]--></g></svg>