<?xml version="1.0" encoding="us-ascii" standalone="no"?><svg xmlns="http://www.w3.org/2000/svg" xmlns:xlink="http://www.w3.org/1999/xlink" contentStyleType="text/css" height="1046px" preserveAspectRatio="none" style="width:991px;height:1046px;background:#FFFFFF;" version="1.1" viewBox="0 0 991 1046" width="991px" zoomAndPan="magnify"><defs/><g><!--class NetworkManagerUI--><g id="elem_NetworkManagerUI"><rect codeLine="10" fill="#F1F1F1" height="33.3105" id="NetworkManagerUI" rx="1.25" ry="1.25" style="stroke:#181818;stroke-width:0.25;" width="75" x="911.25" y="182.5"/><ellipse cx="918.75" cy="190.5" fill="#ADD1B2" rx="5.5" ry="5.5" style="stroke:#181818;stroke-width:0.5;"/><path d="M920.1328,188.4375 Q920.2109,188.3281 920.3047,188.2734 Q920.3984,188.2188 920.5078,188.2188 Q920.6953,188.2188 920.8125,188.3516 Q920.9297,188.4766 920.9297,188.7813 L920.9297,189.5078 Q920.9297,189.8125 920.8125,189.9453 Q920.6953,190.0781 920.5078,190.0781 Q920.3359,190.0781 920.2344,189.9766 Q920.1328,189.8828 920.0781,189.625 Q920.0547,189.4453 919.9609,189.3516 Q919.7969,189.1641 919.4922,189.0547 Q919.1875,188.9453 918.875,188.9453 Q918.4922,188.9453 918.1719,189.1094 Q917.8594,189.2734 917.6094,189.6484 Q917.3672,190.0234 917.3672,190.5391 L917.3672,191.0859 Q917.3672,191.7031 917.8125,192.1172 Q918.2578,192.5234 919.0547,192.5234 Q919.5234,192.5234 919.8516,192.3984 Q920.0469,192.3203 920.2578,192.1016 Q920.3906,191.9688 920.4609,191.9297 Q920.5391,191.8906 920.6406,191.8906 Q920.8047,191.8906 920.9297,192.0234 Q921.0625,192.1484 921.0625,192.3203 Q921.0625,192.4922 920.8906,192.6953 Q920.6406,192.9844 920.2422,193.1484 Q919.7031,193.375 919.0547,193.375 Q918.2969,193.375 917.6953,193.0625 Q917.2031,192.8125 916.8594,192.2813 Q916.5156,191.7422 916.5156,191.1016 L916.5156,190.5234 Q916.5156,189.8594 916.8203,189.2891 Q917.1328,188.7109 917.6797,188.4063 Q918.2266,188.0938 918.8438,188.0938 Q919.2109,188.0938 919.5313,188.1797 Q919.8594,188.2578 920.1328,188.4375 Z " fill="#000000"/><text fill="#000000" font-family="sans-serif" font-size="7" lengthAdjust="spacing" textLength="59" x="925.75" y="193.3984">NetworkManagerUI</text><line style="stroke:#181818;stroke-width:0.25;" x1="911.75" x2="985.75" y1="198.5" y2="198.5"/><line style="stroke:#181818;stroke-width:0.5;" x1="911.75" x2="985.75" y1="202.5" y2="202.5"/><text fill="#000000" font-family="sans-serif" font-size="7" lengthAdjust="spacing" textLength="38.5" x="914.25" y="212.0537">+changeUI()</text></g><!--class NetworkManagingUI--><g id="elem_NetworkManagingUI"><rect codeLine="15" fill="#F1F1F1" height="33.3105" id="NetworkManagingUI" rx="1.25" ry="1.25" style="stroke:#181818;stroke-width:0.25;" width="78" x="909.75" y="246"/><ellipse cx="917.25" cy="254" fill="#ADD1B2" rx="5.5" ry="5.5" style="stroke:#181818;stroke-width:0.5;"/><path d="M918.6328,251.9375 Q918.7109,251.8281 918.8047,251.7734 Q918.8984,251.7188 919.0078,251.7188 Q919.1953,251.7188 919.3125,251.8516 Q919.4297,251.9766 919.4297,252.2813 L919.4297,253.0078 Q919.4297,253.3125 919.3125,253.4453 Q919.1953,253.5781 919.0078,253.5781 Q918.8359,253.5781 918.7344,253.4766 Q918.6328,253.3828 918.5781,253.125 Q918.5547,252.9453 918.4609,252.8516 Q918.2969,252.6641 917.9922,252.5547 Q917.6875,252.4453 917.375,252.4453 Q916.9922,252.4453 916.6719,252.6094 Q916.3594,252.7734 916.1094,253.1484 Q915.8672,253.5234 915.8672,254.0391 L915.8672,254.5859 Q915.8672,255.2031 916.3125,255.6172 Q916.7578,256.0234 917.5547,256.0234 Q918.0234,256.0234 918.3516,255.8984 Q918.5469,255.8203 918.7578,255.6016 Q918.8906,255.4688 918.9609,255.4297 Q919.0391,255.3906 919.1406,255.3906 Q919.3047,255.3906 919.4297,255.5234 Q919.5625,255.6484 919.5625,255.8203 Q919.5625,255.9922 919.3906,256.1953 Q919.1406,256.4844 918.7422,256.6484 Q918.2031,256.875 917.5547,256.875 Q916.7969,256.875 916.1953,256.5625 Q915.7031,256.3125 915.3594,255.7813 Q915.0156,255.2422 915.0156,254.6016 L915.0156,254.0234 Q915.0156,253.3594 915.3203,252.7891 Q915.6328,252.2109 916.1797,251.9063 Q916.7266,251.5938 917.3438,251.5938 Q917.7109,251.5938 918.0313,251.6797 Q918.3594,251.7578 918.6328,251.9375 Z " fill="#000000"/><text fill="#000000" font-family="sans-serif" font-size="7" lengthAdjust="spacing" textLength="62" x="924.25" y="256.8984">NetworkManagingUI</text><line style="stroke:#181818;stroke-width:0.25;" x1="910.25" x2="987.25" y1="262" y2="262"/><line style="stroke:#181818;stroke-width:0.5;" x1="910.25" x2="987.25" y1="266" y2="266"/><text fill="#000000" font-family="sans-serif" font-size="7" lengthAdjust="spacing" textLength="2" x="912.75" y="275.5537">&#160;</text></g><!--class NetworkManagingController--><g id="elem_NetworkManagingController"><rect codeLine="20" fill="#F1F1F1" height="117.1055" id="NetworkManagingController" rx="1.25" ry="1.25" style="stroke:#181818;stroke-width:0.25;" width="216" x="38.75" y="309.5"/><ellipse cx="101.125" cy="317.5" fill="#ADD1B2" rx="5.5" ry="5.5" style="stroke:#181818;stroke-width:0.5;"/><path d="M102.5078,315.4375 Q102.5859,315.3281 102.6797,315.2734 Q102.7734,315.2188 102.8828,315.2188 Q103.0703,315.2188 103.1875,315.3516 Q103.3047,315.4766 103.3047,315.7813 L103.3047,316.5078 Q103.3047,316.8125 103.1875,316.9453 Q103.0703,317.0781 102.8828,317.0781 Q102.7109,317.0781 102.6094,316.9766 Q102.5078,316.8828 102.4531,316.625 Q102.4297,316.4453 102.3359,316.3516 Q102.1719,316.1641 101.8672,316.0547 Q101.5625,315.9453 101.25,315.9453 Q100.8672,315.9453 100.5469,316.1094 Q100.2344,316.2734 99.9844,316.6484 Q99.7422,317.0234 99.7422,317.5391 L99.7422,318.0859 Q99.7422,318.7031 100.1875,319.1172 Q100.6328,319.5234 101.4297,319.5234 Q101.8984,319.5234 102.2266,319.3984 Q102.4219,319.3203 102.6328,319.1016 Q102.7656,318.9688 102.8359,318.9297 Q102.9141,318.8906 103.0156,318.8906 Q103.1797,318.8906 103.3047,319.0234 Q103.4375,319.1484 103.4375,319.3203 Q103.4375,319.4922 103.2656,319.6953 Q103.0156,319.9844 102.6172,320.1484 Q102.0781,320.375 101.4297,320.375 Q100.6719,320.375 100.0703,320.0625 Q99.5781,319.8125 99.2344,319.2813 Q98.8906,318.7422 98.8906,318.1016 L98.8906,317.5234 Q98.8906,316.8594 99.1953,316.2891 Q99.5078,315.7109 100.0547,315.4063 Q100.6016,315.0938 101.2188,315.0938 Q101.5859,315.0938 101.9063,315.1797 Q102.2344,315.2578 102.5078,315.4375 Z " fill="#000000"/><text fill="#000000" font-family="sans-serif" font-size="7" lengthAdjust="spacing" textLength="87" x="111.375" y="320.3984">NetworkManagingController</text><line style="stroke:#181818;stroke-width:0.25;" x1="39.25" x2="254.25" y1="325.5" y2="325.5"/><line style="stroke:#181818;stroke-width:0.5;" x1="39.25" x2="254.25" y1="329.5" y2="329.5"/><text fill="#000000" font-family="sans-serif" font-size="7" lengthAdjust="spacing" textLength="103.5" x="41.75" y="339.0537">+getAllAgenciesPurchaseDeals()</text><text fill="#000000" font-family="sans-serif" font-size="7" lengthAdjust="spacing" textLength="96.5" x="41.75" y="348.3643">+getAgenciesPurchaseDeal(n)</text><text fill="#000000" font-family="sans-serif" font-size="7" lengthAdjust="spacing" textLength="87.5" x="41.75" y="357.6748">+copyAllcontents(list1, list2)</text><text fill="#000000" font-family="sans-serif" font-size="7" lengthAdjust="spacing" textLength="111" x="41.75" y="366.9854">+decimalToBinary(decimal, listSize)</text><text fill="#000000" font-family="sans-serif" font-size="7" lengthAdjust="spacing" textLength="84" x="41.75" y="376.2959">+padZeros(binary, listSize)</text><text fill="#000000" font-family="sans-serif" font-size="7" lengthAdjust="spacing" textLength="90.5" x="41.75" y="385.6064">+countAllPurchaseDeals(list)</text><text fill="#000000" font-family="sans-serif" font-size="7" lengthAdjust="spacing" textLength="73" x="41.75" y="394.917">+test(list1, list2, binary)</text><text fill="#000000" font-family="sans-serif" font-size="7" lengthAdjust="spacing" textLength="210" x="41.75" y="404.2275">+testForEveryNumber(list1, list2, agenciesPurchaseDeals, answer)</text><text fill="#000000" font-family="sans-serif" font-size="7" lengthAdjust="spacing" textLength="139.5" x="41.75" y="413.5381">+organizeList(list1, list2, binaryOrganization)</text><text fill="#000000" font-family="sans-serif" font-size="7" lengthAdjust="spacing" textLength="80.5" x="41.75" y="422.8486">+getPowerOfTwo(listSize)</text></g><!--class Employee--><g id="elem_Employee"><rect codeLine="303" fill="#F1F1F1" height="149.0371" id="Employee" rx="1.25" ry="1.25" style="stroke:#181818;stroke-width:0.25;" width="85" x="810.25" y="3.5"/><ellipse cx="835.125" cy="11.5" fill="#ADD1B2" rx="5.5" ry="5.5" style="stroke:#181818;stroke-width:0.5;"/><path d="M836.5078,9.4375 Q836.5859,9.3281 836.6797,9.2734 Q836.7734,9.2188 836.8828,9.2188 Q837.0703,9.2188 837.1875,9.3516 Q837.3047,9.4766 837.3047,9.7813 L837.3047,10.5078 Q837.3047,10.8125 837.1875,10.9453 Q837.0703,11.0781 836.8828,11.0781 Q836.7109,11.0781 836.6094,10.9766 Q836.5078,10.8828 836.4531,10.625 Q836.4297,10.4453 836.3359,10.3516 Q836.1719,10.1641 835.8672,10.0547 Q835.5625,9.9453 835.25,9.9453 Q834.8672,9.9453 834.5469,10.1094 Q834.2344,10.2734 833.9844,10.6484 Q833.7422,11.0234 833.7422,11.5391 L833.7422,12.0859 Q833.7422,12.7031 834.1875,13.1172 Q834.6328,13.5234 835.4297,13.5234 Q835.8984,13.5234 836.2266,13.3984 Q836.4219,13.3203 836.6328,13.1016 Q836.7656,12.9688 836.8359,12.9297 Q836.9141,12.8906 837.0156,12.8906 Q837.1797,12.8906 837.3047,13.0234 Q837.4375,13.1484 837.4375,13.3203 Q837.4375,13.4922 837.2656,13.6953 Q837.0156,13.9844 836.6172,14.1484 Q836.0781,14.375 835.4297,14.375 Q834.6719,14.375 834.0703,14.0625 Q833.5781,13.8125 833.2344,13.2813 Q832.8906,12.7422 832.8906,12.1016 L832.8906,11.5234 Q832.8906,10.8594 833.1953,10.2891 Q833.5078,9.7109 834.0547,9.4063 Q834.6016,9.0938 835.2188,9.0938 Q835.5859,9.0938 835.9063,9.1797 Q836.2344,9.2578 836.5078,9.4375 Z " fill="#000000"/><text fill="#000000" font-family="sans-serif" font-size="7" lengthAdjust="spacing" textLength="31" x="845.375" y="14.3984">Employee</text><line style="stroke:#181818;stroke-width:0.25;" x1="810.75" x2="894.75" y1="19.5" y2="19.5"/><text fill="#000000" font-family="sans-serif" font-size="7" lengthAdjust="spacing" textLength="40.5" x="813.25" y="29.0537">-String name</text><text fill="#000000" font-family="sans-serif" font-size="7" lengthAdjust="spacing" textLength="47.5" x="813.25" y="38.3643">-String position</text><text fill="#000000" font-family="sans-serif" font-size="7" lengthAdjust="spacing" textLength="65.5" x="813.25" y="47.6748">-String emailAddress</text><text fill="#000000" font-family="sans-serif" font-size="7" lengthAdjust="spacing" textLength="79" x="813.25" y="56.9854">-String telephoneNumber</text><line style="stroke:#181818;stroke-width:0.5;" x1="810.75" x2="894.75" y1="60.7422" y2="60.7422"/><text fill="#000000" font-family="sans-serif" font-size="7" lengthAdjust="spacing" textLength="37" x="813.25" y="70.2959">+getName()</text><text fill="#000000" font-family="sans-serif" font-size="7" lengthAdjust="spacing" textLength="44" x="813.25" y="79.6064">+getPosition()</text><text fill="#000000" font-family="sans-serif" font-size="7" lengthAdjust="spacing" textLength="62" x="813.25" y="88.917">+getEmailAddress()</text><text fill="#000000" font-family="sans-serif" font-size="7" lengthAdjust="spacing" textLength="77.5" x="813.25" y="98.2275">+getTelephoneNumber()</text><text fill="#000000" font-family="sans-serif" font-size="7" lengthAdjust="spacing" textLength="41.5" x="813.25" y="107.5381">-email: String</text><text fill="#000000" font-family="sans-serif" font-size="7" lengthAdjust="spacing" textLength="42.5" x="813.25" y="116.8486">-name: String</text><text fill="#000000" font-family="sans-serif" font-size="7" lengthAdjust="spacing" textLength="49.5" x="813.25" y="126.1592">-position: String</text><text fill="#000000" font-family="sans-serif" font-size="7" lengthAdjust="spacing" textLength="45" x="813.25" y="135.4697">-phone: String</text><line style="stroke:#181818;stroke-width:0.5;" x1="810.75" x2="894.75" y1="139.2266" y2="139.2266"/><text fill="#000000" font-family="sans-serif" font-size="7" lengthAdjust="spacing" textLength="56" x="813.25" y="148.7803">+toString(): String</text></g><!--class Network--><g id="elem_Network"><rect codeLine="46" fill="#F1F1F1" height="135.7266" id="Network" rx="1.25" ry="1.25" style="stroke:#181818;stroke-width:0.25;" width="124.5" x="3.5" y="493.75"/><ellipse cx="51.125" cy="501.75" fill="#ADD1B2" rx="5.5" ry="5.5" style="stroke:#181818;stroke-width:0.5;"/><path d="M52.5078,499.6875 Q52.5859,499.5781 52.6797,499.5234 Q52.7734,499.4688 52.8828,499.4688 Q53.0703,499.4688 53.1875,499.6016 Q53.3047,499.7266 53.3047,500.0313 L53.3047,500.7578 Q53.3047,501.0625 53.1875,501.1953 Q53.0703,501.3281 52.8828,501.3281 Q52.7109,501.3281 52.6094,501.2266 Q52.5078,501.1328 52.4531,500.875 Q52.4297,500.6953 52.3359,500.6016 Q52.1719,500.4141 51.8672,500.3047 Q51.5625,500.1953 51.25,500.1953 Q50.8672,500.1953 50.5469,500.3594 Q50.2344,500.5234 49.9844,500.8984 Q49.7422,501.2734 49.7422,501.7891 L49.7422,502.3359 Q49.7422,502.9531 50.1875,503.3672 Q50.6328,503.7734 51.4297,503.7734 Q51.8984,503.7734 52.2266,503.6484 Q52.4219,503.5703 52.6328,503.3516 Q52.7656,503.2188 52.8359,503.1797 Q52.9141,503.1406 53.0156,503.1406 Q53.1797,503.1406 53.3047,503.2734 Q53.4375,503.3984 53.4375,503.5703 Q53.4375,503.7422 53.2656,503.9453 Q53.0156,504.2344 52.6172,504.3984 Q52.0781,504.625 51.4297,504.625 Q50.6719,504.625 50.0703,504.3125 Q49.5781,504.0625 49.2344,503.5313 Q48.8906,502.9922 48.8906,502.3516 L48.8906,501.7734 Q48.8906,501.1094 49.1953,500.5391 Q49.5078,499.9609 50.0547,499.6563 Q50.6016,499.3438 51.2188,499.3438 Q51.5859,499.3438 51.9063,499.4297 Q52.2344,499.5078 52.5078,499.6875 Z " fill="#000000"/><text fill="#000000" font-family="sans-serif" font-size="7" lengthAdjust="spacing" textLength="25" x="61.375" y="504.6484">Network</text><line style="stroke:#181818;stroke-width:0.25;" x1="4" x2="127.5" y1="509.75" y2="509.75"/><text fill="#000000" font-family="sans-serif" font-size="7" lengthAdjust="spacing" textLength="54" x="6.5" y="519.3037">-String networkID</text><text fill="#000000" font-family="sans-serif" font-size="7" lengthAdjust="spacing" textLength="65.5" x="6.5" y="528.6143">-String networkName</text><text fill="#000000" font-family="sans-serif" font-size="7" lengthAdjust="spacing" textLength="65.5" x="6.5" y="537.9248">-String emailAddress</text><text fill="#000000" font-family="sans-serif" font-size="7" lengthAdjust="spacing" textLength="79" x="6.5" y="547.2354">-String telephoneNumber</text><text fill="#000000" font-family="sans-serif" font-size="7" lengthAdjust="spacing" textLength="56" x="6.5" y="556.5459">-Address address</text><line style="stroke:#181818;stroke-width:0.5;" x1="4" x2="127.5" y1="560.3027" y2="560.3027"/><text fill="#000000" font-family="sans-serif" font-size="7" lengthAdjust="spacing" textLength="50.5" x="6.5" y="569.8564">+getNetworkID()</text><text fill="#000000" font-family="sans-serif" font-size="7" lengthAdjust="spacing" textLength="62" x="6.5" y="579.167">+getNetworkName()</text><text fill="#000000" font-family="sans-serif" font-size="7" lengthAdjust="spacing" textLength="62" x="6.5" y="588.4775">+getEmailAddress()</text><text fill="#000000" font-family="sans-serif" font-size="7" lengthAdjust="spacing" textLength="77.5" x="6.5" y="597.7881">+getTelephoneNumber()</text><text fill="#000000" font-family="sans-serif" font-size="7" lengthAdjust="spacing" textLength="45" x="6.5" y="607.0986">+getAddress()</text><text fill="#000000" font-family="sans-serif" font-size="7" lengthAdjust="spacing" textLength="118.5" x="6.5" y="616.4092">+getNumberPurchaseOrders(agency)</text><text fill="#000000" font-family="sans-serif" font-size="7" lengthAdjust="spacing" textLength="92.5" x="6.5" y="625.7197">+addAgencyPurchaseDeals()</text></g><!--class NetworkManager--><g id="elem_NetworkManager"><rect codeLine="62" fill="#F1F1F1" height="42.6211" id="NetworkManager" rx="1.25" ry="1.25" style="stroke:#181818;stroke-width:0.25;" width="71.5" x="913" y="56.75"/><ellipse cx="921.625" cy="64.75" fill="#ADD1B2" rx="5.5" ry="5.5" style="stroke:#181818;stroke-width:0.5;"/><path d="M923.0078,62.6875 Q923.0859,62.5781 923.1797,62.5234 Q923.2734,62.4688 923.3828,62.4688 Q923.5703,62.4688 923.6875,62.6016 Q923.8047,62.7266 923.8047,63.0313 L923.8047,63.7578 Q923.8047,64.0625 923.6875,64.1953 Q923.5703,64.3281 923.3828,64.3281 Q923.2109,64.3281 923.1094,64.2266 Q923.0078,64.1328 922.9531,63.875 Q922.9297,63.6953 922.8359,63.6016 Q922.6719,63.4141 922.3672,63.3047 Q922.0625,63.1953 921.75,63.1953 Q921.3672,63.1953 921.0469,63.3594 Q920.7344,63.5234 920.4844,63.8984 Q920.2422,64.2734 920.2422,64.7891 L920.2422,65.3359 Q920.2422,65.9531 920.6875,66.3672 Q921.1328,66.7734 921.9297,66.7734 Q922.3984,66.7734 922.7266,66.6484 Q922.9219,66.5703 923.1328,66.3516 Q923.2656,66.2188 923.3359,66.1797 Q923.4141,66.1406 923.5156,66.1406 Q923.6797,66.1406 923.8047,66.2734 Q923.9375,66.3984 923.9375,66.5703 Q923.9375,66.7422 923.7656,66.9453 Q923.5156,67.2344 923.1172,67.3984 Q922.5781,67.625 921.9297,67.625 Q921.1719,67.625 920.5703,67.3125 Q920.0781,67.0625 919.7344,66.5313 Q919.3906,65.9922 919.3906,65.3516 L919.3906,64.7734 Q919.3906,64.1094 919.6953,63.5391 Q920.0078,62.9609 920.5547,62.6563 Q921.1016,62.3438 921.7188,62.3438 Q922.0859,62.3438 922.4063,62.4297 Q922.7344,62.5078 923.0078,62.6875 Z " fill="#000000"/><text fill="#000000" font-family="sans-serif" font-size="7" lengthAdjust="spacing" textLength="53" x="928.875" y="67.6484">NetworkManager</text><line style="stroke:#181818;stroke-width:0.25;" x1="913.5" x2="984" y1="72.75" y2="72.75"/><text fill="#000000" font-family="sans-serif" font-size="7" lengthAdjust="spacing" textLength="65.5" x="916" y="82.3037">-String networkName</text><line style="stroke:#181818;stroke-width:0.5;" x1="913.5" x2="984" y1="86.0605" y2="86.0605"/><text fill="#000000" font-family="sans-serif" font-size="7" lengthAdjust="spacing" textLength="62" x="916" y="95.6143">+getNetworkName()</text></g><!--class Agency--><g id="elem_Agency"><rect codeLine="280" fill="#F1F1F1" height="210.2109" id="Agency" rx="1.25" ry="1.25" style="stroke:#181818;stroke-width:0.25;" width="163" x="563.25" y="456.5"/><ellipse cx="630.875" cy="464.5" fill="#ADD1B2" rx="5.5" ry="5.5" style="stroke:#181818;stroke-width:0.5;"/><path d="M632.2578,462.4375 Q632.3359,462.3281 632.4297,462.2734 Q632.5234,462.2188 632.6328,462.2188 Q632.8203,462.2188 632.9375,462.3516 Q633.0547,462.4766 633.0547,462.7813 L633.0547,463.5078 Q633.0547,463.8125 632.9375,463.9453 Q632.8203,464.0781 632.6328,464.0781 Q632.4609,464.0781 632.3594,463.9766 Q632.2578,463.8828 632.2031,463.625 Q632.1797,463.4453 632.0859,463.3516 Q631.9219,463.1641 631.6172,463.0547 Q631.3125,462.9453 631,462.9453 Q630.6172,462.9453 630.2969,463.1094 Q629.9844,463.2734 629.7344,463.6484 Q629.4922,464.0234 629.4922,464.5391 L629.4922,465.0859 Q629.4922,465.7031 629.9375,466.1172 Q630.3828,466.5234 631.1797,466.5234 Q631.6484,466.5234 631.9766,466.3984 Q632.1719,466.3203 632.3828,466.1016 Q632.5156,465.9688 632.5859,465.9297 Q632.6641,465.8906 632.7656,465.8906 Q632.9297,465.8906 633.0547,466.0234 Q633.1875,466.1484 633.1875,466.3203 Q633.1875,466.4922 633.0156,466.6953 Q632.7656,466.9844 632.3672,467.1484 Q631.8281,467.375 631.1797,467.375 Q630.4219,467.375 629.8203,467.0625 Q629.3281,466.8125 628.9844,466.2813 Q628.6406,465.7422 628.6406,465.1016 L628.6406,464.5234 Q628.6406,463.8594 628.9453,463.2891 Q629.2578,462.7109 629.8047,462.4063 Q630.3516,462.0938 630.9688,462.0938 Q631.3359,462.0938 631.6563,462.1797 Q631.9844,462.2578 632.2578,462.4375 Z " fill="#000000"/><text fill="#000000" font-family="sans-serif" font-size="7" lengthAdjust="spacing" textLength="23.5" x="641.125" y="467.3984">Agency</text><line style="stroke:#181818;stroke-width:0.25;" x1="563.75" x2="725.75" y1="472.5" y2="472.5"/><text fill="#000000" font-family="sans-serif" font-size="7" lengthAdjust="spacing" textLength="52.5" x="566.25" y="482.0537">-String agencyID</text><text fill="#000000" font-family="sans-serif" font-size="7" lengthAdjust="spacing" textLength="64" x="566.25" y="491.3643">-String agencyName</text><text fill="#000000" font-family="sans-serif" font-size="7" lengthAdjust="spacing" textLength="65.5" x="566.25" y="500.6748">-String emailAddress</text><text fill="#000000" font-family="sans-serif" font-size="7" lengthAdjust="spacing" textLength="79" x="566.25" y="509.9854">-String telephoneNumber</text><text fill="#000000" font-family="sans-serif" font-size="7" lengthAdjust="spacing" textLength="56" x="566.25" y="519.2959">-Address address</text><line style="stroke:#181818;stroke-width:0.5;" x1="563.75" x2="725.75" y1="523.0527" y2="523.0527"/><text fill="#000000" font-family="sans-serif" font-size="7" lengthAdjust="spacing" textLength="49" x="566.25" y="532.6064">+getAgencyID()</text><text fill="#000000" font-family="sans-serif" font-size="7" lengthAdjust="spacing" textLength="60.5" x="566.25" y="541.917">+getAgencyName()</text><text fill="#000000" font-family="sans-serif" font-size="7" lengthAdjust="spacing" textLength="62" x="566.25" y="551.2275">+getEmailAddress()</text><text fill="#000000" font-family="sans-serif" font-size="7" lengthAdjust="spacing" textLength="77.5" x="566.25" y="560.5381">+getTelephoneNumber()</text><text fill="#000000" font-family="sans-serif" font-size="7" lengthAdjust="spacing" textLength="45" x="566.25" y="569.8486">+getAddress()</text><text fill="#000000" font-family="sans-serif" font-size="7" lengthAdjust="spacing" textLength="54.5" x="566.25" y="579.1592">-agencyID: String</text><text fill="#000000" font-family="sans-serif" font-size="7" lengthAdjust="spacing" textLength="66" x="566.25" y="588.4697">-agencyName: String</text><text fill="#000000" font-family="sans-serif" font-size="7" lengthAdjust="spacing" textLength="67.5" x="566.25" y="597.7803">-emailAddress: String</text><text fill="#000000" font-family="sans-serif" font-size="7" lengthAdjust="spacing" textLength="106.5" x="566.25" y="607.0908">-contactTelephoneNumber: String</text><text fill="#000000" font-family="sans-serif" font-size="7" lengthAdjust="spacing" textLength="58" x="566.25" y="616.4014">-address: Address</text><text fill="#000000" font-family="sans-serif" font-size="7" lengthAdjust="spacing" textLength="157" x="566.25" y="625.7119">-purchaseOrdersAccepted : List&lt;PurchaseOrder&gt;</text><text fill="#000000" font-family="sans-serif" font-size="7" lengthAdjust="spacing" textLength="100.5" x="566.25" y="635.0225">+getPurchaseOrdersAccepted()</text><text fill="#000000" font-family="sans-serif" font-size="7" lengthAdjust="spacing" textLength="103.5" x="566.25" y="644.333">+sortListBubble(sortingDirection)</text><text fill="#000000" font-family="sans-serif" font-size="7" lengthAdjust="spacing" textLength="99.5" x="566.25" y="653.6436">+sortSelection(sortingDirection)</text><text fill="#000000" font-family="sans-serif" font-size="7" lengthAdjust="spacing" textLength="56" x="566.25" y="662.9541">+toString(): String</text></g><!--class PurchaseOrderRepository--><g id="elem_PurchaseOrderRepository"><rect codeLine="83" fill="#F1F1F1" height="42.6211" id="PurchaseOrderRepository" rx="1.25" ry="1.25" style="stroke:#181818;stroke-width:0.25;" width="163" x="145.75" y="540.25"/><ellipse cx="183.875" cy="548.25" fill="#ADD1B2" rx="5.5" ry="5.5" style="stroke:#181818;stroke-width:0.5;"/><path d="M185.2578,546.1875 Q185.3359,546.0781 185.4297,546.0234 Q185.5234,545.9688 185.6328,545.9688 Q185.8203,545.9688 185.9375,546.1016 Q186.0547,546.2266 186.0547,546.5313 L186.0547,547.2578 Q186.0547,547.5625 185.9375,547.6953 Q185.8203,547.8281 185.6328,547.8281 Q185.4609,547.8281 185.3594,547.7266 Q185.2578,547.6328 185.2031,547.375 Q185.1797,547.1953 185.0859,547.1016 Q184.9219,546.9141 184.6172,546.8047 Q184.3125,546.6953 184,546.6953 Q183.6172,546.6953 183.2969,546.8594 Q182.9844,547.0234 182.7344,547.3984 Q182.4922,547.7734 182.4922,548.2891 L182.4922,548.8359 Q182.4922,549.4531 182.9375,549.8672 Q183.3828,550.2734 184.1797,550.2734 Q184.6484,550.2734 184.9766,550.1484 Q185.1719,550.0703 185.3828,549.8516 Q185.5156,549.7188 185.5859,549.6797 Q185.6641,549.6406 185.7656,549.6406 Q185.9297,549.6406 186.0547,549.7734 Q186.1875,549.8984 186.1875,550.0703 Q186.1875,550.2422 186.0156,550.4453 Q185.7656,550.7344 185.3672,550.8984 Q184.8281,551.125 184.1797,551.125 Q183.4219,551.125 182.8203,550.8125 Q182.3281,550.5625 181.9844,550.0313 Q181.6406,549.4922 181.6406,548.8516 L181.6406,548.2734 Q181.6406,547.6094 181.9453,547.0391 Q182.2578,546.4609 182.8047,546.1563 Q183.3516,545.8438 183.9688,545.8438 Q184.3359,545.8438 184.6563,545.9297 Q184.9844,546.0078 185.2578,546.1875 Z " fill="#000000"/><text fill="#000000" font-family="sans-serif" font-size="7" lengthAdjust="spacing" textLength="82.5" x="194.125" y="551.1484">PurchaseOrderRepository</text><line style="stroke:#181818;stroke-width:0.25;" x1="146.25" x2="308.25" y1="556.25" y2="556.25"/><text fill="#000000" font-family="sans-serif" font-size="7" lengthAdjust="spacing" textLength="157" x="148.75" y="565.8037">-purchaseOrdersAccepted : List&lt;PurchaseOrder&gt;</text><line style="stroke:#181818;stroke-width:0.5;" x1="146.25" x2="308.25" y1="569.5605" y2="569.5605"/><text fill="#000000" font-family="sans-serif" font-size="7" lengthAdjust="spacing" textLength="100.5" x="148.75" y="579.1143">+getPurchaseOrdersAccepted()</text></g><!--class Repositories--><g id="elem_Repositories"><rect codeLine="89" fill="#F1F1F1" height="61.2422" id="Repositories" rx="1.25" ry="1.25" style="stroke:#181818;stroke-width:0.25;" width="107.5" x="272.5" y="337.5"/><ellipse cx="304.375" cy="345.5" fill="#ADD1B2" rx="5.5" ry="5.5" style="stroke:#181818;stroke-width:0.5;"/><path d="M305.7578,343.4375 Q305.8359,343.3281 305.9297,343.2734 Q306.0234,343.2188 306.1328,343.2188 Q306.3203,343.2188 306.4375,343.3516 Q306.5547,343.4766 306.5547,343.7813 L306.5547,344.5078 Q306.5547,344.8125 306.4375,344.9453 Q306.3203,345.0781 306.1328,345.0781 Q305.9609,345.0781 305.8594,344.9766 Q305.7578,344.8828 305.7031,344.625 Q305.6797,344.4453 305.5859,344.3516 Q305.4219,344.1641 305.1172,344.0547 Q304.8125,343.9453 304.5,343.9453 Q304.1172,343.9453 303.7969,344.1094 Q303.4844,344.2734 303.2344,344.6484 Q302.9922,345.0234 302.9922,345.5391 L302.9922,346.0859 Q302.9922,346.7031 303.4375,347.1172 Q303.8828,347.5234 304.6797,347.5234 Q305.1484,347.5234 305.4766,347.3984 Q305.6719,347.3203 305.8828,347.1016 Q306.0156,346.9688 306.0859,346.9297 Q306.1641,346.8906 306.2656,346.8906 Q306.4297,346.8906 306.5547,347.0234 Q306.6875,347.1484 306.6875,347.3203 Q306.6875,347.4922 306.5156,347.6953 Q306.2656,347.9844 305.8672,348.1484 Q305.3281,348.375 304.6797,348.375 Q303.9219,348.375 303.3203,348.0625 Q302.8281,347.8125 302.4844,347.2813 Q302.1406,346.7422 302.1406,346.1016 L302.1406,345.5234 Q302.1406,344.8594 302.4453,344.2891 Q302.7578,343.7109 303.3047,343.4063 Q303.8516,343.0938 304.4688,343.0938 Q304.8359,343.0938 305.1563,343.1797 Q305.4844,343.2578 305.7578,343.4375 Z " fill="#000000"/><text fill="#000000" font-family="sans-serif" font-size="7" lengthAdjust="spacing" textLength="39.5" x="314.625" y="348.3984">Repositories</text><line style="stroke:#181818;stroke-width:0.25;" x1="273" x2="379.5" y1="353.5" y2="353.5"/><line style="stroke:#181818;stroke-width:0.5;" x1="273" x2="379.5" y1="357.5" y2="357.5"/><text fill="#000000" font-family="sans-serif" font-size="7" lengthAdjust="spacing" textLength="47" x="275.5" y="367.0537">-Repositories()</text><text fill="#000000" font-family="sans-serif" font-size="7" lengthAdjust="spacing" textLength="91" x="275.5" y="376.3643">+getInstance() : Repositories</text><text fill="#000000" font-family="sans-serif" font-size="7" lengthAdjust="spacing" textLength="101.5" x="275.5" y="385.6748">+getPurchaseOrderRepository()</text><text fill="#000000" font-family="sans-serif" font-size="7" lengthAdjust="spacing" textLength="2" x="275.5" y="394.9854">&#160;</text></g><!--class PurchaseOrder--><g id="elem_PurchaseOrder"><rect codeLine="97" fill="#F1F1F1" height="79.8633" id="PurchaseOrder" rx="1.25" ry="1.25" style="stroke:#181818;stroke-width:0.25;" width="112.5" x="744" y="521.5"/><ellipse cx="773.875" cy="529.5" fill="#ADD1B2" rx="5.5" ry="5.5" style="stroke:#181818;stroke-width:0.5;"/><path d="M775.2578,527.4375 Q775.3359,527.3281 775.4297,527.2734 Q775.5234,527.2188 775.6328,527.2188 Q775.8203,527.2188 775.9375,527.3516 Q776.0547,527.4766 776.0547,527.7813 L776.0547,528.5078 Q776.0547,528.8125 775.9375,528.9453 Q775.8203,529.0781 775.6328,529.0781 Q775.4609,529.0781 775.3594,528.9766 Q775.2578,528.8828 775.2031,528.625 Q775.1797,528.4453 775.0859,528.3516 Q774.9219,528.1641 774.6172,528.0547 Q774.3125,527.9453 774,527.9453 Q773.6172,527.9453 773.2969,528.1094 Q772.9844,528.2734 772.7344,528.6484 Q772.4922,529.0234 772.4922,529.5391 L772.4922,530.0859 Q772.4922,530.7031 772.9375,531.1172 Q773.3828,531.5234 774.1797,531.5234 Q774.6484,531.5234 774.9766,531.3984 Q775.1719,531.3203 775.3828,531.1016 Q775.5156,530.9688 775.5859,530.9297 Q775.6641,530.8906 775.7656,530.8906 Q775.9297,530.8906 776.0547,531.0234 Q776.1875,531.1484 776.1875,531.3203 Q776.1875,531.4922 776.0156,531.6953 Q775.7656,531.9844 775.3672,532.1484 Q774.8281,532.375 774.1797,532.375 Q773.4219,532.375 772.8203,532.0625 Q772.3281,531.8125 771.9844,531.2813 Q771.6406,530.7422 771.6406,530.1016 L771.6406,529.5234 Q771.6406,528.8594 771.9453,528.2891 Q772.2578,527.7109 772.8047,527.4063 Q773.3516,527.0938 773.9688,527.0938 Q774.3359,527.0938 774.6563,527.1797 Q774.9844,527.2578 775.2578,527.4375 Z " fill="#000000"/><text fill="#000000" font-family="sans-serif" font-size="7" lengthAdjust="spacing" textLength="48.5" x="784.125" y="532.3984">PurchaseOrder</text><line style="stroke:#181818;stroke-width:0.25;" x1="744.5" x2="856" y1="537.5" y2="537.5"/><text fill="#000000" font-family="sans-serif" font-size="7" lengthAdjust="spacing" textLength="58" x="747" y="547.0537">-userEmail : String</text><text fill="#000000" font-family="sans-serif" font-size="7" lengthAdjust="spacing" textLength="106.5" x="747" y="556.3643">-announcement : Announcements</text><text fill="#000000" font-family="sans-serif" font-size="7" lengthAdjust="spacing" textLength="71" x="747" y="565.6748">-orderAmount : double</text><text fill="#000000" font-family="sans-serif" font-size="7" lengthAdjust="spacing" textLength="52.5" x="747" y="574.9854">-acceptance : int</text><line style="stroke:#181818;stroke-width:0.5;" x1="744.5" x2="856" y1="578.7422" y2="578.7422"/><text fill="#000000" font-family="sans-serif" font-size="7" lengthAdjust="spacing" textLength="63.5" x="747" y="588.2959">+getAreaOfProperty</text><text fill="#000000" font-family="sans-serif" font-size="7" lengthAdjust="spacing" textLength="56" x="747" y="597.6064">+toString(): String</text></g><!--class Announcements--><g id="elem_Announcements"><rect codeLine="115" fill="#F1F1F1" height="42.6211" id="Announcements" rx="1.25" ry="1.25" style="stroke:#181818;stroke-width:0.25;" width="119.5" x="426" y="540.25"/><ellipse cx="458.125" cy="548.25" fill="#ADD1B2" rx="5.5" ry="5.5" style="stroke:#181818;stroke-width:0.5;"/><path d="M459.5078,546.1875 Q459.5859,546.0781 459.6797,546.0234 Q459.7734,545.9688 459.8828,545.9688 Q460.0703,545.9688 460.1875,546.1016 Q460.3047,546.2266 460.3047,546.5313 L460.3047,547.2578 Q460.3047,547.5625 460.1875,547.6953 Q460.0703,547.8281 459.8828,547.8281 Q459.7109,547.8281 459.6094,547.7266 Q459.5078,547.6328 459.4531,547.375 Q459.4297,547.1953 459.3359,547.1016 Q459.1719,546.9141 458.8672,546.8047 Q458.5625,546.6953 458.25,546.6953 Q457.8672,546.6953 457.5469,546.8594 Q457.2344,547.0234 456.9844,547.3984 Q456.7422,547.7734 456.7422,548.2891 L456.7422,548.8359 Q456.7422,549.4531 457.1875,549.8672 Q457.6328,550.2734 458.4297,550.2734 Q458.8984,550.2734 459.2266,550.1484 Q459.4219,550.0703 459.6328,549.8516 Q459.7656,549.7188 459.8359,549.6797 Q459.9141,549.6406 460.0156,549.6406 Q460.1797,549.6406 460.3047,549.7734 Q460.4375,549.8984 460.4375,550.0703 Q460.4375,550.2422 460.2656,550.4453 Q460.0156,550.7344 459.6172,550.8984 Q459.0781,551.125 458.4297,551.125 Q457.6719,551.125 457.0703,550.8125 Q456.5781,550.5625 456.2344,550.0313 Q455.8906,549.4922 455.8906,548.8516 L455.8906,548.2734 Q455.8906,547.6094 456.1953,547.0391 Q456.5078,546.4609 457.0547,546.1563 Q457.6016,545.8438 458.2188,545.8438 Q458.5859,545.8438 458.9063,545.9297 Q459.2344,546.0078 459.5078,546.1875 Z " fill="#000000"/><text fill="#000000" font-family="sans-serif" font-size="7" lengthAdjust="spacing" textLength="51" x="468.375" y="551.1484">Announcements</text><line style="stroke:#181818;stroke-width:0.25;" x1="426.5" x2="545" y1="556.25" y2="556.25"/><text fill="#000000" font-family="sans-serif" font-size="7" lengthAdjust="spacing" textLength="101" x="429" y="565.8037">-List&lt;Property&gt; announcements</text><line style="stroke:#181818;stroke-width:0.5;" x1="426.5" x2="545" y1="569.5605" y2="569.5605"/><text fill="#000000" font-family="sans-serif" font-size="7" lengthAdjust="spacing" textLength="113.5" x="429" y="579.1143">+getAnnouncement(announcement)</text></g><!--class Property--><g id="elem_Property"><rect codeLine="121" fill="#F1F1F1" height="154.3477" id="Property" rx="1.25" ry="1.25" style="stroke:#181818;stroke-width:0.25;" width="132" x="419.75" y="696.5"/><ellipse cx="470.125" cy="704.5" fill="#ADD1B2" rx="5.5" ry="5.5" style="stroke:#181818;stroke-width:0.5;"/><path d="M471.5078,702.4375 Q471.5859,702.3281 471.6797,702.2734 Q471.7734,702.2188 471.8828,702.2188 Q472.0703,702.2188 472.1875,702.3516 Q472.3047,702.4766 472.3047,702.7813 L472.3047,703.5078 Q472.3047,703.8125 472.1875,703.9453 Q472.0703,704.0781 471.8828,704.0781 Q471.7109,704.0781 471.6094,703.9766 Q471.5078,703.8828 471.4531,703.625 Q471.4297,703.4453 471.3359,703.3516 Q471.1719,703.1641 470.8672,703.0547 Q470.5625,702.9453 470.25,702.9453 Q469.8672,702.9453 469.5469,703.1094 Q469.2344,703.2734 468.9844,703.6484 Q468.7422,704.0234 468.7422,704.5391 L468.7422,705.0859 Q468.7422,705.7031 469.1875,706.1172 Q469.6328,706.5234 470.4297,706.5234 Q470.8984,706.5234 471.2266,706.3984 Q471.4219,706.3203 471.6328,706.1016 Q471.7656,705.9688 471.8359,705.9297 Q471.9141,705.8906 472.0156,705.8906 Q472.1797,705.8906 472.3047,706.0234 Q472.4375,706.1484 472.4375,706.3203 Q472.4375,706.4922 472.2656,706.6953 Q472.0156,706.9844 471.6172,707.1484 Q471.0781,707.375 470.4297,707.375 Q469.6719,707.375 469.0703,707.0625 Q468.5781,706.8125 468.2344,706.2813 Q467.8906,705.7422 467.8906,705.1016 L467.8906,704.5234 Q467.8906,703.8594 468.1953,703.2891 Q468.5078,702.7109 469.0547,702.4063 Q469.6016,702.0938 470.2188,702.0938 Q470.5859,702.0938 470.9063,702.1797 Q471.2344,702.2578 471.5078,702.4375 Z " fill="#000000"/><text fill="#000000" font-family="sans-serif" font-size="7" lengthAdjust="spacing" textLength="27" x="480.375" y="707.3984">Property</text><line style="stroke:#181818;stroke-width:0.25;" x1="420.25" x2="551.25" y1="712.5" y2="712.5"/><text fill="#000000" font-family="sans-serif" font-size="7" lengthAdjust="spacing" textLength="67.5" x="422.75" y="722.0537">-propertyType: String</text><text fill="#000000" font-family="sans-serif" font-size="7" lengthAdjust="spacing" textLength="46" x="422.75" y="731.3643">-owner: Owner</text><text fill="#000000" font-family="sans-serif" font-size="7" lengthAdjust="spacing" textLength="102.5" x="422.75" y="740.6748">-commission: CommissionDetails</text><text fill="#000000" font-family="sans-serif" font-size="7" lengthAdjust="spacing" textLength="43" x="422.75" y="749.9854">-agent: Agent</text><text fill="#000000" font-family="sans-serif" font-size="7" lengthAdjust="spacing" textLength="77" x="422.75" y="759.2959">-areaOfProperty: double</text><text fill="#000000" font-family="sans-serif" font-size="7" lengthAdjust="spacing" textLength="92.5" x="422.75" y="768.6064">-distanceFromCentre: double</text><text fill="#000000" font-family="sans-serif" font-size="7" lengthAdjust="spacing" textLength="76.5" x="422.75" y="777.917">-acceptanceDate: String</text><text fill="#000000" font-family="sans-serif" font-size="7" lengthAdjust="spacing" textLength="64" x="422.75" y="787.2275">-requestDate: String</text><text fill="#000000" font-family="sans-serif" font-size="7" lengthAdjust="spacing" textLength="58" x="422.75" y="796.5381">-address: Address</text><text fill="#000000" font-family="sans-serif" font-size="7" lengthAdjust="spacing" textLength="82.5" x="422.75" y="805.8486">-photos: ArrayList&lt;Photo&gt;</text><text fill="#000000" font-family="sans-serif" font-size="7" lengthAdjust="spacing" textLength="43" x="422.75" y="815.1592">-photo: Photo</text><text fill="#000000" font-family="sans-serif" font-size="7" lengthAdjust="spacing" textLength="126" x="422.75" y="824.4697">-typeOfTransaction: TypeOfTransaction</text><text fill="#000000" font-family="sans-serif" font-size="7" lengthAdjust="spacing" textLength="47" x="422.75" y="833.7803">-propertyID: int</text><line style="stroke:#181818;stroke-width:0.5;" x1="420.25" x2="551.25" y1="837.5371" y2="837.5371"/><text fill="#000000" font-family="sans-serif" font-size="7" lengthAdjust="spacing" textLength="56" x="422.75" y="847.0908">+toString(): String</text></g><!--class CommissionDetails--><g id="elem_CommissionDetails"><rect codeLine="161" fill="#F1F1F1" height="51.9316" id="CommissionDetails" rx="1.25" ry="1.25" style="stroke:#181818;stroke-width:0.25;" width="89.5" x="428" y="890.25"/><ellipse cx="441.8" cy="898.25" fill="#ADD1B2" rx="5.5" ry="5.5" style="stroke:#181818;stroke-width:0.5;"/><path d="M443.1828,896.1875 Q443.2609,896.0781 443.3547,896.0234 Q443.4484,895.9688 443.5578,895.9688 Q443.7453,895.9688 443.8625,896.1016 Q443.9797,896.2266 443.9797,896.5313 L443.9797,897.2578 Q443.9797,897.5625 443.8625,897.6953 Q443.7453,897.8281 443.5578,897.8281 Q443.3859,897.8281 443.2844,897.7266 Q443.1828,897.6328 443.1281,897.375 Q443.1047,897.1953 443.0109,897.1016 Q442.8469,896.9141 442.5422,896.8047 Q442.2375,896.6953 441.925,896.6953 Q441.5422,896.6953 441.2219,896.8594 Q440.9094,897.0234 440.6594,897.3984 Q440.4172,897.7734 440.4172,898.2891 L440.4172,898.8359 Q440.4172,899.4531 440.8625,899.8672 Q441.3078,900.2734 442.1047,900.2734 Q442.5734,900.2734 442.9016,900.1484 Q443.0969,900.0703 443.3078,899.8516 Q443.4406,899.7188 443.5109,899.6797 Q443.5891,899.6406 443.6906,899.6406 Q443.8547,899.6406 443.9797,899.7734 Q444.1125,899.8984 444.1125,900.0703 Q444.1125,900.2422 443.9406,900.4453 Q443.6906,900.7344 443.2922,900.8984 Q442.7531,901.125 442.1047,901.125 Q441.3469,901.125 440.7453,900.8125 Q440.2531,900.5625 439.9094,900.0313 Q439.5656,899.4922 439.5656,898.8516 L439.5656,898.2734 Q439.5656,897.6094 439.8703,897.0391 Q440.1828,896.4609 440.7297,896.1563 Q441.2766,895.8438 441.8938,895.8438 Q442.2609,895.8438 442.5813,895.9297 Q442.9094,896.0078 443.1828,896.1875 Z " fill="#000000"/><text fill="#000000" font-family="sans-serif" font-size="7" lengthAdjust="spacing" textLength="59.5" x="450.2" y="901.1484">CommissionDetails</text><line style="stroke:#181818;stroke-width:0.25;" x1="428.5" x2="517" y1="906.25" y2="906.25"/><text fill="#000000" font-family="sans-serif" font-size="7" lengthAdjust="spacing" textLength="77.5" x="431" y="915.8037">-commissionType: String</text><text fill="#000000" font-family="sans-serif" font-size="7" lengthAdjust="spacing" textLength="83.5" x="431" y="925.1143">-commissionValue: Double</text><line style="stroke:#181818;stroke-width:0.5;" x1="428.5" x2="517" y1="928.8711" y2="928.8711"/><text fill="#000000" font-family="sans-serif" font-size="7" lengthAdjust="spacing" textLength="56" x="431" y="938.4248">+toString(): String</text></g><!--class TypeOfTransaction--><g id="elem_TypeOfTransaction"><rect codeLine="170" fill="#F1F1F1" height="51.9316" id="TypeOfTransaction" rx="1.25" ry="1.25" style="stroke:#181818;stroke-width:0.25;" width="82" x="326.25" y="535.5"/><ellipse cx="336" cy="543.5" fill="#ADD1B2" rx="5.5" ry="5.5" style="stroke:#181818;stroke-width:0.5;"/><path d="M337.3828,541.4375 Q337.4609,541.3281 337.5547,541.2734 Q337.6484,541.2188 337.7578,541.2188 Q337.9453,541.2188 338.0625,541.3516 Q338.1797,541.4766 338.1797,541.7813 L338.1797,542.5078 Q338.1797,542.8125 338.0625,542.9453 Q337.9453,543.0781 337.7578,543.0781 Q337.5859,543.0781 337.4844,542.9766 Q337.3828,542.8828 337.3281,542.625 Q337.3047,542.4453 337.2109,542.3516 Q337.0469,542.1641 336.7422,542.0547 Q336.4375,541.9453 336.125,541.9453 Q335.7422,541.9453 335.4219,542.1094 Q335.1094,542.2734 334.8594,542.6484 Q334.6172,543.0234 334.6172,543.5391 L334.6172,544.0859 Q334.6172,544.7031 335.0625,545.1172 Q335.5078,545.5234 336.3047,545.5234 Q336.7734,545.5234 337.1016,545.3984 Q337.2969,545.3203 337.5078,545.1016 Q337.6406,544.9688 337.7109,544.9297 Q337.7891,544.8906 337.8906,544.8906 Q338.0547,544.8906 338.1797,545.0234 Q338.3125,545.1484 338.3125,545.3203 Q338.3125,545.4922 338.1406,545.6953 Q337.8906,545.9844 337.4922,546.1484 Q336.9531,546.375 336.3047,546.375 Q335.5469,546.375 334.9453,546.0625 Q334.4531,545.8125 334.1094,545.2813 Q333.7656,544.7422 333.7656,544.1016 L333.7656,543.5234 Q333.7656,542.8594 334.0703,542.2891 Q334.3828,541.7109 334.9297,541.4063 Q335.4766,541.0938 336.0938,541.0938 Q336.4609,541.0938 336.7813,541.1797 Q337.1094,541.2578 337.3828,541.4375 Z " fill="#000000"/><text fill="#000000" font-family="sans-serif" font-size="7" lengthAdjust="spacing" textLength="61" x="343.5" y="546.3984">TypeOfTransaction</text><line style="stroke:#181818;stroke-width:0.25;" x1="326.75" x2="407.75" y1="551.5" y2="551.5"/><text fill="#000000" font-family="sans-serif" font-size="7" lengthAdjust="spacing" textLength="76" x="329.25" y="561.0537">-transactionType: String</text><text fill="#000000" font-family="sans-serif" font-size="7" lengthAdjust="spacing" textLength="75.5" x="329.25" y="570.3643">-monetaryValue: double</text><line style="stroke:#181818;stroke-width:0.5;" x1="326.75" x2="407.75" y1="574.1211" y2="574.1211"/><text fill="#000000" font-family="sans-serif" font-size="7" lengthAdjust="spacing" textLength="56" x="329.25" y="583.6748">+toString(): String</text></g><!--class Address--><g id="elem_Address"><rect codeLine="181" fill="#F1F1F1" height="70.5527" id="Address" rx="1.25" ry="1.25" style="stroke:#181818;stroke-width:0.25;" width="62" x="535.25" y="881"/><ellipse cx="551.75" cy="889" fill="#ADD1B2" rx="5.5" ry="5.5" style="stroke:#181818;stroke-width:0.5;"/><path d="M553.1328,886.9375 Q553.2109,886.8281 553.3047,886.7734 Q553.3984,886.7188 553.5078,886.7188 Q553.6953,886.7188 553.8125,886.8516 Q553.9297,886.9766 553.9297,887.2813 L553.9297,888.0078 Q553.9297,888.3125 553.8125,888.4453 Q553.6953,888.5781 553.5078,888.5781 Q553.3359,888.5781 553.2344,888.4766 Q553.1328,888.3828 553.0781,888.125 Q553.0547,887.9453 552.9609,887.8516 Q552.7969,887.6641 552.4922,887.5547 Q552.1875,887.4453 551.875,887.4453 Q551.4922,887.4453 551.1719,887.6094 Q550.8594,887.7734 550.6094,888.1484 Q550.3672,888.5234 550.3672,889.0391 L550.3672,889.5859 Q550.3672,890.2031 550.8125,890.6172 Q551.2578,891.0234 552.0547,891.0234 Q552.5234,891.0234 552.8516,890.8984 Q553.0469,890.8203 553.2578,890.6016 Q553.3906,890.4688 553.4609,890.4297 Q553.5391,890.3906 553.6406,890.3906 Q553.8047,890.3906 553.9297,890.5234 Q554.0625,890.6484 554.0625,890.8203 Q554.0625,890.9922 553.8906,891.1953 Q553.6406,891.4844 553.2422,891.6484 Q552.7031,891.875 552.0547,891.875 Q551.2969,891.875 550.6953,891.5625 Q550.2031,891.3125 549.8594,890.7813 Q549.5156,890.2422 549.5156,889.6016 L549.5156,889.0234 Q549.5156,888.3594 549.8203,887.7891 Q550.1328,887.2109 550.6797,886.9063 Q551.2266,886.5938 551.8438,886.5938 Q552.2109,886.5938 552.5313,886.6797 Q552.8594,886.7578 553.1328,886.9375 Z " fill="#000000"/><text fill="#000000" font-family="sans-serif" font-size="7" lengthAdjust="spacing" textLength="26" x="560.75" y="891.8984">Address</text><line style="stroke:#181818;stroke-width:0.25;" x1="535.75" x2="596.75" y1="897" y2="897"/><text fill="#000000" font-family="sans-serif" font-size="7" lengthAdjust="spacing" textLength="43" x="538.25" y="906.5537">-street: String</text><text fill="#000000" font-family="sans-serif" font-size="7" lengthAdjust="spacing" textLength="35.5" x="538.25" y="915.8643">-city: String</text><text fill="#000000" font-family="sans-serif" font-size="7" lengthAdjust="spacing" textLength="40.5" x="538.25" y="925.1748">-state: String</text><text fill="#000000" font-family="sans-serif" font-size="7" lengthAdjust="spacing" textLength="50.5" x="538.25" y="934.4854">-zipCode: String</text><line style="stroke:#181818;stroke-width:0.5;" x1="535.75" x2="596.75" y1="938.2422" y2="938.2422"/><text fill="#000000" font-family="sans-serif" font-size="7" lengthAdjust="spacing" textLength="56" x="538.25" y="947.7959">+toString(): String</text></g><!--class Photo--><g id="elem_Photo"><rect codeLine="199" fill="#F1F1F1" height="51.9316" id="Photo" rx="1.25" ry="1.25" style="stroke:#181818;stroke-width:0.25;" width="62" x="340.25" y="747.75"/><ellipse cx="360.125" cy="755.75" fill="#ADD1B2" rx="5.5" ry="5.5" style="stroke:#181818;stroke-width:0.5;"/><path d="M361.5078,753.6875 Q361.5859,753.5781 361.6797,753.5234 Q361.7734,753.4688 361.8828,753.4688 Q362.0703,753.4688 362.1875,753.6016 Q362.3047,753.7266 362.3047,754.0313 L362.3047,754.7578 Q362.3047,755.0625 362.1875,755.1953 Q362.0703,755.3281 361.8828,755.3281 Q361.7109,755.3281 361.6094,755.2266 Q361.5078,755.1328 361.4531,754.875 Q361.4297,754.6953 361.3359,754.6016 Q361.1719,754.4141 360.8672,754.3047 Q360.5625,754.1953 360.25,754.1953 Q359.8672,754.1953 359.5469,754.3594 Q359.2344,754.5234 358.9844,754.8984 Q358.7422,755.2734 358.7422,755.7891 L358.7422,756.3359 Q358.7422,756.9531 359.1875,757.3672 Q359.6328,757.7734 360.4297,757.7734 Q360.8984,757.7734 361.2266,757.6484 Q361.4219,757.5703 361.6328,757.3516 Q361.7656,757.2188 361.8359,757.1797 Q361.9141,757.1406 362.0156,757.1406 Q362.1797,757.1406 362.3047,757.2734 Q362.4375,757.3984 362.4375,757.5703 Q362.4375,757.7422 362.2656,757.9453 Q362.0156,758.2344 361.6172,758.3984 Q361.0781,758.625 360.4297,758.625 Q359.6719,758.625 359.0703,758.3125 Q358.5781,758.0625 358.2344,757.5313 Q357.8906,756.9922 357.8906,756.3516 L357.8906,755.7734 Q357.8906,755.1094 358.1953,754.5391 Q358.5078,753.9609 359.0547,753.6563 Q359.6016,753.3438 360.2188,753.3438 Q360.5859,753.3438 360.9063,753.4297 Q361.2344,753.5078 361.5078,753.6875 Z " fill="#000000"/><text fill="#000000" font-family="sans-serif" font-size="7" lengthAdjust="spacing" textLength="18.5" x="369.875" y="758.6484">Photo</text><line style="stroke:#181818;stroke-width:0.25;" x1="340.75" x2="401.75" y1="763.75" y2="763.75"/><text fill="#000000" font-family="sans-serif" font-size="7" lengthAdjust="spacing" textLength="38.5" x="343.25" y="773.3037">-photoID: int</text><text fill="#000000" font-family="sans-serif" font-size="7" lengthAdjust="spacing" textLength="54" x="343.25" y="782.6143">-photoURI: String</text><line style="stroke:#181818;stroke-width:0.5;" x1="340.75" x2="401.75" y1="786.3711" y2="786.3711"/><text fill="#000000" font-family="sans-serif" font-size="7" lengthAdjust="spacing" textLength="56" x="343.25" y="795.9248">+toString(): String</text></g><!--class Building--><g id="elem_Building"><rect codeLine="210" fill="#F1F1F1" height="70.5527" id="Building" rx="1.25" ry="1.25" style="stroke:#181818;stroke-width:0.25;" width="79" x="269.25" y="881"/><ellipse cx="294.125" cy="889" fill="#ADD1B2" rx="5.5" ry="5.5" style="stroke:#181818;stroke-width:0.5;"/><path d="M295.5078,886.9375 Q295.5859,886.8281 295.6797,886.7734 Q295.7734,886.7188 295.8828,886.7188 Q296.0703,886.7188 296.1875,886.8516 Q296.3047,886.9766 296.3047,887.2813 L296.3047,888.0078 Q296.3047,888.3125 296.1875,888.4453 Q296.0703,888.5781 295.8828,888.5781 Q295.7109,888.5781 295.6094,888.4766 Q295.5078,888.3828 295.4531,888.125 Q295.4297,887.9453 295.3359,887.8516 Q295.1719,887.6641 294.8672,887.5547 Q294.5625,887.4453 294.25,887.4453 Q293.8672,887.4453 293.5469,887.6094 Q293.2344,887.7734 292.9844,888.1484 Q292.7422,888.5234 292.7422,889.0391 L292.7422,889.5859 Q292.7422,890.2031 293.1875,890.6172 Q293.6328,891.0234 294.4297,891.0234 Q294.8984,891.0234 295.2266,890.8984 Q295.4219,890.8203 295.6328,890.6016 Q295.7656,890.4688 295.8359,890.4297 Q295.9141,890.3906 296.0156,890.3906 Q296.1797,890.3906 296.3047,890.5234 Q296.4375,890.6484 296.4375,890.8203 Q296.4375,890.9922 296.2656,891.1953 Q296.0156,891.4844 295.6172,891.6484 Q295.0781,891.875 294.4297,891.875 Q293.6719,891.875 293.0703,891.5625 Q292.5781,891.3125 292.2344,890.7813 Q291.8906,890.2422 291.8906,889.6016 L291.8906,889.0234 Q291.8906,888.3594 292.1953,887.7891 Q292.5078,887.2109 293.0547,886.9063 Q293.6016,886.5938 294.2188,886.5938 Q294.5859,886.5938 294.9063,886.6797 Q295.2344,886.7578 295.5078,886.9375 Z " fill="#000000"/><text fill="#000000" font-family="sans-serif" font-size="7" lengthAdjust="spacing" textLength="25" x="304.375" y="891.8984">Building</text><line style="stroke:#181818;stroke-width:0.25;" x1="269.75" x2="347.75" y1="897" y2="897"/><text fill="#000000" font-family="sans-serif" font-size="7" lengthAdjust="spacing" textLength="45.5" x="272.25" y="906.5537">-bedrooms: int</text><text fill="#000000" font-family="sans-serif" font-size="7" lengthAdjust="spacing" textLength="47.5" x="272.25" y="915.8643">-bathrooms: int</text><text fill="#000000" font-family="sans-serif" font-size="7" lengthAdjust="spacing" textLength="61" x="272.25" y="925.1748">-parkingSpaces: int</text><text fill="#000000" font-family="sans-serif" font-size="7" lengthAdjust="spacing" textLength="73" x="272.25" y="934.4854">-equipment: Equipment</text><line style="stroke:#181818;stroke-width:0.5;" x1="269.75" x2="347.75" y1="938.2422" y2="938.2422"/><text fill="#000000" font-family="sans-serif" font-size="7" lengthAdjust="spacing" textLength="56" x="272.25" y="947.7959">+toString(): String</text></g><!--class Equipment--><g id="elem_Equipment"><rect codeLine="225" fill="#F1F1F1" height="51.9316" id="Equipment" rx="1.25" ry="1.25" style="stroke:#181818;stroke-width:0.25;" width="78.5" x="244" y="747.75"/><ellipse cx="264.55" cy="755.75" fill="#ADD1B2" rx="5.5" ry="5.5" style="stroke:#181818;stroke-width:0.5;"/><path d="M265.9328,753.6875 Q266.0109,753.5781 266.1047,753.5234 Q266.1984,753.4688 266.3078,753.4688 Q266.4953,753.4688 266.6125,753.6016 Q266.7297,753.7266 266.7297,754.0313 L266.7297,754.7578 Q266.7297,755.0625 266.6125,755.1953 Q266.4953,755.3281 266.3078,755.3281 Q266.1359,755.3281 266.0344,755.2266 Q265.9328,755.1328 265.8781,754.875 Q265.8547,754.6953 265.7609,754.6016 Q265.5969,754.4141 265.2922,754.3047 Q264.9875,754.1953 264.675,754.1953 Q264.2922,754.1953 263.9719,754.3594 Q263.6594,754.5234 263.4094,754.8984 Q263.1672,755.2734 263.1672,755.7891 L263.1672,756.3359 Q263.1672,756.9531 263.6125,757.3672 Q264.0578,757.7734 264.8547,757.7734 Q265.3234,757.7734 265.6516,757.6484 Q265.8469,757.5703 266.0578,757.3516 Q266.1906,757.2188 266.2609,757.1797 Q266.3391,757.1406 266.4406,757.1406 Q266.6047,757.1406 266.7297,757.2734 Q266.8625,757.3984 266.8625,757.5703 Q266.8625,757.7422 266.6906,757.9453 Q266.4406,758.2344 266.0422,758.3984 Q265.5031,758.625 264.8547,758.625 Q264.0969,758.625 263.4953,758.3125 Q263.0031,758.0625 262.6594,757.5313 Q262.3156,756.9922 262.3156,756.3516 L262.3156,755.7734 Q262.3156,755.1094 262.6203,754.5391 Q262.9328,753.9609 263.4797,753.6563 Q264.0266,753.3438 264.6438,753.3438 Q265.0109,753.3438 265.3313,753.4297 Q265.6594,753.5078 265.9328,753.6875 Z " fill="#000000"/><text fill="#000000" font-family="sans-serif" font-size="7" lengthAdjust="spacing" textLength="33.5" x="274.45" y="758.6484">Equipment</text><line style="stroke:#181818;stroke-width:0.25;" x1="244.5" x2="322" y1="763.75" y2="763.75"/><text fill="#000000" font-family="sans-serif" font-size="7" lengthAdjust="spacing" textLength="72.5" x="247" y="773.3037">-airConditioning: String</text><text fill="#000000" font-family="sans-serif" font-size="7" lengthAdjust="spacing" textLength="70.5" x="247" y="782.6143">-centralHeating: String</text><line style="stroke:#181818;stroke-width:0.5;" x1="244.5" x2="322" y1="786.3711" y2="786.3711"/><text fill="#000000" font-family="sans-serif" font-size="7" lengthAdjust="spacing" textLength="56" x="247" y="795.9248">+toString(): String</text></g><!--class House--><g id="elem_House"><rect codeLine="236" fill="#F1F1F1" height="61.2422" id="House" rx="1.25" ry="1.25" style="stroke:#181818;stroke-width:0.25;" width="72" x="233.75" y="981.5"/><ellipse cx="257.625" cy="989.5" fill="#ADD1B2" rx="5.5" ry="5.5" style="stroke:#181818;stroke-width:0.5;"/><path d="M259.0078,987.4375 Q259.0859,987.3281 259.1797,987.2734 Q259.2734,987.2188 259.3828,987.2188 Q259.5703,987.2188 259.6875,987.3516 Q259.8047,987.4766 259.8047,987.7813 L259.8047,988.5078 Q259.8047,988.8125 259.6875,988.9453 Q259.5703,989.0781 259.3828,989.0781 Q259.2109,989.0781 259.1094,988.9766 Q259.0078,988.8828 258.9531,988.625 Q258.9297,988.4453 258.8359,988.3516 Q258.6719,988.1641 258.3672,988.0547 Q258.0625,987.9453 257.75,987.9453 Q257.3672,987.9453 257.0469,988.1094 Q256.7344,988.2734 256.4844,988.6484 Q256.2422,989.0234 256.2422,989.5391 L256.2422,990.0859 Q256.2422,990.7031 256.6875,991.1172 Q257.1328,991.5234 257.9297,991.5234 Q258.3984,991.5234 258.7266,991.3984 Q258.9219,991.3203 259.1328,991.1016 Q259.2656,990.9688 259.3359,990.9297 Q259.4141,990.8906 259.5156,990.8906 Q259.6797,990.8906 259.8047,991.0234 Q259.9375,991.1484 259.9375,991.3203 Q259.9375,991.4922 259.7656,991.6953 Q259.5156,991.9844 259.1172,992.1484 Q258.5781,992.375 257.9297,992.375 Q257.1719,992.375 256.5703,992.0625 Q256.0781,991.8125 255.7344,991.2813 Q255.3906,990.7422 255.3906,990.1016 L255.3906,989.5234 Q255.3906,988.8594 255.6953,988.2891 Q256.0078,987.7109 256.5547,987.4063 Q257.1016,987.0938 257.7188,987.0938 Q258.0859,987.0938 258.4063,987.1797 Q258.7344,987.2578 259.0078,987.4375 Z " fill="#000000"/><text fill="#000000" font-family="sans-serif" font-size="7" lengthAdjust="spacing" textLength="20" x="267.875" y="992.3984">House</text><line style="stroke:#181818;stroke-width:0.25;" x1="234.25" x2="305.25" y1="997.5" y2="997.5"/><text fill="#000000" font-family="sans-serif" font-size="7" lengthAdjust="spacing" textLength="63" x="236.75" y="1007.0537">-basement: boolean</text><text fill="#000000" font-family="sans-serif" font-size="7" lengthAdjust="spacing" textLength="41.5" x="236.75" y="1016.3643">-loft: boolean</text><text fill="#000000" font-family="sans-serif" font-size="7" lengthAdjust="spacing" textLength="66" x="236.75" y="1025.6748">-sunExposure: String</text><line style="stroke:#181818;stroke-width:0.5;" x1="234.25" x2="305.25" y1="1029.4316" y2="1029.4316"/><text fill="#000000" font-family="sans-serif" font-size="7" lengthAdjust="spacing" textLength="56" x="236.75" y="1038.9854">+toString(): String</text></g><!--class Owner--><g id="elem_Owner"><rect codeLine="252" fill="#F1F1F1" height="70.5527" id="Owner" rx="1.25" ry="1.25" style="stroke:#181818;stroke-width:0.25;" width="89" x="614.75" y="881"/><ellipse cx="646.875" cy="889" fill="#ADD1B2" rx="5.5" ry="5.5" style="stroke:#181818;stroke-width:0.5;"/><path d="M648.2578,886.9375 Q648.3359,886.8281 648.4297,886.7734 Q648.5234,886.7188 648.6328,886.7188 Q648.8203,886.7188 648.9375,886.8516 Q649.0547,886.9766 649.0547,887.2813 L649.0547,888.0078 Q649.0547,888.3125 648.9375,888.4453 Q648.8203,888.5781 648.6328,888.5781 Q648.4609,888.5781 648.3594,888.4766 Q648.2578,888.3828 648.2031,888.125 Q648.1797,887.9453 648.0859,887.8516 Q647.9219,887.6641 647.6172,887.5547 Q647.3125,887.4453 647,887.4453 Q646.6172,887.4453 646.2969,887.6094 Q645.9844,887.7734 645.7344,888.1484 Q645.4922,888.5234 645.4922,889.0391 L645.4922,889.5859 Q645.4922,890.2031 645.9375,890.6172 Q646.3828,891.0234 647.1797,891.0234 Q647.6484,891.0234 647.9766,890.8984 Q648.1719,890.8203 648.3828,890.6016 Q648.5156,890.4688 648.5859,890.4297 Q648.6641,890.3906 648.7656,890.3906 Q648.9297,890.3906 649.0547,890.5234 Q649.1875,890.6484 649.1875,890.8203 Q649.1875,890.9922 649.0156,891.1953 Q648.7656,891.4844 648.3672,891.6484 Q647.8281,891.875 647.1797,891.875 Q646.4219,891.875 645.8203,891.5625 Q645.3281,891.3125 644.9844,890.7813 Q644.6406,890.2422 644.6406,889.6016 L644.6406,889.0234 Q644.6406,888.3594 644.9453,887.7891 Q645.2578,887.2109 645.8047,886.9063 Q646.3516,886.5938 646.9688,886.5938 Q647.3359,886.5938 647.6563,886.6797 Q647.9844,886.7578 648.2578,886.9375 Z " fill="#000000"/><text fill="#000000" font-family="sans-serif" font-size="7" lengthAdjust="spacing" textLength="20.5" x="657.125" y="891.8984">Owner</text><line style="stroke:#181818;stroke-width:0.25;" x1="615.25" x2="703.25" y1="897" y2="897"/><text fill="#000000" font-family="sans-serif" font-size="7" lengthAdjust="spacing" textLength="44.5" x="617.75" y="906.5537">-name : String</text><text fill="#000000" font-family="sans-serif" font-size="7" lengthAdjust="spacing" textLength="64" x="617.75" y="915.8643">-taxNumber : Integer</text><text fill="#000000" font-family="sans-serif" font-size="7" lengthAdjust="spacing" textLength="69.5" x="617.75" y="925.1748">-emailAddress : String</text><text fill="#000000" font-family="sans-serif" font-size="7" lengthAdjust="spacing" textLength="83" x="617.75" y="934.4854">-telephoneNumber : String</text><line style="stroke:#181818;stroke-width:0.5;" x1="615.25" x2="703.25" y1="938.2422" y2="938.2422"/><text fill="#000000" font-family="sans-serif" font-size="7" lengthAdjust="spacing" textLength="56" x="617.75" y="947.7959">+toString(): String</text></g><!--class Land--><g id="elem_Land"><rect codeLine="269" fill="#F1F1F1" height="20" id="Land" rx="1.25" ry="1.25" style="stroke:#181818;stroke-width:0.25;" width="32" x="378.25" y="906.25"/><ellipse cx="385.75" cy="914.25" fill="#ADD1B2" rx="5.5" ry="5.5" style="stroke:#181818;stroke-width:0.5;"/><path d="M387.1328,912.1875 Q387.2109,912.0781 387.3047,912.0234 Q387.3984,911.9688 387.5078,911.9688 Q387.6953,911.9688 387.8125,912.1016 Q387.9297,912.2266 387.9297,912.5313 L387.9297,913.2578 Q387.9297,913.5625 387.8125,913.6953 Q387.6953,913.8281 387.5078,913.8281 Q387.3359,913.8281 387.2344,913.7266 Q387.1328,913.6328 387.0781,913.375 Q387.0547,913.1953 386.9609,913.1016 Q386.7969,912.9141 386.4922,912.8047 Q386.1875,912.6953 385.875,912.6953 Q385.4922,912.6953 385.1719,912.8594 Q384.8594,913.0234 384.6094,913.3984 Q384.3672,913.7734 384.3672,914.2891 L384.3672,914.8359 Q384.3672,915.4531 384.8125,915.8672 Q385.2578,916.2734 386.0547,916.2734 Q386.5234,916.2734 386.8516,916.1484 Q387.0469,916.0703 387.2578,915.8516 Q387.3906,915.7188 387.4609,915.6797 Q387.5391,915.6406 387.6406,915.6406 Q387.8047,915.6406 387.9297,915.7734 Q388.0625,915.8984 388.0625,916.0703 Q388.0625,916.2422 387.8906,916.4453 Q387.6406,916.7344 387.2422,916.8984 Q386.7031,917.125 386.0547,917.125 Q385.2969,917.125 384.6953,916.8125 Q384.2031,916.5625 383.8594,916.0313 Q383.5156,915.4922 383.5156,914.8516 L383.5156,914.2734 Q383.5156,913.6094 383.8203,913.0391 Q384.1328,912.4609 384.6797,912.1563 Q385.2266,911.8438 385.8438,911.8438 Q386.2109,911.8438 386.5313,911.9297 Q386.8594,912.0078 387.1328,912.1875 Z " fill="#000000"/><text fill="#000000" font-family="sans-serif" font-size="7" lengthAdjust="spacing" textLength="16" x="392.75" y="917.1484">Land</text><line style="stroke:#181818;stroke-width:0.25;" x1="378.75" x2="409.75" y1="922.25" y2="922.25"/></g><!--class PassportCard--><g id="elem_PassportCard"><rect codeLine="271" fill="#F1F1F1" height="29.3105" id="PassportCard" rx="1.25" ry="1.25" style="stroke:#181818;stroke-width:0.25;" width="59.5" x="721.5" y="901.5"/><ellipse cx="729" cy="909.5" fill="#ADD1B2" rx="5.5" ry="5.5" style="stroke:#181818;stroke-width:0.5;"/><path d="M730.3828,907.4375 Q730.4609,907.3281 730.5547,907.2734 Q730.6484,907.2188 730.7578,907.2188 Q730.9453,907.2188 731.0625,907.3516 Q731.1797,907.4766 731.1797,907.7813 L731.1797,908.5078 Q731.1797,908.8125 731.0625,908.9453 Q730.9453,909.0781 730.7578,909.0781 Q730.5859,909.0781 730.4844,908.9766 Q730.3828,908.8828 730.3281,908.625 Q730.3047,908.4453 730.2109,908.3516 Q730.0469,908.1641 729.7422,908.0547 Q729.4375,907.9453 729.125,907.9453 Q728.7422,907.9453 728.4219,908.1094 Q728.1094,908.2734 727.8594,908.6484 Q727.6172,909.0234 727.6172,909.5391 L727.6172,910.0859 Q727.6172,910.7031 728.0625,911.1172 Q728.5078,911.5234 729.3047,911.5234 Q729.7734,911.5234 730.1016,911.3984 Q730.2969,911.3203 730.5078,911.1016 Q730.6406,910.9688 730.7109,910.9297 Q730.7891,910.8906 730.8906,910.8906 Q731.0547,910.8906 731.1797,911.0234 Q731.3125,911.1484 731.3125,911.3203 Q731.3125,911.4922 731.1406,911.6953 Q730.8906,911.9844 730.4922,912.1484 Q729.9531,912.375 729.3047,912.375 Q728.5469,912.375 727.9453,912.0625 Q727.4531,911.8125 727.1094,911.2813 Q726.7656,910.7422 726.7656,910.1016 L726.7656,909.5234 Q726.7656,908.8594 727.0703,908.2891 Q727.3828,907.7109 727.9297,907.4063 Q728.4766,907.0938 729.0938,907.0938 Q729.4609,907.0938 729.7813,907.1797 Q730.1094,907.2578 730.3828,907.4375 Z " fill="#000000"/><text fill="#000000" font-family="sans-serif" font-size="7" lengthAdjust="spacing" textLength="43.5" x="736" y="912.3984">PassportCard</text><line style="stroke:#181818;stroke-width:0.25;" x1="722" x2="780.5" y1="917.5" y2="917.5"/><text fill="#000000" font-family="sans-serif" font-size="7" lengthAdjust="spacing" textLength="52" x="724.5" y="927.0537">passportNumber</text></g><!--class Apartment--><g id="elem_Apartment"><rect codeLine="278" fill="#F1F1F1" height="20" id="Apartment" rx="1.25" ry="1.25" style="stroke:#181818;stroke-width:0.25;" width="48.5" x="323.5" y="1002"/><ellipse cx="331" cy="1010" fill="#ADD1B2" rx="5.5" ry="5.5" style="stroke:#181818;stroke-width:0.5;"/><path d="M332.3828,1007.9375 Q332.4609,1007.8281 332.5547,1007.7734 Q332.6484,1007.7188 332.7578,1007.7188 Q332.9453,1007.7188 333.0625,1007.8516 Q333.1797,1007.9766 333.1797,1008.2813 L333.1797,1009.0078 Q333.1797,1009.3125 333.0625,1009.4453 Q332.9453,1009.5781 332.7578,1009.5781 Q332.5859,1009.5781 332.4844,1009.4766 Q332.3828,1009.3828 332.3281,1009.125 Q332.3047,1008.9453 332.2109,1008.8516 Q332.0469,1008.6641 331.7422,1008.5547 Q331.4375,1008.4453 331.125,1008.4453 Q330.7422,1008.4453 330.4219,1008.6094 Q330.1094,1008.7734 329.8594,1009.1484 Q329.6172,1009.5234 329.6172,1010.0391 L329.6172,1010.5859 Q329.6172,1011.2031 330.0625,1011.6172 Q330.5078,1012.0234 331.3047,1012.0234 Q331.7734,1012.0234 332.1016,1011.8984 Q332.2969,1011.8203 332.5078,1011.6016 Q332.6406,1011.4688 332.7109,1011.4297 Q332.7891,1011.3906 332.8906,1011.3906 Q333.0547,1011.3906 333.1797,1011.5234 Q333.3125,1011.6484 333.3125,1011.8203 Q333.3125,1011.9922 333.1406,1012.1953 Q332.8906,1012.4844 332.4922,1012.6484 Q331.9531,1012.875 331.3047,1012.875 Q330.5469,1012.875 329.9453,1012.5625 Q329.4531,1012.3125 329.1094,1011.7813 Q328.7656,1011.2422 328.7656,1010.6016 L328.7656,1010.0234 Q328.7656,1009.3594 329.0703,1008.7891 Q329.3828,1008.2109 329.9297,1007.9063 Q330.4766,1007.5938 331.0938,1007.5938 Q331.4609,1007.5938 331.7813,1007.6797 Q332.1094,1007.7578 332.3828,1007.9375 Z " fill="#000000"/><text fill="#000000" font-family="sans-serif" font-size="7" lengthAdjust="spacing" textLength="32.5" x="338" y="1012.8984">Apartment</text><line style="stroke:#181818;stroke-width:0.25;" x1="324" x2="371.5" y1="1018" y2="1018"/></g><!--class Person--><g id="elem_Person"><rect codeLine="318" fill="#F1F1F1" height="85.1738" id="Person" rx="1.25" ry="1.25" style="stroke:#181818;stroke-width:0.25;" width="99" x="609.75" y="731.25"/><ellipse cx="645.875" cy="739.25" fill="#ADD1B2" rx="5.5" ry="5.5" style="stroke:#181818;stroke-width:0.5;"/><path d="M647.2578,737.1875 Q647.3359,737.0781 647.4297,737.0234 Q647.5234,736.9688 647.6328,736.9688 Q647.8203,736.9688 647.9375,737.1016 Q648.0547,737.2266 648.0547,737.5313 L648.0547,738.2578 Q648.0547,738.5625 647.9375,738.6953 Q647.8203,738.8281 647.6328,738.8281 Q647.4609,738.8281 647.3594,738.7266 Q647.2578,738.6328 647.2031,738.375 Q647.1797,738.1953 647.0859,738.1016 Q646.9219,737.9141 646.6172,737.8047 Q646.3125,737.6953 646,737.6953 Q645.6172,737.6953 645.2969,737.8594 Q644.9844,738.0234 644.7344,738.3984 Q644.4922,738.7734 644.4922,739.2891 L644.4922,739.8359 Q644.4922,740.4531 644.9375,740.8672 Q645.3828,741.2734 646.1797,741.2734 Q646.6484,741.2734 646.9766,741.1484 Q647.1719,741.0703 647.3828,740.8516 Q647.5156,740.7188 647.5859,740.6797 Q647.6641,740.6406 647.7656,740.6406 Q647.9297,740.6406 648.0547,740.7734 Q648.1875,740.8984 648.1875,741.0703 Q648.1875,741.2422 648.0156,741.4453 Q647.7656,741.7344 647.3672,741.8984 Q646.8281,742.125 646.1797,742.125 Q645.4219,742.125 644.8203,741.8125 Q644.3281,741.5625 643.9844,741.0313 Q643.6406,740.4922 643.6406,739.8516 L643.6406,739.2734 Q643.6406,738.6094 643.9453,738.0391 Q644.2578,737.4609 644.8047,737.1563 Q645.3516,736.8438 645.9688,736.8438 Q646.3359,736.8438 646.6563,736.9297 Q646.9844,737.0078 647.2578,737.1875 Z " fill="#000000"/><text fill="#000000" font-family="sans-serif" font-size="7" lengthAdjust="spacing" textLength="22.5" x="656.125" y="742.1484">Person</text><line style="stroke:#181818;stroke-width:0.25;" x1="610.25" x2="708.25" y1="747.25" y2="747.25"/><text fill="#000000" font-family="sans-serif" font-size="7" lengthAdjust="spacing" textLength="42.5" x="612.75" y="756.8037">-name: String</text><text fill="#000000" font-family="sans-serif" font-size="7" lengthAdjust="spacing" textLength="58.5" x="612.75" y="766.1143">-taxNumber: String</text><text fill="#000000" font-family="sans-serif" font-size="7" lengthAdjust="spacing" textLength="67.5" x="612.75" y="775.4248">-emailAddress: String</text><text fill="#000000" font-family="sans-serif" font-size="7" lengthAdjust="spacing" textLength="81" x="612.75" y="784.7354">-telephoneNumber: String</text><text fill="#000000" font-family="sans-serif" font-size="7" lengthAdjust="spacing" textLength="58" x="612.75" y="794.0459">-address: Address</text><text fill="#000000" font-family="sans-serif" font-size="7" lengthAdjust="spacing" textLength="33" x="612.75" y="803.3564">-role: Role</text><text fill="#000000" font-family="sans-serif" font-size="7" lengthAdjust="spacing" textLength="93" x="612.75" y="812.667">-passportCard: PassportCard</text></g><!--link NetworkManagingController to Repositories--><g id="link_NetworkManagingController_Repositories"><path codeLine="345" d="M254.79,368 C254.79,368 269.875,368 269.875,368 " fill="none" id="NetworkManagingController-to-Repositories" style="stroke:#181818;stroke-width:0.5;stroke-dasharray:7.0,7.0;"/><polygon fill="#181818" points="272.375,368,267.875,366,269.875,368,267.875,370,272.375,368" style="stroke:#181818;stroke-width:0.5;"/><text fill="#000000" font-family="sans-serif" font-size="6.5" lengthAdjust="spacing" textLength="33.5" x="236.96" y="375.5142">repositories</text></g><!--link PurchaseOrderRepository to PurchaseOrder--><g id="link_PurchaseOrderRepository_PurchaseOrder"><path codeLine="347" d="M287.165,582.815 C287.165,617.3 287.165,681.5 287.165,681.5 C287.165,681.5 762.5,681.5 762.5,681.5 C762.5,681.5 762.5,604.125 762.5,604.125 " fill="none" id="PurchaseOrderRepository-to-PurchaseOrder" style="stroke:#181818;stroke-width:0.5;stroke-dasharray:7.0,7.0;"/><polygon fill="#181818" points="762.5,601.625,760.5,606.125,762.5,604.125,764.5,606.125,762.5,601.625" style="stroke:#181818;stroke-width:0.5;"/></g><!--link PurchaseOrder to PurchaseOrderRepository--><g id="link_PurchaseOrder_PurchaseOrderRepository"><path codeLine="401" d="M771.75,601.665 C771.75,639.04 771.75,689 771.75,689 C771.75,689 265.585,689 265.585,689 C265.585,689 265.585,619.135 265.585,582.84 " fill="none" id="PurchaseOrder-PurchaseOrderRepository" style="stroke:#181818;stroke-width:0.5;"/><polygon fill="#000000" points="469.7567,684.2298,474.2215,685.8664,474.3308,682.9295,469.7567,684.2298" style="stroke:#000000;stroke-width:0.5;"/><text fill="#000000" font-family="sans-serif" font-size="6.5" lengthAdjust="spacing" textLength="32" x="476.755" y="687.0142">is stored in</text><text fill="#000000" font-family="sans-serif" font-size="6.5" lengthAdjust="spacing" textLength="12" x="756.893" y="612.369">1...*</text><text fill="#000000" font-family="sans-serif" font-size="6.5" lengthAdjust="spacing" textLength="3.5" x="267.9157" y="593.9345">1</text></g><!--link PurchaseOrder to Announcements--><g id="link_PurchaseOrder_Announcements"><path codeLine="349" d="M753.25,601.64 C753.25,633.945 753.25,674 753.25,674 C753.25,674 505.665,674 505.665,674 C505.665,674 505.665,585.295 505.665,585.295 " fill="none" id="PurchaseOrder-to-Announcements" style="stroke:#181818;stroke-width:0.5;stroke-dasharray:7.0,7.0;"/><polygon fill="#181818" points="505.665,582.795,503.665,587.295,505.665,585.295,507.665,587.295,505.665,582.795" style="stroke:#181818;stroke-width:0.5;"/></g><!--link Repositories to PurchaseOrderRepository--><g id="link_Repositories_PurchaseOrderRepository"><path codeLine="351" d="M284.585,398.66 C284.585,398.66 284.585,537.75 284.585,537.75 " fill="none" id="Repositories-to-PurchaseOrderRepository" style="stroke:#181818;stroke-width:0.5;"/><polygon fill="#181818" points="284.585,540.25,286.585,535.75,284.585,537.75,282.585,535.75,284.585,540.25" style="stroke:#181818;stroke-width:0.5;"/></g><!--link Repositories to Repositories--><g id="link_Repositories_Repositories"><path codeLine="352" d="M326.25,337.465 C326.25,332.26 326.25,328.5 326.25,328.5 C326.25,328.5 263.625,328.5 263.625,328.5 C263.625,328.5 263.625,412.5 263.625,412.5 C263.625,412.5 296.665,412.5 296.665,412.5 C296.665,412.5 296.665,401.165 296.665,401.165 " fill="none" id="Repositories-to-Repositories" style="stroke:#181818;stroke-width:0.5;"/><polygon fill="#181818" points="296.665,398.665,294.665,403.165,296.665,401.165,298.665,403.165,296.665,398.665" style="stroke:#181818;stroke-width:0.5;"/><text fill="#000000" font-family="sans-serif" font-size="6.5" lengthAdjust="spacing" textLength="37.5" x="266.625" y="352.4092">getInstance()</text></g><!--link Employee to Person--><g id="link_Employee_Person"><path codeLine="354" d="M875.875,152.65 C875.875,332.305 875.875,774 875.875,774 C875.875,774 718.81,774 718.81,774 " fill="none" id="Employee-to-Person" style="stroke:#181818;stroke-width:0.5;"/><polygon fill="none" points="718.81,777.5,708.81,774,718.81,770.5,718.81,777.5" style="stroke:#181818;stroke-width:0.5;"/></g><!--reverse link Person to Owner--><g id="link_Person_Owner"><path codeLine="356" d="M674.085,826.31 C674.085,826.31 674.085,880.865 674.085,880.865 " fill="none" id="Person-backto-Owner" style="stroke:#181818;stroke-width:0.5;"/><polygon fill="none" points="670.585,826.31,674.085,816.31,677.585,826.31,670.585,826.31" style="stroke:#181818;stroke-width:0.5;"/></g><!--link Employee to Agency--><g id="link_Employee_Agency"><path codeLine="358" d="M833.375,152.665 C833.375,271.16 833.375,489 833.375,489 C833.375,489 728.885,489 728.885,489 " fill="none" id="Employee-to-Agency" style="stroke:#181818;stroke-width:0.5;"/><polygon fill="#181818" points="726.385,489,730.885,491,728.885,489,730.885,487,726.385,489" style="stroke:#181818;stroke-width:0.5;"/><polygon fill="#000000" points="809.6333,370.7902,812.3784,366.9072,809.5718,366.0353,809.6333,370.7902" style="stroke:#000000;stroke-width:0.5;"/><text fill="#000000" font-family="sans-serif" font-size="6.5" lengthAdjust="spacing" textLength="18" x="814.875" y="371.0942">stores</text><text fill="#000000" font-family="sans-serif" font-size="6.5" lengthAdjust="spacing" textLength="3.5" x="828.8518" y="163.5042">1</text><text fill="#000000" font-family="sans-serif" font-size="6.5" lengthAdjust="spacing" textLength="3.5" x="730.1634" y="484.0349">1</text></g><!--link Property to Person--><g id="link_Property_Person"><path codeLine="360" d="M551.84,774 C551.84,774 607.175,774 607.175,774 " fill="none" id="Property-to-Person" style="stroke:#181818;stroke-width:0.5;"/><polygon fill="#181818" points="609.675,774,605.175,772,607.175,774,605.175,776,609.675,774" style="stroke:#181818;stroke-width:0.5;"/><polygon fill="#000000" points="559.005,778.8228,554.4825,777.3533,554.4825,780.2922,559.005,778.8228" style="stroke:#000000;stroke-width:0.5;"/><text fill="#000000" font-family="sans-serif" font-size="6.5" lengthAdjust="spacing" textLength="18" x="561.005" y="781.5142">stores</text><text fill="#000000" font-family="sans-serif" font-size="6.5" lengthAdjust="spacing" textLength="3.5" x="555.762" y="772.2915">1</text><text fill="#000000" font-family="sans-serif" font-size="6.5" lengthAdjust="spacing" textLength="3.5" x="602.2454" y="772.2068">1</text></g><!--link Announcements to Property--><g id="link_Announcements_Property"><path codeLine="362" d="M465.835,582.825 C465.835,582.825 465.835,693.8 465.835,693.8 " fill="none" id="Announcements-to-Property" style="stroke:#181818;stroke-width:0.5;"/><polygon fill="#181818" points="465.835,696.3,467.835,691.8,465.835,693.8,463.835,691.8,465.835,696.3" style="stroke:#181818;stroke-width:0.5;"/><text fill="#000000" font-family="sans-serif" font-size="6.5" lengthAdjust="spacing" textLength="3.5" x="458.8821" y="593.9171">1</text><text fill="#000000" font-family="sans-serif" font-size="6.5" lengthAdjust="spacing" textLength="2.5" x="462.3098" y="690.864">*</text></g><!--reverse link Property to Land--><g id="link_Property_Land"><path codeLine="364" d="M425.25,861.185 C425.25,861.185 425.25,916.5 425.25,916.5 C425.25,916.5 417.86,916.5 410.295,916.5 " fill="none" id="Property-backto-Land" style="stroke:#181818;stroke-width:0.5;"/><polygon fill="none" points="421.75,861.185,425.25,851.185,428.75,861.185,421.75,861.185" style="stroke:#181818;stroke-width:0.5;"/></g><!--link TypeOfTransaction to Property--><g id="link_TypeOfTransaction_Property"><path codeLine="366" d="M408.26,585.5 C416.595,585.5 422.875,585.5 422.875,585.5 C422.875,585.5 422.875,686.365 422.875,686.365 " fill="none" id="TypeOfTransaction-to-Property" style="stroke:#181818;stroke-width:0.5;"/><polygon fill="none" points="426.375,686.365,422.875,696.365,419.375,686.365,426.375,686.365" style="stroke:#181818;stroke-width:0.5;"/><text fill="#000000" font-family="sans-serif" font-size="6.5" lengthAdjust="spacing" textLength="3.5" x="412.2019" y="585.8447">1</text><text fill="#000000" font-family="sans-serif" font-size="6.5" lengthAdjust="spacing" textLength="3.5" x="416.2447" y="690.9322">1</text></g><!--link Property to Owner--><g id="link_Property_Owner"><path codeLine="368" d="M551.89,834 C595.425,834 644.415,834 644.415,834 C644.415,834 644.415,878.39 644.415,878.39 " fill="none" id="Property-to-Owner" style="stroke:#181818;stroke-width:0.5;"/><polygon fill="#181818" points="644.415,880.89,646.415,876.39,644.415,878.39,642.415,876.39,644.415,880.89" style="stroke:#181818;stroke-width:0.5;"/><polygon fill="#000000" points="599.604,839.9041,596.1621,836.623,594.8908,839.2728,599.604,839.9041" style="stroke:#000000;stroke-width:0.5;"/><text fill="#000000" font-family="sans-serif" font-size="6.5" lengthAdjust="spacing" textLength="18" x="601.85" y="841.5142">stores</text><text fill="#000000" font-family="sans-serif" font-size="6.5" lengthAdjust="spacing" textLength="3.5" x="555.8149" y="835.7603">1</text><text fill="#000000" font-family="sans-serif" font-size="6.5" lengthAdjust="spacing" textLength="3.5" x="639.2047" y="875.3242">1</text></g><!--link Property to Address--><g id="link_Property_Address"><path codeLine="369" d="M543.5,851.045 C543.5,851.045 543.5,878.34 543.5,878.34 " fill="none" id="Property-to-Address" style="stroke:#181818;stroke-width:0.5;"/><polygon fill="#181818" points="543.5,880.84,545.5,876.34,543.5,878.34,541.5,876.34,543.5,880.84" style="stroke:#181818;stroke-width:0.5;"/><polygon fill="#000000" points="546,862.5178,547.4695,857.9952,544.5305,857.9952,546,862.5178" style="stroke:#000000;stroke-width:0.5;"/><text fill="#000000" font-family="sans-serif" font-size="6.5" lengthAdjust="spacing" textLength="18" x="550.5" y="862.7092">stores</text><text fill="#000000" font-family="sans-serif" font-size="6.5" lengthAdjust="spacing" textLength="3.5" x="542.5375" y="861.7609">1</text><text fill="#000000" font-family="sans-serif" font-size="6.5" lengthAdjust="spacing" textLength="3.5" x="537.4734" y="875.269">1</text></g><!--link Person to Address--><g id="link_Person_Address"><path codeLine="371" d="M612.25,816.385 C612.25,858.45 612.25,916.5 612.25,916.5 C612.25,916.5 599.815,916.5 599.815,916.5 " fill="none" id="Person-to-Address" style="stroke:#181818;stroke-width:0.5;"/><polygon fill="#181818" points="597.315,916.5,601.815,918.5,599.815,916.5,601.815,914.5,597.315,916.5" style="stroke:#181818;stroke-width:0.5;"/><polygon fill="#000000" points="588.9418,870.4637,590.9576,866.1568,588.041,865.7945,588.9418,870.4637" style="stroke:#000000;stroke-width:0.5;"/><text fill="#000000" font-family="sans-serif" font-size="6.5" lengthAdjust="spacing" textLength="18" x="593.75" y="870.6742">stores</text><text fill="#000000" font-family="sans-serif" font-size="6.5" lengthAdjust="spacing" textLength="3.5" x="604.5605" y="827.4271">1</text><text fill="#000000" font-family="sans-serif" font-size="6.5" lengthAdjust="spacing" textLength="3.5" x="601.3143" y="914.5323">1</text></g><!--link Property to CommissionDetails--><g id="link_Property_CommissionDetails"><path codeLine="373" d="M472.75,851.045 C472.75,851.045 472.75,887.74 472.75,887.74 " fill="none" id="Property-to-CommissionDetails" style="stroke:#181818;stroke-width:0.5;"/><polygon fill="#181818" points="472.75,890.24,474.75,885.74,472.75,887.74,470.75,885.74,472.75,890.24" style="stroke:#181818;stroke-width:0.5;"/><polygon fill="#000000" points="449.75,867.2178,451.2195,862.6952,448.2805,862.6952,449.75,867.2178" style="stroke:#000000;stroke-width:0.5;"/><text fill="#000000" font-family="sans-serif" font-size="6.5" lengthAdjust="spacing" textLength="18" x="454.25" y="867.4092">stores</text><text fill="#000000" font-family="sans-serif" font-size="6.5" lengthAdjust="spacing" textLength="3.5" x="468.5816" y="861.7609">1</text><text fill="#000000" font-family="sans-serif" font-size="6.5" lengthAdjust="spacing" textLength="3.5" x="469.0148" y="884.7023">1</text></g><!--reverse link Equipment to Building--><g id="link_Equipment_Building"><path codeLine="375" d="M295.875,802.385 C295.875,802.385 295.875,880.885 295.875,880.885 " fill="none" id="Equipment-backto-Building" style="stroke:#181818;stroke-width:0.5;"/><polygon fill="#181818" points="295.875,799.885,293.875,804.385,295.875,802.385,297.875,804.385,295.875,799.885" style="stroke:#181818;stroke-width:0.5;"/><polygon fill="#000000" points="272.875,834.4578,271.4055,838.9803,274.3445,838.9803,272.875,834.4578" style="stroke:#000000;stroke-width:0.5;"/><text fill="#000000" font-family="sans-serif" font-size="6.5" lengthAdjust="spacing" textLength="18" x="277.375" y="839.6492">stores</text><text fill="#000000" font-family="sans-serif" font-size="6.5" lengthAdjust="spacing" textLength="3.5" x="293.7004" y="810.6154">1</text><text fill="#000000" font-family="sans-serif" font-size="6.5" lengthAdjust="spacing" textLength="3.5" x="290.8668" y="875.3186">1</text></g><!--reverse link Photo to Property--><g id="link_Photo_Property"><path codeLine="377" d="M404.885,774 C404.885,774 419.605,774 419.605,774 " fill="none" id="Photo-backto-Property" style="stroke:#181818;stroke-width:0.5;"/><polygon fill="#181818" points="402.385,774,406.885,776,404.885,774,406.885,772,402.385,774" style="stroke:#181818;stroke-width:0.5;"/><polygon fill="#000000" points="393.12,778.8228,397.6425,780.2922,397.6425,777.3533,393.12,778.8228" style="stroke:#000000;stroke-width:0.5;"/><text fill="#000000" font-family="sans-serif" font-size="6.5" lengthAdjust="spacing" textLength="18" x="400.12" y="781.5142">stores</text><text fill="#000000" font-family="sans-serif" font-size="6.5" lengthAdjust="spacing" textLength="3.5" x="406.1873" y="772.064">1</text><text fill="#000000" font-family="sans-serif" font-size="6.5" lengthAdjust="spacing" textLength="3.5" x="412.1798" y="772.2915">1</text></g><!--link Person to PassportCard--><g id="link_Person_PassportCard"><path codeLine="379" d="M706.25,816.385 C706.25,858.45 706.25,916.5 706.25,916.5 C706.25,916.5 718.985,916.5 718.985,916.5 " fill="none" id="Person-to-PassportCard" style="stroke:#181818;stroke-width:0.5;"/><polygon fill="#181818" points="721.485,916.5,716.985,914.5,718.985,916.5,716.985,918.5,721.485,916.5" style="stroke:#181818;stroke-width:0.5;"/><polygon fill="#000000" points="683.5655,870.6128,684.4525,865.941,681.5371,866.3118,683.5655,870.6128" style="stroke:#000000;stroke-width:0.5;"/><text fill="#000000" font-family="sans-serif" font-size="6.5" lengthAdjust="spacing" textLength="18" x="687.75" y="870.8242">stores</text><text fill="#000000" font-family="sans-serif" font-size="6.5" lengthAdjust="spacing" textLength="3.5" x="706.6387" y="827.4271">1</text><text fill="#000000" font-family="sans-serif" font-size="6.5" lengthAdjust="spacing" textLength="3.5" x="713.9471" y="914.5231">1</text></g><!--reverse link Property to Building--><g id="link_Property_Building"><path codeLine="381" d="M422.5,861.1 C422.5,861.1 422.5,886 422.5,886 C422.5,886 381.205,886 348.375,886 " fill="none" id="Property-backto-Building" style="stroke:#181818;stroke-width:0.5;"/><polygon fill="none" points="419,861.1,422.5,851.1,426,861.1,419,861.1" style="stroke:#181818;stroke-width:0.5;"/></g><!--reverse link Building to House--><g id="link_Building_House"><path codeLine="383" d="M287.5,961.63 C287.5,961.63 287.5,981.485 287.5,981.485 " fill="none" id="Building-backto-House" style="stroke:#181818;stroke-width:0.5;"/><polygon fill="none" points="284,961.63,287.5,951.63,291,961.63,284,961.63" style="stroke:#181818;stroke-width:0.5;"/></g><!--reverse link Building to Apartment--><g id="link_Building_Apartment"><path codeLine="384" d="M335.875,961.63 C335.875,961.63 335.875,1001.85 335.875,1001.85 " fill="none" id="Building-backto-Apartment" style="stroke:#181818;stroke-width:0.5;"/><polygon fill="none" points="332.375,961.63,335.875,951.63,339.375,961.63,332.375,961.63" style="stroke:#181818;stroke-width:0.5;"/></g><!--link Employee to NetworkManager--><g id="link_Employee_NetworkManager"><path codeLine="386" d="M895.275,78 C901.145,78 907.125,78 912.855,78 " fill="none" id="Employee-NetworkManager" style="stroke:#181818;stroke-width:0.5;"/><polygon fill="#000000" points="893.315,82.8228,897.8375,84.2922,897.8375,81.3533,893.315,82.8228" style="stroke:#000000;stroke-width:0.5;"/><text fill="#000000" font-family="sans-serif" font-size="6.5" lengthAdjust="spacing" textLength="14" x="900.315" y="85.5142">is an</text><text fill="#000000" font-family="sans-serif" font-size="6.5" lengthAdjust="spacing" textLength="3.5" x="899.2182" y="76.1405">1</text><text fill="#000000" font-family="sans-serif" font-size="6.5" lengthAdjust="spacing" textLength="3.5" x="905.4729" y="76.0771">1</text></g><!--link NetworkManager to NetworkManagerUI--><g id="link_NetworkManager_NetworkManagerUI"><path codeLine="388" d="M948.75,99.26 C948.75,99.26 948.75,179.82 948.75,179.82 " fill="none" id="NetworkManager-to-NetworkManagerUI" style="stroke:#181818;stroke-width:0.5;stroke-dasharray:7.0,7.0;"/><polygon fill="#181818" points="948.75,182.32,950.75,177.82,948.75,179.82,946.75,177.82,948.75,182.32" style="stroke:#181818;stroke-width:0.5;"/></g><!--link NetworkManagerUI to NetworkManagingUI--><g id="link_NetworkManagerUI_NetworkManagingUI"><path codeLine="390" d="M948.75,216.1 C948.75,216.1 948.75,243.32 948.75,243.32 " fill="none" id="NetworkManagerUI-to-NetworkManagingUI" style="stroke:#181818;stroke-width:0.5;stroke-dasharray:7.0,7.0;"/><polygon fill="#181818" points="948.75,245.82,950.75,241.32,948.75,243.32,946.75,241.32,948.75,245.82" style="stroke:#181818;stroke-width:0.5;"/></g><!--link NetworkManagingUI to NetworkManagingController--><g id="link_NetworkManagingUI_NetworkManagingController"><path codeLine="392" d="M948.75,279.625 C948.75,296.195 948.75,319 948.75,319 C948.75,319 257.41,319 257.41,319 " fill="none" id="NetworkManagingUI-to-NetworkManagingController" style="stroke:#181818;stroke-width:0.5;stroke-dasharray:7.0,7.0;"/><polygon fill="#181818" points="254.91,319,259.41,321,257.41,319,259.41,317,254.91,319" style="stroke:#181818;stroke-width:0.5;"/></g><!--link NetworkManagingController to Network--><g id="link_NetworkManagingController_Network"><path codeLine="394" d="M83.375,426.58 C83.375,426.58 83.375,491.11 83.375,491.11 " fill="none" id="NetworkManagingController-to-Network" style="stroke:#181818;stroke-width:0.5;stroke-dasharray:7.0,7.0;"/><polygon fill="#181818" points="83.375,493.61,85.375,489.11,83.375,491.11,81.375,489.11,83.375,493.61" style="stroke:#181818;stroke-width:0.5;"/></g><!--link NetworkManagingController to PurchaseOrderRepository--><g id="link_NetworkManagingController_PurchaseOrderRepository"><path codeLine="395" d="M200.25,426.58 C200.25,426.58 200.25,537.55 200.25,537.55 " fill="none" id="NetworkManagingController-to-PurchaseOrderRepository" style="stroke:#181818;stroke-width:0.5;stroke-dasharray:7.0,7.0;"/><polygon fill="#181818" points="200.25,540.05,202.25,535.55,200.25,537.55,198.25,535.55,200.25,540.05" style="stroke:#181818;stroke-width:0.5;"/></g><!--link Network to Agency--><g id="link_Network_Agency"><path codeLine="397" d="M128.125,515 C233.405,515 446.3,515 563.25,515 " fill="none" id="Network-Agency" style="stroke:#181818;stroke-width:0.5;"/><polygon fill="#000000" points="332.685,510.3228,328.1625,508.8533,328.1625,511.7922,332.685,510.3228" style="stroke:#000000;stroke-width:0.5;"/><text fill="#000000" font-family="sans-serif" font-size="6.5" lengthAdjust="spacing" textLength="10.5" x="334.685" y="513.0142">has</text><text fill="#000000" font-family="sans-serif" font-size="6.5" lengthAdjust="spacing" textLength="3.5" x="132.0326" y="510.4191">1</text><text fill="#000000" font-family="sans-serif" font-size="6.5" lengthAdjust="spacing" textLength="12" x="547.2852" y="511.2131">1...*</text></g><!--link Agency to PurchaseOrder--><g id="link_Agency_PurchaseOrder"><path codeLine="399" d="M726.37,561.5 C732.31,561.5 738.22,561.5 743.96,561.5 " fill="none" id="Agency-PurchaseOrder" style="stroke:#181818;stroke-width:0.5;"/><polygon fill="#000000" points="731.165,566.3228,726.6425,564.8533,726.6425,567.7922,731.165,566.3228" style="stroke:#000000;stroke-width:0.5;"/><text fill="#000000" font-family="sans-serif" font-size="6.5" lengthAdjust="spacing" textLength="10.5" x="733.165" y="569.0142">has</text><text fill="#000000" font-family="sans-serif" font-size="6.5" lengthAdjust="spacing" textLength="3.5" x="730.1477" y="559.8201">1</text><text fill="#000000" font-family="sans-serif" font-size="6.5" lengthAdjust="spacing" textLength="12" x="727.9695" y="559.7509">1...*</text></g><!--SRC=[lHfBR-D4-EvVCThBUg6fW6DKHKgJ8Y8jRRLjEN2RsBE9MSTZnXDAOFdlVFFoVFDmsaN07jRnztxFmtqxV6gwdWfw80VUyMel-84HAOwiy9YULf_eZZt8Kyk8O9MatQx51CEUrlovwNRa8sq7Z6cRZibJpqZFsvDwoU6ua7kE45LBXs4ffMYsHyas5UyUcZyO-QOezatDo841UJqKXQOZjqm-S_7fHzg1ZU9fG_ui2FoRpMRw-NMr1tFPqwPyL_oLum6pdpQUPv9enJifUDio4IdOCRbis-METLN3XlkZ08q3MpC81UWSIJBuihFuYlSda06UIjR9eMoRGNvxGTJZEqjIiwevqFQHNpST5QVIlXiY5HzBrzFwPoRuK6urNOAl-B5JzePsAY9B8DaW0mCkY165yDzpSVCR4wVRus7BH4HDSv40S3SyCs65SB6Z7HZrlfbGTcS8g6nuvuDupq74tSV7PrvwjyQ4tHpwbfyOSnNm01K4DTdH0mi0FHyQ9JS0iWDjscLT2pOC0KAoblLxtZ7ZR9BxMn1VOXEDS0IwGQ8H-34KdAdFs143tQnpqDlOoozpo18IYXcmbqutSk3MQ_udtewTaT0Q4bS_Tw9cOYXrMRaY13DrGvtYTlihFnRoaVGnIpsrNe4yAz3e2-KOcwA46E1_d8-brHnFcDE_buqnb44YFZ3TFbouK90-oDEogbWlMKtcH3NtLS2yIFoupp9ZxQD262dHR9y5IEJ4fXjWaQeW4606fidhzJw1Z0c_dRV7WGaTL91i4cWHjEjWj5Ri01CSS4lqQjC72nq8MXxK10QAcX-tBNFSsdDbCs2QJev-ljKM1wQKemqNf1UyPq929LnWyHT8u3ih0xn-0aR_TkVfFN0vylcI48pUVRotcYpf44Y3D-mmTCG8JxKCgHR9JIpBTsDKnpG4aNGLO6hBchG8Wfzf5eGjCIakSYkBZ6Lj0O-mHObIpPyx9kRaJZqigEA7GpCCCFZdP3N-NZC9MNBfLuD1plKWaGuKX3QgYRenLVmzRCfMm2FOPD6igOoD5EpN8opL6OoTAM097Yu4ve7a2Ye4FPduAiW2e-T4mon8xTvWDHQmjDDAQjyVOr0KpSqwLzu4IYA9Mdasfb0el_6cHWBkKSBANFPI5fsA4kSbejavcdSkRnwnJjAZg6o2l8uCsNHYC-g32ibgY4ZoDPMH75GFwZmaEIJ9rrig-OCllQnOZC-KQSPKjoZvclN8-x6q5Bu9SXJKHDP3ApdkYTG6NVXAXka0L7SQeTlZwSDcsecaDPImj5-yu9H1-j-ui2_KuGtQGfn-ekrngfWsWsfgM5pxiJHSU81ootdBg6dNhqbc7iSnAmUeMoQz3LMZHBetg7293FoZwLUyJb8yZj-al_KSndCrciCOPRrUkzceH_-K4peNgv1NKQp7jeeeejePJKxIOqsUI9B6PVDaB7QA7qFssFWXfPXGYDAl1V-8TOU3H8iDyMShQYAwVicskrSJaB1GJEvGhLYQS9sQnHKJ1kb1Yyp4nY92bN4aLesPf16l1cFBOhu7cKmqgrJ10nTYrf-DDnbcXvdea7E53ADJdNhixFeE3o_Npdv_e-QJJOYULNubjW0qlC9WtnjoD5tzt0CmbXQxVMy5P_mUKLEJywKYkpusRQqEKCQfBQi5vuV1UxMbSX-1UYe-0Sj3Jok6m138fZ_eNS2D-nd6uDh9YgFW4Q6wE1BNrho4ty43-vCuOhkJH0J8rCNN1dHqVTm3qqQiU5Vh2mqWZVQHbTgwqFO7HcM2z5ixjNo7Oj95HVLa82o_xaHY9gnBjtcHxBpTFaelnUa73WSmLtLmA3E5unVG6MdvnmWo7BkRt-6KUHIvYQRho0Wg4ub99JbArEPEodjGN0RQOsvD4NEgsUODp4quXCsuydA5kTZfCvChBtKp5n-Z9VtTt4a0OjD9jXkFMFW29U4AxpF8H35cRpxUJjoLU1Pd4WRQUnRzFXicvIfKJgvcYUKg8Bw_ELU4xsbN_-cdE_pNSo5NLDGckhs5s4ibV_4HmAscsP11-DKSHefK5UVrcRicFoViRLHyq1nlf284JcKyL7WdOIyJXVEL9zWlkOaAJtYLFJwaGySXOn_p9qLt0JSfIQFJmAJImgh9o0i8SX5DPQwomSrAdo0zdvulERczul3ruYMXkKw2ebK9lZvkOOjQgbSmPTseBrN-wu42Fu3LvY0rGNH-UOm-BvWgZYgpIulTVMw8mIfyKukcqrK6EjpuSHi_FYTtsr_0Wt2UAme8rzvjED6H6C2wR2Av2NlLWd6ArnboDZvk245ox2be8XJZS7_zF93_P108S6PEFl3nfgn7yt4UJ4jKgvETgn7TsMv5ipmZm6EJ2Fm_ZV-QZezfvF_Iu-ZM2DAbPEYqeSiY1VO9pLpCe6pg-vbCTeU8RBeUNhCDB8h9RyFaSX5-iPWB_FcXcFZkeDW2L4IfyE4NXIBGCfijfZxJH8InUIJuN58KuvIRpJulR4k3CQQrhpxFxAstftlpxHibLJtihc0EftaEEIOBO7JNweZC2iDauHs_fgtvSwSOldepNbCXSM39JE-1YYAzXr7yndwjBkNM2gmrsXziJ9RAxpkHRyQF5yboyjBxBipYJsAAzWfSLS_nm3kINe5qVQutP86x8LLgAYxwlBqwnavfKOpgDLmVWYBOk56CosCccjtUE1DzbvsJAz8C15QU8i9SNgeAM2H_tn4JFcs0T97-IKVIf8PmidFFDhLNy0BLL1CwDXkFCI2NbvTVeSPPg1KQsi6yPsd3kJ2oX617Z28_DNcK1CY0pdyDUuM_0G00]--></g></svg>