<?xml version="1.0" encoding="us-ascii" standalone="no"?><svg xmlns="http://www.w3.org/2000/svg" xmlns:xlink="http://www.w3.org/1999/xlink" contentStyleType="text/css" height="1518px" preserveAspectRatio="none" style="width:795px;height:1518px;background:#FFFFFF;" version="1.1" viewBox="0 0 795 1518" width="795px" zoomAndPan="magnify"><defs/><g><g id="elem_UC001 - Display listed properties"><ellipse cx="484.4849" cy="1394.797" fill="#F1F1F1" rx="121.9849" ry="26.797" style="stroke:#181818;stroke-width:0.5;"/><text fill="#000000" font-family="sans-serif" font-size="14" lengthAdjust="spacing" textLength="207" x="380.9849" y="1398.5939">UC001 - Display listed properties</text></g><!--entity Unregistered User--><g id="elem_Unregistered User"><ellipse cx="63" cy="1409" fill="#F1F1F1" rx="8" ry="8" style="stroke:#181818;stroke-width:0.5;"/><path d="M63,1417 L63,1444 M50,1425 L76,1425 M63,1444 L50,1459 M63,1444 L76,1459 " fill="none" style="stroke:#181818;stroke-width:0.5;"/><text fill="#000000" font-family="sans-serif" font-size="14" lengthAdjust="spacing" textLength="114" x="6" y="1475.6074">Unregistered User</text></g><g id="elem_UC002 -  Publish any sale announcement on the system"><ellipse cx="484.3439" cy="851.1688" fill="#F1F1F1" rx="191.3439" ry="40.6688" style="stroke:#181818;stroke-width:0.5;"/><text fill="#000000" font-family="sans-serif" font-size="14" lengthAdjust="spacing" textLength="353" x="307.8439" y="854.9656">UC002 -  Publish any sale announcement on the system</text></g><!--entity Agent--><g id="elem_Agent"><ellipse cx="63" cy="1054" fill="#F1F1F1" rx="8" ry="8" style="stroke:#181818;stroke-width:0.5;"/><path d="M63,1062 L63,1089 M50,1070 L76,1070 M63,1089 L50,1104 M63,1089 L76,1104 " fill="none" style="stroke:#181818;stroke-width:0.5;"/><text fill="#000000" font-family="sans-serif" font-size="14" lengthAdjust="spacing" textLength="37" x="44.5" y="1120.6074">Agent</text></g><g id="elem_UC003 - Register a new employee"><ellipse cx="484.676" cy="586.0352" fill="#F1F1F1" rx="125.676" ry="27.5352" style="stroke:#181818;stroke-width:0.5;"/><text fill="#000000" font-family="sans-serif" font-size="14" lengthAdjust="spacing" textLength="215" x="377.176" y="589.8321">UC003 - Register a new employee</text></g><!--entity System Admin--><g id="elem_System Admin"><ellipse cx="63" cy="618" fill="#F1F1F1" rx="8" ry="8" style="stroke:#181818;stroke-width:0.5;"/><path d="M63,626 L63,653 M50,634 L76,634 M63,653 L50,668 M63,653 L76,668 " fill="none" style="stroke:#181818;stroke-width:0.5;"/><text fill="#000000" font-family="sans-serif" font-size="14" lengthAdjust="spacing" textLength="89" x="18.5" y="684.6074">System Admin</text></g><g id="elem_UC004 - Submit a properly listing request"><ellipse cx="484.2739" cy="324.1548" fill="#F1F1F1" rx="146.2739" ry="31.6548" style="stroke:#181818;stroke-width:0.5;"/><text fill="#000000" font-family="sans-serif" font-size="14" lengthAdjust="spacing" textLength="259" x="354.7739" y="327.9517">UC004 - Submit a properly listing request</text></g><!--entity User--><g id="elem_User"><ellipse cx="63" cy="385" fill="#F1F1F1" rx="8" ry="8" style="stroke:#181818;stroke-width:0.5;"/><path d="M63,393 L63,420 M50,401 L76,401 M63,420 L50,435 M63,420 L76,435 " fill="none" style="stroke:#181818;stroke-width:0.5;"/><text fill="#000000" font-family="sans-serif" font-size="14" lengthAdjust="spacing" textLength="29" x="48.5" y="451.6074">User</text></g><g id="elem_UC007 - To register in the system"><ellipse cx="484.2896" cy="1484.7579" fill="#F1F1F1" rx="124.2896" ry="27.2579" style="stroke:#181818;stroke-width:0.5;"/><text fill="#000000" font-family="sans-serif" font-size="14" lengthAdjust="spacing" textLength="212" x="378.2896" y="1488.5548">UC007 - To register in the system</text></g><g id="elem_UC008 - Displaying and accepting announcement requests"><ellipse cx="484.5772" cy="968.9154" fill="#F1F1F1" rx="200.0772" ry="42.4154" style="stroke:#181818;stroke-width:0.5;"/><text fill="#000000" font-family="sans-serif" font-size="14" lengthAdjust="spacing" textLength="371" x="299.0772" y="972.7123">UC008 - Displaying and accepting announcement requests</text></g><g id="elem_UC009 - Messaging for a visit"><ellipse cx="484.4468" cy="415.7894" fill="#F1F1F1" rx="111.9468" ry="24.7894" style="stroke:#181818;stroke-width:0.5;"/><text fill="#000000" font-family="sans-serif" font-size="14" lengthAdjust="spacing" textLength="185" x="391.9468" y="419.5862">UC009 - Messaging for a visit</text></g><g id="elem_UC010 - To buy a property"><ellipse cx="484.2713" cy="499.8543" fill="#F1F1F1" rx="104.7713" ry="23.3543" style="stroke:#181818;stroke-width:0.5;"/><text fill="#000000" font-family="sans-serif" font-size="14" lengthAdjust="spacing" textLength="169" x="399.7713" y="503.6511">UC010 - To buy a property</text></g><g id="elem_UC011 - Accepting or denying a property sale/lease"><ellipse cx="484.2945" cy="1085.0589" fill="#F1F1F1" rx="178.2945" ry="38.0589" style="stroke:#181818;stroke-width:0.5;"/><text fill="#000000" font-family="sans-serif" font-size="14" lengthAdjust="spacing" textLength="326" x="321.2945" y="1088.8558">UC011 - Accepting or denying a property sale/lease</text></g><g id="elem_UC012 - Importing information from a legacy system that has been in use in several agencies"><ellipse cx="484.6143" cy="711.8229" fill="#F1F1F1" rx="304.6143" ry="63.3229" style="stroke:#181818;stroke-width:0.5;"/><text fill="#000000" font-family="sans-serif" font-size="14" lengthAdjust="spacing" textLength="584" x="192.6143" y="715.6197">UC012 - Importing information from a legacy system that has been in use in several agencies</text></g><g id="elem_UC015 - Listing booking requests managed by me"><ellipse cx="484.4983" cy="1194.9997" fill="#F1F1F1" rx="172.9983" ry="36.9997" style="stroke:#181818;stroke-width:0.5;"/><text fill="#000000" font-family="sans-serif" font-size="14" lengthAdjust="spacing" textLength="315" x="326.9983" y="1198.7965">UC015 - Listing booking requests managed by me</text></g><g id="elem_UC016 - Responding to a booking requests"><ellipse cx="484.4113" cy="1299.9823" fill="#F1F1F1" rx="152.9113" ry="32.9823" style="stroke:#181818;stroke-width:0.5;"/><text fill="#000000" font-family="sans-serif" font-size="14" lengthAdjust="spacing" textLength="273" x="347.9113" y="1303.7791">UC016 - Responding to a booking requests</text></g><g id="elem_UC017 - Listing all deals made"><ellipse cx="484.6212" cy="143.9242" fill="#F1F1F1" rx="115.1212" ry="25.4242" style="stroke:#181818;stroke-width:0.5;"/><text fill="#000000" font-family="sans-serif" font-size="14" lengthAdjust="spacing" textLength="192" x="388.6212" y="147.7211">UC017 - Listing all deals made</text></g><!--entity Network Manager--><g id="elem_Network Manager"><ellipse cx="63" cy="164" fill="#F1F1F1" rx="8" ry="8" style="stroke:#181818;stroke-width:0.5;"/><path d="M63,172 L63,199 M50,180 L76,180 M63,199 L50,214 M63,199 L76,214 " fill="none" style="stroke:#181818;stroke-width:0.5;"/><text fill="#000000" font-family="sans-serif" font-size="14" lengthAdjust="spacing" textLength="110" x="8" y="230.6074">Network Manager</text></g><g id="elem_UC018 - Analysing, comparing and predicting deals"><ellipse cx="484.3488" cy="44.7698" fill="#F1F1F1" rx="176.8488" ry="37.7698" style="stroke:#181818;stroke-width:0.5;"/><text fill="#000000" font-family="sans-serif" font-size="14" lengthAdjust="spacing" textLength="323" x="322.8488" y="48.5666">UC018 - Analysing, comparing and predicting deals</text></g><!--entity Store Manager--><g id="elem_Store Manager"><ellipse cx="63" cy="14" fill="#F1F1F1" rx="8" ry="8" style="stroke:#181818;stroke-width:0.5;"/><path d="M63,22 L63,49 M50,30 L76,30 M63,49 L50,64 M63,49 L76,64 " fill="none" style="stroke:#181818;stroke-width:0.5;"/><text fill="#000000" font-family="sans-serif" font-size="14" lengthAdjust="spacing" textLength="94" x="16" y="80.6074">Store Manager</text></g><g id="elem_UC019 - Diving sets of all stores"><ellipse cx="484.6883" cy="230.8377" fill="#F1F1F1" rx="119.6883" ry="26.3377" style="stroke:#181818;stroke-width:0.5;"/><text fill="#000000" font-family="sans-serif" font-size="14" lengthAdjust="spacing" textLength="202" x="383.6883" y="234.6345">UC019 - Diving sets of all stores</text></g><!--link Unregistered User to UC001 - Display listed properties--><g id="link_Unregistered User_UC001 - Display listed properties"><path d="M120.14,1433.98 C183.5,1427.18 288.24,1415.95 369.03,1407.28 " fill="none" id="Unregistered User-to-UC001 - Display listed properties" style="stroke:#181818;stroke-width:1.0;"/><polygon fill="#181818" points="374.32,1406.71,364.9475,1403.684,369.348,1407.2386,365.7933,1411.6391,374.32,1406.71" style="stroke:#181818;stroke-width:1.0;"/></g><!--link Agent to UC002 -  Publish any sale announcement on the system--><g id="link_Agent_UC002 -  Publish any sale announcement on the system"><path d="M79.16,1045.3 C96.92,1004.41 130.38,942.11 180,909 C213.98,886.32 254.6,872.01 294.91,863.08 " fill="none" id="Agent-to-UC002 -  Publish any sale announcement on the system" style="stroke:#181818;stroke-width:1.0;"/><polygon fill="#181818" points="299.82,862.02,290.1776,860.0138,294.9331,863.0774,291.8695,867.8329,299.82,862.02" style="stroke:#181818;stroke-width:1.0;"/></g><!--link System Admin to UC003 - Register a new employee--><g id="link_System Admin_UC003 - Register a new employee"><path d="M107.51,642.18 C129.27,638.78 156.02,634.64 180,631 C244.41,621.23 316.55,610.52 374.34,602 " fill="none" id="System Admin-to-UC003 - Register a new employee" style="stroke:#181818;stroke-width:1.0;"/><polygon fill="#181818" points="379.53,601.24,370.0429,598.5952,374.5834,601.9691,371.2095,606.5097,379.53,601.24" style="stroke:#181818;stroke-width:1.0;"/></g><!--link User to UC004 - Submit a properly listing request--><g id="link_User_UC004 - Submit a properly listing request"><path d="M77.67,410.12 C99.09,401.11 142.08,383.9 180,374 C235.56,359.5 297.99,348.36 351.72,340.31 " fill="none" id="User-to-UC004 - Submit a properly listing request" style="stroke:#181818;stroke-width:1.0;"/><polygon fill="#181818" points="356.9,339.54,347.4055,336.922,351.9555,340.2831,348.5944,344.8332,356.9,339.54" style="stroke:#181818;stroke-width:1.0;"/></g><!--link Unregistered User to UC007 - To register in the system--><g id="link_Unregistered User_UC007 - To register in the system"><path d="M120.14,1446.02 C182.95,1452.76 286.44,1463.86 366.94,1472.5 " fill="none" id="Unregistered User-to-UC007 - To register in the system" style="stroke:#181818;stroke-width:1.0;"/><polygon fill="#181818" points="372.21,1473.06,363.6833,1468.1309,367.238,1472.5314,362.8375,1476.086,372.21,1473.06" style="stroke:#181818;stroke-width:1.0;"/></g><!--link Agent to UC008 - Displaying and accepting announcement requests--><g id="link_Agent_UC008 - Displaying and accepting announcement requests"><path d="M81.52,1075.02 C103.76,1062.75 143.62,1042.08 180,1030 C223.68,1015.5 272.09,1003.87 317.19,994.82 " fill="none" id="Agent-to-UC008 - Displaying and accepting announcement requests" style="stroke:#181818;stroke-width:1.0;"/><polygon fill="#181818" points="322.1,993.84,312.494,991.6666,317.1955,994.8123,314.0497,999.5138,322.1,993.84" style="stroke:#181818;stroke-width:1.0;"/></g><!--link User to UC009 - Messaging for a visit--><g id="link_User_UC009 - Messaging for a visit"><path d="M77.96,416 C122.42,416 263.86,416 367.22,416 " fill="none" id="User-to-UC009 - Messaging for a visit" style="stroke:#181818;stroke-width:1.0;"/><polygon fill="#181818" points="372.42,416,363.42,412,367.42,416,363.42,420,372.42,416" style="stroke:#181818;stroke-width:1.0;"/></g><!--link User to UC010 - To buy a property--><g id="link_User_UC010 - To buy a property"><path d="M77.62,422.17 C98.98,431.6 141.87,449.48 180,459 C245.47,475.34 320.63,485.56 379.77,491.71 " fill="none" id="User-to-UC010 - To buy a property" style="stroke:#181818;stroke-width:1.0;"/><polygon fill="#181818" points="385.08,492.25,376.5394,487.3451,380.1065,491.7355,375.7162,495.3027,385.08,492.25" style="stroke:#181818;stroke-width:1.0;"/></g><!--link Agent to UC011 - Accepting or denying a property sale/lease--><g id="link_Agent_UC011 - Accepting or denying a property sale/lease"><path d="M81.76,1085 C119.94,1085 213.5,1085 300.72,1085 " fill="none" id="Agent-to-UC011 - Accepting or denying a property sale/lease" style="stroke:#181818;stroke-width:1.0;"/><polygon fill="#181818" points="305.93,1085,296.93,1081,300.93,1085,296.93,1089,305.93,1085" style="stroke:#181818;stroke-width:1.0;"/></g><!--link System Admin to UC012 - Importing information from a legacy system that has been in use in several agencies--><g id="link_System Admin_UC012 - Importing information from a legacy system that has been in use in several agencies"><path d="M107.71,655.56 C138.95,660.26 183.8,666.99 231.7,674.19 " fill="none" id="System Admin-to-UC012 - Importing information from a legacy system that has been in use in several agencies" style="stroke:#181818;stroke-width:1.0;"/><polygon fill="#181818" points="236.65,674.93,228.3422,669.6404,231.7052,674.189,227.1566,677.552,236.65,674.93" style="stroke:#181818;stroke-width:1.0;"/></g><!--link Agent to UC015 - Listing booking requests managed by me--><g id="link_Agent_UC015 - Listing booking requests managed by me"><path d="M81.84,1095.53 C104.08,1108.2 143.62,1129.23 180,1141 C227.38,1156.33 280.42,1167.65 328.74,1175.85 " fill="none" id="Agent-to-UC015 - Listing booking requests managed by me" style="stroke:#181818;stroke-width:1.0;"/><polygon fill="#181818" points="333.7,1176.68,325.4877,1171.2433,328.7692,1175.8511,324.1614,1179.1325,333.7,1176.68" style="stroke:#181818;stroke-width:1.0;"/></g><!--link Agent to UC016 - Responding to a booking requests--><g id="link_Agent_UC016 - Responding to a booking requests"><path d="M80.69,1124.64 C99.1,1163.2 132.55,1220.21 180,1250 C223.29,1277.18 276.63,1291.02 326.46,1297.71 " fill="none" id="Agent-to-UC016 - Responding to a booking requests" style="stroke:#181818;stroke-width:1.0;"/><polygon fill="#181818" points="331.58,1298.37,323.1692,1293.2458,326.6215,1297.727,322.1403,1301.1793,331.58,1298.37" style="stroke:#181818;stroke-width:1.0;"/></g><!--link Network Manager to UC017 - Listing all deals made--><g id="link_Network Manager_UC017 - Listing all deals made"><path d="M118.41,188.38 C183.92,180.42 295.43,166.86 378.02,156.82 " fill="none" id="Network Manager-to-UC017 - Listing all deals made" style="stroke:#181818;stroke-width:1.0;"/><polygon fill="#181818" points="383.42,156.17,374.0056,153.2772,378.456,156.7691,374.9641,161.2196,383.42,156.17" style="stroke:#181818;stroke-width:1.0;"/></g><!--link Store Manager to UC018 - Analysing, comparing and predicting deals--><g id="link_Store Manager_UC018 - Analysing, comparing and predicting deals"><path d="M110.09,45 C156.65,45 231.59,45 302.16,45 " fill="none" id="Store Manager-to-UC018 - Analysing, comparing and predicting deals" style="stroke:#181818;stroke-width:1.0;"/><polygon fill="#181818" points="307.23,45,298.23,41,302.23,45,298.23,49,307.23,45" style="stroke:#181818;stroke-width:1.0;"/></g><!--link Network Manager to UC019 - Diving sets of all stores--><g id="link_Network Manager_UC019 - Diving sets of all stores"><path d="M118.41,199.67 C181.1,205.05 285.92,214.04 367.2,221.02 " fill="none" id="Network Manager-to-UC019 - Diving sets of all stores" style="stroke:#181818;stroke-width:1.0;"/><polygon fill="#181818" points="372.52,221.48,363.8956,216.7239,367.5384,221.0518,363.2105,224.6945,372.52,221.48" style="stroke:#181818;stroke-width:1.0;"/></g><!--SRC=[jLLDZzf03BtdLrXSk9IMxTTsBvNGjeTAtQegvGSuYKb6p4Swda3px-i9B6GAoqAbva14nkyz-pbsnhnIja6F1eophgYzCmJ1jvGTJXeiLbZHF7IQm5CHq5QQil4XWciitKRP2fQecR8i6mSL97h11FSeFvyKLZ7oysyqZO0pJSi0mO5NLHsWL95NEPljhfQfYBZHuduwlO69472ZiGEjE509ZNSD-Q28HzbeOJrLyRcN4v7q8vXCFbw4JOLUIp1yRtC9h05j1unI15hhMbkG8Hl0MGWr0NT2PKHxLidJWTxr56aARmJ_OrSD85ZQ08bZhYCIjNcFWLbfb1s8dWMb_6ybTDxcHWK9t3gXjyx4zddwrHA7w6bguuMmLEjMG3-bnO-PgR-yEzUtPx2fq8T3asCwQ4l0eg0cRFyDlDzboYSwzoyaQHftml10p5Zre-1YBzQArGa_puGcd3VJhGzvs-sD3zqHtrDXALUSXTc-9D4ioMvhtKFwr_ML9i4SMtGrGIeVH-EBQPplqSfArGRZqCDIrevmQAgmw7OzbdPZW1ePSY8R-ozaySQq9eyQP2NPGeRuvPDpyHyLqyhUYSxNtIpapgq6Cy5Wq0gmXBm3SyhKQy2fxFj-xBbnjemWsQPun712y39OAdKxI1ArbiRBefViobZHDmeRvrVmq2SxV2tFmLA1E7qpYxfZYNq1XJFoQNcSmqOMX2fwbfuXTZmuJoSKh-H9axZhLy0wdZE9-sxPPyrHYyyM-Wpo3m00]--></g></svg>