<?xml version="1.0" encoding="us-ascii" standalone="no"?><svg xmlns="http://www.w3.org/2000/svg" xmlns:xlink="http://www.w3.org/1999/xlink" contentStyleType="text/css" height="826px" preserveAspectRatio="none" style="width:716px;height:826px;background:#FFFFFF;" version="1.1" viewBox="0 0 716 826" width="716px" zoomAndPan="magnify"><defs/><g><text fill="#000000" font-family="sans-serif" font-size="14" font-weight="bold" lengthAdjust="spacing" textLength="228" x="245.75" y="30.1074">System Sequence Diagram (SSD)</text><rect fill="#FFFFFF" height="601.5293" style="stroke:#181818;stroke-width:1.0;" width="10" x="48.5" y="133.2422"/><rect fill="#FFFFFF" height="31.291" style="stroke:#181818;stroke-width:1.0;" width="10" x="653.5" y="156.5332"/><rect fill="#FFFFFF" height="31.291" style="stroke:#181818;stroke-width:1.0;" width="10" x="653.5" y="219.1152"/><rect fill="#FFFFFF" height="31.291" style="stroke:#181818;stroke-width:1.0;" width="10" x="653.5" y="281.6973"/><rect fill="#FFFFFF" height="57.582" style="stroke:#181818;stroke-width:1.0;" width="10" x="653.5" y="344.2793"/><rect fill="#FFFFFF" height="64.582" style="stroke:#181818;stroke-width:1.0;" width="10" x="653.5" y="433.1523"/><rect fill="#FFFFFF" height="57.582" style="stroke:#181818;stroke-width:1.0;" width="10" x="653.5" y="529.0254"/><rect fill="#FFFFFF" height="45.291" style="stroke:#181818;stroke-width:1.0;" width="10" x="653.5" y="617.8984"/><rect fill="#FFFFFF" height="31.291" style="stroke:#181818;stroke-width:1.0;" width="10" x="653.5" y="694.4805"/><rect fill="none" height="81.873" style="stroke:#000000;stroke-width:1.5;" width="680.5" x="20" y="359.2793"/><rect fill="none" height="177.7461" style="stroke:#000000;stroke-width:1.5;" width="700.5" x="10" y="455.1523"/><rect fill="none" height="81.873" style="stroke:#000000;stroke-width:1.5;" width="680.5" x="20" y="544.0254"/><line style="stroke:#181818;stroke-width:0.5;stroke-dasharray:5.0,5.0;" x1="53" x2="53" y1="123.2422" y2="743.7715"/><line style="stroke:#181818;stroke-width:0.5;stroke-dasharray:5.0,5.0;" x1="658.5" x2="658.5" y1="123.2422" y2="743.7715"/><text fill="#000000" font-family="sans-serif" font-size="14" lengthAdjust="spacing" textLength="41" x="30" y="119.7285">Owner</text><ellipse cx="53.5" cy="53.1211" fill="#E3E3E3" rx="8" ry="8" style="stroke:#181818;stroke-width:0.5;"/><path d="M53.5,61.1211 L53.5,88.1211 M40.5,69.1211 L66.5,69.1211 M53.5,88.1211 L40.5,103.1211 M53.5,88.1211 L66.5,103.1211 " fill="none" style="stroke:#181818;stroke-width:0.5;"/><text fill="#000000" font-family="sans-serif" font-size="14" lengthAdjust="spacing" textLength="41" x="30" y="757.8789">Owner</text><ellipse cx="53.5" cy="769.8926" fill="#E3E3E3" rx="8" ry="8" style="stroke:#181818;stroke-width:0.5;"/><path d="M53.5,777.8926 L53.5,804.8926 M40.5,785.8926 L66.5,785.8926 M53.5,804.8926 L40.5,819.8926 M53.5,804.8926 L66.5,819.8926 " fill="none" style="stroke:#181818;stroke-width:0.5;"/><rect fill="#E3E3E3" height="32.6211" rx="2.5" ry="2.5" style="stroke:#181818;stroke-width:0.5;" width="64" x="626.5" y="89.6211"/><text fill="#000000" font-family="sans-serif" font-size="14" lengthAdjust="spacing" textLength="50" x="633.5" y="111.7285">:System</text><rect fill="#E3E3E3" height="32.6211" rx="2.5" ry="2.5" style="stroke:#181818;stroke-width:0.5;" width="64" x="626.5" y="742.7715"/><text fill="#000000" font-family="sans-serif" font-size="14" lengthAdjust="spacing" textLength="50" x="633.5" y="764.8789">:System</text><rect fill="#FFFFFF" height="601.5293" style="stroke:#181818;stroke-width:1.0;" width="10" x="48.5" y="133.2422"/><rect fill="#FFFFFF" height="31.291" style="stroke:#181818;stroke-width:1.0;" width="10" x="653.5" y="156.5332"/><rect fill="#FFFFFF" height="31.291" style="stroke:#181818;stroke-width:1.0;" width="10" x="653.5" y="219.1152"/><rect fill="#FFFFFF" height="31.291" style="stroke:#181818;stroke-width:1.0;" width="10" x="653.5" y="281.6973"/><rect fill="#FFFFFF" height="57.582" style="stroke:#181818;stroke-width:1.0;" width="10" x="653.5" y="344.2793"/><rect fill="#FFFFFF" height="64.582" style="stroke:#181818;stroke-width:1.0;" width="10" x="653.5" y="433.1523"/><rect fill="#FFFFFF" height="57.582" style="stroke:#181818;stroke-width:1.0;" width="10" x="653.5" y="529.0254"/><rect fill="#FFFFFF" height="45.291" style="stroke:#181818;stroke-width:1.0;" width="10" x="653.5" y="617.8984"/><rect fill="#FFFFFF" height="31.291" style="stroke:#181818;stroke-width:1.0;" width="10" x="653.5" y="694.4805"/><polygon fill="#181818" points="641.5,152.5332,651.5,156.5332,641.5,160.5332,645.5,156.5332" style="stroke:#181818;stroke-width:1.0;"/><line style="stroke:#181818;stroke-width:1.0;" x1="58.5" x2="647.5" y1="156.5332" y2="156.5332"/><text fill="#000000" font-family="sans-serif" font-size="13" font-weight="bold" lengthAdjust="spacing" textLength="7" x="65.5" y="151.2705">1</text><text fill="#000000" font-family="sans-serif" font-size="13" lengthAdjust="spacing" textLength="228" x="76.5" y="151.2705">asks to create a new are request listing</text><polygon fill="#181818" points="69.5,183.8242,59.5,187.8242,69.5,191.8242,65.5,187.8242" style="stroke:#181818;stroke-width:1.0;"/><line style="stroke:#181818;stroke-width:1.0;stroke-dasharray:2.0,2.0;" x1="63.5" x2="657.5" y1="187.8242" y2="187.8242"/><text fill="#000000" font-family="sans-serif" font-size="13" font-weight="bold" lengthAdjust="spacing" textLength="7" x="75.5" y="182.5615">2</text><text fill="#000000" font-family="sans-serif" font-size="13" lengthAdjust="spacing" textLength="274" x="86.5" y="182.5615">shows property type list and asks to select one</text><polygon fill="#181818" points="641.5,215.1152,651.5,219.1152,641.5,223.1152,645.5,219.1152" style="stroke:#181818;stroke-width:1.0;"/><line style="stroke:#181818;stroke-width:1.0;" x1="58.5" x2="647.5" y1="219.1152" y2="219.1152"/><text fill="#000000" font-family="sans-serif" font-size="13" font-weight="bold" lengthAdjust="spacing" textLength="7" x="65.5" y="213.8525">3</text><text fill="#000000" font-family="sans-serif" font-size="13" lengthAdjust="spacing" textLength="122" x="76.5" y="213.8525">selects property type</text><polygon fill="#181818" points="69.5,246.4063,59.5,250.4063,69.5,254.4063,65.5,250.4063" style="stroke:#181818;stroke-width:1.0;"/><line style="stroke:#181818;stroke-width:1.0;stroke-dasharray:2.0,2.0;" x1="63.5" x2="657.5" y1="250.4063" y2="250.4063"/><text fill="#000000" font-family="sans-serif" font-size="13" font-weight="bold" lengthAdjust="spacing" textLength="7" x="75.5" y="245.1436">4</text><text fill="#000000" font-family="sans-serif" font-size="13" lengthAdjust="spacing" textLength="251" x="86.5" y="245.1436">shows list of agents and asks to select one</text><polygon fill="#181818" points="641.5,277.6973,651.5,281.6973,641.5,285.6973,645.5,281.6973" style="stroke:#181818;stroke-width:1.0;"/><line style="stroke:#181818;stroke-width:1.0;" x1="58.5" x2="647.5" y1="281.6973" y2="281.6973"/><text fill="#000000" font-family="sans-serif" font-size="13" font-weight="bold" lengthAdjust="spacing" textLength="7" x="65.5" y="276.4346">5</text><text fill="#000000" font-family="sans-serif" font-size="13" lengthAdjust="spacing" textLength="78" x="76.5" y="276.4346">selects agent</text><polygon fill="#181818" points="69.5,308.9883,59.5,312.9883,69.5,316.9883,65.5,312.9883" style="stroke:#181818;stroke-width:1.0;"/><line style="stroke:#181818;stroke-width:1.0;stroke-dasharray:2.0,2.0;" x1="63.5" x2="657.5" y1="312.9883" y2="312.9883"/><text fill="#000000" font-family="sans-serif" font-size="13" font-weight="bold" lengthAdjust="spacing" textLength="7" x="75.5" y="307.7256">6</text><text fill="#000000" font-family="sans-serif" font-size="13" lengthAdjust="spacing" textLength="560" x="86.5" y="307.7256">requests data(property size, distance from centre, street name, city name, state name, zip code)</text><polygon fill="#181818" points="641.5,340.2793,651.5,344.2793,641.5,348.2793,645.5,344.2793" style="stroke:#181818;stroke-width:1.0;"/><line style="stroke:#181818;stroke-width:1.0;" x1="58.5" x2="647.5" y1="344.2793" y2="344.2793"/><text fill="#000000" font-family="sans-serif" font-size="13" font-weight="bold" lengthAdjust="spacing" textLength="7" x="65.5" y="339.0166">7</text><text fill="#000000" font-family="sans-serif" font-size="13" lengthAdjust="spacing" textLength="125" x="76.5" y="339.0166">inputs requested data</text><path d="M20,359.2793 L93,359.2793 L93,368.5703 L83,378.5703 L20,378.5703 L20,359.2793 " fill="#EEEEEE" style="stroke:#000000;stroke-width:1.5;"/><rect fill="none" height="81.873" style="stroke:#000000;stroke-width:1.5;" width="680.5" x="20" y="359.2793"/><text fill="#000000" font-family="sans-serif" font-size="13" font-weight="bold" lengthAdjust="spacing" textLength="28" x="35" y="374.3076">loop</text><text fill="#000000" font-family="sans-serif" font-size="11" font-weight="bold" lengthAdjust="spacing" textLength="187" x="108" y="373.1494">[while owner has photos to input]</text><polygon fill="#181818" points="69.5,397.8613,59.5,401.8613,69.5,405.8613,65.5,401.8613" style="stroke:#181818;stroke-width:1.0;"/><line style="stroke:#181818;stroke-width:1.0;stroke-dasharray:2.0,2.0;" x1="63.5" x2="657.5" y1="401.8613" y2="401.8613"/><text fill="#000000" font-family="sans-serif" font-size="13" font-weight="bold" lengthAdjust="spacing" textLength="7" x="75.5" y="396.5986">8</text><text fill="#000000" font-family="sans-serif" font-size="13" lengthAdjust="spacing" textLength="107" x="86.5" y="396.5986">requests photoURI</text><polygon fill="#181818" points="641.5,429.1523,651.5,433.1523,641.5,437.1523,645.5,433.1523" style="stroke:#181818;stroke-width:1.0;"/><line style="stroke:#181818;stroke-width:1.0;" x1="58.5" x2="647.5" y1="433.1523" y2="433.1523"/><text fill="#000000" font-family="sans-serif" font-size="13" font-weight="bold" lengthAdjust="spacing" textLength="7" x="65.5" y="427.8896">9</text><text fill="#000000" font-family="sans-serif" font-size="13" lengthAdjust="spacing" textLength="125" x="76.5" y="427.8896">inputs requested data</text><path d="M10,455.1523 L71,455.1523 L71,464.4434 L61,474.4434 L10,474.4434 L10,455.1523 " fill="#EEEEEE" style="stroke:#000000;stroke-width:1.5;"/><rect fill="none" height="177.7461" style="stroke:#000000;stroke-width:1.5;" width="700.5" x="10" y="455.1523"/><text fill="#000000" font-family="sans-serif" font-size="13" font-weight="bold" lengthAdjust="spacing" textLength="16" x="25" y="470.1807">alt</text><text fill="#000000" font-family="sans-serif" font-size="11" font-weight="bold" lengthAdjust="spacing" textLength="262" x="86" y="469.0225">[if the property type is "Apartment" or "House"]</text><polygon fill="#181818" points="69.5,493.7344,59.5,497.7344,69.5,501.7344,65.5,497.7344" style="stroke:#181818;stroke-width:1.0;"/><line style="stroke:#181818;stroke-width:1.0;stroke-dasharray:2.0,2.0;" x1="63.5" x2="657.5" y1="497.7344" y2="497.7344"/><text fill="#000000" font-family="sans-serif" font-size="13" font-weight="bold" lengthAdjust="spacing" textLength="14" x="75.5" y="492.4717">10</text><text fill="#000000" font-family="sans-serif" font-size="13" lengthAdjust="spacing" textLength="497" x="93.5" y="492.4717">requests data(bedrooms, bathrooms, parking spaces, air conditioning, central heating)</text><polygon fill="#181818" points="641.5,525.0254,651.5,529.0254,641.5,533.0254,645.5,529.0254" style="stroke:#181818;stroke-width:1.0;"/><line style="stroke:#181818;stroke-width:1.0;" x1="58.5" x2="647.5" y1="529.0254" y2="529.0254"/><text fill="#000000" font-family="sans-serif" font-size="13" font-weight="bold" lengthAdjust="spacing" textLength="14" x="65.5" y="523.7627">11</text><text fill="#000000" font-family="sans-serif" font-size="13" lengthAdjust="spacing" textLength="125" x="83.5" y="523.7627">inputs requested data</text><path d="M20,544.0254 L81,544.0254 L81,553.3164 L71,563.3164 L20,563.3164 L20,544.0254 " fill="#EEEEEE" style="stroke:#000000;stroke-width:1.5;"/><rect fill="none" height="81.873" style="stroke:#000000;stroke-width:1.5;" width="680.5" x="20" y="544.0254"/><text fill="#000000" font-family="sans-serif" font-size="13" font-weight="bold" lengthAdjust="spacing" textLength="16" x="35" y="559.0537">alt</text><text fill="#000000" font-family="sans-serif" font-size="11" font-weight="bold" lengthAdjust="spacing" textLength="175" x="96" y="557.8955">[if the property type is "House"]</text><polygon fill="#181818" points="69.5,582.6074,59.5,586.6074,69.5,590.6074,65.5,586.6074" style="stroke:#181818;stroke-width:1.0;"/><line style="stroke:#181818;stroke-width:1.0;stroke-dasharray:2.0,2.0;" x1="63.5" x2="657.5" y1="586.6074" y2="586.6074"/><text fill="#000000" font-family="sans-serif" font-size="13" font-weight="bold" lengthAdjust="spacing" textLength="14" x="75.5" y="581.3447">12</text><text fill="#000000" font-family="sans-serif" font-size="13" lengthAdjust="spacing" textLength="255" x="93.5" y="581.3447">requests data(basement, loft, sun exposure)</text><polygon fill="#181818" points="641.5,613.8984,651.5,617.8984,641.5,621.8984,645.5,617.8984" style="stroke:#181818;stroke-width:1.0;"/><line style="stroke:#181818;stroke-width:1.0;" x1="58.5" x2="647.5" y1="617.8984" y2="617.8984"/><text fill="#000000" font-family="sans-serif" font-size="13" font-weight="bold" lengthAdjust="spacing" textLength="14" x="65.5" y="612.6357">13</text><text fill="#000000" font-family="sans-serif" font-size="13" lengthAdjust="spacing" textLength="125" x="83.5" y="612.6357">inputs requested data</text><polygon fill="#181818" points="69.5,659.1895,59.5,663.1895,69.5,667.1895,65.5,663.1895" style="stroke:#181818;stroke-width:1.0;"/><line style="stroke:#181818;stroke-width:1.0;stroke-dasharray:2.0,2.0;" x1="63.5" x2="657.5" y1="663.1895" y2="663.1895"/><text fill="#000000" font-family="sans-serif" font-size="13" font-weight="bold" lengthAdjust="spacing" textLength="14" x="75.5" y="657.9268">14</text><text fill="#000000" font-family="sans-serif" font-size="13" lengthAdjust="spacing" textLength="493" x="93.5" y="657.9268">requests data(transaction type, monetary value, commission data, commission value)</text><polygon fill="#181818" points="641.5,690.4805,651.5,694.4805,641.5,698.4805,645.5,694.4805" style="stroke:#181818;stroke-width:1.0;"/><line style="stroke:#181818;stroke-width:1.0;" x1="58.5" x2="647.5" y1="694.4805" y2="694.4805"/><text fill="#000000" font-family="sans-serif" font-size="13" font-weight="bold" lengthAdjust="spacing" textLength="14" x="65.5" y="689.2178">15</text><text fill="#000000" font-family="sans-serif" font-size="13" lengthAdjust="spacing" textLength="125" x="83.5" y="689.2178">inputs requested data</text><polygon fill="#181818" points="69.5,721.7715,59.5,725.7715,69.5,729.7715,65.5,725.7715" style="stroke:#181818;stroke-width:1.0;"/><line style="stroke:#181818;stroke-width:1.0;stroke-dasharray:2.0,2.0;" x1="63.5" x2="657.5" y1="725.7715" y2="725.7715"/><text fill="#000000" font-family="sans-serif" font-size="13" font-weight="bold" lengthAdjust="spacing" textLength="14" x="75.5" y="720.5088">16</text><text fill="#000000" font-family="sans-serif" font-size="13" lengthAdjust="spacing" textLength="195" x="93.5" y="720.5088">display operation status message</text><!--SRC=[jLNDRjim3BxhAOYS6Y1zWHm63EXXEmrOi0TWR2OMOekkI3TpdtwKR0VDZzkcm7HmQ9dyI7xwnCZ1XnOZDj1muAAAt11exCZ9wKkBnG7tjD6-9eXKA8Pz_TP1AYpvwCCUTbWBEQTUpNNJYr836thkA1G4JnxtoVrXitbQEeUTSkYQBKMp2-K8Yr_7G741A90jP_3g2zzYK5Yi1xpyUJ1pd7z1fT7VWQrimkEtAV_Q0Wu2ob14Ihu8WOw0CJLZfOb2xKMj_1n-WfnomBX6k4T37bAihN4-2hIHMuhQW_OjPIp0K9wo2jN66N2W35NIpGpNLGzn5_3p9SwMbmlY7TWH1eDxfxHfpPGuhVbISuepttiP7Kz4e4J5XrFhubzf1QLrWab9EvCf59OhsgxOanG2DlPIUFCUJFErd8FzwbiekAJbVKTW0k-ibh4eAdDLxiE-fbKpjt2ilDq5pjYLIRUjM3cpdz7TTTZRzHv56UdFxv-p0DTzNdhSs_9SwzC-XVAYeIkIi5RmEz2ABYwE5rXyJpU-iODTG9e7FxWJMhXxICcwsL8PcHjPmHQr6as3FgGP9JRFoDxHHzD4ABrw3lPXDIWAQwXiJDZ6yfENuWiaNa6TaVOkHICdxYu-K2YnkZ99xkmfNG3wsx9qaPRki-AvfTIl2kZZ6qHfJjNgfbzthmZiA8Ea31moUwlq5qUAiOSNhBiqBBXfl4XoI15d6zdbZ9l_Au3R1BdvPcqOjZNsaFI1kSaqy3g1XaHi4CzCkdy0]--></g></svg>