<?xml version="1.0" encoding="us-ascii" standalone="no"?><svg xmlns="http://www.w3.org/2000/svg" xmlns:xlink="http://www.w3.org/1999/xlink" contentStyleType="text/css" height="531px" preserveAspectRatio="none" style="width:562px;height:531px;background:#FFFFFF;" version="1.1" viewBox="0 0 562 531" width="562px" zoomAndPan="magnify"><defs/><g><text fill="#000000" font-family="sans-serif" font-size="14" font-weight="bold" lengthAdjust="spacing" textLength="228" x="166.25" y="27.6738">System Sequence Diagram (SSD)</text><rect fill="#FFFFFF" height="315.2813" style="stroke:#181818;stroke-width:1.0;" width="10" x="44.5" y="127.2813"/><rect fill="#FFFFFF" height="57.5703" style="stroke:#181818;stroke-width:1.0;" width="10" x="519.5" y="147.8047"/><rect fill="#FFFFFF" height="28.5234" style="stroke:#181818;stroke-width:1.0;" width="10" x="519.5" y="233.8984"/><rect fill="#FFFFFF" height="28.5234" style="stroke:#181818;stroke-width:1.0;" width="10" x="519.5" y="290.9453"/><rect fill="#FFFFFF" height="28.5234" style="stroke:#181818;stroke-width:1.0;" width="10" x="519.5" y="347.9922"/><rect fill="#FFFFFF" height="28.5234" style="stroke:#181818;stroke-width:1.0;" width="10" x="519.5" y="405.0391"/><line style="stroke:#181818;stroke-width:0.5;stroke-dasharray:5.0,5.0;" x1="49" x2="49" y1="117.2813" y2="451.5625"/><line style="stroke:#181818;stroke-width:0.5;stroke-dasharray:5.0,5.0;" x1="524.5" x2="524.5" y1="117.2813" y2="451.5625"/><text fill="#000000" font-family="sans-serif" font-size="14" lengthAdjust="spacing" textLength="83" x="5" y="114.3145">Administrator</text><ellipse cx="49.5" cy="50.1406" fill="#E3E3E3" rx="8" ry="8" style="stroke:#181818;stroke-width:0.5;"/><path d="M49.5,58.1406 L49.5,85.1406 M36.5,66.1406 L62.5,66.1406 M49.5,85.1406 L36.5,100.1406 M49.5,85.1406 L62.5,100.1406 " fill="none" style="stroke:#181818;stroke-width:0.5;"/><text fill="#000000" font-family="sans-serif" font-size="14" lengthAdjust="spacing" textLength="83" x="5" y="463.2363">Administrator</text><ellipse cx="49.5" cy="474.7031" fill="#E3E3E3" rx="8" ry="8" style="stroke:#181818;stroke-width:0.5;"/><path d="M49.5,482.7031 L49.5,509.7031 M36.5,490.7031 L62.5,490.7031 M49.5,509.7031 L36.5,524.7031 M49.5,509.7031 L62.5,524.7031 " fill="none" style="stroke:#181818;stroke-width:0.5;"/><rect fill="#E3E3E3" height="29.6406" rx="2.5" ry="2.5" style="stroke:#181818;stroke-width:0.5;" width="64" x="492.5" y="86.6406"/><text fill="#000000" font-family="sans-serif" font-size="14" lengthAdjust="spacing" textLength="50" x="499.5" y="106.3145">:System</text><rect fill="#E3E3E3" height="29.6406" rx="2.5" ry="2.5" style="stroke:#181818;stroke-width:0.5;" width="64" x="492.5" y="450.5625"/><text fill="#000000" font-family="sans-serif" font-size="14" lengthAdjust="spacing" textLength="50" x="499.5" y="470.2363">:System</text><rect fill="#FFFFFF" height="315.2813" style="stroke:#181818;stroke-width:1.0;" width="10" x="44.5" y="127.2813"/><rect fill="#FFFFFF" height="57.5703" style="stroke:#181818;stroke-width:1.0;" width="10" x="519.5" y="147.8047"/><rect fill="#FFFFFF" height="28.5234" style="stroke:#181818;stroke-width:1.0;" width="10" x="519.5" y="233.8984"/><rect fill="#FFFFFF" height="28.5234" style="stroke:#181818;stroke-width:1.0;" width="10" x="519.5" y="290.9453"/><rect fill="#FFFFFF" height="28.5234" style="stroke:#181818;stroke-width:1.0;" width="10" x="519.5" y="347.9922"/><rect fill="#FFFFFF" height="28.5234" style="stroke:#181818;stroke-width:1.0;" width="10" x="519.5" y="405.0391"/><polygon fill="#181818" points="507.5,143.8047,517.5,147.8047,507.5,151.8047,511.5,147.8047" style="stroke:#181818;stroke-width:1.0;"/><line style="stroke:#181818;stroke-width:1.0;" x1="54.5" x2="513.5" y1="147.8047" y2="147.8047"/><text fill="#000000" font-family="sans-serif" font-size="13" font-weight="bold" lengthAdjust="spacing" textLength="7" x="61.5" y="143.0498">1</text><text fill="#000000" font-family="sans-serif" font-size="13" lengthAdjust="spacing" textLength="181" x="72.5" y="143.0498">asks to create a new employee</text><polygon fill="#181818" points="65.5,201.375,55.5,205.375,65.5,209.375,61.5,205.375" style="stroke:#181818;stroke-width:1.0;"/><line style="stroke:#181818;stroke-width:1.0;stroke-dasharray:2.0,2.0;" x1="59.5" x2="523.5" y1="205.375" y2="205.375"/><text fill="#000000" font-family="sans-serif" font-size="13" font-weight="bold" lengthAdjust="spacing" textLength="7" x="71.5" y="186.0967">2</text><text fill="#000000" font-family="sans-serif" font-size="13" lengthAdjust="spacing" textLength="301" x="82.5" y="171.5732">requests data (the name, the passport card number,</text><text fill="#000000" font-family="sans-serif" font-size="13" lengthAdjust="spacing" textLength="335" x="86.5" y="186.0967">the tax number, the address (optional), the email address,</text><text fill="#000000" font-family="sans-serif" font-size="13" lengthAdjust="spacing" textLength="176" x="82.5" y="200.6201">the contact telephone number)</text><polygon fill="#181818" points="507.5,229.8984,517.5,233.8984,507.5,237.8984,511.5,233.8984" style="stroke:#181818;stroke-width:1.0;"/><line style="stroke:#181818;stroke-width:1.0;" x1="54.5" x2="513.5" y1="233.8984" y2="233.8984"/><text fill="#000000" font-family="sans-serif" font-size="13" font-weight="bold" lengthAdjust="spacing" textLength="7" x="61.5" y="229.1436">3</text><text fill="#000000" font-family="sans-serif" font-size="13" lengthAdjust="spacing" textLength="122" x="72.5" y="229.1436">types requested data</text><polygon fill="#181818" points="65.5,258.4219,55.5,262.4219,65.5,266.4219,61.5,262.4219" style="stroke:#181818;stroke-width:1.0;"/><line style="stroke:#181818;stroke-width:1.0;stroke-dasharray:2.0,2.0;" x1="59.5" x2="523.5" y1="262.4219" y2="262.4219"/><text fill="#000000" font-family="sans-serif" font-size="13" font-weight="bold" lengthAdjust="spacing" textLength="7" x="71.5" y="257.667">4</text><text fill="#000000" font-family="sans-serif" font-size="13" lengthAdjust="spacing" textLength="240" x="82.5" y="257.667">shows agency list and asks to select one</text><polygon fill="#181818" points="507.5,286.9453,517.5,290.9453,507.5,294.9453,511.5,290.9453" style="stroke:#181818;stroke-width:1.0;"/><line style="stroke:#181818;stroke-width:1.0;" x1="54.5" x2="513.5" y1="290.9453" y2="290.9453"/><text fill="#000000" font-family="sans-serif" font-size="13" font-weight="bold" lengthAdjust="spacing" textLength="7" x="61.5" y="286.1904">5</text><text fill="#000000" font-family="sans-serif" font-size="13" lengthAdjust="spacing" textLength="106" x="72.5" y="286.1904">selects an agency</text><polygon fill="#181818" points="65.5,315.4688,55.5,319.4688,65.5,323.4688,61.5,319.4688" style="stroke:#181818;stroke-width:1.0;"/><line style="stroke:#181818;stroke-width:1.0;stroke-dasharray:2.0,2.0;" x1="59.5" x2="523.5" y1="319.4688" y2="319.4688"/><text fill="#000000" font-family="sans-serif" font-size="13" font-weight="bold" lengthAdjust="spacing" textLength="7" x="71.5" y="314.7139">6</text><text fill="#000000" font-family="sans-serif" font-size="13" lengthAdjust="spacing" textLength="219" x="82.5" y="314.7139">shows role list and asks to select one</text><polygon fill="#181818" points="507.5,343.9922,517.5,347.9922,507.5,351.9922,511.5,347.9922" style="stroke:#181818;stroke-width:1.0;"/><line style="stroke:#181818;stroke-width:1.0;" x1="54.5" x2="513.5" y1="347.9922" y2="347.9922"/><text fill="#000000" font-family="sans-serif" font-size="13" font-weight="bold" lengthAdjust="spacing" textLength="7" x="61.5" y="343.2373">7</text><text fill="#000000" font-family="sans-serif" font-size="13" lengthAdjust="spacing" textLength="78" x="72.5" y="343.2373">selects a role</text><polygon fill="#181818" points="65.5,372.5156,55.5,376.5156,65.5,380.5156,61.5,376.5156" style="stroke:#181818;stroke-width:1.0;"/><line style="stroke:#181818;stroke-width:1.0;stroke-dasharray:2.0,2.0;" x1="59.5" x2="523.5" y1="376.5156" y2="376.5156"/><text fill="#000000" font-family="sans-serif" font-size="13" font-weight="bold" lengthAdjust="spacing" textLength="7" x="71.5" y="371.7607">8</text><text fill="#000000" font-family="sans-serif" font-size="13" lengthAdjust="spacing" textLength="430" x="82.5" y="371.7607">shows selected agency, selected role, requested data and asks to confirm</text><polygon fill="#181818" points="507.5,401.0391,517.5,405.0391,507.5,409.0391,511.5,405.0391" style="stroke:#181818;stroke-width:1.0;"/><line style="stroke:#181818;stroke-width:1.0;" x1="54.5" x2="513.5" y1="405.0391" y2="405.0391"/><text fill="#000000" font-family="sans-serif" font-size="13" font-weight="bold" lengthAdjust="spacing" textLength="7" x="61.5" y="400.2842">9</text><text fill="#000000" font-family="sans-serif" font-size="13" lengthAdjust="spacing" textLength="75" x="72.5" y="400.2842">submits data</text><polygon fill="#181818" points="65.5,429.5625,55.5,433.5625,65.5,437.5625,61.5,433.5625" style="stroke:#181818;stroke-width:1.0;"/><line style="stroke:#181818;stroke-width:1.0;stroke-dasharray:2.0,2.0;" x1="59.5" x2="523.5" y1="433.5625" y2="433.5625"/><text fill="#000000" font-family="sans-serif" font-size="13" font-weight="bold" lengthAdjust="spacing" textLength="14" x="71.5" y="428.8076">10</text><text fill="#000000" font-family="sans-serif" font-size="13" lengthAdjust="spacing" textLength="158" x="89.5" y="428.8076">displays operation success</text><!--SRC=[dPFDRjim3CVlVWeYfmH8No270WNw1hxkmafCB4IYD95kvhSVBJjfjtOO4fqeVlpz8qNBEN31YWbIvko6cXE1rf4wkKKAkZEUgDSf4bHoYdoAdnDaG9ylWKzmn2ZKTHhKKlj9b1Bqz7CaTWIl0Kzp-hRlNtTTXwDc7jCRLRETvWgR5vy21z6ATjq02ZHFPv_Hu491LjWS5jqMNinM7zvHQStlm4upuUdvod6mWhE0Pd2Lvbm4fWjGAZ5FHAtcfdCLXlMi6aycj-WUR1BMbwY0HqNOwa30c6WFirLGfEIguB1wMDhSmmzkGSLVDzTyH-yhYS0s5msPCUuMFoKCyHgTgsUdowo62KgHof2PLgbTO_NqRGjVPw5J8RdsGBurSVS8PCWN0TiDTXD4UpX0zhSnYn4Qg27UXxRKcIwlqWzorMnB-3-gnyYQzeDOYuYDV6bk_-6OHVT_lSaVxFRsnr3JdUCStr9Or_HkP1-aH9m4SY7xAsqxJSyvsyT_GFm6]--></g></svg>