<?xml version="1.0" encoding="us-ascii" standalone="no"?><svg xmlns="http://www.w3.org/2000/svg" xmlns:xlink="http://www.w3.org/1999/xlink" contentStyleType="text/css" height="543px" preserveAspectRatio="none" style="width:616px;height:543px;background:#FFFFFF;" version="1.1" viewBox="0 0 616 543" width="616px" zoomAndPan="magnify"><defs/><g><text fill="#000000" font-family="sans-serif" font-size="14" font-weight="bold" lengthAdjust="spacing" textLength="228" x="195.75" y="30.1074">System Sequence Diagram (SSD)</text><rect fill="#FFFFFF" height="316.9102" style="stroke:#181818;stroke-width:1.0;" width="10" x="32.5" y="133.2422"/><rect fill="#FFFFFF" height="31.291" style="stroke:#181818;stroke-width:1.0;" width="10" x="563.5" y="156.5332"/><rect fill="#FFFFFF" height="31.291" style="stroke:#181818;stroke-width:1.0;" width="10" x="563.5" y="219.1152"/><rect fill="#FFFFFF" height="168.4551" style="stroke:#181818;stroke-width:1.0;" width="10" x="563.5" y="281.6973"/><rect fill="none" height="50.582" style="stroke:#000000;stroke-width:1.5;" width="600.5" x="10" y="327.9883"/><rect fill="none" height="50.582" style="stroke:#000000;stroke-width:1.5;" width="600.5" x="10" y="392.5703"/><line style="stroke:#181818;stroke-width:0.5;stroke-dasharray:5.0,5.0;" x1="37" x2="37" y1="123.2422" y2="460.1523"/><line style="stroke:#181818;stroke-width:0.5;stroke-dasharray:5.0,5.0;" x1="568.5" x2="568.5" y1="123.2422" y2="460.1523"/><text fill="#000000" font-family="sans-serif" font-size="14" lengthAdjust="spacing" textLength="29" x="20" y="119.7285">User</text><ellipse cx="37.5" cy="53.1211" fill="#E3E3E3" rx="8" ry="8" style="stroke:#181818;stroke-width:0.5;"/><path d="M37.5,61.1211 L37.5,88.1211 M24.5,69.1211 L50.5,69.1211 M37.5,88.1211 L24.5,103.1211 M37.5,88.1211 L50.5,103.1211 " fill="none" style="stroke:#181818;stroke-width:0.5;"/><text fill="#000000" font-family="sans-serif" font-size="14" lengthAdjust="spacing" textLength="29" x="20" y="474.2598">User</text><ellipse cx="37.5" cy="486.2734" fill="#E3E3E3" rx="8" ry="8" style="stroke:#181818;stroke-width:0.5;"/><path d="M37.5,494.2734 L37.5,521.2734 M24.5,502.2734 L50.5,502.2734 M37.5,521.2734 L24.5,536.2734 M37.5,521.2734 L50.5,536.2734 " fill="none" style="stroke:#181818;stroke-width:0.5;"/><rect fill="#E3E3E3" height="32.6211" rx="2.5" ry="2.5" style="stroke:#181818;stroke-width:0.5;" width="64" x="536.5" y="89.6211"/><text fill="#000000" font-family="sans-serif" font-size="14" lengthAdjust="spacing" textLength="50" x="543.5" y="111.7285">:System</text><rect fill="#E3E3E3" height="32.6211" rx="2.5" ry="2.5" style="stroke:#181818;stroke-width:0.5;" width="64" x="536.5" y="459.1523"/><text fill="#000000" font-family="sans-serif" font-size="14" lengthAdjust="spacing" textLength="50" x="543.5" y="481.2598">:System</text><rect fill="#FFFFFF" height="316.9102" style="stroke:#181818;stroke-width:1.0;" width="10" x="32.5" y="133.2422"/><rect fill="#FFFFFF" height="31.291" style="stroke:#181818;stroke-width:1.0;" width="10" x="563.5" y="156.5332"/><rect fill="#FFFFFF" height="31.291" style="stroke:#181818;stroke-width:1.0;" width="10" x="563.5" y="219.1152"/><rect fill="#FFFFFF" height="168.4551" style="stroke:#181818;stroke-width:1.0;" width="10" x="563.5" y="281.6973"/><polygon fill="#181818" points="551.5,152.5332,561.5,156.5332,551.5,160.5332,555.5,156.5332" style="stroke:#181818;stroke-width:1.0;"/><line style="stroke:#181818;stroke-width:1.0;" x1="42.5" x2="557.5" y1="156.5332" y2="156.5332"/><text fill="#000000" font-family="sans-serif" font-size="13" font-weight="bold" lengthAdjust="spacing" textLength="7" x="49.5" y="151.2705">1</text><text fill="#000000" font-family="sans-serif" font-size="13" lengthAdjust="spacing" textLength="288" x="60.5" y="151.2705">selects the option to schedule a visit to a property</text><polygon fill="#181818" points="53.5,183.8242,43.5,187.8242,53.5,191.8242,49.5,187.8242" style="stroke:#181818;stroke-width:1.0;"/><line style="stroke:#181818;stroke-width:1.0;stroke-dasharray:2.0,2.0;" x1="47.5" x2="567.5" y1="187.8242" y2="187.8242"/><text fill="#000000" font-family="sans-serif" font-size="13" font-weight="bold" lengthAdjust="spacing" textLength="7" x="59.5" y="182.5615">2</text><text fill="#000000" font-family="sans-serif" font-size="13" lengthAdjust="spacing" textLength="251" x="70.5" y="182.5615">shows list of properties and asks to choose</text><polygon fill="#181818" points="551.5,215.1152,561.5,219.1152,551.5,223.1152,555.5,219.1152" style="stroke:#181818;stroke-width:1.0;"/><line style="stroke:#181818;stroke-width:1.0;" x1="42.5" x2="557.5" y1="219.1152" y2="219.1152"/><text fill="#000000" font-family="sans-serif" font-size="13" font-weight="bold" lengthAdjust="spacing" textLength="7" x="49.5" y="213.8525">3</text><text fill="#000000" font-family="sans-serif" font-size="13" lengthAdjust="spacing" textLength="111" x="60.5" y="213.8525">chooses a property</text><polygon fill="#181818" points="53.5,246.4063,43.5,250.4063,53.5,254.4063,49.5,250.4063" style="stroke:#181818;stroke-width:1.0;"/><line style="stroke:#181818;stroke-width:1.0;stroke-dasharray:2.0,2.0;" x1="47.5" x2="567.5" y1="250.4063" y2="250.4063"/><text fill="#000000" font-family="sans-serif" font-size="13" font-weight="bold" lengthAdjust="spacing" textLength="7" x="59.5" y="245.1436">4</text><text fill="#000000" font-family="sans-serif" font-size="13" lengthAdjust="spacing" textLength="117" x="70.5" y="245.1436">requests information</text><polygon fill="#181818" points="551.5,277.6973,561.5,281.6973,551.5,285.6973,555.5,281.6973" style="stroke:#181818;stroke-width:1.0;"/><line style="stroke:#181818;stroke-width:1.0;" x1="42.5" x2="557.5" y1="281.6973" y2="281.6973"/><text fill="#000000" font-family="sans-serif" font-size="13" font-weight="bold" lengthAdjust="spacing" textLength="7" x="49.5" y="276.4346">5</text><text fill="#000000" font-family="sans-serif" font-size="13" lengthAdjust="spacing" textLength="491" x="60.5" y="276.4346">types requested information (name, phone number, date and prefered window of time)</text><polygon fill="#181818" points="53.5,308.9883,43.5,312.9883,53.5,316.9883,49.5,312.9883" style="stroke:#181818;stroke-width:1.0;"/><line style="stroke:#181818;stroke-width:1.0;stroke-dasharray:2.0,2.0;" x1="47.5" x2="562.5" y1="312.9883" y2="312.9883"/><text fill="#000000" font-family="sans-serif" font-size="13" font-weight="bold" lengthAdjust="spacing" textLength="7" x="59.5" y="307.7256">6</text><text fill="#000000" font-family="sans-serif" font-size="13" lengthAdjust="spacing" textLength="282" x="70.5" y="307.7256">checks if the request overlaps with previous ones</text><path d="M10,327.9883 L71,327.9883 L71,337.2793 L61,347.2793 L10,347.2793 L10,327.9883 " fill="#EEEEEE" style="stroke:#000000;stroke-width:1.5;"/><rect fill="none" height="50.582" style="stroke:#000000;stroke-width:1.5;" width="600.5" x="10" y="327.9883"/><text fill="#000000" font-family="sans-serif" font-size="13" font-weight="bold" lengthAdjust="spacing" textLength="16" x="25" y="343.0166">alt</text><text fill="#000000" font-family="sans-serif" font-size="11" font-weight="bold" lengthAdjust="spacing" textLength="237" x="86" y="341.8584">["if request overlaps with an existing one"]</text><polygon fill="#181818" points="53.5,366.5703,43.5,370.5703,53.5,374.5703,49.5,370.5703" style="stroke:#181818;stroke-width:1.0;"/><line style="stroke:#181818;stroke-width:1.0;stroke-dasharray:2.0,2.0;" x1="47.5" x2="562.5" y1="370.5703" y2="370.5703"/><text fill="#000000" font-family="sans-serif" font-size="13" font-weight="bold" lengthAdjust="spacing" textLength="7" x="59.5" y="365.3076">7</text><text fill="#000000" font-family="sans-serif" font-size="13" lengthAdjust="spacing" textLength="339" x="70.5" y="365.3076">sends a message informing that the request already exists</text><path d="M10,392.5703 L71,392.5703 L71,401.8613 L61,411.8613 L10,411.8613 L10,392.5703 " fill="#EEEEEE" style="stroke:#000000;stroke-width:1.5;"/><rect fill="none" height="50.582" style="stroke:#000000;stroke-width:1.5;" width="600.5" x="10" y="392.5703"/><text fill="#000000" font-family="sans-serif" font-size="13" font-weight="bold" lengthAdjust="spacing" textLength="16" x="25" y="407.5986">alt</text><text fill="#000000" font-family="sans-serif" font-size="11" font-weight="bold" lengthAdjust="spacing" textLength="282" x="86" y="406.4404">["if request does not overlap with an existing one"]</text><polygon fill="#181818" points="53.5,431.1523,43.5,435.1523,53.5,439.1523,49.5,435.1523" style="stroke:#181818;stroke-width:1.0;"/><line style="stroke:#181818;stroke-width:1.0;stroke-dasharray:2.0,2.0;" x1="47.5" x2="562.5" y1="435.1523" y2="435.1523"/><text fill="#000000" font-family="sans-serif" font-size="13" font-weight="bold" lengthAdjust="spacing" textLength="7" x="59.5" y="429.8896">8</text><text fill="#000000" font-family="sans-serif" font-size="13" lengthAdjust="spacing" textLength="402" x="70.5" y="429.8896">sends a message informing that the request has been succefully sent</text><!--SRC=[hPDDRjmm38NtFWKngmH8BZ2BhdA004OEm4ZqI1XPL4LwKj- -rDZZJjhy846z4YozzpwHb1nZBbXnX94pkr1v9D0wKIVRJa5tn0FrEYU2Iaun7zBr0Gde-INc0moOXBfEezhHVXQb4NhwEL5s10yH3-tuJTy_t7OTJifv6f-fsjefLzWz2TKTeC0ZLU7ScRr65mjcXTr-yJllBykpBfvGwIBemBvb3VS_BWHx44h6BQ21W8j6srO6SO7yPAG8foXHsp-4KhbGrVdijGLS4c7zLkjxIrdpB2NmYq2Aei33nIUI06Plr4Tf0Iumjner4qzl-lzzWVqgackwh-FLrWYnAiGyS1snbU6B73eNerYDo5yxmKt6aUwW1Cu4IsFlm3VFTlrIQQ1g4fiJ6vPM88qZtNxZ7jOrPxMCmxcTAmpmYMh28XQWeSMT8ay21YER6oQR8zEzhS4CzCkQrmRPPBjDzd7JAVlMc954x9Mi9MaU6b1V8MAgX7vUKlvGcS6xX9wjtfatr4z8_pTniBVsJ9H19kTec5AQcrp_BKsxnBl3TFLheVWD]--></g></svg>