<?xml version="1.0" encoding="us-ascii" standalone="no"?><svg xmlns="http://www.w3.org/2000/svg" xmlns:xlink="http://www.w3.org/1999/xlink" contentStyleType="text/css" height="1071px" preserveAspectRatio="none" style="width:490px;height:1071px;background:#FFFFFF;" version="1.1" viewBox="0 0 490 1071" width="490px" zoomAndPan="magnify"><defs/><g><text fill="#000000" font-family="sans-serif" font-size="14" font-weight="bold" lengthAdjust="spacing" textLength="156" x="160" y="22.6738">Domain Model - US004</text><!--class OwnerSite--><g id="elem_OwnerSite"><rect
        fill="#F1F1F1" height="205.6875" id="OwnerSite" rx="2.5" ry="2.5" style="stroke:#181818;stroke-width:0.5;" width="138" x="7" y="43.6406"/><text fill="#000000" font-family="sans-serif" font-size="14" lengthAdjust="spacing" textLength="65" x="43.5" y="61.3145">OwnerSite</text><line style="stroke:#181818;stroke-width:0.5;" x1="8" x2="144" y1="69.2813" y2="69.2813"/><text fill="#000000" font-family="sans-serif" font-size="14" lengthAdjust="spacing" textLength="35" x="13" y="85.9551">name</text><text fill="#000000" font-family="sans-serif" font-size="14" lengthAdjust="spacing" textLength="126" x="13" y="101.5957">citizensCardNumber</text><text fill="#000000" font-family="sans-serif" font-size="14" lengthAdjust="spacing" textLength="67" x="13" y="117.2363">taxNumber</text><text fill="#000000" font-family="sans-serif" font-size="14" lengthAdjust="spacing" textLength="51" x="13" y="132.877">address</text><text fill="#000000" font-family="sans-serif" font-size="14" lengthAdjust="spacing" textLength="85" x="13" y="148.5176">emailAddress</text><text fill="#000000" font-family="sans-serif" font-size="14" lengthAdjust="spacing" textLength="112" x="13" y="164.1582">telephoneNumber</text><text fill="#000000" font-family="sans-serif" font-size="14" lengthAdjust="spacing" textLength="85" x="13" y="179.7988">propertyType</text><text fill="#000000" font-family="sans-serif" font-size="14" lengthAdjust="spacing" textLength="46" x="13" y="195.4395">agency</text><text fill="#000000" font-family="sans-serif" font-size="14" lengthAdjust="spacing" textLength="36" x="13" y="211.0801">agent</text><text fill="#000000" font-family="sans-serif" font-size="14" lengthAdjust="spacing" textLength="117" x="13" y="226.7207">transaction</text><text fill="#000000" font-family="sans-serif" font-size="14" lengthAdjust="spacing" textLength="34" x="13" y="242.3613">value</text></g><!--class Property--><g id="elem_Property"><rect
        fill="#F1F1F1" height="111.8438" id="Property" rx="2.5" ry="2.5" style="stroke:#181818;stroke-width:0.5;" width="141" x="186.5" y="513.6406"/><text fill="#000000" font-family="sans-serif" font-size="14" lengthAdjust="spacing" textLength="54" x="230" y="531.3145">Property</text><line style="stroke:#181818;stroke-width:0.5;" x1="187.5" x2="326.5" y1="539.2813" y2="539.2813"/><text fill="#000000" font-family="sans-serif" font-size="14" lengthAdjust="spacing" textLength="98" x="192.5" y="555.9551">areaOfProperty</text><text fill="#000000" font-family="sans-serif" font-size="14" lengthAdjust="spacing" textLength="118" x="192.5" y="571.5957">locationOfProperty</text><text fill="#000000" font-family="sans-serif" font-size="14" lengthAdjust="spacing" textLength="129" x="192.5" y="587.2363">distanceFromCentre</text><text fill="#000000" font-family="sans-serif" font-size="14" lengthAdjust="spacing" textLength="85" x="192.5" y="602.877">propertyPrice</text><text fill="#000000" font-family="sans-serif" font-size="14" lengthAdjust="spacing" textLength="112" x="192.5" y="618.5176">photosOfProperty</text></g><!--class Buildings--><g id="elem_Buildings"><rect
        fill="#F1F1F1" height="96.2031" id="Buildings" rx="2.5" ry="2.5" style="stroke:#181818;stroke-width:0.5;" width="135" x="243.5" y="701.6406"/><text fill="#000000" font-family="sans-serif" font-size="14" lengthAdjust="spacing" textLength="57" x="282.5" y="719.3145">Buildings</text><line style="stroke:#181818;stroke-width:0.5;" x1="244.5" x2="377.5" y1="727.2813" y2="727.2813"/><text fill="#000000" font-family="sans-serif" font-size="14" lengthAdjust="spacing" textLength="63" x="249.5" y="743.9551">bedrooms</text><text fill="#000000" font-family="sans-serif" font-size="14" lengthAdjust="spacing" textLength="67" x="249.5" y="759.5957">bathrooms</text><text fill="#000000" font-family="sans-serif" font-size="14" lengthAdjust="spacing" textLength="94" x="249.5" y="775.2363">parkingSpaces</text><text fill="#000000" font-family="sans-serif" font-size="14" lengthAdjust="spacing" textLength="123" x="249.5" y="790.877">availableEquipment</text></g><!--class House--><g id="elem_House"><rect
        fill="#F1F1F1" height="80.5625" id="House" rx="2.5" ry="2.5" style="stroke:#181818;stroke-width:0.5;" width="94" x="243" y="873.6406"/><text fill="#000000" font-family="sans-serif" font-size="14" lengthAdjust="spacing" textLength="40" x="270" y="891.3145">House</text><line style="stroke:#181818;stroke-width:0.5;" x1="244" x2="336" y1="899.2813" y2="899.2813"/><text fill="#000000" font-family="sans-serif" font-size="14" lengthAdjust="spacing" textLength="62" x="249" y="915.9551">basement</text><text fill="#000000" font-family="sans-serif" font-size="14" lengthAdjust="spacing" textLength="19" x="249" y="931.5957">loft</text><text fill="#000000" font-family="sans-serif" font-size="14" lengthAdjust="spacing" textLength="82" x="249" y="947.2363">sunExposure</text></g><!--class Location--><g id="elem_Location"><rect
        fill="#F1F1F1" height="111.8438" id="Location" rx="2.5" ry="2.5" style="stroke:#181818;stroke-width:0.5;" width="63" x="100.5" y="325.6406"/><text fill="#000000" font-family="sans-serif" font-size="14" lengthAdjust="spacing" textLength="54" x="105" y="343.3145">Location</text><line style="stroke:#181818;stroke-width:0.5;" x1="101.5" x2="162.5" y1="351.2813" y2="351.2813"/><text fill="#000000" font-family="sans-serif" font-size="14" lengthAdjust="spacing" textLength="36" x="106.5" y="367.9551">street</text><text fill="#000000" font-family="sans-serif" font-size="14" lengthAdjust="spacing" textLength="21" x="106.5" y="383.5957">city</text><text fill="#000000" font-family="sans-serif" font-size="14" lengthAdjust="spacing" textLength="41" x="106.5" y="399.2363">district</text><text fill="#000000" font-family="sans-serif" font-size="14" lengthAdjust="spacing" textLength="31" x="106.5" y="414.877">state</text><text fill="#000000" font-family="sans-serif" font-size="14" lengthAdjust="spacing" textLength="51" x="106.5" y="430.5176">zipCode</text></g><!--class Equipment--><g id="elem_Equipment"><rect
        fill="#F1F1F1" height="49.2813" id="Equipment" rx="2.5" ry="2.5" style="stroke:#181818;stroke-width:0.5;" width="73" x="198.5" y="357.1406"/><text fill="#000000" font-family="sans-serif" font-size="14" lengthAdjust="spacing" textLength="67" x="201.5" y="374.8145">Equipment</text><line style="stroke:#181818;stroke-width:0.5;" x1="199.5" x2="270.5" y1="382.7813" y2="382.7813"/><text fill="#000000" font-family="sans-serif" font-size="14" lengthAdjust="spacing" textLength="35" x="204.5" y="399.4551">name</text></g><!--class Photos--><g id="elem_Photos"><rect
        fill="#F1F1F1" height="64.9219" id="Photos" rx="2.5" ry="2.5" style="stroke:#181818;stroke-width:0.5;" width="77" x="306.5" y="349.1406"/><text fill="#000000" font-family="sans-serif" font-size="14" lengthAdjust="spacing" textLength="44" x="323" y="366.8145">Photos</text><line style="stroke:#181818;stroke-width:0.5;" x1="307.5" x2="382.5" y1="374.7813" y2="374.7813"/><text fill="#000000" font-family="sans-serif" font-size="14" lengthAdjust="spacing" textLength="49" x="312.5" y="391.4551">photoID</text><text fill="#000000" font-family="sans-serif" font-size="14" lengthAdjust="spacing" textLength="65" x="312.5" y="407.0957">photoPNG</text></g><!--class Lease--><g id="elem_Lease"><rect
        fill="#F1F1F1" height="49.2813" id="Lease" rx="2.5" ry="2.5" style="stroke:#181818;stroke-width:0.5;" width="64" x="419" y="357.1406"/><text fill="#000000" font-family="sans-serif" font-size="14" lengthAdjust="spacing" textLength="39" x="431.5" y="374.8145">Lease</text><line style="stroke:#181818;stroke-width:0.5;" x1="420" x2="482" y1="382.7813" y2="382.7813"/><text fill="#000000" font-family="sans-serif" font-size="14" lengthAdjust="spacing" textLength="52" x="425" y="399.4551">duration</text></g><!--class System--><g id="elem_System"><rect fill="#F1F1F1" height="33.6406" id="System" rx="2.5" ry="2.5" style="stroke:#181818;stroke-width:0.5;" width="52" x="203" y="1030.6406"/><text fill="#000000" font-family="sans-serif" font-size="14" lengthAdjust="spacing" textLength="46" x="206" y="1048.3145">System</text><line style="stroke:#181818;stroke-width:0.5;" x1="204" x2="254" y1="1056.2813" y2="1056.2813"/></g><!--link OwnerSite to Lease--><g id="link_OwnerSite_Lease"><path
        d="M145.04,177.2406 C213.73,208.5206 320.26,262.0606 401,325.6406 C412.56,334.7406 423.74,346.6406 432.58,357.0506 " fill="none" id="OwnerSite-Lease" style="stroke:#181818;stroke-width:1.0;"/><polygon fill="#000000" points="361.2393,290.5534,355.1285,283.2658,352.0121,288.2494,361.2393,290.5534" style="stroke:#000000;stroke-width:1.0;"/><text fill="#000000" font-family="sans-serif" font-size="13" lengthAdjust="spacing" textLength="51" x="366" y="292.4092">if leasing</text><text fill="#000000" font-family="sans-serif" font-size="13" lengthAdjust="spacing" textLength="7" x="152.9741" y="177.6361">1</text></g><!--link Lease to Property--><g id="link_Lease_Property"><path
        d="M437.86,406.5106 C425.16,428.2106 404.44,460.3206 381,483.6406 C365.18,499.3806 346.1,514.0906 327.69,526.7006 " fill="none" id="Lease-Property" style="stroke:#181818;stroke-width:1.0;"/><text fill="#000000" font-family="sans-serif" font-size="13" lengthAdjust="spacing" textLength="7" x="426.804" y="426.077">1</text></g><!--link OwnerSite to System--><g id="link_OwnerSite_System"><path
        d="M57.76,249.6606 C51.95,290.2806 47,337.5306 47,380.6406 C47,380.6406 47,380.6406 47,915.1406 C47,991.1506 152.6,1027.6606 202.92,1040.7506 " fill="none" id="OwnerSite-System" style="stroke:#181818;stroke-width:1.0;"/><polygon fill="#000000" points="52.9024,668.8202,54.1606,659.3933,48.3793,660.4541,52.9024,668.8202" style="stroke:#000000;stroke-width:1.0;"/><text fill="#000000" font-family="sans-serif" font-size="13" lengthAdjust="spacing" textLength="105" x="61" y="668.4092">provides attributes</text><text fill="#000000" font-family="sans-serif" font-size="13" lengthAdjust="spacing" textLength="7" x="49.2314" y="269.1943">1</text></g><!--link Property to System--><g id="link_Property_System"><path
        d="M240.91,625.9106 C234.96,649.0806 228.94,676.4506 226,701.6406 C211.31,827.4706 222.94,980.8706 227.43,1030.4006 " fill="none" id="Property-System" style="stroke:#181818;stroke-width:1.0;"/><polygon fill="#000000" points="222.8335,840.8996,226.072,831.9574,220.1974,831.7616,222.8335,840.8996" style="stroke:#000000;stroke-width:1.0;"/><text fill="#000000" font-family="sans-serif" font-size="13" lengthAdjust="spacing" textLength="38" x="232" y="840.4092">if Land</text><text fill="#000000" font-family="sans-serif" font-size="13" lengthAdjust="spacing" textLength="7" x="231.5225" y="645.4316">1</text></g><!--link Property to Buildings--><g id="link_Property_Buildings"><path
        d="M273.79,625.9806 C281.13,650.1706 289.65,678.2506 296.68,701.4306 " fill="none" id="Property-Buildings" style="stroke:#181818;stroke-width:1.0;"/><polygon fill="#000000" points="293.4516,668.687,293.638,659.1783,288.0133,660.8847,293.4516,668.687" style="stroke:#000000;stroke-width:1.0;"/><text fill="#000000" font-family="sans-serif" font-size="13" lengthAdjust="spacing" textLength="126" x="301" y="668.4092">if House or Apartment</text><text fill="#000000" font-family="sans-serif" font-size="13" lengthAdjust="spacing" textLength="7" x="268.3267" y="645.1122">1</text></g><!--link Buildings to System--><g id="link_Buildings_System"><path
        d="M354.65,797.9606 C360.95,807.2106 366.48,817.2706 370,827.6406 C380.83,859.5706 409.85,835.4006 355,954.6406 C335.64,996.7206 285.93,1023.6306 255.05,1036.8606 " fill="none" id="Buildings-System" style="stroke:#181818;stroke-width:1.0;"/><polygon fill="#000000" points="388.076,919.0173,394.2692,911.7997,388.844,909.5378,388.076,919.0173" style="stroke:#000000;stroke-width:1.0;"/><text fill="#000000" font-family="sans-serif" font-size="13" lengthAdjust="spacing" textLength="70" x="399" y="918.9092">if Apartment</text><text fill="#000000" font-family="sans-serif" font-size="13" lengthAdjust="spacing" textLength="7" x="353.2961" y="817.5311">1</text></g><!--link Buildings to House--><g id="link_Buildings_House"><path
        d="M304.93,797.6406 C301.82,821.6406 298.09,850.5106 295.14,873.3906 " fill="none" id="Buildings-House" style="stroke:#181818;stroke-width:1.0;"/><polygon fill="#000000" points="304.3591,840.8611,308.4332,832.2673,302.6038,831.5139,304.3591,840.8611" style="stroke:#000000;stroke-width:1.0;"/><text fill="#000000" font-family="sans-serif" font-size="13" lengthAdjust="spacing" textLength="47" x="314" y="840.4092">if House</text><text fill="#000000" font-family="sans-serif" font-size="13" lengthAdjust="spacing" textLength="7" x="296.5244" y="817.5108">1</text></g><!--link House to System--><g id="link_House_System"><path
        d="M271.53,954.9506 C259.75,980.3506 245.11,1011.9006 236.45,1030.5906 " fill="none" id="House-System" style="stroke:#181818;stroke-width:1.0;"/><text fill="#000000" font-family="sans-serif" font-size="13" lengthAdjust="spacing" textLength="47" x="258" y="997.4092">if House</text><text fill="#000000" font-family="sans-serif" font-size="13" lengthAdjust="spacing" textLength="7" x="261.1658" y="974.1137">1</text></g><!--link Equipment to Property--><g id="link_Equipment_Property"><path
        d="M235.56,406.3906 C236.25,426.9106 237.75,457.3206 241,483.6406 C242.19,493.3306 243.81,503.5706 245.57,513.4706 " fill="none" id="Equipment-Property" style="stroke:#181818;stroke-width:1.0;"/><polygon fill="#000000" points="246.4654,480.8806,248.5497,471.6013,242.6973,472.1484,246.4654,480.8806" style="stroke:#000000;stroke-width:1.0;"/><text fill="#000000" font-family="sans-serif" font-size="13" lengthAdjust="spacing" textLength="46" x="255" y="480.4092">extends</text><text fill="#000000" font-family="sans-serif" font-size="13" lengthAdjust="spacing" textLength="7" x="227.8066" y="426.3261">1</text></g><!--link Photos to Property--><g id="link_Photos_Property"><path
        d="M334.11,414.5606 C326.88,434.7006 316.78,461.0806 306,483.6406 C301.3,493.4806 295.89,503.7106 290.41,513.5206 " fill="none" id="Photos-Property" style="stroke:#181818;stroke-width:1.0;"/><polygon fill="#000000" points="314.9802,480.4762,321.3225,473.3892,315.9456,471.0148,314.9802,480.4762" style="stroke:#000000;stroke-width:1.0;"/><text fill="#000000" font-family="sans-serif" font-size="13" lengthAdjust="spacing" textLength="46" x="326" y="480.4092">extends</text><text fill="#000000" font-family="sans-serif" font-size="13" lengthAdjust="spacing" textLength="7" x="324.4568" y="433.7449">1</text></g><!--link Location to Property--><g id="link_Location_Property"><path
        d="M147.78,437.6806 C153.51,453.2206 160.88,469.6806 170,483.6406 C176.81,494.0706 185.1,504.2106 193.83,513.6406 " fill="none" id="Location-Property" style="stroke:#181818;stroke-width:1.0;"/><polygon fill="#000000" points="177.5921,480.178,175.4161,470.9197,170.3898,473.9669,177.5921,480.178" style="stroke:#000000;stroke-width:1.0;"/><text fill="#000000" font-family="sans-serif" font-size="13" lengthAdjust="spacing" textLength="46" x="184" y="480.4092">extends</text><text fill="#000000" font-family="sans-serif" font-size="13" lengthAdjust="spacing" textLength="7" x="142.2766" y="457.1736">1</text></g><!--SRC=[VLDDRzim3BthLmYzx1GW0tRQeK2MTbk1hWdWxWSm4XqBbILFejEaHV_xQCbVouBuOfhaU_nuT7mnhe40jQozyweAlaP9eKKHnqW3wWNsMD39eWoe2DpUpXDY1Tg_6hUN9TY8GdooM98aBuFPLoIrwL36Ep43AGinheY2sRM43ygxmhoXN0fH6OrIcQ2uIB9hfChhA0GPuXRkV0t6oLzUevKB-RjOBhy8aVZavjLXA0oXV1UI7mSr9aCPOdeNrn3qKrllC2GtmN7s1Le7Z37Po4NiQkOWjDXKtk4Cq0JVOA3Jywd9PNXFJfr6apAIevloEO2BaFVGUGzWUSqVVUFRdgdl6mB2fXoSoMMzWWvyvjOciY0AlxDqQwuOy9_Eji6etbDvyd66_XYMzgqrLhDyiI- -Gnsyh_FOEw1g-cBjMC5zmJU1sGC7tXFiBDx_QKrJTpEFn3zz6x7dX8Zri13hosp4rjqV6n_RW1FgiHyq0oDFX3HeECtCS_KS19GdV3FDcezYOXfRcXt36DocVRnFktcuc-pjquzPGmZ36BeDgRSkAAPZk_by8nUBd2Y_IbDAosRtHzoAxEmpnkN_XorEaR1cC2jtuAkF4eQV8pBBU1_dwLph4Po-a3B9chAI6D87kM8HgTiAOwQS2xnN4pFTZFbMvFS5eXGGenhdo-0aF18wdGPDibnD6GxaQj9V]--></g></svg>