<?xml version="1.0" encoding="us-ascii" standalone="no"?><svg xmlns="http://www.w3.org/2000/svg" xmlns:xlink="http://www.w3.org/1999/xlink" contentStyleType="text/css" height="1009px" preserveAspectRatio="none" style="width:951px;height:1009px;background:#FFFFFF;" version="1.1" viewBox="0 0 951 1009" width="951px" zoomAndPan="magnify"><defs/><g><!--class Person--><g id="elem_Person"><rect fill="#F1F1F1" height="219.5215" id="Person" rx="1.25" ry="1.25" style="stroke:#181818;stroke-width:0.25;" width="99" x="433.25" y="398"/><ellipse cx="469.375" cy="406" fill="#ADD1B2" rx="5.5" ry="5.5" style="stroke:#181818;stroke-width:0.5;"/><path d="M470.7578,403.9375 Q470.8359,403.8281 470.9297,403.7734 Q471.0234,403.7188 471.1328,403.7188 Q471.3203,403.7188 471.4375,403.8516 Q471.5547,403.9766 471.5547,404.2813 L471.5547,405.0078 Q471.5547,405.3125 471.4375,405.4453 Q471.3203,405.5781 471.1328,405.5781 Q470.9609,405.5781 470.8594,405.4766 Q470.7578,405.3828 470.7031,405.125 Q470.6797,404.9453 470.5859,404.8516 Q470.4219,404.6641 470.1172,404.5547 Q469.8125,404.4453 469.5,404.4453 Q469.1172,404.4453 468.7969,404.6094 Q468.4844,404.7734 468.2344,405.1484 Q467.9922,405.5234 467.9922,406.0391 L467.9922,406.5859 Q467.9922,407.2031 468.4375,407.6172 Q468.8828,408.0234 469.6797,408.0234 Q470.1484,408.0234 470.4766,407.8984 Q470.6719,407.8203 470.8828,407.6016 Q471.0156,407.4688 471.0859,407.4297 Q471.1641,407.3906 471.2656,407.3906 Q471.4297,407.3906 471.5547,407.5234 Q471.6875,407.6484 471.6875,407.8203 Q471.6875,407.9922 471.5156,408.1953 Q471.2656,408.4844 470.8672,408.6484 Q470.3281,408.875 469.6797,408.875 Q468.9219,408.875 468.3203,408.5625 Q467.8281,408.3125 467.4844,407.7813 Q467.1406,407.2422 467.1406,406.6016 L467.1406,406.0234 Q467.1406,405.3594 467.4453,404.7891 Q467.7578,404.2109 468.3047,403.9063 Q468.8516,403.5938 469.4688,403.5938 Q469.8359,403.5938 470.1563,403.6797 Q470.4844,403.7578 470.7578,403.9375 Z " fill="#000000"/><text fill="#000000" font-family="sans-serif" font-size="7" lengthAdjust="spacing" textLength="22.5" x="479.625" y="408.8984">Person</text><line style="stroke:#181818;stroke-width:0.25;" x1="433.75" x2="531.75" y1="414" y2="414"/><text fill="#000000" font-family="sans-serif" font-size="7" lengthAdjust="spacing" textLength="40.5" x="436.25" y="423.5537">-String name</text><text fill="#000000" font-family="sans-serif" font-size="7" lengthAdjust="spacing" textLength="60" x="436.25" y="432.8643">-Integer taxNumber</text><text fill="#000000" font-family="sans-serif" font-size="7" lengthAdjust="spacing" textLength="65.5" x="436.25" y="442.1748">-String emailAddress</text><text fill="#000000" font-family="sans-serif" font-size="7" lengthAdjust="spacing" textLength="82.5" x="436.25" y="451.4854">-Integer telephoneNumber</text><text fill="#000000" font-family="sans-serif" font-size="7" lengthAdjust="spacing" textLength="2" x="436.25" y="460.7959">&#160;</text><text fill="#000000" font-family="sans-serif" font-size="7" lengthAdjust="spacing" textLength="42.5" x="436.25" y="470.1064">-name: String</text><text fill="#000000" font-family="sans-serif" font-size="7" lengthAdjust="spacing" textLength="58.5" x="436.25" y="479.417">-taxNumber: String</text><text fill="#000000" font-family="sans-serif" font-size="7" lengthAdjust="spacing" textLength="67.5" x="436.25" y="488.7275">-emailAddress: String</text><text fill="#000000" font-family="sans-serif" font-size="7" lengthAdjust="spacing" textLength="81" x="436.25" y="498.0381">-telephoneNumber: String</text><text fill="#000000" font-family="sans-serif" font-size="7" lengthAdjust="spacing" textLength="58" x="436.25" y="507.3486">-address: Address</text><text fill="#000000" font-family="sans-serif" font-size="7" lengthAdjust="spacing" textLength="33" x="436.25" y="516.6592">-role: Role</text><text fill="#000000" font-family="sans-serif" font-size="7" lengthAdjust="spacing" textLength="93" x="436.25" y="525.9697">-passportCard: PassportCard</text><line style="stroke:#181818;stroke-width:0.25;" x1="433.75" x2="531.75" y1="529.7266" y2="529.7266"/><text fill="#000000" font-family="sans-serif" font-size="7" lengthAdjust="spacing" textLength="77.5" x="436.25" y="539.2803">+getTelephoneNumber()</text><text fill="#000000" font-family="sans-serif" font-size="7" lengthAdjust="spacing" textLength="62" x="436.25" y="548.5908">+getEmailAddress()</text><text fill="#000000" font-family="sans-serif" font-size="7" lengthAdjust="spacing" textLength="55" x="436.25" y="557.9014">+getTaxNumber()</text><text fill="#000000" font-family="sans-serif" font-size="7" lengthAdjust="spacing" textLength="37" x="436.25" y="567.2119">+getName()</text><text fill="#000000" font-family="sans-serif" font-size="7" lengthAdjust="spacing" textLength="75.5" x="436.25" y="576.5225">-setTelephoneNumber()</text><text fill="#000000" font-family="sans-serif" font-size="7" lengthAdjust="spacing" textLength="60" x="436.25" y="585.833">-setEmailAddress()</text><text fill="#000000" font-family="sans-serif" font-size="7" lengthAdjust="spacing" textLength="53" x="436.25" y="595.1436">-setTaxNumber()</text><text fill="#000000" font-family="sans-serif" font-size="7" lengthAdjust="spacing" textLength="35" x="436.25" y="604.4541">-setName()</text><text fill="#000000" font-family="sans-serif" font-size="7" lengthAdjust="spacing" textLength="56" x="436.25" y="613.7646">+toString(): String</text></g><polygon fill="none" points="532.25,591.777,540.3417,598.6162,534.3107,602.1695" style="stroke:#181818;stroke-width:0.5;"/><line style="stroke:#181818;stroke-width:0.5;" x1="537.3262" x2="542.25" y1="600.3928" y2="608.75"/><polygon fill="none" points="532.25,513.0369,542.5646,510.6165,541.8227,517.577" style="stroke:#181818;stroke-width:0.5;"/><line style="stroke:#181818;stroke-width:0.5;" x1="542.1937" x2="542.365" y1="514.0967" y2="514.115"/><line style="stroke:#181818;stroke-width:0.5;" x1="532.25" x2="542.365" y1="502.1554" y2="501.01"/><line style="stroke:#181818;stroke-width:0.5;" x1="433.25" x2="420.575" y1="507.7522" y2="507.75"/><line style="stroke:#181818;stroke-width:0.5;" x1="499.6776" x2="501.225" y1="617.5215" y2="627.555"/><line style="stroke:#181818;stroke-width:0.5;" x1="463.9853" x2="462.27" y1="617.5215" y2="627.555"/><!--class Employee--><g id="elem_Employee"><rect fill="#F1F1F1" height="163.6582" id="Employee" rx="1.25" ry="1.25" style="stroke:#181818;stroke-width:0.25;" width="71.5" x="560" y="426"/><ellipse cx="578.525" cy="434" fill="#ADD1B2" rx="5.5" ry="5.5" style="stroke:#181818;stroke-width:0.5;"/><path d="M579.9078,431.9375 Q579.9859,431.8281 580.0797,431.7734 Q580.1734,431.7188 580.2828,431.7188 Q580.4703,431.7188 580.5875,431.8516 Q580.7047,431.9766 580.7047,432.2813 L580.7047,433.0078 Q580.7047,433.3125 580.5875,433.4453 Q580.4703,433.5781 580.2828,433.5781 Q580.1109,433.5781 580.0094,433.4766 Q579.9078,433.3828 579.8531,433.125 Q579.8297,432.9453 579.7359,432.8516 Q579.5719,432.6641 579.2672,432.5547 Q578.9625,432.4453 578.65,432.4453 Q578.2672,432.4453 577.9469,432.6094 Q577.6344,432.7734 577.3844,433.1484 Q577.1422,433.5234 577.1422,434.0391 L577.1422,434.5859 Q577.1422,435.2031 577.5875,435.6172 Q578.0328,436.0234 578.8297,436.0234 Q579.2984,436.0234 579.6266,435.8984 Q579.8219,435.8203 580.0328,435.6016 Q580.1656,435.4688 580.2359,435.4297 Q580.3141,435.3906 580.4156,435.3906 Q580.5797,435.3906 580.7047,435.5234 Q580.8375,435.6484 580.8375,435.8203 Q580.8375,435.9922 580.6656,436.1953 Q580.4156,436.4844 580.0172,436.6484 Q579.4781,436.875 578.8297,436.875 Q578.0719,436.875 577.4703,436.5625 Q576.9781,436.3125 576.6344,435.7813 Q576.2906,435.2422 576.2906,434.6016 L576.2906,434.0234 Q576.2906,433.3594 576.5953,432.7891 Q576.9078,432.2109 577.4547,431.9063 Q578.0016,431.5938 578.6188,431.5938 Q578.9859,431.5938 579.3063,431.6797 Q579.6344,431.7578 579.9078,431.9375 Z " fill="#000000"/><text fill="#000000" font-family="sans-serif" font-size="7" lengthAdjust="spacing" textLength="31" x="587.975" y="436.8984">Employee</text><line style="stroke:#181818;stroke-width:0.25;" x1="560.5" x2="631" y1="442" y2="442"/><text fill="#000000" font-family="sans-serif" font-size="7" lengthAdjust="spacing" textLength="65.5" x="563" y="451.5537">-String emailAddress</text><text fill="#000000" font-family="sans-serif" font-size="7" lengthAdjust="spacing" textLength="64" x="563" y="460.8643">-String agencyName</text><text fill="#000000" font-family="sans-serif" font-size="7" lengthAdjust="spacing" textLength="47.5" x="563" y="470.1748">-String network</text><text fill="#000000" font-family="sans-serif" font-size="7" lengthAdjust="spacing" textLength="2" x="563" y="479.4854">&#160;</text><text fill="#000000" font-family="sans-serif" font-size="7" lengthAdjust="spacing" textLength="57" x="563" y="488.7959">+getEmailAddress</text><text fill="#000000" font-family="sans-serif" font-size="7" lengthAdjust="spacing" textLength="55.5" x="563" y="498.1064">+getAgencyName</text><text fill="#000000" font-family="sans-serif" font-size="7" lengthAdjust="spacing" textLength="39" x="563" y="507.417">+getNetwork</text><text fill="#000000" font-family="sans-serif" font-size="7" lengthAdjust="spacing" textLength="55" x="563" y="516.7275">-setEmailAddress</text><text fill="#000000" font-family="sans-serif" font-size="7" lengthAdjust="spacing" textLength="53.5" x="563" y="526.0381">-setAgencyName</text><text fill="#000000" font-family="sans-serif" font-size="7" lengthAdjust="spacing" textLength="37" x="563" y="535.3486">-setNetwork</text><text fill="#000000" font-family="sans-serif" font-size="7" lengthAdjust="spacing" textLength="41.5" x="563" y="544.6592">-email: String</text><text fill="#000000" font-family="sans-serif" font-size="7" lengthAdjust="spacing" textLength="42.5" x="563" y="553.9697">-name: String</text><text fill="#000000" font-family="sans-serif" font-size="7" lengthAdjust="spacing" textLength="49.5" x="563" y="563.2803">-position: String</text><text fill="#000000" font-family="sans-serif" font-size="7" lengthAdjust="spacing" textLength="45" x="563" y="572.5908">-phone: String</text><line style="stroke:#181818;stroke-width:0.5;" x1="560.5" x2="631" y1="576.3477" y2="576.3477"/><text fill="#000000" font-family="sans-serif" font-size="7" lengthAdjust="spacing" textLength="56" x="563" y="585.9014">+toString(): String</text></g><!--class SendEmail--><g id="elem_SendEmail"><rect fill="#F1F1F1" height="24" id="SendEmail" rx="1.25" ry="1.25" style="stroke:#181818;stroke-width:0.25;" width="49.5" x="582" y="8.25"/><ellipse cx="589.5" cy="16.25" fill="#ADD1B2" rx="5.5" ry="5.5" style="stroke:#181818;stroke-width:0.5;"/><path d="M590.8828,14.1875 Q590.9609,14.0781 591.0547,14.0234 Q591.1484,13.9688 591.2578,13.9688 Q591.4453,13.9688 591.5625,14.1016 Q591.6797,14.2266 591.6797,14.5313 L591.6797,15.2578 Q591.6797,15.5625 591.5625,15.6953 Q591.4453,15.8281 591.2578,15.8281 Q591.0859,15.8281 590.9844,15.7266 Q590.8828,15.6328 590.8281,15.375 Q590.8047,15.1953 590.7109,15.1016 Q590.5469,14.9141 590.2422,14.8047 Q589.9375,14.6953 589.625,14.6953 Q589.2422,14.6953 588.9219,14.8594 Q588.6094,15.0234 588.3594,15.3984 Q588.1172,15.7734 588.1172,16.2891 L588.1172,16.8359 Q588.1172,17.4531 588.5625,17.8672 Q589.0078,18.2734 589.8047,18.2734 Q590.2734,18.2734 590.6016,18.1484 Q590.7969,18.0703 591.0078,17.8516 Q591.1406,17.7188 591.2109,17.6797 Q591.2891,17.6406 591.3906,17.6406 Q591.5547,17.6406 591.6797,17.7734 Q591.8125,17.8984 591.8125,18.0703 Q591.8125,18.2422 591.6406,18.4453 Q591.3906,18.7344 590.9922,18.8984 Q590.4531,19.125 589.8047,19.125 Q589.0469,19.125 588.4453,18.8125 Q587.9531,18.5625 587.6094,18.0313 Q587.2656,17.4922 587.2656,16.8516 L587.2656,16.2734 Q587.2656,15.6094 587.5703,15.0391 Q587.8828,14.4609 588.4297,14.1563 Q588.9766,13.8438 589.5938,13.8438 Q589.9609,13.8438 590.2813,13.9297 Q590.6094,14.0078 590.8828,14.1875 Z " fill="#000000"/><text fill="#000000" font-family="sans-serif" font-size="7" lengthAdjust="spacing" textLength="33.5" x="596.5" y="19.1484">SendEmail</text><line style="stroke:#181818;stroke-width:0.25;" x1="582.5" x2="631" y1="24.25" y2="24.25"/><line style="stroke:#181818;stroke-width:0.25;" x1="582.5" x2="631" y1="28.25" y2="28.25"/></g><!--class AcceptPurchaseOrderUI--><g id="elem_AcceptPurchaseOrderUI"><rect fill="#F1F1F1" height="33.3105" id="AcceptPurchaseOrderUI" rx="1.25" ry="1.25" style="stroke:#181818;stroke-width:0.25;" width="92" x="550.25" y="257"/><ellipse cx="557.75" cy="265" fill="#ADD1B2" rx="5.5" ry="5.5" style="stroke:#181818;stroke-width:0.5;"/><path d="M559.1328,262.9375 Q559.2109,262.8281 559.3047,262.7734 Q559.3984,262.7188 559.5078,262.7188 Q559.6953,262.7188 559.8125,262.8516 Q559.9297,262.9766 559.9297,263.2813 L559.9297,264.0078 Q559.9297,264.3125 559.8125,264.4453 Q559.6953,264.5781 559.5078,264.5781 Q559.3359,264.5781 559.2344,264.4766 Q559.1328,264.3828 559.0781,264.125 Q559.0547,263.9453 558.9609,263.8516 Q558.7969,263.6641 558.4922,263.5547 Q558.1875,263.4453 557.875,263.4453 Q557.4922,263.4453 557.1719,263.6094 Q556.8594,263.7734 556.6094,264.1484 Q556.3672,264.5234 556.3672,265.0391 L556.3672,265.5859 Q556.3672,266.2031 556.8125,266.6172 Q557.2578,267.0234 558.0547,267.0234 Q558.5234,267.0234 558.8516,266.8984 Q559.0469,266.8203 559.2578,266.6016 Q559.3906,266.4688 559.4609,266.4297 Q559.5391,266.3906 559.6406,266.3906 Q559.8047,266.3906 559.9297,266.5234 Q560.0625,266.6484 560.0625,266.8203 Q560.0625,266.9922 559.8906,267.1953 Q559.6406,267.4844 559.2422,267.6484 Q558.7031,267.875 558.0547,267.875 Q557.2969,267.875 556.6953,267.5625 Q556.2031,267.3125 555.8594,266.7813 Q555.5156,266.2422 555.5156,265.6016 L555.5156,265.0234 Q555.5156,264.3594 555.8203,263.7891 Q556.1328,263.2109 556.6797,262.9063 Q557.2266,262.5938 557.8438,262.5938 Q558.2109,262.5938 558.5313,262.6797 Q558.8594,262.7578 559.1328,262.9375 Z " fill="#000000"/><text fill="#000000" font-family="sans-serif" font-size="7" lengthAdjust="spacing" textLength="76" x="564.75" y="267.8984">AcceptPurchaseOrderUI</text><line style="stroke:#181818;stroke-width:0.25;" x1="550.75" x2="641.75" y1="273" y2="273"/><line style="stroke:#181818;stroke-width:0.25;" x1="550.75" x2="641.75" y1="277" y2="277"/><text fill="#000000" font-family="sans-serif" font-size="7" lengthAdjust="spacing" textLength="73" x="553.25" y="286.5537">+keepPurchaseOrder()</text></g><!--class AcceptPurchaseOrderController--><g id="elem_AcceptPurchaseOrderController"><rect fill="#F1F1F1" height="33.3105" id="AcceptPurchaseOrderController" rx="1.25" ry="1.25" style="stroke:#181818;stroke-width:0.25;" width="117" x="548.25" y="107.5"/><ellipse cx="555.75" cy="115.5" fill="#ADD1B2" rx="5.5" ry="5.5" style="stroke:#181818;stroke-width:0.5;"/><path d="M557.1328,113.4375 Q557.2109,113.3281 557.3047,113.2734 Q557.3984,113.2188 557.5078,113.2188 Q557.6953,113.2188 557.8125,113.3516 Q557.9297,113.4766 557.9297,113.7813 L557.9297,114.5078 Q557.9297,114.8125 557.8125,114.9453 Q557.6953,115.0781 557.5078,115.0781 Q557.3359,115.0781 557.2344,114.9766 Q557.1328,114.8828 557.0781,114.625 Q557.0547,114.4453 556.9609,114.3516 Q556.7969,114.1641 556.4922,114.0547 Q556.1875,113.9453 555.875,113.9453 Q555.4922,113.9453 555.1719,114.1094 Q554.8594,114.2734 554.6094,114.6484 Q554.3672,115.0234 554.3672,115.5391 L554.3672,116.0859 Q554.3672,116.7031 554.8125,117.1172 Q555.2578,117.5234 556.0547,117.5234 Q556.5234,117.5234 556.8516,117.3984 Q557.0469,117.3203 557.2578,117.1016 Q557.3906,116.9688 557.4609,116.9297 Q557.5391,116.8906 557.6406,116.8906 Q557.8047,116.8906 557.9297,117.0234 Q558.0625,117.1484 558.0625,117.3203 Q558.0625,117.4922 557.8906,117.6953 Q557.6406,117.9844 557.2422,118.1484 Q556.7031,118.375 556.0547,118.375 Q555.2969,118.375 554.6953,118.0625 Q554.2031,117.8125 553.8594,117.2813 Q553.5156,116.7422 553.5156,116.1016 L553.5156,115.5234 Q553.5156,114.8594 553.8203,114.2891 Q554.1328,113.7109 554.6797,113.4063 Q555.2266,113.0938 555.8438,113.0938 Q556.2109,113.0938 556.5313,113.1797 Q556.8594,113.2578 557.1328,113.4375 Z " fill="#000000"/><text fill="#000000" font-family="sans-serif" font-size="7" lengthAdjust="spacing" textLength="101" x="562.75" y="118.3984">AcceptPurchaseOrderController</text><line style="stroke:#181818;stroke-width:0.25;" x1="548.75" x2="664.75" y1="123.5" y2="123.5"/><line style="stroke:#181818;stroke-width:0.25;" x1="548.75" x2="664.75" y1="127.5" y2="127.5"/><text fill="#000000" font-family="sans-serif" font-size="7" lengthAdjust="spacing" textLength="58.5" x="551.25" y="137.0537">+sendEmail(Email)</text></g><!--class Repositories--><g id="elem_Repositories"><rect fill="#F1F1F1" height="70.5527" id="Repositories" rx="1.25" ry="1.25" style="stroke:#181818;stroke-width:0.25;" width="107.5" x="624" y="171.5"/><ellipse cx="655.875" cy="179.5" fill="#ADD1B2" rx="5.5" ry="5.5" style="stroke:#181818;stroke-width:0.5;"/><path d="M657.2578,177.4375 Q657.3359,177.3281 657.4297,177.2734 Q657.5234,177.2188 657.6328,177.2188 Q657.8203,177.2188 657.9375,177.3516 Q658.0547,177.4766 658.0547,177.7813 L658.0547,178.5078 Q658.0547,178.8125 657.9375,178.9453 Q657.8203,179.0781 657.6328,179.0781 Q657.4609,179.0781 657.3594,178.9766 Q657.2578,178.8828 657.2031,178.625 Q657.1797,178.4453 657.0859,178.3516 Q656.9219,178.1641 656.6172,178.0547 Q656.3125,177.9453 656,177.9453 Q655.6172,177.9453 655.2969,178.1094 Q654.9844,178.2734 654.7344,178.6484 Q654.4922,179.0234 654.4922,179.5391 L654.4922,180.0859 Q654.4922,180.7031 654.9375,181.1172 Q655.3828,181.5234 656.1797,181.5234 Q656.6484,181.5234 656.9766,181.3984 Q657.1719,181.3203 657.3828,181.1016 Q657.5156,180.9688 657.5859,180.9297 Q657.6641,180.8906 657.7656,180.8906 Q657.9297,180.8906 658.0547,181.0234 Q658.1875,181.1484 658.1875,181.3203 Q658.1875,181.4922 658.0156,181.6953 Q657.7656,181.9844 657.3672,182.1484 Q656.8281,182.375 656.1797,182.375 Q655.4219,182.375 654.8203,182.0625 Q654.3281,181.8125 653.9844,181.2813 Q653.6406,180.7422 653.6406,180.1016 L653.6406,179.5234 Q653.6406,178.8594 653.9453,178.2891 Q654.2578,177.7109 654.8047,177.4063 Q655.3516,177.0938 655.9688,177.0938 Q656.3359,177.0938 656.6563,177.1797 Q656.9844,177.2578 657.2578,177.4375 Z " fill="#000000"/><text fill="#000000" font-family="sans-serif" font-size="7" lengthAdjust="spacing" textLength="39.5" x="666.125" y="182.3984">Repositories</text><line style="stroke:#181818;stroke-width:0.25;" x1="624.5" x2="731" y1="187.5" y2="187.5"/><line style="stroke:#181818;stroke-width:0.5;" x1="624.5" x2="731" y1="191.5" y2="191.5"/><text fill="#000000" font-family="sans-serif" font-size="7" lengthAdjust="spacing" textLength="47" x="627" y="201.0537">-Repositories()</text><text fill="#000000" font-family="sans-serif" font-size="7" lengthAdjust="spacing" textLength="91" x="627" y="210.3643">+getInstance() : Repositories</text><text fill="#000000" font-family="sans-serif" font-size="7" lengthAdjust="spacing" textLength="101.5" x="627" y="219.6748">+getPurchaseOrderRepository()</text><text fill="#000000" font-family="sans-serif" font-size="7" lengthAdjust="spacing" textLength="100.5" x="627" y="228.9854">+getAnnouncementRepository()</text><text fill="#000000" font-family="sans-serif" font-size="7" lengthAdjust="spacing" textLength="98" x="627" y="238.2959">+getAuthenticationRepository()</text></g><!--class PurchaseOrderRepository--><g id="elem_PurchaseOrderRepository"><rect fill="#F1F1F1" height="79.8633" id="PurchaseOrderRepository" rx="1.25" ry="1.25" style="stroke:#181818;stroke-width:0.25;" width="140" x="754.75" y="926"/><ellipse cx="781.375" cy="934" fill="#ADD1B2" rx="5.5" ry="5.5" style="stroke:#181818;stroke-width:0.5;"/><path d="M782.7578,931.9375 Q782.8359,931.8281 782.9297,931.7734 Q783.0234,931.7188 783.1328,931.7188 Q783.3203,931.7188 783.4375,931.8516 Q783.5547,931.9766 783.5547,932.2813 L783.5547,933.0078 Q783.5547,933.3125 783.4375,933.4453 Q783.3203,933.5781 783.1328,933.5781 Q782.9609,933.5781 782.8594,933.4766 Q782.7578,933.3828 782.7031,933.125 Q782.6797,932.9453 782.5859,932.8516 Q782.4219,932.6641 782.1172,932.5547 Q781.8125,932.4453 781.5,932.4453 Q781.1172,932.4453 780.7969,932.6094 Q780.4844,932.7734 780.2344,933.1484 Q779.9922,933.5234 779.9922,934.0391 L779.9922,934.5859 Q779.9922,935.2031 780.4375,935.6172 Q780.8828,936.0234 781.6797,936.0234 Q782.1484,936.0234 782.4766,935.8984 Q782.6719,935.8203 782.8828,935.6016 Q783.0156,935.4688 783.0859,935.4297 Q783.1641,935.3906 783.2656,935.3906 Q783.4297,935.3906 783.5547,935.5234 Q783.6875,935.6484 783.6875,935.8203 Q783.6875,935.9922 783.5156,936.1953 Q783.2656,936.4844 782.8672,936.6484 Q782.3281,936.875 781.6797,936.875 Q780.9219,936.875 780.3203,936.5625 Q779.8281,936.3125 779.4844,935.7813 Q779.1406,935.2422 779.1406,934.6016 L779.1406,934.0234 Q779.1406,933.3594 779.4453,932.7891 Q779.7578,932.2109 780.3047,931.9063 Q780.8516,931.5938 781.4688,931.5938 Q781.8359,931.5938 782.1563,931.6797 Q782.4844,931.7578 782.7578,931.9375 Z " fill="#000000"/><text fill="#000000" font-family="sans-serif" font-size="7" lengthAdjust="spacing" textLength="82.5" x="791.625" y="936.8984">PurchaseOrderRepository</text><line style="stroke:#181818;stroke-width:0.25;" x1="755.25" x2="894.25" y1="942" y2="942"/><line style="stroke:#181818;stroke-width:0.25;" x1="755.25" x2="894.25" y1="946" y2="946"/><text fill="#000000" font-family="sans-serif" font-size="7" lengthAdjust="spacing" textLength="90" x="757.75" y="955.5537">-PurchaseOrderRepository()</text><text fill="#000000" font-family="sans-serif" font-size="7" lengthAdjust="spacing" textLength="134" x="757.75" y="964.8643">+getInstance() : PurchaseOrderRepository</text><text fill="#000000" font-family="sans-serif" font-size="7" lengthAdjust="spacing" textLength="100.5" x="757.75" y="974.1748">+getPurchaseOrdersAccepted()</text><text fill="#000000" font-family="sans-serif" font-size="7" lengthAdjust="spacing" textLength="105.5" x="757.75" y="983.4854">+getPurchaseOrdersRequested()</text><text fill="#000000" font-family="sans-serif" font-size="7" lengthAdjust="spacing" textLength="100.5" x="757.75" y="992.7959">+getAnnouncementRepository()</text><text fill="#000000" font-family="sans-serif" font-size="7" lengthAdjust="spacing" textLength="98" x="757.75" y="1002.1064">+getAuthenticationRepository()</text></g><!--class Address--><g id="elem_Address"><rect fill="#F1F1F1" height="219.5215" id="Address" rx="1.25" ry="1.25" style="stroke:#181818;stroke-width:0.25;" width="62" x="493.25" y="667"/><ellipse cx="509.75" cy="675" fill="#ADD1B2" rx="5.5" ry="5.5" style="stroke:#181818;stroke-width:0.5;"/><path d="M511.1328,672.9375 Q511.2109,672.8281 511.3047,672.7734 Q511.3984,672.7188 511.5078,672.7188 Q511.6953,672.7188 511.8125,672.8516 Q511.9297,672.9766 511.9297,673.2813 L511.9297,674.0078 Q511.9297,674.3125 511.8125,674.4453 Q511.6953,674.5781 511.5078,674.5781 Q511.3359,674.5781 511.2344,674.4766 Q511.1328,674.3828 511.0781,674.125 Q511.0547,673.9453 510.9609,673.8516 Q510.7969,673.6641 510.4922,673.5547 Q510.1875,673.4453 509.875,673.4453 Q509.4922,673.4453 509.1719,673.6094 Q508.8594,673.7734 508.6094,674.1484 Q508.3672,674.5234 508.3672,675.0391 L508.3672,675.5859 Q508.3672,676.2031 508.8125,676.6172 Q509.2578,677.0234 510.0547,677.0234 Q510.5234,677.0234 510.8516,676.8984 Q511.0469,676.8203 511.2578,676.6016 Q511.3906,676.4688 511.4609,676.4297 Q511.5391,676.3906 511.6406,676.3906 Q511.8047,676.3906 511.9297,676.5234 Q512.0625,676.6484 512.0625,676.8203 Q512.0625,676.9922 511.8906,677.1953 Q511.6406,677.4844 511.2422,677.6484 Q510.7031,677.875 510.0547,677.875 Q509.2969,677.875 508.6953,677.5625 Q508.2031,677.3125 507.8594,676.7813 Q507.5156,676.2422 507.5156,675.6016 L507.5156,675.0234 Q507.5156,674.3594 507.8203,673.7891 Q508.1328,673.2109 508.6797,672.9063 Q509.2266,672.5938 509.8438,672.5938 Q510.2109,672.5938 510.5313,672.6797 Q510.8594,672.7578 511.1328,672.9375 Z " fill="#000000"/><text fill="#000000" font-family="sans-serif" font-size="7" lengthAdjust="spacing" textLength="26" x="518.75" y="677.8984">Address</text><line style="stroke:#181818;stroke-width:0.25;" x1="493.75" x2="554.75" y1="683" y2="683"/><text fill="#000000" font-family="sans-serif" font-size="7" lengthAdjust="spacing" textLength="41" x="496.25" y="692.5537">-String street</text><text fill="#000000" font-family="sans-serif" font-size="7" lengthAdjust="spacing" textLength="33.5" x="496.25" y="701.8643">-String city</text><text fill="#000000" font-family="sans-serif" font-size="7" lengthAdjust="spacing" textLength="43.5" x="496.25" y="711.1748">-String district</text><text fill="#000000" font-family="sans-serif" font-size="7" lengthAdjust="spacing" textLength="38.5" x="496.25" y="720.4854">-String state</text><text fill="#000000" font-family="sans-serif" font-size="7" lengthAdjust="spacing" textLength="48.5" x="496.25" y="729.7959">-String zipCode</text><text fill="#000000" font-family="sans-serif" font-size="7" lengthAdjust="spacing" textLength="2" x="496.25" y="739.1064">&#160;</text><text fill="#000000" font-family="sans-serif" font-size="7" lengthAdjust="spacing" textLength="36" x="496.25" y="748.417">-setStreet()</text><text fill="#000000" font-family="sans-serif" font-size="7" lengthAdjust="spacing" textLength="29" x="496.25" y="757.7275">-setCity()</text><text fill="#000000" font-family="sans-serif" font-size="7" lengthAdjust="spacing" textLength="38.5" x="496.25" y="767.0381">-setDistrict()</text><text fill="#000000" font-family="sans-serif" font-size="7" lengthAdjust="spacing" textLength="33.5" x="496.25" y="776.3486">-setState()</text><text fill="#000000" font-family="sans-serif" font-size="7" lengthAdjust="spacing" textLength="43.5" x="496.25" y="785.6592">-setZipCode()</text><text fill="#000000" font-family="sans-serif" font-size="7" lengthAdjust="spacing" textLength="38" x="496.25" y="794.9697">+getStreet()</text><text fill="#000000" font-family="sans-serif" font-size="7" lengthAdjust="spacing" textLength="31" x="496.25" y="804.2803">+getCity()</text><text fill="#000000" font-family="sans-serif" font-size="7" lengthAdjust="spacing" textLength="40.5" x="496.25" y="813.5908">+getDistrict()</text><text fill="#000000" font-family="sans-serif" font-size="7" lengthAdjust="spacing" textLength="35.5" x="496.25" y="822.9014">+getState()</text><text fill="#000000" font-family="sans-serif" font-size="7" lengthAdjust="spacing" textLength="45.5" x="496.25" y="832.2119">+getZipCode()</text><text fill="#000000" font-family="sans-serif" font-size="7" lengthAdjust="spacing" textLength="43" x="496.25" y="841.5225">-street: String</text><text fill="#000000" font-family="sans-serif" font-size="7" lengthAdjust="spacing" textLength="35.5" x="496.25" y="850.833">-city: String</text><text fill="#000000" font-family="sans-serif" font-size="7" lengthAdjust="spacing" textLength="40.5" x="496.25" y="860.1436">-state: String</text><text fill="#000000" font-family="sans-serif" font-size="7" lengthAdjust="spacing" textLength="50.5" x="496.25" y="869.4541">-zipCode: String</text><line style="stroke:#181818;stroke-width:0.5;" x1="493.75" x2="554.75" y1="873.2109" y2="873.2109"/><text fill="#000000" font-family="sans-serif" font-size="7" lengthAdjust="spacing" textLength="56" x="496.25" y="882.7646">+toString(): String</text></g><!--class PurchaseOrder--><g id="elem_PurchaseOrder"><rect fill="#F1F1F1" height="154.3477" id="PurchaseOrder" rx="1.25" ry="1.25" style="stroke:#181818;stroke-width:0.25;" width="217" x="572.75" y="699.5"/><ellipse cx="654.875" cy="707.5" fill="#ADD1B2" rx="5.5" ry="5.5" style="stroke:#181818;stroke-width:0.5;"/><path d="M656.2578,705.4375 Q656.3359,705.3281 656.4297,705.2734 Q656.5234,705.2188 656.6328,705.2188 Q656.8203,705.2188 656.9375,705.3516 Q657.0547,705.4766 657.0547,705.7813 L657.0547,706.5078 Q657.0547,706.8125 656.9375,706.9453 Q656.8203,707.0781 656.6328,707.0781 Q656.4609,707.0781 656.3594,706.9766 Q656.2578,706.8828 656.2031,706.625 Q656.1797,706.4453 656.0859,706.3516 Q655.9219,706.1641 655.6172,706.0547 Q655.3125,705.9453 655,705.9453 Q654.6172,705.9453 654.2969,706.1094 Q653.9844,706.2734 653.7344,706.6484 Q653.4922,707.0234 653.4922,707.5391 L653.4922,708.0859 Q653.4922,708.7031 653.9375,709.1172 Q654.3828,709.5234 655.1797,709.5234 Q655.6484,709.5234 655.9766,709.3984 Q656.1719,709.3203 656.3828,709.1016 Q656.5156,708.9688 656.5859,708.9297 Q656.6641,708.8906 656.7656,708.8906 Q656.9297,708.8906 657.0547,709.0234 Q657.1875,709.1484 657.1875,709.3203 Q657.1875,709.4922 657.0156,709.6953 Q656.7656,709.9844 656.3672,710.1484 Q655.8281,710.375 655.1797,710.375 Q654.4219,710.375 653.8203,710.0625 Q653.3281,709.8125 652.9844,709.2813 Q652.6406,708.7422 652.6406,708.1016 L652.6406,707.5234 Q652.6406,706.8594 652.9453,706.2891 Q653.2578,705.7109 653.8047,705.4063 Q654.3516,705.0938 654.9688,705.0938 Q655.3359,705.0938 655.6563,705.1797 Q655.9844,705.2578 656.2578,705.4375 Z " fill="#000000"/><text fill="#000000" font-family="sans-serif" font-size="7" lengthAdjust="spacing" textLength="48.5" x="665.125" y="710.3984">PurchaseOrder</text><line style="stroke:#181818;stroke-width:0.25;" x1="573.25" x2="789.25" y1="715.5" y2="715.5"/><text fill="#000000" font-family="sans-serif" font-size="7" lengthAdjust="spacing" textLength="58" x="575.75" y="725.0537">-userEmail : String</text><text fill="#000000" font-family="sans-serif" font-size="7" lengthAdjust="spacing" textLength="106.5" x="575.75" y="734.3643">-announcement : Announcements</text><text fill="#000000" font-family="sans-serif" font-size="7" lengthAdjust="spacing" textLength="71" x="575.75" y="743.6748">-orderAmount : double</text><text fill="#000000" font-family="sans-serif" font-size="7" lengthAdjust="spacing" textLength="52.5" x="575.75" y="752.9854">-acceptance : int</text><line style="stroke:#181818;stroke-width:0.5;" x1="573.25" x2="789.25" y1="756.7422" y2="756.7422"/><text fill="#000000" font-family="sans-serif" font-size="7" lengthAdjust="spacing" textLength="211" x="575.75" y="766.2959">+PurchaseOrder(userEmail, propertyID, orderAmount, acceptance)</text><text fill="#000000" font-family="sans-serif" font-size="7" lengthAdjust="spacing" textLength="28.5" x="575.75" y="775.6064">+getUser</text><text fill="#000000" font-family="sans-serif" font-size="7" lengthAdjust="spacing" textLength="68" x="575.75" y="784.917">+getAnnouncementID</text><text fill="#000000" font-family="sans-serif" font-size="7" lengthAdjust="spacing" textLength="56.5" x="575.75" y="794.2275">+getOrderAmount</text><text fill="#000000" font-family="sans-serif" font-size="7" lengthAdjust="spacing" textLength="51" x="575.75" y="803.5381">+getAcceptance</text><text fill="#000000" font-family="sans-serif" font-size="7" lengthAdjust="spacing" textLength="28" x="575.75" y="812.8486">+setUser</text><text fill="#000000" font-family="sans-serif" font-size="7" lengthAdjust="spacing" textLength="75.5" x="575.75" y="822.1592">+setAnnouncementByID</text><text fill="#000000" font-family="sans-serif" font-size="7" lengthAdjust="spacing" textLength="56" x="575.75" y="831.4697">+setOrderAmount</text><text fill="#000000" font-family="sans-serif" font-size="7" lengthAdjust="spacing" textLength="50.5" x="575.75" y="840.7803">+setAcceptance</text><text fill="#000000" font-family="sans-serif" font-size="7" lengthAdjust="spacing" textLength="56" x="575.75" y="850.0908">+toString(): String</text></g><!--class Announcements--><g id="elem_Announcements"><rect fill="#F1F1F1" height="42.6211" id="Announcements" rx="1.25" ry="1.25" style="stroke:#181818;stroke-width:0.25;" width="111" x="622.25" y="310.25"/><ellipse cx="650.125" cy="318.25" fill="#ADD1B2" rx="5.5" ry="5.5" style="stroke:#181818;stroke-width:0.5;"/><path d="M651.5078,316.1875 Q651.5859,316.0781 651.6797,316.0234 Q651.7734,315.9688 651.8828,315.9688 Q652.0703,315.9688 652.1875,316.1016 Q652.3047,316.2266 652.3047,316.5313 L652.3047,317.2578 Q652.3047,317.5625 652.1875,317.6953 Q652.0703,317.8281 651.8828,317.8281 Q651.7109,317.8281 651.6094,317.7266 Q651.5078,317.6328 651.4531,317.375 Q651.4297,317.1953 651.3359,317.1016 Q651.1719,316.9141 650.8672,316.8047 Q650.5625,316.6953 650.25,316.6953 Q649.8672,316.6953 649.5469,316.8594 Q649.2344,317.0234 648.9844,317.3984 Q648.7422,317.7734 648.7422,318.2891 L648.7422,318.8359 Q648.7422,319.4531 649.1875,319.8672 Q649.6328,320.2734 650.4297,320.2734 Q650.8984,320.2734 651.2266,320.1484 Q651.4219,320.0703 651.6328,319.8516 Q651.7656,319.7188 651.8359,319.6797 Q651.9141,319.6406 652.0156,319.6406 Q652.1797,319.6406 652.3047,319.7734 Q652.4375,319.8984 652.4375,320.0703 Q652.4375,320.2422 652.2656,320.4453 Q652.0156,320.7344 651.6172,320.8984 Q651.0781,321.125 650.4297,321.125 Q649.6719,321.125 649.0703,320.8125 Q648.5781,320.5625 648.2344,320.0313 Q647.8906,319.4922 647.8906,318.8516 L647.8906,318.2734 Q647.8906,317.6094 648.1953,317.0391 Q648.5078,316.4609 649.0547,316.1563 Q649.6016,315.8438 650.2188,315.8438 Q650.5859,315.8438 650.9063,315.9297 Q651.2344,316.0078 651.5078,316.1875 Z " fill="#000000"/><text fill="#000000" font-family="sans-serif" font-size="7" lengthAdjust="spacing" textLength="51" x="660.375" y="321.1484">Announcements</text><line style="stroke:#181818;stroke-width:0.25;" x1="622.75" x2="732.75" y1="326.25" y2="326.25"/><text fill="#000000" font-family="sans-serif" font-size="7" lengthAdjust="spacing" textLength="105" x="625.25" y="335.8037">-announcements : List&lt;Property&gt;</text><line style="stroke:#181818;stroke-width:0.5;" x1="622.75" x2="732.75" y1="339.5605" y2="339.5605"/><text fill="#000000" font-family="sans-serif" font-size="7" lengthAdjust="spacing" textLength="65" x="625.25" y="349.1143">+getAnnouncements</text></g><!--class AuthenticationRepository--><g id="elem_AuthenticationRepository"><rect fill="#F1F1F1" height="33.3105" id="AuthenticationRepository" rx="1.25" ry="1.25" style="stroke:#181818;stroke-width:0.25;" width="95" x="649.25" y="3.5"/><ellipse cx="656.75" cy="11.5" fill="#ADD1B2" rx="5.5" ry="5.5" style="stroke:#181818;stroke-width:0.5;"/><path d="M658.1328,9.4375 Q658.2109,9.3281 658.3047,9.2734 Q658.3984,9.2188 658.5078,9.2188 Q658.6953,9.2188 658.8125,9.3516 Q658.9297,9.4766 658.9297,9.7813 L658.9297,10.5078 Q658.9297,10.8125 658.8125,10.9453 Q658.6953,11.0781 658.5078,11.0781 Q658.3359,11.0781 658.2344,10.9766 Q658.1328,10.8828 658.0781,10.625 Q658.0547,10.4453 657.9609,10.3516 Q657.7969,10.1641 657.4922,10.0547 Q657.1875,9.9453 656.875,9.9453 Q656.4922,9.9453 656.1719,10.1094 Q655.8594,10.2734 655.6094,10.6484 Q655.3672,11.0234 655.3672,11.5391 L655.3672,12.0859 Q655.3672,12.7031 655.8125,13.1172 Q656.2578,13.5234 657.0547,13.5234 Q657.5234,13.5234 657.8516,13.3984 Q658.0469,13.3203 658.2578,13.1016 Q658.3906,12.9688 658.4609,12.9297 Q658.5391,12.8906 658.6406,12.8906 Q658.8047,12.8906 658.9297,13.0234 Q659.0625,13.1484 659.0625,13.3203 Q659.0625,13.4922 658.8906,13.6953 Q658.6406,13.9844 658.2422,14.1484 Q657.7031,14.375 657.0547,14.375 Q656.2969,14.375 655.6953,14.0625 Q655.2031,13.8125 654.8594,13.2813 Q654.5156,12.7422 654.5156,12.1016 L654.5156,11.5234 Q654.5156,10.8594 654.8203,10.2891 Q655.1328,9.7109 655.6797,9.4063 Q656.2266,9.0938 656.8438,9.0938 Q657.2109,9.0938 657.5313,9.1797 Q657.8594,9.2578 658.1328,9.4375 Z " fill="#000000"/><text fill="#000000" font-family="sans-serif" font-size="7" lengthAdjust="spacing" textLength="79" x="663.75" y="14.3984">AuthenticationRepository</text><line style="stroke:#181818;stroke-width:0.25;" x1="649.75" x2="743.75" y1="19.5" y2="19.5"/><line style="stroke:#181818;stroke-width:0.5;" x1="649.75" x2="743.75" y1="23.5" y2="23.5"/><text fill="#000000" font-family="sans-serif" font-size="7" lengthAdjust="spacing" textLength="82.5" x="652.25" y="33.0537">+getCurrentUserSession()</text></g><!--class Property--><g id="elem_Property"><rect fill="#F1F1F1" height="154.3477" id="Property" rx="1.25" ry="1.25" style="stroke:#181818;stroke-width:0.25;" width="132" x="238.25" y="430.5"/><ellipse cx="288.625" cy="438.5" fill="#ADD1B2" rx="5.5" ry="5.5" style="stroke:#181818;stroke-width:0.5;"/><path d="M290.0078,436.4375 Q290.0859,436.3281 290.1797,436.2734 Q290.2734,436.2188 290.3828,436.2188 Q290.5703,436.2188 290.6875,436.3516 Q290.8047,436.4766 290.8047,436.7813 L290.8047,437.5078 Q290.8047,437.8125 290.6875,437.9453 Q290.5703,438.0781 290.3828,438.0781 Q290.2109,438.0781 290.1094,437.9766 Q290.0078,437.8828 289.9531,437.625 Q289.9297,437.4453 289.8359,437.3516 Q289.6719,437.1641 289.3672,437.0547 Q289.0625,436.9453 288.75,436.9453 Q288.3672,436.9453 288.0469,437.1094 Q287.7344,437.2734 287.4844,437.6484 Q287.2422,438.0234 287.2422,438.5391 L287.2422,439.0859 Q287.2422,439.7031 287.6875,440.1172 Q288.1328,440.5234 288.9297,440.5234 Q289.3984,440.5234 289.7266,440.3984 Q289.9219,440.3203 290.1328,440.1016 Q290.2656,439.9688 290.3359,439.9297 Q290.4141,439.8906 290.5156,439.8906 Q290.6797,439.8906 290.8047,440.0234 Q290.9375,440.1484 290.9375,440.3203 Q290.9375,440.4922 290.7656,440.6953 Q290.5156,440.9844 290.1172,441.1484 Q289.5781,441.375 288.9297,441.375 Q288.1719,441.375 287.5703,441.0625 Q287.0781,440.8125 286.7344,440.2813 Q286.3906,439.7422 286.3906,439.1016 L286.3906,438.5234 Q286.3906,437.8594 286.6953,437.2891 Q287.0078,436.7109 287.5547,436.4063 Q288.1016,436.0938 288.7188,436.0938 Q289.0859,436.0938 289.4063,436.1797 Q289.7344,436.2578 290.0078,436.4375 Z " fill="#000000"/><text fill="#000000" font-family="sans-serif" font-size="7" lengthAdjust="spacing" textLength="27" x="298.875" y="441.3984">Property</text><line style="stroke:#181818;stroke-width:0.25;" x1="238.75" x2="369.75" y1="446.5" y2="446.5"/><text fill="#000000" font-family="sans-serif" font-size="7" lengthAdjust="spacing" textLength="67.5" x="241.25" y="456.0537">-propertyType: String</text><text fill="#000000" font-family="sans-serif" font-size="7" lengthAdjust="spacing" textLength="46" x="241.25" y="465.3643">-owner: Owner</text><text fill="#000000" font-family="sans-serif" font-size="7" lengthAdjust="spacing" textLength="102.5" x="241.25" y="474.6748">-commission: CommissionDetails</text><text fill="#000000" font-family="sans-serif" font-size="7" lengthAdjust="spacing" textLength="43" x="241.25" y="483.9854">-agent: Agent</text><text fill="#000000" font-family="sans-serif" font-size="7" lengthAdjust="spacing" textLength="77" x="241.25" y="493.2959">-areaOfProperty: double</text><text fill="#000000" font-family="sans-serif" font-size="7" lengthAdjust="spacing" textLength="92.5" x="241.25" y="502.6064">-distanceFromCentre: double</text><text fill="#000000" font-family="sans-serif" font-size="7" lengthAdjust="spacing" textLength="76.5" x="241.25" y="511.917">-acceptanceDate: String</text><text fill="#000000" font-family="sans-serif" font-size="7" lengthAdjust="spacing" textLength="64" x="241.25" y="521.2275">-requestDate: String</text><text fill="#000000" font-family="sans-serif" font-size="7" lengthAdjust="spacing" textLength="58" x="241.25" y="530.5381">-address: Address</text><text fill="#000000" font-family="sans-serif" font-size="7" lengthAdjust="spacing" textLength="82.5" x="241.25" y="539.8486">-photos: ArrayList&lt;Photo&gt;</text><text fill="#000000" font-family="sans-serif" font-size="7" lengthAdjust="spacing" textLength="43" x="241.25" y="549.1592">-photo: Photo</text><text fill="#000000" font-family="sans-serif" font-size="7" lengthAdjust="spacing" textLength="126" x="241.25" y="558.4697">-typeOfTransaction: TypeOfTransaction</text><text fill="#000000" font-family="sans-serif" font-size="7" lengthAdjust="spacing" textLength="61" x="241.25" y="567.7803">-announcement: int</text><line style="stroke:#181818;stroke-width:0.5;" x1="238.75" x2="369.75" y1="571.5371" y2="571.5371"/><text fill="#000000" font-family="sans-serif" font-size="7" lengthAdjust="spacing" textLength="56" x="241.25" y="581.0908">+toString(): String</text></g><polygon fill="none" points="249.4864,584.8477,246.5537,595.0285,240.845,590.9775" style="stroke:#181818;stroke-width:0.5;"/><line style="stroke:#181818;stroke-width:0.5;" x1="243.6993" x2="241.75" y1="593.003" y2="595.75"/><line style="stroke:#181818;stroke-width:0.5;" x1="370.25" x2="380.34" y1="507.7399" y2="507.75"/><line style="stroke:#181818;stroke-width:0.5;" x1="364.84" x2="374.065" y1="430.5" y2="418.75"/><line style="stroke:#181818;stroke-width:0.5;" x1="304.25" x2="304.25" y1="430.5" y2="410.3"/><line style="stroke:#181818;stroke-width:0.5;" x1="304.0382" x2="304.01" y1="584.8477" y2="595.105"/><line style="stroke:#181818;stroke-width:0.5;" x1="357.8163" x2="364.87" y1="584.8477" y2="595.01"/><line style="stroke:#181818;stroke-width:0.5;" x1="282.6522" x2="279.79" y1="584.8477" y2="595.075"/><line style="stroke:#181818;stroke-width:0.5;" x1="238.25" x2="228.185" y1="507.7399" y2="507.75"/><!--class CommissionDetails--><g id="elem_CommissionDetails"><rect fill="#F1F1F1" height="51.9316" id="CommissionDetails" rx="1.25" ry="1.25" style="stroke:#181818;stroke-width:0.25;" width="89.5" x="184" y="750.75"/><ellipse cx="197.8" cy="758.75" fill="#ADD1B2" rx="5.5" ry="5.5" style="stroke:#181818;stroke-width:0.5;"/><path d="M199.1828,756.6875 Q199.2609,756.5781 199.3547,756.5234 Q199.4484,756.4688 199.5578,756.4688 Q199.7453,756.4688 199.8625,756.6016 Q199.9797,756.7266 199.9797,757.0313 L199.9797,757.7578 Q199.9797,758.0625 199.8625,758.1953 Q199.7453,758.3281 199.5578,758.3281 Q199.3859,758.3281 199.2844,758.2266 Q199.1828,758.1328 199.1281,757.875 Q199.1047,757.6953 199.0109,757.6016 Q198.8469,757.4141 198.5422,757.3047 Q198.2375,757.1953 197.925,757.1953 Q197.5422,757.1953 197.2219,757.3594 Q196.9094,757.5234 196.6594,757.8984 Q196.4172,758.2734 196.4172,758.7891 L196.4172,759.3359 Q196.4172,759.9531 196.8625,760.3672 Q197.3078,760.7734 198.1047,760.7734 Q198.5734,760.7734 198.9016,760.6484 Q199.0969,760.5703 199.3078,760.3516 Q199.4406,760.2188 199.5109,760.1797 Q199.5891,760.1406 199.6906,760.1406 Q199.8547,760.1406 199.9797,760.2734 Q200.1125,760.3984 200.1125,760.5703 Q200.1125,760.7422 199.9406,760.9453 Q199.6906,761.2344 199.2922,761.3984 Q198.7531,761.625 198.1047,761.625 Q197.3469,761.625 196.7453,761.3125 Q196.2531,761.0625 195.9094,760.5313 Q195.5656,759.9922 195.5656,759.3516 L195.5656,758.7734 Q195.5656,758.1094 195.8703,757.5391 Q196.1828,756.9609 196.7297,756.6563 Q197.2766,756.3438 197.8938,756.3438 Q198.2609,756.3438 198.5813,756.4297 Q198.9094,756.5078 199.1828,756.6875 Z " fill="#000000"/><text fill="#000000" font-family="sans-serif" font-size="7" lengthAdjust="spacing" textLength="59.5" x="206.2" y="761.6484">CommissionDetails</text><line style="stroke:#181818;stroke-width:0.25;" x1="184.5" x2="273" y1="766.75" y2="766.75"/><text fill="#000000" font-family="sans-serif" font-size="7" lengthAdjust="spacing" textLength="77.5" x="187" y="776.3037">-commissionType: String</text><text fill="#000000" font-family="sans-serif" font-size="7" lengthAdjust="spacing" textLength="83.5" x="187" y="785.6143">-commissionValue: Double</text><line style="stroke:#181818;stroke-width:0.5;" x1="184.5" x2="273" y1="789.3711" y2="789.3711"/><text fill="#000000" font-family="sans-serif" font-size="7" lengthAdjust="spacing" textLength="56" x="187" y="798.9248">+toString(): String</text></g><!--class TypeOfTransaction--><g id="elem_TypeOfTransaction"><rect fill="#F1F1F1" height="51.9316" id="TypeOfTransaction" rx="1.25" ry="1.25" style="stroke:#181818;stroke-width:0.25;" width="82" x="263.25" y="305.5"/><ellipse cx="273" cy="313.5" fill="#ADD1B2" rx="5.5" ry="5.5" style="stroke:#181818;stroke-width:0.5;"/><path d="M274.3828,311.4375 Q274.4609,311.3281 274.5547,311.2734 Q274.6484,311.2188 274.7578,311.2188 Q274.9453,311.2188 275.0625,311.3516 Q275.1797,311.4766 275.1797,311.7813 L275.1797,312.5078 Q275.1797,312.8125 275.0625,312.9453 Q274.9453,313.0781 274.7578,313.0781 Q274.5859,313.0781 274.4844,312.9766 Q274.3828,312.8828 274.3281,312.625 Q274.3047,312.4453 274.2109,312.3516 Q274.0469,312.1641 273.7422,312.0547 Q273.4375,311.9453 273.125,311.9453 Q272.7422,311.9453 272.4219,312.1094 Q272.1094,312.2734 271.8594,312.6484 Q271.6172,313.0234 271.6172,313.5391 L271.6172,314.0859 Q271.6172,314.7031 272.0625,315.1172 Q272.5078,315.5234 273.3047,315.5234 Q273.7734,315.5234 274.1016,315.3984 Q274.2969,315.3203 274.5078,315.1016 Q274.6406,314.9688 274.7109,314.9297 Q274.7891,314.8906 274.8906,314.8906 Q275.0547,314.8906 275.1797,315.0234 Q275.3125,315.1484 275.3125,315.3203 Q275.3125,315.4922 275.1406,315.6953 Q274.8906,315.9844 274.4922,316.1484 Q273.9531,316.375 273.3047,316.375 Q272.5469,316.375 271.9453,316.0625 Q271.4531,315.8125 271.1094,315.2813 Q270.7656,314.7422 270.7656,314.1016 L270.7656,313.5234 Q270.7656,312.8594 271.0703,312.2891 Q271.3828,311.7109 271.9297,311.4063 Q272.4766,311.0938 273.0938,311.0938 Q273.4609,311.0938 273.7813,311.1797 Q274.1094,311.2578 274.3828,311.4375 Z " fill="#000000"/><text fill="#000000" font-family="sans-serif" font-size="7" lengthAdjust="spacing" textLength="61" x="280.5" y="316.3984">TypeOfTransaction</text><line style="stroke:#181818;stroke-width:0.25;" x1="263.75" x2="344.75" y1="321.5" y2="321.5"/><text fill="#000000" font-family="sans-serif" font-size="7" lengthAdjust="spacing" textLength="76" x="266.25" y="331.0537">-transactionType: String</text><text fill="#000000" font-family="sans-serif" font-size="7" lengthAdjust="spacing" textLength="75.5" x="266.25" y="340.3643">-monetaryValue: double</text><line style="stroke:#181818;stroke-width:0.5;" x1="263.75" x2="344.75" y1="344.1211" y2="344.1211"/><text fill="#000000" font-family="sans-serif" font-size="7" lengthAdjust="spacing" textLength="56" x="266.25" y="353.6748">+toString(): String</text></g><!--class Photo--><g id="elem_Photo"><rect fill="#F1F1F1" height="51.9316" id="Photo" rx="1.25" ry="1.25" style="stroke:#181818;stroke-width:0.25;" width="62" x="123.25" y="481.75"/><ellipse cx="143.125" cy="489.75" fill="#ADD1B2" rx="5.5" ry="5.5" style="stroke:#181818;stroke-width:0.5;"/><path d="M144.5078,487.6875 Q144.5859,487.5781 144.6797,487.5234 Q144.7734,487.4688 144.8828,487.4688 Q145.0703,487.4688 145.1875,487.6016 Q145.3047,487.7266 145.3047,488.0313 L145.3047,488.7578 Q145.3047,489.0625 145.1875,489.1953 Q145.0703,489.3281 144.8828,489.3281 Q144.7109,489.3281 144.6094,489.2266 Q144.5078,489.1328 144.4531,488.875 Q144.4297,488.6953 144.3359,488.6016 Q144.1719,488.4141 143.8672,488.3047 Q143.5625,488.1953 143.25,488.1953 Q142.8672,488.1953 142.5469,488.3594 Q142.2344,488.5234 141.9844,488.8984 Q141.7422,489.2734 141.7422,489.7891 L141.7422,490.3359 Q141.7422,490.9531 142.1875,491.3672 Q142.6328,491.7734 143.4297,491.7734 Q143.8984,491.7734 144.2266,491.6484 Q144.4219,491.5703 144.6328,491.3516 Q144.7656,491.2188 144.8359,491.1797 Q144.9141,491.1406 145.0156,491.1406 Q145.1797,491.1406 145.3047,491.2734 Q145.4375,491.3984 145.4375,491.5703 Q145.4375,491.7422 145.2656,491.9453 Q145.0156,492.2344 144.6172,492.3984 Q144.0781,492.625 143.4297,492.625 Q142.6719,492.625 142.0703,492.3125 Q141.5781,492.0625 141.2344,491.5313 Q140.8906,490.9922 140.8906,490.3516 L140.8906,489.7734 Q140.8906,489.1094 141.1953,488.5391 Q141.5078,487.9609 142.0547,487.6563 Q142.6016,487.3438 143.2188,487.3438 Q143.5859,487.3438 143.9063,487.4297 Q144.2344,487.5078 144.5078,487.6875 Z " fill="#000000"/><text fill="#000000" font-family="sans-serif" font-size="7" lengthAdjust="spacing" textLength="18.5" x="152.875" y="492.6484">Photo</text><line style="stroke:#181818;stroke-width:0.25;" x1="123.75" x2="184.75" y1="497.75" y2="497.75"/><text fill="#000000" font-family="sans-serif" font-size="7" lengthAdjust="spacing" textLength="38.5" x="126.25" y="507.3037">-photoID: int</text><text fill="#000000" font-family="sans-serif" font-size="7" lengthAdjust="spacing" textLength="54" x="126.25" y="516.6143">-photoURI: String</text><line style="stroke:#181818;stroke-width:0.5;" x1="123.75" x2="184.75" y1="520.3711" y2="520.3711"/><text fill="#000000" font-family="sans-serif" font-size="7" lengthAdjust="spacing" textLength="56" x="126.25" y="529.9248">+toString(): String</text></g><!--class Building--><g id="elem_Building"><rect
        fill="#F1F1F1" height="70.5527" id="Building" rx="1.25" ry="1.25" style="stroke:#181818;stroke-width:0.25;" width="79" x="27.25" y="741.5"/><ellipse cx="52.125" cy="749.5" fill="#ADD1B2" rx="5.5" ry="5.5" style="stroke:#181818;stroke-width:0.5;"/><path d="M53.5078,747.4375 Q53.5859,747.3281 53.6797,747.2734 Q53.7734,747.2188 53.8828,747.2188 Q54.0703,747.2188 54.1875,747.3516 Q54.3047,747.4766 54.3047,747.7813 L54.3047,748.5078 Q54.3047,748.8125 54.1875,748.9453 Q54.0703,749.0781 53.8828,749.0781 Q53.7109,749.0781 53.6094,748.9766 Q53.5078,748.8828 53.4531,748.625 Q53.4297,748.4453 53.3359,748.3516 Q53.1719,748.1641 52.8672,748.0547 Q52.5625,747.9453 52.25,747.9453 Q51.8672,747.9453 51.5469,748.1094 Q51.2344,748.2734 50.9844,748.6484 Q50.7422,749.0234 50.7422,749.5391 L50.7422,750.0859 Q50.7422,750.7031 51.1875,751.1172 Q51.6328,751.5234 52.4297,751.5234 Q52.8984,751.5234 53.2266,751.3984 Q53.4219,751.3203 53.6328,751.1016 Q53.7656,750.9688 53.8359,750.9297 Q53.9141,750.8906 54.0156,750.8906 Q54.1797,750.8906 54.3047,751.0234 Q54.4375,751.1484 54.4375,751.3203 Q54.4375,751.4922 54.2656,751.6953 Q54.0156,751.9844 53.6172,752.1484 Q53.0781,752.375 52.4297,752.375 Q51.6719,752.375 51.0703,752.0625 Q50.5781,751.8125 50.2344,751.2813 Q49.8906,750.7422 49.8906,750.1016 L49.8906,749.5234 Q49.8906,748.8594 50.1953,748.2891 Q50.5078,747.7109 51.0547,747.4063 Q51.6016,747.0938 52.2188,747.0938 Q52.5859,747.0938 52.9063,747.1797 Q53.2344,747.2578 53.5078,747.4375 Z " fill="#000000"/><text fill="#000000" font-family="sans-serif" font-size="7" lengthAdjust="spacing" textLength="25" x="62.375" y="752.3984">Building</text><line style="stroke:#181818;stroke-width:0.25;" x1="27.75" x2="105.75" y1="757.5" y2="757.5"/><text fill="#000000" font-family="sans-serif" font-size="7" lengthAdjust="spacing" textLength="45.5" x="30.25" y="767.0537">-bedrooms: int</text><text fill="#000000" font-family="sans-serif" font-size="7" lengthAdjust="spacing" textLength="47.5" x="30.25" y="776.3643">-bathrooms: int</text><text fill="#000000" font-family="sans-serif" font-size="7" lengthAdjust="spacing" textLength="61" x="30.25" y="785.6748">-parkingSpaces: int</text><text fill="#000000" font-family="sans-serif" font-size="7" lengthAdjust="spacing" textLength="73" x="30.25" y="794.9854">-equipment: Equipment</text><line style="stroke:#181818;stroke-width:0.5;" x1="27.75" x2="105.75" y1="798.7422" y2="798.7422"/><text fill="#000000" font-family="sans-serif" font-size="7" lengthAdjust="spacing" textLength="56" x="30.25" y="808.2959">+toString(): String</text></g><polygon fill="none" points="66.75,812.0527,70.25,822.0527,63.25,822.0527" style="stroke:#181818;stroke-width:0.5;"/><line style="stroke:#181818;stroke-width:0.5;" x1="66.75" x2="66.75" y1="822.0527" y2="822.75"/><line style="stroke:#181818;stroke-width:0.5;" x1="66.6839" x2="66.665" y1="741.5" y2="731.385"/><line style="stroke:#181818;stroke-width:0.5;" x1="80.0788" x2="83.895" y1="741.5" y2="731.4"/><!--class Equipment--><g id="elem_Equipment"><rect
        fill="#F1F1F1" height="51.9316" id="Equipment" rx="1.25" ry="1.25" style="stroke:#181818;stroke-width:0.25;" width="78.5" x="27" y="481.75"/><ellipse cx="47.55" cy="489.75" fill="#ADD1B2" rx="5.5" ry="5.5" style="stroke:#181818;stroke-width:0.5;"/><path d="M48.9328,487.6875 Q49.0109,487.5781 49.1047,487.5234 Q49.1984,487.4688 49.3078,487.4688 Q49.4953,487.4688 49.6125,487.6016 Q49.7297,487.7266 49.7297,488.0313 L49.7297,488.7578 Q49.7297,489.0625 49.6125,489.1953 Q49.4953,489.3281 49.3078,489.3281 Q49.1359,489.3281 49.0344,489.2266 Q48.9328,489.1328 48.8781,488.875 Q48.8547,488.6953 48.7609,488.6016 Q48.5969,488.4141 48.2922,488.3047 Q47.9875,488.1953 47.675,488.1953 Q47.2922,488.1953 46.9719,488.3594 Q46.6594,488.5234 46.4094,488.8984 Q46.1672,489.2734 46.1672,489.7891 L46.1672,490.3359 Q46.1672,490.9531 46.6125,491.3672 Q47.0578,491.7734 47.8547,491.7734 Q48.3234,491.7734 48.6516,491.6484 Q48.8469,491.5703 49.0578,491.3516 Q49.1906,491.2188 49.2609,491.1797 Q49.3391,491.1406 49.4406,491.1406 Q49.6047,491.1406 49.7297,491.2734 Q49.8625,491.3984 49.8625,491.5703 Q49.8625,491.7422 49.6906,491.9453 Q49.4406,492.2344 49.0422,492.3984 Q48.5031,492.625 47.8547,492.625 Q47.0969,492.625 46.4953,492.3125 Q46.0031,492.0625 45.6594,491.5313 Q45.3156,490.9922 45.3156,490.3516 L45.3156,489.7734 Q45.3156,489.1094 45.6203,488.5391 Q45.9328,487.9609 46.4797,487.6563 Q47.0266,487.3438 47.6438,487.3438 Q48.0109,487.3438 48.3313,487.4297 Q48.6594,487.5078 48.9328,487.6875 Z " fill="#000000"/><text fill="#000000" font-family="sans-serif" font-size="7" lengthAdjust="spacing" textLength="33.5" x="57.45" y="492.6484">Equipment</text><line style="stroke:#181818;stroke-width:0.25;" x1="27.5" x2="105" y1="497.75" y2="497.75"/><text fill="#000000" font-family="sans-serif" font-size="7" lengthAdjust="spacing" textLength="72.5" x="30" y="507.3037">-airConditioning: String</text><text fill="#000000" font-family="sans-serif" font-size="7" lengthAdjust="spacing" textLength="70.5" x="30" y="516.6143">-centralHeating: String</text><line style="stroke:#181818;stroke-width:0.5;" x1="27.5" x2="105" y1="520.3711" y2="520.3711"/><text fill="#000000" font-family="sans-serif" font-size="7" lengthAdjust="spacing" textLength="56" x="30" y="529.9248">+toString(): String</text></g><!--class House--><g id="elem_House"><rect fill="#F1F1F1" height="61.2422" id="House" rx="1.25" ry="1.25" style="stroke:#181818;stroke-width:0.25;" width="72" x="69.75" y="935.5"/><ellipse cx="93.625" cy="943.5" fill="#ADD1B2" rx="5.5" ry="5.5" style="stroke:#181818;stroke-width:0.5;"/><path d="M95.0078,941.4375 Q95.0859,941.3281 95.1797,941.2734 Q95.2734,941.2188 95.3828,941.2188 Q95.5703,941.2188 95.6875,941.3516 Q95.8047,941.4766 95.8047,941.7813 L95.8047,942.5078 Q95.8047,942.8125 95.6875,942.9453 Q95.5703,943.0781 95.3828,943.0781 Q95.2109,943.0781 95.1094,942.9766 Q95.0078,942.8828 94.9531,942.625 Q94.9297,942.4453 94.8359,942.3516 Q94.6719,942.1641 94.3672,942.0547 Q94.0625,941.9453 93.75,941.9453 Q93.3672,941.9453 93.0469,942.1094 Q92.7344,942.2734 92.4844,942.6484 Q92.2422,943.0234 92.2422,943.5391 L92.2422,944.0859 Q92.2422,944.7031 92.6875,945.1172 Q93.1328,945.5234 93.9297,945.5234 Q94.3984,945.5234 94.7266,945.3984 Q94.9219,945.3203 95.1328,945.1016 Q95.2656,944.9688 95.3359,944.9297 Q95.4141,944.8906 95.5156,944.8906 Q95.6797,944.8906 95.8047,945.0234 Q95.9375,945.1484 95.9375,945.3203 Q95.9375,945.4922 95.7656,945.6953 Q95.5156,945.9844 95.1172,946.1484 Q94.5781,946.375 93.9297,946.375 Q93.1719,946.375 92.5703,946.0625 Q92.0781,945.8125 91.7344,945.2813 Q91.3906,944.7422 91.3906,944.1016 L91.3906,943.5234 Q91.3906,942.8594 91.6953,942.2891 Q92.0078,941.7109 92.5547,941.4063 Q93.1016,941.0938 93.7188,941.0938 Q94.0859,941.0938 94.4063,941.1797 Q94.7344,941.2578 95.0078,941.4375 Z " fill="#000000"/><text fill="#000000" font-family="sans-serif" font-size="7" lengthAdjust="spacing" textLength="20" x="103.875" y="946.3984">House</text><line style="stroke:#181818;stroke-width:0.25;" x1="70.25" x2="141.25" y1="951.5" y2="951.5"/><text fill="#000000" font-family="sans-serif" font-size="7" lengthAdjust="spacing" textLength="63" x="72.75" y="961.0537">-basement: boolean</text><text fill="#000000" font-family="sans-serif" font-size="7" lengthAdjust="spacing" textLength="41.5" x="72.75" y="970.3643">-loft: boolean</text><text fill="#000000" font-family="sans-serif" font-size="7" lengthAdjust="spacing" textLength="66" x="72.75" y="979.6748">-sunExposure: String</text><line style="stroke:#181818;stroke-width:0.5;" x1="70.25" x2="141.25" y1="983.4316" y2="983.4316"/><text fill="#000000" font-family="sans-serif" font-size="7" lengthAdjust="spacing" textLength="56" x="72.75" y="992.9854">+toString(): String</text></g><!--class Owner--><g id="elem_Owner"><rect fill="#F1F1F1" height="70.5527" id="Owner" rx="1.25" ry="1.25" style="stroke:#181818;stroke-width:0.25;" width="89" x="291.25" y="741.5"/><ellipse cx="323.375" cy="749.5" fill="#ADD1B2" rx="5.5" ry="5.5" style="stroke:#181818;stroke-width:0.5;"/><path d="M324.7578,747.4375 Q324.8359,747.3281 324.9297,747.2734 Q325.0234,747.2188 325.1328,747.2188 Q325.3203,747.2188 325.4375,747.3516 Q325.5547,747.4766 325.5547,747.7813 L325.5547,748.5078 Q325.5547,748.8125 325.4375,748.9453 Q325.3203,749.0781 325.1328,749.0781 Q324.9609,749.0781 324.8594,748.9766 Q324.7578,748.8828 324.7031,748.625 Q324.6797,748.4453 324.5859,748.3516 Q324.4219,748.1641 324.1172,748.0547 Q323.8125,747.9453 323.5,747.9453 Q323.1172,747.9453 322.7969,748.1094 Q322.4844,748.2734 322.2344,748.6484 Q321.9922,749.0234 321.9922,749.5391 L321.9922,750.0859 Q321.9922,750.7031 322.4375,751.1172 Q322.8828,751.5234 323.6797,751.5234 Q324.1484,751.5234 324.4766,751.3984 Q324.6719,751.3203 324.8828,751.1016 Q325.0156,750.9688 325.0859,750.9297 Q325.1641,750.8906 325.2656,750.8906 Q325.4297,750.8906 325.5547,751.0234 Q325.6875,751.1484 325.6875,751.3203 Q325.6875,751.4922 325.5156,751.6953 Q325.2656,751.9844 324.8672,752.1484 Q324.3281,752.375 323.6797,752.375 Q322.9219,752.375 322.3203,752.0625 Q321.8281,751.8125 321.4844,751.2813 Q321.1406,750.7422 321.1406,750.1016 L321.1406,749.5234 Q321.1406,748.8594 321.4453,748.2891 Q321.7578,747.7109 322.3047,747.4063 Q322.8516,747.0938 323.4688,747.0938 Q323.8359,747.0938 324.1563,747.1797 Q324.4844,747.2578 324.7578,747.4375 Z " fill="#000000"/><text fill="#000000" font-family="sans-serif" font-size="7" lengthAdjust="spacing" textLength="20.5" x="333.625" y="752.3984">Owner</text><line style="stroke:#181818;stroke-width:0.25;" x1="291.75" x2="379.75" y1="757.5" y2="757.5"/><text fill="#000000" font-family="sans-serif" font-size="7" lengthAdjust="spacing" textLength="44.5" x="294.25" y="767.0537">-name : String</text><text fill="#000000" font-family="sans-serif" font-size="7" lengthAdjust="spacing" textLength="64" x="294.25" y="776.3643">-taxNumber : Integer</text><text fill="#000000" font-family="sans-serif" font-size="7" lengthAdjust="spacing" textLength="69.5" x="294.25" y="785.6748">-emailAddress : String</text><text fill="#000000" font-family="sans-serif" font-size="7" lengthAdjust="spacing" textLength="83" x="294.25" y="794.9854">-telephoneNumber : String</text><line style="stroke:#181818;stroke-width:0.5;" x1="291.75" x2="379.75" y1="798.7422" y2="798.7422"/><text fill="#000000" font-family="sans-serif" font-size="7" lengthAdjust="spacing" textLength="56" x="294.25" y="808.2959">+toString(): String</text></g><!--class Land--><g id="elem_Land"><rect fill="#F1F1F1" height="24" id="Land" rx="1.25" ry="1.25" style="stroke:#181818;stroke-width:0.25;" width="32" x="134.25" y="764.75"/><ellipse cx="141.75" cy="772.75" fill="#ADD1B2" rx="5.5" ry="5.5" style="stroke:#181818;stroke-width:0.5;"/><path d="M143.1328,770.6875 Q143.2109,770.5781 143.3047,770.5234 Q143.3984,770.4688 143.5078,770.4688 Q143.6953,770.4688 143.8125,770.6016 Q143.9297,770.7266 143.9297,771.0313 L143.9297,771.7578 Q143.9297,772.0625 143.8125,772.1953 Q143.6953,772.3281 143.5078,772.3281 Q143.3359,772.3281 143.2344,772.2266 Q143.1328,772.1328 143.0781,771.875 Q143.0547,771.6953 142.9609,771.6016 Q142.7969,771.4141 142.4922,771.3047 Q142.1875,771.1953 141.875,771.1953 Q141.4922,771.1953 141.1719,771.3594 Q140.8594,771.5234 140.6094,771.8984 Q140.3672,772.2734 140.3672,772.7891 L140.3672,773.3359 Q140.3672,773.9531 140.8125,774.3672 Q141.2578,774.7734 142.0547,774.7734 Q142.5234,774.7734 142.8516,774.6484 Q143.0469,774.5703 143.2578,774.3516 Q143.3906,774.2188 143.4609,774.1797 Q143.5391,774.1406 143.6406,774.1406 Q143.8047,774.1406 143.9297,774.2734 Q144.0625,774.3984 144.0625,774.5703 Q144.0625,774.7422 143.8906,774.9453 Q143.6406,775.2344 143.2422,775.3984 Q142.7031,775.625 142.0547,775.625 Q141.2969,775.625 140.6953,775.3125 Q140.2031,775.0625 139.8594,774.5313 Q139.5156,773.9922 139.5156,773.3516 L139.5156,772.7734 Q139.5156,772.1094 139.8203,771.5391 Q140.1328,770.9609 140.6797,770.6563 Q141.2266,770.3438 141.8438,770.3438 Q142.2109,770.3438 142.5313,770.4297 Q142.8594,770.5078 143.1328,770.6875 Z " fill="#000000"/><text fill="#000000" font-family="sans-serif" font-size="7" lengthAdjust="spacing" textLength="16" x="148.75" y="775.6484">Land</text><line style="stroke:#181818;stroke-width:0.25;" x1="134.75" x2="165.75" y1="780.75" y2="780.75"/><line style="stroke:#181818;stroke-width:0.25;" x1="134.75" x2="165.75" y1="784.75" y2="784.75"/></g><!--class PassportCard--><g id="elem_PassportCard"><rect fill="#F1F1F1" height="51.9316" id="PassportCard" rx="1.25" ry="1.25" style="stroke:#181818;stroke-width:0.25;" width="77.5" x="398" y="750.75"/><ellipse cx="413.6" cy="758.75" fill="#ADD1B2" rx="5.5" ry="5.5" style="stroke:#181818;stroke-width:0.5;"/><path d="M414.9828,756.6875 Q415.0609,756.5781 415.1547,756.5234 Q415.2484,756.4688 415.3578,756.4688 Q415.5453,756.4688 415.6625,756.6016 Q415.7797,756.7266 415.7797,757.0313 L415.7797,757.7578 Q415.7797,758.0625 415.6625,758.1953 Q415.5453,758.3281 415.3578,758.3281 Q415.1859,758.3281 415.0844,758.2266 Q414.9828,758.1328 414.9281,757.875 Q414.9047,757.6953 414.8109,757.6016 Q414.6469,757.4141 414.3422,757.3047 Q414.0375,757.1953 413.725,757.1953 Q413.3422,757.1953 413.0219,757.3594 Q412.7094,757.5234 412.4594,757.8984 Q412.2172,758.2734 412.2172,758.7891 L412.2172,759.3359 Q412.2172,759.9531 412.6625,760.3672 Q413.1078,760.7734 413.9047,760.7734 Q414.3734,760.7734 414.7016,760.6484 Q414.8969,760.5703 415.1078,760.3516 Q415.2406,760.2188 415.3109,760.1797 Q415.3891,760.1406 415.4906,760.1406 Q415.6547,760.1406 415.7797,760.2734 Q415.9125,760.3984 415.9125,760.5703 Q415.9125,760.7422 415.7406,760.9453 Q415.4906,761.2344 415.0922,761.3984 Q414.5531,761.625 413.9047,761.625 Q413.1469,761.625 412.5453,761.3125 Q412.0531,761.0625 411.7094,760.5313 Q411.3656,759.9922 411.3656,759.3516 L411.3656,758.7734 Q411.3656,758.1094 411.6703,757.5391 Q411.9828,756.9609 412.5297,756.6563 Q413.0766,756.3438 413.6938,756.3438 Q414.0609,756.3438 414.3813,756.4297 Q414.7094,756.5078 414.9828,756.6875 Z " fill="#000000"/><text fill="#000000" font-family="sans-serif" font-size="7" lengthAdjust="spacing" textLength="43.5" x="422.4" y="761.6484">PassportCard</text><line style="stroke:#181818;stroke-width:0.25;" x1="398.5" x2="475" y1="766.75" y2="766.75"/><text fill="#000000" font-family="sans-serif" font-size="7" lengthAdjust="spacing" textLength="52" x="401" y="776.3037">passportNumber</text><line style="stroke:#181818;stroke-width:0.25;" x1="398.5" x2="475" y1="780.0605" y2="780.0605"/><text fill="#000000" font-family="sans-serif" font-size="7" lengthAdjust="spacing" textLength="71.5" x="401" y="789.6143">+getPassportNumber()</text><text fill="#000000" font-family="sans-serif" font-size="7" lengthAdjust="spacing" textLength="69.5" x="401" y="798.9248">-setPassportNumber()</text></g><!--class Apartment--><g id="elem_Apartment"><rect fill="#F1F1F1" height="24" id="Apartment" rx="1.25" ry="1.25" style="stroke:#181818;stroke-width:0.25;" width="48.5" x="3.5" y="954"/><ellipse cx="11" cy="962" fill="#ADD1B2" rx="5.5" ry="5.5" style="stroke:#181818;stroke-width:0.5;"/><path d="M12.3828,959.9375 Q12.4609,959.8281 12.5547,959.7734 Q12.6484,959.7188 12.7578,959.7188 Q12.9453,959.7188 13.0625,959.8516 Q13.1797,959.9766 13.1797,960.2813 L13.1797,961.0078 Q13.1797,961.3125 13.0625,961.4453 Q12.9453,961.5781 12.7578,961.5781 Q12.5859,961.5781 12.4844,961.4766 Q12.3828,961.3828 12.3281,961.125 Q12.3047,960.9453 12.2109,960.8516 Q12.0469,960.6641 11.7422,960.5547 Q11.4375,960.4453 11.125,960.4453 Q10.7422,960.4453 10.4219,960.6094 Q10.1094,960.7734 9.8594,961.1484 Q9.6172,961.5234 9.6172,962.0391 L9.6172,962.5859 Q9.6172,963.2031 10.0625,963.6172 Q10.5078,964.0234 11.3047,964.0234 Q11.7734,964.0234 12.1016,963.8984 Q12.2969,963.8203 12.5078,963.6016 Q12.6406,963.4688 12.7109,963.4297 Q12.7891,963.3906 12.8906,963.3906 Q13.0547,963.3906 13.1797,963.5234 Q13.3125,963.6484 13.3125,963.8203 Q13.3125,963.9922 13.1406,964.1953 Q12.8906,964.4844 12.4922,964.6484 Q11.9531,964.875 11.3047,964.875 Q10.5469,964.875 9.9453,964.5625 Q9.4531,964.3125 9.1094,963.7813 Q8.7656,963.2422 8.7656,962.6016 L8.7656,962.0234 Q8.7656,961.3594 9.0703,960.7891 Q9.3828,960.2109 9.9297,959.9063 Q10.4766,959.5938 11.0938,959.5938 Q11.4609,959.5938 11.7813,959.6797 Q12.1094,959.7578 12.3828,959.9375 Z " fill="#000000"/><text fill="#000000" font-family="sans-serif" font-size="7" lengthAdjust="spacing" textLength="32.5" x="18" y="964.8984">Apartment</text><line style="stroke:#181818;stroke-width:0.25;" x1="4" x2="51.5" y1="970" y2="970"/><line style="stroke:#181818;stroke-width:0.25;" x1="4" x2="51.5" y1="974" y2="974"/></g><!--class Agency--><g id="elem_Agency"><rect fill="#F1F1F1" height="107.7949" id="Agency" rx="1.25" ry="1.25" style="stroke:#181818;stroke-width:0.25;" width="168" x="674.25" y="453.75"/><ellipse cx="744.375" cy="461.75" fill="#ADD1B2" rx="5.5" ry="5.5" style="stroke:#181818;stroke-width:0.5;"/><path d="M745.7578,459.6875 Q745.8359,459.5781 745.9297,459.5234 Q746.0234,459.4688 746.1328,459.4688 Q746.3203,459.4688 746.4375,459.6016 Q746.5547,459.7266 746.5547,460.0313 L746.5547,460.7578 Q746.5547,461.0625 746.4375,461.1953 Q746.3203,461.3281 746.1328,461.3281 Q745.9609,461.3281 745.8594,461.2266 Q745.7578,461.1328 745.7031,460.875 Q745.6797,460.6953 745.5859,460.6016 Q745.4219,460.4141 745.1172,460.3047 Q744.8125,460.1953 744.5,460.1953 Q744.1172,460.1953 743.7969,460.3594 Q743.4844,460.5234 743.2344,460.8984 Q742.9922,461.2734 742.9922,461.7891 L742.9922,462.3359 Q742.9922,462.9531 743.4375,463.3672 Q743.8828,463.7734 744.6797,463.7734 Q745.1484,463.7734 745.4766,463.6484 Q745.6719,463.5703 745.8828,463.3516 Q746.0156,463.2188 746.0859,463.1797 Q746.1641,463.1406 746.2656,463.1406 Q746.4297,463.1406 746.5547,463.2734 Q746.6875,463.3984 746.6875,463.5703 Q746.6875,463.7422 746.5156,463.9453 Q746.2656,464.2344 745.8672,464.3984 Q745.3281,464.625 744.6797,464.625 Q743.9219,464.625 743.3203,464.3125 Q742.8281,464.0625 742.4844,463.5313 Q742.1406,462.9922 742.1406,462.3516 L742.1406,461.7734 Q742.1406,461.1094 742.4453,460.5391 Q742.7578,459.9609 743.3047,459.6563 Q743.8516,459.3438 744.4688,459.3438 Q744.8359,459.3438 745.1563,459.4297 Q745.4844,459.5078 745.7578,459.6875 Z " fill="#000000"/><text fill="#000000" font-family="sans-serif" font-size="7" lengthAdjust="spacing" textLength="23.5" x="754.625" y="464.6484">Agency</text><line style="stroke:#181818;stroke-width:0.25;" x1="674.75" x2="841.75" y1="469.75" y2="469.75"/><text fill="#000000" font-family="sans-serif" font-size="7" lengthAdjust="spacing" textLength="54.5" x="677.25" y="479.3037">-agencyID: String</text><text fill="#000000" font-family="sans-serif" font-size="7" lengthAdjust="spacing" textLength="66" x="677.25" y="488.6143">-agencyName: String</text><text fill="#000000" font-family="sans-serif" font-size="7" lengthAdjust="spacing" textLength="67.5" x="677.25" y="497.9248">-emailAddress: String</text><text fill="#000000" font-family="sans-serif" font-size="7" lengthAdjust="spacing" textLength="106.5" x="677.25" y="507.2354">-contactTelephoneNumber: String</text><text fill="#000000" font-family="sans-serif" font-size="7" lengthAdjust="spacing" textLength="58" x="677.25" y="516.5459">-address: Address</text><text fill="#000000" font-family="sans-serif" font-size="7" lengthAdjust="spacing" textLength="162" x="677.25" y="525.8564">-purchaseOrdersRequested : List&lt;PurchaseOrder&gt;</text><line style="stroke:#181818;stroke-width:0.25;" x1="674.75" x2="841.75" y1="529.6133" y2="529.6133"/><text fill="#000000" font-family="sans-serif" font-size="7" lengthAdjust="spacing" textLength="56" x="677.25" y="539.167">+toString(): String</text><text fill="#000000" font-family="sans-serif" font-size="7" lengthAdjust="spacing" textLength="117.5" x="677.25" y="548.4775">+addPurchaseOrder(purchaseOrder)</text><text fill="#000000" font-family="sans-serif" font-size="7" lengthAdjust="spacing" textLength="118" x="677.25" y="557.7881">+checkExistingOrder(purchaseOrder)</text></g><!--link PurchaseOrder to PurchaseOrderRepository--><g id="link_PurchaseOrder_PurchaseOrderRepository"><path d="M730.22,854.02 C743.265,873.1 757.775,893.175 772.25,911 C775.7,915.25 779.42,919.56 783.23,923.8 " fill="none" id="PurchaseOrder-to-PurchaseOrderRepository" style="stroke:#181818;stroke-width:0.5;"/><polygon fill="#181818" points="785.105,925.875,783.5713,921.1955,783.4287,924.0203,780.6038,923.8776,785.105,925.875" style="stroke:#181818;stroke-width:0.5;"/><polygon fill="#000000" points="776.2623,908.3135,774.6966,903.8233,772.3564,905.6011,776.2623,908.3135" style="stroke:#000000;stroke-width:0.5;"/><text fill="#000000" font-family="sans-serif" font-size="6.5" lengthAdjust="spacing" textLength="32" x="779.25" y="909.0142">is stored in</text></g><!--link AcceptPurchaseOrderUI to Employee--><g id="link_AcceptPurchaseOrderUI_Employee"><path d="M596.215,290.635 C596.155,317.985 596.035,374.73 595.93,423.28 " fill="none" id="AcceptPurchaseOrderUI-to-Employee" style="stroke:#181818;stroke-width:0.5;stroke-dasharray:7.0,7.0;"/><polygon fill="#181818" points="595.925,425.88,597.9378,421.3857,595.9321,423.38,593.9379,421.3743,595.925,425.88" style="stroke:#181818;stroke-width:0.5;"/></g><!--link AcceptPurchaseOrderController to AcceptPurchaseOrderUI--><g id="link_AcceptPurchaseOrderController_AcceptPurchaseOrderUI"><path d="M605.595,141.065 C603.635,168.785 599.665,224.92 597.59,254.32 " fill="none" id="AcceptPurchaseOrderController-to-AcceptPurchaseOrderUI" style="stroke:#181818;stroke-width:0.5;stroke-dasharray:7.0,7.0;"/><polygon fill="#181818" points="597.405,256.905,599.7214,252.5594,597.5836,254.4114,595.7316,252.2736,597.405,256.905" style="stroke:#181818;stroke-width:0.5;"/></g><!--link Employee to PurchaseOrderRepository--><g id="link_Employee_PurchaseOrderRepository"><path d="M631.56,588.605 C640.97,603.14 652.33,616.99 665.75,627.5 C714.3,665.52 759.76,619.225 798.75,667 C829.935,705.21 829.185,850.595 826.7,923.415 " fill="none" id="Employee-to-PurchaseOrderRepository" style="stroke:#181818;stroke-width:0.5;"/><polygon fill="#181818" points="826.615,925.975,828.768,921.5462,826.7007,923.4765,824.7704,921.4091,826.615,925.975" style="stroke:#181818;stroke-width:0.5;"/><polygon fill="#000000" points="831.5089,778.9827,830.5011,774.3354,827.962,775.8153,831.5089,778.9827" style="stroke:#000000;stroke-width:0.5;"/><text fill="#000000" font-family="sans-serif" font-size="6.5" lengthAdjust="spacing" textLength="83.5" x="834.75" y="779.5142">approves/declines offers from</text></g><!--reverse link SendEmail to AcceptPurchaseOrderController--><g id="link_SendEmail_AcceptPurchaseOrderController"><path d="M606.75,35.06 C606.75,54.05 606.75,87.5 606.75,107.445 " fill="none" id="SendEmail-backto-AcceptPurchaseOrderController" style="stroke:#181818;stroke-width:0.5;"/><polygon fill="#181818" points="606.75,32.365,604.75,36.865,606.75,34.865,608.75,36.865,606.75,32.365" style="stroke:#181818;stroke-width:0.5;"/><polygon fill="#000000" points="609.25,74.8228,610.7195,70.3002,607.7805,70.3002,609.25,74.8228" style="stroke:#000000;stroke-width:0.5;"/><text fill="#000000" font-family="sans-serif" font-size="6.5" lengthAdjust="spacing" textLength="83" x="613.75" y="75.0142">sends update email to owner</text></g><!--link AcceptPurchaseOrderController to Repositories--><g id="link_AcceptPurchaseOrderController_Repositories"><path d="M620.945,141.045 C628.08,149.235 637.035,159.51 645.71,169.47 " fill="none" id="AcceptPurchaseOrderController-to-Repositories" style="stroke:#181818;stroke-width:0.5;stroke-dasharray:7.0,7.0;"/><polygon fill="#181818" points="647.44,171.455,645.992,166.7483,645.7978,169.57,642.976,169.3758,647.44,171.455" style="stroke:#181818;stroke-width:0.5;"/></g><!--reverse link Repositories to PurchaseOrderRepository--><g id="link_Repositories_PurchaseOrderRepository"><path d="M741.62,210.04 C819.89,217.285 942.25,242.725 942.25,331 C942.25,331 942.25,331 942.25,777.25 C942.25,826.575 947.875,844.055 922.75,886.5 C913.9,901.45 901.095,914.735 887.645,925.945 " fill="none" id="Repositories-backto-PurchaseOrderRepository" style="stroke:#181818;stroke-width:0.5;"/><polygon fill="none" points="741.26,213.52,731.595,209.19,741.855,206.545,741.26,213.52" style="stroke:#181818;stroke-width:0.5;"/></g><!--reverse link Person to Employee--><g id="link_Person_Employee"><path d="M542.365,514.115 C546.58,514.09 550.77,514.02 554.845,513.9 " fill="none" id="Person-backto-Employee" style="stroke:#181818;stroke-width:0.5;"/><line style="stroke:#181818;stroke-width:0.5;" x1="554.845" x2="559.93" y1="513.9" y2="513.72"/></g><!--link Employee to Person--><g id="link_Employee_Person"><path  d="M559.93,501.425 C554.31,501.185 548.36,501.045 542.365,501.01 " fill="none" id="Employee-to-Person" style="stroke:#181818;stroke-width:0.5;"/><polygon fill="none" points="" style="stroke:#181818;stroke-width:0.5;"/></g><!--reverse link Address to Employee--><g id="link_Address_Employee"><path d="M555.145,660.45 C561.515,636.57 568.095,611.91 574.055,589.57 " fill="none" id="Address-backto-Employee" style="stroke:#181818;stroke-width:0.5;"/><polygon fill="#181818" points="553.44,666.83,556.1444,664.4455,554.9835,661.0319,552.2791,663.4165,553.44,666.83" style="stroke:#181818;stroke-width:0.5;"/></g><!--link Repositories to Repositories--><g id="link_Repositories_Repositories"><path d="M731.505,197.825 C741.75,198.89 749,201.865 749,206.75 C749,211.215 742.945,214.085 734.075,215.36 " fill="none" id="Repositories-to-Repositories" style="stroke:#181818;stroke-width:0.5;"/><polygon fill="#181818" points="731.505,215.675,736.2163,217.1081,733.9861,215.3684,735.7258,213.1383,731.505,215.675" style="stroke:#181818;stroke-width:0.5;"/><text fill="#000000" font-family="sans-serif" font-size="6.5" lengthAdjust="spacing" textLength="37.5" x="752" y="209.5142">getInstance()</text></g><!--link Repositories to Announcements--><g id="link_Repositories_Announcements"><path d="M677.75,242.05 C677.75,262.97 677.75,289.03 677.75,307.525 " fill="none" id="Repositories-to-Announcements" style="stroke:#181818;stroke-width:0.5;"/><polygon fill="#181818" points="677.75,310.195,679.75,305.695,677.75,307.695,675.75,305.695,677.75,310.195" style="stroke:#181818;stroke-width:0.5;"/></g><!--reverse link Person to Owner--><g id="link_Person_Owner"><path d="M542.25,608.75 C542.25,608.75 393.5,614.475 364.75,642.5 C338.59,668 333.39,711.115 333.415,741.485 " fill="none" id="Person-backto-Owner" style="stroke:#181818;stroke-width:0.5;"/></g><!--link Employee to Agency--><g id="link_Employee_Agency"><path d="M631.61,507.75 C643.58,507.75 657.48,507.75 671.6,507.75 " fill="none" id="Employee-to-Agency" style="stroke:#181818;stroke-width:0.5;"/><polygon fill="#181818" points="674.235,507.75,669.735,505.75,671.735,507.75,669.735,509.75,674.235,507.75" style="stroke:#181818;stroke-width:0.5;"/><polygon fill="#000000" points="645.125,501.5728,640.6025,500.1033,640.6025,503.0422,645.125,501.5728" style="stroke:#000000;stroke-width:0.5;"/><text fill="#000000" font-family="sans-serif" font-size="6.5" lengthAdjust="spacing" textLength="18" x="647.125" y="504.2642">stores</text><text fill="#000000" font-family="sans-serif" font-size="6.5" lengthAdjust="spacing" textLength="3.5" x="635.4885" y="505.8252">1</text><text fill="#000000" font-family="sans-serif" font-size="6.5" lengthAdjust="spacing" textLength="3.5" x="666.8488" y="506.0795">1</text></g><!--link Property to Person--><g id="link_Property_Person"><path d="M380.34,507.75 C393.76,507.75 407.59,507.75 420.575,507.75 " fill="none" id="Property-to-Person" style="stroke:#181818;stroke-width:0.5;"/><polygon fill="#181818" points="423.16,507.75,418.66,505.75,420.66,507.75,418.66,509.75,423.16,507.75" style="stroke:#181818;stroke-width:0.5;"/><polygon fill="#000000" points="394,501.5728,389.4775,500.1033,389.4775,503.0422,394,501.5728" style="stroke:#000000;stroke-width:0.5;"/><text fill="#000000" font-family="sans-serif" font-size="6.5" lengthAdjust="spacing" textLength="18" x="396" y="504.2642">stores</text><text fill="#000000" font-family="sans-serif" font-size="6.5" lengthAdjust="spacing" textLength="3.5" x="384.3536" y="506.0527">1</text><text fill="#000000" font-family="sans-serif" font-size="6.5" lengthAdjust="spacing" textLength="3.5" x="415.7304" y="505.9959">1</text></g><!--link Announcements to Property--><g id="link_Announcements_Property"><path d="M622.195,334.135 C566.465,338.415 479.795,351.045 414.75,388 C400.25,396.24 386.555,407.03 374.065,418.75 " fill="none" id="Announcements-to-Property" style="stroke:#181818;stroke-width:0.5;"/><polygon fill="#181818" points="372.23,420.49,376.871,418.8435,374.0436,418.7693,374.1178,415.9418,372.23,420.49" style="stroke:#181818;stroke-width:0.5;"/><text fill="#000000" font-family="sans-serif" font-size="6.5" lengthAdjust="spacing" textLength="3.5" x="614.6657" y="332.5365">1</text><text fill="#000000" font-family="sans-serif" font-size="6.5" lengthAdjust="spacing" textLength="2.5" x="372.7537" y="414.8644">*</text></g><!--reverse link Property to Land--><g id="link_Property_Land"><path d="M241.75,595.75 C241.75,595.75 195.555,628.74 175.25,667 C157.92,699.655 152.54,744.015 150.92,764.72 " fill="none" id="Property-backto-Land" style="stroke:#181818;stroke-width:0.5;"/></g><!--link TypeOfTransaction to Property--><g id="link_TypeOfTransaction_Property"><path d="M304.25,357.67 C304.25,371.995 304.25,390.835 304.25,410.3 " fill="none" id="TypeOfTransaction-to-Property" style="stroke:#181818;stroke-width:0.5;"/><polygon fill="none" points="307.75,410.355,304.25,420.355,300.75,410.355,307.75,410.355" style="stroke:#181818;stroke-width:0.5;"/><text fill="#000000" font-family="sans-serif" font-size="6.5" lengthAdjust="spacing" textLength="3.5" x="300.5367" y="368.4046">1</text><text fill="#000000" font-family="sans-serif" font-size="6.5" lengthAdjust="spacing" textLength="3.5" x="300.6762" y="415.0092">1</text></g><!--link Property to Owner--><g id="link_Property_Owner"><path d="M304.01,595.105 C304.7,613.915 305.985,633.665 308.25,652 C311.9,681.57 319.335,714.47 325.555,738.985 " fill="none" id="Property-to-Owner" style="stroke:#181818;stroke-width:0.5;"/><polygon fill="#181818" points="326.195,741.48,327.0271,736.6264,325.5803,739.0568,323.1499,737.61,326.195,741.48" style="stroke:#181818;stroke-width:0.5;"/><polygon fill="#000000" points="311.1202,649.7952,311.9037,645.1049,308.9972,645.5401,311.1202,649.7952" style="stroke:#000000;stroke-width:0.5;"/><text fill="#000000" font-family="sans-serif" font-size="6.5" lengthAdjust="spacing" textLength="18" x="315.25" y="650.0142">stores</text><text fill="#000000" font-family="sans-serif" font-size="6.5" lengthAdjust="spacing" textLength="3.5" x="300.426" y="605.99">1</text><text fill="#000000" font-family="sans-serif" font-size="6.5" lengthAdjust="spacing" textLength="3.5" x="321.5292" y="735.9234">1</text></g><!--link Property to Address--><g id="link_Property_Address"><path
        d="M364.87,595.01 C383.27,616.22 404.98,637.08 428.75,652 C450.39,665.585 465.415,649.735 484.25,667 C486.8,669.34 489.19,671.855 491.425,674.51 " fill="none" id="Property-to-Address" style="stroke:#181818;stroke-width:0.5;"/><polygon fill="#181818" points="493.11,676.57,491.816,671.8186,491.53,674.6326,488.7161,674.3466,493.11,676.57" style="stroke:#181818;stroke-width:0.5;"/><polygon fill="#000000" points="433.367,648.6526,430.319,645.0026,428.7557,647.4912,433.367,648.6526" style="stroke:#000000;stroke-width:0.5;"/><text fill="#000000" font-family="sans-serif" font-size="6.5" lengthAdjust="spacing" textLength="18" x="435.75" y="650.0142">stores</text><text fill="#000000" font-family="sans-serif" font-size="6.5" lengthAdjust="spacing" textLength="3.5" x="363.8536" y="605.891">1</text><text fill="#000000" font-family="sans-serif" font-size="6.5" lengthAdjust="spacing" textLength="3.5" x="485.8071" y="663.0166">1</text></g><!--link Person to Address--><g id="link_Person_Address"><path d="M501.225,627.555 C503.115,639.75 505.025,652.105 506.9,664.22 " fill="none" id="Person-to-Address" style="stroke:#181818;stroke-width:0.5;"/><polygon fill="#181818" points="507.3,666.8,508.5956,662.0491,506.9215,664.3288,504.6417,662.6547,507.3,666.8" style="stroke:#181818;stroke-width:0.5;"/><polygon fill="#000000" points="507.1324,649.7933,507.8928,645.0992,504.9885,645.5488,507.1324,649.7933" style="stroke:#000000;stroke-width:0.5;"/><text fill="#000000" font-family="sans-serif" font-size="6.5" lengthAdjust="spacing" textLength="18" x="511.25" y="650.0142">stores</text><text fill="#000000" font-family="sans-serif" font-size="6.5" lengthAdjust="spacing" textLength="3.5" x="498.2738" y="638.6417">1</text><text fill="#000000" font-family="sans-serif" font-size="6.5" lengthAdjust="spacing" textLength="3.5" x="503.128" y="661.2123">1</text></g><!--link Property to CommissionDetails--><g id="link_Property_CommissionDetails"><path d="M279.79,595.075 C264.9,647.93 246.85,712.005 236.695,748.055 " fill="none" id="Property-to-CommissionDetails" style="stroke:#181818;stroke-width:0.5;"/><polygon fill="#181818" points="235.975,750.6,239.1209,746.8115,236.6533,748.1938,235.271,745.7262,235.975,750.6" style="stroke:#181818;stroke-width:0.5;"/><polygon fill="#000000" points="266.0721,649.7291,268.7128,645.7744,265.884,644.9775,266.0721,649.7291" style="stroke:#000000;stroke-width:0.5;"/><text fill="#000000" font-family="sans-serif" font-size="6.5" lengthAdjust="spacing" textLength="18" x="271.25" y="650.0142">stores</text><text fill="#000000" font-family="sans-serif" font-size="6.5" lengthAdjust="spacing" textLength="3.5" x="275.1843" y="605.9588">1</text><text fill="#000000" font-family="sans-serif" font-size="6.5" lengthAdjust="spacing" textLength="3.5" x="233.2107" y="745.0435">1</text></g><!--reverse link Equipment to Building--><g id="link_Equipment_Building"><path d="M66.305,536.53 C66.39,583 66.565,675.87 66.665,731.385 " fill="none" id="Equipment-backto-Building" style="stroke:#181818;stroke-width:0.5;"/><polygon fill="#181818" points="66.3,533.945,64.3129,538.4507,66.3071,536.445,68.3128,538.4393,66.3,533.945" style="stroke:#181818;stroke-width:0.5;"/><polygon fill="#000000" points="69.2454,644.8228,67.7843,649.348,70.7232,649.3426,69.2454,644.8228" style="stroke:#000000;stroke-width:0.5;"/><text fill="#000000" font-family="sans-serif" font-size="6.5" lengthAdjust="spacing" textLength="18" x="73.75" y="650.0142">stores</text><text fill="#000000" font-family="sans-serif" font-size="6.5" lengthAdjust="spacing" textLength="3.5" x="62.5928" y="544.6827">1</text><text fill="#000000" font-family="sans-serif" font-size="6.5" lengthAdjust="spacing" textLength="3.5" x="63.013" y="725.7943">1</text></g><!--reverse link Photo to Property--><g id="link_Photo_Property"><path  d="M187.865,507.75 C199.91,507.75 214.025,507.75 228.185,507.75 " fill="none" id="Photo-backto-Property" style="stroke:#181818;stroke-width:0.5;"/><polygon fill="#181818" points="185.33,507.75,189.83,509.75,187.83,507.75,189.83,505.75,185.33,507.75" style="stroke:#181818;stroke-width:0.5;"/><polygon fill="#000000" points="194,501.5728,198.5225,503.0422,198.5225,500.1033,194,501.5728" style="stroke:#000000;stroke-width:0.5;"/><text fill="#000000" font-family="sans-serif" font-size="6.5" lengthAdjust="spacing" textLength="18" x="201" y="504.2642">stores</text><text fill="#000000" font-family="sans-serif" font-size="6.5" lengthAdjust="spacing" textLength="3.5" x="189.3312" y="505.7592">1</text><text fill="#000000" font-family="sans-serif" font-size="6.5" lengthAdjust="spacing" textLength="3.5" x="220.6727" y="506.0527">1</text></g><!--link Person to PassportCard--><g id="link_Person_PassportCard"><path d="M462.27,627.555 C454.59,672.3 446.53,719.26 441.575,748.15 " fill="none" id="Person-to-PassportCard" style="stroke:#181818;stroke-width:0.5;"/><polygon fill="#181818" points="441.135,750.715,443.8649,746.6165,441.5564,748.2508,439.9222,745.9423,441.135,750.715" style="stroke:#181818;stroke-width:0.5;"/><polygon fill="#000000" points="460.3272,649.7867,462.5404,645.5779,459.6438,645.0808,460.3272,649.7867" style="stroke:#000000;stroke-width:0.5;"/><text fill="#000000" font-family="sans-serif" font-size="6.5" lengthAdjust="spacing" textLength="18" x="465.25" y="650.0142">stores</text><text fill="#000000" font-family="sans-serif" font-size="6.5" lengthAdjust="spacing" textLength="3.5" x="458.0406" y="638.6417">1</text><text fill="#000000" font-family="sans-serif" font-size="6.5" lengthAdjust="spacing" textLength="3.5" x="437.9891" y="745.174">1</text></g><!--reverse link Property to Building--><g id="link_Property_Building"><path d="M241.75,595.75 C241.75,595.75 215.505,614.05 193.75,627.5 C163.86,645.98 149.705,641.76 125.25,667 C107.51,685.31 93.655,710.075 83.895,731.4 " fill="none" id="Property-backto-Building" style="stroke:#181818;stroke-width:0.5;"/></g><!--reverse link Building to House--><g id="link_Building_House"><path d="M66.75,822.75 C66.75,822.75 86.085,893.52 97.525,935.4 " fill="none" id="Building-backto-House" style="stroke:#181818;stroke-width:0.5;"/></g><!--reverse link Building to Apartment--><g id="link_Building_Apartment"><path d="M66.75,822.75 C66.75,822.75 40.255,919.725 30.94,953.82 " fill="none" id="Building-backto-Apartment" style="stroke:#181818;stroke-width:0.5;"/></g><!--SRC=[lLbRRzis57xNho3wOgU9iykZ4HX8x0mrq3L1dEvXRuf4srfaKIFffcwQ_pxUoKDIJhO1xKCTdSj7dgl88_ROT7r9ontgo-gntE0LFxGOKLpnijkqk61EW6tBcZmrtGQjovQ5d0qb-txPRJ5jX5Q5qQz54R2hjcJiadFQFEmvNbQaMpNVCFgvA4OjNdF42QBDPijHtSXr6z8LIWNTOif8zrmWyM-o4lfYxQxSOKrOTXnlC4My_Fffltl05CZXNTcqbtLDCMEHF6vnloKTDbgAUxh1_1uonYUESns01UHxkt90-oJsPnudR0XJSZAOIY72b3I3-L8Olrpl-fOSC7v-nMB3457jgiCdvpZhISoV27qiibOwuYLKLYOQnPmbZXZfAJC2FMVB2dUr0a3Fqa13lQmgtFFRFQss9SCtjCRqyrARU_g8SGyusZN3cdFISKhQ5bE3mEoQO_L_uDaxt1FMS48Rp91nxsIYVm4pYFYoOohhnoTe2cIS1DYDapW469TTH_O2OuSxdXVOywtWDLKfwmE8kCqFB6FCGA_l0bWo89utYcctupf0Wm9t-EyzPb3YVrfj8wup3nO3unHZ3aXLmm-0K3T2ggbuf5XoM2VVcdvEQbouF5ufxA0-vm8vU5mOt82qagZ1yvyQCp0LW4f202eV8r2jua7bimTzoMM4pOCzmrHNt1Hf4msZ3C8XU65qJ5qZ8e4kTu8k9MgoVsYnrLOPeDh_53KT1yLp2WlMRU4CzPJqcFB3Sd4Mefy5UDx2pynq-JXxbWj7ll4WNjHXsGOGG348TNMmO2m3nb8mJhGNnoVEdzR_m8NF6JSpuQkF8h8NjyODC-Yso4pcYtseDAAkfJ9fJwaGbHQlHA48ST0rpCfMqKNa_j3ZA4F8KuVf5Dt87qEgo6xNAD0fchk_5vYBwDgiaIyWBX9A_bWInUNDsguTfP8iJEdVtoZPpOKEnOEvjX0b46sIwawJuPIwKqmHU5aXyNxcH58fBGyw6f8o2zcY7yeVG-B2DJVhUrfsh5G7bYcwZqcPQCEw6Adu8Da_Oh-DZtfLvDaNqjG1m6qGid4kVgcA2iOuZ4maix4o9pPodh580YIbJ8Zy6XcnuT1cbWSvabqX4ibdLGOPv4zGk04o5CbdN8fyvvCl2nloCucQsQez8VgizSnRrpmblm4n0ZcHjT0WnrMHxa6bliJGDH3adMAe0lbyjnms8YaE2PPMZ0TE5RZ_EqpiCxGJXsjUqiCVPRiVIgObasKjpXwzImth7Y7vG4YBIrsmfoZJpcEVZVNfmkz17Ytyapf2-4TpVeYzunfmKj-g4uUTDUh48SjOlR3TKRNz8IDKBEPGLqeiN5b54b7kk2qduJ5R7WYIucNZf7Ti5xw7wl7cMIeni60GVWNyUxWsR2GA5lAFPjI0Tr-YqwXn24mK7RiWLumCV5DDueo1Jh87nSGtXW6NZ3sXJvM9hYA7Eulrp5apiwYa0nDYLNSiJPGjPw12ZYMoQ9rbwthNhs7pikNiJpYoFvc0g5wrNDWtiI44pGiw-rQB1ztLzpr13j5YisyDSCPknnhgdAybsTM-QMjvDz56FU2Q4h9Ztgg7acyZKb_IHw6owiiA1sJXoARNXvDh-oVqmPN5YhtW6N2vs1DNPdk9lgM3_IT-3FUT108mKnFVwb1dkZi5busS6zIDR2r2D3f9LlBeKhOVi3Xznqn_j9ElRmYJlbHaJGAm_7idWXdONNhCYx3p-_PUUirF7uYukjci4zSvdJZ-1Jf1BLb75BRlhh-AwycUvZgQoYCDD4uGaqooaa6PMvIFOk4nM3tMLXAnfknjVeEv3XTmCwQydc7MT-hMPDDBZZ7Z-xSRP0g66LOQJZZQIxJWX14D96DslZaQ672ESXFEKJJY70tFE4S3GyvHRievYiQSmvTguyYFPLS_- -uk_ki9vVEIrjgxlQ74yzrRG0-cCGd3lyr5I-4ou_nwUh3f-uHwbEy0UDLquy-84OOoRYgau-8i4xdpZNVO_B3DZHT2zYowubNc_f1s7SkCZSnV5RMzHv0KE_LCYWRJ9eC7178kJJ7dMUzcqGT4ZyVdtrpTtd3x6kp5YY6qu4GDnD_KKBN5rUFrLn5_ePSLIxuekBHMFerIhqkpMKsTr9G2agLxXjwATgqnMCFs5tko8rDqy_0NhZXis5926B2r9yhWpYl8UgWFSHFrgXMRaxfs8qVVU-1J57eUTeNhtcylUFvVAfqAOwReZhXXM1yqm2beXq4k3bQcOdH7gp5erXa0pqqyy6CA-oqL7Slm7rB3mLX8X4jYgB05qo19zW7DJ5w2QAe1J2QwB18RpeUtdFD6_gtwHEGRTMHVgVAn6BqKeF68mfuDVIgItm6OkDuIAbv4JOTcXMip5-Vd-px_bQ_8KeSr_DUzmkDFZczhXig-f-GBPZ_Lk6gR3ZD4rcjHusXDoQxm7oKl1DBnLHMS_AB8qBwlnJrOLxpyggt6vSLnxVFp6Vne23v1NdoVJ6e1C_WrplGb8UUwcJqdlXSxTqG8Eu5h2XF0rxz8M4Z3Zn2Xdx_FJ6yCjc8-43YfTx-yaqlA7tDwckgqO28d2lS18X0pM84Os84MbOwHyk_VkMcU1vEUKoV58XrMIMszTRLMeglGpKwKAU56ibB-RExbj0clIUNGqebWeE6lgb9KvAVwTHC19tbHwBc7bWAM0g5qcs7BoEvL-TQkMBYb5LdT42EQEqKN_m00]--></g></svg>