<?xml version="1.0" encoding="us-ascii" standalone="no"?><svg xmlns="http://www.w3.org/2000/svg" xmlns:xlink="http://www.w3.org/1999/xlink" contentStyleType="text/css" height="1131px" preserveAspectRatio="none" style="width:506px;height:1131px;background:#FFFFFF;" version="1.1" viewBox="0 0 506 1131" width="506px" zoomAndPan="magnify"><defs/><g><text fill="#000000" font-family="sans-serif" font-size="14" font-weight="bold" lengthAdjust="spacing" textLength="156" x="168" y="22.6738">Domain Model - US002</text><!--class OwnerCellphone--><g id="elem_OwnerCellphone"><rect
        fill="#F1F1F1" height="158.7656" id="OwnerCellphone" rx="2.5" ry="2.5" style="stroke:#181818;stroke-width:0.5;" width="138" x="9" y="43.6406"/><text fill="#000000" font-family="sans-serif" font-size="14" lengthAdjust="spacing" textLength="105" x="25.5" y="61.3145">OwnerCellphone</text><line style="stroke:#181818;stroke-width:0.5;" x1="10" x2="146" y1="69.2813" y2="69.2813"/><text fill="#000000" font-family="sans-serif" font-size="14" lengthAdjust="spacing" textLength="35" x="15" y="85.9551">name</text><text fill="#000000" font-family="sans-serif" font-size="14" lengthAdjust="spacing" textLength="126" x="15" y="101.5957">citizensCardNumber</text><text fill="#000000" font-family="sans-serif" font-size="14" lengthAdjust="spacing" textLength="67" x="15" y="117.2363">taxNumber</text><text fill="#000000" font-family="sans-serif" font-size="14" lengthAdjust="spacing" textLength="51" x="15" y="132.877">address</text><text fill="#000000" font-family="sans-serif" font-size="14" lengthAdjust="spacing" textLength="112" x="15" y="148.5176">telephoneNumber</text><text fill="#000000" font-family="sans-serif" font-size="14" lengthAdjust="spacing" textLength="85" x="15" y="164.1582">propertyType</text><text fill="#000000" font-family="sans-serif" font-size="14" lengthAdjust="spacing" textLength="117" x="15" y="179.7988">transaction</text><text fill="#000000" font-family="sans-serif" font-size="14" lengthAdjust="spacing" textLength="34" x="15" y="195.4395">value</text></g><!--class Location--><g id="elem_Location"><rect
        fill="#F1F1F1" height="111.8438" id="Location" rx="2.5" ry="2.5" style="stroke:#181818;stroke-width:0.5;" width="63" x="245.5" y="278.6406"/><text fill="#000000" font-family="sans-serif" font-size="14" lengthAdjust="spacing" textLength="54" x="250" y="296.3145">Location</text><line style="stroke:#181818;stroke-width:0.5;" x1="246.5" x2="307.5" y1="304.2813" y2="304.2813"/><text fill="#000000" font-family="sans-serif" font-size="14" lengthAdjust="spacing" textLength="36" x="251.5" y="320.9551">street</text><text fill="#000000" font-family="sans-serif" font-size="14" lengthAdjust="spacing" textLength="21" x="251.5" y="336.5957">city</text><text fill="#000000" font-family="sans-serif" font-size="14" lengthAdjust="spacing" textLength="41" x="251.5" y="352.2363">district</text><text fill="#000000" font-family="sans-serif" font-size="14" lengthAdjust="spacing" textLength="31" x="251.5" y="367.877">state</text><text fill="#000000" font-family="sans-serif" font-size="14" lengthAdjust="spacing" textLength="51" x="251.5" y="383.5176">zipCode</text></g><!--class Equipment--><g id="elem_Equipment"><rect
        fill="#F1F1F1" height="49.2813" id="Equipment" rx="2.5" ry="2.5" style="stroke:#181818;stroke-width:0.5;" width="73" x="7.5" y="474.6406"/><text fill="#000000" font-family="sans-serif" font-size="14" lengthAdjust="spacing" textLength="67" x="10.5" y="492.3145">Equipment</text><line style="stroke:#181818;stroke-width:0.5;" x1="8.5" x2="79.5" y1="500.2813" y2="500.2813"/><text fill="#000000" font-family="sans-serif" font-size="14" lengthAdjust="spacing" textLength="35" x="13.5" y="516.9551">name</text></g><!--class Photos--><g id="elem_Photos"><rect
        fill="#F1F1F1" height="64.9219" id="Photos" rx="2.5" ry="2.5" style="stroke:#181818;stroke-width:0.5;" width="77" x="343.5" y="302.1406"/><text fill="#000000" font-family="sans-serif" font-size="14" lengthAdjust="spacing" textLength="44" x="360" y="319.8145">Photos</text><line style="stroke:#181818;stroke-width:0.5;" x1="344.5" x2="419.5" y1="327.7813" y2="327.7813"/><text fill="#000000" font-family="sans-serif" font-size="14" lengthAdjust="spacing" textLength="49" x="349.5" y="344.4551">photoID</text><text fill="#000000" font-family="sans-serif" font-size="14" lengthAdjust="spacing" textLength="65" x="349.5" y="360.0957">photoPNG</text></g><!--class Property--><g id="elem_Property"><rect
        fill="#F1F1F1" height="64.9219" id="Property" rx="2.5" ry="2.5" style="stroke:#181818;stroke-width:0.5;" width="141" x="176.5" y="466.6406"/><text fill="#000000" font-family="sans-serif" font-size="14" lengthAdjust="spacing" textLength="54" x="220" y="484.3145">Property</text><line style="stroke:#181818;stroke-width:0.5;" x1="177.5" x2="316.5" y1="492.2813" y2="492.2813"/><text fill="#000000" font-family="sans-serif" font-size="14" lengthAdjust="spacing" textLength="98" x="182.5" y="508.9551">areaOfProperty</text><text fill="#000000" font-family="sans-serif" font-size="14" lengthAdjust="spacing" textLength="129" x="182.5" y="524.5957">distanceFromCentre</text></g><!--class Buildings--><g id="elem_Buildings"><rect
        fill="#F1F1F1" height="96.2031" id="Buildings" rx="2.5" ry="2.5" style="stroke:#181818;stroke-width:0.5;" width="135" x="47.5" y="607.6406"/><text fill="#000000" font-family="sans-serif" font-size="14" lengthAdjust="spacing" textLength="57" x="86.5" y="625.3145">Buildings</text><line style="stroke:#181818;stroke-width:0.5;" x1="48.5" x2="181.5" y1="633.2813" y2="633.2813"/><text fill="#000000" font-family="sans-serif" font-size="14" lengthAdjust="spacing" textLength="63" x="53.5" y="649.9551">bedrooms</text><text fill="#000000" font-family="sans-serif" font-size="14" lengthAdjust="spacing" textLength="67" x="53.5" y="665.5957">bathrooms</text><text fill="#000000" font-family="sans-serif" font-size="14" lengthAdjust="spacing" textLength="94" x="53.5" y="681.2363">parkingSpaces</text><text fill="#000000" font-family="sans-serif" font-size="14" lengthAdjust="spacing" textLength="123" x="53.5" y="696.877">availableEquipment</text></g><!--class House--><g id="elem_House"><rect
        fill="#F1F1F1" height="80.5625" id="House" rx="2.5" ry="2.5" style="stroke:#181818;stroke-width:0.5;" width="94" x="7" y="779.6406"/><text fill="#000000" font-family="sans-serif" font-size="14" lengthAdjust="spacing" textLength="40" x="34" y="797.3145">House</text><line style="stroke:#181818;stroke-width:0.5;" x1="8" x2="100" y1="805.2813" y2="805.2813"/><text fill="#000000" font-family="sans-serif" font-size="14" lengthAdjust="spacing" textLength="62" x="13" y="821.9551">basement</text><text fill="#000000" font-family="sans-serif" font-size="14" lengthAdjust="spacing" textLength="19" x="13" y="837.5957">loft</text><text fill="#000000" font-family="sans-serif" font-size="14" lengthAdjust="spacing" textLength="82" x="13" y="853.2363">sunExposure</text></g><!--class Agent--><g id="elem_Agent"><rect
        fill="#F1F1F1" height="80.5625" id="Agent" rx="2.5" ry="2.5" style="stroke:#181818;stroke-width:0.5;" width="122" x="110" y="936.6406"/><text fill="#000000" font-family="sans-serif" font-size="14" lengthAdjust="spacing" textLength="37" x="152.5" y="954.3145">Agent</text><line style="stroke:#181818;stroke-width:0.5;" x1="111" x2="231" y1="962.2813" y2="962.2813"/><text fill="#000000" font-family="sans-serif" font-size="14" lengthAdjust="spacing" textLength="94" x="116" y="978.9551">comissionType</text><text fill="#000000" font-family="sans-serif" font-size="14" lengthAdjust="spacing" textLength="110" x="116" y="994.5957">comissionAmount</text><text fill="#000000" font-family="sans-serif" font-size="14" lengthAdjust="spacing" textLength="24" x="116" y="1010.2363">role</text></g><!--class Lease--><g id="elem_Lease"><rect
        fill="#F1F1F1" height="49.2813" id="Lease" rx="2.5" ry="2.5" style="stroke:#181818;stroke-width:0.5;" width="64" x="146" y="310.1406"/><text fill="#000000" font-family="sans-serif" font-size="14" lengthAdjust="spacing" textLength="39" x="158.5" y="327.8145">Lease</text><line style="stroke:#181818;stroke-width:0.5;" x1="147" x2="209" y1="335.7813" y2="335.7813"/><text fill="#000000" font-family="sans-serif" font-size="14" lengthAdjust="spacing" textLength="52" x="152" y="352.4551">duration</text></g><!--class System--><g id="elem_System"><rect fill="#F1F1F1" height="33.6406" id="System" rx="2.5" ry="2.5" style="stroke:#181818;stroke-width:0.5;" width="52" x="145" y="1090.6406"/><text fill="#000000" font-family="sans-serif" font-size="14" lengthAdjust="spacing" textLength="46" x="148" y="1108.3145">System</text><line style="stroke:#181818;stroke-width:0.5;" x1="146" x2="196" y1="1116.2813" y2="1116.2813"/></g><!--class Announcements--><g id="elem_Announcements"><rect fill="#F1F1F1" height="33.6406" id="Announcements" rx="2.5" ry="2.5" style="stroke:#181818;stroke-width:0.5;" width="108" x="391" y="1090.6406"/><text fill="#000000" font-family="sans-serif" font-size="14" lengthAdjust="spacing" textLength="102" x="394" y="1108.3145">Announcements</text><line style="stroke:#181818;stroke-width:0.5;" x1="392" x2="498" y1="1116.2813" y2="1116.2813"/></g><!--link OwnerCellphone to Property--><g id="link_OwnerCellphone_Property"><path
        d="M53.36,202.8006 C40.62,258.8006 33.7,333.8906 66,390.6406 C89.59,432.0906 136.17,459.2206 176.16,475.8506 " fill="none" id="OwnerCellphone-Property" style="stroke:#181818;stroke-width:1.0;"/><polygon fill="#000000" points="73.0508,339.4624,72.0212,330.0077,66.6605,332.4186,73.0508,339.4624" style="stroke:#000000;stroke-width:1.0;"/><text fill="#000000" font-family="sans-serif" font-size="13" lengthAdjust="spacing" textLength="47" x="80" y="339.4092">if selling</text><text fill="#000000" font-family="sans-serif" font-size="13" lengthAdjust="spacing" textLength="7" x="43.9417" y="222.0491">1</text></g><!--link OwnerCellphone to Lease--><g id="link_OwnerCellphone_Lease"><path
        d="M115.52,202.7506 C133.7,240.8306 154.23,283.8406 166.64,309.8306 " fill="none" id="OwnerCellphone-Lease" style="stroke:#181818;stroke-width:1.0;"/><polygon fill="#000000" points="144.1541,245.4145,142.9095,235.9858,137.6051,238.5181,144.1541,245.4145" style="stroke:#000000;stroke-width:1.0;"/><text fill="#000000" font-family="sans-serif" font-size="13" lengthAdjust="spacing" textLength="51" x="151" y="245.4092">if leasing</text><text fill="#000000" font-family="sans-serif" font-size="13" lengthAdjust="spacing" textLength="7" x="111.5499" y="222.2666">1</text></g><!--link Lease to Property--><g id="link_Lease_Property"><path
        d="M188.03,359.2706 C200.03,387.5306 220.16,434.9406 233.51,466.3806 " fill="none" id="Lease-Property" style="stroke:#181818;stroke-width:1.0;"/><text fill="#000000" font-family="sans-serif" font-size="13" lengthAdjust="spacing" textLength="7" x="182.7033" y="379.1754">1</text></g><!--link Property to Agent--><g id="link_Property_Agent"><path
        d="M272.58,531.9106 C278.48,540.9906 283.92,551.2606 287,561.6406 C289.02,568.4606 287.33,570.5406 287,577.6406 C281.22,703.8106 307.47,743.1906 261,860.6406 C249.87,888.7706 229.64,915.7006 211.18,936.4806 " fill="none" id="Property-Agent" style="stroke:#181818;stroke-width:1.0;"/><polygon fill="#000000" points="293.2498,746.8457,297.5126,738.344,291.7013,737.4621,293.2498,746.8457" style="stroke:#000000;stroke-width:1.0;"/><text fill="#000000" font-family="sans-serif" font-size="13" lengthAdjust="spacing" textLength="38" x="303" y="746.4092">if Land</text><text fill="#000000" font-family="sans-serif" font-size="13" lengthAdjust="spacing" textLength="7" x="269.789" y="551.3177">1</text></g><!--link Property to Buildings--><g id="link_Property_Buildings"><path
        d="M176.46,531.3606 C163.57,539.6706 151.28,549.7206 142,561.6406 C131.77,574.7706 125.42,591.6506 121.47,607.4206 " fill="none" id="Property-Buildings" style="stroke:#181818;stroke-width:1.0;"/><polygon fill="#000000" points="144.0705,573.9543,151.7517,568.3462,146.9883,564.9024,144.0705,573.9543" style="stroke:#000000;stroke-width:1.0;"/><text fill="#000000" font-family="sans-serif" font-size="13" lengthAdjust="spacing" textLength="126" x="156" y="574.4092">if House or Apartment</text><text fill="#000000" font-family="sans-serif" font-size="13" lengthAdjust="spacing" textLength="7" x="161.3619" y="531.9205">1</text></g><!--link Buildings to Agent--><g id="link_Buildings_Agent"><path
        d="M138.71,703.8306 C142.74,713.4906 146.44,723.7406 149,733.6406 C167.05,803.4206 170.82,887.8206 171.32,936.4106 " fill="none" id="Buildings-Agent" style="stroke:#181818;stroke-width:1.0;"/><polygon fill="#000000" points="173.6943,825.3539,175.3488,815.9884,169.5279,816.8045,173.6943,825.3539" style="stroke:#000000;stroke-width:1.0;"/><text fill="#000000" font-family="sans-serif" font-size="13" lengthAdjust="spacing" textLength="70" x="182" y="824.9092">if Apartment</text><text fill="#000000" font-family="sans-serif" font-size="13" lengthAdjust="spacing" textLength="7" x="134.6783" y="723.7287">1</text></g><!--link Buildings to House--><g id="link_Buildings_House"><path
        d="M94.87,703.6806 C90.82,713.5306 86.68,723.8906 83,733.6406 C77.42,748.4506 71.72,764.8906 66.88,779.3606 " fill="none" id="Buildings-House" style="stroke:#181818;stroke-width:1.0;"/><polygon fill="#000000" points="86.2656,746.5919,92.1596,739.1279,86.6467,737.089,86.2656,746.5919" style="stroke:#000000;stroke-width:1.0;"/><text fill="#000000" font-family="sans-serif" font-size="13" lengthAdjust="spacing" textLength="47" x="97" y="746.4092">if House</text><text fill="#000000" font-family="sans-serif" font-size="13" lengthAdjust="spacing" textLength="7" x="84.3993" y="723.5567">1</text></g><!--link House to Agent--><g id="link_House_Agent"><path
        d="M69.77,860.7506 C76.7,875.8306 85.63,892.7106 96,906.6406 C103.74,917.0306 113.16,927.1506 122.68,936.3106 " fill="none" id="House-Agent" style="stroke:#181818;stroke-width:1.0;"/><text fill="#000000" font-family="sans-serif" font-size="13" lengthAdjust="spacing" textLength="47" x="97" y="903.4092">if House</text><text fill="#000000" font-family="sans-serif" font-size="13" lengthAdjust="spacing" textLength="7" x="64.6488" y="879.883">1</text></g><!--link Agent to System--><g id="link_Agent_System"><path
        d="M171,1017.7406 C171,1042.2306 171,1072.3406 171,1090.4806 " fill="none" id="Agent-System" style="stroke:#181818;stroke-width:1.0;"/><polygon fill="#000000" points="176,1059.1406,178.9389,1050.0955,173.0611,1050.0955,176,1059.1406" style="stroke:#000000;stroke-width:1.0;"/><text fill="#000000" font-family="sans-serif" font-size="13" lengthAdjust="spacing" textLength="7" x="163.4641" y="1036.8715">1</text></g><!--link System to Announcements--><g id="link_System_Announcements"><path
        d="M197.27,1107.6406 C241.68,1107.6406 332.43,1107.6406 390.9,1107.6406 " fill="none" id="System-Announcements" style="stroke:#181818;stroke-width:1.0;"/><polygon fill="#000000" points="224.5,1096.9023,215.4549,1093.9634,215.4549,1099.8413,224.5,1096.9023" style="stroke:#000000;stroke-width:1.0;"/><text fill="#000000" font-family="sans-serif" font-size="13" lengthAdjust="spacing" textLength="144" x="228.5" y="1101.4092">publishes announcement</text><text fill="#000000" font-family="sans-serif" font-size="13" lengthAdjust="spacing" textLength="7" x="204.8986" y="1103.7285">1</text></g><!--link Equipment to Buildings--><g id="link_Equipment_Buildings"><path
        d="M38.19,523.7206 C35.45,539.5406 34.11,560.5306 41,577.6406 C45.29,588.3006 51.85,598.3206 59.32,607.3706 " fill="none" id="Equipment-Buildings" style="stroke:#181818;stroke-width:1.0;"/><polygon fill="#000000" points="47.2245,574.7501,47.8588,565.2607,42.1599,566.7002,47.2245,574.7501" style="stroke:#000000;stroke-width:1.0;"/><text fill="#000000" font-family="sans-serif" font-size="13" lengthAdjust="spacing" textLength="46" x="55" y="574.4092">extends</text><text fill="#000000" font-family="sans-serif" font-size="13" lengthAdjust="spacing" textLength="7" x="28.8043" y="543.6126">1</text></g><!--link Photos to Property--><g id="link_Photos_Property"><path
        d="M370.08,367.4706 C361.16,388.5706 347.49,416.0506 330,436.6406 C320.71,447.5706 309.12,457.6806 297.58,466.4106 " fill="none" id="Photos-Property" style="stroke:#181818;stroke-width:1.0;"/><polygon fill="#000000" points="343.0447,432.9355,350.7615,427.3766,346.0203,423.9024,343.0447,432.9355" style="stroke:#000000;stroke-width:1.0;"/><text fill="#000000" font-family="sans-serif" font-size="13" lengthAdjust="spacing" textLength="46" x="355" y="433.4092">extends</text><text fill="#000000" font-family="sans-serif" font-size="13" lengthAdjust="spacing" textLength="7" x="360.1406" y="386.8891">1</text></g><!--link Location to Property--><g id="link_Location_Property"><path
        d="M266.84,390.6606 C262.19,415.8806 256.83,444.8906 252.86,466.4106 " fill="none" id="Location-Property" style="stroke:#181818;stroke-width:1.0;"/><polygon fill="#000000" points="265.0926,433.8193,269.6243,425.4578,263.844,424.3911,265.0926,433.8193" style="stroke:#000000;stroke-width:1.0;"/><text fill="#000000" font-family="sans-serif" font-size="13" lengthAdjust="spacing" textLength="46" x="275" y="433.4092">extends</text><text fill="#000000" font-family="sans-serif" font-size="13" lengthAdjust="spacing" textLength="7" x="258.1752" y="410.1512">1</text></g><!--SRC=[VLFBRjim4BppAuXSUZBWzjY30TT9sW1kRC3f1wp8jKI43vLS9NQA_djNf289JXfVlDoPdNqgFHhVGWGdNV11DJ4ub1Gx56b4Mb2FKEE1pXPbH4NWQpidf0PqU3Q-baUm2ONuPF58aeACfcv8QjD7cU35B4XPI6bD54tL4Twfu0_c1ULIYCPebCf4nKcoxP2Qe9CGP8XBk0uEZ9S_WqOh5_BNORdy8aJMaxjdZt63rhPDy2Z_2Ca_3mwpeGnn3fys4FLzvogCsKrmchr0wuWf5GGjPgKPtiRGOgJpmxajgiJ6xlWGmISeRVRU9x0ynRz3NTkWe8TAGOaY8hsMTCw6DkmrYWO2K15_CUs66sMXGUdcTsTQXvvclOtWlWaKKa7Qthwxdkpz_VUndltGn30XY0Yxuwjph0Uymbi-YGsdYxCqtpfZDUyx3U4LwXY2ApEhW9hfnSlcbTS7FY8i7dW2Ow6oE7Oo2Vy8NS914n9ci7_OS1m6q_cRKnjIDozdNO_ZKC6Pb7ZGutP6pzg5Rf2BmSx2jmXzqj9r5_EUUbI8Yskw-dmb5ujfTb-bESh4S7_wg_-mitgXMZOBjJWlzCGeF02vhnAw1Qyvxf8nBIApylXaY7BDOwT-UXmpSTxAViWhQZFXbIZ_RtMoNnG7emmUpedGCReIWvcZvDfxNeFAg-shRhlAcjHWaZ13E6gyZlTwnHEXrwcVIBxuTrOpKLw_lOz8_m00]--></g></svg>