<?xml version="1.0" encoding="us-ascii" standalone="no"?><svg xmlns="http://www.w3.org/2000/svg" xmlns:xlink="http://www.w3.org/1999/xlink" contentStyleType="text/css" height="1153px" preserveAspectRatio="none" style="width:1219px;height:1153px;background:#FFFFFF;" version="1.1" viewBox="0 0 1219 1153" width="1219px" zoomAndPan="magnify"><defs/><g><text fill="#000000" font-family="sans-serif" font-size="14" font-weight="bold" lengthAdjust="spacing" textLength="156" x="524.965" y="25.1074">Domain Model - US008</text><!--class Person--><g id="elem_Person"><rect codeLine="14" fill="#F1F1F1" height="111.1055" id="Person" rx="2.5" ry="2.5" style="stroke:#181818;stroke-width:0.5;" width="124" x="230.93" y="901.1311"/><text fill="#000000" font-family="sans-serif" font-size="14" lengthAdjust="spacing" textLength="45" x="270.43" y="921.2385">Person</text><line style="stroke:#181818;stroke-width:0.5;" x1="231.93" x2="353.93" y1="929.7522" y2="929.7522"/><text fill="#000000" font-family="sans-serif" font-size="14" lengthAdjust="spacing" textLength="35" x="236.93" y="948.8596">name</text><text fill="#000000" font-family="sans-serif" font-size="14" lengthAdjust="spacing" textLength="67" x="236.93" y="967.4807">taxNumber</text><text fill="#000000" font-family="sans-serif" font-size="14" lengthAdjust="spacing" textLength="85" x="236.93" y="986.1018">emailAddress</text><text fill="#000000" font-family="sans-serif" font-size="14" lengthAdjust="spacing" textLength="112" x="236.93" y="1004.7229">telephoneNumber</text></g><!--class Role--><g id="elem_Role"><rect codeLine="21" fill="#F1F1F1" height="73.8633" id="Role" rx="2.5" ry="2.5" style="stroke:#181818;stroke-width:0.5;" width="81" x="103.43" y="720.1311"/><text fill="#000000" font-family="sans-serif" font-size="14" lengthAdjust="spacing" textLength="29" x="129.43" y="740.2385">Role</text><line style="stroke:#181818;stroke-width:0.5;" x1="104.43" x2="183.43" y1="748.7522" y2="748.7522"/><text fill="#000000" font-family="sans-serif" font-size="14" lengthAdjust="spacing" textLength="11" x="109.43" y="767.8596">id</text><text fill="#000000" font-family="sans-serif" font-size="14" lengthAdjust="spacing" textLength="69" x="109.43" y="786.4807">description</text></g><!--class Owner--><g id="elem_Owner"><rect codeLine="26" fill="#F1F1F1" height="36.6211" id="Owner" rx="2.5" ry="2.5" style="stroke:#181818;stroke-width:0.5;" width="47" x="86.43" y="1100.1311"/><text fill="#000000" font-family="sans-serif" font-size="14" lengthAdjust="spacing" textLength="41" x="89.43" y="1120.2385">Owner</text><line style="stroke:#181818;stroke-width:0.5;" x1="87.43" x2="132.43" y1="1128.7522" y2="1128.7522"/></g><!--class PassportCard--><g id="elem_PassportCard"><rect codeLine="29" fill="#F1F1F1" height="55.2422" id="PassportCard" rx="2.5" ry="2.5" style="stroke:#181818;stroke-width:0.5;" width="147" x="219.43" y="729.6311"/><text fill="#000000" font-family="sans-serif" font-size="14" lengthAdjust="spacing" textLength="87" x="249.43" y="749.7385">PassportCard</text><line style="stroke:#181818;stroke-width:0.5;" x1="220.43" x2="365.43" y1="758.2522" y2="758.2522"/><text fill="#000000" font-family="sans-serif" font-size="14" lengthAdjust="spacing" textLength="135" x="225.43" y="777.3596">passportCardNumber</text></g><!--class Address--><g id="elem_Address"><rect codeLine="33" fill="#F1F1F1" height="129.7266" id="Address" rx="2.5" ry="2.5" style="stroke:#181818;stroke-width:0.5;" width="63" x="401.43" y="692.1311"/><text fill="#000000" font-family="sans-serif" font-size="14" lengthAdjust="spacing" textLength="52" x="406.93" y="712.2385">Address</text><line style="stroke:#181818;stroke-width:0.5;" x1="402.43" x2="463.43" y1="720.7522" y2="720.7522"/><text fill="#000000" font-family="sans-serif" font-size="14" lengthAdjust="spacing" textLength="36" x="407.43" y="739.8596">street</text><text fill="#000000" font-family="sans-serif" font-size="14" lengthAdjust="spacing" textLength="21" x="407.43" y="758.4807">city</text><text fill="#000000" font-family="sans-serif" font-size="14" lengthAdjust="spacing" textLength="41" x="407.43" y="777.1018">district</text><text fill="#000000" font-family="sans-serif" font-size="14" lengthAdjust="spacing" textLength="31" x="407.43" y="795.7229">state</text><text fill="#000000" font-family="sans-serif" font-size="14" lengthAdjust="spacing" textLength="51" x="407.43" y="814.344">zipCode</text></g><!--class Property--><g id="elem_Property"><rect codeLine="43" fill="#F1F1F1" height="204.2109" id="Property" rx="2.5" ry="2.5" style="stroke:#181818;stroke-width:0.5;" width="141" x="551.43" y="409.1311"/><text fill="#000000" font-family="sans-serif" font-size="14" lengthAdjust="spacing" textLength="54" x="594.93" y="429.2385">Property</text><line style="stroke:#181818;stroke-width:0.5;" x1="552.43" x2="691.43" y1="437.7522" y2="437.7522"/><text fill="#000000" font-family="sans-serif" font-size="14" lengthAdjust="spacing" textLength="66" x="557.43" y="456.8596">propertyID</text><text fill="#000000" font-family="sans-serif" font-size="14" lengthAdjust="spacing" textLength="85" x="557.43" y="475.4807">propertyType</text><text fill="#000000" font-family="sans-serif" font-size="14" lengthAdjust="spacing" textLength="98" x="557.43" y="494.1018">areaOfProperty</text><text fill="#000000" font-family="sans-serif" font-size="14" lengthAdjust="spacing" textLength="129" x="557.43" y="512.7229">distanceFromCentre</text><text fill="#000000" font-family="sans-serif" font-size="14" lengthAdjust="spacing" textLength="117" x="557.43" y="531.344">dateOfAcceptance</text><text fill="#000000" font-family="sans-serif" font-size="14" lengthAdjust="spacing" textLength="96" x="557.43" y="549.9651">dateOfRequest</text><text fill="#000000" font-family="sans-serif" font-size="14" lengthAdjust="spacing" textLength="4" x="557.43" y="568.5862">&#160;</text><text fill="#000000" font-family="sans-serif" font-size="14" lengthAdjust="spacing" textLength="37" x="557.43" y="587.2073">Photo</text><text fill="#000000" font-family="sans-serif" font-size="14" lengthAdjust="spacing" textLength="75" x="557.43" y="605.8284">Transaction</text></g><!--class Building--><g id="elem_Building"><rect codeLine="56" fill="#F1F1F1" height="129.7266" id="Building" rx="2.5" ry="2.5" style="stroke:#181818;stroke-width:0.5;" width="135" x="605.43" y="692.1311"/><text fill="#000000" font-family="sans-serif" font-size="14" lengthAdjust="spacing" textLength="50" x="647.93" y="712.2385">Building</text><line style="stroke:#181818;stroke-width:0.5;" x1="606.43" x2="739.43" y1="720.7522" y2="720.7522"/><text fill="#000000" font-family="sans-serif" font-size="14" lengthAdjust="spacing" textLength="63" x="611.43" y="739.8596">bedrooms</text><text fill="#000000" font-family="sans-serif" font-size="14" lengthAdjust="spacing" textLength="67" x="611.43" y="758.4807">bathrooms</text><text fill="#000000" font-family="sans-serif" font-size="14" lengthAdjust="spacing" textLength="94" x="611.43" y="777.1018">parkingSpaces</text><text fill="#000000" font-family="sans-serif" font-size="14" lengthAdjust="spacing" textLength="123" x="611.43" y="795.7229">availableEquipment</text><text fill="#000000" font-family="sans-serif" font-size="14" lengthAdjust="spacing" textLength="66" x="611.43" y="814.344">equipment</text></g><!--class House--><g id="elem_House"><rect codeLine="64" fill="#F1F1F1" height="92.4844" id="House" rx="2.5" ry="2.5" style="stroke:#181818;stroke-width:0.5;" width="94" x="719.93" y="910.6311"/><text fill="#000000" font-family="sans-serif" font-size="14" lengthAdjust="spacing" textLength="40" x="746.93" y="930.7385">House</text><line style="stroke:#181818;stroke-width:0.5;" x1="720.93" x2="812.93" y1="939.2522" y2="939.2522"/><text fill="#000000" font-family="sans-serif" font-size="14" lengthAdjust="spacing" textLength="62" x="725.93" y="958.3596">basement</text><text fill="#000000" font-family="sans-serif" font-size="14" lengthAdjust="spacing" textLength="19" x="725.93" y="976.9807">loft</text><text fill="#000000" font-family="sans-serif" font-size="14" lengthAdjust="spacing" textLength="82" x="725.93" y="995.6018">sunExposure</text></g><!--class Employee--><g id="elem_Employee"><rect codeLine="70" fill="#F1F1F1" height="55.2422" id="Employee" rx="2.5" ry="2.5" style="stroke:#181818;stroke-width:0.5;" width="68" x="925.93" y="1091.1311"/><text fill="#000000" font-family="sans-serif" font-size="14" lengthAdjust="spacing" textLength="62" x="928.93" y="1111.2385">Employee</text><line style="stroke:#181818;stroke-width:0.5;" x1="926.93" x2="992.93" y1="1119.7522" y2="1119.7522"/><text fill="#000000" font-family="sans-serif" font-size="14" lengthAdjust="spacing" textLength="46" x="931.93" y="1138.8596">agency</text></g><!--class Equipment--><g id="elem_Equipment"><rect codeLine="74" fill="#F1F1F1" height="73.8633" id="Equipment" rx="2.5" ry="2.5" style="stroke:#181818;stroke-width:0.5;" width="107" x="577.43" y="919.6311"/><text fill="#000000" font-family="sans-serif" font-size="14" lengthAdjust="spacing" textLength="67" x="597.43" y="939.7385">Equipment</text><line style="stroke:#181818;stroke-width:0.5;" x1="578.43" x2="683.43" y1="948.2522" y2="948.2522"/><text fill="#000000" font-family="sans-serif" font-size="14" lengthAdjust="spacing" textLength="91" x="583.43" y="967.3596">centralHeating</text><text fill="#000000" font-family="sans-serif" font-size="14" lengthAdjust="spacing" textLength="95" x="583.43" y="985.9807">airConditioning</text></g><!--class Commission--><g id="elem_Commission"><rect codeLine="80" fill="#F1F1F1" height="73.8633" id="Commission" rx="2.5" ry="2.5" style="stroke:#181818;stroke-width:0.5;" width="121" x="130.43" y="121.6311"/><text fill="#000000" font-family="sans-serif" font-size="14" lengthAdjust="spacing" textLength="76" x="152.93" y="141.7385">Commission</text><line style="stroke:#181818;stroke-width:0.5;" x1="131.43" x2="250.43" y1="150.2522" y2="150.2522"/><text fill="#000000" font-family="sans-serif" font-size="14" lengthAdjust="spacing" textLength="105" x="136.43" y="169.3596">commissionType</text><text fill="#000000" font-family="sans-serif" font-size="14" lengthAdjust="spacing" textLength="109" x="136.43" y="187.9807">commissionValue</text></g><!--class Photo--><g id="elem_Photo"><rect codeLine="85" fill="#F1F1F1" height="92.4844" id="Photo" rx="2.5" ry="2.5" style="stroke:#181818;stroke-width:0.5;" width="70" x="499.93" y="711.1311"/><text fill="#000000" font-family="sans-serif" font-size="14" lengthAdjust="spacing" textLength="37" x="516.43" y="731.2385">Photo</text><line style="stroke:#181818;stroke-width:0.5;" x1="500.93" x2="568.93" y1="739.7522" y2="739.7522"/><text fill="#000000" font-family="sans-serif" font-size="14" lengthAdjust="spacing" textLength="58" x="505.93" y="758.8596">photoURI</text><text fill="#000000" font-family="sans-serif" font-size="14" lengthAdjust="spacing" textLength="49" x="505.93" y="777.4807">photoID</text><text fill="#000000" font-family="sans-serif" font-size="14" lengthAdjust="spacing" textLength="58" x="505.93" y="796.1018">photoList</text></g><!--class Transaction--><g id="elem_Transaction"><rect codeLine="91" fill="#F1F1F1" height="73.8633" id="Transaction" rx="2.5" ry="2.5" style="stroke:#181818;stroke-width:0.5;" width="114" x="775.93" y="720.1311"/><text fill="#000000" font-family="sans-serif" font-size="14" lengthAdjust="spacing" textLength="75" x="795.43" y="740.2385">Transaction</text><line style="stroke:#181818;stroke-width:0.5;" x1="776.93" x2="888.93" y1="748.7522" y2="748.7522"/><text fill="#000000" font-family="sans-serif" font-size="14" lengthAdjust="spacing" textLength="102" x="781.93" y="767.8596">transactionType</text><text fill="#000000" font-family="sans-serif" font-size="14" lengthAdjust="spacing" textLength="95" x="781.93" y="786.4807">monetaryValue</text></g><!--class Request--><g id="elem_Request"><rect codeLine="96" fill="#F1F1F1" height="73.8633" id="Request" rx="2.5" ry="2.5" style="stroke:#181818;stroke-width:0.5;" width="90" x="352.93" y="474.1311"/><text fill="#000000" font-family="sans-serif" font-size="14" lengthAdjust="spacing" textLength="53" x="371.43" y="494.2385">Request</text><line style="stroke:#181818;stroke-width:0.5;" x1="353.93" x2="441.93" y1="502.7522" y2="502.7522"/><text fill="#000000" font-family="sans-serif" font-size="14" lengthAdjust="spacing" textLength="11" x="358.93" y="521.8596">id</text><text fill="#000000" font-family="sans-serif" font-size="14" lengthAdjust="spacing" textLength="78" x="358.93" y="540.4807">requestDate</text></g><!--class Agency--><g id="elem_Agency"><rect codeLine="102" fill="#F1F1F1" height="111.1055" id="Agency" rx="2.5" ry="2.5" style="stroke:#181818;stroke-width:0.5;" width="124" x="286.93" y="103.1311"/><text fill="#000000" font-family="sans-serif" font-size="14" lengthAdjust="spacing" textLength="47" x="325.43" y="123.2385">Agency</text><line style="stroke:#181818;stroke-width:0.5;" x1="287.93" x2="409.93" y1="131.7522" y2="131.7522"/><text fill="#000000" font-family="sans-serif" font-size="14" lengthAdjust="spacing" textLength="59" x="292.93" y="150.8596">agencyID</text><text fill="#000000" font-family="sans-serif" font-size="14" lengthAdjust="spacing" textLength="35" x="292.93" y="169.4807">name</text><text fill="#000000" font-family="sans-serif" font-size="14" lengthAdjust="spacing" textLength="33" x="292.93" y="188.1018">email</text><text fill="#000000" font-family="sans-serif" font-size="14" lengthAdjust="spacing" textLength="112" x="292.93" y="206.7229">telephoneNumber</text></g><!--class Agent--><g id="elem_Agent"><rect codeLine="109" fill="#F1F1F1" height="36.6211" id="Agent" rx="2.5" ry="2.5" style="stroke:#181818;stroke-width:0.5;" width="43" x="498.43" y="293.1311"/><text fill="#000000" font-family="sans-serif" font-size="14" lengthAdjust="spacing" textLength="37" x="501.43" y="313.2385">Agent</text><line style="stroke:#181818;stroke-width:0.5;" x1="499.43" x2="540.43" y1="321.7522" y2="321.7522"/></g><!--class Announcement--><g id="elem_Announcement"><rect codeLine="111" fill="#F1F1F1" height="73.8633" id="Announcement" rx="2.5" ry="2.5" style="stroke:#181818;stroke-width:0.5;" width="115" x="554.43" y="121.6311"/><text fill="#000000" font-family="sans-serif" font-size="14" lengthAdjust="spacing" textLength="95" x="564.43" y="141.7385">Announcement</text><line style="stroke:#181818;stroke-width:0.5;" x1="555.43" x2="668.43" y1="150.2522" y2="150.2522"/><text fill="#000000" font-family="sans-serif" font-size="14" lengthAdjust="spacing" textLength="11" x="560.43" y="169.3596">id</text><text fill="#000000" font-family="sans-serif" font-size="14" lengthAdjust="spacing" textLength="103" x="560.43" y="187.9807">acceptanceDate</text></g><!--reverse link Property to Building--><g id="link_Property_Building"><path d="M648.81,633.0111 C649.53,636.4211 650.24,639.8011 650.93,643.1311 C654.23,658.9811 657.64,676.1111 660.77,692.1311 " fill="none" id="Property-backto-Building" style="stroke:#181818;stroke-width:1.0;"/><polygon fill="none" points="641.93,634.2911,644.59,613.2711,655.62,631.3711,641.93,634.2911" style="stroke:#181818;stroke-width:1.0;"/></g><!--reverse link Building to House--><g id="link_Building_House"><path d="M738.38,839.3211 C740.75,843.5611 742.95,847.8411 744.93,852.1311 C753.31,870.3211 758.54,891.7811 761.78,910.4311 " fill="none" id="Building-backto-House" style="stroke:#181818;stroke-width:1.0;"/><polygon fill="none" points="732.39,842.9411,727.82,822.2511,744.29,835.5811,732.39,842.9411" style="stroke:#181818;stroke-width:1.0;"/></g><!--link Agent to Employee--><g id="link_Agent_Employee"><path codeLine="116" d="M541.45,319.8011 C629.79,349.5211 959.93,463.7111 959.93,510.1311 C959.93,510.1311 959.93,510.1311 959.93,957.6311 C959.93,1004.5711 959.93,1059.2711 959.93,1091.0211 " fill="none" id="Agent-Employee" style="stroke:#181818;stroke-width:1.0;"/><polygon fill="#000000" points="967.3147,761.6713,965.5839,752.3195,960.4176,755.1229,967.3147,761.6713" style="stroke:#000000;stroke-width:1.0;"/><text fill="#000000" font-family="sans-serif" font-size="13" lengthAdjust="spacing" textLength="82" x="973.93" y="762.6594">represented in</text></g><!--link Agency to Announcement--><g id="link_Agency_Announcement"><path codeLine="117" d="M411.26,158.6311 C454.55,158.6311 511.82,158.6311 554.1,158.6311 " fill="none" id="Agency-Announcement" style="stroke:#181818;stroke-width:1.0;"/><polygon fill="#000000" points="438.18,146.2766,429.1349,143.3377,429.1349,149.2155,438.18,146.2766" style="stroke:#000000;stroke-width:1.0;"/><text fill="#000000" font-family="sans-serif" font-size="13" lengthAdjust="spacing" textLength="94" x="442.18" y="151.6594">wants to publish</text><text fill="#000000" font-family="sans-serif" font-size="13" lengthAdjust="spacing" textLength="7" x="418.8716" y="154.6873">1</text><text fill="#000000" font-family="sans-serif" font-size="13" lengthAdjust="spacing" textLength="13" x="533.2598" y="154.6495">..*</text></g><!--link Announcement to Request--><g id="link_Announcement_Request"><path codeLine="118" d="M611.8,195.8611 C610.05,241.8311 601.57,321.9711 565.93,379.1311 C557.83,392.1211 489.99,443.0611 443.04,477.4611 " fill="none" id="Announcement-Request" style="stroke:#181818;stroke-width:1.0;"/><polygon fill="#000000" points="602.3598,316.0654,609.5303,309.8176,604.4885,306.7961,602.3598,316.0654" style="stroke:#000000;stroke-width:1.0;"/><text fill="#000000" font-family="sans-serif" font-size="13" lengthAdjust="spacing" textLength="21" x="613.93" y="317.1594">of a</text><text fill="#000000" font-family="sans-serif" font-size="13" lengthAdjust="spacing" textLength="7" x="604.1988" y="217.4989">1</text></g><!--link Property to Address--><g id="link_Property_Address"><path codeLine="119" d="M551.17,595.2011 C538.23,610.9511 525.01,627.4111 512.93,643.1311 C496.38,664.6711 478.86,689.2111 464.44,709.9111 " fill="none" id="Property-Address" style="stroke:#181818;stroke-width:1.0;"/><text fill="#000000" font-family="sans-serif" font-size="13" lengthAdjust="spacing" textLength="36" x="513.93" y="658.1594">stores</text><text fill="#000000" font-family="sans-serif" font-size="13" lengthAdjust="spacing" textLength="7" x="536.5119" y="600.0267">1</text><text fill="#000000" font-family="sans-serif" font-size="13" lengthAdjust="spacing" textLength="7" x="472.5361" y="694.1194">1</text></g><!--link Address to Property--><g id="link_Address_Property"><path codeLine="134" d="M401.39,692.6011 C397.29,675.7411 397.13,658.0811 405.93,643.1311 C419.85,619.4711 436.27,627.0611 459.93,613.1311 C490.06,595.3811 522.87,575.1111 551.03,557.4111 " fill="none" id="Address-Property" style="stroke:#181818;stroke-width:1.0;"/><polygon fill="#000000" points="407.2199,656.1285,415.9017,652.2456,411.9614,647.8841,407.2199,656.1285" style="stroke:#000000;stroke-width:1.0;"/><text fill="#000000" font-family="sans-serif" font-size="13" lengthAdjust="spacing" textLength="71" x="419.93" y="658.1594">has address</text><text fill="#000000" font-family="sans-serif" font-size="13" lengthAdjust="spacing" textLength="7" x="390.1195" y="680.7633">1</text><text fill="#000000" font-family="sans-serif" font-size="13" lengthAdjust="spacing" textLength="7" x="536.3575" y="558.3396">1</text></g><!--link Agency to Employee--><g id="link_Agency_Employee"><path codeLine="120" d="M411.13,179.6211 C447.52,190.8211 494.52,204.4511 536.93,214.1311 C662.82,242.8811 1109.93,181.5011 1109.93,310.6311 C1109.93,310.6311 1109.93,310.6311 1109.93,957.6311 C1109.93,1025.0211 1038.22,1075.7111 993.97,1100.5811 " fill="none" id="Agency-Employee" style="stroke:#181818;stroke-width:1.0;"/><polygon fill="#000000" points="1112.2562,648.5516,1114.6098,657.7663,1119.5766,654.6231,1112.2562,648.5516" style="stroke:#000000;stroke-width:1.0;"/><text fill="#000000" font-family="sans-serif" font-size="13" lengthAdjust="spacing" textLength="88" x="1123.93" y="658.1594">is in an agency</text><text fill="#000000" font-family="sans-serif" font-size="13" lengthAdjust="spacing" textLength="7" x="418.7266" y="178.1043">1</text><text fill="#000000" font-family="sans-serif" font-size="13" lengthAdjust="spacing" textLength="7" x="1001.7126" y="1092.1385">1</text></g><!--link Property to Transaction--><g id="link_Property_Transaction"><path codeLine="121" d="M692.48,593.7211 C729.5,636.5311 772.99,686.8211 801.66,719.9711 " fill="none" id="Property-Transaction" style="stroke:#181818;stroke-width:1.0;"/><polygon fill="#000000" points="754.2006,656.5586,750.507,647.7945,746.0611,651.6393,754.2006,656.5586" style="stroke:#000000;stroke-width:1.0;"/><text fill="#000000" font-family="sans-serif" font-size="13" lengthAdjust="spacing" textLength="129" x="759.93" y="658.1594">has a transaction type</text><text fill="#000000" font-family="sans-serif" font-size="13" lengthAdjust="spacing" textLength="7" x="700.5792" y="598.8574">1</text><text fill="#000000" font-family="sans-serif" font-size="13" lengthAdjust="spacing" textLength="7" x="788.4666" y="708.9043">1</text></g><!--link Property to Photo--><g id="link_Property_Photo"><path codeLine="122" d="M575.14,613.3811 C571.13,623.3511 567.31,633.3811 563.93,643.1311 C556.29,665.1311 549.67,690.1711 544.68,711.0811 " fill="none" id="Property-Photo" style="stroke:#181818;stroke-width:1.0;"/><polygon fill="#000000" points="567.4418,657.55,572.9397,649.7896,567.3283,648.0401,567.4418,657.55" style="stroke:#000000;stroke-width:1.0;"/><text fill="#000000" font-family="sans-serif" font-size="13" lengthAdjust="spacing" textLength="64" x="577.93" y="658.1594">has photos</text><text fill="#000000" font-family="sans-serif" font-size="13" lengthAdjust="spacing" textLength="7" x="564.604" y="635.1993">1</text><text fill="#000000" font-family="sans-serif" font-size="13" lengthAdjust="spacing" textLength="13" x="532.1777" y="699.7416">..*</text></g><!--link Commission to Announcement--><g id="link_Commission_Announcement"><path codeLine="123" d="M240.37,121.3911 C249.66,114.9911 259.44,108.6411 268.93,103.1311 C344.83,59.0811 378.88,45.6211 463.43,69.1311 C500.55,79.4511 537.68,101.8311 565.52,121.6211 " fill="none" id="Commission-Announcement" style="stroke:#181818;stroke-width:1.0;"/><polygon fill="#000000" points="342.43,63.7731,351.473,66.7184,351.4772,60.8405,342.43,63.7731" style="stroke:#000000;stroke-width:1.0;"/><text fill="#000000" font-family="sans-serif" font-size="13" lengthAdjust="spacing" textLength="106" x="356.43" y="69.1594">has a commission</text><text fill="#000000" font-family="sans-serif" font-size="13" lengthAdjust="spacing" textLength="7" x="241.5531" y="110.3101">1</text><text fill="#000000" font-family="sans-serif" font-size="13" lengthAdjust="spacing" textLength="7" x="549.3178" y="110.2979">1</text></g><!--link Building to Equipment--><g id="link_Building_Equipment"><path codeLine="124" d="M648.89,822.3011 C645.83,832.1911 643.04,842.3611 640.93,852.1311 C636.18,874.1911 633.68,899.3811 632.37,919.3911 " fill="none" id="Building-Equipment" style="stroke:#181818;stroke-width:1.0;"/><polygon fill="#000000" points="645.0913,866.7058,649.5058,858.2818,643.7112,857.2959,645.0913,866.7058" style="stroke:#000000;stroke-width:1.0;"/><text fill="#000000" font-family="sans-serif" font-size="13" lengthAdjust="spacing" textLength="85" x="654.93" y="867.1594">has equipment</text><text fill="#000000" font-family="sans-serif" font-size="13" lengthAdjust="spacing" textLength="7" x="639.0499" y="843.9557">1</text><text fill="#000000" font-family="sans-serif" font-size="13" lengthAdjust="spacing" textLength="13" x="618.4687" y="908.3101">..*</text></g><!--link Role to Person--><g id="link_Role_Person"><path codeLine="125" d="M162.02,794.1811 C174.23,817.1111 191.45,846.9411 209.93,871.1311 C217.67,881.2611 226.53,891.4411 235.51,901.0511 " fill="none" id="Role-Person" style="stroke:#181818;stroke-width:1.0;"/><polygon fill="#000000" points="212.0969,857.6567,214.8004,866.7749,219.6436,863.4444,212.0969,857.6567" style="stroke:#000000;stroke-width:1.0;"/><text fill="#000000" font-family="sans-serif" font-size="13" lengthAdjust="spacing" textLength="57" x="223.93" y="867.1594">has a role</text><text fill="#000000" font-family="sans-serif" font-size="13" lengthAdjust="spacing" textLength="7" x="157.5277" y="816.0751">1</text><text fill="#000000" font-family="sans-serif" font-size="13" lengthAdjust="spacing" textLength="7" x="220.7046" y="889.8811">1</text></g><!--link PassportCard to Person--><g id="link_PassportCard_Person"><path codeLine="126" d="M291.55,785.0711 C290.53,807.9611 289.41,841.7011 289.93,871.1311 C290.1,880.8211 290.39,891.1311 290.71,901.0911 " fill="none" id="PassportCard-Person" style="stroke:#181818;stroke-width:1.0;"/><polygon fill="#000000" points="294.9662,856.7767,291.9619,865.8003,297.8396,865.8429,294.9662,856.7767" style="stroke:#000000;stroke-width:1.0;"/><text fill="#000000" font-family="sans-serif" font-size="13" lengthAdjust="spacing" textLength="115" x="303.93" y="867.1594">has a passport card</text><text fill="#000000" font-family="sans-serif" font-size="13" lengthAdjust="spacing" textLength="7" x="283.4825" y="807.076">1</text><text fill="#000000" font-family="sans-serif" font-size="13" lengthAdjust="spacing" textLength="7" x="282.9771" y="889.9262">1</text></g><!--link Address to Person--><g id="link_Address_Person"><path codeLine="127" d="M437.78,822.2211 C436.48,839.0811 432.61,856.6011 423.93,871.1311 C408.24,897.3811 380.88,916.9211 355.21,930.5611 " fill="none" id="Address-Person" style="stroke:#181818;stroke-width:1.0;"/><polygon fill="#000000" points="439.9608,857.7999,432.1406,863.2124,436.8155,866.7753,439.9608,857.7999" style="stroke:#000000;stroke-width:1.0;"/><text fill="#000000" font-family="sans-serif" font-size="13" lengthAdjust="spacing" textLength="71" x="445.93" y="867.1594">has address</text><text fill="#000000" font-family="sans-serif" font-size="13" lengthAdjust="spacing" textLength="7" x="430.9192" y="843.8675">1</text><text fill="#000000" font-family="sans-serif" font-size="13" lengthAdjust="spacing" textLength="7" x="362.8158" y="923.603">1</text></g><!--link Request to Property--><g id="link_Request_Property"><path codeLine="128" d="M442.99,511.1311 C474.04,511.1311 515.92,511.1311 551.36,511.1311 " fill="none" id="Request-Property" style="stroke:#181818;stroke-width:1.0;"/><polygon fill="#000000" points="470.18,498.7766,461.1349,495.8377,461.1349,501.7155,470.18,498.7766" style="stroke:#000000;stroke-width:1.0;"/><text fill="#000000" font-family="sans-serif" font-size="13" lengthAdjust="spacing" textLength="59" x="474.18" y="504.1594">listing of a</text><text fill="#000000" font-family="sans-serif" font-size="13" lengthAdjust="spacing" textLength="7" x="451.0328" y="506.787">1</text><text fill="#000000" font-family="sans-serif" font-size="13" lengthAdjust="spacing" textLength="7" x="536.2586" y="507.2341">1</text></g><!--link Request to Owner--><g id="link_Request_Owner"><path codeLine="129" d="M352.89,522.7911 C281.33,542.4311 143.87,591.8111 85.93,692.1311 C6,830.5211 78.04,1038.3011 102.5,1099.8511 " fill="none" id="Request-Owner" style="stroke:#181818;stroke-width:1.0;"/><polygon fill="#000000" points="52.9398,866.3634,59.2362,859.2356,53.8441,856.8959,52.9398,866.3634" style="stroke:#000000;stroke-width:1.0;"/><text fill="#000000" font-family="sans-serif" font-size="13" lengthAdjust="spacing" textLength="77" x="63.93" y="867.1594">has an owner</text><text fill="#000000" font-family="sans-serif" font-size="13" lengthAdjust="spacing" textLength="13" x="331.9979" y="520.336">..*</text><text fill="#000000" font-family="sans-serif" font-size="13" lengthAdjust="spacing" textLength="7" x="92.2893" y="1088.9643">1</text></g><!--link Person to Owner--><g id="link_Person_Owner"><path codeLine="130" d="M230.72,1012.0211 C195.7,1042.6411 154.27,1078.8611 130.17,1099.9411 " fill="none" id="Person-Owner" style="stroke:#181818;stroke-width:1.0;"/><polygon fill="#000000" points="205.694,1048.4854,196.9503,1052.2268,200.8194,1056.6517,205.694,1048.4854" style="stroke:#000000;stroke-width:1.0;"/><text fill="#000000" font-family="sans-serif" font-size="13" lengthAdjust="spacing" textLength="82" x="210.93" y="1057.1594">represented in</text></g><!--link Person to Employee--><g id="link_Person_Employee"><path codeLine="131" d="M355.08,972.5411 C492.69,1005.5511 819.32,1083.9011 925.76,1109.4311 " fill="none" id="Person-Employee" style="stroke:#181818;stroke-width:1.0;"/></g><!--link Agent to Request--><g id="link_Agent_Request"><path codeLine="132" d="M498.23,313.7411 C469.09,316.5511 418.26,326.3011 394.93,360.1311 C372.01,393.3611 377.94,441.3411 386.19,474.0311 " fill="none" id="Agent-Request" style="stroke:#181818;stroke-width:1.0;"/><polygon fill="#000000" points="397.0655,373.8747,404.6563,368.1449,399.8386,364.7774,397.0655,373.8747" style="stroke:#000000;stroke-width:1.0;"/><text fill="#000000" font-family="sans-serif" font-size="13" lengthAdjust="spacing" textLength="67" x="408.93" y="375.1594">assigned to</text><text fill="#000000" font-family="sans-serif" font-size="13" lengthAdjust="spacing" textLength="7" x="483.5125" y="308.9151">1</text><text fill="#000000" font-family="sans-serif" font-size="13" lengthAdjust="spacing" textLength="13" x="369.941" y="462.975">..*</text></g><!--link Agent to Request--><g id="link_Agent_Request"><path codeLine="135" d="M509.83,330.2311 C502.05,343.6911 490.96,362.6711 480.93,379.1311 C461.24,411.4311 438.16,447.7311 421.34,473.9211 " fill="none" id="Agent-Request-1" style="stroke:#181818;stroke-width:1.0;"/><polygon fill="#000000" points="494.3081,374.034,501.5536,367.8734,496.5487,364.7912,494.3081,374.034" style="stroke:#000000;stroke-width:1.0;"/><text fill="#000000" font-family="sans-serif" font-size="13" lengthAdjust="spacing" textLength="51" x="505.93" y="375.1594">approves</text><text fill="#000000" font-family="sans-serif" font-size="13" lengthAdjust="spacing" textLength="7" x="499.175" y="351.6326">1</text><text fill="#000000" font-family="sans-serif" font-size="13" lengthAdjust="spacing" textLength="13" x="411.3521" y="462.8454">..*</text></g><!--link Announcement to Agent--><g id="link_Announcement_Agent"><path codeLine="133" d="M565.09,196.0311 C550.86,209.5711 536.68,226.0711 527.93,244.1311 C520.48,259.5111 518.95,279.1611 518.99,293.1011 " fill="none" id="Announcement-Agent" style="stroke:#181818;stroke-width:1.0;"/><polygon fill="#000000" points="535.075,249.2601,528.5399,256.1698,533.8494,258.6913,535.075,249.2601" style="stroke:#000000;stroke-width:1.0;"/><text fill="#000000" font-family="sans-serif" font-size="13" lengthAdjust="spacing" textLength="43" x="541.93" y="259.1594">creates</text><text fill="#000000" font-family="sans-serif" font-size="13" lengthAdjust="spacing" textLength="13" x="543.5889" y="217.4088">..*</text><text fill="#000000" font-family="sans-serif" font-size="13" lengthAdjust="spacing" textLength="7" x="510.6303" y="281.9541">1</text></g><!--SRC=[VLLDJnin4BtxLrXSAbK2qLk58YGQg41g2-AZzubtahNOjOtj1GBYltVykRkXa4DYZ-VvZMVUJDozL0OizBpNIelMwXwvjmCoLqyCY7lOu8tVTiWj2WzgqqqTN0kDVf9gmzVGEMJiIuThpxtcLcvQpniPK58hDW693fmxyTxArU3nGcXr8r-G7pBMoWQva5OGILptw5lTECQyz1J2gUv1AlvRDzZnVNvtStZudR5u7xz2wxJYhupJHq6FSU7X-S_Ghz367HAyEsaQYywbO-pGj5fXTdehjrrheajtoIR-DEY4bIO-fhfTFYcqv5SDL_HbjFLBi4t6cubfboR7aXoTjuW-BeNqsyGgoIg5pmxWqxDUf5bI4i95bTbgWzPlCsdUNPpEjhTRaou0Yt2vBfXA1KhWJrB24XK5ayp4URa-4G9DF9uOh_5XGETPD5srskkukhMW7EIorwV-66JN1ANWiqVLZ07dDAsmiLhtgIuhyEsu8zcGU3Ot94TC5dYaGiAgmxE7GPgUeatrhRjAUwu7XvMp194fmM75TdgTipoeisUZtM1nlEQiDvtU8YOWzOGIsybfuNrDkH0XVT2T8tWYIn1fbrerCcGbs2fsgVjUEYUhTaKrr6gDfh_G3PEmOjABpiBwxlfYt9JYX_Klgkw8cvGee_regRGq6D23tUwGvhBFkiCcssaGw5lLv4dCqpHdEQJQdx4ZFs_5S8b_7RTAwO5qcD8z2G6gH4iK4KbpeXIF7_5ZYjHGoz41DbmgbaBaUz_so77luE3htemXGfv0UHU6cXbMdNGjctaaQ4vAzDTh3gpAEvxlnv_SxkJalARLZ3svr5Z9QS6benWvgAAu_rqwhUKHRy5nc5QJUoedFtuFZMzD0agmg1D7hk-V5wPwOfl8jP2DwYHiRVCPJMsG3AgDIeWuQYVloOEyt6x3yOBD1kl7tcNOSX7y5gna_4D4Fb-mKi2iXE1OCXPgIdKFlPngcyR-D3FnbQC65kbonNNmP9cI0aZ8uB2Zmz6bA23BTvR7aO7UAJUAi5I-tOf5rwgvJKgxe8dlqNsGa_6fywny6iCn1qF_B8_e_W40]--></g></svg>