<?xml version="1.0" encoding="us-ascii" standalone="no"?><svg xmlns="http://www.w3.org/2000/svg" xmlns:xlink="http://www.w3.org/1999/xlink" contentStyleType="text/css" height="1974px" preserveAspectRatio="none" style="width:2420px;height:1974px;background:#FFFFFF;" version="1.1" viewBox="0 0 2420 1974" width="2420px" zoomAndPan="magnify"><defs/><g><rect fill="#FFFFFF" height="445.8516" style="stroke:#181818;stroke-width:1.0;" width="10" x="36.5" y="90.6406"/><rect fill="#FFFFFF" height="30" style="stroke:#181818;stroke-width:1.0;" width="10" x="36.5" y="588.5391"/><rect fill="#FFFFFF" height="30" style="stroke:#181818;stroke-width:1.0;" width="10" x="36.5" y="935.1094"/><rect fill="#FFFFFF" height="30" style="stroke:#181818;stroke-width:1.0;" width="10" x="36.5" y="1382.1797"/><rect fill="#FFFFFF" height="445.8516" style="stroke:#181818;stroke-width:1.0;" width="10" x="694.5" y="90.6406"/><rect fill="#FFFFFF" height="73.0469" style="stroke:#181818;stroke-width:1.0;" width="10" x="694.5" y="588.5391"/><rect fill="#FFFFFF" height="87.5703" style="stroke:#181818;stroke-width:1.0;" width="10" x="694.5" y="935.1094"/><rect fill="#FFFFFF" height="73.0469" style="stroke:#181818;stroke-width:1.0;" width="10" x="694.5" y="1382.1797"/><rect fill="#FFFFFF" height="171.1406" style="stroke:#181818;stroke-width:1.0;" width="10" x="1219.5" y="139.6875"/><rect fill="#FFFFFF" height="114.3828" style="stroke:#181818;stroke-width:1.0;" width="10" x="1219.5" y="661.5859"/><rect fill="#FFFFFF" height="28.5234" style="stroke:#181818;stroke-width:1.0;" width="10" x="1219.5" y="833.0156"/><rect fill="#FFFFFF" height="171.8359" style="stroke:#181818;stroke-width:1.0;" width="10" x="1219.5" y="1022.6797"/><rect fill="#FFFFFF" height="28.5234" style="stroke:#181818;stroke-width:1.0;" width="10" x="1219.5" y="1280.0859"/><rect fill="#FFFFFF" height="186.3594" style="stroke:#181818;stroke-width:1.0;" width="10" x="1219.5" y="1455.2266"/><rect fill="#FFFFFF" height="28.5234" style="stroke:#181818;stroke-width:1.0;" width="10" x="1219.5" y="1727.1563"/><rect fill="#FFFFFF" height="28.5234" style="stroke:#181818;stroke-width:1.0;" width="10" x="1219.5" y="1819.7266"/><rect fill="#FFFFFF" height="28.5234" style="stroke:#181818;stroke-width:1.0;" width="10" x="1424" y="168.2109"/><rect fill="#FFFFFF" height="28.5234" style="stroke:#181818;stroke-width:1.0;" width="10" x="1593.5" y="225.2578"/><rect fill="#FFFFFF" height="28.5234" style="stroke:#181818;stroke-width:1.0;" width="10" x="1713.5" y="804.4922"/><rect fill="#FFFFFF" height="28.5234" style="stroke:#181818;stroke-width:1.0;" width="10" x="1713.5" y="1251.5625"/><rect fill="#FFFFFF" height="28.5234" style="stroke:#181818;stroke-width:1.0;" width="10" x="1713.5" y="1698.6328"/><rect fill="#FFFFFF" height="28.5234" style="stroke:#181818;stroke-width:1.0;" width="10" x="1792.5" y="775.9688"/><rect fill="#FFFFFF" height="28.5234" style="stroke:#181818;stroke-width:1.0;" width="10" x="1861.5" y="1223.0391"/><rect fill="#FFFFFF" height="28.5234" style="stroke:#181818;stroke-width:1.0;" width="10" x="1861.5" y="1670.1094"/><rect fill="#FFFFFF" height="28.5234" style="stroke:#181818;stroke-width:1.0;" width="10" x="1962.5" y="1194.5156"/><rect fill="#FFFFFF" height="28.5234" style="stroke:#181818;stroke-width:1.0;" width="10" x="2043" y="1641.5859"/><rect fill="#FFFFFF" height="28.5234" style="stroke:#181818;stroke-width:1.0;" width="10" x="2341" y="1791.2031"/><rect fill="none" height="318.0469" style="stroke:#000000;stroke-width:1.5;" width="2268" x="10" y="551.4922"/><rect fill="none" height="433.0703" style="stroke:#000000;stroke-width:1.5;" width="2268" x="10" y="883.5391"/><rect fill="none" height="433.0703" style="stroke:#000000;stroke-width:1.5;" width="2268" x="10" y="1330.6094"/><line style="stroke:#181818;stroke-width:0.5;stroke-dasharray:5.0,5.0;" x1="41" x2="41" y1="80.6406" y2="1894.7734"/><line style="stroke:#181818;stroke-width:0.5;stroke-dasharray:5.0,5.0;" x1="699.5" x2="699.5" y1="80.6406" y2="1894.7734"/><line style="stroke:#181818;stroke-width:0.5;stroke-dasharray:5.0,5.0;" x1="1224.5" x2="1224.5" y1="80.6406" y2="1894.7734"/><line style="stroke:#181818;stroke-width:0.5;stroke-dasharray:5.0,5.0;" x1="1428.5" x2="1428.5" y1="80.6406" y2="1894.7734"/><line style="stroke:#181818;stroke-width:0.5;stroke-dasharray:5.0,5.0;" x1="1598.5" x2="1598.5" y1="80.6406" y2="1894.7734"/><line style="stroke:#181818;stroke-width:0.5;stroke-dasharray:5.0,5.0;" x1="1718.5" x2="1718.5" y1="80.6406" y2="1894.7734"/><line style="stroke:#181818;stroke-width:0.5;stroke-dasharray:5.0,5.0;" x1="1797.5" x2="1797.5" y1="80.6406" y2="1894.7734"/><line style="stroke:#181818;stroke-width:0.5;stroke-dasharray:5.0,5.0;" x1="1866.5" x2="1866.5" y1="80.6406" y2="1894.7734"/><line style="stroke:#181818;stroke-width:0.5;stroke-dasharray:5.0,5.0;" x1="1967" x2="1967" y1="80.6406" y2="1894.7734"/><line style="stroke:#181818;stroke-width:0.5;stroke-dasharray:5.0,5.0;" x1="2048" x2="2048" y1="80.6406" y2="1894.7734"/><line style="stroke:#181818;stroke-width:0.5;stroke-dasharray:5.0,5.0;" x1="2177" x2="2177" y1="80.6406" y2="1894.7734"/><line style="stroke:#181818;stroke-width:0.5;stroke-dasharray:5.0,5.0;" x1="2346" x2="2346" y1="80.6406" y2="1894.7734"/><text fill="#000000" font-family="sans-serif" font-size="14" lengthAdjust="spacing" textLength="37" x="20" y="77.6738">Agent</text><ellipse cx="41.5" cy="13.5" fill="#E3E3E3" rx="8" ry="8" style="stroke:#181818;stroke-width:0.5;"/><path d="M41.5,21.5 L41.5,48.5 M28.5,29.5 L54.5,29.5 M41.5,48.5 L28.5,63.5 M41.5,48.5 L54.5,63.5 " fill="none" style="stroke:#181818;stroke-width:0.5;"/><text fill="#000000" font-family="sans-serif" font-size="14" lengthAdjust="spacing" textLength="37" x="20" y="1906.4473">Agent</text><ellipse cx="41.5" cy="1917.9141" fill="#E3E3E3" rx="8" ry="8" style="stroke:#181818;stroke-width:0.5;"/><path d="M41.5,1925.9141 L41.5,1952.9141 M28.5,1933.9141 L54.5,1933.9141 M41.5,1952.9141 L28.5,1967.9141 M41.5,1952.9141 L54.5,1967.9141 " fill="none" style="stroke:#181818;stroke-width:0.5;"/><rect fill="#E3E3E3" height="29.6406" rx="2.5" ry="2.5" style="stroke:#181818;stroke-width:0.5;" width="164" x="617.5" y="50"/><text fill="#000000" font-family="sans-serif" font-size="14" lengthAdjust="spacing" textLength="150" x="624.5" y="69.6738">CreateAnnouncementUI</text><rect fill="#E3E3E3" height="29.6406" rx="2.5" ry="2.5" style="stroke:#181818;stroke-width:0.5;" width="164" x="617.5" y="1893.7734"/><text fill="#000000" font-family="sans-serif" font-size="14" lengthAdjust="spacing" textLength="150" x="624.5" y="1913.4473">CreateAnnouncementUI</text><rect fill="#E3E3E3" height="29.6406" rx="2.5" ry="2.5" style="stroke:#181818;stroke-width:0.5;" width="218" x="1115.5" y="50"/><text fill="#000000" font-family="sans-serif" font-size="14" lengthAdjust="spacing" textLength="204" x="1122.5" y="69.6738">:CreateAnnouncementController</text><rect fill="#E3E3E3" height="29.6406" rx="2.5" ry="2.5" style="stroke:#181818;stroke-width:0.5;" width="218" x="1115.5" y="1893.7734"/><text fill="#000000" font-family="sans-serif" font-size="14" lengthAdjust="spacing" textLength="204" x="1122.5" y="1913.4473">:CreateAnnouncementController</text><rect fill="#E3E3E3" height="29.6406" rx="2.5" ry="2.5" style="stroke:#181818;stroke-width:0.5;" width="171" x="1343.5" y="50"/><text fill="#000000" font-family="sans-serif" font-size="14" lengthAdjust="spacing" textLength="157" x="1350.5" y="69.6738">:propertyTypeRepository</text><rect fill="#E3E3E3" height="29.6406" rx="2.5" ry="2.5" style="stroke:#181818;stroke-width:0.5;" width="171" x="1343.5" y="1893.7734"/><text fill="#000000" font-family="sans-serif" font-size="14" lengthAdjust="spacing" textLength="157" x="1350.5" y="1913.4473">:propertyTypeRepository</text><rect fill="#E3E3E3" height="29.6406" rx="2.5" ry="2.5" style="stroke:#181818;stroke-width:0.5;" width="148" x="1524.5" y="50"/><text fill="#000000" font-family="sans-serif" font-size="14" lengthAdjust="spacing" textLength="134" x="1531.5" y="69.6738">:comissionRepository</text><rect fill="#E3E3E3" height="29.6406" rx="2.5" ry="2.5" style="stroke:#181818;stroke-width:0.5;" width="148" x="1524.5" y="1893.7734"/><text fill="#000000" font-family="sans-serif" font-size="14" lengthAdjust="spacing" textLength="134" x="1531.5" y="1913.4473">:comissionRepository</text><rect fill="#E3E3E3" height="29.6406" rx="2.5" ry="2.5" style="stroke:#181818;stroke-width:0.5;" width="72" x="1682.5" y="50"/><text fill="#000000" font-family="sans-serif" font-size="14" lengthAdjust="spacing" textLength="58" x="1689.5" y="69.6738">:Property</text><rect fill="#E3E3E3" height="29.6406" rx="2.5" ry="2.5" style="stroke:#181818;stroke-width:0.5;" width="72" x="1682.5" y="1893.7734"/><text fill="#000000" font-family="sans-serif" font-size="14" lengthAdjust="spacing" textLength="58" x="1689.5" y="1913.4473">:Property</text><rect fill="#E3E3E3" height="29.6406" rx="2.5" ry="2.5" style="stroke:#181818;stroke-width:0.5;" width="50" x="1772.5" y="50"/><text fill="#000000" font-family="sans-serif" font-size="14" lengthAdjust="spacing" textLength="36" x="1779.5" y="69.6738">:Land</text><rect fill="#E3E3E3" height="29.6406" rx="2.5" ry="2.5" style="stroke:#181818;stroke-width:0.5;" width="50" x="1772.5" y="1893.7734"/><text fill="#000000" font-family="sans-serif" font-size="14" lengthAdjust="spacing" textLength="36" x="1779.5" y="1913.4473">:Land</text><rect fill="#E3E3E3" height="29.6406" rx="2.5" ry="2.5" style="stroke:#181818;stroke-width:0.5;" width="68" x="1832.5" y="50"/><text fill="#000000" font-family="sans-serif" font-size="14" lengthAdjust="spacing" textLength="54" x="1839.5" y="69.6738">:Building</text><rect fill="#E3E3E3" height="29.6406" rx="2.5" ry="2.5" style="stroke:#181818;stroke-width:0.5;" width="68" x="1832.5" y="1893.7734"/><text fill="#000000" font-family="sans-serif" font-size="14" lengthAdjust="spacing" textLength="54" x="1839.5" y="1913.4473">:Building</text><rect fill="#E3E3E3" height="29.6406" rx="2.5" ry="2.5" style="stroke:#181818;stroke-width:0.5;" width="83" x="1926" y="50"/><text fill="#000000" font-family="sans-serif" font-size="14" lengthAdjust="spacing" textLength="69" x="1933" y="69.6738">:Apartment</text><rect fill="#E3E3E3" height="29.6406" rx="2.5" ry="2.5" style="stroke:#181818;stroke-width:0.5;" width="83" x="1926" y="1893.7734"/><text fill="#000000" font-family="sans-serif" font-size="14" lengthAdjust="spacing" textLength="69" x="1933" y="1913.4473">:Apartment</text><rect fill="#E3E3E3" height="29.6406" rx="2.5" ry="2.5" style="stroke:#181818;stroke-width:0.5;" width="58" x="2019" y="50"/><text fill="#000000" font-family="sans-serif" font-size="14" lengthAdjust="spacing" textLength="44" x="2026" y="69.6738">:House</text><rect fill="#E3E3E3" height="29.6406" rx="2.5" ry="2.5" style="stroke:#181818;stroke-width:0.5;" width="58" x="2019" y="1893.7734"/><text fill="#000000" font-family="sans-serif" font-size="14" lengthAdjust="spacing" textLength="44" x="2026" y="1913.4473">:House</text><rect fill="#E3E3E3" height="29.6406" rx="2.5" ry="2.5" style="stroke:#181818;stroke-width:0.5;" width="181" x="2087" y="50"/><text fill="#000000" font-family="sans-serif" font-size="14" lengthAdjust="spacing" textLength="167" x="2094" y="69.6738">:AnnouncementRepository</text><rect fill="#E3E3E3" height="29.6406" rx="2.5" ry="2.5" style="stroke:#181818;stroke-width:0.5;" width="181" x="2087" y="1893.7734"/><text fill="#000000" font-family="sans-serif" font-size="14" lengthAdjust="spacing" textLength="167" x="2094" y="1913.4473">:AnnouncementRepository</text><rect fill="#E3E3E3" height="29.6406" rx="2.5" ry="2.5" style="stroke:#181818;stroke-width:0.5;" width="136" x="2278" y="50"/><text fill="#000000" font-family="sans-serif" font-size="14" lengthAdjust="spacing" textLength="122" x="2285" y="69.6738">PropertyRepository</text><rect fill="#E3E3E3" height="29.6406" rx="2.5" ry="2.5" style="stroke:#181818;stroke-width:0.5;" width="136" x="2278" y="1893.7734"/><text fill="#000000" font-family="sans-serif" font-size="14" lengthAdjust="spacing" textLength="122" x="2285" y="1913.4473">PropertyRepository</text><rect fill="#FFFFFF" height="445.8516" style="stroke:#181818;stroke-width:1.0;" width="10" x="36.5" y="90.6406"/><rect fill="#FFFFFF" height="30" style="stroke:#181818;stroke-width:1.0;" width="10" x="36.5" y="588.5391"/><rect fill="#FFFFFF" height="30" style="stroke:#181818;stroke-width:1.0;" width="10" x="36.5" y="935.1094"/><rect fill="#FFFFFF" height="30" style="stroke:#181818;stroke-width:1.0;" width="10" x="36.5" y="1382.1797"/><rect fill="#FFFFFF" height="445.8516" style="stroke:#181818;stroke-width:1.0;" width="10" x="694.5" y="90.6406"/><rect fill="#FFFFFF" height="73.0469" style="stroke:#181818;stroke-width:1.0;" width="10" x="694.5" y="588.5391"/><rect fill="#FFFFFF" height="87.5703" style="stroke:#181818;stroke-width:1.0;" width="10" x="694.5" y="935.1094"/><rect fill="#FFFFFF" height="73.0469" style="stroke:#181818;stroke-width:1.0;" width="10" x="694.5" y="1382.1797"/><rect fill="#FFFFFF" height="171.1406" style="stroke:#181818;stroke-width:1.0;" width="10" x="1219.5" y="139.6875"/><rect fill="#FFFFFF" height="114.3828" style="stroke:#181818;stroke-width:1.0;" width="10" x="1219.5" y="661.5859"/><rect fill="#FFFFFF" height="28.5234" style="stroke:#181818;stroke-width:1.0;" width="10" x="1219.5" y="833.0156"/><rect fill="#FFFFFF" height="171.8359" style="stroke:#181818;stroke-width:1.0;" width="10" x="1219.5" y="1022.6797"/><rect fill="#FFFFFF" height="28.5234" style="stroke:#181818;stroke-width:1.0;" width="10" x="1219.5" y="1280.0859"/><rect fill="#FFFFFF" height="186.3594" style="stroke:#181818;stroke-width:1.0;" width="10" x="1219.5" y="1455.2266"/><rect fill="#FFFFFF" height="28.5234" style="stroke:#181818;stroke-width:1.0;" width="10" x="1219.5" y="1727.1563"/><rect fill="#FFFFFF" height="28.5234" style="stroke:#181818;stroke-width:1.0;" width="10" x="1219.5" y="1819.7266"/><rect fill="#FFFFFF" height="28.5234" style="stroke:#181818;stroke-width:1.0;" width="10" x="1424" y="168.2109"/><rect fill="#FFFFFF" height="28.5234" style="stroke:#181818;stroke-width:1.0;" width="10" x="1593.5" y="225.2578"/><rect fill="#FFFFFF" height="28.5234" style="stroke:#181818;stroke-width:1.0;" width="10" x="1713.5" y="804.4922"/><rect fill="#FFFFFF" height="28.5234" style="stroke:#181818;stroke-width:1.0;" width="10" x="1713.5" y="1251.5625"/><rect fill="#FFFFFF" height="28.5234" style="stroke:#181818;stroke-width:1.0;" width="10" x="1713.5" y="1698.6328"/><rect fill="#FFFFFF" height="28.5234" style="stroke:#181818;stroke-width:1.0;" width="10" x="1792.5" y="775.9688"/><rect fill="#FFFFFF" height="28.5234" style="stroke:#181818;stroke-width:1.0;" width="10" x="1861.5" y="1223.0391"/><rect fill="#FFFFFF" height="28.5234" style="stroke:#181818;stroke-width:1.0;" width="10" x="1861.5" y="1670.1094"/><rect fill="#FFFFFF" height="28.5234" style="stroke:#181818;stroke-width:1.0;" width="10" x="1962.5" y="1194.5156"/><rect fill="#FFFFFF" height="28.5234" style="stroke:#181818;stroke-width:1.0;" width="10" x="2043" y="1641.5859"/><rect fill="#FFFFFF" height="28.5234" style="stroke:#181818;stroke-width:1.0;" width="10" x="2341" y="1791.2031"/><polygon fill="#181818" points="682.5,107.1641,692.5,111.1641,682.5,115.1641,686.5,111.1641" style="stroke:#181818;stroke-width:1.0;"/><line style="stroke:#181818;stroke-width:1.0;" x1="46.5" x2="688.5" y1="111.1641" y2="111.1641"/><text fill="#000000" font-family="sans-serif" font-size="13" font-weight="bold" lengthAdjust="spacing" textLength="7" x="53.5" y="106.4092">1</text><text fill="#000000" font-family="sans-serif" font-size="13" lengthAdjust="spacing" textLength="199" x="64.5" y="106.4092">asks to create new announcement</text><polygon fill="#181818" points="1207.5,135.6875,1217.5,139.6875,1207.5,143.6875,1211.5,139.6875" style="stroke:#181818;stroke-width:1.0;"/><line style="stroke:#181818;stroke-width:1.0;" x1="704.5" x2="1213.5" y1="139.6875" y2="139.6875"/><text fill="#000000" font-family="sans-serif" font-size="13" font-weight="bold" lengthAdjust="spacing" textLength="7" x="711.5" y="134.9326">2</text><text fill="#000000" font-family="sans-serif" font-size="13" lengthAdjust="spacing" textLength="188" x="722.5" y="134.9326">CreateAnnouncementController()</text><polygon fill="#181818" points="1412,164.2109,1422,168.2109,1412,172.2109,1416,168.2109" style="stroke:#181818;stroke-width:1.0;"/><line style="stroke:#181818;stroke-width:1.0;" x1="1229.5" x2="1418" y1="168.2109" y2="168.2109"/><text fill="#000000" font-family="sans-serif" font-size="13" font-weight="bold" lengthAdjust="spacing" textLength="7" x="1236.5" y="163.4561">3</text><text fill="#000000" font-family="sans-serif" font-size="13" lengthAdjust="spacing" textLength="110" x="1247.5" y="163.4561">getPropertyTypes()</text><polygon fill="#181818" points="1240.5,192.7344,1230.5,196.7344,1240.5,200.7344,1236.5,196.7344" style="stroke:#181818;stroke-width:1.0;"/><line style="stroke:#181818;stroke-width:1.0;" x1="1234.5" x2="1428" y1="196.7344" y2="196.7344"/><text fill="#000000" font-family="sans-serif" font-size="13" font-weight="bold" lengthAdjust="spacing" textLength="7" x="1246.5" y="191.9795">4</text><text fill="#000000" font-family="sans-serif" font-size="13" lengthAdjust="spacing" textLength="82" x="1257.5" y="191.9795">propertyTypes</text><polygon fill="#181818" points="1581.5,221.2578,1591.5,225.2578,1581.5,229.2578,1585.5,225.2578" style="stroke:#181818;stroke-width:1.0;"/><line style="stroke:#181818;stroke-width:1.0;" x1="1229.5" x2="1587.5" y1="225.2578" y2="225.2578"/><text fill="#000000" font-family="sans-serif" font-size="13" font-weight="bold" lengthAdjust="spacing" textLength="7" x="1236.5" y="220.5029">5</text><text fill="#000000" font-family="sans-serif" font-size="13" lengthAdjust="spacing" textLength="122" x="1247.5" y="220.5029">getComissionTypes()</text><polygon fill="#181818" points="1240.5,249.7813,1230.5,253.7813,1240.5,257.7813,1236.5,253.7813" style="stroke:#181818;stroke-width:1.0;"/><line style="stroke:#181818;stroke-width:1.0;" x1="1234.5" x2="1597.5" y1="253.7813" y2="253.7813"/><text fill="#000000" font-family="sans-serif" font-size="13" font-weight="bold" lengthAdjust="spacing" textLength="7" x="1246.5" y="249.0264">6</text><text fill="#000000" font-family="sans-serif" font-size="13" lengthAdjust="spacing" textLength="94" x="1257.5" y="249.0264">comissionTypes</text><polygon fill="#181818" points="715.5,278.3047,705.5,282.3047,715.5,286.3047,711.5,282.3047" style="stroke:#181818;stroke-width:1.0;"/><line style="stroke:#181818;stroke-width:1.0;" x1="709.5" x2="1218.5" y1="282.3047" y2="282.3047"/><text fill="#000000" font-family="sans-serif" font-size="13" font-weight="bold" lengthAdjust="spacing" textLength="7" x="721.5" y="277.5498">7</text><text fill="#000000" font-family="sans-serif" font-size="13" lengthAdjust="spacing" textLength="82" x="732.5" y="277.5498">propertyTypes</text><polygon fill="#181818" points="715.5,306.8281,705.5,310.8281,715.5,314.8281,711.5,310.8281" style="stroke:#181818;stroke-width:1.0;"/><line style="stroke:#181818;stroke-width:1.0;" x1="709.5" x2="1223.5" y1="310.8281" y2="310.8281"/><text fill="#000000" font-family="sans-serif" font-size="13" font-weight="bold" lengthAdjust="spacing" textLength="7" x="721.5" y="306.0732">8</text><text fill="#000000" font-family="sans-serif" font-size="13" lengthAdjust="spacing" textLength="94" x="732.5" y="306.0732">comissionTypes</text><polygon fill="#181818" points="57.5,335.3516,47.5,339.3516,57.5,343.3516,53.5,339.3516" style="stroke:#181818;stroke-width:1.0;"/><line style="stroke:#181818;stroke-width:1.0;" x1="51.5" x2="693.5" y1="339.3516" y2="339.3516"/><text fill="#000000" font-family="sans-serif" font-size="13" font-weight="bold" lengthAdjust="spacing" textLength="7" x="63.5" y="334.5967">9</text><text fill="#000000" font-family="sans-serif" font-size="13" lengthAdjust="spacing" textLength="124" x="74.5" y="334.5967">shows property types</text><polygon fill="#181818" points="682.5,363.875,692.5,367.875,682.5,371.875,686.5,367.875" style="stroke:#181818;stroke-width:1.0;"/><line style="stroke:#181818;stroke-width:1.0;" x1="46.5" x2="688.5" y1="367.875" y2="367.875"/><text fill="#000000" font-family="sans-serif" font-size="13" font-weight="bold" lengthAdjust="spacing" textLength="14" x="53.5" y="363.1201">10</text><text fill="#000000" font-family="sans-serif" font-size="13" lengthAdjust="spacing" textLength="133" x="71.5" y="363.1201">selects a property type</text><line style="stroke:#181818;stroke-width:1.0;" x1="704.5" x2="746.5" y1="396.3984" y2="396.3984"/><line style="stroke:#181818;stroke-width:1.0;" x1="746.5" x2="746.5" y1="396.3984" y2="409.3984"/><line style="stroke:#181818;stroke-width:1.0;" x1="705.5" x2="746.5" y1="409.3984" y2="409.3984"/><polygon fill="#181818" points="715.5,405.3984,705.5,409.3984,715.5,413.3984,711.5,409.3984" style="stroke:#181818;stroke-width:1.0;"/><text fill="#000000" font-family="sans-serif" font-size="13" font-weight="bold" lengthAdjust="spacing" textLength="14" x="711.5" y="391.6436">11</text><text fill="#000000" font-family="sans-serif" font-size="13" lengthAdjust="spacing" textLength="113" x="729.5" y="391.6436">keepPropertyType()</text><polygon fill="#181818" points="57.5,433.9219,47.5,437.9219,57.5,441.9219,53.5,437.9219" style="stroke:#181818;stroke-width:1.0;"/><line style="stroke:#181818;stroke-width:1.0;" x1="51.5" x2="693.5" y1="437.9219" y2="437.9219"/><text fill="#000000" font-family="sans-serif" font-size="13" font-weight="bold" lengthAdjust="spacing" textLength="14" x="63.5" y="433.167">12</text><text fill="#000000" font-family="sans-serif" font-size="13" lengthAdjust="spacing" textLength="136" x="81.5" y="433.167">shows comission types</text><polygon fill="#181818" points="682.5,462.4453,692.5,466.4453,682.5,470.4453,686.5,466.4453" style="stroke:#181818;stroke-width:1.0;"/><line style="stroke:#181818;stroke-width:1.0;" x1="46.5" x2="688.5" y1="466.4453" y2="466.4453"/><text fill="#000000" font-family="sans-serif" font-size="13" font-weight="bold" lengthAdjust="spacing" textLength="14" x="53.5" y="461.6904">13</text><text fill="#000000" font-family="sans-serif" font-size="13" lengthAdjust="spacing" textLength="145" x="71.5" y="461.6904">selects a comission type</text><line style="stroke:#181818;stroke-width:1.0;" x1="704.5" x2="746.5" y1="494.9688" y2="494.9688"/><line style="stroke:#181818;stroke-width:1.0;" x1="746.5" x2="746.5" y1="494.9688" y2="507.9688"/><line style="stroke:#181818;stroke-width:1.0;" x1="705.5" x2="746.5" y1="507.9688" y2="507.9688"/><polygon fill="#181818" points="715.5,503.9688,705.5,507.9688,715.5,511.9688,711.5,507.9688" style="stroke:#181818;stroke-width:1.0;"/><text fill="#000000" font-family="sans-serif" font-size="13" font-weight="bold" lengthAdjust="spacing" textLength="14" x="711.5" y="490.2139">14</text><text fill="#000000" font-family="sans-serif" font-size="13" lengthAdjust="spacing" textLength="97" x="729.5" y="490.2139">keepComission()</text><polygon fill="#181818" points="52.5,532.4922,42.5,536.4922,52.5,540.4922,48.5,536.4922" style="stroke:#181818;stroke-width:1.0;"/><line style="stroke:#181818;stroke-width:1.0;" x1="46.5" x2="698.5" y1="536.4922" y2="536.4922"/><text fill="#000000" font-family="sans-serif" font-size="13" font-weight="bold" lengthAdjust="spacing" textLength="14" x="58.5" y="531.7373">15</text><text fill="#000000" font-family="sans-serif" font-size="13" lengthAdjust="spacing" textLength="81" x="76.5" y="531.7373">requests Data</text><path d="M10,551.4922 L71,551.4922 L71,558.0156 L61,568.0156 L10,568.0156 L10,551.4922 " fill="#EEEEEE" style="stroke:#000000;stroke-width:1.5;"/><rect fill="none" height="318.0469" style="stroke:#000000;stroke-width:1.5;" width="2268" x="10" y="551.4922"/><text fill="#000000" font-family="sans-serif" font-size="13" font-weight="bold" lengthAdjust="spacing" textLength="16" x="25" y="564.2607">alt</text><text fill="#000000" font-family="sans-serif" font-size="11" font-weight="bold" lengthAdjust="spacing" textLength="136" x="86" y="563.4502">[if propertyType is Land]</text><polygon fill="#181818" points="682.5,584.5391,692.5,588.5391,682.5,592.5391,686.5,588.5391" style="stroke:#181818;stroke-width:1.0;"/><line style="stroke:#181818;stroke-width:1.0;" x1="46.5" x2="688.5" y1="588.5391" y2="588.5391"/><text fill="#000000" font-family="sans-serif" font-size="13" font-weight="bold" lengthAdjust="spacing" textLength="14" x="53.5" y="583.7842">16</text><text fill="#000000" font-family="sans-serif" font-size="13" lengthAdjust="spacing" textLength="481" x="71.5" y="583.7842">inputs requested data(area, distanceFromCentre, photoURI, street, city, comission)</text><polygon fill="#181818" points="1207.5,657.5859,1217.5,661.5859,1207.5,665.5859,1211.5,661.5859" style="stroke:#181818;stroke-width:1.0;"/><line style="stroke:#181818;stroke-width:1.0;" x1="699.5" x2="1213.5" y1="661.5859" y2="661.5859"/><text fill="#000000" font-family="sans-serif" font-size="13" font-weight="bold" lengthAdjust="spacing" textLength="14" x="706.5" y="649.5693">17</text><text fill="#000000" font-family="sans-serif" font-size="13" lengthAdjust="spacing" textLength="353" x="724.5" y="642.3076">createLand(area, distanceFromCentre, photoURI, street, city,</text><text fill="#000000" font-family="sans-serif" font-size="13" lengthAdjust="spacing" textLength="202" x="728.5" y="656.8311">district, state, zipCode, comission)</text><rect fill="none" height="37.9297" style="stroke:#000000;stroke-width:1.5;" width="224" x="1112.5" y="669.5859"/><path d="M1112.5,669.5859 L1174.5,669.5859 L1174.5,675.5859 L1164.5,685.5859 L1112.5,685.5859 L1112.5,669.5859 " fill="#EEEEEE" style="stroke:#000000;stroke-width:2.0;"/><text fill="#000000" font-family="sans-serif" font-size="13" font-weight="bold" lengthAdjust="spacing" textLength="17" x="1125.5" y="683.3545">ref</text><text fill="#000000" font-family="sans-serif" font-size="12" lengthAdjust="spacing" textLength="58" x="1195.5" y="700.4492">get photos</text><rect fill="none" height="37.9297" style="stroke:#000000;stroke-width:1.5;" width="224" x="1112.5" y="712.5156"/><path d="M1112.5,712.5156 L1174.5,712.5156 L1174.5,718.5156 L1164.5,728.5156 L1112.5,728.5156 L1112.5,712.5156 " fill="#EEEEEE" style="stroke:#000000;stroke-width:2.0;"/><text fill="#000000" font-family="sans-serif" font-size="13" font-weight="bold" lengthAdjust="spacing" textLength="17" x="1125.5" y="726.2842">ref</text><text fill="#000000" font-family="sans-serif" font-size="12" lengthAdjust="spacing" textLength="66" x="1191.5" y="743.3789">get address</text><polygon fill="#181818" points="1780.5,771.9688,1790.5,775.9688,1780.5,779.9688,1784.5,775.9688" style="stroke:#181818;stroke-width:1.0;"/><line style="stroke:#181818;stroke-width:1.0;" x1="1224.5" x2="1786.5" y1="775.9688" y2="775.9688"/><text fill="#000000" font-family="sans-serif" font-size="13" font-weight="bold" lengthAdjust="spacing" textLength="14" x="1231.5" y="771.2139">18</text><text fill="#000000" font-family="sans-serif" font-size="13" lengthAdjust="spacing" textLength="396" x="1249.5" y="771.2139">createLand(photoList, area, distanceFromCentre,address,comission)</text><polygon fill="#181818" points="1734.5,800.4922,1724.5,804.4922,1734.5,808.4922,1730.5,804.4922" style="stroke:#181818;stroke-width:1.0;"/><line style="stroke:#181818;stroke-width:1.0;" x1="1728.5" x2="1796.5" y1="804.4922" y2="804.4922"/><text fill="#000000" font-family="sans-serif" font-size="13" font-weight="bold" lengthAdjust="spacing" textLength="14" x="1740.5" y="799.7373">19</text><text fill="#000000" font-family="sans-serif" font-size="13" lengthAdjust="spacing" textLength="32" x="1758.5" y="799.7373">super</text><polygon fill="#181818" points="1240.5,829.0156,1230.5,833.0156,1240.5,837.0156,1236.5,833.0156" style="stroke:#181818;stroke-width:1.0;"/><line style="stroke:#181818;stroke-width:1.0;" x1="1234.5" x2="1717.5" y1="833.0156" y2="833.0156"/><text fill="#000000" font-family="sans-serif" font-size="13" font-weight="bold" lengthAdjust="spacing" textLength="14" x="1246.5" y="828.2607">20</text><text fill="#000000" font-family="sans-serif" font-size="13" lengthAdjust="spacing" textLength="162" x="1264.5" y="828.2607">getPropertyDetails(property)</text><polygon fill="#181818" points="2165.5,857.5391,2175.5,861.5391,2165.5,865.5391,2169.5,861.5391" style="stroke:#181818;stroke-width:1.0;"/><line style="stroke:#181818;stroke-width:1.0;" x1="1224.5" x2="2171.5" y1="861.5391" y2="861.5391"/><text fill="#000000" font-family="sans-serif" font-size="13" font-weight="bold" lengthAdjust="spacing" textLength="14" x="1231.5" y="856.7842">21</text><text fill="#000000" font-family="sans-serif" font-size="13" lengthAdjust="spacing" textLength="87" x="1249.5" y="856.7842">propertyDetails</text><path d="M10,883.5391 L71,883.5391 L71,890.0625 L61,900.0625 L10,900.0625 L10,883.5391 " fill="#EEEEEE" style="stroke:#000000;stroke-width:1.5;"/><rect fill="none" height="433.0703" style="stroke:#000000;stroke-width:1.5;" width="2268" x="10" y="883.5391"/><text fill="#000000" font-family="sans-serif" font-size="13" font-weight="bold" lengthAdjust="spacing" textLength="16" x="25" y="896.3076">alt</text><text fill="#000000" font-family="sans-serif" font-size="11" font-weight="bold" lengthAdjust="spacing" textLength="168" x="86" y="895.4971">[if propertyType is Apartment]</text><polygon fill="#181818" points="682.5,931.1094,692.5,935.1094,682.5,939.1094,686.5,935.1094" style="stroke:#181818;stroke-width:1.0;"/><line style="stroke:#181818;stroke-width:1.0;" x1="46.5" x2="688.5" y1="935.1094" y2="935.1094"/><text fill="#000000" font-family="sans-serif" font-size="13" font-weight="bold" lengthAdjust="spacing" textLength="14" x="53.5" y="923.0928">22</text><text fill="#000000" font-family="sans-serif" font-size="13" lengthAdjust="spacing" textLength="612" x="71.5" y="915.8311">inputs requested data(area, distanceFromCentre, equipmentList,transaction, photoURI, street, city,</text><text fill="#000000" font-family="sans-serif" font-size="13" lengthAdjust="spacing" textLength="436" x="75.5" y="930.3545">district, state, zipCode, type of transaction, value of transaction, comission)</text><polygon fill="#181818" points="1207.5,1018.6797,1217.5,1022.6797,1207.5,1026.6797,1211.5,1022.6797" style="stroke:#181818;stroke-width:1.0;"/><line style="stroke:#181818;stroke-width:1.0;" x1="699.5" x2="1213.5" y1="1022.6797" y2="1022.6797"/><text fill="#000000" font-family="sans-serif" font-size="13" font-weight="bold" lengthAdjust="spacing" textLength="14" x="706.5" y="1003.4014">23</text><text fill="#000000" font-family="sans-serif" font-size="13" lengthAdjust="spacing" textLength="474" x="724.5" y="988.8779">createApartment(area, distanceFromCentre, equipmentList, photoURI, street, city,</text><text fill="#000000" font-family="sans-serif" font-size="13" lengthAdjust="spacing" textLength="330" x="728.5" y="1003.4014">district, state, zipCode, transactionType, monetaryValue,</text><text fill="#000000" font-family="sans-serif" font-size="13" lengthAdjust="spacing" textLength="419" x="728.5" y="1017.9248">comissionType, comissionValue, bedrooms, bathrooms, parkingSpaces)</text><rect fill="none" height="37.9297" style="stroke:#000000;stroke-width:1.5;" width="224" x="1112.5" y="1030.6797"/><path d="M1112.5,1030.6797 L1174.5,1030.6797 L1174.5,1036.6797 L1164.5,1046.6797 L1112.5,1046.6797 L1112.5,1030.6797 " fill="#EEEEEE" style="stroke:#000000;stroke-width:2.0;"/><text fill="#000000" font-family="sans-serif" font-size="13" font-weight="bold" lengthAdjust="spacing" textLength="17" x="1125.5" y="1044.4482">ref</text><text fill="#000000" font-family="sans-serif" font-size="12" lengthAdjust="spacing" textLength="58" x="1195.5" y="1061.543">get photos</text><rect fill="none" height="37.9297" style="stroke:#000000;stroke-width:1.5;" width="224" x="1112.5" y="1073.6094"/><path d="M1112.5,1073.6094 L1174.5,1073.6094 L1174.5,1079.6094 L1164.5,1089.6094 L1112.5,1089.6094 L1112.5,1073.6094 " fill="#EEEEEE" style="stroke:#000000;stroke-width:2.0;"/><text fill="#000000" font-family="sans-serif" font-size="13" font-weight="bold" lengthAdjust="spacing" textLength="17" x="1125.5" y="1087.3779">ref</text><text fill="#000000" font-family="sans-serif" font-size="12" lengthAdjust="spacing" textLength="66" x="1191.5" y="1104.4727">get address</text><rect fill="none" height="37.9297" style="stroke:#000000;stroke-width:1.5;" width="224" x="1112.5" y="1116.5391"/><path d="M1112.5,1116.5391 L1174.5,1116.5391 L1174.5,1122.5391 L1164.5,1132.5391 L1112.5,1132.5391 L1112.5,1116.5391 " fill="#EEEEEE" style="stroke:#000000;stroke-width:2.0;"/><text fill="#000000" font-family="sans-serif" font-size="13" font-weight="bold" lengthAdjust="spacing" textLength="17" x="1125.5" y="1130.3076">ref</text><text fill="#000000" font-family="sans-serif" font-size="12" lengthAdjust="spacing" textLength="97" x="1176" y="1147.4023">getEquipmentList</text><polygon fill="#181818" points="1950.5,1190.5156,1960.5,1194.5156,1950.5,1198.5156,1954.5,1194.5156" style="stroke:#181818;stroke-width:1.0;"/><line style="stroke:#181818;stroke-width:1.0;" x1="1224.5" x2="1956.5" y1="1194.5156" y2="1194.5156"/><text fill="#000000" font-family="sans-serif" font-size="13" font-weight="bold" lengthAdjust="spacing" textLength="14" x="1231.5" y="1182.499">24</text><text fill="#000000" font-family="sans-serif" font-size="13" lengthAdjust="spacing" textLength="692" x="1249.5" y="1175.2373">createApartment(area, distanceFromCentre, equipmentList, photoList, address, type of transaction, value of transaction,</text><text fill="#000000" font-family="sans-serif" font-size="13" lengthAdjust="spacing" textLength="531" x="1253.5" y="1189.7607">type of comission, comission amount, propertyType, bedrooms, bathrooms, parkingSpaces)</text><polygon fill="#181818" points="1882.5,1219.0391,1872.5,1223.0391,1882.5,1227.0391,1878.5,1223.0391" style="stroke:#181818;stroke-width:1.0;"/><line style="stroke:#181818;stroke-width:1.0;" x1="1876.5" x2="1966.5" y1="1223.0391" y2="1223.0391"/><text fill="#000000" font-family="sans-serif" font-size="13" font-weight="bold" lengthAdjust="spacing" textLength="14" x="1888.5" y="1218.2842">25</text><text fill="#000000" font-family="sans-serif" font-size="13" lengthAdjust="spacing" textLength="32" x="1906.5" y="1218.2842">super</text><polygon fill="#181818" points="1734.5,1247.5625,1724.5,1251.5625,1734.5,1255.5625,1730.5,1251.5625" style="stroke:#181818;stroke-width:1.0;"/><line style="stroke:#181818;stroke-width:1.0;" x1="1728.5" x2="1865.5" y1="1251.5625" y2="1251.5625"/><text fill="#000000" font-family="sans-serif" font-size="13" font-weight="bold" lengthAdjust="spacing" textLength="14" x="1740.5" y="1246.8076">26</text><text fill="#000000" font-family="sans-serif" font-size="13" lengthAdjust="spacing" textLength="32" x="1758.5" y="1246.8076">super</text><polygon fill="#181818" points="1240.5,1276.0859,1230.5,1280.0859,1240.5,1284.0859,1236.5,1280.0859" style="stroke:#181818;stroke-width:1.0;"/><line style="stroke:#181818;stroke-width:1.0;" x1="1234.5" x2="1717.5" y1="1280.0859" y2="1280.0859"/><text fill="#000000" font-family="sans-serif" font-size="13" font-weight="bold" lengthAdjust="spacing" textLength="14" x="1246.5" y="1275.3311">27</text><text fill="#000000" font-family="sans-serif" font-size="13" lengthAdjust="spacing" textLength="162" x="1264.5" y="1275.3311">getPropertyDetails(property)</text><polygon fill="#181818" points="2165.5,1304.6094,2175.5,1308.6094,2165.5,1312.6094,2169.5,1308.6094" style="stroke:#181818;stroke-width:1.0;"/><line style="stroke:#181818;stroke-width:1.0;" x1="1224.5" x2="2171.5" y1="1308.6094" y2="1308.6094"/><text fill="#000000" font-family="sans-serif" font-size="13" font-weight="bold" lengthAdjust="spacing" textLength="14" x="1231.5" y="1303.8545">28</text><text fill="#000000" font-family="sans-serif" font-size="13" lengthAdjust="spacing" textLength="87" x="1249.5" y="1303.8545">propertyDetails</text><path d="M10,1330.6094 L71,1330.6094 L71,1337.1328 L61,1347.1328 L10,1347.1328 L10,1330.6094 " fill="#EEEEEE" style="stroke:#000000;stroke-width:1.5;"/><rect fill="none" height="433.0703" style="stroke:#000000;stroke-width:1.5;" width="2268" x="10" y="1330.6094"/><text fill="#000000" font-family="sans-serif" font-size="13" font-weight="bold" lengthAdjust="spacing" textLength="16" x="25" y="1343.3779">alt</text><text fill="#000000" font-family="sans-serif" font-size="11" font-weight="bold" lengthAdjust="spacing" textLength="144" x="86" y="1342.5674">[if propertyType is House]</text><polygon fill="#181818" points="682.5,1378.1797,692.5,1382.1797,682.5,1386.1797,686.5,1382.1797" style="stroke:#181818;stroke-width:1.0;"/><line style="stroke:#181818;stroke-width:1.0;" x1="46.5" x2="688.5" y1="1382.1797" y2="1382.1797"/><text fill="#000000" font-family="sans-serif" font-size="13" font-weight="bold" lengthAdjust="spacing" textLength="14" x="53.5" y="1370.1631">29</text><text fill="#000000" font-family="sans-serif" font-size="13" lengthAdjust="spacing" textLength="503" x="71.5" y="1362.9014">inputs requested data(area, distanceFromCentre, equipmentList, photoURI, street, city,</text><text fill="#000000" font-family="sans-serif" font-size="13" lengthAdjust="spacing" textLength="436" x="75.5" y="1377.4248">district, state, zipCode, type of transaction, value of transaction, comission)</text><polygon fill="#181818" points="1207.5,1451.2266,1217.5,1455.2266,1207.5,1459.2266,1211.5,1455.2266" style="stroke:#181818;stroke-width:1.0;"/><line style="stroke:#181818;stroke-width:1.0;" x1="699.5" x2="1213.5" y1="1455.2266" y2="1455.2266"/><text fill="#000000" font-family="sans-serif" font-size="13" font-weight="bold" lengthAdjust="spacing" textLength="14" x="706.5" y="1443.21">30</text><text fill="#000000" font-family="sans-serif" font-size="13" lengthAdjust="spacing" textLength="451" x="724.5" y="1435.9482">createHouse(area, distanceFromCentre, equipmentList, photoURI, street, city,</text><text fill="#000000" font-family="sans-serif" font-size="13" lengthAdjust="spacing" textLength="436" x="728.5" y="1450.4717">district, state, zipCode, type of transaction, value of transaction, comission)</text><rect fill="none" height="37.9297" style="stroke:#000000;stroke-width:1.5;" width="224" x="1112.5" y="1463.2266"/><path d="M1112.5,1463.2266 L1174.5,1463.2266 L1174.5,1469.2266 L1164.5,1479.2266 L1112.5,1479.2266 L1112.5,1463.2266 " fill="#EEEEEE" style="stroke:#000000;stroke-width:2.0;"/><text fill="#000000" font-family="sans-serif" font-size="13" font-weight="bold" lengthAdjust="spacing" textLength="17" x="1125.5" y="1476.9951">ref</text><text fill="#000000" font-family="sans-serif" font-size="12" lengthAdjust="spacing" textLength="58" x="1195.5" y="1494.0898">get photos</text><rect fill="none" height="37.9297" style="stroke:#000000;stroke-width:1.5;" width="224" x="1112.5" y="1506.1563"/><path d="M1112.5,1506.1563 L1174.5,1506.1563 L1174.5,1512.1563 L1164.5,1522.1563 L1112.5,1522.1563 L1112.5,1506.1563 " fill="#EEEEEE" style="stroke:#000000;stroke-width:2.0;"/><text fill="#000000" font-family="sans-serif" font-size="13" font-weight="bold" lengthAdjust="spacing" textLength="17" x="1125.5" y="1519.9248">ref</text><text fill="#000000" font-family="sans-serif" font-size="12" lengthAdjust="spacing" textLength="66" x="1191.5" y="1537.0195">get address</text><rect fill="none" height="37.9297" style="stroke:#000000;stroke-width:1.5;" width="224" x="1112.5" y="1549.0859"/><path d="M1112.5,1549.0859 L1174.5,1549.0859 L1174.5,1555.0859 L1164.5,1565.0859 L1112.5,1565.0859 L1112.5,1549.0859 " fill="#EEEEEE" style="stroke:#000000;stroke-width:2.0;"/><text fill="#000000" font-family="sans-serif" font-size="13" font-weight="bold" lengthAdjust="spacing" textLength="17" x="1125.5" y="1562.8545">ref</text><text fill="#000000" font-family="sans-serif" font-size="12" lengthAdjust="spacing" textLength="97" x="1176" y="1579.9492">getEquipmentList</text><polygon fill="#181818" points="2031,1637.5859,2041,1641.5859,2031,1645.5859,2035,1641.5859" style="stroke:#181818;stroke-width:1.0;"/><line style="stroke:#181818;stroke-width:1.0;" x1="1224.5" x2="2037" y1="1641.5859" y2="1641.5859"/><text fill="#000000" font-family="sans-serif" font-size="13" font-weight="bold" lengthAdjust="spacing" textLength="14" x="1231.5" y="1622.3076">31</text><text fill="#000000" font-family="sans-serif" font-size="13" lengthAdjust="spacing" textLength="498" x="1249.5" y="1607.7842">createHouse(area, distanceFromCentre, equipmentList, photoList, address,comission,</text><text fill="#000000" font-family="sans-serif" font-size="13" lengthAdjust="spacing" textLength="307" x="1253.5" y="1622.3076">propertyType, bedrooms, bathrooms, parkingSpaces,</text><text fill="#000000" font-family="sans-serif" font-size="13" lengthAdjust="spacing" textLength="170" x="1253.5" y="1636.8311">basement, loft, sunExposure)</text><polygon fill="#181818" points="1882.5,1666.1094,1872.5,1670.1094,1882.5,1674.1094,1878.5,1670.1094" style="stroke:#181818;stroke-width:1.0;"/><line style="stroke:#181818;stroke-width:1.0;" x1="1876.5" x2="2047" y1="1670.1094" y2="1670.1094"/><text fill="#000000" font-family="sans-serif" font-size="13" font-weight="bold" lengthAdjust="spacing" textLength="14" x="1888.5" y="1665.3545">32</text><text fill="#000000" font-family="sans-serif" font-size="13" lengthAdjust="spacing" textLength="32" x="1906.5" y="1665.3545">super</text><polygon fill="#181818" points="1734.5,1694.6328,1724.5,1698.6328,1734.5,1702.6328,1730.5,1698.6328" style="stroke:#181818;stroke-width:1.0;"/><line style="stroke:#181818;stroke-width:1.0;" x1="1728.5" x2="1865.5" y1="1698.6328" y2="1698.6328"/><text fill="#000000" font-family="sans-serif" font-size="13" font-weight="bold" lengthAdjust="spacing" textLength="14" x="1740.5" y="1693.8779">33</text><text fill="#000000" font-family="sans-serif" font-size="13" lengthAdjust="spacing" textLength="32" x="1758.5" y="1693.8779">super</text><polygon fill="#181818" points="1240.5,1723.1563,1230.5,1727.1563,1240.5,1731.1563,1236.5,1727.1563" style="stroke:#181818;stroke-width:1.0;"/><line style="stroke:#181818;stroke-width:1.0;" x1="1234.5" x2="1717.5" y1="1727.1563" y2="1727.1563"/><text fill="#000000" font-family="sans-serif" font-size="13" font-weight="bold" lengthAdjust="spacing" textLength="14" x="1246.5" y="1722.4014">34</text><text fill="#000000" font-family="sans-serif" font-size="13" lengthAdjust="spacing" textLength="162" x="1264.5" y="1722.4014">getPropertyDetails(property)</text><polygon fill="#181818" points="2165.5,1751.6797,2175.5,1755.6797,2165.5,1759.6797,2169.5,1755.6797" style="stroke:#181818;stroke-width:1.0;"/><line style="stroke:#181818;stroke-width:1.0;" x1="1224.5" x2="2171.5" y1="1755.6797" y2="1755.6797"/><text fill="#000000" font-family="sans-serif" font-size="13" font-weight="bold" lengthAdjust="spacing" textLength="14" x="1231.5" y="1750.9248">35</text><text fill="#000000" font-family="sans-serif" font-size="13" lengthAdjust="spacing" textLength="87" x="1249.5" y="1750.9248">propertyDetails</text><polygon fill="#181818" points="2329,1787.2031,2339,1791.2031,2329,1795.2031,2333,1791.2031" style="stroke:#181818;stroke-width:1.0;"/><line style="stroke:#181818;stroke-width:1.0;" x1="1224.5" x2="2335" y1="1791.2031" y2="1791.2031"/><text fill="#000000" font-family="sans-serif" font-size="13" font-weight="bold" lengthAdjust="spacing" textLength="14" x="1231.5" y="1786.4482">36</text><text fill="#000000" font-family="sans-serif" font-size="13" lengthAdjust="spacing" textLength="185" x="1249.5" y="1786.4482">displayPropertyDetails(property)</text><polygon fill="#181818" points="1240.5,1815.7266,1230.5,1819.7266,1240.5,1823.7266,1236.5,1819.7266" style="stroke:#181818;stroke-width:1.0;"/><line style="stroke:#181818;stroke-width:1.0;stroke-dasharray:2.0,2.0;" x1="1234.5" x2="2345" y1="1819.7266" y2="1819.7266"/><text fill="#000000" font-family="sans-serif" font-size="13" font-weight="bold" lengthAdjust="spacing" textLength="14" x="1246.5" y="1814.9717">37</text><text fill="#000000" font-family="sans-serif" font-size="13" lengthAdjust="spacing" textLength="87" x="1264.5" y="1814.9717">propertyDetails</text><polygon fill="#181818" points="715.5,1844.25,705.5,1848.25,715.5,1852.25,711.5,1848.25" style="stroke:#181818;stroke-width:1.0;"/><line style="stroke:#181818;stroke-width:1.0;stroke-dasharray:2.0,2.0;" x1="709.5" x2="1223.5" y1="1848.25" y2="1848.25"/><text fill="#000000" font-family="sans-serif" font-size="13" font-weight="bold" lengthAdjust="spacing" textLength="14" x="721.5" y="1843.4951">38</text><text fill="#000000" font-family="sans-serif" font-size="13" lengthAdjust="spacing" textLength="80" x="739.5" y="1843.4951">ropertyDetails</text><polygon fill="#181818" points="52.5,1872.7734,42.5,1876.7734,52.5,1880.7734,48.5,1876.7734" style="stroke:#181818;stroke-width:1.0;"/><line style="stroke:#181818;stroke-width:1.0;stroke-dasharray:2.0,2.0;" x1="46.5" x2="693.5" y1="1876.7734" y2="1876.7734"/><text fill="#000000" font-family="sans-serif" font-size="13" font-weight="bold" lengthAdjust="spacing" textLength="14" x="58.5" y="1872.0186">39</text><text fill="#000000" font-family="sans-serif" font-size="13" lengthAdjust="spacing" textLength="158" x="76.5" y="1872.0186">displays success message</text><!--SRC=[rLZ1Rjms4BtpAmQ-r06K7_2XWEiag8403PAufrneQNPNi4Ig96Ld-_KTSIKj9P4KjLsWw1uCoHpEF0uVtvEaNqhHSCLhgAMG-K796i6e5faUHngUl_0zVZF72a5XRhZOLsw0Fl12lfLY3pjUQMICjqQAjdv6nTWlXx90s4bfdkLFndCZ5TpSxr6O6-0Qx1MZFARCouOB0pSF2hd1Uo5aAtAiQVpfqSO-FKu3xvQH3r8O9QiAbPrnlftDR9HiK9dZzsE3Nx6HkYHSnvjPL2xhKkjIYd38bpwHBJVSp68-Sr7OyUvYDlPRMrO5jSwE3pUpcFlkjXuxDjpDedwNhKOROQ_OF8dJ9MSvDgCpn5YtH-KhzRNV6yPWzXi3Q4FcOtOElF-Lnk2EahzeC19okr4Wy0suMsm-coRHrFEkKOhO7j- -Yu1pzXuyFwS8bGmoWX3iqNnn1ZLL3HODCyk78LnrtWKtJYzo5PW0WArrmCVsq_8VXf64zNlFp7BXtcBpLUUJkl5bU-kkBTgIDDvRpuGPB1O3vh0mmFRJYRaZ5PLlUWG3nejcUhmqLYJ76lXqMg2GdVA2sBXizXqX7wvnpHk1JUUj8Hk9vk7O59N2lrhKLE83Dpos0QHHpBdjDMqaRcMWt4qe06KlrE7baV6rLBh7W0KK1EAMar9bK9IQ33B7JsIb3pH9OGRDGHhvzFKn0qttQ3B8ItFCpisPhdO6Dh2mvM18bpsgUXBaRfaNmFuXRBWgSzCDKQ8C_YvfymeChccw8sk2FGbGk0FvIh3F0LbCtKcmJj2dB4NQqhMytboyA1JgPRAuKdIzXJkdpnRIP-fR1i6MzwMozIO6CC-8xs_qWjqMAs4UX07kTDk4Co_cZoFZ0n0BpHqZtF6nxfocZlL-GCFBIjyEH_NTjX9Ubh7mzhaF78v7z2WITkMSV4AyWE2S7-hWUh93SMNJ9RMiw_JtZzrtnONky4fnuG7lye3SqLk2a-cLL-tolm4QnmGEmbeTV_OCYjpOskHENTYNyygxNSswDofYYph-sVN6JfuyE3ZjwIEUiL1Irfgkk3dqbuIUNhJst-Wj3FNShCEgkbarKoGKedeAMyKrIMaXAhiNUCD7TwzPFFtgoyHCD0Qg3S9_AVTwc-ZTOCkH-o76w95U3jE0roHhNHb7WDAO1zkSA6f5ZW84X6_i9BLrU2tssT94B_ovnl7nzNewFgQVE234QmLohJdXgazTmmlNYwoxuJOxt4AE53iyVS7mIi0rBV4_Cy0K8qmqn9IFCd63jCt-__GiudbNyRuj7fZcXHTxuYPlZBsQNBKh4GFT1YZrKzrCYonV1uUzXBnJTtLiaYYyrHVjf6UkhJ9cKCbTn_vMVFpPIDqgN2VnskAZFhfePKGvJtrRyrDFsKZEfHzwmz8jDjrgaoqtsHMlQS6RYoPOyXMiUHl_lBAMJ5mlsg49vw-qX9aERbFnOxYteTmRZf6FAMSGqHLuCByFVQ3tVI1OuKC2Yd_Jy-5HQJl0BIqDMR7pyE5ylUqtN9C2v2IY6chwm_V8xEyV]--></g></svg>