<?xml version="1.0" encoding="us-ascii" standalone="no"?><svg xmlns="http://www.w3.org/2000/svg" xmlns:xlink="http://www.w3.org/1999/xlink" contentStyleType="text/css" height="476px" preserveAspectRatio="none" style="width:2110px;height:476px;background:#FFFFFF;" version="1.1" viewBox="0 0 2110 476" width="2110px" zoomAndPan="magnify"><defs/><g><text fill="#000000" font-family="sans-serif" font-size="14" font-weight="bold" lengthAdjust="spacing" textLength="388" x="860.25" y="30.1074">System Sequence Diagram (SSD) - Property type: House</text><rect fill="#FFFFFF" height="251.3281" style="stroke:#181818;stroke-width:1.0;" width="10" x="23.5" y="133.2422"/><rect fill="#FFFFFF" height="31.291" style="stroke:#181818;stroke-width:1.0;" width="10" x="2067.5" y="156.5332"/><rect fill="#FFFFFF" height="31.291" style="stroke:#181818;stroke-width:1.0;" width="10" x="2067.5" y="219.1152"/><rect fill="#FFFFFF" height="31.291" style="stroke:#181818;stroke-width:1.0;" width="10" x="2067.5" y="281.6973"/><rect fill="#FFFFFF" height="31.291" style="stroke:#181818;stroke-width:1.0;" width="10" x="2067.5" y="344.2793"/><line style="stroke:#181818;stroke-width:0.5;stroke-dasharray:5.0,5.0;" x1="28" x2="28" y1="123.2422" y2="393.5703"/><line style="stroke:#181818;stroke-width:0.5;stroke-dasharray:5.0,5.0;" x1="2072.5" x2="2072.5" y1="123.2422" y2="393.5703"/><text fill="#000000" font-family="sans-serif" font-size="14" lengthAdjust="spacing" textLength="41" x="5" y="119.7285">Owner</text><ellipse cx="28.5" cy="53.1211" fill="#E3E3E3" rx="8" ry="8" style="stroke:#181818;stroke-width:0.5;"/><path d="M28.5,61.1211 L28.5,88.1211 M15.5,69.1211 L41.5,69.1211 M28.5,88.1211 L15.5,103.1211 M28.5,88.1211 L41.5,103.1211 " fill="none" style="stroke:#181818;stroke-width:0.5;"/><text fill="#000000" font-family="sans-serif" font-size="14" lengthAdjust="spacing" textLength="41" x="5" y="407.6777">Owner</text><ellipse cx="28.5" cy="419.6914" fill="#E3E3E3" rx="8" ry="8" style="stroke:#181818;stroke-width:0.5;"/><path d="M28.5,427.6914 L28.5,454.6914 M15.5,435.6914 L41.5,435.6914 M28.5,454.6914 L15.5,469.6914 M28.5,454.6914 L41.5,469.6914 " fill="none" style="stroke:#181818;stroke-width:0.5;"/><rect fill="#E3E3E3" height="32.6211" rx="2.5" ry="2.5" style="stroke:#181818;stroke-width:0.5;" width="64" x="2040.5" y="89.6211"/><text fill="#000000" font-family="sans-serif" font-size="14" lengthAdjust="spacing" textLength="50" x="2047.5" y="111.7285">:System</text><rect fill="#E3E3E3" height="32.6211" rx="2.5" ry="2.5" style="stroke:#181818;stroke-width:0.5;" width="64" x="2040.5" y="392.5703"/><text fill="#000000" font-family="sans-serif" font-size="14" lengthAdjust="spacing" textLength="50" x="2047.5" y="414.6777">:System</text><rect fill="#FFFFFF" height="251.3281" style="stroke:#181818;stroke-width:1.0;" width="10" x="23.5" y="133.2422"/><rect fill="#FFFFFF" height="31.291" style="stroke:#181818;stroke-width:1.0;" width="10" x="2067.5" y="156.5332"/><rect fill="#FFFFFF" height="31.291" style="stroke:#181818;stroke-width:1.0;" width="10" x="2067.5" y="219.1152"/><rect fill="#FFFFFF" height="31.291" style="stroke:#181818;stroke-width:1.0;" width="10" x="2067.5" y="281.6973"/><rect fill="#FFFFFF" height="31.291" style="stroke:#181818;stroke-width:1.0;" width="10" x="2067.5" y="344.2793"/><polygon fill="#181818" points="2055.5,152.5332,2065.5,156.5332,2055.5,160.5332,2059.5,156.5332" style="stroke:#181818;stroke-width:1.0;"/><line style="stroke:#181818;stroke-width:1.0;" x1="33.5" x2="2061.5" y1="156.5332" y2="156.5332"/><text fill="#000000" font-family="sans-serif" font-size="13" font-weight="bold" lengthAdjust="spacing" textLength="7" x="40.5" y="151.2705">1</text><text fill="#000000" font-family="sans-serif" font-size="13" lengthAdjust="spacing" textLength="210" x="51.5" y="151.2705">asks to create a new property listing</text><polygon fill="#181818" points="44.5,183.8242,34.5,187.8242,44.5,191.8242,40.5,187.8242" style="stroke:#181818;stroke-width:1.0;"/><line style="stroke:#181818;stroke-width:1.0;stroke-dasharray:2.0,2.0;" x1="38.5" x2="2071.5" y1="187.8242" y2="187.8242"/><text fill="#000000" font-family="sans-serif" font-size="13" font-weight="bold" lengthAdjust="spacing" textLength="7" x="50.5" y="182.5615">2</text><text fill="#000000" font-family="sans-serif" font-size="13" lengthAdjust="spacing" textLength="186" x="61.5" y="182.5615">requests the owner's information</text><polygon fill="#181818" points="2055.5,215.1152,2065.5,219.1152,2055.5,223.1152,2059.5,219.1152" style="stroke:#181818;stroke-width:1.0;"/><line style="stroke:#181818;stroke-width:1.0;" x1="33.5" x2="2061.5" y1="219.1152" y2="219.1152"/><text fill="#000000" font-family="sans-serif" font-size="13" font-weight="bold" lengthAdjust="spacing" textLength="7" x="40.5" y="213.8525">3</text><text fill="#000000" font-family="sans-serif" font-size="13" lengthAdjust="spacing" textLength="1039" x="51.5" y="213.8525">types requested data (the owner's name, the citizenship card of said owner, the owner's tax number, the owner's address, the owner's email address, the owner's telephone number)</text><polygon fill="#181818" points="44.5,246.4063,34.5,250.4063,44.5,254.4063,40.5,250.4063" style="stroke:#181818;stroke-width:1.0;"/><line style="stroke:#181818;stroke-width:1.0;stroke-dasharray:2.0,2.0;" x1="38.5" x2="2071.5" y1="250.4063" y2="250.4063"/><text fill="#000000" font-family="sans-serif" font-size="13" font-weight="bold" lengthAdjust="spacing" textLength="7" x="50.5" y="245.1436">4</text><text fill="#000000" font-family="sans-serif" font-size="13" lengthAdjust="spacing" textLength="252" x="61.5" y="245.1436">requests data regarding the type of property</text><polygon fill="#181818" points="2055.5,277.6973,2065.5,281.6973,2055.5,285.6973,2059.5,281.6973" style="stroke:#181818;stroke-width:1.0;"/><line style="stroke:#181818;stroke-width:1.0;" x1="33.5" x2="2061.5" y1="281.6973" y2="281.6973"/><text fill="#000000" font-family="sans-serif" font-size="13" font-weight="bold" lengthAdjust="spacing" textLength="7" x="40.5" y="276.4346">5</text><text fill="#000000" font-family="sans-serif" font-size="13" lengthAdjust="spacing" textLength="169" x="51.5" y="276.4346">types requested data (house)</text><polygon fill="#181818" points="44.5,308.9883,34.5,312.9883,44.5,316.9883,40.5,312.9883" style="stroke:#181818;stroke-width:1.0;"/><line style="stroke:#181818;stroke-width:1.0;stroke-dasharray:2.0,2.0;" x1="38.5" x2="2071.5" y1="312.9883" y2="312.9883"/><text fill="#000000" font-family="sans-serif" font-size="13" font-weight="bold" lengthAdjust="spacing" textLength="7" x="50.5" y="307.7256">6</text><text fill="#000000" font-family="sans-serif" font-size="13" lengthAdjust="spacing" textLength="235" x="61.5" y="307.7256">requests data about the property (house)</text><polygon fill="#181818" points="2055.5,340.2793,2065.5,344.2793,2055.5,348.2793,2059.5,344.2793" style="stroke:#181818;stroke-width:1.0;"/><line style="stroke:#181818;stroke-width:1.0;" x1="33.5" x2="2061.5" y1="344.2793" y2="344.2793"/><text fill="#000000" font-family="sans-serif" font-size="13" font-weight="bold" lengthAdjust="spacing" textLength="7" x="40.5" y="339.0166">7</text><text fill="#000000" font-family="sans-serif" font-size="13" lengthAdjust="spacing" textLength="2004" x="51.5" y="339.0166">submits data (the area in m2, the location, the distance from the city centre, the requested price, one or more photographs, the number of bedrooms, the number of bathrooms, the number of parking spaces, the available equipment (such as central heating and/or air conditioning), the existence of a basement, an inhabitable loft, the sun exposure.)</text><polygon fill="#181818" points="44.5,371.5703,34.5,375.5703,44.5,379.5703,40.5,375.5703" style="stroke:#181818;stroke-width:1.0;"/><line style="stroke:#181818;stroke-width:1.0;stroke-dasharray:2.0,2.0;" x1="38.5" x2="2071.5" y1="375.5703" y2="375.5703"/><text fill="#000000" font-family="sans-serif" font-size="13" font-weight="bold" lengthAdjust="spacing" textLength="7" x="50.5" y="370.3076">8</text><text fill="#000000" font-family="sans-serif" font-size="13" lengthAdjust="spacing" textLength="151" x="61.5" y="370.3076">displays sucess message</text><!--SRC=[hLJBhXen3Dtp5HQRWWIjr2MBhkwYkri9zGDCOaZ494uJp-LElxvEPeQ2BfNwocAKyUFu-9LozZ5XnW218nkNEH18xcbHhfg4vemdsilG4MGoWl7KtHeKXvOlFfxWY5sXnKAygEb-A481zlIjfsW8dZoUglbgltzQmnQ-P4wKPG0P4ktWC_VL5tlXs8S3PRqRuGpBvqkal0GiyBMeM8EADpvX55ZknYXDErwRctz1eT5y0Nhg3RQVPauxDJyN40QJgLeYHBf0cXbrleZcqrolQ3CyJ6V2sYfiWzzfSJJL8Whi2BYoVbV0noFdWE8vDbTB3n7VCAnLAJCaMR0e2AjRv8Y1DYsMyUA_KopE9p2OBV0H2dexccxk-0Y-mbZWUpbQcwcKUo45zDrZbL17oN6a2MtzrzLgcMKwAV4wH3L8JRucCNVaFrJErVdwHv9uu5uQmUketEB-Bi7I7uAVCLjBKSTG9mN2nx787PisCUEVrN74ka97tS-vuGCOYfAd2VYPRShUgB0sHfSdS5QoZeLrzvARUZXsh1RuG3OpXxTo5FTGeTjthbqg-YpGfCKNdH8ywCuh2v-2ye9LwOshMzbOOWTE5wqwOhGVb1Zw38QZzJLDbQz7A7hLNDjpeR5GQHIgS1jrq_euF7XfWJe-okXH-gXUYKkVwVqVzrTBcpeSYi9eEWM2VlIn-qKxVm00]--></g></svg>