<?xml version="1.0" encoding="us-ascii" standalone="no"?><svg xmlns="http://www.w3.org/2000/svg" xmlns:xlink="http://www.w3.org/1999/xlink" contentStyleType="text/css" height="708px" preserveAspectRatio="none" style="width:2372px;height:708px;background:#FFFFFF;" version="1.1" viewBox="0 0 2372 708" width="2372px" zoomAndPan="magnify"><defs/><g><text fill="#000000" font-family="sans-serif" font-size="14" font-weight="bold" lengthAdjust="spacing" textLength="228" x="1073.75" y="27.6738">System Sequence Diagram (SSD)</text><rect fill="#FFFFFF" height="491.8984" style="stroke:#181818;stroke-width:1.0;" width="10" x="38.5" y="127.2813"/><rect fill="#FFFFFF" height="28.5234" style="stroke:#181818;stroke-width:1.0;" width="10" x="2319.5" y="147.8047"/><rect fill="#FFFFFF" height="28.5234" style="stroke:#181818;stroke-width:1.0;" width="10" x="2319.5" y="204.8516"/><rect fill="#FFFFFF" height="28.5234" style="stroke:#181818;stroke-width:1.0;" width="10" x="2319.5" y="285.4219"/><rect fill="#FFFFFF" height="28.5234" style="stroke:#181818;stroke-width:1.0;" width="10" x="2319.5" y="401.5156"/><rect fill="#FFFFFF" height="28.5234" style="stroke:#181818;stroke-width:1.0;" width="10" x="2319.5" y="517.6094"/><rect fill="none" height="102.0938" style="stroke:#000000;stroke-width:1.5;" width="2356.5" x="10" y="248.375"/><rect fill="none" height="102.0938" style="stroke:#000000;stroke-width:1.5;" width="2356.5" x="10" y="364.4688"/><rect fill="none" height="102.0938" style="stroke:#000000;stroke-width:1.5;" width="2356.5" x="10" y="480.5625"/><line style="stroke:#181818;stroke-width:0.5;stroke-dasharray:5.0,5.0;" x1="43" x2="43" y1="117.2813" y2="628.1797"/><line style="stroke:#181818;stroke-width:0.5;stroke-dasharray:5.0,5.0;" x1="2324.5" x2="2324.5" y1="117.2813" y2="628.1797"/><text fill="#000000" font-family="sans-serif" font-size="14" lengthAdjust="spacing" textLength="41" x="20" y="114.3145">Owner</text><ellipse cx="43.5" cy="50.1406" fill="#E3E3E3" rx="8" ry="8" style="stroke:#181818;stroke-width:0.5;"/><path d="M43.5,58.1406 L43.5,85.1406 M30.5,66.1406 L56.5,66.1406 M43.5,85.1406 L30.5,100.1406 M43.5,85.1406 L56.5,100.1406 " fill="none" style="stroke:#181818;stroke-width:0.5;"/><text fill="#000000" font-family="sans-serif" font-size="14" lengthAdjust="spacing" textLength="41" x="20" y="639.8535">Owner</text><ellipse cx="43.5" cy="651.3203" fill="#E3E3E3" rx="8" ry="8" style="stroke:#181818;stroke-width:0.5;"/><path d="M43.5,659.3203 L43.5,686.3203 M30.5,667.3203 L56.5,667.3203 M43.5,686.3203 L30.5,701.3203 M43.5,686.3203 L56.5,701.3203 " fill="none" style="stroke:#181818;stroke-width:0.5;"/><rect fill="#E3E3E3" height="29.6406" rx="2.5" ry="2.5" style="stroke:#181818;stroke-width:0.5;" width="64" x="2292.5" y="86.6406"/><text fill="#000000" font-family="sans-serif" font-size="14" lengthAdjust="spacing" textLength="50" x="2299.5" y="106.3145">:System</text><rect fill="#E3E3E3" height="29.6406" rx="2.5" ry="2.5" style="stroke:#181818;stroke-width:0.5;" width="64" x="2292.5" y="627.1797"/><text fill="#000000" font-family="sans-serif" font-size="14" lengthAdjust="spacing" textLength="50" x="2299.5" y="646.8535">:System</text><rect fill="#FFFFFF" height="491.8984" style="stroke:#181818;stroke-width:1.0;" width="10" x="38.5" y="127.2813"/><rect fill="#FFFFFF" height="28.5234" style="stroke:#181818;stroke-width:1.0;" width="10" x="2319.5" y="147.8047"/><rect fill="#FFFFFF" height="28.5234" style="stroke:#181818;stroke-width:1.0;" width="10" x="2319.5" y="204.8516"/><rect fill="#FFFFFF" height="28.5234" style="stroke:#181818;stroke-width:1.0;" width="10" x="2319.5" y="285.4219"/><rect fill="#FFFFFF" height="28.5234" style="stroke:#181818;stroke-width:1.0;" width="10" x="2319.5" y="401.5156"/><rect fill="#FFFFFF" height="28.5234" style="stroke:#181818;stroke-width:1.0;" width="10" x="2319.5" y="517.6094"/><polygon fill="#181818" points="2307.5,143.8047,2317.5,147.8047,2307.5,151.8047,2311.5,147.8047" style="stroke:#181818;stroke-width:1.0;"/><line style="stroke:#181818;stroke-width:1.0;" x1="48.5" x2="2313.5" y1="147.8047" y2="147.8047"/><text fill="#000000" font-family="sans-serif" font-size="13" font-weight="bold" lengthAdjust="spacing" textLength="7" x="55.5" y="143.0498">1</text><text fill="#000000" font-family="sans-serif" font-size="13" lengthAdjust="spacing" textLength="210" x="66.5" y="143.0498">asks to create a new announcement</text><polygon fill="#181818" points="59.5,172.3281,49.5,176.3281,59.5,180.3281,55.5,176.3281" style="stroke:#181818;stroke-width:1.0;"/><line style="stroke:#181818;stroke-width:1.0;stroke-dasharray:2.0,2.0;" x1="53.5" x2="2323.5" y1="176.3281" y2="176.3281"/><text fill="#000000" font-family="sans-serif" font-size="13" font-weight="bold" lengthAdjust="spacing" textLength="7" x="65.5" y="171.5732">2</text><text fill="#000000" font-family="sans-serif" font-size="13" lengthAdjust="spacing" textLength="358" x="76.5" y="171.5732">shows the list of comission types and property types available</text><polygon fill="#181818" points="2307.5,200.8516,2317.5,204.8516,2307.5,208.8516,2311.5,204.8516" style="stroke:#181818;stroke-width:1.0;"/><line style="stroke:#181818;stroke-width:1.0;" x1="48.5" x2="2313.5" y1="204.8516" y2="204.8516"/><text fill="#000000" font-family="sans-serif" font-size="13" font-weight="bold" lengthAdjust="spacing" textLength="7" x="55.5" y="200.0967">3</text><text fill="#000000" font-family="sans-serif" font-size="13" lengthAdjust="spacing" textLength="77" x="66.5" y="200.0967">inputs choice</text><polygon fill="#181818" points="59.5,229.375,49.5,233.375,59.5,237.375,55.5,233.375" style="stroke:#181818;stroke-width:1.0;"/><line style="stroke:#181818;stroke-width:1.0;stroke-dasharray:2.0,2.0;" x1="53.5" x2="2323.5" y1="233.375" y2="233.375"/><text fill="#000000" font-family="sans-serif" font-size="13" font-weight="bold" lengthAdjust="spacing" textLength="7" x="65.5" y="228.6201">4</text><text fill="#000000" font-family="sans-serif" font-size="13" lengthAdjust="spacing" textLength="79" x="76.5" y="228.6201">requests data</text><path d="M10,248.375 L71,248.375 L71,254.8984 L61,264.8984 L10,264.8984 L10,248.375 " fill="#EEEEEE" style="stroke:#000000;stroke-width:1.5;"/><rect fill="none" height="102.0938" style="stroke:#000000;stroke-width:1.5;" width="2356.5" x="10" y="248.375"/><text fill="#000000" font-family="sans-serif" font-size="13" font-weight="bold" lengthAdjust="spacing" textLength="16" x="25" y="261.1436">alt</text><text fill="#000000" font-family="sans-serif" font-size="11" font-weight="bold" lengthAdjust="spacing" textLength="173" x="86" y="260.333">[property type choosen is land]</text><polygon fill="#181818" points="2307.5,281.4219,2317.5,285.4219,2307.5,289.4219,2311.5,285.4219" style="stroke:#181818;stroke-width:1.0;"/><line style="stroke:#181818;stroke-width:1.0;" x1="48.5" x2="2313.5" y1="285.4219" y2="285.4219"/><text fill="#000000" font-family="sans-serif" font-size="13" font-weight="bold" lengthAdjust="spacing" textLength="7" x="55.5" y="280.667">5</text><text fill="#000000" font-family="sans-serif" font-size="13" lengthAdjust="spacing" textLength="158" x="66.5" y="280.667">types requested data (land)</text><polygon fill="#181818" points="59.5,309.9453,49.5,313.9453,59.5,317.9453,55.5,313.9453" style="stroke:#181818;stroke-width:1.0;"/><line style="stroke:#181818;stroke-width:1.0;stroke-dasharray:2.0,2.0;" x1="53.5" x2="2323.5" y1="313.9453" y2="313.9453"/><text fill="#000000" font-family="sans-serif" font-size="13" font-weight="bold" lengthAdjust="spacing" textLength="7" x="65.5" y="309.1904">6</text><text fill="#000000" font-family="sans-serif" font-size="13" lengthAdjust="spacing" textLength="188" x="76.5" y="309.1904">requests data about the property</text><polygon fill="#181818" points="2312.5,338.4688,2322.5,342.4688,2312.5,346.4688,2316.5,342.4688" style="stroke:#181818;stroke-width:1.0;"/><line style="stroke:#181818;stroke-width:1.0;" x1="48.5" x2="2318.5" y1="342.4688" y2="342.4688"/><text fill="#000000" font-family="sans-serif" font-size="13" font-weight="bold" lengthAdjust="spacing" textLength="7" x="55.5" y="337.7139">7</text><text fill="#000000" font-family="sans-serif" font-size="13" lengthAdjust="spacing" textLength="945" x="66.5" y="337.7139">submits data (type of transaction, value of transaction, the area in m2, the location, the distance from the city centre, the requested price, one or more photographs)</text><path d="M10,364.4688 L71,364.4688 L71,370.9922 L61,380.9922 L10,380.9922 L10,364.4688 " fill="#EEEEEE" style="stroke:#000000;stroke-width:1.5;"/><rect fill="none" height="102.0938" style="stroke:#000000;stroke-width:1.5;" width="2356.5" x="10" y="364.4688"/><text fill="#000000" font-family="sans-serif" font-size="13" font-weight="bold" lengthAdjust="spacing" textLength="16" x="25" y="377.2373">alt</text><text fill="#000000" font-family="sans-serif" font-size="11" font-weight="bold" lengthAdjust="spacing" textLength="207" x="86" y="376.4268">[property type choosen is apartment]</text><polygon fill="#181818" points="2307.5,397.5156,2317.5,401.5156,2307.5,405.5156,2311.5,401.5156" style="stroke:#181818;stroke-width:1.0;"/><line style="stroke:#181818;stroke-width:1.0;" x1="48.5" x2="2313.5" y1="401.5156" y2="401.5156"/><text fill="#000000" font-family="sans-serif" font-size="13" font-weight="bold" lengthAdjust="spacing" textLength="7" x="55.5" y="396.7607">8</text><text fill="#000000" font-family="sans-serif" font-size="13" lengthAdjust="spacing" textLength="192" x="66.5" y="396.7607">types requested data (apartment)</text><polygon fill="#181818" points="59.5,426.0391,49.5,430.0391,59.5,434.0391,55.5,430.0391" style="stroke:#181818;stroke-width:1.0;"/><line style="stroke:#181818;stroke-width:1.0;stroke-dasharray:2.0,2.0;" x1="53.5" x2="2323.5" y1="430.0391" y2="430.0391"/><text fill="#000000" font-family="sans-serif" font-size="13" font-weight="bold" lengthAdjust="spacing" textLength="7" x="65.5" y="425.2842">9</text><text fill="#000000" font-family="sans-serif" font-size="13" lengthAdjust="spacing" textLength="188" x="76.5" y="425.2842">requests data about the property</text><polygon fill="#181818" points="2312.5,454.5625,2322.5,458.5625,2312.5,462.5625,2316.5,458.5625" style="stroke:#181818;stroke-width:1.0;"/><line style="stroke:#181818;stroke-width:1.0;" x1="48.5" x2="2318.5" y1="458.5625" y2="458.5625"/><text fill="#000000" font-family="sans-serif" font-size="13" font-weight="bold" lengthAdjust="spacing" textLength="14" x="55.5" y="453.8076">10</text><text fill="#000000" font-family="sans-serif" font-size="13" lengthAdjust="spacing" textLength="1845" x="73.5" y="453.8076">submits data (type of transaction, value of transaction, the area in m2, the location, the distance from the city centre, the requested price, one or more photographs, the number of bedrooms, the number of bathrooms, the number of parking spaces, the available equipment (such as central heating and/or air conditioning))</text><path d="M10,480.5625 L71,480.5625 L71,487.0859 L61,497.0859 L10,497.0859 L10,480.5625 " fill="#EEEEEE" style="stroke:#000000;stroke-width:1.5;"/><rect fill="none" height="102.0938" style="stroke:#000000;stroke-width:1.5;" width="2356.5" x="10" y="480.5625"/><text fill="#000000" font-family="sans-serif" font-size="13" font-weight="bold" lengthAdjust="spacing" textLength="16" x="25" y="493.3311">alt</text><text fill="#000000" font-family="sans-serif" font-size="11" font-weight="bold" lengthAdjust="spacing" textLength="185" x="86" y="492.5205">[property type choosen is house]</text><polygon fill="#181818" points="2307.5,513.6094,2317.5,517.6094,2307.5,521.6094,2311.5,517.6094" style="stroke:#181818;stroke-width:1.0;"/><line style="stroke:#181818;stroke-width:1.0;" x1="48.5" x2="2313.5" y1="517.6094" y2="517.6094"/><text fill="#000000" font-family="sans-serif" font-size="13" font-weight="bold" lengthAdjust="spacing" textLength="14" x="55.5" y="512.8545">11</text><text fill="#000000" font-family="sans-serif" font-size="13" lengthAdjust="spacing" textLength="169" x="73.5" y="512.8545">types requested data (house)</text><polygon fill="#181818" points="59.5,542.1328,49.5,546.1328,59.5,550.1328,55.5,546.1328" style="stroke:#181818;stroke-width:1.0;"/><line style="stroke:#181818;stroke-width:1.0;stroke-dasharray:2.0,2.0;" x1="53.5" x2="2323.5" y1="546.1328" y2="546.1328"/><text fill="#000000" font-family="sans-serif" font-size="13" font-weight="bold" lengthAdjust="spacing" textLength="14" x="65.5" y="541.3779">12</text><text fill="#000000" font-family="sans-serif" font-size="13" lengthAdjust="spacing" textLength="188" x="83.5" y="541.3779">requests data about the property</text><polygon fill="#181818" points="2312.5,570.6563,2322.5,574.6563,2312.5,578.6563,2316.5,574.6563" style="stroke:#181818;stroke-width:1.0;"/><line style="stroke:#181818;stroke-width:1.0;" x1="48.5" x2="2318.5" y1="574.6563" y2="574.6563"/><text fill="#000000" font-family="sans-serif" font-size="13" font-weight="bold" lengthAdjust="spacing" textLength="14" x="55.5" y="569.9014">13</text><text fill="#000000" font-family="sans-serif" font-size="13" lengthAdjust="spacing" textLength="2234" x="73.5" y="569.9014">submits data (type of transaction, value of transaction, the area in m2, the location, the distance from the city centre, the requested price, one or more photographs, the number of bedrooms, the number of bathrooms, the number of parking spaces, the available equipment (such as central heating and/or air conditioning), the existence of a basement, an inhabitable loft, the sun exposure)</text><polygon fill="#181818" points="59.5,606.1797,49.5,610.1797,59.5,614.1797,55.5,610.1797" style="stroke:#181818;stroke-width:1.0;"/><line style="stroke:#181818;stroke-width:1.0;stroke-dasharray:2.0,2.0;" x1="53.5" x2="2323.5" y1="610.1797" y2="610.1797"/><text fill="#000000" font-family="sans-serif" font-size="13" font-weight="bold" lengthAdjust="spacing" textLength="14" x="65.5" y="605.4248">14</text><text fill="#000000" font-family="sans-serif" font-size="13" lengthAdjust="spacing" textLength="151" x="83.5" y="605.4248">displays sucess message</text><!--SRC=[xLR1Zjf03BtdAwmzWSHgfHuvzBJt7b0_m9aOCY8PfsCFbB-lPmBPKbXs4UgXKdD0mupz_FpiSI9R7mQCs4FFWLqRkIVGcAYIwMH0jyKDhVJG4KHoYc7J_MuWBJQyzs43Q-o4gagzckdg84ezhEX7ek08NZrkilbijNgTLnKcvP3wcgAjdNA4fs_xGF49KE2xsBQXgtT-mA3mj1pXokcuB6v-XqgZUGNsv1KyVpq5NvhvLa0PNAHiYH1e3nW29-FKKz3YDY6TeE7u776U3R90BorRtXjYIz1vKU0rEEwzYES0UXX83Bs18V90KG-dhHtw3ckJBOCsT3NU1NSJEAc0QzaxkfTdpBgBkJUeU2iiTdfEDmTaeG1UeBDahfCR4pj6eQQ4WLcsdpz45R3cf4NW4wkxH9DKz_w4DIlvM8qqOf0Cm641E-pIvMwEYDOb9ZlqNyR_7JjyEssiu9XRUMttfEmuRvevww98eycR7aEqeYs0WqMAThsYvTEoijs1ePLH8p9nFwu1veimjUeTnPWSvvFdkrLve38tglCFLsYq7YTKPb9J4vdxottKzkg1YR_DGr5iWDBnT9e3O2pya6i3CqckpMEjiCGEMfjKsT6kqeiHGnzjn8J6vpHjVtvFxxISXCwA_CdUAOxpCy-RlVDW_tpGG__xw2_qqGX5FotNyeAsM6WqfBmM5-Pc-hHOUos1Ebxhw24fcDV0aYBzsOkV7_ecyT3XGGpEqXBexSS-CzwPzRy0]--></g></svg>