<?xml version="1.0" encoding="us-ascii" standalone="no"?><svg xmlns="http://www.w3.org/2000/svg" xmlns:xlink="http://www.w3.org/1999/xlink" contentStyleType="text/css" height="877px" preserveAspectRatio="none" style="width:1566px;height:877px;background:#FFFFFF;" version="1.1" viewBox="0 0 1566 877" width="1566px" zoomAndPan="magnify"><defs/><g><text fill="#000000" font-family="sans-serif" font-size="7" font-weight="bold" lengthAdjust="spacing" textLength="124" x="721.875" y="13.8369">US018 - UI Sequence Diagram (SSD)</text><rect fill="#FFFFFF" height="798.5391" style="stroke:#181818;stroke-width:0.5;" width="5" x="39.5" y="48.9609"/><rect fill="#FFFFFF" height="41.8438" style="stroke:#181818;stroke-width:0.5;" width="5" x="276" y="59.2227"/><rect fill="#FFFFFF" height="33.2852" style="stroke:#181818;stroke-width:0.5;" width="5" x="276" y="115.3281"/><rect fill="#FFFFFF" height="17.7617" style="stroke:#181818;stroke-width:0.5;" width="5" x="276" y="162.875"/><rect fill="#FFFFFF" height="388.3633" style="stroke:#181818;stroke-width:0.5;" width="5" x="276" y="194.8984"/><rect fill="#FFFFFF" height="37.7852" style="stroke:#181818;stroke-width:0.5;" width="5" x="276" y="597.5234"/><rect fill="#FFFFFF" height="21.4063" style="stroke:#181818;stroke-width:0.5;" width="5" x="276" y="649.5703"/><rect fill="#FFFFFF" height="154.2617" style="stroke:#181818;stroke-width:0.5;" width="5" x="276" y="685.2383"/><rect fill="#FFFFFF" height="359.8398" style="stroke:#181818;stroke-width:0.5;" width="5" x="512" y="209.1602"/><rect fill="#FFFFFF" height="166.5234" style="stroke:#181818;stroke-width:0.5;" width="5" x="514.5" y="227.4219"/><rect fill="#FFFFFF" height="135.5313" style="stroke:#181818;stroke-width:0.5;" width="5" x="514.5" y="415.707"/><rect fill="#FFFFFF" height="42.7852" style="stroke:#181818;stroke-width:0.5;" width="5" x="512" y="714.7617"/><rect fill="#FFFFFF" height="42.7852" style="stroke:#181818;stroke-width:0.5;" width="5" x="512" y="778.9531"/><rect fill="#FFFFFF" height="19.3926" style="stroke:#181818;stroke-width:0.5;" width="5" x="767" y="312.9922"/><rect fill="#FFFFFF" height="14.2617" style="stroke:#181818;stroke-width:0.5;" width="5" x="767" y="358.9219"/><rect fill="#FFFFFF" height="34.582" style="stroke:#181818;stroke-width:0.5;" width="5" x="851.25" y="499.3945"/><rect fill="#FFFFFF" height="19.3926" style="stroke:#181818;stroke-width:0.5;" width="5" x="1261.25" y="460.6094"/><rect fill="#FFFFFF" height="14.2617" style="stroke:#181818;stroke-width:0.5;" width="5" x="1322.5" y="244.1836"/><rect fill="#FFFFFF" height="14.2617" style="stroke:#181818;stroke-width:0.5;" width="5" x="1322.5" y="272.707"/><rect fill="#FFFFFF" height="14.2617" style="stroke:#181818;stroke-width:0.5;" width="5" x="1477" y="729.0234"/><rect fill="#FFFFFF" height="14.2617" style="stroke:#181818;stroke-width:0.5;" width="5" x="1526.75" y="793.2148"/><rect fill="none" height="44.0469" style="stroke:#000000;stroke-width:0.75;" width="302" x="10" y="122.8281"/><rect fill="none" height="82.7148" style="stroke:#000000;stroke-width:0.75;" width="435" x="468.5" y="294.4688"/><rect fill="none" height="238.4766" style="stroke:#000000;stroke-width:0.75;" width="1558.25" x="5" y="605.0234"/><rect fill="none" height="72.4531" style="stroke:#000000;stroke-width:0.75;" width="302" x="10" y="616.7852"/><rect fill="none" height="129.5" style="stroke:#000000;stroke-width:0.75;" width="1313.25" x="245" y="696.2383"/><line style="stroke:#181818;stroke-width:0.25;stroke-dasharray:5.0,5.0;" x1="42" x2="42" y1="43.9609" y2="852"/><line style="stroke:#181818;stroke-width:0.25;stroke-dasharray:5.0,5.0;" x1="278.5" x2="278.5" y1="43.9609" y2="852"/><line style="stroke:#181818;stroke-width:0.25;stroke-dasharray:5.0,5.0;" x1="514.5" x2="514.5" y1="78.3828" y2="852"/><line style="stroke:#181818;stroke-width:0.25;stroke-dasharray:5.0,5.0;" x1="769.25" x2="769.25" y1="43.9609" y2="852"/><line style="stroke:#181818;stroke-width:0.25;stroke-dasharray:5.0,5.0;" x1="853.75" x2="853.75" y1="43.9609" y2="852"/><line style="stroke:#181818;stroke-width:0.25;stroke-dasharray:5.0,5.0;" x1="1170.25" x2="1170.25" y1="518.5547" y2="852"/><line style="stroke:#181818;stroke-width:0.25;stroke-dasharray:5.0,5.0;" x1="1263.75" x2="1263.75" y1="441.2773" y2="852"/><line style="stroke:#181818;stroke-width:0.25;stroke-dasharray:5.0,5.0;" x1="1324.75" x2="1324.75" y1="43.9609" y2="852"/><line style="stroke:#181818;stroke-width:0.25;stroke-dasharray:5.0,5.0;" x1="1403.75" x2="1403.75" y1="43.9609" y2="852"/><line style="stroke:#181818;stroke-width:0.25;stroke-dasharray:5.0,5.0;" x1="1479.25" x2="1479.25" y1="43.9609" y2="852"/><line style="stroke:#181818;stroke-width:0.25;stroke-dasharray:5.0,5.0;" x1="1529.25" x2="1529.25" y1="43.9609" y2="852"/><rect fill="#E3E3E3" height="14.8203" rx="1.25" ry="1.25" style="stroke:#181818;stroke-width:0.25;" width="54" x="15" y="28.6406"/><text fill="#000000" font-family="sans-serif" font-size="7" lengthAdjust="spacing" textLength="47" x="18.5" y="38.4775">Store Manager</text><rect fill="#E3E3E3" height="14.8203" rx="1.25" ry="1.25" style="stroke:#181818;stroke-width:0.25;" width="54" x="15" y="851.5"/><text fill="#000000" font-family="sans-serif" font-size="7" lengthAdjust="spacing" textLength="47" x="18.5" y="861.3369">Store Manager</text><rect fill="#E3E3E3" height="14.8203" rx="1.25" ry="1.25" style="stroke:#181818;stroke-width:0.25;" width="57" x="250" y="28.6406"/><text fill="#000000" font-family="sans-serif" font-size="7" lengthAdjust="spacing" textLength="50" x="253.5" y="38.4775">DealsAnalysisUI</text><rect fill="#E3E3E3" height="14.8203" rx="1.25" ry="1.25" style="stroke:#181818;stroke-width:0.25;" width="57" x="250" y="851.5"/><text fill="#000000" font-family="sans-serif" font-size="7" lengthAdjust="spacing" textLength="50" x="253.5" y="861.3369">DealsAnalysisUI</text><rect fill="#E3E3E3" height="14.8203" rx="1.25" ry="1.25" style="stroke:#181818;stroke-width:0.25;" width="82" x="473.5" y="851.5"/><text fill="#000000" font-family="sans-serif" font-size="7" lengthAdjust="spacing" textLength="75" x="477" y="861.3369">DealsAnalysisController</text><rect fill="#E3E3E3" height="22.6406" rx="1.25" ry="1.25" style="stroke:#181818;stroke-width:0.25;" width="89.5" x="724.75" y="20.8203"/><text fill="#000000" font-family="sans-serif" font-size="7" lengthAdjust="spacing" textLength="82" x="728.5" y="30.6572">purchaseOrderRepository</text><text fill="#000000" font-family="sans-serif" font-size="7" lengthAdjust="spacing" textLength="82.5" x="728.25" y="38.4775">PurchaseOrderRepository</text><rect fill="#E3E3E3" height="22.6406" rx="1.25" ry="1.25" style="stroke:#181818;stroke-width:0.25;" width="89.5" x="724.75" y="851.5"/><text fill="#000000" font-family="sans-serif" font-size="7" lengthAdjust="spacing" textLength="82" x="728.5" y="861.3369">purchaseOrderRepository</text><text fill="#000000" font-family="sans-serif" font-size="7" lengthAdjust="spacing" textLength="82.5" x="728.25" y="869.1572">PurchaseOrderRepository</text><rect fill="#E3E3E3" height="22.6406" rx="1.25" ry="1.25" style="stroke:#181818;stroke-width:0.25;" width="69" x="819.25" y="20.8203"/><text fill="#000000" font-family="sans-serif" font-size="7" lengthAdjust="spacing" textLength="57.5" x="825" y="30.6572">regressionMapper</text><text fill="#000000" font-family="sans-serif" font-size="7" lengthAdjust="spacing" textLength="62" x="822.75" y="38.4775">:RegressionMapper</text><rect fill="#E3E3E3" height="22.6406" rx="1.25" ry="1.25" style="stroke:#181818;stroke-width:0.25;" width="69" x="819.25" y="851.5"/><text fill="#000000" font-family="sans-serif" font-size="7" lengthAdjust="spacing" textLength="57.5" x="825" y="861.3369">regressionMapper</text><text fill="#000000" font-family="sans-serif" font-size="7" lengthAdjust="spacing" textLength="62" x="822.75" y="869.1572">:RegressionMapper</text><rect fill="#E3E3E3" height="14.8203" rx="1.25" ry="1.25" style="stroke:#181818;stroke-width:0.25;" width="112.5" x="1114.25" y="851.5"/><text fill="#000000" font-family="sans-serif" font-size="7" lengthAdjust="spacing" textLength="105.5" x="1117.75" y="861.3369">regressionDTO : RegressionDTO</text><rect fill="#E3E3E3" height="22.6406" rx="1.25" ry="1.25" style="stroke:#181818;stroke-width:0.25;" width="64" x="1231.75" y="851.5"/><text fill="#000000" font-family="sans-serif" font-size="7" lengthAdjust="spacing" textLength="52.5" x="1237.5" y="861.3369">regressionModel</text><text fill="#000000" font-family="sans-serif" font-size="7" lengthAdjust="spacing" textLength="57" x="1235.25" y="869.1572">:RegressionModel</text><rect fill="#E3E3E3" height="22.6406" rx="1.25" ry="1.25" style="stroke:#181818;stroke-width:0.25;" width="48.5" x="1300.75" y="20.8203"/><text fill="#000000" font-family="sans-serif" font-size="7" lengthAdjust="spacing" textLength="37" x="1306.5" y="30.6572">repositories</text><text fill="#000000" font-family="sans-serif" font-size="7" lengthAdjust="spacing" textLength="41.5" x="1304.25" y="38.4775">:Repositories</text><rect fill="#E3E3E3" height="22.6406" rx="1.25" ry="1.25" style="stroke:#181818;stroke-width:0.25;" width="48.5" x="1300.75" y="851.5"/><text fill="#000000" font-family="sans-serif" font-size="7" lengthAdjust="spacing" textLength="37" x="1306.5" y="861.3369">repositories</text><text fill="#000000" font-family="sans-serif" font-size="7" lengthAdjust="spacing" textLength="41.5" x="1304.25" y="869.1572">:Repositories</text><rect fill="#E3E3E3" height="14.8203" rx="1.25" ry="1.25" style="stroke:#181818;stroke-width:0.25;" width="99.5" x="1354.25" y="28.6406"/><text fill="#000000" font-family="sans-serif" font-size="7" lengthAdjust="spacing" textLength="92.5" x="1357.75" y="38.4775">analysisReport : List&lt;Object&gt;</text><rect fill="#E3E3E3" height="14.8203" rx="1.25" ry="1.25" style="stroke:#181818;stroke-width:0.25;" width="99.5" x="1354.25" y="851.5"/><text fill="#000000" font-family="sans-serif" font-size="7" lengthAdjust="spacing" textLength="92.5" x="1357.75" y="861.3369">analysisReport : List&lt;Object&gt;</text><rect fill="#E3E3E3" height="22.6406" rx="1.25" ry="1.25" style="stroke:#181818;stroke-width:0.25;" width="41.5" x="1458.75" y="20.8203"/><text fill="#000000" font-family="sans-serif" font-size="7" lengthAdjust="spacing" textLength="34.5" x="1462.25" y="30.6572">multiLinear</text><text fill="#000000" font-family="sans-serif" font-size="7" lengthAdjust="spacing" textLength="34.5" x="1462.25" y="38.4775">MultiLinear</text><rect fill="#E3E3E3" height="22.6406" rx="1.25" ry="1.25" style="stroke:#181818;stroke-width:0.25;" width="41.5" x="1458.75" y="851.5"/><text fill="#000000" font-family="sans-serif" font-size="7" lengthAdjust="spacing" textLength="34.5" x="1462.25" y="861.3369">multiLinear</text><text fill="#000000" font-family="sans-serif" font-size="7" lengthAdjust="spacing" textLength="34.5" x="1462.25" y="869.1572">MultiLinear</text><rect fill="#E3E3E3" height="22.6406" rx="1.25" ry="1.25" style="stroke:#181818;stroke-width:0.25;" width="48" x="1505.25" y="20.8203"/><text fill="#000000" font-family="sans-serif" font-size="7" lengthAdjust="spacing" textLength="40" x="1509.25" y="30.6572">simpleLinear</text><text fill="#000000" font-family="sans-serif" font-size="7" lengthAdjust="spacing" textLength="41" x="1508.75" y="38.4775">SimpleLinear</text><rect fill="#E3E3E3" height="22.6406" rx="1.25" ry="1.25" style="stroke:#181818;stroke-width:0.25;" width="48" x="1505.25" y="851.5"/><text fill="#000000" font-family="sans-serif" font-size="7" lengthAdjust="spacing" textLength="40" x="1509.25" y="861.3369">simpleLinear</text><text fill="#000000" font-family="sans-serif" font-size="7" lengthAdjust="spacing" textLength="41" x="1508.75" y="869.1572">SimpleLinear</text><rect fill="#FFFFFF" height="798.5391" style="stroke:#181818;stroke-width:0.5;" width="5" x="39.5" y="48.9609"/><rect fill="#FFFFFF" height="41.8438" style="stroke:#181818;stroke-width:0.5;" width="5" x="276" y="59.2227"/><rect fill="#FFFFFF" height="33.2852" style="stroke:#181818;stroke-width:0.5;" width="5" x="276" y="115.3281"/><rect fill="#FFFFFF" height="17.7617" style="stroke:#181818;stroke-width:0.5;" width="5" x="276" y="162.875"/><rect fill="#FFFFFF" height="388.3633" style="stroke:#181818;stroke-width:0.5;" width="5" x="276" y="194.8984"/><rect fill="#FFFFFF" height="37.7852" style="stroke:#181818;stroke-width:0.5;" width="5" x="276" y="597.5234"/><rect fill="#FFFFFF" height="21.4063" style="stroke:#181818;stroke-width:0.5;" width="5" x="276" y="649.5703"/><rect fill="#FFFFFF" height="154.2617" style="stroke:#181818;stroke-width:0.5;" width="5" x="276" y="685.2383"/><rect fill="#FFFFFF" height="359.8398" style="stroke:#181818;stroke-width:0.5;" width="5" x="512" y="209.1602"/><rect fill="#FFFFFF" height="166.5234" style="stroke:#181818;stroke-width:0.5;" width="5" x="514.5" y="227.4219"/><rect fill="#FFFFFF" height="135.5313" style="stroke:#181818;stroke-width:0.5;" width="5" x="514.5" y="415.707"/><rect fill="#FFFFFF" height="42.7852" style="stroke:#181818;stroke-width:0.5;" width="5" x="512" y="714.7617"/><rect fill="#FFFFFF" height="42.7852" style="stroke:#181818;stroke-width:0.5;" width="5" x="512" y="778.9531"/><rect fill="#FFFFFF" height="19.3926" style="stroke:#181818;stroke-width:0.5;" width="5" x="767" y="312.9922"/><rect fill="#FFFFFF" height="14.2617" style="stroke:#181818;stroke-width:0.5;" width="5" x="767" y="358.9219"/><rect fill="#FFFFFF" height="34.582" style="stroke:#181818;stroke-width:0.5;" width="5" x="851.25" y="499.3945"/><rect fill="#FFFFFF" height="19.3926" style="stroke:#181818;stroke-width:0.5;" width="5" x="1261.25" y="460.6094"/><rect fill="#FFFFFF" height="14.2617" style="stroke:#181818;stroke-width:0.5;" width="5" x="1322.5" y="244.1836"/><rect fill="#FFFFFF" height="14.2617" style="stroke:#181818;stroke-width:0.5;" width="5" x="1322.5" y="272.707"/><rect fill="#FFFFFF" height="14.2617" style="stroke:#181818;stroke-width:0.5;" width="5" x="1477" y="729.0234"/><rect fill="#FFFFFF" height="14.2617" style="stroke:#181818;stroke-width:0.5;" width="5" x="1526.75" y="793.2148"/><polygon fill="#181818" points="270,57.2227,275,59.2227,270,61.2227,272,59.2227" style="stroke:#181818;stroke-width:0.5;"/><line style="stroke:#181818;stroke-width:0.5;" x1="44.5" x2="273" y1="59.2227" y2="59.2227"/><text fill="#000000" font-family="sans-serif" font-size="6.5" font-weight="bold" lengthAdjust="spacing" textLength="3.5" x="48" y="56.8452">1</text><text fill="#000000" font-family="sans-serif" font-size="6.5" lengthAdjust="spacing" textLength="74.5" x="53.5" y="56.8452">asks to analyse controller</text><polygon fill="#181818" points="467.5,71.4844,472.5,73.4844,467.5,75.4844,469.5,73.4844" style="stroke:#181818;stroke-width:0.5;"/><line style="stroke:#181818;stroke-width:0.5;" x1="281" x2="470.5" y1="73.4844" y2="73.4844"/><text fill="#000000" font-family="sans-serif" font-size="6.5" font-weight="bold" lengthAdjust="spacing" textLength="3.5" x="284.5" y="71.1069">2</text><text fill="#000000" font-family="sans-serif" font-size="6.5" lengthAdjust="spacing" textLength="22" x="290" y="71.1069">create()</text><rect fill="#E3E3E3" height="14.8203" rx="1.25" ry="1.25" style="stroke:#181818;stroke-width:0.25;" width="82" x="473.5" y="63.2227"/><text fill="#000000" font-family="sans-serif" font-size="7" lengthAdjust="spacing" textLength="75" x="477" y="73.0596">DealsAnalysisController</text><polygon fill="#181818" points="50,99.0664,45,101.0664,50,103.0664,48,101.0664" style="stroke:#181818;stroke-width:0.5;"/><line style="stroke:#181818;stroke-width:0.5;stroke-dasharray:2.0,2.0;" x1="47" x2="278" y1="101.0664" y2="101.0664"/><text fill="#000000" font-family="sans-serif" font-size="6.5" font-weight="bold" lengthAdjust="spacing" textLength="3.5" x="53" y="95.0581">3</text><text fill="#000000" font-family="sans-serif" font-size="6.5" lengthAdjust="spacing" textLength="100" x="58.5" y="91.4272">shows available regression models</text><text fill="#000000" font-family="sans-serif" font-size="6.5" lengthAdjust="spacing" textLength="66" x="62.5" y="98.689">and asks to select one</text><polygon fill="#181818" points="270,113.3281,275,115.3281,270,117.3281,272,115.3281" style="stroke:#181818;stroke-width:0.5;"/><line style="stroke:#181818;stroke-width:0.5;" x1="44.5" x2="273" y1="115.3281" y2="115.3281"/><text fill="#000000" font-family="sans-serif" font-size="6.5" font-weight="bold" lengthAdjust="spacing" textLength="3.5" x="48" y="112.9507">4</text><text fill="#000000" font-family="sans-serif" font-size="6.5" lengthAdjust="spacing" textLength="78" x="53.5" y="112.9507">selects a regression model</text><path d="M10,122.8281 L40.5,122.8281 L40.5,126.0898 L35.5,131.0898 L10,131.0898 L10,122.8281 " fill="#EEEEEE" style="stroke:#000000;stroke-width:0.75;"/><rect fill="none" height="44.0469" style="stroke:#000000;stroke-width:0.75;" width="302" x="10" y="122.8281"/><text fill="#000000" font-family="sans-serif" font-size="6.5" font-weight="bold" lengthAdjust="spacing" textLength="8" x="17.5" y="129.2124">alt</text><text fill="#000000" font-family="sans-serif" font-size="5.5" font-weight="bold" lengthAdjust="spacing" textLength="106.5" x="48" y="128.8071">[if simple-linear regression is chosen]</text><polygon fill="#181818" points="50,146.6133,45,148.6133,50,150.6133,48,148.6133" style="stroke:#181818;stroke-width:0.5;"/><line style="stroke:#181818;stroke-width:0.5;stroke-dasharray:2.0,2.0;" x1="47" x2="278" y1="148.6133" y2="148.6133"/><text fill="#000000" font-family="sans-serif" font-size="6.5" font-weight="bold" lengthAdjust="spacing" textLength="3.5" x="53" y="142.605">5</text><text fill="#000000" font-family="sans-serif" font-size="6.5" lengthAdjust="spacing" textLength="90.5" x="58.5" y="138.9741">displays regression parameters</text><text fill="#000000" font-family="sans-serif" font-size="6.5" lengthAdjust="spacing" textLength="66" x="60.5" y="146.2358">and asks to select one</text><polygon fill="#181818" points="270,160.875,275,162.875,270,164.875,272,162.875" style="stroke:#181818;stroke-width:0.5;"/><line style="stroke:#181818;stroke-width:0.5;" x1="44.5" x2="273" y1="162.875" y2="162.875"/><text fill="#000000" font-family="sans-serif" font-size="6.5" font-weight="bold" lengthAdjust="spacing" textLength="3.5" x="48" y="160.4976">6</text><text fill="#000000" font-family="sans-serif" font-size="6.5" lengthAdjust="spacing" textLength="84" x="53.5" y="160.4976">selects regression parameter</text><polygon fill="#181818" points="50,178.6367,45,180.6367,50,182.6367,48,180.6367" style="stroke:#181818;stroke-width:0.5;"/><line style="stroke:#181818;stroke-width:0.5;stroke-dasharray:2.0,2.0;" x1="47" x2="278" y1="180.6367" y2="180.6367"/><text fill="#000000" font-family="sans-serif" font-size="6.5" font-weight="bold" lengthAdjust="spacing" textLength="3.5" x="53" y="178.2593">7</text><text fill="#000000" font-family="sans-serif" font-size="6.5" lengthAdjust="spacing" textLength="75.5" x="58.5" y="178.2593">requests significance level</text><polygon fill="#181818" points="270,192.8984,275,194.8984,270,196.8984,272,194.8984" style="stroke:#181818;stroke-width:0.5;"/><line style="stroke:#181818;stroke-width:0.5;" x1="44.5" x2="273" y1="194.8984" y2="194.8984"/><text fill="#000000" font-family="sans-serif" font-size="6.5" font-weight="bold" lengthAdjust="spacing" textLength="3.5" x="48" y="192.521">8</text><text fill="#000000" font-family="sans-serif" font-size="6.5" lengthAdjust="spacing" textLength="68" x="53.5" y="192.521">inputs significance level</text><polygon fill="#181818" points="506,207.1602,511,209.1602,506,211.1602,508,209.1602" style="stroke:#181818;stroke-width:0.5;"/><line style="stroke:#181818;stroke-width:0.5;" x1="281" x2="509" y1="209.1602" y2="209.1602"/><text fill="#000000" font-family="sans-serif" font-size="6.5" font-weight="bold" lengthAdjust="spacing" textLength="3.5" x="284.5" y="206.7827">9</text><text fill="#000000" font-family="sans-serif" font-size="6.5" lengthAdjust="spacing" textLength="216" x="290" y="206.7827">getRegressionModelStats(regressionModelOption, parameter, significance)</text><line style="stroke:#181818;stroke-width:0.5;" x1="517" x2="540.5" y1="220.9219" y2="220.9219"/><line style="stroke:#181818;stroke-width:0.5;" x1="540.5" x2="540.5" y1="220.9219" y2="227.4219"/><line style="stroke:#181818;stroke-width:0.5;" x1="520" x2="540.5" y1="227.4219" y2="227.4219"/><polygon fill="#181818" points="525,225.4219,520,227.4219,525,229.4219,523,227.4219" style="stroke:#181818;stroke-width:0.5;"/><text fill="#000000" font-family="sans-serif" font-size="6.5" font-weight="bold" lengthAdjust="spacing" textLength="7" x="523" y="218.5444">10</text><text fill="#000000" font-family="sans-serif" font-size="6.5" lengthAdjust="spacing" textLength="234" x="532" y="218.5444">getRegressionModelParameters(regressionModelOption, parameter, significance)</text><polygon fill="#181818" points="1316.5,242.1836,1321.5,244.1836,1316.5,246.1836,1318.5,244.1836" style="stroke:#181818;stroke-width:0.5;"/><line style="stroke:#181818;stroke-width:0.5;" x1="519.5" x2="1319.5" y1="244.1836" y2="244.1836"/><text fill="#000000" font-family="sans-serif" font-size="6.5" font-weight="bold" lengthAdjust="spacing" textLength="7" x="523" y="241.8062">11</text><text fill="#000000" font-family="sans-serif" font-size="6.5" lengthAdjust="spacing" textLength="37.5" x="532" y="241.8062">getInstance()</text><polygon fill="#181818" points="525,256.4453,520,258.4453,525,260.4453,523,258.4453" style="stroke:#181818;stroke-width:0.5;"/><line style="stroke:#181818;stroke-width:0.5;stroke-dasharray:2.0,2.0;" x1="522" x2="1324.5" y1="258.4453" y2="258.4453"/><text fill="#000000" font-family="sans-serif" font-size="6.5" font-weight="bold" lengthAdjust="spacing" textLength="7" x="528" y="256.0679">12</text><text fill="#000000" font-family="sans-serif" font-size="6.5" lengthAdjust="spacing" textLength="33.5" x="537" y="256.0679">repositories</text><polygon fill="#181818" points="1316.5,270.707,1321.5,272.707,1316.5,274.707,1318.5,272.707" style="stroke:#181818;stroke-width:0.5;"/><line style="stroke:#181818;stroke-width:0.5;" x1="519.5" x2="1319.5" y1="272.707" y2="272.707"/><text fill="#000000" font-family="sans-serif" font-size="6.5" font-weight="bold" lengthAdjust="spacing" textLength="7" x="523" y="270.3296">13</text><text fill="#000000" font-family="sans-serif" font-size="6.5" lengthAdjust="spacing" textLength="87.5" x="532" y="270.3296">getPurchaseOrderRepository()</text><polygon fill="#181818" points="525,284.9688,520,286.9688,525,288.9688,523,286.9688" style="stroke:#181818;stroke-width:0.5;"/><line style="stroke:#181818;stroke-width:0.5;stroke-dasharray:2.0,2.0;" x1="522" x2="1324.5" y1="286.9688" y2="286.9688"/><text fill="#000000" font-family="sans-serif" font-size="6.5" font-weight="bold" lengthAdjust="spacing" textLength="7" x="528" y="284.5913">14</text><text fill="#000000" font-family="sans-serif" font-size="6.5" lengthAdjust="spacing" textLength="73.5" x="537" y="284.5913">purchaseOrderRepository</text><path d="M468.5,294.4688 L499,294.4688 L499,297.7305 L494,302.7305 L468.5,302.7305 L468.5,294.4688 " fill="#EEEEEE" style="stroke:#000000;stroke-width:0.75;"/><rect fill="none" height="82.7148" style="stroke:#000000;stroke-width:0.75;" width="435" x="468.5" y="294.4688"/><text fill="#000000" font-family="sans-serif" font-size="6.5" font-weight="bold" lengthAdjust="spacing" textLength="8" x="476" y="300.853">alt</text><text fill="#000000" font-family="sans-serif" font-size="5.5" font-weight="bold" lengthAdjust="spacing" textLength="54.5" x="506.5" y="300.4478">[if option == simple]</text><polygon fill="#181818" points="761,310.9922,766,312.9922,761,314.9922,763,312.9922" style="stroke:#181818;stroke-width:0.5;"/><line style="stroke:#181818;stroke-width:0.5;" x1="519.5" x2="764" y1="312.9922" y2="312.9922"/><text fill="#000000" font-family="sans-serif" font-size="6.5" font-weight="bold" lengthAdjust="spacing" textLength="7" x="523" y="310.6147">15</text><text fill="#000000" font-family="sans-serif" font-size="6.5" lengthAdjust="spacing" textLength="97.5" x="532" y="310.6147">getParametersForSLR(parameter)</text><polygon fill="#181818" points="525,330.3848,520,332.3848,525,334.3848,523,332.3848" style="stroke:#181818;stroke-width:0.5;"/><line style="stroke:#181818;stroke-width:0.5;stroke-dasharray:2.0,2.0;" x1="522" x2="769" y1="332.3848" y2="332.3848"/><text fill="#000000" font-family="sans-serif" font-size="6.5" font-weight="bold" lengthAdjust="spacing" textLength="7" x="528" y="330.0073">16</text><text fill="#000000" font-family="sans-serif" font-size="6.5" lengthAdjust="spacing" textLength="32.5" x="537" y="330.0073">parameters</text><path d="M774.5,319.4922 L774.5,338.9922 L896,338.9922 L896,324.4922 L891,319.4922 L774.5,319.4922 " fill="#FAFAFA" style="stroke:#181818;stroke-width:0.25;"/><path d="M891,319.4922 L891,324.4922 L896,324.4922 L891,319.4922 " fill="#FAFAFA" style="stroke:#181818;stroke-width:0.25;"/><text fill="#000000" font-family="sans-serif" font-size="6.5" lengthAdjust="spacing" textLength="111" x="777.5" y="327.8765">parameterList is a bidimensional Array</text><text fill="#000000" font-family="sans-serif" font-size="6.5" lengthAdjust="spacing" textLength="96" x="777.5" y="335.1382">containing the lists of parameters</text><line style="stroke:#000000;stroke-width:0.5;stroke-dasharray:2.0,2.0;" x1="468.5" x2="903.5" y1="342.0156" y2="342.0156"/><text fill="#000000" font-family="sans-serif" font-size="5.5" font-weight="bold" lengthAdjust="spacing" textLength="49.5" x="471" y="346.9946">[if option == multi]</text><polygon fill="#181818" points="761,356.9219,766,358.9219,761,360.9219,763,358.9219" style="stroke:#181818;stroke-width:0.5;"/><line style="stroke:#181818;stroke-width:0.5;" x1="519.5" x2="764" y1="358.9219" y2="358.9219"/><text fill="#000000" font-family="sans-serif" font-size="6.5" font-weight="bold" lengthAdjust="spacing" textLength="7" x="523" y="356.5444">17</text><text fill="#000000" font-family="sans-serif" font-size="6.5" lengthAdjust="spacing" textLength="69.5" x="532" y="356.5444">getParametersForMLR()</text><polygon fill="#181818" points="525,371.1836,520,373.1836,525,375.1836,523,373.1836" style="stroke:#181818;stroke-width:0.5;"/><line style="stroke:#181818;stroke-width:0.5;stroke-dasharray:2.0,2.0;" x1="522" x2="769" y1="373.1836" y2="373.1836"/><text fill="#000000" font-family="sans-serif" font-size="6.5" font-weight="bold" lengthAdjust="spacing" textLength="7" x="528" y="370.8062">18</text><text fill="#000000" font-family="sans-serif" font-size="6.5" lengthAdjust="spacing" textLength="32.5" x="537" y="370.8062">parameters</text><line style="stroke:#181818;stroke-width:0.5;stroke-dasharray:2.0,2.0;" x1="519.5" x2="540.5" y1="393.4453" y2="393.4453"/><line style="stroke:#181818;stroke-width:0.5;stroke-dasharray:2.0,2.0;" x1="540.5" x2="540.5" y1="393.4453" y2="399.9453"/><line style="stroke:#181818;stroke-width:0.5;stroke-dasharray:2.0,2.0;" x1="517" x2="540.5" y1="399.9453" y2="399.9453"/><polygon fill="#181818" points="522,397.9453,517,399.9453,522,401.9453,520,399.9453" style="stroke:#181818;stroke-width:0.5;"/><text fill="#000000" font-family="sans-serif" font-size="6.5" font-weight="bold" lengthAdjust="spacing" textLength="7" x="523" y="391.0679">19</text><text fill="#000000" font-family="sans-serif" font-size="6.5" lengthAdjust="spacing" textLength="32.5" x="532" y="391.0679">parameters</text><line style="stroke:#181818;stroke-width:0.5;" x1="517" x2="540.5" y1="409.207" y2="409.207"/><line style="stroke:#181818;stroke-width:0.5;" x1="540.5" x2="540.5" y1="409.207" y2="415.707"/><line style="stroke:#181818;stroke-width:0.5;" x1="520" x2="540.5" y1="415.707" y2="415.707"/><polygon fill="#181818" points="525,413.707,520,415.707,525,417.707,523,415.707" style="stroke:#181818;stroke-width:0.5;"/><text fill="#000000" font-family="sans-serif" font-size="6.5" font-weight="bold" lengthAdjust="spacing" textLength="7" x="523" y="406.8296">20</text><text fill="#000000" font-family="sans-serif" font-size="6.5" lengthAdjust="spacing" textLength="198" x="532" y="406.8296">getAnalysisReport(regressionModelOption, parameters, significance)</text><polygon fill="#181818" points="1225.75,430.4688,1230.75,432.4688,1225.75,434.4688,1227.75,432.4688" style="stroke:#181818;stroke-width:0.5;"/><line style="stroke:#181818;stroke-width:0.5;" x1="519.5" x2="1228.75" y1="432.4688" y2="432.4688"/><text fill="#000000" font-family="sans-serif" font-size="6.5" font-weight="bold" lengthAdjust="spacing" textLength="7" x="523" y="430.0913">21</text><text fill="#000000" font-family="sans-serif" font-size="6.5" lengthAdjust="spacing" textLength="54.5" x="532" y="430.0913">create(parameters)</text><rect fill="#E3E3E3" height="22.6406" rx="1.25" ry="1.25" style="stroke:#181818;stroke-width:0.25;" width="64" x="1231.75" y="422.207"/><text fill="#000000" font-family="sans-serif" font-size="7" lengthAdjust="spacing" textLength="52.5" x="1237.5" y="432.0439">regressionModel</text><text fill="#000000" font-family="sans-serif" font-size="7" lengthAdjust="spacing" textLength="57" x="1235.25" y="439.8643">:RegressionModel</text><polygon fill="#181818" points="1255.25,458.6094,1260.25,460.6094,1255.25,462.6094,1257.25,460.6094" style="stroke:#181818;stroke-width:0.5;"/><line style="stroke:#181818;stroke-width:0.5;" x1="519.5" x2="1258.25" y1="460.6094" y2="460.6094"/><text fill="#000000" font-family="sans-serif" font-size="6.5" font-weight="bold" lengthAdjust="spacing" textLength="7" x="523" y="458.2319">22</text><text fill="#000000" font-family="sans-serif" font-size="6.5" lengthAdjust="spacing" textLength="133.5" x="532" y="458.2319">getRegressionModel(parameters, significance)</text><polygon fill="#181818" points="525,478.002,520,480.002,525,482.002,523,480.002" style="stroke:#181818;stroke-width:0.5;"/><line style="stroke:#181818;stroke-width:0.5;stroke-dasharray:2.0,2.0;" x1="522" x2="1263.25" y1="480.002" y2="480.002"/><text fill="#000000" font-family="sans-serif" font-size="6.5" font-weight="bold" lengthAdjust="spacing" textLength="7" x="528" y="477.6245">23</text><text fill="#000000" font-family="sans-serif" font-size="6.5" lengthAdjust="spacing" textLength="47.5" x="537" y="477.6245">regressionModel</text><path d="M1268.5,467.1094 L1268.5,486.6094 L1411,486.6094 L1411,472.1094 L1406,467.1094 L1268.5,467.1094 " fill="#FAFAFA" style="stroke:#181818;stroke-width:0.25;"/><path d="M1406,467.1094 L1406,472.1094 L1411,472.1094 L1406,467.1094 " fill="#FAFAFA" style="stroke:#181818;stroke-width:0.25;"/><text fill="#000000" font-family="sans-serif" font-size="6.5" lengthAdjust="spacing" textLength="132" x="1271.5" y="475.4937">Regression Model implementation will depend</text><text fill="#000000" font-family="sans-serif" font-size="6.5" lengthAdjust="spacing" textLength="92.5" x="1271.5" y="482.7554">on the chosen regression model</text><polygon fill="#181818" points="845.25,497.3945,850.25,499.3945,845.25,501.3945,847.25,499.3945" style="stroke:#181818;stroke-width:0.5;"/><line style="stroke:#181818;stroke-width:0.5;" x1="519.5" x2="848.25" y1="499.3945" y2="499.3945"/><text fill="#000000" font-family="sans-serif" font-size="6.5" font-weight="bold" lengthAdjust="spacing" textLength="7" x="523" y="497.0171">24</text><text fill="#000000" font-family="sans-serif" font-size="6.5" lengthAdjust="spacing" textLength="70" x="532" y="497.0171">toDTO(regressionModel)</text><polygon fill="#181818" points="1108.25,511.6563,1113.25,513.6563,1108.25,515.6563,1110.25,513.6563" style="stroke:#181818;stroke-width:0.5;"/><line style="stroke:#181818;stroke-width:0.5;stroke-dasharray:2.0,2.0;" x1="856.25" x2="1111.25" y1="513.6563" y2="513.6563"/><text fill="#000000" font-family="sans-serif" font-size="6.5" font-weight="bold" lengthAdjust="spacing" textLength="7" x="859.75" y="511.2788">25</text><text fill="#000000" font-family="sans-serif" font-size="6.5" lengthAdjust="spacing" textLength="237" x="868.75" y="511.2788">create(regressionModel.getEquationCoefs(), regressionModel.getAnalysisReport())</text><rect fill="#E3E3E3" height="14.8203" rx="1.25" ry="1.25" style="stroke:#181818;stroke-width:0.25;" width="112.5" x="1114.25" y="503.3945"/><text fill="#000000" font-family="sans-serif" font-size="7" lengthAdjust="spacing" textLength="105.5" x="1117.75" y="513.2314">regressionDTO : RegressionDTO</text><polygon fill="#181818" points="525,531.9766,520,533.9766,525,535.9766,523,533.9766" style="stroke:#181818;stroke-width:0.5;"/><line style="stroke:#181818;stroke-width:0.5;stroke-dasharray:2.0,2.0;" x1="522" x2="853.25" y1="533.9766" y2="533.9766"/><text fill="#000000" font-family="sans-serif" font-size="6.5" font-weight="bold" lengthAdjust="spacing" textLength="7" x="528" y="531.5991">26</text><text fill="#000000" font-family="sans-serif" font-size="6.5" lengthAdjust="spacing" textLength="40" x="537" y="531.5991">regressionDto</text><line style="stroke:#181818;stroke-width:0.5;stroke-dasharray:2.0,2.0;" x1="519.5" x2="540.5" y1="550.7383" y2="550.7383"/><line style="stroke:#181818;stroke-width:0.5;stroke-dasharray:2.0,2.0;" x1="540.5" x2="540.5" y1="550.7383" y2="557.2383"/><line style="stroke:#181818;stroke-width:0.5;stroke-dasharray:2.0,2.0;" x1="517" x2="540.5" y1="557.2383" y2="557.2383"/><polygon fill="#181818" points="522,555.2383,517,557.2383,522,559.2383,520,557.2383" style="stroke:#181818;stroke-width:0.5;"/><text fill="#000000" font-family="sans-serif" font-size="6.5" font-weight="bold" lengthAdjust="spacing" textLength="7" x="523" y="548.3608">27</text><text fill="#000000" font-family="sans-serif" font-size="6.5" lengthAdjust="spacing" textLength="40" x="532" y="548.3608">regressionDto</text><polygon fill="#181818" points="286.5,567,281.5,569,286.5,571,284.5,569" style="stroke:#181818;stroke-width:0.5;"/><line style="stroke:#181818;stroke-width:0.5;stroke-dasharray:2.0,2.0;" x1="283.5" x2="514" y1="569" y2="569"/><text fill="#000000" font-family="sans-serif" font-size="6.5" font-weight="bold" lengthAdjust="spacing" textLength="7" x="289.5" y="566.6226">28</text><text fill="#000000" font-family="sans-serif" font-size="6.5" lengthAdjust="spacing" textLength="40" x="298.5" y="566.6226">regressionDto</text><polygon fill="#181818" points="50,581.2617,45,583.2617,50,585.2617,48,583.2617" style="stroke:#181818;stroke-width:0.5;"/><line style="stroke:#181818;stroke-width:0.5;stroke-dasharray:2.0,2.0;" x1="47" x2="278" y1="583.2617" y2="583.2617"/><text fill="#000000" font-family="sans-serif" font-size="6.5" font-weight="bold" lengthAdjust="spacing" textLength="7" x="53" y="580.8843">29</text><text fill="#000000" font-family="sans-serif" font-size="6.5" lengthAdjust="spacing" textLength="210.5" x="62" y="580.8843">shows regression report and asks if user wants to predict a custom value</text><polygon fill="#181818" points="270,595.5234,275,597.5234,270,599.5234,272,597.5234" style="stroke:#181818;stroke-width:0.5;"/><line style="stroke:#181818;stroke-width:0.5;stroke-dasharray:2.0,2.0;" x1="44.5" x2="273" y1="597.5234" y2="597.5234"/><text fill="#000000" font-family="sans-serif" font-size="6.5" font-weight="bold" lengthAdjust="spacing" textLength="7" x="48" y="595.146">30</text><text fill="#000000" font-family="sans-serif" font-size="6.5" lengthAdjust="spacing" textLength="84" x="57" y="595.146">inputs requested data(option)</text><path d="M5,605.0234 L35.5,605.0234 L35.5,608.2852 L30.5,613.2852 L5,613.2852 L5,605.0234 " fill="#EEEEEE" style="stroke:#000000;stroke-width:0.75;"/><rect fill="none" height="238.4766" style="stroke:#000000;stroke-width:0.75;" width="1558.25" x="5" y="605.0234"/><text fill="#000000" font-family="sans-serif" font-size="6.5" font-weight="bold" lengthAdjust="spacing" textLength="8" x="12.5" y="611.4077">alt</text><text fill="#000000" font-family="sans-serif" font-size="5.5" font-weight="bold" lengthAdjust="spacing" textLength="44" x="43" y="611.0024">[if option == "Y"]</text><path d="M10,616.7852 L40.5,616.7852 L40.5,620.0469 L35.5,625.0469 L10,625.0469 L10,616.7852 " fill="#EEEEEE" style="stroke:#000000;stroke-width:0.75;"/><rect fill="none" height="72.4531" style="stroke:#000000;stroke-width:0.75;" width="302" x="10" y="616.7852"/><text fill="#000000" font-family="sans-serif" font-size="6.5" font-weight="bold" lengthAdjust="spacing" textLength="8" x="17.5" y="623.1694">alt</text><text fill="#000000" font-family="sans-serif" font-size="5.5" font-weight="bold" lengthAdjust="spacing" textLength="126.5" x="48" y="622.7642">[if RegressionModelOption == "SimpleLinear"]</text><polygon fill="#181818" points="50,633.3086,45,635.3086,50,637.3086,48,635.3086" style="stroke:#181818;stroke-width:0.5;"/><line style="stroke:#181818;stroke-width:0.5;stroke-dasharray:2.0,2.0;" x1="47" x2="278" y1="635.3086" y2="635.3086"/><text fill="#000000" font-family="sans-serif" font-size="6.5" font-weight="bold" lengthAdjust="spacing" textLength="7" x="53" y="632.9312">31</text><text fill="#000000" font-family="sans-serif" font-size="6.5" lengthAdjust="spacing" textLength="39.5" x="62" y="632.9312">requests data</text><polygon fill="#181818" points="270,647.5703,275,649.5703,270,651.5703,272,649.5703" style="stroke:#181818;stroke-width:0.5;"/><line style="stroke:#181818;stroke-width:0.5;" x1="44.5" x2="273" y1="649.5703" y2="649.5703"/><text fill="#000000" font-family="sans-serif" font-size="6.5" font-weight="bold" lengthAdjust="spacing" textLength="7" x="48" y="647.1929">32</text><text fill="#000000" font-family="sans-serif" font-size="6.5" lengthAdjust="spacing" textLength="95.5" x="57" y="647.1929">inputs requested data(parameter)</text><line style="stroke:#000000;stroke-width:0.5;stroke-dasharray:2.0,2.0;" x1="10" x2="312" y1="654.0703" y2="654.0703"/><text fill="#000000" font-family="sans-serif" font-size="5.5" font-weight="bold" lengthAdjust="spacing" textLength="134.5" x="12.5" y="659.0493">[else if RegressionModelOption == "MultiLinear"]</text><polygon fill="#181818" points="50,668.9766,45,670.9766,50,672.9766,48,670.9766" style="stroke:#181818;stroke-width:0.5;"/><line style="stroke:#181818;stroke-width:0.5;stroke-dasharray:2.0,2.0;" x1="47" x2="278" y1="670.9766" y2="670.9766"/><text fill="#000000" font-family="sans-serif" font-size="6.5" font-weight="bold" lengthAdjust="spacing" textLength="7" x="53" y="668.5991">33</text><text fill="#000000" font-family="sans-serif" font-size="6.5" lengthAdjust="spacing" textLength="39.5" x="62" y="668.5991">requests data</text><polygon fill="#181818" points="270,683.2383,275,685.2383,270,687.2383,272,685.2383" style="stroke:#181818;stroke-width:0.5;"/><line style="stroke:#181818;stroke-width:0.5;" x1="44.5" x2="273" y1="685.2383" y2="685.2383"/><text fill="#000000" font-family="sans-serif" font-size="6.5" font-weight="bold" lengthAdjust="spacing" textLength="7" x="48" y="682.8608">34</text><text fill="#000000" font-family="sans-serif" font-size="6.5" lengthAdjust="spacing" textLength="99" x="57" y="682.8608">inputs requested data(parameters)</text><path d="M245,696.2383 L275.5,696.2383 L275.5,699.5 L270.5,704.5 L245,704.5 L245,696.2383 " fill="#EEEEEE" style="stroke:#000000;stroke-width:0.75;"/><rect fill="none" height="129.5" style="stroke:#000000;stroke-width:0.75;" width="1313.25" x="245" y="696.2383"/><text fill="#000000" font-family="sans-serif" font-size="6.5" font-weight="bold" lengthAdjust="spacing" textLength="8" x="252.5" y="702.6226">alt</text><text fill="#000000" font-family="sans-serif" font-size="5.5" font-weight="bold" lengthAdjust="spacing" textLength="121" x="283" y="702.2173">[if RegressionModelOption == "MultiLinear"]</text><polygon fill="#181818" points="506,712.7617,511,714.7617,506,716.7617,508,714.7617" style="stroke:#181818;stroke-width:0.5;"/><line style="stroke:#181818;stroke-width:0.5;" x1="281" x2="509" y1="714.7617" y2="714.7617"/><text fill="#000000" font-family="sans-serif" font-size="6.5" font-weight="bold" lengthAdjust="spacing" textLength="7" x="284.5" y="712.3843">35</text><text fill="#000000" font-family="sans-serif" font-size="6.5" lengthAdjust="spacing" textLength="70" x="293.5" y="712.3843">predictMulti(parameters)</text><polygon fill="#181818" points="1471,727.0234,1476,729.0234,1471,731.0234,1473,729.0234" style="stroke:#181818;stroke-width:0.5;"/><line style="stroke:#181818;stroke-width:0.5;" x1="517" x2="1474" y1="729.0234" y2="729.0234"/><text fill="#000000" font-family="sans-serif" font-size="6.5" font-weight="bold" lengthAdjust="spacing" textLength="7" x="520.5" y="726.646">36</text><text fill="#000000" font-family="sans-serif" font-size="6.5" lengthAdjust="spacing" textLength="70" x="529.5" y="726.646">predictMulti(parameters)</text><polygon fill="#181818" points="522.5,741.2852,517.5,743.2852,522.5,745.2852,520.5,743.2852" style="stroke:#181818;stroke-width:0.5;"/><line style="stroke:#181818;stroke-width:0.5;stroke-dasharray:2.0,2.0;" x1="519.5" x2="1479" y1="743.2852" y2="743.2852"/><text fill="#000000" font-family="sans-serif" font-size="6.5" font-weight="bold" lengthAdjust="spacing" textLength="7" x="525.5" y="740.9077">37</text><text fill="#000000" font-family="sans-serif" font-size="6.5" lengthAdjust="spacing" textLength="28" x="534.5" y="740.9077">prediction</text><polygon fill="#181818" points="286.5,755.5469,281.5,757.5469,286.5,759.5469,284.5,757.5469" style="stroke:#181818;stroke-width:0.5;"/><line style="stroke:#181818;stroke-width:0.5;stroke-dasharray:2.0,2.0;" x1="283.5" x2="514" y1="757.5469" y2="757.5469"/><text fill="#000000" font-family="sans-serif" font-size="6.5" font-weight="bold" lengthAdjust="spacing" textLength="7" x="289.5" y="755.1694">38</text><text fill="#000000" font-family="sans-serif" font-size="6.5" lengthAdjust="spacing" textLength="28" x="298.5" y="755.1694">prediction</text><line style="stroke:#000000;stroke-width:0.5;stroke-dasharray:2.0,2.0;" x1="245" x2="1558.25" y1="762.0469" y2="762.0469"/><text fill="#000000" font-family="sans-serif" font-size="5.5" font-weight="bold" lengthAdjust="spacing" textLength="140" x="247.5" y="767.0259">[else if RegressionModelOption == "SimpleLinear"]</text><polygon fill="#181818" points="506,776.9531,511,778.9531,506,780.9531,508,778.9531" style="stroke:#181818;stroke-width:0.5;"/><line style="stroke:#181818;stroke-width:0.5;" x1="281" x2="509" y1="778.9531" y2="778.9531"/><text fill="#000000" font-family="sans-serif" font-size="6.5" font-weight="bold" lengthAdjust="spacing" textLength="7" x="284.5" y="776.5757">39</text><text fill="#000000" font-family="sans-serif" font-size="6.5" lengthAdjust="spacing" textLength="72.5" x="293.5" y="776.5757">predictSimple(parameter)</text><polygon fill="#181818" points="1520.75,791.2148,1525.75,793.2148,1520.75,795.2148,1522.75,793.2148" style="stroke:#181818;stroke-width:0.5;"/><line style="stroke:#181818;stroke-width:0.5;" x1="517" x2="1523.75" y1="793.2148" y2="793.2148"/><text fill="#000000" font-family="sans-serif" font-size="6.5" font-weight="bold" lengthAdjust="spacing" textLength="7" x="520.5" y="790.8374">40</text><text fill="#000000" font-family="sans-serif" font-size="6.5" lengthAdjust="spacing" textLength="72.5" x="529.5" y="790.8374">predictSimple(parameter)</text><polygon fill="#181818" points="522.5,805.4766,517.5,807.4766,522.5,809.4766,520.5,807.4766" style="stroke:#181818;stroke-width:0.5;"/><line style="stroke:#181818;stroke-width:0.5;stroke-dasharray:2.0,2.0;" x1="519.5" x2="1528.75" y1="807.4766" y2="807.4766"/><text fill="#000000" font-family="sans-serif" font-size="6.5" font-weight="bold" lengthAdjust="spacing" textLength="7" x="525.5" y="805.0991">41</text><text fill="#000000" font-family="sans-serif" font-size="6.5" lengthAdjust="spacing" textLength="28" x="534.5" y="805.0991">prediction</text><polygon fill="#181818" points="286.5,819.7383,281.5,821.7383,286.5,823.7383,284.5,821.7383" style="stroke:#181818;stroke-width:0.5;"/><line style="stroke:#181818;stroke-width:0.5;stroke-dasharray:2.0,2.0;" x1="283.5" x2="514" y1="821.7383" y2="821.7383"/><text fill="#000000" font-family="sans-serif" font-size="6.5" font-weight="bold" lengthAdjust="spacing" textLength="7" x="289.5" y="819.3608">42</text><text fill="#000000" font-family="sans-serif" font-size="6.5" lengthAdjust="spacing" textLength="28" x="298.5" y="819.3608">prediction</text><polygon fill="#181818" points="50,837.5,45,839.5,50,841.5,48,839.5" style="stroke:#181818;stroke-width:0.5;"/><line style="stroke:#181818;stroke-width:0.5;stroke-dasharray:2.0,2.0;" x1="47" x2="278" y1="839.5" y2="839.5"/><text fill="#000000" font-family="sans-serif" font-size="6.5" font-weight="bold" lengthAdjust="spacing" textLength="7" x="53" y="837.1226">43</text><text fill="#000000" font-family="sans-serif" font-size="6.5" lengthAdjust="spacing" textLength="28" x="62" y="837.1226">prediction</text><!--SRC=[lLPDRziu4BtpLn0-sKMysBqjWcs1eEu20HAai3Q71NnXfB7CXY9LaahWVxz3MfP8MfBj5brV4f7pvdiUnxnoMJFDAbefgVATLXLGgniWfhkfMVxAIiZiNW3La5icIn4Ac1qhr3kN9TqoOO0GoosAFcU___4dNTBdUvh1zmPa3dJ5MUaWyonRBGWXgC3odDTCMZhBhD907vb4Qtf6cQ4inwDOQ0LeuquoiJVSFDzxiUVx2PdFIbgjX6XLvjrdZ5b3gS4OhkGHE2bUDphVCGDFkW2zXbePZgxkD_Bhy8LNTbTY4lQn8jtPVMHr3NeZRzV9aSTM_jynxEgV9tfBr-6tHnLMfLaE3Ae2H6pFdNXWBrMvCq9OOvLigXVqWM1P-1kpqDQ7-3zq-ScL-XRHhuPQHPdF8uGfx81OCPH5H7_vuGDYSmruFNUjuGLGug3y5hjClMD7l34ks8llnAE7rBjew4PID5fq3XWGsArKII05XAPZVmzYgFf4PUGlOS9IlgM6LxM0fU0Ic0uX7Bjbfmp8rFE2crgmVPXKwYS7B6ZlzazuFQGpyXjaaJgatJWQ11jUIhxbENEpAU0DGvwoYGFV3AEc2el04cpIP9bbrioJNdogBVvxqmTo4zbQz6Q2dWeCdJVxjKlxBx2DezMEEmVZvwh_d1tSkPV6EdNpGDyaZ4mhNQOXXz9XBQUDN1t72Clzih16wFRo28_JgtoPwSUFxHmdeHyOkesnwvM_bSuUrlEkDO8eMqflSQT-Tpf2LriGaGe_D2ztbj3Wru4UkB6ELXXzuGMlGBfkPOBUQSts4SGPPLowDzZkS2Yvcswr3UqVHP4Fg3FiA1PP4-AiL8smt5rTcfX7JCnfFjplntBYw2goVHay6CepZ71ytbr_Q7kM1iprF92ydU73rgjTa6dK87tDnzqANkNqxKur3v16P6MiBtjdg9UZVeAmBP7BtU4x5u8MKBiIXZYySarvU1nF7zcJnWpAUhA6f5axh4KOWrMuywJL3AhLxa-jl4i1xaPXQHBeRvZzBzyR7zbd1LipNzpG0PcadHPOYS36I9fNk9O5KRQ-HMp68hs8TcJmrzFBDtprFyt807ngQ6BJX8oCJgB2F_gZNeSZDxAj1RNMXpYwJGTPfp5evnsNKh_tr1eAZeiFetbZhAhe6nFDo0wKB2JjFWC5BPXbymERBQAbv8J-P__EVEUr5-iX6l1ocU_o1x_kpRfc7Tked0ETKEpxyNHmfqf229wQ0DRlelxKi_UHmiS3U7IKVlJ_Vm_034VG3Zovh0PH226r3EoQRHzvoA0RaIj14wVlQR0GLRtzZGoTkThUkAf8ViBYSYHWp5Ma8YIJoumEJVzvvI4DND6LmsCrNTC3PcWuqj-v-axKsWIERMJavazvCgLu53tfpQMTCDOLF-BG5Jrolb-E9330HudEc8WSvZy0]--></g></svg>