<?xml version="1.0" encoding="us-ascii" standalone="no"?><svg xmlns="http://www.w3.org/2000/svg" xmlns:xlink="http://www.w3.org/1999/xlink" contentStyleType="text/css" height="1252px" preserveAspectRatio="none" style="width:1361px;height:1252px;background:#FFFFFF;" version="1.1" viewBox="0 0 1361 1252" width="1361px" zoomAndPan="magnify"><defs/><g><text fill="#000000" font-family="sans-serif" font-size="14" font-weight="bold" lengthAdjust="spacing" textLength="194" x="576.75" y="22.6738">US018 - Class Diagram (CD))</text><!--class DealsAnalysisUI--><g id="elem_DealsAnalysisUI"><rect codeLine="12" fill="#F1F1F1" height="110.5625" id="DealsAnalysisUI" rx="2.5" ry="2.5" style="stroke:#181818;stroke-width:0.5;" width="298" x="991" y="82.6406"/><ellipse cx="1085.75" cy="98.6406" fill="#ADD1B2" rx="11" ry="11" style="stroke:#181818;stroke-width:1.0;"/><path d="M1088.5156,94.5156 Q1088.6719,94.2969 1088.8594,94.1875 Q1089.0469,94.0781 1089.2656,94.0781 Q1089.6406,94.0781 1089.875,94.3438 Q1090.1094,94.5938 1090.1094,95.2031 L1090.1094,96.6563 Q1090.1094,97.2656 1089.875,97.5313 Q1089.6406,97.7969 1089.2656,97.7969 Q1088.9219,97.7969 1088.7188,97.5938 Q1088.5156,97.4063 1088.4063,96.8906 Q1088.3594,96.5313 1088.1719,96.3438 Q1087.8438,95.9688 1087.2344,95.75 Q1086.625,95.5313 1086,95.5313 Q1085.2344,95.5313 1084.5938,95.8594 Q1083.9688,96.1875 1083.4688,96.9375 Q1082.9844,97.6875 1082.9844,98.7188 L1082.9844,99.8125 Q1082.9844,101.0469 1083.875,101.875 Q1084.7656,102.6875 1086.3594,102.6875 Q1087.2969,102.6875 1087.9531,102.4375 Q1088.3438,102.2813 1088.7656,101.8438 Q1089.0313,101.5781 1089.1719,101.5 Q1089.3281,101.4219 1089.5313,101.4219 Q1089.8594,101.4219 1090.1094,101.6875 Q1090.375,101.9375 1090.375,102.2813 Q1090.375,102.625 1090.0313,103.0313 Q1089.5313,103.6094 1088.7344,103.9375 Q1087.6563,104.3906 1086.3594,104.3906 Q1084.8438,104.3906 1083.6406,103.7656 Q1082.6563,103.2656 1081.9688,102.2031 Q1081.2813,101.125 1081.2813,99.8438 L1081.2813,98.6875 Q1081.2813,97.3594 1081.8906,96.2188 Q1082.5156,95.0625 1083.6094,94.4531 Q1084.7031,93.8281 1085.9375,93.8281 Q1086.6719,93.8281 1087.3125,94 Q1087.9688,94.1563 1088.5156,94.5156 Z " fill="#000000"/><text fill="#000000" font-family="sans-serif" font-size="14" lengthAdjust="spacing" textLength="100" x="1106.25" y="103.4941">DealsAnalysisUI</text><line style="stroke:#181818;stroke-width:0.5;" x1="992" x2="1288" y1="114.6406" y2="114.6406"/><line style="stroke:#181818;stroke-width:0.5;" x1="992" x2="1288" y1="122.6406" y2="122.6406"/><text fill="#000000" font-family="sans-serif" font-size="14" lengthAdjust="spacing" textLength="58" x="997" y="139.3145">+create()</text><text fill="#000000" font-family="sans-serif" font-size="14" lengthAdjust="spacing" textLength="209" x="997" y="154.9551">+simpleLinearRegression(option)</text><text fill="#000000" font-family="sans-serif" font-size="14" lengthAdjust="spacing" textLength="159" x="997" y="170.5957">+multiLinearRegression()</text><text fill="#000000" font-family="sans-serif" font-size="14" lengthAdjust="spacing" textLength="286" x="997" y="186.2363">+showReport(valuesListDto, descriptiveStats)</text></g><!--class DealsAnalysisController--><g id="elem_DealsAnalysisController"><rect codeLine="19" fill="#F1F1F1" height="126.2031" id="DealsAnalysisController" rx="2.5" ry="2.5" style="stroke:#181818;stroke-width:0.5;" width="278" x="753" y="308.6406"/><ellipse cx="812.75" cy="324.6406" fill="#ADD1B2" rx="11" ry="11" style="stroke:#181818;stroke-width:1.0;"/><path d="M815.5156,320.5156 Q815.6719,320.2969 815.8594,320.1875 Q816.0469,320.0781 816.2656,320.0781 Q816.6406,320.0781 816.875,320.3438 Q817.1094,320.5938 817.1094,321.2031 L817.1094,322.6563 Q817.1094,323.2656 816.875,323.5313 Q816.6406,323.7969 816.2656,323.7969 Q815.9219,323.7969 815.7188,323.5938 Q815.5156,323.4063 815.4063,322.8906 Q815.3594,322.5313 815.1719,322.3438 Q814.8438,321.9688 814.2344,321.75 Q813.625,321.5313 813,321.5313 Q812.2344,321.5313 811.5938,321.8594 Q810.9688,322.1875 810.4688,322.9375 Q809.9844,323.6875 809.9844,324.7188 L809.9844,325.8125 Q809.9844,327.0469 810.875,327.875 Q811.7656,328.6875 813.3594,328.6875 Q814.2969,328.6875 814.9531,328.4375 Q815.3438,328.2813 815.7656,327.8438 Q816.0313,327.5781 816.1719,327.5 Q816.3281,327.4219 816.5313,327.4219 Q816.8594,327.4219 817.1094,327.6875 Q817.375,327.9375 817.375,328.2813 Q817.375,328.625 817.0313,329.0313 Q816.5313,329.6094 815.7344,329.9375 Q814.6563,330.3906 813.3594,330.3906 Q811.8438,330.3906 810.6406,329.7656 Q809.6563,329.2656 808.9688,328.2031 Q808.2813,327.125 808.2813,325.8438 L808.2813,324.6875 Q808.2813,323.3594 808.8906,322.2188 Q809.5156,321.0625 810.6094,320.4531 Q811.7031,319.8281 812.9375,319.8281 Q813.6719,319.8281 814.3125,320 Q814.9688,320.1563 815.5156,320.5156 Z " fill="#000000"/><text fill="#000000" font-family="sans-serif" font-size="14" lengthAdjust="spacing" textLength="150" x="833.25" y="329.4941">DealsAnalysisController</text><line style="stroke:#181818;stroke-width:0.5;" x1="754" x2="1030" y1="340.6406" y2="340.6406"/><line style="stroke:#181818;stroke-width:0.5;" x1="754" x2="1030" y1="348.6406" y2="348.6406"/><text fill="#000000" font-family="sans-serif" font-size="14" lengthAdjust="spacing" textLength="58" x="759" y="365.3145">+create()</text><text fill="#000000" font-family="sans-serif" font-size="14" lengthAdjust="spacing" textLength="209" x="759" y="380.9551">+simpleLinearRegression(option)</text><text fill="#000000" font-family="sans-serif" font-size="14" lengthAdjust="spacing" textLength="159" x="759" y="396.5957">+multiLinearRegression()</text><text fill="#000000" font-family="sans-serif" font-size="14" lengthAdjust="spacing" textLength="266" x="759" y="412.2363">+receiveDescriptiveStats(descriptiveStats)</text><text fill="#000000" font-family="sans-serif" font-size="14" lengthAdjust="spacing" textLength="236" x="759" y="427.877">+receiveValuesListDto(valuesListDto)</text></g><!--class PurchaseOrderRepository--><g id="elem_PurchaseOrderRepository"><rect codeLine="27" fill="#F1F1F1" height="173.125" id="PurchaseOrderRepository" rx="2.5" ry="2.5" style="stroke:#181818;stroke-width:0.5;" width="458" x="7" y="510.6406"/><ellipse cx="149.25" cy="526.6406" fill="#ADD1B2" rx="11" ry="11" style="stroke:#181818;stroke-width:1.0;"/><path d="M152.0156,522.5156 Q152.1719,522.2969 152.3594,522.1875 Q152.5469,522.0781 152.7656,522.0781 Q153.1406,522.0781 153.375,522.3438 Q153.6094,522.5938 153.6094,523.2031 L153.6094,524.6563 Q153.6094,525.2656 153.375,525.5313 Q153.1406,525.7969 152.7656,525.7969 Q152.4219,525.7969 152.2188,525.5938 Q152.0156,525.4063 151.9063,524.8906 Q151.8594,524.5313 151.6719,524.3438 Q151.3438,523.9688 150.7344,523.75 Q150.125,523.5313 149.5,523.5313 Q148.7344,523.5313 148.0938,523.8594 Q147.4688,524.1875 146.9688,524.9375 Q146.4844,525.6875 146.4844,526.7188 L146.4844,527.8125 Q146.4844,529.0469 147.375,529.875 Q148.2656,530.6875 149.8594,530.6875 Q150.7969,530.6875 151.4531,530.4375 Q151.8438,530.2813 152.2656,529.8438 Q152.5313,529.5781 152.6719,529.5 Q152.8281,529.4219 153.0313,529.4219 Q153.3594,529.4219 153.6094,529.6875 Q153.875,529.9375 153.875,530.2813 Q153.875,530.625 153.5313,531.0313 Q153.0313,531.6094 152.2344,531.9375 Q151.1563,532.3906 149.8594,532.3906 Q148.3438,532.3906 147.1406,531.7656 Q146.1563,531.2656 145.4688,530.2031 Q144.7813,529.125 144.7813,527.8438 L144.7813,526.6875 Q144.7813,525.3594 145.3906,524.2188 Q146.0156,523.0625 147.1094,522.4531 Q148.2031,521.8281 149.4375,521.8281 Q150.1719,521.8281 150.8125,522 Q151.4688,522.1563 152.0156,522.5156 Z " fill="#000000"/><text fill="#000000" font-family="sans-serif" font-size="14" lengthAdjust="spacing" textLength="165" x="169.75" y="531.4941">PurchaseOrderRepository</text><line style="stroke:#181818;stroke-width:0.5;" x1="8" x2="464" y1="542.6406" y2="542.6406"/><line style="stroke:#181818;stroke-width:0.5;" x1="8" x2="464" y1="550.6406" y2="550.6406"/><text fill="#000000" font-family="sans-serif" font-size="14" lengthAdjust="spacing" textLength="340" x="13" y="567.3145">+addPurchaseOrder(purchaseOrder: PurchaseOrder)</text><text fill="#000000" font-family="sans-serif" font-size="14" lengthAdjust="spacing" textLength="359" x="13" y="582.9551">+AcceptPurchaseOrder(purchaseOrder: PurchaseOrder)</text><text fill="#000000" font-family="sans-serif" font-size="14" lengthAdjust="spacing" textLength="354" x="13" y="598.5957">+removeAllPurchaseOrdersByPropertyID(propertyId: int)</text><text fill="#000000" font-family="sans-serif" font-size="14" lengthAdjust="spacing" textLength="435" x="13" y="614.2363">+getPurchaseOrder(n: int, purchaseOrderList: List&lt;PurchaseOrder&gt;)</text><text fill="#000000" font-family="sans-serif" font-size="14" lengthAdjust="spacing" textLength="446" x="13" y="629.877">+numberOfPurchaseOrders(purchaseOrderList: List&lt;PurchaseOrder&gt;)</text><text fill="#000000" font-family="sans-serif" font-size="14" lengthAdjust="spacing" textLength="389" x="13" y="645.5176">+checkPurchaseOrderExists(purchaseOrder: PurchaseOrder)</text><text fill="#000000" font-family="sans-serif" font-size="14" lengthAdjust="spacing" textLength="337" x="13" y="661.1582">+checkUserPurchaseOrderExists(email: String, id: int)</text><text fill="#000000" font-family="sans-serif" font-size="14" lengthAdjust="spacing" textLength="220" x="13" y="676.7988">+getPurchaseOrders(Orders : List)</text></g><!--class Announcements--><g id="elem_Announcements"><rect codeLine="39" fill="#F1F1F1" height="94.9219" id="Announcements" rx="2.5" ry="2.5" style="stroke:#181818;stroke-width:0.5;" width="219" x="782.5" y="549.6406"/><ellipse cx="836.75" cy="565.6406" fill="#ADD1B2" rx="11" ry="11" style="stroke:#181818;stroke-width:1.0;"/><path d="M839.5156,561.5156 Q839.6719,561.2969 839.8594,561.1875 Q840.0469,561.0781 840.2656,561.0781 Q840.6406,561.0781 840.875,561.3438 Q841.1094,561.5938 841.1094,562.2031 L841.1094,563.6563 Q841.1094,564.2656 840.875,564.5313 Q840.6406,564.7969 840.2656,564.7969 Q839.9219,564.7969 839.7188,564.5938 Q839.5156,564.4063 839.4063,563.8906 Q839.3594,563.5313 839.1719,563.3438 Q838.8438,562.9688 838.2344,562.75 Q837.625,562.5313 837,562.5313 Q836.2344,562.5313 835.5938,562.8594 Q834.9688,563.1875 834.4688,563.9375 Q833.9844,564.6875 833.9844,565.7188 L833.9844,566.8125 Q833.9844,568.0469 834.875,568.875 Q835.7656,569.6875 837.3594,569.6875 Q838.2969,569.6875 838.9531,569.4375 Q839.3438,569.2813 839.7656,568.8438 Q840.0313,568.5781 840.1719,568.5 Q840.3281,568.4219 840.5313,568.4219 Q840.8594,568.4219 841.1094,568.6875 Q841.375,568.9375 841.375,569.2813 Q841.375,569.625 841.0313,570.0313 Q840.5313,570.6094 839.7344,570.9375 Q838.6563,571.3906 837.3594,571.3906 Q835.8438,571.3906 834.6406,570.7656 Q833.6563,570.2656 832.9688,569.2031 Q832.2813,568.125 832.2813,566.8438 L832.2813,565.6875 Q832.2813,564.3594 832.8906,563.2188 Q833.5156,562.0625 834.6094,561.4531 Q835.7031,560.8281 836.9375,560.8281 Q837.6719,560.8281 838.3125,561 Q838.9688,561.1563 839.5156,561.5156 Z " fill="#000000"/><text fill="#000000" font-family="sans-serif" font-size="14" lengthAdjust="spacing" textLength="102" x="857.25" y="570.4941">Announcements</text><line style="stroke:#181818;stroke-width:0.5;" x1="783.5" x2="1000.5" y1="581.6406" y2="581.6406"/><line style="stroke:#181818;stroke-width:0.5;" x1="783.5" x2="1000.5" y1="589.6406" y2="589.6406"/><text fill="#000000" font-family="sans-serif" font-size="14" lengthAdjust="spacing" textLength="207" x="788.5" y="606.3145">+getSimpleParameterList(option)</text><text fill="#000000" font-family="sans-serif" font-size="14" lengthAdjust="spacing" textLength="141" x="788.5" y="621.9551">+getAllParameterList()</text><text fill="#000000" font-family="sans-serif" font-size="14" lengthAdjust="spacing" textLength="176" x="788.5" y="637.5957">+getAnnouncementValues()</text></g><!--class RegressionMapper--><g id="elem_RegressionMapper"><rect codeLine="45" fill="#F1F1F1" height="63.6406" id="RegressionMapper" rx="2.5" ry="2.5" style="stroke:#181818;stroke-width:0.5;" width="189" x="1036.5" y="565.1406"/><ellipse cx="1068.15" cy="581.1406" fill="#ADD1B2" rx="11" ry="11" style="stroke:#181818;stroke-width:1.0;"/><path d="M1070.9156,577.0156 Q1071.0719,576.7969 1071.2594,576.6875 Q1071.4469,576.5781 1071.6656,576.5781 Q1072.0406,576.5781 1072.275,576.8438 Q1072.5094,577.0938 1072.5094,577.7031 L1072.5094,579.1563 Q1072.5094,579.7656 1072.275,580.0313 Q1072.0406,580.2969 1071.6656,580.2969 Q1071.3219,580.2969 1071.1188,580.0938 Q1070.9156,579.9063 1070.8063,579.3906 Q1070.7594,579.0313 1070.5719,578.8438 Q1070.2438,578.4688 1069.6344,578.25 Q1069.025,578.0313 1068.4,578.0313 Q1067.6344,578.0313 1066.9938,578.3594 Q1066.3688,578.6875 1065.8688,579.4375 Q1065.3844,580.1875 1065.3844,581.2188 L1065.3844,582.3125 Q1065.3844,583.5469 1066.275,584.375 Q1067.1656,585.1875 1068.7594,585.1875 Q1069.6969,585.1875 1070.3531,584.9375 Q1070.7438,584.7813 1071.1656,584.3438 Q1071.4313,584.0781 1071.5719,584 Q1071.7281,583.9219 1071.9313,583.9219 Q1072.2594,583.9219 1072.5094,584.1875 Q1072.775,584.4375 1072.775,584.7813 Q1072.775,585.125 1072.4313,585.5313 Q1071.9313,586.1094 1071.1344,586.4375 Q1070.0563,586.8906 1068.7594,586.8906 Q1067.2438,586.8906 1066.0406,586.2656 Q1065.0563,585.7656 1064.3688,584.7031 Q1063.6813,583.625 1063.6813,582.3438 L1063.6813,581.1875 Q1063.6813,579.8594 1064.2906,578.7188 Q1064.9156,577.5625 1066.0094,576.9531 Q1067.1031,576.3281 1068.3375,576.3281 Q1069.0719,576.3281 1069.7125,576.5 Q1070.3688,576.6563 1070.9156,577.0156 Z " fill="#000000"/><text fill="#000000" font-family="sans-serif" font-size="14" lengthAdjust="spacing" textLength="120" x="1085.85" y="585.9941">RegressionMapper</text><line style="stroke:#181818;stroke-width:0.5;" x1="1037.5" x2="1224.5" y1="597.1406" y2="597.1406"/><line style="stroke:#181818;stroke-width:0.5;" x1="1037.5" x2="1224.5" y1="605.1406" y2="605.1406"/><text fill="#000000" font-family="sans-serif" font-size="14" lengthAdjust="spacing" textLength="177" x="1042.5" y="621.8145">+toDTO(report, coefficients)</text></g><!--class RegressionDTO--><g id="elem_RegressionDTO"><rect codeLine="49" fill="#F1F1F1" height="79.2813" id="RegressionDTO" rx="2.5" ry="2.5" style="stroke:#181818;stroke-width:0.5;" width="151" x="1203.5" y="744.6406"/><ellipse cx="1226.15" cy="760.6406" fill="#ADD1B2" rx="11" ry="11" style="stroke:#181818;stroke-width:1.0;"/><path d="M1228.9156,756.5156 Q1229.0719,756.2969 1229.2594,756.1875 Q1229.4469,756.0781 1229.6656,756.0781 Q1230.0406,756.0781 1230.275,756.3438 Q1230.5094,756.5938 1230.5094,757.2031 L1230.5094,758.6563 Q1230.5094,759.2656 1230.275,759.5313 Q1230.0406,759.7969 1229.6656,759.7969 Q1229.3219,759.7969 1229.1188,759.5938 Q1228.9156,759.4063 1228.8063,758.8906 Q1228.7594,758.5313 1228.5719,758.3438 Q1228.2438,757.9688 1227.6344,757.75 Q1227.025,757.5313 1226.4,757.5313 Q1225.6344,757.5313 1224.9938,757.8594 Q1224.3688,758.1875 1223.8688,758.9375 Q1223.3844,759.6875 1223.3844,760.7188 L1223.3844,761.8125 Q1223.3844,763.0469 1224.275,763.875 Q1225.1656,764.6875 1226.7594,764.6875 Q1227.6969,764.6875 1228.3531,764.4375 Q1228.7438,764.2813 1229.1656,763.8438 Q1229.4313,763.5781 1229.5719,763.5 Q1229.7281,763.4219 1229.9313,763.4219 Q1230.2594,763.4219 1230.5094,763.6875 Q1230.775,763.9375 1230.775,764.2813 Q1230.775,764.625 1230.4313,765.0313 Q1229.9313,765.6094 1229.1344,765.9375 Q1228.0563,766.3906 1226.7594,766.3906 Q1225.2438,766.3906 1224.0406,765.7656 Q1223.0563,765.2656 1222.3688,764.2031 Q1221.6813,763.125 1221.6813,761.8438 L1221.6813,760.6875 Q1221.6813,759.3594 1222.2906,758.2188 Q1222.9156,757.0625 1224.0094,756.4531 Q1225.1031,755.8281 1226.3375,755.8281 Q1227.0719,755.8281 1227.7125,756 Q1228.3688,756.1563 1228.9156,756.5156 Z " fill="#000000"/><text fill="#000000" font-family="sans-serif" font-size="14" lengthAdjust="spacing" textLength="102" x="1241.85" y="765.4941">RegressionDTO</text><line style="stroke:#181818;stroke-width:0.5;" x1="1204.5" x2="1353.5" y1="776.6406" y2="776.6406"/><text fill="#000000" font-family="sans-serif" font-size="14" lengthAdjust="spacing" textLength="92" x="1209.5" y="793.3145">-report : String</text><text fill="#000000" font-family="sans-serif" font-size="14" lengthAdjust="spacing" textLength="139" x="1209.5" y="808.9551">-coefficients[] : double</text><line style="stroke:#181818;stroke-width:0.5;" x1="1204.5" x2="1353.5" y1="815.9219" y2="815.9219"/></g><!--class SimpleLinear--><g id="elem_SimpleLinear"><rect codeLine="54" fill="#F1F1F1" height="360.8125" id="SimpleLinear" rx="2.5" ry="2.5" style="stroke:#181818;stroke-width:0.5;" width="259" x="622.5" y="884.6406"/><ellipse cx="706.75" cy="900.6406" fill="#ADD1B2" rx="11" ry="11" style="stroke:#181818;stroke-width:1.0;"/><path d="M709.5156,896.5156 Q709.6719,896.2969 709.8594,896.1875 Q710.0469,896.0781 710.2656,896.0781 Q710.6406,896.0781 710.875,896.3438 Q711.1094,896.5938 711.1094,897.2031 L711.1094,898.6563 Q711.1094,899.2656 710.875,899.5313 Q710.6406,899.7969 710.2656,899.7969 Q709.9219,899.7969 709.7188,899.5938 Q709.5156,899.4063 709.4063,898.8906 Q709.3594,898.5313 709.1719,898.3438 Q708.8438,897.9688 708.2344,897.75 Q707.625,897.5313 707,897.5313 Q706.2344,897.5313 705.5938,897.8594 Q704.9688,898.1875 704.4688,898.9375 Q703.9844,899.6875 703.9844,900.7188 L703.9844,901.8125 Q703.9844,903.0469 704.875,903.875 Q705.7656,904.6875 707.3594,904.6875 Q708.2969,904.6875 708.9531,904.4375 Q709.3438,904.2813 709.7656,903.8438 Q710.0313,903.5781 710.1719,903.5 Q710.3281,903.4219 710.5313,903.4219 Q710.8594,903.4219 711.1094,903.6875 Q711.375,903.9375 711.375,904.2813 Q711.375,904.625 711.0313,905.0313 Q710.5313,905.6094 709.7344,905.9375 Q708.6563,906.3906 707.3594,906.3906 Q705.8438,906.3906 704.6406,905.7656 Q703.6563,905.2656 702.9688,904.2031 Q702.2813,903.125 702.2813,901.8438 L702.2813,900.6875 Q702.2813,899.3594 702.8906,898.2188 Q703.5156,897.0625 704.6094,896.4531 Q705.7031,895.8281 706.9375,895.8281 Q707.6719,895.8281 708.3125,896 Q708.9688,896.1563 709.5156,896.5156 Z " fill="#000000"/><text fill="#000000" font-family="sans-serif" font-size="14" lengthAdjust="spacing" textLength="82" x="727.25" y="905.4941">SimpleLinear</text><line style="stroke:#181818;stroke-width:0.5;" x1="623.5" x2="880.5" y1="916.6406" y2="916.6406"/><text fill="#000000" font-family="sans-serif" font-size="14" lengthAdjust="spacing" textLength="194" x="628.5" y="933.3145">-regression: SimpleRegression</text><text fill="#000000" font-family="sans-serif" font-size="14" lengthAdjust="spacing" textLength="36" x="628.5" y="948.9551">-n: int</text><text fill="#000000" font-family="sans-serif" font-size="14" lengthAdjust="spacing" textLength="77" x="628.5" y="964.5957">-Sxx: double</text><text fill="#000000" font-family="sans-serif" font-size="14" lengthAdjust="spacing" textLength="79" x="628.5" y="980.2363">-Syy: double</text><text fill="#000000" font-family="sans-serif" font-size="14" lengthAdjust="spacing" textLength="78" x="628.5" y="995.877">-Sxy: double</text><text fill="#000000" font-family="sans-serif" font-size="14" lengthAdjust="spacing" textLength="74" x="628.5" y="1011.5176">-SE: double</text><text fill="#000000" font-family="sans-serif" font-size="14" lengthAdjust="spacing" textLength="75" x="628.5" y="1027.1582">-SR: double</text><text fill="#000000" font-family="sans-serif" font-size="14" lengthAdjust="spacing" textLength="87" x="628.5" y="1042.7988">-avgX: double</text><text fill="#000000" font-family="sans-serif" font-size="14" lengthAdjust="spacing" textLength="88" x="628.5" y="1058.4395">-avgY: double</text><text fill="#000000" font-family="sans-serif" font-size="14" lengthAdjust="spacing" textLength="90" x="628.5" y="1074.0801">-slope: double</text><text fill="#000000" font-family="sans-serif" font-size="14" lengthAdjust="spacing" textLength="111" x="628.5" y="1089.7207">-intercept: double</text><text fill="#000000" font-family="sans-serif" font-size="14" lengthAdjust="spacing" textLength="110" x="628.5" y="1105.3613">-squareR: double</text><line style="stroke:#181818;stroke-width:0.5;" x1="623.5" x2="880.5" y1="1112.3281" y2="1112.3281"/><text fill="#000000" font-family="sans-serif" font-size="14" lengthAdjust="spacing" textLength="171" x="628.5" y="1129.002">+getCoefficients(): double[]</text><text fill="#000000" font-family="sans-serif" font-size="14" lengthAdjust="spacing" textLength="112" x="628.5" y="1144.6426">+toString(): String</text><text fill="#000000" font-family="sans-serif" font-size="14" lengthAdjust="spacing" textLength="171" x="628.5" y="1160.2832">+anovaSingificanceModel()</text><text fill="#000000" font-family="sans-serif" font-size="14" lengthAdjust="spacing" textLength="247" x="628.5" y="1175.9238">+calculateInterceptConfidenceInterval()</text><text fill="#000000" font-family="sans-serif" font-size="14" lengthAdjust="spacing" textLength="228" x="628.5" y="1191.5645">+calculateSlopeConfidenceInterval()</text><text fill="#000000" font-family="sans-serif" font-size="14" lengthAdjust="spacing" textLength="226" x="628.5" y="1207.2051">+calculateInterceptHyopthesisTest()</text><text fill="#000000" font-family="sans-serif" font-size="14" lengthAdjust="spacing" textLength="207" x="628.5" y="1222.8457">+calculateSlopeHyopthesisTest()</text><text fill="#000000" font-family="sans-serif" font-size="14" lengthAdjust="spacing" textLength="170" x="628.5" y="1238.4863">+generateAnalysisReport()</text></g><!--class <<Interface>>\n RegressionModel--><g id="elem_&lt;&lt;Interface&gt;&gt;\n RegressionModel"><rect codeLine="78" fill="#F1F1F1" height="72.9219" id="&lt;&lt;Interface&gt;&gt;\n RegressionModel" rx="2.5" ry="2.5" style="stroke:#181818;stroke-width:0.5;" width="247" x="500.5" y="560.6406"/><ellipse cx="562.25" cy="581.2813" fill="#B4A7E5" rx="11" ry="11" style="stroke:#181818;stroke-width:1.0;"/><path d="M563.2031,577.9219 L563.2031,584.5781 L564.9219,584.5781 Q565.5313,584.5781 565.7969,584.8125 Q566.0625,585.0469 566.0625,585.4375 Q566.0625,585.8125 565.7969,586.0469 Q565.5313,586.2813 564.9219,586.2813 L559.7813,586.2813 Q559.1719,586.2813 558.9063,586.0469 Q558.6406,585.8125 558.6406,585.4219 Q558.6406,585.0469 558.9063,584.8125 Q559.1719,584.5781 559.7813,584.5781 L561.5,584.5781 L561.5,577.9219 L559.7813,577.9219 Q559.1719,577.9219 558.9063,577.6875 Q558.6406,577.4531 558.6406,577.0625 Q558.6406,576.6875 558.9063,576.4531 Q559.1719,576.2188 559.7813,576.2188 L564.9219,576.2188 Q565.5313,576.2188 565.7969,576.4531 Q566.0625,576.6875 566.0625,577.0625 Q566.0625,577.4531 565.7969,577.6875 Q565.5313,577.9219 564.9219,577.9219 L563.2031,577.9219 Z " fill="#000000"/><text fill="#000000" font-family="sans-serif" font-size="14" font-style="italic" lengthAdjust="spacing" textLength="72" x="604.25" y="578.3145">&#171;Interface&#187;</text><text fill="#000000" font-family="sans-serif" font-size="14" font-style="italic" lengthAdjust="spacing" textLength="111" x="586.75" y="593.9551">RegressionModel</text><line style="stroke:#181818;stroke-width:0.5;" x1="501.5" x2="746.5" y1="601.9219" y2="601.9219"/><line style="stroke:#181818;stroke-width:0.5;" x1="501.5" x2="746.5" y1="609.9219" y2="609.9219"/><text fill="#000000" font-family="sans-serif" font-size="14" lengthAdjust="spacing" textLength="235" x="506.5" y="626.5957">+getRegressionModel(parameterList)</text></g><!--class SimpleLinearRegression--><g id="elem_SimpleLinearRegression"><rect codeLine="82" fill="#F1F1F1" height="63.6406" id="SimpleLinearRegression" rx="2.5" ry="2.5" style="stroke:#181818;stroke-width:0.5;" width="247" x="622.5" y="752.1406"/><ellipse cx="664.95" cy="768.1406" fill="#ADD1B2" rx="11" ry="11" style="stroke:#181818;stroke-width:1.0;"/><path d="M667.7156,764.0156 Q667.8719,763.7969 668.0594,763.6875 Q668.2469,763.5781 668.4656,763.5781 Q668.8406,763.5781 669.075,763.8438 Q669.3094,764.0938 669.3094,764.7031 L669.3094,766.1563 Q669.3094,766.7656 669.075,767.0313 Q668.8406,767.2969 668.4656,767.2969 Q668.1219,767.2969 667.9188,767.0938 Q667.7156,766.9063 667.6063,766.3906 Q667.5594,766.0313 667.3719,765.8438 Q667.0438,765.4688 666.4344,765.25 Q665.825,765.0313 665.2,765.0313 Q664.4344,765.0313 663.7938,765.3594 Q663.1688,765.6875 662.6688,766.4375 Q662.1844,767.1875 662.1844,768.2188 L662.1844,769.3125 Q662.1844,770.5469 663.075,771.375 Q663.9656,772.1875 665.5594,772.1875 Q666.4969,772.1875 667.1531,771.9375 Q667.5438,771.7813 667.9656,771.3438 Q668.2313,771.0781 668.3719,771 Q668.5281,770.9219 668.7313,770.9219 Q669.0594,770.9219 669.3094,771.1875 Q669.575,771.4375 669.575,771.7813 Q669.575,772.125 669.2313,772.5313 Q668.7313,773.1094 667.9344,773.4375 Q666.8563,773.8906 665.5594,773.8906 Q664.0438,773.8906 662.8406,773.2656 Q661.8563,772.7656 661.1688,771.7031 Q660.4813,770.625 660.4813,769.3438 L660.4813,768.1875 Q660.4813,766.8594 661.0906,765.7188 Q661.7156,764.5625 662.8094,763.9531 Q663.9031,763.3281 665.1375,763.3281 Q665.8719,763.3281 666.5125,763.5 Q667.1688,763.6563 667.7156,764.0156 Z " fill="#000000"/><text fill="#000000" font-family="sans-serif" font-size="14" lengthAdjust="spacing" textLength="154" x="685.05" y="772.9941">SimpleLinearRegression</text><line style="stroke:#181818;stroke-width:0.5;" x1="623.5" x2="868.5" y1="784.1406" y2="784.1406"/><line style="stroke:#181818;stroke-width:0.5;" x1="623.5" x2="868.5" y1="792.1406" y2="792.1406"/><text fill="#000000" font-family="sans-serif" font-size="14" lengthAdjust="spacing" textLength="235" x="628.5" y="808.8145">+getRegressionModel(parameterList)</text></g><!--class MultiLinearRegression--><g id="elem_MultiLinearRegression"><rect codeLine="86" fill="#F1F1F1" height="63.6406" id="MultiLinearRegression" rx="2.5" ry="2.5" style="stroke:#181818;stroke-width:0.5;" width="247" x="329.5" y="752.1406"/><ellipse cx="378.25" cy="768.1406" fill="#ADD1B2" rx="11" ry="11" style="stroke:#181818;stroke-width:1.0;"/><path d="M381.0156,764.0156 Q381.1719,763.7969 381.3594,763.6875 Q381.5469,763.5781 381.7656,763.5781 Q382.1406,763.5781 382.375,763.8438 Q382.6094,764.0938 382.6094,764.7031 L382.6094,766.1563 Q382.6094,766.7656 382.375,767.0313 Q382.1406,767.2969 381.7656,767.2969 Q381.4219,767.2969 381.2188,767.0938 Q381.0156,766.9063 380.9063,766.3906 Q380.8594,766.0313 380.6719,765.8438 Q380.3438,765.4688 379.7344,765.25 Q379.125,765.0313 378.5,765.0313 Q377.7344,765.0313 377.0938,765.3594 Q376.4688,765.6875 375.9688,766.4375 Q375.4844,767.1875 375.4844,768.2188 L375.4844,769.3125 Q375.4844,770.5469 376.375,771.375 Q377.2656,772.1875 378.8594,772.1875 Q379.7969,772.1875 380.4531,771.9375 Q380.8438,771.7813 381.2656,771.3438 Q381.5313,771.0781 381.6719,771 Q381.8281,770.9219 382.0313,770.9219 Q382.3594,770.9219 382.6094,771.1875 Q382.875,771.4375 382.875,771.7813 Q382.875,772.125 382.5313,772.5313 Q382.0313,773.1094 381.2344,773.4375 Q380.1563,773.8906 378.8594,773.8906 Q377.3438,773.8906 376.1406,773.2656 Q375.1563,772.7656 374.4688,771.7031 Q373.7813,770.625 373.7813,769.3438 L373.7813,768.1875 Q373.7813,766.8594 374.3906,765.7188 Q375.0156,764.5625 376.1094,763.9531 Q377.2031,763.3281 378.4375,763.3281 Q379.1719,763.3281 379.8125,763.5 Q380.4688,763.6563 381.0156,764.0156 Z " fill="#000000"/><text fill="#000000" font-family="sans-serif" font-size="14" lengthAdjust="spacing" textLength="141" x="398.75" y="772.9941">MultiLinearRegression</text><line style="stroke:#181818;stroke-width:0.5;" x1="330.5" x2="575.5" y1="784.1406" y2="784.1406"/><line style="stroke:#181818;stroke-width:0.5;" x1="330.5" x2="575.5" y1="792.1406" y2="792.1406"/><text fill="#000000" font-family="sans-serif" font-size="14" lengthAdjust="spacing" textLength="235" x="335.5" y="808.8145">+getRegressionModel(parameterList)</text></g><!--class MultiLinear--><g id="elem_MultiLinear"><rect codeLine="90" fill="#F1F1F1" height="313.8906" id="MultiLinear" rx="2.5" ry="2.5" style="stroke:#181818;stroke-width:0.5;" width="280" x="307" y="908.1406"/><ellipse cx="408.25" cy="924.1406" fill="#ADD1B2" rx="11" ry="11" style="stroke:#181818;stroke-width:1.0;"/><path d="M411.0156,920.0156 Q411.1719,919.7969 411.3594,919.6875 Q411.5469,919.5781 411.7656,919.5781 Q412.1406,919.5781 412.375,919.8438 Q412.6094,920.0938 412.6094,920.7031 L412.6094,922.1563 Q412.6094,922.7656 412.375,923.0313 Q412.1406,923.2969 411.7656,923.2969 Q411.4219,923.2969 411.2188,923.0938 Q411.0156,922.9063 410.9063,922.3906 Q410.8594,922.0313 410.6719,921.8438 Q410.3438,921.4688 409.7344,921.25 Q409.125,921.0313 408.5,921.0313 Q407.7344,921.0313 407.0938,921.3594 Q406.4688,921.6875 405.9688,922.4375 Q405.4844,923.1875 405.4844,924.2188 L405.4844,925.3125 Q405.4844,926.5469 406.375,927.375 Q407.2656,928.1875 408.8594,928.1875 Q409.7969,928.1875 410.4531,927.9375 Q410.8438,927.7813 411.2656,927.3438 Q411.5313,927.0781 411.6719,927 Q411.8281,926.9219 412.0313,926.9219 Q412.3594,926.9219 412.6094,927.1875 Q412.875,927.4375 412.875,927.7813 Q412.875,928.125 412.5313,928.5313 Q412.0313,929.1094 411.2344,929.4375 Q410.1563,929.8906 408.8594,929.8906 Q407.3438,929.8906 406.1406,929.2656 Q405.1563,928.7656 404.4688,927.7031 Q403.7813,926.625 403.7813,925.3438 L403.7813,924.1875 Q403.7813,922.8594 404.3906,921.7188 Q405.0156,920.5625 406.1094,919.9531 Q407.2031,919.3281 408.4375,919.3281 Q409.1719,919.3281 409.8125,919.5 Q410.4688,919.6563 411.0156,920.0156 Z " fill="#000000"/><text fill="#000000" font-family="sans-serif" font-size="14" lengthAdjust="spacing" textLength="69" x="428.75" y="928.9941">MultiLinear</text><line style="stroke:#181818;stroke-width:0.5;" x1="308" x2="586" y1="940.1406" y2="940.1406"/><text fill="#000000" font-family="sans-serif" font-size="14" lengthAdjust="spacing" textLength="268" x="313" y="956.8145">-regression: OLSMultipleLinearRegression</text><text fill="#000000" font-family="sans-serif" font-size="14" lengthAdjust="spacing" textLength="144" x="313" y="972.4551">-parameters: double[][]</text><text fill="#000000" font-family="sans-serif" font-size="14" lengthAdjust="spacing" textLength="36" x="313" y="988.0957">-n: int</text><text fill="#000000" font-family="sans-serif" font-size="14" lengthAdjust="spacing" textLength="73" x="313" y="1003.7363">-B: double[]</text><text fill="#000000" font-family="sans-serif" font-size="14" lengthAdjust="spacing" textLength="35" x="313" y="1019.377">-k: int</text><text fill="#000000" font-family="sans-serif" font-size="14" lengthAdjust="spacing" textLength="74" x="313" y="1035.0176">-SE: double</text><text fill="#000000" font-family="sans-serif" font-size="14" lengthAdjust="spacing" textLength="74" x="313" y="1050.6582">-ST: double</text><text fill="#000000" font-family="sans-serif" font-size="14" lengthAdjust="spacing" textLength="75" x="313" y="1066.2988">-SR: double</text><text fill="#000000" font-family="sans-serif" font-size="14" lengthAdjust="spacing" textLength="110" x="313" y="1081.9395">-squareR: double</text><text fill="#000000" font-family="sans-serif" font-size="14" lengthAdjust="spacing" textLength="165" x="313" y="1097.5801">-squareRAdjusted: double</text><text fill="#000000" font-family="sans-serif" font-size="14" lengthAdjust="spacing" textLength="176" x="313" y="1113.2207">-parametersStdErr: double[]</text><text fill="#000000" font-family="sans-serif" font-size="14" lengthAdjust="spacing" textLength="47" x="313" y="1128.8613">+getB()</text><line style="stroke:#181818;stroke-width:1.0;" x1="308" x2="586" y1="1135.8281" y2="1135.8281"/><text fill="#000000" font-family="sans-serif" font-size="14" lengthAdjust="spacing" textLength="67" x="313" y="1152.502">+toString()</text><text fill="#000000" font-family="sans-serif" font-size="14" lengthAdjust="spacing" textLength="171" x="313" y="1168.1426">+anovaSingificanceModel()</text><text fill="#000000" font-family="sans-serif" font-size="14" lengthAdjust="spacing" textLength="266" x="313" y="1183.7832">+calculateCoefficientCondifenceIntervals()</text><text fill="#000000" font-family="sans-serif" font-size="14" lengthAdjust="spacing" textLength="178" x="313" y="1199.4238">+calculateHypothesisTests()</text><text fill="#000000" font-family="sans-serif" font-size="14" lengthAdjust="spacing" textLength="170" x="313" y="1215.0645">+generateAnalysisReport()</text></g><!--class Repositories--><g id="elem_Repositories"><rect codeLine="111" fill="#F1F1F1" height="188.7656" id="Repositories" rx="2.5" ry="2.5" style="stroke:#181818;stroke-width:0.5;" width="215" x="540.5" y="43.6406"/><ellipse cx="604.25" cy="59.6406" fill="#ADD1B2" rx="11" ry="11" style="stroke:#181818;stroke-width:1.0;"/><path d="M607.0156,55.5156 Q607.1719,55.2969 607.3594,55.1875 Q607.5469,55.0781 607.7656,55.0781 Q608.1406,55.0781 608.375,55.3438 Q608.6094,55.5938 608.6094,56.2031 L608.6094,57.6563 Q608.6094,58.2656 608.375,58.5313 Q608.1406,58.7969 607.7656,58.7969 Q607.4219,58.7969 607.2188,58.5938 Q607.0156,58.4063 606.9063,57.8906 Q606.8594,57.5313 606.6719,57.3438 Q606.3438,56.9688 605.7344,56.75 Q605.125,56.5313 604.5,56.5313 Q603.7344,56.5313 603.0938,56.8594 Q602.4688,57.1875 601.9688,57.9375 Q601.4844,58.6875 601.4844,59.7188 L601.4844,60.8125 Q601.4844,62.0469 602.375,62.875 Q603.2656,63.6875 604.8594,63.6875 Q605.7969,63.6875 606.4531,63.4375 Q606.8438,63.2813 607.2656,62.8438 Q607.5313,62.5781 607.6719,62.5 Q607.8281,62.4219 608.0313,62.4219 Q608.3594,62.4219 608.6094,62.6875 Q608.875,62.9375 608.875,63.2813 Q608.875,63.625 608.5313,64.0313 Q608.0313,64.6094 607.2344,64.9375 Q606.1563,65.3906 604.8594,65.3906 Q603.3438,65.3906 602.1406,64.7656 Q601.1563,64.2656 600.4688,63.2031 Q599.7813,62.125 599.7813,60.8438 L599.7813,59.6875 Q599.7813,58.3594 600.3906,57.2188 Q601.0156,56.0625 602.1094,55.4531 Q603.2031,54.8281 604.4375,54.8281 Q605.1719,54.8281 605.8125,55 Q606.4688,55.1563 607.0156,55.5156 Z " fill="#000000"/><text fill="#000000" font-family="sans-serif" font-size="14" lengthAdjust="spacing" textLength="79" x="624.75" y="64.4941">Repositories</text><line style="stroke:#181818;stroke-width:0.5;" x1="541.5" x2="754.5" y1="75.6406" y2="75.6406"/><line style="stroke:#181818;stroke-width:0.5;" x1="541.5" x2="754.5" y1="83.6406" y2="83.6406"/><text fill="#000000" font-family="sans-serif" font-size="14" lengthAdjust="spacing" textLength="94" x="546.5" y="100.3145">-Repositories()</text><text fill="#000000" font-family="sans-serif" font-size="14" lengthAdjust="spacing" textLength="182" x="546.5" y="115.9551">+getInstance() : Repositories</text><text fill="#000000" font-family="sans-serif" font-size="14" lengthAdjust="spacing" textLength="147" x="546.5" y="131.5957">+getOwnerRepository()</text><text fill="#000000" font-family="sans-serif" font-size="14" lengthAdjust="spacing" textLength="168" x="546.5" y="147.2363">+getEmployeeRepository()</text><text fill="#000000" font-family="sans-serif" font-size="14" lengthAdjust="spacing" textLength="192" x="546.5" y="162.877">+getPropertyTypeRepository()</text><text fill="#000000" font-family="sans-serif" font-size="14" lengthAdjust="spacing" textLength="160" x="546.5" y="178.5176">+getPropertyRepository()</text><text fill="#000000" font-family="sans-serif" font-size="14" lengthAdjust="spacing" textLength="201" x="546.5" y="194.1582">+getAnnouncementRepository()</text><text fill="#000000" font-family="sans-serif" font-size="14" lengthAdjust="spacing" textLength="159" x="546.5" y="209.7988">+getRequestRepository()</text><text fill="#000000" font-family="sans-serif" font-size="14" lengthAdjust="spacing" textLength="203" x="546.5" y="225.4395">+getPurchaseOrderRepository()</text></g><!--reverse link <<Interface>>\n RegressionModel to SimpleLinearRegression--><g id="link_&lt;&lt;Interface&gt;&gt;\n RegressionModel_SimpleLinearRegression"><path d="M658.53,650.5106 C680.1,683.2006 707.13,724.2006 725.39,751.8906 " fill="none" id="&lt;&lt;Interface&gt;&gt;\n RegressionModel-backto-SimpleLinearRegression" style="stroke:#181818;stroke-width:1.0;stroke-dasharray:7.0,7.0;"/><polygon fill="none" points="652.69,654.3606,647.52,633.8106,664.38,646.6506,652.69,654.3606" style="stroke:#181818;stroke-width:1.0;"/></g><!--reverse link <<Interface>>\n RegressionModel to MultiLinearRegression--><g id="link_&lt;&lt;Interface&gt;&gt;\n RegressionModel_MultiLinearRegression"><path d="M577.26,648.7106 C546.77,681.6906 507.95,723.6906 481.89,751.8906 " fill="none" id="&lt;&lt;Interface&gt;&gt;\n RegressionModel-backto-MultiLinearRegression" style="stroke:#181818;stroke-width:1.0;stroke-dasharray:7.0,7.0;"/><polygon fill="none" points="572.31,643.7506,591.03,633.8106,582.59,653.2506,572.31,643.7506" style="stroke:#181818;stroke-width:1.0;"/></g><!--link Repositories to PurchaseOrderRepository--><g id="link_Repositories_PurchaseOrderRepository"><path codeLine="123" d="M563.63,232.7206 C491.33,312.9206 387.88,427.6706 316.66,506.6706 " fill="none" id="Repositories-to-PurchaseOrderRepository" style="stroke:#181818;stroke-width:1.0;"/><polygon fill="#181818" points="313.3,510.4006,322.3024,506.4059,316.6527,506.6913,316.3674,501.0416,313.3,510.4006" style="stroke:#181818;stroke-width:1.0;"/><text fill="#000000" font-family="sans-serif" font-size="13" lengthAdjust="spacing" textLength="147" x="491" y="376.4092">purchaseOrderRepository</text></g><!--reverse link Repositories to DealsAnalysisController--><g id="link_Repositories_DealsAnalysisController"><path codeLine="124" d="M750.67,236.5506 C776.36,260.9206 803.22,286.4106 826.54,308.5306 " fill="none" id="Repositories-backto-DealsAnalysisController" style="stroke:#181818;stroke-width:1.0;stroke-dasharray:7.0,7.0;"/><polygon fill="#181818" points="746.89,232.9706,750.6845,242.0592,750.5243,236.4046,756.1789,236.2443,746.89,232.9706" style="stroke:#181818;stroke-width:1.0;"/><text fill="#000000" font-family="sans-serif" font-size="13" lengthAdjust="spacing" textLength="67" x="793" y="275.4092">repositories</text></g><!--link Repositories to Repositories--><g id="link_Repositories_Repositories"><path codeLine="125" d="M755.51,114.5706 C776,117.3906 790.5,125.2506 790.5,138.1406 C790.5,149.9206 778.39,157.5006 760.65,160.8706 " fill="none" id="Repositories-to-Repositories" style="stroke:#181818;stroke-width:1.0;"/><polygon fill="#181818" points="755.51,161.7106,765.0335,164.2213,760.4458,160.9118,763.7553,156.3241,755.51,161.7106" style="stroke:#181818;stroke-width:1.0;"/><text fill="#000000" font-family="sans-serif" font-size="13" lengthAdjust="spacing" textLength="49" x="796.5" y="142.9092">instance</text></g><!--link DealsAnalysisController to PurchaseOrderRepository--><g id="link_DealsAnalysisController_PurchaseOrderRepository"><path codeLine="126" d="M752.66,417.4006 C707.11,432.2206 656.33,448.9406 610,464.6406 C564.62,480.0206 516.27,496.7506 469.92,512.9706 " fill="none" id="DealsAnalysisController-to-PurchaseOrderRepository" style="stroke:#181818;stroke-width:1.0;stroke-dasharray:7.0,7.0;"/><polygon fill="#181818" points="465.15,514.6406,474.9672,515.4297,469.8671,512.9825,472.3142,507.8824,465.15,514.6406" style="stroke:#181818;stroke-width:1.0;"/><text fill="#000000" font-family="sans-serif" font-size="13" lengthAdjust="spacing" textLength="147" x="611" y="477.4092">purchaseOrderRepository</text></g><!--link MultiLinearRegression to MultiLinear--><g id="link_MultiLinearRegression_MultiLinear"><path codeLine="127" d="M452.33,816.3306 C451.86,838.3306 451.18,869.6706 450.47,902.6806 " fill="none" id="MultiLinearRegression-to-MultiLinear" style="stroke:#181818;stroke-width:1.0;stroke-dasharray:7.0,7.0;"/><polygon fill="#181818" points="450.36,908.0006,454.5646,899.0944,450.4743,903.0019,446.5667,898.9116,450.36,908.0006" style="stroke:#181818;stroke-width:1.0;"/></g><!--link DealsAnalysisUI to DealsAnalysisController--><g id="link_DealsAnalysisUI_DealsAnalysisController"><path codeLine="128" d="M1081.54,193.7106 C1046.03,226.8606 1000.46,269.4006 962.9,304.4606 " fill="none" id="DealsAnalysisUI-to-DealsAnalysisController" style="stroke:#181818;stroke-width:1.0;stroke-dasharray:7.0,7.0;"/><polygon fill="#181818" points="958.83,308.2606,968.1383,305.0427,962.4848,304.8485,962.679,299.195,958.83,308.2606" style="stroke:#181818;stroke-width:1.0;"/></g><!--link DealsAnalysisController to Announcements--><g id="link_DealsAnalysisController_Announcements"><path codeLine="129" d="M892,434.9006 C892,469.3506 892,511.6706 892,544.3006 " fill="none" id="DealsAnalysisController-to-Announcements" style="stroke:#181818;stroke-width:1.0;stroke-dasharray:7.0,7.0;"/><polygon fill="#181818" points="892,549.4606,896,540.4606,892,544.4606,888,540.4606,892,549.4606" style="stroke:#181818;stroke-width:1.0;"/></g><!--link DealsAnalysisController to <<Interface>>\n RegressionModel--><g id="link_DealsAnalysisController_&lt;&lt;Interface&gt;&gt;\n RegressionModel"><path codeLine="130" d="M817.35,434.9006 C770.38,474.0606 711.23,523.3906 670.8,557.1106 " fill="none" id="DealsAnalysisController-to-&lt;&lt;Interface&gt;&gt;\n RegressionModel" style="stroke:#181818;stroke-width:1.0;stroke-dasharray:7.0,7.0;"/><polygon fill="#181818" points="666.95,560.3206,676.4208,557.618,670.7864,557.1141,671.2903,551.4797,666.95,560.3206" style="stroke:#181818;stroke-width:1.0;"/></g><!--link DealsAnalysisController to RegressionMapper--><g id="link_DealsAnalysisController_RegressionMapper"><path codeLine="131" d="M958.57,434.9006 C1002.29,475.7706 1057.84,527.7206 1093.89,561.4406 " fill="none" id="DealsAnalysisController-to-RegressionMapper" style="stroke:#181818;stroke-width:1.0;stroke-dasharray:7.0,7.0;"/><polygon fill="#181818" points="1097.75,565.0506,1093.9187,555.9775,1094.1019,561.6314,1088.448,561.8145,1097.75,565.0506" style="stroke:#181818;stroke-width:1.0;"/></g><!--link DealsAnalysisController to RegressionDTO--><g id="link_DealsAnalysisController_RegressionDTO"><path codeLine="132" d="M1031.41,392.7706 C1105.67,410.9406 1191.97,445.4006 1243,510.6406 C1294.66,576.6806 1292.36,680.4306 1285.84,739.0206 " fill="none" id="DealsAnalysisController-to-RegressionDTO" style="stroke:#181818;stroke-width:1.0;stroke-dasharray:7.0,7.0;"/><polygon fill="#181818" points="1285.24,744.2006,1290.2416,735.7163,1285.811,739.2333,1282.2939,734.8027,1285.24,744.2006" style="stroke:#181818;stroke-width:1.0;"/></g><!--link DealsAnalysisUI to RegressionDTO--><g id="link_DealsAnalysisUI_RegressionDTO"><path codeLine="133" d="M1168.08,193.8106 C1203.21,264.8306 1262.35,393.6106 1292,510.6406 C1314.4,599.0406 1335.34,625.9806 1314,714.6406 C1311.98,723.0306 1308.75,731.5406 1305.05,739.5906 " fill="none" id="DealsAnalysisUI-to-RegressionDTO" style="stroke:#181818;stroke-width:1.0;stroke-dasharray:7.0,7.0;"/><polygon fill="#181818" points="1302.7,744.5306,1310.1895,738.1347,1304.8558,740.0192,1302.9713,734.6855,1302.7,744.5306" style="stroke:#181818;stroke-width:1.0;"/></g><!--link RegressionMapper to RegressionDTO--><g id="link_RegressionMapper_RegressionDTO"><path codeLine="134" d="M1156.11,629.5206 C1180.51,660.0306 1217.77,706.6006 1244.86,740.4706 " fill="none" id="RegressionMapper-to-RegressionDTO" style="stroke:#181818;stroke-width:1.0;stroke-dasharray:7.0,7.0;"/><polygon fill="#181818" points="1248.12,744.5306,1245.6297,735.0018,1245,740.6235,1239.3783,739.9938,1248.12,744.5306" style="stroke:#181818;stroke-width:1.0;"/></g><!--link SimpleLinearRegression to SimpleLinear--><g id="link_SimpleLinearRegression_SimpleLinear"><path codeLine="135" d="M746.67,816.3306 C747.03,833.0606 747.51,855.1806 748.03,879.3406 " fill="none" id="SimpleLinearRegression-to-SimpleLinear" style="stroke:#181818;stroke-width:1.0;stroke-dasharray:7.0,7.0;"/><polygon fill="#181818" points="748.14,884.5206,751.9333,875.4316,748.0257,879.5219,743.9354,875.6144,748.14,884.5206" style="stroke:#181818;stroke-width:1.0;"/></g><!--SRC=[jLPBRziu4BxhLn2zL4RZe7ihZC204mUeWGGEegJOHTi3GurbRYXI9IadwcB_UqSlYvHa9odG799mvfi7H_CDvxrvv3AZcgOaLLAnhLOf4Ajp23fDHjaZJI2oXG2YWLag4-42p9R6wedBX6oeC12yxrI2Ix151YHJeYWFeqgbhGeSXqnGOnRMQlwGMrWn9IF-4yZ78B3SOXBtqSU_Ff4fkIXnPCbfKbg55yl990W2Lai1Srb8AWh3pVsA_1SG_Fd0D50BuQG-6Pvc0gum3wfl8T5W35SoL9d5FmqcpONb0qZhOAkURY732uGxAd8mLzpOfLKd90R3D4T7EwmSjMOI_3-QseMILYiXGF-X5F6B0IQnxEKJ3XDquL_Ss_XtSsvoasksfGRMEWPTri5mgtHHtUG3eN7i0SBCFSrywqbbic0CCljMAmsfsi5224zdpeiRhJBGjbWjmwpzDvuHBcrjc40lbgoK9yIBMTvxHihVPnvwNZkHUVe0UhtnWuTlSS6sm1uznUKpOiqhxbwPtXlGO-QGKYvc948coUI4y6DtDs7zXzHvLb-v-SmBALKk6QGWhMdR5EsZgZTlIiw2hI_fDoPYog_Y0HoLuxRkjz3fhQwJhscMTVImQdct3dL5kXF256msdF4oir5Z1DU6KrBRaBOUZTJryFKxQcELF-1ys_kA70QIpbSRODO0kf0DfEwbvX0zF-yzDvAYw4kU1vBBlk2s9w2xvE-Xw9-Uo0Xi_fuCSmDTigsF_P5J3NwSgbikd4A5arR_zNk3iAekQwbo2enZGAeTZV3CqPhYzxvMCOYs3mYZWkK29zwgJGX7ueR7WCXAXCDd28xA6xq6kFVwkS3Mt0AEt3lesh3dyG0e0GaQCUtGRaP-pP6ga1lAWBmxErkrX_dyctHxkBppEuSxFLMOkIIPZ7TVPqCgQSt75wE-FUZrs8FoPs9Yq47CKPQjhw8ACbAD1httRBhcRDgpnyRpNlTEoQD7rW7jxbxYuHXhzj95_6zkBCGzRPTlPEDBhGUKmkgTOvDDfmEAlP5Q3dMHCp7Vk9mnG_pd8bCT3SohUD0EtcO9u52_55DFL7agks8bZIqJ3YSuSLr4ery_INUZsDjTOW-g0c14rJxsTxXI7b6FgDo7Q4Hz2p_mRHhJ7DX_we9ufPZE3ovBCt_Rw3J1eKNnDCzEvtwfPzNhjYzYFtOFovlg7uvm-ZlvZe-DqfUZ2VgRUQa_aCVH_Bojv2ZonMbrrBg_YBmIZ8l7w5Lzn63B6K8El00bq5Nz0W00]--></g></svg>