<?xml version="1.0" encoding="us-ascii" standalone="no"?><svg xmlns="http://www.w3.org/2000/svg" xmlns:xlink="http://www.w3.org/1999/xlink" contentStyleType="text/css" height="1616px" preserveAspectRatio="none" style="width:1422px;height:1616px;background:#FFFFFF;" version="1.1" viewBox="0 0 1422 1616" width="1422px" zoomAndPan="magnify"><defs><filter height="300%" id="fzdpse553ifh6" width="300%" x="-1" y="-1"><feGaussianBlur result="blurOut" stdDeviation="2.0"/><feColorMatrix in="blurOut" result="blurOut2" type="matrix" values="0 0 0 0 0 0 0 0 0 0 0 0 0 0 0 0 0 0 .4 0"/><feOffset dx="4.0" dy="4.0" in="blurOut2" result="blurOut3"/><feBlend in="SourceGraphic" in2="blurOut3" mode="normal"/></filter></defs><g><text fill="#000000" font-family="sans-serif" font-size="14" font-weight="bold" lengthAdjust="spacing" textLength="100" x="654.015" y="25.1074">Domain Model</text><!--class Person--><g id="elem_Person"><rect
        fill="#F1F1F1" filter="url(#fzdpse553ifh6)" height="111.1055" id="Person" rx="2.5" ry="2.5" style="stroke:#181818;stroke-width:0.5;" width="124" x="582.03" y="1015.6211"/><text fill="#000000" font-family="sans-serif" font-size="14" lengthAdjust="spacing" textLength="45" x="621.53" y="1035.7285">Person</text><line style="stroke:#181818;stroke-width:0.5;" x1="583.03" x2="705.03" y1="1044.2422" y2="1044.2422"/><text fill="#000000" font-family="sans-serif" font-size="14" lengthAdjust="spacing" textLength="35" x="588.03" y="1063.3496">name</text><text fill="#000000" font-family="sans-serif" font-size="14" lengthAdjust="spacing" textLength="67" x="588.03" y="1081.9707">taxNumber</text><text fill="#000000" font-family="sans-serif" font-size="14" lengthAdjust="spacing" textLength="85" x="588.03" y="1100.5918">emailAddress</text><text fill="#000000" font-family="sans-serif" font-size="14" lengthAdjust="spacing" textLength="112" x="588.03" y="1119.2129">telephoneNumber</text></g><!--class Role--><g id="elem_Role"><rect
        fill="#F1F1F1" filter="url(#fzdpse553ifh6)" height="73.8633" id="Role" rx="2.5" ry="2.5" style="stroke:#181818;stroke-width:0.5;" width="81" x="603.53" y="834.6211"/><text fill="#000000" font-family="sans-serif" font-size="14" lengthAdjust="spacing" textLength="29" x="629.53" y="854.7285">Role</text><line style="stroke:#181818;stroke-width:0.5;" x1="604.53" x2="683.53" y1="863.2422" y2="863.2422"/><text fill="#000000" font-family="sans-serif" font-size="14" lengthAdjust="spacing" textLength="11" x="609.53" y="882.3496">id</text><text fill="#000000" font-family="sans-serif" font-size="14" lengthAdjust="spacing" textLength="69" x="609.53" y="900.9707">description</text></g><!--class Owner--><g id="elem_Owner"><rect
        fill="#F1F1F1" filter="url(#fzdpse553ifh6)" height="36.6211" id="Owner" rx="2.5" ry="2.5" style="stroke:#181818;stroke-width:0.5;" width="47" x="453.53" y="739.6211"/><text fill="#000000" font-family="sans-serif" font-size="14" lengthAdjust="spacing" textLength="41" x="456.53" y="759.7285">Owner</text><line style="stroke:#181818;stroke-width:0.5;" x1="454.53" x2="499.53" y1="768.2422" y2="768.2422"/></g><!--class PassportCard--><g id="elem_PassportCard"><rect
        fill="#F1F1F1" filter="url(#fzdpse553ifh6)" height="55.2422" id="PassportCard" rx="2.5" ry="2.5" style="stroke:#181818;stroke-width:0.5;" width="147" x="719.53" y="844.1211"/><text fill="#000000" font-family="sans-serif" font-size="14" lengthAdjust="spacing" textLength="87" x="749.53" y="864.2285">PassportCard</text><line style="stroke:#181818;stroke-width:0.5;" x1="720.53" x2="865.53" y1="872.7422" y2="872.7422"/><text fill="#000000" font-family="sans-serif" font-size="14" lengthAdjust="spacing" textLength="135" x="725.53" y="891.8496">passportCardNumber</text></g><!--class Address--><g id="elem_Address"><rect
        fill="#F1F1F1" filter="url(#fzdpse553ifh6)" height="129.7266" id="Address" rx="2.5" ry="2.5" style="stroke:#181818;stroke-width:0.5;" width="63" x="1015.53" y="806.6211"/><text fill="#000000" font-family="sans-serif" font-size="14" lengthAdjust="spacing" textLength="52" x="1021.03" y="826.7285">Address</text><line style="stroke:#181818;stroke-width:0.5;" x1="1016.53" x2="1077.53" y1="835.2422" y2="835.2422"/><text fill="#000000" font-family="sans-serif" font-size="14" lengthAdjust="spacing" textLength="36" x="1021.53" y="854.3496">street</text><text fill="#000000" font-family="sans-serif" font-size="14" lengthAdjust="spacing" textLength="21" x="1021.53" y="872.9707">city</text><text fill="#000000" font-family="sans-serif" font-size="14" lengthAdjust="spacing" textLength="41" x="1021.53" y="891.5918">district</text><text fill="#000000" font-family="sans-serif" font-size="14" lengthAdjust="spacing" textLength="31" x="1021.53" y="910.2129">state</text><text fill="#000000" font-family="sans-serif" font-size="14" lengthAdjust="spacing" textLength="51" x="1021.53" y="928.834">zipCode</text></g><!--class Property--><g id="elem_Property"><rect
        fill="#F1F1F1" filter="url(#fzdpse553ifh6)" height="204.2109" id="Property" rx="2.5" ry="2.5" style="stroke:#181818;stroke-width:0.5;" width="141" x="976.53" y="505.6211"/><text fill="#000000" font-family="sans-serif" font-size="14" lengthAdjust="spacing" textLength="54" x="1020.03" y="525.7285">Property</text><line style="stroke:#181818;stroke-width:0.5;" x1="977.53" x2="1116.53" y1="534.2422" y2="534.2422"/><text fill="#000000" font-family="sans-serif" font-size="14" lengthAdjust="spacing" textLength="66" x="982.53" y="553.3496">propertyID</text><text fill="#000000" font-family="sans-serif" font-size="14" lengthAdjust="spacing" textLength="85" x="982.53" y="571.9707">propertyType</text><text fill="#000000" font-family="sans-serif" font-size="14" lengthAdjust="spacing" textLength="98" x="982.53" y="590.5918">areaOfProperty</text><text fill="#000000" font-family="sans-serif" font-size="14" lengthAdjust="spacing" textLength="129" x="982.53" y="609.2129">distanceFromCentre</text><text fill="#000000" font-family="sans-serif" font-size="14" lengthAdjust="spacing" textLength="117" x="982.53" y="627.834">dateOfAcceptance</text><text fill="#000000" font-family="sans-serif" font-size="14" lengthAdjust="spacing" textLength="96" x="982.53" y="646.4551">dateOfRequest</text><text fill="#000000" font-family="sans-serif" font-size="14" lengthAdjust="spacing" textLength="4" x="982.53" y="665.0762">&#160;</text><text fill="#000000" font-family="sans-serif" font-size="14" lengthAdjust="spacing" textLength="37" x="982.53" y="683.6973">Photo</text><text fill="#000000" font-family="sans-serif" font-size="14" lengthAdjust="spacing" textLength="75" x="982.53" y="702.3184">Transaction</text></g><!--class Building--><g id="elem_Building"><rect
        fill="#F1F1F1" filter="url(#fzdpse553ifh6)" height="129.7266" id="Building" rx="2.5" ry="2.5" style="stroke:#181818;stroke-width:0.5;" width="135" x="1166.53" y="806.6211"/><text fill="#000000" font-family="sans-serif" font-size="14" lengthAdjust="spacing" textLength="50" x="1209.03" y="826.7285">Building</text><line style="stroke:#181818;stroke-width:0.5;" x1="1167.53" x2="1300.53" y1="835.2422" y2="835.2422"/><text fill="#000000" font-family="sans-serif" font-size="14" lengthAdjust="spacing" textLength="63" x="1172.53" y="854.3496">bedrooms</text><text fill="#000000" font-family="sans-serif" font-size="14" lengthAdjust="spacing" textLength="67" x="1172.53" y="872.9707">bathrooms</text><text fill="#000000" font-family="sans-serif" font-size="14" lengthAdjust="spacing" textLength="94" x="1172.53" y="891.5918">parkingSpaces</text><text fill="#000000" font-family="sans-serif" font-size="14" lengthAdjust="spacing" textLength="123" x="1172.53" y="910.2129">availableEquipment</text><text fill="#000000" font-family="sans-serif" font-size="14" lengthAdjust="spacing" textLength="66" x="1172.53" y="928.834">equipment</text></g><!--class House--><g id="elem_House"><rect
        fill="#F1F1F1" filter="url(#fzdpse553ifh6)" height="92.4844" id="House" rx="2.5" ry="2.5" style="stroke:#181818;stroke-width:0.5;" width="94" x="1086.03" y="1025.1211"/><text fill="#000000" font-family="sans-serif" font-size="14" lengthAdjust="spacing" textLength="40" x="1113.03" y="1045.2285">House</text><line style="stroke:#181818;stroke-width:0.5;" x1="1087.03" x2="1179.03" y1="1053.7422" y2="1053.7422"/><text fill="#000000" font-family="sans-serif" font-size="14" lengthAdjust="spacing" textLength="62" x="1092.03" y="1072.8496">basement</text><text fill="#000000" font-family="sans-serif" font-size="14" lengthAdjust="spacing" textLength="19" x="1092.03" y="1091.4707">loft</text><text fill="#000000" font-family="sans-serif" font-size="14" lengthAdjust="spacing" textLength="82" x="1092.03" y="1110.0918">sunExposure</text></g><!--class Employee--><g id="elem_Employee"><rect
        fill="#F1F1F1" filter="url(#fzdpse553ifh6)" height="55.2422" id="Employee" rx="2.5" ry="2.5" style="stroke:#181818;stroke-width:0.5;" width="94" x="257.03" y="1187.6211"/><text fill="#000000" font-family="sans-serif" font-size="14" lengthAdjust="spacing" textLength="62" x="273.03" y="1207.7285">Employee</text><line style="stroke:#181818;stroke-width:0.5;" x1="258.03" x2="350.03" y1="1216.2422" y2="1216.2422"/><text fill="#000000" font-family="sans-serif" font-size="14" lengthAdjust="spacing" textLength="82" x="263.03" y="1235.3496">agencyName</text></g><!--class Equipment--><g id="elem_Equipment"><rect
        fill="#F1F1F1" filter="url(#fzdpse553ifh6)" height="73.8633" id="Equipment" rx="2.5" ry="2.5" style="stroke:#181818;stroke-width:0.5;" width="107" x="1215.53" y="1034.1211"/><text fill="#000000" font-family="sans-serif" font-size="14" lengthAdjust="spacing" textLength="67" x="1235.53" y="1054.2285">Equipment</text><line style="stroke:#181818;stroke-width:0.5;" x1="1216.53" x2="1321.53" y1="1062.7422" y2="1062.7422"/><text fill="#000000" font-family="sans-serif" font-size="14" lengthAdjust="spacing" textLength="91" x="1221.53" y="1081.8496">centralHeating</text><text fill="#000000" font-family="sans-serif" font-size="14" lengthAdjust="spacing" textLength="95" x="1221.53" y="1100.4707">airConditioning</text></g><!--class Commission--><g id="elem_Commission"><rect
        fill="#F1F1F1" filter="url(#fzdpse553ifh6)" height="73.8633" id="Commission" rx="2.5" ry="2.5" style="stroke:#181818;stroke-width:0.5;" width="121" x="380.53" y="46.6211"/><text fill="#000000" font-family="sans-serif" font-size="14" lengthAdjust="spacing" textLength="76" x="403.03" y="66.7285">Commission</text><line style="stroke:#181818;stroke-width:0.5;" x1="381.53" x2="500.53" y1="75.2422" y2="75.2422"/><text fill="#000000" font-family="sans-serif" font-size="14" lengthAdjust="spacing" textLength="105" x="386.53" y="94.3496">commissionType</text><text fill="#000000" font-family="sans-serif" font-size="14" lengthAdjust="spacing" textLength="109" x="386.53" y="112.9707">commissionValue</text></g><!--class Photo--><g id="elem_Photo"><rect
        fill="#F1F1F1" filter="url(#fzdpse553ifh6)" height="92.4844" id="Photo" rx="2.5" ry="2.5" style="stroke:#181818;stroke-width:0.5;" width="70" x="902.03" y="825.6211"/><text fill="#000000" font-family="sans-serif" font-size="14" lengthAdjust="spacing" textLength="37" x="918.53" y="845.7285">Photo</text><line style="stroke:#181818;stroke-width:0.5;" x1="903.03" x2="971.03" y1="854.2422" y2="854.2422"/><text fill="#000000" font-family="sans-serif" font-size="14" lengthAdjust="spacing" textLength="58" x="908.03" y="873.3496">photoURI</text><text fill="#000000" font-family="sans-serif" font-size="14" lengthAdjust="spacing" textLength="49" x="908.03" y="891.9707">photoID</text><text fill="#000000" font-family="sans-serif" font-size="14" lengthAdjust="spacing" textLength="58" x="908.03" y="910.5918">photoList</text></g><!--class Transaction--><g id="elem_Transaction"><rect
        fill="#F1F1F1" filter="url(#fzdpse553ifh6)" height="73.8633" id="Transaction" rx="2.5" ry="2.5" style="stroke:#181818;stroke-width:0.5;" width="114" x="1296.03" y="570.6211"/><text fill="#000000" font-family="sans-serif" font-size="14" lengthAdjust="spacing" textLength="75" x="1315.53" y="590.7285">Transaction</text><line style="stroke:#181818;stroke-width:0.5;" x1="1297.03" x2="1409.03" y1="599.2422" y2="599.2422"/><text fill="#000000" font-family="sans-serif" font-size="14" lengthAdjust="spacing" textLength="102" x="1302.03" y="618.3496">transactionType</text><text fill="#000000" font-family="sans-serif" font-size="14" lengthAdjust="spacing" textLength="95" x="1302.03" y="636.9707">monetaryValue</text></g><!--class Request--><g id="elem_Request"><rect
        fill="#F1F1F1" filter="url(#fzdpse553ifh6)" height="73.8633" id="Request" rx="2.5" ry="2.5" style="stroke:#181818;stroke-width:0.5;" width="90" x="439.03" y="570.6211"/><text fill="#000000" font-family="sans-serif" font-size="14" lengthAdjust="spacing" textLength="53" x="457.53" y="590.7285">Request</text><line style="stroke:#181818;stroke-width:0.5;" x1="440.03" x2="528.03" y1="599.2422" y2="599.2422"/><text fill="#000000" font-family="sans-serif" font-size="14" lengthAdjust="spacing" textLength="11" x="445.03" y="618.3496">id</text><text fill="#000000" font-family="sans-serif" font-size="14" lengthAdjust="spacing" textLength="78" x="445.03" y="636.9707">requestDate</text></g><!--class Agency--><g id="elem_Agency"><rect
        fill="#F1F1F1" filter="url(#fzdpse553ifh6)" height="111.1055" id="Agency" rx="2.5" ry="2.5" style="stroke:#181818;stroke-width:0.5;" width="124" x="116.03" y="199.6211"/><text fill="#000000" font-family="sans-serif" font-size="14" lengthAdjust="spacing" textLength="47" x="154.53" y="219.7285">Agency</text><line style="stroke:#181818;stroke-width:0.5;" x1="117.03" x2="239.03" y1="228.2422" y2="228.2422"/><text fill="#000000" font-family="sans-serif" font-size="14" lengthAdjust="spacing" textLength="59" x="122.03" y="247.3496">agencyID</text><text fill="#000000" font-family="sans-serif" font-size="14" lengthAdjust="spacing" textLength="35" x="122.03" y="265.9707">name</text><text fill="#000000" font-family="sans-serif" font-size="14" lengthAdjust="spacing" textLength="33" x="122.03" y="284.5918">email</text><text fill="#000000" font-family="sans-serif" font-size="14" lengthAdjust="spacing" textLength="112" x="122.03" y="303.2129">telephoneNumber</text></g><!--class Agent--><g id="elem_Agent"><rect
        fill="#F1F1F1" filter="url(#fzdpse553ifh6)" height="36.6211" id="Agent" rx="2.5" ry="2.5" style="stroke:#181818;stroke-width:0.5;" width="43" x="305.53" y="389.6211"/><text fill="#000000" font-family="sans-serif" font-size="14" lengthAdjust="spacing" textLength="37" x="308.53" y="409.7285">Agent</text><line style="stroke:#181818;stroke-width:0.5;" x1="306.53" x2="347.53" y1="418.2422" y2="418.2422"/></g><!--class Announcement--><g id="elem_Announcement"><rect
        fill="#F1F1F1" filter="url(#fzdpse553ifh6)" height="73.8633" id="Announcement" rx="2.5" ry="2.5" style="stroke:#181818;stroke-width:0.5;" width="115" x="383.53" y="218.1211"/><text fill="#000000" font-family="sans-serif" font-size="14" lengthAdjust="spacing" textLength="95" x="393.53" y="238.2285">Announcement</text><line style="stroke:#181818;stroke-width:0.5;" x1="384.53" x2="497.53" y1="246.7422" y2="246.7422"/><text fill="#000000" font-family="sans-serif" font-size="14" lengthAdjust="spacing" textLength="11" x="389.53" y="265.8496">id</text><text fill="#000000" font-family="sans-serif" font-size="14" lengthAdjust="spacing" textLength="103" x="389.53" y="284.4707">acceptanceDate</text></g><!--class Client--><g id="elem_Client"><rect
        fill="#F1F1F1" filter="url(#fzdpse553ifh6)" height="36.6211" id="Client" rx="2.5" ry="2.5" style="stroke:#181818;stroke-width:0.5;" width="42" x="768.03" y="1340.6211"/><text fill="#000000" font-family="sans-serif" font-size="14" lengthAdjust="spacing" textLength="36" x="771.03" y="1360.7285">Client</text><line style="stroke:#181818;stroke-width:0.5;" x1="769.03" x2="809.03" y1="1369.2422" y2="1369.2422"/></g><!--class PurchaseOrder--><g id="elem_PurchaseOrder"><rect
        fill="#F1F1F1" filter="url(#fzdpse553ifh6)" height="111.1055" id="PurchaseOrder" rx="2.5" ry="2.5" style="stroke:#181818;stroke-width:0.5;" width="103" x="1027.53" y="1303.6211"/><text fill="#000000" font-family="sans-serif" font-size="14" lengthAdjust="spacing" textLength="97" x="1030.53" y="1323.7285">PurchaseOrder</text><line style="stroke:#181818;stroke-width:0.5;" x1="1028.53" x2="1129.53" y1="1332.2422" y2="1332.2422"/><text fill="#000000" font-family="sans-serif" font-size="14" lengthAdjust="spacing" textLength="62" x="1033.53" y="1351.3496">userEmail</text><text fill="#000000" font-family="sans-serif" font-size="14" lengthAdjust="spacing" textLength="66" x="1033.53" y="1369.9707">propertyID</text><text fill="#000000" font-family="sans-serif" font-size="14" lengthAdjust="spacing" textLength="82" x="1033.53" y="1388.5918">orderAmount</text><text fill="#000000" font-family="sans-serif" font-size="14" lengthAdjust="spacing" textLength="73" x="1033.53" y="1407.2129">acceptance</text></g><!--class Administrator--><g id="elem_Administrator"><rect
        fill="#F1F1F1" filter="url(#fzdpse553ifh6)" height="36.6211" id="Administrator" rx="2.5" ry="2.5" style="stroke:#181818;stroke-width:0.5;" width="89" x="124.53" y="1530.6211"/><text fill="#000000" font-family="sans-serif" font-size="14" lengthAdjust="spacing" textLength="83" x="127.53" y="1550.7285">Administrator</text><line style="stroke:#181818;stroke-width:0.5;" x1="125.53" x2="212.53" y1="1559.2422" y2="1559.2422"/></g><!--class VisitRequest--><g id="elem_VisitRequest"><rect
        fill="#F1F1F1" filter="url(#fzdpse553ifh6)" height="111.1055" id="VisitRequest" rx="2.5" ry="2.5" style="stroke:#181818;stroke-width:0.5;" width="175" x="477.53" y="1493.6211"/><text fill="#000000" font-family="sans-serif" font-size="14" lengthAdjust="spacing" textLength="79" x="525.53" y="1513.7285">VisitRequest</text><line style="stroke:#181818;stroke-width:0.5;" x1="478.53" x2="651.53" y1="1522.2422" y2="1522.2422"/><text fill="#000000" font-family="sans-serif" font-size="14" lengthAdjust="spacing" textLength="163" x="483.53" y="1541.3496">contactTelephoneNumber</text><text fill="#000000" font-family="sans-serif" font-size="14" lengthAdjust="spacing" textLength="35" x="483.53" y="1559.9707">name</text><text fill="#000000" font-family="sans-serif" font-size="14" lengthAdjust="spacing" textLength="28" x="483.53" y="1578.5918">date</text><text fill="#000000" font-family="sans-serif" font-size="14" lengthAdjust="spacing" textLength="50" x="483.53" y="1597.2129">timeSlot</text></g><!--class User--><g id="elem_User"><rect fill="#F1F1F1" filter="url(#fzdpse553ifh6)" height="36.6211" id="User" rx="2.5" ry="2.5" style="stroke:#181818;stroke-width:0.5;" width="35" x="428.53" y="389.6211"/><text fill="#000000" font-family="sans-serif" font-size="14" lengthAdjust="spacing" textLength="29" x="431.53" y="409.7285">User</text><line style="stroke:#181818;stroke-width:0.5;" x1="429.53" x2="462.53" y1="418.2422" y2="418.2422"/></g><!--reverse link Property to Building--><g id="link_Property_Building"><path d="M1132.39,678.9011 C1151.15,697.2511 1169.67,717.9911 1184.03,739.6211 C1197.5,759.9011 1208.07,784.3211 1215.96,806.5611 " fill="none" id="Property-backto-Building" style="stroke:#181818;stroke-width:1.0;"/><polygon fill="none" points="1127.46,683.8711,1117.72,665.0511,1137.07,673.7011,1127.46,683.8711" style="stroke:#181818;stroke-width:1.0;"/></g><!--reverse link Building to House--><g id="link_Building_House"><path d="M1192.02,954.7711 C1179.72,978.8311 1166.73,1004.2311 1156.08,1025.0611 " fill="none" id="Building-backto-House" style="stroke:#181818;stroke-width:1.0;"/><polygon fill="none" points="1185.9,951.3611,1201.24,936.7411,1198.37,957.7411,1185.9,951.3611" style="stroke:#181818;stroke-width:1.0;"/></g><!--link Agent to Employee--><g id="link_Agent_Employee"><path
        d="M323.59,426.7411 C317.17,461.1711 304.03,539.8211 304.03,606.6211 C304.03,606.6211 304.03,606.6211 304.03,1072.1211 C304.03,1112.3011 304.03,1158.8811 304.03,1187.4211 " fill="none" id="Agent-Employee" style="stroke:#181818;stroke-width:1.0;"/><polygon fill="#000000" points="308.9015,876.7649,312.0719,867.7984,306.196,867.6473,308.9015,876.7649" style="stroke:#000000;stroke-width:1.0;"/><text fill="#000000" font-family="sans-serif" font-size="13" lengthAdjust="spacing" textLength="82" x="318.03" y="877.1494">represented in</text></g><!--link Agency to Announcement--><g id="link_Agency_Announcement"><path
        d="M240.36,255.1211 C283.65,255.1211 340.93,255.1211 383.2,255.1211 " fill="none" id="Agency-Announcement" style="stroke:#181818;stroke-width:1.0;"/><polygon fill="#000000" points="267.28,242.7666,258.2349,239.8277,258.2349,245.7055,267.28,242.7666" style="stroke:#000000;stroke-width:1.0;"/><text fill="#000000" font-family="sans-serif" font-size="13" lengthAdjust="spacing" textLength="94" x="271.28" y="248.1494">wants to publish</text><text fill="#000000" font-family="sans-serif" font-size="13" lengthAdjust="spacing" textLength="7" x="247.9716" y="251.1773">1</text><text fill="#000000" font-family="sans-serif" font-size="13" lengthAdjust="spacing" textLength="13" x="362.3598" y="251.1395">..*</text></g><!--link Announcement to Request--><g id="link_Announcement_Request"><path
        d="M498.61,261.7111 C548.54,269.9411 617.97,290.2911 652.03,340.6211 C708.51,424.0811 596.32,525.4011 529.24,575.4911 " fill="none" id="Announcement-Request" style="stroke:#181818;stroke-width:1.0;"/><polygon fill="#000000" points="672.5158,413.2429,674.562,403.9551,668.712,404.5262,672.5158,413.2429" style="stroke:#000000;stroke-width:1.0;"/><text fill="#000000" font-family="sans-serif" font-size="13" lengthAdjust="spacing" textLength="21" x="681.03" y="413.6494">of a</text><text fill="#000000" font-family="sans-serif" font-size="13" lengthAdjust="spacing" textLength="7" x="506.4359" y="258.5221">1</text></g><!--link Property to Address--><g id="link_Property_Address"><path
        d="M1117.71,701.1911 C1124.37,713.5911 1130.09,726.5511 1134.03,739.6211 C1138.78,755.3611 1140.03,761.3111 1134.03,776.6211 C1122.92,804.9911 1098.79,829.9111 1078.75,846.9611 " fill="none" id="Property-Address" style="stroke:#181818;stroke-width:1.0;"/><text fill="#000000" font-family="sans-serif" font-size="13" lengthAdjust="spacing" textLength="36" x="1139.03" y="763.6494">stores</text><text fill="#000000" font-family="sans-serif" font-size="13" lengthAdjust="spacing" textLength="7" x="1125.3598" y="706.9964">1</text><text fill="#000000" font-family="sans-serif" font-size="13" lengthAdjust="spacing" textLength="7" x="1086.4544" y="836.7974">1</text></g><!--link Address to Property--><g id="link_Address_Property"><path
        d="M1041.61,806.4411 C1040.96,796.4611 1040.39,786.2711 1040.03,776.6211 C1039.23,755.0311 1039.48,731.8911 1040.23,709.8911 " fill="none" id="Address-Property" style="stroke:#181818;stroke-width:1.0;"/><polygon fill="#000000" points="1045.1015,763.2661,1047.9108,754.1799,1042.0336,754.2639,1045.1015,763.2661" style="stroke:#000000;stroke-width:1.0;"/><text fill="#000000" font-family="sans-serif" font-size="13" lengthAdjust="spacing" textLength="71" x="1054.03" y="763.6494">has address</text><text fill="#000000" font-family="sans-serif" font-size="13" lengthAdjust="spacing" textLength="7" x="1033.6344" y="795.4415">1</text><text fill="#000000" font-family="sans-serif" font-size="13" lengthAdjust="spacing" textLength="7" x="1032.5058" y="731.7107">1</text></g><!--link Agency to Employee--><g id="link_Agency_Employee"><path
        d="M178.03,310.6411 C178.03,339.3411 178.03,375.1411 178.03,407.1211 C178.03,407.1211 178.03,407.1211 178.03,1072.1211 C178.03,1122.0511 222.16,1162.6211 258.19,1187.4111 " fill="none" id="Agency-Employee" style="stroke:#181818;stroke-width:1.0;"/><polygon fill="#000000" points="182.5748,753.2874,180.4716,762.5625,186.325,762.0273,182.5748,753.2874" style="stroke:#000000;stroke-width:1.0;"/><text fill="#000000" font-family="sans-serif" font-size="13" lengthAdjust="spacing" textLength="88" x="192.03" y="763.6494">is in an agency</text><text fill="#000000" font-family="sans-serif" font-size="13" lengthAdjust="spacing" textLength="7" x="170.5816" y="332.8839">1</text><text fill="#000000" font-family="sans-serif" font-size="13" lengthAdjust="spacing" textLength="7" x="242.0929" y="1177.7677">1</text></g><!--link Property to Transaction--><g id="link_Property_Transaction"><path
        d="M1117.62,607.6211 C1171.63,607.6211 1245.17,607.6211 1295.6,607.6211 " fill="none" id="Property-Transaction" style="stroke:#181818;stroke-width:1.0;"/><polygon fill="#000000" points="1144.78,595.2666,1135.7349,592.3277,1135.7349,598.2055,1144.78,595.2666" style="stroke:#000000;stroke-width:1.0;"/><text fill="#000000" font-family="sans-serif" font-size="13" lengthAdjust="spacing" textLength="129" x="1148.78" y="600.6494">has a transaction type</text><text fill="#000000" font-family="sans-serif" font-size="13" lengthAdjust="spacing" textLength="7" x="1125.7236" y="603.7241">1</text><text fill="#000000" font-family="sans-serif" font-size="13" lengthAdjust="spacing" textLength="7" x="1281.1742" y="603.6395">1</text></g><!--link Property to Photo--><g id="link_Property_Photo"><path
        d="M976.45,693.0511 C966.88,707.8511 958.24,723.6511 952.03,739.6211 C941.42,766.9311 937.67,799.6811 936.57,825.6011 " fill="none" id="Property-Photo" style="stroke:#181818;stroke-width:1.0;"/><polygon fill="#000000" points="955.5894,763.0546,961.0097,755.2398,955.3811,753.5463,955.5894,763.0546" style="stroke:#000000;stroke-width:1.0;"/><text fill="#000000" font-family="sans-serif" font-size="13" lengthAdjust="spacing" textLength="64" x="966.03" y="763.6494">has photos</text><text fill="#000000" font-family="sans-serif" font-size="13" lengthAdjust="spacing" textLength="7" x="961.3475" y="698.498">1</text><text fill="#000000" font-family="sans-serif" font-size="13" lengthAdjust="spacing" textLength="13" x="922.5043" y="814.2662">..*</text></g><!--link Commission to Announcement--><g id="link_Commission_Announcement"><path
        d="M441.03,120.9811 C441.03,149.6811 441.03,189.5011 441.03,218.1111 " fill="none" id="Commission-Announcement" style="stroke:#181818;stroke-width:1.0;"/><polygon fill="#000000" points="446.03,155.2666,443.0911,164.3117,448.9689,164.3117,446.03,155.2666" style="stroke:#000000;stroke-width:1.0;"/><text fill="#000000" font-family="sans-serif" font-size="13" lengthAdjust="spacing" textLength="106" x="455.03" y="165.6494">has a commission</text><text fill="#000000" font-family="sans-serif" font-size="13" lengthAdjust="spacing" textLength="7" x="433.4503" y="142.6404">1</text><text fill="#000000" font-family="sans-serif" font-size="13" lengthAdjust="spacing" textLength="7" x="433.3847" y="206.7879">1</text></g><!--link Building to Equipment--><g id="link_Building_Equipment"><path
        d="M1245.4,936.7411 C1251.1,968.9611 1257.81,1006.8011 1262.62,1033.9311 " fill="none" id="Building-Equipment" style="stroke:#181818;stroke-width:1.0;"/><polygon fill="#000000" points="1258.9023,981.1899,1260.2181,971.7708,1254.4304,972.7963,1258.9023,981.1899" style="stroke:#000000;stroke-width:1.0;"/><text fill="#000000" font-family="sans-serif" font-size="13" lengthAdjust="spacing" textLength="85" x="1267.03" y="981.6494">has equipment</text><text fill="#000000" font-family="sans-serif" font-size="13" lengthAdjust="spacing" textLength="7" x="1239.2116" y="958.3906">1</text><text fill="#000000" font-family="sans-serif" font-size="13" lengthAdjust="spacing" textLength="13" x="1247.3204" y="1022.859">..*</text></g><!--link Role to Person--><g id="link_Role_Person"><path
        d="M644.03,908.8411 C644.03,938.6911 644.03,981.4811 644.03,1015.4811 " fill="none" id="Role-Person" style="stroke:#181818;stroke-width:1.0;"/><polygon fill="#000000" points="649.03,971.2666,646.0911,980.3117,651.9689,980.3117,649.03,971.2666" style="stroke:#000000;stroke-width:1.0;"/><text fill="#000000" font-family="sans-serif" font-size="13" lengthAdjust="spacing" textLength="57" x="658.03" y="981.6494">has a role</text><text fill="#000000" font-family="sans-serif" font-size="13" lengthAdjust="spacing" textLength="7" x="636.4503" y="930.4772">1</text><text fill="#000000" font-family="sans-serif" font-size="13" lengthAdjust="spacing" textLength="7" x="636.5816" y="1004.3034">1</text></g><!--link PassportCard to Person--><g id="link_PassportCard_Person"><path
        d="M778.89,899.2111 C765.88,922.7811 745.4,957.6911 724.03,985.6211 C716.42,995.5711 707.8,1005.6511 699.12,1015.2311 " fill="none" id="PassportCard-Person" style="stroke:#181818;stroke-width:1.0;"/><polygon fill="#000000" points="743.8628,972.1465,736.3165,977.9348,741.16,981.2649,743.8628,972.1465" style="stroke:#000000;stroke-width:1.0;"/><text fill="#000000" font-family="sans-serif" font-size="13" lengthAdjust="spacing" textLength="115" x="750.03" y="981.6494">has a passport card</text><text fill="#000000" font-family="sans-serif" font-size="13" lengthAdjust="spacing" textLength="7" x="767.8108" y="921.5909">1</text><text fill="#000000" font-family="sans-serif" font-size="13" lengthAdjust="spacing" textLength="7" x="698.4075" y="1004.4232">1</text></g><!--link Address to Person--><g id="link_Address_Person"><path
        d="M1015.45,913.6211 C1007.75,921.9411 999.11,930.1211 990.03,936.6211 C901.56,999.9711 779.11,1037.8611 706.1,1056.2911 " fill="none" id="Address-Person" style="stroke:#181818;stroke-width:1.0;"/><polygon fill="#000000" points="947.5704,974.1726,938.1259,975.2919,940.5876,980.6295,947.5704,974.1726" style="stroke:#000000;stroke-width:1.0;"/><text fill="#000000" font-family="sans-serif" font-size="13" lengthAdjust="spacing" textLength="71" x="952.03" y="981.6494">has address</text><text fill="#000000" font-family="sans-serif" font-size="13" lengthAdjust="spacing" textLength="7" x="1000.3377" y="918.4616">1</text><text fill="#000000" font-family="sans-serif" font-size="13" lengthAdjust="spacing" textLength="7" x="714.0913" y="1050.4874">1</text></g><!--link Request to Property--><g id="link_Request_Property"><path
        d="M529.15,607.6211 C626.87,607.6211 858.71,607.6211 976.19,607.6211 " fill="none" id="Request-Property" style="stroke:#181818;stroke-width:1.0;"/><polygon fill="#000000" points="725.78,595.2666,716.7349,592.3277,716.7349,598.2055,725.78,595.2666" style="stroke:#000000;stroke-width:1.0;"/><text fill="#000000" font-family="sans-serif" font-size="13" lengthAdjust="spacing" textLength="59" x="729.78" y="600.6494">listing of a</text><text fill="#000000" font-family="sans-serif" font-size="13" lengthAdjust="spacing" textLength="7" x="536.8988" y="603.3288">1</text><text fill="#000000" font-family="sans-serif" font-size="13" lengthAdjust="spacing" textLength="7" x="961.5237" y="603.777">1</text></g><!--link Request to Owner--><g id="link_Request_Owner"><path
        d="M482.32,644.9511 C480.9,675.0011 478.95,716.3811 477.86,739.5611 " fill="none" id="Request-Owner" style="stroke:#181818;stroke-width:1.0;"/><polygon fill="#000000" points="392.7346,690.4711,396.0961,681.5744,390.2248,681.2976,392.7346,690.4711" style="stroke:#000000;stroke-width:1.0;"/><text fill="#000000" font-family="sans-serif" font-size="13" lengthAdjust="spacing" textLength="77" x="401.97" y="690.8594">has an owner</text><text fill="#000000" font-family="sans-serif" font-size="13" lengthAdjust="spacing" textLength="13" x="467.9602" y="666.6054">..*</text><text fill="#000000" font-family="sans-serif" font-size="13" lengthAdjust="spacing" textLength="7" x="470.0423" y="728.4049">1</text></g><!--link Owner to Person--><g id="link_Owner_Person"><path
        d="M473.97,776.6511 C469.06,809.8711 462.44,883.4411 489.03,936.6211 C509.36,977.2811 548.11,1010.6511 581.78,1033.8611 " fill="none" id="Owner-Person" style="stroke:#181818;stroke-width:1.0;"/><polygon fill="#000000" points="495.9628,876.3779,495.1768,866.8999,489.7558,869.1721,495.9628,876.3779" style="stroke:#000000;stroke-width:1.0;"/><text fill="#000000" font-family="sans-serif" font-size="13" lengthAdjust="spacing" textLength="82" x="503.03" y="877.1494">represented in</text></g><!--reverse link Person to Employee--><g id="link_Person_Employee"><path
        d="M562.9,1106.0111 C496.84,1133.6011 405.87,1171.5911 351.22,1194.4111 " fill="none" id="Person-backto-Employee" style="stroke:#181818;stroke-width:1.0;"/><polygon fill="none" points="560.52,1099.4111,581.67,1098.1611,565.91,1112.3311,560.52,1099.4111" style="stroke:#181818;stroke-width:1.0;"/></g><!--link Agent to Request--><g id="link_Agent_Request"><path
        d="M333.78,426.8811 C339.48,440.7711 348.39,460.2411 359.03,475.6211 C383.36,510.7811 417.11,545.5511 443.42,570.4311 " fill="none" id="Agent-Request" style="stroke:#181818;stroke-width:1.0;"/><polygon fill="#000000" points="367.0649,470.2402,363.9103,461.268,359.2391,464.8358,367.0649,470.2402" style="stroke:#000000;stroke-width:1.0;"/><text fill="#000000" font-family="sans-serif" font-size="13" lengthAdjust="spacing" textLength="67" x="373.03" y="471.6494">assigned to</text><text fill="#000000" font-family="sans-serif" font-size="13" lengthAdjust="spacing" textLength="7" x="327.6534" y="448.3256">1</text><text fill="#000000" font-family="sans-serif" font-size="13" lengthAdjust="spacing" textLength="13" x="422.0285" y="559.359">..*</text></g><!--link Agent to Request--><g id="link_Agent_Request"><path
        d="M348.71,411.8911 C375.31,416.4611 419.95,428.0911 445.03,456.6211 C472.84,488.2411 481.22,537.2611 483.54,570.5911 " fill="none" id="Agent-Request-1" style="stroke:#181818;stroke-width:1.0;"/><polygon fill="#000000" points="465.2673,470.0771,461.6507,461.281,457.1712,465.0867,465.2673,470.0771" style="stroke:#000000;stroke-width:1.0;"/><text fill="#000000" font-family="sans-serif" font-size="13" lengthAdjust="spacing" textLength="51" x="471.03" y="471.6494">approves</text><text fill="#000000" font-family="sans-serif" font-size="13" lengthAdjust="spacing" textLength="7" x="356.4214" y="407.5734">1</text><text fill="#000000" font-family="sans-serif" font-size="13" lengthAdjust="spacing" textLength="13" x="469.2512" y="559.2643">..*</text></g><!--link Announcement to Agent--><g id="link_Announcement_Agent"><path
        d="M383.41,270.3911 C347.44,282.6111 303.93,304.1811 282.03,340.6211 C271.12,358.7811 289.03,378.8211 305.38,392.1011 " fill="none" id="Announcement-Agent" style="stroke:#181818;stroke-width:1.0;"/><polygon fill="#000000" points="289.7286,346.0574,282.3727,352.0857,287.3209,355.2581,289.7286,346.0574" style="stroke:#000000;stroke-width:1.0;"/><text fill="#000000" font-family="sans-serif" font-size="13" lengthAdjust="spacing" textLength="43" x="296.03" y="355.6494">creates</text><text fill="#000000" font-family="sans-serif" font-size="13" lengthAdjust="spacing" textLength="13" x="362.5954" y="287.3424">..*</text><text fill="#000000" font-family="sans-serif" font-size="13" lengthAdjust="spacing" textLength="7" x="290.6778" y="381.7227">1</text></g><!--link Employee to Administrator--><g id="link_Employee_Administrator"><path
        d="M256.85,1217.7511 C199.41,1222.5811 104.58,1240.3211 60.03,1303.6211 C6,1380.3911 105.1,1488.2411 149.32,1530.3211 " fill="none" id="Employee-Administrator" style="stroke:#181818;stroke-width:1.0;"/><polygon fill="#000000" points="63.4035,1363.9946,69.125,1356.3976,63.5668,1354.4855,63.4035,1363.9946" style="stroke:#000000;stroke-width:1.0;"/><text fill="#000000" font-family="sans-serif" font-size="13" lengthAdjust="spacing" textLength="186" x="74.03" y="1364.6494">is registered by an administrator</text><text fill="#000000" font-family="sans-serif" font-size="13" lengthAdjust="spacing" textLength="20" x="229.1664" y="1213.9939">0..*</text><text fill="#000000" font-family="sans-serif" font-size="13" lengthAdjust="spacing" textLength="7" x="135.5021" y="1519.4284">1</text></g><!--link Administrator to Employee--><g id="link_Administrator_Employee"><path
        d="M185.82,1530.2511 C207.61,1506.0111 245.18,1460.4611 265.03,1414.6211 C290.16,1356.6111 299.23,1282.0411 302.4,1242.8811 " fill="none" id="Administrator-Employee" style="stroke:#181818;stroke-width:1.0;"/><polygon fill="#000000" points="301.9096,1354.6333,295.786,1361.9102,301.2327,1364.1198,301.9096,1354.6333" style="stroke:#000000;stroke-width:1.0;"/><text fill="#000000" font-family="sans-serif" font-size="13" lengthAdjust="spacing" textLength="82" x="309.03" y="1364.6494">represented in</text></g><!--link Announcement to User--><g id="link_Announcement_User"><path
        d="M383.39,289.9411 C358.26,309.2111 337.64,334.4711 353.03,359.6211 C369.41,386.3711 406.12,398.6611 428.21,403.8111 " fill="none" id="Announcement-User" style="stroke:#181818;stroke-width:1.0;"/><polygon fill="#000000" points="359.8613,354.9192,359.2832,345.4262,353.8137,347.579,359.8613,354.9192" style="stroke:#000000;stroke-width:1.0;"/><text fill="#000000" font-family="sans-serif" font-size="13" lengthAdjust="spacing" textLength="58" x="367.03" y="355.6494">shows list</text><text fill="#000000" font-family="sans-serif" font-size="13" lengthAdjust="spacing" textLength="7" x="368.5564" y="309.5472">1</text><text fill="#000000" font-family="sans-serif" font-size="13" lengthAdjust="spacing" textLength="20" x="400.3856" y="397.3308">0..*</text></g><!--link Announcement to User--><g id="link_Announcement_User"><path
        d="M442.23,292.2911 C443.25,323.0011 444.66,365.7611 445.45,389.4811 " fill="none" id="Announcement-User-1" style="stroke:#181818;stroke-width:1.0;"/><polygon fill="#000000" points="448.8644,345.2693,446.2266,354.4068,452.1013,354.2122,448.8644,345.2693" style="stroke:#000000;stroke-width:1.0;"/><text fill="#000000" font-family="sans-serif" font-size="13" lengthAdjust="spacing" textLength="185" x="458.03" y="355.6494">requests available properties list</text><text fill="#000000" font-family="sans-serif" font-size="13" lengthAdjust="spacing" textLength="7" x="434.8491" y="313.9189">1</text><text fill="#000000" font-family="sans-serif" font-size="13" lengthAdjust="spacing" textLength="20" x="448.3349" y="378.3004">0..*</text></g><!--link Employee to VisitRequest--><g id="link_Employee_VisitRequest"><path
        d="M336.98,1242.7211 C356.41,1259.2211 380.86,1281.4411 400.03,1303.6211 C452.43,1364.2611 502.43,1442.1311 533.38,1493.5111 " fill="none" id="Employee-VisitRequest" style="stroke:#181818;stroke-width:1.0;"/><polygon fill="#000000" points="488.1128,1363.2031,484.8498,1354.2698,480.2221,1357.8939,488.1128,1363.2031" style="stroke:#000000;stroke-width:1.0;"/><text fill="#000000" font-family="sans-serif" font-size="13" lengthAdjust="spacing" textLength="247" x="494.03" y="1364.6494">wants to accept or decline the visit request</text><text fill="#000000" font-family="sans-serif" font-size="13" lengthAdjust="spacing" textLength="5" x="334.3966" y="1265.1032">*</text><text fill="#000000" font-family="sans-serif" font-size="13" lengthAdjust="spacing" textLength="20" x="508.0436" y="1482.3372">0..*</text></g><!--link Client to VisitRequest--><g id="link_Client_VisitRequest"><path
        d="M774.74,1378.1211 C765.6,1389.1511 753.22,1403.2911 741.03,1414.6211 C710.97,1442.5611 675.3,1470.4611 643.95,1493.4811 " fill="none" id="Client-VisitRequest" style="stroke:#181818;stroke-width:1.0;"/><polygon fill="#000000" points="705.2802,1457.574,714.0077,1453.7949,710.1196,1449.3868,705.2802,1457.574" style="stroke:#000000;stroke-width:1.0;"/><text fill="#000000" font-family="sans-serif" font-size="13" lengthAdjust="spacing" textLength="133" x="718.03" y="1459.6494">wants to request a visit</text><text fill="#000000" font-family="sans-serif" font-size="13" lengthAdjust="spacing" textLength="5" x="765.4376" y="1399.2821">*</text><text fill="#000000" font-family="sans-serif" font-size="13" lengthAdjust="spacing" textLength="7" x="646.6132" y="1482.3034">1</text></g><!--link Client to PurchaseOrder--><g id="link_Client_PurchaseOrder"><path
        d="M810.36,1359.1211 C855.75,1359.1211 963.02,1359.1211 1027.45,1359.1211 " fill="none" id="Client-PurchaseOrder" style="stroke:#181818;stroke-width:1.0;"/><polygon fill="#000000" points="837.28,1346.7666,828.2349,1343.8277,828.2349,1349.7055,837.28,1346.7666" style="stroke:#000000;stroke-width:1.0;"/><text fill="#000000" font-family="sans-serif" font-size="13" lengthAdjust="spacing" textLength="168" x="841.28" y="1352.1494">wants to do a purchase order</text></g><!--SRC=[ZLPRRnCx47xthx3oWeGKnE4HHPL2sYCgSMZL5juTxoHhiMilzcpRqCD_PtpVtQf07X9x_8tdziquxflIWx2YvxtHHhRMzC3HZi1SEHc4_2QES8kd3hW5YK8Vkod0jQ8n3qeVbvgo4yvj4QtQZmYNqkXRzGFukxViLGLrIWEU1k36OcjUiLOrmAMoaco4TGyaRnnZg90yE3UzK9h_Pnhe60ic-3LOPpH_Ofm-MlGG5YWUFu_z7cpO0QbrswQnu5myXWw6rcX8e9_vjXj3Pk9TgWa_3JXfrO3Aw0gxUj1W2LS4r_GrK1GxOPkaFqn4IpF9bmXqQ04mBAN2KxIgIAea9e306DOFDUmeU7zHiMpD01PFoMZQNPxFjdUKv20G5iJL8UiKKq9B-9S8i0DDpaGnsRmwRAM48HnFX3VmVGI7B8YkMuCchEwiq4x8aAaQweTHTOqd23mYwAOwdDAqXyOQqyUwx0MsTKSa8QeSRuc542NYdWefzXrSV1_Lq9EtiRvbLyn-DAE3OZCxaKmA1qMtCuUKvL5VF0x6ZHRgDHVzq9aJG5IaLj3ozDcJh2AoxQUO3-bJABgF890CHZLbTqOtocV6ouhkplIzSauL_ieYA1Mheg-Y6oU6G-8pr_pwoyrbtMG2-FKdgd3LcvGfQMEL5BCq4m25FIsCfjBFEiH6sRadwS_2ost8rJHloQNIew4hVz-E_X9ygbkjpKXSZEcUk20AJRCNAS6T8kYiKKShMwh_bMr21tjjOegzACuiMiXuuBOdkxWmDMtdNcdViGBDR2nyLKvXobafiKRAzTqYv5bccjplg7guxKoeNiW5NnTAylVyZ78_q22X0sYuqYmcdQ_-MH5mzURDwzKiPq7bGMXqdAWpZFjEkPRD454rk-pnvi05AqqRpjVX9mqn0ZaAcpfqQZr2Ygy4sd3bo4SkTEB3ujBmFINdUqw5uc9AJnvUYxFdxeHGOqT4jK1yHz3dqQt78ImctPTDrMOZpJAvPaPAloUbCdj88xmUa_3JsvHlj_vumsPlnSle_7vmwN4RbjFzeaOwtx1SlPhMaYzVK2gw7qsniF4b2yWE3fYZh0JOnCirDnx9aibrGATtq8CMH4ompV_hIjZ4u5asgnsALXqrQLC9brKBq4AxOqo-fASCmRsGcHhmF3U_zU6CYu7Q_zvpUTRI4H-8ypQoe3PXuBM58u71al_xKw3uL7zns_eFJVoSiTdi5nVIVKR_kyo32vNy2_WcZsXN7z0yvXIaQsQZAkcda7dvB2ClioHEHHgMz7z9-hzr75lWz_xER9obORnwNQeqipcRJKc7sY3SaNNNY_azqscCxvfq7kVsBm00]--></g></svg>
