<?xml version="1.0" encoding="us-ascii" standalone="no"?><svg xmlns="http://www.w3.org/2000/svg" xmlns:xlink="http://www.w3.org/1999/xlink" contentStyleType="text/css" height="996px" preserveAspectRatio="none" style="width:903px;height:996px;background:#FFFFFF;" version="1.1" viewBox="0 0 903 996" width="903px" zoomAndPan="magnify"><defs/><g><text fill="#000000" font-family="sans-serif" font-size="14" font-weight="bold" lengthAdjust="spacing" textLength="228" x="339.25" y="30.1074">System Sequence Diagram (SSD)</text><rect fill="#FFFFFF" height="771.2754" style="stroke:#181818;stroke-width:1.0;" width="10" x="46.5" y="133.2422"/><rect fill="#FFFFFF" height="48.582" style="stroke:#181818;stroke-width:1.0;" width="10" x="433.5" y="156.5332"/><rect fill="#FFFFFF" height="168.4551" style="stroke:#181818;stroke-width:1.0;" width="10" x="433.5" y="288.9883"/><rect fill="#FFFFFF" height="48.582" style="stroke:#181818;stroke-width:1.0;" width="10" x="433.5" y="488.7344"/><rect fill="#FFFFFF" height="168.4551" style="stroke:#181818;stroke-width:1.0;" width="10" x="433.5" y="601.8984"/><rect fill="#FFFFFF" height="48.582" style="stroke:#181818;stroke-width:1.0;" width="10" x="433.5" y="801.6445"/><rect fill="none" height="645.1113" style="stroke:#000000;stroke-width:1.5;" width="887.5" x="10" y="220.1152"/><rect fill="none" height="298.9102" style="stroke:#000000;stroke-width:1.5;" width="766.5" x="20" y="246.4063"/><rect fill="none" height="298.9102" style="stroke:#000000;stroke-width:1.5;" width="867.5" x="20" y="559.3164"/><line style="stroke:#181818;stroke-width:0.5;stroke-dasharray:5.0,5.0;" x1="51" x2="51" y1="123.2422" y2="913.5176"/><line style="stroke:#181818;stroke-width:0.5;stroke-dasharray:5.0,5.0;" x1="438.5" x2="438.5" y1="123.2422" y2="913.5176"/><text fill="#000000" font-family="sans-serif" font-size="14" lengthAdjust="spacing" textLength="37" x="30" y="119.7285">Agent</text><ellipse cx="51.5" cy="53.1211" fill="#E3E3E3" rx="8" ry="8" style="stroke:#181818;stroke-width:0.5;"/><path d="M51.5,61.1211 L51.5,88.1211 M38.5,69.1211 L64.5,69.1211 M51.5,88.1211 L38.5,103.1211 M51.5,88.1211 L64.5,103.1211 " fill="none" style="stroke:#181818;stroke-width:0.5;"/><text fill="#000000" font-family="sans-serif" font-size="14" lengthAdjust="spacing" textLength="37" x="30" y="927.625">Agent</text><ellipse cx="51.5" cy="939.6387" fill="#E3E3E3" rx="8" ry="8" style="stroke:#181818;stroke-width:0.5;"/><path d="M51.5,947.6387 L51.5,974.6387 M38.5,955.6387 L64.5,955.6387 M51.5,974.6387 L38.5,989.6387 M51.5,974.6387 L64.5,989.6387 " fill="none" style="stroke:#181818;stroke-width:0.5;"/><rect fill="#E3E3E3" height="32.6211" rx="2.5" ry="2.5" style="stroke:#181818;stroke-width:0.5;" width="64" x="406.5" y="89.6211"/><text fill="#000000" font-family="sans-serif" font-size="14" lengthAdjust="spacing" textLength="50" x="413.5" y="111.7285">:System</text><rect fill="#E3E3E3" height="32.6211" rx="2.5" ry="2.5" style="stroke:#181818;stroke-width:0.5;" width="64" x="406.5" y="912.5176"/><text fill="#000000" font-family="sans-serif" font-size="14" lengthAdjust="spacing" textLength="50" x="413.5" y="934.625">:System</text><rect fill="#FFFFFF" height="771.2754" style="stroke:#181818;stroke-width:1.0;" width="10" x="46.5" y="133.2422"/><rect fill="#FFFFFF" height="48.582" style="stroke:#181818;stroke-width:1.0;" width="10" x="433.5" y="156.5332"/><rect fill="#FFFFFF" height="168.4551" style="stroke:#181818;stroke-width:1.0;" width="10" x="433.5" y="288.9883"/><rect fill="#FFFFFF" height="48.582" style="stroke:#181818;stroke-width:1.0;" width="10" x="433.5" y="488.7344"/><rect fill="#FFFFFF" height="168.4551" style="stroke:#181818;stroke-width:1.0;" width="10" x="433.5" y="601.8984"/><rect fill="#FFFFFF" height="48.582" style="stroke:#181818;stroke-width:1.0;" width="10" x="433.5" y="801.6445"/><polygon fill="#181818" points="421.5,152.5332,431.5,156.5332,421.5,160.5332,425.5,156.5332" style="stroke:#181818;stroke-width:1.0;"/><line style="stroke:#181818;stroke-width:1.0;" x1="56.5" x2="427.5" y1="156.5332" y2="156.5332"/><text fill="#000000" font-family="sans-serif" font-size="13" font-weight="bold" lengthAdjust="spacing" textLength="7" x="63.5" y="151.2705">1</text><text fill="#000000" font-family="sans-serif" font-size="13" lengthAdjust="spacing" textLength="241" x="74.5" y="151.2705">asks to receive the list of purchase orders</text><polygon fill="#181818" points="67.5,201.1152,57.5,205.1152,67.5,209.1152,63.5,205.1152" style="stroke:#181818;stroke-width:1.0;"/><line style="stroke:#181818;stroke-width:1.0;stroke-dasharray:2.0,2.0;" x1="61.5" x2="437.5" y1="205.1152" y2="205.1152"/><text fill="#000000" font-family="sans-serif" font-size="13" font-weight="bold" lengthAdjust="spacing" textLength="7" x="73.5" y="191.207">2</text><text fill="#000000" font-family="sans-serif" font-size="13" lengthAdjust="spacing" textLength="335" x="84.5" y="182.5615">shows the list of purchase orders for the selected property</text><text fill="#000000" font-family="sans-serif" font-size="13" lengthAdjust="spacing" textLength="132" x="84.5" y="199.8525">and asks to select one</text><path d="M10,220.1152 L83,220.1152 L83,229.4063 L73,239.4063 L10,239.4063 L10,220.1152 " fill="#EEEEEE" style="stroke:#000000;stroke-width:1.5;"/><rect fill="none" height="645.1113" style="stroke:#000000;stroke-width:1.5;" width="887.5" x="10" y="220.1152"/><text fill="#000000" font-family="sans-serif" font-size="13" font-weight="bold" lengthAdjust="spacing" textLength="28" x="25" y="235.1436">loop</text><text fill="#000000" font-family="sans-serif" font-size="11" font-weight="bold" lengthAdjust="spacing" textLength="296" x="98" y="233.9854">[until agent exits or until all orders and taken care off]</text><path d="M20,246.4063 L81,246.4063 L81,255.6973 L71,265.6973 L20,265.6973 L20,246.4063 " fill="#EEEEEE" style="stroke:#000000;stroke-width:1.5;"/><rect fill="none" height="298.9102" style="stroke:#000000;stroke-width:1.5;" width="766.5" x="20" y="246.4063"/><text fill="#000000" font-family="sans-serif" font-size="13" font-weight="bold" lengthAdjust="spacing" textLength="16" x="35" y="261.4346">alt</text><text fill="#000000" font-family="sans-serif" font-size="11" font-weight="bold" lengthAdjust="spacing" textLength="98" x="96" y="260.2764">[offer is declined]</text><polygon fill="#181818" points="421.5,284.9883,431.5,288.9883,421.5,292.9883,425.5,288.9883" style="stroke:#181818;stroke-width:1.0;"/><line style="stroke:#181818;stroke-width:1.0;" x1="56.5" x2="427.5" y1="288.9883" y2="288.9883"/><text fill="#000000" font-family="sans-serif" font-size="13" font-weight="bold" lengthAdjust="spacing" textLength="7" x="63.5" y="283.7256">3</text><text fill="#000000" font-family="sans-serif" font-size="13" lengthAdjust="spacing" textLength="76" x="74.5" y="283.7256">declines offer</text><line style="stroke:#181818;stroke-width:1.0;stroke-dasharray:2.0,2.0;" x1="443.5" x2="485.5" y1="320.2793" y2="320.2793"/><line style="stroke:#181818;stroke-width:1.0;stroke-dasharray:2.0,2.0;" x1="485.5" x2="485.5" y1="320.2793" y2="333.2793"/><line style="stroke:#181818;stroke-width:1.0;stroke-dasharray:2.0,2.0;" x1="444.5" x2="485.5" y1="333.2793" y2="333.2793"/><polygon fill="#181818" points="454.5,329.2793,444.5,333.2793,454.5,337.2793,450.5,333.2793" style="stroke:#181818;stroke-width:1.0;"/><text fill="#000000" font-family="sans-serif" font-size="13" font-weight="bold" lengthAdjust="spacing" textLength="7" x="450.5" y="315.0166">4</text><text fill="#000000" font-family="sans-serif" font-size="13" lengthAdjust="spacing" textLength="146" x="461.5" y="315.0166">deletes offer from system</text><line style="stroke:#181818;stroke-width:1.0;stroke-dasharray:2.0,2.0;" x1="443.5" x2="485.5" y1="364.5703" y2="364.5703"/><line style="stroke:#181818;stroke-width:1.0;stroke-dasharray:2.0,2.0;" x1="485.5" x2="485.5" y1="364.5703" y2="377.5703"/><line style="stroke:#181818;stroke-width:1.0;stroke-dasharray:2.0,2.0;" x1="444.5" x2="485.5" y1="377.5703" y2="377.5703"/><polygon fill="#181818" points="454.5,373.5703,444.5,377.5703,454.5,381.5703,450.5,377.5703" style="stroke:#181818;stroke-width:1.0;"/><text fill="#000000" font-family="sans-serif" font-size="13" font-weight="bold" lengthAdjust="spacing" textLength="7" x="450.5" y="359.3076">5</text><text fill="#000000" font-family="sans-serif" font-size="13" lengthAdjust="spacing" textLength="313" x="461.5" y="359.3076">sends email to inform the user responsible for the offer</text><polygon fill="#181818" points="67.5,422.1523,57.5,426.1523,67.5,430.1523,63.5,426.1523" style="stroke:#181818;stroke-width:1.0;"/><line style="stroke:#181818;stroke-width:1.0;stroke-dasharray:2.0,2.0;" x1="61.5" x2="432.5" y1="426.1523" y2="426.1523"/><text fill="#000000" font-family="sans-serif" font-size="13" font-weight="bold" lengthAdjust="spacing" textLength="7" x="73.5" y="412.2441">6</text><text fill="#000000" font-family="sans-serif" font-size="13" lengthAdjust="spacing" textLength="221" x="84.5" y="403.5986">informs agent of successful deletion of</text><text fill="#000000" font-family="sans-serif" font-size="13" lengthAdjust="spacing" textLength="298" x="84.5" y="420.8896">purchase order and that the user has been informed</text><polygon fill="#181818" points="67.5,453.4434,57.5,457.4434,67.5,461.4434,63.5,457.4434" style="stroke:#181818;stroke-width:1.0;"/><line style="stroke:#181818;stroke-width:1.0;stroke-dasharray:2.0,2.0;" x1="61.5" x2="437.5" y1="457.4434" y2="457.4434"/><text fill="#000000" font-family="sans-serif" font-size="13" font-weight="bold" lengthAdjust="spacing" textLength="7" x="73.5" y="452.1807">7</text><text fill="#000000" font-family="sans-serif" font-size="13" lengthAdjust="spacing" textLength="327" x="84.5" y="452.1807">asks agent if they want to continue or if they want to exit</text><polygon fill="#181818" points="421.5,484.7344,431.5,488.7344,421.5,492.7344,425.5,488.7344" style="stroke:#181818;stroke-width:1.0;"/><line style="stroke:#181818;stroke-width:1.0;" x1="56.5" x2="427.5" y1="488.7344" y2="488.7344"/><text fill="#000000" font-family="sans-serif" font-size="13" font-weight="bold" lengthAdjust="spacing" textLength="7" x="63.5" y="483.4717">8</text><text fill="#000000" font-family="sans-serif" font-size="13" lengthAdjust="spacing" textLength="102" x="74.5" y="483.4717">wants to continue</text><polygon fill="#181818" points="67.5,533.3164,57.5,537.3164,67.5,541.3164,63.5,537.3164" style="stroke:#181818;stroke-width:1.0;"/><line style="stroke:#181818;stroke-width:1.0;stroke-dasharray:2.0,2.0;" x1="61.5" x2="437.5" y1="537.3164" y2="537.3164"/><text fill="#000000" font-family="sans-serif" font-size="13" font-weight="bold" lengthAdjust="spacing" textLength="7" x="73.5" y="523.4082">9</text><text fill="#000000" font-family="sans-serif" font-size="13" lengthAdjust="spacing" textLength="335" x="84.5" y="514.7627">shows the list of purchase orders for the selected property</text><text fill="#000000" font-family="sans-serif" font-size="13" lengthAdjust="spacing" textLength="132" x="84.5" y="532.0537">and asks to select one</text><path d="M20,559.3164 L81,559.3164 L81,568.6074 L71,578.6074 L20,578.6074 L20,559.3164 " fill="#EEEEEE" style="stroke:#000000;stroke-width:1.5;"/><rect fill="none" height="298.9102" style="stroke:#000000;stroke-width:1.5;" width="867.5" x="20" y="559.3164"/><text fill="#000000" font-family="sans-serif" font-size="13" font-weight="bold" lengthAdjust="spacing" textLength="16" x="35" y="574.3447">alt</text><text fill="#000000" font-family="sans-serif" font-size="11" font-weight="bold" lengthAdjust="spacing" textLength="101" x="96" y="573.1865">[offer is accepted]</text><polygon fill="#181818" points="421.5,597.8984,431.5,601.8984,421.5,605.8984,425.5,601.8984" style="stroke:#181818;stroke-width:1.0;"/><line style="stroke:#181818;stroke-width:1.0;" x1="56.5" x2="427.5" y1="601.8984" y2="601.8984"/><text fill="#000000" font-family="sans-serif" font-size="13" font-weight="bold" lengthAdjust="spacing" textLength="14" x="63.5" y="596.6357">10</text><text fill="#000000" font-family="sans-serif" font-size="13" lengthAdjust="spacing" textLength="74" x="81.5" y="596.6357">accepts offer</text><line style="stroke:#181818;stroke-width:1.0;stroke-dasharray:2.0,2.0;" x1="443.5" x2="485.5" y1="633.1895" y2="633.1895"/><line style="stroke:#181818;stroke-width:1.0;stroke-dasharray:2.0,2.0;" x1="485.5" x2="485.5" y1="633.1895" y2="646.1895"/><line style="stroke:#181818;stroke-width:1.0;stroke-dasharray:2.0,2.0;" x1="444.5" x2="485.5" y1="646.1895" y2="646.1895"/><polygon fill="#181818" points="454.5,642.1895,444.5,646.1895,454.5,650.1895,450.5,646.1895" style="stroke:#181818;stroke-width:1.0;"/><text fill="#000000" font-family="sans-serif" font-size="13" font-weight="bold" lengthAdjust="spacing" textLength="14" x="450.5" y="627.9268">11</text><text fill="#000000" font-family="sans-serif" font-size="13" lengthAdjust="spacing" textLength="407" x="468.5" y="627.9268">deletes offer from TBA repository and adds to the list of accepted ones</text><line style="stroke:#181818;stroke-width:1.0;stroke-dasharray:2.0,2.0;" x1="443.5" x2="485.5" y1="677.4805" y2="677.4805"/><line style="stroke:#181818;stroke-width:1.0;stroke-dasharray:2.0,2.0;" x1="485.5" x2="485.5" y1="677.4805" y2="690.4805"/><line style="stroke:#181818;stroke-width:1.0;stroke-dasharray:2.0,2.0;" x1="444.5" x2="485.5" y1="690.4805" y2="690.4805"/><polygon fill="#181818" points="454.5,686.4805,444.5,690.4805,454.5,694.4805,450.5,690.4805" style="stroke:#181818;stroke-width:1.0;"/><text fill="#000000" font-family="sans-serif" font-size="13" font-weight="bold" lengthAdjust="spacing" textLength="14" x="450.5" y="672.2178">12</text><text fill="#000000" font-family="sans-serif" font-size="13" lengthAdjust="spacing" textLength="313" x="468.5" y="672.2178">sends email to inform the user responsible for the offer</text><polygon fill="#181818" points="67.5,735.0625,57.5,739.0625,67.5,743.0625,63.5,739.0625" style="stroke:#181818;stroke-width:1.0;"/><line style="stroke:#181818;stroke-width:1.0;stroke-dasharray:2.0,2.0;" x1="61.5" x2="432.5" y1="739.0625" y2="739.0625"/><text fill="#000000" font-family="sans-serif" font-size="13" font-weight="bold" lengthAdjust="spacing" textLength="14" x="73.5" y="725.1543">13</text><text fill="#000000" font-family="sans-serif" font-size="13" lengthAdjust="spacing" textLength="243" x="91.5" y="716.5088">informs agent of successful acceptance of</text><text fill="#000000" font-family="sans-serif" font-size="13" lengthAdjust="spacing" textLength="298" x="91.5" y="733.7998">purchase order and that the user has been informed</text><polygon fill="#181818" points="67.5,766.3535,57.5,770.3535,67.5,774.3535,63.5,770.3535" style="stroke:#181818;stroke-width:1.0;"/><line style="stroke:#181818;stroke-width:1.0;stroke-dasharray:2.0,2.0;" x1="61.5" x2="437.5" y1="770.3535" y2="770.3535"/><text fill="#000000" font-family="sans-serif" font-size="13" font-weight="bold" lengthAdjust="spacing" textLength="14" x="73.5" y="765.0908">14</text><text fill="#000000" font-family="sans-serif" font-size="13" lengthAdjust="spacing" textLength="327" x="91.5" y="765.0908">asks agent if they want to continue or if they want to exit</text><polygon fill="#181818" points="421.5,797.6445,431.5,801.6445,421.5,805.6445,425.5,801.6445" style="stroke:#181818;stroke-width:1.0;"/><line style="stroke:#181818;stroke-width:1.0;" x1="56.5" x2="427.5" y1="801.6445" y2="801.6445"/><text fill="#000000" font-family="sans-serif" font-size="13" font-weight="bold" lengthAdjust="spacing" textLength="14" x="63.5" y="796.3818">15</text><text fill="#000000" font-family="sans-serif" font-size="13" lengthAdjust="spacing" textLength="102" x="81.5" y="796.3818">wants to continue</text><polygon fill="#181818" points="67.5,846.2266,57.5,850.2266,67.5,854.2266,63.5,850.2266" style="stroke:#181818;stroke-width:1.0;"/><line style="stroke:#181818;stroke-width:1.0;stroke-dasharray:2.0,2.0;" x1="61.5" x2="437.5" y1="850.2266" y2="850.2266"/><text fill="#000000" font-family="sans-serif" font-size="13" font-weight="bold" lengthAdjust="spacing" textLength="14" x="73.5" y="836.3184">16</text><text fill="#000000" font-family="sans-serif" font-size="13" lengthAdjust="spacing" textLength="335" x="91.5" y="827.6729">shows the list of purchase orders for the selected property</text><text fill="#000000" font-family="sans-serif" font-size="13" lengthAdjust="spacing" textLength="132" x="91.5" y="844.9639">and asks to select one</text><polygon fill="#181818" points="67.5,891.5176,57.5,895.5176,67.5,899.5176,63.5,895.5176" style="stroke:#181818;stroke-width:1.0;"/><line style="stroke:#181818;stroke-width:1.0;stroke-dasharray:2.0,2.0;" x1="61.5" x2="437.5" y1="895.5176" y2="895.5176"/><text fill="#000000" font-family="sans-serif" font-size="13" font-weight="bold" lengthAdjust="spacing" textLength="14" x="73.5" y="890.2549">17</text><text fill="#000000" font-family="sans-serif" font-size="13" lengthAdjust="spacing" textLength="158" x="91.5" y="890.2549">displays operation success</text><!--SRC=[nLH1Sjim3Bph5HYVcaC-u4DdaiaFt6CkC0NP75CaIq1nzVk2f6IxIMIdpRJLYICGkzZ53lbWVSI4FVJ11xDFeIUGD533fqf4Sy0TRMHq18cCeD-vomkynpOShTz1XuwfQSIANjsCBDJ3XhuFv0t1ayLTllvbitcwQneS9FYXtrBIiv6GOFMm8oyhG8PoQXHUhB4HlS1gNV5AkHvBdtr1eUb-0_gL8zn_dVdNsd1Wa91d9_kY-lO4ph90w20EoUoH2K9gAN65EC7EF31z4-IzebUQjOeFHxu62PrAotKcf-PH2p65I4d6Pu- -FKrNon0y5RgMNa-H_xeG8WnUh0Ci0z0FAwnCyq_dPjgCBNWW3mQJ3jDrLPlBGtQKmBAI66SzjGl6JMMk3H-svgBVaSpjq6cuWCzQbhgOVCj0FQeUzSLwDR0l3WwiC8au1izsgn6RhJtFjx2b2iAJQRea7emXvcvmTKeRVFxzx7_TNdLnZtBcro9iIMsjc9Dv2xnbkPNKTXbZX6DEi-eoGJVcXqpqffQtUYK5xsyhD_Cbykdk4iQ_plJxYaf9TzwypIVgag8ivhEM-TNwhwdzO4g_FJvepc9Wg-_IM4A0RLiaNReoZvS5yasUJ-Vw3x9T9yJy_7ustNyfuTTJ_hj9lvds_v3u6wa_fV_QEz9QZWv73QboOdcjfYqlF1C_0G00]--></g></svg>