<?xml version="1.0" encoding="us-ascii" standalone="no"?><svg xmlns="http://www.w3.org/2000/svg" xmlns:xlink="http://www.w3.org/1999/xlink" contentStyleType="text/css" height="740px" preserveAspectRatio="none" style="width:886px;height:740px;background:#FFFFFF;" version="1.1" viewBox="0 0 886 740" width="886.4px" zoomAndPan="magnify"><defs/><g><text fill="#000000" font-family="sans-serif" font-size="11.2" font-weight="bold" lengthAdjust="spacing" textLength="124.8" x="375.2" y="20.0859">Domain Model - US004</text><!--class Person--><g id="elem_Person"><rect
        fill="#F1F1F1" height="88.8844" id="Person" rx="2" ry="2" style="stroke:#181818;stroke-width:0.4000000000000001;" width="99.2" x="408" y="364.0969"/><text fill="#000000" font-family="sans-serif" font-size="11.2" lengthAdjust="spacing" textLength="36" x="439.6" y="380.1828">Person</text><line style="stroke:#181818;stroke-width:0.4000000000000001;" x1="408.8" x2="506.4" y1="386.9938" y2="386.9938"/><text fill="#000000" font-family="sans-serif" font-size="11.2" lengthAdjust="spacing" textLength="28" x="412.8" y="402.2797">name</text><text fill="#000000" font-family="sans-serif" font-size="11.2" lengthAdjust="spacing" textLength="53.6" x="412.8" y="417.1766">taxNumber</text><text fill="#000000" font-family="sans-serif" font-size="11.2" lengthAdjust="spacing" textLength="68" x="412.8" y="432.0734">emailAddress</text><text fill="#000000" font-family="sans-serif" font-size="11.2" lengthAdjust="spacing" textLength="89.6" x="412.8" y="446.9703">telephoneNumber</text></g><!--class Owner--><g id="elem_Owner"><rect
        fill="#F1F1F1" height="29.2969" id="Owner" rx="2" ry="2" style="stroke:#181818;stroke-width:0.4000000000000001;" width="37.6" x="447.6" y="545.6969"/><text fill="#000000" font-family="sans-serif" font-size="11.2" lengthAdjust="spacing" textLength="32.8" x="450" y="561.7828">Owner</text><line style="stroke:#181818;stroke-width:0.4000000000000001;" x1="448.4" x2="484.4" y1="568.5938" y2="568.5938"/></g><!--class PassportCard--><g id="elem_PassportCard"><rect
        fill="#F1F1F1" height="44.1938" id="PassportCard" rx="2" ry="2" style="stroke:#181818;stroke-width:0.4000000000000001;" width="117.6" x="592.4" y="219.2969"/><text fill="#000000" font-family="sans-serif" font-size="11.2" lengthAdjust="spacing" textLength="69.6" x="616.4" y="235.3828">PassportCard</text><line style="stroke:#181818;stroke-width:0.4000000000000001;" x1="593.2" x2="709.2" y1="242.1938" y2="242.1938"/><text fill="#000000" font-family="sans-serif" font-size="11.2" lengthAdjust="spacing" textLength="108" x="597.2" y="257.4797">passportCardNumber</text></g><!--class Address--><g id="elem_Address"><rect
        fill="#F1F1F1" height="103.7813" id="Address" rx="2" ry="2" style="stroke:#181818;stroke-width:0.4000000000000001;" width="50.4" x="423.6" y="189.2969"/><text fill="#000000" font-family="sans-serif" font-size="11.2" lengthAdjust="spacing" textLength="41.6" x="428" y="205.3828">Address</text><line style="stroke:#181818;stroke-width:0.4000000000000001;" x1="424.4" x2="473.2" y1="212.1938" y2="212.1938"/><text fill="#000000" font-family="sans-serif" font-size="11.2" lengthAdjust="spacing" textLength="28.8" x="428.4" y="227.4797">street</text><text fill="#000000" font-family="sans-serif" font-size="11.2" lengthAdjust="spacing" textLength="16.8" x="428.4" y="242.3766">city</text><text fill="#000000" font-family="sans-serif" font-size="11.2" lengthAdjust="spacing" textLength="32.8" x="428.4" y="257.2734">district</text><text fill="#000000" font-family="sans-serif" font-size="11.2" lengthAdjust="spacing" textLength="24.8" x="428.4" y="272.1703">state</text><text fill="#000000" font-family="sans-serif" font-size="11.2" lengthAdjust="spacing" textLength="40.8" x="428.4" y="287.0672">zipCode</text></g><!--class Apartment--><g id="elem_Apartment"><rect
        fill="#F1F1F1" height="29.2969" id="Apartment" rx="2" ry="2" style="stroke:#181818;stroke-width:0.4000000000000001;" width="56.8" x="123.6" y="226.4969"/><text fill="#000000" font-family="sans-serif" font-size="11.2" lengthAdjust="spacing" textLength="52" x="126" y="242.5828">Apartment</text><line style="stroke:#181818;stroke-width:0.4000000000000001;" x1="124.4" x2="179.6" y1="249.3938" y2="249.3938"/></g><!--class Land--><g id="elem_Land"><rect
        fill="#F1F1F1" height="29.2969" id="Land" rx="2" ry="2" style="stroke:#181818;stroke-width:0.4000000000000001;" width="30.4" x="238.4" y="682.4969"/><text fill="#000000" font-family="sans-serif" font-size="11.2" lengthAdjust="spacing" textLength="25.6" x="240.8" y="698.5828">Land</text><line style="stroke:#181818;stroke-width:0.4000000000000001;" x1="239.2" x2="268" y1="705.3938" y2="705.3938"/></g><!--class Property--><g id="elem_Property"><rect
        fill="#F1F1F1" height="59.0906" id="Property" rx="2" ry="2" style="stroke:#181818;stroke-width:0.4000000000000001;" width="112.8" x="233.2" y="530.8969"/><text fill="#000000" font-family="sans-serif" font-size="11.2" lengthAdjust="spacing" textLength="43.2" x="268" y="546.9828">Property</text><line style="stroke:#181818;stroke-width:0.4000000000000001;" x1="234" x2="345.2" y1="553.7938" y2="553.7938"/><text fill="#000000" font-family="sans-serif" font-size="11.2" lengthAdjust="spacing" textLength="78.4" x="238" y="569.0797">areaOfProperty</text><text fill="#000000" font-family="sans-serif" font-size="11.2" lengthAdjust="spacing" textLength="103.2" x="238" y="583.9766">distanceFromCentre</text></g><!--class Building--><g id="elem_Building"><rect
        fill="#F1F1F1" height="103.7813" id="Building" rx="2" ry="2" style="stroke:#181818;stroke-width:0.4000000000000001;" width="108" x="98" y="356.4969"/><text fill="#000000" font-family="sans-serif" font-size="11.2" lengthAdjust="spacing" textLength="40" x="132" y="372.5828">Building</text><line style="stroke:#181818;stroke-width:0.4000000000000001;" x1="98.8" x2="205.2" y1="379.3938" y2="379.3938"/><text fill="#000000" font-family="sans-serif" font-size="11.2" lengthAdjust="spacing" textLength="50.4" x="102.8" y="394.6797">bedrooms</text><text fill="#000000" font-family="sans-serif" font-size="11.2" lengthAdjust="spacing" textLength="53.6" x="102.8" y="409.5766">bathrooms</text><text fill="#000000" font-family="sans-serif" font-size="11.2" lengthAdjust="spacing" textLength="75.2" x="102.8" y="424.4734">parkingSpaces</text><text fill="#000000" font-family="sans-serif" font-size="11.2" lengthAdjust="spacing" textLength="98.4" x="102.8" y="439.3703">availableEquipment</text><text fill="#000000" font-family="sans-serif" font-size="11.2" lengthAdjust="spacing" textLength="52.8" x="102.8" y="454.2672">equipment</text></g><!--class House--><g id="elem_House"><rect
        fill="#F1F1F1" height="73.9875" id="House" rx="2" ry="2" style="stroke:#181818;stroke-width:0.4000000000000001;" width="75.2" x="5.6" y="523.6969"/><text fill="#000000" font-family="sans-serif" font-size="11.2" lengthAdjust="spacing" textLength="32" x="27.2" y="539.7828">House</text><line style="stroke:#181818;stroke-width:0.4000000000000001;" x1="6.4" x2="80" y1="546.5938" y2="546.5938"/><text fill="#000000" font-family="sans-serif" font-size="11.2" lengthAdjust="spacing" textLength="49.6" x="10.4" y="561.8797">basement</text><text fill="#000000" font-family="sans-serif" font-size="11.2" lengthAdjust="spacing" textLength="15.2" x="10.4" y="576.7766">loft</text><text fill="#000000" font-family="sans-serif" font-size="11.2" lengthAdjust="spacing" textLength="65.6" x="10.4" y="591.6734">sunExposure</text></g><!--class Equipment--><g id="elem_Equipment"><rect
        fill="#F1F1F1" height="59.0906" id="Equipment" rx="2" ry="2" style="stroke:#181818;stroke-width:0.4000000000000001;" width="85.6" x="109.2" y="530.8969"/><text fill="#000000" font-family="sans-serif" font-size="11.2" lengthAdjust="spacing" textLength="53.6" x="125.2" y="546.9828">Equipment</text><line style="stroke:#181818;stroke-width:0.4000000000000001;" x1="110" x2="194" y1="553.7938" y2="553.7938"/><text fill="#000000" font-family="sans-serif" font-size="11.2" lengthAdjust="spacing" textLength="72.8" x="114" y="569.0797">centralHeating</text><text fill="#000000" font-family="sans-serif" font-size="11.2" lengthAdjust="spacing" textLength="76" x="114" y="583.9766">airConditioning</text></g><!--class Photo--><g id="elem_Photo"><rect
        fill="#F1F1F1" height="73.9875" id="Photo" rx="2" ry="2" style="stroke:#181818;stroke-width:0.4000000000000001;" width="56" x="296.8" y="660.4969"/><text fill="#000000" font-family="sans-serif" font-size="11.2" lengthAdjust="spacing" textLength="29.6" x="310" y="676.5828">Photo</text><line style="stroke:#181818;stroke-width:0.4000000000000001;" x1="297.6" x2="352" y1="683.3938" y2="683.3938"/><text fill="#000000" font-family="sans-serif" font-size="11.2" lengthAdjust="spacing" textLength="46.4" x="301.6" y="698.6797">photoURI</text><text fill="#000000" font-family="sans-serif" font-size="11.2" lengthAdjust="spacing" textLength="39.2" x="301.6" y="713.5766">photoID</text><text fill="#000000" font-family="sans-serif" font-size="11.2" lengthAdjust="spacing" textLength="46.4" x="301.6" y="728.4734">photoList</text></g><!--class TypeOfTransaction--><g id="elem_TypeOfTransaction"><rect
        fill="#F1F1F1" height="59.0906" id="TypeOfTransaction" rx="2" ry="2" style="stroke:#181818;stroke-width:0.4000000000000001;" width="102.4" x="736" y="530.8969"/><text fill="#000000" font-family="sans-serif" font-size="11.2" lengthAdjust="spacing" textLength="97.6" x="738.4" y="546.9828">TypeOfTransaction</text><line style="stroke:#181818;stroke-width:0.4000000000000001;" x1="736.8" x2="837.6" y1="553.7938" y2="553.7938"/><text fill="#000000" font-family="sans-serif" font-size="11.2" lengthAdjust="spacing" textLength="81.6" x="740.8" y="569.0797">transactionType</text><text fill="#000000" font-family="sans-serif" font-size="11.2" lengthAdjust="spacing" textLength="76" x="740.8" y="583.9766">monetaryValue</text></g><!--class Agency--><g id="elem_Agency"><rect
        fill="#F1F1F1" height="88.8844" id="Agency" rx="2" ry="2" style="stroke:#181818;stroke-width:0.4000000000000001;" width="99.2" x="449.6" y="37.2969"/><text fill="#000000" font-family="sans-serif" font-size="11.2" lengthAdjust="spacing" textLength="37.6" x="480.4" y="53.3828">Agency</text><line style="stroke:#181818;stroke-width:0.4000000000000001;" x1="450.4" x2="548" y1="60.1938" y2="60.1938"/><text fill="#000000" font-family="sans-serif" font-size="11.2" lengthAdjust="spacing" textLength="47.2" x="454.4" y="75.4797">agencyID</text><text fill="#000000" font-family="sans-serif" font-size="11.2" lengthAdjust="spacing" textLength="28" x="454.4" y="90.3766">name</text><text fill="#000000" font-family="sans-serif" font-size="11.2" lengthAdjust="spacing" textLength="26.4" x="454.4" y="105.2734">email</text><text fill="#000000" font-family="sans-serif" font-size="11.2" lengthAdjust="spacing" textLength="89.6" x="454.4" y="120.1703">telephoneNumber</text></g><!--class Request--><g id="elem_Request"><rect
        fill="#F1F1F1" height="44.1938" id="Request" rx="2" ry="2" style="stroke:#181818;stroke-width:0.4000000000000001;" width="72" x="661.6" y="386.4969"/><text fill="#000000" font-family="sans-serif" font-size="11.2" lengthAdjust="spacing" textLength="42.4" x="676.4" y="402.5828">Request</text><line style="stroke:#181818;stroke-width:0.4000000000000001;" x1="662.4" x2="732.8" y1="409.3938" y2="409.3938"/><text fill="#000000" font-family="sans-serif" font-size="11.2" lengthAdjust="spacing" textLength="62.4" x="666.4" y="424.6797">requestDate</text></g><!--class Employee--><g id="elem_Employee"><rect fill="#F1F1F1" height="29.2969" id="Employee" rx="2" ry="2" style="stroke:#181818;stroke-width:0.4000000000000001;" width="54.4" x="522.4" y="545.6969"/><text fill="#000000" font-family="sans-serif" font-size="11.2" lengthAdjust="spacing" textLength="49.6" x="524.8" y="561.7828">Employee</text><line style="stroke:#181818;stroke-width:0.4000000000000001;" x1="523.2" x2="576" y1="568.5938" y2="568.5938"/></g><!--link Request to Property--><g id="link_Request_Property"><path
        d="M665.624,430.6009 C633.776,450.9609 582.888,481.2009 535.2,499.6969 C491.944,516.4729 478.688,512.7369 433.6,523.6969 C404.8,530.6969 372.824,538.6729 346.328,545.3369 " fill="none" id="Request-Property" style="stroke:#181818;stroke-width:0.8000000000000002;"/><polygon fill="#000000" points="568.2357,493.566,575.8405,493.3316,574.2503,488.9063,568.2357,493.566" style="stroke:#000000;stroke-width:0.8000000000000002;"/><text fill="#000000" font-family="sans-serif" font-size="10.4" lengthAdjust="spacing" textLength="57.6" x="579.2" y="496.5195">has property</text><text fill="#000000" font-family="sans-serif" font-size="10.4" lengthAdjust="spacing" textLength="5.6" x="652.4168" y="448.1506">1</text><text fill="#000000" font-family="sans-serif" font-size="10.4" lengthAdjust="spacing" textLength="5.6" x="352.4668" y="540.7126">1</text></g><!--link Request to Employee--><g id="link_Request_Employee"><path
        d="M694.872,430.5609 C691.344,450.4649 683.472,480.0009 666.4,499.6969 C642.656,527.0809 603.352,543.5929 576.976,552.1769 " fill="none" id="Request-Employee" style="stroke:#181818;stroke-width:0.8000000000000002;"/><polygon fill="#000000" points="677.2158,495.0853,683.9406,491.5263,680.5643,488.2533,677.2158,495.0853" style="stroke:#000000;stroke-width:0.8000000000000002;"/><text fill="#000000" font-family="sans-serif" font-size="10.4" lengthAdjust="spacing" textLength="45.6" x="687.2" y="496.5195">has agent</text><text fill="#000000" font-family="sans-serif" font-size="10.4" lengthAdjust="spacing" textLength="5.6" x="687.9937" y="448.4628">1</text><text fill="#000000" font-family="sans-serif" font-size="10.4" lengthAdjust="spacing" textLength="5.6" x="583.1998" y="546.7363">1</text></g><!--link Request to TypeOfTransaction--><g id="link_Request_TypeOfTransaction"><path
        d="M716.616,430.5689 C728.92,445.0569 744.696,465.0649 756,484.4969 C764.456,499.0329 771.792,516.3049 777.224,530.6329 " fill="none" id="Request-TypeOfTransaction" style="stroke:#181818;stroke-width:0.8000000000000002;"/><polygon fill="#000000" points="769.2723,495.6346,767.5345,488.2273,763.5125,490.6634,769.2723,495.6346" style="stroke:#000000;stroke-width:0.8000000000000002;"/><text fill="#000000" font-family="sans-serif" font-size="10.4" lengthAdjust="spacing" textLength="105.6" x="774.4" y="496.5195">has type of transaction</text><text fill="#000000" font-family="sans-serif" font-size="10.4" lengthAdjust="spacing" textLength="5.6" x="714.766" y="448.4727">1</text><text fill="#000000" font-family="sans-serif" font-size="10.4" lengthAdjust="spacing" textLength="5.6" x="769.4281" y="521.9833">1</text></g><!--link Property to Photo--><g id="link_Property_Photo"><path
        d="M297.152,590.2969 C302.488,610.7849 309.672,638.3769 315.376,660.3049 " fill="none" id="Property-Photo" style="stroke:#181818;stroke-width:0.8000000000000002;"/><polygon fill="#000000" points="313.8077,632.8843,314.2601,625.2893,309.7095,626.4739,313.8077,632.8843" style="stroke:#000000;stroke-width:0.8000000000000002;"/><text fill="#000000" font-family="sans-serif" font-size="10.4" lengthAdjust="spacing" textLength="51.2" x="320" y="633.3195">has photos</text><text fill="#000000" font-family="sans-serif" font-size="10.4" lengthAdjust="spacing" textLength="5.6" x="292.3391" y="607.6097">1</text><text fill="#000000" font-family="sans-serif" font-size="10.4" lengthAdjust="spacing" textLength="26.4" x="285.6531" y="651.4842">1...30</text></g><!--reverse link Property to Land--><g id="link_Property_Land"><path
        d="M275.648,605.6009 C274.096,610.8729 272.576,616.1929 271.2,621.2969 C265.504,642.3929 259.928,667.1129 256.624,682.2889 " fill="none" id="Property-backto-Land" style="stroke:#181818;stroke-width:0.8000000000000002;"/><polygon fill="none" points="270.32,603.8649,280.312,590.1769,281.04,607.1129,270.32,603.8649" style="stroke:#181818;stroke-width:0.8000000000000002;"/><polygon fill="#000000" points="276.1631,625.131,272.1389,631.5881,276.7028,632.7202,276.1631,625.131" style="stroke:#000000;stroke-width:0.8000000000000002;"/><text fill="#000000" font-family="sans-serif" font-size="10.4" lengthAdjust="spacing" textLength="16.8" x="282.4" y="633.3195">is a</text><text fill="#000000" font-family="sans-serif" font-size="10.4" lengthAdjust="spacing" textLength="5.6" x="272.6344" y="607.6989">1</text><text fill="#000000" font-family="sans-serif" font-size="10.4" lengthAdjust="spacing" textLength="5.6" x="251.0898" y="673.5841">1</text></g><!--link Building to Property--><g id="link_Building_Property"><path
        d="M206.096,457.1769 C215.28,465.9929 224.52,475.3209 232.8,484.4969 C242.072,494.7769 251.424,506.4729 259.776,517.5289 " fill="none" id="Building-to-Property" style="stroke:#181818;stroke-width:0.8000000000000002;"/><polygon fill="none" points="264.408,514.3609,269.416,530.5609,255.4,521.0249,264.408,514.3609" style="stroke:#181818;stroke-width:0.8000000000000002;"/><polygon fill="#000000" points="251.4584,495.2021,248.4061,488.2327,244.8925,491.3578,251.4584,495.2021" style="stroke:#000000;stroke-width:0.8000000000000002;"/><text fill="#000000" font-family="sans-serif" font-size="10.4" lengthAdjust="spacing" textLength="16.8" x="256" y="496.5195">is a</text><text fill="#000000" font-family="sans-serif" font-size="10.4" lengthAdjust="spacing" textLength="5.6" x="212.319" y="459.4049">1</text><text fill="#000000" font-family="sans-serif" font-size="10.4" lengthAdjust="spacing" textLength="5.6" x="259.8656" y="521.8989">1</text></g><!--link Agency to Address--><g id="link_Agency_Address"><path
        d="M470.4,126.3849 C466.36,134.0489 462.68,142.1209 460,150.0969 C455.84,162.4649 453.2,176.2489 451.528,189.2489 " fill="none" id="Agency-Address" style="stroke:#181818;stroke-width:0.8000000000000002;"/><polygon fill="#000000" points="462.8499,161.6444,467.1823,155.3899,462.6786,154.0378,462.8499,161.6444" style="stroke:#000000;stroke-width:0.8000000000000002;"/><text fill="#000000" font-family="sans-serif" font-size="10.4" lengthAdjust="spacing" textLength="56.8" x="471.2" y="162.1195">has address</text><text fill="#000000" font-family="sans-serif" font-size="10.4" lengthAdjust="spacing" textLength="5.6" x="460.9488" y="143.8917">1</text><text fill="#000000" font-family="sans-serif" font-size="10.4" lengthAdjust="spacing" textLength="5.6" x="445.9201" y="180.4597">1</text></g><!--link Agency to Employee--><g id="link_Agency_Employee"><path
        d="M523.584,126.2409 C526.976,133.9849 529.984,142.1289 532,150.0969 C551.496,227.3049 550.36,482.4489 549.76,545.5129 " fill="none" id="Agency-Employee" style="stroke:#181818;stroke-width:0.8000000000000002;"/><polygon fill="#000000" points="551.7508,321.0211,549.8551,328.3896,554.5482,328.0966,551.7508,321.0211" style="stroke:#000000;stroke-width:0.8000000000000002;"/><text fill="#000000" font-family="sans-serif" font-size="10.4" lengthAdjust="spacing" textLength="51.2" x="559.2" y="329.3195">is stored in</text><text fill="#000000" font-family="sans-serif" font-size="10.4" lengthAdjust="spacing" textLength="5.6" x="520.6146" y="143.7301">1</text><text fill="#000000" font-family="sans-serif" font-size="10.4" lengthAdjust="spacing" textLength="5.6" x="543.3845" y="536.8152">1</text></g><!--link Building to Equipment--><g id="link_Building_Equipment"><path
        d="M149.808,460.6889 C149.488,473.4329 149.344,487.0649 149.6,499.6969 C149.8,509.8089 150.192,520.8729 150.608,530.7129 " fill="none" id="Building-Equipment" style="stroke:#181818;stroke-width:0.8000000000000002;"/><polygon fill="#000000" points="153.6457,496.213,155.914,488.9506,151.212,489.0043,153.6457,496.213" style="stroke:#000000;stroke-width:0.8000000000000002;"/><text fill="#000000" font-family="sans-serif" font-size="10.4" lengthAdjust="spacing" textLength="68" x="160.8" y="496.5195">has equipment</text><text fill="#000000" font-family="sans-serif" font-size="10.4" lengthAdjust="spacing" textLength="5.6" x="143.6932" y="478.0184">1</text><text fill="#000000" font-family="sans-serif" font-size="10.4" lengthAdjust="spacing" textLength="20.8" x="127.7076" y="521.8495">0...2</text></g><!--link PassportCard to Person--><g id="link_PassportCard_Person"><path
        d="M648.432,263.5209 C644.832,283.5369 636.784,313.1529 619.2,332.4969 C589.544,365.1289 542.832,384.7289 507.24,395.7049 " fill="none" id="PassportCard-Person" style="stroke:#181818;stroke-width:0.8000000000000002;"/><polygon fill="#000000" points="637.32,322.2795,630.4308,325.5086,633.6445,328.9413,637.32,322.2795" style="stroke:#000000;stroke-width:0.8000000000000002;"/><text fill="#000000" font-family="sans-serif" font-size="10.4" lengthAdjust="spacing" textLength="92" x="641.6" y="329.3195">has a passport card</text><text fill="#000000" font-family="sans-serif" font-size="10.4" lengthAdjust="spacing" textLength="5.6" x="641.614" y="281.0968">1</text><text fill="#000000" font-family="sans-serif" font-size="10.4" lengthAdjust="spacing" textLength="5.6" x="513.6311" y="390.9488">1</text></g><!--link Address to Person--><g id="link_Address_Person"><path
        d="M445.648,293.5289 C445.36,306.2729 445.464,319.8969 446.4,332.4969 C447.16,342.7609 448.496,353.7529 449.992,364.0809 " fill="none" id="Address-Person" style="stroke:#181818;stroke-width:0.8000000000000002;"/><polygon fill="#000000" points="450.1542,321.0208,448.2522,328.3877,452.9456,328.0987,450.1542,321.0208" style="stroke:#000000;stroke-width:0.8000000000000002;"/><text fill="#000000" font-family="sans-serif" font-size="10.4" lengthAdjust="spacing" textLength="56.8" x="457.6" y="329.3195">has address</text><text fill="#000000" font-family="sans-serif" font-size="10.4" lengthAdjust="spacing" textLength="5.6" x="439.4342" y="310.8625">1</text><text fill="#000000" font-family="sans-serif" font-size="10.4" lengthAdjust="spacing" textLength="5.6" x="443.0585" y="355.151">1</text></g><!--link Address to Property--><g id="link_Address_Property"><path
        d="M423.512,257.8649 C394.656,277.3049 348.4,313.1529 324.8,356.4969 C294.152,412.7849 289.152,489.7049 288.92,530.8809 " fill="none" id="Address-Property" style="stroke:#181818;stroke-width:0.8000000000000002;"/><polygon fill="#000000" points="330.5687,405.0256,325.2603,410.4762,329.4779,412.5554,330.5687,405.0256" style="stroke:#000000;stroke-width:0.8000000000000002;"/><text fill="#000000" font-family="sans-serif" font-size="10.4" lengthAdjust="spacing" textLength="56.8" x="336" y="412.9195">has address</text><text fill="#000000" font-family="sans-serif" font-size="10.4" lengthAdjust="spacing" textLength="5.6" x="411.7678" y="257.6737">1</text><text fill="#000000" font-family="sans-serif" font-size="10.4" lengthAdjust="spacing" textLength="5.6" x="282.6784" y="521.8209">1</text></g><!--link Property to Owner--><g id="link_Property_Owner"><path
        d="M346.024,560.4969 C380.888,560.4969 423.424,560.4969 447.464,560.4969 " fill="none" id="Property-Owner" style="stroke:#181818;stroke-width:0.8000000000000002;"/><polygon fill="#000000" points="368,550.6133,360.7639,548.2621,360.7639,552.9644,368,550.6133" style="stroke:#000000;stroke-width:0.8000000000000002;"/><text fill="#000000" font-family="sans-serif" font-size="10.4" lengthAdjust="spacing" textLength="61.6" x="371.2" y="554.9195">has an owner</text><text fill="#000000" font-family="sans-serif" font-size="10.4" lengthAdjust="spacing" textLength="5.6" x="352.5016" y="557.3945">1</text><text fill="#000000" font-family="sans-serif" font-size="10.4" lengthAdjust="spacing" textLength="5.6" x="435.4791" y="556.2007">1</text></g><!--reverse link Person to Owner--><g id="link_Person_Owner"><path
        d="M456.376,469.2009 C456.52,479.3849 456.88,489.8489 457.6,499.6969 C458.752,515.4489 461.576,533.3369 463.712,545.4569 " fill="none" id="Person-backto-Owner" style="stroke:#181818;stroke-width:0.8000000000000002;"/><polygon fill="none" points="450.776,469.0409,456.32,453.0249,461.976,469.0089,450.776,469.0409" style="stroke:#181818;stroke-width:0.8000000000000002;"/><text fill="#000000" font-family="sans-serif" font-size="10.4" lengthAdjust="spacing" textLength="16.8" x="458.4" y="496.5195">is a</text><text fill="#000000" font-family="sans-serif" font-size="10.4" lengthAdjust="spacing" textLength="5.6" x="450.2228" y="470.5122">1</text><text fill="#000000" font-family="sans-serif" font-size="10.4" lengthAdjust="spacing" textLength="5.6" x="456.4999" y="536.7427">1</text></g><!--reverse link Person to Employee--><g id="link_Person_Employee"><path
        d="M490.744,467.0409 C497.168,477.9449 503.92,489.2169 510.4,499.6969 C520.216,515.5689 531.984,533.4409 540.048,545.5209 " fill="none" id="Person-backto-Employee" style="stroke:#181818;stroke-width:0.8000000000000002;"/><polygon fill="none" points="485.784,469.6489,482.544,453.0089,495.456,463.9929,485.784,469.6489" style="stroke:#181818;stroke-width:0.8000000000000002;"/><text fill="#000000" font-family="sans-serif" font-size="10.4" lengthAdjust="spacing" textLength="16.8" x="511.2" y="496.5195">is a</text><text fill="#000000" font-family="sans-serif" font-size="10.4" lengthAdjust="spacing" textLength="5.6" x="479.6428" y="470.4942">1</text><text fill="#000000" font-family="sans-serif" font-size="10.4" lengthAdjust="spacing" textLength="5.6" x="530.6652" y="536.5567">1</text></g><!--reverse link Building to House--><g id="link_Building_House"><path
        d="M105.368,473.7609 C93.048,490.7929 80.176,508.5769 69.368,523.5209 " fill="none" id="Building-backto-House" style="stroke:#181818;stroke-width:0.8000000000000002;"/><polygon fill="none" points="100.944,470.3129,114.864,460.6329,110.024,476.8809,100.944,470.3129" style="stroke:#181818;stroke-width:0.8000000000000002;"/><text fill="#000000" font-family="sans-serif" font-size="10.4" lengthAdjust="spacing" textLength="16.8" x="98.4" y="496.5195">is a</text><text fill="#000000" font-family="sans-serif" font-size="10.4" lengthAdjust="spacing" textLength="5.6" x="105.1456" y="477.9566">1</text><text fill="#000000" font-family="sans-serif" font-size="10.4" lengthAdjust="spacing" textLength="5.6" x="67.2002" y="514.7026">1</text></g><!--link Apartment to Building--><g id="link_Apartment_Building"><path
        d="M152,256.2169 C152,274.8889 152,309.0809 152,340.2649 " fill="none" id="Apartment-to-Building" style="stroke:#181818;stroke-width:0.8000000000000002;"/><polygon fill="none" points="157.6,340.4409,152,356.4409,146.4,340.4409,157.6,340.4409" style="stroke:#181818;stroke-width:0.8000000000000002;"/><text fill="#000000" font-family="sans-serif" font-size="10.4" lengthAdjust="spacing" textLength="16.8" x="152.8" y="329.3195">is a</text><text fill="#000000" font-family="sans-serif" font-size="10.4" lengthAdjust="spacing" textLength="5.6" x="145.6475" y="273.3488">1</text><text fill="#000000" font-family="sans-serif" font-size="10.4" lengthAdjust="spacing" textLength="5.6" x="146.0938" y="347.6509">1</text></g><!--SRC=[TLHDJnin4BtxLrYvz0HAFqvH58a6Af1eGGHwdwmdMGkllRLd2mlqlzTVwrqWS0ZZyPkPvpUpu-wbRi52mnkZJLLRqo0dso5pvQQ5wXxskA5U8RTO4UYzcW9S3S8yIBtdEr0E6MEV5Ew8a-5MxclYGeOmQJIRH5KAd3iXidBR4LvKHc_a4_8vOxKKo2jfArybsWrIROHZZ2Hv3gUc0QdvJoDGyID-jvdFlp4My_5hjCve_iou_zFGO3G87dzrpHPjFA4FLoT2M7GkNQF2jZOQC-ZVaEtgGQFroOhZsl-qnj8QhCX5sedhRNmkae2EB295ivBKHqD8xvKLPG1GuliasxL_tIIHrumQr3JXSWbQJAbPqwAbFjC2Yt2r6vob6EWAV_WkhtqkEodmlPDAX1Qcw2qAQqoJvDa2rUF9C_4zt6_yM63om5-l9smLdltfP1jO9fdBgLGvDvt3N04S5gWokon1fyyUM-EwARUIzfabzG9tKES8v8aa2jAkZHOo35dmZQhKnezXxbImxsukniF5wMXVUdN6kDk-nQlThGNj88vkpa6Z9q2YptywI63xtw2wG3ktR8-wwdCpefshbQcCS_Z10AOSDrv3T9IIs7Gu3KFYUR9yoMUVP_peAFuhCx3WArw3u-tG_mFWiwPLfaSiuC2I3Y7VYp64aB_XPZULXR61HSbmV7pyTJvBhLWaNi5sVFKAktn9zS9WUzoIIy_fBQ9h4wSoi8i8uql6ak8Zx_prvPAGJwkCEoZ5KDQHiIYuzAyP2WtmkN_DbrcPoPoz3BlFpwPROjgTj9iodR8uU1MMIU2V67uOaH-mF0GS6_yQoj8AYz2mbD_1bob0SnE0ddiiEMr7oh38tNXtFHcZY7Wbs02A7tv1b6sMNl2o2f0XB8F-0m00]--></g></svg>