<?xml version="1.0" encoding="us-ascii" standalone="no"?><svg xmlns="http://www.w3.org/2000/svg" xmlns:xlink="http://www.w3.org/1999/xlink" contentStyleType="text/css" height="733.8px" preserveAspectRatio="none" style="width:1119px;height:733px;background:#FFFFFF;" version="1.1" viewBox="0 0 1119 733" width="1119.6px" zoomAndPan="magnify"><defs/><g><!--class CreatePurchaseOrderUI--><g id="elem_CreatePurchaseOrderUI"><rect codeLine="11" fill="#F1F1F1" height="28.8" id="CreatePurchaseOrderUI" rx="1.5" ry="1.5" style="stroke:#181818;stroke-width:0.3;" width="110.4" x="4.2" y="37.8"/><ellipse cx="13.2" cy="47.4" fill="#ADD1B2" rx="6.6" ry="6.6" style="stroke:#181818;stroke-width:0.6;"/><path d="M14.8594,44.925 Q14.9531,44.7937 15.0656,44.7281 Q15.1781,44.6625 15.3094,44.6625 Q15.5344,44.6625 15.675,44.8219 Q15.8156,44.9719 15.8156,45.3375 L15.8156,46.2094 Q15.8156,46.575 15.675,46.7344 Q15.5344,46.8938 15.3094,46.8938 Q15.1031,46.8938 14.9813,46.7719 Q14.8594,46.6594 14.7938,46.35 Q14.7656,46.1344 14.6531,46.0219 Q14.4562,45.7969 14.0906,45.6656 Q13.725,45.5344 13.35,45.5344 Q12.8906,45.5344 12.5063,45.7312 Q12.1313,45.9281 11.8312,46.3781 Q11.5406,46.8281 11.5406,47.4469 L11.5406,48.1031 Q11.5406,48.8438 12.075,49.3406 Q12.6094,49.8281 13.5656,49.8281 Q14.1281,49.8281 14.5219,49.6781 Q14.7563,49.5844 15.0094,49.3219 Q15.1688,49.1625 15.2531,49.1156 Q15.3469,49.0688 15.4688,49.0688 Q15.6656,49.0688 15.8156,49.2281 Q15.975,49.3781 15.975,49.5844 Q15.975,49.7906 15.7687,50.0344 Q15.4688,50.3813 14.9906,50.5781 Q14.3438,50.85 13.5656,50.85 Q12.6563,50.85 11.9344,50.475 Q11.3438,50.175 10.9313,49.5375 Q10.5187,48.8906 10.5187,48.1219 L10.5187,47.4281 Q10.5187,46.6313 10.8844,45.9469 Q11.2594,45.2531 11.9156,44.8875 Q12.5719,44.5125 13.3125,44.5125 Q13.7531,44.5125 14.1375,44.6156 Q14.5313,44.7094 14.8594,44.925 Z " fill="#000000"/><text fill="#000000" font-family="sans-serif" font-size="8.4" lengthAdjust="spacing" textLength="91.2" x="21.6" y="50.8781">CreatePurchaseOrderUI</text><line style="stroke:#181818;stroke-width:0.3;" x1="4.8" x2="114" y1="57" y2="57"/><line style="stroke:#181818;stroke-width:0.3;" x1="4.8" x2="114" y1="61.8" y2="61.8"/></g><!--class CreatePurchaseOrderController--><g id="elem_CreatePurchaseOrderController"><rect codeLine="14" fill="#F1F1F1" height="95.8359" id="CreatePurchaseOrderController" rx="1.5" ry="1.5" style="stroke:#181818;stroke-width:0.3;" width="284.4" x="135.6" y="4.2"/><ellipse cx="214.65" cy="13.8" fill="#ADD1B2" rx="6.6" ry="6.6" style="stroke:#181818;stroke-width:0.6;"/><path d="M216.3094,11.325 Q216.4031,11.1938 216.5156,11.1281 Q216.6281,11.0625 216.7594,11.0625 Q216.9844,11.0625 217.125,11.2219 Q217.2656,11.3719 217.2656,11.7375 L217.2656,12.6094 Q217.2656,12.975 217.125,13.1344 Q216.9844,13.2938 216.7594,13.2938 Q216.5531,13.2938 216.4313,13.1719 Q216.3094,13.0594 216.2438,12.75 Q216.2156,12.5344 216.1031,12.4219 Q215.9063,12.1969 215.5406,12.0656 Q215.175,11.9344 214.8,11.9344 Q214.3406,11.9344 213.9562,12.1313 Q213.5812,12.3281 213.2813,12.7781 Q212.9906,13.2281 212.9906,13.8469 L212.9906,14.5031 Q212.9906,15.2437 213.525,15.7406 Q214.0594,16.2281 215.0156,16.2281 Q215.5781,16.2281 215.9719,16.0781 Q216.2062,15.9844 216.4594,15.7219 Q216.6188,15.5625 216.7031,15.5156 Q216.7969,15.4688 216.9188,15.4688 Q217.1156,15.4688 217.2656,15.6281 Q217.425,15.7781 217.425,15.9844 Q217.425,16.1906 217.2188,16.4344 Q216.9188,16.7813 216.4406,16.9781 Q215.7938,17.25 215.0156,17.25 Q214.1063,17.25 213.3844,16.875 Q212.7938,16.575 212.3813,15.9375 Q211.9688,15.2906 211.9688,14.5219 L211.9688,13.8281 Q211.9688,13.0313 212.3344,12.3469 Q212.7094,11.6531 213.3656,11.2875 Q214.0219,10.9125 214.7625,10.9125 Q215.2031,10.9125 215.5875,11.0156 Q215.9813,11.1094 216.3094,11.325 Z " fill="#000000"/><text fill="#000000" font-family="sans-serif" font-size="8.4" lengthAdjust="spacing" textLength="121.2" x="226.95" y="17.2781">CreatePurchaseOrderController</text><line style="stroke:#181818;stroke-width:0.3;" x1="136.2" x2="419.4" y1="23.4" y2="23.4"/><line style="stroke:#181818;stroke-width:0.6;" x1="136.2" x2="419.4" y1="28.2" y2="28.2"/><text fill="#000000" font-family="sans-serif" font-size="8.4" lengthAdjust="spacing" textLength="175.8" x="139.2" y="39.6645">+checkAnnouncement(announcementNumber)</text><text fill="#000000" font-family="sans-serif" font-size="8.4" lengthAdjust="spacing" textLength="277.2" x="139.2" y="50.8371">+createPurchaseOrder(userEmail, propertyID, orderAmount, acceptance)</text><text fill="#000000" font-family="sans-serif" font-size="8.4" lengthAdjust="spacing" textLength="170.4" x="139.2" y="62.0098">+checkPurchaseOrderExists(purchaseOrder)</text><text fill="#000000" font-family="sans-serif" font-size="8.4" lengthAdjust="spacing" textLength="178.8" x="139.2" y="73.1824">+checkUserPurchaseOrderExists(userEmail, id)</text><text fill="#000000" font-family="sans-serif" font-size="8.4" lengthAdjust="spacing" textLength="129.6" x="139.2" y="84.3551">+getPurchaseOrder(userEmail, id)</text><text fill="#000000" font-family="sans-serif" font-size="8.4" lengthAdjust="spacing" textLength="117" x="139.2" y="95.5277">+getCopyAnnouncementsList()</text></g><!--class PurchaseOrder--><g id="elem_PurchaseOrder"><rect codeLine="23" fill="#F1F1F1" height="185.2172" id="PurchaseOrder" rx="1.5" ry="1.5" style="stroke:#181818;stroke-width:0.3;" width="260.4" x="50.4" y="302.4"/><ellipse cx="148.95" cy="312" fill="#ADD1B2" rx="6.6" ry="6.6" style="stroke:#181818;stroke-width:0.6;"/><path d="M150.6094,309.525 Q150.7031,309.3938 150.8156,309.3281 Q150.9281,309.2625 151.0594,309.2625 Q151.2844,309.2625 151.425,309.4219 Q151.5656,309.5719 151.5656,309.9375 L151.5656,310.8094 Q151.5656,311.175 151.425,311.3344 Q151.2844,311.4938 151.0594,311.4938 Q150.8531,311.4938 150.7313,311.3719 Q150.6094,311.2594 150.5438,310.95 Q150.5156,310.7344 150.4031,310.6219 Q150.2062,310.3969 149.8406,310.2656 Q149.475,310.1344 149.1,310.1344 Q148.6406,310.1344 148.2563,310.3313 Q147.8813,310.5281 147.5812,310.9781 Q147.2906,311.4281 147.2906,312.0469 L147.2906,312.7031 Q147.2906,313.4437 147.825,313.9406 Q148.3594,314.4281 149.3156,314.4281 Q149.8781,314.4281 150.2719,314.2781 Q150.5063,314.1844 150.7594,313.9219 Q150.9188,313.7625 151.0031,313.7156 Q151.0969,313.6688 151.2188,313.6688 Q151.4156,313.6688 151.5656,313.8281 Q151.725,313.9781 151.725,314.1844 Q151.725,314.3906 151.5187,314.6344 Q151.2188,314.9813 150.7406,315.1781 Q150.0938,315.45 149.3156,315.45 Q148.4063,315.45 147.6844,315.075 Q147.0938,314.775 146.6813,314.1375 Q146.2687,313.4906 146.2687,312.7219 L146.2687,312.0281 Q146.2687,311.2313 146.6344,310.5469 Q147.0094,309.8531 147.6656,309.4875 Q148.3219,309.1125 149.0625,309.1125 Q149.5031,309.1125 149.8875,309.2156 Q150.2813,309.3094 150.6094,309.525 Z " fill="#000000"/><text fill="#000000" font-family="sans-serif" font-size="8.4" lengthAdjust="spacing" textLength="58.2" x="161.25" y="315.4781">PurchaseOrder</text><line style="stroke:#181818;stroke-width:0.3;" x1="51" x2="310.2" y1="321.6" y2="321.6"/><text fill="#000000" font-family="sans-serif" font-size="8.4" lengthAdjust="spacing" textLength="69.6" x="54" y="333.0645">-userEmail : String</text><text fill="#000000" font-family="sans-serif" font-size="8.4" lengthAdjust="spacing" textLength="123.6" x="54" y="344.2371">-announcement : Announcement</text><text fill="#000000" font-family="sans-serif" font-size="8.4" lengthAdjust="spacing" textLength="85.2" x="54" y="355.4098">-orderAmount : double</text><text fill="#000000" font-family="sans-serif" font-size="8.4" lengthAdjust="spacing" textLength="63" x="54" y="366.5824">-acceptance : int</text><line style="stroke:#181818;stroke-width:0.6;" x1="51" x2="310.2" y1="371.0906" y2="371.0906"/><text fill="#000000" font-family="sans-serif" font-size="8.4" lengthAdjust="spacing" textLength="253.2" x="54" y="382.5551">+PurchaseOrder(userEmail, propertyID, orderAmount, acceptance)</text><text fill="#000000" font-family="sans-serif" font-size="8.4" lengthAdjust="spacing" textLength="34.2" x="54" y="393.7277">+getUser</text><text fill="#000000" font-family="sans-serif" font-size="8.4" lengthAdjust="spacing" textLength="81.6" x="54" y="404.9004">+getAnnouncementID</text><text fill="#000000" font-family="sans-serif" font-size="8.4" lengthAdjust="spacing" textLength="67.8" x="54" y="416.073">+getOrderAmount</text><text fill="#000000" font-family="sans-serif" font-size="8.4" lengthAdjust="spacing" textLength="61.2" x="54" y="427.2457">+getAcceptance</text><text fill="#000000" font-family="sans-serif" font-size="8.4" lengthAdjust="spacing" textLength="33.6" x="54" y="438.4184">+setUser</text><text fill="#000000" font-family="sans-serif" font-size="8.4" lengthAdjust="spacing" textLength="81" x="54" y="449.591">+setAnnouncementID</text><text fill="#000000" font-family="sans-serif" font-size="8.4" lengthAdjust="spacing" textLength="67.2" x="54" y="460.7637">+setOrderAmount</text><text fill="#000000" font-family="sans-serif" font-size="8.4" lengthAdjust="spacing" textLength="60.6" x="54" y="471.9363">+setAcceptance</text><text fill="#000000" font-family="sans-serif" font-size="8.4" lengthAdjust="spacing" textLength="67.2" x="54" y="483.109">+toString(): String</text></g><!--class Repositories--><g id="elem_Repositories"><rect codeLine="41" fill="#F1F1F1" height="84.6633" id="Repositories" rx="1.5" ry="1.5" style="stroke:#181818;stroke-width:0.3;" width="129" x="441.3" y="9.9"/><ellipse cx="479.55" cy="19.5" fill="#ADD1B2" rx="6.6" ry="6.6" style="stroke:#181818;stroke-width:0.6;"/><path d="M481.2094,17.025 Q481.3031,16.8938 481.4156,16.8281 Q481.5281,16.7625 481.6594,16.7625 Q481.8844,16.7625 482.025,16.9219 Q482.1656,17.0719 482.1656,17.4375 L482.1656,18.3094 Q482.1656,18.675 482.025,18.8344 Q481.8844,18.9938 481.6594,18.9938 Q481.4531,18.9938 481.3312,18.8719 Q481.2094,18.7594 481.1437,18.45 Q481.1156,18.2344 481.0031,18.1219 Q480.8063,17.8969 480.4406,17.7656 Q480.075,17.6344 479.7,17.6344 Q479.2406,17.6344 478.8563,17.8313 Q478.4813,18.0281 478.1813,18.4781 Q477.8906,18.9281 477.8906,19.5469 L477.8906,20.2031 Q477.8906,20.9437 478.425,21.4406 Q478.9594,21.9281 479.9156,21.9281 Q480.4781,21.9281 480.8719,21.7781 Q481.1063,21.6844 481.3594,21.4219 Q481.5187,21.2625 481.6031,21.2156 Q481.6969,21.1688 481.8187,21.1688 Q482.0156,21.1688 482.1656,21.3281 Q482.325,21.4781 482.325,21.6844 Q482.325,21.8906 482.1188,22.1344 Q481.8187,22.4813 481.3406,22.6781 Q480.6937,22.95 479.9156,22.95 Q479.0062,22.95 478.2844,22.575 Q477.6937,22.275 477.2813,21.6375 Q476.8688,20.9906 476.8688,20.2219 L476.8688,19.5281 Q476.8688,18.7313 477.2344,18.0469 Q477.6094,17.3531 478.2656,16.9875 Q478.9219,16.6125 479.6625,16.6125 Q480.1031,16.6125 480.4875,16.7156 Q480.8812,16.8094 481.2094,17.025 Z " fill="#000000"/><text fill="#000000" font-family="sans-serif" font-size="8.4" lengthAdjust="spacing" textLength="47.4" x="491.85" y="22.9781">Repositories</text><line style="stroke:#181818;stroke-width:0.3;" x1="441.9" x2="569.7" y1="29.1" y2="29.1"/><line style="stroke:#181818;stroke-width:0.6;" x1="441.9" x2="569.7" y1="33.9" y2="33.9"/><text fill="#000000" font-family="sans-serif" font-size="8.4" lengthAdjust="spacing" textLength="56.4" x="444.9" y="45.3645">-Repositories()</text><text fill="#000000" font-family="sans-serif" font-size="8.4" lengthAdjust="spacing" textLength="109.2" x="444.9" y="56.5371">+getInstance() : Repositories</text><text fill="#000000" font-family="sans-serif" font-size="8.4" lengthAdjust="spacing" textLength="121.8" x="444.9" y="67.7098">+getPurchaseOrderRepository()</text><text fill="#000000" font-family="sans-serif" font-size="8.4" lengthAdjust="spacing" textLength="120.6" x="444.9" y="78.8824">+getAnnouncementRepository()</text><text fill="#000000" font-family="sans-serif" font-size="8.4" lengthAdjust="spacing" textLength="117.6" x="444.9" y="90.0551">+getAuthenticationRepository()</text></g><!--class Announcements--><g id="elem_Announcements"><rect codeLine="50" fill="#F1F1F1" height="51.1453" id="Announcements" rx="1.5" ry="1.5" style="stroke:#181818;stroke-width:0.3;" width="133.2" x="654" y="170.4"/><ellipse cx="687.45" cy="180" fill="#ADD1B2" rx="6.6" ry="6.6" style="stroke:#181818;stroke-width:0.6;"/><path d="M689.1094,177.525 Q689.2031,177.3937 689.3156,177.3281 Q689.4281,177.2625 689.5594,177.2625 Q689.7844,177.2625 689.925,177.4219 Q690.0656,177.5719 690.0656,177.9375 L690.0656,178.8094 Q690.0656,179.175 689.925,179.3344 Q689.7844,179.4938 689.5594,179.4938 Q689.3531,179.4938 689.2312,179.3719 Q689.1094,179.2594 689.0437,178.95 Q689.0156,178.7344 688.9031,178.6219 Q688.7063,178.3969 688.3406,178.2656 Q687.975,178.1344 687.6,178.1344 Q687.1406,178.1344 686.7563,178.3312 Q686.3813,178.5281 686.0813,178.9781 Q685.7906,179.4281 685.7906,180.0469 L685.7906,180.7031 Q685.7906,181.4438 686.325,181.9406 Q686.8594,182.4281 687.8156,182.4281 Q688.3781,182.4281 688.7719,182.2781 Q689.0063,182.1844 689.2594,181.9219 Q689.4187,181.7625 689.5031,181.7156 Q689.5969,181.6688 689.7188,181.6688 Q689.9156,181.6688 690.0656,181.8281 Q690.225,181.9781 690.225,182.1844 Q690.225,182.3906 690.0188,182.6344 Q689.7188,182.9813 689.2406,183.1781 Q688.5938,183.45 687.8156,183.45 Q686.9063,183.45 686.1844,183.075 Q685.5938,182.775 685.1813,182.1375 Q684.7688,181.4906 684.7688,180.7219 L684.7688,180.0281 Q684.7688,179.2313 685.1344,178.5469 Q685.5094,177.8531 686.1656,177.4875 Q686.8219,177.1125 687.5625,177.1125 Q688.0031,177.1125 688.3875,177.2156 Q688.7813,177.3094 689.1094,177.525 Z " fill="#000000"/><text fill="#000000" font-family="sans-serif" font-size="8.4" lengthAdjust="spacing" textLength="61.2" x="699.75" y="183.4781">Announcements</text><line style="stroke:#181818;stroke-width:0.3;" x1="654.6" x2="786.6" y1="189.6" y2="189.6"/><text fill="#000000" font-family="sans-serif" font-size="8.4" lengthAdjust="spacing" textLength="126" x="657.6" y="201.0645">-announcements : List&lt;Property&gt;</text><line style="stroke:#181818;stroke-width:0.6;" x1="654.6" x2="786.6" y1="205.5727" y2="205.5727"/><text fill="#000000" font-family="sans-serif" font-size="8.4" lengthAdjust="spacing" textLength="78" x="657.6" y="217.0371">+getAnnouncements</text></g><!--class AuthenticationRepository--><g id="elem_AuthenticationRepository"><rect codeLine="56" fill="#F1F1F1" height="39.9727" id="AuthenticationRepository" rx="1.5" ry="1.5" style="stroke:#181818;stroke-width:0.3;" width="114" x="399.6" y="175.8"/><ellipse cx="408.6" cy="185.4" fill="#ADD1B2" rx="6.6" ry="6.6" style="stroke:#181818;stroke-width:0.6;"/><path d="M410.2594,182.925 Q410.3531,182.7938 410.4656,182.7281 Q410.5781,182.6625 410.7094,182.6625 Q410.9344,182.6625 411.075,182.8219 Q411.2156,182.9719 411.2156,183.3375 L411.2156,184.2094 Q411.2156,184.575 411.075,184.7344 Q410.9344,184.8937 410.7094,184.8937 Q410.5031,184.8937 410.3812,184.7719 Q410.2594,184.6594 410.1937,184.35 Q410.1656,184.1344 410.0531,184.0219 Q409.8563,183.7969 409.4906,183.6656 Q409.125,183.5344 408.75,183.5344 Q408.2906,183.5344 407.9063,183.7313 Q407.5313,183.9281 407.2313,184.3781 Q406.9406,184.8281 406.9406,185.4469 L406.9406,186.1031 Q406.9406,186.8438 407.475,187.3406 Q408.0094,187.8281 408.9656,187.8281 Q409.5281,187.8281 409.9219,187.6781 Q410.1563,187.5844 410.4094,187.3219 Q410.5687,187.1625 410.6531,187.1156 Q410.7469,187.0688 410.8688,187.0688 Q411.0656,187.0688 411.2156,187.2281 Q411.375,187.3781 411.375,187.5844 Q411.375,187.7906 411.1688,188.0344 Q410.8688,188.3813 410.3906,188.5781 Q409.7438,188.85 408.9656,188.85 Q408.0563,188.85 407.3344,188.475 Q406.7438,188.175 406.3313,187.5375 Q405.9188,186.8906 405.9188,186.1219 L405.9188,185.4281 Q405.9188,184.6313 406.2844,183.9469 Q406.6594,183.2531 407.3156,182.8875 Q407.9719,182.5125 408.7125,182.5125 Q409.1531,182.5125 409.5375,182.6156 Q409.9313,182.7094 410.2594,182.925 Z " fill="#000000"/><text fill="#000000" font-family="sans-serif" font-size="8.4" lengthAdjust="spacing" textLength="94.8" x="417" y="188.8781">AuthenticationRepository</text><line style="stroke:#181818;stroke-width:0.3;" x1="400.2" x2="513" y1="195" y2="195"/><line style="stroke:#181818;stroke-width:0.6;" x1="400.2" x2="513" y1="199.8" y2="199.8"/><text fill="#000000" font-family="sans-serif" font-size="8.4" lengthAdjust="spacing" textLength="99" x="403.2" y="211.2645">+getCurrentUserSession()</text></g><!--class Property--><g id="elem_Property"><rect codeLine="61" fill="#F1F1F1" height="185.2172" id="Property" rx="1.5" ry="1.5" style="stroke:#181818;stroke-width:0.3;" width="158.4" x="608.4" y="302.4"/><ellipse cx="668.85" cy="312" fill="#ADD1B2" rx="6.6" ry="6.6" style="stroke:#181818;stroke-width:0.6;"/><path d="M670.5094,309.525 Q670.6031,309.3938 670.7156,309.3281 Q670.8281,309.2625 670.9594,309.2625 Q671.1844,309.2625 671.325,309.4219 Q671.4656,309.5719 671.4656,309.9375 L671.4656,310.8094 Q671.4656,311.175 671.325,311.3344 Q671.1844,311.4938 670.9594,311.4938 Q670.7531,311.4938 670.6313,311.3719 Q670.5094,311.2594 670.4438,310.95 Q670.4156,310.7344 670.3031,310.6219 Q670.1062,310.3969 669.7406,310.2656 Q669.375,310.1344 669,310.1344 Q668.5406,310.1344 668.1563,310.3313 Q667.7813,310.5281 667.4812,310.9781 Q667.1906,311.4281 667.1906,312.0469 L667.1906,312.7031 Q667.1906,313.4437 667.725,313.9406 Q668.2594,314.4281 669.2156,314.4281 Q669.7781,314.4281 670.1719,314.2781 Q670.4063,314.1844 670.6594,313.9219 Q670.8188,313.7625 670.9031,313.7156 Q670.9969,313.6688 671.1188,313.6688 Q671.3156,313.6688 671.4656,313.8281 Q671.625,313.9781 671.625,314.1844 Q671.625,314.3906 671.4187,314.6344 Q671.1188,314.9813 670.6406,315.1781 Q669.9938,315.45 669.2156,315.45 Q668.3063,315.45 667.5844,315.075 Q666.9938,314.775 666.5813,314.1375 Q666.1687,313.4906 666.1687,312.7219 L666.1687,312.0281 Q666.1687,311.2313 666.5344,310.5469 Q666.9094,309.8531 667.5656,309.4875 Q668.2219,309.1125 668.9625,309.1125 Q669.4031,309.1125 669.7875,309.2156 Q670.1813,309.3094 670.5094,309.525 Z " fill="#000000"/><text fill="#000000" font-family="sans-serif" font-size="8.4" lengthAdjust="spacing" textLength="32.4" x="681.15" y="315.4781">Property</text><line style="stroke:#181818;stroke-width:0.3;" x1="609" x2="766.2" y1="321.6" y2="321.6"/><text fill="#000000" font-family="sans-serif" font-size="8.4" lengthAdjust="spacing" textLength="81" x="612" y="333.0645">-propertyType: String</text><text fill="#000000" font-family="sans-serif" font-size="8.4" lengthAdjust="spacing" textLength="55.2" x="612" y="344.2371">-owner: Owner</text><text fill="#000000" font-family="sans-serif" font-size="8.4" lengthAdjust="spacing" textLength="123" x="612" y="355.4098">-commission: CommissionDetails</text><text fill="#000000" font-family="sans-serif" font-size="8.4" lengthAdjust="spacing" textLength="51.6" x="612" y="366.5824">-agent: Agent</text><text fill="#000000" font-family="sans-serif" font-size="8.4" lengthAdjust="spacing" textLength="92.4" x="612" y="377.7551">-areaOfProperty: double</text><text fill="#000000" font-family="sans-serif" font-size="8.4" lengthAdjust="spacing" textLength="111" x="612" y="388.9277">-distanceFromCentre: double</text><text fill="#000000" font-family="sans-serif" font-size="8.4" lengthAdjust="spacing" textLength="91.8" x="612" y="400.1004">-acceptanceDate: String</text><text fill="#000000" font-family="sans-serif" font-size="8.4" lengthAdjust="spacing" textLength="76.8" x="612" y="411.273">-requestDate: String</text><text fill="#000000" font-family="sans-serif" font-size="8.4" lengthAdjust="spacing" textLength="69.6" x="612" y="422.4457">-address: Address</text><text fill="#000000" font-family="sans-serif" font-size="8.4" lengthAdjust="spacing" textLength="99" x="612" y="433.6184">-photos: ArrayList&lt;Photo&gt;</text><text fill="#000000" font-family="sans-serif" font-size="8.4" lengthAdjust="spacing" textLength="51.6" x="612" y="444.791">-photo: Photo</text><text fill="#000000" font-family="sans-serif" font-size="8.4" lengthAdjust="spacing" textLength="151.2" x="612" y="455.9637">-typeOfTransaction: TypeOfTransaction</text><text fill="#000000" font-family="sans-serif" font-size="8.4" lengthAdjust="spacing" textLength="56.4" x="612" y="467.1363">-propertyID: int</text><line style="stroke:#181818;stroke-width:0.6;" x1="609" x2="766.2" y1="471.6445" y2="471.6445"/><text fill="#000000" font-family="sans-serif" font-size="8.4" lengthAdjust="spacing" textLength="67.2" x="612" y="483.109">+toString(): String</text></g><!--class CommissionDetails--><g id="elem_CommissionDetails"><rect codeLine="101" fill="#F1F1F1" height="62.318" id="CommissionDetails" rx="1.5" ry="1.5" style="stroke:#181818;stroke-width:0.3;" width="107.4" x="600.3" y="546.3"/><ellipse cx="616.86" cy="555.9" fill="#ADD1B2" rx="6.6" ry="6.6" style="stroke:#181818;stroke-width:0.6;"/><path d="M618.5194,553.425 Q618.6131,553.2937 618.7256,553.2281 Q618.8381,553.1625 618.9694,553.1625 Q619.1944,553.1625 619.335,553.3219 Q619.4756,553.4719 619.4756,553.8375 L619.4756,554.7094 Q619.4756,555.075 619.335,555.2344 Q619.1944,555.3938 618.9694,555.3938 Q618.7631,555.3938 618.6412,555.2719 Q618.5194,555.1594 618.4537,554.85 Q618.4256,554.6344 618.3131,554.5219 Q618.1162,554.2969 617.7506,554.1656 Q617.385,554.0344 617.01,554.0344 Q616.5506,554.0344 616.1662,554.2312 Q615.7912,554.4281 615.4912,554.8781 Q615.2006,555.3281 615.2006,555.9469 L615.2006,556.6031 Q615.2006,557.3438 615.735,557.8406 Q616.2694,558.3281 617.2256,558.3281 Q617.7881,558.3281 618.1819,558.1781 Q618.4162,558.0844 618.6694,557.8219 Q618.8287,557.6625 618.9131,557.6156 Q619.0069,557.5688 619.1288,557.5688 Q619.3256,557.5688 619.4756,557.7281 Q619.635,557.8781 619.635,558.0844 Q619.635,558.2906 619.4287,558.5344 Q619.1288,558.8813 618.6506,559.0781 Q618.0038,559.35 617.2256,559.35 Q616.3163,559.35 615.5944,558.975 Q615.0038,558.675 614.5913,558.0375 Q614.1787,557.3906 614.1787,556.6219 L614.1787,555.9281 Q614.1787,555.1313 614.5444,554.4469 Q614.9194,553.7531 615.5756,553.3875 Q616.2319,553.0125 616.9725,553.0125 Q617.4131,553.0125 617.7975,553.1156 Q618.1913,553.2094 618.5194,553.425 Z " fill="#000000"/><text fill="#000000" font-family="sans-serif" font-size="8.4" lengthAdjust="spacing" textLength="71.4" x="626.94" y="559.3781">CommissionDetails</text><line style="stroke:#181818;stroke-width:0.3;" x1="600.9" x2="707.1" y1="565.5" y2="565.5"/><text fill="#000000" font-family="sans-serif" font-size="8.4" lengthAdjust="spacing" textLength="93" x="603.9" y="576.9645">-commissionType: String</text><text fill="#000000" font-family="sans-serif" font-size="8.4" lengthAdjust="spacing" textLength="100.2" x="603.9" y="588.1371">-commissionValue: Double</text><line style="stroke:#181818;stroke-width:0.6;" x1="600.9" x2="707.1" y1="592.6453" y2="592.6453"/><text fill="#000000" font-family="sans-serif" font-size="8.4" lengthAdjust="spacing" textLength="67.2" x="603.9" y="604.1098">+toString(): String</text></g><!--class TypeOfTransaction--><g id="elem_TypeOfTransaction"><rect codeLine="110" fill="#F1F1F1" height="62.318" id="TypeOfTransaction" rx="1.5" ry="1.5" style="stroke:#181818;stroke-width:0.3;" width="98.4" x="534.6" y="164.7"/><ellipse cx="546.3" cy="174.3" fill="#ADD1B2" rx="6.6" ry="6.6" style="stroke:#181818;stroke-width:0.6;"/><path d="M547.9594,171.825 Q548.0531,171.6938 548.1656,171.6281 Q548.2781,171.5625 548.4094,171.5625 Q548.6344,171.5625 548.775,171.7219 Q548.9156,171.8719 548.9156,172.2375 L548.9156,173.1094 Q548.9156,173.475 548.775,173.6344 Q548.6344,173.7938 548.4094,173.7938 Q548.2031,173.7938 548.0813,173.6719 Q547.9594,173.5594 547.8938,173.25 Q547.8656,173.0344 547.7531,172.9219 Q547.5563,172.6969 547.1906,172.5656 Q546.825,172.4344 546.45,172.4344 Q545.9906,172.4344 545.6062,172.6313 Q545.2312,172.8281 544.9313,173.2781 Q544.6406,173.7281 544.6406,174.3469 L544.6406,175.0031 Q544.6406,175.7438 545.175,176.2406 Q545.7094,176.7281 546.6656,176.7281 Q547.2281,176.7281 547.6219,176.5781 Q547.8562,176.4844 548.1094,176.2219 Q548.2688,176.0625 548.3531,176.0156 Q548.4469,175.9688 548.5688,175.9688 Q548.7656,175.9688 548.9156,176.1281 Q549.075,176.2781 549.075,176.4844 Q549.075,176.6906 548.8688,176.9344 Q548.5688,177.2813 548.0906,177.4781 Q547.4438,177.75 546.6656,177.75 Q545.7563,177.75 545.0344,177.375 Q544.4438,177.075 544.0313,176.4375 Q543.6188,175.7906 543.6188,175.0219 L543.6188,174.3281 Q543.6188,173.5313 543.9844,172.8469 Q544.3594,172.1531 545.0156,171.7875 Q545.6719,171.4125 546.4125,171.4125 Q546.8531,171.4125 547.2375,171.5156 Q547.6313,171.6094 547.9594,171.825 Z " fill="#000000"/><text fill="#000000" font-family="sans-serif" font-size="8.4" lengthAdjust="spacing" textLength="73.2" x="555.3" y="177.7781">TypeOfTransaction</text><line style="stroke:#181818;stroke-width:0.3;" x1="535.2" x2="632.4" y1="183.9" y2="183.9"/><text fill="#000000" font-family="sans-serif" font-size="8.4" lengthAdjust="spacing" textLength="91.2" x="538.2" y="195.3645">-transactionType: String</text><text fill="#000000" font-family="sans-serif" font-size="8.4" lengthAdjust="spacing" textLength="90.6" x="538.2" y="206.5371">-monetaryValue: double</text><line style="stroke:#181818;stroke-width:0.6;" x1="535.2" x2="632.4" y1="211.0453" y2="211.0453"/><text fill="#000000" font-family="sans-serif" font-size="8.4" lengthAdjust="spacing" textLength="67.2" x="538.2" y="222.5098">+toString(): String</text></g><!--class Address--><g id="elem_Address"><rect codeLine="121" fill="#F1F1F1" height="84.6633" id="Address" rx="1.5" ry="1.5" style="stroke:#181818;stroke-width:0.3;" width="74.4" x="729" y="535.2"/><ellipse cx="748.8" cy="544.8" fill="#ADD1B2" rx="6.6" ry="6.6" style="stroke:#181818;stroke-width:0.6;"/><path d="M750.4594,542.325 Q750.5531,542.1938 750.6656,542.1281 Q750.7781,542.0625 750.9094,542.0625 Q751.1344,542.0625 751.275,542.2219 Q751.4156,542.3719 751.4156,542.7375 L751.4156,543.6094 Q751.4156,543.975 751.275,544.1344 Q751.1344,544.2937 750.9094,544.2937 Q750.7031,544.2937 750.5813,544.1719 Q750.4594,544.0594 750.3938,543.75 Q750.3656,543.5344 750.2531,543.4219 Q750.0563,543.1969 749.6906,543.0656 Q749.325,542.9344 748.95,542.9344 Q748.4906,542.9344 748.1062,543.1313 Q747.7312,543.3281 747.4313,543.7781 Q747.1406,544.2281 747.1406,544.8469 L747.1406,545.5031 Q747.1406,546.2438 747.675,546.7406 Q748.2094,547.2281 749.1656,547.2281 Q749.7281,547.2281 750.1219,547.0781 Q750.3562,546.9844 750.6094,546.7219 Q750.7688,546.5625 750.8531,546.5156 Q750.9469,546.4688 751.0688,546.4688 Q751.2656,546.4688 751.4156,546.6281 Q751.575,546.7781 751.575,546.9844 Q751.575,547.1906 751.3688,547.4344 Q751.0688,547.7813 750.5906,547.9781 Q749.9438,548.25 749.1656,548.25 Q748.2563,548.25 747.5344,547.875 Q746.9438,547.575 746.5313,546.9375 Q746.1188,546.2906 746.1188,545.5219 L746.1188,544.8281 Q746.1188,544.0313 746.4844,543.3469 Q746.8594,542.6531 747.5156,542.2875 Q748.1719,541.9125 748.9125,541.9125 Q749.3531,541.9125 749.7375,542.0156 Q750.1313,542.1094 750.4594,542.325 Z " fill="#000000"/><text fill="#000000" font-family="sans-serif" font-size="8.4" lengthAdjust="spacing" textLength="31.2" x="759.6" y="548.2781">Address</text><line style="stroke:#181818;stroke-width:0.3;" x1="729.6" x2="802.8" y1="554.4" y2="554.4"/><text fill="#000000" font-family="sans-serif" font-size="8.4" lengthAdjust="spacing" textLength="51.6" x="732.6" y="565.8645">-street: String</text><text fill="#000000" font-family="sans-serif" font-size="8.4" lengthAdjust="spacing" textLength="42.6" x="732.6" y="577.0371">-city: String</text><text fill="#000000" font-family="sans-serif" font-size="8.4" lengthAdjust="spacing" textLength="48.6" x="732.6" y="588.2098">-state: String</text><text fill="#000000" font-family="sans-serif" font-size="8.4" lengthAdjust="spacing" textLength="60.6" x="732.6" y="599.3824">-zipCode: String</text><line style="stroke:#181818;stroke-width:0.6;" x1="729.6" x2="802.8" y1="603.8906" y2="603.8906"/><text fill="#000000" font-family="sans-serif" font-size="8.4" lengthAdjust="spacing" textLength="67.2" x="732.6" y="615.3551">+toString(): String</text></g><!--class Photo--><g id="elem_Photo"><rect codeLine="139" fill="#F1F1F1" height="62.318" id="Photo" rx="1.5" ry="1.5" style="stroke:#181818;stroke-width:0.3;" width="74.4" x="482.4" y="363.9"/><ellipse cx="506.25" cy="373.5" fill="#ADD1B2" rx="6.6" ry="6.6" style="stroke:#181818;stroke-width:0.6;"/><path d="M507.9094,371.025 Q508.0031,370.8938 508.1156,370.8281 Q508.2281,370.7625 508.3594,370.7625 Q508.5844,370.7625 508.725,370.9219 Q508.8656,371.0719 508.8656,371.4375 L508.8656,372.3094 Q508.8656,372.675 508.725,372.8344 Q508.5844,372.9938 508.3594,372.9938 Q508.1531,372.9938 508.0313,372.8719 Q507.9094,372.7594 507.8438,372.45 Q507.8156,372.2344 507.7031,372.1219 Q507.5062,371.8969 507.1406,371.7656 Q506.775,371.6344 506.4,371.6344 Q505.9406,371.6344 505.5563,371.8313 Q505.1813,372.0281 504.8812,372.4781 Q504.5906,372.9281 504.5906,373.5469 L504.5906,374.2031 Q504.5906,374.9437 505.125,375.4406 Q505.6594,375.9281 506.6156,375.9281 Q507.1781,375.9281 507.5719,375.7781 Q507.8063,375.6844 508.0594,375.4219 Q508.2188,375.2625 508.3031,375.2156 Q508.3969,375.1688 508.5187,375.1688 Q508.7156,375.1688 508.8656,375.3281 Q509.025,375.4781 509.025,375.6844 Q509.025,375.8906 508.8187,376.1344 Q508.5187,376.4813 508.0406,376.6781 Q507.3937,376.95 506.6156,376.95 Q505.7062,376.95 504.9844,376.575 Q504.3937,376.275 503.9813,375.6375 Q503.5687,374.9906 503.5687,374.2219 L503.5687,373.5281 Q503.5687,372.7313 503.9344,372.0469 Q504.3094,371.3531 504.9656,370.9875 Q505.6219,370.6125 506.3625,370.6125 Q506.8031,370.6125 507.1875,370.7156 Q507.5812,370.8094 507.9094,371.025 Z " fill="#000000"/><text fill="#000000" font-family="sans-serif" font-size="8.4" lengthAdjust="spacing" textLength="22.2" x="517.95" y="376.9781">Photo</text><line style="stroke:#181818;stroke-width:0.3;" x1="483" x2="556.2" y1="383.1" y2="383.1"/><text fill="#000000" font-family="sans-serif" font-size="8.4" lengthAdjust="spacing" textLength="46.2" x="486" y="394.5645">-photoID: int</text><text fill="#000000" font-family="sans-serif" font-size="8.4" lengthAdjust="spacing" textLength="64.8" x="486" y="405.7371">-photoURI: String</text><line style="stroke:#181818;stroke-width:0.6;" x1="483" x2="556.2" y1="410.2453" y2="410.2453"/><text fill="#000000" font-family="sans-serif" font-size="8.4" lengthAdjust="spacing" textLength="67.2" x="486" y="421.7098">+toString(): String</text></g><!--class Building--><g id="elem_Building"><rect codeLine="150" fill="#F1F1F1" height="84.6633" id="Building" rx="1.5" ry="1.5" style="stroke:#181818;stroke-width:0.3;" width="94.8" x="396" y="535.2"/><ellipse cx="425.85" cy="544.8" fill="#ADD1B2" rx="6.6" ry="6.6" style="stroke:#181818;stroke-width:0.6;"/><path d="M427.5094,542.325 Q427.6031,542.1938 427.7156,542.1281 Q427.8281,542.0625 427.9594,542.0625 Q428.1844,542.0625 428.325,542.2219 Q428.4656,542.3719 428.4656,542.7375 L428.4656,543.6094 Q428.4656,543.975 428.325,544.1344 Q428.1844,544.2937 427.9594,544.2937 Q427.7531,544.2937 427.6312,544.1719 Q427.5094,544.0594 427.4437,543.75 Q427.4156,543.5344 427.3031,543.4219 Q427.1063,543.1969 426.7406,543.0656 Q426.375,542.9344 426,542.9344 Q425.5406,542.9344 425.1563,543.1313 Q424.7813,543.3281 424.4813,543.7781 Q424.1906,544.2281 424.1906,544.8469 L424.1906,545.5031 Q424.1906,546.2438 424.725,546.7406 Q425.2594,547.2281 426.2156,547.2281 Q426.7781,547.2281 427.1719,547.0781 Q427.4063,546.9844 427.6594,546.7219 Q427.8187,546.5625 427.9031,546.5156 Q427.9969,546.4688 428.1188,546.4688 Q428.3156,546.4688 428.4656,546.6281 Q428.625,546.7781 428.625,546.9844 Q428.625,547.1906 428.4188,547.4344 Q428.1188,547.7813 427.6406,547.9781 Q426.9938,548.25 426.2156,548.25 Q425.3063,548.25 424.5844,547.875 Q423.9938,547.575 423.5813,546.9375 Q423.1688,546.2906 423.1688,545.5219 L423.1688,544.8281 Q423.1688,544.0313 423.5344,543.3469 Q423.9094,542.6531 424.5656,542.2875 Q425.2219,541.9125 425.9625,541.9125 Q426.4031,541.9125 426.7875,542.0156 Q427.1813,542.1094 427.5094,542.325 Z " fill="#000000"/><text fill="#000000" font-family="sans-serif" font-size="8.4" lengthAdjust="spacing" textLength="30" x="438.15" y="548.2781">Building</text><line style="stroke:#181818;stroke-width:0.3;" x1="396.6" x2="490.2" y1="554.4" y2="554.4"/><text fill="#000000" font-family="sans-serif" font-size="8.4" lengthAdjust="spacing" textLength="54.6" x="399.6" y="565.8645">-bedrooms: int</text><text fill="#000000" font-family="sans-serif" font-size="8.4" lengthAdjust="spacing" textLength="57" x="399.6" y="577.0371">-bathrooms: int</text><text fill="#000000" font-family="sans-serif" font-size="8.4" lengthAdjust="spacing" textLength="73.2" x="399.6" y="588.2098">-parkingSpaces: int</text><text fill="#000000" font-family="sans-serif" font-size="8.4" lengthAdjust="spacing" textLength="87.6" x="399.6" y="599.3824">-equipment: Equipment</text><line style="stroke:#181818;stroke-width:0.6;" x1="396.6" x2="490.2" y1="603.8906" y2="603.8906"/><text fill="#000000" font-family="sans-serif" font-size="8.4" lengthAdjust="spacing" textLength="67.2" x="399.6" y="615.3551">+toString(): String</text></g><!--class Equipment--><g id="elem_Equipment"><rect codeLine="165" fill="#F1F1F1" height="62.318" id="Equipment" rx="1.5" ry="1.5" style="stroke:#181818;stroke-width:0.3;" width="94.2" x="366.9" y="363.9"/><ellipse cx="391.56" cy="373.5" fill="#ADD1B2" rx="6.6" ry="6.6" style="stroke:#181818;stroke-width:0.6;"/><path d="M393.2194,371.025 Q393.3131,370.8938 393.4256,370.8281 Q393.5381,370.7625 393.6694,370.7625 Q393.8944,370.7625 394.035,370.9219 Q394.1756,371.0719 394.1756,371.4375 L394.1756,372.3094 Q394.1756,372.675 394.035,372.8344 Q393.8944,372.9938 393.6694,372.9938 Q393.4631,372.9938 393.3413,372.8719 Q393.2194,372.7594 393.1538,372.45 Q393.1256,372.2344 393.0131,372.1219 Q392.8163,371.8969 392.4506,371.7656 Q392.085,371.6344 391.71,371.6344 Q391.2506,371.6344 390.8663,371.8313 Q390.4913,372.0281 390.1913,372.4781 Q389.9006,372.9281 389.9006,373.5469 L389.9006,374.2031 Q389.9006,374.9437 390.435,375.4406 Q390.9694,375.9281 391.9256,375.9281 Q392.4881,375.9281 392.8819,375.7781 Q393.1163,375.6844 393.3694,375.4219 Q393.5288,375.2625 393.6131,375.2156 Q393.7069,375.1688 393.8288,375.1688 Q394.0256,375.1688 394.1756,375.3281 Q394.335,375.4781 394.335,375.6844 Q394.335,375.8906 394.1288,376.1344 Q393.8288,376.4813 393.3506,376.6781 Q392.7038,376.95 391.9256,376.95 Q391.0163,376.95 390.2944,376.575 Q389.7038,376.275 389.2913,375.6375 Q388.8788,374.9906 388.8788,374.2219 L388.8788,373.5281 Q388.8788,372.7313 389.2444,372.0469 Q389.6194,371.3531 390.2756,370.9875 Q390.9319,370.6125 391.6725,370.6125 Q392.1131,370.6125 392.4975,370.7156 Q392.8913,370.8094 393.2194,371.025 Z " fill="#000000"/><text fill="#000000" font-family="sans-serif" font-size="8.4" lengthAdjust="spacing" textLength="40.2" x="403.44" y="376.9781">Equipment</text><line style="stroke:#181818;stroke-width:0.3;" x1="367.5" x2="460.5" y1="383.1" y2="383.1"/><text fill="#000000" font-family="sans-serif" font-size="8.4" lengthAdjust="spacing" textLength="87" x="370.5" y="394.5645">-airConditioning: String</text><text fill="#000000" font-family="sans-serif" font-size="8.4" lengthAdjust="spacing" textLength="84.6" x="370.5" y="405.7371">-centralHeating: String</text><line style="stroke:#181818;stroke-width:0.6;" x1="367.5" x2="460.5" y1="410.2453" y2="410.2453"/><text fill="#000000" font-family="sans-serif" font-size="8.4" lengthAdjust="spacing" textLength="67.2" x="370.5" y="421.7098">+toString(): String</text></g><!--class House--><g id="elem_House"><rect codeLine="176" fill="#F1F1F1" height="73.4906" id="House" rx="1.5" ry="1.5" style="stroke:#181818;stroke-width:0.3;" width="86.4" x="353.4" y="656.4"/><ellipse cx="382.05" cy="666" fill="#ADD1B2" rx="6.6" ry="6.6" style="stroke:#181818;stroke-width:0.6;"/><path d="M383.7094,663.525 Q383.8031,663.3938 383.9156,663.3281 Q384.0281,663.2625 384.1594,663.2625 Q384.3844,663.2625 384.525,663.4219 Q384.6656,663.5719 384.6656,663.9375 L384.6656,664.8094 Q384.6656,665.175 384.525,665.3344 Q384.3844,665.4938 384.1594,665.4938 Q383.9531,665.4938 383.8313,665.3719 Q383.7094,665.2594 383.6438,664.95 Q383.6156,664.7344 383.5031,664.6219 Q383.3063,664.3969 382.9406,664.2656 Q382.575,664.1344 382.2,664.1344 Q381.7406,664.1344 381.3563,664.3313 Q380.9813,664.5281 380.6813,664.9781 Q380.3906,665.4281 380.3906,666.0469 L380.3906,666.7031 Q380.3906,667.4438 380.925,667.9406 Q381.4594,668.4281 382.4156,668.4281 Q382.9781,668.4281 383.3719,668.2781 Q383.6063,668.1844 383.8594,667.9219 Q384.0188,667.7625 384.1031,667.7156 Q384.1969,667.6687 384.3187,667.6687 Q384.5156,667.6687 384.6656,667.8281 Q384.825,667.9781 384.825,668.1844 Q384.825,668.3906 384.6188,668.6344 Q384.3187,668.9812 383.8406,669.1781 Q383.1937,669.45 382.4156,669.45 Q381.5062,669.45 380.7844,669.075 Q380.1937,668.775 379.7813,668.1375 Q379.3688,667.4906 379.3688,666.7219 L379.3688,666.0281 Q379.3688,665.2312 379.7344,664.5469 Q380.1094,663.8531 380.7656,663.4875 Q381.4219,663.1125 382.1625,663.1125 Q382.6031,663.1125 382.9875,663.2156 Q383.3812,663.3094 383.7094,663.525 Z " fill="#000000"/><text fill="#000000" font-family="sans-serif" font-size="8.4" lengthAdjust="spacing" textLength="24" x="394.35" y="669.4781">House</text><line style="stroke:#181818;stroke-width:0.3;" x1="354" x2="439.2" y1="675.6" y2="675.6"/><text fill="#000000" font-family="sans-serif" font-size="8.4" lengthAdjust="spacing" textLength="75.6" x="357" y="687.0645">-basement: boolean</text><text fill="#000000" font-family="sans-serif" font-size="8.4" lengthAdjust="spacing" textLength="49.8" x="357" y="698.2371">-loft: boolean</text><text fill="#000000" font-family="sans-serif" font-size="8.4" lengthAdjust="spacing" textLength="79.2" x="357" y="709.4098">-sunExposure: String</text><line style="stroke:#181818;stroke-width:0.6;" x1="354" x2="439.2" y1="713.918" y2="713.918"/><text fill="#000000" font-family="sans-serif" font-size="8.4" lengthAdjust="spacing" textLength="67.2" x="357" y="725.3824">+toString(): String</text></g><!--class Owner--><g id="elem_Owner"><rect codeLine="192" fill="#F1F1F1" height="84.6633" id="Owner" rx="1.5" ry="1.5" style="stroke:#181818;stroke-width:0.3;" width="106.8" x="824.4" y="535.2"/><ellipse cx="862.95" cy="544.8" fill="#ADD1B2" rx="6.6" ry="6.6" style="stroke:#181818;stroke-width:0.6;"/><path d="M864.6094,542.325 Q864.7031,542.1938 864.8156,542.1281 Q864.9281,542.0625 865.0594,542.0625 Q865.2844,542.0625 865.425,542.2219 Q865.5656,542.3719 865.5656,542.7375 L865.5656,543.6094 Q865.5656,543.975 865.425,544.1344 Q865.2844,544.2937 865.0594,544.2937 Q864.8531,544.2937 864.7312,544.1719 Q864.6094,544.0594 864.5437,543.75 Q864.5156,543.5344 864.4031,543.4219 Q864.2063,543.1969 863.8406,543.0656 Q863.475,542.9344 863.1,542.9344 Q862.6406,542.9344 862.2563,543.1313 Q861.8813,543.3281 861.5813,543.7781 Q861.2906,544.2281 861.2906,544.8469 L861.2906,545.5031 Q861.2906,546.2438 861.825,546.7406 Q862.3594,547.2281 863.3156,547.2281 Q863.8781,547.2281 864.2719,547.0781 Q864.5063,546.9844 864.7594,546.7219 Q864.9187,546.5625 865.0031,546.5156 Q865.0969,546.4688 865.2188,546.4688 Q865.4156,546.4688 865.5656,546.6281 Q865.725,546.7781 865.725,546.9844 Q865.725,547.1906 865.5188,547.4344 Q865.2188,547.7813 864.7406,547.9781 Q864.0938,548.25 863.3156,548.25 Q862.4063,548.25 861.6844,547.875 Q861.0938,547.575 860.6813,546.9375 Q860.2688,546.2906 860.2688,545.5219 L860.2688,544.8281 Q860.2688,544.0313 860.6344,543.3469 Q861.0094,542.6531 861.6656,542.2875 Q862.3219,541.9125 863.0625,541.9125 Q863.5031,541.9125 863.8875,542.0156 Q864.2813,542.1094 864.6094,542.325 Z " fill="#000000"/><text fill="#000000" font-family="sans-serif" font-size="8.4" lengthAdjust="spacing" textLength="24.6" x="875.25" y="548.2781">Owner</text><line style="stroke:#181818;stroke-width:0.3;" x1="825" x2="930.6" y1="554.4" y2="554.4"/><text fill="#000000" font-family="sans-serif" font-size="8.4" lengthAdjust="spacing" textLength="53.4" x="828" y="565.8645">-name : String</text><text fill="#000000" font-family="sans-serif" font-size="8.4" lengthAdjust="spacing" textLength="76.8" x="828" y="577.0371">-taxNumber : Integer</text><text fill="#000000" font-family="sans-serif" font-size="8.4" lengthAdjust="spacing" textLength="83.4" x="828" y="588.2098">-emailAddress : String</text><text fill="#000000" font-family="sans-serif" font-size="8.4" lengthAdjust="spacing" textLength="99.6" x="828" y="599.3824">-telephoneNumber : String</text><line style="stroke:#181818;stroke-width:0.6;" x1="825" x2="930.6" y1="603.8906" y2="603.8906"/><text fill="#000000" font-family="sans-serif" font-size="8.4" lengthAdjust="spacing" textLength="67.2" x="828" y="615.3551">+toString(): String</text></g><!--class Land--><g id="elem_Land"><rect codeLine="209" fill="#F1F1F1" height="28.8" id="Land" rx="1.5" ry="1.5" style="stroke:#181818;stroke-width:0.3;" width="38.4" x="540.6" y="563.1"/><ellipse cx="549.6" cy="572.7" fill="#ADD1B2" rx="6.6" ry="6.6" style="stroke:#181818;stroke-width:0.6;"/><path d="M551.2594,570.225 Q551.3531,570.0938 551.4656,570.0281 Q551.5781,569.9625 551.7094,569.9625 Q551.9344,569.9625 552.075,570.1219 Q552.2156,570.2719 552.2156,570.6375 L552.2156,571.5094 Q552.2156,571.875 552.075,572.0344 Q551.9344,572.1938 551.7094,572.1938 Q551.5031,572.1938 551.3813,572.0719 Q551.2594,571.9594 551.1938,571.65 Q551.1656,571.4344 551.0531,571.3219 Q550.8562,571.0969 550.4906,570.9656 Q550.125,570.8344 549.75,570.8344 Q549.2906,570.8344 548.9063,571.0313 Q548.5313,571.2281 548.2312,571.6781 Q547.9406,572.1281 547.9406,572.7469 L547.9406,573.4031 Q547.9406,574.1438 548.475,574.6406 Q549.0094,575.1281 549.9656,575.1281 Q550.5281,575.1281 550.9219,574.9781 Q551.1563,574.8844 551.4094,574.6219 Q551.5688,574.4625 551.6531,574.4156 Q551.7469,574.3688 551.8688,574.3688 Q552.0656,574.3688 552.2156,574.5281 Q552.375,574.6781 552.375,574.8844 Q552.375,575.0906 552.1687,575.3344 Q551.8688,575.6813 551.3906,575.8781 Q550.7438,576.15 549.9656,576.15 Q549.0563,576.15 548.3344,575.775 Q547.7438,575.475 547.3313,574.8375 Q546.9187,574.1906 546.9187,573.4219 L546.9187,572.7281 Q546.9187,571.9313 547.2844,571.2469 Q547.6594,570.5531 548.3156,570.1875 Q548.9719,569.8125 549.7125,569.8125 Q550.1531,569.8125 550.5375,569.9156 Q550.9313,570.0094 551.2594,570.225 Z " fill="#000000"/><text fill="#000000" font-family="sans-serif" font-size="8.4" lengthAdjust="spacing" textLength="19.2" x="558" y="576.1781">Land</text><line style="stroke:#181818;stroke-width:0.3;" x1="541.2" x2="578.4" y1="582.3" y2="582.3"/><line style="stroke:#181818;stroke-width:0.3;" x1="541.2" x2="578.4" y1="587.1" y2="587.1"/></g><!--class PassportCard--><g id="elem_PassportCard"><rect codeLine="211" fill="#F1F1F1" height="62.318" id="PassportCard" rx="1.5" ry="1.5" style="stroke:#181818;stroke-width:0.3;" width="93" x="952.5" y="546.3"/><ellipse cx="971.22" cy="555.9" fill="#ADD1B2" rx="6.6" ry="6.6" style="stroke:#181818;stroke-width:0.6;"/><path d="M972.8794,553.425 Q972.9731,553.2937 973.0856,553.2281 Q973.1981,553.1625 973.3294,553.1625 Q973.5544,553.1625 973.695,553.3219 Q973.8356,553.4719 973.8356,553.8375 L973.8356,554.7094 Q973.8356,555.075 973.695,555.2344 Q973.5544,555.3938 973.3294,555.3938 Q973.1231,555.3938 973.0013,555.2719 Q972.8794,555.1594 972.8138,554.85 Q972.7856,554.6344 972.6731,554.5219 Q972.4762,554.2969 972.1106,554.1656 Q971.745,554.0344 971.37,554.0344 Q970.9106,554.0344 970.5263,554.2312 Q970.1513,554.4281 969.8512,554.8781 Q969.5606,555.3281 969.5606,555.9469 L969.5606,556.6031 Q969.5606,557.3438 970.095,557.8406 Q970.6294,558.3281 971.5856,558.3281 Q972.1481,558.3281 972.5419,558.1781 Q972.7763,558.0844 973.0294,557.8219 Q973.1888,557.6625 973.2731,557.6156 Q973.3669,557.5688 973.4888,557.5688 Q973.6856,557.5688 973.8356,557.7281 Q973.995,557.8781 973.995,558.0844 Q973.995,558.2906 973.7887,558.5344 Q973.4888,558.8813 973.0106,559.0781 Q972.3638,559.35 971.5856,559.35 Q970.6763,559.35 969.9544,558.975 Q969.3638,558.675 968.9513,558.0375 Q968.5387,557.3906 968.5387,556.6219 L968.5387,555.9281 Q968.5387,555.1313 968.9044,554.4469 Q969.2794,553.7531 969.9356,553.3875 Q970.5919,553.0125 971.3325,553.0125 Q971.7731,553.0125 972.1575,553.1156 Q972.5513,553.2094 972.8794,553.425 Z " fill="#000000"/><text fill="#000000" font-family="sans-serif" font-size="8.4" lengthAdjust="spacing" textLength="52.2" x="981.78" y="559.3781">PassportCard</text><line style="stroke:#181818;stroke-width:0.3;" x1="953.1" x2="1044.9" y1="565.5" y2="565.5"/><text fill="#000000" font-family="sans-serif" font-size="8.4" lengthAdjust="spacing" textLength="62.4" x="956.1" y="576.9645">passportNumber</text><line style="stroke:#181818;stroke-width:0.3;" x1="953.1" x2="1044.9" y1="581.4727" y2="581.4727"/><text fill="#000000" font-family="sans-serif" font-size="8.4" lengthAdjust="spacing" textLength="85.8" x="956.1" y="592.9371">+getPassportNumber()</text><text fill="#000000" font-family="sans-serif" font-size="8.4" lengthAdjust="spacing" textLength="83.4" x="956.1" y="604.1098">-setPassportNumber()</text></g><!--class Apartment--><g id="elem_Apartment"><rect codeLine="218" fill="#F1F1F1" height="28.8" id="Apartment" rx="1.5" ry="1.5" style="stroke:#181818;stroke-width:0.3;" width="58.2" x="461.1" y="678.6"/><ellipse cx="470.1" cy="688.2" fill="#ADD1B2" rx="6.6" ry="6.6" style="stroke:#181818;stroke-width:0.6;"/><path d="M471.7594,685.725 Q471.8531,685.5938 471.9656,685.5281 Q472.0781,685.4625 472.2094,685.4625 Q472.4344,685.4625 472.575,685.6219 Q472.7156,685.7719 472.7156,686.1375 L472.7156,687.0094 Q472.7156,687.375 472.575,687.5344 Q472.4344,687.6938 472.2094,687.6938 Q472.0031,687.6938 471.8812,687.5719 Q471.7594,687.4594 471.6937,687.15 Q471.6656,686.9344 471.5531,686.8219 Q471.3563,686.5969 470.9906,686.4656 Q470.625,686.3344 470.25,686.3344 Q469.7906,686.3344 469.4063,686.5313 Q469.0313,686.7281 468.7313,687.1781 Q468.4406,687.6281 468.4406,688.2469 L468.4406,688.9031 Q468.4406,689.6438 468.975,690.1406 Q469.5094,690.6281 470.4656,690.6281 Q471.0281,690.6281 471.4219,690.4781 Q471.6563,690.3844 471.9094,690.1219 Q472.0687,689.9625 472.1531,689.9156 Q472.2469,689.8688 472.3688,689.8688 Q472.5656,689.8688 472.7156,690.0281 Q472.875,690.1781 472.875,690.3844 Q472.875,690.5906 472.6688,690.8344 Q472.3688,691.1813 471.8906,691.3781 Q471.2438,691.65 470.4656,691.65 Q469.5563,691.65 468.8344,691.275 Q468.2438,690.975 467.8312,690.3375 Q467.4188,689.6906 467.4188,688.9219 L467.4188,688.2281 Q467.4188,687.4313 467.7844,686.7469 Q468.1594,686.0531 468.8156,685.6875 Q469.4719,685.3125 470.2125,685.3125 Q470.6531,685.3125 471.0375,685.4156 Q471.4313,685.5094 471.7594,685.725 Z " fill="#000000"/><text fill="#000000" font-family="sans-serif" font-size="8.4" lengthAdjust="spacing" textLength="39" x="478.5" y="691.6781">Apartment</text><line style="stroke:#181818;stroke-width:0.3;" x1="461.7" x2="518.7" y1="697.8" y2="697.8"/><line style="stroke:#181818;stroke-width:0.3;" x1="461.7" x2="518.7" y1="702.6" y2="702.6"/></g><!--class Agency--><g id="elem_Agency"><rect codeLine="220" fill="#F1F1F1" height="118.1812" id="Agency" rx="1.5" ry="1.5" style="stroke:#181818;stroke-width:0.3;" width="148.8" x="966.6" y="136.8"/><ellipse cx="1024.35" cy="146.4" fill="#ADD1B2" rx="6.6" ry="6.6" style="stroke:#181818;stroke-width:0.6;"/><path d="M1026.0094,143.925 Q1026.1031,143.7938 1026.2156,143.7281 Q1026.3281,143.6625 1026.4594,143.6625 Q1026.6844,143.6625 1026.825,143.8219 Q1026.9656,143.9719 1026.9656,144.3375 L1026.9656,145.2094 Q1026.9656,145.575 1026.825,145.7344 Q1026.6844,145.8937 1026.4594,145.8937 Q1026.2531,145.8937 1026.1313,145.7719 Q1026.0094,145.6594 1025.9438,145.35 Q1025.9156,145.1344 1025.8031,145.0219 Q1025.6063,144.7969 1025.2406,144.6656 Q1024.875,144.5344 1024.5,144.5344 Q1024.0406,144.5344 1023.6563,144.7313 Q1023.2813,144.9281 1022.9812,145.3781 Q1022.6906,145.8281 1022.6906,146.4469 L1022.6906,147.1031 Q1022.6906,147.8438 1023.225,148.3406 Q1023.7594,148.8281 1024.7156,148.8281 Q1025.2781,148.8281 1025.6719,148.6781 Q1025.9063,148.5844 1026.1594,148.3219 Q1026.3188,148.1625 1026.4031,148.1156 Q1026.4969,148.0688 1026.6187,148.0688 Q1026.8156,148.0688 1026.9656,148.2281 Q1027.125,148.3781 1027.125,148.5844 Q1027.125,148.7906 1026.9188,149.0344 Q1026.6187,149.3813 1026.1406,149.5781 Q1025.4937,149.85 1024.7156,149.85 Q1023.8063,149.85 1023.0844,149.475 Q1022.4938,149.175 1022.0813,148.5375 Q1021.6687,147.8906 1021.6687,147.1219 L1021.6687,146.4281 Q1021.6687,145.6313 1022.0344,144.9469 Q1022.4094,144.2531 1023.0656,143.8875 Q1023.7219,143.5125 1024.4625,143.5125 Q1024.9031,143.5125 1025.2875,143.6156 Q1025.6812,143.7094 1026.0094,143.925 Z " fill="#000000"/><text fill="#000000" font-family="sans-serif" font-size="8.4" lengthAdjust="spacing" textLength="28.2" x="1036.65" y="149.8781">Agency</text><line style="stroke:#181818;stroke-width:0.3;" x1="967.2" x2="1114.8" y1="156" y2="156"/><text fill="#000000" font-family="sans-serif" font-size="8.4" lengthAdjust="spacing" textLength="65.4" x="970.2" y="167.4645">-agencyID: String</text><text fill="#000000" font-family="sans-serif" font-size="8.4" lengthAdjust="spacing" textLength="79.2" x="970.2" y="178.6371">-agencyName: String</text><text fill="#000000" font-family="sans-serif" font-size="8.4" lengthAdjust="spacing" textLength="81" x="970.2" y="189.8098">-emailAddress: String</text><text fill="#000000" font-family="sans-serif" font-size="8.4" lengthAdjust="spacing" textLength="127.8" x="970.2" y="200.9824">-contactTelephoneNumber: String</text><text fill="#000000" font-family="sans-serif" font-size="8.4" lengthAdjust="spacing" textLength="69.6" x="970.2" y="212.1551">-address: Address</text><line style="stroke:#181818;stroke-width:0.3;" x1="967.2" x2="1114.8" y1="216.6633" y2="216.6633"/><text fill="#000000" font-family="sans-serif" font-size="8.4" lengthAdjust="spacing" textLength="67.2" x="970.2" y="228.1277">+toString(): String</text><text fill="#000000" font-family="sans-serif" font-size="8.4" lengthAdjust="spacing" textLength="141" x="970.2" y="239.3004">+addPurchaseOrder(purchaseOrder)</text><text fill="#000000" font-family="sans-serif" font-size="8.4" lengthAdjust="spacing" textLength="141.6" x="970.2" y="250.473">+checkExistingOrder(purchaseOrder)</text></g><!--class Employee--><g id="elem_Employee"><rect codeLine="242" fill="#F1F1F1" height="84.6633" id="Employee" rx="1.5" ry="1.5" style="stroke:#181818;stroke-width:0.3;" width="74.4" x="840.6" y="153.6"/><ellipse cx="857.7" cy="163.2" fill="#ADD1B2" rx="6.6" ry="6.6" style="stroke:#181818;stroke-width:0.6;"/><path d="M859.3594,160.725 Q859.4531,160.5938 859.5656,160.5281 Q859.6781,160.4625 859.8094,160.4625 Q860.0344,160.4625 860.175,160.6219 Q860.3156,160.7719 860.3156,161.1375 L860.3156,162.0094 Q860.3156,162.375 860.175,162.5344 Q860.0344,162.6938 859.8094,162.6938 Q859.6031,162.6938 859.4812,162.5719 Q859.3594,162.4594 859.2937,162.15 Q859.2656,161.9344 859.1531,161.8219 Q858.9563,161.5969 858.5906,161.4656 Q858.225,161.3344 857.85,161.3344 Q857.3906,161.3344 857.0063,161.5313 Q856.6313,161.7281 856.3313,162.1781 Q856.0406,162.6281 856.0406,163.2469 L856.0406,163.9031 Q856.0406,164.6437 856.575,165.1406 Q857.1094,165.6281 858.0656,165.6281 Q858.6281,165.6281 859.0219,165.4781 Q859.2563,165.3844 859.5094,165.1219 Q859.6687,164.9625 859.7531,164.9156 Q859.8469,164.8688 859.9688,164.8688 Q860.1656,164.8688 860.3156,165.0281 Q860.475,165.1781 860.475,165.3844 Q860.475,165.5906 860.2688,165.8344 Q859.9688,166.1813 859.4906,166.3781 Q858.8438,166.65 858.0656,166.65 Q857.1563,166.65 856.4344,166.275 Q855.8438,165.975 855.4313,165.3375 Q855.0188,164.6906 855.0188,163.9219 L855.0188,163.2281 Q855.0188,162.4313 855.3844,161.7469 Q855.7594,161.0531 856.4156,160.6875 Q857.0719,160.3125 857.8125,160.3125 Q858.2531,160.3125 858.6375,160.4156 Q859.0313,160.5094 859.3594,160.725 Z " fill="#000000"/><text fill="#000000" font-family="sans-serif" font-size="8.4" lengthAdjust="spacing" textLength="37.2" x="867.9" y="166.6781">Employee</text><line style="stroke:#181818;stroke-width:0.3;" x1="841.2" x2="914.4" y1="172.8" y2="172.8"/><text fill="#000000" font-family="sans-serif" font-size="8.4" lengthAdjust="spacing" textLength="49.8" x="844.2" y="184.2645">-email: String</text><text fill="#000000" font-family="sans-serif" font-size="8.4" lengthAdjust="spacing" textLength="51" x="844.2" y="195.4371">-name: String</text><text fill="#000000" font-family="sans-serif" font-size="8.4" lengthAdjust="spacing" textLength="59.4" x="844.2" y="206.6098">-position: String</text><text fill="#000000" font-family="sans-serif" font-size="8.4" lengthAdjust="spacing" textLength="54" x="844.2" y="217.7824">-phone: String</text><line style="stroke:#181818;stroke-width:0.6;" x1="841.2" x2="914.4" y1="222.2906" y2="222.2906"/><text fill="#000000" font-family="sans-serif" font-size="8.4" lengthAdjust="spacing" textLength="67.2" x="844.2" y="233.7551">+toString(): String</text></g><!--class Person--><g id="elem_Person"><rect codeLine="257" fill="#F1F1F1" height="118.1812" id="Person" rx="1.5" ry="1.5" style="stroke:#181818;stroke-width:0.3;" width="118.8" x="818.4" y="336"/><ellipse cx="861.75" cy="345.6" fill="#ADD1B2" rx="6.6" ry="6.6" style="stroke:#181818;stroke-width:0.6;"/><path d="M863.4094,343.125 Q863.5031,342.9938 863.6156,342.9281 Q863.7281,342.8625 863.8594,342.8625 Q864.0844,342.8625 864.225,343.0219 Q864.3656,343.1719 864.3656,343.5375 L864.3656,344.4094 Q864.3656,344.775 864.225,344.9344 Q864.0844,345.0938 863.8594,345.0938 Q863.6531,345.0938 863.5313,344.9719 Q863.4094,344.8594 863.3438,344.55 Q863.3156,344.3344 863.2031,344.2219 Q863.0063,343.9969 862.6406,343.8656 Q862.275,343.7344 861.9,343.7344 Q861.4406,343.7344 861.0563,343.9313 Q860.6813,344.1281 860.3813,344.5781 Q860.0906,345.0281 860.0906,345.6469 L860.0906,346.3031 Q860.0906,347.0438 860.625,347.5406 Q861.1594,348.0281 862.1156,348.0281 Q862.6781,348.0281 863.0719,347.8781 Q863.3063,347.7844 863.5594,347.5219 Q863.7188,347.3625 863.8031,347.3156 Q863.8969,347.2688 864.0188,347.2688 Q864.2156,347.2688 864.3656,347.4281 Q864.525,347.5781 864.525,347.7844 Q864.525,347.9906 864.3188,348.2344 Q864.0188,348.5813 863.5406,348.7781 Q862.8938,349.05 862.1156,349.05 Q861.2063,349.05 860.4844,348.675 Q859.8938,348.375 859.4812,347.7375 Q859.0688,347.0906 859.0688,346.3219 L859.0688,345.6281 Q859.0688,344.8313 859.4344,344.1469 Q859.8094,343.4531 860.4656,343.0875 Q861.1219,342.7125 861.8625,342.7125 Q862.3031,342.7125 862.6875,342.8156 Q863.0813,342.9094 863.4094,343.125 Z " fill="#000000"/><text fill="#000000" font-family="sans-serif" font-size="8.4" lengthAdjust="spacing" textLength="27" x="874.05" y="349.0781">Person</text><line style="stroke:#181818;stroke-width:0.3;" x1="819" x2="936.6" y1="355.2" y2="355.2"/><text fill="#000000" font-family="sans-serif" font-size="8.4" lengthAdjust="spacing" textLength="51" x="822" y="366.6645">-name: String</text><text fill="#000000" font-family="sans-serif" font-size="8.4" lengthAdjust="spacing" textLength="70.2" x="822" y="377.8371">-taxNumber: String</text><text fill="#000000" font-family="sans-serif" font-size="8.4" lengthAdjust="spacing" textLength="81" x="822" y="389.0098">-emailAddress: String</text><text fill="#000000" font-family="sans-serif" font-size="8.4" lengthAdjust="spacing" textLength="97.2" x="822" y="400.1824">-telephoneNumber: String</text><text fill="#000000" font-family="sans-serif" font-size="8.4" lengthAdjust="spacing" textLength="69.6" x="822" y="411.3551">-address: Address</text><text fill="#000000" font-family="sans-serif" font-size="8.4" lengthAdjust="spacing" textLength="39.6" x="822" y="422.5277">-role: Role</text><text fill="#000000" font-family="sans-serif" font-size="8.4" lengthAdjust="spacing" textLength="111.6" x="822" y="433.7004">-passportCard: PassportCard</text><line style="stroke:#181818;stroke-width:0.3;" x1="819" x2="936.6" y1="438.2086" y2="438.2086"/><text fill="#000000" font-family="sans-serif" font-size="8.4" lengthAdjust="spacing" textLength="67.2" x="822" y="449.673">+toString(): String</text></g><!--class PurchaseOrderRepository--><g id="elem_PurchaseOrderRepository"><rect codeLine="282" fill="#F1F1F1" height="51.1453" id="PurchaseOrderRepository" rx="1.5" ry="1.5" style="stroke:#181818;stroke-width:0.3;" width="201.6" x="177" y="170.4"/><ellipse cx="225.75" cy="180" fill="#ADD1B2" rx="6.6" ry="6.6" style="stroke:#181818;stroke-width:0.6;"/><path d="M227.4094,177.525 Q227.5031,177.3937 227.6156,177.3281 Q227.7281,177.2625 227.8594,177.2625 Q228.0844,177.2625 228.225,177.4219 Q228.3656,177.5719 228.3656,177.9375 L228.3656,178.8094 Q228.3656,179.175 228.225,179.3344 Q228.0844,179.4938 227.8594,179.4938 Q227.6531,179.4938 227.5313,179.3719 Q227.4094,179.2594 227.3438,178.95 Q227.3156,178.7344 227.2031,178.6219 Q227.0063,178.3969 226.6406,178.2656 Q226.275,178.1344 225.9,178.1344 Q225.4406,178.1344 225.0563,178.3312 Q224.6813,178.5281 224.3813,178.9781 Q224.0906,179.4281 224.0906,180.0469 L224.0906,180.7031 Q224.0906,181.4438 224.625,181.9406 Q225.1594,182.4281 226.1156,182.4281 Q226.6781,182.4281 227.0719,182.2781 Q227.3063,182.1844 227.5594,181.9219 Q227.7188,181.7625 227.8031,181.7156 Q227.8969,181.6688 228.0187,181.6688 Q228.2156,181.6688 228.3656,181.8281 Q228.525,181.9781 228.525,182.1844 Q228.525,182.3906 228.3188,182.6344 Q228.0187,182.9813 227.5406,183.1781 Q226.8937,183.45 226.1156,183.45 Q225.2062,183.45 224.4844,183.075 Q223.8937,182.775 223.4813,182.1375 Q223.0688,181.4906 223.0688,180.7219 L223.0688,180.0281 Q223.0688,179.2313 223.4344,178.5469 Q223.8094,177.8531 224.4656,177.4875 Q225.1219,177.1125 225.8625,177.1125 Q226.3031,177.1125 226.6875,177.2156 Q227.0812,177.3094 227.4094,177.525 Z " fill="#000000"/><text fill="#000000" font-family="sans-serif" font-size="8.4" lengthAdjust="spacing" textLength="99" x="238.05" y="183.4781">PurchaseOrderRepository</text><line style="stroke:#181818;stroke-width:0.3;" x1="177.6" x2="378" y1="189.6" y2="189.6"/><text fill="#000000" font-family="sans-serif" font-size="8.4" lengthAdjust="spacing" textLength="194.4" x="180.6" y="201.0645">-purchaseOrdersRequested : List&lt;PurchaseOrder&gt;</text><line style="stroke:#181818;stroke-width:0.6;" x1="177.6" x2="378" y1="205.5727" y2="205.5727"/><text fill="#000000" font-family="sans-serif" font-size="8.4" lengthAdjust="spacing" textLength="126.6" x="180.6" y="217.0371">+getPurchaseOrdersRequested()</text></g><!--link CreatePurchaseOrderUI to CreatePurchaseOrderController--><g id="link_CreatePurchaseOrderUI_CreatePurchaseOrderController"><path codeLine="288" d="M114.762,52.2 C124.824,52.2 132.198,52.2 132.198,52.2 C132.198,52.2 132.276,52.2 132.42,52.2 " fill="none" id="CreatePurchaseOrderUI-to-CreatePurchaseOrderController" style="stroke:#181818;stroke-width:0.6;stroke-dasharray:7.0,7.0;"/><polygon fill="#181818" points="135.516,52.2,130.116,49.8,132.516,52.2,130.116,54.6,135.516,52.2" style="stroke:#181818;stroke-width:0.6;"/></g><!--link CreatePurchaseOrderController to AuthenticationRepository--><g id="link_CreatePurchaseOrderController_AuthenticationRepository"><path codeLine="289" d="M340.434,100.2 C365.616,119.256 388.8,136.8 388.8,136.8 C388.8,136.8 412.2,156.99 431.502,173.646 " fill="none" id="CreatePurchaseOrderController-to-AuthenticationRepository" style="stroke:#181818;stroke-width:0.6;stroke-dasharray:7.0,7.0;"/><polygon fill="#181818" points="433.836,175.656,431.3194,170.3093,431.5661,173.6945,428.181,173.9412,433.836,175.656" style="stroke:#181818;stroke-width:0.6;"/></g><!--link CreatePurchaseOrderController to PurchaseOrderRepository--><g id="link_CreatePurchaseOrderController_PurchaseOrderRepository"><path codeLine="290" d="M277.8,100.248 C277.8,122.46 277.8,148.158 277.8,167.226 " fill="none" id="CreatePurchaseOrderController-to-PurchaseOrderRepository" style="stroke:#181818;stroke-width:0.6;stroke-dasharray:7.0,7.0;"/><polygon fill="#181818" points="277.8,170.232,280.2,164.832,277.8,167.232,275.4,164.832,277.8,170.232" style="stroke:#181818;stroke-width:0.6;"/></g><!--link CreatePurchaseOrderController to PurchaseOrder--><g id="link_CreatePurchaseOrderController_PurchaseOrder"><path codeLine="291" d="M214.824,100.2 C189.51,119.256 166.2,136.8 166.2,136.8 C166.2,136.8 166.2,255 166.2,255 C166.2,255 168.228,274.656 170.766,299.208 " fill="none" id="CreatePurchaseOrderController-to-PurchaseOrder" style="stroke:#181818;stroke-width:0.6;stroke-dasharray:7.0,7.0;"/><polygon fill="#181818" points="171.078,302.226,172.9096,296.6077,170.7693,299.2419,168.1351,297.1016,171.078,302.226" style="stroke:#181818;stroke-width:0.6;"/></g><!--link CreatePurchaseOrderController to Repositories--><g id="link_CreatePurchaseOrderController_Repositories"><path codeLine="292" d="M420.018,52.2 C425.964,52.2 429.798,52.2 429.798,52.2 C429.798,52.2 433.026,52.2 438.144,52.2 " fill="none" id="CreatePurchaseOrderController-to-Repositories" style="stroke:#181818;stroke-width:0.6;stroke-dasharray:7.0,7.0;"/><polygon fill="#181818" points="441.18,52.2,435.78,49.8,438.18,52.2,435.78,54.6,441.18,52.2" style="stroke:#181818;stroke-width:0.6;"/></g><!--link CreatePurchaseOrderController to Announcements--><g id="link_CreatePurchaseOrderController_Announcements"><path codeLine="293" d="M420.042,96.864 C426.78,98.952 430.8,100.2 430.8,100.2 C430.8,100.2 643.8,136.8 643.8,136.8 C643.8,136.8 665.16,153.072 685.35,168.45 " fill="none" id="CreatePurchaseOrderController-to-Announcements" style="stroke:#181818;stroke-width:0.6;stroke-dasharray:7.0,7.0;"/><polygon fill="#181818" points="687.81,170.322,684.9714,165.1391,685.4245,168.5028,682.0608,168.9559,687.81,170.322" style="stroke:#181818;stroke-width:0.6;"/></g><!--link Repositories to AuthenticationRepository--><g id="link_Repositories_AuthenticationRepository"><path codeLine="295" d="M491.37,94.59 C482.562,120.108 471.636,151.746 464.412,172.674 " fill="none" id="Repositories-to-AuthenticationRepository" style="stroke:#181818;stroke-width:0.6;"/><polygon fill="#181818" points="463.374,175.686,467.4057,171.3656,464.3536,172.8504,462.8688,169.7983,463.374,175.686" style="stroke:#181818;stroke-width:0.6;"/></g><!--link Repositories to Repositories--><g id="link_Repositories_Repositories"><path codeLine="296" d="M570.306,40.416 C582.6,41.826 591.3,45.756 591.3,52.2 C591.3,58.092 584.034,61.878 573.39,63.564 " fill="none" id="Repositories-to-Repositories" style="stroke:#181818;stroke-width:0.6;"/><polygon fill="#181818" points="570.306,63.984,575.9793,65.6375,573.2789,63.5813,575.335,60.8809,570.306,63.984" style="stroke:#181818;stroke-width:0.6;"/><text fill="#000000" font-family="sans-serif" font-size="7.8" lengthAdjust="spacing" textLength="45" x="594.9" y="55.517">getInstance()</text></g><!--link Repositories to Announcements--><g id="link_Repositories_Announcements"><path codeLine="297" d="M570.354,92.094 C606.27,113.958 643.8,136.8 643.8,136.8 C643.8,136.8 665.16,153.072 685.35,168.45 " fill="none" id="Repositories-to-Announcements" style="stroke:#181818;stroke-width:0.6;"/><polygon fill="#181818" points="687.81,170.322,684.9714,165.1391,685.4245,168.5028,682.0608,168.9559,687.81,170.322" style="stroke:#181818;stroke-width:0.6;"/></g><!--link Repositories to PurchaseOrderRepository--><g id="link_Repositories_PurchaseOrderRepository"><path codeLine="298" d="M441.228,93.612 C434.922,97.596 430.8,100.2 430.8,100.2 C430.8,100.2 365.94,140.514 320.682,168.648 " fill="none" id="Repositories-to-PurchaseOrderRepository" style="stroke:#181818;stroke-width:0.6;"/><polygon fill="#181818" points="318,170.316,323.8524,169.4981,320.5464,168.7299,321.3146,165.4238,318,170.316" style="stroke:#181818;stroke-width:0.6;"/></g><!--link PurchaseOrderRepository to PurchaseOrder--><g id="link_PurchaseOrderRepository_PurchaseOrder"><path codeLine="299" d="M265.488,221.574 C255.402,242.13 240.462,272.556 225.918,302.184 " fill="none" id="PurchaseOrderRepository-PurchaseOrder" style="stroke:#181818;stroke-width:0.6;"/><polygon fill="#000000" points="242.522,276.0943,238.5476,280.189,241.7134,281.743,242.522,276.0943" style="stroke:#000000;stroke-width:0.6;"/><text fill="#000000" font-family="sans-serif" font-size="7.8" lengthAdjust="spacing" textLength="30" x="246.6" y="282.017">stores in</text></g><!--link Employee to Person--><g id="link_Employee_Person"><path codeLine="301" d="M877.8,238.248 C877.8,263.07 877.8,295.2 877.8,323.868 " fill="none" id="Employee-to-Person" style="stroke:#181818;stroke-width:0.6;"/><polygon fill="none" points="882,323.91,877.8,335.91,873.6,323.91,882,323.91" style="stroke:#181818;stroke-width:0.6;"/></g><!--reverse link Person to Owner--><g id="link_Person_Owner"><path codeLine="302" d="M877.8,466.422 C877.8,489.678 877.8,514.776 877.8,535.158 " fill="none" id="Person-backto-Owner" style="stroke:#181818;stroke-width:0.6;"/><polygon fill="none" points="873.6,466.278,877.8,454.278,882,466.278,873.6,466.278" style="stroke:#181818;stroke-width:0.6;"/></g><!--link Employee to Agency--><g id="link_Employee_Agency"><path codeLine="303" d="M915.036,195.9 C929.472,195.9 946.572,195.9 963.438,195.9 " fill="none" id="Employee-to-Agency" style="stroke:#181818;stroke-width:0.6;"/><polygon fill="#181818" points="966.582,195.9,961.182,193.5,963.582,195.9,961.182,198.3,966.582,195.9" style="stroke:#181818;stroke-width:0.6;"/><polygon fill="#000000" points="931.5,188.4873,926.0729,186.7239,926.0729,190.2507,931.5,188.4873" style="stroke:#000000;stroke-width:0.6;"/><text fill="#000000" font-family="sans-serif" font-size="7.8" lengthAdjust="spacing" textLength="21.6" x="933.9" y="191.717">stores</text><text fill="#000000" font-family="sans-serif" font-size="7.8" lengthAdjust="spacing" textLength="4.2" x="919.8301" y="193.5022">1</text><text fill="#000000" font-family="sans-serif" font-size="7.8" lengthAdjust="spacing" textLength="4.2" x="957.7192" y="193.8121">1</text></g><!--link Property to Person--><g id="link_Property_Person"><path codeLine="305" d="M766.884,395.1 C783.036,395.1 799.812,395.1 815.28,395.1 " fill="none" id="Property-to-Person" style="stroke:#181818;stroke-width:0.6;"/><polygon fill="#181818" points="818.352,395.1,812.952,392.7,815.352,395.1,812.952,397.5,818.352,395.1" style="stroke:#181818;stroke-width:0.6;"/><polygon fill="#000000" points="783.3,387.6873,777.8729,385.9239,777.8729,389.4507,783.3,387.6873" style="stroke:#000000;stroke-width:0.6;"/><text fill="#000000" font-family="sans-serif" font-size="7.8" lengthAdjust="spacing" textLength="21.6" x="785.7" y="390.917">stores</text><text fill="#000000" font-family="sans-serif" font-size="7.8" lengthAdjust="spacing" textLength="4.2" x="771.589" y="393.0325">1</text><text fill="#000000" font-family="sans-serif" font-size="7.8" lengthAdjust="spacing" textLength="4.2" x="809.4397" y="392.9339">1</text></g><!--link Announcements to Property--><g id="link_Announcements_Property"><path codeLine="306" d="M716.418,221.574 C713.118,241.404 708.276,270.426 703.506,299.052 " fill="none" id="Announcements-to-Property" style="stroke:#181818;stroke-width:0.6;"/><polygon fill="#181818" points="702.984,302.184,706.2321,297.2474,703.473,299.2241,701.4963,296.465,702.984,302.184" style="stroke:#181818;stroke-width:0.6;"/><text fill="#000000" font-family="sans-serif" font-size="7.8" lengthAdjust="spacing" textLength="4.2" x="711.2561" y="234.7055">1</text><text fill="#000000" font-family="sans-serif" font-size="7.8" lengthAdjust="spacing" textLength="3" x="700.6565" y="295.662">*</text></g><!--reverse link Property to Land--><g id="link_Property_Land"><path codeLine="307" d="M615.552,497.85 C597.312,523.71 579.972,548.298 569.61,562.992 " fill="none" id="Property-backto-Land" style="stroke:#181818;stroke-width:0.6;"/><polygon fill="none" points="612.228,495.276,622.578,487.89,619.092,500.118,612.228,495.276" style="stroke:#181818;stroke-width:0.6;"/></g><!--link TypeOfTransaction to Property--><g id="link_TypeOfTransaction_Property"><path codeLine="308" d="M599.904,227.22 C609.114,244.788 621.258,267.948 633.558,291.414 " fill="none" id="TypeOfTransaction-to-Property" style="stroke:#181818;stroke-width:0.6;"/><polygon fill="none" points="637.362,289.62,639.21,302.202,629.922,293.52,637.362,289.62" style="stroke:#181818;stroke-width:0.6;"/><text fill="#000000" font-family="sans-serif" font-size="7.8" lengthAdjust="spacing" textLength="4.2" x="597.4983" y="240.3197">1</text><text fill="#000000" font-family="sans-serif" font-size="7.8" lengthAdjust="spacing" textLength="4.2" x="632.5644" y="295.6809">1</text></g><!--link Property to Owner--><g id="link_Property_Owner"><path codeLine="309" d="M750.006,487.944 C761.418,504.81 769.8,517.2 769.8,517.2 C769.8,517.2 814.2,535.2 814.2,535.2 C814.2,535.2 817.032,537.054 821.496,539.982 " fill="none" id="Property-to-Owner" style="stroke:#181818;stroke-width:0.6;"/><polygon fill="#181818" points="824.136,541.716,820.9348,536.7489,821.6268,540.0717,818.3039,540.7637,824.136,541.716" style="stroke:#181818;stroke-width:0.6;"/><polygon fill="#000000" points="775.2255,513.3528,771.8755,508.7333,769.8,511.5846,775.2255,513.3528" style="stroke:#000000;stroke-width:0.6;"/><text fill="#000000" font-family="sans-serif" font-size="7.8" lengthAdjust="spacing" textLength="21.6" x="778.2" y="514.817">stores</text><text fill="#000000" font-family="sans-serif" font-size="7.8" lengthAdjust="spacing" textLength="4.2" x="748.5386" y="500.8072">1</text><text fill="#000000" font-family="sans-serif" font-size="7.8" lengthAdjust="spacing" textLength="4.2" x="815.318" y="536.5519">1</text></g><!--link Property to Address--><g id="link_Property_Address"><path codeLine="310" d="M705.366,487.944 C708.612,504.81 711,517.2 711,517.2 C711,517.2 717.918,524.682 726.858,534.354 " fill="none" id="Property-to-Address" style="stroke:#181818;stroke-width:0.6;"/><polygon fill="#181818" points="728.922,536.58,727.0255,530.9833,726.8882,534.3746,723.4969,534.2373,728.922,536.58" style="stroke:#181818;stroke-width:0.6;"/><polygon fill="#000000" points="715.2607,514.3096,714.5802,508.6439,711.38,510.1259,715.2607,514.3096" style="stroke:#000000;stroke-width:0.6;"/><text fill="#000000" font-family="sans-serif" font-size="7.8" lengthAdjust="spacing" textLength="21.6" x="719.4" y="514.817">stores</text><text fill="#000000" font-family="sans-serif" font-size="7.8" lengthAdjust="spacing" textLength="4.2" x="701.8759" y="500.8072">1</text><text fill="#000000" font-family="sans-serif" font-size="7.8" lengthAdjust="spacing" textLength="4.2" x="719.9228" y="529.1951">1</text></g><!--link Person to Address--><g id="link_Person_Address"><path codeLine="311" d="M841.722,454.278 C826.05,479.718 808.002,509.028 793.482,532.608 " fill="none" id="Person-to-Address" style="stroke:#181818;stroke-width:0.6;"/><polygon fill="#181818" points="791.904,535.158,796.775,531.8123,793.4739,532.6016,792.6847,529.3005,791.904,535.158" style="stroke:#181818;stroke-width:0.6;"/><polygon fill="#000000" points="809.6268,514.1417,813.9742,510.4454,810.9713,508.596,809.6268,514.1417" style="stroke:#000000;stroke-width:0.6;"/><text fill="#000000" font-family="sans-serif" font-size="7.8" lengthAdjust="spacing" textLength="21.6" x="816.6" y="514.817">stores</text><text fill="#000000" font-family="sans-serif" font-size="7.8" lengthAdjust="spacing" textLength="4.2" x="834.7183" y="467.4225">1</text><text fill="#000000" font-family="sans-serif" font-size="7.8" lengthAdjust="spacing" textLength="4.2" x="790.1382" y="528.4883">1</text></g><!--link Property to CommissionDetails--><g id="link_Property_CommissionDetails"><path codeLine="312" d="M659.472,487.866 C656.202,498.594 654,505.8 654,505.8 C654,505.8 654,524.664 654,542.964 " fill="none" id="Property-to-CommissionDetails" style="stroke:#181818;stroke-width:0.6;"/><polygon fill="#181818" points="654,546.126,656.4,540.726,654,543.126,651.6,540.726,654,546.126" style="stroke:#181818;stroke-width:0.6;"/><polygon fill="#000000" points="656.7035,514.5726,658.9946,509.3464,655.4851,508.9979,656.7035,514.5726" style="stroke:#000000;stroke-width:0.6;"/><text fill="#000000" font-family="sans-serif" font-size="7.8" lengthAdjust="spacing" textLength="21.6" x="662.4" y="514.817">stores</text><text fill="#000000" font-family="sans-serif" font-size="7.8" lengthAdjust="spacing" textLength="4.2" x="653.9023" y="500.7256">1</text><text fill="#000000" font-family="sans-serif" font-size="7.8" lengthAdjust="spacing" textLength="4.2" x="649.5178" y="539.459">1</text></g><!--reverse link Equipment to Building--><g id="link_Equipment_Building"><path codeLine="313" d="M419.478,429.468 C424.326,459.342 431.418,503.046 436.62,535.116 " fill="none" id="Equipment-backto-Building" style="stroke:#181818;stroke-width:0.6;"/><polygon fill="#181818" points="418.986,426.438,417.4822,432.1528,419.4667,429.3992,422.2202,431.3837,418.986,426.438" style="stroke:#181818;stroke-width:0.6;"/><polygon fill="#000000" points="435.1195,508.626,434.2481,514.2654,437.7293,513.7006,435.1195,508.626" style="stroke:#000000;stroke-width:0.6;"/><text fill="#000000" font-family="sans-serif" font-size="7.8" lengthAdjust="spacing" textLength="21.6" x="441" y="514.817">stores</text><text fill="#000000" font-family="sans-serif" font-size="7.8" lengthAdjust="spacing" textLength="4.2" x="415.1558" y="439.5401">1</text><text fill="#000000" font-family="sans-serif" font-size="7.8" lengthAdjust="spacing" textLength="4.2" x="431.5043" y="528.4419">1</text></g><!--reverse link Photo to Property--><g id="link_Photo_Property"><path codeLine="314" d="M559.956,395.1 C574.53,395.1 591.528,395.1 608.28,395.1 " fill="none" id="Photo-backto-Property" style="stroke:#181818;stroke-width:0.6;"/><polygon fill="#181818" points="556.884,395.1,562.284,397.5,559.884,395.1,562.284,392.7,556.884,395.1" style="stroke:#181818;stroke-width:0.6;"/><polygon fill="#000000" points="567.3,387.6873,572.7271,389.4507,572.7271,385.9239,567.3,387.6873" style="stroke:#000000;stroke-width:0.6;"/><text fill="#000000" font-family="sans-serif" font-size="7.8" lengthAdjust="spacing" textLength="21.6" x="575.7" y="390.917">stores</text><text fill="#000000" font-family="sans-serif" font-size="7.8" lengthAdjust="spacing" textLength="4.2" x="561.6839" y="392.7111">1</text><text fill="#000000" font-family="sans-serif" font-size="7.8" lengthAdjust="spacing" textLength="4.2" x="599.3729" y="393.0325">1</text></g><!--link Person to PassportCard--><g id="link_Person_PassportCard"><path codeLine="315" d="M916.98,454.278 C936.774,483.87 960.066,518.688 976.758,543.648 " fill="none" id="Person-to-PassportCard" style="stroke:#181818;stroke-width:0.6;"/><polygon fill="#181818" points="978.456,546.186,977.4575,540.3616,976.7919,543.6898,973.4637,543.0242,978.456,546.186" style="stroke:#181818;stroke-width:0.6;"/><polygon fill="#000000" points="960.4679,514.0809,958.9163,508.5896,955.9849,510.5503,960.4679,514.0809" style="stroke:#000000;stroke-width:0.6;"/><text fill="#000000" font-family="sans-serif" font-size="7.8" lengthAdjust="spacing" textLength="21.6" x="964.2" y="514.817">stores</text><text fill="#000000" font-family="sans-serif" font-size="7.8" lengthAdjust="spacing" textLength="4.2" x="915.5031" y="467.4225">1</text><text fill="#000000" font-family="sans-serif" font-size="7.8" lengthAdjust="spacing" textLength="4.2" x="971.2132" y="539.5271">1</text></g><!--reverse link Property to Building--><g id="link_Property_Building"><path codeLine="316" d="M598.734,463.908 C580.944,477.558 567.6,487.8 567.6,487.8 C567.6,487.8 525.948,517.68 490.884,542.832 " fill="none" id="Property-backto-Building" style="stroke:#181818;stroke-width:0.6;"/><polygon fill="none" points="596.316,460.464,608.394,456.492,601.434,467.13,596.316,460.464" style="stroke:#181818;stroke-width:0.6;"/></g><!--reverse link Building to House--><g id="link_Building_House"><path codeLine="317" d="M421.638,631.242 C418.176,639.702 414.666,648.282 411.408,656.232 " fill="none" id="Building-backto-House" style="stroke:#181818;stroke-width:0.6;"/><polygon fill="none" points="417.87,629.364,426.306,619.848,425.646,632.544,417.87,629.364" style="stroke:#181818;stroke-width:0.6;"/></g><!--reverse link Building to Apartment--><g id="link_Building_Apartment"><path codeLine="318" d="M465.144,631.2 C472.302,648.69 479.67,666.684 484.548,678.594 " fill="none" id="Building-backto-Apartment" style="stroke:#181818;stroke-width:0.6;"/><polygon fill="none" points="461.154,632.544,460.494,619.848,468.93,629.364,461.154,632.544" style="stroke:#181818;stroke-width:0.6;"/></g><!--SRC=[lLbBRnit4BxlhrZaOhcnZBP7mJ2GI2uY88qDo-wXDsgNbhPPBRSarKH9-jyxvF8nVAoa04LoY2NEp3VluKCNucFJzOIJNRbZ7QksdEreAVcU5fxIa-eZsT2LFBIqvBIIfDkqc45iISq-DTscV26jm9IswQWyzBJiMNjGNugB395noGeaLRL4Y3TIycQzbtHPiMxLVA7bpqLnqT8NMKfMycQpbMNTA7CQrXM5bYddd1997_QysX91xtbD-VEo_5hyUuHXpZh9MTjI3emb_9jEf_hlwsfBguzlkexjkuhkQ2Sd17tviD-jARyqh2dkP2yelzkHfhqgUyvwokLXkRW2Ru7uPWSuygeaLKLx26X5Bv7E0EVkSoEacFHu3JC_WvgS05BVr4PWG-MeZPXfple3Tboy1yZ99SHn26C0Og9MEgnoLguWUTt6473KW8Q13GUA2J3KRB-60ZF2Ba90QQo4JT7_475mLuNGVS7cBHTk-Tw3U5Q7DIm932NoK2839L8eoOOGJYvTC5qHFzAUYKOotb0HrUmq84wyYyjEQFJ99OGHy-GBmt4S40Ps9y-mbrkWDHLHJHcmEEE3ilgQgH011gfoktamARmDKnuP8X3qYFguhrM1xpa7LfMj5HK2sB6DLhCLTDNq1ECgAcxsgQDyLjwhFsQfOhjTeq5dvTnzNb09bIcinnjG3xsmyKr0O8RSlrZTKHlKpP2_ts12pq66qz4-MS0aYepazEyz5J938NND8G1WoV31EhnbagbLpibXo8PQkSNaMQdNp9AQvFSlJvnqWkYPF2kVugKecij5sD4NEZkbKFCdYjhaQ4oXH_vXJOq07b329hdifI8w5HESbuXdOtakRTuyOP6aHt6P17aT6RRnn6RK1nMIrH2nv6igWnnK3new23baoTTRYlpeIoyBY-cPCisOEXIgpeAfMKzySAMbw4sGew0ciXuQvBWdKXjquIkCeGDGtMc2Re_dn-Mu4qbhAB2qNpnmAY3zPrpOL-ea1st13t-GTZzMJ4kzezFQzSRC3JtWN3FMKZAqw-ioinN5CPi8g5iglGrLeo3jDwXmYGpyqlHpLYSfzeUqkB_r7CPpDPh3c6IyNjZPg8V-c1Cw5_DGLd4iN5j5757jE9EJz1YJHvAaQTay3HPRnK-XU6oyI3b65ABqQ-3ViUvma6ZOa7wqeaQYwtVbeObCGC926NA7QiNmXFlKDAwOC4Wh3Pc9ZI64AkD8p9jXaaQoUXbR5ikjP3BHZ5Ar7hWGY_uvU9CHjfIH3ZbMo30wuV9bPzUlU7ZPTlRd6pMVJ4BqhF8xiLb0moiCziF0ZgQhdtkmZD5YjnyCSCPlHngRdAUAxEs-QMjr0nsSMjEQCxOJtgiraTje2IwRSENShE1-Iz4o1BBfT_eKS6S_XZ5uQx7YA7X2g2wEn5jZNY9lrmFxapXYkvD41CJKnNC3wbntPs3IgAjotQZH0gpHER9IHnVIleDhS4BqHpkrVOSmwQQYUZ80o-yx4So8TUanByBEs-sZT2fExnXSEctLmUrfA1o_WKxBbhr4AsBVtNs6oycUvoQQhgC1Q98W9fLaEL6RMvJte7WIQ8-bDKSigMQRDp0tuH0ruyhf2hEnqtScMruTsT7uuK2IpyCh2n2MdQGRTyMYwfPlTvPOYhOKvaX7dMos6DNs6dB25T2Hxf02lFvaJSAB7y1s-tqgHd4LAOUhHM9SjMXmJpu8l2TT_TLFT_YlPrpE2Q-7wFPcPT1G-2j_i6uqJKM6u7Tp62bILPpNf-v2bRyh4_rLxG7XHLClAuyY0avbF5HO9-4i4uNpr0qskgzLvZAGZX1BZ2tEt_i6uuyWQNBgPeeMra06Bs38nIV5d6T3bKKVOJqUxE-vXvrnbHeTh9e0Kk73tkZZftxh1Baicz_CTdtB3fIw6jKnZUgeIqjJFo3f9uTmMOLdR8kpkYQ13Ziix36DpShxzL-qak7qLHpWmDOU3z455fPrMKIuYNZLWd5ArXfoT1Ep8uDoOUui8w5me_ZyxfNVrxRcfGgScPMFpBrhzMYQpOBPXcfnj3CreJlQZMZoPW0yDOd0ZsdiSpewvf4_f8VH6m-aIs7ejA6d7RNi4vfvHa7PrAyfcUoAY6sy7iu_j8qyTRlNNamMve6ArkvT6fFJn-c7lFImYUP_eBg-rhzdtHx_UQeu_kFLzVNjw0lu6Q8ZCVbUoPFynjFW9uWp70jU_8lW5v3fz8ZZ8MUe5n8Q_3AIWGtK9kInc8siWqme0WRSb098WDTqHU7sgUdqswqPoeMPpJVVfkP71iVrwfTNoYNrnvp1PXRjjYZSZnY8pM0Xji33WRLcdph5_zChzoRemS2CgJvl5kcJbv8UJDUw4bcDRYpHhc13ibp-XE_v1XTESUNGqdT59E4ll8hr1hnKVzsxWkEyAORNau4hy3HWIit4iofhguwjrLWurNfPtpEZDNSMB_u3]--></g></svg>