<?xml version="1.0" encoding="us-ascii" standalone="no"?><svg xmlns="http://www.w3.org/2000/svg" xmlns:xlink="http://www.w3.org/1999/xlink" contentStyleType="text/css" height="1544.8px" preserveAspectRatio="none" style="width:1598px;height:1544px;background:#FFFFFF;" version="1.1" viewBox="0 0 1598 1544" width="1598.4px" zoomAndPan="magnify"><defs/><g><rect fill="#FFFFFF" height="1389.3016" style="stroke:#181818;stroke-width:0.8000000000000002;" width="8" x="34" y="74.8969"/><rect fill="#FFFFFF" height="458.0547" style="stroke:#181818;stroke-width:0.8000000000000002;" width="8" x="308.4" y="93.5297"/><rect fill="#FFFFFF" height="446.5906" style="stroke:#181818;stroke-width:0.8000000000000002;" width="8" x="308.4" y="576.6172"/><rect fill="#FFFFFF" height="415.9578" style="stroke:#181818;stroke-width:0.8000000000000002;" width="8" x="308.4" y="1048.2406"/><rect fill="#FFFFFF" height="125.1641" style="stroke:#181818;stroke-width:0.8000000000000002;" width="8" x="697.2" y="178.4922"/><rect fill="#FFFFFF" height="125.1641" style="stroke:#181818;stroke-width:0.8000000000000002;" width="8" x="697.2" y="349.7219"/><rect fill="#FFFFFF" height="75.0984" style="stroke:#181818;stroke-width:0.8000000000000002;" width="8" x="697.2" y="601.65"/><rect fill="#FFFFFF" height="225.2953" style="stroke:#181818;stroke-width:0.8000000000000002;" width="8" x="697.2" y="722.8141"/><rect fill="#FFFFFF" height="365.8922" style="stroke:#181818;stroke-width:0.8000000000000002;" width="8" x="697.2" y="1073.2734"/><rect fill="#FFFFFF" height="25.0328" style="stroke:#181818;stroke-width:0.8000000000000002;" width="8" x="832" y="203.525"/><rect fill="#FFFFFF" height="25.0328" style="stroke:#181818;stroke-width:0.8000000000000002;" width="8" x="832" y="747.8469"/><rect fill="#FFFFFF" height="25.0328" style="stroke:#181818;stroke-width:0.8000000000000002;" width="8" x="917.6" y="253.5906"/><rect fill="#FFFFFF" height="25.0328" style="stroke:#181818;stroke-width:0.8000000000000002;" width="8" x="917.6" y="797.9125"/><rect fill="#FFFFFF" height="25.0328" style="stroke:#181818;stroke-width:0.8000000000000002;" width="8" x="917.6" y="1098.3063"/><rect fill="#FFFFFF" height="75.0984" style="stroke:#181818;stroke-width:0.8000000000000002;" width="8" x="1036.4" y="374.7547"/><rect fill="#FFFFFF" height="25.0328" style="stroke:#181818;stroke-width:0.8000000000000002;" width="8" x="1036.4" y="626.6828"/><rect fill="#FFFFFF" height="25.0328" style="stroke:#181818;stroke-width:0.8000000000000002;" width="8" x="1145.2" y="399.7875"/><rect fill="#FFFFFF" height="25.0328" style="stroke:#181818;stroke-width:0.8000000000000002;" width="8" x="1250.8" y="1148.3719"/><rect fill="#FFFFFF" height="25.0328" style="stroke:#181818;stroke-width:0.8000000000000002;" width="8" x="1373.6" y="1198.4375"/><rect fill="#FFFFFF" height="25.0328" style="stroke:#181818;stroke-width:0.8000000000000002;" width="8" x="1500.8" y="847.9781"/><rect fill="#FFFFFF" height="25.0328" style="stroke:#181818;stroke-width:0.8000000000000002;" width="8" x="1500.8" y="898.0438"/><rect fill="#FFFFFF" height="25.0328" style="stroke:#181818;stroke-width:0.8000000000000002;" width="8" x="1500.8" y="1248.5031"/><rect fill="#FFFFFF" height="25.0328" style="stroke:#181818;stroke-width:0.8000000000000002;" width="8" x="1500.8" y="1389.1"/><rect fill="none" height="165.6297" style="stroke:#000000;stroke-width:1.2000000000000002;" width="949.6" x="236.4" y="315.6563"/><rect fill="none" height="481.4563" style="stroke:#000000;stroke-width:1.2000000000000002;" width="1586" x="8" y="517.5188"/><rect fill="none" height="304.6266" style="stroke:#000000;stroke-width:1.2000000000000002;" width="1570" x="16" y="688.7484"/><rect fill="none" height="79.3313" style="stroke:#000000;stroke-width:1.2000000000000002;" width="781.2" x="16" y="1285.5359"/><line style="stroke:#181818;stroke-width:0.4000000000000001;stroke-dasharray:5.0,5.0;" x1="37.6" x2="37.6" y1="66.8969" y2="1478.5984"/><line style="stroke:#181818;stroke-width:0.4000000000000001;stroke-dasharray:5.0,5.0;" x1="312.4" x2="312.4" y1="66.8969" y2="1478.5984"/><line style="stroke:#181818;stroke-width:0.4000000000000001;stroke-dasharray:5.0,5.0;" x1="701.2" x2="701.2" y1="125.3781" y2="1478.5984"/><line style="stroke:#181818;stroke-width:0.4000000000000001;stroke-dasharray:5.0,5.0;" x1="835.6" x2="835.6" y1="66.8969" y2="1478.5984"/><line style="stroke:#181818;stroke-width:0.4000000000000001;stroke-dasharray:5.0,5.0;" x1="921.2" x2="921.2" y1="66.8969" y2="1478.5984"/><line style="stroke:#181818;stroke-width:0.4000000000000001;stroke-dasharray:5.0,5.0;" x1="1040.4" x2="1040.4" y1="66.8969" y2="1478.5984"/><line style="stroke:#181818;stroke-width:0.4000000000000001;stroke-dasharray:5.0,5.0;" x1="1149.2" x2="1149.2" y1="66.8969" y2="1478.5984"/><line style="stroke:#181818;stroke-width:0.4000000000000001;stroke-dasharray:5.0,5.0;" x1="1254.8" x2="1254.8" y1="66.8969" y2="1478.5984"/><line style="stroke:#181818;stroke-width:0.4000000000000001;stroke-dasharray:5.0,5.0;" x1="1377.2" x2="1377.2" y1="66.8969" y2="1478.5984"/><line style="stroke:#181818;stroke-width:0.4000000000000001;stroke-dasharray:5.0,5.0;" x1="1504.4" x2="1504.4" y1="66.8969" y2="1478.5984"/><text fill="#000000" font-family="sans-serif" font-size="11.2" lengthAdjust="spacing" textLength="23.2" x="24" y="64.0859">User</text><ellipse cx="38" cy="10.8" fill="#E3E3E3" rx="6.4" ry="6.4" style="stroke:#181818;stroke-width:0.4000000000000001;"/><path d="M38,17.2 L38,38.8 M27.6,23.6 L48.4,23.6 M38,38.8 L27.6,50.8 M38,38.8 L48.4,50.8 " fill="none" style="stroke:#181818;stroke-width:0.4000000000000001;"/><text fill="#000000" font-family="sans-serif" font-size="11.2" lengthAdjust="spacing" textLength="23.2" x="24" y="1489.8844">User</text><ellipse cx="38" cy="1499.4953" fill="#E3E3E3" rx="6.4" ry="6.4" style="stroke:#181818;stroke-width:0.4000000000000001;"/><path d="M38,1505.8953 L38,1527.4953 M27.6,1512.2953 L48.4,1512.2953 M38,1527.4953 L27.6,1539.4953 M38,1527.4953 L48.4,1539.4953 " fill="none" style="stroke:#181818;stroke-width:0.4000000000000001;"/><rect fill="#E3E3E3" height="26.0969" rx="2" ry="2" style="stroke:#181818;stroke-width:0.4000000000000001;" width="136" x="244.4" y="40"/><text fill="#000000" font-family="sans-serif" font-size="11.2" lengthAdjust="spacing" textLength="124.8" x="250" y="57.6859">:CreatePurchaseOrderUI</text><rect fill="#E3E3E3" height="26.0969" rx="2" ry="2" style="stroke:#181818;stroke-width:0.4000000000000001;" width="136" x="244.4" y="1477.7984"/><text fill="#000000" font-family="sans-serif" font-size="11.2" lengthAdjust="spacing" textLength="124.8" x="250" y="1495.4844">:CreatePurchaseOrderUI</text><rect fill="#E3E3E3" height="26.0969" rx="2" ry="2" style="stroke:#181818;stroke-width:0.4000000000000001;" width="176" x="613.2" y="1477.7984"/><text fill="#000000" font-family="sans-serif" font-size="11.2" lengthAdjust="spacing" textLength="164.8" x="618.8" y="1495.4844">:CreatePurchaseOrderController</text><rect fill="#E3E3E3" height="26.0969" rx="2" ry="2" style="stroke:#181818;stroke-width:0.4000000000000001;" width="77.6" x="797.2" y="40"/><text fill="#000000" font-family="sans-serif" font-size="11.2" lengthAdjust="spacing" textLength="66.4" x="802.8" y="57.6859">:Repositories</text><rect fill="#E3E3E3" height="26.0969" rx="2" ry="2" style="stroke:#181818;stroke-width:0.4000000000000001;" width="77.6" x="797.2" y="1477.7984"/><text fill="#000000" font-family="sans-serif" font-size="11.2" lengthAdjust="spacing" textLength="66.4" x="802.8" y="1495.4844">:Repositories</text><rect fill="#E3E3E3" height="40.9938" rx="2" ry="2" style="stroke:#181818;stroke-width:0.4000000000000001;" width="77.6" x="882.8" y="25.1031"/><text fill="#000000" font-family="sans-serif" font-size="11.2" lengthAdjust="spacing" textLength="59.2" x="892" y="42.7891">repositories</text><text fill="#000000" font-family="sans-serif" font-size="11.2" lengthAdjust="spacing" textLength="66.4" x="888.4" y="57.6859">:Repositories</text><rect fill="#E3E3E3" height="40.9938" rx="2" ry="2" style="stroke:#181818;stroke-width:0.4000000000000001;" width="77.6" x="882.8" y="1477.7984"/><text fill="#000000" font-family="sans-serif" font-size="11.2" lengthAdjust="spacing" textLength="59.2" x="892" y="1495.4844">repositories</text><text fill="#000000" font-family="sans-serif" font-size="11.2" lengthAdjust="spacing" textLength="66.4" x="888.4" y="1510.3813">:Repositories</text><rect fill="#E3E3E3" height="40.9938" rx="2" ry="2" style="stroke:#181818;stroke-width:0.4000000000000001;" width="144" x="968.4" y="25.1031"/><text fill="#000000" font-family="sans-serif" font-size="11.2" lengthAdjust="spacing" textLength="132.8" x="974" y="42.7891">announcementRepository:</text><text fill="#000000" font-family="sans-serif" font-size="11.2" lengthAdjust="spacing" textLength="130.4" x="975.2" y="57.6859">AnnouncementRepository</text><rect fill="#E3E3E3" height="40.9938" rx="2" ry="2" style="stroke:#181818;stroke-width:0.4000000000000001;" width="144" x="968.4" y="1477.7984"/><text fill="#000000" font-family="sans-serif" font-size="11.2" lengthAdjust="spacing" textLength="132.8" x="974" y="1495.4844">announcementRepository:</text><text fill="#000000" font-family="sans-serif" font-size="11.2" lengthAdjust="spacing" textLength="130.4" x="975.2" y="1510.3813">AnnouncementRepository</text><rect fill="#E3E3E3" height="26.0969" rx="2" ry="2" style="stroke:#181818;stroke-width:0.4000000000000001;" width="57.6" x="1120.4" y="40"/><text fill="#000000" font-family="sans-serif" font-size="11.2" lengthAdjust="spacing" textLength="46.4" x="1126" y="57.6859">:Property</text><rect fill="#E3E3E3" height="26.0969" rx="2" ry="2" style="stroke:#181818;stroke-width:0.4000000000000001;" width="57.6" x="1120.4" y="1477.7984"/><text fill="#000000" font-family="sans-serif" font-size="11.2" lengthAdjust="spacing" textLength="46.4" x="1126" y="1495.4844">:Property</text><rect fill="#E3E3E3" height="40.9938" rx="2" ry="2" style="stroke:#181818;stroke-width:0.4000000000000001;" width="137.6" x="1186" y="25.1031"/><text fill="#000000" font-family="sans-serif" font-size="11.2" lengthAdjust="spacing" textLength="25.6" x="1242" y="42.7891">user:</text><text fill="#000000" font-family="sans-serif" font-size="11.2" lengthAdjust="spacing" textLength="126.4" x="1191.6" y="57.6859">AuthenticationRepository</text><rect fill="#E3E3E3" height="40.9938" rx="2" ry="2" style="stroke:#181818;stroke-width:0.4000000000000001;" width="137.6" x="1186" y="1477.7984"/><text fill="#000000" font-family="sans-serif" font-size="11.2" lengthAdjust="spacing" textLength="25.6" x="1242" y="1495.4844">user:</text><text fill="#000000" font-family="sans-serif" font-size="11.2" lengthAdjust="spacing" textLength="126.4" x="1191.6" y="1510.3813">AuthenticationRepository</text><rect fill="#E3E3E3" height="26.0969" rx="2" ry="2" style="stroke:#181818;stroke-width:0.4000000000000001;" width="92" x="1331.6" y="40"/><text fill="#000000" font-family="sans-serif" font-size="11.2" lengthAdjust="spacing" textLength="80.8" x="1337.2" y="57.6859">:PurchaseOrder</text><rect fill="#E3E3E3" height="26.0969" rx="2" ry="2" style="stroke:#181818;stroke-width:0.4000000000000001;" width="92" x="1331.6" y="1477.7984"/><text fill="#000000" font-family="sans-serif" font-size="11.2" lengthAdjust="spacing" textLength="80.8" x="1337.2" y="1495.4844">:PurchaseOrder</text><rect fill="#E3E3E3" height="26.0969" rx="2" ry="2" style="stroke:#181818;stroke-width:0.4000000000000001;" width="146.4" x="1431.6" y="40"/><text fill="#000000" font-family="sans-serif" font-size="11.2" lengthAdjust="spacing" textLength="135.2" x="1437.2" y="57.6859">:PurchaseOrderRepository</text><rect fill="#E3E3E3" height="26.0969" rx="2" ry="2" style="stroke:#181818;stroke-width:0.4000000000000001;" width="146.4" x="1431.6" y="1477.7984"/><text fill="#000000" font-family="sans-serif" font-size="11.2" lengthAdjust="spacing" textLength="135.2" x="1437.2" y="1495.4844">:PurchaseOrderRepository</text><rect fill="#FFFFFF" height="1389.3016" style="stroke:#181818;stroke-width:0.8000000000000002;" width="8" x="34" y="74.8969"/><rect fill="#FFFFFF" height="458.0547" style="stroke:#181818;stroke-width:0.8000000000000002;" width="8" x="308.4" y="93.5297"/><rect fill="#FFFFFF" height="446.5906" style="stroke:#181818;stroke-width:0.8000000000000002;" width="8" x="308.4" y="576.6172"/><rect fill="#FFFFFF" height="415.9578" style="stroke:#181818;stroke-width:0.8000000000000002;" width="8" x="308.4" y="1048.2406"/><rect fill="#FFFFFF" height="125.1641" style="stroke:#181818;stroke-width:0.8000000000000002;" width="8" x="697.2" y="178.4922"/><rect fill="#FFFFFF" height="125.1641" style="stroke:#181818;stroke-width:0.8000000000000002;" width="8" x="697.2" y="349.7219"/><rect fill="#FFFFFF" height="75.0984" style="stroke:#181818;stroke-width:0.8000000000000002;" width="8" x="697.2" y="601.65"/><rect fill="#FFFFFF" height="225.2953" style="stroke:#181818;stroke-width:0.8000000000000002;" width="8" x="697.2" y="722.8141"/><rect fill="#FFFFFF" height="365.8922" style="stroke:#181818;stroke-width:0.8000000000000002;" width="8" x="697.2" y="1073.2734"/><rect fill="#FFFFFF" height="25.0328" style="stroke:#181818;stroke-width:0.8000000000000002;" width="8" x="832" y="203.525"/><rect fill="#FFFFFF" height="25.0328" style="stroke:#181818;stroke-width:0.8000000000000002;" width="8" x="832" y="747.8469"/><rect fill="#FFFFFF" height="25.0328" style="stroke:#181818;stroke-width:0.8000000000000002;" width="8" x="917.6" y="253.5906"/><rect fill="#FFFFFF" height="25.0328" style="stroke:#181818;stroke-width:0.8000000000000002;" width="8" x="917.6" y="797.9125"/><rect fill="#FFFFFF" height="25.0328" style="stroke:#181818;stroke-width:0.8000000000000002;" width="8" x="917.6" y="1098.3063"/><rect fill="#FFFFFF" height="75.0984" style="stroke:#181818;stroke-width:0.8000000000000002;" width="8" x="1036.4" y="374.7547"/><rect fill="#FFFFFF" height="25.0328" style="stroke:#181818;stroke-width:0.8000000000000002;" width="8" x="1036.4" y="626.6828"/><rect fill="#FFFFFF" height="25.0328" style="stroke:#181818;stroke-width:0.8000000000000002;" width="8" x="1145.2" y="399.7875"/><rect fill="#FFFFFF" height="25.0328" style="stroke:#181818;stroke-width:0.8000000000000002;" width="8" x="1250.8" y="1148.3719"/><rect fill="#FFFFFF" height="25.0328" style="stroke:#181818;stroke-width:0.8000000000000002;" width="8" x="1373.6" y="1198.4375"/><rect fill="#FFFFFF" height="25.0328" style="stroke:#181818;stroke-width:0.8000000000000002;" width="8" x="1500.8" y="847.9781"/><rect fill="#FFFFFF" height="25.0328" style="stroke:#181818;stroke-width:0.8000000000000002;" width="8" x="1500.8" y="898.0438"/><rect fill="#FFFFFF" height="25.0328" style="stroke:#181818;stroke-width:0.8000000000000002;" width="8" x="1500.8" y="1248.5031"/><rect fill="#FFFFFF" height="25.0328" style="stroke:#181818;stroke-width:0.8000000000000002;" width="8" x="1500.8" y="1389.1"/><polygon fill="#181818" points="298.8,90.3297,306.8,93.5297,298.8,96.7297,302,93.5297" style="stroke:#181818;stroke-width:0.8000000000000002;"/><line style="stroke:#181818;stroke-width:0.8000000000000002;" x1="42" x2="303.6" y1="93.5297" y2="93.5297"/><text fill="#000000" font-family="sans-serif" font-size="10.4" font-weight="bold" lengthAdjust="spacing" textLength="5.6" x="47.6" y="89.3195">1</text><text fill="#000000" font-family="sans-serif" font-size="10.4" lengthAdjust="spacing" textLength="147.2" x="56.4" y="89.3195">asks to create a purchase order</text><polygon fill="#181818" points="603.6,115.3625,611.6,118.5625,603.6,121.7625,606.8,118.5625" style="stroke:#181818;stroke-width:0.8000000000000002;"/><line style="stroke:#181818;stroke-width:0.8000000000000002;" x1="316.4" x2="608.4" y1="118.5625" y2="118.5625"/><text fill="#000000" font-family="sans-serif" font-size="10.4" font-weight="bold" lengthAdjust="spacing" textLength="5.6" x="322" y="114.3523">2</text><text fill="#000000" font-family="sans-serif" font-size="10.4" lengthAdjust="spacing" textLength="28.8" x="330.8" y="114.3523">create</text><rect fill="#E3E3E3" height="26.0969" rx="2" ry="2" style="stroke:#181818;stroke-width:0.4000000000000001;" width="176" x="613.2" y="99.9297"/><text fill="#000000" font-family="sans-serif" font-size="11.2" lengthAdjust="spacing" textLength="164.8" x="618.8" y="117.6156">:CreatePurchaseOrderController</text><polygon fill="#181818" points="50.8,150.2594,42.8,153.4594,50.8,156.6594,47.6,153.4594" style="stroke:#181818;stroke-width:0.8000000000000002;"/><line style="stroke:#181818;stroke-width:0.8000000000000002;stroke-dasharray:2.0,2.0;" x1="46" x2="307.6" y1="153.4594" y2="153.4594"/><text fill="#000000" font-family="sans-serif" font-size="10.4" font-weight="bold" lengthAdjust="spacing" textLength="5.6" x="55.6" y="149.2492">3</text><text fill="#000000" font-family="sans-serif" font-size="10.4" lengthAdjust="spacing" textLength="142.4" x="64.4" y="149.2492">shows CreatePurchaseOrderUI</text><polygon fill="#181818" points="687.6,175.2922,695.6,178.4922,687.6,181.6922,690.8,178.4922" style="stroke:#181818;stroke-width:0.8000000000000002;"/><line style="stroke:#181818;stroke-width:0.8000000000000002;" x1="316.4" x2="692.4" y1="178.4922" y2="178.4922"/><text fill="#000000" font-family="sans-serif" font-size="10.4" font-weight="bold" lengthAdjust="spacing" textLength="5.6" x="322" y="174.282">4</text><text fill="#000000" font-family="sans-serif" font-size="10.4" lengthAdjust="spacing" textLength="136.8" x="330.8" y="174.282">getCopyAnnouncementsList()</text><polygon fill="#181818" points="822.4,200.325,830.4,203.525,822.4,206.725,825.6,203.525" style="stroke:#181818;stroke-width:0.8000000000000002;"/><line style="stroke:#181818;stroke-width:0.8000000000000002;" x1="705.2" x2="827.2" y1="203.525" y2="203.525"/><text fill="#000000" font-family="sans-serif" font-size="10.4" font-weight="bold" lengthAdjust="spacing" textLength="5.6" x="710.8" y="199.3148">5</text><text fill="#000000" font-family="sans-serif" font-size="10.4" lengthAdjust="spacing" textLength="60" x="719.6" y="199.3148">getInstance()</text><polygon fill="#181818" points="714,225.3578,706,228.5578,714,231.7578,710.8,228.5578" style="stroke:#181818;stroke-width:0.8000000000000002;"/><line style="stroke:#181818;stroke-width:0.8000000000000002;stroke-dasharray:2.0,2.0;" x1="709.2" x2="835.2" y1="228.5578" y2="228.5578"/><text fill="#000000" font-family="sans-serif" font-size="10.4" font-weight="bold" lengthAdjust="spacing" textLength="5.6" x="718.8" y="224.3477">6</text><text fill="#000000" font-family="sans-serif" font-size="10.4" lengthAdjust="spacing" textLength="53.6" x="727.6" y="224.3477">repositories</text><polygon fill="#181818" points="908,250.3906,916,253.5906,908,256.7906,911.2,253.5906" style="stroke:#181818;stroke-width:0.8000000000000002;"/><line style="stroke:#181818;stroke-width:0.8000000000000002;" x1="705.2" x2="912.8" y1="253.5906" y2="253.5906"/><text fill="#000000" font-family="sans-serif" font-size="10.4" font-weight="bold" lengthAdjust="spacing" textLength="5.6" x="710.8" y="249.3805">7</text><text fill="#000000" font-family="sans-serif" font-size="10.4" lengthAdjust="spacing" textLength="140" x="719.6" y="249.3805">getAnnouncementRepository()</text><polygon fill="#181818" points="714,275.4234,706,278.6234,714,281.8234,710.8,278.6234" style="stroke:#181818;stroke-width:0.8000000000000002;"/><line style="stroke:#181818;stroke-width:0.8000000000000002;stroke-dasharray:2.0,2.0;" x1="709.2" x2="920.8" y1="278.6234" y2="278.6234"/><text fill="#000000" font-family="sans-serif" font-size="10.4" font-weight="bold" lengthAdjust="spacing" textLength="5.6" x="718.8" y="274.4133">8</text><text fill="#000000" font-family="sans-serif" font-size="10.4" lengthAdjust="spacing" textLength="133.6" x="727.6" y="274.4133">getAnnouncementRepository</text><polygon fill="#181818" points="325.2,300.4563,317.2,303.6563,325.2,306.8563,322,303.6563" style="stroke:#181818;stroke-width:0.8000000000000002;"/><line style="stroke:#181818;stroke-width:0.8000000000000002;stroke-dasharray:2.0,2.0;" x1="320.4" x2="700.4" y1="303.6563" y2="303.6563"/><text fill="#000000" font-family="sans-serif" font-size="10.4" font-weight="bold" lengthAdjust="spacing" textLength="5.6" x="330" y="299.4461">9</text><text fill="#000000" font-family="sans-serif" font-size="10.4" lengthAdjust="spacing" textLength="130.4" x="338.8" y="299.4461">getCopyAnnouncementsList</text><path d="M236.4,315.6563 L294.8,315.6563 L294.8,323.0891 L286.8,331.0891 L236.4,331.0891 L236.4,315.6563 " fill="#EEEEEE" style="stroke:#000000;stroke-width:1.2000000000000002;"/><rect fill="none" height="165.6297" style="stroke:#000000;stroke-width:1.2000000000000002;" width="949.6" x="236.4" y="315.6563"/><text fill="#000000" font-family="sans-serif" font-size="10.4" font-weight="bold" lengthAdjust="spacing" textLength="22.4" x="248.4" y="327.6789">loop</text><text fill="#000000" font-family="sans-serif" font-size="8.8" font-weight="bold" lengthAdjust="spacing" textLength="115.2" x="306.8" y="326.7523">[for every announcement]</text><polygon fill="#181818" points="687.6,346.5219,695.6,349.7219,687.6,352.9219,690.8,349.7219" style="stroke:#181818;stroke-width:0.8000000000000002;"/><line style="stroke:#181818;stroke-width:0.8000000000000002;" x1="316.4" x2="692.4" y1="349.7219" y2="349.7219"/><text fill="#000000" font-family="sans-serif" font-size="10.4" font-weight="bold" lengthAdjust="spacing" textLength="11.2" x="322" y="345.5117">10</text><text fill="#000000" font-family="sans-serif" font-size="10.4" lengthAdjust="spacing" textLength="60" x="336.4" y="345.5117">getProperty()</text><polygon fill="#181818" points="1026.8,371.5547,1034.8,374.7547,1026.8,377.9547,1030,374.7547" style="stroke:#181818;stroke-width:0.8000000000000002;"/><line style="stroke:#181818;stroke-width:0.8000000000000002;" x1="705.2" x2="1031.6" y1="374.7547" y2="374.7547"/><text fill="#000000" font-family="sans-serif" font-size="10.4" font-weight="bold" lengthAdjust="spacing" textLength="11.2" x="710.8" y="370.5445">11</text><text fill="#000000" font-family="sans-serif" font-size="10.4" lengthAdjust="spacing" textLength="168.8" x="725.2" y="370.5445">getAnnouncementWithID(propertyID)</text><polygon fill="#181818" points="1135.6,396.5875,1143.6,399.7875,1135.6,402.9875,1138.8,399.7875" style="stroke:#181818;stroke-width:0.8000000000000002;"/><line style="stroke:#181818;stroke-width:0.8000000000000002;" x1="1044.4" x2="1140.4" y1="399.7875" y2="399.7875"/><text fill="#000000" font-family="sans-serif" font-size="10.4" font-weight="bold" lengthAdjust="spacing" textLength="11.2" x="1050" y="395.5773">12</text><text fill="#000000" font-family="sans-serif" font-size="10.4" lengthAdjust="spacing" textLength="60" x="1064.4" y="395.5773">getProperty()</text><polygon fill="#181818" points="1053.2,421.6203,1045.2,424.8203,1053.2,428.0203,1050,424.8203" style="stroke:#181818;stroke-width:0.8000000000000002;"/><line style="stroke:#181818;stroke-width:0.8000000000000002;stroke-dasharray:2.0,2.0;" x1="1048.4" x2="1148.4" y1="424.8203" y2="424.8203"/><text fill="#000000" font-family="sans-serif" font-size="10.4" font-weight="bold" lengthAdjust="spacing" textLength="11.2" x="1058" y="420.6102">13</text><text fill="#000000" font-family="sans-serif" font-size="10.4" lengthAdjust="spacing" textLength="37.6" x="1072.4" y="420.6102">property</text><polygon fill="#181818" points="714,446.6531,706,449.8531,714,453.0531,710.8,449.8531" style="stroke:#181818;stroke-width:0.8000000000000002;"/><line style="stroke:#181818;stroke-width:0.8000000000000002;stroke-dasharray:2.0,2.0;" x1="709.2" x2="1039.6" y1="449.8531" y2="449.8531"/><text fill="#000000" font-family="sans-serif" font-size="10.4" font-weight="bold" lengthAdjust="spacing" textLength="11.2" x="718.8" y="445.643">14</text><text fill="#000000" font-family="sans-serif" font-size="10.4" lengthAdjust="spacing" textLength="37.6" x="733.2" y="445.643">property</text><polygon fill="#181818" points="325.2,471.6859,317.2,474.8859,325.2,478.0859,322,474.8859" style="stroke:#181818;stroke-width:0.8000000000000002;"/><line style="stroke:#181818;stroke-width:0.8000000000000002;stroke-dasharray:2.0,2.0;" x1="320.4" x2="700.4" y1="474.8859" y2="474.8859"/><text fill="#000000" font-family="sans-serif" font-size="10.4" font-weight="bold" lengthAdjust="spacing" textLength="11.2" x="330" y="470.6758">15</text><text fill="#000000" font-family="sans-serif" font-size="10.4" lengthAdjust="spacing" textLength="37.6" x="344.4" y="470.6758">property</text><polygon fill="#181818" points="50.8,502.3188,42.8,505.5188,50.8,508.7188,47.6,505.5188" style="stroke:#181818;stroke-width:0.8000000000000002;"/><line style="stroke:#181818;stroke-width:0.8000000000000002;stroke-dasharray:2.0,2.0;" x1="46" x2="307.6" y1="505.5188" y2="505.5188"/><text fill="#000000" font-family="sans-serif" font-size="10.4" font-weight="bold" lengthAdjust="spacing" textLength="11.2" x="55.6" y="501.3086">16</text><text fill="#000000" font-family="sans-serif" font-size="10.4" lengthAdjust="spacing" textLength="108" x="70" y="501.3086">shows Announcements</text><path d="M8,517.5188 L66.4,517.5188 L66.4,524.9516 L58.4,532.9516 L8,532.9516 L8,517.5188 " fill="#EEEEEE" style="stroke:#000000;stroke-width:1.2000000000000002;"/><rect fill="none" height="481.4563" style="stroke:#000000;stroke-width:1.2000000000000002;" width="1586" x="8" y="517.5188"/><text fill="#000000" font-family="sans-serif" font-size="10.4" font-weight="bold" lengthAdjust="spacing" textLength="22.4" x="20" y="529.5414">loop</text><text fill="#000000" font-family="sans-serif" font-size="8.8" font-weight="bold" lengthAdjust="spacing" textLength="208" x="78.4" y="528.6148">[until checkAnnouncement(propertyID) == true]</text><polygon fill="#181818" points="50.8,548.3844,42.8,551.5844,50.8,554.7844,47.6,551.5844" style="stroke:#181818;stroke-width:0.8000000000000002;"/><line style="stroke:#181818;stroke-width:0.8000000000000002;stroke-dasharray:2.0,2.0;" x1="46" x2="311.6" y1="551.5844" y2="551.5844"/><text fill="#000000" font-family="sans-serif" font-size="10.4" font-weight="bold" lengthAdjust="spacing" textLength="11.2" x="55.6" y="547.3742">17</text><text fill="#000000" font-family="sans-serif" font-size="10.4" lengthAdjust="spacing" textLength="63.2" x="70" y="547.3742">requests data</text><polygon fill="#181818" points="298.8,573.4172,306.8,576.6172,298.8,579.8172,302,576.6172" style="stroke:#181818;stroke-width:0.8000000000000002;"/><line style="stroke:#181818;stroke-width:0.8000000000000002;" x1="42" x2="303.6" y1="576.6172" y2="576.6172"/><text fill="#000000" font-family="sans-serif" font-size="10.4" font-weight="bold" lengthAdjust="spacing" textLength="11.2" x="47.6" y="572.407">18</text><text fill="#000000" font-family="sans-serif" font-size="10.4" lengthAdjust="spacing" textLength="134.4" x="62" y="572.407">selects the intended property</text><polygon fill="#181818" points="687.6,598.45,695.6,601.65,687.6,604.85,690.8,601.65" style="stroke:#181818;stroke-width:0.8000000000000002;"/><line style="stroke:#181818;stroke-width:0.8000000000000002;" x1="316.4" x2="692.4" y1="601.65" y2="601.65"/><text fill="#000000" font-family="sans-serif" font-size="10.4" font-weight="bold" lengthAdjust="spacing" textLength="11.2" x="322" y="597.4398">19</text><text fill="#000000" font-family="sans-serif" font-size="10.4" lengthAdjust="spacing" textLength="151.2" x="336.4" y="597.4398">checkAnnouncement(propertyID)</text><polygon fill="#181818" points="1026.8,623.4828,1034.8,626.6828,1026.8,629.8828,1030,626.6828" style="stroke:#181818;stroke-width:0.8000000000000002;"/><line style="stroke:#181818;stroke-width:0.8000000000000002;" x1="705.2" x2="1031.6" y1="626.6828" y2="626.6828"/><text fill="#000000" font-family="sans-serif" font-size="10.4" font-weight="bold" lengthAdjust="spacing" textLength="11.2" x="710.8" y="622.4727">20</text><text fill="#000000" font-family="sans-serif" font-size="10.4" lengthAdjust="spacing" textLength="25.6" x="725.2" y="622.4727">size()</text><polygon fill="#181818" points="714,648.5156,706,651.7156,714,654.9156,710.8,651.7156" style="stroke:#181818;stroke-width:0.8000000000000002;"/><line style="stroke:#181818;stroke-width:0.8000000000000002;stroke-dasharray:2.0,2.0;" x1="709.2" x2="1039.6" y1="651.7156" y2="651.7156"/><text fill="#000000" font-family="sans-serif" font-size="10.4" font-weight="bold" lengthAdjust="spacing" textLength="11.2" x="718.8" y="647.5055">21</text><text fill="#000000" font-family="sans-serif" font-size="10.4" lengthAdjust="spacing" textLength="19.2" x="733.2" y="647.5055">size</text><polygon fill="#181818" points="325.2,673.5484,317.2,676.7484,325.2,679.9484,322,676.7484" style="stroke:#181818;stroke-width:0.8000000000000002;"/><line style="stroke:#181818;stroke-width:0.8000000000000002;stroke-dasharray:2.0,2.0;" x1="320.4" x2="700.4" y1="676.7484" y2="676.7484"/><text fill="#000000" font-family="sans-serif" font-size="10.4" font-weight="bold" lengthAdjust="spacing" textLength="11.2" x="330" y="672.5383">22</text><text fill="#000000" font-family="sans-serif" font-size="10.4" lengthAdjust="spacing" textLength="97.6" x="344.4" y="672.5383">checkAnnouncement</text><path d="M16,688.7484 L64.8,688.7484 L64.8,696.1813 L56.8,704.1813 L16,704.1813 L16,688.7484 " fill="#EEEEEE" style="stroke:#000000;stroke-width:1.2000000000000002;"/><rect fill="none" height="304.6266" style="stroke:#000000;stroke-width:1.2000000000000002;" width="1570" x="16" y="688.7484"/><text fill="#000000" font-family="sans-serif" font-size="10.4" font-weight="bold" lengthAdjust="spacing" textLength="12.8" x="28" y="700.7711">alt</text><text fill="#000000" font-family="sans-serif" font-size="8.8" font-weight="bold" lengthAdjust="spacing" textLength="220.8" x="76.8" y="699.8445">[checks if he already submitted a purchase order]</text><polygon fill="#181818" points="687.6,719.6141,695.6,722.8141,687.6,726.0141,690.8,722.8141" style="stroke:#181818;stroke-width:0.8000000000000002;"/><line style="stroke:#181818;stroke-width:0.8000000000000002;" x1="316.4" x2="692.4" y1="722.8141" y2="722.8141"/><text fill="#000000" font-family="sans-serif" font-size="10.4" font-weight="bold" lengthAdjust="spacing" textLength="11.2" x="322" y="718.6039">23</text><text fill="#000000" font-family="sans-serif" font-size="10.4" lengthAdjust="spacing" textLength="216" x="336.4" y="718.6039">checkUserPurchaseOrderExists(userEmail, id)</text><polygon fill="#181818" points="822.4,744.6469,830.4,747.8469,822.4,751.0469,825.6,747.8469" style="stroke:#181818;stroke-width:0.8000000000000002;"/><line style="stroke:#181818;stroke-width:0.8000000000000002;" x1="705.2" x2="827.2" y1="747.8469" y2="747.8469"/><text fill="#000000" font-family="sans-serif" font-size="10.4" font-weight="bold" lengthAdjust="spacing" textLength="11.2" x="710.8" y="743.6367">24</text><text fill="#000000" font-family="sans-serif" font-size="10.4" lengthAdjust="spacing" textLength="60" x="725.2" y="743.6367">getInstance()</text><polygon fill="#181818" points="714,769.6797,706,772.8797,714,776.0797,710.8,772.8797" style="stroke:#181818;stroke-width:0.8000000000000002;"/><line style="stroke:#181818;stroke-width:0.8000000000000002;stroke-dasharray:2.0,2.0;" x1="709.2" x2="835.2" y1="772.8797" y2="772.8797"/><text fill="#000000" font-family="sans-serif" font-size="10.4" font-weight="bold" lengthAdjust="spacing" textLength="11.2" x="718.8" y="768.6695">25</text><text fill="#000000" font-family="sans-serif" font-size="10.4" lengthAdjust="spacing" textLength="53.6" x="733.2" y="768.6695">repositories</text><polygon fill="#181818" points="908,794.7125,916,797.9125,908,801.1125,911.2,797.9125" style="stroke:#181818;stroke-width:0.8000000000000002;"/><line style="stroke:#181818;stroke-width:0.8000000000000002;" x1="705.2" x2="912.8" y1="797.9125" y2="797.9125"/><text fill="#000000" font-family="sans-serif" font-size="10.4" font-weight="bold" lengthAdjust="spacing" textLength="11.2" x="710.8" y="793.7023">26</text><text fill="#000000" font-family="sans-serif" font-size="10.4" lengthAdjust="spacing" textLength="140" x="725.2" y="793.7023">getPurchaseOrderRepository()</text><polygon fill="#181818" points="714,819.7453,706,822.9453,714,826.1453,710.8,822.9453" style="stroke:#181818;stroke-width:0.8000000000000002;"/><line style="stroke:#181818;stroke-width:0.8000000000000002;stroke-dasharray:2.0,2.0;" x1="709.2" x2="920.8" y1="822.9453" y2="822.9453"/><text fill="#000000" font-family="sans-serif" font-size="10.4" font-weight="bold" lengthAdjust="spacing" textLength="11.2" x="718.8" y="818.7352">27</text><text fill="#000000" font-family="sans-serif" font-size="10.4" lengthAdjust="spacing" textLength="133.6" x="733.2" y="818.7352">getPurchaseOrderRepository</text><polygon fill="#181818" points="1491.2,844.7781,1499.2,847.9781,1491.2,851.1781,1494.4,847.9781" style="stroke:#181818;stroke-width:0.8000000000000002;"/><line style="stroke:#181818;stroke-width:0.8000000000000002;" x1="705.2" x2="1496" y1="847.9781" y2="847.9781"/><text fill="#000000" font-family="sans-serif" font-size="10.4" font-weight="bold" lengthAdjust="spacing" textLength="11.2" x="710.8" y="843.768">28</text><text fill="#000000" font-family="sans-serif" font-size="10.4" lengthAdjust="spacing" textLength="145.6" x="725.2" y="843.768">getPurchaseOrdersRequested()</text><polygon fill="#181818" points="714,869.8109,706,873.0109,714,876.2109,710.8,873.0109" style="stroke:#181818;stroke-width:0.8000000000000002;"/><line style="stroke:#181818;stroke-width:0.8000000000000002;stroke-dasharray:2.0,2.0;" x1="709.2" x2="1504" y1="873.0109" y2="873.0109"/><text fill="#000000" font-family="sans-serif" font-size="10.4" font-weight="bold" lengthAdjust="spacing" textLength="11.2" x="718.8" y="868.8008">29</text><text fill="#000000" font-family="sans-serif" font-size="10.4" lengthAdjust="spacing" textLength="139.2" x="733.2" y="868.8008">getPurchaseOrdersRequested</text><polygon fill="#181818" points="1491.2,894.8438,1499.2,898.0438,1491.2,901.2438,1494.4,898.0438" style="stroke:#181818;stroke-width:0.8000000000000002;"/><line style="stroke:#181818;stroke-width:0.8000000000000002;" x1="705.2" x2="1496" y1="898.0438" y2="898.0438"/><text fill="#000000" font-family="sans-serif" font-size="10.4" font-weight="bold" lengthAdjust="spacing" textLength="11.2" x="710.8" y="893.8336">30</text><text fill="#000000" font-family="sans-serif" font-size="10.4" lengthAdjust="spacing" textLength="216" x="725.2" y="893.8336">checkUserPurchaseOrderExists(userEmail, id)</text><polygon fill="#181818" points="714,919.8766,706,923.0766,714,926.2766,710.8,923.0766" style="stroke:#181818;stroke-width:0.8000000000000002;"/><line style="stroke:#181818;stroke-width:0.8000000000000002;stroke-dasharray:2.0,2.0;" x1="709.2" x2="1504" y1="923.0766" y2="923.0766"/><text fill="#000000" font-family="sans-serif" font-size="10.4" font-weight="bold" lengthAdjust="spacing" textLength="11.2" x="718.8" y="918.8664">31</text><text fill="#000000" font-family="sans-serif" font-size="10.4" lengthAdjust="spacing" textLength="148.8" x="733.2" y="918.8664">checkUserPurchaseOrderExists</text><polygon fill="#181818" points="325.2,944.9094,317.2,948.1094,325.2,951.3094,322,948.1094" style="stroke:#181818;stroke-width:0.8000000000000002;"/><line style="stroke:#181818;stroke-width:0.8000000000000002;stroke-dasharray:2.0,2.0;" x1="320.4" x2="700.4" y1="948.1094" y2="948.1094"/><text fill="#000000" font-family="sans-serif" font-size="10.4" font-weight="bold" lengthAdjust="spacing" textLength="11.2" x="330" y="943.8992">32</text><text fill="#000000" font-family="sans-serif" font-size="10.4" lengthAdjust="spacing" textLength="148.8" x="344.4" y="943.8992">checkUserPurchaseOrderExists</text><polygon fill="#181818" points="50.8,983.775,42.8,986.975,50.8,990.175,47.6,986.975" style="stroke:#181818;stroke-width:0.8000000000000002;"/><line style="stroke:#181818;stroke-width:0.8000000000000002;stroke-dasharray:2.0,2.0;" x1="46" x2="307.6" y1="986.975" y2="986.975"/><text fill="#000000" font-family="sans-serif" font-size="10.4" font-weight="bold" lengthAdjust="spacing" textLength="11.2" x="55.6" y="975.8484">33</text><text fill="#000000" font-family="sans-serif" font-size="10.4" lengthAdjust="spacing" textLength="197.6" x="70" y="968.932">informs that he already ordered a purchase</text><text fill="#000000" font-family="sans-serif" font-size="10.4" lengthAdjust="spacing" textLength="76" x="73.2" y="982.7648">for that property.</text><polygon fill="#181818" points="50.8,1020.0078,42.8,1023.2078,50.8,1026.4078,47.6,1023.2078" style="stroke:#181818;stroke-width:0.8000000000000002;"/><line style="stroke:#181818;stroke-width:0.8000000000000002;stroke-dasharray:2.0,2.0;" x1="46" x2="311.6" y1="1023.2078" y2="1023.2078"/><text fill="#000000" font-family="sans-serif" font-size="10.4" font-weight="bold" lengthAdjust="spacing" textLength="11.2" x="55.6" y="1018.9977">34</text><text fill="#000000" font-family="sans-serif" font-size="10.4" lengthAdjust="spacing" textLength="121.6" x="70" y="1018.9977">requests the order amount</text><polygon fill="#181818" points="298.8,1045.0406,306.8,1048.2406,298.8,1051.4406,302,1048.2406" style="stroke:#181818;stroke-width:0.8000000000000002;"/><line style="stroke:#181818;stroke-width:0.8000000000000002;" x1="42" x2="303.6" y1="1048.2406" y2="1048.2406"/><text fill="#000000" font-family="sans-serif" font-size="10.4" font-weight="bold" lengthAdjust="spacing" textLength="11.2" x="47.6" y="1044.0305">35</text><text fill="#000000" font-family="sans-serif" font-size="10.4" lengthAdjust="spacing" textLength="108.8" x="62" y="1044.0305">writes the order amount</text><polygon fill="#181818" points="687.6,1070.0734,695.6,1073.2734,687.6,1076.4734,690.8,1073.2734" style="stroke:#181818;stroke-width:0.8000000000000002;"/><line style="stroke:#181818;stroke-width:0.8000000000000002;" x1="316.4" x2="692.4" y1="1073.2734" y2="1073.2734"/><text fill="#000000" font-family="sans-serif" font-size="10.4" font-weight="bold" lengthAdjust="spacing" textLength="11.2" x="322" y="1069.0633">36</text><text fill="#000000" font-family="sans-serif" font-size="10.4" lengthAdjust="spacing" textLength="351.2" x="336.4" y="1069.0633">createPurchaseOrder(userEmail, announcement, orderAmount, acceptance)</text><polygon fill="#181818" points="908,1095.1063,916,1098.3063,908,1101.5063,911.2,1098.3063" style="stroke:#181818;stroke-width:0.8000000000000002;"/><line style="stroke:#181818;stroke-width:0.8000000000000002;" x1="705.2" x2="912.8" y1="1098.3063" y2="1098.3063"/><text fill="#000000" font-family="sans-serif" font-size="10.4" font-weight="bold" lengthAdjust="spacing" textLength="11.2" x="710.8" y="1094.0961">37</text><text fill="#000000" font-family="sans-serif" font-size="10.4" lengthAdjust="spacing" textLength="136.8" x="725.2" y="1094.0961">getAuthenticationRepository()</text><polygon fill="#181818" points="714,1120.1391,706,1123.3391,714,1126.5391,710.8,1123.3391" style="stroke:#181818;stroke-width:0.8000000000000002;"/><line style="stroke:#181818;stroke-width:0.8000000000000002;stroke-dasharray:2.0,2.0;" x1="709.2" x2="920.8" y1="1123.3391" y2="1123.3391"/><text fill="#000000" font-family="sans-serif" font-size="10.4" font-weight="bold" lengthAdjust="spacing" textLength="11.2" x="718.8" y="1119.1289">38</text><text fill="#000000" font-family="sans-serif" font-size="10.4" lengthAdjust="spacing" textLength="130.4" x="733.2" y="1119.1289">getAuthenticationRepository</text><polygon fill="#181818" points="1241.2,1145.1719,1249.2,1148.3719,1241.2,1151.5719,1244.4,1148.3719" style="stroke:#181818;stroke-width:0.8000000000000002;"/><line style="stroke:#181818;stroke-width:0.8000000000000002;" x1="705.2" x2="1246" y1="1148.3719" y2="1148.3719"/><text fill="#000000" font-family="sans-serif" font-size="10.4" font-weight="bold" lengthAdjust="spacing" textLength="11.2" x="710.8" y="1144.1617">39</text><text fill="#000000" font-family="sans-serif" font-size="10.4" lengthAdjust="spacing" textLength="113.6" x="725.2" y="1144.1617">getCurrentUserSession()</text><polygon fill="#181818" points="714,1170.2047,706,1173.4047,714,1176.6047,710.8,1173.4047" style="stroke:#181818;stroke-width:0.8000000000000002;"/><line style="stroke:#181818;stroke-width:0.8000000000000002;stroke-dasharray:2.0,2.0;" x1="709.2" x2="1254" y1="1173.4047" y2="1173.4047"/><text fill="#000000" font-family="sans-serif" font-size="10.4" font-weight="bold" lengthAdjust="spacing" textLength="11.2" x="718.8" y="1169.1945">40</text><text fill="#000000" font-family="sans-serif" font-size="10.4" lengthAdjust="spacing" textLength="107.2" x="733.2" y="1169.1945">getCurrentUserSession</text><polygon fill="#181818" points="1364,1195.2375,1372,1198.4375,1364,1201.6375,1367.2,1198.4375" style="stroke:#181818;stroke-width:0.8000000000000002;"/><line style="stroke:#181818;stroke-width:0.8000000000000002;" x1="705.2" x2="1368.8" y1="1198.4375" y2="1198.4375"/><text fill="#000000" font-family="sans-serif" font-size="10.4" font-weight="bold" lengthAdjust="spacing" textLength="11.2" x="710.8" y="1194.2273">41</text><text fill="#000000" font-family="sans-serif" font-size="10.4" lengthAdjust="spacing" textLength="322.4" x="725.2" y="1194.2273">PurchaseOrder(userEmail, announcement, orderAmount, acceptance)</text><polygon fill="#181818" points="714,1220.2703,706,1223.4703,714,1226.6703,710.8,1223.4703" style="stroke:#181818;stroke-width:0.8000000000000002;"/><line style="stroke:#181818;stroke-width:0.8000000000000002;stroke-dasharray:2.0,2.0;" x1="709.2" x2="1376.8" y1="1223.4703" y2="1223.4703"/><text fill="#000000" font-family="sans-serif" font-size="10.4" font-weight="bold" lengthAdjust="spacing" textLength="11.2" x="718.8" y="1219.2602">42</text><text fill="#000000" font-family="sans-serif" font-size="10.4" lengthAdjust="spacing" textLength="68" x="733.2" y="1219.2602">purchaseOrder</text><polygon fill="#181818" points="1491.2,1245.3031,1499.2,1248.5031,1491.2,1251.7031,1494.4,1248.5031" style="stroke:#181818;stroke-width:0.8000000000000002;"/><line style="stroke:#181818;stroke-width:0.8000000000000002;" x1="705.2" x2="1496" y1="1248.5031" y2="1248.5031"/><text fill="#000000" font-family="sans-serif" font-size="10.4" font-weight="bold" lengthAdjust="spacing" textLength="11.2" x="710.8" y="1244.293">43</text><text fill="#000000" font-family="sans-serif" font-size="10.4" lengthAdjust="spacing" textLength="201.6" x="725.2" y="1244.293">checkPurchaseOrderExists(purchaseOrder)</text><polygon fill="#181818" points="714,1270.3359,706,1273.5359,714,1276.7359,710.8,1273.5359" style="stroke:#181818;stroke-width:0.8000000000000002;"/><line style="stroke:#181818;stroke-width:0.8000000000000002;stroke-dasharray:2.0,2.0;" x1="709.2" x2="1504" y1="1273.5359" y2="1273.5359"/><text fill="#000000" font-family="sans-serif" font-size="10.4" font-weight="bold" lengthAdjust="spacing" textLength="11.2" x="718.8" y="1269.3258">44</text><text fill="#000000" font-family="sans-serif" font-size="10.4" lengthAdjust="spacing" textLength="127.2" x="733.2" y="1269.3258">checkPurchaseOrderExists</text><path d="M16,1285.5359 L64.8,1285.5359 L64.8,1292.9688 L56.8,1300.9688 L16,1300.9688 L16,1285.5359 " fill="#EEEEEE" style="stroke:#000000;stroke-width:1.2000000000000002;"/><rect fill="none" height="79.3313" style="stroke:#000000;stroke-width:1.2000000000000002;" width="781.2" x="16" y="1285.5359"/><text fill="#000000" font-family="sans-serif" font-size="10.4" font-weight="bold" lengthAdjust="spacing" textLength="12.8" x="28" y="1297.5586">alt</text><text fill="#000000" font-family="sans-serif" font-size="8.8" font-weight="bold" lengthAdjust="spacing" textLength="202.4" x="76.8" y="1296.632">[if checkPurchaseOrderAmountExists == true]</text><polygon fill="#181818" points="325.2,1316.4016,317.2,1319.6016,325.2,1322.8016,322,1319.6016" style="stroke:#181818;stroke-width:0.8000000000000002;"/><line style="stroke:#181818;stroke-width:0.8000000000000002;stroke-dasharray:2.0,2.0;" x1="320.4" x2="696.4" y1="1319.6016" y2="1319.6016"/><text fill="#000000" font-family="sans-serif" font-size="10.4" font-weight="bold" lengthAdjust="spacing" textLength="11.2" x="330" y="1315.3914">45</text><text fill="#000000" font-family="sans-serif" font-size="10.4" lengthAdjust="spacing" textLength="163.2" x="344.4" y="1315.3914">checkPurchaseOrderAmountExists</text><polygon fill="#181818" points="50.8,1355.2672,42.8,1358.4672,50.8,1361.6672,47.6,1358.4672" style="stroke:#181818;stroke-width:0.8000000000000002;"/><line style="stroke:#181818;stroke-width:0.8000000000000002;stroke-dasharray:2.0,2.0;" x1="46" x2="307.6" y1="1358.4672" y2="1358.4672"/><text fill="#000000" font-family="sans-serif" font-size="10.4" font-weight="bold" lengthAdjust="spacing" textLength="11.2" x="55.6" y="1347.3406">46</text><text fill="#000000" font-family="sans-serif" font-size="10.4" lengthAdjust="spacing" textLength="181.6" x="70" y="1340.4242">inform that already exists an equal offer</text><text fill="#000000" font-family="sans-serif" font-size="10.4" lengthAdjust="spacing" textLength="101.6" x="70" y="1354.257">which will take priority</text><polygon fill="#181818" points="1491.2,1385.9,1499.2,1389.1,1491.2,1392.3,1494.4,1389.1" style="stroke:#181818;stroke-width:0.8000000000000002;"/><line style="stroke:#181818;stroke-width:0.8000000000000002;" x1="705.2" x2="1496" y1="1389.1" y2="1389.1"/><text fill="#000000" font-family="sans-serif" font-size="10.4" font-weight="bold" lengthAdjust="spacing" textLength="11.2" x="710.8" y="1384.8898">47</text><text fill="#000000" font-family="sans-serif" font-size="10.4" lengthAdjust="spacing" textLength="160.8" x="725.2" y="1384.8898">addPurchaseOrder(purchaseOrder)</text><polygon fill="#181818" points="714,1410.9328,706,1414.1328,714,1417.3328,710.8,1414.1328" style="stroke:#181818;stroke-width:0.8000000000000002;"/><line style="stroke:#181818;stroke-width:0.8000000000000002;stroke-dasharray:2.0,2.0;" x1="709.2" x2="1504" y1="1414.1328" y2="1414.1328"/><text fill="#000000" font-family="sans-serif" font-size="10.4" font-weight="bold" lengthAdjust="spacing" textLength="11.2" x="718.8" y="1409.9227">48</text><text fill="#000000" font-family="sans-serif" font-size="10.4" lengthAdjust="spacing" textLength="86.4" x="733.2" y="1409.9227">addPurchaseOrder</text><polygon fill="#181818" points="325.2,1435.9656,317.2,1439.1656,325.2,1442.3656,322,1439.1656" style="stroke:#181818;stroke-width:0.8000000000000002;"/><line style="stroke:#181818;stroke-width:0.8000000000000002;stroke-dasharray:2.0,2.0;" x1="320.4" x2="700.4" y1="1439.1656" y2="1439.1656"/><text fill="#000000" font-family="sans-serif" font-size="10.4" font-weight="bold" lengthAdjust="spacing" textLength="11.2" x="330" y="1434.9555">49</text><text fill="#000000" font-family="sans-serif" font-size="10.4" lengthAdjust="spacing" textLength="98.4" x="344.4" y="1434.9555">createPurchaseOrder</text><polygon fill="#181818" points="46.8,1460.9984,38.8,1464.1984,46.8,1467.3984,43.6,1464.1984" style="stroke:#181818;stroke-width:0.8000000000000002;"/><line style="stroke:#181818;stroke-width:0.8000000000000002;stroke-dasharray:2.0,2.0;" x1="42" x2="311.6" y1="1464.1984" y2="1464.1984"/><text fill="#000000" font-family="sans-serif" font-size="10.4" font-weight="bold" lengthAdjust="spacing" textLength="11.2" x="51.6" y="1459.9883">50</text><text fill="#000000" font-family="sans-serif" font-size="10.4" lengthAdjust="spacing" textLength="232.8" x="66" y="1459.9883">shows opperation result (successful/unsuccessful)</text><!--SRC=[nLXDRzGm4BtdLunweI0AzvL0GeL39IHG0N7fnKrc6siJEzWEo_BhcJYRO2UsanGGEMrZUzvylBmPLn-uQ9XYDTHIoBnKiaOmgiLCZoiDom_i0J-PKuMWC3TCF5Jk1bsoGXwvU80zgpHc6MkD56rzZohBdfIyGDXBQUxbZupbHYgu-A9HNG3JS5rn52OZEuRdl672mCNkMY4p-B5LUSaqVb05gYytTllvz_B-QocCabLrXkdVVRvzFpbvYutKd5pYgEr6zuM_LpahTs9-KaLFCY5aAtAiATBns6bt9zu45wmrTsbYRlTHoGQLwJSEV_XxMifl1z2QaWpmd1aknHGYiZX5SzFQGxflKhidW96rx8blOkH6zoFh7Y8D_quL7jYI0JtzRxXwFP02TdJeeC58o2qXW45pXWHfVUtEZSO6Bi7v6SmC5ZkwF7j6LdjhytsqyUp4ZZu1UIGsXuYR1A2Z3sYkPNFoAlwUQtFvT3pf-snvx1crbiYiIyhUyetGzBdcw1Xpdz6mntk8F9xvgqaOQib2WM6qu6OlB3KBA_pbB0MfrWIfKa56ePSY3a8xGNeqZZ4Y2nYUCwAIiY6zLO3VKPt0LPyLL1pq993B0EPoxRmWvXdyoarvy_QoEQFUl5qeeQ-BiHhweEJ54DLYZ3F0KLyXyOpchm8HDqiMd6ekeaqYczGl2UN0B6SnHiqeGfAIA0fBopKQ6lRDahgbRbL1Nc9-S7Uvx85Nh_hn9Ocay5kBcX9OCCEoaFiasz4kex6Y8OWQJOd0XQ7WiF0Jiwd7T1qc5TAQBh3usMd-Sze3Lh8XpRZERhQPPJ5spVAmJl5OPVgZ6lWUg2gieaPSd42tzpKtXieJ70MMAj8D85upV_U3L5XVTjFLkvhnwZdm8fBKBHgvkMq_leN_lNR-wDQ-eSr79iOjML5RixBK_sDJx8OSgMIEl9n4q0AkwDjUrB18jUujtiUmbvBosvDKbrZhoSfqFFQ3_UVPIJdsf_b9wkWQpAIi1bid5pHQrbtpOyQLMgkglj3U2Jk6sfr3FtlXpGGat1jdXB5pTytNOWAhgLsOpLtygBZ1Y9tD_Nj-xtCvvuxWptkqDnQCbl8S6olroJwVRRaRHUxriVQVLCZ5sr3idmYRfSyVNo9cpvUZLYbQxGZ-2RMc7T7HPerxTig90GPYdiD79w0OVBPEuGZlRv4ghdDPKjdcTupesPXuhOrshkSXBVVmryINgFec3T-WfJ5ytrkQMcbSdTlkozWZpEupYx8VDJKt4TRsNh07NSVU3IQ0b9TL8FTx8iMTE9OyB-78gmeCEo09FAUFUd8n73J-CGHWHU5p_tyKVkh47nKyMhPvzrZVf8EBQ-xPig66R7M9H5ctHCPBtP9mQBrlgvUj-Ft7qsHl3Rrttft_PViB]--></g></svg>