<?xml version="1.0" encoding="us-ascii" standalone="no"?><svg xmlns="http://www.w3.org/2000/svg" xmlns:xlink="http://www.w3.org/1999/xlink" contentStyleType="text/css" height="1021px" preserveAspectRatio="none" style="width:795px;height:1021px;background:#FFFFFF;" version="1.1" viewBox="0 0 795 1021" width="795px" zoomAndPan="magnify"><defs/><g><g id="elem_UC001 - Display listed properties"><ellipse cx="484.4849" cy="898.297" fill="#F1F1F1" rx="121.9849" ry="26.797" style="stroke:#181818;stroke-width:0.5;"/><text fill="#000000" font-family="sans-serif" font-size="14" lengthAdjust="spacing" textLength="207" x="380.9849" y="902.0939">UC001 - Display listed properties</text></g><!--entity Unregistered User--><g id="elem_Unregistered User"><ellipse cx="63" cy="912.5" fill="#F1F1F1" rx="8" ry="8" style="stroke:#181818;stroke-width:0.5;"/><path d="M63,920.5 L63,947.5 M50,928.5 L76,928.5 M63,947.5 L50,962.5 M63,947.5 L76,962.5 " fill="none" style="stroke:#181818;stroke-width:0.5;"/><text fill="#000000" font-family="sans-serif" font-size="14" lengthAdjust="spacing" textLength="114" x="6" y="979.1074">Unregistered User</text></g><g id="elem_UC002 -  Publish any sale announcement on the system"><ellipse cx="484.3439" cy="564.6688" fill="#F1F1F1" rx="191.3439" ry="40.6688" style="stroke:#181818;stroke-width:0.5;"/><text fill="#000000" font-family="sans-serif" font-size="14" lengthAdjust="spacing" textLength="353" x="307.8439" y="568.4656">UC002 -  Publish any sale announcement on the system</text></g><!--entity Agent--><g id="elem_Agent"><ellipse cx="63" cy="651.5" fill="#F1F1F1" rx="8" ry="8" style="stroke:#181818;stroke-width:0.5;"/><path d="M63,659.5 L63,686.5 M50,667.5 L76,667.5 M63,686.5 L50,701.5 M63,686.5 L76,701.5 " fill="none" style="stroke:#181818;stroke-width:0.5;"/><text fill="#000000" font-family="sans-serif" font-size="14" lengthAdjust="spacing" textLength="37" x="44.5" y="718.1074">Agent</text></g><g id="elem_UC003 - Register a new employee"><ellipse cx="484.676" cy="299.5352" fill="#F1F1F1" rx="125.676" ry="27.5352" style="stroke:#181818;stroke-width:0.5;"/><text fill="#000000" font-family="sans-serif" font-size="14" lengthAdjust="spacing" textLength="215" x="377.176" y="303.3321">UC003 - Register a new employee</text></g><!--entity System Admin--><g id="elem_System Admin"><ellipse cx="63" cy="331.5" fill="#F1F1F1" rx="8" ry="8" style="stroke:#181818;stroke-width:0.5;"/><path d="M63,339.5 L63,366.5 M50,347.5 L76,347.5 M63,366.5 L50,381.5 M63,366.5 L76,381.5 " fill="none" style="stroke:#181818;stroke-width:0.5;"/><text fill="#000000" font-family="sans-serif" font-size="14" lengthAdjust="spacing" textLength="89" x="18.5" y="398.1074">System Admin</text></g><g id="elem_UC004 - Submit a properly listing request"><ellipse cx="484.2739" cy="37.6548" fill="#F1F1F1" rx="146.2739" ry="31.6548" style="stroke:#181818;stroke-width:0.5;"/><text fill="#000000" font-family="sans-serif" font-size="14" lengthAdjust="spacing" textLength="259" x="354.7739" y="41.4517">UC004 - Submit a properly listing request</text></g><!--entity User--><g id="elem_User"><ellipse cx="63" cy="98.5" fill="#F1F1F1" rx="8" ry="8" style="stroke:#181818;stroke-width:0.5;"/><path d="M63,106.5 L63,133.5 M50,114.5 L76,114.5 M63,133.5 L50,148.5 M63,133.5 L76,148.5 " fill="none" style="stroke:#181818;stroke-width:0.5;"/><text fill="#000000" font-family="sans-serif" font-size="14" lengthAdjust="spacing" textLength="29" x="48.5" y="165.1074">User</text></g><g id="elem_UC007 - To register in the system"><ellipse cx="484.2896" cy="988.2579" fill="#F1F1F1" rx="124.2896" ry="27.2579" style="stroke:#181818;stroke-width:0.5;"/><text fill="#000000" font-family="sans-serif" font-size="14" lengthAdjust="spacing" textLength="212" x="378.2896" y="992.0548">UC007 - To register in the system</text></g><g id="elem_UC008 - Displaying and accepting announcement requests"><ellipse cx="484.5772" cy="682.4154" fill="#F1F1F1" rx="200.0772" ry="42.4154" style="stroke:#181818;stroke-width:0.5;"/><text fill="#000000" font-family="sans-serif" font-size="14" lengthAdjust="spacing" textLength="371" x="299.0772" y="686.2123">UC008 - Displaying and accepting announcement requests</text></g><g id="elem_UC009 - Messaging for a visit"><ellipse cx="484.4468" cy="129.2894" fill="#F1F1F1" rx="111.9468" ry="24.7894" style="stroke:#181818;stroke-width:0.5;"/><text fill="#000000" font-family="sans-serif" font-size="14" lengthAdjust="spacing" textLength="185" x="391.9468" y="133.0862">UC009 - Messaging for a visit</text></g><g id="elem_UC010 - To buy a property"><ellipse cx="484.2713" cy="213.3543" fill="#F1F1F1" rx="104.7713" ry="23.3543" style="stroke:#181818;stroke-width:0.5;"/><text fill="#000000" font-family="sans-serif" font-size="14" lengthAdjust="spacing" textLength="169" x="399.7713" y="217.1511">UC010 - To buy a property</text></g><g id="elem_UC011 - Accepting or denying a property sale/lease"><ellipse cx="484.2945" cy="798.5589" fill="#F1F1F1" rx="178.2945" ry="38.0589" style="stroke:#181818;stroke-width:0.5;"/><text fill="#000000" font-family="sans-serif" font-size="14" lengthAdjust="spacing" textLength="326" x="321.2945" y="802.3558">UC011 - Accepting or denying a property sale/lease</text></g><g id="elem_UC012 - Importing information from a legacy system that has been in use in several agencies"><ellipse cx="484.6143" cy="425.3229" fill="#F1F1F1" rx="304.6143" ry="63.3229" style="stroke:#181818;stroke-width:0.5;"/><text fill="#000000" font-family="sans-serif" font-size="14" lengthAdjust="spacing" textLength="584" x="192.6143" y="429.1197">UC012 - Importing information from a legacy system that has been in use in several agencies</text></g><!--link Unregistered User to UC001 - Display listed properties--><g id="link_Unregistered User_UC001 - Display listed properties"><path d="M120.14,937.48 C183.5,930.68 288.24,919.45 369.03,910.78 " fill="none" id="Unregistered User-to-UC001 - Display listed properties" style="stroke:#181818;stroke-width:1.0;"/><polygon fill="#181818" points="374.32,910.21,364.9475,907.184,369.348,910.7386,365.7933,915.1391,374.32,910.21" style="stroke:#181818;stroke-width:1.0;"/></g><!--link Agent to UC002 -  Publish any sale announcement on the system--><g id="link_Agent_UC002 -  Publish any sale announcement on the system"><path d="M81.75,671.24 C103.91,657.69 143.36,635.18 180,622.5 C223.78,607.35 272.55,595.83 317.98,587.2 " fill="none" id="Agent-to-UC002 -  Publish any sale announcement on the system" style="stroke:#181818;stroke-width:1.0;"/><polygon fill="#181818" points="322.93,586.27,313.3438,584.0106,318.0169,587.1983,314.8292,591.8715,322.93,586.27" style="stroke:#181818;stroke-width:1.0;"/></g><!--link System Admin to UC003 - Register a new employee--><g id="link_System Admin_UC003 - Register a new employee"><path d="M107.51,355.68 C129.27,352.28 156.02,348.14 180,344.5 C244.41,334.73 316.55,324.02 374.34,315.5 " fill="none" id="System Admin-to-UC003 - Register a new employee" style="stroke:#181818;stroke-width:1.0;"/><polygon fill="#181818" points="379.53,314.74,370.0429,312.0952,374.5834,315.4691,371.2095,320.0097,379.53,314.74" style="stroke:#181818;stroke-width:1.0;"/></g><!--link User to UC004 - Submit a properly listing request--><g id="link_User_UC004 - Submit a properly listing request"><path d="M77.65,123.45 C99.05,114.18 141.99,96.51 180,86.5 C235,72.01 296.8,61.1 350.21,53.29 " fill="none" id="User-to-UC004 - Submit a properly listing request" style="stroke:#181818;stroke-width:1.0;"/><polygon fill="#181818" points="355.35,52.54,345.8704,49.8683,350.4014,53.2551,347.0146,57.7861,355.35,52.54" style="stroke:#181818;stroke-width:1.0;"/></g><!--link Unregistered User to UC007 - To register in the system--><g id="link_Unregistered User_UC007 - To register in the system"><path d="M120.14,949.52 C182.95,956.26 286.44,967.36 366.94,976 " fill="none" id="Unregistered User-to-UC007 - To register in the system" style="stroke:#181818;stroke-width:1.0;"/><polygon fill="#181818" points="372.21,976.56,363.6833,971.6309,367.238,976.0314,362.8375,979.586,372.21,976.56" style="stroke:#181818;stroke-width:1.0;"/></g><!--link Agent to UC008 - Displaying and accepting announcement requests--><g id="link_Agent_UC008 - Displaying and accepting announcement requests"><path d="M81.76,682.5 C116.78,682.5 198.37,682.5 278.93,682.5 " fill="none" id="Agent-to-UC008 - Displaying and accepting announcement requests" style="stroke:#181818;stroke-width:1.0;"/><polygon fill="#181818" points="284.24,682.5,275.24,678.5,279.24,682.5,275.24,686.5,284.24,682.5" style="stroke:#181818;stroke-width:1.0;"/></g><!--link User to UC009 - Messaging for a visit--><g id="link_User_UC009 - Messaging for a visit"><path d="M77.96,129.5 C122.42,129.5 263.86,129.5 367.22,129.5 " fill="none" id="User-to-UC009 - Messaging for a visit" style="stroke:#181818;stroke-width:1.0;"/><polygon fill="#181818" points="372.42,129.5,363.42,125.5,367.42,129.5,363.42,133.5,372.42,129.5" style="stroke:#181818;stroke-width:1.0;"/></g><!--link User to UC010 - To buy a property--><g id="link_User_UC010 - To buy a property"><path d="M77.64,135.5 C99.02,144.67 141.95,162.09 180,171.5 C245.79,187.77 321.27,198.25 380.49,204.67 " fill="none" id="User-to-UC010 - To buy a property" style="stroke:#181818;stroke-width:1.0;"/><polygon fill="#181818" points="385.81,205.24,377.2974,200.2867,380.8395,204.6972,376.429,208.2394,385.81,205.24" style="stroke:#181818;stroke-width:1.0;"/></g><!--link Agent to UC011 - Accepting or denying a property sale/lease--><g id="link_Agent_UC011 - Accepting or denying a property sale/lease"><path d="M81.74,693.8 C103.88,707.39 143.32,729.94 180,742.5 C226.1,758.28 277.74,769.92 325.17,778.36 " fill="none" id="Agent-to-UC011 - Accepting or denying a property sale/lease" style="stroke:#181818;stroke-width:1.0;"/><polygon fill="#181818" points="330.34,779.28,322.1739,773.7741,325.4164,778.4094,320.781,781.6519,330.34,779.28" style="stroke:#181818;stroke-width:1.0;"/></g><!--link System Admin to UC012 - Importing information from a legacy system that has been in use in several agencies--><g id="link_System Admin_UC012 - Importing information from a legacy system that has been in use in several agencies"><path d="M107.71,369.06 C138.95,373.76 183.8,380.49 231.7,387.69 " fill="none" id="System Admin-to-UC012 - Importing information from a legacy system that has been in use in several agencies" style="stroke:#181818;stroke-width:1.0;"/><polygon fill="#181818" points="236.65,388.43,228.3422,383.1404,231.7052,387.689,227.1566,391.052,236.65,388.43" style="stroke:#181818;stroke-width:1.0;"/></g><!--SRC=[jLJDZjCm4BxdAKQzz5Je0X9mGQeM3XoG4AKFC7McZhNsEDYJNVBsZ9lIrknksKKYXqH9lf-PRpAPvnl7FIOC4297qwKO22GDr9pUz6XkqD9QHa-Go0YozTJCJuZSOHll75lOeS_KDCrSd2XwamckKKyV7Tg2_FGJGw_anjDEG28aPpk1rXLT5xav74CcKtYppVLoUGKB5SYznn6yoq8jz2dsbCHHdZMp3IUovNdIDsgPPh1OV7WIjpPwfM3uEcmLs07o21cr2MIE0niAn0AHGJg2FAfKKE-LrQTdVi-Ng4juhVnlXsu0WUaEI1EB8v6whVSSMBN1yPdfHLAj_qQXws4Rd2XmIi9FoPJn9VenK9QIQHtZ4scrrribVTSH_wxC_P7TfRdzXLiRlJiDkPI3t08QGxrCTsVP7ohD3qpkNqJgCjwhmXVA6Ur-5MAPnQtBxe4yBq0hpQlbbCDs68_1otXFxp5OhLLsONLiIJrRugdN8sN_kRxqf9px4JrReBOlg_4vz37jsOwrwu1bwM6dlntLy6JHZ8SPwxXHeCCCMo8kyrUnSibqImazw2-9ZIxnYqVtuZyw_W80]--></g></svg>