<?xml version="1.0" encoding="us-ascii" standalone="no"?><svg xmlns="http://www.w3.org/2000/svg" xmlns:xlink="http://www.w3.org/1999/xlink" contentStyleType="text/css" height="1901px" preserveAspectRatio="none" style="width:1876px;height:1901px;background:#FFFFFF;" version="1.1" viewBox="0 0 1876 1901" width="1876px" zoomAndPan="magnify"><defs/><g><!--class Property--><g id="elem_Property"><rect
        fill="#F1F1F1" height="159.7266" id="Property" rx="2.5" ry="2.5" style="stroke:#181818;stroke-width:0.5;" width="195" x="234.5" y="1183"/><ellipse cx="300.75" cy="1199" fill="#ADD1B2" rx="11" ry="11" style="stroke:#181818;stroke-width:1.0;"/><path d="M303.5156,1194.875 Q303.6719,1194.6563 303.8594,1194.5469 Q304.0469,1194.4375 304.2656,1194.4375 Q304.6406,1194.4375 304.875,1194.7031 Q305.1094,1194.9531 305.1094,1195.5625 L305.1094,1197.0156 Q305.1094,1197.625 304.875,1197.8906 Q304.6406,1198.1563 304.2656,1198.1563 Q303.9219,1198.1563 303.7188,1197.9531 Q303.5156,1197.7656 303.4063,1197.25 Q303.3594,1196.8906 303.1719,1196.7031 Q302.8438,1196.3281 302.2344,1196.1094 Q301.625,1195.8906 301,1195.8906 Q300.2344,1195.8906 299.5938,1196.2188 Q298.9688,1196.5469 298.4688,1197.2969 Q297.9844,1198.0469 297.9844,1199.0781 L297.9844,1200.1719 Q297.9844,1201.4063 298.875,1202.2344 Q299.7656,1203.0469 301.3594,1203.0469 Q302.2969,1203.0469 302.9531,1202.7969 Q303.3438,1202.6406 303.7656,1202.2031 Q304.0313,1201.9375 304.1719,1201.8594 Q304.3281,1201.7813 304.5313,1201.7813 Q304.8594,1201.7813 305.1094,1202.0469 Q305.375,1202.2969 305.375,1202.6406 Q305.375,1202.9844 305.0313,1203.3906 Q304.5313,1203.9688 303.7344,1204.2969 Q302.6563,1204.75 301.3594,1204.75 Q299.8438,1204.75 298.6406,1204.125 Q297.6563,1203.625 296.9688,1202.5625 Q296.2813,1201.4844 296.2813,1200.2031 L296.2813,1199.0469 Q296.2813,1197.7188 296.8906,1196.5781 Q297.5156,1195.4219 298.6094,1194.8125 Q299.7031,1194.1875 300.9375,1194.1875 Q301.6719,1194.1875 302.3125,1194.3594 Q302.9688,1194.5156 303.5156,1194.875 Z " fill="#000000"/><text fill="#000000" font-family="sans-serif" font-size="14" lengthAdjust="spacing" textLength="54" x="321.25" y="1204.7969">Property</text><line style="stroke:#181818;stroke-width:0.5;" x1="235.5" x2="428.5" y1="1215" y2="1215"/><text fill="#000000" font-family="sans-serif" font-size="14" lengthAdjust="spacing" textLength="152" x="240.5" y="1234.1074">-Double areaOfProperty</text><text fill="#000000" font-family="sans-serif" font-size="14" lengthAdjust="spacing" textLength="183" x="240.5" y="1252.7285">-Double distanceFromCentre</text><line style="stroke:#181818;stroke-width:0.5;" x1="235.5" x2="428.5" y1="1260.2422" y2="1260.2422"/><text fill="#000000" font-family="sans-serif" font-size="14" lengthAdjust="spacing" textLength="133" x="240.5" y="1279.3496">-setAreaOfProperty()</text><text fill="#000000" font-family="sans-serif" font-size="14" lengthAdjust="spacing" textLength="165" x="240.5" y="1297.9707">-setDistanceFromCentre()</text><text fill="#000000" font-family="sans-serif" font-size="14" lengthAdjust="spacing" textLength="137" x="240.5" y="1316.5918">+getAreaOfProperty()</text><text fill="#000000" font-family="sans-serif" font-size="14" lengthAdjust="spacing" textLength="169" x="240.5" y="1335.2129">+getDistanceFromCentre()</text></g><!--class TypeOfTransaction--><g id="elem_TypeOfTransaction"><rect
        fill="#F1F1F1" height="159.7266" id="TypeOfTransaction" rx="2.5" ry="2.5" style="stroke:#181818;stroke-width:0.5;" width="160" x="11" y="963"/><ellipse cx="28.7" cy="979" fill="#ADD1B2" rx="11" ry="11" style="stroke:#181818;stroke-width:1.0;"/><path d="M31.4656,974.875 Q31.6219,974.6563 31.8094,974.5469 Q31.9969,974.4375 32.2156,974.4375 Q32.5906,974.4375 32.825,974.7031 Q33.0594,974.9531 33.0594,975.5625 L33.0594,977.0156 Q33.0594,977.625 32.825,977.8906 Q32.5906,978.1563 32.2156,978.1563 Q31.8719,978.1563 31.6688,977.9531 Q31.4656,977.7656 31.3563,977.25 Q31.3094,976.8906 31.1219,976.7031 Q30.7938,976.3281 30.1844,976.1094 Q29.575,975.8906 28.95,975.8906 Q28.1844,975.8906 27.5438,976.2188 Q26.9188,976.5469 26.4188,977.2969 Q25.9344,978.0469 25.9344,979.0781 L25.9344,980.1719 Q25.9344,981.4063 26.825,982.2344 Q27.7156,983.0469 29.3094,983.0469 Q30.2469,983.0469 30.9031,982.7969 Q31.2938,982.6406 31.7156,982.2031 Q31.9813,981.9375 32.1219,981.8594 Q32.2781,981.7813 32.4813,981.7813 Q32.8094,981.7813 33.0594,982.0469 Q33.325,982.2969 33.325,982.6406 Q33.325,982.9844 32.9813,983.3906 Q32.4813,983.9688 31.6844,984.2969 Q30.6063,984.75 29.3094,984.75 Q27.7938,984.75 26.5906,984.125 Q25.6063,983.625 24.9188,982.5625 Q24.2313,981.4844 24.2313,980.2031 L24.2313,979.0469 Q24.2313,977.7188 24.8406,976.5781 Q25.4656,975.4219 26.5594,974.8125 Q27.6531,974.1875 28.8875,974.1875 Q29.6219,974.1875 30.2625,974.3594 Q30.9188,974.5156 31.4656,974.875 Z " fill="#000000"/><text fill="#000000" font-family="sans-serif" font-size="14" lengthAdjust="spacing" textLength="122" x="43.3" y="984.7969">TypeOfTransaction</text><line style="stroke:#181818;stroke-width:0.5;" x1="12" x2="170" y1="995" y2="995"/><text fill="#000000" font-family="sans-serif" font-size="14" lengthAdjust="spacing" textLength="148" x="17" y="1014.1074">-String transactionType</text><text fill="#000000" font-family="sans-serif" font-size="14" lengthAdjust="spacing" textLength="141" x="17" y="1032.7285">-String monetaryValue</text><line style="stroke:#181818;stroke-width:0.5;" x1="12" x2="170" y1="1040.2422" y2="1040.2422"/><text fill="#000000" font-family="sans-serif" font-size="14" lengthAdjust="spacing" textLength="141" x="17" y="1059.3496">-setTransactionType()</text><text fill="#000000" font-family="sans-serif" font-size="14" lengthAdjust="spacing" textLength="129" x="17" y="1077.9707">-setMonetaryValue()</text><text fill="#000000" font-family="sans-serif" font-size="14" lengthAdjust="spacing" textLength="145" x="17" y="1096.5918">+getTransactionType()</text><text fill="#000000" font-family="sans-serif" font-size="14" lengthAdjust="spacing" textLength="133" x="17" y="1115.2129">+getMonetaryValue()</text></g><!--class Address--><g id="elem_Address"><rect
        fill="#F1F1F1" height="327.3164" id="Address" rx="2.5" ry="2.5" style="stroke:#181818;stroke-width:0.5;" width="109" x="259.5" y="7"/><ellipse cx="285.75" cy="23" fill="#ADD1B2" rx="11" ry="11" style="stroke:#181818;stroke-width:1.0;"/><path d="M288.5156,18.875 Q288.6719,18.6563 288.8594,18.5469 Q289.0469,18.4375 289.2656,18.4375 Q289.6406,18.4375 289.875,18.7031 Q290.1094,18.9531 290.1094,19.5625 L290.1094,21.0156 Q290.1094,21.625 289.875,21.8906 Q289.6406,22.1563 289.2656,22.1563 Q288.9219,22.1563 288.7188,21.9531 Q288.5156,21.7656 288.4063,21.25 Q288.3594,20.8906 288.1719,20.7031 Q287.8438,20.3281 287.2344,20.1094 Q286.625,19.8906 286,19.8906 Q285.2344,19.8906 284.5938,20.2188 Q283.9688,20.5469 283.4688,21.2969 Q282.9844,22.0469 282.9844,23.0781 L282.9844,24.1719 Q282.9844,25.4063 283.875,26.2344 Q284.7656,27.0469 286.3594,27.0469 Q287.2969,27.0469 287.9531,26.7969 Q288.3438,26.6406 288.7656,26.2031 Q289.0313,25.9375 289.1719,25.8594 Q289.3281,25.7813 289.5313,25.7813 Q289.8594,25.7813 290.1094,26.0469 Q290.375,26.2969 290.375,26.6406 Q290.375,26.9844 290.0313,27.3906 Q289.5313,27.9688 288.7344,28.2969 Q287.6563,28.75 286.3594,28.75 Q284.8438,28.75 283.6406,28.125 Q282.6563,27.625 281.9688,26.5625 Q281.2813,25.4844 281.2813,24.2031 L281.2813,23.0469 Q281.2813,21.7188 281.8906,20.5781 Q282.5156,19.4219 283.6094,18.8125 Q284.7031,18.1875 285.9375,18.1875 Q286.6719,18.1875 287.3125,18.3594 Q287.9688,18.5156 288.5156,18.875 Z " fill="#000000"/><text fill="#000000" font-family="sans-serif" font-size="14" lengthAdjust="spacing" textLength="52" x="302.25" y="28.7969">Address</text><line style="stroke:#181818;stroke-width:0.5;" x1="260.5" x2="367.5" y1="39" y2="39"/><text fill="#000000" font-family="sans-serif" font-size="14" lengthAdjust="spacing" textLength="82" x="265.5" y="58.1074">-String street</text><text fill="#000000" font-family="sans-serif" font-size="14" lengthAdjust="spacing" textLength="67" x="265.5" y="76.7285">-String city</text><text fill="#000000" font-family="sans-serif" font-size="14" lengthAdjust="spacing" textLength="87" x="265.5" y="95.3496">-String district</text><text fill="#000000" font-family="sans-serif" font-size="14" lengthAdjust="spacing" textLength="77" x="265.5" y="113.9707">-String state</text><text fill="#000000" font-family="sans-serif" font-size="14" lengthAdjust="spacing" textLength="97" x="265.5" y="132.5918">-String zipCode</text><line style="stroke:#181818;stroke-width:0.5;" x1="260.5" x2="367.5" y1="140.1055" y2="140.1055"/><text fill="#000000" font-family="sans-serif" font-size="14" lengthAdjust="spacing" textLength="72" x="265.5" y="159.2129">-setStreet()</text><text fill="#000000" font-family="sans-serif" font-size="14" lengthAdjust="spacing" textLength="58" x="265.5" y="177.834">-setCity()</text><text fill="#000000" font-family="sans-serif" font-size="14" lengthAdjust="spacing" textLength="77" x="265.5" y="196.4551">-setDistrict()</text><text fill="#000000" font-family="sans-serif" font-size="14" lengthAdjust="spacing" textLength="67" x="265.5" y="215.0762">-setState()</text><text fill="#000000" font-family="sans-serif" font-size="14" lengthAdjust="spacing" textLength="87" x="265.5" y="233.6973">-setZipCode()</text><text fill="#000000" font-family="sans-serif" font-size="14" lengthAdjust="spacing" textLength="76" x="265.5" y="252.3184">+getStreet()</text><text fill="#000000" font-family="sans-serif" font-size="14" lengthAdjust="spacing" textLength="62" x="265.5" y="270.9395">+getCity()</text><text fill="#000000" font-family="sans-serif" font-size="14" lengthAdjust="spacing" textLength="81" x="265.5" y="289.5605">+getDistrict()</text><text fill="#000000" font-family="sans-serif" font-size="14" lengthAdjust="spacing" textLength="71" x="265.5" y="308.1816">+getState()</text><text fill="#000000" font-family="sans-serif" font-size="14" lengthAdjust="spacing" textLength="91" x="265.5" y="326.8027">+getZipCode()</text></g><!--class PropertyTypeRepository--><g id="elem_PropertyTypeRepository"><rect
        fill="#F1F1F1" height="103.8633" id="PropertyTypeRepository" rx="2.5" ry="2.5" style="stroke:#181818;stroke-width:0.5;" width="186" x="1064" y="1211"/><ellipse cx="1079" cy="1227" fill="#ADD1B2" rx="11" ry="11" style="stroke:#181818;stroke-width:1.0;"/><path d="M1081.7656,1222.875 Q1081.9219,1222.6563 1082.1094,1222.5469 Q1082.2969,1222.4375 1082.5156,1222.4375 Q1082.8906,1222.4375 1083.125,1222.7031 Q1083.3594,1222.9531 1083.3594,1223.5625 L1083.3594,1225.0156 Q1083.3594,1225.625 1083.125,1225.8906 Q1082.8906,1226.1563 1082.5156,1226.1563 Q1082.1719,1226.1563 1081.9688,1225.9531 Q1081.7656,1225.7656 1081.6563,1225.25 Q1081.6094,1224.8906 1081.4219,1224.7031 Q1081.0938,1224.3281 1080.4844,1224.1094 Q1079.875,1223.8906 1079.25,1223.8906 Q1078.4844,1223.8906 1077.8438,1224.2188 Q1077.2188,1224.5469 1076.7188,1225.2969 Q1076.2344,1226.0469 1076.2344,1227.0781 L1076.2344,1228.1719 Q1076.2344,1229.4063 1077.125,1230.2344 Q1078.0156,1231.0469 1079.6094,1231.0469 Q1080.5469,1231.0469 1081.2031,1230.7969 Q1081.5938,1230.6406 1082.0156,1230.2031 Q1082.2813,1229.9375 1082.4219,1229.8594 Q1082.5781,1229.7813 1082.7813,1229.7813 Q1083.1094,1229.7813 1083.3594,1230.0469 Q1083.625,1230.2969 1083.625,1230.6406 Q1083.625,1230.9844 1083.2813,1231.3906 Q1082.7813,1231.9688 1081.9844,1232.2969 Q1080.9063,1232.75 1079.6094,1232.75 Q1078.0938,1232.75 1076.8906,1232.125 Q1075.9063,1231.625 1075.2188,1230.5625 Q1074.5313,1229.4844 1074.5313,1228.2031 L1074.5313,1227.0469 Q1074.5313,1225.7188 1075.1406,1224.5781 Q1075.7656,1223.4219 1076.8594,1222.8125 Q1077.9531,1222.1875 1079.1875,1222.1875 Q1079.9219,1222.1875 1080.5625,1222.3594 Q1081.2188,1222.5156 1081.7656,1222.875 Z " fill="#000000"/><text fill="#000000" font-family="sans-serif" font-size="14" lengthAdjust="spacing" textLength="154" x="1093" y="1232.7969">PropertyTypeRepository</text><line style="stroke:#181818;stroke-width:0.5;" x1="1065" x2="1249" y1="1243" y2="1243"/><text fill="#000000" font-family="sans-serif" font-size="14" lengthAdjust="spacing" textLength="117" x="1070" y="1262.1074">-Static String Land</text><text fill="#000000" font-family="sans-serif" font-size="14" lengthAdjust="spacing" textLength="150" x="1070" y="1280.7285">-Static String Apartment</text><text fill="#000000" font-family="sans-serif" font-size="14" lengthAdjust="spacing" textLength="125" x="1070" y="1299.3496">-Static String House</text><line style="stroke:#181818;stroke-width:0.5;" x1="1065" x2="1249" y1="1306.8633" y2="1306.8633"/></g><!--class Photo--><g id="elem_Photo"><rect
        fill="#F1F1F1" height="103.8633" id="Photo" rx="2.5" ry="2.5" style="stroke:#181818;stroke-width:0.5;" width="132" x="206" y="991"/><ellipse cx="249.35" cy="1007" fill="#ADD1B2" rx="11" ry="11" style="stroke:#181818;stroke-width:1.0;"/><path d="M252.1156,1002.875 Q252.2719,1002.6563 252.4594,1002.5469 Q252.6469,1002.4375 252.8656,1002.4375 Q253.2406,1002.4375 253.475,1002.7031 Q253.7094,1002.9531 253.7094,1003.5625 L253.7094,1005.0156 Q253.7094,1005.625 253.475,1005.8906 Q253.2406,1006.1563 252.8656,1006.1563 Q252.5219,1006.1563 252.3188,1005.9531 Q252.1156,1005.7656 252.0063,1005.25 Q251.9594,1004.8906 251.7719,1004.7031 Q251.4438,1004.3281 250.8344,1004.1094 Q250.225,1003.8906 249.6,1003.8906 Q248.8344,1003.8906 248.1938,1004.2188 Q247.5688,1004.5469 247.0688,1005.2969 Q246.5844,1006.0469 246.5844,1007.0781 L246.5844,1008.1719 Q246.5844,1009.4063 247.475,1010.2344 Q248.3656,1011.0469 249.9594,1011.0469 Q250.8969,1011.0469 251.5531,1010.7969 Q251.9438,1010.6406 252.3656,1010.2031 Q252.6313,1009.9375 252.7719,1009.8594 Q252.9281,1009.7813 253.1313,1009.7813 Q253.4594,1009.7813 253.7094,1010.0469 Q253.975,1010.2969 253.975,1010.6406 Q253.975,1010.9844 253.6313,1011.3906 Q253.1313,1011.9688 252.3344,1012.2969 Q251.2563,1012.75 249.9594,1012.75 Q248.4438,1012.75 247.2406,1012.125 Q246.2563,1011.625 245.5688,1010.5625 Q244.8813,1009.4844 244.8813,1008.2031 L244.8813,1007.0469 Q244.8813,1005.7188 245.4906,1004.5781 Q246.1156,1003.4219 247.2094,1002.8125 Q248.3031,1002.1875 249.5375,1002.1875 Q250.2719,1002.1875 250.9125,1002.3594 Q251.5688,1002.5156 252.1156,1002.875 Z " fill="#000000"/><text fill="#000000" font-family="sans-serif" font-size="14" lengthAdjust="spacing" textLength="37" x="269.65" y="1012.7969">Photo</text><line style="stroke:#181818;stroke-width:0.5;" x1="207" x2="337" y1="1023" y2="1023"/><text fill="#000000" font-family="sans-serif" font-size="14" lengthAdjust="spacing" textLength="102" x="212" y="1042.1074">-Integer photoID</text><text fill="#000000" font-family="sans-serif" font-size="14" lengthAdjust="spacing" textLength="120" x="212" y="1060.7285">-String pathToPNG</text><line style="stroke:#181818;stroke-width:0.5;" x1="207" x2="337" y1="1068.2422" y2="1068.2422"/><text fill="#000000" font-family="sans-serif" font-size="14" lengthAdjust="spacing" textLength="104" x="212" y="1087.3496">+setPhotoData()</text></g><!--class Building--><g id="elem_Building"><rect
        fill="#F1F1F1" height="215.5898" id="Building" rx="2.5" ry="2.5" style="stroke:#181818;stroke-width:0.5;" width="159" x="74.5" y="1403"/><ellipse cx="124.75" cy="1419" fill="#ADD1B2" rx="11" ry="11" style="stroke:#181818;stroke-width:1.0;"/><path d="M127.5156,1414.875 Q127.6719,1414.6563 127.8594,1414.5469 Q128.0469,1414.4375 128.2656,1414.4375 Q128.6406,1414.4375 128.875,1414.7031 Q129.1094,1414.9531 129.1094,1415.5625 L129.1094,1417.0156 Q129.1094,1417.625 128.875,1417.8906 Q128.6406,1418.1563 128.2656,1418.1563 Q127.9219,1418.1563 127.7188,1417.9531 Q127.5156,1417.7656 127.4063,1417.25 Q127.3594,1416.8906 127.1719,1416.7031 Q126.8438,1416.3281 126.2344,1416.1094 Q125.625,1415.8906 125,1415.8906 Q124.2344,1415.8906 123.5938,1416.2188 Q122.9688,1416.5469 122.4688,1417.2969 Q121.9844,1418.0469 121.9844,1419.0781 L121.9844,1420.1719 Q121.9844,1421.4063 122.875,1422.2344 Q123.7656,1423.0469 125.3594,1423.0469 Q126.2969,1423.0469 126.9531,1422.7969 Q127.3438,1422.6406 127.7656,1422.2031 Q128.0313,1421.9375 128.1719,1421.8594 Q128.3281,1421.7813 128.5313,1421.7813 Q128.8594,1421.7813 129.1094,1422.0469 Q129.375,1422.2969 129.375,1422.6406 Q129.375,1422.9844 129.0313,1423.3906 Q128.5313,1423.9688 127.7344,1424.2969 Q126.6563,1424.75 125.3594,1424.75 Q123.8438,1424.75 122.6406,1424.125 Q121.6563,1423.625 120.9688,1422.5625 Q120.2813,1421.4844 120.2813,1420.2031 L120.2813,1419.0469 Q120.2813,1417.7188 120.8906,1416.5781 Q121.5156,1415.4219 122.6094,1414.8125 Q123.7031,1414.1875 124.9375,1414.1875 Q125.6719,1414.1875 126.3125,1414.3594 Q126.9688,1414.5156 127.5156,1414.875 Z " fill="#000000"/><text fill="#000000" font-family="sans-serif" font-size="14" lengthAdjust="spacing" textLength="50" x="145.25" y="1424.7969">Building</text><line style="stroke:#181818;stroke-width:0.5;" x1="75.5" x2="232.5" y1="1435" y2="1435"/><text fill="#000000" font-family="sans-serif" font-size="14" lengthAdjust="spacing" textLength="116" x="80.5" y="1454.1074">-Integer bedrooms</text><text fill="#000000" font-family="sans-serif" font-size="14" lengthAdjust="spacing" textLength="120" x="80.5" y="1472.7285">-Integer bathrooms</text><text fill="#000000" font-family="sans-serif" font-size="14" lengthAdjust="spacing" textLength="147" x="80.5" y="1491.3496">-Integer parkingSpaces</text><line style="stroke:#181818;stroke-width:0.5;" x1="75.5" x2="232.5" y1="1498.8633" y2="1498.8633"/><text fill="#000000" font-family="sans-serif" font-size="14" lengthAdjust="spacing" textLength="98" x="80.5" y="1517.9707">-setBedrooms()</text><text fill="#000000" font-family="sans-serif" font-size="14" lengthAdjust="spacing" textLength="102" x="80.5" y="1536.5918">-setBathrooms()</text><text fill="#000000" font-family="sans-serif" font-size="14" lengthAdjust="spacing" textLength="129" x="80.5" y="1555.2129">-setParkingSpaces()</text><text fill="#000000" font-family="sans-serif" font-size="14" lengthAdjust="spacing" textLength="102" x="80.5" y="1573.834">+getBedrooms()</text><text fill="#000000" font-family="sans-serif" font-size="14" lengthAdjust="spacing" textLength="106" x="80.5" y="1592.4551">+getBathrooms()</text><text fill="#000000" font-family="sans-serif" font-size="14" lengthAdjust="spacing" textLength="133" x="80.5" y="1611.0762">+getParkingSpaces()</text></g><!--class Equipment--><g id="elem_Equipment"><rect
        fill="#F1F1F1" height="103.8633" id="Equipment" rx="2.5" ry="2.5" style="stroke:#181818;stroke-width:0.5;" width="153" x="46.5" y="1211"/><ellipse cx="85.8" cy="1227" fill="#ADD1B2" rx="11" ry="11" style="stroke:#181818;stroke-width:1.0;"/><path d="M88.5656,1222.875 Q88.7219,1222.6563 88.9094,1222.5469 Q89.0969,1222.4375 89.3156,1222.4375 Q89.6906,1222.4375 89.925,1222.7031 Q90.1594,1222.9531 90.1594,1223.5625 L90.1594,1225.0156 Q90.1594,1225.625 89.925,1225.8906 Q89.6906,1226.1563 89.3156,1226.1563 Q88.9719,1226.1563 88.7688,1225.9531 Q88.5656,1225.7656 88.4563,1225.25 Q88.4094,1224.8906 88.2219,1224.7031 Q87.8938,1224.3281 87.2844,1224.1094 Q86.675,1223.8906 86.05,1223.8906 Q85.2844,1223.8906 84.6438,1224.2188 Q84.0188,1224.5469 83.5188,1225.2969 Q83.0344,1226.0469 83.0344,1227.0781 L83.0344,1228.1719 Q83.0344,1229.4063 83.925,1230.2344 Q84.8156,1231.0469 86.4094,1231.0469 Q87.3469,1231.0469 88.0031,1230.7969 Q88.3938,1230.6406 88.8156,1230.2031 Q89.0813,1229.9375 89.2219,1229.8594 Q89.3781,1229.7813 89.5813,1229.7813 Q89.9094,1229.7813 90.1594,1230.0469 Q90.425,1230.2969 90.425,1230.6406 Q90.425,1230.9844 90.0813,1231.3906 Q89.5813,1231.9688 88.7844,1232.2969 Q87.7063,1232.75 86.4094,1232.75 Q84.8938,1232.75 83.6906,1232.125 Q82.7063,1231.625 82.0188,1230.5625 Q81.3313,1229.4844 81.3313,1228.2031 L81.3313,1227.0469 Q81.3313,1225.7188 81.9406,1224.5781 Q82.5656,1223.4219 83.6594,1222.8125 Q84.7531,1222.1875 85.9875,1222.1875 Q86.7219,1222.1875 87.3625,1222.3594 Q88.0188,1222.5156 88.5656,1222.875 Z " fill="#000000"/><text fill="#000000" font-family="sans-serif" font-size="14" lengthAdjust="spacing" textLength="67" x="105.2" y="1232.7969">Equipment</text><line style="stroke:#181818;stroke-width:0.5;" x1="47.5" x2="198.5" y1="1243" y2="1243"/><text fill="#000000" font-family="sans-serif" font-size="14" lengthAdjust="spacing" textLength="81" x="52.5" y="1262.1074">-String name</text><line style="stroke:#181818;stroke-width:0.5;" x1="47.5" x2="198.5" y1="1269.6211" y2="1269.6211"/><text fill="#000000" font-family="sans-serif" font-size="14" lengthAdjust="spacing" textLength="137" x="52.5" y="1288.7285">-setEquipmentName()</text><text fill="#000000" font-family="sans-serif" font-size="14" lengthAdjust="spacing" textLength="141" x="52.5" y="1307.3496">+getEquipmentName()</text></g><!--class House--><g id="elem_House"><rect
        fill="#F1F1F1" height="215.5898" id="House" rx="2.5" ry="2.5" style="stroke:#181818;stroke-width:0.5;" width="140" x="7" y="1679"/><ellipse cx="52.75" cy="1695" fill="#ADD1B2" rx="11" ry="11" style="stroke:#181818;stroke-width:1.0;"/><path d="M55.5156,1690.875 Q55.6719,1690.6563 55.8594,1690.5469 Q56.0469,1690.4375 56.2656,1690.4375 Q56.6406,1690.4375 56.875,1690.7031 Q57.1094,1690.9531 57.1094,1691.5625 L57.1094,1693.0156 Q57.1094,1693.625 56.875,1693.8906 Q56.6406,1694.1563 56.2656,1694.1563 Q55.9219,1694.1563 55.7188,1693.9531 Q55.5156,1693.7656 55.4063,1693.25 Q55.3594,1692.8906 55.1719,1692.7031 Q54.8438,1692.3281 54.2344,1692.1094 Q53.625,1691.8906 53,1691.8906 Q52.2344,1691.8906 51.5938,1692.2188 Q50.9688,1692.5469 50.4688,1693.2969 Q49.9844,1694.0469 49.9844,1695.0781 L49.9844,1696.1719 Q49.9844,1697.4063 50.875,1698.2344 Q51.7656,1699.0469 53.3594,1699.0469 Q54.2969,1699.0469 54.9531,1698.7969 Q55.3438,1698.6406 55.7656,1698.2031 Q56.0313,1697.9375 56.1719,1697.8594 Q56.3281,1697.7813 56.5313,1697.7813 Q56.8594,1697.7813 57.1094,1698.0469 Q57.375,1698.2969 57.375,1698.6406 Q57.375,1698.9844 57.0313,1699.3906 Q56.5313,1699.9688 55.7344,1700.2969 Q54.6563,1700.75 53.3594,1700.75 Q51.8438,1700.75 50.6406,1700.125 Q49.6563,1699.625 48.9688,1698.5625 Q48.2813,1697.4844 48.2813,1696.2031 L48.2813,1695.0469 Q48.2813,1693.7188 48.8906,1692.5781 Q49.5156,1691.4219 50.6094,1690.8125 Q51.7031,1690.1875 52.9375,1690.1875 Q53.6719,1690.1875 54.3125,1690.3594 Q54.9688,1690.5156 55.5156,1690.875 Z " fill="#000000"/><text fill="#000000" font-family="sans-serif" font-size="14" lengthAdjust="spacing" textLength="40" x="73.25" y="1700.7969">House</text><line style="stroke:#181818;stroke-width:0.5;" x1="8" x2="146" y1="1711" y2="1711"/><text fill="#000000" font-family="sans-serif" font-size="14" lengthAdjust="spacing" textLength="123" x="13" y="1730.1074">-Boolean basement</text><text fill="#000000" font-family="sans-serif" font-size="14" lengthAdjust="spacing" textLength="80" x="13" y="1748.7285">-Boolean loft</text><text fill="#000000" font-family="sans-serif" font-size="14" lengthAdjust="spacing" textLength="128" x="13" y="1767.3496">-String sunExposure</text><line style="stroke:#181818;stroke-width:0.5;" x1="8" x2="146" y1="1774.8633" y2="1774.8633"/><text fill="#000000" font-family="sans-serif" font-size="14" lengthAdjust="spacing" textLength="97" x="13" y="1793.9707">-setBasement()</text><text fill="#000000" font-family="sans-serif" font-size="14" lengthAdjust="spacing" textLength="58" x="13" y="1812.5918">-setLoft()</text><text fill="#000000" font-family="sans-serif" font-size="14" lengthAdjust="spacing" textLength="118" x="13" y="1831.2129">-setSunExposure()</text><text fill="#000000" font-family="sans-serif" font-size="14" lengthAdjust="spacing" textLength="101" x="13" y="1849.834">+getBasement()</text><text fill="#000000" font-family="sans-serif" font-size="14" lengthAdjust="spacing" textLength="62" x="13" y="1868.4551">+getLoft()</text><text fill="#000000" font-family="sans-serif" font-size="14" lengthAdjust="spacing" textLength="122" x="13" y="1887.0762">+getSunExposure()</text></g><!--class CreateListingController--><g id="elem_CreateListingController"><rect
        fill="#F1F1F1" height="122.4844" id="CreateListingController" rx="2.5" ry="2.5" style="stroke:#181818;stroke-width:0.5;" width="1425" x="444.5" y="781"/><ellipse cx="1079.75" cy="797" fill="#ADD1B2" rx="11" ry="11" style="stroke:#181818;stroke-width:1.0;"/><path d="M1082.5156,792.875 Q1082.6719,792.6563 1082.8594,792.5469 Q1083.0469,792.4375 1083.2656,792.4375 Q1083.6406,792.4375 1083.875,792.7031 Q1084.1094,792.9531 1084.1094,793.5625 L1084.1094,795.0156 Q1084.1094,795.625 1083.875,795.8906 Q1083.6406,796.1563 1083.2656,796.1563 Q1082.9219,796.1563 1082.7188,795.9531 Q1082.5156,795.7656 1082.4063,795.25 Q1082.3594,794.8906 1082.1719,794.7031 Q1081.8438,794.3281 1081.2344,794.1094 Q1080.625,793.8906 1080,793.8906 Q1079.2344,793.8906 1078.5938,794.2188 Q1077.9688,794.5469 1077.4688,795.2969 Q1076.9844,796.0469 1076.9844,797.0781 L1076.9844,798.1719 Q1076.9844,799.4063 1077.875,800.2344 Q1078.7656,801.0469 1080.3594,801.0469 Q1081.2969,801.0469 1081.9531,800.7969 Q1082.3438,800.6406 1082.7656,800.2031 Q1083.0313,799.9375 1083.1719,799.8594 Q1083.3281,799.7813 1083.5313,799.7813 Q1083.8594,799.7813 1084.1094,800.0469 Q1084.375,800.2969 1084.375,800.6406 Q1084.375,800.9844 1084.0313,801.3906 Q1083.5313,801.9688 1082.7344,802.2969 Q1081.6563,802.75 1080.3594,802.75 Q1078.8438,802.75 1077.6406,802.125 Q1076.6563,801.625 1075.9688,800.5625 Q1075.2813,799.4844 1075.2813,798.2031 L1075.2813,797.0469 Q1075.2813,795.7188 1075.8906,794.5781 Q1076.5156,793.4219 1077.6094,792.8125 Q1078.7031,792.1875 1079.9375,792.1875 Q1080.6719,792.1875 1081.3125,792.3594 Q1081.9688,792.5156 1082.5156,792.875 Z " fill="#000000"/><text fill="#000000" font-family="sans-serif" font-size="14" lengthAdjust="spacing" textLength="146" x="1100.25" y="802.7969">CreateListingController</text><line style="stroke:#181818;stroke-width:0.5;" x1="445.5" x2="1868.5" y1="813" y2="813"/><line style="stroke:#181818;stroke-width:0.5;" x1="445.5" x2="1868.5" y1="821" y2="821"/><text fill="#000000" font-family="sans-serif" font-size="14" lengthAdjust="spacing" textLength="904" x="450.5" y="840.1074">+createLand(agent,area, distanceFromCentre, pathToPNG, street, city, district, state, zipCode, transactionType, monetaryValue, propertyType)</text><text fill="#000000" font-family="sans-serif" font-size="14" lengthAdjust="spacing" textLength="1185" x="450.5" y="858.7285">+createApartment(agent,area, distanceFromCentre, pathToPNG, street, city, district, state, zipCode, transactionType, monetaryValue, bedrooms, bathrooms, parkingSpaces, propertyType)</text><text fill="#000000" font-family="sans-serif" font-size="14" lengthAdjust="spacing" textLength="1413" x="450.5" y="877.3496">+createHouse(agent,area, distance from centre, url of the photo, street, city, district, state, zipCode, type of transaction, value of transaction, bedrooms, bathrooms, parkingSpaces, basement, loft, sunExposure, propertyType)</text><text fill="#000000" font-family="sans-serif" font-size="14" lengthAdjust="spacing" textLength="217" x="450.5" y="895.9707">+CreateListingController(property)</text></g><!--class PropertyRepository--><g id="elem_PropertyRepository"><rect
        fill="#F1F1F1" height="66.6211" id="PropertyRepository" rx="2.5" ry="2.5" style="stroke:#181818;stroke-width:0.5;" width="289" x="1285.5" y="1229.5"/><ellipse cx="1364.75" cy="1245.5" fill="#ADD1B2" rx="11" ry="11" style="stroke:#181818;stroke-width:1.0;"/><path d="M1367.5156,1241.375 Q1367.6719,1241.1563 1367.8594,1241.0469 Q1368.0469,1240.9375 1368.2656,1240.9375 Q1368.6406,1240.9375 1368.875,1241.2031 Q1369.1094,1241.4531 1369.1094,1242.0625 L1369.1094,1243.5156 Q1369.1094,1244.125 1368.875,1244.3906 Q1368.6406,1244.6563 1368.2656,1244.6563 Q1367.9219,1244.6563 1367.7188,1244.4531 Q1367.5156,1244.2656 1367.4063,1243.75 Q1367.3594,1243.3906 1367.1719,1243.2031 Q1366.8438,1242.8281 1366.2344,1242.6094 Q1365.625,1242.3906 1365,1242.3906 Q1364.2344,1242.3906 1363.5938,1242.7188 Q1362.9688,1243.0469 1362.4688,1243.7969 Q1361.9844,1244.5469 1361.9844,1245.5781 L1361.9844,1246.6719 Q1361.9844,1247.9063 1362.875,1248.7344 Q1363.7656,1249.5469 1365.3594,1249.5469 Q1366.2969,1249.5469 1366.9531,1249.2969 Q1367.3438,1249.1406 1367.7656,1248.7031 Q1368.0313,1248.4375 1368.1719,1248.3594 Q1368.3281,1248.2813 1368.5313,1248.2813 Q1368.8594,1248.2813 1369.1094,1248.5469 Q1369.375,1248.7969 1369.375,1249.1406 Q1369.375,1249.4844 1369.0313,1249.8906 Q1368.5313,1250.4688 1367.7344,1250.7969 Q1366.6563,1251.25 1365.3594,1251.25 Q1363.8438,1251.25 1362.6406,1250.625 Q1361.6563,1250.125 1360.9688,1249.0625 Q1360.2813,1247.9844 1360.2813,1246.7031 L1360.2813,1245.5469 Q1360.2813,1244.2188 1360.8906,1243.0781 Q1361.5156,1241.9219 1362.6094,1241.3125 Q1363.7031,1240.6875 1364.9375,1240.6875 Q1365.6719,1240.6875 1366.3125,1240.8594 Q1366.9688,1241.0156 1367.5156,1241.375 Z " fill="#000000"/><text fill="#000000" font-family="sans-serif" font-size="14" lengthAdjust="spacing" textLength="122" x="1385.25" y="1251.2969">PropertyRepository</text><line style="stroke:#181818;stroke-width:0.5;" x1="1286.5" x2="1573.5" y1="1261.5" y2="1261.5"/><line style="stroke:#181818;stroke-width:0.5;" x1="1286.5" x2="1573.5" y1="1269.5" y2="1269.5"/><text fill="#000000" font-family="sans-serif" font-size="14" lengthAdjust="spacing" textLength="277" x="1291.5" y="1288.6074">+addProperty(property, stateOfAcceptance)</text></g><!--class Land--><g id="elem_Land"><rect
        fill="#F1F1F1" height="48" id="Land" rx="2.5" ry="2.5" style="stroke:#181818;stroke-width:0.5;" width="64" x="300" y="1487"/><ellipse cx="315" cy="1503" fill="#ADD1B2" rx="11" ry="11" style="stroke:#181818;stroke-width:1.0;"/><path d="M317.7656,1498.875 Q317.9219,1498.6563 318.1094,1498.5469 Q318.2969,1498.4375 318.5156,1498.4375 Q318.8906,1498.4375 319.125,1498.7031 Q319.3594,1498.9531 319.3594,1499.5625 L319.3594,1501.0156 Q319.3594,1501.625 319.125,1501.8906 Q318.8906,1502.1563 318.5156,1502.1563 Q318.1719,1502.1563 317.9688,1501.9531 Q317.7656,1501.7656 317.6563,1501.25 Q317.6094,1500.8906 317.4219,1500.7031 Q317.0938,1500.3281 316.4844,1500.1094 Q315.875,1499.8906 315.25,1499.8906 Q314.4844,1499.8906 313.8438,1500.2188 Q313.2188,1500.5469 312.7188,1501.2969 Q312.2344,1502.0469 312.2344,1503.0781 L312.2344,1504.1719 Q312.2344,1505.4063 313.125,1506.2344 Q314.0156,1507.0469 315.6094,1507.0469 Q316.5469,1507.0469 317.2031,1506.7969 Q317.5938,1506.6406 318.0156,1506.2031 Q318.2813,1505.9375 318.4219,1505.8594 Q318.5781,1505.7813 318.7813,1505.7813 Q319.1094,1505.7813 319.3594,1506.0469 Q319.625,1506.2969 319.625,1506.6406 Q319.625,1506.9844 319.2813,1507.3906 Q318.7813,1507.9688 317.9844,1508.2969 Q316.9063,1508.75 315.6094,1508.75 Q314.0938,1508.75 312.8906,1508.125 Q311.9063,1507.625 311.2188,1506.5625 Q310.5313,1505.4844 310.5313,1504.2031 L310.5313,1503.0469 Q310.5313,1501.7188 311.1406,1500.5781 Q311.7656,1499.4219 312.8594,1498.8125 Q313.9531,1498.1875 315.1875,1498.1875 Q315.9219,1498.1875 316.5625,1498.3594 Q317.2188,1498.5156 317.7656,1498.875 Z " fill="#000000"/><text fill="#000000" font-family="sans-serif" font-size="14" lengthAdjust="spacing" textLength="32" x="329" y="1508.7969">Land</text><line style="stroke:#181818;stroke-width:0.5;" x1="301" x2="363" y1="1519" y2="1519"/><line style="stroke:#181818;stroke-width:0.5;" x1="301" x2="363" y1="1527" y2="1527"/></g><!--class Apartment--><g id="elem_Apartment"><rect
        fill="#F1F1F1" height="48" id="Apartment" rx="2.5" ry="2.5" style="stroke:#181818;stroke-width:0.5;" width="97" x="182.5" y="1763"/><ellipse cx="197.5" cy="1779" fill="#ADD1B2" rx="11" ry="11" style="stroke:#181818;stroke-width:1.0;"/><path d="M200.2656,1774.875 Q200.4219,1774.6563 200.6094,1774.5469 Q200.7969,1774.4375 201.0156,1774.4375 Q201.3906,1774.4375 201.625,1774.7031 Q201.8594,1774.9531 201.8594,1775.5625 L201.8594,1777.0156 Q201.8594,1777.625 201.625,1777.8906 Q201.3906,1778.1563 201.0156,1778.1563 Q200.6719,1778.1563 200.4688,1777.9531 Q200.2656,1777.7656 200.1563,1777.25 Q200.1094,1776.8906 199.9219,1776.7031 Q199.5938,1776.3281 198.9844,1776.1094 Q198.375,1775.8906 197.75,1775.8906 Q196.9844,1775.8906 196.3438,1776.2188 Q195.7188,1776.5469 195.2188,1777.2969 Q194.7344,1778.0469 194.7344,1779.0781 L194.7344,1780.1719 Q194.7344,1781.4063 195.625,1782.2344 Q196.5156,1783.0469 198.1094,1783.0469 Q199.0469,1783.0469 199.7031,1782.7969 Q200.0938,1782.6406 200.5156,1782.2031 Q200.7813,1781.9375 200.9219,1781.8594 Q201.0781,1781.7813 201.2813,1781.7813 Q201.6094,1781.7813 201.8594,1782.0469 Q202.125,1782.2969 202.125,1782.6406 Q202.125,1782.9844 201.7813,1783.3906 Q201.2813,1783.9688 200.4844,1784.2969 Q199.4063,1784.75 198.1094,1784.75 Q196.5938,1784.75 195.3906,1784.125 Q194.4063,1783.625 193.7188,1782.5625 Q193.0313,1781.4844 193.0313,1780.2031 L193.0313,1779.0469 Q193.0313,1777.7188 193.6406,1776.5781 Q194.2656,1775.4219 195.3594,1774.8125 Q196.4531,1774.1875 197.6875,1774.1875 Q198.4219,1774.1875 199.0625,1774.3594 Q199.7188,1774.5156 200.2656,1774.875 Z " fill="#000000"/><text fill="#000000" font-family="sans-serif" font-size="14" lengthAdjust="spacing" textLength="65" x="211.5" y="1784.7969">Apartment</text><line style="stroke:#181818;stroke-width:0.5;" x1="183.5" x2="278.5" y1="1795" y2="1795"/><line style="stroke:#181818;stroke-width:0.5;" x1="183.5" x2="278.5" y1="1803" y2="1803"/></g><!--class Owner--><g id="elem_Owner"><rect
        fill="#F1F1F1" height="327.3164" id="Owner" rx="2.5" ry="2.5" style="stroke:#181818;stroke-width:0.5;" width="200" x="138" y="394"/><ellipse cx="213.25" cy="410" fill="#ADD1B2" rx="11" ry="11" style="stroke:#181818;stroke-width:1.0;"/><path d="M216.0156,405.875 Q216.1719,405.6563 216.3594,405.5469 Q216.5469,405.4375 216.7656,405.4375 Q217.1406,405.4375 217.375,405.7031 Q217.6094,405.9531 217.6094,406.5625 L217.6094,408.0156 Q217.6094,408.625 217.375,408.8906 Q217.1406,409.1563 216.7656,409.1563 Q216.4219,409.1563 216.2188,408.9531 Q216.0156,408.7656 215.9063,408.25 Q215.8594,407.8906 215.6719,407.7031 Q215.3438,407.3281 214.7344,407.1094 Q214.125,406.8906 213.5,406.8906 Q212.7344,406.8906 212.0938,407.2188 Q211.4688,407.5469 210.9688,408.2969 Q210.4844,409.0469 210.4844,410.0781 L210.4844,411.1719 Q210.4844,412.4063 211.375,413.2344 Q212.2656,414.0469 213.8594,414.0469 Q214.7969,414.0469 215.4531,413.7969 Q215.8438,413.6406 216.2656,413.2031 Q216.5313,412.9375 216.6719,412.8594 Q216.8281,412.7813 217.0313,412.7813 Q217.3594,412.7813 217.6094,413.0469 Q217.875,413.2969 217.875,413.6406 Q217.875,413.9844 217.5313,414.3906 Q217.0313,414.9688 216.2344,415.2969 Q215.1563,415.75 213.8594,415.75 Q212.3438,415.75 211.1406,415.125 Q210.1563,414.625 209.4688,413.5625 Q208.7813,412.4844 208.7813,411.2031 L208.7813,410.0469 Q208.7813,408.7188 209.3906,407.5781 Q210.0156,406.4219 211.1094,405.8125 Q212.2031,405.1875 213.4375,405.1875 Q214.1719,405.1875 214.8125,405.3594 Q215.4688,405.5156 216.0156,405.875 Z " fill="#000000"/><text fill="#000000" font-family="sans-serif" font-size="14" lengthAdjust="spacing" textLength="41" x="233.75" y="415.7969">Owner</text><line style="stroke:#181818;stroke-width:0.5;" x1="139" x2="337" y1="426" y2="426"/><text fill="#000000" font-family="sans-serif" font-size="14" lengthAdjust="spacing" textLength="81" x="144" y="445.1074">-String name</text><text fill="#000000" font-family="sans-serif" font-size="14" lengthAdjust="spacing" textLength="188" x="144" y="463.7285">-Integer passportCardNumber</text><text fill="#000000" font-family="sans-serif" font-size="14" lengthAdjust="spacing" textLength="120" x="144" y="482.3496">-Integer taxNumber</text><text fill="#000000" font-family="sans-serif" font-size="14" lengthAdjust="spacing" textLength="131" x="144" y="500.9707">-String emailAddress</text><text fill="#000000" font-family="sans-serif" font-size="14" lengthAdjust="spacing" textLength="165" x="144" y="519.5918">-Integer telephoneNumber</text><line style="stroke:#181818;stroke-width:0.5;" x1="139" x2="337" y1="527.1055" y2="527.1055"/><text fill="#000000" font-family="sans-serif" font-size="14" lengthAdjust="spacing" textLength="155" x="144" y="546.2129">+getTelephoneNumber()</text><text fill="#000000" font-family="sans-serif" font-size="14" lengthAdjust="spacing" textLength="124" x="144" y="564.834">+getEmailAddress()</text><text fill="#000000" font-family="sans-serif" font-size="14" lengthAdjust="spacing" textLength="110" x="144" y="583.4551">+getTaxNumber()</text><text fill="#000000" font-family="sans-serif" font-size="14" lengthAdjust="spacing" textLength="167" x="144" y="602.0762">+getCitizensCardNumber()</text><text fill="#000000" font-family="sans-serif" font-size="14" lengthAdjust="spacing" textLength="74" x="144" y="620.6973">+getName()</text><text fill="#000000" font-family="sans-serif" font-size="14" lengthAdjust="spacing" textLength="151" x="144" y="639.3184">-setTelephoneNumber()</text><text fill="#000000" font-family="sans-serif" font-size="14" lengthAdjust="spacing" textLength="120" x="144" y="657.9395">-setEmailAddress()</text><text fill="#000000" font-family="sans-serif" font-size="14" lengthAdjust="spacing" textLength="106" x="144" y="676.5605">-setTaxNumber()</text><text fill="#000000" font-family="sans-serif" font-size="14" lengthAdjust="spacing" textLength="163" x="144" y="695.1816">-setCitizensCardNumber()</text><text fill="#000000" font-family="sans-serif" font-size="14" lengthAdjust="spacing" textLength="70" x="144" y="713.8027">-setName()</text></g><!--class CreateListingUI--><g id="elem_CreateListingUI"><rect
        fill="#F1F1F1" height="85.2422" id="CreateListingUI" rx="2.5" ry="2.5" style="stroke:#181818;stroke-width:0.5;" width="154" x="762" y="515"/><ellipse cx="788.7" cy="531" fill="#ADD1B2" rx="11" ry="11" style="stroke:#181818;stroke-width:1.0;"/><path d="M791.4656,526.875 Q791.6219,526.6563 791.8094,526.5469 Q791.9969,526.4375 792.2156,526.4375 Q792.5906,526.4375 792.825,526.7031 Q793.0594,526.9531 793.0594,527.5625 L793.0594,529.0156 Q793.0594,529.625 792.825,529.8906 Q792.5906,530.1563 792.2156,530.1563 Q791.8719,530.1563 791.6688,529.9531 Q791.4656,529.7656 791.3563,529.25 Q791.3094,528.8906 791.1219,528.7031 Q790.7938,528.3281 790.1844,528.1094 Q789.575,527.8906 788.95,527.8906 Q788.1844,527.8906 787.5438,528.2188 Q786.9188,528.5469 786.4188,529.2969 Q785.9344,530.0469 785.9344,531.0781 L785.9344,532.1719 Q785.9344,533.4063 786.825,534.2344 Q787.7156,535.0469 789.3094,535.0469 Q790.2469,535.0469 790.9031,534.7969 Q791.2938,534.6406 791.7156,534.2031 Q791.9813,533.9375 792.1219,533.8594 Q792.2781,533.7813 792.4813,533.7813 Q792.8094,533.7813 793.0594,534.0469 Q793.325,534.2969 793.325,534.6406 Q793.325,534.9844 792.9813,535.3906 Q792.4813,535.9688 791.6844,536.2969 Q790.6063,536.75 789.3094,536.75 Q787.7938,536.75 786.5906,536.125 Q785.6063,535.625 784.9188,534.5625 Q784.2313,533.4844 784.2313,532.2031 L784.2313,531.0469 Q784.2313,529.7188 784.8406,528.5781 Q785.4656,527.4219 786.5594,526.8125 Q787.6531,526.1875 788.8875,526.1875 Q789.6219,526.1875 790.2625,526.3594 Q790.9188,526.5156 791.4656,526.875 Z " fill="#000000"/><text fill="#000000" font-family="sans-serif" font-size="14" lengthAdjust="spacing" textLength="96" x="805.3" y="536.7969">CreateListingUI</text><line style="stroke:#181818;stroke-width:0.5;" x1="763" x2="915" y1="547" y2="547"/><line style="stroke:#181818;stroke-width:0.5;" x1="763" x2="915" y1="555" y2="555"/><text fill="#000000" font-family="sans-serif" font-size="14" lengthAdjust="spacing" textLength="142" x="768" y="574.1074">+keepPropertyTypes()</text><text fill="#000000" font-family="sans-serif" font-size="14" lengthAdjust="spacing" textLength="86" x="768" y="592.7285">+keepAgent()</text></g><!--class Repositories--><g id="elem_Repositories"><rect
        fill="#F1F1F1" height="141.1055" id="Repositories" rx="2.5" ry="2.5" style="stroke:#181818;stroke-width:0.5;" width="204" x="1055" y="972.5"/><ellipse cx="1113.25" cy="988.5" fill="#ADD1B2" rx="11" ry="11" style="stroke:#181818;stroke-width:1.0;"/><path d="M1116.0156,984.375 Q1116.1719,984.1563 1116.3594,984.0469 Q1116.5469,983.9375 1116.7656,983.9375 Q1117.1406,983.9375 1117.375,984.2031 Q1117.6094,984.4531 1117.6094,985.0625 L1117.6094,986.5156 Q1117.6094,987.125 1117.375,987.3906 Q1117.1406,987.6563 1116.7656,987.6563 Q1116.4219,987.6563 1116.2188,987.4531 Q1116.0156,987.2656 1115.9063,986.75 Q1115.8594,986.3906 1115.6719,986.2031 Q1115.3438,985.8281 1114.7344,985.6094 Q1114.125,985.3906 1113.5,985.3906 Q1112.7344,985.3906 1112.0938,985.7188 Q1111.4688,986.0469 1110.9688,986.7969 Q1110.4844,987.5469 1110.4844,988.5781 L1110.4844,989.6719 Q1110.4844,990.9063 1111.375,991.7344 Q1112.2656,992.5469 1113.8594,992.5469 Q1114.7969,992.5469 1115.4531,992.2969 Q1115.8438,992.1406 1116.2656,991.7031 Q1116.5313,991.4375 1116.6719,991.3594 Q1116.8281,991.2813 1117.0313,991.2813 Q1117.3594,991.2813 1117.6094,991.5469 Q1117.875,991.7969 1117.875,992.1406 Q1117.875,992.4844 1117.5313,992.8906 Q1117.0313,993.4688 1116.2344,993.7969 Q1115.1563,994.25 1113.8594,994.25 Q1112.3438,994.25 1111.1406,993.625 Q1110.1563,993.125 1109.4688,992.0625 Q1108.7813,990.9844 1108.7813,989.7031 L1108.7813,988.5469 Q1108.7813,987.2188 1109.3906,986.0781 Q1110.0156,984.9219 1111.1094,984.3125 Q1112.2031,983.6875 1113.4375,983.6875 Q1114.1719,983.6875 1114.8125,983.8594 Q1115.4688,984.0156 1116.0156,984.375 Z " fill="#000000"/><text fill="#000000" font-family="sans-serif" font-size="14" lengthAdjust="spacing" textLength="79" x="1133.75" y="994.2969">Repositories</text><line style="stroke:#181818;stroke-width:0.5;" x1="1056" x2="1258" y1="1004.5" y2="1004.5"/><line style="stroke:#181818;stroke-width:0.5;" x1="1056" x2="1258" y1="1012.5" y2="1012.5"/><text fill="#000000" font-family="sans-serif" font-size="14" lengthAdjust="spacing" textLength="94" x="1061" y="1031.6074">-Repositories()</text><text fill="#000000" font-family="sans-serif" font-size="14" lengthAdjust="spacing" textLength="91" x="1061" y="1050.2285">+getInstance()</text><text fill="#000000" font-family="sans-serif" font-size="14" lengthAdjust="spacing" textLength="143" x="1061" y="1068.8496">+getAgentRepository()</text><text fill="#000000" font-family="sans-serif" font-size="14" lengthAdjust="spacing" textLength="192" x="1061" y="1087.4707">+getPropertyTypeRepository()</text><text fill="#000000" font-family="sans-serif" font-size="14" lengthAdjust="spacing" textLength="160" x="1061" y="1106.0918">+getPropertyRepository()</text></g><!--class AgentRepository--><g id="elem_AgentRepository"><rect
        fill="#F1F1F1" height="66.6211" id="AgentRepository" rx="2.5" ry="2.5" style="stroke:#181818;stroke-width:0.5;" width="137" x="891.5" y="1229.5"/><ellipse cx="906.5" cy="1245.5" fill="#ADD1B2" rx="11" ry="11" style="stroke:#181818;stroke-width:1.0;"/><path d="M909.2656,1241.375 Q909.4219,1241.1563 909.6094,1241.0469 Q909.7969,1240.9375 910.0156,1240.9375 Q910.3906,1240.9375 910.625,1241.2031 Q910.8594,1241.4531 910.8594,1242.0625 L910.8594,1243.5156 Q910.8594,1244.125 910.625,1244.3906 Q910.3906,1244.6563 910.0156,1244.6563 Q909.6719,1244.6563 909.4688,1244.4531 Q909.2656,1244.2656 909.1563,1243.75 Q909.1094,1243.3906 908.9219,1243.2031 Q908.5938,1242.8281 907.9844,1242.6094 Q907.375,1242.3906 906.75,1242.3906 Q905.9844,1242.3906 905.3438,1242.7188 Q904.7188,1243.0469 904.2188,1243.7969 Q903.7344,1244.5469 903.7344,1245.5781 L903.7344,1246.6719 Q903.7344,1247.9063 904.625,1248.7344 Q905.5156,1249.5469 907.1094,1249.5469 Q908.0469,1249.5469 908.7031,1249.2969 Q909.0938,1249.1406 909.5156,1248.7031 Q909.7813,1248.4375 909.9219,1248.3594 Q910.0781,1248.2813 910.2813,1248.2813 Q910.6094,1248.2813 910.8594,1248.5469 Q911.125,1248.7969 911.125,1249.1406 Q911.125,1249.4844 910.7813,1249.8906 Q910.2813,1250.4688 909.4844,1250.7969 Q908.4063,1251.25 907.1094,1251.25 Q905.5938,1251.25 904.3906,1250.625 Q903.4063,1250.125 902.7188,1249.0625 Q902.0313,1247.9844 902.0313,1246.7031 L902.0313,1245.5469 Q902.0313,1244.2188 902.6406,1243.0781 Q903.2656,1241.9219 904.3594,1241.3125 Q905.4531,1240.6875 906.6875,1240.6875 Q907.4219,1240.6875 908.0625,1240.8594 Q908.7188,1241.0156 909.2656,1241.375 Z " fill="#000000"/><text fill="#000000" font-family="sans-serif" font-size="14" lengthAdjust="spacing" textLength="105" x="920.5" y="1251.2969">AgentRepository</text><line style="stroke:#181818;stroke-width:0.5;" x1="892.5" x2="1027.5" y1="1261.5" y2="1261.5"/><line style="stroke:#181818;stroke-width:0.5;" x1="892.5" x2="1027.5" y1="1269.5" y2="1269.5"/><text fill="#000000" font-family="sans-serif" font-size="14" lengthAdjust="spacing" textLength="97" x="897.5" y="1288.6074">+getAgentList()</text></g><!--link CreateListingController to Repositories--><g id="link_CreateListingController_Repositories"><path
        d="M1157,903.25 C1157,923.37 1157,946.04 1157,967.14 " fill="none" id="CreateListingController-to-Repositories" style="stroke:#181818;stroke-width:1.0;stroke-dasharray:7.0,7.0;"/><polygon fill="#181818" points="1157,972.18,1161,963.18,1157,967.18,1153,963.18,1157,972.18" style="stroke:#181818;stroke-width:1.0;"/></g><!--reverse link Property to Land--><g id="link_Property_Land"><path
        d="M332,1363.3 C332,1408.7 332,1458.57 332,1486.91 " fill="none" id="Property-backto-Land" style="stroke:#181818;stroke-width:1.0;"/><polygon fill="none" points="325,1363.19,332,1343.19,339,1363.19,325,1363.19" style="stroke:#181818;stroke-width:1.0;"/></g><!--link Owner to CreateListingUI--><g id="link_Owner_CreateListingUI"><path
        d="M338.17,557.5 C388.25,557.5 438.33,557.5 438.33,557.5 C438.33,557.5 638.67,557.5 638.67,557.5 C638.67,557.5 701.29,557.5 756.51,557.5 " fill="none" id="Owner-to-CreateListingUI" style="stroke:#181818;stroke-width:1.0;stroke-dasharray:7.0,7.0;"/><polygon fill="#181818" points="761.83,557.5,752.83,553.5,756.83,557.5,752.83,561.5,761.83,557.5" style="stroke:#181818;stroke-width:1.0;"/></g><!--link CreateListingUI to CreateListingController--><g id="link_CreateListingUI_CreateListingController"><path
        d="M885.92,600.18 C938.5,646.89 1024.34,723.15 1085.33,777.33 " fill="none" id="CreateListingUI-to-CreateListingController" style="stroke:#181818;stroke-width:1.0;stroke-dasharray:7.0,7.0;"/><polygon fill="#181818" points="1089.31,780.87,1085.2429,771.9001,1085.5737,777.5473,1079.9266,777.8781,1089.31,780.87" style="stroke:#181818;stroke-width:1.0;"/></g><!--link CreateListingController to Property--><g id="link_CreateListingController_Property"><path
        d="M1038.8,903.03 C876.55,985.44 587.55,1132.21 434.18,1210.11 " fill="none" id="CreateListingController-to-Property" style="stroke:#181818;stroke-width:1.0;stroke-dasharray:7.0,7.0;"/><polygon fill="#181818" points="429.68,1212.39,439.515,1211.8674,434.1349,1210.1197,435.8826,1204.7396,429.68,1212.39" style="stroke:#181818;stroke-width:1.0;"/></g><!--link TypeOfTransaction to Property--><g id="link_TypeOfTransaction_Property"><path
        d="M171.25,1116.59 C191.67,1135.07 213.84,1155.12 235,1174.26 " fill="none" id="TypeOfTransaction-to-Property" style="stroke:#181818;stroke-width:1.0;"/><polygon fill="#181818" points="244.64,1182.98,242.8704,1175.9894,235.7369,1174.9342,237.5065,1181.9248,244.64,1182.98" style="stroke:#181818;stroke-width:1.0;"/><text fill="#000000" font-family="sans-serif" font-size="13" lengthAdjust="spacing" textLength="105" x="178.9246" y="1117.3977">transaction</text></g><!--link Address to Owner--><g id="link_Address_Owner"><path
        d="M281.88,334.22 C278.84,349.61 275.75,365.26 272.69,380.77 " fill="none" id="Address-to-Owner" style="stroke:#181818;stroke-width:1.0;"/><polygon fill="#181818" points="270.13,393.75,275.2202,388.6422,272.4631,381.979,267.3729,387.0868,270.13,393.75" style="stroke:#181818;stroke-width:1.0;"/><text fill="#000000" font-family="sans-serif" font-size="13" lengthAdjust="spacing" textLength="46" x="224.5437" y="382.9727">address</text></g><!--link Address to Property--><g id="link_Address_Property"><path
        d="M343.96,334.08 C350.24,368.15 355,394 355,394 C355,394 355,1123 355,1123 C355,1123 351.51,1144.08 347.25,1169.82 " fill="none" id="Address-to-Property" style="stroke:#181818;stroke-width:1.0;"/><polygon fill="#181818" points="345.11,1182.76,350.0334,1177.4912,347.0635,1170.9201,342.1401,1176.1889,345.11,1182.76" style="stroke:#181818;stroke-width:1.0;"/><text fill="#000000" font-family="sans-serif" font-size="13" lengthAdjust="spacing" textLength="46" x="348.4389" y="1171.6336">address</text></g><!--link Equipment to Building--><g id="link_Equipment_Building"><path
        d="M129.46,1315.27 C132.2,1337.01 135.52,1363.35 138.82,1389.54 " fill="none" id="Equipment-to-Building" style="stroke:#181818;stroke-width:1.0;"/><polygon fill="#181818" points="140.49,1402.78,143.707,1396.3262,138.987,1390.8745,135.77,1397.3283,140.49,1402.78" style="stroke:#181818;stroke-width:1.0;"/><text fill="#000000" font-family="sans-serif" font-size="13" lengthAdjust="spacing" textLength="60" x="77.4307" y="1391.6261">equipment</text></g><!--link Photo to Property--><g id="link_Photo_Property"><path
        d="M286.07,1095.11 C292.2,1117.4 299.59,1144.23 306.62,1169.8 " fill="none" id="Photo-to-Property" style="stroke:#181818;stroke-width:1.0;"/><polygon fill="#181818" points="310.15,1182.62,312.4099,1175.7722,306.958,1171.0523,304.6981,1177.9002,310.15,1182.62" style="stroke:#181818;stroke-width:1.0;"/><text fill="#000000" font-family="sans-serif" font-size="13" lengthAdjust="spacing" textLength="32" x="274.779" y="1171.7576">photo</text></g><!--reverse link Property to Building--><g id="link_Property_Building"><path
        d="M262.88,1359.52 C252.64,1373.67 242.03,1388.34 231.63,1402.71 " fill="none" id="Property-backto-Building" style="stroke:#181818;stroke-width:1.0;"/><polygon fill="none" points="257.3,1355.29,274.7,1343.19,268.65,1363.5,257.3,1355.29" style="stroke:#181818;stroke-width:1.0;"/></g><!--reverse link Building to House--><g id="link_Building_House"><path
        d="M118.4,1638.69 C114.61,1652.15 110.79,1665.75 107.08,1678.96 " fill="none" id="Building-backto-House" style="stroke:#181818;stroke-width:1.0;"/><polygon fill="none" points="111.75,1636.47,123.9,1619.11,125.23,1640.26,111.75,1636.47" style="stroke:#181818;stroke-width:1.0;"/></g><!--link Repositories to PropertyRepository--><g id="link_Repositories_PropertyRepository"><path
        d="M1244.13,1113.58 C1290.95,1150.97 1346.74,1195.51 1384.89,1225.98 " fill="none" id="Repositories-to-PropertyRepository" style="stroke:#181818;stroke-width:1.0;stroke-dasharray:7.0,7.0;"/><polygon fill="#181818" points="1388.99,1229.25,1384.4727,1220.4982,1385.0898,1226.1213,1379.4668,1226.7385,1388.99,1229.25" style="stroke:#181818;stroke-width:1.0;"/></g><!--link Repositories to AgentRepository--><g id="link_Repositories_AgentRepository"><path
        d="M1094.13,1113.58 C1060.61,1150.66 1020.74,1194.79 993.22,1225.24 " fill="none" id="Repositories-to-AgentRepository" style="stroke:#181818;stroke-width:1.0;stroke-dasharray:7.0,7.0;"/><polygon fill="#181818" points="989.59,1229.25,998.6,1225.2726,992.9498,1225.5471,992.6753,1219.8969,989.59,1229.25" style="stroke:#181818;stroke-width:1.0;"/></g><!--link Repositories to PropertyTypeRepository--><g id="link_Repositories_PropertyTypeRepository"><path
        d="M1157,1113.58 C1157,1143.25 1157,1177.44 1157,1205.52 " fill="none" id="Repositories-to-PropertyTypeRepository" style="stroke:#181818;stroke-width:1.0;stroke-dasharray:7.0,7.0;"/><polygon fill="#181818" points="1157,1210.69,1161,1201.69,1157,1205.69,1153,1201.69,1157,1210.69" style="stroke:#181818;stroke-width:1.0;"/></g><!--reverse link Building to Apartment--><g id="link_Building_Apartment"><path
        d="M189.56,1638.52 C202.86,1685.85 216.63,1734.86 224.47,1762.77 " fill="none" id="Building-backto-Apartment" style="stroke:#181818;stroke-width:1.0;"/><polygon fill="none" points="182.77,1640.26,184.1,1619.11,196.25,1636.47,182.77,1640.26" style="stroke:#181818;stroke-width:1.0;"/></g><!--SRC=[nLPDSzis4BtpLs1qiLDJcVw0JcSaEKqquzYUokcXDvXSIXXJ00E0JHGt_xtuvWAYCksfEecxU0-xYxSBNAaNnWSgwP4S1HVDGOeZ42r7g2RFG9iNkeUTFlL093IQydsF5wW3RSKNnlUaext2dfvnqAS1o23wa_sehcQSGcfH8LJJKwLMMalsF6hODeBls3SWFrVLLG-T9beGoVO7JLfcms62LvN3a4Sf1f3wz5eHyrlUYl7Pn4mbq8Sk-Z9NovH9fu7VJE8Ru5f2vVqAz2g3NRz9ZjipK73Ux2-Wh6CMLNsFeJ-PIZnqJv9oHLrE8OUTAOEfh9uSTcNcCqS7cihJ7xGVKVnFEGGby143K8Zp2Eif4LFSgxQLe5GUhJBPWSvC3Okb3mPRUiaQNG2fpfFxneQDQ55QEyUDijcmizEnlCYqiwpe-q_FYVBBIAq1aSR3GwGUCf7QxudqUob7MypVOH2AQI63E5s6LBE6X4JlA6_dFIlJ5lfe93Fl_Y16qtJJfWUXHJYEBTUm1qa6QzlUPeKTg3uyYSVxzxwqDwOk3dfBDSL9h4VMjmPGK3v3AuKugi9gI6VC9W7JtVkT6IMWfgDS1mvqDEj8W6oF68qgNi2TgO1RMmbFcRtxFBB1rZKNBwT79BUqwDwO4MjfJwpkE0BZMeWUA3TbKP0EC5bxqHNg7_cxhqOc8nv3wu151RapG2pl2PQL8iDP4y8v1MUubC36J30DTqRn9gQDC9DAz3r8dz8DQRpRgFNQt0fSrtQyrZEJj9uaLeU9KBinKAVUhtt3rx7BwtBErVbmCvIefTva4QKk-J_2YjrGJnrGvwh_KUXEChDXayx4JPeG-2Xx8ZgY3-0x-Z_4x-xP3kTHaxzix6VMVvDAr7FjD5nZuSxdUK5Jrt6jkr7oeOa7Pc2XRPikreWCkJvqgwQ1mHNDQJcmMPs-HkeaaMHv-CAZihFsBwQNKeDvf6oeRE_7upF8tA_fLsmEF72ah0-tOx4UUZ3dno6WflitT-1fWyZmXHrtpcykyrhYQeeMET4GSq-4sGtTs3lVq06A3SFzEx-XTQRfE3DRFct3J7a16F1TcLAqZjNU3x58aNJ1G95mTDY6ijrotqNuUMRP9cdXQsBsifvPa3cJj7BUrtn3cx0ViHSQWRnz-skMMHLt8x_ylLpwnu4JAp4BYofMnRSZkx3H3m8meFH6FdkDaeKkJGkoNFuqGO9Od751_SV2DzW5NuAckzGlWFYvI8-FoZrDlDkDFeJEAvKGyOyt-qTIfXsSy7HovskAexrCaYkd261wnDdVFm00]--></g></svg>