<?xml version="1.0" encoding="us-ascii" standalone="no"?>
<svg xmlns="http://www.w3.org/2000/svg" contentStyleType="text/css" height="431px" preserveAspectRatio="none"
     style="width:568px;height:431px;background:#FFFFFF;" version="1.1" viewBox="0 0 568 431" width="568px"
     zoomAndPan="magnify"><defs/><g><g id="elem_UC001 - Display listed properties"><ellipse cx="371.4849" cy="386.797" fill="#F1F1F1" rx="121.9849" ry="26.797" style="stroke:#181818;stroke-width:0.5;"/><text fill="#000000" font-family="sans-serif" font-size="14" lengthAdjust="spacing" textLength="207" x="267.9849" y="390.5939">UC001 - Display listed properties</text></g><!--entity Unregistered User--><g id="elem_Unregistered User"><ellipse cx="63" cy="356" fill="#F1F1F1" rx="8" ry="8" style="stroke:#181818;stroke-width:0.5;"/><path d="M63,364 L63,391 M50,372 L76,372 M63,391 L50,406 M63,391 L76,406 " fill="none" style="stroke:#181818;stroke-width:0.5;"/><text fill="#000000" font-family="sans-serif" font-size="14" lengthAdjust="spacing" textLength="114" x="6" y="422.6074">Unregistered User</text></g><g id="elem_UC002 -  Publish any sale announcement on the system"><ellipse cx="371.3439" cy="273.1688" fill="#F1F1F1" rx="191.3439" ry="40.6688" style="stroke:#181818;stroke-width:0.5;"/><text fill="#000000" font-family="sans-serif" font-size="14" lengthAdjust="spacing" textLength="353" x="194.8439" y="276.9656">UC002 -  Publish any sale announcement on the system</text></g><!--entity Agent--><g id="elem_Agent"><ellipse cx="63" cy="242" fill="#F1F1F1" rx="8" ry="8" style="stroke:#181818;stroke-width:0.5;"/><path d="M63,250 L63,277 M50,258 L76,258 M63,277 L50,292 M63,277 L76,292 " fill="none" style="stroke:#181818;stroke-width:0.5;"/><text fill="#000000" font-family="sans-serif" font-size="14" lengthAdjust="spacing" textLength="37" x="44.5" y="308.6074">Agent</text></g><g id="elem_UC003 - Register a new employee"><ellipse cx="371.676" cy="159.0352" fill="#F1F1F1" rx="125.676" ry="27.5352" style="stroke:#181818;stroke-width:0.5;"/><text fill="#000000" font-family="sans-serif" font-size="14" lengthAdjust="spacing" textLength="215" x="264.176" y="162.8321">UC003 - Register a new employee</text></g><!--entity System Admin--><g id="elem_System Admin"><ellipse cx="63" cy="128" fill="#F1F1F1" rx="8" ry="8" style="stroke:#181818;stroke-width:0.5;"/><path d="M63,136 L63,163 M50,144 L76,144 M63,163 L50,178 M63,163 L76,178 " fill="none" style="stroke:#181818;stroke-width:0.5;"/><text fill="#000000" font-family="sans-serif" font-size="14" lengthAdjust="spacing" textLength="89" x="18.5" y="194.6074">System Admin</text></g><g id="elem_UC004 - Submit a properly listing request"><ellipse cx="371.2739" cy="45.1548" fill="#F1F1F1" rx="146.2739" ry="31.6548" style="stroke:#181818;stroke-width:0.5;"/><text fill="#000000" font-family="sans-serif" font-size="14" lengthAdjust="spacing" textLength="259" x="241.7739" y="48.9517">UC004 - Submit a properly listing request</text></g><!--entity Owner--><g id="elem_Owner"><ellipse cx="63" cy="14" fill="#F1F1F1" rx="8" ry="8" style="stroke:#181818;stroke-width:0.5;"/><path d="M63,22 L63,49 M50,30 L76,30 M63,49 L50,64 M63,49 L76,64 " fill="none" style="stroke:#181818;stroke-width:0.5;"/><text fill="#000000" font-family="sans-serif" font-size="14" lengthAdjust="spacing" textLength="41" x="42.5" y="80.6074">Owner</text></g><!--link Unregistered User to UC001 - Display listed properties--><g id="link_Unregistered User_UC001 - Display listed properties"><path d="M120.22,387 C154.93,387 200.91,387 243.99,387 " fill="none" id="Unregistered User-to-UC001 - Display listed properties" style="stroke:#181818;stroke-width:1.0;"/><polygon fill="#181818" points="249.23,387,240.23,383,244.23,387,240.23,391,249.23,387" style="stroke:#181818;stroke-width:1.0;"/></g><!--link Agent to UC002 -  Publish any sale announcement on the system--><g id="link_Agent_UC002 -  Publish any sale announcement on the system"><path d="M81.8,273 C101.73,273 136.32,273 174.78,273 " fill="none" id="Agent-to-UC002 -  Publish any sale announcement on the system" style="stroke:#181818;stroke-width:1.0;"/><polygon fill="#181818" points="179.98,273,170.98,269,174.98,273,170.98,277,179.98,273" style="stroke:#181818;stroke-width:1.0;"/></g><!--link System Admin to UC003 - Register a new employee--><g id="link_System Admin_UC003 - Register a new employee"><path d="M107.59,159 C142.43,159 193.15,159 240.77,159 " fill="none" id="System Admin-to-UC003 - Register a new employee" style="stroke:#181818;stroke-width:1.0;"/><polygon fill="#181818" points="245.97,159,236.97,155,240.97,159,236.97,163,245.97,159" style="stroke:#181818;stroke-width:1.0;"/></g><!--link Owner to UC004 - Submit a properly listing request--><g id="link_Owner_UC004 - Submit a properly listing request"><path d="M83.64,45 C111.73,45 165.97,45 219.79,45 " fill="none" id="Owner-to-UC004 - Submit a properly listing request" style="stroke:#181818;stroke-width:1.0;"/><polygon fill="#181818" points="225,45,216,41,220,45,216,49,225,45" style="stroke:#181818;stroke-width:1.0;"/></g><!--SRC=[bP4zRiCm38LtdOBmuYb0-ZCN2DBEBMhu08pDo48aofKekBvzwIP0ugL8DMWWttkVIDNvv7Z4X052vDWDAGO2IONCjJDYTq9BZSoU854doDQJgQ-AF60V9ySMZkWp6MDgSQBgDXFiKQzNXtPHldrZ6DLiF1q5949oTX3etPBh8flBAPcwnLUr- -ts0JOQa4UFCtYNXNeOKnmfYQDScQhbH7Qf9-qeCbMmsRpSvLs37bKC7-MWmW6GPyYeGo1pBDnH81Q8338Gv5cZWh9tLgitlFz7h9_mfFxFopI0m3G1wSRYJAIqvjS3kpuule7-QLhdFwkqAOVWH8NdJVZpPfRlI_HLA8kItYTUxV5Ed_a1]--></g></svg>