<?xml version="1.0" encoding="us-ascii" standalone="no"?><svg xmlns="http://www.w3.org/2000/svg" xmlns:xlink="http://www.w3.org/1999/xlink" contentStyleType="text/css" height="1183px" preserveAspectRatio="none" style="width:1403px;height:1183px;background:#FFFFFF;" version="1.1" viewBox="0 0 1403 1183" width="1403px" zoomAndPan="magnify"><defs/><g><!--class Employee--><g id="elem_Employee"><rect
        fill="#F1F1F1" height="48" id="Employee" rx="2.5" ry="2.5" style="stroke:#181818;stroke-width:0.5;" width="94" x="377.5" y="498.5"/><ellipse cx="392.5" cy="514.5" fill="#ADD1B2" rx="11" ry="11" style="stroke:#181818;stroke-width:1.0;"/><path d="M394.5,511 Q394.7031,510.5 394.9375,510.25 Q395.1719,510 395.4375,510 Q395.9063,510 396.2031,510.2813 Q396.5,510.5625 396.5,511.2188 L396.5,512.7813 Q396.5,513.4375 396.2188,513.7188 Q395.9375,514 395.5,514 Q395.1094,514 394.8594,513.8281 Q394.6094,513.6563 394.5,513.2031 Q394.4531,512.8906 394.2813,512.7188 Q393.9688,512.3906 393.4063,512.2031 Q392.8438,512 392.2813,512 Q391.5781,512 390.9844,512.2813 Q390.4063,512.5625 389.9531,513.1875 Q389.5,513.8125 389.5,514.6719 L389.5,515.5938 Q389.5,516.625 390.3438,517.3125 Q391.1875,518 392.6875,518 Q393.5781,518 394.2031,517.7969 Q394.5625,517.6875 394.9688,517.3281 Q395.2344,517.125 395.375,517.0625 Q395.5156,517 395.6875,517 Q396.0156,517 396.25,517.2656 Q396.5,517.5156 396.5,517.875 Q396.5,518.2188 396.1563,518.625 Q395.6563,519.2188 394.8594,519.5469 Q393.8125,520 392.5313,520 Q391.0313,520 389.8281,519.4063 Q388.8594,518.9375 388.1719,517.9219 Q387.5,516.9063 387.5,515.7031 L387.5,514.6094 Q387.5,513.3594 388.0938,512.2656 Q388.7031,511.1719 389.75,510.5938 Q390.8125,510 392,510 Q392.7188,510 393.3438,510.25 Q393.9688,510.5 394.5,511 Z " fill="#000000"/><text fill="#000000" font-family="sans-serif" font-size="14" lengthAdjust="spacing" textLength="62" x="406.5" y="519.3535">Employee</text><line style="stroke:#181818;stroke-width:0.5;" x1="378.5" x2="470.5" y1="530.5" y2="530.5"/><line style="stroke:#181818;stroke-width:0.5;" x1="378.5" x2="470.5" y1="538.5" y2="538.5"/></g><!--class Role--><g id="elem_Role"><rect
        fill="#F1F1F1" height="157.4844" id="Role" rx="2.5" ry="2.5" style="stroke:#181818;stroke-width:0.5;" width="147" x="7" y="802"/><ellipse cx="61.75" cy="818" fill="#ADD1B2" rx="11" ry="11" style="stroke:#181818;stroke-width:1.0;"/><path d="M63.75,814.5 Q63.9531,814 64.1875,813.75 Q64.4219,813.5 64.6875,813.5 Q65.1563,813.5 65.4531,813.7813 Q65.75,814.0625 65.75,814.7188 L65.75,816.2813 Q65.75,816.9375 65.4688,817.2188 Q65.1875,817.5 64.75,817.5 Q64.3594,817.5 64.1094,817.3281 Q63.8594,817.1563 63.75,816.7031 Q63.7031,816.3906 63.5313,816.2188 Q63.2188,815.8906 62.6563,815.7031 Q62.0938,815.5 61.5313,815.5 Q60.8281,815.5 60.2344,815.7813 Q59.6563,816.0625 59.2031,816.6875 Q58.75,817.3125 58.75,818.1719 L58.75,819.0938 Q58.75,820.125 59.5938,820.8125 Q60.4375,821.5 61.9375,821.5 Q62.8281,821.5 63.4531,821.2969 Q63.8125,821.1875 64.2188,820.8281 Q64.4844,820.625 64.625,820.5625 Q64.7656,820.5 64.9375,820.5 Q65.2656,820.5 65.5,820.7656 Q65.75,821.0156 65.75,821.375 Q65.75,821.7188 65.4063,822.125 Q64.9063,822.7188 64.1094,823.0469 Q63.0625,823.5 61.7813,823.5 Q60.2813,823.5 59.0781,822.9063 Q58.1094,822.4375 57.4219,821.4219 Q56.75,820.4063 56.75,819.2031 L56.75,818.1094 Q56.75,816.8594 57.3438,815.7656 Q57.9531,814.6719 59,814.0938 Q60.0625,813.5 61.25,813.5 Q61.9688,813.5 62.5938,813.75 Q63.2188,814 63.75,814.5 Z " fill="#000000"/><text fill="#000000" font-family="sans-serif" font-size="14" lengthAdjust="spacing" textLength="29" x="82.25" y="822.8535">Role</text><line style="stroke:#181818;stroke-width:0.5;" x1="8" x2="153" y1="834" y2="834"/><text fill="#000000" font-family="sans-serif" font-size="14" lengthAdjust="spacing" textLength="57" x="13" y="850.6738">-String id</text><text fill="#000000" font-family="sans-serif" font-size="14" lengthAdjust="spacing" textLength="115" x="13" y="866.3145">-String description</text><line style="stroke:#181818;stroke-width:1.0;" x1="8" x2="153" y1="873.2813" y2="873.2813"/><text fill="#000000" font-family="sans-serif" font-size="14" lengthAdjust="spacing" textLength="135" x="13" y="889.9551">+Role(id, description)</text><text fill="#000000" font-family="sans-serif" font-size="14" lengthAdjust="spacing" textLength="37" x="13" y="905.5957">-setID</text><text fill="#000000" font-family="sans-serif" font-size="14" lengthAdjust="spacing" textLength="95" x="13" y="921.2363">-setDescription</text><text fill="#000000" font-family="sans-serif" font-size="14" lengthAdjust="spacing" textLength="41" x="13" y="936.877">+getID</text><text fill="#000000" font-family="sans-serif" font-size="14" lengthAdjust="spacing" textLength="99" x="13" y="952.5176">+getDescription</text></g><!--class Address--><g id="elem_Address"><rect
        fill="#F1F1F1" height="298.25" id="Address" rx="2.5" ry="2.5" style="stroke:#181818;stroke-width:0.5;" width="294" x="42.5" y="7"/><ellipse cx="159.25" cy="23" fill="#ADD1B2" rx="11" ry="11" style="stroke:#181818;stroke-width:1.0;"/><path d="M161.25,19.5 Q161.4531,19 161.6875,18.75 Q161.9219,18.5 162.1875,18.5 Q162.6563,18.5 162.9531,18.7813 Q163.25,19.0625 163.25,19.7188 L163.25,21.2813 Q163.25,21.9375 162.9688,22.2188 Q162.6875,22.5 162.25,22.5 Q161.8594,22.5 161.6094,22.3281 Q161.3594,22.1563 161.25,21.7031 Q161.2031,21.3906 161.0313,21.2188 Q160.7188,20.8906 160.1563,20.7031 Q159.5938,20.5 159.0313,20.5 Q158.3281,20.5 157.7344,20.7813 Q157.1563,21.0625 156.7031,21.6875 Q156.25,22.3125 156.25,23.1719 L156.25,24.0938 Q156.25,25.125 157.0938,25.8125 Q157.9375,26.5 159.4375,26.5 Q160.3281,26.5 160.9531,26.2969 Q161.3125,26.1875 161.7188,25.8281 Q161.9844,25.625 162.125,25.5625 Q162.2656,25.5 162.4375,25.5 Q162.7656,25.5 163,25.7656 Q163.25,26.0156 163.25,26.375 Q163.25,26.7188 162.9063,27.125 Q162.4063,27.7188 161.6094,28.0469 Q160.5625,28.5 159.2813,28.5 Q157.7813,28.5 156.5781,27.9063 Q155.6094,27.4375 154.9219,26.4219 Q154.25,25.4063 154.25,24.2031 L154.25,23.1094 Q154.25,21.8594 154.8438,20.7656 Q155.4531,19.6719 156.5,19.0938 Q157.5625,18.5 158.75,18.5 Q159.4688,18.5 160.0938,18.75 Q160.7188,19 161.25,19.5 Z " fill="#000000"/><text fill="#000000" font-family="sans-serif" font-size="14" lengthAdjust="spacing" textLength="52" x="179.75" y="27.8535">Address</text><line style="stroke:#181818;stroke-width:0.5;" x1="43.5" x2="335.5" y1="39" y2="39"/><text fill="#000000" font-family="sans-serif" font-size="14" lengthAdjust="spacing" textLength="82" x="48.5" y="55.6738">-String street</text><text fill="#000000" font-family="sans-serif" font-size="14" lengthAdjust="spacing" textLength="67" x="48.5" y="71.3145">-String city</text><text fill="#000000" font-family="sans-serif" font-size="14" lengthAdjust="spacing" textLength="87" x="48.5" y="86.9551">-String district</text><text fill="#000000" font-family="sans-serif" font-size="14" lengthAdjust="spacing" textLength="77" x="48.5" y="102.5957">-String state</text><text fill="#000000" font-family="sans-serif" font-size="14" lengthAdjust="spacing" textLength="97" x="48.5" y="118.2363">-String zipCode</text><line style="stroke:#181818;stroke-width:1.0;" x1="43.5" x2="335.5" y1="125.2031" y2="125.2031"/><text fill="#000000" font-family="sans-serif" font-size="14" lengthAdjust="spacing" textLength="282" x="48.5" y="141.877">+Address(street, city, district, state, zipCode)</text><text fill="#000000" font-family="sans-serif" font-size="14" lengthAdjust="spacing" textLength="72" x="48.5" y="157.5176">-setStreet()</text><text fill="#000000" font-family="sans-serif" font-size="14" lengthAdjust="spacing" textLength="58" x="48.5" y="173.1582">-setCity()</text><text fill="#000000" font-family="sans-serif" font-size="14" lengthAdjust="spacing" textLength="77" x="48.5" y="188.7988">-setDistrict()</text><text fill="#000000" font-family="sans-serif" font-size="14" lengthAdjust="spacing" textLength="67" x="48.5" y="204.4395">-setState()</text><text fill="#000000" font-family="sans-serif" font-size="14" lengthAdjust="spacing" textLength="87" x="48.5" y="220.0801">-setZipCode()</text><text fill="#000000" font-family="sans-serif" font-size="14" lengthAdjust="spacing" textLength="76" x="48.5" y="235.7207">+getStreet()</text><text fill="#000000" font-family="sans-serif" font-size="14" lengthAdjust="spacing" textLength="62" x="48.5" y="251.3613">+getCity()</text><text fill="#000000" font-family="sans-serif" font-size="14" lengthAdjust="spacing" textLength="81" x="48.5" y="267.002">+getDistrict()</text><text fill="#000000" font-family="sans-serif" font-size="14" lengthAdjust="spacing" textLength="71" x="48.5" y="282.6426">+getState()</text><text fill="#000000" font-family="sans-serif" font-size="14" lengthAdjust="spacing" textLength="91" x="48.5" y="298.2832">+getZipCode()</text></g><!--class PassportCard--><g id="elem_PassportCard"><rect
        fill="#F1F1F1" height="110.5625" id="PassportCard" rx="2.5" ry="2.5" style="stroke:#181818;stroke-width:0.5;" width="221" x="189" y="825"/><ellipse cx="251.75" cy="841" fill="#ADD1B2" rx="11" ry="11" style="stroke:#181818;stroke-width:1.0;"/><path d="M253.75,837.5 Q253.9531,837 254.1875,836.75 Q254.4219,836.5 254.6875,836.5 Q255.1563,836.5 255.4531,836.7813 Q255.75,837.0625 255.75,837.7188 L255.75,839.2813 Q255.75,839.9375 255.4688,840.2188 Q255.1875,840.5 254.75,840.5 Q254.3594,840.5 254.1094,840.3281 Q253.8594,840.1563 253.75,839.7031 Q253.7031,839.3906 253.5313,839.2188 Q253.2188,838.8906 252.6563,838.7031 Q252.0938,838.5 251.5313,838.5 Q250.8281,838.5 250.2344,838.7813 Q249.6563,839.0625 249.2031,839.6875 Q248.75,840.3125 248.75,841.1719 L248.75,842.0938 Q248.75,843.125 249.5938,843.8125 Q250.4375,844.5 251.9375,844.5 Q252.8281,844.5 253.4531,844.2969 Q253.8125,844.1875 254.2188,843.8281 Q254.4844,843.625 254.625,843.5625 Q254.7656,843.5 254.9375,843.5 Q255.2656,843.5 255.5,843.7656 Q255.75,844.0156 255.75,844.375 Q255.75,844.7188 255.4063,845.125 Q254.9063,845.7188 254.1094,846.0469 Q253.0625,846.5 251.7813,846.5 Q250.2813,846.5 249.0781,845.9063 Q248.1094,845.4375 247.4219,844.4219 Q246.75,843.4063 246.75,842.2031 L246.75,841.1094 Q246.75,839.8594 247.3438,838.7656 Q247.9531,837.6719 249,837.0938 Q250.0625,836.5 251.25,836.5 Q251.9688,836.5 252.5938,836.75 Q253.2188,837 253.75,837.5 Z " fill="#000000"/><text fill="#000000" font-family="sans-serif" font-size="14" lengthAdjust="spacing" textLength="87" x="272.25" y="845.8535">PassportCard</text><line style="stroke:#181818;stroke-width:0.5;" x1="190" x2="409" y1="857" y2="857"/><text fill="#000000" font-family="sans-serif" font-size="14" lengthAdjust="spacing" textLength="157" x="195" y="873.6738">-Integer passportNumber</text><line style="stroke:#181818;stroke-width:1.0;" x1="190" x2="409" y1="880.6406" y2="880.6406"/><text fill="#000000" font-family="sans-serif" font-size="14" lengthAdjust="spacing" textLength="209" x="195" y="897.3145">+PassportCard(passportNumber)</text><text fill="#000000" font-family="sans-serif" font-size="14" lengthAdjust="spacing" textLength="143" x="195" y="912.9551">+getPassportNumber()</text><text fill="#000000" font-family="sans-serif" font-size="14" lengthAdjust="spacing" textLength="139" x="195" y="928.5957">-setPassportNumber()</text></g><!--class Person--><g id="elem_Person"><rect
        fill="#F1F1F1" height="282.6094" id="Person" rx="2.5" ry="2.5" style="stroke:#181818;stroke-width:0.5;" width="306" x="36.5" y="381"/><ellipse cx="162.75" cy="397" fill="#ADD1B2" rx="11" ry="11" style="stroke:#181818;stroke-width:1.0;"/><path d="M164.75,393.5 Q164.9531,393 165.1875,392.75 Q165.4219,392.5 165.6875,392.5 Q166.1563,392.5 166.4531,392.7813 Q166.75,393.0625 166.75,393.7188 L166.75,395.2813 Q166.75,395.9375 166.4688,396.2188 Q166.1875,396.5 165.75,396.5 Q165.3594,396.5 165.1094,396.3281 Q164.8594,396.1563 164.75,395.7031 Q164.7031,395.3906 164.5313,395.2188 Q164.2188,394.8906 163.6563,394.7031 Q163.0938,394.5 162.5313,394.5 Q161.8281,394.5 161.2344,394.7813 Q160.6563,395.0625 160.2031,395.6875 Q159.75,396.3125 159.75,397.1719 L159.75,398.0938 Q159.75,399.125 160.5938,399.8125 Q161.4375,400.5 162.9375,400.5 Q163.8281,400.5 164.4531,400.2969 Q164.8125,400.1875 165.2188,399.8281 Q165.4844,399.625 165.625,399.5625 Q165.7656,399.5 165.9375,399.5 Q166.2656,399.5 166.5,399.7656 Q166.75,400.0156 166.75,400.375 Q166.75,400.7188 166.4063,401.125 Q165.9063,401.7188 165.1094,402.0469 Q164.0625,402.5 162.7813,402.5 Q161.2813,402.5 160.0781,401.9063 Q159.1094,401.4375 158.4219,400.4219 Q157.75,399.4063 157.75,398.2031 L157.75,397.1094 Q157.75,395.8594 158.3438,394.7656 Q158.9531,393.6719 160,393.0938 Q161.0625,392.5 162.25,392.5 Q162.9688,392.5 163.5938,392.75 Q164.2188,393 164.75,393.5 Z " fill="#000000"/><text fill="#000000" font-family="sans-serif" font-size="14" lengthAdjust="spacing" textLength="45" x="183.25" y="401.8535">Person</text><line style="stroke:#181818;stroke-width:0.5;" x1="37.5" x2="341.5" y1="413" y2="413"/><text fill="#000000" font-family="sans-serif" font-size="14" lengthAdjust="spacing" textLength="81" x="42.5" y="429.6738">-String name</text><text fill="#000000" font-family="sans-serif" font-size="14" lengthAdjust="spacing" textLength="131" x="42.5" y="445.3145">-String emailAddress</text><text fill="#000000" font-family="sans-serif" font-size="14" lengthAdjust="spacing" textLength="120" x="42.5" y="460.9551">-Integer taxNumber</text><text fill="#000000" font-family="sans-serif" font-size="14" lengthAdjust="spacing" textLength="165" x="42.5" y="476.5957">-Integer telephoneNumber</text><line style="stroke:#181818;stroke-width:1.0;" x1="37.5" x2="341.5" y1="483.5625" y2="483.5625"/><text fill="#000000" font-family="sans-serif" font-size="14" lengthAdjust="spacing" textLength="294" x="42.5" y="500.2363">+Person(name, passportNumber, emailAdress,</text><text fill="#000000" font-family="sans-serif" font-size="14" lengthAdjust="spacing" textLength="293" x="42.5" y="515.877">taxNumber, contactTelephoneNumber, adress,</text><text fill="#000000" font-family="sans-serif" font-size="14" lengthAdjust="spacing" textLength="83" x="42.5" y="531.5176">role, agency)</text><text fill="#000000" font-family="sans-serif" font-size="14" lengthAdjust="spacing" textLength="70" x="42.5" y="547.1582">-setName()</text><text fill="#000000" font-family="sans-serif" font-size="14" lengthAdjust="spacing" textLength="120" x="42.5" y="562.7988">-setEmailAddress()</text><text fill="#000000" font-family="sans-serif" font-size="14" lengthAdjust="spacing" textLength="106" x="42.5" y="578.4395">-setTaxNumber()</text><text fill="#000000" font-family="sans-serif" font-size="14" lengthAdjust="spacing" textLength="151" x="42.5" y="594.0801">-setTelephoneNumber()</text><text fill="#000000" font-family="sans-serif" font-size="14" lengthAdjust="spacing" textLength="74" x="42.5" y="609.7207">+getName()</text><text fill="#000000" font-family="sans-serif" font-size="14" lengthAdjust="spacing" textLength="124" x="42.5" y="625.3613">+getEmailAddress()</text><text fill="#000000" font-family="sans-serif" font-size="14" lengthAdjust="spacing" textLength="110" x="42.5" y="641.002">+getTaxNumber()</text><text fill="#000000" font-family="sans-serif" font-size="14" lengthAdjust="spacing" textLength="155" x="42.5" y="656.6426">+getTelephoneNumber()</text></g><!--class RoleRepository--><g id="elem_RoleRepository"><rect
        fill="#F1F1F1" height="63.6406" id="RoleRepository" rx="2.5" ry="2.5" style="stroke:#181818;stroke-width:0.5;" width="167" x="245" y="1097.5"/><ellipse cx="277.1" cy="1113.5" fill="#ADD1B2" rx="11" ry="11" style="stroke:#181818;stroke-width:1.0;"/><path d="M279.1,1110 Q279.3031,1109.5 279.5375,1109.25 Q279.7719,1109 280.0375,1109 Q280.5063,1109 280.8031,1109.2813 Q281.1,1109.5625 281.1,1110.2188 L281.1,1111.7813 Q281.1,1112.4375 280.8188,1112.7188 Q280.5375,1113 280.1,1113 Q279.7094,1113 279.4594,1112.8281 Q279.2094,1112.6563 279.1,1112.2031 Q279.0531,1111.8906 278.8813,1111.7188 Q278.5688,1111.3906 278.0063,1111.2031 Q277.4438,1111 276.8813,1111 Q276.1781,1111 275.5844,1111.2813 Q275.0063,1111.5625 274.5531,1112.1875 Q274.1,1112.8125 274.1,1113.6719 L274.1,1114.5938 Q274.1,1115.625 274.9438,1116.3125 Q275.7875,1117 277.2875,1117 Q278.1781,1117 278.8031,1116.7969 Q279.1625,1116.6875 279.5688,1116.3281 Q279.8344,1116.125 279.975,1116.0625 Q280.1156,1116 280.2875,1116 Q280.6156,1116 280.85,1116.2656 Q281.1,1116.5156 281.1,1116.875 Q281.1,1117.2188 280.7563,1117.625 Q280.2563,1118.2188 279.4594,1118.5469 Q278.4125,1119 277.1313,1119 Q275.6313,1119 274.4281,1118.4063 Q273.4594,1117.9375 272.7719,1116.9219 Q272.1,1115.9063 272.1,1114.7031 L272.1,1113.6094 Q272.1,1112.3594 272.6938,1111.2656 Q273.3031,1110.1719 274.35,1109.5938 Q275.4125,1109 276.6,1109 Q277.3188,1109 277.9438,1109.25 Q278.5688,1109.5 279.1,1110 Z " fill="#000000"/><text fill="#000000" font-family="sans-serif" font-size="14" lengthAdjust="spacing" textLength="97" x="294.9" y="1118.3535">RoleRepository</text><line style="stroke:#181818;stroke-width:0.5;" x1="246" x2="411" y1="1129.5" y2="1129.5"/><line style="stroke:#181818;stroke-width:0.5;" x1="246" x2="411" y1="1137.5" y2="1137.5"/><text fill="#000000" font-family="sans-serif" font-size="14" lengthAdjust="spacing" textLength="155" x="251" y="1154.1738">+getRoleByID(agencyID)</text></g><!--class AgencyRepository--><g id="elem_AgencyRepository"><rect
        fill="#F1F1F1" height="63.6406" id="AgencyRepository" rx="2.5" ry="2.5" style="stroke:#181818;stroke-width:0.5;" width="185" x="447" y="1097.5"/><ellipse cx="479.1" cy="1113.5" fill="#ADD1B2" rx="11" ry="11" style="stroke:#181818;stroke-width:1.0;"/><path d="M481.1,1110 Q481.3031,1109.5 481.5375,1109.25 Q481.7719,1109 482.0375,1109 Q482.5063,1109 482.8031,1109.2813 Q483.1,1109.5625 483.1,1110.2188 L483.1,1111.7813 Q483.1,1112.4375 482.8188,1112.7188 Q482.5375,1113 482.1,1113 Q481.7094,1113 481.4594,1112.8281 Q481.2094,1112.6563 481.1,1112.2031 Q481.0531,1111.8906 480.8813,1111.7188 Q480.5688,1111.3906 480.0063,1111.2031 Q479.4438,1111 478.8813,1111 Q478.1781,1111 477.5844,1111.2813 Q477.0063,1111.5625 476.5531,1112.1875 Q476.1,1112.8125 476.1,1113.6719 L476.1,1114.5938 Q476.1,1115.625 476.9438,1116.3125 Q477.7875,1117 479.2875,1117 Q480.1781,1117 480.8031,1116.7969 Q481.1625,1116.6875 481.5688,1116.3281 Q481.8344,1116.125 481.975,1116.0625 Q482.1156,1116 482.2875,1116 Q482.6156,1116 482.85,1116.2656 Q483.1,1116.5156 483.1,1116.875 Q483.1,1117.2188 482.7563,1117.625 Q482.2563,1118.2188 481.4594,1118.5469 Q480.4125,1119 479.1313,1119 Q477.6313,1119 476.4281,1118.4063 Q475.4594,1117.9375 474.7719,1116.9219 Q474.1,1115.9063 474.1,1114.7031 L474.1,1113.6094 Q474.1,1112.3594 474.6938,1111.2656 Q475.3031,1110.1719 476.35,1109.5938 Q477.4125,1109 478.6,1109 Q479.3188,1109 479.9438,1109.25 Q480.5688,1109.5 481.1,1110 Z " fill="#000000"/><text fill="#000000" font-family="sans-serif" font-size="14" lengthAdjust="spacing" textLength="115" x="496.9" y="1118.3535">AgencyRepository</text><line style="stroke:#181818;stroke-width:0.5;" x1="448" x2="631" y1="1129.5" y2="1129.5"/><line style="stroke:#181818;stroke-width:0.5;" x1="448" x2="631" y1="1137.5" y2="1137.5"/><text fill="#000000" font-family="sans-serif" font-size="14" lengthAdjust="spacing" textLength="173" x="453" y="1154.1738">+getAgencyByID(agencyID)</text></g><!--class Repositories--><g id="elem_Repositories"><rect
        fill="#F1F1F1" height="110.5625" id="Repositories" rx="2.5" ry="2.5" style="stroke:#181818;stroke-width:0.5;" width="194" x="593.5" y="825"/><ellipse cx="646.75" cy="841" fill="#ADD1B2" rx="11" ry="11" style="stroke:#181818;stroke-width:1.0;"/><path d="M648.75,837.5 Q648.9531,837 649.1875,836.75 Q649.4219,836.5 649.6875,836.5 Q650.1563,836.5 650.4531,836.7813 Q650.75,837.0625 650.75,837.7188 L650.75,839.2813 Q650.75,839.9375 650.4688,840.2188 Q650.1875,840.5 649.75,840.5 Q649.3594,840.5 649.1094,840.3281 Q648.8594,840.1563 648.75,839.7031 Q648.7031,839.3906 648.5313,839.2188 Q648.2188,838.8906 647.6563,838.7031 Q647.0938,838.5 646.5313,838.5 Q645.8281,838.5 645.2344,838.7813 Q644.6563,839.0625 644.2031,839.6875 Q643.75,840.3125 643.75,841.1719 L643.75,842.0938 Q643.75,843.125 644.5938,843.8125 Q645.4375,844.5 646.9375,844.5 Q647.8281,844.5 648.4531,844.2969 Q648.8125,844.1875 649.2188,843.8281 Q649.4844,843.625 649.625,843.5625 Q649.7656,843.5 649.9375,843.5 Q650.2656,843.5 650.5,843.7656 Q650.75,844.0156 650.75,844.375 Q650.75,844.7188 650.4063,845.125 Q649.9063,845.7188 649.1094,846.0469 Q648.0625,846.5 646.7813,846.5 Q645.2813,846.5 644.0781,845.9063 Q643.1094,845.4375 642.4219,844.4219 Q641.75,843.4063 641.75,842.2031 L641.75,841.1094 Q641.75,839.8594 642.3438,838.7656 Q642.9531,837.6719 644,837.0938 Q645.0625,836.5 646.25,836.5 Q646.9688,836.5 647.5938,836.75 Q648.2188,837 648.75,837.5 Z " fill="#000000"/><text fill="#000000" font-family="sans-serif" font-size="14" lengthAdjust="spacing" textLength="79" x="667.25" y="845.8535">Repositories</text><line style="stroke:#181818;stroke-width:0.5;" x1="594.5" x2="786.5" y1="857" y2="857"/><text fill="#000000" font-family="sans-serif" font-size="14" lengthAdjust="spacing" textLength="94" x="599.5" y="873.6738">-Repositories()</text><line style="stroke:#181818;stroke-width:1.0;" x1="594.5" x2="786.5" y1="880.6406" y2="880.6406"/><text fill="#000000" font-family="sans-serif" font-size="14" lengthAdjust="spacing" textLength="182" x="599.5" y="897.3145">+getInstance() : Repositories</text><text fill="#000000" font-family="sans-serif" font-size="14" lengthAdjust="spacing" textLength="153" x="599.5" y="912.9551">+getAgencyRepository()</text><text fill="#000000" font-family="sans-serif" font-size="14" lengthAdjust="spacing" textLength="135" x="599.5" y="928.5957">+getRoleRepository()</text></g><!--class AgentRepository--><g id="elem_AgentRepository"><rect
        fill="#F1F1F1" height="94.9219" id="AgentRepository" rx="2.5" ry="2.5" style="stroke:#181818;stroke-width:0.5;" width="347" x="667" y="1082"/><ellipse cx="783.75" cy="1098" fill="#ADD1B2" rx="11" ry="11" style="stroke:#181818;stroke-width:1.0;"/><path d="M785.75,1094.5 Q785.9531,1094 786.1875,1093.75 Q786.4219,1093.5 786.6875,1093.5 Q787.1563,1093.5 787.4531,1093.7813 Q787.75,1094.0625 787.75,1094.7188 L787.75,1096.2813 Q787.75,1096.9375 787.4688,1097.2188 Q787.1875,1097.5 786.75,1097.5 Q786.3594,1097.5 786.1094,1097.3281 Q785.8594,1097.1563 785.75,1096.7031 Q785.7031,1096.3906 785.5313,1096.2188 Q785.2188,1095.8906 784.6563,1095.7031 Q784.0938,1095.5 783.5313,1095.5 Q782.8281,1095.5 782.2344,1095.7813 Q781.6563,1096.0625 781.2031,1096.6875 Q780.75,1097.3125 780.75,1098.1719 L780.75,1099.0938 Q780.75,1100.125 781.5938,1100.8125 Q782.4375,1101.5 783.9375,1101.5 Q784.8281,1101.5 785.4531,1101.2969 Q785.8125,1101.1875 786.2188,1100.8281 Q786.4844,1100.625 786.625,1100.5625 Q786.7656,1100.5 786.9375,1100.5 Q787.2656,1100.5 787.5,1100.7656 Q787.75,1101.0156 787.75,1101.375 Q787.75,1101.7188 787.4063,1102.125 Q786.9063,1102.7188 786.1094,1103.0469 Q785.0625,1103.5 783.7813,1103.5 Q782.2813,1103.5 781.0781,1102.9063 Q780.1094,1102.4375 779.4219,1101.4219 Q778.75,1100.4063 778.75,1099.2031 L778.75,1098.1094 Q778.75,1096.8594 779.3438,1095.7656 Q779.9531,1094.6719 781,1094.0938 Q782.0625,1093.5 783.25,1093.5 Q783.9688,1093.5 784.5938,1093.75 Q785.2188,1094 785.75,1094.5 Z " fill="#000000"/><text fill="#000000" font-family="sans-serif" font-size="14" lengthAdjust="spacing" textLength="105" x="804.25" y="1102.8535">AgentRepository</text><line style="stroke:#181818;stroke-width:0.5;" x1="668" x2="1013" y1="1114" y2="1114"/><line style="stroke:#181818;stroke-width:0.5;" x1="668" x2="1013" y1="1122" y2="1122"/><text fill="#000000" font-family="sans-serif" font-size="14" lengthAdjust="spacing" textLength="335" x="673" y="1138.6738">+addEmployee(name, passportNumber, emailAdress,</text><text fill="#000000" font-family="sans-serif" font-size="14" lengthAdjust="spacing" textLength="286" x="673" y="1154.3145">taxNumber, contactTelephoneNumber, street,</text><text fill="#000000" font-family="sans-serif" font-size="14" lengthAdjust="spacing" textLength="285" x="673" y="1169.9551">city, district, state, zipCode, roleID, agencyID)</text></g><!--class PersonRepository--><g id="elem_PersonRepository"><rect
        fill="#F1F1F1" height="94.9219" id="PersonRepository" rx="2.5" ry="2.5" style="stroke:#181818;stroke-width:0.5;" width="347" x="1049" y="1082"/><ellipse cx="1161.75" cy="1098" fill="#ADD1B2" rx="11" ry="11" style="stroke:#181818;stroke-width:1.0;"/><path d="M1163.75,1094.5 Q1163.9531,1094 1164.1875,1093.75 Q1164.4219,1093.5 1164.6875,1093.5 Q1165.1563,1093.5 1165.4531,1093.7813 Q1165.75,1094.0625 1165.75,1094.7188 L1165.75,1096.2813 Q1165.75,1096.9375 1165.4688,1097.2188 Q1165.1875,1097.5 1164.75,1097.5 Q1164.3594,1097.5 1164.1094,1097.3281 Q1163.8594,1097.1563 1163.75,1096.7031 Q1163.7031,1096.3906 1163.5313,1096.2188 Q1163.2188,1095.8906 1162.6563,1095.7031 Q1162.0938,1095.5 1161.5313,1095.5 Q1160.8281,1095.5 1160.2344,1095.7813 Q1159.6563,1096.0625 1159.2031,1096.6875 Q1158.75,1097.3125 1158.75,1098.1719 L1158.75,1099.0938 Q1158.75,1100.125 1159.5938,1100.8125 Q1160.4375,1101.5 1161.9375,1101.5 Q1162.8281,1101.5 1163.4531,1101.2969 Q1163.8125,1101.1875 1164.2188,1100.8281 Q1164.4844,1100.625 1164.625,1100.5625 Q1164.7656,1100.5 1164.9375,1100.5 Q1165.2656,1100.5 1165.5,1100.7656 Q1165.75,1101.0156 1165.75,1101.375 Q1165.75,1101.7188 1165.4063,1102.125 Q1164.9063,1102.7188 1164.1094,1103.0469 Q1163.0625,1103.5 1161.7813,1103.5 Q1160.2813,1103.5 1159.0781,1102.9063 Q1158.1094,1102.4375 1157.4219,1101.4219 Q1156.75,1100.4063 1156.75,1099.2031 L1156.75,1098.1094 Q1156.75,1096.8594 1157.3438,1095.7656 Q1157.9531,1094.6719 1159,1094.0938 Q1160.0625,1093.5 1161.25,1093.5 Q1161.9688,1093.5 1162.5938,1093.75 Q1163.2188,1094 1163.75,1094.5 Z " fill="#000000"/><text fill="#000000" font-family="sans-serif" font-size="14" lengthAdjust="spacing" textLength="113" x="1182.25" y="1102.8535">PersonRepository</text><line style="stroke:#181818;stroke-width:0.5;" x1="1050" x2="1395" y1="1114" y2="1114"/><line style="stroke:#181818;stroke-width:0.5;" x1="1050" x2="1395" y1="1122" y2="1122"/><text fill="#000000" font-family="sans-serif" font-size="14" lengthAdjust="spacing" textLength="335" x="1055" y="1138.6738">+addEmployee(name, passportNumber, emailAdress,</text><text fill="#000000" font-family="sans-serif" font-size="14" lengthAdjust="spacing" textLength="286" x="1055" y="1154.3145">taxNumber, contactTelephoneNumber, street,</text><text fill="#000000" font-family="sans-serif" font-size="14" lengthAdjust="spacing" textLength="218" x="1055" y="1169.9551">city, district, state, zipCode, roleID)</text></g><!--class RegisterEmployeeController--><g id="elem_RegisterEmployeeController"><rect
        fill="#F1F1F1" height="94.9219" id="RegisterEmployeeController" rx="2.5" ry="2.5" style="stroke:#181818;stroke-width:0.5;" width="368" x="506.5" y="475"/><ellipse cx="597.75" cy="491" fill="#ADD1B2" rx="11" ry="11" style="stroke:#181818;stroke-width:1.0;"/><path d="M599.75,487.5 Q599.9531,487 600.1875,486.75 Q600.4219,486.5 600.6875,486.5 Q601.1563,486.5 601.4531,486.7813 Q601.75,487.0625 601.75,487.7188 L601.75,489.2813 Q601.75,489.9375 601.4688,490.2188 Q601.1875,490.5 600.75,490.5 Q600.3594,490.5 600.1094,490.3281 Q599.8594,490.1563 599.75,489.7031 Q599.7031,489.3906 599.5313,489.2188 Q599.2188,488.8906 598.6563,488.7031 Q598.0938,488.5 597.5313,488.5 Q596.8281,488.5 596.2344,488.7813 Q595.6563,489.0625 595.2031,489.6875 Q594.75,490.3125 594.75,491.1719 L594.75,492.0938 Q594.75,493.125 595.5938,493.8125 Q596.4375,494.5 597.9375,494.5 Q598.8281,494.5 599.4531,494.2969 Q599.8125,494.1875 600.2188,493.8281 Q600.4844,493.625 600.625,493.5625 Q600.7656,493.5 600.9375,493.5 Q601.2656,493.5 601.5,493.7656 Q601.75,494.0156 601.75,494.375 Q601.75,494.7188 601.4063,495.125 Q600.9063,495.7188 600.1094,496.0469 Q599.0625,496.5 597.7813,496.5 Q596.2813,496.5 595.0781,495.9063 Q594.1094,495.4375 593.4219,494.4219 Q592.75,493.4063 592.75,492.2031 L592.75,491.1094 Q592.75,489.8594 593.3438,488.7656 Q593.9531,487.6719 595,487.0938 Q596.0625,486.5 597.25,486.5 Q597.9688,486.5 598.5938,486.75 Q599.2188,487 599.75,487.5 Z " fill="#000000"/><text fill="#000000" font-family="sans-serif" font-size="14" lengthAdjust="spacing" textLength="177" x="618.25" y="495.8535">RegisterEmployeeController</text><line style="stroke:#181818;stroke-width:0.5;" x1="507.5" x2="873.5" y1="507" y2="507"/><line style="stroke:#181818;stroke-width:0.5;" x1="507.5" x2="873.5" y1="515" y2="515"/><text fill="#000000" font-family="sans-serif" font-size="14" lengthAdjust="spacing" textLength="356" x="512.5" y="531.6738">-registerEmployee(name, passportNumber, emailAdress,</text><text fill="#000000" font-family="sans-serif" font-size="14" lengthAdjust="spacing" textLength="286" x="512.5" y="547.3145">taxNumber, contactTelephoneNumber, street,</text><text fill="#000000" font-family="sans-serif" font-size="14" lengthAdjust="spacing" textLength="259" x="512.5" y="562.9551">city, district, state, zipCode, role, agency)</text></g><!--class RegisterEmployeeUI--><g id="elem_RegisterEmployeeUI"><rect
        fill="#F1F1F1" height="126.2031" id="RegisterEmployeeUI" rx="2.5" ry="2.5" style="stroke:#181818;stroke-width:0.5;" width="362" x="509.5" y="93"/><ellipse cx="622.75" cy="109" fill="#ADD1B2" rx="11" ry="11" style="stroke:#181818;stroke-width:1.0;"/><path d="M624.75,105.5 Q624.9531,105 625.1875,104.75 Q625.4219,104.5 625.6875,104.5 Q626.1563,104.5 626.4531,104.7813 Q626.75,105.0625 626.75,105.7188 L626.75,107.2813 Q626.75,107.9375 626.4688,108.2188 Q626.1875,108.5 625.75,108.5 Q625.3594,108.5 625.1094,108.3281 Q624.8594,108.1563 624.75,107.7031 Q624.7031,107.3906 624.5313,107.2188 Q624.2188,106.8906 623.6563,106.7031 Q623.0938,106.5 622.5313,106.5 Q621.8281,106.5 621.2344,106.7813 Q620.6563,107.0625 620.2031,107.6875 Q619.75,108.3125 619.75,109.1719 L619.75,110.0938 Q619.75,111.125 620.5938,111.8125 Q621.4375,112.5 622.9375,112.5 Q623.8281,112.5 624.4531,112.2969 Q624.8125,112.1875 625.2188,111.8281 Q625.4844,111.625 625.625,111.5625 Q625.7656,111.5 625.9375,111.5 Q626.2656,111.5 626.5,111.7656 Q626.75,112.0156 626.75,112.375 Q626.75,112.7188 626.4063,113.125 Q625.9063,113.7188 625.1094,114.0469 Q624.0625,114.5 622.7813,114.5 Q621.2813,114.5 620.0781,113.9063 Q619.1094,113.4375 618.4219,112.4219 Q617.75,111.4063 617.75,110.2031 L617.75,109.1094 Q617.75,107.8594 618.3438,106.7656 Q618.9531,105.6719 620,105.0938 Q621.0625,104.5 622.25,104.5 Q622.9688,104.5 623.5938,104.75 Q624.2188,105 624.75,105.5 Z " fill="#000000"/><text fill="#000000" font-family="sans-serif" font-size="14" lengthAdjust="spacing" textLength="127" x="643.25" y="113.8535">RegisterEmployeeUI</text><line style="stroke:#181818;stroke-width:0.5;" x1="510.5" x2="870.5" y1="125" y2="125"/><line style="stroke:#181818;stroke-width:0.5;" x1="510.5" x2="870.5" y1="133" y2="133"/><text fill="#000000" font-family="sans-serif" font-size="14" lengthAdjust="spacing" textLength="350" x="515.5" y="149.6738">+keepTypedData(name, passportNumber, emailAdress,</text><text fill="#000000" font-family="sans-serif" font-size="14" lengthAdjust="spacing" textLength="286" x="515.5" y="165.3145">taxNumber, contactTelephoneNumber, street,</text><text fill="#000000" font-family="sans-serif" font-size="14" lengthAdjust="spacing" textLength="173" x="515.5" y="180.9551">city, district, state, zipCode)</text><text fill="#000000" font-family="sans-serif" font-size="14" lengthAdjust="spacing" textLength="197" x="515.5" y="196.5957">+keepSelectedAgency(agency)</text><text fill="#000000" font-family="sans-serif" font-size="14" lengthAdjust="spacing" textLength="157" x="515.5" y="212.2363">+keepSelectedRole(role)</text></g><!--reverse link Person to Employee--><g id="link_Person_Employee"><path
        d="M363,522.5 C367.75,522.5 372.51,522.5 377.27,522.5 " fill="none" id="Person-backto-Employee" style="stroke:#181818;stroke-width:1.0;"/><polygon fill="none" points="362.8,529.5,342.8,522.5,362.8,515.5,362.8,529.5" style="stroke:#181818;stroke-width:1.0;"/></g><!--reverse link Person to Role--><g id="link_Person_Role"><path
        d="M142.53,676.9 C129.33,720.02 115.53,765.1 104.3,801.77 " fill="none" id="Person-backto-Role" style="stroke:#181818;stroke-width:1.0;stroke-dasharray:7.0,7.0;"/><polygon fill="#181818" points="146.42,664.2,140.8405,668.7683,142.9114,675.6756,148.4909,671.1073,146.42,664.2" style="stroke:#181818;stroke-width:1.0;"/><text fill="#000000" font-family="sans-serif" font-size="13" lengthAdjust="spacing" textLength="21" x="129.5" y="737.7686">role</text></g><!--link Address to Person--><g id="link_Address_Person"><path
        d="M189.5,305.26 C189.5,325.81 189.5,346.95 189.5,367.6 " fill="none" id="Address-to-Person" style="stroke:#181818;stroke-width:1.0;stroke-dasharray:7.0,7.0;"/><polygon fill="#181818" points="189.5,380.74,193.5,374.74,189.5,368.74,185.5,374.74,189.5,380.74" style="stroke:#181818;stroke-width:1.0;"/><text fill="#000000" font-family="sans-serif" font-size="13" lengthAdjust="spacing" textLength="46" x="190.5" y="347.7686">address</text></g><!--reverse link Person to PassportCard--><g id="link_Person_PassportCard"><path
        d="M236.88,676.83 C253.18,729.6 270.4,785.33 282.65,824.96 " fill="none" id="Person-backto-PassportCard" style="stroke:#181818;stroke-width:1.0;stroke-dasharray:7.0,7.0;"/><polygon fill="#181818" points="232.97,664.2,230.9159,671.1123,236.5064,675.6671,238.5606,668.7547,232.97,664.2" style="stroke:#181818;stroke-width:1.0;"/><text fill="#000000" font-family="sans-serif" font-size="13" lengthAdjust="spacing" textLength="95" x="257.5" y="737.7686">passportNumber</text></g><!--link Employee to RegisterEmployeeController--><g id="link_Employee_RegisterEmployeeController"><path
        d="M471.52,522.5 C481.35,522.5 491.19,522.5 501.02,522.5 " fill="none" id="Employee-to-RegisterEmployeeController" style="stroke:#181818;stroke-width:1.0;stroke-dasharray:7.0,7.0;"/><polygon fill="#181818" points="506.16,522.5,497.16,518.5,501.16,522.5,497.16,526.5,506.16,522.5" style="stroke:#181818;stroke-width:1.0;"/></g><!--link RegisterEmployeeUI to RegisterEmployeeController--><g id="link_RegisterEmployeeUI_RegisterEmployeeController"><path
        d="M690.5,219.25 C690.5,289.89 690.5,403.85 690.5,469.8 " fill="none" id="RegisterEmployeeUI-to-RegisterEmployeeController" style="stroke:#181818;stroke-width:1.0;stroke-dasharray:7.0,7.0;"/><polygon fill="#181818" points="690.5,474.85,694.5,465.85,690.5,469.85,686.5,465.85,690.5,474.85" style="stroke:#181818;stroke-width:1.0;"/></g><!--link RegisterEmployeeController to Repositories--><g id="link_RegisterEmployeeController_Repositories"><path
        d="M690.5,570.04 C690.5,633.96 690.5,748.99 690.5,819.37 " fill="none" id="RegisterEmployeeController-to-Repositories" style="stroke:#181818;stroke-width:1.0;stroke-dasharray:7.0,7.0;"/><polygon fill="#181818" points="690.5,824.78,694.5,815.78,690.5,819.78,686.5,815.78,690.5,824.78" style="stroke:#181818;stroke-width:1.0;"/></g><!--link Repositories to AgencyRepository--><g id="link_Repositories_AgencyRepository"><path
        d="M657.18,936.01 C627.93,983.85 586.25,1052.02 561.15,1093.09 " fill="none" id="Repositories-to-AgencyRepository" style="stroke:#181818;stroke-width:1.0;stroke-dasharray:7.0,7.0;"/><polygon fill="#181818" points="558.47,1097.47,566.58,1091.8817,561.0801,1093.2054,559.7565,1087.7055,558.47,1097.47" style="stroke:#181818;stroke-width:1.0;"/></g><!--link Repositories to AgentRepository--><g id="link_Repositories_AgentRepository"><path
        d="M723.6,936.01 C749.16,978.09 784.27,1035.91 809.33,1077.17 " fill="none" id="Repositories-to-AgentRepository" style="stroke:#181818;stroke-width:1.0;stroke-dasharray:7.0,7.0;"/><polygon fill="#181818" points="812.03,1081.61,810.7817,1071.8406,809.4366,1077.3352,803.942,1075.99,812.03,1081.61" style="stroke:#181818;stroke-width:1.0;"/></g><!--link Repositories to PersonRepository--><g id="link_Repositories_PersonRepository"><path
        d="M787.77,926.66 C881.09,969.99 1021.6,1035.23 1117.45,1079.73 " fill="none" id="Repositories-to-PersonRepository" style="stroke:#181818;stroke-width:1.0;stroke-dasharray:7.0,7.0;"/><polygon fill="#181818" points="1122.26,1081.96,1115.7779,1074.545,1117.724,1079.8565,1112.4124,1081.8026,1122.26,1081.96" style="stroke:#181818;stroke-width:1.0;"/></g><!--link Repositories to RoleRepository--><g id="link_Repositories_RoleRepository"><path
        d="M610.61,936.01 C539.65,984.43 438.15,1053.68 378.22,1094.58 " fill="none" id="Repositories-to-RoleRepository" style="stroke:#181818;stroke-width:1.0;stroke-dasharray:7.0,7.0;"/><polygon fill="#181818" points="373.98,1097.47,383.6696,1095.7059,378.1114,1094.6538,379.1636,1089.0956,373.98,1097.47" style="stroke:#181818;stroke-width:1.0;"/></g><!--SRC=[pLPDJzmm4BtdL_X6w2QePrHLWWs7N11YwQNYOk8XQv7OaUrL6zh-zuxjEB73GbMfQhk7R3mpxys7n-ESw2Sk1gfeJtefPBDNiWTYr06oHJFGvecsi3DZ1qH1OwXekzX0xocJNxXeoIFjTApfk00p3a06sOrsSKmdbP5Pf6WwglM5COe_70pKZHGx_WpaVPQTTF1eY954yNPl2ECs6Yv5bZaCkUg7Jeu0v5kM_GZ2MzbP0S5VkKDI39EpPCb0DueFZid9I_UtiSYSio8sEFKM6anTpQ_LYc3Jpchx6gldi2uOKw1r6fWs2i0aeeQRCOsMenLlp0f83IIIPpvi9OCaeSbdxjqKZhkO2GlFKWJeakhEsUUBO8l0Q5bD37aCGQfe_TbpJX9RbOJK2Y9ILxMKr4CMKhjUIEUotk1Zm8xQKiMcsjR2G0iA-zYhhW_z0wYaC34gJ-qMRpU9FChjXMA91fIM8jrZGVjqfw2dl9ks9etOqAzniBCOEXZsKi2nJ9p7t3efLXaNmPDrLDoBcHqRGUAgCNSfSK5ei5Lu573PWcZ69V5hz1BLuIfA91BV1J-nBFKKxMd4QPT7EArupUbaBpYJ6N0BWzJSI3LEqs1346GrbsDTvJwtkefG5qvq7ETrho5d30STPayY3AKe5yPQuF4J3IPFpXFRjTCbe91yI2JH96cObrbGniAy_5FjCisLU_7sO2c8RQUw2WsLbCutyFyORhA_BHg32X5jqGCQTNWufzrMAuj_4lDoOb-D_5ED4M-U08Oxl8jPHGtzow6UUlSxX3S6cE_nF0IUwDo5R1Dp2VbE8H- -b_vp8AGK5E_EojBV_kUk6f7yC8Jx5tLq6hqnBBuGq6HrTSpV6TxpsSSt6Y8xKl4IFvV4xw6Y3YiNU3Gaaf4pcwmdnXjcvfTMwwFvYbawYRAV]--></g></svg>