<?xml version="1.0" encoding="us-ascii" standalone="no"?><svg xmlns="http://www.w3.org/2000/svg" xmlns:xlink="http://www.w3.org/1999/xlink" contentStyleType="text/css" height="1332px" preserveAspectRatio="none" style="width:780px;height:1332px;background:#FFFFFF;" version="1.1" viewBox="0 0 780 1332" width="780px" zoomAndPan="magnify"><defs/><g><!--class Person--><g id="elem_Person"><rect
        fill="#F1F1F1" height="271.4531" id="Person" rx="2.5" ry="2.5" style="stroke:#181818;stroke-width:0.5;" width="177" x="7" y="690"/><ellipse cx="68.75" cy="706" fill="#ADD1B2" rx="11" ry="11" style="stroke:#181818;stroke-width:1.0;"/><path d="M71.5156,701.875 Q71.6719,701.6563 71.8594,701.5469 Q72.0469,701.4375 72.2656,701.4375 Q72.6406,701.4375 72.875,701.7031 Q73.1094,701.9531 73.1094,702.5625 L73.1094,704.0156 Q73.1094,704.625 72.875,704.8906 Q72.6406,705.1563 72.2656,705.1563 Q71.9219,705.1563 71.7188,704.9531 Q71.5156,704.7656 71.4063,704.25 Q71.3594,703.8906 71.1719,703.7031 Q70.8438,703.3281 70.2344,703.1094 Q69.625,702.8906 69,702.8906 Q68.2344,702.8906 67.5938,703.2188 Q66.9688,703.5469 66.4688,704.2969 Q65.9844,705.0469 65.9844,706.0781 L65.9844,707.1719 Q65.9844,708.4063 66.875,709.2344 Q67.7656,710.0469 69.3594,710.0469 Q70.2969,710.0469 70.9531,709.7969 Q71.3438,709.6406 71.7656,709.2031 Q72.0313,708.9375 72.1719,708.8594 Q72.3281,708.7813 72.5313,708.7813 Q72.8594,708.7813 73.1094,709.0469 Q73.375,709.2969 73.375,709.6406 Q73.375,709.9844 73.0313,710.3906 Q72.5313,710.9688 71.7344,711.2969 Q70.6563,711.75 69.3594,711.75 Q67.8438,711.75 66.6406,711.125 Q65.6563,710.625 64.9688,709.5625 Q64.2813,708.4844 64.2813,707.2031 L64.2813,706.0469 Q64.2813,704.7188 64.8906,703.5781 Q65.5156,702.4219 66.6094,701.8125 Q67.7031,701.1875 68.9375,701.1875 Q69.6719,701.1875 70.3125,701.3594 Q70.9688,701.5156 71.5156,701.875 Z " fill="#000000"/><text fill="#000000" font-family="sans-serif" font-size="14" lengthAdjust="spacing" textLength="45" x="89.25" y="711.7969">Person</text><line style="stroke:#181818;stroke-width:0.5;" x1="8" x2="183" y1="722" y2="722"/><text fill="#000000" font-family="sans-serif" font-size="14" lengthAdjust="spacing" textLength="81" x="13" y="741.1074">-String name</text><text fill="#000000" font-family="sans-serif" font-size="14" lengthAdjust="spacing" textLength="120" x="13" y="759.7285">-Integer taxNumber</text><text fill="#000000" font-family="sans-serif" font-size="14" lengthAdjust="spacing" textLength="131" x="13" y="778.3496">-String emailAddress</text><text fill="#000000" font-family="sans-serif" font-size="14" lengthAdjust="spacing" textLength="165" x="13" y="796.9707">-Integer telephoneNumber</text><line style="stroke:#181818;stroke-width:0.5;" x1="8" x2="183" y1="804.4844" y2="804.4844"/><text fill="#000000" font-family="sans-serif" font-size="14" lengthAdjust="spacing" textLength="155" x="13" y="823.5918">+getTelephoneNumber()</text><text fill="#000000" font-family="sans-serif" font-size="14" lengthAdjust="spacing" textLength="124" x="13" y="842.2129">+getEmailAddress()</text><text fill="#000000" font-family="sans-serif" font-size="14" lengthAdjust="spacing" textLength="110" x="13" y="860.834">+getTaxNumber()</text><text fill="#000000" font-family="sans-serif" font-size="14" lengthAdjust="spacing" textLength="74" x="13" y="879.4551">+getName()</text><text fill="#000000" font-family="sans-serif" font-size="14" lengthAdjust="spacing" textLength="151" x="13" y="898.0762">-setTelephoneNumber()</text><text fill="#000000" font-family="sans-serif" font-size="14" lengthAdjust="spacing" textLength="120" x="13" y="916.6973">-setEmailAddress()</text><text fill="#000000" font-family="sans-serif" font-size="14" lengthAdjust="spacing" textLength="106" x="13" y="935.3184">-setTaxNumber()</text><text fill="#000000" font-family="sans-serif" font-size="14" lengthAdjust="spacing" textLength="70" x="13" y="953.9395">-setName()</text></g><!--class Role--><g id="elem_Role"><rect
        fill="#F1F1F1" height="141.1055" id="Role" rx="2.5" ry="2.5" style="stroke:#181818;stroke-width:0.5;" width="147" x="31" y="396"/><ellipse cx="85.75" cy="412" fill="#ADD1B2" rx="11" ry="11" style="stroke:#181818;stroke-width:1.0;"/><path d="M88.5156,407.875 Q88.6719,407.6563 88.8594,407.5469 Q89.0469,407.4375 89.2656,407.4375 Q89.6406,407.4375 89.875,407.7031 Q90.1094,407.9531 90.1094,408.5625 L90.1094,410.0156 Q90.1094,410.625 89.875,410.8906 Q89.6406,411.1563 89.2656,411.1563 Q88.9219,411.1563 88.7188,410.9531 Q88.5156,410.7656 88.4063,410.25 Q88.3594,409.8906 88.1719,409.7031 Q87.8438,409.3281 87.2344,409.1094 Q86.625,408.8906 86,408.8906 Q85.2344,408.8906 84.5938,409.2188 Q83.9688,409.5469 83.4688,410.2969 Q82.9844,411.0469 82.9844,412.0781 L82.9844,413.1719 Q82.9844,414.4063 83.875,415.2344 Q84.7656,416.0469 86.3594,416.0469 Q87.2969,416.0469 87.9531,415.7969 Q88.3438,415.6406 88.7656,415.2031 Q89.0313,414.9375 89.1719,414.8594 Q89.3281,414.7813 89.5313,414.7813 Q89.8594,414.7813 90.1094,415.0469 Q90.375,415.2969 90.375,415.6406 Q90.375,415.9844 90.0313,416.3906 Q89.5313,416.9688 88.7344,417.2969 Q87.6563,417.75 86.3594,417.75 Q84.8438,417.75 83.6406,417.125 Q82.6563,416.625 81.9688,415.5625 Q81.2813,414.4844 81.2813,413.2031 L81.2813,412.0469 Q81.2813,410.7188 81.8906,409.5781 Q82.5156,408.4219 83.6094,407.8125 Q84.7031,407.1875 85.9375,407.1875 Q86.6719,407.1875 87.3125,407.3594 Q87.9688,407.5156 88.5156,407.875 Z " fill="#000000"/><text fill="#000000" font-family="sans-serif" font-size="14" lengthAdjust="spacing" textLength="29" x="106.25" y="417.7969">Role</text><line style="stroke:#181818;stroke-width:0.5;" x1="32" x2="177" y1="428" y2="428"/><text fill="#000000" font-family="sans-serif" font-size="14" lengthAdjust="spacing" textLength="57" x="37" y="447.1074">-String id</text><text fill="#000000" font-family="sans-serif" font-size="14" lengthAdjust="spacing" textLength="115" x="37" y="465.7285">-String description</text><line style="stroke:#181818;stroke-width:1.0;" x1="32" x2="177" y1="473.2422" y2="473.2422"/><text fill="#000000" font-family="sans-serif" font-size="14" lengthAdjust="spacing" textLength="135" x="37" y="492.3496">+Role(id, description)</text><text fill="#000000" font-family="sans-serif" font-size="14" lengthAdjust="spacing" textLength="41" x="37" y="510.9707">+getID</text><text fill="#000000" font-family="sans-serif" font-size="14" lengthAdjust="spacing" textLength="99" x="37" y="529.5918">+getDescription</text></g><!--class Agent--><g id="elem_Agent"><rect
        fill="#F1F1F1" height="103.8633" id="Agent" rx="2.5" ry="2.5" style="stroke:#181818;stroke-width:0.5;" width="114" x="219.5" y="773.5"/><ellipse cx="254.75" cy="789.5" fill="#ADD1B2" rx="11" ry="11" style="stroke:#181818;stroke-width:1.0;"/><path d="M257.5156,785.375 Q257.6719,785.1563 257.8594,785.0469 Q258.0469,784.9375 258.2656,784.9375 Q258.6406,784.9375 258.875,785.2031 Q259.1094,785.4531 259.1094,786.0625 L259.1094,787.5156 Q259.1094,788.125 258.875,788.3906 Q258.6406,788.6563 258.2656,788.6563 Q257.9219,788.6563 257.7188,788.4531 Q257.5156,788.2656 257.4063,787.75 Q257.3594,787.3906 257.1719,787.2031 Q256.8438,786.8281 256.2344,786.6094 Q255.625,786.3906 255,786.3906 Q254.2344,786.3906 253.5938,786.7188 Q252.9688,787.0469 252.4688,787.7969 Q251.9844,788.5469 251.9844,789.5781 L251.9844,790.6719 Q251.9844,791.9063 252.875,792.7344 Q253.7656,793.5469 255.3594,793.5469 Q256.2969,793.5469 256.9531,793.2969 Q257.3438,793.1406 257.7656,792.7031 Q258.0313,792.4375 258.1719,792.3594 Q258.3281,792.2813 258.5313,792.2813 Q258.8594,792.2813 259.1094,792.5469 Q259.375,792.7969 259.375,793.1406 Q259.375,793.4844 259.0313,793.8906 Q258.5313,794.4688 257.7344,794.7969 Q256.6563,795.25 255.3594,795.25 Q253.8438,795.25 252.6406,794.625 Q251.6563,794.125 250.9688,793.0625 Q250.2813,791.9844 250.2813,790.7031 L250.2813,789.5469 Q250.2813,788.2188 250.8906,787.0781 Q251.5156,785.9219 252.6094,785.3125 Q253.7031,784.6875 254.9375,784.6875 Q255.6719,784.6875 256.3125,784.8594 Q256.9688,785.0156 257.5156,785.375 Z " fill="#000000"/><text fill="#000000" font-family="sans-serif" font-size="14" lengthAdjust="spacing" textLength="37" x="273.25" y="795.2969">Agent</text><line style="stroke:#181818;stroke-width:0.5;" x1="220.5" x2="332.5" y1="805.5" y2="805.5"/><text fill="#000000" font-family="sans-serif" font-size="14" lengthAdjust="spacing" textLength="102" x="225.5" y="824.6074">-Agency agency</text><line style="stroke:#181818;stroke-width:1.0;" x1="220.5" x2="332.5" y1="832.1211" y2="832.1211"/><text fill="#000000" font-family="sans-serif" font-size="14" lengthAdjust="spacing" textLength="85" x="225.5" y="851.2285">+getAgency()</text><text fill="#000000" font-family="sans-serif" font-size="14" lengthAdjust="spacing" textLength="81" x="225.5" y="869.8496">-setAgency()</text></g><!--class Email--><g id="elem_Email"><rect
        fill="#F1F1F1" height="48" id="Email" rx="2.5" ry="2.5" style="stroke:#181818;stroke-width:0.5;" width="66" x="514.5" y="7"/><ellipse cx="529.5" cy="23" fill="#ADD1B2" rx="11" ry="11" style="stroke:#181818;stroke-width:1.0;"/><path d="M532.2656,18.875 Q532.4219,18.6563 532.6094,18.5469 Q532.7969,18.4375 533.0156,18.4375 Q533.3906,18.4375 533.625,18.7031 Q533.8594,18.9531 533.8594,19.5625 L533.8594,21.0156 Q533.8594,21.625 533.625,21.8906 Q533.3906,22.1563 533.0156,22.1563 Q532.6719,22.1563 532.4688,21.9531 Q532.2656,21.7656 532.1563,21.25 Q532.1094,20.8906 531.9219,20.7031 Q531.5938,20.3281 530.9844,20.1094 Q530.375,19.8906 529.75,19.8906 Q528.9844,19.8906 528.3438,20.2188 Q527.7188,20.5469 527.2188,21.2969 Q526.7344,22.0469 526.7344,23.0781 L526.7344,24.1719 Q526.7344,25.4063 527.625,26.2344 Q528.5156,27.0469 530.1094,27.0469 Q531.0469,27.0469 531.7031,26.7969 Q532.0938,26.6406 532.5156,26.2031 Q532.7813,25.9375 532.9219,25.8594 Q533.0781,25.7813 533.2813,25.7813 Q533.6094,25.7813 533.8594,26.0469 Q534.125,26.2969 534.125,26.6406 Q534.125,26.9844 533.7813,27.3906 Q533.2813,27.9688 532.4844,28.2969 Q531.4063,28.75 530.1094,28.75 Q528.5938,28.75 527.3906,28.125 Q526.4063,27.625 525.7188,26.5625 Q525.0313,25.4844 525.0313,24.2031 L525.0313,23.0469 Q525.0313,21.7188 525.6406,20.5781 Q526.2656,19.4219 527.3594,18.8125 Q528.4531,18.1875 529.6875,18.1875 Q530.4219,18.1875 531.0625,18.3594 Q531.7188,18.5156 532.2656,18.875 Z " fill="#000000"/><text fill="#000000" font-family="sans-serif" font-size="14" lengthAdjust="spacing" textLength="34" x="543.5" y="28.7969">Email</text><line style="stroke:#181818;stroke-width:0.5;" x1="515.5" x2="579.5" y1="39" y2="39"/><line style="stroke:#181818;stroke-width:0.5;" x1="515.5" x2="579.5" y1="47" y2="47"/></g><!--class PurchaseOrderUI--><g id="elem_PurchaseOrderUI"><rect
        fill="#F1F1F1" height="66.6211" id="PurchaseOrderUI" rx="2.5" ry="2.5" style="stroke:#181818;stroke-width:0.5;" width="158" x="357.5" y="433"/><ellipse cx="380.15" cy="449" fill="#ADD1B2" rx="11" ry="11" style="stroke:#181818;stroke-width:1.0;"/><path d="M382.9156,444.875 Q383.0719,444.6563 383.2594,444.5469 Q383.4469,444.4375 383.6656,444.4375 Q384.0406,444.4375 384.275,444.7031 Q384.5094,444.9531 384.5094,445.5625 L384.5094,447.0156 Q384.5094,447.625 384.275,447.8906 Q384.0406,448.1563 383.6656,448.1563 Q383.3219,448.1563 383.1188,447.9531 Q382.9156,447.7656 382.8063,447.25 Q382.7594,446.8906 382.5719,446.7031 Q382.2438,446.3281 381.6344,446.1094 Q381.025,445.8906 380.4,445.8906 Q379.6344,445.8906 378.9938,446.2188 Q378.3688,446.5469 377.8688,447.2969 Q377.3844,448.0469 377.3844,449.0781 L377.3844,450.1719 Q377.3844,451.4063 378.275,452.2344 Q379.1656,453.0469 380.7594,453.0469 Q381.6969,453.0469 382.3531,452.7969 Q382.7438,452.6406 383.1656,452.2031 Q383.4313,451.9375 383.5719,451.8594 Q383.7281,451.7813 383.9313,451.7813 Q384.2594,451.7813 384.5094,452.0469 Q384.775,452.2969 384.775,452.6406 Q384.775,452.9844 384.4313,453.3906 Q383.9313,453.9688 383.1344,454.2969 Q382.0563,454.75 380.7594,454.75 Q379.2438,454.75 378.0406,454.125 Q377.0563,453.625 376.3688,452.5625 Q375.6813,451.4844 375.6813,450.2031 L375.6813,449.0469 Q375.6813,447.7188 376.2906,446.5781 Q376.9156,445.4219 378.0094,444.8125 Q379.1031,444.1875 380.3375,444.1875 Q381.0719,444.1875 381.7125,444.3594 Q382.3688,444.5156 382.9156,444.875 Z " fill="#000000"/><text fill="#000000" font-family="sans-serif" font-size="14" lengthAdjust="spacing" textLength="109" x="395.85" y="454.7969">PurchaseOrderUI</text><line style="stroke:#181818;stroke-width:0.5;" x1="358.5" x2="514.5" y1="465" y2="465"/><line style="stroke:#181818;stroke-width:0.5;" x1="358.5" x2="514.5" y1="473" y2="473"/><text fill="#000000" font-family="sans-serif" font-size="14" lengthAdjust="spacing" textLength="146" x="363.5" y="492.1074">+keepPurchaseOrder()</text></g><!--class PurchaseOrderController--><g id="elem_PurchaseOrderController"><rect
        fill="#F1F1F1" height="66.6211" id="PurchaseOrderController" rx="2.5" ry="2.5" style="stroke:#181818;stroke-width:0.5;" width="191" x="452" y="176"/><ellipse cx="467" cy="192" fill="#ADD1B2" rx="11" ry="11" style="stroke:#181818;stroke-width:1.0;"/><path d="M469.7656,187.875 Q469.9219,187.6563 470.1094,187.5469 Q470.2969,187.4375 470.5156,187.4375 Q470.8906,187.4375 471.125,187.7031 Q471.3594,187.9531 471.3594,188.5625 L471.3594,190.0156 Q471.3594,190.625 471.125,190.8906 Q470.8906,191.1563 470.5156,191.1563 Q470.1719,191.1563 469.9688,190.9531 Q469.7656,190.7656 469.6563,190.25 Q469.6094,189.8906 469.4219,189.7031 Q469.0938,189.3281 468.4844,189.1094 Q467.875,188.8906 467.25,188.8906 Q466.4844,188.8906 465.8438,189.2188 Q465.2188,189.5469 464.7188,190.2969 Q464.2344,191.0469 464.2344,192.0781 L464.2344,193.1719 Q464.2344,194.4063 465.125,195.2344 Q466.0156,196.0469 467.6094,196.0469 Q468.5469,196.0469 469.2031,195.7969 Q469.5938,195.6406 470.0156,195.2031 Q470.2813,194.9375 470.4219,194.8594 Q470.5781,194.7813 470.7813,194.7813 Q471.1094,194.7813 471.3594,195.0469 Q471.625,195.2969 471.625,195.6406 Q471.625,195.9844 471.2813,196.3906 Q470.7813,196.9688 469.9844,197.2969 Q468.9063,197.75 467.6094,197.75 Q466.0938,197.75 464.8906,197.125 Q463.9063,196.625 463.2188,195.5625 Q462.5313,194.4844 462.5313,193.2031 L462.5313,192.0469 Q462.5313,190.7188 463.1406,189.5781 Q463.7656,188.4219 464.8594,187.8125 Q465.9531,187.1875 467.1875,187.1875 Q467.9219,187.1875 468.5625,187.3594 Q469.2188,187.5156 469.7656,187.875 Z " fill="#000000"/><text fill="#000000" font-family="sans-serif" font-size="14" lengthAdjust="spacing" textLength="159" x="481" y="197.7969">PurchaseOrderController</text><line style="stroke:#181818;stroke-width:0.5;" x1="453" x2="642" y1="208" y2="208"/><line style="stroke:#181818;stroke-width:0.5;" x1="453" x2="642" y1="216" y2="216"/><text fill="#000000" font-family="sans-serif" font-size="14" lengthAdjust="spacing" textLength="117" x="458" y="235.1074">+sendEmail(Email)</text></g><!--class Repositories--><g id="elem_Repositories"><rect  fill="#F1F1F1" height="141.1055" id="Repositories" rx="2.5" ry="2.5" style="stroke:#181818;stroke-width:0.5;" width="215" x="551" y="396"/><ellipse cx="614.75" cy="412" fill="#ADD1B2" rx="11" ry="11" style="stroke:#181818;stroke-width:1.0;"/><path d="M617.5156,407.875 Q617.6719,407.6563 617.8594,407.5469 Q618.0469,407.4375 618.2656,407.4375 Q618.6406,407.4375 618.875,407.7031 Q619.1094,407.9531 619.1094,408.5625 L619.1094,410.0156 Q619.1094,410.625 618.875,410.8906 Q618.6406,411.1563 618.2656,411.1563 Q617.9219,411.1563 617.7188,410.9531 Q617.5156,410.7656 617.4063,410.25 Q617.3594,409.8906 617.1719,409.7031 Q616.8438,409.3281 616.2344,409.1094 Q615.625,408.8906 615,408.8906 Q614.2344,408.8906 613.5938,409.2188 Q612.9688,409.5469 612.4688,410.2969 Q611.9844,411.0469 611.9844,412.0781 L611.9844,413.1719 Q611.9844,414.4063 612.875,415.2344 Q613.7656,416.0469 615.3594,416.0469 Q616.2969,416.0469 616.9531,415.7969 Q617.3438,415.6406 617.7656,415.2031 Q618.0313,414.9375 618.1719,414.8594 Q618.3281,414.7813 618.5313,414.7813 Q618.8594,414.7813 619.1094,415.0469 Q619.375,415.2969 619.375,415.6406 Q619.375,415.9844 619.0313,416.3906 Q618.5313,416.9688 617.7344,417.2969 Q616.6563,417.75 615.3594,417.75 Q613.8438,417.75 612.6406,417.125 Q611.6563,416.625 610.9688,415.5625 Q610.2813,414.4844 610.2813,413.2031 L610.2813,412.0469 Q610.2813,410.7188 610.8906,409.5781 Q611.5156,408.4219 612.6094,407.8125 Q613.7031,407.1875 614.9375,407.1875 Q615.6719,407.1875 616.3125,407.3594 Q616.9688,407.5156 617.5156,407.875 Z " fill="#000000"/><text fill="#000000" font-family="sans-serif" font-size="14" lengthAdjust="spacing" textLength="79" x="635.25" y="417.7969">Repositories</text><line style="stroke:#181818;stroke-width:0.5;" x1="552" x2="765" y1="428" y2="428"/><line style="stroke:#181818;stroke-width:1.0;" x1="552" x2="765" y1="436" y2="436"/><text fill="#000000" font-family="sans-serif" font-size="14" lengthAdjust="spacing" textLength="94" x="557" y="455.1074">-Repositories()</text><text fill="#000000" font-family="sans-serif" font-size="14" lengthAdjust="spacing" textLength="182" x="557" y="473.7285">+getInstance() : Repositories</text><text fill="#000000" font-family="sans-serif" font-size="14" lengthAdjust="spacing" textLength="203" x="557" y="492.3496">+getPurchaseOrderRepository()</text><text fill="#000000" font-family="sans-serif" font-size="14" lengthAdjust="spacing" textLength="201" x="557" y="510.9707">+getAnnouncementRepository()</text><text fill="#000000" font-family="sans-serif" font-size="14" lengthAdjust="spacing" textLength="196" x="557" y="529.5918">+getAuthenticationRepository()</text></g><!--class PurchaseRepository--><g id="elem_PurchaseRepository"><rect
        fill="#F1F1F1" height="159.7266" id="PurchaseRepository" rx="2.5" ry="2.5" style="stroke:#181818;stroke-width:0.5;" width="243" x="528" y="745.5"/><ellipse cx="581.25" cy="761.5" fill="#ADD1B2" rx="11" ry="11" style="stroke:#181818;stroke-width:1.0;"/><path d="M584.0156,757.375 Q584.1719,757.1563 584.3594,757.0469 Q584.5469,756.9375 584.7656,756.9375 Q585.1406,756.9375 585.375,757.2031 Q585.6094,757.4531 585.6094,758.0625 L585.6094,759.5156 Q585.6094,760.125 585.375,760.3906 Q585.1406,760.6563 584.7656,760.6563 Q584.4219,760.6563 584.2188,760.4531 Q584.0156,760.2656 583.9063,759.75 Q583.8594,759.3906 583.6719,759.2031 Q583.3438,758.8281 582.7344,758.6094 Q582.125,758.3906 581.5,758.3906 Q580.7344,758.3906 580.0938,758.7188 Q579.4688,759.0469 578.9688,759.7969 Q578.4844,760.5469 578.4844,761.5781 L578.4844,762.6719 Q578.4844,763.9063 579.375,764.7344 Q580.2656,765.5469 581.8594,765.5469 Q582.7969,765.5469 583.4531,765.2969 Q583.8438,765.1406 584.2656,764.7031 Q584.5313,764.4375 584.6719,764.3594 Q584.8281,764.2813 585.0313,764.2813 Q585.3594,764.2813 585.6094,764.5469 Q585.875,764.7969 585.875,765.1406 Q585.875,765.4844 585.5313,765.8906 Q585.0313,766.4688 584.2344,766.7969 Q583.1563,767.25 581.8594,767.25 Q580.3438,767.25 579.1406,766.625 Q578.1563,766.125 577.4688,765.0625 Q576.7813,763.9844 576.7813,762.7031 L576.7813,761.5469 Q576.7813,760.2188 577.3906,759.0781 Q578.0156,757.9219 579.1094,757.3125 Q580.2031,756.6875 581.4375,756.6875 Q582.1719,756.6875 582.8125,756.8594 Q583.4688,757.0156 584.0156,757.375 Z " fill="#000000"/><text fill="#000000" font-family="sans-serif" font-size="14" lengthAdjust="spacing" textLength="128" x="601.75" y="767.2969">PurchaseRepository</text><line style="stroke:#181818;stroke-width:0.5;" x1="529" x2="770" y1="777.5" y2="777.5"/><line style="stroke:#181818;stroke-width:0.5;" x1="529" x2="770" y1="785.5" y2="785.5"/><text fill="#000000" font-family="sans-serif" font-size="14" lengthAdjust="spacing" textLength="143" x="534" y="804.6074">-PurchaseRepository()</text><text fill="#000000" font-family="sans-serif" font-size="14" lengthAdjust="spacing" textLength="231" x="534" y="823.2285">+getInstance() : PurchaseRepository</text><text fill="#000000" font-family="sans-serif" font-size="14" lengthAdjust="spacing" textLength="230" x="534" y="841.8496">+getPurchaseOrderTBARepository()</text><text fill="#000000" font-family="sans-serif" font-size="14" lengthAdjust="spacing" textLength="212" x="534" y="860.4707">+getPurchaseOrderARepository()</text><text fill="#000000" font-family="sans-serif" font-size="14" lengthAdjust="spacing" textLength="201" x="534" y="879.0918">+getAnnouncementRepository()</text><text fill="#000000" font-family="sans-serif" font-size="14" lengthAdjust="spacing" textLength="196" x="534" y="897.7129">+getAuthenticationRepository()</text></g><polygon fill="none" points="649.5,905.2266,656.5,925.2266,642.5,925.2266" style="stroke:#181818;stroke-width:1.0;"/><line style="stroke:#181818;stroke-width:1.0;" x1="649.5" x2="649.5" y1="925.2266" y2="925.5"/><polygon fill="none" points="543.6262,905.2266,531.8749,922.8591,523.444,911.6823" style="stroke:#181818;stroke-width:1.0;"/><line style="stroke:#181818;stroke-width:1.0;" x1="527.6595" x2="516.75" y1="917.2707" y2="925.5"/><line style="stroke:#181818;stroke-width:1.0;" x1="656.6731" x2="658.5" y1="745.5" y2="725.16"/><!--class PurchaseOrderTBARepository--><g id="elem_PurchaseOrderTBARepository"><rect
        fill="#F1F1F1" height="122.4844" id="PurchaseOrderTBARepository" rx="2.5" ry="2.5" style="stroke:#181818;stroke-width:0.5;" width="248" x="258.5" y="1203"/><ellipse cx="284.3" cy="1219" fill="#ADD1B2" rx="11" ry="11" style="stroke:#181818;stroke-width:1.0;"/><path d="M287.0656,1214.875 Q287.2219,1214.6563 287.4094,1214.5469 Q287.5969,1214.4375 287.8156,1214.4375 Q288.1906,1214.4375 288.425,1214.7031 Q288.6594,1214.9531 288.6594,1215.5625 L288.6594,1217.0156 Q288.6594,1217.625 288.425,1217.8906 Q288.1906,1218.1563 287.8156,1218.1563 Q287.4719,1218.1563 287.2688,1217.9531 Q287.0656,1217.7656 286.9563,1217.25 Q286.9094,1216.8906 286.7219,1216.7031 Q286.3938,1216.3281 285.7844,1216.1094 Q285.175,1215.8906 284.55,1215.8906 Q283.7844,1215.8906 283.1438,1216.2188 Q282.5188,1216.5469 282.0188,1217.2969 Q281.5344,1218.0469 281.5344,1219.0781 L281.5344,1220.1719 Q281.5344,1221.4063 282.425,1222.2344 Q283.3156,1223.0469 284.9094,1223.0469 Q285.8469,1223.0469 286.5031,1222.7969 Q286.8938,1222.6406 287.3156,1222.2031 Q287.5813,1221.9375 287.7219,1221.8594 Q287.8781,1221.7813 288.0813,1221.7813 Q288.4094,1221.7813 288.6594,1222.0469 Q288.925,1222.2969 288.925,1222.6406 Q288.925,1222.9844 288.5813,1223.3906 Q288.0813,1223.9688 287.2844,1224.2969 Q286.2063,1224.75 284.9094,1224.75 Q283.3938,1224.75 282.1906,1224.125 Q281.2063,1223.625 280.5188,1222.5625 Q279.8313,1221.4844 279.8313,1220.2031 L279.8313,1219.0469 Q279.8313,1217.7188 280.4406,1216.5781 Q281.0656,1215.4219 282.1594,1214.8125 Q283.2531,1214.1875 284.4875,1214.1875 Q285.2219,1214.1875 285.8625,1214.3594 Q286.5188,1214.5156 287.0656,1214.875 Z " fill="#000000"/><text fill="#000000" font-family="sans-serif" font-size="14" lengthAdjust="spacing" textLength="192" x="300.7" y="1224.7969">PurchaseOrderTBARepository</text><line style="stroke:#181818;stroke-width:0.5;" x1="259.5" x2="505.5" y1="1235" y2="1235"/><line style="stroke:#181818;stroke-width:1.0;" x1="259.5" x2="505.5" y1="1243" y2="1243"/><text fill="#000000" font-family="sans-serif" font-size="14" lengthAdjust="spacing" textLength="235" x="264.5" y="1262.1074">+addPurchaseOrder(purchaseOrder)</text><text fill="#000000" font-family="sans-serif" font-size="14" lengthAdjust="spacing" textLength="236" x="264.5" y="1280.7285">+checkExistingOrder(purchaseOrder)</text><text fill="#000000" font-family="sans-serif" font-size="14" lengthAdjust="spacing" textLength="142" x="264.5" y="1299.3496">+getPurchaseOrders()</text><text fill="#000000" font-family="sans-serif" font-size="14" lengthAdjust="spacing" textLength="162" x="264.5" y="1317.9707">+removePurchaseOrder()</text></g><!--class PurchaseOrderARepository--><g id="elem_PurchaseOrderARepository"><rect
        fill="#F1F1F1" height="122.4844" id="PurchaseOrderARepository" rx="2.5" ry="2.5" style="stroke:#181818;stroke-width:0.5;" width="248" x="525.5" y="1021"/><ellipse cx="559.4" cy="1037" fill="#ADD1B2" rx="11" ry="11" style="stroke:#181818;stroke-width:1.0;"/><path d="M562.1656,1032.875 Q562.3219,1032.6563 562.5094,1032.5469 Q562.6969,1032.4375 562.9156,1032.4375 Q563.2906,1032.4375 563.525,1032.7031 Q563.7594,1032.9531 563.7594,1033.5625 L563.7594,1035.0156 Q563.7594,1035.625 563.525,1035.8906 Q563.2906,1036.1563 562.9156,1036.1563 Q562.5719,1036.1563 562.3688,1035.9531 Q562.1656,1035.7656 562.0563,1035.25 Q562.0094,1034.8906 561.8219,1034.7031 Q561.4938,1034.3281 560.8844,1034.1094 Q560.275,1033.8906 559.65,1033.8906 Q558.8844,1033.8906 558.2438,1034.2188 Q557.6188,1034.5469 557.1188,1035.2969 Q556.6344,1036.0469 556.6344,1037.0781 L556.6344,1038.1719 Q556.6344,1039.4063 557.525,1040.2344 Q558.4156,1041.0469 560.0094,1041.0469 Q560.9469,1041.0469 561.6031,1040.7969 Q561.9938,1040.6406 562.4156,1040.2031 Q562.6813,1039.9375 562.8219,1039.8594 Q562.9781,1039.7813 563.1813,1039.7813 Q563.5094,1039.7813 563.7594,1040.0469 Q564.025,1040.2969 564.025,1040.6406 Q564.025,1040.9844 563.6813,1041.3906 Q563.1813,1041.9688 562.3844,1042.2969 Q561.3063,1042.75 560.0094,1042.75 Q558.4938,1042.75 557.2906,1042.125 Q556.3063,1041.625 555.6188,1040.5625 Q554.9313,1039.4844 554.9313,1038.2031 L554.9313,1037.0469 Q554.9313,1035.7188 555.5406,1034.5781 Q556.1656,1033.4219 557.2594,1032.8125 Q558.3531,1032.1875 559.5875,1032.1875 Q560.3219,1032.1875 560.9625,1032.3594 Q561.6188,1032.5156 562.1656,1032.875 Z " fill="#000000"/><text fill="#000000" font-family="sans-serif" font-size="14" lengthAdjust="spacing" textLength="174" x="577.6" y="1042.7969">PurchaseOrderARepository</text><line style="stroke:#181818;stroke-width:0.5;" x1="526.5" x2="772.5" y1="1053" y2="1053"/><line style="stroke:#181818;stroke-width:1.0;" x1="526.5" x2="772.5" y1="1061" y2="1061"/><text fill="#000000" font-family="sans-serif" font-size="14" lengthAdjust="spacing" textLength="235" x="531.5" y="1080.1074">+addPurchaseOrder(purchaseOrder)</text><text fill="#000000" font-family="sans-serif" font-size="14" lengthAdjust="spacing" textLength="236" x="531.5" y="1098.7285">+checkExistingOrder(purchaseOrder)</text><text fill="#000000" font-family="sans-serif" font-size="14" lengthAdjust="spacing" textLength="142" x="531.5" y="1117.3496">+getPurchaseOrders()</text><text fill="#000000" font-family="sans-serif" font-size="14" lengthAdjust="spacing" textLength="162" x="531.5" y="1135.9707">+removePurchaseOrder()</text></g><!--class Address--><g id="elem_Address"><rect
        fill="#F1F1F1" height="327.3164" id="Address" rx="2.5" ry="2.5" style="stroke:#181818;stroke-width:0.5;" width="109" x="213" y="303"/><ellipse cx="239.25" cy="319" fill="#ADD1B2" rx="11" ry="11" style="stroke:#181818;stroke-width:1.0;"/><path d="M242.0156,314.875 Q242.1719,314.6563 242.3594,314.5469 Q242.5469,314.4375 242.7656,314.4375 Q243.1406,314.4375 243.375,314.7031 Q243.6094,314.9531 243.6094,315.5625 L243.6094,317.0156 Q243.6094,317.625 243.375,317.8906 Q243.1406,318.1563 242.7656,318.1563 Q242.4219,318.1563 242.2188,317.9531 Q242.0156,317.7656 241.9063,317.25 Q241.8594,316.8906 241.6719,316.7031 Q241.3438,316.3281 240.7344,316.1094 Q240.125,315.8906 239.5,315.8906 Q238.7344,315.8906 238.0938,316.2188 Q237.4688,316.5469 236.9688,317.2969 Q236.4844,318.0469 236.4844,319.0781 L236.4844,320.1719 Q236.4844,321.4063 237.375,322.2344 Q238.2656,323.0469 239.8594,323.0469 Q240.7969,323.0469 241.4531,322.7969 Q241.8438,322.6406 242.2656,322.2031 Q242.5313,321.9375 242.6719,321.8594 Q242.8281,321.7813 243.0313,321.7813 Q243.3594,321.7813 243.6094,322.0469 Q243.875,322.2969 243.875,322.6406 Q243.875,322.9844 243.5313,323.3906 Q243.0313,323.9688 242.2344,324.2969 Q241.1563,324.75 239.8594,324.75 Q238.3438,324.75 237.1406,324.125 Q236.1563,323.625 235.4688,322.5625 Q234.7813,321.4844 234.7813,320.2031 L234.7813,319.0469 Q234.7813,317.7188 235.3906,316.5781 Q236.0156,315.4219 237.1094,314.8125 Q238.2031,314.1875 239.4375,314.1875 Q240.1719,314.1875 240.8125,314.3594 Q241.4688,314.5156 242.0156,314.875 Z " fill="#000000"/><text fill="#000000" font-family="sans-serif" font-size="14" lengthAdjust="spacing" textLength="52" x="255.75" y="324.7969">Address</text><line style="stroke:#181818;stroke-width:0.5;" x1="214" x2="321" y1="335" y2="335"/><text fill="#000000" font-family="sans-serif" font-size="14" lengthAdjust="spacing" textLength="82" x="219" y="354.1074">-String street</text><text fill="#000000" font-family="sans-serif" font-size="14" lengthAdjust="spacing" textLength="67" x="219" y="372.7285">-String city</text><text fill="#000000" font-family="sans-serif" font-size="14" lengthAdjust="spacing" textLength="87" x="219" y="391.3496">-String district</text><text fill="#000000" font-family="sans-serif" font-size="14" lengthAdjust="spacing" textLength="77" x="219" y="409.9707">-String state</text><text fill="#000000" font-family="sans-serif" font-size="14" lengthAdjust="spacing" textLength="97" x="219" y="428.5918">-String zipCode</text><line style="stroke:#181818;stroke-width:0.5;" x1="214" x2="321" y1="436.1055" y2="436.1055"/><text fill="#000000" font-family="sans-serif" font-size="14" lengthAdjust="spacing" textLength="72" x="219" y="455.2129">-setStreet()</text><text fill="#000000" font-family="sans-serif" font-size="14" lengthAdjust="spacing" textLength="58" x="219" y="473.834">-setCity()</text><text fill="#000000" font-family="sans-serif" font-size="14" lengthAdjust="spacing" textLength="77" x="219" y="492.4551">-setDistrict()</text><text fill="#000000" font-family="sans-serif" font-size="14" lengthAdjust="spacing" textLength="67" x="219" y="511.0762">-setState()</text><text fill="#000000" font-family="sans-serif" font-size="14" lengthAdjust="spacing" textLength="87" x="219" y="529.6973">-setZipCode()</text><text fill="#000000" font-family="sans-serif" font-size="14" lengthAdjust="spacing" textLength="76" x="219" y="548.3184">+getStreet()</text><text fill="#000000" font-family="sans-serif" font-size="14" lengthAdjust="spacing" textLength="62" x="219" y="566.9395">+getCity()</text><text fill="#000000" font-family="sans-serif" font-size="14" lengthAdjust="spacing" textLength="81" x="219" y="585.5605">+getDistrict()</text><text fill="#000000" font-family="sans-serif" font-size="14" lengthAdjust="spacing" textLength="71" x="219" y="604.1816">+getState()</text><text fill="#000000" font-family="sans-serif" font-size="14" lengthAdjust="spacing" textLength="91" x="219" y="622.8027">+getZipCode()</text></g><!--link PurchaseOrderUI to Agent--><g id="link_PurchaseOrderUI_Agent"><path
        d="M357.47,467 C340.6,467 327.75,467 327.75,467 C327.75,467 327.75,768.37 327.75,768.37 " fill="none" id="PurchaseOrderUI-to-Agent" style="stroke:#181818;stroke-width:1.0;stroke-dasharray:7.0,7.0;"/><polygon fill="#181818" points="327.75,773.37,331.75,764.37,327.75,768.37,323.75,764.37,327.75,773.37" style="stroke:#181818;stroke-width:1.0;"/></g><!--link PurchaseOrderController to PurchaseOrderUI--><g id="link_PurchaseOrderController_PurchaseOrderUI"><path
        d="M483.75,243.1 C483.75,243.1 483.75,427.89 483.75,427.89 " fill="none" id="PurchaseOrderController-to-PurchaseOrderUI" style="stroke:#181818;stroke-width:1.0;stroke-dasharray:7.0,7.0;"/><polygon fill="#181818" points="483.75,432.89,487.75,423.89,483.75,427.89,479.75,423.89,483.75,432.89" style="stroke:#181818;stroke-width:1.0;"/></g><!--reverse link Role to Agent--><g id="link_Role_Agent"><path
        d="M191.1,467 C191.1,467 198.5,467 198.5,467 C198.5,467 198.5,809 198.5,809 C198.5,809 207.51,809 219.4,809 " fill="none" id="Role-backto-Agent" style="stroke:#181818;stroke-width:1.0;"/><polygon fill="#181818" points="178.1,467,184.1,471,190.1,467,184.1,463,178.1,467" style="stroke:#181818;stroke-width:1.0;"/></g><!--link Agent to PurchaseOrderTBARepository--><g id="link_Agent_PurchaseOrderTBARepository"><path
        d="M296,877.52 C296,877.52 296,1197.91 296,1197.91 " fill="none" id="Agent-to-PurchaseOrderTBARepository" style="stroke:#181818;stroke-width:1.0;"/><polygon fill="#181818" points="296,1202.91,300,1193.91,296,1197.91,292,1193.91,296,1202.91" style="stroke:#181818;stroke-width:1.0;"/><polygon fill="#000000" points="148,1033.3655,150.9389,1024.3204,145.0611,1024.3204,148,1033.3655" style="stroke:#000000;stroke-width:1.0;"/><text fill="#000000" font-family="sans-serif" font-size="13" lengthAdjust="spacing" textLength="138" x="157" y="1033.7483">approves/declines offers</text></g><!--reverse link Email to PurchaseOrderController--><g id="link_Email_PurchaseOrderController"><path
        d="M547.5,60.07 C547.5,60.07 547.5,175.77 547.5,175.77 " fill="none" id="Email-backto-PurchaseOrderController" style="stroke:#181818;stroke-width:1.0;"/><polygon fill="#181818" points="547.5,55.07,543.5,64.07,547.5,60.07,551.5,64.07,547.5,55.07" style="stroke:#181818;stroke-width:1.0;"/><polygon fill="#000000" points="371.5,113.5655,374.4389,104.5204,368.5611,104.5204,371.5,113.5655" style="stroke:#000000;stroke-width:1.0;"/><text fill="#000000" font-family="sans-serif" font-size="13" lengthAdjust="spacing" textLength="166" x="380.5" y="113.9483">sends update email to owner</text></g><!--link PurchaseOrderController to Repositories--><g id="link_PurchaseOrderController_Repositories"><path
        d="M597,243.1 C597,243.1 597,390.78 597,390.78 " fill="none" id="PurchaseOrderController-to-Repositories" style="stroke:#181818;stroke-width:1.0;stroke-dasharray:7.0,7.0;"/><polygon fill="#181818" points="597,395.78,601,386.78,597,390.78,593,386.78,597,395.78" style="stroke:#181818;stroke-width:1.0;"/></g><!--reverse link PurchaseRepository to PurchaseOrderARepository--><g id="link_PurchaseRepository_PurchaseOrderARepository"><path
        d="M649.5,925.5 C649.5,925.5 649.5,976.75 649.5,1020.6 " fill="none" id="PurchaseRepository-backto-PurchaseOrderARepository" style="stroke:#181818;stroke-width:1.0;"/></g><!--reverse link PurchaseRepository to PurchaseOrderTBARepository--><g id="link_PurchaseRepository_PurchaseOrderTBARepository"><path
        d="M516.75,925.5 C516.75,925.5 516.75,1264 516.75,1264 C516.75,1264 512.96,1264 506.66,1264 " fill="none" id="PurchaseRepository-backto-PurchaseOrderTBARepository" style="stroke:#181818;stroke-width:1.0;"/></g><!--reverse link Repositories to PurchaseRepository--><g id="link_Repositories_PurchaseRepository"><path
        d="M658.5,557.43 C658.5,557.43 658.5,725.16 658.5,725.16 " fill="none" id="Repositories-backto-PurchaseRepository" style="stroke:#181818;stroke-width:1.0;"/><polygon fill="none" points="651.5,557.43,658.5,537.43,665.5,557.43,651.5,557.43" style="stroke:#181818;stroke-width:1.0;"/></g><!--reverse link Person to Agent--><g id="link_Person_Agent"><path
        d="M204.14,843 C204.14,843 219.44,843 219.44,843 " fill="none" id="Person-backto-Agent" style="stroke:#181818;stroke-width:1.0;"/><polygon fill="none" points="204.14,850,184.14,843,204.14,836,204.14,850" style="stroke:#181818;stroke-width:1.0;"/></g><!--reverse link Address to Agent--><g id="link_Address_Agent"><path
        d="M270.75,643.24 C270.75,643.24 270.75,773.45 270.75,773.45 " fill="none" id="Address-backto-Agent" style="stroke:#181818;stroke-width:1.0;"/><polygon fill="#181818" points="270.75,630.24,266.75,636.24,270.75,642.24,274.75,636.24,270.75,630.24" style="stroke:#181818;stroke-width:1.0;"/></g><!--SRC=[pLQxRjim5Dtv5TpiD9LRT0m20sgImKjQrEdIZI6l9S8oIP1K4oVDlvSlowGi5rqAD8FZ-phtgIERBHUAQBB3Yj0jQM1jznrW3TGIqNI0pE1WMiBa4nSDtf3Ev9P6orwjH0kQkoWA-5DcxBW0krU0fRQjH2WpqOuOKrkh-MDlOKMbMFCNm1yHcdMmiTXAh7dJMiouBuXBWK88_WhQIF6AiFkhrYxU5IN83g9Y9ImqeB4bp_VzxX5quGSxmhkQCGt6ZFoX0zLA0IagM2yRi0-bONunMEuoi4pzSCYSwUvTVKcip3bCRvd0304ZJAzBc6yepUMRTBihny9P8J8mL7CLPXdqLHKhzA5ppjxd7iVYLxV3rziCOKXSDo3i8RCNw1wJyA_CukAZDMjYK0neOG8EpIaE2-yrROc1Bvg1_hwAYIwt0AgmH92fc1ifh9PT1ph56X0iv9c7pto8eAJXLceEvj1IghygZDboLyA4ovzVuAl2P_0egXayzXb6BOJi7SREZNBQeRUjit5A_F0BbxTnqqThwc32Sgx-Ky_fBXu-rvDWXLFzxtizBMQqjal2M7adAfTILje2tTuzSsFTWtBURTpWS0OQTl8dJDpZHBNroNx-YrBJmnovf-GHOpM0BLIKstr9BguWpQaT1H8BXUQ5gnl900qCi0xO6INSEEHCl4sucMhjKJFvHyJCBgW0zOeCDF1O2Hf3Zg1UFeAwBSxI6jt7azJi5SsycqeYchsXI8BNYqMlneI5HlAKrv6YKE3nTrKLUJK1knDP_kdch_0I4wMqswpvm83w5w_1ShDnYqUHKgyTnhca8Twpei6zOcuGyKtfNyBoIRYYpiKj5ikIyaxv0r__gYhtuq6SVGh-FgXe6XLaVHAGuuUV3DubpJGU-N7Alm40]--></g></svg>