<?xml version="1.0" encoding="us-ascii" standalone="no"?><svg xmlns="http://www.w3.org/2000/svg" xmlns:xlink="http://www.w3.org/1999/xlink" contentStyleType="text/css" height="1006.2px" preserveAspectRatio="none" style="width:967px;height:1006px;background:#FFFFFF;" version="1.1" viewBox="0 0 967 1006" width="967.8px" zoomAndPan="magnify"><defs/><g><rect fill="#FFFFFF" height="894.5813" style="stroke:#181818;stroke-width:0.6;" width="6" x="21.9" y="56.1727"/><rect fill="#FFFFFF" height="187.7461" style="stroke:#181818;stroke-width:0.6;" width="6" x="293.1" y="70.1473"/><rect fill="#FFFFFF" height="45.3492" style="stroke:#181818;stroke-width:0.6;" width="6" x="293.1" y="276.668"/><rect fill="#FFFFFF" height="216.8953" style="stroke:#181818;stroke-width:0.6;" width="6" x="293.1" y="356.5664"/><rect fill="#FFFFFF" height="329.543" style="stroke:#181818;stroke-width:0.6;" width="6" x="293.1" y="612.2109"/><rect fill="#FFFFFF" height="150.1969" style="stroke:#181818;stroke-width:0.6;" width="6" x="407.1" y="88.9219"/><rect fill="#FFFFFF" height="168.9715" style="stroke:#181818;stroke-width:0.6;" width="6" x="407.1" y="375.341"/><rect fill="#FFFFFF" height="281.6191" style="stroke:#181818;stroke-width:0.6;" width="6" x="407.1" y="630.9855"/><rect fill="#FFFFFF" height="93.873" style="stroke:#181818;stroke-width:0.6;" width="6" x="518.1" y="126.4711"/><rect fill="#FFFFFF" height="93.873" style="stroke:#181818;stroke-width:0.6;" width="6" x="518.1" y="394.1156"/><rect fill="#FFFFFF" height="93.873" style="stroke:#181818;stroke-width:0.6;" width="6" x="518.1" y="649.7602"/><rect fill="#FFFFFF" height="93.873" style="stroke:#181818;stroke-width:0.6;" width="6" x="518.1" y="762.4078"/><rect fill="#FFFFFF" height="56.3238" style="stroke:#181818;stroke-width:0.6;" width="6" x="629.1" y="145.2457"/><rect fill="#FFFFFF" height="56.3238" style="stroke:#181818;stroke-width:0.6;" width="6" x="629.1" y="412.8902"/><rect fill="#FFFFFF" height="56.3238" style="stroke:#181818;stroke-width:0.6;" width="6" x="629.1" y="668.5348"/><rect fill="#FFFFFF" height="56.3238" style="stroke:#181818;stroke-width:0.6;" width="6" x="629.1" y="781.1824"/><rect fill="#FFFFFF" height="18.7746" style="stroke:#181818;stroke-width:0.6;" width="6" x="740.1" y="164.0203"/><rect fill="#FFFFFF" height="18.7746" style="stroke:#181818;stroke-width:0.6;" width="6" x="740.1" y="431.6648"/><rect fill="#FFFFFF" height="18.7746" style="stroke:#181818;stroke-width:0.6;" width="6" x="740.1" y="799.957"/><rect fill="#FFFFFF" height="18.7746" style="stroke:#181818;stroke-width:0.6;" width="6" x="864.3" y="687.3094"/><rect fill="#FFFFFF" height="18.7746" style="stroke:#181818;stroke-width:0.6;" width="6" x="941.1" y="506.7633"/><rect fill="#FFFFFF" height="18.7746" style="stroke:#181818;stroke-width:0.6;" width="6" x="941.1" y="875.0555"/><rect fill="none" height="247.2445" style="stroke:#000000;stroke-width:0.8999999999999999;" width="958.5" x="6" y="331.0172"/><rect fill="none" height="359.8922" style="stroke:#000000;stroke-width:0.8999999999999999;" width="958.5" x="6" y="586.6617"/><line style="stroke:#181818;stroke-width:0.3;stroke-dasharray:5.0,5.0;" x1="24.6" x2="24.6" y1="50.1727" y2="956.7539"/><line style="stroke:#181818;stroke-width:0.3;stroke-dasharray:5.0,5.0;" x1="295.8" x2="295.8" y1="50.1727" y2="956.7539"/><line style="stroke:#181818;stroke-width:0.3;stroke-dasharray:5.0,5.0;" x1="409.8" x2="409.8" y1="50.1727" y2="956.7539"/><line style="stroke:#181818;stroke-width:0.3;stroke-dasharray:5.0,5.0;" x1="520.8" x2="520.8" y1="50.1727" y2="956.7539"/><line style="stroke:#181818;stroke-width:0.3;stroke-dasharray:5.0,5.0;" x1="632.1" x2="632.1" y1="50.1727" y2="956.7539"/><line style="stroke:#181818;stroke-width:0.3;stroke-dasharray:5.0,5.0;" x1="743.1" x2="743.1" y1="50.1727" y2="956.7539"/><line style="stroke:#181818;stroke-width:0.3;stroke-dasharray:5.0,5.0;" x1="867.3" x2="867.3" y1="50.1727" y2="956.7539"/><line style="stroke:#181818;stroke-width:0.3;stroke-dasharray:5.0,5.0;" x1="944.1" x2="944.1" y1="50.1727" y2="956.7539"/><text fill="#000000" font-family="sans-serif" font-size="8.4" lengthAdjust="spacing" textLength="22.2" x="12" y="48.0645">Agent</text><ellipse cx="24.9" cy="8.1" fill="#E3E3E3" rx="4.8" ry="4.8" style="stroke:#181818;stroke-width:0.3;"/><path d="M24.9,12.9 L24.9,29.1 M17.1,17.7 L32.7,17.7 M24.9,29.1 L17.1,38.1 M24.9,29.1 L32.7,38.1 " fill="none" style="stroke:#181818;stroke-width:0.3;"/><text fill="#000000" font-family="sans-serif" font-size="8.4" lengthAdjust="spacing" textLength="22.2" x="12" y="965.2184">Agent</text><ellipse cx="24.9" cy="972.4266" fill="#E3E3E3" rx="4.8" ry="4.8" style="stroke:#181818;stroke-width:0.3;"/><path d="M24.9,977.2266 L24.9,993.4266 M17.1,982.0266 L32.7,982.0266 M24.9,993.4266 L17.1,1002.4266 M24.9,993.4266 L32.7,1002.4266 " fill="none" style="stroke:#181818;stroke-width:0.3;"/><rect fill="#E3E3E3" height="19.5727" rx="1.5" ry="1.5" style="stroke:#181818;stroke-width:0.3;" width="73.8" x="259.2" y="30"/><text fill="#000000" font-family="sans-serif" font-size="8.4" lengthAdjust="spacing" textLength="65.4" x="263.4" y="43.2645">PurchaseOrderUI</text><rect fill="#E3E3E3" height="19.5727" rx="1.5" ry="1.5" style="stroke:#181818;stroke-width:0.3;" width="73.8" x="259.2" y="956.1539"/><text fill="#000000" font-family="sans-serif" font-size="8.4" lengthAdjust="spacing" textLength="65.4" x="263.4" y="969.4184">PurchaseOrderUI</text><rect fill="#E3E3E3" height="19.5727" rx="1.5" ry="1.5" style="stroke:#181818;stroke-width:0.3;" width="103.8" x="358.2" y="30"/><text fill="#000000" font-family="sans-serif" font-size="8.4" lengthAdjust="spacing" textLength="95.4" x="362.4" y="43.2645">PurchaseOrderController</text><rect fill="#E3E3E3" height="19.5727" rx="1.5" ry="1.5" style="stroke:#181818;stroke-width:0.3;" width="103.8" x="358.2" y="956.1539"/><text fill="#000000" font-family="sans-serif" font-size="8.4" lengthAdjust="spacing" textLength="95.4" x="362.4" y="969.4184">PurchaseOrderController</text><rect fill="#E3E3E3" height="19.5727" rx="1.5" ry="1.5" style="stroke:#181818;stroke-width:0.3;" width="55.8" x="493.2" y="30"/><text fill="#000000" font-family="sans-serif" font-size="8.4" lengthAdjust="spacing" textLength="47.4" x="497.4" y="43.2645">Repositories</text><rect fill="#E3E3E3" height="19.5727" rx="1.5" ry="1.5" style="stroke:#181818;stroke-width:0.3;" width="55.8" x="493.2" y="956.1539"/><text fill="#000000" font-family="sans-serif" font-size="8.4" lengthAdjust="spacing" textLength="47.4" x="497.4" y="969.4184">Repositories</text><rect fill="#E3E3E3" height="19.5727" rx="1.5" ry="1.5" style="stroke:#181818;stroke-width:0.3;" width="85.2" x="589.5" y="30"/><text fill="#000000" font-family="sans-serif" font-size="8.4" lengthAdjust="spacing" textLength="76.8" x="593.7" y="43.2645">PurchaseRepository</text><rect fill="#E3E3E3" height="19.5727" rx="1.5" ry="1.5" style="stroke:#181818;stroke-width:0.3;" width="85.2" x="589.5" y="956.1539"/><text fill="#000000" font-family="sans-serif" font-size="8.4" lengthAdjust="spacing" textLength="76.8" x="593.7" y="969.4184">PurchaseRepository</text><rect fill="#E3E3E3" height="19.5727" rx="1.5" ry="1.5" style="stroke:#181818;stroke-width:0.3;" width="123.6" x="681.3" y="30"/><text fill="#000000" font-family="sans-serif" font-size="8.4" lengthAdjust="spacing" textLength="115.2" x="685.5" y="43.2645">PurchaseOrderTBARepository</text><rect fill="#E3E3E3" height="19.5727" rx="1.5" ry="1.5" style="stroke:#181818;stroke-width:0.3;" width="123.6" x="681.3" y="956.1539"/><text fill="#000000" font-family="sans-serif" font-size="8.4" lengthAdjust="spacing" textLength="115.2" x="685.5" y="969.4184">PurchaseOrderTBARepository</text><rect fill="#E3E3E3" height="19.5727" rx="1.5" ry="1.5" style="stroke:#181818;stroke-width:0.3;" width="112.8" x="810.9" y="30"/><text fill="#000000" font-family="sans-serif" font-size="8.4" lengthAdjust="spacing" textLength="104.4" x="815.1" y="43.2645">PurchaseOrderARepository</text><rect fill="#E3E3E3" height="19.5727" rx="1.5" ry="1.5" style="stroke:#181818;stroke-width:0.3;" width="112.8" x="810.9" y="956.1539"/><text fill="#000000" font-family="sans-serif" font-size="8.4" lengthAdjust="spacing" textLength="104.4" x="815.1" y="969.4184">PurchaseOrderARepository</text><rect fill="#E3E3E3" height="19.5727" rx="1.5" ry="1.5" style="stroke:#181818;stroke-width:0.3;" width="28.8" x="929.7" y="30"/><text fill="#000000" font-family="sans-serif" font-size="8.4" lengthAdjust="spacing" textLength="20.4" x="933.9" y="43.2645">Email</text><rect fill="#E3E3E3" height="19.5727" rx="1.5" ry="1.5" style="stroke:#181818;stroke-width:0.3;" width="28.8" x="929.7" y="956.1539"/><text fill="#000000" font-family="sans-serif" font-size="8.4" lengthAdjust="spacing" textLength="20.4" x="933.9" y="969.4184">Email</text><rect fill="#FFFFFF" height="894.5813" style="stroke:#181818;stroke-width:0.6;" width="6" x="21.9" y="56.1727"/><rect fill="#FFFFFF" height="187.7461" style="stroke:#181818;stroke-width:0.6;" width="6" x="293.1" y="70.1473"/><rect fill="#FFFFFF" height="45.3492" style="stroke:#181818;stroke-width:0.6;" width="6" x="293.1" y="276.668"/><rect fill="#FFFFFF" height="216.8953" style="stroke:#181818;stroke-width:0.6;" width="6" x="293.1" y="356.5664"/><rect fill="#FFFFFF" height="329.543" style="stroke:#181818;stroke-width:0.6;" width="6" x="293.1" y="612.2109"/><rect fill="#FFFFFF" height="150.1969" style="stroke:#181818;stroke-width:0.6;" width="6" x="407.1" y="88.9219"/><rect fill="#FFFFFF" height="168.9715" style="stroke:#181818;stroke-width:0.6;" width="6" x="407.1" y="375.341"/><rect fill="#FFFFFF" height="281.6191" style="stroke:#181818;stroke-width:0.6;" width="6" x="407.1" y="630.9855"/><rect fill="#FFFFFF" height="93.873" style="stroke:#181818;stroke-width:0.6;" width="6" x="518.1" y="126.4711"/><rect fill="#FFFFFF" height="93.873" style="stroke:#181818;stroke-width:0.6;" width="6" x="518.1" y="394.1156"/><rect fill="#FFFFFF" height="93.873" style="stroke:#181818;stroke-width:0.6;" width="6" x="518.1" y="649.7602"/><rect fill="#FFFFFF" height="93.873" style="stroke:#181818;stroke-width:0.6;" width="6" x="518.1" y="762.4078"/><rect fill="#FFFFFF" height="56.3238" style="stroke:#181818;stroke-width:0.6;" width="6" x="629.1" y="145.2457"/><rect fill="#FFFFFF" height="56.3238" style="stroke:#181818;stroke-width:0.6;" width="6" x="629.1" y="412.8902"/><rect fill="#FFFFFF" height="56.3238" style="stroke:#181818;stroke-width:0.6;" width="6" x="629.1" y="668.5348"/><rect fill="#FFFFFF" height="56.3238" style="stroke:#181818;stroke-width:0.6;" width="6" x="629.1" y="781.1824"/><rect fill="#FFFFFF" height="18.7746" style="stroke:#181818;stroke-width:0.6;" width="6" x="740.1" y="164.0203"/><rect fill="#FFFFFF" height="18.7746" style="stroke:#181818;stroke-width:0.6;" width="6" x="740.1" y="431.6648"/><rect fill="#FFFFFF" height="18.7746" style="stroke:#181818;stroke-width:0.6;" width="6" x="740.1" y="799.957"/><rect fill="#FFFFFF" height="18.7746" style="stroke:#181818;stroke-width:0.6;" width="6" x="864.3" y="687.3094"/><rect fill="#FFFFFF" height="18.7746" style="stroke:#181818;stroke-width:0.6;" width="6" x="941.1" y="506.7633"/><rect fill="#FFFFFF" height="18.7746" style="stroke:#181818;stroke-width:0.6;" width="6" x="941.1" y="875.0555"/><polygon fill="#181818" points="285.9,67.7473,291.9,70.1473,285.9,72.5473,288.3,70.1473" style="stroke:#181818;stroke-width:0.6;"/><line style="stroke:#181818;stroke-width:0.6;" x1="27.9" x2="289.5" y1="70.1473" y2="70.1473"/><text fill="#000000" font-family="sans-serif" font-size="7.8" font-weight="bold" lengthAdjust="spacing" textLength="4.2" x="32.1" y="66.9896">1</text><text fill="#000000" font-family="sans-serif" font-size="7.8" lengthAdjust="spacing" textLength="140.4" x="38.7" y="66.9896">asks to display list of purchase requests</text><polygon fill="#181818" points="399.9,86.5219,405.9,88.9219,399.9,91.3219,402.3,88.9219" style="stroke:#181818;stroke-width:0.6;"/><line style="stroke:#181818;stroke-width:0.6;" x1="299.1" x2="403.5" y1="88.9219" y2="88.9219"/><text fill="#000000" font-family="sans-serif" font-size="7.8" font-weight="bold" lengthAdjust="spacing" textLength="4.2" x="303.3" y="85.7643">2</text><text fill="#000000" font-family="sans-serif" font-size="7.8" lengthAdjust="spacing" textLength="90" x="309.9" y="85.7643">PurchaseOrderController()</text><polygon fill="#181818" points="399.9,105.2965,405.9,107.6965,399.9,110.0965,402.3,107.6965" style="stroke:#181818;stroke-width:0.6;"/><line style="stroke:#181818;stroke-width:0.6;" x1="299.1" x2="403.5" y1="107.6965" y2="107.6965"/><text fill="#000000" font-family="sans-serif" font-size="7.8" font-weight="bold" lengthAdjust="spacing" textLength="4.2" x="303.3" y="104.5389">3</text><text fill="#000000" font-family="sans-serif" font-size="7.8" lengthAdjust="spacing" textLength="87" x="309.9" y="104.5389">getPurchaseOrdersTBA()</text><polygon fill="#181818" points="510.9,124.0711,516.9,126.4711,510.9,128.8711,513.3,126.4711" style="stroke:#181818;stroke-width:0.6;"/><line style="stroke:#181818;stroke-width:0.6;" x1="413.1" x2="514.5" y1="126.4711" y2="126.4711"/><text fill="#000000" font-family="sans-serif" font-size="7.8" font-weight="bold" lengthAdjust="spacing" textLength="4.2" x="417.3" y="123.3135">4</text><text fill="#000000" font-family="sans-serif" font-size="7.8" lengthAdjust="spacing" textLength="87" x="423.9" y="123.3135">getPurchaseOrdersTBA()</text><polygon fill="#181818" points="621.9,142.8457,627.9,145.2457,621.9,147.6457,624.3,145.2457" style="stroke:#181818;stroke-width:0.6;"/><line style="stroke:#181818;stroke-width:0.6;" x1="524.1" x2="625.5" y1="145.2457" y2="145.2457"/><text fill="#000000" font-family="sans-serif" font-size="7.8" font-weight="bold" lengthAdjust="spacing" textLength="4.2" x="528.3" y="142.0881">5</text><text fill="#000000" font-family="sans-serif" font-size="7.8" lengthAdjust="spacing" textLength="87" x="534.9" y="142.0881">getPurchaseOrdersTBA()</text><polygon fill="#181818" points="732.9,161.6203,738.9,164.0203,732.9,166.4203,735.3,164.0203" style="stroke:#181818;stroke-width:0.6;"/><line style="stroke:#181818;stroke-width:0.6;" x1="635.1" x2="736.5" y1="164.0203" y2="164.0203"/><text fill="#000000" font-family="sans-serif" font-size="7.8" font-weight="bold" lengthAdjust="spacing" textLength="4.2" x="639.3" y="160.8627">6</text><text fill="#000000" font-family="sans-serif" font-size="7.8" lengthAdjust="spacing" textLength="87" x="645.9" y="160.8627">getPurchaseOrdersTBA()</text><polygon fill="#181818" points="641.7,180.3949,635.7,182.7949,641.7,185.1949,639.3,182.7949" style="stroke:#181818;stroke-width:0.6;"/><line style="stroke:#181818;stroke-width:0.6;stroke-dasharray:2.0,2.0;" x1="638.1" x2="742.5" y1="182.7949" y2="182.7949"/><text fill="#000000" font-family="sans-serif" font-size="7.8" font-weight="bold" lengthAdjust="spacing" textLength="4.2" x="645.3" y="179.6373">7</text><text fill="#000000" font-family="sans-serif" font-size="7.8" lengthAdjust="spacing" textLength="66" x="651.9" y="179.6373">purchaseOrderTBA</text><polygon fill="#181818" points="530.7,199.1695,524.7,201.5695,530.7,203.9695,528.3,201.5695" style="stroke:#181818;stroke-width:0.6;"/><line style="stroke:#181818;stroke-width:0.6;stroke-dasharray:2.0,2.0;" x1="527.1" x2="631.5" y1="201.5695" y2="201.5695"/><text fill="#000000" font-family="sans-serif" font-size="7.8" font-weight="bold" lengthAdjust="spacing" textLength="4.2" x="534.3" y="198.4119">8</text><text fill="#000000" font-family="sans-serif" font-size="7.8" lengthAdjust="spacing" textLength="66" x="540.9" y="198.4119">purchaseOrderTBA</text><polygon fill="#181818" points="419.7,217.9441,413.7,220.3441,419.7,222.7441,417.3,220.3441" style="stroke:#181818;stroke-width:0.6;"/><line style="stroke:#181818;stroke-width:0.6;stroke-dasharray:2.0,2.0;" x1="416.1" x2="520.5" y1="220.3441" y2="220.3441"/><text fill="#000000" font-family="sans-serif" font-size="7.8" font-weight="bold" lengthAdjust="spacing" textLength="4.2" x="423.3" y="217.1865">9</text><text fill="#000000" font-family="sans-serif" font-size="7.8" lengthAdjust="spacing" textLength="66" x="429.9" y="217.1865">purchaseOrderTBA</text><polygon fill="#181818" points="305.7,236.7188,299.7,239.1187,305.7,241.5187,303.3,239.1187" style="stroke:#181818;stroke-width:0.6;"/><line style="stroke:#181818;stroke-width:0.6;stroke-dasharray:2.0,2.0;" x1="302.1" x2="409.5" y1="239.1187" y2="239.1187"/><text fill="#000000" font-family="sans-serif" font-size="7.8" font-weight="bold" lengthAdjust="spacing" textLength="8.4" x="309.3" y="235.9611">10</text><text fill="#000000" font-family="sans-serif" font-size="7.8" lengthAdjust="spacing" textLength="66" x="320.1" y="235.9611">purchaseOrderTBA</text><polygon fill="#181818" points="34.5,255.4934,28.5,257.8934,34.5,260.2934,32.1,257.8934" style="stroke:#181818;stroke-width:0.6;"/><line style="stroke:#181818;stroke-width:0.6;stroke-dasharray:2.0,2.0;" x1="30.9" x2="295.5" y1="257.8934" y2="257.8934"/><text fill="#000000" font-family="sans-serif" font-size="7.8" font-weight="bold" lengthAdjust="spacing" textLength="8.4" x="38.1" y="254.7357">11</text><text fill="#000000" font-family="sans-serif" font-size="7.8" lengthAdjust="spacing" textLength="240" x="48.9" y="254.7357">shows the agent the list of all purchase orders TBA (To Be Accepted)</text><polygon fill="#181818" points="285.9,274.268,291.9,276.668,285.9,279.068,288.3,276.668" style="stroke:#181818;stroke-width:0.6;"/><line style="stroke:#181818;stroke-width:0.6;" x1="27.9" x2="289.5" y1="276.668" y2="276.668"/><text fill="#000000" font-family="sans-serif" font-size="7.8" font-weight="bold" lengthAdjust="spacing" textLength="8.4" x="32.1" y="273.5104">12</text><text fill="#000000" font-family="sans-serif" font-size="7.8" lengthAdjust="spacing" textLength="90" x="42.9" y="273.5104">chooses a purchase order</text><line style="stroke:#181818;stroke-width:0.6;stroke-dasharray:2.0,2.0;" x1="299.1" x2="324.3" y1="295.4426" y2="295.4426"/><line style="stroke:#181818;stroke-width:0.6;stroke-dasharray:2.0,2.0;" x1="324.3" x2="324.3" y1="295.4426" y2="303.2426"/><line style="stroke:#181818;stroke-width:0.6;stroke-dasharray:2.0,2.0;" x1="299.7" x2="324.3" y1="303.2426" y2="303.2426"/><polygon fill="#181818" points="305.7,300.8426,299.7,303.2426,305.7,305.6426,303.3,303.2426" style="stroke:#181818;stroke-width:0.6;"/><text fill="#000000" font-family="sans-serif" font-size="7.8" font-weight="bold" lengthAdjust="spacing" textLength="8.4" x="303.3" y="292.285">13</text><text fill="#000000" font-family="sans-serif" font-size="7.8" lengthAdjust="spacing" textLength="73.8" x="314.1" y="292.285">keepPurchaseOrder()</text><polygon fill="#181818" points="34.5,319.6172,28.5,322.0172,34.5,324.4172,32.1,322.0172" style="stroke:#181818;stroke-width:0.6;"/><line style="stroke:#181818;stroke-width:0.6;stroke-dasharray:2.0,2.0;" x1="30.9" x2="295.5" y1="322.0172" y2="322.0172"/><text fill="#000000" font-family="sans-serif" font-size="7.8" font-weight="bold" lengthAdjust="spacing" textLength="8.4" x="38.1" y="318.8596">14</text><text fill="#000000" font-family="sans-serif" font-size="7.8" lengthAdjust="spacing" textLength="129.6" x="48.9" y="318.8596">asks if they want to accept or decline</text><path d="M6,331.0172 L42.6,331.0172 L42.6,336.5918 L36.6,342.5918 L6,342.5918 L6,331.0172 " fill="#EEEEEE" style="stroke:#000000;stroke-width:0.8999999999999999;"/><rect fill="none" height="247.2445" style="stroke:#000000;stroke-width:0.8999999999999999;" width="958.5" x="6" y="331.0172"/><text fill="#000000" font-family="sans-serif" font-size="7.8" font-weight="bold" lengthAdjust="spacing" textLength="9.6" x="15" y="340.0342">alt</text><text fill="#000000" font-family="sans-serif" font-size="6.6" font-weight="bold" lengthAdjust="spacing" textLength="85.8" x="51.6" y="339.3393">[if agent wants to decline]</text><polygon fill="#181818" points="285.9,354.1664,291.9,356.5664,285.9,358.9664,288.3,356.5664" style="stroke:#181818;stroke-width:0.6;"/><line style="stroke:#181818;stroke-width:0.6;" x1="27.9" x2="289.5" y1="356.5664" y2="356.5664"/><text fill="#000000" font-family="sans-serif" font-size="7.8" font-weight="bold" lengthAdjust="spacing" textLength="8.4" x="32.1" y="353.4088">15</text><text fill="#000000" font-family="sans-serif" font-size="7.8" lengthAdjust="spacing" textLength="96" x="42.9" y="353.4088">declines the purchase order</text><polygon fill="#181818" points="399.9,372.941,405.9,375.341,399.9,377.741,402.3,375.341" style="stroke:#181818;stroke-width:0.6;"/><line style="stroke:#181818;stroke-width:0.6;" x1="299.1" x2="403.5" y1="375.341" y2="375.341"/><text fill="#000000" font-family="sans-serif" font-size="7.8" font-weight="bold" lengthAdjust="spacing" textLength="8.4" x="303.3" y="372.1834">16</text><text fill="#000000" font-family="sans-serif" font-size="7.8" lengthAdjust="spacing" textLength="81.6" x="314.1" y="372.1834">removePurchaseOrder()</text><polygon fill="#181818" points="510.9,391.7156,516.9,394.1156,510.9,396.5156,513.3,394.1156" style="stroke:#181818;stroke-width:0.6;"/><line style="stroke:#181818;stroke-width:0.6;" x1="413.1" x2="514.5" y1="394.1156" y2="394.1156"/><text fill="#000000" font-family="sans-serif" font-size="7.8" font-weight="bold" lengthAdjust="spacing" textLength="8.4" x="417.3" y="390.958">17</text><text fill="#000000" font-family="sans-serif" font-size="7.8" lengthAdjust="spacing" textLength="81.6" x="428.1" y="390.958">removePurchaseOrder()</text><polygon fill="#181818" points="621.9,410.4902,627.9,412.8902,621.9,415.2902,624.3,412.8902" style="stroke:#181818;stroke-width:0.6;"/><line style="stroke:#181818;stroke-width:0.6;" x1="524.1" x2="625.5" y1="412.8902" y2="412.8902"/><text fill="#000000" font-family="sans-serif" font-size="7.8" font-weight="bold" lengthAdjust="spacing" textLength="8.4" x="528.3" y="409.7326">18</text><text fill="#000000" font-family="sans-serif" font-size="7.8" lengthAdjust="spacing" textLength="81.6" x="539.1" y="409.7326">removePurchaseOrder()</text><polygon fill="#181818" points="732.9,429.2648,738.9,431.6648,732.9,434.0648,735.3,431.6648" style="stroke:#181818;stroke-width:0.6;"/><line style="stroke:#181818;stroke-width:0.6;" x1="635.1" x2="736.5" y1="431.6648" y2="431.6648"/><text fill="#000000" font-family="sans-serif" font-size="7.8" font-weight="bold" lengthAdjust="spacing" textLength="8.4" x="639.3" y="428.5072">19</text><text fill="#000000" font-family="sans-serif" font-size="7.8" lengthAdjust="spacing" textLength="81.6" x="650.1" y="428.5072">removePurchaseOrder()</text><polygon fill="#181818" points="641.7,448.0395,635.7,450.4395,641.7,452.8395,639.3,450.4395" style="stroke:#181818;stroke-width:0.6;"/><line style="stroke:#181818;stroke-width:0.6;stroke-dasharray:2.0,2.0;" x1="638.1" x2="742.5" y1="450.4395" y2="450.4395"/><text fill="#000000" font-family="sans-serif" font-size="7.8" font-weight="bold" lengthAdjust="spacing" textLength="8.4" x="645.3" y="447.2818">20</text><text fill="#000000" font-family="sans-serif" font-size="7.8" lengthAdjust="spacing" textLength="48.6" x="656.1" y="447.2818">informing user</text><polygon fill="#181818" points="530.7,466.8141,524.7,469.2141,530.7,471.6141,528.3,469.2141" style="stroke:#181818;stroke-width:0.6;"/><line style="stroke:#181818;stroke-width:0.6;stroke-dasharray:2.0,2.0;" x1="527.1" x2="631.5" y1="469.2141" y2="469.2141"/><text fill="#000000" font-family="sans-serif" font-size="7.8" font-weight="bold" lengthAdjust="spacing" textLength="8.4" x="534.3" y="466.0564">21</text><text fill="#000000" font-family="sans-serif" font-size="7.8" lengthAdjust="spacing" textLength="48.6" x="545.1" y="466.0564">informing user</text><polygon fill="#181818" points="419.7,485.5887,413.7,487.9887,419.7,490.3887,417.3,487.9887" style="stroke:#181818;stroke-width:0.6;"/><line style="stroke:#181818;stroke-width:0.6;stroke-dasharray:2.0,2.0;" x1="416.1" x2="520.5" y1="487.9887" y2="487.9887"/><text fill="#000000" font-family="sans-serif" font-size="7.8" font-weight="bold" lengthAdjust="spacing" textLength="8.4" x="423.3" y="484.8311">22</text><text fill="#000000" font-family="sans-serif" font-size="7.8" lengthAdjust="spacing" textLength="48.6" x="434.1" y="484.8311">informing user</text><polygon fill="#181818" points="933.9,504.3633,939.9,506.7633,933.9,509.1633,936.3,506.7633" style="stroke:#181818;stroke-width:0.6;"/><line style="stroke:#181818;stroke-width:0.6;" x1="413.1" x2="937.5" y1="506.7633" y2="506.7633"/><text fill="#000000" font-family="sans-serif" font-size="7.8" font-weight="bold" lengthAdjust="spacing" textLength="8.4" x="417.3" y="503.6057">23</text><text fill="#000000" font-family="sans-serif" font-size="7.8" lengthAdjust="spacing" textLength="41.4" x="428.1" y="503.6057">sendEmail()</text><polygon fill="#181818" points="419.7,523.1379,413.7,525.5379,419.7,527.9379,417.3,525.5379" style="stroke:#181818;stroke-width:0.6;"/><line style="stroke:#181818;stroke-width:0.6;stroke-dasharray:2.0,2.0;" x1="416.1" x2="943.5" y1="525.5379" y2="525.5379"/><text fill="#000000" font-family="sans-serif" font-size="7.8" font-weight="bold" lengthAdjust="spacing" textLength="8.4" x="423.3" y="522.3803">24</text><text fill="#000000" font-family="sans-serif" font-size="7.8" lengthAdjust="spacing" textLength="36.6" x="434.1" y="522.3803">sendEmail</text><polygon fill="#181818" points="305.7,541.9125,299.7,544.3125,305.7,546.7125,303.3,544.3125" style="stroke:#181818;stroke-width:0.6;"/><line style="stroke:#181818;stroke-width:0.6;stroke-dasharray:2.0,2.0;" x1="302.1" x2="409.5" y1="544.3125" y2="544.3125"/><text fill="#000000" font-family="sans-serif" font-size="7.8" font-weight="bold" lengthAdjust="spacing" textLength="8.4" x="309.3" y="541.1549">25</text><text fill="#000000" font-family="sans-serif" font-size="7.8" lengthAdjust="spacing" textLength="36.6" x="320.1" y="541.1549">sendEmail</text><polygon fill="#181818" points="34.5,571.0617,28.5,573.4617,34.5,575.8617,32.1,573.4617" style="stroke:#181818;stroke-width:0.6;"/><line style="stroke:#181818;stroke-width:0.6;stroke-dasharray:2.0,2.0;" x1="30.9" x2="295.5" y1="573.4617" y2="573.4617"/><text fill="#000000" font-family="sans-serif" font-size="7.8" font-weight="bold" lengthAdjust="spacing" textLength="8.4" x="38.1" y="565.1168">26</text><text fill="#000000" font-family="sans-serif" font-size="7.8" lengthAdjust="spacing" textLength="124.2" x="48.9" y="559.9295">informs agent of successful deletion</text><text fill="#000000" font-family="sans-serif" font-size="7.8" lengthAdjust="spacing" textLength="187.2" x="51.3" y="570.3041">of purchase order and that the user has been informed</text><path d="M6,586.6617 L42.6,586.6617 L42.6,592.2363 L36.6,598.2363 L6,598.2363 L6,586.6617 " fill="#EEEEEE" style="stroke:#000000;stroke-width:0.8999999999999999;"/><rect fill="none" height="359.8922" style="stroke:#000000;stroke-width:0.8999999999999999;" width="958.5" x="6" y="586.6617"/><text fill="#000000" font-family="sans-serif" font-size="7.8" font-weight="bold" lengthAdjust="spacing" textLength="9.6" x="15" y="595.6787">alt</text><text fill="#000000" font-family="sans-serif" font-size="6.6" font-weight="bold" lengthAdjust="spacing" textLength="83.4" x="51.6" y="594.9838">[if agent wants to accept]</text><polygon fill="#181818" points="285.9,609.8109,291.9,612.2109,285.9,614.6109,288.3,612.2109" style="stroke:#181818;stroke-width:0.6;"/><line style="stroke:#181818;stroke-width:0.6;" x1="27.9" x2="289.5" y1="612.2109" y2="612.2109"/><text fill="#000000" font-family="sans-serif" font-size="7.8" font-weight="bold" lengthAdjust="spacing" textLength="8.4" x="32.1" y="609.0533">27</text><text fill="#000000" font-family="sans-serif" font-size="7.8" lengthAdjust="spacing" textLength="94.8" x="42.9" y="609.0533">accepts the purchase order</text><polygon fill="#181818" points="399.9,628.5855,405.9,630.9855,399.9,633.3855,402.3,630.9855" style="stroke:#181818;stroke-width:0.6;"/><line style="stroke:#181818;stroke-width:0.6;" x1="299.1" x2="403.5" y1="630.9855" y2="630.9855"/><text fill="#000000" font-family="sans-serif" font-size="7.8" font-weight="bold" lengthAdjust="spacing" textLength="8.4" x="303.3" y="627.8279">28</text><text fill="#000000" font-family="sans-serif" font-size="7.8" lengthAdjust="spacing" textLength="75" x="314.1" y="627.8279">addPurchaseOrderA()</text><polygon fill="#181818" points="510.9,647.3602,516.9,649.7602,510.9,652.1602,513.3,649.7602" style="stroke:#181818;stroke-width:0.6;"/><line style="stroke:#181818;stroke-width:0.6;" x1="413.1" x2="514.5" y1="649.7602" y2="649.7602"/><text fill="#000000" font-family="sans-serif" font-size="7.8" font-weight="bold" lengthAdjust="spacing" textLength="8.4" x="417.3" y="646.6025">29</text><text fill="#000000" font-family="sans-serif" font-size="7.8" lengthAdjust="spacing" textLength="75" x="428.1" y="646.6025">addPurchaseOrderA()</text><polygon fill="#181818" points="621.9,666.1348,627.9,668.5348,621.9,670.9348,624.3,668.5348" style="stroke:#181818;stroke-width:0.6;"/><line style="stroke:#181818;stroke-width:0.6;" x1="524.1" x2="625.5" y1="668.5348" y2="668.5348"/><text fill="#000000" font-family="sans-serif" font-size="7.8" font-weight="bold" lengthAdjust="spacing" textLength="8.4" x="528.3" y="665.3771">30</text><text fill="#000000" font-family="sans-serif" font-size="7.8" lengthAdjust="spacing" textLength="75" x="539.1" y="665.3771">addPurchaseOrderA()</text><polygon fill="#181818" points="857.1,684.9094,863.1,687.3094,857.1,689.7094,859.5,687.3094" style="stroke:#181818;stroke-width:0.6;"/><line style="stroke:#181818;stroke-width:0.6;" x1="635.1" x2="860.7" y1="687.3094" y2="687.3094"/><text fill="#000000" font-family="sans-serif" font-size="7.8" font-weight="bold" lengthAdjust="spacing" textLength="8.4" x="639.3" y="684.1518">31</text><text fill="#000000" font-family="sans-serif" font-size="7.8" lengthAdjust="spacing" textLength="75" x="650.1" y="684.1518">addPurchaseOrderA()</text><polygon fill="#181818" points="641.7,703.684,635.7,706.084,641.7,708.484,639.3,706.084" style="stroke:#181818;stroke-width:0.6;"/><line style="stroke:#181818;stroke-width:0.6;stroke-dasharray:2.0,2.0;" x1="638.1" x2="866.7" y1="706.084" y2="706.084"/><text fill="#000000" font-family="sans-serif" font-size="7.8" font-weight="bold" lengthAdjust="spacing" textLength="8.4" x="645.3" y="702.9264">32</text><text fill="#000000" font-family="sans-serif" font-size="7.8" lengthAdjust="spacing" textLength="70.2" x="656.1" y="702.9264">addPurchaseOrderA</text><polygon fill="#181818" points="530.7,722.4586,524.7,724.8586,530.7,727.2586,528.3,724.8586" style="stroke:#181818;stroke-width:0.6;"/><line style="stroke:#181818;stroke-width:0.6;stroke-dasharray:2.0,2.0;" x1="527.1" x2="631.5" y1="724.8586" y2="724.8586"/><text fill="#000000" font-family="sans-serif" font-size="7.8" font-weight="bold" lengthAdjust="spacing" textLength="8.4" x="534.3" y="721.701">33</text><text fill="#000000" font-family="sans-serif" font-size="7.8" lengthAdjust="spacing" textLength="70.2" x="545.1" y="721.701">addPurchaseOrderA</text><polygon fill="#181818" points="419.7,741.2332,413.7,743.6332,419.7,746.0332,417.3,743.6332" style="stroke:#181818;stroke-width:0.6;"/><line style="stroke:#181818;stroke-width:0.6;stroke-dasharray:2.0,2.0;" x1="416.1" x2="520.5" y1="743.6332" y2="743.6332"/><text fill="#000000" font-family="sans-serif" font-size="7.8" font-weight="bold" lengthAdjust="spacing" textLength="8.4" x="423.3" y="740.4756">34</text><text fill="#000000" font-family="sans-serif" font-size="7.8" lengthAdjust="spacing" textLength="70.2" x="434.1" y="740.4756">addPurchaseOrderA</text><polygon fill="#181818" points="510.9,760.0078,516.9,762.4078,510.9,764.8078,513.3,762.4078" style="stroke:#181818;stroke-width:0.6;"/><line style="stroke:#181818;stroke-width:0.6;" x1="413.1" x2="514.5" y1="762.4078" y2="762.4078"/><text fill="#000000" font-family="sans-serif" font-size="7.8" font-weight="bold" lengthAdjust="spacing" textLength="8.4" x="417.3" y="759.2502">35</text><text fill="#000000" font-family="sans-serif" font-size="7.8" lengthAdjust="spacing" textLength="81.6" x="428.1" y="759.2502">removePurchaseOrder()</text><polygon fill="#181818" points="621.9,778.7824,627.9,781.1824,621.9,783.5824,624.3,781.1824" style="stroke:#181818;stroke-width:0.6;"/><line style="stroke:#181818;stroke-width:0.6;" x1="524.1" x2="625.5" y1="781.1824" y2="781.1824"/><text fill="#000000" font-family="sans-serif" font-size="7.8" font-weight="bold" lengthAdjust="spacing" textLength="8.4" x="528.3" y="778.0248">36</text><text fill="#000000" font-family="sans-serif" font-size="7.8" lengthAdjust="spacing" textLength="81.6" x="539.1" y="778.0248">removePurchaseOrder()</text><polygon fill="#181818" points="732.9,797.557,738.9,799.957,732.9,802.357,735.3,799.957" style="stroke:#181818;stroke-width:0.6;"/><line style="stroke:#181818;stroke-width:0.6;" x1="635.1" x2="736.5" y1="799.957" y2="799.957"/><text fill="#000000" font-family="sans-serif" font-size="7.8" font-weight="bold" lengthAdjust="spacing" textLength="8.4" x="639.3" y="796.7994">37</text><text fill="#000000" font-family="sans-serif" font-size="7.8" lengthAdjust="spacing" textLength="81.6" x="650.1" y="796.7994">removePurchaseOrder()</text><polygon fill="#181818" points="641.7,816.3316,635.7,818.7316,641.7,821.1316,639.3,818.7316" style="stroke:#181818;stroke-width:0.6;"/><line style="stroke:#181818;stroke-width:0.6;stroke-dasharray:2.0,2.0;" x1="638.1" x2="742.5" y1="818.7316" y2="818.7316"/><text fill="#000000" font-family="sans-serif" font-size="7.8" font-weight="bold" lengthAdjust="spacing" textLength="8.4" x="645.3" y="815.574">38</text><text fill="#000000" font-family="sans-serif" font-size="7.8" lengthAdjust="spacing" textLength="48.6" x="656.1" y="815.574">informing user</text><polygon fill="#181818" points="530.7,835.1062,524.7,837.5063,530.7,839.9063,528.3,837.5063" style="stroke:#181818;stroke-width:0.6;"/><line style="stroke:#181818;stroke-width:0.6;stroke-dasharray:2.0,2.0;" x1="527.1" x2="631.5" y1="837.5063" y2="837.5063"/><text fill="#000000" font-family="sans-serif" font-size="7.8" font-weight="bold" lengthAdjust="spacing" textLength="8.4" x="534.3" y="834.3486">39</text><text fill="#000000" font-family="sans-serif" font-size="7.8" lengthAdjust="spacing" textLength="48.6" x="545.1" y="834.3486">informing user</text><polygon fill="#181818" points="419.7,853.8809,413.7,856.2809,419.7,858.6809,417.3,856.2809" style="stroke:#181818;stroke-width:0.6;"/><line style="stroke:#181818;stroke-width:0.6;stroke-dasharray:2.0,2.0;" x1="416.1" x2="520.5" y1="856.2809" y2="856.2809"/><text fill="#000000" font-family="sans-serif" font-size="7.8" font-weight="bold" lengthAdjust="spacing" textLength="8.4" x="423.3" y="853.1232">40</text><text fill="#000000" font-family="sans-serif" font-size="7.8" lengthAdjust="spacing" textLength="48.6" x="434.1" y="853.1232">informing user</text><polygon fill="#181818" points="933.9,872.6555,939.9,875.0555,933.9,877.4555,936.3,875.0555" style="stroke:#181818;stroke-width:0.6;"/><line style="stroke:#181818;stroke-width:0.6;" x1="413.1" x2="937.5" y1="875.0555" y2="875.0555"/><text fill="#000000" font-family="sans-serif" font-size="7.8" font-weight="bold" lengthAdjust="spacing" textLength="8.4" x="417.3" y="871.8979">41</text><text fill="#000000" font-family="sans-serif" font-size="7.8" lengthAdjust="spacing" textLength="41.4" x="428.1" y="871.8979">sendEmail()</text><polygon fill="#181818" points="419.7,891.4301,413.7,893.8301,419.7,896.2301,417.3,893.8301" style="stroke:#181818;stroke-width:0.6;"/><line style="stroke:#181818;stroke-width:0.6;stroke-dasharray:2.0,2.0;" x1="416.1" x2="943.5" y1="893.8301" y2="893.8301"/><text fill="#000000" font-family="sans-serif" font-size="7.8" font-weight="bold" lengthAdjust="spacing" textLength="8.4" x="423.3" y="890.6725">42</text><text fill="#000000" font-family="sans-serif" font-size="7.8" lengthAdjust="spacing" textLength="36.6" x="434.1" y="890.6725">sendEmail</text><polygon fill="#181818" points="305.7,910.2047,299.7,912.6047,305.7,915.0047,303.3,912.6047" style="stroke:#181818;stroke-width:0.6;"/><line style="stroke:#181818;stroke-width:0.6;stroke-dasharray:2.0,2.0;" x1="302.1" x2="409.5" y1="912.6047" y2="912.6047"/><text fill="#000000" font-family="sans-serif" font-size="7.8" font-weight="bold" lengthAdjust="spacing" textLength="8.4" x="309.3" y="909.4471">43</text><text fill="#000000" font-family="sans-serif" font-size="7.8" lengthAdjust="spacing" textLength="36.6" x="320.1" y="909.4471">sendEmail</text><polygon fill="#181818" points="34.5,939.3539,28.5,941.7539,34.5,944.1539,32.1,941.7539" style="stroke:#181818;stroke-width:0.6;"/><line style="stroke:#181818;stroke-width:0.6;stroke-dasharray:2.0,2.0;" x1="30.9" x2="295.5" y1="941.7539" y2="941.7539"/><text fill="#000000" font-family="sans-serif" font-size="7.8" font-weight="bold" lengthAdjust="spacing" textLength="8.4" x="38.1" y="933.409">44</text><text fill="#000000" font-family="sans-serif" font-size="7.8" lengthAdjust="spacing" textLength="137.4" x="48.9" y="928.2217">informs agent of successful acceptance</text><text fill="#000000" font-family="sans-serif" font-size="7.8" lengthAdjust="spacing" textLength="187.2" x="51.3" y="938.5963">of purchase order and that the user has been informed</text><!--SRC=[hPVFSjiW4CRlUWfkJGzvWHmousGydSoahIPrRhqGQMqpHg02IkgtxmAoh7z8I2adZrb-mBBxVRO-CL5IHGjII26pev854ACgI7GpKzBiH0_movmv40MPeUB0sm7wI7FvmSI1x2dNa2IqCb9KnHke9FboP3cGlPJcJVvDQ6Qa8fi324Ee9fjlsn-x12c6PQoa-6LQgUn8DVnKEQZN9nlq-XIEU9J2ACavA1lvk7jvxiI-G2armoqPQ1lmiar7MKtSsKQbeJ2tvUvXqmstNqmjw8KFWhS5PTpERBzldfuJcoFsJWtKsKa83lUHtDvZCiWTnfuqCPBaJ9USdWbdsX2v9sMzBRxIdmgqqNvn0yHCkY_iG13YRCOG6CZfpTThV0DnIHx77C1qI1fJqsROuK9n2MOXSaMpiqrSPyOEoq5S6i_hCDDHg1rfJVRFku3TuTV5CHfaHqs_lLwXx1NR-DeSehP8B_1OTekRXlDzVV9fOeisWFb2k9HqcDDY34iFb_lMk4CLaX_O5KSWrCcB_NHf3ChvjJcaUpoRDdApa-G16otBe3IGru_Psl7ICTt-ouvIQgieFUXCkrsMdm3AJYLX5GKkvJgTxUrbpkJ3gWMsFNN7nItnf1bd0eB7fjpOrJuXThcNZVQgxitgAP_7HPThAa918T-XVxyv7HbAmmndgJ94uDOAGoJwaxh0n5wgmhfifI-lyNzKOOwyL1EcUFEASEzzq7OqYDoPO_3TQyVidyS3MYTgIC73Z92w0ZM2Y5KcdmzTjo7AaQwmWxNULnmP70oJuhVe6BZhE495Zer8lPRPN1AS96y0ecP27cnzFEwK1dWDkHwvzmF3pOPL8AW40pMWUTxzCHHyow4U33LXbZQl2aDbY896QaDR7pOByPqjfjN1lLXF7mRxX9UtocKJSPLm-cTLA9r-WuawcPIXKUfY-rXJB6kqFgvSrjZ98ajPRoiBh6M5lQmjcGMsDLalitOJOpbBR6VUUgBiPzA25jgG5tmgClYS4GNCg36ajlAuVxV_0000]--></g></svg>