<?xml version="1.0" encoding="us-ascii" standalone="no"?><svg xmlns="http://www.w3.org/2000/svg" xmlns:xlink="http://www.w3.org/1999/xlink" contentStyleType="text/css" height="513px" preserveAspectRatio="none" style="width:397px;height:513px;background:#FFFFFF;" version="1.1" viewBox="0 0 397 513" width="397px" zoomAndPan="magnify"><defs/><g><text fill="#000000" font-family="sans-serif" font-size="14" font-weight="bold" lengthAdjust="spacing" textLength="228" x="86" y="30.1074">System Sequence Diagram (SSD)</text><rect fill="#FFFFFF" height="286.9102" style="stroke:#181818;stroke-width:1.0;" width="10" x="73" y="133.2422"/><rect fill="#FFFFFF" height="88.873" style="stroke:#181818;stroke-width:1.0;" width="10" x="344" y="156.5332"/><rect fill="#FFFFFF" height="48.582" style="stroke:#181818;stroke-width:1.0;" width="10" x="344" y="276.6973"/><rect fill="#FFFFFF" height="31.291" style="stroke:#181818;stroke-width:1.0;" width="10" x="344" y="373.8613"/><rect fill="none" height="210.3281" style="stroke:#000000;stroke-width:1.5;" width="381" x="10" y="202.8242"/><line style="stroke:#181818;stroke-width:0.5;stroke-dasharray:5.0,5.0;" x1="78" x2="78" y1="123.2422" y2="430.1523"/><line style="stroke:#181818;stroke-width:0.5;stroke-dasharray:5.0,5.0;" x1="349" x2="349" y1="123.2422" y2="430.1523"/><text fill="#000000" font-family="sans-serif" font-size="14" lengthAdjust="spacing" textLength="110" x="20" y="119.7285">Network Manager</text><ellipse cx="78" cy="53.1211" fill="#E3E3E3" rx="8" ry="8" style="stroke:#181818;stroke-width:0.5;"/><path d="M78,61.1211 L78,88.1211 M65,69.1211 L91,69.1211 M78,88.1211 L65,103.1211 M78,88.1211 L91,103.1211 " fill="none" style="stroke:#181818;stroke-width:0.5;"/><text fill="#000000" font-family="sans-serif" font-size="14" lengthAdjust="spacing" textLength="110" x="20" y="444.2598">Network Manager</text><ellipse cx="78" cy="456.2734" fill="#E3E3E3" rx="8" ry="8" style="stroke:#181818;stroke-width:0.5;"/><path d="M78,464.2734 L78,491.2734 M65,472.2734 L91,472.2734 M78,491.2734 L65,506.2734 M78,491.2734 L91,506.2734 " fill="none" style="stroke:#181818;stroke-width:0.5;"/><rect fill="#E3E3E3" height="32.6211" rx="2.5" ry="2.5" style="stroke:#181818;stroke-width:0.5;" width="64" x="317" y="89.6211"/><text fill="#000000" font-family="sans-serif" font-size="14" lengthAdjust="spacing" textLength="50" x="324" y="111.7285">:System</text><rect fill="#E3E3E3" height="32.6211" rx="2.5" ry="2.5" style="stroke:#181818;stroke-width:0.5;" width="64" x="317" y="429.1523"/><text fill="#000000" font-family="sans-serif" font-size="14" lengthAdjust="spacing" textLength="50" x="324" y="451.2598">:System</text><rect fill="#FFFFFF" height="286.9102" style="stroke:#181818;stroke-width:1.0;" width="10" x="73" y="133.2422"/><rect fill="#FFFFFF" height="88.873" style="stroke:#181818;stroke-width:1.0;" width="10" x="344" y="156.5332"/><rect fill="#FFFFFF" height="48.582" style="stroke:#181818;stroke-width:1.0;" width="10" x="344" y="276.6973"/><rect fill="#FFFFFF" height="31.291" style="stroke:#181818;stroke-width:1.0;" width="10" x="344" y="373.8613"/><polygon fill="#181818" points="332,152.5332,342,156.5332,332,160.5332,336,156.5332" style="stroke:#181818;stroke-width:1.0;"/><line style="stroke:#181818;stroke-width:1.0;" x1="83" x2="338" y1="156.5332" y2="156.5332"/><text fill="#000000" font-family="sans-serif" font-size="13" font-weight="bold" lengthAdjust="spacing" textLength="7" x="90" y="151.2705">1</text><text fill="#000000" font-family="sans-serif" font-size="13" lengthAdjust="spacing" textLength="138" x="101" y="151.2705">asks to list all the deals</text><polygon fill="#181818" points="94,183.8242,84,187.8242,94,191.8242,90,187.8242" style="stroke:#181818;stroke-width:1.0;"/><line style="stroke:#181818;stroke-width:1.0;stroke-dasharray:2.0,2.0;" x1="88" x2="343" y1="187.8242" y2="187.8242"/><text fill="#000000" font-family="sans-serif" font-size="13" font-weight="bold" lengthAdjust="spacing" textLength="7" x="100" y="182.5615">2</text><text fill="#000000" font-family="sans-serif" font-size="13" lengthAdjust="spacing" textLength="80" x="111" y="182.5615">shows the list</text><path d="M10,202.8242 L83,202.8242 L83,212.1152 L73,222.1152 L10,222.1152 L10,202.8242 " fill="#EEEEEE" style="stroke:#000000;stroke-width:1.5;"/><rect fill="none" height="210.3281" style="stroke:#000000;stroke-width:1.5;" width="381" x="10" y="202.8242"/><text fill="#000000" font-family="sans-serif" font-size="13" font-weight="bold" lengthAdjust="spacing" textLength="28" x="25" y="217.8525">loop</text><text fill="#000000" font-family="sans-serif" font-size="11" font-weight="bold" lengthAdjust="spacing" textLength="167" x="98" y="216.6943">[allows to repeat the process]</text><polygon fill="#181818" points="94,241.4063,84,245.4063,94,249.4063,90,245.4063" style="stroke:#181818;stroke-width:1.0;"/><line style="stroke:#181818;stroke-width:1.0;stroke-dasharray:2.0,2.0;" x1="88" x2="348" y1="245.4063" y2="245.4063"/><text fill="#000000" font-family="sans-serif" font-size="13" font-weight="bold" lengthAdjust="spacing" textLength="7" x="100" y="240.1436">3</text><text fill="#000000" font-family="sans-serif" font-size="13" lengthAdjust="spacing" textLength="226" x="111" y="240.1436">requests to select the sorting algorithm</text><polygon fill="#181818" points="332,272.6973,342,276.6973,332,280.6973,336,276.6973" style="stroke:#181818;stroke-width:1.0;"/><line style="stroke:#181818;stroke-width:1.0;" x1="83" x2="338" y1="276.6973" y2="276.6973"/><text fill="#000000" font-family="sans-serif" font-size="13" font-weight="bold" lengthAdjust="spacing" textLength="7" x="90" y="271.4346">4</text><text fill="#000000" font-family="sans-serif" font-size="13" lengthAdjust="spacing" textLength="174" x="101" y="271.4346">selects the intended algorithm</text><polygon fill="#181818" points="94,321.2793,84,325.2793,94,329.2793,90,325.2793" style="stroke:#181818;stroke-width:1.0;"/><line style="stroke:#181818;stroke-width:1.0;stroke-dasharray:2.0,2.0;" x1="88" x2="348" y1="325.2793" y2="325.2793"/><text fill="#000000" font-family="sans-serif" font-size="13" font-weight="bold" lengthAdjust="spacing" textLength="7" x="100" y="311.3711">5</text><text fill="#000000" font-family="sans-serif" font-size="13" lengthAdjust="spacing" textLength="146" x="111" y="302.7256">requests sorting direction</text><text fill="#000000" font-family="sans-serif" font-size="13" lengthAdjust="spacing" textLength="137" x="115" y="320.0166">(ascending/descending)</text><polygon fill="#181818" points="332,369.8613,342,373.8613,332,377.8613,336,373.8613" style="stroke:#181818;stroke-width:1.0;"/><line style="stroke:#181818;stroke-width:1.0;" x1="83" x2="338" y1="373.8613" y2="373.8613"/><text fill="#000000" font-family="sans-serif" font-size="13" font-weight="bold" lengthAdjust="spacing" textLength="7" x="90" y="359.9531">6</text><text fill="#000000" font-family="sans-serif" font-size="13" lengthAdjust="spacing" textLength="160" x="101" y="351.3076">selects the sorting direction</text><text fill="#000000" font-family="sans-serif" font-size="13" lengthAdjust="spacing" textLength="137" x="105" y="368.5986">(ascending/descending)</text><polygon fill="#181818" points="94,401.1523,84,405.1523,94,409.1523,90,405.1523" style="stroke:#181818;stroke-width:1.0;"/><line style="stroke:#181818;stroke-width:1.0;stroke-dasharray:2.0,2.0;" x1="88" x2="348" y1="405.1523" y2="405.1523"/><text fill="#000000" font-family="sans-serif" font-size="13" font-weight="bold" lengthAdjust="spacing" textLength="7" x="100" y="399.8896">7</text><text fill="#000000" font-family="sans-serif" font-size="13" lengthAdjust="spacing" textLength="217" x="111" y="399.8896">shows the list sorted by the algorithm</text><!--SRC=[fPAxRiCm34LtVGMHAHc2xXawPMqNhrqOcRM5oA8hqWtozwNb1u80GL-UQ8hty9AId4FgCMC77IVsRUQEGFD0JjQJ7lqP6whq6WaoUSNKnDi2QR7cIqWDl6CKSaw3Mcbr5QKEAleOA7c2Oy1cBDzMrN7d70xAQUXEb2tsoXashwGNpcTumMGDymPGbjXPAmq-z9WKDeU9NGgci3329ogj2WVspJ-mVrxy74nq5b2664G1OmHj2MeoxqMoWcRoc9krUyCin8FDpHSfuf5KwY9pFoBB0TksUa8j9NrcJoAFQNdSasZH2KNRSz49szosMemDvw3jvCVSthbyEEt4cdo6f9HggkzeFvvuzRYugiFu80AdjmHR56zqIp_Lj8Ix_zZzPPS_NbnfOpivNKlgkqMFMUjQhjgvc_EP_mK0]--></g></svg>