<?xml version="1.0" encoding="us-ascii" standalone="no"?><svg xmlns="http://www.w3.org/2000/svg" xmlns:xlink="http://www.w3.org/1999/xlink" contentStyleType="text/css" height="506px" preserveAspectRatio="none" style="width:1224px;height:506px;background:#FFFFFF;" version="1.1" viewBox="0 0 1224 506" width="1224px" zoomAndPan="magnify"><defs/><g><!--class CreatePurchaseOrderUI--><g id="elem_CreatePurchaseOrderUI"><rect fill="#F1F1F1" height="48" id="CreatePurchaseOrderUI" rx="2.5" ry="2.5" style="stroke:#181818;stroke-width:0.5;" width="184" x="152" y="53.5"/><ellipse cx="167" cy="69.5" fill="#ADD1B2" rx="11" ry="11" style="stroke:#181818;stroke-width:1.0;"/><path d="M169.7656,65.375 Q169.9219,65.1563 170.1094,65.0469 Q170.2969,64.9375 170.5156,64.9375 Q170.8906,64.9375 171.125,65.2031 Q171.3594,65.4531 171.3594,66.0625 L171.3594,67.5156 Q171.3594,68.125 171.125,68.3906 Q170.8906,68.6563 170.5156,68.6563 Q170.1719,68.6563 169.9688,68.4531 Q169.7656,68.2656 169.6563,67.75 Q169.6094,67.3906 169.4219,67.2031 Q169.0938,66.8281 168.4844,66.6094 Q167.875,66.3906 167.25,66.3906 Q166.4844,66.3906 165.8438,66.7188 Q165.2188,67.0469 164.7188,67.7969 Q164.2344,68.5469 164.2344,69.5781 L164.2344,70.6719 Q164.2344,71.9063 165.125,72.7344 Q166.0156,73.5469 167.6094,73.5469 Q168.5469,73.5469 169.2031,73.2969 Q169.5938,73.1406 170.0156,72.7031 Q170.2813,72.4375 170.4219,72.3594 Q170.5781,72.2813 170.7813,72.2813 Q171.1094,72.2813 171.3594,72.5469 Q171.625,72.7969 171.625,73.1406 Q171.625,73.4844 171.2813,73.8906 Q170.7813,74.4688 169.9844,74.7969 Q168.9063,75.25 167.6094,75.25 Q166.0938,75.25 164.8906,74.625 Q163.9063,74.125 163.2188,73.0625 Q162.5313,71.9844 162.5313,70.7031 L162.5313,69.5469 Q162.5313,68.2188 163.1406,67.0781 Q163.7656,65.9219 164.8594,65.3125 Q165.9531,64.6875 167.1875,64.6875 Q167.9219,64.6875 168.5625,64.8594 Q169.2188,65.0156 169.7656,65.375 Z " fill="#000000"/><text fill="#000000" font-family="sans-serif" font-size="14" lengthAdjust="spacing" textLength="152" x="181" y="75.2969">CreatePurchaseOrderUI</text><line style="stroke:#181818;stroke-width:0.5;" x1="153" x2="335" y1="85.5" y2="85.5"/><line style="stroke:#181818;stroke-width:0.5;" x1="153" x2="335" y1="93.5" y2="93.5"/></g><!--class CreatePurchaseOrderController--><g id="elem_CreatePurchaseOrderController"><rect fill="#F1F1F1" height="141.1055" id="CreatePurchaseOrderController" rx="2.5" ry="2.5" style="stroke:#181818;stroke-width:0.5;" width="474" x="371" y="7"/><ellipse cx="502.75" cy="23" fill="#ADD1B2" rx="11" ry="11" style="stroke:#181818;stroke-width:1.0;"/><path d="M505.5156,18.875 Q505.6719,18.6563 505.8594,18.5469 Q506.0469,18.4375 506.2656,18.4375 Q506.6406,18.4375 506.875,18.7031 Q507.1094,18.9531 507.1094,19.5625 L507.1094,21.0156 Q507.1094,21.625 506.875,21.8906 Q506.6406,22.1563 506.2656,22.1563 Q505.9219,22.1563 505.7188,21.9531 Q505.5156,21.7656 505.4063,21.25 Q505.3594,20.8906 505.1719,20.7031 Q504.8438,20.3281 504.2344,20.1094 Q503.625,19.8906 503,19.8906 Q502.2344,19.8906 501.5938,20.2188 Q500.9688,20.5469 500.4688,21.2969 Q499.9844,22.0469 499.9844,23.0781 L499.9844,24.1719 Q499.9844,25.4063 500.875,26.2344 Q501.7656,27.0469 503.3594,27.0469 Q504.2969,27.0469 504.9531,26.7969 Q505.3438,26.6406 505.7656,26.2031 Q506.0313,25.9375 506.1719,25.8594 Q506.3281,25.7813 506.5313,25.7813 Q506.8594,25.7813 507.1094,26.0469 Q507.375,26.2969 507.375,26.6406 Q507.375,26.9844 507.0313,27.3906 Q506.5313,27.9688 505.7344,28.2969 Q504.6563,28.75 503.3594,28.75 Q501.8438,28.75 500.6406,28.125 Q499.6563,27.625 498.9688,26.5625 Q498.2813,25.4844 498.2813,24.2031 L498.2813,23.0469 Q498.2813,21.7188 498.8906,20.5781 Q499.5156,19.4219 500.6094,18.8125 Q501.7031,18.1875 502.9375,18.1875 Q503.6719,18.1875 504.3125,18.3594 Q504.9688,18.5156 505.5156,18.875 Z " fill="#000000"/><text fill="#000000" font-family="sans-serif" font-size="14" lengthAdjust="spacing" textLength="202" x="523.25" y="28.7969">CreatePurchaseOrderController</text><line style="stroke:#181818;stroke-width:0.5;" x1="372" x2="844" y1="39" y2="39"/><line style="stroke:#181818;stroke-width:1.0;" x1="372" x2="844" y1="47" y2="47"/><text fill="#000000" font-family="sans-serif" font-size="14" lengthAdjust="spacing" textLength="293" x="377" y="66.1074">+checkAnnouncement(announcementNumber)</text><text fill="#000000" font-family="sans-serif" font-size="14" lengthAdjust="spacing" textLength="462" x="377" y="84.7285">+createPurchaseOrder(userEmail, propertyID, orderAmount, acceptance)</text><text fill="#000000" font-family="sans-serif" font-size="14" lengthAdjust="spacing" textLength="284" x="377" y="103.3496">+checkPurchaseOrderExists(purchaseOrder)</text><text fill="#000000" font-family="sans-serif" font-size="14" lengthAdjust="spacing" textLength="298" x="377" y="121.9707">+checkUserPurchaseOrderExists(userEmail, id)</text><text fill="#000000" font-family="sans-serif" font-size="14" lengthAdjust="spacing" textLength="216" x="377" y="140.5918">+getPurchaseOrder(userEmail, id)</text></g><!--class PurchaseOrder--><g id="elem_PurchaseOrder"><rect fill="#F1F1F1" height="290.0742" id="PurchaseOrder" rx="2.5" ry="2.5" style="stroke:#181818;stroke-width:0.5;" width="434" x="7" y="209"/><ellipse cx="171.25" cy="225" fill="#ADD1B2" rx="11" ry="11" style="stroke:#181818;stroke-width:1.0;"/><path d="M174.0156,220.875 Q174.1719,220.6563 174.3594,220.5469 Q174.5469,220.4375 174.7656,220.4375 Q175.1406,220.4375 175.375,220.7031 Q175.6094,220.9531 175.6094,221.5625 L175.6094,223.0156 Q175.6094,223.625 175.375,223.8906 Q175.1406,224.1563 174.7656,224.1563 Q174.4219,224.1563 174.2188,223.9531 Q174.0156,223.7656 173.9063,223.25 Q173.8594,222.8906 173.6719,222.7031 Q173.3438,222.3281 172.7344,222.1094 Q172.125,221.8906 171.5,221.8906 Q170.7344,221.8906 170.0938,222.2188 Q169.4688,222.5469 168.9688,223.2969 Q168.4844,224.0469 168.4844,225.0781 L168.4844,226.1719 Q168.4844,227.4063 169.375,228.2344 Q170.2656,229.0469 171.8594,229.0469 Q172.7969,229.0469 173.4531,228.7969 Q173.8438,228.6406 174.2656,228.2031 Q174.5313,227.9375 174.6719,227.8594 Q174.8281,227.7813 175.0313,227.7813 Q175.3594,227.7813 175.6094,228.0469 Q175.875,228.2969 175.875,228.6406 Q175.875,228.9844 175.5313,229.3906 Q175.0313,229.9688 174.2344,230.2969 Q173.1563,230.75 171.8594,230.75 Q170.3438,230.75 169.1406,230.125 Q168.1563,229.625 167.4688,228.5625 Q166.7813,227.4844 166.7813,226.2031 L166.7813,225.0469 Q166.7813,223.7188 167.3906,222.5781 Q168.0156,221.4219 169.1094,220.8125 Q170.2031,220.1875 171.4375,220.1875 Q172.1719,220.1875 172.8125,220.3594 Q173.4688,220.5156 174.0156,220.875 Z " fill="#000000"/><text fill="#000000" font-family="sans-serif" font-size="14" lengthAdjust="spacing" textLength="97" x="191.75" y="230.7969">PurchaseOrder</text><line style="stroke:#181818;stroke-width:0.5;" x1="8" x2="440" y1="241" y2="241"/><text fill="#000000" font-family="sans-serif" font-size="14" lengthAdjust="spacing" textLength="108" x="13" y="260.1074">-String userEmail</text><text fill="#000000" font-family="sans-serif" font-size="14" lengthAdjust="spacing" textLength="90" x="13" y="278.7285">-int propertyID</text><text fill="#000000" font-family="sans-serif" font-size="14" lengthAdjust="spacing" textLength="134" x="13" y="297.3496">-double orderAmount</text><text fill="#000000" font-family="sans-serif" font-size="14" lengthAdjust="spacing" textLength="97" x="13" y="315.9707">-int acceptance</text><line style="stroke:#181818;stroke-width:1.0;" x1="8" x2="440" y1="323.4844" y2="323.4844"/><text fill="#000000" font-family="sans-serif" font-size="14" lengthAdjust="spacing" textLength="422" x="13" y="342.5918">+PurchaseOrder(userEmail, propertyID, orderAmount, acceptance)</text><text fill="#000000" font-family="sans-serif" font-size="14" lengthAdjust="spacing" textLength="57" x="13" y="361.2129">+getUser</text><text fill="#000000" font-family="sans-serif" font-size="14" lengthAdjust="spacing" textLength="136" x="13" y="379.834">+getAnnouncementID</text><text fill="#000000" font-family="sans-serif" font-size="14" lengthAdjust="spacing" textLength="113" x="13" y="398.4551">+getOrderAmount</text><text fill="#000000" font-family="sans-serif" font-size="14" lengthAdjust="spacing" textLength="102" x="13" y="417.0762">+getAcceptance</text><text fill="#000000" font-family="sans-serif" font-size="14" lengthAdjust="spacing" textLength="56" x="13" y="435.6973">+setUser</text><text fill="#000000" font-family="sans-serif" font-size="14" lengthAdjust="spacing" textLength="135" x="13" y="454.3184">+setAnnouncementID</text><text fill="#000000" font-family="sans-serif" font-size="14" lengthAdjust="spacing" textLength="112" x="13" y="472.9395">+setOrderAmount</text><text fill="#000000" font-family="sans-serif" font-size="14" lengthAdjust="spacing" textLength="101" x="13" y="491.5605">+setAcceptance</text></g><!--class Repositories--><g id="elem_Repositories"><rect fill="#F1F1F1" height="141.1055" id="Repositories" rx="2.5" ry="2.5" style="stroke:#181818;stroke-width:0.5;" width="215" x="880.5" y="7"/><ellipse cx="944.25" cy="23" fill="#ADD1B2" rx="11" ry="11" style="stroke:#181818;stroke-width:1.0;"/><path d="M947.0156,18.875 Q947.1719,18.6563 947.3594,18.5469 Q947.5469,18.4375 947.7656,18.4375 Q948.1406,18.4375 948.375,18.7031 Q948.6094,18.9531 948.6094,19.5625 L948.6094,21.0156 Q948.6094,21.625 948.375,21.8906 Q948.1406,22.1563 947.7656,22.1563 Q947.4219,22.1563 947.2188,21.9531 Q947.0156,21.7656 946.9063,21.25 Q946.8594,20.8906 946.6719,20.7031 Q946.3438,20.3281 945.7344,20.1094 Q945.125,19.8906 944.5,19.8906 Q943.7344,19.8906 943.0938,20.2188 Q942.4688,20.5469 941.9688,21.2969 Q941.4844,22.0469 941.4844,23.0781 L941.4844,24.1719 Q941.4844,25.4063 942.375,26.2344 Q943.2656,27.0469 944.8594,27.0469 Q945.7969,27.0469 946.4531,26.7969 Q946.8438,26.6406 947.2656,26.2031 Q947.5313,25.9375 947.6719,25.8594 Q947.8281,25.7813 948.0313,25.7813 Q948.3594,25.7813 948.6094,26.0469 Q948.875,26.2969 948.875,26.6406 Q948.875,26.9844 948.5313,27.3906 Q948.0313,27.9688 947.2344,28.2969 Q946.1563,28.75 944.8594,28.75 Q943.3438,28.75 942.1406,28.125 Q941.1563,27.625 940.4688,26.5625 Q939.7813,25.4844 939.7813,24.2031 L939.7813,23.0469 Q939.7813,21.7188 940.3906,20.5781 Q941.0156,19.4219 942.1094,18.8125 Q943.2031,18.1875 944.4375,18.1875 Q945.1719,18.1875 945.8125,18.3594 Q946.4688,18.5156 947.0156,18.875 Z " fill="#000000"/><text fill="#000000" font-family="sans-serif" font-size="14" lengthAdjust="spacing" textLength="79" x="964.75" y="28.7969">Repositories</text><line style="stroke:#181818;stroke-width:0.5;" x1="881.5" x2="1094.5" y1="39" y2="39"/><line style="stroke:#181818;stroke-width:1.0;" x1="881.5" x2="1094.5" y1="47" y2="47"/><text fill="#000000" font-family="sans-serif" font-size="14" lengthAdjust="spacing" textLength="94" x="886.5" y="66.1074">-Repositories()</text><text fill="#000000" font-family="sans-serif" font-size="14" lengthAdjust="spacing" textLength="182" x="886.5" y="84.7285">+getInstance() : Repositories</text><text fill="#000000" font-family="sans-serif" font-size="14" lengthAdjust="spacing" textLength="203" x="886.5" y="103.3496">+getPurchaseOrderRepository()</text><text fill="#000000" font-family="sans-serif" font-size="14" lengthAdjust="spacing" textLength="201" x="886.5" y="121.9707">+getAnnouncementRepository()</text><text fill="#000000" font-family="sans-serif" font-size="14" lengthAdjust="spacing" textLength="196" x="886.5" y="140.5918">+getAuthenticationRepository()</text></g><!--class AnnouncementRepository--><g id="elem_AnnouncementRepository"><rect fill="#F1F1F1" height="66.6211" id="AnnouncementRepository" rx="2.5" ry="2.5" style="stroke:#181818;stroke-width:0.5;" width="195" x="984.5" y="320.5"/><ellipse cx="999.5" cy="336.5" fill="#ADD1B2" rx="11" ry="11" style="stroke:#181818;stroke-width:1.0;"/><path d="M1002.2656,332.375 Q1002.4219,332.1563 1002.6094,332.0469 Q1002.7969,331.9375 1003.0156,331.9375 Q1003.3906,331.9375 1003.625,332.2031 Q1003.8594,332.4531 1003.8594,333.0625 L1003.8594,334.5156 Q1003.8594,335.125 1003.625,335.3906 Q1003.3906,335.6563 1003.0156,335.6563 Q1002.6719,335.6563 1002.4688,335.4531 Q1002.2656,335.2656 1002.1563,334.75 Q1002.1094,334.3906 1001.9219,334.2031 Q1001.5938,333.8281 1000.9844,333.6094 Q1000.375,333.3906 999.75,333.3906 Q998.9844,333.3906 998.3438,333.7188 Q997.7188,334.0469 997.2188,334.7969 Q996.7344,335.5469 996.7344,336.5781 L996.7344,337.6719 Q996.7344,338.9063 997.625,339.7344 Q998.5156,340.5469 1000.1094,340.5469 Q1001.0469,340.5469 1001.7031,340.2969 Q1002.0938,340.1406 1002.5156,339.7031 Q1002.7813,339.4375 1002.9219,339.3594 Q1003.0781,339.2813 1003.2813,339.2813 Q1003.6094,339.2813 1003.8594,339.5469 Q1004.125,339.7969 1004.125,340.1406 Q1004.125,340.4844 1003.7813,340.8906 Q1003.2813,341.4688 1002.4844,341.7969 Q1001.4063,342.25 1000.1094,342.25 Q998.5938,342.25 997.3906,341.625 Q996.4063,341.125 995.7188,340.0625 Q995.0313,338.9844 995.0313,337.7031 L995.0313,336.5469 Q995.0313,335.2188 995.6406,334.0781 Q996.2656,332.9219 997.3594,332.3125 Q998.4531,331.6875 999.6875,331.6875 Q1000.4219,331.6875 1001.0625,331.8594 Q1001.7188,332.0156 1002.2656,332.375 Z " fill="#000000"/><text fill="#000000" font-family="sans-serif" font-size="14" lengthAdjust="spacing" textLength="163" x="1013.5" y="342.2969">AnnouncementRepository</text><line style="stroke:#181818;stroke-width:0.5;" x1="985.5" x2="1178.5" y1="352.5" y2="352.5"/><line style="stroke:#181818;stroke-width:1.0;" x1="985.5" x2="1178.5" y1="360.5" y2="360.5"/><text fill="#000000" font-family="sans-serif" font-size="14" lengthAdjust="spacing" textLength="123" x="990.5" y="379.6074">+getAnnouncement</text></g><!--class PurchaseOrderTBARepository--><g id="elem_PurchaseOrderTBARepository"><rect fill="#F1F1F1" height="85.2422" id="PurchaseOrderTBARepository" rx="2.5" ry="2.5" style="stroke:#181818;stroke-width:0.5;" width="248" x="701" y="311.5"/><ellipse cx="726.8" cy="327.5" fill="#ADD1B2" rx="11" ry="11" style="stroke:#181818;stroke-width:1.0;"/><path d="M729.5656,323.375 Q729.7219,323.1563 729.9094,323.0469 Q730.0969,322.9375 730.3156,322.9375 Q730.6906,322.9375 730.925,323.2031 Q731.1594,323.4531 731.1594,324.0625 L731.1594,325.5156 Q731.1594,326.125 730.925,326.3906 Q730.6906,326.6563 730.3156,326.6563 Q729.9719,326.6563 729.7688,326.4531 Q729.5656,326.2656 729.4563,325.75 Q729.4094,325.3906 729.2219,325.2031 Q728.8938,324.8281 728.2844,324.6094 Q727.675,324.3906 727.05,324.3906 Q726.2844,324.3906 725.6438,324.7188 Q725.0188,325.0469 724.5188,325.7969 Q724.0344,326.5469 724.0344,327.5781 L724.0344,328.6719 Q724.0344,329.9063 724.925,330.7344 Q725.8156,331.5469 727.4094,331.5469 Q728.3469,331.5469 729.0031,331.2969 Q729.3938,331.1406 729.8156,330.7031 Q730.0813,330.4375 730.2219,330.3594 Q730.3781,330.2813 730.5813,330.2813 Q730.9094,330.2813 731.1594,330.5469 Q731.425,330.7969 731.425,331.1406 Q731.425,331.4844 731.0813,331.8906 Q730.5813,332.4688 729.7844,332.7969 Q728.7063,333.25 727.4094,333.25 Q725.8938,333.25 724.6906,332.625 Q723.7063,332.125 723.0188,331.0625 Q722.3313,329.9844 722.3313,328.7031 L722.3313,327.5469 Q722.3313,326.2188 722.9406,325.0781 Q723.5656,323.9219 724.6594,323.3125 Q725.7531,322.6875 726.9875,322.6875 Q727.7219,322.6875 728.3625,322.8594 Q729.0188,323.0156 729.5656,323.375 Z " fill="#000000"/><text fill="#000000" font-family="sans-serif" font-size="14" lengthAdjust="spacing" textLength="192" x="743.2" y="333.2969">PurchaseOrderTBARepository</text><line style="stroke:#181818;stroke-width:0.5;" x1="702" x2="948" y1="343.5" y2="343.5"/><line style="stroke:#181818;stroke-width:1.0;" x1="702" x2="948" y1="351.5" y2="351.5"/><text fill="#000000" font-family="sans-serif" font-size="14" lengthAdjust="spacing" textLength="235" x="707" y="370.6074">+addPurchaseOrder(purchaseOrder)</text><text fill="#000000" font-family="sans-serif" font-size="14" lengthAdjust="spacing" textLength="236" x="707" y="389.2285">+checkExistingOrder(purchaseOrder)</text></g><!--class AuthenticationRepository--><g id="elem_AuthenticationRepository"><rect fill="#F1F1F1" height="66.6211" id="AuthenticationRepository" rx="2.5" ry="2.5" style="stroke:#181818;stroke-width:0.5;" width="190" x="476" y="320.5"/><ellipse cx="491" cy="336.5" fill="#ADD1B2" rx="11" ry="11" style="stroke:#181818;stroke-width:1.0;"/><path d="M493.7656,332.375 Q493.9219,332.1563 494.1094,332.0469 Q494.2969,331.9375 494.5156,331.9375 Q494.8906,331.9375 495.125,332.2031 Q495.3594,332.4531 495.3594,333.0625 L495.3594,334.5156 Q495.3594,335.125 495.125,335.3906 Q494.8906,335.6563 494.5156,335.6563 Q494.1719,335.6563 493.9688,335.4531 Q493.7656,335.2656 493.6563,334.75 Q493.6094,334.3906 493.4219,334.2031 Q493.0938,333.8281 492.4844,333.6094 Q491.875,333.3906 491.25,333.3906 Q490.4844,333.3906 489.8438,333.7188 Q489.2188,334.0469 488.7188,334.7969 Q488.2344,335.5469 488.2344,336.5781 L488.2344,337.6719 Q488.2344,338.9063 489.125,339.7344 Q490.0156,340.5469 491.6094,340.5469 Q492.5469,340.5469 493.2031,340.2969 Q493.5938,340.1406 494.0156,339.7031 Q494.2813,339.4375 494.4219,339.3594 Q494.5781,339.2813 494.7813,339.2813 Q495.1094,339.2813 495.3594,339.5469 Q495.625,339.7969 495.625,340.1406 Q495.625,340.4844 495.2813,340.8906 Q494.7813,341.4688 493.9844,341.7969 Q492.9063,342.25 491.6094,342.25 Q490.0938,342.25 488.8906,341.625 Q487.9063,341.125 487.2188,340.0625 Q486.5313,338.9844 486.5313,337.7031 L486.5313,336.5469 Q486.5313,335.2188 487.1406,334.0781 Q487.7656,332.9219 488.8594,332.3125 Q489.9531,331.6875 491.1875,331.6875 Q491.9219,331.6875 492.5625,331.8594 Q493.2188,332.0156 493.7656,332.375 Z " fill="#000000"/><text fill="#000000" font-family="sans-serif" font-size="14" lengthAdjust="spacing" textLength="158" x="505" y="342.2969">AuthenticationRepository</text><line style="stroke:#181818;stroke-width:0.5;" x1="477" x2="665" y1="352.5" y2="352.5"/><line style="stroke:#181818;stroke-width:1.0;" x1="477" x2="665" y1="360.5" y2="360.5"/><text fill="#000000" font-family="sans-serif" font-size="14" lengthAdjust="spacing" textLength="165" x="482" y="379.6074">+getCurrentUserSession()</text></g><!--link CreatePurchaseOrderUI to CreatePurchaseOrderController--><g id="link_CreatePurchaseOrderUI_CreatePurchaseOrderController"><path d="M336.27,77.5 C353.04,77.5 365.33,77.5 365.33,77.5 C365.33,77.5 365.46,77.5 365.7,77.5 " fill="none" id="CreatePurchaseOrderUI-to-CreatePurchaseOrderController" style="stroke:#181818;stroke-width:1.0;stroke-dasharray:7.0,7.0;"/><polygon fill="#181818" points="370.86,77.5,361.86,73.5,365.86,77.5,361.86,81.5,370.86,77.5" style="stroke:#181818;stroke-width:1.0;"/></g><!--link CreatePurchaseOrderController to AuthenticationRepository--><g id="link_CreatePurchaseOrderController_AuthenticationRepository"><path d="M598.62,148.12 C591.46,201.24 581.87,272.37 576.08,315.32 " fill="none" id="CreatePurchaseOrderController-to-AuthenticationRepository" style="stroke:#181818;stroke-width:1.0;stroke-dasharray:7.0,7.0;"/><polygon fill="#181818" points="575.39,320.42,580.565,312.0403,576.063,315.4655,572.6378,310.9635,575.39,320.42" style="stroke:#181818;stroke-width:1.0;"/></g><!--link CreatePurchaseOrderController to PurchaseOrder--><g id="link_CreatePurchaseOrderController_PurchaseOrder"><path d="M510.6,148.12 C485.72,165.91 458.01,185.72 429.9,205.81 " fill="none" id="CreatePurchaseOrderController-to-PurchaseOrder" style="stroke:#181818;stroke-width:1.0;stroke-dasharray:7.0,7.0;"/><polygon fill="#181818" points="425.75,208.78,435.4012,206.8166,429.8225,205.8792,430.7599,200.3006,425.75,208.78" style="stroke:#181818;stroke-width:1.0;"/></g><!--link CreatePurchaseOrderController to Repositories--><g id="link_CreatePurchaseOrderController_Repositories"><path d="M845.03,77.5 C854.94,77.5 861.33,77.5 861.33,77.5 C861.33,77.5 866.71,77.5 875.24,77.5 " fill="none" id="CreatePurchaseOrderController-to-Repositories" style="stroke:#181818;stroke-width:1.0;stroke-dasharray:7.0,7.0;"/><polygon fill="#181818" points="880.3,77.5,871.3,73.5,875.3,77.5,871.3,81.5,880.3,77.5" style="stroke:#181818;stroke-width:1.0;"/></g><!--link CreatePurchaseOrderController to AnnouncementRepository--><g id="link_CreatePurchaseOrderController_AnnouncementRepository"><path d="M799.32,148.05 C884.96,179.18 967,209 967,209 C967,209 1018.59,273.6 1052.66,316.27 " fill="none" id="CreatePurchaseOrderController-to-AnnouncementRepository" style="stroke:#181818;stroke-width:1.0;stroke-dasharray:7.0,7.0;"/><polygon fill="#181818" points="1055.9,320.32,1053.4097,310.7912,1052.78,316.4129,1047.1583,315.7831,1055.9,320.32" style="stroke:#181818;stroke-width:1.0;"/></g><!--link CreatePurchaseOrderController to PurchaseOrderTBARepository--><g id="link_CreatePurchaseOrderController_PurchaseOrderTBARepository"><path d="M663.04,148.12 C702.45,197.98 754.41,263.7 788.72,307.1 " fill="none" id="CreatePurchaseOrderController-to-PurchaseOrderTBARepository" style="stroke:#181818;stroke-width:1.0;stroke-dasharray:7.0,7.0;"/><polygon fill="#181818" points="791.98,311.23,789.5067,301.6967,788.867,307.3173,783.2464,306.6776,791.98,311.23" style="stroke:#181818;stroke-width:1.0;"/></g><!--link Repositories to Repositories--><g id="link_Repositories_Repositories"><path d="M1095.51,59.65 C1116,61.78 1130.5,67.73 1130.5,77.5 C1130.5,86.43 1118.39,92.17 1100.65,94.72 " fill="none" id="Repositories-to-Repositories" style="stroke:#181818;stroke-width:1.0;"/><polygon fill="#181818" points="1095.51,95.35,1104.9326,98.2161,1100.4723,94.7368,1103.9515,90.2765,1095.51,95.35" style="stroke:#181818;stroke-width:1.0;"/><text fill="#000000" font-family="sans-serif" font-size="13" lengthAdjust="spacing" textLength="75" x="1136.5" y="83.0283">getInstance()</text></g><!--link Repositories to AnnouncementRepository--><g id="link_Repositories_AnnouncementRepository"><path d="M1011.84,148.12 C1030.07,201.35 1054.49,272.66 1069.19,315.58 " fill="none" id="Repositories-to-AnnouncementRepository" style="stroke:#181818;stroke-width:1.0;"/><polygon fill="#181818" points="1070.84,320.42,1071.6912,310.608,1069.2118,315.6925,1064.1273,313.2131,1070.84,320.42" style="stroke:#181818;stroke-width:1.0;"/></g><!--link Repositories to PurchaseOrderTBARepository--><g id="link_Repositories_PurchaseOrderTBARepository"><path d="M946.66,148.12 C917.11,197.88 878.18,263.44 852.41,306.84 " fill="none" id="Repositories-to-PurchaseOrderTBARepository" style="stroke:#181818;stroke-width:1.0;"/><polygon fill="#181818" points="849.8,311.23,857.8382,305.539,852.3557,306.9325,850.9622,301.45,849.8,311.23" style="stroke:#181818;stroke-width:1.0;"/></g><!--SRC=[hLJ1Rjim3BthAtIBWyH1ppiKoB8SSccBPVq0HMPZ8R9aK3AwREY_Zt8CMtASh0EMYoFoyV6H8ZLp9sLgWQBYbJLMbcWhu1uRO8Ed5l8aZh3tPmqSGNfXZZe6k58KzbsP8tyJsiKUhGpuSmsyjleS3cmsuRJeBOkYf1REhRr7TMWyxAGrU_KB-0DZCmrlddlBKHrBpmiLv2Xh66jZ-0P1U7XfK9R2mJCMWAyx_fjzt05ihF5ejGOa8ATVdkVjTo5BaAUrCROn4YemFXFHuQcf3e3p3dhDcpKES5i9fPUyHbi3-lFksvAg9UUw8Xw_v49AgAcX4kPHpeHd-rCvxx8wjiNWLqep5H2bLqKNS0H_KsC0VNHjIa1TL_Pq7tJ5VSJ5geoFghlO2jiSDCI53jYXuBJN_w5rL5peHN-8RwwJ5ipF8rajD5MrS36LcwPo4rGkeUgdxZlKrYblKO4R3LcUEBEXb9rnBKisvryIpFHDzeXpn17BdWOqlYIVaY9iKGBfnK-JZ5Pbb6o8JaJ- -BeU6CRR9eeY7OAR4zyEECtY96pGVQCsVYrzqo0ID5pv7fmZ-AK1imjJi5FKB5u38of8BH3cTLqKI0offoQITvhTpag9sp-Bm9i5ecKIlEm3vXsG93xr-S9fUvMh7OW-3scVVWfNg_RbVBp_4BBxp-HgzNYpkvy8JNn_nNTwamtuXBp9eVrNSScyCfQiSPvgeYLDbdO4pczAkiBTK_07]--></g></svg>