<?xml version="1.0" encoding="us-ascii" standalone="no"?><svg xmlns="http://www.w3.org/2000/svg" xmlns:xlink="http://www.w3.org/1999/xlink" contentStyleType="text/css" height="1585px" preserveAspectRatio="none" style="width:1916px;height:1585px;background:#FFFFFF;" version="1.1" viewBox="0 0 1916 1585" width="1916px" zoomAndPan="magnify"><defs/><g><rect fill="#FFFFFF" height="1390.4258" style="stroke:#181818;stroke-width:1.0;" width="10" x="42.5" y="93.6211"/><rect fill="#FFFFFF" height="351.5313" style="stroke:#181818;stroke-width:1.0;" width="10" x="385.5" y="116.9121"/><rect fill="#FFFFFF" height="370.4922" style="stroke:#181818;stroke-width:1.0;" width="10" x="385.5" y="499.7344"/><rect fill="#FFFFFF" height="582.5293" style="stroke:#181818;stroke-width:1.0;" width="10" x="385.5" y="901.5176"/><rect fill="#FFFFFF" height="156.4551" style="stroke:#181818;stroke-width:1.0;" width="10" x="845.5" y="223.1152"/><rect fill="#FFFFFF" height="93.873" style="stroke:#181818;stroke-width:1.0;" width="10" x="845.5" y="531.0254"/><rect fill="#FFFFFF" height="93.873" style="stroke:#181818;stroke-width:1.0;" width="10" x="845.5" y="682.4805"/><rect fill="#FFFFFF" height="519.9473" style="stroke:#181818;stroke-width:1.0;" width="10" x="845.5" y="932.8086"/><rect fill="#FFFFFF" height="31.291" style="stroke:#181818;stroke-width:1.0;" width="10" x="1014" y="254.4063"/><rect fill="#FFFFFF" height="31.291" style="stroke:#181818;stroke-width:1.0;" width="10" x="1121" y="316.9883"/><rect fill="#FFFFFF" height="31.291" style="stroke:#181818;stroke-width:1.0;" width="10" x="1121" y="964.0996"/><rect fill="#FFFFFF" height="31.291" style="stroke:#181818;stroke-width:1.0;" width="10" x="1121" y="1151.8457"/><rect fill="#FFFFFF" height="31.291" style="stroke:#181818;stroke-width:1.0;" width="10" x="1269.5" y="562.3164"/><rect fill="#FFFFFF" height="31.291" style="stroke:#181818;stroke-width:1.0;" width="10" x="1455.5" y="1026.6816"/><rect fill="#FFFFFF" height="31.291" style="stroke:#181818;stroke-width:1.0;" width="10" x="1609" y="1089.2637"/><rect fill="#FFFFFF" height="31.291" style="stroke:#181818;stroke-width:1.0;" width="10" x="1781" y="713.7715"/><rect fill="#FFFFFF" height="31.291" style="stroke:#181818;stroke-width:1.0;" width="10" x="1781" y="1214.4277"/><rect fill="#FFFFFF" height="31.291" style="stroke:#181818;stroke-width:1.0;" width="10" x="1781" y="1390.1738"/><rect fill="none" height="414.0742" style="stroke:#000000;stroke-width:1.5;" width="1900.5" x="10" y="425.8613"/><rect fill="none" height="193.0371" style="stroke:#000000;stroke-width:1.5;" width="1880.5" x="20" y="639.8984"/><rect fill="none" height="99.1641" style="stroke:#000000;stroke-width:1.5;" width="950.5" x="20" y="1260.7188"/><line style="stroke:#181818;stroke-width:0.5;stroke-dasharray:5.0,5.0;" x1="47" x2="47" y1="83.6211" y2="1502.0469"/><line style="stroke:#181818;stroke-width:0.5;stroke-dasharray:5.0,5.0;" x1="390.5" x2="390.5" y1="83.6211" y2="1502.0469"/><line style="stroke:#181818;stroke-width:0.5;stroke-dasharray:5.0,5.0;" x1="850.5" x2="850.5" y1="156.7227" y2="1502.0469"/><line style="stroke:#181818;stroke-width:0.5;stroke-dasharray:5.0,5.0;" x1="1018.5" x2="1018.5" y1="83.6211" y2="1502.0469"/><line style="stroke:#181818;stroke-width:0.5;stroke-dasharray:5.0,5.0;" x1="1125.5" x2="1125.5" y1="83.6211" y2="1502.0469"/><line style="stroke:#181818;stroke-width:0.5;stroke-dasharray:5.0,5.0;" x1="1274.5" x2="1274.5" y1="83.6211" y2="1502.0469"/><line style="stroke:#181818;stroke-width:0.5;stroke-dasharray:5.0,5.0;" x1="1460.5" x2="1460.5" y1="83.6211" y2="1502.0469"/><line style="stroke:#181818;stroke-width:0.5;stroke-dasharray:5.0,5.0;" x1="1613.5" x2="1613.5" y1="83.6211" y2="1502.0469"/><line style="stroke:#181818;stroke-width:0.5;stroke-dasharray:5.0,5.0;" x1="1785.5" x2="1785.5" y1="83.6211" y2="1502.0469"/><text fill="#000000" font-family="sans-serif" font-size="14" lengthAdjust="spacing" textLength="29" x="30" y="80.1074">User</text><ellipse cx="47.5" cy="13.5" fill="#E3E3E3" rx="8" ry="8" style="stroke:#181818;stroke-width:0.5;"/><path d="M47.5,21.5 L47.5,48.5 M34.5,29.5 L60.5,29.5 M47.5,48.5 L34.5,63.5 M47.5,48.5 L60.5,63.5 " fill="none" style="stroke:#181818;stroke-width:0.5;"/><text fill="#000000" font-family="sans-serif" font-size="14" lengthAdjust="spacing" textLength="29" x="30" y="1516.1543">User</text><ellipse cx="47.5" cy="1528.168" fill="#E3E3E3" rx="8" ry="8" style="stroke:#181818;stroke-width:0.5;"/><path d="M47.5,1536.168 L47.5,1563.168 M34.5,1544.168 L60.5,1544.168 M47.5,1563.168 L34.5,1578.168 M47.5,1563.168 L60.5,1578.168 " fill="none" style="stroke:#181818;stroke-width:0.5;"/><rect fill="#E3E3E3" height="32.6211" rx="2.5" ry="2.5" style="stroke:#181818;stroke-width:0.5;" width="170" x="305.5" y="50"/><text fill="#000000" font-family="sans-serif" font-size="14" lengthAdjust="spacing" textLength="156" x="312.5" y="72.1074">:CreatePurchaseOrderUI</text><rect fill="#E3E3E3" height="32.6211" rx="2.5" ry="2.5" style="stroke:#181818;stroke-width:0.5;" width="170" x="305.5" y="1501.0469"/><text fill="#000000" font-family="sans-serif" font-size="14" lengthAdjust="spacing" textLength="156" x="312.5" y="1523.1543">:CreatePurchaseOrderUI</text><rect fill="#E3E3E3" height="32.6211" rx="2.5" ry="2.5" style="stroke:#181818;stroke-width:0.5;" width="220" x="740.5" y="1501.0469"/><text fill="#000000" font-family="sans-serif" font-size="14" lengthAdjust="spacing" textLength="206" x="747.5" y="1523.1543">:CreatePurchaseOrderController</text><rect fill="#E3E3E3" height="32.6211" rx="2.5" ry="2.5" style="stroke:#181818;stroke-width:0.5;" width="97" x="970.5" y="50"/><text fill="#000000" font-family="sans-serif" font-size="14" lengthAdjust="spacing" textLength="83" x="977.5" y="72.1074">:Repositories</text><rect fill="#E3E3E3" height="32.6211" rx="2.5" ry="2.5" style="stroke:#181818;stroke-width:0.5;" width="97" x="970.5" y="1501.0469"/><text fill="#000000" font-family="sans-serif" font-size="14" lengthAdjust="spacing" textLength="83" x="977.5" y="1523.1543">:Repositories</text><rect fill="#E3E3E3" height="51.2422" rx="2.5" ry="2.5" style="stroke:#181818;stroke-width:0.5;" width="97" x="1077.5" y="31.3789"/><text fill="#000000" font-family="sans-serif" font-size="14" lengthAdjust="spacing" textLength="74" x="1089" y="53.4863">repositories</text><text fill="#000000" font-family="sans-serif" font-size="14" lengthAdjust="spacing" textLength="83" x="1084.5" y="72.1074">:Repositories</text><rect fill="#E3E3E3" height="51.2422" rx="2.5" ry="2.5" style="stroke:#181818;stroke-width:0.5;" width="97" x="1077.5" y="1501.0469"/><text fill="#000000" font-family="sans-serif" font-size="14" lengthAdjust="spacing" textLength="74" x="1089" y="1523.1543">repositories</text><text fill="#000000" font-family="sans-serif" font-size="14" lengthAdjust="spacing" textLength="83" x="1084.5" y="1541.7754">:Repositories</text><rect fill="#E3E3E3" height="51.2422" rx="2.5" ry="2.5" style="stroke:#181818;stroke-width:0.5;" width="180" x="1184.5" y="31.3789"/><text fill="#000000" font-family="sans-serif" font-size="14" lengthAdjust="spacing" textLength="166" x="1191.5" y="53.4863">announcementRepository:</text><text fill="#000000" font-family="sans-serif" font-size="14" lengthAdjust="spacing" textLength="163" x="1193" y="72.1074">AnnouncementRepository</text><rect fill="#E3E3E3" height="51.2422" rx="2.5" ry="2.5" style="stroke:#181818;stroke-width:0.5;" width="180" x="1184.5" y="1501.0469"/><text fill="#000000" font-family="sans-serif" font-size="14" lengthAdjust="spacing" textLength="166" x="1191.5" y="1523.1543">announcementRepository:</text><text fill="#000000" font-family="sans-serif" font-size="14" lengthAdjust="spacing" textLength="163" x="1193" y="1541.7754">AnnouncementRepository</text><rect fill="#E3E3E3" height="51.2422" rx="2.5" ry="2.5" style="stroke:#181818;stroke-width:0.5;" width="172" x="1374.5" y="31.3789"/><text fill="#000000" font-family="sans-serif" font-size="14" lengthAdjust="spacing" textLength="32" x="1444.5" y="53.4863">user:</text><text fill="#000000" font-family="sans-serif" font-size="14" lengthAdjust="spacing" textLength="158" x="1381.5" y="72.1074">AuthenticationRepository</text><rect fill="#E3E3E3" height="51.2422" rx="2.5" ry="2.5" style="stroke:#181818;stroke-width:0.5;" width="172" x="1374.5" y="1501.0469"/><text fill="#000000" font-family="sans-serif" font-size="14" lengthAdjust="spacing" textLength="32" x="1444.5" y="1523.1543">user:</text><text fill="#000000" font-family="sans-serif" font-size="14" lengthAdjust="spacing" textLength="158" x="1381.5" y="1541.7754">AuthenticationRepository</text><rect fill="#E3E3E3" height="32.6211" rx="2.5" ry="2.5" style="stroke:#181818;stroke-width:0.5;" width="115" x="1556.5" y="50"/><text fill="#000000" font-family="sans-serif" font-size="14" lengthAdjust="spacing" textLength="101" x="1563.5" y="72.1074">:PurchaseOrder</text><rect fill="#E3E3E3" height="32.6211" rx="2.5" ry="2.5" style="stroke:#181818;stroke-width:0.5;" width="115" x="1556.5" y="1501.0469"/><text fill="#000000" font-family="sans-serif" font-size="14" lengthAdjust="spacing" textLength="101" x="1563.5" y="1523.1543">:PurchaseOrder</text><rect fill="#E3E3E3" height="51.2422" rx="2.5" ry="2.5" style="stroke:#181818;stroke-width:0.5;" width="209" x="1681.5" y="31.3789"/><text fill="#000000" font-family="sans-serif" font-size="14" lengthAdjust="spacing" textLength="195" x="1688.5" y="53.4863">purchaseOrderTBARepository:</text><text fill="#000000" font-family="sans-serif" font-size="14" lengthAdjust="spacing" textLength="192" x="1690" y="72.1074">PurchaseOrderTBARepository</text><rect fill="#E3E3E3" height="51.2422" rx="2.5" ry="2.5" style="stroke:#181818;stroke-width:0.5;" width="209" x="1681.5" y="1501.0469"/><text fill="#000000" font-family="sans-serif" font-size="14" lengthAdjust="spacing" textLength="195" x="1688.5" y="1523.1543">purchaseOrderTBARepository:</text><text fill="#000000" font-family="sans-serif" font-size="14" lengthAdjust="spacing" textLength="192" x="1690" y="1541.7754">PurchaseOrderTBARepository</text><rect fill="#FFFFFF" height="1390.4258" style="stroke:#181818;stroke-width:1.0;" width="10" x="42.5" y="93.6211"/><rect fill="#FFFFFF" height="351.5313" style="stroke:#181818;stroke-width:1.0;" width="10" x="385.5" y="116.9121"/><rect fill="#FFFFFF" height="370.4922" style="stroke:#181818;stroke-width:1.0;" width="10" x="385.5" y="499.7344"/><rect fill="#FFFFFF" height="582.5293" style="stroke:#181818;stroke-width:1.0;" width="10" x="385.5" y="901.5176"/><rect fill="#FFFFFF" height="156.4551" style="stroke:#181818;stroke-width:1.0;" width="10" x="845.5" y="223.1152"/><rect fill="#FFFFFF" height="93.873" style="stroke:#181818;stroke-width:1.0;" width="10" x="845.5" y="531.0254"/><rect fill="#FFFFFF" height="93.873" style="stroke:#181818;stroke-width:1.0;" width="10" x="845.5" y="682.4805"/><rect fill="#FFFFFF" height="519.9473" style="stroke:#181818;stroke-width:1.0;" width="10" x="845.5" y="932.8086"/><rect fill="#FFFFFF" height="31.291" style="stroke:#181818;stroke-width:1.0;" width="10" x="1014" y="254.4063"/><rect fill="#FFFFFF" height="31.291" style="stroke:#181818;stroke-width:1.0;" width="10" x="1121" y="316.9883"/><rect fill="#FFFFFF" height="31.291" style="stroke:#181818;stroke-width:1.0;" width="10" x="1121" y="964.0996"/><rect fill="#FFFFFF" height="31.291" style="stroke:#181818;stroke-width:1.0;" width="10" x="1121" y="1151.8457"/><rect fill="#FFFFFF" height="31.291" style="stroke:#181818;stroke-width:1.0;" width="10" x="1269.5" y="562.3164"/><rect fill="#FFFFFF" height="31.291" style="stroke:#181818;stroke-width:1.0;" width="10" x="1455.5" y="1026.6816"/><rect fill="#FFFFFF" height="31.291" style="stroke:#181818;stroke-width:1.0;" width="10" x="1609" y="1089.2637"/><rect fill="#FFFFFF" height="31.291" style="stroke:#181818;stroke-width:1.0;" width="10" x="1781" y="713.7715"/><rect fill="#FFFFFF" height="31.291" style="stroke:#181818;stroke-width:1.0;" width="10" x="1781" y="1214.4277"/><rect fill="#FFFFFF" height="31.291" style="stroke:#181818;stroke-width:1.0;" width="10" x="1781" y="1390.1738"/><polygon fill="#181818" points="373.5,112.9121,383.5,116.9121,373.5,120.9121,377.5,116.9121" style="stroke:#181818;stroke-width:1.0;"/><line style="stroke:#181818;stroke-width:1.0;" x1="52.5" x2="379.5" y1="116.9121" y2="116.9121"/><text fill="#000000" font-family="sans-serif" font-size="13" font-weight="bold" lengthAdjust="spacing" textLength="7" x="59.5" y="111.6494">1</text><text fill="#000000" font-family="sans-serif" font-size="13" lengthAdjust="spacing" textLength="184" x="70.5" y="111.6494">asks to create a purchase order</text><polygon fill="#181818" points="728.5,144.2031,738.5,148.2031,728.5,152.2031,732.5,148.2031" style="stroke:#181818;stroke-width:1.0;"/><line style="stroke:#181818;stroke-width:1.0;" x1="395.5" x2="734.5" y1="148.2031" y2="148.2031"/><text fill="#000000" font-family="sans-serif" font-size="13" font-weight="bold" lengthAdjust="spacing" textLength="7" x="402.5" y="142.9404">2</text><text fill="#000000" font-family="sans-serif" font-size="13" lengthAdjust="spacing" textLength="36" x="413.5" y="142.9404">create</text><rect fill="#E3E3E3" height="32.6211" rx="2.5" ry="2.5" style="stroke:#181818;stroke-width:0.5;" width="220" x="740.5" y="124.9121"/><text fill="#000000" font-family="sans-serif" font-size="14" lengthAdjust="spacing" textLength="206" x="747.5" y="147.0195">:CreatePurchaseOrderController</text><polygon fill="#181818" points="63.5,187.8242,53.5,191.8242,63.5,195.8242,59.5,191.8242" style="stroke:#181818;stroke-width:1.0;"/><line style="stroke:#181818;stroke-width:1.0;stroke-dasharray:2.0,2.0;" x1="57.5" x2="384.5" y1="191.8242" y2="191.8242"/><text fill="#000000" font-family="sans-serif" font-size="13" font-weight="bold" lengthAdjust="spacing" textLength="7" x="69.5" y="186.5615">3</text><text fill="#000000" font-family="sans-serif" font-size="13" lengthAdjust="spacing" textLength="178" x="80.5" y="186.5615">shows CreatePurchaseOrderUI</text><polygon fill="#181818" points="833.5,219.1152,843.5,223.1152,833.5,227.1152,837.5,223.1152" style="stroke:#181818;stroke-width:1.0;"/><line style="stroke:#181818;stroke-width:1.0;" x1="395.5" x2="839.5" y1="223.1152" y2="223.1152"/><text fill="#000000" font-family="sans-serif" font-size="13" font-weight="bold" lengthAdjust="spacing" textLength="7" x="402.5" y="217.8525">4</text><text fill="#000000" font-family="sans-serif" font-size="13" lengthAdjust="spacing" textLength="171" x="413.5" y="217.8525">getCopyAnnouncementsList()</text><polygon fill="#181818" points="1002,250.4063,1012,254.4063,1002,258.4063,1006,254.4063" style="stroke:#181818;stroke-width:1.0;"/><line style="stroke:#181818;stroke-width:1.0;" x1="855.5" x2="1008" y1="254.4063" y2="254.4063"/><text fill="#000000" font-family="sans-serif" font-size="13" font-weight="bold" lengthAdjust="spacing" textLength="7" x="862.5" y="249.1436">5</text><text fill="#000000" font-family="sans-serif" font-size="13" lengthAdjust="spacing" textLength="75" x="873.5" y="249.1436">getInstance()</text><polygon fill="#181818" points="866.5,281.6973,856.5,285.6973,866.5,289.6973,862.5,285.6973" style="stroke:#181818;stroke-width:1.0;"/><line style="stroke:#181818;stroke-width:1.0;stroke-dasharray:2.0,2.0;" x1="860.5" x2="1018" y1="285.6973" y2="285.6973"/><text fill="#000000" font-family="sans-serif" font-size="13" font-weight="bold" lengthAdjust="spacing" textLength="7" x="872.5" y="280.4346">6</text><text fill="#000000" font-family="sans-serif" font-size="13" lengthAdjust="spacing" textLength="67" x="883.5" y="280.4346">repositories</text><polygon fill="#181818" points="1109,312.9883,1119,316.9883,1109,320.9883,1113,316.9883" style="stroke:#181818;stroke-width:1.0;"/><line style="stroke:#181818;stroke-width:1.0;" x1="855.5" x2="1115" y1="316.9883" y2="316.9883"/><text fill="#000000" font-family="sans-serif" font-size="13" font-weight="bold" lengthAdjust="spacing" textLength="7" x="862.5" y="311.7256">7</text><text fill="#000000" font-family="sans-serif" font-size="13" lengthAdjust="spacing" textLength="175" x="873.5" y="311.7256">getAnnouncementRepository()</text><polygon fill="#181818" points="866.5,344.2793,856.5,348.2793,866.5,352.2793,862.5,348.2793" style="stroke:#181818;stroke-width:1.0;"/><line style="stroke:#181818;stroke-width:1.0;stroke-dasharray:2.0,2.0;" x1="860.5" x2="1125" y1="348.2793" y2="348.2793"/><text fill="#000000" font-family="sans-serif" font-size="13" font-weight="bold" lengthAdjust="spacing" textLength="7" x="872.5" y="343.0166">8</text><text fill="#000000" font-family="sans-serif" font-size="13" lengthAdjust="spacing" textLength="167" x="883.5" y="343.0166">getAnnouncementRepository</text><polygon fill="#181818" points="406.5,375.5703,396.5,379.5703,406.5,383.5703,402.5,379.5703" style="stroke:#181818;stroke-width:1.0;"/><line style="stroke:#181818;stroke-width:1.0;stroke-dasharray:2.0,2.0;" x1="400.5" x2="849.5" y1="379.5703" y2="379.5703"/><text fill="#000000" font-family="sans-serif" font-size="13" font-weight="bold" lengthAdjust="spacing" textLength="7" x="412.5" y="374.3076">9</text><text fill="#000000" font-family="sans-serif" font-size="13" lengthAdjust="spacing" textLength="163" x="423.5" y="374.3076">getCopyAnnouncementsList</text><polygon fill="#181818" points="63.5,406.8613,53.5,410.8613,63.5,414.8613,59.5,410.8613" style="stroke:#181818;stroke-width:1.0;"/><line style="stroke:#181818;stroke-width:1.0;stroke-dasharray:2.0,2.0;" x1="57.5" x2="384.5" y1="410.8613" y2="410.8613"/><text fill="#000000" font-family="sans-serif" font-size="13" font-weight="bold" lengthAdjust="spacing" textLength="14" x="69.5" y="405.5986">10</text><text fill="#000000" font-family="sans-serif" font-size="13" lengthAdjust="spacing" textLength="190" x="87.5" y="405.5986">shows AnnouncementRepository</text><path d="M10,425.8613 L83,425.8613 L83,435.1523 L73,445.1523 L10,445.1523 L10,425.8613 " fill="#EEEEEE" style="stroke:#000000;stroke-width:1.5;"/><rect fill="none" height="414.0742" style="stroke:#000000;stroke-width:1.5;" width="1900.5" x="10" y="425.8613"/><text fill="#000000" font-family="sans-serif" font-size="13" font-weight="bold" lengthAdjust="spacing" textLength="28" x="25" y="440.8896">loop</text><text fill="#000000" font-family="sans-serif" font-size="11" font-weight="bold" lengthAdjust="spacing" textLength="260" x="98" y="439.7314">[until checkAnnouncement(propertyID) == true]</text><polygon fill="#181818" points="63.5,464.4434,53.5,468.4434,63.5,472.4434,59.5,468.4434" style="stroke:#181818;stroke-width:1.0;"/><line style="stroke:#181818;stroke-width:1.0;stroke-dasharray:2.0,2.0;" x1="57.5" x2="389.5" y1="468.4434" y2="468.4434"/><text fill="#000000" font-family="sans-serif" font-size="13" font-weight="bold" lengthAdjust="spacing" textLength="14" x="69.5" y="463.1807">11</text><text fill="#000000" font-family="sans-serif" font-size="13" lengthAdjust="spacing" textLength="79" x="87.5" y="463.1807">requests data</text><polygon fill="#181818" points="373.5,495.7344,383.5,499.7344,373.5,503.7344,377.5,499.7344" style="stroke:#181818;stroke-width:1.0;"/><line style="stroke:#181818;stroke-width:1.0;" x1="52.5" x2="379.5" y1="499.7344" y2="499.7344"/><text fill="#000000" font-family="sans-serif" font-size="13" font-weight="bold" lengthAdjust="spacing" textLength="14" x="59.5" y="494.4717">12</text><text fill="#000000" font-family="sans-serif" font-size="13" lengthAdjust="spacing" textLength="168" x="77.5" y="494.4717">selects the intended property</text><polygon fill="#181818" points="833.5,527.0254,843.5,531.0254,833.5,535.0254,837.5,531.0254" style="stroke:#181818;stroke-width:1.0;"/><line style="stroke:#181818;stroke-width:1.0;" x1="395.5" x2="839.5" y1="531.0254" y2="531.0254"/><text fill="#000000" font-family="sans-serif" font-size="13" font-weight="bold" lengthAdjust="spacing" textLength="14" x="402.5" y="525.7627">13</text><text fill="#000000" font-family="sans-serif" font-size="13" lengthAdjust="spacing" textLength="189" x="420.5" y="525.7627">checkAnnouncement(propertyID)</text><polygon fill="#181818" points="1257.5,558.3164,1267.5,562.3164,1257.5,566.3164,1261.5,562.3164" style="stroke:#181818;stroke-width:1.0;"/><line style="stroke:#181818;stroke-width:1.0;" x1="855.5" x2="1263.5" y1="562.3164" y2="562.3164"/><text fill="#000000" font-family="sans-serif" font-size="13" font-weight="bold" lengthAdjust="spacing" textLength="14" x="862.5" y="557.0537">14</text><text fill="#000000" font-family="sans-serif" font-size="13" lengthAdjust="spacing" textLength="32" x="880.5" y="557.0537">size()</text><polygon fill="#181818" points="866.5,589.6074,856.5,593.6074,866.5,597.6074,862.5,593.6074" style="stroke:#181818;stroke-width:1.0;"/><line style="stroke:#181818;stroke-width:1.0;stroke-dasharray:2.0,2.0;" x1="860.5" x2="1273.5" y1="593.6074" y2="593.6074"/><text fill="#000000" font-family="sans-serif" font-size="13" font-weight="bold" lengthAdjust="spacing" textLength="14" x="872.5" y="588.3447">15</text><text fill="#000000" font-family="sans-serif" font-size="13" lengthAdjust="spacing" textLength="24" x="890.5" y="588.3447">size</text><polygon fill="#181818" points="406.5,620.8984,396.5,624.8984,406.5,628.8984,402.5,624.8984" style="stroke:#181818;stroke-width:1.0;"/><line style="stroke:#181818;stroke-width:1.0;stroke-dasharray:2.0,2.0;" x1="400.5" x2="849.5" y1="624.8984" y2="624.8984"/><text fill="#000000" font-family="sans-serif" font-size="13" font-weight="bold" lengthAdjust="spacing" textLength="14" x="412.5" y="619.6357">16</text><text fill="#000000" font-family="sans-serif" font-size="13" lengthAdjust="spacing" textLength="122" x="430.5" y="619.6357">checkAnnouncement</text><path d="M20,639.8984 L81,639.8984 L81,649.1895 L71,659.1895 L20,659.1895 L20,639.8984 " fill="#EEEEEE" style="stroke:#000000;stroke-width:1.5;"/><rect fill="none" height="193.0371" style="stroke:#000000;stroke-width:1.5;" width="1880.5" x="20" y="639.8984"/><text fill="#000000" font-family="sans-serif" font-size="13" font-weight="bold" lengthAdjust="spacing" textLength="16" x="35" y="654.9268">alt</text><text fill="#000000" font-family="sans-serif" font-size="11" font-weight="bold" lengthAdjust="spacing" textLength="276" x="96" y="653.7686">[checks if he already submitted a purchase order]</text><polygon fill="#181818" points="833.5,678.4805,843.5,682.4805,833.5,686.4805,837.5,682.4805" style="stroke:#181818;stroke-width:1.0;"/><line style="stroke:#181818;stroke-width:1.0;" x1="395.5" x2="839.5" y1="682.4805" y2="682.4805"/><text fill="#000000" font-family="sans-serif" font-size="13" font-weight="bold" lengthAdjust="spacing" textLength="14" x="402.5" y="677.2178">17</text><text fill="#000000" font-family="sans-serif" font-size="13" lengthAdjust="spacing" textLength="270" x="420.5" y="677.2178">checkUserPurchaseOrderExists(userEmail, id)</text><polygon fill="#181818" points="1769,709.7715,1779,713.7715,1769,717.7715,1773,713.7715" style="stroke:#181818;stroke-width:1.0;"/><line style="stroke:#181818;stroke-width:1.0;" x1="855.5" x2="1775" y1="713.7715" y2="713.7715"/><text fill="#000000" font-family="sans-serif" font-size="13" font-weight="bold" lengthAdjust="spacing" textLength="14" x="862.5" y="708.5088">18</text><text fill="#000000" font-family="sans-serif" font-size="13" lengthAdjust="spacing" textLength="270" x="880.5" y="708.5088">checkUserPurchaseOrderExists(userEmail, id)</text><polygon fill="#181818" points="866.5,741.0625,856.5,745.0625,866.5,749.0625,862.5,745.0625" style="stroke:#181818;stroke-width:1.0;"/><line style="stroke:#181818;stroke-width:1.0;stroke-dasharray:2.0,2.0;" x1="860.5" x2="1785" y1="745.0625" y2="745.0625"/><text fill="#000000" font-family="sans-serif" font-size="13" font-weight="bold" lengthAdjust="spacing" textLength="14" x="872.5" y="739.7998">19</text><text fill="#000000" font-family="sans-serif" font-size="13" lengthAdjust="spacing" textLength="186" x="890.5" y="739.7998">checkUserPurchaseOrderExists</text><polygon fill="#181818" points="406.5,772.3535,396.5,776.3535,406.5,780.3535,402.5,776.3535" style="stroke:#181818;stroke-width:1.0;"/><line style="stroke:#181818;stroke-width:1.0;stroke-dasharray:2.0,2.0;" x1="400.5" x2="849.5" y1="776.3535" y2="776.3535"/><text fill="#000000" font-family="sans-serif" font-size="13" font-weight="bold" lengthAdjust="spacing" textLength="14" x="412.5" y="771.0908">20</text><text fill="#000000" font-family="sans-serif" font-size="13" lengthAdjust="spacing" textLength="186" x="430.5" y="771.0908">checkUserPurchaseOrderExists</text><polygon fill="#181818" points="63.5,820.9355,53.5,824.9355,63.5,828.9355,59.5,824.9355" style="stroke:#181818;stroke-width:1.0;"/><line style="stroke:#181818;stroke-width:1.0;stroke-dasharray:2.0,2.0;" x1="57.5" x2="384.5" y1="824.9355" y2="824.9355"/><text fill="#000000" font-family="sans-serif" font-size="13" font-weight="bold" lengthAdjust="spacing" textLength="14" x="69.5" y="811.0273">21</text><text fill="#000000" font-family="sans-serif" font-size="13" lengthAdjust="spacing" textLength="247" x="87.5" y="802.3818">informs that he already ordered a purchase</text><text fill="#000000" font-family="sans-serif" font-size="13" lengthAdjust="spacing" textLength="95" x="91.5" y="819.6729">for that property.</text><polygon fill="#181818" points="63.5,866.2266,53.5,870.2266,63.5,874.2266,59.5,870.2266" style="stroke:#181818;stroke-width:1.0;"/><line style="stroke:#181818;stroke-width:1.0;stroke-dasharray:2.0,2.0;" x1="57.5" x2="389.5" y1="870.2266" y2="870.2266"/><text fill="#000000" font-family="sans-serif" font-size="13" font-weight="bold" lengthAdjust="spacing" textLength="14" x="69.5" y="864.9639">22</text><text fill="#000000" font-family="sans-serif" font-size="13" lengthAdjust="spacing" textLength="152" x="87.5" y="864.9639">requests the order amount</text><polygon fill="#181818" points="373.5,897.5176,383.5,901.5176,373.5,905.5176,377.5,901.5176" style="stroke:#181818;stroke-width:1.0;"/><line style="stroke:#181818;stroke-width:1.0;" x1="52.5" x2="379.5" y1="901.5176" y2="901.5176"/><text fill="#000000" font-family="sans-serif" font-size="13" font-weight="bold" lengthAdjust="spacing" textLength="14" x="59.5" y="896.2549">23</text><text fill="#000000" font-family="sans-serif" font-size="13" lengthAdjust="spacing" textLength="136" x="77.5" y="896.2549">writes the order amount</text><polygon fill="#181818" points="833.5,928.8086,843.5,932.8086,833.5,936.8086,837.5,932.8086" style="stroke:#181818;stroke-width:1.0;"/><line style="stroke:#181818;stroke-width:1.0;" x1="395.5" x2="839.5" y1="932.8086" y2="932.8086"/><text fill="#000000" font-family="sans-serif" font-size="13" font-weight="bold" lengthAdjust="spacing" textLength="14" x="402.5" y="927.5459">24</text><text fill="#000000" font-family="sans-serif" font-size="13" lengthAdjust="spacing" textLength="413" x="420.5" y="927.5459">createPurchaseOrder(userEmail, propertyID, orderAmount, acceptance)</text><polygon fill="#181818" points="1109,960.0996,1119,964.0996,1109,968.0996,1113,964.0996" style="stroke:#181818;stroke-width:1.0;"/><line style="stroke:#181818;stroke-width:1.0;" x1="855.5" x2="1115" y1="964.0996" y2="964.0996"/><text fill="#000000" font-family="sans-serif" font-size="13" font-weight="bold" lengthAdjust="spacing" textLength="14" x="862.5" y="958.8369">25</text><text fill="#000000" font-family="sans-serif" font-size="13" lengthAdjust="spacing" textLength="171" x="880.5" y="958.8369">getAuthenticationRepository()</text><polygon fill="#181818" points="866.5,991.3906,856.5,995.3906,866.5,999.3906,862.5,995.3906" style="stroke:#181818;stroke-width:1.0;"/><line style="stroke:#181818;stroke-width:1.0;stroke-dasharray:2.0,2.0;" x1="860.5" x2="1125" y1="995.3906" y2="995.3906"/><text fill="#000000" font-family="sans-serif" font-size="13" font-weight="bold" lengthAdjust="spacing" textLength="14" x="872.5" y="990.1279">26</text><text fill="#000000" font-family="sans-serif" font-size="13" lengthAdjust="spacing" textLength="163" x="890.5" y="990.1279">getAuthenticationRepository</text><polygon fill="#181818" points="1443.5,1022.6816,1453.5,1026.6816,1443.5,1030.6816,1447.5,1026.6816" style="stroke:#181818;stroke-width:1.0;"/><line style="stroke:#181818;stroke-width:1.0;" x1="855.5" x2="1449.5" y1="1026.6816" y2="1026.6816"/><text fill="#000000" font-family="sans-serif" font-size="13" font-weight="bold" lengthAdjust="spacing" textLength="14" x="862.5" y="1021.4189">27</text><text fill="#000000" font-family="sans-serif" font-size="13" lengthAdjust="spacing" textLength="142" x="880.5" y="1021.4189">getCurrentUserSession()</text><polygon fill="#181818" points="866.5,1053.9727,856.5,1057.9727,866.5,1061.9727,862.5,1057.9727" style="stroke:#181818;stroke-width:1.0;"/><line style="stroke:#181818;stroke-width:1.0;stroke-dasharray:2.0,2.0;" x1="860.5" x2="1459.5" y1="1057.9727" y2="1057.9727"/><text fill="#000000" font-family="sans-serif" font-size="13" font-weight="bold" lengthAdjust="spacing" textLength="14" x="872.5" y="1052.71">28</text><text fill="#000000" font-family="sans-serif" font-size="13" lengthAdjust="spacing" textLength="134" x="890.5" y="1052.71">getCurrentUserSession</text><polygon fill="#181818" points="1597,1085.2637,1607,1089.2637,1597,1093.2637,1601,1089.2637" style="stroke:#181818;stroke-width:1.0;"/><line style="stroke:#181818;stroke-width:1.0;" x1="855.5" x2="1603" y1="1089.2637" y2="1089.2637"/><text fill="#000000" font-family="sans-serif" font-size="13" font-weight="bold" lengthAdjust="spacing" textLength="14" x="862.5" y="1084.001">29</text><text fill="#000000" font-family="sans-serif" font-size="13" lengthAdjust="spacing" textLength="377" x="880.5" y="1084.001">PurchaseOrder(userEmail, propertyID, orderAmount, acceptance)</text><polygon fill="#181818" points="866.5,1116.5547,856.5,1120.5547,866.5,1124.5547,862.5,1120.5547" style="stroke:#181818;stroke-width:1.0;"/><line style="stroke:#181818;stroke-width:1.0;stroke-dasharray:2.0,2.0;" x1="860.5" x2="1613" y1="1120.5547" y2="1120.5547"/><text fill="#000000" font-family="sans-serif" font-size="13" font-weight="bold" lengthAdjust="spacing" textLength="14" x="872.5" y="1115.292">30</text><text fill="#000000" font-family="sans-serif" font-size="13" lengthAdjust="spacing" textLength="85" x="890.5" y="1115.292">purchaseOrder</text><polygon fill="#181818" points="1109,1147.8457,1119,1151.8457,1109,1155.8457,1113,1151.8457" style="stroke:#181818;stroke-width:1.0;"/><line style="stroke:#181818;stroke-width:1.0;" x1="855.5" x2="1115" y1="1151.8457" y2="1151.8457"/><text fill="#000000" font-family="sans-serif" font-size="13" font-weight="bold" lengthAdjust="spacing" textLength="14" x="862.5" y="1146.583">31</text><text fill="#000000" font-family="sans-serif" font-size="13" lengthAdjust="spacing" textLength="200" x="880.5" y="1146.583">getPurchaseOrderTBARepository()</text><polygon fill="#181818" points="866.5,1179.1367,856.5,1183.1367,866.5,1187.1367,862.5,1183.1367" style="stroke:#181818;stroke-width:1.0;"/><line style="stroke:#181818;stroke-width:1.0;stroke-dasharray:2.0,2.0;" x1="860.5" x2="1125" y1="1183.1367" y2="1183.1367"/><text fill="#000000" font-family="sans-serif" font-size="13" font-weight="bold" lengthAdjust="spacing" textLength="14" x="872.5" y="1177.874">32</text><text fill="#000000" font-family="sans-serif" font-size="13" lengthAdjust="spacing" textLength="192" x="890.5" y="1177.874">getPurchaseOrderTBARepository</text><polygon fill="#181818" points="1769,1210.4277,1779,1214.4277,1769,1218.4277,1773,1214.4277" style="stroke:#181818;stroke-width:1.0;"/><line style="stroke:#181818;stroke-width:1.0;" x1="855.5" x2="1775" y1="1214.4277" y2="1214.4277"/><text fill="#000000" font-family="sans-serif" font-size="13" font-weight="bold" lengthAdjust="spacing" textLength="14" x="862.5" y="1209.165">33</text><text fill="#000000" font-family="sans-serif" font-size="13" lengthAdjust="spacing" textLength="252" x="880.5" y="1209.165">checkPurchaseOrderExists(purchaseOrder)</text><polygon fill="#181818" points="866.5,1241.7188,856.5,1245.7188,866.5,1249.7188,862.5,1245.7188" style="stroke:#181818;stroke-width:1.0;"/><line style="stroke:#181818;stroke-width:1.0;stroke-dasharray:2.0,2.0;" x1="860.5" x2="1785" y1="1245.7188" y2="1245.7188"/><text fill="#000000" font-family="sans-serif" font-size="13" font-weight="bold" lengthAdjust="spacing" textLength="14" x="872.5" y="1240.4561">34</text><text fill="#000000" font-family="sans-serif" font-size="13" lengthAdjust="spacing" textLength="159" x="890.5" y="1240.4561">checkPurchaseOrderExists</text><path d="M20,1260.7188 L81,1260.7188 L81,1270.0098 L71,1280.0098 L20,1280.0098 L20,1260.7188 " fill="#EEEEEE" style="stroke:#000000;stroke-width:1.5;"/><rect fill="none" height="99.1641" style="stroke:#000000;stroke-width:1.5;" width="950.5" x="20" y="1260.7188"/><text fill="#000000" font-family="sans-serif" font-size="13" font-weight="bold" lengthAdjust="spacing" textLength="16" x="35" y="1275.7471">alt</text><text fill="#000000" font-family="sans-serif" font-size="11" font-weight="bold" lengthAdjust="spacing" textLength="213" x="96" y="1274.5889">[if checkPurchaseOrderExists == false]</text><polygon fill="#181818" points="406.5,1299.3008,396.5,1303.3008,406.5,1307.3008,402.5,1303.3008" style="stroke:#181818;stroke-width:1.0;"/><line style="stroke:#181818;stroke-width:1.0;stroke-dasharray:2.0,2.0;" x1="400.5" x2="844.5" y1="1303.3008" y2="1303.3008"/><text fill="#000000" font-family="sans-serif" font-size="13" font-weight="bold" lengthAdjust="spacing" textLength="14" x="412.5" y="1298.0381">35</text><text fill="#000000" font-family="sans-serif" font-size="13" lengthAdjust="spacing" textLength="159" x="430.5" y="1298.0381">checkPurchaseOrderExists</text><polygon fill="#181818" points="63.5,1347.8828,53.5,1351.8828,63.5,1355.8828,59.5,1351.8828" style="stroke:#181818;stroke-width:1.0;"/><line style="stroke:#181818;stroke-width:1.0;stroke-dasharray:2.0,2.0;" x1="57.5" x2="384.5" y1="1351.8828" y2="1351.8828"/><text fill="#000000" font-family="sans-serif" font-size="13" font-weight="bold" lengthAdjust="spacing" textLength="14" x="69.5" y="1337.9746">36</text><text fill="#000000" font-family="sans-serif" font-size="13" lengthAdjust="spacing" textLength="227" x="87.5" y="1329.3291">inform that already exists an equal offer</text><text fill="#000000" font-family="sans-serif" font-size="13" lengthAdjust="spacing" textLength="127" x="87.5" y="1346.6201">which will take priority</text><polygon fill="#181818" points="1769,1386.1738,1779,1390.1738,1769,1394.1738,1773,1390.1738" style="stroke:#181818;stroke-width:1.0;"/><line style="stroke:#181818;stroke-width:1.0;" x1="855.5" x2="1775" y1="1390.1738" y2="1390.1738"/><text fill="#000000" font-family="sans-serif" font-size="13" font-weight="bold" lengthAdjust="spacing" textLength="14" x="862.5" y="1384.9111">37</text><text fill="#000000" font-family="sans-serif" font-size="13" lengthAdjust="spacing" textLength="201" x="880.5" y="1384.9111">addPurchaseOrder(purchaseOrder)</text><polygon fill="#181818" points="866.5,1417.4648,856.5,1421.4648,866.5,1425.4648,862.5,1421.4648" style="stroke:#181818;stroke-width:1.0;"/><line style="stroke:#181818;stroke-width:1.0;stroke-dasharray:2.0,2.0;" x1="860.5" x2="1785" y1="1421.4648" y2="1421.4648"/><text fill="#000000" font-family="sans-serif" font-size="13" font-weight="bold" lengthAdjust="spacing" textLength="14" x="872.5" y="1416.2021">38</text><text fill="#000000" font-family="sans-serif" font-size="13" lengthAdjust="spacing" textLength="108" x="890.5" y="1416.2021">addPurchaseOrder</text><polygon fill="#181818" points="406.5,1448.7559,396.5,1452.7559,406.5,1456.7559,402.5,1452.7559" style="stroke:#181818;stroke-width:1.0;"/><line style="stroke:#181818;stroke-width:1.0;stroke-dasharray:2.0,2.0;" x1="400.5" x2="849.5" y1="1452.7559" y2="1452.7559"/><text fill="#000000" font-family="sans-serif" font-size="13" font-weight="bold" lengthAdjust="spacing" textLength="14" x="412.5" y="1447.4932">39</text><text fill="#000000" font-family="sans-serif" font-size="13" lengthAdjust="spacing" textLength="123" x="430.5" y="1447.4932">createPurchaseOrder</text><polygon fill="#181818" points="58.5,1480.0469,48.5,1484.0469,58.5,1488.0469,54.5,1484.0469" style="stroke:#181818;stroke-width:1.0;"/><line style="stroke:#181818;stroke-width:1.0;stroke-dasharray:2.0,2.0;" x1="52.5" x2="389.5" y1="1484.0469" y2="1484.0469"/><text fill="#000000" font-family="sans-serif" font-size="13" font-weight="bold" lengthAdjust="spacing" textLength="14" x="64.5" y="1478.7842">40</text><text fill="#000000" font-family="sans-serif" font-size="13" lengthAdjust="spacing" textLength="291" x="82.5" y="1478.7842">shows opperation result (successful/unsuccessful)</text><!--SRC=[nLXDRzim3BthLn2zD2tQxHwW0xgiXm85LlJZrejgCx4GM_8aUMdswqVRiMl5aZ_M3VCfiQX7KdnyL6AsGkPSymmo9LMKQ9KXM5qWC-rApgCjt-2ZtQS86YFBvIRj6fY4nsedv0RMF3N862-iaaNsYfgnqqJ426kbxAjwOpooIiF9iq5z0jp0AXKeBICSAoAHSsdXPBdIo2tU5pfAkC7lEaRzV5kP7pwFsw-Kj5gbwS5D_UxfuUvevmFcoWWAIQ2f3BilN5lTMNcH_Pqwk9DBgGePOKQPjjlsonTvxLseqFnBBcv1XrYY53OXAn5nAvGynWai7fs3StRLHkUDQvrtbvw-NZivtGSN-x3ECZjrGsefKdvWvKFS4J-fq0rf6D1JVuRBBmqtO4cRjWQiWgZY1N1e8WPLPLFkQy4QIi7XQM0Qn98rv-U4MgFrxSZm4CIIEa7jYDG-_WuweAqRj2kLxxk5DtV2sCLPkzEDkQAp0reX4MoNcpNohJJKjH5smBfF2-pG7mAF0tzvb8OUGuZHxyrhxAIbUsdvksGiIJqbIJsKPD3rMCPUrvqa7Hg76C4ym056-Fav4dkgL0u5YKOAKOBHjck-oBNAKTlzxRSpkBggHyMWIuq_2ZJMGCmjPxwmgJU2hMmmfO53tPmW26bHnXX34yFyHYxRU2YbAQtMuwN_EClWnQ_ZZcjn9_8dW7rCoD8J2t1kWgSG0tjdDOrwFBNrLWDY3LGvdf8YndimnMichAKIUZLvh6hb971KzUQDsi4ioa5uat6HNe280-VjhsElbk7vz84Wd4069g1FF0O2kfnnHcn0b2P6D4YIAMxdovMGQwMpilkvxVAeeepBeXT9TqnTMpOD_Qb59zqeMUbyBsLkedILwbFv19vHBzZPChRJmc80PxQ0zMyNNVAzgzb5xUkwSdL1VYBCgrl0eConEVCtSBiCYTxWv1sTkA6hx9HPEw3U0TZ302wqfjMIteze35a41NrAU9MaXnnwSkwx3wfyo3sRfdNax-zGAYnsR53RUkddmRqXxPh5tR3g_HFsJXJP-VmTdrY-QUKSxfJY3K-gkLDgngWOYC8DcouTTDi8mPUNrVhVYSapRIp8WP5Lpw5cN64T0PT00uMdeDPhulkBt2KYIc0dqXGitoBrcQ1gM_Tucz7rXmpWSUpszV-h_74e7wrui7Zz0Jdz7k9TdFAZIkMaaPNuKkUQWjYuC0Nfep7h8lrSoFSlPuFN1z_xphl3Vn-_0G00]--></g></svg>