<?xml version="1.0" encoding="us-ascii" standalone="no"?><svg xmlns="http://www.w3.org/2000/svg" xmlns:xlink="http://www.w3.org/1999/xlink" contentStyleType="text/css" height="318px" preserveAspectRatio="none" style="width:523px;height:318px;background:#FFFFFF;" version="1.1" viewBox="0 0 523 318" width="523px" zoomAndPan="magnify"><defs/><g><text fill="#000000" font-family="sans-serif" font-size="14" font-weight="bold" lengthAdjust="spacing" textLength="147" x="181" y="22.6738">Domain Model US003</text><!--class Role--><g id="elem_Role"><rect
        fill="#F1F1F1" height="64.9219" id="Role" rx="2.5" ry="2.5" style="stroke:#181818;stroke-width:0.5;" width="81" x="7" y="223.1406"/><text fill="#000000" font-family="sans-serif" font-size="14" lengthAdjust="spacing" textLength="29" x="33" y="240.8145">Role</text><line style="stroke:#181818;stroke-width:0.5;" x1="8" x2="87" y1="248.7813" y2="248.7813"/><text fill="#000000" font-family="sans-serif" font-size="14" lengthAdjust="spacing" textLength="11" x="13" y="265.4551">id</text><text fill="#000000" font-family="sans-serif" font-size="14" lengthAdjust="spacing" textLength="69" x="13" y="281.0957">description</text></g><!--class Person--><g id="elem_Person"><rect
        fill="#F1F1F1" height="96.2031" id="Person" rx="2.5" ry="2.5" style="stroke:#181818;stroke-width:0.5;" width="175" x="27" y="43.6406"/><text fill="#000000" font-family="sans-serif" font-size="14" lengthAdjust="spacing" textLength="45" x="92" y="61.3145">Person</text><line style="stroke:#181818;stroke-width:0.5;" x1="28" x2="201" y1="69.2813" y2="69.2813"/><text fill="#000000" font-family="sans-serif" font-size="14" lengthAdjust="spacing" textLength="35" x="33" y="85.9551">name</text><text fill="#000000" font-family="sans-serif" font-size="14" lengthAdjust="spacing" textLength="85" x="33" y="101.5957">emailAddress</text><text fill="#000000" font-family="sans-serif" font-size="14" lengthAdjust="spacing" textLength="67" x="33" y="117.2363">taxNumber</text><text fill="#000000" font-family="sans-serif" font-size="14" lengthAdjust="spacing" textLength="163" x="33" y="132.877">contactTelephoneNumber</text></g><!--class Agency--><g id="elem_Agency"><rect
        fill="#F1F1F1" height="96.2031" id="Agency" rx="2.5" ry="2.5" style="stroke:#181818;stroke-width:0.5;" width="175" x="341" y="43.6406"/><text fill="#000000" font-family="sans-serif" font-size="14" lengthAdjust="spacing" textLength="47" x="405" y="61.3145">Agency</text><line style="stroke:#181818;stroke-width:0.5;" x1="342" x2="515" y1="69.2813" y2="69.2813"/><text fill="#000000" font-family="sans-serif" font-size="14" lengthAdjust="spacing" textLength="11" x="347" y="85.9551">id</text><text fill="#000000" font-family="sans-serif" font-size="14" lengthAdjust="spacing" textLength="82" x="347" y="101.5957">agencyName</text><text fill="#000000" font-family="sans-serif" font-size="14" lengthAdjust="spacing" textLength="85" x="347" y="117.2363">emailAddress</text><text fill="#000000" font-family="sans-serif" font-size="14" lengthAdjust="spacing" textLength="163" x="347" y="132.877">contactTelephoneNumber</text></g><!--class Employee--><g id="elem_Employee"><rect
        fill="#F1F1F1" height="33.6406" id="Employee" rx="2.5" ry="2.5" style="stroke:#181818;stroke-width:0.5;" width="68" x="237.5" y="74.6406"/><text fill="#000000" font-family="sans-serif" font-size="14" lengthAdjust="spacing" textLength="62" x="240.5" y="92.3145">Employee</text><line style="stroke:#181818;stroke-width:0.5;" x1="238.5" x2="304.5" y1="100.2813" y2="100.2813"/></g><!--class Address--><g id="elem_Address"><rect
        fill="#F1F1F1" height="111.8438" id="Address" rx="2.5" ry="2.5" style="stroke:#181818;stroke-width:0.5;" width="63" x="336" y="199.6406"/><text fill="#000000" font-family="sans-serif" font-size="14" lengthAdjust="spacing" textLength="52" x="341.5" y="217.3145">Address</text><line style="stroke:#181818;stroke-width:0.5;" x1="337" x2="398" y1="225.2813" y2="225.2813"/><text fill="#000000" font-family="sans-serif" font-size="14" lengthAdjust="spacing" textLength="36" x="342" y="241.9551">street</text><text fill="#000000" font-family="sans-serif" font-size="14" lengthAdjust="spacing" textLength="21" x="342" y="257.5957">city</text><text fill="#000000" font-family="sans-serif" font-size="14" lengthAdjust="spacing" textLength="41" x="342" y="273.2363">district</text><text fill="#000000" font-family="sans-serif" font-size="14" lengthAdjust="spacing" textLength="31" x="342" y="288.877">state</text><text fill="#000000" font-family="sans-serif" font-size="14" lengthAdjust="spacing" textLength="51" x="342" y="304.5176">zipCode</text></g><!--class PassportCard--><g id="elem_PassportCard"><rect
        fill="#F1F1F1" height="49.2813" id="PassportCard" rx="2.5" ry="2.5" style="stroke:#181818;stroke-width:0.5;" width="116" x="123.5" y="231.1406"/><text fill="#000000" font-family="sans-serif" font-size="14" lengthAdjust="spacing" textLength="87" x="138" y="248.8145">PassportCard</text><line style="stroke:#181818;stroke-width:0.5;" x1="124.5" x2="238.5" y1="256.7813" y2="256.7813"/><text fill="#000000" font-family="sans-serif" font-size="14" lengthAdjust="spacing" textLength="104" x="129.5" y="273.4551">passportNumber</text></g><!--reverse link Person to Role--><g id="link_Person_Role"><path
        d="M89.88,152.1706 C79.97,176.1406 68.94,202.8106 60.61,222.9306 " fill="none" id="Person-backto-Role" style="stroke:#181818;stroke-width:1.0;"/><polygon fill="#181818" points="94.94,139.9306,88.9539,143.9514,90.363,151.0235,96.3491,147.0027,94.94,139.9306" style="stroke:#181818;stroke-width:1.0;"/></g><!--reverse link Person to PassportCard--><g id="link_Person_PassportCard"><path
        d="M139.13,152.1906 C150.42,179.5006 163.17,210.3206 171.7,230.9506 " fill="none" id="Person-backto-PassportCard" style="stroke:#181818;stroke-width:1.0;"/><polygon fill="#181818" points="134.06,139.9306,132.6509,147.0027,138.637,151.0235,140.0461,143.9514,134.06,139.9306" style="stroke:#181818;stroke-width:1.0;"/></g><!--reverse link Person to Address--><g id="link_Person_Address"><path
        d="M199.13,146.8306 C246.1,176.9106 301.75,212.5406 335.83,234.3606 " fill="none" id="Person-backto-Address" style="stroke:#181818;stroke-width:1.0;"/><polygon fill="#181818" points="188.02,139.7106,190.9167,146.3144,198.1265,146.1804,195.2299,139.5767,188.02,139.7106" style="stroke:#181818;stroke-width:1.0;"/></g><!--reverse link Person to Employee--><g id="link_Person_Employee"><path
        d="M222.27,91.6406 C227.31,91.6406 232.35,91.6406 237.39,91.6406 " fill="none" id="Person-backto-Employee" style="stroke:#181818;stroke-width:1.0;"/><polygon fill="none" points="222.2,98.6406,202.2,91.6406,222.2,84.6406,222.2,98.6406" style="stroke:#181818;stroke-width:1.0;"/></g><!--reverse link Employee to Agency--><g id="link_Employee_Agency"><path
        d="M318.69,91.6406 C325.99,91.6406 333.3,91.6406 340.6,91.6406 " fill="none" id="Employee-backto-Agency" style="stroke:#181818;stroke-width:1.0;"/><polygon fill="#181818" points="305.54,91.6406,311.54,95.6406,317.54,91.6406,311.54,87.6406,305.54,91.6406" style="stroke:#181818;stroke-width:1.0;"/></g><!--reverse link Agency to Address--><g id="link_Agency_Address"><path
        d="M405.94,152.5506 C400.14,167.9506 393.93,184.4406 388.23,199.5806 " fill="none" id="Agency-backto-Address" style="stroke:#181818;stroke-width:1.0;"/><polygon fill="#181818" points="410.69,139.9306,404.8358,144.1411,406.4707,151.1644,412.325,146.9539,410.69,139.9306" style="stroke:#181818;stroke-width:1.0;"/></g><!--SRC=[XP31JiCm38RlUOgSaIfDuifb6XmuC2463-0bfhMMn57Y2JhWtGbjMdA271hdj_lP_lE9GeG4NdiER8R47hMaCwgyPYAO4_HuaD6XJcW4Gk_QWZo0vJSAlNu5br4rAUCWvwr8ekDPyDvmED05zKQfWIngGyaKr1Hxb85jLaf8IgDRza11Fx15fryEcysrKXDDFt59VoXT3jdfifXDeYZ4GNqjPO-OCeTQg0Dud2CiNBUrDc7EioBmlZ_x8wRvMOOKCFAC3kF00Mjk1Mzx36PSm7K43PEw_wFDVzmx7nsF-BDRqsmcBDso94IfF99nZYmLdOmiDI1rY0l5NJ6mCQLy8YVPGRAL6QlqEuwgrbrrtMHs-su1hRviMgMRpsxTHwsBNNNLF5KzRFxy1W00]--></g></svg>