<?xml version="1.0" encoding="us-ascii" standalone="no"?><svg xmlns="http://www.w3.org/2000/svg" xmlns:xlink="http://www.w3.org/1999/xlink" contentStyleType="text/css" height="383.2px" preserveAspectRatio="none" style="width:345px;height:383px;background:#FFFFFF;" version="1.1" viewBox="0 0 345 383" width="345.6px" zoomAndPan="magnify"><defs/><g><text fill="#000000" font-family="sans-serif" font-size="11.2" font-weight="bold" lengthAdjust="spacing" textLength="182.4" x="81" y="24.0859">System Sequence Diagram (SSD)</text><rect fill="#FFFFFF" height="196.4953" style="stroke:#181818;stroke-width:0.8000000000000002;" width="8" x="42.8" y="106.5938"/><rect fill="#FFFFFF" height="50.0656" style="stroke:#181818;stroke-width:0.8000000000000002;" width="8" x="311.6" y="125.2266"/><rect fill="#FFFFFF" height="75.0984" style="stroke:#181818;stroke-width:0.8000000000000002;" width="8" x="311.6" y="227.9906"/><line style="stroke:#181818;stroke-width:0.4000000000000001;stroke-dasharray:5.0,5.0;" x1="46.4" x2="46.4" y1="98.5938" y2="317.4891"/><line style="stroke:#181818;stroke-width:0.4000000000000001;stroke-dasharray:5.0,5.0;" x1="315.6" x2="315.6" y1="98.5938" y2="317.4891"/><text fill="#000000" font-family="sans-serif" font-size="11.2" lengthAdjust="spacing" textLength="80.8" x="4" y="95.7828">Unregisted User</text><ellipse cx="46.8" cy="42.4969" fill="#E3E3E3" rx="6.4" ry="6.4" style="stroke:#181818;stroke-width:0.4000000000000001;"/><path d="M46.8,48.8969 L46.8,70.4969 M36.4,55.2969 L57.2,55.2969 M46.8,70.4969 L36.4,82.4969 M46.8,70.4969 L57.2,82.4969 " fill="none" style="stroke:#181818;stroke-width:0.4000000000000001;"/><text fill="#000000" font-family="sans-serif" font-size="11.2" lengthAdjust="spacing" textLength="80.8" x="4" y="328.775">Unregisted User</text><ellipse cx="46.8" cy="338.3859" fill="#E3E3E3" rx="6.4" ry="6.4" style="stroke:#181818;stroke-width:0.4000000000000001;"/><path d="M46.8,344.7859 L46.8,366.3859 M36.4,351.1859 L57.2,351.1859 M46.8,366.3859 L36.4,378.3859 M46.8,366.3859 L57.2,378.3859 " fill="none" style="stroke:#181818;stroke-width:0.4000000000000001;"/><rect fill="#E3E3E3" height="26.0969" rx="2" ry="2" style="stroke:#181818;stroke-width:0.4000000000000001;" width="51.2" x="290" y="71.6969"/><text fill="#000000" font-family="sans-serif" font-size="11.2" lengthAdjust="spacing" textLength="40" x="295.6" y="89.3828">:System</text><rect fill="#E3E3E3" height="26.0969" rx="2" ry="2" style="stroke:#181818;stroke-width:0.4000000000000001;" width="51.2" x="290" y="316.6891"/><text fill="#000000" font-family="sans-serif" font-size="11.2" lengthAdjust="spacing" textLength="40" x="295.6" y="334.375">:System</text><rect fill="#FFFFFF" height="196.4953" style="stroke:#181818;stroke-width:0.8000000000000002;" width="8" x="42.8" y="106.5938"/><rect fill="#FFFFFF" height="50.0656" style="stroke:#181818;stroke-width:0.8000000000000002;" width="8" x="311.6" y="125.2266"/><rect fill="#FFFFFF" height="75.0984" style="stroke:#181818;stroke-width:0.8000000000000002;" width="8" x="311.6" y="227.9906"/><polygon fill="#181818" points="302,122.0266,310,125.2266,302,128.4266,305.2,125.2266" style="stroke:#181818;stroke-width:0.8000000000000002;"/><line style="stroke:#181818;stroke-width:0.8000000000000002;" x1="50.8" x2="306.8" y1="125.2266" y2="125.2266"/><text fill="#000000" font-family="sans-serif" font-size="10.4" font-weight="bold" lengthAdjust="spacing" textLength="5.6" x="56.4" y="121.0164">1</text><text fill="#000000" font-family="sans-serif" font-size="10.4" lengthAdjust="spacing" textLength="103.2" x="65.2" y="121.0164">selects register button</text><polygon fill="#181818" points="59.6,147.0594,51.6,150.2594,59.6,153.4594,56.4,150.2594" style="stroke:#181818;stroke-width:0.8000000000000002;"/><line style="stroke:#181818;stroke-width:0.8000000000000002;stroke-dasharray:2.0,2.0;" x1="54.8" x2="310.8" y1="150.2594" y2="150.2594"/><text fill="#000000" font-family="sans-serif" font-size="10.4" font-weight="bold" lengthAdjust="spacing" textLength="5.6" x="64.4" y="146.0492">2</text><text fill="#000000" font-family="sans-serif" font-size="10.4" lengthAdjust="spacing" textLength="102.4" x="73.2" y="146.0492">shows UserRegisterUI</text><polygon fill="#181818" points="59.6,172.0922,51.6,175.2922,59.6,178.4922,56.4,175.2922" style="stroke:#181818;stroke-width:0.8000000000000002;"/><line style="stroke:#181818;stroke-width:0.8000000000000002;stroke-dasharray:2.0,2.0;" x1="54.8" x2="314.8" y1="175.2922" y2="175.2922"/><text fill="#000000" font-family="sans-serif" font-size="10.4" font-weight="bold" lengthAdjust="spacing" textLength="5.6" x="64.4" y="171.082">3</text><text fill="#000000" font-family="sans-serif" font-size="10.4" lengthAdjust="spacing" textLength="116.8" x="73.2" y="171.082">requests user information</text><polygon fill="#181818" points="302,224.7906,310,227.9906,302,231.1906,305.2,227.9906" style="stroke:#181818;stroke-width:0.8000000000000002;"/><line style="stroke:#181818;stroke-width:0.8000000000000002;" x1="50.8" x2="306.8" y1="227.9906" y2="227.9906"/><text fill="#000000" font-family="sans-serif" font-size="10.4" font-weight="bold" lengthAdjust="spacing" textLength="5.6" x="56.4" y="209.9477">4</text><text fill="#000000" font-family="sans-serif" font-size="10.4" lengthAdjust="spacing" textLength="149.6" x="65.2" y="196.1148">provides their information (name,</text><text fill="#000000" font-family="sans-serif" font-size="10.4" lengthAdjust="spacing" textLength="231.2" x="65.2" y="209.9477">citizen's card number, tax number, email address,</text><text fill="#000000" font-family="sans-serif" font-size="10.4" lengthAdjust="spacing" textLength="212" x="65.2" y="223.7805">contact telephone number, address (optional))</text><polygon fill="#181818" points="59.6,249.8234,51.6,253.0234,59.6,256.2234,56.4,253.0234" style="stroke:#181818;stroke-width:0.8000000000000002;"/><line style="stroke:#181818;stroke-width:0.8000000000000002;stroke-dasharray:2.0,2.0;" x1="54.8" x2="310.8" y1="253.0234" y2="253.0234"/><text fill="#000000" font-family="sans-serif" font-size="10.4" font-weight="bold" lengthAdjust="spacing" textLength="5.6" x="64.4" y="248.8133">5</text><text fill="#000000" font-family="sans-serif" font-size="10.4" lengthAdjust="spacing" textLength="93.6" x="73.2" y="248.8133">registers information</text><polygon fill="#181818" points="59.6,274.8563,51.6,278.0563,59.6,281.2563,56.4,278.0563" style="stroke:#181818;stroke-width:0.8000000000000002;"/><line style="stroke:#181818;stroke-width:0.8000000000000002;stroke-dasharray:2.0,2.0;" x1="54.8" x2="310.8" y1="278.0563" y2="278.0563"/><text fill="#000000" font-family="sans-serif" font-size="10.4" font-weight="bold" lengthAdjust="spacing" textLength="5.6" x="64.4" y="273.8461">6</text><text fill="#000000" font-family="sans-serif" font-size="10.4" lengthAdjust="spacing" textLength="232.8" x="73.2" y="273.8461">shows opperation result (successful/unsuccessful)</text><polygon fill="#181818" points="55.6,299.8891,47.6,303.0891,55.6,306.2891,52.4,303.0891" style="stroke:#181818;stroke-width:0.8000000000000002;"/><line style="stroke:#181818;stroke-width:0.8000000000000002;stroke-dasharray:2.0,2.0;" x1="50.8" x2="314.8" y1="303.0891" y2="303.0891"/><text fill="#000000" font-family="sans-serif" font-size="10.4" font-weight="bold" lengthAdjust="spacing" textLength="5.6" x="60.4" y="298.8789">7</text><text fill="#000000" font-family="sans-serif" font-size="10.4" lengthAdjust="spacing" textLength="108" x="69.2" y="298.8789">returns to DisplayListUI</text><!--SRC=[bL8zJ-D04EtzAqPfI2GGVOghQ90eJcUbendM4tl5UdPlPXO8lvw9xUJWE85kgx7tVSspzJ5oGS4Hnimv39970fDAZPvl2eP7xAcrGo8G2eRSf_S07R3Bpv5xs6DIQXgBvj3se4OZjFIx4WU2cuZz4RvksvjDqs2rp7Ly8F4vM1POxLYeZyxgOASaAq25doIQkN4dYo4MP8FLTfQUxkTnaeXFQ7GYDE1ddk7gnodC5fIIhw2mE0ayLFCW4_oiSHA5vIpiAnTQ95reoCywvVorIErkloJ8iGXrw-eSYBpFCgB5nRkZVxh_lS4MYkIds9623HG_wC2QSQHBkESGBRuINoW4b0xccY_1yEKyquWn0NQTaEh4oMmU0SmBAaDcEaCN4AnpETfWscp-lwvJt_ffywyBpgMGpEjvY9eCrbf3y3pxcguh_tdOVEDlLTXRo_uZQabukFCyooVxNFwxDxF46m00]--></g></svg>