<?xml version="1.0" encoding="us-ascii" standalone="no"?><svg xmlns="http://www.w3.org/2000/svg" xmlns:xlink="http://www.w3.org/1999/xlink" contentStyleType="text/css" height="1206px" preserveAspectRatio="none" style="width:1534px;height:1206px;background:#FFFFFF;" version="1.1" viewBox="0 0 1534 1206" width="1534px" zoomAndPan="magnify"><defs/><g><!--class Employee--><g id="elem_Employee"><rect
        fill="#F1F1F1" height="159.7266" id="Employee" rx="2.5" ry="2.5" style="stroke:#181818;stroke-width:0.5;" width="294" x="656.5" y="534.5"/><ellipse cx="768.25" cy="550.5" fill="#ADD1B2" rx="11" ry="11" style="stroke:#181818;stroke-width:1.0;"/><path d="M771.0156,546.375 Q771.1719,546.1563 771.3594,546.0469 Q771.5469,545.9375 771.7656,545.9375 Q772.1406,545.9375 772.375,546.2031 Q772.6094,546.4531 772.6094,547.0625 L772.6094,548.5156 Q772.6094,549.125 772.375,549.3906 Q772.1406,549.6563 771.7656,549.6563 Q771.4219,549.6563 771.2188,549.4531 Q771.0156,549.2656 770.9063,548.75 Q770.8594,548.3906 770.6719,548.2031 Q770.3438,547.8281 769.7344,547.6094 Q769.125,547.3906 768.5,547.3906 Q767.7344,547.3906 767.0938,547.7188 Q766.4688,548.0469 765.9688,548.7969 Q765.4844,549.5469 765.4844,550.5781 L765.4844,551.6719 Q765.4844,552.9063 766.375,553.7344 Q767.2656,554.5469 768.8594,554.5469 Q769.7969,554.5469 770.4531,554.2969 Q770.8438,554.1406 771.2656,553.7031 Q771.5313,553.4375 771.6719,553.3594 Q771.8281,553.2813 772.0313,553.2813 Q772.3594,553.2813 772.6094,553.5469 Q772.875,553.7969 772.875,554.1406 Q772.875,554.4844 772.5313,554.8906 Q772.0313,555.4688 771.2344,555.7969 Q770.1563,556.25 768.8594,556.25 Q767.3438,556.25 766.1406,555.625 Q765.1563,555.125 764.4688,554.0625 Q763.7813,552.9844 763.7813,551.7031 L763.7813,550.5469 Q763.7813,549.2188 764.3906,548.0781 Q765.0156,546.9219 766.1094,546.3125 Q767.2031,545.6875 768.4375,545.6875 Q769.1719,545.6875 769.8125,545.8594 Q770.4688,546.0156 771.0156,546.375 Z " fill="#000000"/><text fill="#000000" font-family="sans-serif" font-size="14" lengthAdjust="spacing" textLength="62" x="788.75" y="556.2969">Employee</text><line style="stroke:#181818;stroke-width:0.5;" x1="657.5" x2="949.5" y1="566.5" y2="566.5"/><text fill="#000000" font-family="sans-serif" font-size="14" lengthAdjust="spacing" textLength="102" x="662.5" y="585.6074">-Agency agency</text><line style="stroke:#181818;stroke-width:1.0;" x1="657.5" x2="949.5" y1="593.1211" y2="593.1211"/><text fill="#000000" font-family="sans-serif" font-size="14" lengthAdjust="spacing" textLength="282" x="662.5" y="612.2285">+Employee(name, taxNumber, emailAddress,</text><text fill="#000000" font-family="sans-serif" font-size="14" lengthAdjust="spacing" textLength="226" x="662.5" y="630.8496">contactTelephoneNumber, address,</text><text fill="#000000" font-family="sans-serif" font-size="14" lengthAdjust="spacing" textLength="195" x="662.5" y="649.4707">role, passportNumber, agency)</text><text fill="#000000" font-family="sans-serif" font-size="14" lengthAdjust="spacing" textLength="84" x="662.5" y="668.0918">+setAgency()</text><text fill="#000000" font-family="sans-serif" font-size="14" lengthAdjust="spacing" textLength="85" x="662.5" y="686.7129">+getAgency()</text></g><!--class Role--><g id="elem_Role"><rect
        fill="#F1F1F1" height="178.3477" id="Role" rx="2.5" ry="2.5" style="stroke:#181818;stroke-width:0.5;" width="147" x="186" y="857"/><ellipse cx="240.75" cy="873" fill="#ADD1B2" rx="11" ry="11" style="stroke:#181818;stroke-width:1.0;"/><path d="M243.5156,868.875 Q243.6719,868.6563 243.8594,868.5469 Q244.0469,868.4375 244.2656,868.4375 Q244.6406,868.4375 244.875,868.7031 Q245.1094,868.9531 245.1094,869.5625 L245.1094,871.0156 Q245.1094,871.625 244.875,871.8906 Q244.6406,872.1563 244.2656,872.1563 Q243.9219,872.1563 243.7188,871.9531 Q243.5156,871.7656 243.4063,871.25 Q243.3594,870.8906 243.1719,870.7031 Q242.8438,870.3281 242.2344,870.1094 Q241.625,869.8906 241,869.8906 Q240.2344,869.8906 239.5938,870.2188 Q238.9688,870.5469 238.4688,871.2969 Q237.9844,872.0469 237.9844,873.0781 L237.9844,874.1719 Q237.9844,875.4063 238.875,876.2344 Q239.7656,877.0469 241.3594,877.0469 Q242.2969,877.0469 242.9531,876.7969 Q243.3438,876.6406 243.7656,876.2031 Q244.0313,875.9375 244.1719,875.8594 Q244.3281,875.7813 244.5313,875.7813 Q244.8594,875.7813 245.1094,876.0469 Q245.375,876.2969 245.375,876.6406 Q245.375,876.9844 245.0313,877.3906 Q244.5313,877.9688 243.7344,878.2969 Q242.6563,878.75 241.3594,878.75 Q239.8438,878.75 238.6406,878.125 Q237.6563,877.625 236.9688,876.5625 Q236.2813,875.4844 236.2813,874.2031 L236.2813,873.0469 Q236.2813,871.7188 236.8906,870.5781 Q237.5156,869.4219 238.6094,868.8125 Q239.7031,868.1875 240.9375,868.1875 Q241.6719,868.1875 242.3125,868.3594 Q242.9688,868.5156 243.5156,868.875 Z " fill="#000000"/><text fill="#000000" font-family="sans-serif" font-size="14" lengthAdjust="spacing" textLength="29" x="261.25" y="878.7969">Role</text><line style="stroke:#181818;stroke-width:0.5;" x1="187" x2="332" y1="889" y2="889"/><text fill="#000000" font-family="sans-serif" font-size="14" lengthAdjust="spacing" textLength="57" x="192" y="908.1074">-String id</text><text fill="#000000" font-family="sans-serif" font-size="14" lengthAdjust="spacing" textLength="115" x="192" y="926.7285">-String description</text><line style="stroke:#181818;stroke-width:1.0;" x1="187" x2="332" y1="934.2422" y2="934.2422"/><text fill="#000000" font-family="sans-serif" font-size="14" lengthAdjust="spacing" textLength="135" x="192" y="953.3496">+Role(id, description)</text><text fill="#000000" font-family="sans-serif" font-size="14" lengthAdjust="spacing" textLength="40" x="192" y="971.9707">+setID</text><text fill="#000000" font-family="sans-serif" font-size="14" lengthAdjust="spacing" textLength="98" x="192" y="990.5918">+setDescription</text><text fill="#000000" font-family="sans-serif" font-size="14" lengthAdjust="spacing" textLength="41" x="192" y="1009.2129">+getID</text><text fill="#000000" font-family="sans-serif" font-size="14" lengthAdjust="spacing" textLength="99" x="192" y="1027.834">+getDescription</text></g><!--class Address--><g id="elem_Address"><rect
        fill="#F1F1F1" height="364.5586" id="Address" rx="2.5" ry="2.5" style="stroke:#181818;stroke-width:0.5;" width="294" x="321.5" y="7"/><ellipse cx="438.25" cy="23" fill="#ADD1B2" rx="11" ry="11" style="stroke:#181818;stroke-width:1.0;"/><path d="M441.0156,18.875 Q441.1719,18.6563 441.3594,18.5469 Q441.5469,18.4375 441.7656,18.4375 Q442.1406,18.4375 442.375,18.7031 Q442.6094,18.9531 442.6094,19.5625 L442.6094,21.0156 Q442.6094,21.625 442.375,21.8906 Q442.1406,22.1563 441.7656,22.1563 Q441.4219,22.1563 441.2188,21.9531 Q441.0156,21.7656 440.9063,21.25 Q440.8594,20.8906 440.6719,20.7031 Q440.3438,20.3281 439.7344,20.1094 Q439.125,19.8906 438.5,19.8906 Q437.7344,19.8906 437.0938,20.2188 Q436.4688,20.5469 435.9688,21.2969 Q435.4844,22.0469 435.4844,23.0781 L435.4844,24.1719 Q435.4844,25.4063 436.375,26.2344 Q437.2656,27.0469 438.8594,27.0469 Q439.7969,27.0469 440.4531,26.7969 Q440.8438,26.6406 441.2656,26.2031 Q441.5313,25.9375 441.6719,25.8594 Q441.8281,25.7813 442.0313,25.7813 Q442.3594,25.7813 442.6094,26.0469 Q442.875,26.2969 442.875,26.6406 Q442.875,26.9844 442.5313,27.3906 Q442.0313,27.9688 441.2344,28.2969 Q440.1563,28.75 438.8594,28.75 Q437.3438,28.75 436.1406,28.125 Q435.1563,27.625 434.4688,26.5625 Q433.7813,25.4844 433.7813,24.2031 L433.7813,23.0469 Q433.7813,21.7188 434.3906,20.5781 Q435.0156,19.4219 436.1094,18.8125 Q437.2031,18.1875 438.4375,18.1875 Q439.1719,18.1875 439.8125,18.3594 Q440.4688,18.5156 441.0156,18.875 Z " fill="#000000"/><text fill="#000000" font-family="sans-serif" font-size="14" lengthAdjust="spacing" textLength="52" x="458.75" y="28.7969">Address</text><line style="stroke:#181818;stroke-width:0.5;" x1="322.5" x2="614.5" y1="39" y2="39"/><text fill="#000000" font-family="sans-serif" font-size="14" lengthAdjust="spacing" textLength="82" x="327.5" y="58.1074">-String street</text><text fill="#000000" font-family="sans-serif" font-size="14" lengthAdjust="spacing" textLength="67" x="327.5" y="76.7285">-String city</text><text fill="#000000" font-family="sans-serif" font-size="14" lengthAdjust="spacing" textLength="87" x="327.5" y="95.3496">-String district</text><text fill="#000000" font-family="sans-serif" font-size="14" lengthAdjust="spacing" textLength="77" x="327.5" y="113.9707">-String state</text><text fill="#000000" font-family="sans-serif" font-size="14" lengthAdjust="spacing" textLength="97" x="327.5" y="132.5918">-String zipCode</text><line style="stroke:#181818;stroke-width:1.0;" x1="322.5" x2="614.5" y1="140.1055" y2="140.1055"/><text fill="#000000" font-family="sans-serif" font-size="14" lengthAdjust="spacing" textLength="282" x="327.5" y="159.2129">+Address(street, city, district, state, zipCode)</text><text fill="#000000" font-family="sans-serif" font-size="14" lengthAdjust="spacing" textLength="282" x="327.5" y="177.834">+Address(street, city, district, state, zipCode)</text><text fill="#000000" font-family="sans-serif" font-size="14" lengthAdjust="spacing" textLength="75" x="327.5" y="196.4551">+setStreet()</text><text fill="#000000" font-family="sans-serif" font-size="14" lengthAdjust="spacing" textLength="61" x="327.5" y="215.0762">+setCity()</text><text fill="#000000" font-family="sans-serif" font-size="14" lengthAdjust="spacing" textLength="80" x="327.5" y="233.6973">+setDistrict()</text><text fill="#000000" font-family="sans-serif" font-size="14" lengthAdjust="spacing" textLength="70" x="327.5" y="252.3184">+setState()</text><text fill="#000000" font-family="sans-serif" font-size="14" lengthAdjust="spacing" textLength="90" x="327.5" y="270.9395">+setZipCode()</text><text fill="#000000" font-family="sans-serif" font-size="14" lengthAdjust="spacing" textLength="76" x="327.5" y="289.5605">+getStreet()</text><text fill="#000000" font-family="sans-serif" font-size="14" lengthAdjust="spacing" textLength="62" x="327.5" y="308.1816">+getCity()</text><text fill="#000000" font-family="sans-serif" font-size="14" lengthAdjust="spacing" textLength="81" x="327.5" y="326.8027">+getDistrict()</text><text fill="#000000" font-family="sans-serif" font-size="14" lengthAdjust="spacing" textLength="71" x="327.5" y="345.4238">+getState()</text><text fill="#000000" font-family="sans-serif" font-size="14" lengthAdjust="spacing" textLength="91" x="327.5" y="364.0449">+getZipCode()</text></g><!--class PassportCard--><g id="elem_PassportCard"><rect
        fill="#F1F1F1" height="122.4844" id="PassportCard" rx="2.5" ry="2.5" style="stroke:#181818;stroke-width:0.5;" width="221" x="368" y="885"/><ellipse cx="430.75" cy="901" fill="#ADD1B2" rx="11" ry="11" style="stroke:#181818;stroke-width:1.0;"/><path d="M433.5156,896.875 Q433.6719,896.6563 433.8594,896.5469 Q434.0469,896.4375 434.2656,896.4375 Q434.6406,896.4375 434.875,896.7031 Q435.1094,896.9531 435.1094,897.5625 L435.1094,899.0156 Q435.1094,899.625 434.875,899.8906 Q434.6406,900.1563 434.2656,900.1563 Q433.9219,900.1563 433.7188,899.9531 Q433.5156,899.7656 433.4063,899.25 Q433.3594,898.8906 433.1719,898.7031 Q432.8438,898.3281 432.2344,898.1094 Q431.625,897.8906 431,897.8906 Q430.2344,897.8906 429.5938,898.2188 Q428.9688,898.5469 428.4688,899.2969 Q427.9844,900.0469 427.9844,901.0781 L427.9844,902.1719 Q427.9844,903.4063 428.875,904.2344 Q429.7656,905.0469 431.3594,905.0469 Q432.2969,905.0469 432.9531,904.7969 Q433.3438,904.6406 433.7656,904.2031 Q434.0313,903.9375 434.1719,903.8594 Q434.3281,903.7813 434.5313,903.7813 Q434.8594,903.7813 435.1094,904.0469 Q435.375,904.2969 435.375,904.6406 Q435.375,904.9844 435.0313,905.3906 Q434.5313,905.9688 433.7344,906.2969 Q432.6563,906.75 431.3594,906.75 Q429.8438,906.75 428.6406,906.125 Q427.6563,905.625 426.9688,904.5625 Q426.2813,903.4844 426.2813,902.2031 L426.2813,901.0469 Q426.2813,899.7188 426.8906,898.5781 Q427.5156,897.4219 428.6094,896.8125 Q429.7031,896.1875 430.9375,896.1875 Q431.6719,896.1875 432.3125,896.3594 Q432.9688,896.5156 433.5156,896.875 Z " fill="#000000"/><text fill="#000000" font-family="sans-serif" font-size="14" lengthAdjust="spacing" textLength="87" x="451.25" y="906.7969">PassportCard</text><line style="stroke:#181818;stroke-width:0.5;" x1="369" x2="588" y1="917" y2="917"/><text fill="#000000" font-family="sans-serif" font-size="14" lengthAdjust="spacing" textLength="150" x="374" y="936.1074">-String passportNumber</text><line style="stroke:#181818;stroke-width:1.0;" x1="369" x2="588" y1="943.6211" y2="943.6211"/><text fill="#000000" font-family="sans-serif" font-size="14" lengthAdjust="spacing" textLength="209" x="374" y="962.7285">+PassportCard(passportNumber)</text><text fill="#000000" font-family="sans-serif" font-size="14" lengthAdjust="spacing" textLength="143" x="374" y="981.3496">+getPassportNumber()</text><text fill="#000000" font-family="sans-serif" font-size="14" lengthAdjust="spacing" textLength="142" x="374" y="999.9707">+setPassportNumber()</text></g><!--class Person--><g id="elem_Person"><rect
        fill="#F1F1F1" height="327.3164" id="Person" rx="2.5" ry="2.5" style="stroke:#181818;stroke-width:0.5;" width="306" x="315.5" y="451"/><ellipse cx="441.75" cy="467" fill="#ADD1B2" rx="11" ry="11" style="stroke:#181818;stroke-width:1.0;"/><path d="M444.5156,462.875 Q444.6719,462.6563 444.8594,462.5469 Q445.0469,462.4375 445.2656,462.4375 Q445.6406,462.4375 445.875,462.7031 Q446.1094,462.9531 446.1094,463.5625 L446.1094,465.0156 Q446.1094,465.625 445.875,465.8906 Q445.6406,466.1563 445.2656,466.1563 Q444.9219,466.1563 444.7188,465.9531 Q444.5156,465.7656 444.4063,465.25 Q444.3594,464.8906 444.1719,464.7031 Q443.8438,464.3281 443.2344,464.1094 Q442.625,463.8906 442,463.8906 Q441.2344,463.8906 440.5938,464.2188 Q439.9688,464.5469 439.4688,465.2969 Q438.9844,466.0469 438.9844,467.0781 L438.9844,468.1719 Q438.9844,469.4063 439.875,470.2344 Q440.7656,471.0469 442.3594,471.0469 Q443.2969,471.0469 443.9531,470.7969 Q444.3438,470.6406 444.7656,470.2031 Q445.0313,469.9375 445.1719,469.8594 Q445.3281,469.7813 445.5313,469.7813 Q445.8594,469.7813 446.1094,470.0469 Q446.375,470.2969 446.375,470.6406 Q446.375,470.9844 446.0313,471.3906 Q445.5313,471.9688 444.7344,472.2969 Q443.6563,472.75 442.3594,472.75 Q440.8438,472.75 439.6406,472.125 Q438.6563,471.625 437.9688,470.5625 Q437.2813,469.4844 437.2813,468.2031 L437.2813,467.0469 Q437.2813,465.7188 437.8906,464.5781 Q438.5156,463.4219 439.6094,462.8125 Q440.7031,462.1875 441.9375,462.1875 Q442.6719,462.1875 443.3125,462.3594 Q443.9688,462.5156 444.5156,462.875 Z " fill="#000000"/><text fill="#000000" font-family="sans-serif" font-size="14" lengthAdjust="spacing" textLength="45" x="462.25" y="472.7969">Person</text><line style="stroke:#181818;stroke-width:0.5;" x1="316.5" x2="620.5" y1="483" y2="483"/><text fill="#000000" font-family="sans-serif" font-size="14" lengthAdjust="spacing" textLength="81" x="321.5" y="502.1074">-String name</text><text fill="#000000" font-family="sans-serif" font-size="14" lengthAdjust="spacing" textLength="131" x="321.5" y="520.7285">-String emailAddress</text><text fill="#000000" font-family="sans-serif" font-size="14" lengthAdjust="spacing" textLength="120" x="321.5" y="539.3496">-Integer taxNumber</text><text fill="#000000" font-family="sans-serif" font-size="14" lengthAdjust="spacing" textLength="165" x="321.5" y="557.9707">-Integer telephoneNumber</text><line style="stroke:#181818;stroke-width:1.0;" x1="316.5" x2="620.5" y1="565.4844" y2="565.4844"/><text fill="#000000" font-family="sans-serif" font-size="14" lengthAdjust="spacing" textLength="294" x="321.5" y="584.5918">+Person(name, passportNumber, emailAdress,</text><text fill="#000000" font-family="sans-serif" font-size="14" lengthAdjust="spacing" textLength="293" x="321.5" y="603.2129">taxNumber, contactTelephoneNumber, adress,</text><text fill="#000000" font-family="sans-serif" font-size="14" lengthAdjust="spacing" textLength="83" x="321.5" y="621.834">role, agency)</text><text fill="#000000" font-family="sans-serif" font-size="14" lengthAdjust="spacing" textLength="73" x="321.5" y="640.4551">+setName()</text><text fill="#000000" font-family="sans-serif" font-size="14" lengthAdjust="spacing" textLength="123" x="321.5" y="659.0762">+setEmailAddress()</text><text fill="#000000" font-family="sans-serif" font-size="14" lengthAdjust="spacing" textLength="109" x="321.5" y="677.6973">+setTaxNumber()</text><text fill="#000000" font-family="sans-serif" font-size="14" lengthAdjust="spacing" textLength="154" x="321.5" y="696.3184">+setTelephoneNumber()</text><text fill="#000000" font-family="sans-serif" font-size="14" lengthAdjust="spacing" textLength="74" x="321.5" y="714.9395">+getName()</text><text fill="#000000" font-family="sans-serif" font-size="14" lengthAdjust="spacing" textLength="124" x="321.5" y="733.5605">+getEmailAddress()</text><text fill="#000000" font-family="sans-serif" font-size="14" lengthAdjust="spacing" textLength="110" x="321.5" y="752.1816">+getTaxNumber()</text><text fill="#000000" font-family="sans-serif" font-size="14" lengthAdjust="spacing" textLength="155" x="321.5" y="770.8027">+getTelephoneNumber()</text></g><!--class Repositories--><g id="elem_Repositories"><rect
        fill="#F1F1F1" height="141.1055" id="Repositories" rx="2.5" ry="2.5" style="stroke:#181818;stroke-width:0.5;" width="220" x="999.5" y="875.5"/><ellipse cx="1065.75" cy="891.5" fill="#ADD1B2" rx="11" ry="11" style="stroke:#181818;stroke-width:1.0;"/><path d="M1068.5156,887.375 Q1068.6719,887.1563 1068.8594,887.0469 Q1069.0469,886.9375 1069.2656,886.9375 Q1069.6406,886.9375 1069.875,887.2031 Q1070.1094,887.4531 1070.1094,888.0625 L1070.1094,889.5156 Q1070.1094,890.125 1069.875,890.3906 Q1069.6406,890.6563 1069.2656,890.6563 Q1068.9219,890.6563 1068.7188,890.4531 Q1068.5156,890.2656 1068.4063,889.75 Q1068.3594,889.3906 1068.1719,889.2031 Q1067.8438,888.8281 1067.2344,888.6094 Q1066.625,888.3906 1066,888.3906 Q1065.2344,888.3906 1064.5938,888.7188 Q1063.9688,889.0469 1063.4688,889.7969 Q1062.9844,890.5469 1062.9844,891.5781 L1062.9844,892.6719 Q1062.9844,893.9063 1063.875,894.7344 Q1064.7656,895.5469 1066.3594,895.5469 Q1067.2969,895.5469 1067.9531,895.2969 Q1068.3438,895.1406 1068.7656,894.7031 Q1069.0313,894.4375 1069.1719,894.3594 Q1069.3281,894.2813 1069.5313,894.2813 Q1069.8594,894.2813 1070.1094,894.5469 Q1070.375,894.7969 1070.375,895.1406 Q1070.375,895.4844 1070.0313,895.8906 Q1069.5313,896.4688 1068.7344,896.7969 Q1067.6563,897.25 1066.3594,897.25 Q1064.8438,897.25 1063.6406,896.625 Q1062.6563,896.125 1061.9688,895.0625 Q1061.2813,893.9844 1061.2813,892.7031 L1061.2813,891.5469 Q1061.2813,890.2188 1061.8906,889.0781 Q1062.5156,887.9219 1063.6094,887.3125 Q1064.7031,886.6875 1065.9375,886.6875 Q1066.6719,886.6875 1067.3125,886.8594 Q1067.9688,887.0156 1068.5156,887.375 Z " fill="#000000"/><text fill="#000000" font-family="sans-serif" font-size="14" lengthAdjust="spacing" textLength="79" x="1086.25" y="897.2969">Repositories</text><line style="stroke:#181818;stroke-width:0.5;" x1="1000.5" x2="1218.5" y1="907.5" y2="907.5"/><text fill="#000000" font-family="sans-serif" font-size="14" lengthAdjust="spacing" textLength="94" x="1005.5" y="926.6074">-Repositories()</text><line style="stroke:#181818;stroke-width:1.0;" x1="1000.5" x2="1218.5" y1="934.1211" y2="934.1211"/><text fill="#000000" font-family="sans-serif" font-size="14" lengthAdjust="spacing" textLength="182" x="1005.5" y="953.2285">+getInstance() : Repositories</text><text fill="#000000" font-family="sans-serif" font-size="14" lengthAdjust="spacing" textLength="182" x="1005.5" y="971.8496">+getLegacyFilesRepository()</text><text fill="#000000" font-family="sans-serif" font-size="14" lengthAdjust="spacing" textLength="147" x="1005.5" y="990.4707">+getOwnerRepository()</text><text fill="#000000" font-family="sans-serif" font-size="14" lengthAdjust="spacing" textLength="208" x="1005.5" y="1009.0918">+getAnnouncementsRepository()</text></g><!--class OwnerRepository--><g id="elem_OwnerRepository"><rect
        fill="#F1F1F1" height="85.2422" id="OwnerRepository" rx="2.5" ry="2.5" style="stroke:#181818;stroke-width:0.5;" width="145" x="1255" y="903.5"/><ellipse cx="1271.8" cy="919.5" fill="#ADD1B2" rx="11" ry="11" style="stroke:#181818;stroke-width:1.0;"/><path d="M1274.5656,915.375 Q1274.7219,915.1563 1274.9094,915.0469 Q1275.0969,914.9375 1275.3156,914.9375 Q1275.6906,914.9375 1275.925,915.2031 Q1276.1594,915.4531 1276.1594,916.0625 L1276.1594,917.5156 Q1276.1594,918.125 1275.925,918.3906 Q1275.6906,918.6563 1275.3156,918.6563 Q1274.9719,918.6563 1274.7688,918.4531 Q1274.5656,918.2656 1274.4563,917.75 Q1274.4094,917.3906 1274.2219,917.2031 Q1273.8938,916.8281 1273.2844,916.6094 Q1272.675,916.3906 1272.05,916.3906 Q1271.2844,916.3906 1270.6438,916.7188 Q1270.0188,917.0469 1269.5188,917.7969 Q1269.0344,918.5469 1269.0344,919.5781 L1269.0344,920.6719 Q1269.0344,921.9063 1269.925,922.7344 Q1270.8156,923.5469 1272.4094,923.5469 Q1273.3469,923.5469 1274.0031,923.2969 Q1274.3938,923.1406 1274.8156,922.7031 Q1275.0813,922.4375 1275.2219,922.3594 Q1275.3781,922.2813 1275.5813,922.2813 Q1275.9094,922.2813 1276.1594,922.5469 Q1276.425,922.7969 1276.425,923.1406 Q1276.425,923.4844 1276.0813,923.8906 Q1275.5813,924.4688 1274.7844,924.7969 Q1273.7063,925.25 1272.4094,925.25 Q1270.8938,925.25 1269.6906,924.625 Q1268.7063,924.125 1268.0188,923.0625 Q1267.3313,921.9844 1267.3313,920.7031 L1267.3313,919.5469 Q1267.3313,918.2188 1267.9406,917.0781 Q1268.5656,915.9219 1269.6594,915.3125 Q1270.7531,914.6875 1271.9875,914.6875 Q1272.7219,914.6875 1273.3625,914.8594 Q1274.0188,915.0156 1274.5656,915.375 Z " fill="#000000"/><text fill="#000000" font-family="sans-serif" font-size="14" lengthAdjust="spacing" textLength="109" x="1286.2" y="925.2969">OwnerRepository</text><line style="stroke:#181818;stroke-width:0.5;" x1="1256" x2="1399" y1="935.5" y2="935.5"/><text fill="#000000" font-family="sans-serif" font-size="14" lengthAdjust="spacing" textLength="133" x="1261" y="954.6074">-List&lt;Owner&gt; owners</text><line style="stroke:#181818;stroke-width:0.5;" x1="1256" x2="1399" y1="962.1211" y2="962.1211"/><text fill="#000000" font-family="sans-serif" font-size="14" lengthAdjust="spacing" textLength="121" x="1261" y="981.2285">+addOwner(owner)</text></g><!--class PurchaseOrderRepository--><g id="elem_PurchaseOrderRepository"><rect
        fill="#F1F1F1" height="122.4844" id="PurchaseOrderRepository" rx="2.5" ry="2.5" style="stroke:#181818;stroke-width:0.5;" width="331" x="633" y="885"/><ellipse cx="711.75" cy="901" fill="#ADD1B2" rx="11" ry="11" style="stroke:#181818;stroke-width:1.0;"/><path d="M714.5156,896.875 Q714.6719,896.6563 714.8594,896.5469 Q715.0469,896.4375 715.2656,896.4375 Q715.6406,896.4375 715.875,896.7031 Q716.1094,896.9531 716.1094,897.5625 L716.1094,899.0156 Q716.1094,899.625 715.875,899.8906 Q715.6406,900.1563 715.2656,900.1563 Q714.9219,900.1563 714.7188,899.9531 Q714.5156,899.7656 714.4063,899.25 Q714.3594,898.8906 714.1719,898.7031 Q713.8438,898.3281 713.2344,898.1094 Q712.625,897.8906 712,897.8906 Q711.2344,897.8906 710.5938,898.2188 Q709.9688,898.5469 709.4688,899.2969 Q708.9844,900.0469 708.9844,901.0781 L708.9844,902.1719 Q708.9844,903.4063 709.875,904.2344 Q710.7656,905.0469 712.3594,905.0469 Q713.2969,905.0469 713.9531,904.7969 Q714.3438,904.6406 714.7656,904.2031 Q715.0313,903.9375 715.1719,903.8594 Q715.3281,903.7813 715.5313,903.7813 Q715.8594,903.7813 716.1094,904.0469 Q716.375,904.2969 716.375,904.6406 Q716.375,904.9844 716.0313,905.3906 Q715.5313,905.9688 714.7344,906.2969 Q713.6563,906.75 712.3594,906.75 Q710.8438,906.75 709.6406,906.125 Q708.6563,905.625 707.9688,904.5625 Q707.2813,903.4844 707.2813,902.2031 L707.2813,901.0469 Q707.2813,899.7188 707.8906,898.5781 Q708.5156,897.4219 709.6094,896.8125 Q710.7031,896.1875 711.9375,896.1875 Q712.6719,896.1875 713.3125,896.3594 Q713.9688,896.5156 714.5156,896.875 Z " fill="#000000"/><text fill="#000000" font-family="sans-serif" font-size="14" lengthAdjust="spacing" textLength="165" x="732.25" y="906.7969">PurchaseOrderRepository</text><line style="stroke:#181818;stroke-width:0.5;" x1="634" x2="963" y1="917" y2="917"/><text fill="#000000" font-family="sans-serif" font-size="14" lengthAdjust="spacing" textLength="250" x="639" y="936.1074">+List&lt;PurchaseOrder&gt; purchaseOrders</text><text fill="#000000" font-family="sans-serif" font-size="14" lengthAdjust="spacing" textLength="309" x="639" y="954.7285">+List&lt;PurchaseOrder&gt; purchaseOrdersAccepted</text><text fill="#000000" font-family="sans-serif" font-size="14" lengthAdjust="spacing" textLength="319" x="639" y="973.3496">+List&lt;PurchaseOrder&gt; purchaseOrdersRequested</text><line style="stroke:#181818;stroke-width:1.0;" x1="634" x2="963" y1="980.8633" y2="980.8633"/><text fill="#000000" font-family="sans-serif" font-size="14" lengthAdjust="spacing" textLength="235" x="639" y="999.9707">+addPurchaseOrder(purchaseOrder)</text></g><!--class ImportLegacyFile--><g id="elem_ImportLegacyFile"><rect
        fill="#F1F1F1" height="196.9688" id="ImportLegacyFile" rx="2.5" ry="2.5" style="stroke:#181818;stroke-width:0.5;" width="259" x="1268" y="516"/><ellipse cx="1339.25" cy="532" fill="#ADD1B2" rx="11" ry="11" style="stroke:#181818;stroke-width:1.0;"/><path d="M1342.0156,527.875 Q1342.1719,527.6563 1342.3594,527.5469 Q1342.5469,527.4375 1342.7656,527.4375 Q1343.1406,527.4375 1343.375,527.7031 Q1343.6094,527.9531 1343.6094,528.5625 L1343.6094,530.0156 Q1343.6094,530.625 1343.375,530.8906 Q1343.1406,531.1563 1342.7656,531.1563 Q1342.4219,531.1563 1342.2188,530.9531 Q1342.0156,530.7656 1341.9063,530.25 Q1341.8594,529.8906 1341.6719,529.7031 Q1341.3438,529.3281 1340.7344,529.1094 Q1340.125,528.8906 1339.5,528.8906 Q1338.7344,528.8906 1338.0938,529.2188 Q1337.4688,529.5469 1336.9688,530.2969 Q1336.4844,531.0469 1336.4844,532.0781 L1336.4844,533.1719 Q1336.4844,534.4063 1337.375,535.2344 Q1338.2656,536.0469 1339.8594,536.0469 Q1340.7969,536.0469 1341.4531,535.7969 Q1341.8438,535.6406 1342.2656,535.2031 Q1342.5313,534.9375 1342.6719,534.8594 Q1342.8281,534.7813 1343.0313,534.7813 Q1343.3594,534.7813 1343.6094,535.0469 Q1343.875,535.2969 1343.875,535.6406 Q1343.875,535.9844 1343.5313,536.3906 Q1343.0313,536.9688 1342.2344,537.2969 Q1341.1563,537.75 1339.8594,537.75 Q1338.3438,537.75 1337.1406,537.125 Q1336.1563,536.625 1335.4688,535.5625 Q1334.7813,534.4844 1334.7813,533.2031 L1334.7813,532.0469 Q1334.7813,530.7188 1335.3906,529.5781 Q1336.0156,528.4219 1337.1094,527.8125 Q1338.2031,527.1875 1339.4375,527.1875 Q1340.1719,527.1875 1340.8125,527.3594 Q1341.4688,527.5156 1342.0156,527.875 Z " fill="#000000"/><text fill="#000000" font-family="sans-serif" font-size="14" lengthAdjust="spacing" textLength="108" x="1359.75" y="537.7969">ImportLegacyFile</text><line style="stroke:#181818;stroke-width:0.5;" x1="1269" x2="1526" y1="548" y2="548"/><text fill="#000000" font-family="sans-serif" font-size="14" lengthAdjust="spacing" textLength="182" x="1274" y="567.1074">-List&lt;String&gt; propertyInfoList</text><line style="stroke:#181818;stroke-width:1.0;" x1="1269" x2="1526" y1="574.6211" y2="574.6211"/><text fill="#000000" font-family="sans-serif" font-size="14" lengthAdjust="spacing" textLength="214" x="1274" y="593.7285">+importLegacyFile(String filePath)</text><text fill="#000000" font-family="sans-serif" font-size="14" lengthAdjust="spacing" textLength="207" x="1274" y="612.3496">+readLegacyFile(File legacyFile)</text><text fill="#000000" font-family="sans-serif" font-size="14" lengthAdjust="spacing" textLength="241" x="1274" y="630.9707">+getPropertyType(String propertyInfo)</text><text fill="#000000" font-family="sans-serif" font-size="14" lengthAdjust="spacing" textLength="247" x="1274" y="649.5918">+fillPropertyInfoList(String propertyInfo)</text><text fill="#000000" font-family="sans-serif" font-size="14" lengthAdjust="spacing" textLength="212" x="1274" y="668.2129">+readLandInputFromLegacyFile()</text><text fill="#000000" font-family="sans-serif" font-size="14" lengthAdjust="spacing" textLength="220" x="1274" y="686.834">+readHouseInputFromLegacyFile()</text><text fill="#000000" font-family="sans-serif" font-size="14" lengthAdjust="spacing" textLength="245" x="1274" y="705.4551">+readApartmentInputFromLegacyFile()</text></g><!--class ImportLegacyFileController--><g id="elem_ImportLegacyFileController"><rect
        fill="#F1F1F1" height="159.7266" id="ImportLegacyFileController" rx="2.5" ry="2.5" style="stroke:#181818;stroke-width:0.5;" width="247" x="986" y="534.5"/><ellipse cx="1021.25" cy="550.5" fill="#ADD1B2" rx="11" ry="11" style="stroke:#181818;stroke-width:1.0;"/><path d="M1024.0156,546.375 Q1024.1719,546.1563 1024.3594,546.0469 Q1024.5469,545.9375 1024.7656,545.9375 Q1025.1406,545.9375 1025.375,546.2031 Q1025.6094,546.4531 1025.6094,547.0625 L1025.6094,548.5156 Q1025.6094,549.125 1025.375,549.3906 Q1025.1406,549.6563 1024.7656,549.6563 Q1024.4219,549.6563 1024.2188,549.4531 Q1024.0156,549.2656 1023.9063,548.75 Q1023.8594,548.3906 1023.6719,548.2031 Q1023.3438,547.8281 1022.7344,547.6094 Q1022.125,547.3906 1021.5,547.3906 Q1020.7344,547.3906 1020.0938,547.7188 Q1019.4688,548.0469 1018.9688,548.7969 Q1018.4844,549.5469 1018.4844,550.5781 L1018.4844,551.6719 Q1018.4844,552.9063 1019.375,553.7344 Q1020.2656,554.5469 1021.8594,554.5469 Q1022.7969,554.5469 1023.4531,554.2969 Q1023.8438,554.1406 1024.2656,553.7031 Q1024.5313,553.4375 1024.6719,553.3594 Q1024.8281,553.2813 1025.0313,553.2813 Q1025.3594,553.2813 1025.6094,553.5469 Q1025.875,553.7969 1025.875,554.1406 Q1025.875,554.4844 1025.5313,554.8906 Q1025.0313,555.4688 1024.2344,555.7969 Q1023.1563,556.25 1021.8594,556.25 Q1020.3438,556.25 1019.1406,555.625 Q1018.1563,555.125 1017.4688,554.0625 Q1016.7813,552.9844 1016.7813,551.7031 L1016.7813,550.5469 Q1016.7813,549.2188 1017.3906,548.0781 Q1018.0156,546.9219 1019.1094,546.3125 Q1020.2031,545.6875 1021.4375,545.6875 Q1022.1719,545.6875 1022.8125,545.8594 Q1023.4688,546.0156 1024.0156,546.375 Z " fill="#000000"/><text fill="#000000" font-family="sans-serif" font-size="14" lengthAdjust="spacing" textLength="170" x="1039.75" y="556.2969">ImportLegacyFileController</text><line style="stroke:#181818;stroke-width:0.5;" x1="987" x2="1232" y1="566.5" y2="566.5"/><line style="stroke:#181818;stroke-width:0.5;" x1="987" x2="1232" y1="574.5" y2="574.5"/><text fill="#000000" font-family="sans-serif" font-size="14" lengthAdjust="spacing" textLength="165" x="992" y="593.6074">+sendFilePath(legacyFile)</text><text fill="#000000" font-family="sans-serif" font-size="14" lengthAdjust="spacing" textLength="235" x="992" y="612.2285">+addPurchaseOrder(purchaseOrder)</text><text fill="#000000" font-family="sans-serif" font-size="14" lengthAdjust="spacing" textLength="101" x="992" y="630.8496">+addLand(land)</text><text fill="#000000" font-family="sans-serif" font-size="14" lengthAdjust="spacing" textLength="121" x="992" y="649.4707">+addHouse(house)</text><text fill="#000000" font-family="sans-serif" font-size="14" lengthAdjust="spacing" textLength="171" x="992" y="668.0918">+addApartment(apartment)</text><text fill="#000000" font-family="sans-serif" font-size="14" lengthAdjust="spacing" textLength="121" x="992" y="686.7129">+addOwner(owner)</text></g><!--class ImportLegacyFileUI--><g id="elem_ImportLegacyFileUI"><rect
        fill="#F1F1F1" height="66.6211" id="ImportLegacyFileUI" rx="2.5" ry="2.5" style="stroke:#181818;stroke-width:0.5;" width="152" x="1033.5" y="156"/><ellipse cx="1048.5" cy="172" fill="#ADD1B2" rx="11" ry="11" style="stroke:#181818;stroke-width:1.0;"/><path d="M1051.2656,167.875 Q1051.4219,167.6563 1051.6094,167.5469 Q1051.7969,167.4375 1052.0156,167.4375 Q1052.3906,167.4375 1052.625,167.7031 Q1052.8594,167.9531 1052.8594,168.5625 L1052.8594,170.0156 Q1052.8594,170.625 1052.625,170.8906 Q1052.3906,171.1563 1052.0156,171.1563 Q1051.6719,171.1563 1051.4688,170.9531 Q1051.2656,170.7656 1051.1563,170.25 Q1051.1094,169.8906 1050.9219,169.7031 Q1050.5938,169.3281 1049.9844,169.1094 Q1049.375,168.8906 1048.75,168.8906 Q1047.9844,168.8906 1047.3438,169.2188 Q1046.7188,169.5469 1046.2188,170.2969 Q1045.7344,171.0469 1045.7344,172.0781 L1045.7344,173.1719 Q1045.7344,174.4063 1046.625,175.2344 Q1047.5156,176.0469 1049.1094,176.0469 Q1050.0469,176.0469 1050.7031,175.7969 Q1051.0938,175.6406 1051.5156,175.2031 Q1051.7813,174.9375 1051.9219,174.8594 Q1052.0781,174.7813 1052.2813,174.7813 Q1052.6094,174.7813 1052.8594,175.0469 Q1053.125,175.2969 1053.125,175.6406 Q1053.125,175.9844 1052.7813,176.3906 Q1052.2813,176.9688 1051.4844,177.2969 Q1050.4063,177.75 1049.1094,177.75 Q1047.5938,177.75 1046.3906,177.125 Q1045.4063,176.625 1044.7188,175.5625 Q1044.0313,174.4844 1044.0313,173.2031 L1044.0313,172.0469 Q1044.0313,170.7188 1044.6406,169.5781 Q1045.2656,168.4219 1046.3594,167.8125 Q1047.4531,167.1875 1048.6875,167.1875 Q1049.4219,167.1875 1050.0625,167.3594 Q1050.7188,167.5156 1051.2656,167.875 Z " fill="#000000"/><text fill="#000000" font-family="sans-serif" font-size="14" lengthAdjust="spacing" textLength="120" x="1062.5" y="177.7969">ImportLegacyFileUI</text><line style="stroke:#181818;stroke-width:0.5;" x1="1034.5" x2="1184.5" y1="188" y2="188"/><line style="stroke:#181818;stroke-width:1.0;" x1="1034.5" x2="1184.5" y1="196" y2="196"/><text fill="#000000" font-family="sans-serif" font-size="14" lengthAdjust="spacing" textLength="125" x="1039.5" y="215.1074">+requestsFilePath()</text></g><!--class Owner--><g id="elem_Owner"><rect
        fill="#F1F1F1" height="122.4844" id="Owner" rx="2.5" ry="2.5" style="stroke:#181818;stroke-width:0.5;" width="273" x="7" y="553.5"/><ellipse cx="118.75" cy="569.5" fill="#ADD1B2" rx="11" ry="11" style="stroke:#181818;stroke-width:1.0;"/><path d="M121.5156,565.375 Q121.6719,565.1563 121.8594,565.0469 Q122.0469,564.9375 122.2656,564.9375 Q122.6406,564.9375 122.875,565.2031 Q123.1094,565.4531 123.1094,566.0625 L123.1094,567.5156 Q123.1094,568.125 122.875,568.3906 Q122.6406,568.6563 122.2656,568.6563 Q121.9219,568.6563 121.7188,568.4531 Q121.5156,568.2656 121.4063,567.75 Q121.3594,567.3906 121.1719,567.2031 Q120.8438,566.8281 120.2344,566.6094 Q119.625,566.3906 119,566.3906 Q118.2344,566.3906 117.5938,566.7188 Q116.9688,567.0469 116.4688,567.7969 Q115.9844,568.5469 115.9844,569.5781 L115.9844,570.6719 Q115.9844,571.9063 116.875,572.7344 Q117.7656,573.5469 119.3594,573.5469 Q120.2969,573.5469 120.9531,573.2969 Q121.3438,573.1406 121.7656,572.7031 Q122.0313,572.4375 122.1719,572.3594 Q122.3281,572.2813 122.5313,572.2813 Q122.8594,572.2813 123.1094,572.5469 Q123.375,572.7969 123.375,573.1406 Q123.375,573.4844 123.0313,573.8906 Q122.5313,574.4688 121.7344,574.7969 Q120.6563,575.25 119.3594,575.25 Q117.8438,575.25 116.6406,574.625 Q115.6563,574.125 114.9688,573.0625 Q114.2813,571.9844 114.2813,570.7031 L114.2813,569.5469 Q114.2813,568.2188 114.8906,567.0781 Q115.5156,565.9219 116.6094,565.3125 Q117.7031,564.6875 118.9375,564.6875 Q119.6719,564.6875 120.3125,564.8594 Q120.9688,565.0156 121.5156,565.375 Z " fill="#000000"/><text fill="#000000" font-family="sans-serif" font-size="14" lengthAdjust="spacing" textLength="41" x="139.25" y="575.2969">Owner</text><line style="stroke:#181818;stroke-width:0.5;" x1="8" x2="279" y1="585.5" y2="585.5"/><text fill="#000000" font-family="sans-serif" font-size="14" lengthAdjust="spacing" textLength="104" x="13" y="604.6074">-Integer ownerID</text><text fill="#000000" font-family="sans-serif" font-size="14" lengthAdjust="spacing" textLength="80" x="13" y="623.2285">-Integer cont</text><line style="stroke:#181818;stroke-width:1.0;" x1="8" x2="279" y1="630.7422" y2="630.7422"/><text fill="#000000" font-family="sans-serif" font-size="14" lengthAdjust="spacing" textLength="261" x="13" y="649.8496">+Owner(name, taxNumber, emailAddress,</text><text fill="#000000" font-family="sans-serif" font-size="14" lengthAdjust="spacing" textLength="243" x="13" y="668.4707">telephoneNumber, role, passportCard)</text></g><!--class PropertyRepository--><g id="elem_PropertyRepository"><rect
        fill="#F1F1F1" height="103.8633" id="PropertyRepository" rx="2.5" ry="2.5" style="stroke:#181818;stroke-width:0.5;" width="186" x="1016.5" y="1096"/><ellipse cx="1045.9" cy="1112" fill="#ADD1B2" rx="11" ry="11" style="stroke:#181818;stroke-width:1.0;"/><path d="M1048.6656,1107.875 Q1048.8219,1107.6563 1049.0094,1107.5469 Q1049.1969,1107.4375 1049.4156,1107.4375 Q1049.7906,1107.4375 1050.025,1107.7031 Q1050.2594,1107.9531 1050.2594,1108.5625 L1050.2594,1110.0156 Q1050.2594,1110.625 1050.025,1110.8906 Q1049.7906,1111.1563 1049.4156,1111.1563 Q1049.0719,1111.1563 1048.8688,1110.9531 Q1048.6656,1110.7656 1048.5563,1110.25 Q1048.5094,1109.8906 1048.3219,1109.7031 Q1047.9938,1109.3281 1047.3844,1109.1094 Q1046.775,1108.8906 1046.15,1108.8906 Q1045.3844,1108.8906 1044.7438,1109.2188 Q1044.1188,1109.5469 1043.6188,1110.2969 Q1043.1344,1111.0469 1043.1344,1112.0781 L1043.1344,1113.1719 Q1043.1344,1114.4063 1044.025,1115.2344 Q1044.9156,1116.0469 1046.5094,1116.0469 Q1047.4469,1116.0469 1048.1031,1115.7969 Q1048.4938,1115.6406 1048.9156,1115.2031 Q1049.1813,1114.9375 1049.3219,1114.8594 Q1049.4781,1114.7813 1049.6813,1114.7813 Q1050.0094,1114.7813 1050.2594,1115.0469 Q1050.525,1115.2969 1050.525,1115.6406 Q1050.525,1115.9844 1050.1813,1116.3906 Q1049.6813,1116.9688 1048.8844,1117.2969 Q1047.8063,1117.75 1046.5094,1117.75 Q1044.9938,1117.75 1043.7906,1117.125 Q1042.8063,1116.625 1042.1188,1115.5625 Q1041.4313,1114.4844 1041.4313,1113.2031 L1041.4313,1112.0469 Q1041.4313,1110.7188 1042.0406,1109.5781 Q1042.6656,1108.4219 1043.7594,1107.8125 Q1044.8531,1107.1875 1046.0875,1107.1875 Q1046.8219,1107.1875 1047.4625,1107.3594 Q1048.1188,1107.5156 1048.6656,1107.875 Z " fill="#000000"/><text fill="#000000" font-family="sans-serif" font-size="14" lengthAdjust="spacing" textLength="122" x="1063.1" y="1117.7969">PropertyRepository</text><line style="stroke:#181818;stroke-width:0.5;" x1="1017.5" x2="1201.5" y1="1128" y2="1128"/><text fill="#000000" font-family="sans-serif" font-size="14" lengthAdjust="spacing" textLength="168" x="1022.5" y="1147.1074">+List&lt;Property&gt; properties</text><line style="stroke:#181818;stroke-width:1.0;" x1="1017.5" x2="1201.5" y1="1154.6211" y2="1154.6211"/><text fill="#000000" font-family="sans-serif" font-size="14" lengthAdjust="spacing" textLength="149" x="1022.5" y="1173.7285">+addProperty(property)</text><text fill="#000000" font-family="sans-serif" font-size="14" lengthAdjust="spacing" textLength="174" x="1022.5" y="1192.3496">+validateProperty(property)</text></g><!--class User--><g id="elem_User"><rect
        fill="#F1F1F1" height="308.6953" id="User" rx="2.5" ry="2.5" style="stroke:#181818;stroke-width:0.5;" width="279" x="664" y="35"/><ellipse cx="784.75" cy="51" fill="#ADD1B2" rx="11" ry="11" style="stroke:#181818;stroke-width:1.0;"/><path d="M787.5156,46.875 Q787.6719,46.6563 787.8594,46.5469 Q788.0469,46.4375 788.2656,46.4375 Q788.6406,46.4375 788.875,46.7031 Q789.1094,46.9531 789.1094,47.5625 L789.1094,49.0156 Q789.1094,49.625 788.875,49.8906 Q788.6406,50.1563 788.2656,50.1563 Q787.9219,50.1563 787.7188,49.9531 Q787.5156,49.7656 787.4063,49.25 Q787.3594,48.8906 787.1719,48.7031 Q786.8438,48.3281 786.2344,48.1094 Q785.625,47.8906 785,47.8906 Q784.2344,47.8906 783.5938,48.2188 Q782.9688,48.5469 782.4688,49.2969 Q781.9844,50.0469 781.9844,51.0781 L781.9844,52.1719 Q781.9844,53.4063 782.875,54.2344 Q783.7656,55.0469 785.3594,55.0469 Q786.2969,55.0469 786.9531,54.7969 Q787.3438,54.6406 787.7656,54.2031 Q788.0313,53.9375 788.1719,53.8594 Q788.3281,53.7813 788.5313,53.7813 Q788.8594,53.7813 789.1094,54.0469 Q789.375,54.2969 789.375,54.6406 Q789.375,54.9844 789.0313,55.3906 Q788.5313,55.9688 787.7344,56.2969 Q786.6563,56.75 785.3594,56.75 Q783.8438,56.75 782.6406,56.125 Q781.6563,55.625 780.9688,54.5625 Q780.2813,53.4844 780.2813,52.2031 L780.2813,51.0469 Q780.2813,49.7188 780.8906,48.5781 Q781.5156,47.4219 782.6094,46.8125 Q783.7031,46.1875 784.9375,46.1875 Q785.6719,46.1875 786.3125,46.3594 Q786.9688,46.5156 787.5156,46.875 Z " fill="#000000"/><text fill="#000000" font-family="sans-serif" font-size="14" lengthAdjust="spacing" textLength="29" x="805.25" y="56.7969">User</text><line style="stroke:#181818;stroke-width:0.5;" x1="665" x2="942" y1="67" y2="67"/><text fill="#000000" font-family="sans-serif" font-size="14" lengthAdjust="spacing" textLength="81" x="670" y="86.1074">-String name</text><text fill="#000000" font-family="sans-serif" font-size="14" lengthAdjust="spacing" textLength="131" x="670" y="104.7285">-String emailAddress</text><text fill="#000000" font-family="sans-serif" font-size="14" lengthAdjust="spacing" textLength="106" x="670" y="123.3496">-String password</text><text fill="#000000" font-family="sans-serif" font-size="14" lengthAdjust="spacing" textLength="158" x="670" y="141.9707">-String telephoneNumber</text><line style="stroke:#181818;stroke-width:1.0;" x1="665" x2="942" y1="149.4844" y2="149.4844"/><text fill="#000000" font-family="sans-serif" font-size="14" lengthAdjust="spacing" textLength="256" x="670" y="168.5918">+User(String name, String emailAddress,</text><text fill="#000000" font-family="sans-serif" font-size="14" lengthAdjust="spacing" textLength="267" x="670" y="187.2129">String password, String telephoneNumber)</text><text fill="#000000" font-family="sans-serif" font-size="14" lengthAdjust="spacing" textLength="63" x="670" y="205.834">+setName</text><text fill="#000000" font-family="sans-serif" font-size="14" lengthAdjust="spacing" textLength="113" x="670" y="224.4551">+setEmailAddress</text><text fill="#000000" font-family="sans-serif" font-size="14" lengthAdjust="spacing" textLength="88" x="670" y="243.0762">+setPassword</text><text fill="#000000" font-family="sans-serif" font-size="14" lengthAdjust="spacing" textLength="144" x="670" y="261.6973">+setTelephoneNumber</text><text fill="#000000" font-family="sans-serif" font-size="14" lengthAdjust="spacing" textLength="64" x="670" y="280.3184">+getName</text><text fill="#000000" font-family="sans-serif" font-size="14" lengthAdjust="spacing" textLength="114" x="670" y="298.9395">+getEmailAddress</text><text fill="#000000" font-family="sans-serif" font-size="14" lengthAdjust="spacing" textLength="89" x="670" y="317.5605">+getPassword</text><text fill="#000000" font-family="sans-serif" font-size="14" lengthAdjust="spacing" textLength="145" x="670" y="336.1816">+getTelephoneNumber</text></g><!--link ImportLegacyFileController to ImportLegacyFile--><g id="link_ImportLegacyFileController_ImportLegacyFile"><path
        d="M1233.25,614.5 C1243.08,614.5 1252.92,614.5 1262.75,614.5 " fill="none" id="ImportLegacyFileController-to-ImportLegacyFile" style="stroke:#181818;stroke-width:1.0;stroke-dasharray:7.0,7.0;"/><polygon fill="#181818" points="1267.9,614.5,1258.9,610.5,1262.9,614.5,1258.9,618.5,1267.9,614.5" style="stroke:#181818;stroke-width:1.0;"/></g><!--reverse link User to Employee--><g id="link_User_Employee"><path
        d="M803.5,364.37 C803.5,423.4 803.5,486.47 803.5,534.38 " fill="none" id="User-backto-Employee" style="stroke:#181818;stroke-width:1.0;"/><polygon fill="none" points="796.5,364.11,803.5,344.11,810.5,364.11,796.5,364.11" style="stroke:#181818;stroke-width:1.0;"/></g><!--link Owner to Person--><g id="link_Owner_Person"><path
        d="M280.29,614.5 C285.2,614.5 290.11,614.5 295.02,614.5 " fill="none" id="Owner-to-Person" style="stroke:#181818;stroke-width:1.0;"/><polygon fill="none" points="295.21,607.5,315.21,614.5,295.21,621.5,295.21,607.5" style="stroke:#181818;stroke-width:1.0;"/></g><!--reverse link Person to Employee--><g id="link_Person_Employee"><path
        d="M641.73,614.5 C646.63,614.5 651.53,614.5 656.42,614.5 " fill="none" id="Person-backto-Employee" style="stroke:#181818;stroke-width:1.0;"/><polygon fill="none" points="641.61,621.5,621.61,614.5,641.61,607.5,641.61,621.5" style="stroke:#181818;stroke-width:1.0;"/></g><!--reverse link Person to Role--><g id="link_Person_Role"><path
        d="M358.18,789.42 C343.38,812.77 328.72,835.86 315.42,856.83 " fill="none" id="Person-backto-Role" style="stroke:#181818;stroke-width:1.0;stroke-dasharray:7.0,7.0;"/><polygon fill="#181818" points="365.22,778.32,358.6288,781.245,358.7937,788.4542,365.3849,785.5292,365.22,778.32" style="stroke:#181818;stroke-width:1.0;"/><text fill="#000000" font-family="sans-serif" font-size="13" lengthAdjust="spacing" textLength="21" x="346.5" y="823.0283">role</text></g><!--link Address to Person--><g id="link_Address_Person"><path
        d="M468.5,372.04 C468.5,393.85 468.5,416.1 468.5,437.83 " fill="none" id="Address-to-Person" style="stroke:#181818;stroke-width:1.0;stroke-dasharray:7.0,7.0;"/><polygon fill="#181818" points="468.5,450.91,472.5,444.91,468.5,438.91,464.5,444.91,468.5,450.91" style="stroke:#181818;stroke-width:1.0;"/><text fill="#000000" font-family="sans-serif" font-size="13" lengthAdjust="spacing" textLength="46" x="469.5" y="417.0283">address</text></g><!--reverse link Person to PassportCard--><g id="link_Person_PassportCard"><path
        d="M473.85,791.71 C474.87,825.27 475.87,858.2 476.68,884.88 " fill="none" id="Person-backto-PassportCard" style="stroke:#181818;stroke-width:1.0;stroke-dasharray:7.0,7.0;"/><polygon fill="#181818" points="473.44,778.32,469.6199,784.4361,473.7963,790.3147,477.6164,784.1986,473.44,778.32" style="stroke:#181818;stroke-width:1.0;"/><text fill="#000000" font-family="sans-serif" font-size="13" lengthAdjust="spacing" textLength="95" x="476.5" y="823.0283">passportNumber</text></g><!--link ImportLegacyFileUI to ImportLegacyFileController--><g id="link_ImportLegacyFileUI_ImportLegacyFileController"><path
        d="M1109.5,223.34 C1109.5,288.3 1109.5,435.04 1109.5,528.89 " fill="none" id="ImportLegacyFileUI-to-ImportLegacyFileController" style="stroke:#181818;stroke-width:1.0;stroke-dasharray:7.0,7.0;"/><polygon fill="#181818" points="1109.5,534.16,1113.5,525.16,1109.5,529.16,1105.5,525.16,1109.5,534.16" style="stroke:#181818;stroke-width:1.0;"/></g><!--link ImportLegacyFileController to Repositories--><g id="link_ImportLegacyFileController_Repositories"><path
        d="M1109.5,694.84 C1109.5,748.16 1109.5,817.96 1109.5,870.28 " fill="none" id="ImportLegacyFileController-to-Repositories" style="stroke:#181818;stroke-width:1.0;stroke-dasharray:7.0,7.0;"/><polygon fill="#181818" points="1109.5,875.29,1113.5,866.29,1109.5,870.29,1105.5,866.29,1109.5,875.29" style="stroke:#181818;stroke-width:1.0;"/></g><!--link Repositories to PropertyRepository--><g id="link_Repositories_PropertyRepository"><path
        d="M1109.5,1016.67 C1109.5,1040.88 1109.5,1067.71 1109.5,1090.7 " fill="none" id="Repositories-to-PropertyRepository" style="stroke:#181818;stroke-width:1.0;stroke-dasharray:7.0,7.0;"/><polygon fill="#181818" points="1109.5,1095.85,1113.5,1086.85,1109.5,1090.85,1105.5,1086.85,1109.5,1095.85" style="stroke:#181818;stroke-width:1.0;"/></g><!--reverse link PurchaseOrderRepository to Repositories--><g id="link_PurchaseOrderRepository_Repositories"><path
        d="M969.25,946 C979.25,946 989.25,946 999.26,946 " fill="none" id="PurchaseOrderRepository-backto-Repositories" style="stroke:#181818;stroke-width:1.0;stroke-dasharray:7.0,7.0;"/><polygon fill="#181818" points="964.02,946,973.02,950,969.02,946,973.02,942,964.02,946" style="stroke:#181818;stroke-width:1.0;"/></g><!--link Repositories to OwnerRepository--><g id="link_Repositories_OwnerRepository"><path
        d="M1219.78,946 C1229.69,946 1239.6,946 1249.52,946 " fill="none" id="Repositories-to-OwnerRepository" style="stroke:#181818;stroke-width:1.0;stroke-dasharray:7.0,7.0;"/><polygon fill="#181818" points="1254.7,946,1245.7,942,1249.7,946,1245.7,950,1254.7,946" style="stroke:#181818;stroke-width:1.0;"/></g><!--link Employee to ImportLegacyFileController--><g id="link_Employee_ImportLegacyFileController"><path
        d="M950.52,614.5 C960.57,614.5 970.62,614.5 980.67,614.5 " fill="none" id="Employee-to-ImportLegacyFileController" style="stroke:#181818;stroke-width:1.0;stroke-dasharray:7.0,7.0;"/><polygon fill="#181818" points="985.92,614.5,976.92,610.5,980.92,614.5,976.92,618.5,985.92,614.5" style="stroke:#181818;stroke-width:1.0;"/></g><!--SRC=[fLTDRziu4BthL_1MPIi7Uow204RIO0qKRT2abyK21IjDPA8IgP9Kiswx_ts754bnPCK9K1yiQ-RDcmzoEFGhyrN8WMlUirv9LU-rwe5PFK8nQmPUV-KjtDb31qn3RRbiknnWzhnHZqAsx85t9jTqGe8z3C06rHtSovfEQQkAJ55tt9YjjLfy6ItiQYNln0zWVnR5gmuUBBEAQT7kBMk4YqOeMHJUXhtjXquT0DZFWk5disr1rWV6_MCIRVpZTKIMalTGCSl_VJ_sNq1N37ekkctJQ32c-aUYTyjhUmyT37ib8S9uGcZL8SE0_WVC9EczpxF9cm4xXL86GPi9_elHVqIY6FaTPe_r50rvRS3KMWm-vJmRPrcAfie1i-lTTVfvlI1mWKHrIzKfh50B6fYn6i0IKItiWKOh42Lgkp3a5eZaXnYkL0CaeU2pdDnKdhjAXDN4KaNJizymmgBSUNmv2wxGC7kz3WnbRe9KsVlV4sUsl9IqfQJjCMcx86rpqhGMjs6NNN7Tq0MX-uyKCpSgAMvsTalaMMf7YZaOq4P96ePh9oB8ssbIxAI55lJSSminxJIQYVSOUdRPSS5JwCgievzkOTB1ouvzZrwoEhpD4id4zz5FBgEUiYNDETjrpdQ5irtZdCyD69GHLca19fuVH1XeOXMPQtg9tI1h38Qz8TWPyWvQNXzkH0Sc0T8ETe0FZnBqkcehfHgHlWTfgNMAUc4T0t-7VN7XTPTCkSSKqUVF4paUkrvPUbs-6KTTxxc13xfPeNtjQGdcaWtvgtafRblNC5XeNeh_2Dz6CD4WhW7cGQnAOZHLCkMswzq-dzU3r6hgC_IgrG3Q7dRoGJa5SISM36NepWVyVSljFYoT1jva8E-hI-_POH5ytUFuZbIv_u14zkvs4TO9kFVEPREJmsXly2QIXP91_bAZWMSmMxn9MBVvrd5FLlOAZmey3JeyXtx6TfRDJQXIULIBbooZ0xcqoWw_Pf5FezoxxrcOuYvv_7NspCPVfl1f5xV79jR3Rq2JibWsOSJ74zXx2BU297I7AA6Teddk-cINXowzBRcHT28NZ6nkyB1Xdkhje4wD4C-olEC2feoRBzJsE-z4WxDtHP_SVp9peLu-wxBX_AWqlSoT6dJEMvcvgTYA2oplWZ_15jnqgAsED3BlKwmhqupCijL9HkuKCzNn47FLFLhoYtD_oN-wCujqozzink7NfL-QOjh96toTBWd5z60NlpRJduLe5HL_d9zFD-utVa_EOYIDTrxKXNj-RfNVfn2nk7cjzEC6_nt9yyjJEPquYA8rcT9avaV4SOiiSAwo3hS-AnTWNpP4BmRrNFwJ6VqF]--></g></svg>