<?xml version="1.0" encoding="us-ascii" standalone="no"?><svg xmlns="http://www.w3.org/2000/svg" xmlns:xlink="http://www.w3.org/1999/xlink" contentStyleType="text/css" height="809.34px" preserveAspectRatio="none" style="width:992px;height:809px;background:#FFFFFF;" version="1.1" viewBox="0 0 992 809" width="992.2px" zoomAndPan="magnify"><defs/><g><rect fill="#FFFFFF" height="182.7991" style="stroke:#181818;stroke-width:0.41;" width="4.1" x="14.965" y="37.1627"/><rect fill="#FFFFFF" height="12.3" style="stroke:#181818;stroke-width:0.41;" width="4.1" x="14.965" y="241.301"/><rect fill="#FFFFFF" height="12.3" style="stroke:#181818;stroke-width:0.41;" width="4.1" x="14.965" y="383.3948"/><rect fill="#FFFFFF" height="12.3" style="stroke:#181818;stroke-width:0.41;" width="4.1" x="14.965" y="566.6937"/><rect fill="#FFFFFF" height="182.7991" style="stroke:#181818;stroke-width:0.41;" width="4.1" x="284.745" y="37.1627"/><rect fill="#FFFFFF" height="29.9492" style="stroke:#181818;stroke-width:0.41;" width="4.1" x="284.745" y="241.301"/><rect fill="#FFFFFF" height="35.9038" style="stroke:#181818;stroke-width:0.41;" width="4.1" x="284.745" y="383.3948"/><rect fill="#FFFFFF" height="29.9492" style="stroke:#181818;stroke-width:0.41;" width="4.1" x="284.745" y="566.6937"/><rect fill="#FFFFFF" height="70.1677" style="stroke:#181818;stroke-width:0.41;" width="4.1" x="499.995" y="57.2719"/><rect fill="#FFFFFF" height="46.897" style="stroke:#181818;stroke-width:0.41;" width="4.1" x="499.995" y="271.2502"/><rect fill="#FFFFFF" height="11.6946" style="stroke:#181818;stroke-width:0.41;" width="4.1" x="499.995" y="341.5364"/><rect fill="#FFFFFF" height="70.4527" style="stroke:#181818;stroke-width:0.41;" width="4.1" x="499.995" y="419.2987"/><rect fill="#FFFFFF" height="11.6946" style="stroke:#181818;stroke-width:0.41;" width="4.1" x="499.995" y="524.8352"/><rect fill="#FFFFFF" height="76.4073" style="stroke:#181818;stroke-width:0.41;" width="4.1" x="499.995" y="596.6429"/><rect fill="#FFFFFF" height="11.6946" style="stroke:#181818;stroke-width:0.41;" width="4.1" x="499.995" y="708.1341"/><rect fill="#FFFFFF" height="11.6946" style="stroke:#181818;stroke-width:0.41;" width="4.1" x="499.995" y="746.0879"/><rect fill="#FFFFFF" height="11.6946" style="stroke:#181818;stroke-width:0.41;" width="4.1" x="583.84" y="68.9665"/><rect fill="#FFFFFF" height="11.6946" style="stroke:#181818;stroke-width:0.41;" width="4.1" x="653.335" y="92.3557"/><rect fill="#FFFFFF" height="11.6946" style="stroke:#181818;stroke-width:0.41;" width="4.1" x="702.535" y="329.8418"/><rect fill="#FFFFFF" height="11.6946" style="stroke:#181818;stroke-width:0.41;" width="4.1" x="702.535" y="513.1406"/><rect fill="#FFFFFF" height="11.6946" style="stroke:#181818;stroke-width:0.41;" width="4.1" x="702.535" y="696.4395"/><rect fill="#FFFFFF" height="11.6946" style="stroke:#181818;stroke-width:0.41;" width="4.1" x="734.925" y="318.1472"/><rect fill="#FFFFFF" height="11.6946" style="stroke:#181818;stroke-width:0.41;" width="4.1" x="763.215" y="501.446"/><rect fill="#FFFFFF" height="11.6946" style="stroke:#181818;stroke-width:0.41;" width="4.1" x="763.215" y="684.7448"/><rect fill="#FFFFFF" height="11.6946" style="stroke:#181818;stroke-width:0.41;" width="4.1" x="804.625" y="489.7514"/><rect fill="#FFFFFF" height="11.6946" style="stroke:#181818;stroke-width:0.41;" width="4.1" x="837.63" y="673.0502"/><rect fill="#FFFFFF" height="11.6946" style="stroke:#181818;stroke-width:0.41;" width="4.1" x="959.81" y="734.3933"/><rect fill="none" height="130.3992" style="stroke:#000000;stroke-width:0.615;" width="929.88" x="4.1" y="226.1118"/><rect fill="none" height="177.5588" style="stroke:#000000;stroke-width:0.615;" width="929.88" x="4.1" y="362.251"/><rect fill="none" height="177.5588" style="stroke:#000000;stroke-width:0.615;" width="929.88" x="4.1" y="545.5498"/><line style="stroke:#181818;stroke-width:0.205;stroke-dasharray:5.0,5.0;" x1="16.81" x2="16.81" y1="33.0627" y2="776.8571"/><line style="stroke:#181818;stroke-width:0.205;stroke-dasharray:5.0,5.0;" x1="286.795" x2="286.795" y1="33.0627" y2="776.8571"/><line style="stroke:#181818;stroke-width:0.205;stroke-dasharray:5.0,5.0;" x1="502.045" x2="502.045" y1="33.0627" y2="776.8571"/><line style="stroke:#181818;stroke-width:0.205;stroke-dasharray:5.0,5.0;" x1="585.685" x2="585.685" y1="33.0627" y2="776.8571"/><line style="stroke:#181818;stroke-width:0.205;stroke-dasharray:5.0,5.0;" x1="655.385" x2="655.385" y1="33.0627" y2="776.8571"/><line style="stroke:#181818;stroke-width:0.205;stroke-dasharray:5.0,5.0;" x1="704.585" x2="704.585" y1="33.0627" y2="776.8571"/><line style="stroke:#181818;stroke-width:0.205;stroke-dasharray:5.0,5.0;" x1="736.975" x2="736.975" y1="33.0627" y2="776.8571"/><line style="stroke:#181818;stroke-width:0.205;stroke-dasharray:5.0,5.0;" x1="765.265" x2="765.265" y1="33.0627" y2="776.8571"/><line style="stroke:#181818;stroke-width:0.205;stroke-dasharray:5.0,5.0;" x1="806.47" x2="806.47" y1="33.0627" y2="776.8571"/><line style="stroke:#181818;stroke-width:0.205;stroke-dasharray:5.0,5.0;" x1="839.68" x2="839.68" y1="33.0627" y2="776.8571"/><line style="stroke:#181818;stroke-width:0.205;stroke-dasharray:5.0,5.0;" x1="892.57" x2="892.57" y1="33.0627" y2="776.8571"/><line style="stroke:#181818;stroke-width:0.205;stroke-dasharray:5.0,5.0;" x1="961.86" x2="961.86" y1="33.0627" y2="776.8571"/><text fill="#000000" font-family="sans-serif" font-size="5.74" lengthAdjust="spacing" textLength="15.17" x="8.2" y="31.8463">Agent</text><ellipse cx="17.015" cy="5.535" fill="#E3E3E3" rx="3.28" ry="3.28" style="stroke:#181818;stroke-width:0.205;"/><path d="M17.015,8.815 L17.015,19.885 M11.685,12.095 L22.345,12.095 M17.015,19.885 L11.685,26.035 M17.015,19.885 L22.345,26.035 " fill="none" style="stroke:#181818;stroke-width:0.205;"/><text fill="#000000" font-family="sans-serif" font-size="5.74" lengthAdjust="spacing" textLength="15.17" x="8.2" y="781.6434">Agent</text><ellipse cx="17.015" cy="786.3448" fill="#E3E3E3" rx="3.28" ry="3.28" style="stroke:#181818;stroke-width:0.205;"/><path d="M17.015,789.6248 L17.015,800.6948 M11.685,792.9048 L22.345,792.9048 M17.015,800.6948 L11.685,806.8448 M17.015,800.6948 L22.345,806.8448 " fill="none" style="stroke:#181818;stroke-width:0.205;"/><rect fill="#E3E3E3" height="12.1527" rx="1.025" ry="1.025" style="stroke:#181818;stroke-width:0.205;" width="67.24" x="253.175" y="20.5"/><text fill="#000000" font-family="sans-serif" font-size="5.74" lengthAdjust="spacing" textLength="61.5" x="256.045" y="28.5663">CreateAnnouncementUI</text><rect fill="#E3E3E3" height="12.1527" rx="1.025" ry="1.025" style="stroke:#181818;stroke-width:0.205;" width="67.24" x="253.175" y="776.4471"/><text fill="#000000" font-family="sans-serif" font-size="5.74" lengthAdjust="spacing" textLength="61.5" x="256.045" y="784.5134">CreateAnnouncementUI</text><rect fill="#E3E3E3" height="12.1527" rx="1.025" ry="1.025" style="stroke:#181818;stroke-width:0.205;" width="89.38" x="457.355" y="20.5"/><text fill="#000000" font-family="sans-serif" font-size="5.74" lengthAdjust="spacing" textLength="83.64" x="460.225" y="28.5663">:CreateAnnouncementController</text><rect fill="#E3E3E3" height="12.1527" rx="1.025" ry="1.025" style="stroke:#181818;stroke-width:0.205;" width="89.38" x="457.355" y="776.4471"/><text fill="#000000" font-family="sans-serif" font-size="5.74" lengthAdjust="spacing" textLength="83.64" x="460.225" y="784.5134">:CreateAnnouncementController</text><rect fill="#E3E3E3" height="12.1527" rx="1.025" ry="1.025" style="stroke:#181818;stroke-width:0.205;" width="70.11" x="550.835" y="20.5"/><text fill="#000000" font-family="sans-serif" font-size="5.74" lengthAdjust="spacing" textLength="64.37" x="553.705" y="28.5663">:propertyTypeRepository</text><rect fill="#E3E3E3" height="12.1527" rx="1.025" ry="1.025" style="stroke:#181818;stroke-width:0.205;" width="70.11" x="550.835" y="776.4471"/><text fill="#000000" font-family="sans-serif" font-size="5.74" lengthAdjust="spacing" textLength="64.37" x="553.705" y="784.5134">:propertyTypeRepository</text><rect fill="#E3E3E3" height="12.1527" rx="1.025" ry="1.025" style="stroke:#181818;stroke-width:0.205;" width="60.68" x="625.045" y="20.5"/><text fill="#000000" font-family="sans-serif" font-size="5.74" lengthAdjust="spacing" textLength="54.94" x="627.915" y="28.5663">:comissionRepository</text><rect fill="#E3E3E3" height="12.1527" rx="1.025" ry="1.025" style="stroke:#181818;stroke-width:0.205;" width="60.68" x="625.045" y="776.4471"/><text fill="#000000" font-family="sans-serif" font-size="5.74" lengthAdjust="spacing" textLength="54.94" x="627.915" y="784.5134">:comissionRepository</text><rect fill="#E3E3E3" height="12.1527" rx="1.025" ry="1.025" style="stroke:#181818;stroke-width:0.205;" width="29.52" x="689.825" y="20.5"/><text fill="#000000" font-family="sans-serif" font-size="5.74" lengthAdjust="spacing" textLength="23.78" x="692.695" y="28.5663">:Property</text><rect fill="#E3E3E3" height="12.1527" rx="1.025" ry="1.025" style="stroke:#181818;stroke-width:0.205;" width="29.52" x="689.825" y="776.4471"/><text fill="#000000" font-family="sans-serif" font-size="5.74" lengthAdjust="spacing" textLength="23.78" x="692.695" y="784.5134">:Property</text><rect fill="#E3E3E3" height="12.1527" rx="1.025" ry="1.025" style="stroke:#181818;stroke-width:0.205;" width="20.5" x="726.725" y="20.5"/><text fill="#000000" font-family="sans-serif" font-size="5.74" lengthAdjust="spacing" textLength="14.76" x="729.595" y="28.5663">:Land</text><rect fill="#E3E3E3" height="12.1527" rx="1.025" ry="1.025" style="stroke:#181818;stroke-width:0.205;" width="20.5" x="726.725" y="776.4471"/><text fill="#000000" font-family="sans-serif" font-size="5.74" lengthAdjust="spacing" textLength="14.76" x="729.595" y="784.5134">:Land</text><rect fill="#E3E3E3" height="12.1527" rx="1.025" ry="1.025" style="stroke:#181818;stroke-width:0.205;" width="27.88" x="751.325" y="20.5"/><text fill="#000000" font-family="sans-serif" font-size="5.74" lengthAdjust="spacing" textLength="22.14" x="754.195" y="28.5663">:Building</text><rect fill="#E3E3E3" height="12.1527" rx="1.025" ry="1.025" style="stroke:#181818;stroke-width:0.205;" width="27.88" x="751.325" y="776.4471"/><text fill="#000000" font-family="sans-serif" font-size="5.74" lengthAdjust="spacing" textLength="22.14" x="754.195" y="784.5134">:Building</text><rect fill="#E3E3E3" height="12.1527" rx="1.025" ry="1.025" style="stroke:#181818;stroke-width:0.205;" width="34.03" x="789.66" y="20.5"/><text fill="#000000" font-family="sans-serif" font-size="5.74" lengthAdjust="spacing" textLength="28.29" x="792.53" y="28.5663">:Apartment</text><rect fill="#E3E3E3" height="12.1527" rx="1.025" ry="1.025" style="stroke:#181818;stroke-width:0.205;" width="34.03" x="789.66" y="776.4471"/><text fill="#000000" font-family="sans-serif" font-size="5.74" lengthAdjust="spacing" textLength="28.29" x="792.53" y="784.5134">:Apartment</text><rect fill="#E3E3E3" height="12.1527" rx="1.025" ry="1.025" style="stroke:#181818;stroke-width:0.205;" width="23.78" x="827.79" y="20.5"/><text fill="#000000" font-family="sans-serif" font-size="5.74" lengthAdjust="spacing" textLength="18.04" x="830.66" y="28.5663">:House</text><rect fill="#E3E3E3" height="12.1527" rx="1.025" ry="1.025" style="stroke:#181818;stroke-width:0.205;" width="23.78" x="827.79" y="776.4471"/><text fill="#000000" font-family="sans-serif" font-size="5.74" lengthAdjust="spacing" textLength="18.04" x="830.66" y="784.5134">:House</text><rect fill="#E3E3E3" height="12.1527" rx="1.025" ry="1.025" style="stroke:#181818;stroke-width:0.205;" width="74.21" x="855.67" y="20.5"/><text fill="#000000" font-family="sans-serif" font-size="5.74" lengthAdjust="spacing" textLength="68.47" x="858.54" y="28.5663">:AnnouncementRepository</text><rect fill="#E3E3E3" height="12.1527" rx="1.025" ry="1.025" style="stroke:#181818;stroke-width:0.205;" width="74.21" x="855.67" y="776.4471"/><text fill="#000000" font-family="sans-serif" font-size="5.74" lengthAdjust="spacing" textLength="68.47" x="858.54" y="784.5134">:AnnouncementRepository</text><rect fill="#E3E3E3" height="12.1527" rx="1.025" ry="1.025" style="stroke:#181818;stroke-width:0.205;" width="55.76" x="933.98" y="20.5"/><text fill="#000000" font-family="sans-serif" font-size="5.74" lengthAdjust="spacing" textLength="50.02" x="936.85" y="28.5663">PropertyRepository</text><rect fill="#E3E3E3" height="12.1527" rx="1.025" ry="1.025" style="stroke:#181818;stroke-width:0.205;" width="55.76" x="933.98" y="776.4471"/><text fill="#000000" font-family="sans-serif" font-size="5.74" lengthAdjust="spacing" textLength="50.02" x="936.85" y="784.5134">PropertyRepository</text><rect fill="#FFFFFF" height="182.7991" style="stroke:#181818;stroke-width:0.41;" width="4.1" x="14.965" y="37.1627"/><rect fill="#FFFFFF" height="12.3" style="stroke:#181818;stroke-width:0.41;" width="4.1" x="14.965" y="241.301"/><rect fill="#FFFFFF" height="12.3" style="stroke:#181818;stroke-width:0.41;" width="4.1" x="14.965" y="383.3948"/><rect fill="#FFFFFF" height="12.3" style="stroke:#181818;stroke-width:0.41;" width="4.1" x="14.965" y="566.6937"/><rect fill="#FFFFFF" height="182.7991" style="stroke:#181818;stroke-width:0.41;" width="4.1" x="284.745" y="37.1627"/><rect fill="#FFFFFF" height="29.9492" style="stroke:#181818;stroke-width:0.41;" width="4.1" x="284.745" y="241.301"/><rect fill="#FFFFFF" height="35.9038" style="stroke:#181818;stroke-width:0.41;" width="4.1" x="284.745" y="383.3948"/><rect fill="#FFFFFF" height="29.9492" style="stroke:#181818;stroke-width:0.41;" width="4.1" x="284.745" y="566.6937"/><rect fill="#FFFFFF" height="70.1677" style="stroke:#181818;stroke-width:0.41;" width="4.1" x="499.995" y="57.2719"/><rect fill="#FFFFFF" height="46.897" style="stroke:#181818;stroke-width:0.41;" width="4.1" x="499.995" y="271.2502"/><rect fill="#FFFFFF" height="11.6946" style="stroke:#181818;stroke-width:0.41;" width="4.1" x="499.995" y="341.5364"/><rect fill="#FFFFFF" height="70.4527" style="stroke:#181818;stroke-width:0.41;" width="4.1" x="499.995" y="419.2987"/><rect fill="#FFFFFF" height="11.6946" style="stroke:#181818;stroke-width:0.41;" width="4.1" x="499.995" y="524.8352"/><rect fill="#FFFFFF" height="76.4073" style="stroke:#181818;stroke-width:0.41;" width="4.1" x="499.995" y="596.6429"/><rect fill="#FFFFFF" height="11.6946" style="stroke:#181818;stroke-width:0.41;" width="4.1" x="499.995" y="708.1341"/><rect fill="#FFFFFF" height="11.6946" style="stroke:#181818;stroke-width:0.41;" width="4.1" x="499.995" y="746.0879"/><rect fill="#FFFFFF" height="11.6946" style="stroke:#181818;stroke-width:0.41;" width="4.1" x="583.84" y="68.9665"/><rect fill="#FFFFFF" height="11.6946" style="stroke:#181818;stroke-width:0.41;" width="4.1" x="653.335" y="92.3557"/><rect fill="#FFFFFF" height="11.6946" style="stroke:#181818;stroke-width:0.41;" width="4.1" x="702.535" y="329.8418"/><rect fill="#FFFFFF" height="11.6946" style="stroke:#181818;stroke-width:0.41;" width="4.1" x="702.535" y="513.1406"/><rect fill="#FFFFFF" height="11.6946" style="stroke:#181818;stroke-width:0.41;" width="4.1" x="702.535" y="696.4395"/><rect fill="#FFFFFF" height="11.6946" style="stroke:#181818;stroke-width:0.41;" width="4.1" x="734.925" y="318.1472"/><rect fill="#FFFFFF" height="11.6946" style="stroke:#181818;stroke-width:0.41;" width="4.1" x="763.215" y="501.446"/><rect fill="#FFFFFF" height="11.6946" style="stroke:#181818;stroke-width:0.41;" width="4.1" x="763.215" y="684.7448"/><rect fill="#FFFFFF" height="11.6946" style="stroke:#181818;stroke-width:0.41;" width="4.1" x="804.625" y="489.7514"/><rect fill="#FFFFFF" height="11.6946" style="stroke:#181818;stroke-width:0.41;" width="4.1" x="837.63" y="673.0502"/><rect fill="#FFFFFF" height="11.6946" style="stroke:#181818;stroke-width:0.41;" width="4.1" x="959.81" y="734.3933"/><polygon fill="#181818" points="279.825,43.9373,283.925,45.5773,279.825,47.2173,281.465,45.5773" style="stroke:#181818;stroke-width:0.41;"/><line style="stroke:#181818;stroke-width:0.41;" x1="19.065" x2="282.285" y1="45.5773" y2="45.5773"/><text fill="#000000" font-family="sans-serif" font-size="5.33" font-weight="bold" lengthAdjust="spacing" textLength="2.87" x="21.935" y="43.6278">1</text><text fill="#000000" font-family="sans-serif" font-size="5.33" lengthAdjust="spacing" textLength="81.59" x="26.445" y="43.6278">asks to create new announcement</text><polygon fill="#181818" points="495.075,55.6319,499.175,57.2719,495.075,58.9119,496.715,57.2719" style="stroke:#181818;stroke-width:0.41;"/><line style="stroke:#181818;stroke-width:0.41;" x1="288.845" x2="497.535" y1="57.2719" y2="57.2719"/><text fill="#000000" font-family="sans-serif" font-size="5.33" font-weight="bold" lengthAdjust="spacing" textLength="2.87" x="291.715" y="55.3224">2</text><text fill="#000000" font-family="sans-serif" font-size="5.33" lengthAdjust="spacing" textLength="77.08" x="296.225" y="55.3224">CreateAnnouncementController()</text><polygon fill="#181818" points="578.92,67.3265,583.02,68.9665,578.92,70.6065,580.56,68.9665" style="stroke:#181818;stroke-width:0.41;"/><line style="stroke:#181818;stroke-width:0.41;" x1="504.095" x2="581.38" y1="68.9665" y2="68.9665"/><text fill="#000000" font-family="sans-serif" font-size="5.33" font-weight="bold" lengthAdjust="spacing" textLength="2.87" x="506.965" y="67.017">3</text><text fill="#000000" font-family="sans-serif" font-size="5.33" lengthAdjust="spacing" textLength="45.1" x="511.475" y="67.017">getPropertyTypes()</text><polygon fill="#181818" points="508.605,79.0211,504.505,80.6611,508.605,82.3011,506.965,80.6611" style="stroke:#181818;stroke-width:0.41;"/><line style="stroke:#181818;stroke-width:0.41;" x1="506.145" x2="585.48" y1="80.6611" y2="80.6611"/><text fill="#000000" font-family="sans-serif" font-size="5.33" font-weight="bold" lengthAdjust="spacing" textLength="2.87" x="511.065" y="78.7116">4</text><text fill="#000000" font-family="sans-serif" font-size="5.33" lengthAdjust="spacing" textLength="33.62" x="515.575" y="78.7116">propertyTypes</text><polygon fill="#181818" points="648.415,90.7157,652.515,92.3557,648.415,93.9957,650.055,92.3557" style="stroke:#181818;stroke-width:0.41;"/><line style="stroke:#181818;stroke-width:0.41;" x1="504.095" x2="650.875" y1="92.3557" y2="92.3557"/><text fill="#000000" font-family="sans-serif" font-size="5.33" font-weight="bold" lengthAdjust="spacing" textLength="2.87" x="506.965" y="90.4062">5</text><text fill="#000000" font-family="sans-serif" font-size="5.33" lengthAdjust="spacing" textLength="50.02" x="511.475" y="90.4062">getComissionTypes()</text><polygon fill="#181818" points="508.605,102.4103,504.505,104.0503,508.605,105.6903,506.965,104.0503" style="stroke:#181818;stroke-width:0.41;"/><line style="stroke:#181818;stroke-width:0.41;" x1="506.145" x2="654.975" y1="104.0503" y2="104.0503"/><text fill="#000000" font-family="sans-serif" font-size="5.33" font-weight="bold" lengthAdjust="spacing" textLength="2.87" x="511.065" y="102.1008">6</text><text fill="#000000" font-family="sans-serif" font-size="5.33" lengthAdjust="spacing" textLength="38.54" x="515.575" y="102.1008">comissionTypes</text><polygon fill="#181818" points="293.355,114.1049,289.255,115.7449,293.355,117.3849,291.715,115.7449" style="stroke:#181818;stroke-width:0.41;"/><line style="stroke:#181818;stroke-width:0.41;" x1="290.895" x2="499.585" y1="115.7449" y2="115.7449"/><text fill="#000000" font-family="sans-serif" font-size="5.33" font-weight="bold" lengthAdjust="spacing" textLength="2.87" x="295.815" y="113.7954">7</text><text fill="#000000" font-family="sans-serif" font-size="5.33" lengthAdjust="spacing" textLength="33.62" x="300.325" y="113.7954">propertyTypes</text><polygon fill="#181818" points="293.355,125.7995,289.255,127.4395,293.355,129.0795,291.715,127.4395" style="stroke:#181818;stroke-width:0.41;"/><line style="stroke:#181818;stroke-width:0.41;" x1="290.895" x2="501.635" y1="127.4395" y2="127.4395"/><text fill="#000000" font-family="sans-serif" font-size="5.33" font-weight="bold" lengthAdjust="spacing" textLength="2.87" x="295.815" y="125.49">8</text><text fill="#000000" font-family="sans-serif" font-size="5.33" lengthAdjust="spacing" textLength="38.54" x="300.325" y="125.49">comissionTypes</text><polygon fill="#181818" points="23.575,137.4941,19.475,139.1341,23.575,140.7741,21.935,139.1341" style="stroke:#181818;stroke-width:0.41;"/><line style="stroke:#181818;stroke-width:0.41;" x1="21.115" x2="284.335" y1="139.1341" y2="139.1341"/><text fill="#000000" font-family="sans-serif" font-size="5.33" font-weight="bold" lengthAdjust="spacing" textLength="2.87" x="26.035" y="137.1846">9</text><text fill="#000000" font-family="sans-serif" font-size="5.33" lengthAdjust="spacing" textLength="50.84" x="30.545" y="137.1846">shows property types</text><polygon fill="#181818" points="279.825,149.1888,283.925,150.8287,279.825,152.4688,281.465,150.8287" style="stroke:#181818;stroke-width:0.41;"/><line style="stroke:#181818;stroke-width:0.41;" x1="19.065" x2="282.285" y1="150.8287" y2="150.8287"/><text fill="#000000" font-family="sans-serif" font-size="5.33" font-weight="bold" lengthAdjust="spacing" textLength="5.74" x="21.935" y="148.8792">10</text><text fill="#000000" font-family="sans-serif" font-size="5.33" lengthAdjust="spacing" textLength="54.53" x="29.315" y="148.8792">selects a property type</text><line style="stroke:#181818;stroke-width:0.41;" x1="288.845" x2="306.065" y1="162.5234" y2="162.5234"/><line style="stroke:#181818;stroke-width:0.41;" x1="306.065" x2="306.065" y1="162.5234" y2="167.8534"/><line style="stroke:#181818;stroke-width:0.41;" x1="289.255" x2="306.065" y1="167.8534" y2="167.8534"/><polygon fill="#181818" points="293.355,166.2134,289.255,167.8534,293.355,169.4934,291.715,167.8534" style="stroke:#181818;stroke-width:0.41;"/><text fill="#000000" font-family="sans-serif" font-size="5.33" font-weight="bold" lengthAdjust="spacing" textLength="5.74" x="291.715" y="160.5739">11</text><text fill="#000000" font-family="sans-serif" font-size="5.33" lengthAdjust="spacing" textLength="46.33" x="299.095" y="160.5739">keepPropertyType()</text><polygon fill="#181818" points="23.575,177.908,19.475,179.548,23.575,181.188,21.935,179.548" style="stroke:#181818;stroke-width:0.41;"/><line style="stroke:#181818;stroke-width:0.41;" x1="21.115" x2="284.335" y1="179.548" y2="179.548"/><text fill="#000000" font-family="sans-serif" font-size="5.33" font-weight="bold" lengthAdjust="spacing" textLength="5.74" x="26.035" y="177.5985">12</text><text fill="#000000" font-family="sans-serif" font-size="5.33" lengthAdjust="spacing" textLength="55.76" x="33.415" y="177.5985">shows comission types</text><polygon fill="#181818" points="279.825,189.6026,283.925,191.2426,279.825,192.8826,281.465,191.2426" style="stroke:#181818;stroke-width:0.41;"/><line style="stroke:#181818;stroke-width:0.41;" x1="19.065" x2="282.285" y1="191.2426" y2="191.2426"/><text fill="#000000" font-family="sans-serif" font-size="5.33" font-weight="bold" lengthAdjust="spacing" textLength="5.74" x="21.935" y="189.2931">13</text><text fill="#000000" font-family="sans-serif" font-size="5.33" lengthAdjust="spacing" textLength="59.45" x="29.315" y="189.2931">selects a comission type</text><line style="stroke:#181818;stroke-width:0.41;" x1="288.845" x2="306.065" y1="202.9372" y2="202.9372"/><line style="stroke:#181818;stroke-width:0.41;" x1="306.065" x2="306.065" y1="202.9372" y2="208.2672"/><line style="stroke:#181818;stroke-width:0.41;" x1="289.255" x2="306.065" y1="208.2672" y2="208.2672"/><polygon fill="#181818" points="293.355,206.6272,289.255,208.2672,293.355,209.9072,291.715,208.2672" style="stroke:#181818;stroke-width:0.41;"/><text fill="#000000" font-family="sans-serif" font-size="5.33" font-weight="bold" lengthAdjust="spacing" textLength="5.74" x="291.715" y="200.9877">14</text><text fill="#000000" font-family="sans-serif" font-size="5.33" lengthAdjust="spacing" textLength="39.77" x="299.095" y="200.9877">keepComission()</text><polygon fill="#181818" points="21.525,218.3218,17.425,219.9618,21.525,221.6018,19.885,219.9618" style="stroke:#181818;stroke-width:0.41;"/><line style="stroke:#181818;stroke-width:0.41;" x1="19.065" x2="286.385" y1="219.9618" y2="219.9618"/><text fill="#000000" font-family="sans-serif" font-size="5.33" font-weight="bold" lengthAdjust="spacing" textLength="5.74" x="23.985" y="218.0123">15</text><text fill="#000000" font-family="sans-serif" font-size="5.33" lengthAdjust="spacing" textLength="33.21" x="31.365" y="218.0123">requests Data</text><path d="M4.1,226.1118 L29.11,226.1118 L29.11,228.7864 L25.01,232.8864 L4.1,232.8864 L4.1,226.1118 " fill="#EEEEEE" style="stroke:#000000;stroke-width:0.615;"/><rect fill="none" height="130.3992" style="stroke:#000000;stroke-width:0.615;" width="929.88" x="4.1" y="226.1118"/><text fill="#000000" font-family="sans-serif" font-size="5.33" font-weight="bold" lengthAdjust="spacing" textLength="6.56" x="10.25" y="231.3469">alt</text><text fill="#000000" font-family="sans-serif" font-size="4.51" font-weight="bold" lengthAdjust="spacing" textLength="55.76" x="35.26" y="231.0146">[if propertyType is Land]</text><polygon fill="#181818" points="279.825,239.661,283.925,241.301,279.825,242.941,281.465,241.301" style="stroke:#181818;stroke-width:0.41;"/><line style="stroke:#181818;stroke-width:0.41;" x1="19.065" x2="282.285" y1="241.301" y2="241.301"/><text fill="#000000" font-family="sans-serif" font-size="5.33" font-weight="bold" lengthAdjust="spacing" textLength="5.74" x="21.935" y="239.3515">16</text><text fill="#000000" font-family="sans-serif" font-size="5.33" lengthAdjust="spacing" textLength="197.21" x="29.315" y="239.3515">inputs requested data(area, distanceFromCentre, photoURI, street, city, comission)</text><polygon fill="#181818" points="495.075,269.6102,499.175,271.2502,495.075,272.8902,496.715,271.2502" style="stroke:#181818;stroke-width:0.41;"/><line style="stroke:#181818;stroke-width:0.41;" x1="286.795" x2="497.535" y1="271.2502" y2="271.2502"/><text fill="#000000" font-family="sans-serif" font-size="5.33" font-weight="bold" lengthAdjust="spacing" textLength="5.74" x="289.665" y="266.3234">17</text><text fill="#000000" font-family="sans-serif" font-size="5.33" lengthAdjust="spacing" textLength="144.73" x="297.045" y="263.3461">createLand(area, distanceFromCentre, photoURI, street, city,</text><text fill="#000000" font-family="sans-serif" font-size="5.33" lengthAdjust="spacing" textLength="82.82" x="298.685" y="269.3007">district, state, zipCode, comission)</text><rect fill="none" height="15.5512" style="stroke:#000000;stroke-width:0.615;" width="91.84" x="456.125" y="274.5302"/><path d="M456.125,274.5302 L481.545,274.5302 L481.545,276.9902 L477.445,281.0902 L456.125,281.0902 L456.125,274.5302 " fill="#EEEEEE" style="stroke:#000000;stroke-width:0.82;"/><text fill="#000000" font-family="sans-serif" font-size="5.33" font-weight="bold" lengthAdjust="spacing" textLength="6.97" x="461.455" y="280.1753">ref</text><text fill="#000000" font-family="sans-serif" font-size="4.92" lengthAdjust="spacing" textLength="23.78" x="490.155" y="287.1842">get photos</text><rect fill="none" height="15.5512" style="stroke:#000000;stroke-width:0.615;" width="91.84" x="456.125" y="292.1314"/><path d="M456.125,292.1314 L481.545,292.1314 L481.545,294.5914 L477.445,298.6914 L456.125,298.6914 L456.125,292.1314 " fill="#EEEEEE" style="stroke:#000000;stroke-width:0.82;"/><text fill="#000000" font-family="sans-serif" font-size="5.33" font-weight="bold" lengthAdjust="spacing" textLength="6.97" x="461.455" y="297.7765">ref</text><text fill="#000000" font-family="sans-serif" font-size="4.92" lengthAdjust="spacing" textLength="27.06" x="488.515" y="304.7854">get address</text><polygon fill="#181818" points="730.005,316.5072,734.105,318.1472,730.005,319.7872,731.645,318.1472" style="stroke:#181818;stroke-width:0.41;"/><line style="stroke:#181818;stroke-width:0.41;" x1="502.045" x2="732.465" y1="318.1472" y2="318.1472"/><text fill="#000000" font-family="sans-serif" font-size="5.33" font-weight="bold" lengthAdjust="spacing" textLength="5.74" x="504.915" y="316.1977">18</text><text fill="#000000" font-family="sans-serif" font-size="5.33" lengthAdjust="spacing" textLength="162.36" x="512.295" y="316.1977">createLand(photoList, area, distanceFromCentre,address,comission)</text><polygon fill="#181818" points="711.145,328.2018,707.045,329.8418,711.145,331.4818,709.505,329.8418" style="stroke:#181818;stroke-width:0.41;"/><line style="stroke:#181818;stroke-width:0.41;" x1="708.685" x2="736.565" y1="329.8418" y2="329.8418"/><text fill="#000000" font-family="sans-serif" font-size="5.33" font-weight="bold" lengthAdjust="spacing" textLength="5.74" x="713.605" y="327.8923">19</text><text fill="#000000" font-family="sans-serif" font-size="5.33" lengthAdjust="spacing" textLength="13.12" x="720.985" y="327.8923">super</text><polygon fill="#181818" points="508.605,339.8964,504.505,341.5364,508.605,343.1764,506.965,341.5364" style="stroke:#181818;stroke-width:0.41;"/><line style="stroke:#181818;stroke-width:0.41;" x1="506.145" x2="704.175" y1="341.5364" y2="341.5364"/><text fill="#000000" font-family="sans-serif" font-size="5.33" font-weight="bold" lengthAdjust="spacing" textLength="5.74" x="511.065" y="339.5869">20</text><text fill="#000000" font-family="sans-serif" font-size="5.33" lengthAdjust="spacing" textLength="66.42" x="518.445" y="339.5869">getPropertyDetails(property)</text><polygon fill="#181818" points="887.855,351.591,891.955,353.231,887.855,354.871,889.495,353.231" style="stroke:#181818;stroke-width:0.41;"/><line style="stroke:#181818;stroke-width:0.41;" x1="502.045" x2="890.315" y1="353.231" y2="353.231"/><text fill="#000000" font-family="sans-serif" font-size="5.33" font-weight="bold" lengthAdjust="spacing" textLength="5.74" x="504.915" y="351.2815">21</text><text fill="#000000" font-family="sans-serif" font-size="5.33" lengthAdjust="spacing" textLength="35.67" x="512.295" y="351.2815">propertyDetails</text><path d="M4.1,362.251 L29.11,362.251 L29.11,364.9256 L25.01,369.0256 L4.1,369.0256 L4.1,362.251 " fill="#EEEEEE" style="stroke:#000000;stroke-width:0.615;"/><rect fill="none" height="177.5588" style="stroke:#000000;stroke-width:0.615;" width="929.88" x="4.1" y="362.251"/><text fill="#000000" font-family="sans-serif" font-size="5.33" font-weight="bold" lengthAdjust="spacing" textLength="6.56" x="10.25" y="367.4861">alt</text><text fill="#000000" font-family="sans-serif" font-size="4.51" font-weight="bold" lengthAdjust="spacing" textLength="68.88" x="35.26" y="367.1538">[if propertyType is Apartment]</text><polygon fill="#181818" points="279.825,381.7548,283.925,383.3948,279.825,385.0348,281.465,383.3948" style="stroke:#181818;stroke-width:0.41;"/><line style="stroke:#181818;stroke-width:0.41;" x1="19.065" x2="282.285" y1="383.3948" y2="383.3948"/><text fill="#000000" font-family="sans-serif" font-size="5.33" font-weight="bold" lengthAdjust="spacing" textLength="5.74" x="21.935" y="378.468">22</text><text fill="#000000" font-family="sans-serif" font-size="5.33" lengthAdjust="spacing" textLength="250.92" x="29.315" y="375.4907">inputs requested data(area, distanceFromCentre, equipmentList,transaction, photoURI, street, city,</text><text fill="#000000" font-family="sans-serif" font-size="5.33" lengthAdjust="spacing" textLength="178.76" x="30.955" y="381.4453">district, state, zipCode, type of transaction, value of transaction, comission)</text><polygon fill="#181818" points="495.075,417.6587,499.175,419.2987,495.075,420.9387,496.715,419.2987" style="stroke:#181818;stroke-width:0.41;"/><line style="stroke:#181818;stroke-width:0.41;" x1="286.795" x2="497.535" y1="419.2987" y2="419.2987"/><text fill="#000000" font-family="sans-serif" font-size="5.33" font-weight="bold" lengthAdjust="spacing" textLength="5.74" x="289.665" y="411.3946">23</text><text fill="#000000" font-family="sans-serif" font-size="5.33" lengthAdjust="spacing" textLength="194.34" x="297.045" y="405.44">createApartment(area, distanceFromCentre, equipmentList, photoURI, street, city,</text><text fill="#000000" font-family="sans-serif" font-size="5.33" lengthAdjust="spacing" textLength="135.3" x="298.685" y="411.3946">district, state, zipCode, transactionType, monetaryValue,</text><text fill="#000000" font-family="sans-serif" font-size="5.33" lengthAdjust="spacing" textLength="171.79" x="298.685" y="417.3492">comissionType, comissionValue, bedrooms, bathrooms, parkingSpaces)</text><rect fill="none" height="15.5512" style="stroke:#000000;stroke-width:0.615;" width="91.84" x="456.125" y="422.5787"/><path d="M456.125,422.5787 L481.545,422.5787 L481.545,425.0387 L477.445,429.1387 L456.125,429.1387 L456.125,422.5787 " fill="#EEEEEE" style="stroke:#000000;stroke-width:0.82;"/><text fill="#000000" font-family="sans-serif" font-size="5.33" font-weight="bold" lengthAdjust="spacing" textLength="6.97" x="461.455" y="428.2238">ref</text><text fill="#000000" font-family="sans-serif" font-size="4.92" lengthAdjust="spacing" textLength="23.78" x="490.155" y="435.2326">get photos</text><rect fill="none" height="15.5512" style="stroke:#000000;stroke-width:0.615;" width="91.84" x="456.125" y="440.1798"/><path d="M456.125,440.1798 L481.545,440.1798 L481.545,442.6398 L477.445,446.7398 L456.125,446.7398 L456.125,440.1798 " fill="#EEEEEE" style="stroke:#000000;stroke-width:0.82;"/><text fill="#000000" font-family="sans-serif" font-size="5.33" font-weight="bold" lengthAdjust="spacing" textLength="6.97" x="461.455" y="445.825">ref</text><text fill="#000000" font-family="sans-serif" font-size="4.92" lengthAdjust="spacing" textLength="27.06" x="488.515" y="452.8338">get address</text><rect fill="none" height="15.5512" style="stroke:#000000;stroke-width:0.615;" width="91.84" x="456.125" y="457.781"/><path d="M456.125,457.781 L481.545,457.781 L481.545,460.241 L477.445,464.341 L456.125,464.341 L456.125,457.781 " fill="#EEEEEE" style="stroke:#000000;stroke-width:0.82;"/><text fill="#000000" font-family="sans-serif" font-size="5.33" font-weight="bold" lengthAdjust="spacing" textLength="6.97" x="461.455" y="463.4261">ref</text><text fill="#000000" font-family="sans-serif" font-size="4.92" lengthAdjust="spacing" textLength="39.77" x="482.16" y="470.435">getEquipmentList</text><polygon fill="#181818" points="799.705,488.1114,803.805,489.7514,799.705,491.3914,801.345,489.7514" style="stroke:#181818;stroke-width:0.41;"/><line style="stroke:#181818;stroke-width:0.41;" x1="502.045" x2="802.165" y1="489.7514" y2="489.7514"/><text fill="#000000" font-family="sans-serif" font-size="5.33" font-weight="bold" lengthAdjust="spacing" textLength="5.74" x="504.915" y="484.8246">24</text><text fill="#000000" font-family="sans-serif" font-size="5.33" lengthAdjust="spacing" textLength="283.72" x="512.295" y="481.8473">createApartment(area, distanceFromCentre, equipmentList, photoList, address, type of transaction, value of transaction,</text><text fill="#000000" font-family="sans-serif" font-size="5.33" lengthAdjust="spacing" textLength="217.71" x="513.935" y="487.8019">type of comission, comission amount, propertyType, bedrooms, bathrooms, parkingSpaces)</text><polygon fill="#181818" points="771.825,499.806,767.725,501.446,771.825,503.086,770.185,501.446" style="stroke:#181818;stroke-width:0.41;"/><line style="stroke:#181818;stroke-width:0.41;" x1="769.365" x2="806.265" y1="501.446" y2="501.446"/><text fill="#000000" font-family="sans-serif" font-size="5.33" font-weight="bold" lengthAdjust="spacing" textLength="5.74" x="774.285" y="499.4965">25</text><text fill="#000000" font-family="sans-serif" font-size="5.33" lengthAdjust="spacing" textLength="13.12" x="781.665" y="499.4965">super</text><polygon fill="#181818" points="711.145,511.5006,707.045,513.1406,711.145,514.7806,709.505,513.1406" style="stroke:#181818;stroke-width:0.41;"/><line style="stroke:#181818;stroke-width:0.41;" x1="708.685" x2="764.855" y1="513.1406" y2="513.1406"/><text fill="#000000" font-family="sans-serif" font-size="5.33" font-weight="bold" lengthAdjust="spacing" textLength="5.74" x="713.605" y="511.1911">26</text><text fill="#000000" font-family="sans-serif" font-size="5.33" lengthAdjust="spacing" textLength="13.12" x="720.985" y="511.1911">super</text><polygon fill="#181818" points="508.605,523.1952,504.505,524.8352,508.605,526.4752,506.965,524.8352" style="stroke:#181818;stroke-width:0.41;"/><line style="stroke:#181818;stroke-width:0.41;" x1="506.145" x2="704.175" y1="524.8352" y2="524.8352"/><text fill="#000000" font-family="sans-serif" font-size="5.33" font-weight="bold" lengthAdjust="spacing" textLength="5.74" x="511.065" y="522.8857">27</text><text fill="#000000" font-family="sans-serif" font-size="5.33" lengthAdjust="spacing" textLength="66.42" x="518.445" y="522.8857">getPropertyDetails(property)</text><polygon fill="#181818" points="887.855,534.8898,891.955,536.5298,887.855,538.1698,889.495,536.5298" style="stroke:#181818;stroke-width:0.41;"/><line style="stroke:#181818;stroke-width:0.41;" x1="502.045" x2="890.315" y1="536.5298" y2="536.5298"/><text fill="#000000" font-family="sans-serif" font-size="5.33" font-weight="bold" lengthAdjust="spacing" textLength="5.74" x="504.915" y="534.5803">28</text><text fill="#000000" font-family="sans-serif" font-size="5.33" lengthAdjust="spacing" textLength="35.67" x="512.295" y="534.5803">propertyDetails</text><path d="M4.1,545.5498 L29.11,545.5498 L29.11,548.2245 L25.01,552.3245 L4.1,552.3245 L4.1,545.5498 " fill="#EEEEEE" style="stroke:#000000;stroke-width:0.615;"/><rect fill="none" height="177.5588" style="stroke:#000000;stroke-width:0.615;" width="929.88" x="4.1" y="545.5498"/><text fill="#000000" font-family="sans-serif" font-size="5.33" font-weight="bold" lengthAdjust="spacing" textLength="6.56" x="10.25" y="550.785">alt</text><text fill="#000000" font-family="sans-serif" font-size="4.51" font-weight="bold" lengthAdjust="spacing" textLength="59.04" x="35.26" y="550.4526">[if propertyType is House]</text><polygon fill="#181818" points="279.825,565.0537,283.925,566.6937,279.825,568.3337,281.465,566.6937" style="stroke:#181818;stroke-width:0.41;"/><line style="stroke:#181818;stroke-width:0.41;" x1="19.065" x2="282.285" y1="566.6937" y2="566.6937"/><text fill="#000000" font-family="sans-serif" font-size="5.33" font-weight="bold" lengthAdjust="spacing" textLength="5.74" x="21.935" y="561.7669">29</text><text fill="#000000" font-family="sans-serif" font-size="5.33" lengthAdjust="spacing" textLength="206.23" x="29.315" y="558.7896">inputs requested data(area, distanceFromCentre, equipmentList, photoURI, street, city,</text><text fill="#000000" font-family="sans-serif" font-size="5.33" lengthAdjust="spacing" textLength="178.76" x="30.955" y="564.7442">district, state, zipCode, type of transaction, value of transaction, comission)</text><polygon fill="#181818" points="495.075,595.0029,499.175,596.6429,495.075,598.2829,496.715,596.6429" style="stroke:#181818;stroke-width:0.41;"/><line style="stroke:#181818;stroke-width:0.41;" x1="286.795" x2="497.535" y1="596.6429" y2="596.6429"/><text fill="#000000" font-family="sans-serif" font-size="5.33" font-weight="bold" lengthAdjust="spacing" textLength="5.74" x="289.665" y="591.7161">30</text><text fill="#000000" font-family="sans-serif" font-size="5.33" lengthAdjust="spacing" textLength="184.91" x="297.045" y="588.7388">createHouse(area, distanceFromCentre, equipmentList, photoURI, street, city,</text><text fill="#000000" font-family="sans-serif" font-size="5.33" lengthAdjust="spacing" textLength="178.76" x="298.685" y="594.6934">district, state, zipCode, type of transaction, value of transaction, comission)</text><rect fill="none" height="15.5512" style="stroke:#000000;stroke-width:0.615;" width="91.84" x="456.125" y="599.9229"/><path d="M456.125,599.9229 L481.545,599.9229 L481.545,602.3829 L477.445,606.4829 L456.125,606.4829 L456.125,599.9229 " fill="#EEEEEE" style="stroke:#000000;stroke-width:0.82;"/><text fill="#000000" font-family="sans-serif" font-size="5.33" font-weight="bold" lengthAdjust="spacing" textLength="6.97" x="461.455" y="605.568">ref</text><text fill="#000000" font-family="sans-serif" font-size="4.92" lengthAdjust="spacing" textLength="23.78" x="490.155" y="612.5768">get photos</text><rect fill="none" height="15.5512" style="stroke:#000000;stroke-width:0.615;" width="91.84" x="456.125" y="617.5241"/><path d="M456.125,617.5241 L481.545,617.5241 L481.545,619.9841 L477.445,624.0841 L456.125,624.0841 L456.125,617.5241 " fill="#EEEEEE" style="stroke:#000000;stroke-width:0.82;"/><text fill="#000000" font-family="sans-serif" font-size="5.33" font-weight="bold" lengthAdjust="spacing" textLength="6.97" x="461.455" y="623.1692">ref</text><text fill="#000000" font-family="sans-serif" font-size="4.92" lengthAdjust="spacing" textLength="27.06" x="488.515" y="630.178">get address</text><rect fill="none" height="15.5512" style="stroke:#000000;stroke-width:0.615;" width="91.84" x="456.125" y="635.1252"/><path d="M456.125,635.1252 L481.545,635.1252 L481.545,637.5852 L477.445,641.6852 L456.125,641.6852 L456.125,635.1252 " fill="#EEEEEE" style="stroke:#000000;stroke-width:0.82;"/><text fill="#000000" font-family="sans-serif" font-size="5.33" font-weight="bold" lengthAdjust="spacing" textLength="6.97" x="461.455" y="640.7703">ref</text><text fill="#000000" font-family="sans-serif" font-size="4.92" lengthAdjust="spacing" textLength="39.77" x="482.16" y="647.7792">getEquipmentList</text><polygon fill="#181818" points="832.71,671.4102,836.81,673.0502,832.71,674.6902,834.35,673.0502" style="stroke:#181818;stroke-width:0.41;"/><line style="stroke:#181818;stroke-width:0.41;" x1="502.045" x2="835.17" y1="673.0502" y2="673.0502"/><text fill="#000000" font-family="sans-serif" font-size="5.33" font-weight="bold" lengthAdjust="spacing" textLength="5.74" x="504.915" y="665.1461">31</text><text fill="#000000" font-family="sans-serif" font-size="5.33" lengthAdjust="spacing" textLength="204.18" x="512.295" y="659.1915">createHouse(area, distanceFromCentre, equipmentList, photoList, address,comission,</text><text fill="#000000" font-family="sans-serif" font-size="5.33" lengthAdjust="spacing" textLength="125.87" x="513.935" y="665.1461">propertyType, bedrooms, bathrooms, parkingSpaces,</text><text fill="#000000" font-family="sans-serif" font-size="5.33" lengthAdjust="spacing" textLength="69.7" x="513.935" y="671.1007">basement, loft, sunExposure)</text><polygon fill="#181818" points="771.825,683.1048,767.725,684.7448,771.825,686.3848,770.185,684.7448" style="stroke:#181818;stroke-width:0.41;"/><line style="stroke:#181818;stroke-width:0.41;" x1="769.365" x2="839.27" y1="684.7448" y2="684.7448"/><text fill="#000000" font-family="sans-serif" font-size="5.33" font-weight="bold" lengthAdjust="spacing" textLength="5.74" x="774.285" y="682.7953">32</text><text fill="#000000" font-family="sans-serif" font-size="5.33" lengthAdjust="spacing" textLength="13.12" x="781.665" y="682.7953">super</text><polygon fill="#181818" points="711.145,694.7995,707.045,696.4395,711.145,698.0795,709.505,696.4395" style="stroke:#181818;stroke-width:0.41;"/><line style="stroke:#181818;stroke-width:0.41;" x1="708.685" x2="764.855" y1="696.4395" y2="696.4395"/><text fill="#000000" font-family="sans-serif" font-size="5.33" font-weight="bold" lengthAdjust="spacing" textLength="5.74" x="713.605" y="694.49">33</text><text fill="#000000" font-family="sans-serif" font-size="5.33" lengthAdjust="spacing" textLength="13.12" x="720.985" y="694.49">super</text><polygon fill="#181818" points="508.605,706.4941,504.505,708.1341,508.605,709.7741,506.965,708.1341" style="stroke:#181818;stroke-width:0.41;"/><line style="stroke:#181818;stroke-width:0.41;" x1="506.145" x2="704.175" y1="708.1341" y2="708.1341"/><text fill="#000000" font-family="sans-serif" font-size="5.33" font-weight="bold" lengthAdjust="spacing" textLength="5.74" x="511.065" y="706.1846">34</text><text fill="#000000" font-family="sans-serif" font-size="5.33" lengthAdjust="spacing" textLength="66.42" x="518.445" y="706.1846">getPropertyDetails(property)</text><polygon fill="#181818" points="887.855,718.1887,891.955,719.8287,887.855,721.4687,889.495,719.8287" style="stroke:#181818;stroke-width:0.41;"/><line style="stroke:#181818;stroke-width:0.41;" x1="502.045" x2="890.315" y1="719.8287" y2="719.8287"/><text fill="#000000" font-family="sans-serif" font-size="5.33" font-weight="bold" lengthAdjust="spacing" textLength="5.74" x="504.915" y="717.8792">35</text><text fill="#000000" font-family="sans-serif" font-size="5.33" lengthAdjust="spacing" textLength="35.67" x="512.295" y="717.8792">propertyDetails</text><polygon fill="#181818" points="954.89,732.7533,958.99,734.3933,954.89,736.0333,956.53,734.3933" style="stroke:#181818;stroke-width:0.41;"/><line style="stroke:#181818;stroke-width:0.41;" x1="502.045" x2="957.35" y1="734.3933" y2="734.3933"/><text fill="#000000" font-family="sans-serif" font-size="5.33" font-weight="bold" lengthAdjust="spacing" textLength="5.74" x="504.915" y="732.4438">36</text><text fill="#000000" font-family="sans-serif" font-size="5.33" lengthAdjust="spacing" textLength="75.85" x="512.295" y="732.4438">displayPropertyDetails(property)</text><polygon fill="#181818" points="508.605,744.4479,504.505,746.0879,508.605,747.7279,506.965,746.0879" style="stroke:#181818;stroke-width:0.41;"/><line style="stroke:#181818;stroke-width:0.41;stroke-dasharray:2.0,2.0;" x1="506.145" x2="961.45" y1="746.0879" y2="746.0879"/><text fill="#000000" font-family="sans-serif" font-size="5.33" font-weight="bold" lengthAdjust="spacing" textLength="5.74" x="511.065" y="744.1384">37</text><text fill="#000000" font-family="sans-serif" font-size="5.33" lengthAdjust="spacing" textLength="35.67" x="518.445" y="744.1384">propertyDetails</text><polygon fill="#181818" points="293.355,756.1425,289.255,757.7825,293.355,759.4225,291.715,757.7825" style="stroke:#181818;stroke-width:0.41;"/><line style="stroke:#181818;stroke-width:0.41;stroke-dasharray:2.0,2.0;" x1="290.895" x2="501.635" y1="757.7825" y2="757.7825"/><text fill="#000000" font-family="sans-serif" font-size="5.33" font-weight="bold" lengthAdjust="spacing" textLength="5.74" x="295.815" y="755.833">38</text><text fill="#000000" font-family="sans-serif" font-size="5.33" lengthAdjust="spacing" textLength="32.8" x="303.195" y="755.833">ropertyDetails</text><polygon fill="#181818" points="21.525,767.8371,17.425,769.4771,21.525,771.1171,19.885,769.4771" style="stroke:#181818;stroke-width:0.41;"/><line style="stroke:#181818;stroke-width:0.41;stroke-dasharray:2.0,2.0;" x1="19.065" x2="284.335" y1="769.4771" y2="769.4771"/><text fill="#000000" font-family="sans-serif" font-size="5.33" font-weight="bold" lengthAdjust="spacing" textLength="5.74" x="23.985" y="767.5276">39</text><text fill="#000000" font-family="sans-serif" font-size="5.33" lengthAdjust="spacing" textLength="64.78" x="31.365" y="767.5276">displays success message</text><!--SRC=[rLZ1Rjms4BtpAmQ-r06K7_2XWEiag8403PAufrneQNPNi4Ig96Ld-_KTSIKj9P4KjLsWw1uCoHpEF0uVtvEaNqhHSCLhgAMG-K796i6e5faUHngUl_0zVZF72a5XRhZOLsw0Fl12lfLY3pjUQMICjqQAjdv6nTWlXx90s4bfdkLFndCZ5TpSxr6O6-0Qx1MZFARCouOB0pSF2hd1Uo5aAtAiQVpfqSO-FKu3xvQH3r8O9QiAbPrnlftDR9HiK9dZzsE3Nx6HkYHSnvjPL2xhKkjIYd38bpwHBJVSp68-Sr7OyUvYDlPRMrO5jSwE3pUpcFlkjXuxDjpDedwNhKOROQ_OF8dJ9MSvDgCpn5YtH-KhzRNV6yPWzXi3Q4FcOtOElF-Lnk2EahzeC19okr4Wy0suMsm-coRHrFEkKOhO7j- -Yu1pzXuyFwS8bGmoWX3iqNnn1ZLL3HODCyk78LnrtWKtJYzo5PW0WArrmCVsq_8VXf64zNlFp7BXtcBpLUUJkl5bU-kkBTgIDDvRpuGPB1O3vh0mmFRJYRaZ5PLlUWG3nejcUhmqLYJ76lXqMg2GdVA2sBXizXqX7wvnpHk1JUUj8Hk9vk7O59N2lrhKLE83Dpos0QHHpBdjDMqaRcMWt4qe06KlrE7baV6rLBh7W0KK1EAMar9bK9IQ33B7JsIb3pH9OGRDGHhvzFKn0qttQ3B8ItFCpisPhdO6Dh2mvM18bpsgUXBaRfaNmFuXRBWgSzCDKQ8C_YvfymeChccw8sk2FGbGk0FvIh3F0LbCtKcmJj2dB4NQqhMytboyA1JgPRAuKdIzXJkdpnRIP-fR1i6MzwMozIO6CC-8xs_qWjqMAs4UX07kTDk4Co_cZoFZ0n0BpHqZtF6nxfocZlL-GCFBIjyEH_NTjX9Ubh7mzhaF78v7z2WITkMSV4AyWE2S7-hWUh93SMNJ9RMiw_JtZzrtnONky4fnuG7lye3SqLk2a-cLL-tolm4QnmGEmbeTV_OCYjpOskHENTYNyygxNSswDofYYph-sVN6JfuyE3ZjwIEUiL1Irfgkk3dqbuIUNhJst-Wj3FNShCEgkbarKoGKedeAMyKrIMaXAhiNUCD7TwzPFFtgoyHCD0Qg3S9_AVTwc-ZTOCkH-o76w95U3jE0roHhNHb7WDAO1zkSA6f5ZW84X6_i9BLrU2tssT94B_ovnl7nzNewFgQVE234QmLohJdXgazTmmlNYwoxuJOxt4AE53iyVS7mIi0rBV4_Cy0K8qmqn9IFCd63jCt-__GiudbNyRuj7fZcXHTxuYPlZBsQNBKh4GFT1YZrKzrCYonV1uUzXBnJTtLiaYYyrHVjf6UkhJ9cKCbTn_vMVFpPIDqgN2VnskAZFhfePKGvJtrRyrDFsKZEfHzwmz8jDjrgaoqtsHMlQS6RYoPOyXMiUHl_lBAMJ5mlsg49vw-qX9aERbFnOxYteTmRZf6FAMSGqHLuCByFVQ3tVI1OuKC2Yd_Jy-5HQJl0BIqDMR7pyE5ylUqtN9C2v2IY6chwm_V8xEyV]--></g></svg>