<?xml version="1.0" encoding="us-ascii" standalone="no"?><svg xmlns="http://www.w3.org/2000/svg" xmlns:xlink="http://www.w3.org/1999/xlink" contentStyleType="text/css" height="1420px" preserveAspectRatio="none" style="width:2044px;height:1420px;background:#FFFFFF;" version="1.1" viewBox="0 0 2044 1420" width="2044px" zoomAndPan="magnify"><defs/><g><!--class Property--><g id="elem_Property"><rect
        fill="#F1F1F1" height="251.3281" id="Property" rx="2.5" ry="2.5" style="stroke:#181818;stroke-width:0.5;" width="195" x="237.5" y="460"/><ellipse cx="303.75" cy="476" fill="#ADD1B2" rx="11" ry="11" style="stroke:#181818;stroke-width:1.0;"/><path d="M306.5156,471.875 Q306.6719,471.6563 306.8594,471.5469 Q307.0469,471.4375 307.2656,471.4375 Q307.6406,471.4375 307.875,471.7031 Q308.1094,471.9531 308.1094,472.5625 L308.1094,474.0156 Q308.1094,474.625 307.875,474.8906 Q307.6406,475.1563 307.2656,475.1563 Q306.9219,475.1563 306.7188,474.9531 Q306.5156,474.7656 306.4063,474.25 Q306.3594,473.8906 306.1719,473.7031 Q305.8438,473.3281 305.2344,473.1094 Q304.625,472.8906 304,472.8906 Q303.2344,472.8906 302.5938,473.2188 Q301.9688,473.5469 301.4688,474.2969 Q300.9844,475.0469 300.9844,476.0781 L300.9844,477.1719 Q300.9844,478.4063 301.875,479.2344 Q302.7656,480.0469 304.3594,480.0469 Q305.2969,480.0469 305.9531,479.7969 Q306.3438,479.6406 306.7656,479.2031 Q307.0313,478.9375 307.1719,478.8594 Q307.3281,478.7813 307.5313,478.7813 Q307.8594,478.7813 308.1094,479.0469 Q308.375,479.2969 308.375,479.6406 Q308.375,479.9844 308.0313,480.3906 Q307.5313,480.9688 306.7344,481.2969 Q305.6563,481.75 304.3594,481.75 Q302.8438,481.75 301.6406,481.125 Q300.6563,480.625 299.9688,479.5625 Q299.2813,478.4844 299.2813,477.2031 L299.2813,476.0469 Q299.2813,474.7188 299.8906,473.5781 Q300.5156,472.4219 301.6094,471.8125 Q302.7031,471.1875 303.9375,471.1875 Q304.6719,471.1875 305.3125,471.3594 Q305.9688,471.5156 306.5156,471.875 Z " fill="#000000"/><text fill="#000000" font-family="sans-serif" font-size="14" lengthAdjust="spacing" textLength="54" x="324.25" y="480.8535">Property</text><line style="stroke:#181818;stroke-width:0.5;" x1="238.5" x2="431.5" y1="492" y2="492"/><text fill="#000000" font-family="sans-serif" font-size="14" lengthAdjust="spacing" textLength="152" x="243.5" y="508.6738">-Double areaOfProperty</text><text fill="#000000" font-family="sans-serif" font-size="14" lengthAdjust="spacing" textLength="183" x="243.5" y="524.3145">-Double distanceFromCentre</text><text fill="#000000" font-family="sans-serif" font-size="14" lengthAdjust="spacing" textLength="149" x="243.5" y="539.9551">-String acceptanceDate</text><text fill="#000000" font-family="sans-serif" font-size="14" lengthAdjust="spacing" textLength="124" x="243.5" y="555.5957">-String requestDate</text><text fill="#000000" font-family="sans-serif" font-size="14" lengthAdjust="spacing" textLength="4" x="243.5" y="571.2363">&#160;</text><text fill="#000000" font-family="sans-serif" font-size="14" lengthAdjust="spacing" textLength="132" x="243.5" y="586.877">+getAcceptanceDate</text><line style="stroke:#181818;stroke-width:0.5;" x1="238.5" x2="431.5" y1="593.8438" y2="593.8438"/><text fill="#000000" font-family="sans-serif" font-size="14" lengthAdjust="spacing" textLength="133" x="243.5" y="610.5176">-setAreaOfProperty()</text><text fill="#000000" font-family="sans-serif" font-size="14" lengthAdjust="spacing" textLength="165" x="243.5" y="626.1582">-setDistanceFromCentre()</text><text fill="#000000" font-family="sans-serif" font-size="14" lengthAdjust="spacing" textLength="117" x="243.5" y="641.7988">-setRequestDate()</text><text fill="#000000" font-family="sans-serif" font-size="14" lengthAdjust="spacing" textLength="138" x="243.5" y="657.4395">-setAcceptanceDate()</text><text fill="#000000" font-family="sans-serif" font-size="14" lengthAdjust="spacing" textLength="121" x="243.5" y="673.0801">+getRequestDate()</text><text fill="#000000" font-family="sans-serif" font-size="14" lengthAdjust="spacing" textLength="137" x="243.5" y="688.7207">+getAreaOfProperty()</text><text fill="#000000" font-family="sans-serif" font-size="14" lengthAdjust="spacing" textLength="169" x="243.5" y="704.3613">+getDistanceFromCentre()</text></g><!--class TypeOfTransaction--><g id="elem_TypeOfTransaction"><rect
        fill="#F1F1F1" height="235.6875" id="TypeOfTransaction" rx="2.5" ry="2.5" style="stroke:#181818;stroke-width:0.5;" width="164" x="7" y="139.5"/><ellipse cx="26.5" cy="155.5" fill="#ADD1B2" rx="11" ry="11" style="stroke:#181818;stroke-width:1.0;"/><path d="M29.2656,151.375 Q29.4219,151.1563 29.6094,151.0469 Q29.7969,150.9375 30.0156,150.9375 Q30.3906,150.9375 30.625,151.2031 Q30.8594,151.4531 30.8594,152.0625 L30.8594,153.5156 Q30.8594,154.125 30.625,154.3906 Q30.3906,154.6563 30.0156,154.6563 Q29.6719,154.6563 29.4688,154.4531 Q29.2656,154.2656 29.1563,153.75 Q29.1094,153.3906 28.9219,153.2031 Q28.5938,152.8281 27.9844,152.6094 Q27.375,152.3906 26.75,152.3906 Q25.9844,152.3906 25.3438,152.7188 Q24.7188,153.0469 24.2188,153.7969 Q23.7344,154.5469 23.7344,155.5781 L23.7344,156.6719 Q23.7344,157.9063 24.625,158.7344 Q25.5156,159.5469 27.1094,159.5469 Q28.0469,159.5469 28.7031,159.2969 Q29.0938,159.1406 29.5156,158.7031 Q29.7813,158.4375 29.9219,158.3594 Q30.0781,158.2813 30.2813,158.2813 Q30.6094,158.2813 30.8594,158.5469 Q31.125,158.7969 31.125,159.1406 Q31.125,159.4844 30.7813,159.8906 Q30.2813,160.4688 29.4844,160.7969 Q28.4063,161.25 27.1094,161.25 Q25.5938,161.25 24.3906,160.625 Q23.4063,160.125 22.7188,159.0625 Q22.0313,157.9844 22.0313,156.7031 L22.0313,155.5469 Q22.0313,154.2188 22.6406,153.0781 Q23.2656,151.9219 24.3594,151.3125 Q25.4531,150.6875 26.6875,150.6875 Q27.4219,150.6875 28.0625,150.8594 Q28.7188,151.0156 29.2656,151.375 Z " fill="#000000"/><text fill="#000000" font-family="sans-serif" font-size="14" lengthAdjust="spacing" textLength="122" x="41.5" y="160.3535">TypeOfTransaction</text><line style="stroke:#181818;stroke-width:0.5;" x1="8" x2="170" y1="171.5" y2="171.5"/><text fill="#000000" font-family="sans-serif" font-size="14" lengthAdjust="spacing" textLength="148" x="13" y="188.1738">-String transactionType</text><text fill="#000000" font-family="sans-serif" font-size="14" lengthAdjust="spacing" textLength="141" x="13" y="203.8145">-String monetaryValue</text><text fill="#000000" font-family="sans-serif" font-size="14" lengthAdjust="spacing" textLength="140" x="13" y="219.4551">-String comissionType</text><text fill="#000000" font-family="sans-serif" font-size="14" lengthAdjust="spacing" textLength="152" x="13" y="235.0957">-Double comissionValue</text><line style="stroke:#181818;stroke-width:0.5;" x1="8" x2="170" y1="242.0625" y2="242.0625"/><text fill="#000000" font-family="sans-serif" font-size="14" lengthAdjust="spacing" textLength="141" x="13" y="258.7363">-setTransactionType()</text><text fill="#000000" font-family="sans-serif" font-size="14" lengthAdjust="spacing" textLength="129" x="13" y="274.377">-setMonetaryValue()</text><text fill="#000000" font-family="sans-serif" font-size="14" lengthAdjust="spacing" textLength="131" x="13" y="290.0176">-setComissionType()</text><text fill="#000000" font-family="sans-serif" font-size="14" lengthAdjust="spacing" textLength="135" x="13" y="305.6582">-setComissionValue()</text><text fill="#000000" font-family="sans-serif" font-size="14" lengthAdjust="spacing" textLength="145" x="13" y="321.2988">+getTransactionType()</text><text fill="#000000" font-family="sans-serif" font-size="14" lengthAdjust="spacing" textLength="133" x="13" y="336.9395">+getMonetaryValue()</text><text fill="#000000" font-family="sans-serif" font-size="14" lengthAdjust="spacing" textLength="135" x="13" y="352.5801">+getComissionType()</text><text fill="#000000" font-family="sans-serif" font-size="14" lengthAdjust="spacing" textLength="139" x="13" y="368.2207">+getComissionValue()</text></g><!--class Address--><g id="elem_Address"><rect
        fill="#F1F1F1" height="282.6094" id="Address" rx="2.5" ry="2.5" style="stroke:#181818;stroke-width:0.5;" width="109" x="206.5" y="116"/><ellipse cx="232.75" cy="132" fill="#ADD1B2" rx="11" ry="11" style="stroke:#181818;stroke-width:1.0;"/><path d="M235.5156,127.875 Q235.6719,127.6563 235.8594,127.5469 Q236.0469,127.4375 236.2656,127.4375 Q236.6406,127.4375 236.875,127.7031 Q237.1094,127.9531 237.1094,128.5625 L237.1094,130.0156 Q237.1094,130.625 236.875,130.8906 Q236.6406,131.1563 236.2656,131.1563 Q235.9219,131.1563 235.7188,130.9531 Q235.5156,130.7656 235.4063,130.25 Q235.3594,129.8906 235.1719,129.7031 Q234.8438,129.3281 234.2344,129.1094 Q233.625,128.8906 233,128.8906 Q232.2344,128.8906 231.5938,129.2188 Q230.9688,129.5469 230.4688,130.2969 Q229.9844,131.0469 229.9844,132.0781 L229.9844,133.1719 Q229.9844,134.4063 230.875,135.2344 Q231.7656,136.0469 233.3594,136.0469 Q234.2969,136.0469 234.9531,135.7969 Q235.3438,135.6406 235.7656,135.2031 Q236.0313,134.9375 236.1719,134.8594 Q236.3281,134.7813 236.5313,134.7813 Q236.8594,134.7813 237.1094,135.0469 Q237.375,135.2969 237.375,135.6406 Q237.375,135.9844 237.0313,136.3906 Q236.5313,136.9688 235.7344,137.2969 Q234.6563,137.75 233.3594,137.75 Q231.8438,137.75 230.6406,137.125 Q229.6563,136.625 228.9688,135.5625 Q228.2813,134.4844 228.2813,133.2031 L228.2813,132.0469 Q228.2813,130.7188 228.8906,129.5781 Q229.5156,128.4219 230.6094,127.8125 Q231.7031,127.1875 232.9375,127.1875 Q233.6719,127.1875 234.3125,127.3594 Q234.9688,127.5156 235.5156,127.875 Z " fill="#000000"/><text fill="#000000" font-family="sans-serif" font-size="14" lengthAdjust="spacing" textLength="52" x="249.25" y="136.8535">Address</text><line style="stroke:#181818;stroke-width:0.5;" x1="207.5" x2="314.5" y1="148" y2="148"/><text fill="#000000" font-family="sans-serif" font-size="14" lengthAdjust="spacing" textLength="82" x="212.5" y="164.6738">-String street</text><text fill="#000000" font-family="sans-serif" font-size="14" lengthAdjust="spacing" textLength="67" x="212.5" y="180.3145">-String city</text><text fill="#000000" font-family="sans-serif" font-size="14" lengthAdjust="spacing" textLength="87" x="212.5" y="195.9551">-String district</text><text fill="#000000" font-family="sans-serif" font-size="14" lengthAdjust="spacing" textLength="77" x="212.5" y="211.5957">-String state</text><text fill="#000000" font-family="sans-serif" font-size="14" lengthAdjust="spacing" textLength="97" x="212.5" y="227.2363">-String zipCode</text><line style="stroke:#181818;stroke-width:0.5;" x1="207.5" x2="314.5" y1="234.2031" y2="234.2031"/><text fill="#000000" font-family="sans-serif" font-size="14" lengthAdjust="spacing" textLength="72" x="212.5" y="250.877">-setStreet()</text><text fill="#000000" font-family="sans-serif" font-size="14" lengthAdjust="spacing" textLength="58" x="212.5" y="266.5176">-setCity()</text><text fill="#000000" font-family="sans-serif" font-size="14" lengthAdjust="spacing" textLength="77" x="212.5" y="282.1582">-setDistrict()</text><text fill="#000000" font-family="sans-serif" font-size="14" lengthAdjust="spacing" textLength="67" x="212.5" y="297.7988">-setState()</text><text fill="#000000" font-family="sans-serif" font-size="14" lengthAdjust="spacing" textLength="87" x="212.5" y="313.4395">-setZipCode()</text><text fill="#000000" font-family="sans-serif" font-size="14" lengthAdjust="spacing" textLength="76" x="212.5" y="329.0801">+getStreet()</text><text fill="#000000" font-family="sans-serif" font-size="14" lengthAdjust="spacing" textLength="62" x="212.5" y="344.7207">+getCity()</text><text fill="#000000" font-family="sans-serif" font-size="14" lengthAdjust="spacing" textLength="81" x="212.5" y="360.3613">+getDistrict()</text><text fill="#000000" font-family="sans-serif" font-size="14" lengthAdjust="spacing" textLength="71" x="212.5" y="376.002">+getState()</text><text fill="#000000" font-family="sans-serif" font-size="14" lengthAdjust="spacing" textLength="91" x="212.5" y="391.6426">+getZipCode()</text></g><!--class PropertyTypeRepository--><g id="elem_PropertyTypeRepository"><rect
        fill="#F1F1F1" height="79.2813" id="PropertyTypeRepository" rx="2.5" ry="2.5" style="stroke:#181818;stroke-width:0.5;" width="186" x="968" y="1334"/><ellipse cx="983" cy="1350" fill="#ADD1B2" rx="11" ry="11" style="stroke:#181818;stroke-width:1.0;"/><path d="M985.7656,1345.875 Q985.9219,1345.6563 986.1094,1345.5469 Q986.2969,1345.4375 986.5156,1345.4375 Q986.8906,1345.4375 987.125,1345.7031 Q987.3594,1345.9531 987.3594,1346.5625 L987.3594,1348.0156 Q987.3594,1348.625 987.125,1348.8906 Q986.8906,1349.1563 986.5156,1349.1563 Q986.1719,1349.1563 985.9688,1348.9531 Q985.7656,1348.7656 985.6563,1348.25 Q985.6094,1347.8906 985.4219,1347.7031 Q985.0938,1347.3281 984.4844,1347.1094 Q983.875,1346.8906 983.25,1346.8906 Q982.4844,1346.8906 981.8438,1347.2188 Q981.2188,1347.5469 980.7188,1348.2969 Q980.2344,1349.0469 980.2344,1350.0781 L980.2344,1351.1719 Q980.2344,1352.4063 981.125,1353.2344 Q982.0156,1354.0469 983.6094,1354.0469 Q984.5469,1354.0469 985.2031,1353.7969 Q985.5938,1353.6406 986.0156,1353.2031 Q986.2813,1352.9375 986.4219,1352.8594 Q986.5781,1352.7813 986.7813,1352.7813 Q987.1094,1352.7813 987.3594,1353.0469 Q987.625,1353.2969 987.625,1353.6406 Q987.625,1353.9844 987.2813,1354.3906 Q986.7813,1354.9688 985.9844,1355.2969 Q984.9063,1355.75 983.6094,1355.75 Q982.0938,1355.75 980.8906,1355.125 Q979.9063,1354.625 979.2188,1353.5625 Q978.5313,1352.4844 978.5313,1351.2031 L978.5313,1350.0469 Q978.5313,1348.7188 979.1406,1347.5781 Q979.7656,1346.4219 980.8594,1345.8125 Q981.9531,1345.1875 983.1875,1345.1875 Q983.9219,1345.1875 984.5625,1345.3594 Q985.2188,1345.5156 985.7656,1345.875 Z " fill="#000000"/><text fill="#000000" font-family="sans-serif" font-size="14" lengthAdjust="spacing" textLength="154" x="997" y="1354.8535">PropertyTypeRepository</text><line style="stroke:#181818;stroke-width:0.5;" x1="969" x2="1153" y1="1366" y2="1366"/><line style="stroke:#181818;stroke-width:0.5;" x1="969" x2="1153" y1="1374" y2="1374"/><text fill="#000000" font-family="sans-serif" font-size="14" lengthAdjust="spacing" textLength="96" x="974" y="1390.6738">+addProperty()</text><text fill="#000000" font-family="sans-serif" font-size="14" lengthAdjust="spacing" textLength="124" x="974" y="1406.3145">+getPropertyType()</text></g><!--class Photo--><g id="elem_Photo"><rect
        fill="#F1F1F1" height="94.9219" id="Photo" rx="2.5" ry="2.5" style="stroke:#181818;stroke-width:0.5;" width="116" x="351" y="210"/><ellipse cx="387.15" cy="226" fill="#ADD1B2" rx="11" ry="11" style="stroke:#181818;stroke-width:1.0;"/><path d="M389.9156,221.875 Q390.0719,221.6563 390.2594,221.5469 Q390.4469,221.4375 390.6656,221.4375 Q391.0406,221.4375 391.275,221.7031 Q391.5094,221.9531 391.5094,222.5625 L391.5094,224.0156 Q391.5094,224.625 391.275,224.8906 Q391.0406,225.1563 390.6656,225.1563 Q390.3219,225.1563 390.1188,224.9531 Q389.9156,224.7656 389.8063,224.25 Q389.7594,223.8906 389.5719,223.7031 Q389.2438,223.3281 388.6344,223.1094 Q388.025,222.8906 387.4,222.8906 Q386.6344,222.8906 385.9938,223.2188 Q385.3688,223.5469 384.8688,224.2969 Q384.3844,225.0469 384.3844,226.0781 L384.3844,227.1719 Q384.3844,228.4063 385.275,229.2344 Q386.1656,230.0469 387.7594,230.0469 Q388.6969,230.0469 389.3531,229.7969 Q389.7438,229.6406 390.1656,229.2031 Q390.4313,228.9375 390.5719,228.8594 Q390.7281,228.7813 390.9313,228.7813 Q391.2594,228.7813 391.5094,229.0469 Q391.775,229.2969 391.775,229.6406 Q391.775,229.9844 391.4313,230.3906 Q390.9313,230.9688 390.1344,231.2969 Q389.0563,231.75 387.7594,231.75 Q386.2438,231.75 385.0406,231.125 Q384.0563,230.625 383.3688,229.5625 Q382.6813,228.4844 382.6813,227.2031 L382.6813,226.0469 Q382.6813,224.7188 383.2906,223.5781 Q383.9156,222.4219 385.0094,221.8125 Q386.1031,221.1875 387.3375,221.1875 Q388.0719,221.1875 388.7125,221.3594 Q389.3688,221.5156 389.9156,221.875 Z " fill="#000000"/><text fill="#000000" font-family="sans-serif" font-size="14" lengthAdjust="spacing" textLength="37" x="405.85" y="230.8535">Photo</text><line style="stroke:#181818;stroke-width:0.5;" x1="352" x2="466" y1="242" y2="242"/><text fill="#000000" font-family="sans-serif" font-size="14" lengthAdjust="spacing" textLength="102" x="357" y="258.6738">-Integer photoID</text><text fill="#000000" font-family="sans-serif" font-size="14" lengthAdjust="spacing" textLength="104" x="357" y="274.3145">-String photoURI</text><line style="stroke:#181818;stroke-width:0.5;" x1="352" x2="466" y1="281.2813" y2="281.2813"/><text fill="#000000" font-family="sans-serif" font-size="14" lengthAdjust="spacing" textLength="104" x="357" y="297.9551">+setPhotoData()</text></g><!--class Building--><g id="elem_Building"><rect
        fill="#F1F1F1" height="188.7656" id="Building" rx="2.5" ry="2.5" style="stroke:#181818;stroke-width:0.5;" width="159" x="77.5" y="803"/><ellipse cx="127.75" cy="819" fill="#ADD1B2" rx="11" ry="11" style="stroke:#181818;stroke-width:1.0;"/><path d="M130.5156,814.875 Q130.6719,814.6563 130.8594,814.5469 Q131.0469,814.4375 131.2656,814.4375 Q131.6406,814.4375 131.875,814.7031 Q132.1094,814.9531 132.1094,815.5625 L132.1094,817.0156 Q132.1094,817.625 131.875,817.8906 Q131.6406,818.1563 131.2656,818.1563 Q130.9219,818.1563 130.7188,817.9531 Q130.5156,817.7656 130.4063,817.25 Q130.3594,816.8906 130.1719,816.7031 Q129.8438,816.3281 129.2344,816.1094 Q128.625,815.8906 128,815.8906 Q127.2344,815.8906 126.5938,816.2188 Q125.9688,816.5469 125.4688,817.2969 Q124.9844,818.0469 124.9844,819.0781 L124.9844,820.1719 Q124.9844,821.4063 125.875,822.2344 Q126.7656,823.0469 128.3594,823.0469 Q129.2969,823.0469 129.9531,822.7969 Q130.3438,822.6406 130.7656,822.2031 Q131.0313,821.9375 131.1719,821.8594 Q131.3281,821.7813 131.5313,821.7813 Q131.8594,821.7813 132.1094,822.0469 Q132.375,822.2969 132.375,822.6406 Q132.375,822.9844 132.0313,823.3906 Q131.5313,823.9688 130.7344,824.2969 Q129.6563,824.75 128.3594,824.75 Q126.8438,824.75 125.6406,824.125 Q124.6563,823.625 123.9688,822.5625 Q123.2813,821.4844 123.2813,820.2031 L123.2813,819.0469 Q123.2813,817.7188 123.8906,816.5781 Q124.5156,815.4219 125.6094,814.8125 Q126.7031,814.1875 127.9375,814.1875 Q128.6719,814.1875 129.3125,814.3594 Q129.9688,814.5156 130.5156,814.875 Z " fill="#000000"/><text fill="#000000" font-family="sans-serif" font-size="14" lengthAdjust="spacing" textLength="50" x="148.25" y="823.8535">Building</text><line style="stroke:#181818;stroke-width:0.5;" x1="78.5" x2="235.5" y1="835" y2="835"/><text fill="#000000" font-family="sans-serif" font-size="14" lengthAdjust="spacing" textLength="116" x="83.5" y="851.6738">-Integer bedrooms</text><text fill="#000000" font-family="sans-serif" font-size="14" lengthAdjust="spacing" textLength="120" x="83.5" y="867.3145">-Integer bathrooms</text><text fill="#000000" font-family="sans-serif" font-size="14" lengthAdjust="spacing" textLength="147" x="83.5" y="882.9551">-Integer parkingSpaces</text><line style="stroke:#181818;stroke-width:0.5;" x1="78.5" x2="235.5" y1="889.9219" y2="889.9219"/><text fill="#000000" font-family="sans-serif" font-size="14" lengthAdjust="spacing" textLength="98" x="83.5" y="906.5957">-setBedrooms()</text><text fill="#000000" font-family="sans-serif" font-size="14" lengthAdjust="spacing" textLength="102" x="83.5" y="922.2363">-setBathrooms()</text><text fill="#000000" font-family="sans-serif" font-size="14" lengthAdjust="spacing" textLength="129" x="83.5" y="937.877">-setParkingSpaces()</text><text fill="#000000" font-family="sans-serif" font-size="14" lengthAdjust="spacing" textLength="102" x="83.5" y="953.5176">+getBedrooms()</text><text fill="#000000" font-family="sans-serif" font-size="14" lengthAdjust="spacing" textLength="106" x="83.5" y="969.1582">+getBathrooms()</text><text fill="#000000" font-family="sans-serif" font-size="14" lengthAdjust="spacing" textLength="133" x="83.5" y="984.7988">+getParkingSpaces()</text></g><!--class Equipment--><g id="elem_Equipment"><rect
        fill="#F1F1F1" height="94.9219" id="Equipment" rx="2.5" ry="2.5" style="stroke:#181818;stroke-width:0.5;" width="153" x="49.5" y="538"/><ellipse cx="88.8" cy="554" fill="#ADD1B2" rx="11" ry="11" style="stroke:#181818;stroke-width:1.0;"/><path d="M91.5656,549.875 Q91.7219,549.6563 91.9094,549.5469 Q92.0969,549.4375 92.3156,549.4375 Q92.6906,549.4375 92.925,549.7031 Q93.1594,549.9531 93.1594,550.5625 L93.1594,552.0156 Q93.1594,552.625 92.925,552.8906 Q92.6906,553.1563 92.3156,553.1563 Q91.9719,553.1563 91.7688,552.9531 Q91.5656,552.7656 91.4563,552.25 Q91.4094,551.8906 91.2219,551.7031 Q90.8938,551.3281 90.2844,551.1094 Q89.675,550.8906 89.05,550.8906 Q88.2844,550.8906 87.6438,551.2188 Q87.0188,551.5469 86.5188,552.2969 Q86.0344,553.0469 86.0344,554.0781 L86.0344,555.1719 Q86.0344,556.4063 86.925,557.2344 Q87.8156,558.0469 89.4094,558.0469 Q90.3469,558.0469 91.0031,557.7969 Q91.3938,557.6406 91.8156,557.2031 Q92.0813,556.9375 92.2219,556.8594 Q92.3781,556.7813 92.5813,556.7813 Q92.9094,556.7813 93.1594,557.0469 Q93.425,557.2969 93.425,557.6406 Q93.425,557.9844 93.0813,558.3906 Q92.5813,558.9688 91.7844,559.2969 Q90.7063,559.75 89.4094,559.75 Q87.8938,559.75 86.6906,559.125 Q85.7063,558.625 85.0188,557.5625 Q84.3313,556.4844 84.3313,555.2031 L84.3313,554.0469 Q84.3313,552.7188 84.9406,551.5781 Q85.5656,550.4219 86.6594,549.8125 Q87.7531,549.1875 88.9875,549.1875 Q89.7219,549.1875 90.3625,549.3594 Q91.0188,549.5156 91.5656,549.875 Z " fill="#000000"/><text fill="#000000" font-family="sans-serif" font-size="14" lengthAdjust="spacing" textLength="67" x="108.2" y="558.8535">Equipment</text><line style="stroke:#181818;stroke-width:0.5;" x1="50.5" x2="201.5" y1="570" y2="570"/><text fill="#000000" font-family="sans-serif" font-size="14" lengthAdjust="spacing" textLength="81" x="55.5" y="586.6738">-String name</text><line style="stroke:#181818;stroke-width:0.5;" x1="50.5" x2="201.5" y1="593.6406" y2="593.6406"/><text fill="#000000" font-family="sans-serif" font-size="14" lengthAdjust="spacing" textLength="137" x="55.5" y="610.3145">-setEquipmentName()</text><text fill="#000000" font-family="sans-serif" font-size="14" lengthAdjust="spacing" textLength="141" x="55.5" y="625.9551">+getEquipmentName()</text></g><!--class House--><g id="elem_House"><rect
        fill="#F1F1F1" height="188.7656" id="House" rx="2.5" ry="2.5" style="stroke:#181818;stroke-width:0.5;" width="140" x="10" y="1084"/><ellipse cx="55.75" cy="1100" fill="#ADD1B2" rx="11" ry="11" style="stroke:#181818;stroke-width:1.0;"/><path d="M58.5156,1095.875 Q58.6719,1095.6563 58.8594,1095.5469 Q59.0469,1095.4375 59.2656,1095.4375 Q59.6406,1095.4375 59.875,1095.7031 Q60.1094,1095.9531 60.1094,1096.5625 L60.1094,1098.0156 Q60.1094,1098.625 59.875,1098.8906 Q59.6406,1099.1563 59.2656,1099.1563 Q58.9219,1099.1563 58.7188,1098.9531 Q58.5156,1098.7656 58.4063,1098.25 Q58.3594,1097.8906 58.1719,1097.7031 Q57.8438,1097.3281 57.2344,1097.1094 Q56.625,1096.8906 56,1096.8906 Q55.2344,1096.8906 54.5938,1097.2188 Q53.9688,1097.5469 53.4688,1098.2969 Q52.9844,1099.0469 52.9844,1100.0781 L52.9844,1101.1719 Q52.9844,1102.4063 53.875,1103.2344 Q54.7656,1104.0469 56.3594,1104.0469 Q57.2969,1104.0469 57.9531,1103.7969 Q58.3438,1103.6406 58.7656,1103.2031 Q59.0313,1102.9375 59.1719,1102.8594 Q59.3281,1102.7813 59.5313,1102.7813 Q59.8594,1102.7813 60.1094,1103.0469 Q60.375,1103.2969 60.375,1103.6406 Q60.375,1103.9844 60.0313,1104.3906 Q59.5313,1104.9688 58.7344,1105.2969 Q57.6563,1105.75 56.3594,1105.75 Q54.8438,1105.75 53.6406,1105.125 Q52.6563,1104.625 51.9688,1103.5625 Q51.2813,1102.4844 51.2813,1101.2031 L51.2813,1100.0469 Q51.2813,1098.7188 51.8906,1097.5781 Q52.5156,1096.4219 53.6094,1095.8125 Q54.7031,1095.1875 55.9375,1095.1875 Q56.6719,1095.1875 57.3125,1095.3594 Q57.9688,1095.5156 58.5156,1095.875 Z " fill="#000000"/><text fill="#000000" font-family="sans-serif" font-size="14" lengthAdjust="spacing" textLength="40" x="76.25" y="1104.8535">House</text><line style="stroke:#181818;stroke-width:0.5;" x1="11" x2="149" y1="1116" y2="1116"/><text fill="#000000" font-family="sans-serif" font-size="14" lengthAdjust="spacing" textLength="123" x="16" y="1132.6738">-Boolean basement</text><text fill="#000000" font-family="sans-serif" font-size="14" lengthAdjust="spacing" textLength="80" x="16" y="1148.3145">-Boolean loft</text><text fill="#000000" font-family="sans-serif" font-size="14" lengthAdjust="spacing" textLength="128" x="16" y="1163.9551">-String sunExposure</text><line style="stroke:#181818;stroke-width:0.5;" x1="11" x2="149" y1="1170.9219" y2="1170.9219"/><text fill="#000000" font-family="sans-serif" font-size="14" lengthAdjust="spacing" textLength="97" x="16" y="1187.5957">-setBasement()</text><text fill="#000000" font-family="sans-serif" font-size="14" lengthAdjust="spacing" textLength="58" x="16" y="1203.2363">-setLoft()</text><text fill="#000000" font-family="sans-serif" font-size="14" lengthAdjust="spacing" textLength="118" x="16" y="1218.877">-setSunExposure()</text><text fill="#000000" font-family="sans-serif" font-size="14" lengthAdjust="spacing" textLength="101" x="16" y="1234.5176">+getBasement()</text><text fill="#000000" font-family="sans-serif" font-size="14" lengthAdjust="spacing" textLength="62" x="16" y="1250.1582">+getLoft()</text><text fill="#000000" font-family="sans-serif" font-size="14" lengthAdjust="spacing" textLength="122" x="16" y="1265.7988">+getSunExposure()</text></g><!--class ComissionRepository--><g id="elem_ComissionRepository"><rect
        fill="#F1F1F1" height="79.2813" id="ComissionRepository" rx="2.5" ry="2.5" style="stroke:#181818;stroke-width:0.5;" width="165" x="1480.5" y="1334"/><ellipse cx="1495.5" cy="1350" fill="#ADD1B2" rx="11" ry="11" style="stroke:#181818;stroke-width:1.0;"/><path d="M1498.2656,1345.875 Q1498.4219,1345.6563 1498.6094,1345.5469 Q1498.7969,1345.4375 1499.0156,1345.4375 Q1499.3906,1345.4375 1499.625,1345.7031 Q1499.8594,1345.9531 1499.8594,1346.5625 L1499.8594,1348.0156 Q1499.8594,1348.625 1499.625,1348.8906 Q1499.3906,1349.1563 1499.0156,1349.1563 Q1498.6719,1349.1563 1498.4688,1348.9531 Q1498.2656,1348.7656 1498.1563,1348.25 Q1498.1094,1347.8906 1497.9219,1347.7031 Q1497.5938,1347.3281 1496.9844,1347.1094 Q1496.375,1346.8906 1495.75,1346.8906 Q1494.9844,1346.8906 1494.3438,1347.2188 Q1493.7188,1347.5469 1493.2188,1348.2969 Q1492.7344,1349.0469 1492.7344,1350.0781 L1492.7344,1351.1719 Q1492.7344,1352.4063 1493.625,1353.2344 Q1494.5156,1354.0469 1496.1094,1354.0469 Q1497.0469,1354.0469 1497.7031,1353.7969 Q1498.0938,1353.6406 1498.5156,1353.2031 Q1498.7813,1352.9375 1498.9219,1352.8594 Q1499.0781,1352.7813 1499.2813,1352.7813 Q1499.6094,1352.7813 1499.8594,1353.0469 Q1500.125,1353.2969 1500.125,1353.6406 Q1500.125,1353.9844 1499.7813,1354.3906 Q1499.2813,1354.9688 1498.4844,1355.2969 Q1497.4063,1355.75 1496.1094,1355.75 Q1494.5938,1355.75 1493.3906,1355.125 Q1492.4063,1354.625 1491.7188,1353.5625 Q1491.0313,1352.4844 1491.0313,1351.2031 L1491.0313,1350.0469 Q1491.0313,1348.7188 1491.6406,1347.5781 Q1492.2656,1346.4219 1493.3594,1345.8125 Q1494.4531,1345.1875 1495.6875,1345.1875 Q1496.4219,1345.1875 1497.0625,1345.3594 Q1497.7188,1345.5156 1498.2656,1345.875 Z " fill="#000000"/><text fill="#000000" font-family="sans-serif" font-size="14" lengthAdjust="spacing" textLength="133" x="1509.5" y="1354.8535">ComissionRepository</text><line style="stroke:#181818;stroke-width:0.5;" x1="1481.5" x2="1644.5" y1="1366" y2="1366"/><line style="stroke:#181818;stroke-width:0.5;" x1="1481.5" x2="1644.5" y1="1374" y2="1374"/><text fill="#000000" font-family="sans-serif" font-size="14" lengthAdjust="spacing" textLength="107" x="1486.5" y="1390.6738">+addComission()</text><text fill="#000000" font-family="sans-serif" font-size="14" lengthAdjust="spacing" textLength="103" x="1486.5" y="1406.3145">+getComission()</text></g><!--class Owner--><g id="elem_Owner"><rect
        fill="#F1F1F1" height="251.3281" id="Owner" rx="2.5" ry="2.5" style="stroke:#181818;stroke-width:0.5;" width="177" x="1456.5" y="772"/><ellipse cx="1520.25" cy="788" fill="#ADD1B2" rx="11" ry="11" style="stroke:#181818;stroke-width:1.0;"/><path d="M1523.0156,783.875 Q1523.1719,783.6563 1523.3594,783.5469 Q1523.5469,783.4375 1523.7656,783.4375 Q1524.1406,783.4375 1524.375,783.7031 Q1524.6094,783.9531 1524.6094,784.5625 L1524.6094,786.0156 Q1524.6094,786.625 1524.375,786.8906 Q1524.1406,787.1563 1523.7656,787.1563 Q1523.4219,787.1563 1523.2188,786.9531 Q1523.0156,786.7656 1522.9063,786.25 Q1522.8594,785.8906 1522.6719,785.7031 Q1522.3438,785.3281 1521.7344,785.1094 Q1521.125,784.8906 1520.5,784.8906 Q1519.7344,784.8906 1519.0938,785.2188 Q1518.4688,785.5469 1517.9688,786.2969 Q1517.4844,787.0469 1517.4844,788.0781 L1517.4844,789.1719 Q1517.4844,790.4063 1518.375,791.2344 Q1519.2656,792.0469 1520.8594,792.0469 Q1521.7969,792.0469 1522.4531,791.7969 Q1522.8438,791.6406 1523.2656,791.2031 Q1523.5313,790.9375 1523.6719,790.8594 Q1523.8281,790.7813 1524.0313,790.7813 Q1524.3594,790.7813 1524.6094,791.0469 Q1524.875,791.2969 1524.875,791.6406 Q1524.875,791.9844 1524.5313,792.3906 Q1524.0313,792.9688 1523.2344,793.2969 Q1522.1563,793.75 1520.8594,793.75 Q1519.3438,793.75 1518.1406,793.125 Q1517.1563,792.625 1516.4688,791.5625 Q1515.7813,790.4844 1515.7813,789.2031 L1515.7813,788.0469 Q1515.7813,786.7188 1516.3906,785.5781 Q1517.0156,784.4219 1518.1094,783.8125 Q1519.2031,783.1875 1520.4375,783.1875 Q1521.1719,783.1875 1521.8125,783.3594 Q1522.4688,783.5156 1523.0156,783.875 Z " fill="#000000"/><text fill="#000000" font-family="sans-serif" font-size="14" lengthAdjust="spacing" textLength="41" x="1540.75" y="792.8535">Owner</text><line style="stroke:#181818;stroke-width:0.5;" x1="1457.5" x2="1632.5" y1="804" y2="804"/><text fill="#000000" font-family="sans-serif" font-size="14" lengthAdjust="spacing" textLength="81" x="1462.5" y="820.6738">-String name</text><text fill="#000000" font-family="sans-serif" font-size="14" lengthAdjust="spacing" textLength="120" x="1462.5" y="836.3145">-Integer taxNumber</text><text fill="#000000" font-family="sans-serif" font-size="14" lengthAdjust="spacing" textLength="131" x="1462.5" y="851.9551">-String emailAddress</text><text fill="#000000" font-family="sans-serif" font-size="14" lengthAdjust="spacing" textLength="165" x="1462.5" y="867.5957">-Integer telephoneNumber</text><line style="stroke:#181818;stroke-width:0.5;" x1="1457.5" x2="1632.5" y1="874.5625" y2="874.5625"/><text fill="#000000" font-family="sans-serif" font-size="14" lengthAdjust="spacing" textLength="155" x="1462.5" y="891.2363">+getTelephoneNumber()</text><text fill="#000000" font-family="sans-serif" font-size="14" lengthAdjust="spacing" textLength="124" x="1462.5" y="906.877">+getEmailAddress()</text><text fill="#000000" font-family="sans-serif" font-size="14" lengthAdjust="spacing" textLength="110" x="1462.5" y="922.5176">+getTaxNumber()</text><text fill="#000000" font-family="sans-serif" font-size="14" lengthAdjust="spacing" textLength="74" x="1462.5" y="938.1582">+getName()</text><text fill="#000000" font-family="sans-serif" font-size="14" lengthAdjust="spacing" textLength="151" x="1462.5" y="953.7988">-setTelephoneNumber()</text><text fill="#000000" font-family="sans-serif" font-size="14" lengthAdjust="spacing" textLength="4" x="1462.5" y="969.4395">&#160;</text><text fill="#000000" font-family="sans-serif" font-size="14" lengthAdjust="spacing" textLength="120" x="1462.5" y="985.0801">-setEmailAddress()</text><text fill="#000000" font-family="sans-serif" font-size="14" lengthAdjust="spacing" textLength="106" x="1462.5" y="1000.7207">-setTaxNumber()</text><text fill="#000000" font-family="sans-serif" font-size="14" lengthAdjust="spacing" textLength="70" x="1462.5" y="1016.3613">-setName()</text></g><!--class CreateAnnouncementController--><g id="elem_CreateAnnouncementController"><rect
        fill="#F1F1F1" height="94.9219" id="CreateAnnouncementController" rx="2.5" ry="2.5" style="stroke:#181818;stroke-width:0.5;" width="1535" x="502.5" y="210"/><ellipse cx="1165.75" cy="226" fill="#ADD1B2" rx="11" ry="11" style="stroke:#181818;stroke-width:1.0;"/><path d="M1168.5156,221.875 Q1168.6719,221.6563 1168.8594,221.5469 Q1169.0469,221.4375 1169.2656,221.4375 Q1169.6406,221.4375 1169.875,221.7031 Q1170.1094,221.9531 1170.1094,222.5625 L1170.1094,224.0156 Q1170.1094,224.625 1169.875,224.8906 Q1169.6406,225.1563 1169.2656,225.1563 Q1168.9219,225.1563 1168.7188,224.9531 Q1168.5156,224.7656 1168.4063,224.25 Q1168.3594,223.8906 1168.1719,223.7031 Q1167.8438,223.3281 1167.2344,223.1094 Q1166.625,222.8906 1166,222.8906 Q1165.2344,222.8906 1164.5938,223.2188 Q1163.9688,223.5469 1163.4688,224.2969 Q1162.9844,225.0469 1162.9844,226.0781 L1162.9844,227.1719 Q1162.9844,228.4063 1163.875,229.2344 Q1164.7656,230.0469 1166.3594,230.0469 Q1167.2969,230.0469 1167.9531,229.7969 Q1168.3438,229.6406 1168.7656,229.2031 Q1169.0313,228.9375 1169.1719,228.8594 Q1169.3281,228.7813 1169.5313,228.7813 Q1169.8594,228.7813 1170.1094,229.0469 Q1170.375,229.2969 1170.375,229.6406 Q1170.375,229.9844 1170.0313,230.3906 Q1169.5313,230.9688 1168.7344,231.2969 Q1167.6563,231.75 1166.3594,231.75 Q1164.8438,231.75 1163.6406,231.125 Q1162.6563,230.625 1161.9688,229.5625 Q1161.2813,228.4844 1161.2813,227.2031 L1161.2813,226.0469 Q1161.2813,224.7188 1161.8906,223.5781 Q1162.5156,222.4219 1163.6094,221.8125 Q1164.7031,221.1875 1165.9375,221.1875 Q1166.6719,221.1875 1167.3125,221.3594 Q1167.9688,221.5156 1168.5156,221.875 Z " fill="#000000"/><text fill="#000000" font-family="sans-serif" font-size="14" lengthAdjust="spacing" textLength="200" x="1186.25" y="230.8535">CreateAnnouncementController</text><line style="stroke:#181818;stroke-width:0.5;" x1="503.5" x2="2036.5" y1="242" y2="242"/><line style="stroke:#181818;stroke-width:0.5;" x1="503.5" x2="2036.5" y1="250" y2="250"/><text fill="#000000" font-family="sans-serif" font-size="14" lengthAdjust="spacing" textLength="998" x="508.5" y="266.6738">+createLand(owner, requestDate, acceptanceDate, area, distanceFromCentre, photoURI, street, city, district, state, zipCode, transactionType, monetaryValue)</text><text fill="#000000" font-family="sans-serif" font-size="14" lengthAdjust="spacing" textLength="1275" x="508.5" y="282.3145">+createApartment(owner, requestDate, acceptanceDate, area, distanceFromCentre, photoURI, street, city, district, state, zipCode, transactionType, monetaryValue,bedrooms, bathrooms, parkingSpaces)</text><text fill="#000000" font-family="sans-serif" font-size="14" lengthAdjust="spacing" textLength="1523" x="508.5" y="297.9551">+createHouse(owner, requestDate, acceptanceDate, area, distanceFromCentre, url of the photo, street, city, district, state, zipCode, type of transaction, value of transaction, bedrooms, bathrooms, parkingSpaces, basement, loft, sunExposure)</text></g><!--class AnnouncementRepository--><g id="elem_AnnouncementRepository"><rect
        fill="#F1F1F1" height="79.2813" id="AnnouncementRepository" rx="2.5" ry="2.5" style="stroke:#181818;stroke-width:0.5;" width="256" x="1189" y="1334"/><ellipse cx="1231.45" cy="1350" fill="#ADD1B2" rx="11" ry="11" style="stroke:#181818;stroke-width:1.0;"/><path d="M1234.2156,1345.875 Q1234.3719,1345.6563 1234.5594,1345.5469 Q1234.7469,1345.4375 1234.9656,1345.4375 Q1235.3406,1345.4375 1235.575,1345.7031 Q1235.8094,1345.9531 1235.8094,1346.5625 L1235.8094,1348.0156 Q1235.8094,1348.625 1235.575,1348.8906 Q1235.3406,1349.1563 1234.9656,1349.1563 Q1234.6219,1349.1563 1234.4188,1348.9531 Q1234.2156,1348.7656 1234.1063,1348.25 Q1234.0594,1347.8906 1233.8719,1347.7031 Q1233.5438,1347.3281 1232.9344,1347.1094 Q1232.325,1346.8906 1231.7,1346.8906 Q1230.9344,1346.8906 1230.2938,1347.2188 Q1229.6688,1347.5469 1229.1688,1348.2969 Q1228.6844,1349.0469 1228.6844,1350.0781 L1228.6844,1351.1719 Q1228.6844,1352.4063 1229.575,1353.2344 Q1230.4656,1354.0469 1232.0594,1354.0469 Q1232.9969,1354.0469 1233.6531,1353.7969 Q1234.0438,1353.6406 1234.4656,1353.2031 Q1234.7313,1352.9375 1234.8719,1352.8594 Q1235.0281,1352.7813 1235.2313,1352.7813 Q1235.5594,1352.7813 1235.8094,1353.0469 Q1236.075,1353.2969 1236.075,1353.6406 Q1236.075,1353.9844 1235.7313,1354.3906 Q1235.2313,1354.9688 1234.4344,1355.2969 Q1233.3563,1355.75 1232.0594,1355.75 Q1230.5438,1355.75 1229.3406,1355.125 Q1228.3563,1354.625 1227.6688,1353.5625 Q1226.9813,1352.4844 1226.9813,1351.2031 L1226.9813,1350.0469 Q1226.9813,1348.7188 1227.5906,1347.5781 Q1228.2156,1346.4219 1229.3094,1345.8125 Q1230.4031,1345.1875 1231.6375,1345.1875 Q1232.3719,1345.1875 1233.0125,1345.3594 Q1233.6688,1345.5156 1234.2156,1345.875 Z " fill="#000000"/><text fill="#000000" font-family="sans-serif" font-size="14" lengthAdjust="spacing" textLength="163" x="1251.55" y="1354.8535">AnnouncementRepository</text><line style="stroke:#181818;stroke-width:0.5;" x1="1190" x2="1444" y1="1366" y2="1366"/><line style="stroke:#181818;stroke-width:0.5;" x1="1190" x2="1444" y1="1374" y2="1374"/><text fill="#000000" font-family="sans-serif" font-size="14" lengthAdjust="spacing" textLength="133" x="1195" y="1390.6738">+getAnnouncement()</text><text fill="#000000" font-family="sans-serif" font-size="14" lengthAdjust="spacing" textLength="244" x="1195" y="1406.3145">+addPropertyAnnouncement(property)</text></g><!--class Land--><g id="elem_Land"><rect
        fill="#F1F1F1" height="48" id="Land" rx="2.5" ry="2.5" style="stroke:#181818;stroke-width:0.5;" width="64" x="303" y="873.5"/><ellipse cx="318" cy="889.5" fill="#ADD1B2" rx="11" ry="11" style="stroke:#181818;stroke-width:1.0;"/><path d="M320.7656,885.375 Q320.9219,885.1563 321.1094,885.0469 Q321.2969,884.9375 321.5156,884.9375 Q321.8906,884.9375 322.125,885.2031 Q322.3594,885.4531 322.3594,886.0625 L322.3594,887.5156 Q322.3594,888.125 322.125,888.3906 Q321.8906,888.6563 321.5156,888.6563 Q321.1719,888.6563 320.9688,888.4531 Q320.7656,888.2656 320.6563,887.75 Q320.6094,887.3906 320.4219,887.2031 Q320.0938,886.8281 319.4844,886.6094 Q318.875,886.3906 318.25,886.3906 Q317.4844,886.3906 316.8438,886.7188 Q316.2188,887.0469 315.7188,887.7969 Q315.2344,888.5469 315.2344,889.5781 L315.2344,890.6719 Q315.2344,891.9063 316.125,892.7344 Q317.0156,893.5469 318.6094,893.5469 Q319.5469,893.5469 320.2031,893.2969 Q320.5938,893.1406 321.0156,892.7031 Q321.2813,892.4375 321.4219,892.3594 Q321.5781,892.2813 321.7813,892.2813 Q322.1094,892.2813 322.3594,892.5469 Q322.625,892.7969 322.625,893.1406 Q322.625,893.4844 322.2813,893.8906 Q321.7813,894.4688 320.9844,894.7969 Q319.9063,895.25 318.6094,895.25 Q317.0938,895.25 315.8906,894.625 Q314.9063,894.125 314.2188,893.0625 Q313.5313,891.9844 313.5313,890.7031 L313.5313,889.5469 Q313.5313,888.2188 314.1406,887.0781 Q314.7656,885.9219 315.8594,885.3125 Q316.9531,884.6875 318.1875,884.6875 Q318.9219,884.6875 319.5625,884.8594 Q320.2188,885.0156 320.7656,885.375 Z " fill="#000000"/><text fill="#000000" font-family="sans-serif" font-size="14" lengthAdjust="spacing" textLength="32" x="332" y="894.3535">Land</text><line style="stroke:#181818;stroke-width:0.5;" x1="304" x2="366" y1="905.5" y2="905.5"/><line style="stroke:#181818;stroke-width:0.5;" x1="304" x2="366" y1="913.5" y2="913.5"/></g><!--class PassportCard--><g id="elem_PassportCard"><rect
        fill="#F1F1F1" height="94.9219" id="PassportCard" rx="2.5" ry="2.5" style="stroke:#181818;stroke-width:0.5;" width="155" x="1467.5" y="1131"/><ellipse cx="1498.7" cy="1147" fill="#ADD1B2" rx="11" ry="11" style="stroke:#181818;stroke-width:1.0;"/><path d="M1501.4656,1142.875 Q1501.6219,1142.6563 1501.8094,1142.5469 Q1501.9969,1142.4375 1502.2156,1142.4375 Q1502.5906,1142.4375 1502.825,1142.7031 Q1503.0594,1142.9531 1503.0594,1143.5625 L1503.0594,1145.0156 Q1503.0594,1145.625 1502.825,1145.8906 Q1502.5906,1146.1563 1502.2156,1146.1563 Q1501.8719,1146.1563 1501.6688,1145.9531 Q1501.4656,1145.7656 1501.3563,1145.25 Q1501.3094,1144.8906 1501.1219,1144.7031 Q1500.7938,1144.3281 1500.1844,1144.1094 Q1499.575,1143.8906 1498.95,1143.8906 Q1498.1844,1143.8906 1497.5438,1144.2188 Q1496.9188,1144.5469 1496.4188,1145.2969 Q1495.9344,1146.0469 1495.9344,1147.0781 L1495.9344,1148.1719 Q1495.9344,1149.4063 1496.825,1150.2344 Q1497.7156,1151.0469 1499.3094,1151.0469 Q1500.2469,1151.0469 1500.9031,1150.7969 Q1501.2938,1150.6406 1501.7156,1150.2031 Q1501.9813,1149.9375 1502.1219,1149.8594 Q1502.2781,1149.7813 1502.4813,1149.7813 Q1502.8094,1149.7813 1503.0594,1150.0469 Q1503.325,1150.2969 1503.325,1150.6406 Q1503.325,1150.9844 1502.9813,1151.3906 Q1502.4813,1151.9688 1501.6844,1152.2969 Q1500.6063,1152.75 1499.3094,1152.75 Q1497.7938,1152.75 1496.5906,1152.125 Q1495.6063,1151.625 1494.9188,1150.5625 Q1494.2313,1149.4844 1494.2313,1148.2031 L1494.2313,1147.0469 Q1494.2313,1145.7188 1494.8406,1144.5781 Q1495.4656,1143.4219 1496.5594,1142.8125 Q1497.6531,1142.1875 1498.8875,1142.1875 Q1499.6219,1142.1875 1500.2625,1142.3594 Q1500.9188,1142.5156 1501.4656,1142.875 Z " fill="#000000"/><text fill="#000000" font-family="sans-serif" font-size="14" lengthAdjust="spacing" textLength="87" x="1516.3" y="1151.8535">PassportCard</text><line style="stroke:#181818;stroke-width:0.5;" x1="1468.5" x2="1621.5" y1="1163" y2="1163"/><text fill="#000000" font-family="sans-serif" font-size="14" lengthAdjust="spacing" textLength="104" x="1473.5" y="1179.6738">passportNumber</text><line style="stroke:#181818;stroke-width:0.5;" x1="1468.5" x2="1621.5" y1="1186.6406" y2="1186.6406"/><text fill="#000000" font-family="sans-serif" font-size="14" lengthAdjust="spacing" textLength="143" x="1473.5" y="1203.3145">+getPassportNumber()</text><text fill="#000000" font-family="sans-serif" font-size="14" lengthAdjust="spacing" textLength="139" x="1473.5" y="1218.9551">-setPassportNumber()</text></g><!--class PropertyRepository--><g id="elem_PropertyRepository"><rect
        fill="#F1F1F1" height="79.2813" id="PropertyRepository" rx="2.5" ry="2.5" style="stroke:#181818;stroke-width:0.5;" width="161" x="771.5" y="1334"/><ellipse cx="789.65" cy="1350" fill="#ADD1B2" rx="11" ry="11" style="stroke:#181818;stroke-width:1.0;"/><path d="M792.4156,1345.875 Q792.5719,1345.6563 792.7594,1345.5469 Q792.9469,1345.4375 793.1656,1345.4375 Q793.5406,1345.4375 793.775,1345.7031 Q794.0094,1345.9531 794.0094,1346.5625 L794.0094,1348.0156 Q794.0094,1348.625 793.775,1348.8906 Q793.5406,1349.1563 793.1656,1349.1563 Q792.8219,1349.1563 792.6188,1348.9531 Q792.4156,1348.7656 792.3063,1348.25 Q792.2594,1347.8906 792.0719,1347.7031 Q791.7438,1347.3281 791.1344,1347.1094 Q790.525,1346.8906 789.9,1346.8906 Q789.1344,1346.8906 788.4938,1347.2188 Q787.8688,1347.5469 787.3688,1348.2969 Q786.8844,1349.0469 786.8844,1350.0781 L786.8844,1351.1719 Q786.8844,1352.4063 787.775,1353.2344 Q788.6656,1354.0469 790.2594,1354.0469 Q791.1969,1354.0469 791.8531,1353.7969 Q792.2438,1353.6406 792.6656,1353.2031 Q792.9313,1352.9375 793.0719,1352.8594 Q793.2281,1352.7813 793.4313,1352.7813 Q793.7594,1352.7813 794.0094,1353.0469 Q794.275,1353.2969 794.275,1353.6406 Q794.275,1353.9844 793.9313,1354.3906 Q793.4313,1354.9688 792.6344,1355.2969 Q791.5563,1355.75 790.2594,1355.75 Q788.7438,1355.75 787.5406,1355.125 Q786.5563,1354.625 785.8688,1353.5625 Q785.1813,1352.4844 785.1813,1351.2031 L785.1813,1350.0469 Q785.1813,1348.7188 785.7906,1347.5781 Q786.4156,1346.4219 787.5094,1345.8125 Q788.6031,1345.1875 789.8375,1345.1875 Q790.5719,1345.1875 791.2125,1345.3594 Q791.8688,1345.5156 792.4156,1345.875 Z " fill="#000000"/><text fill="#000000" font-family="sans-serif" font-size="14" lengthAdjust="spacing" textLength="122" x="804.35" y="1354.8535">PropertyRepository</text><line style="stroke:#181818;stroke-width:0.5;" x1="772.5" x2="931.5" y1="1366" y2="1366"/><line style="stroke:#181818;stroke-width:0.5;" x1="772.5" x2="931.5" y1="1374" y2="1374"/><text fill="#000000" font-family="sans-serif" font-size="14" lengthAdjust="spacing" textLength="92" x="777.5" y="1390.6738">+getProperty()</text><text fill="#000000" font-family="sans-serif" font-size="14" lengthAdjust="spacing" textLength="149" x="777.5" y="1406.3145">+addProperty(property)</text></g><!--class Apartment--><g id="elem_Apartment"><rect
        fill="#F1F1F1" height="48" id="Apartment" rx="2.5" ry="2.5" style="stroke:#181818;stroke-width:0.5;" width="97" x="185.5" y="1154.5"/><ellipse cx="200.5" cy="1170.5" fill="#ADD1B2" rx="11" ry="11" style="stroke:#181818;stroke-width:1.0;"/><path d="M203.2656,1166.375 Q203.4219,1166.1563 203.6094,1166.0469 Q203.7969,1165.9375 204.0156,1165.9375 Q204.3906,1165.9375 204.625,1166.2031 Q204.8594,1166.4531 204.8594,1167.0625 L204.8594,1168.5156 Q204.8594,1169.125 204.625,1169.3906 Q204.3906,1169.6563 204.0156,1169.6563 Q203.6719,1169.6563 203.4688,1169.4531 Q203.2656,1169.2656 203.1563,1168.75 Q203.1094,1168.3906 202.9219,1168.2031 Q202.5938,1167.8281 201.9844,1167.6094 Q201.375,1167.3906 200.75,1167.3906 Q199.9844,1167.3906 199.3438,1167.7188 Q198.7188,1168.0469 198.2188,1168.7969 Q197.7344,1169.5469 197.7344,1170.5781 L197.7344,1171.6719 Q197.7344,1172.9063 198.625,1173.7344 Q199.5156,1174.5469 201.1094,1174.5469 Q202.0469,1174.5469 202.7031,1174.2969 Q203.0938,1174.1406 203.5156,1173.7031 Q203.7813,1173.4375 203.9219,1173.3594 Q204.0781,1173.2813 204.2813,1173.2813 Q204.6094,1173.2813 204.8594,1173.5469 Q205.125,1173.7969 205.125,1174.1406 Q205.125,1174.4844 204.7813,1174.8906 Q204.2813,1175.4688 203.4844,1175.7969 Q202.4063,1176.25 201.1094,1176.25 Q199.5938,1176.25 198.3906,1175.625 Q197.4063,1175.125 196.7188,1174.0625 Q196.0313,1172.9844 196.0313,1171.7031 L196.0313,1170.5469 Q196.0313,1169.2188 196.6406,1168.0781 Q197.2656,1166.9219 198.3594,1166.3125 Q199.4531,1165.6875 200.6875,1165.6875 Q201.4219,1165.6875 202.0625,1165.8594 Q202.7188,1166.0156 203.2656,1166.375 Z " fill="#000000"/><text fill="#000000" font-family="sans-serif" font-size="14" lengthAdjust="spacing" textLength="65" x="214.5" y="1175.3535">Apartment</text><line style="stroke:#181818;stroke-width:0.5;" x1="186.5" x2="281.5" y1="1186.5" y2="1186.5"/><line style="stroke:#181818;stroke-width:0.5;" x1="186.5" x2="281.5" y1="1194.5" y2="1194.5"/></g><!--class Repositories--><g id="elem_Repositories"><rect
        fill="#F1F1F1" height="94.9219" id="Repositories" rx="2.5" ry="2.5" style="stroke:#181818;stroke-width:0.5;" width="213" x="1047.5" y="1131"/><ellipse cx="1110.25" cy="1147" fill="#ADD1B2" rx="11" ry="11" style="stroke:#181818;stroke-width:1.0;"/><path d="M1113.0156,1142.875 Q1113.1719,1142.6563 1113.3594,1142.5469 Q1113.5469,1142.4375 1113.7656,1142.4375 Q1114.1406,1142.4375 1114.375,1142.7031 Q1114.6094,1142.9531 1114.6094,1143.5625 L1114.6094,1145.0156 Q1114.6094,1145.625 1114.375,1145.8906 Q1114.1406,1146.1563 1113.7656,1146.1563 Q1113.4219,1146.1563 1113.2188,1145.9531 Q1113.0156,1145.7656 1112.9063,1145.25 Q1112.8594,1144.8906 1112.6719,1144.7031 Q1112.3438,1144.3281 1111.7344,1144.1094 Q1111.125,1143.8906 1110.5,1143.8906 Q1109.7344,1143.8906 1109.0938,1144.2188 Q1108.4688,1144.5469 1107.9688,1145.2969 Q1107.4844,1146.0469 1107.4844,1147.0781 L1107.4844,1148.1719 Q1107.4844,1149.4063 1108.375,1150.2344 Q1109.2656,1151.0469 1110.8594,1151.0469 Q1111.7969,1151.0469 1112.4531,1150.7969 Q1112.8438,1150.6406 1113.2656,1150.2031 Q1113.5313,1149.9375 1113.6719,1149.8594 Q1113.8281,1149.7813 1114.0313,1149.7813 Q1114.3594,1149.7813 1114.6094,1150.0469 Q1114.875,1150.2969 1114.875,1150.6406 Q1114.875,1150.9844 1114.5313,1151.3906 Q1114.0313,1151.9688 1113.2344,1152.2969 Q1112.1563,1152.75 1110.8594,1152.75 Q1109.3438,1152.75 1108.1406,1152.125 Q1107.1563,1151.625 1106.4688,1150.5625 Q1105.7813,1149.4844 1105.7813,1148.2031 L1105.7813,1147.0469 Q1105.7813,1145.7188 1106.3906,1144.5781 Q1107.0156,1143.4219 1108.1094,1142.8125 Q1109.2031,1142.1875 1110.4375,1142.1875 Q1111.1719,1142.1875 1111.8125,1142.3594 Q1112.4688,1142.5156 1113.0156,1142.875 Z " fill="#000000"/><text fill="#000000" font-family="sans-serif" font-size="14" lengthAdjust="spacing" textLength="79" x="1130.75" y="1151.8535">Repositories</text><line style="stroke:#181818;stroke-width:0.5;" x1="1048.5" x2="1259.5" y1="1163" y2="1163"/><line style="stroke:#181818;stroke-width:0.5;" x1="1048.5" x2="1259.5" y1="1171" y2="1171"/><text fill="#000000" font-family="sans-serif" font-size="14" lengthAdjust="spacing" textLength="94" x="1053.5" y="1187.6738">-Repositories()</text><text fill="#000000" font-family="sans-serif" font-size="14" lengthAdjust="spacing" textLength="182" x="1053.5" y="1203.3145">+getInstance() : Repositories</text><text fill="#000000" font-family="sans-serif" font-size="14" lengthAdjust="spacing" textLength="201" x="1053.5" y="1218.9551">+getAnnouncementRepository()</text></g><!--class CreateAnnouncementUI--><g id="elem_CreateAnnouncementUI"><rect
        fill="#F1F1F1" height="48" id="CreateAnnouncementUI" rx="2.5" ry="2.5" style="stroke:#181818;stroke-width:0.5;" width="182" x="1179" y="7"/><ellipse cx="1194" cy="23" fill="#ADD1B2" rx="11" ry="11" style="stroke:#181818;stroke-width:1.0;"/><path d="M1196.7656,18.875 Q1196.9219,18.6563 1197.1094,18.5469 Q1197.2969,18.4375 1197.5156,18.4375 Q1197.8906,18.4375 1198.125,18.7031 Q1198.3594,18.9531 1198.3594,19.5625 L1198.3594,21.0156 Q1198.3594,21.625 1198.125,21.8906 Q1197.8906,22.1563 1197.5156,22.1563 Q1197.1719,22.1563 1196.9688,21.9531 Q1196.7656,21.7656 1196.6563,21.25 Q1196.6094,20.8906 1196.4219,20.7031 Q1196.0938,20.3281 1195.4844,20.1094 Q1194.875,19.8906 1194.25,19.8906 Q1193.4844,19.8906 1192.8438,20.2188 Q1192.2188,20.5469 1191.7188,21.2969 Q1191.2344,22.0469 1191.2344,23.0781 L1191.2344,24.1719 Q1191.2344,25.4063 1192.125,26.2344 Q1193.0156,27.0469 1194.6094,27.0469 Q1195.5469,27.0469 1196.2031,26.7969 Q1196.5938,26.6406 1197.0156,26.2031 Q1197.2813,25.9375 1197.4219,25.8594 Q1197.5781,25.7813 1197.7813,25.7813 Q1198.1094,25.7813 1198.3594,26.0469 Q1198.625,26.2969 1198.625,26.6406 Q1198.625,26.9844 1198.2813,27.3906 Q1197.7813,27.9688 1196.9844,28.2969 Q1195.9063,28.75 1194.6094,28.75 Q1193.0938,28.75 1191.8906,28.125 Q1190.9063,27.625 1190.2188,26.5625 Q1189.5313,25.4844 1189.5313,24.2031 L1189.5313,23.0469 Q1189.5313,21.7188 1190.1406,20.5781 Q1190.7656,19.4219 1191.8594,18.8125 Q1192.9531,18.1875 1194.1875,18.1875 Q1194.9219,18.1875 1195.5625,18.3594 Q1196.2188,18.5156 1196.7656,18.875 Z " fill="#000000"/><text fill="#000000" font-family="sans-serif" font-size="14" lengthAdjust="spacing" textLength="150" x="1208" y="27.8535">CreateAnnouncementUI</text><line style="stroke:#181818;stroke-width:0.5;" x1="1180" x2="1360" y1="39" y2="39"/><line style="stroke:#181818;stroke-width:0.5;" x1="1180" x2="1360" y1="47" y2="47"/></g><!--link CreateAnnouncementController to Repositories--><g id="link_CreateAnnouncementController_Repositories"><path
        d="M1264.13,305.02 C1244.48,460.68 1181.11,962.69 1160.53,1125.79 " fill="none" id="CreateAnnouncementController-to-Repositories" style="stroke:#181818;stroke-width:1.0;stroke-dasharray:7.0,7.0;"/><polygon fill="#181818" points="1159.87,1130.98,1164.9704,1122.5547,1160.499,1126.0197,1157.0339,1121.5483,1159.87,1130.98" style="stroke:#181818;stroke-width:1.0;"/></g><!--link Repositories to Repositories--><g id="link_Repositories_Repositories"><path
        d="M1260.75,1156.36 C1281.11,1159.01 1295.5,1166.39 1295.5,1178.5 C1295.5,1189.57 1283.47,1196.69 1265.86,1199.85 " fill="none" id="Repositories-to-Repositories" style="stroke:#181818;stroke-width:1.0;"/><polygon fill="#181818" points="1260.75,1200.64,1270.2519,1203.2312,1265.6924,1199.8829,1269.0406,1195.3234,1260.75,1200.64" style="stroke:#181818;stroke-width:1.0;"/><text fill="#000000" font-family="sans-serif" font-size="13" lengthAdjust="spacing" textLength="75" x="1268.6387" y="1152.5514">getInstance()</text></g><!--link Repositories to AnnouncementRepository--><g id="link_Repositories_AnnouncementRepository"><path
        d="M1186.64,1226.21 C1211.33,1261.54 1241,1304 1241,1304 C1241,1304 1254.49,1316.16 1270.11,1330.23 " fill="none" id="Repositories-to-AnnouncementRepository" style="stroke:#181818;stroke-width:1.0;"/><polygon fill="#181818" points="1274.11,1333.85,1270.0962,1324.8561,1270.3935,1330.5052,1264.7445,1330.8025,1274.11,1333.85" style="stroke:#181818;stroke-width:1.0;"/></g><!--link Repositories to PropertyTypeRepository--><g id="link_Repositories_PropertyTypeRepository"><path
        d="M1131.49,1226.22 C1116.38,1257.56 1096.63,1298.56 1081.88,1329.17 " fill="none" id="Repositories-to-PropertyTypeRepository" style="stroke:#181818;stroke-width:1.0;"/><polygon fill="#181818" points="1079.55,1333.99,1087.0638,1327.6227,1081.7229,1329.4869,1079.8588,1324.146,1079.55,1333.99" style="stroke:#181818;stroke-width:1.0;"/></g><!--link Repositories to PropertyRepository--><g id="link_Repositories_PropertyRepository"><path
        d="M1080.89,1226.22 C1030.74,1258.27 964.79,1300.42 916.57,1331.24 " fill="none" id="Repositories-to-PropertyRepository" style="stroke:#181818;stroke-width:1.0;"/><polygon fill="#181818" points="912.25,1333.99,921.9859,1332.5029,916.4601,1331.2927,917.6703,1325.7668,912.25,1333.99" style="stroke:#181818;stroke-width:1.0;"/></g><!--link Repositories to ComissionRepository--><g id="link_Repositories_ComissionRepository"><path
        d="M1237.35,1226.04 C1300.69,1261.4 1377,1304 1377,1304 C1377,1304 1463,1334 1463,1334 C1463,1334 1467.84,1335.86 1475.39,1338.77 " fill="none" id="Repositories-to-ComissionRepository" style="stroke:#181818;stroke-width:1.0;"/><polygon fill="#181818" points="1480.42,1340.71,1473.4673,1333.7344,1475.7562,1338.9074,1470.5832,1341.1964,1480.42,1340.71" style="stroke:#181818;stroke-width:1.0;"/></g><!--reverse link CreateAnnouncementController to Owner--><g id="link_CreateAnnouncementController_Owner"><path
        d="M1317.07,308.98 C1363.96,359.25 1429,429 1429,429 C1429,429 1479.7,633.34 1514.07,771.83 " fill="none" id="CreateAnnouncementController-backto-Owner" style="stroke:#181818;stroke-width:1.0;stroke-dasharray:7.0,7.0;"/><polygon fill="#181818" points="1313.45,305.09,1316.6679,314.3983,1316.8621,308.7448,1322.5156,308.939,1313.45,305.09" style="stroke:#181818;stroke-width:1.0;"/><text fill="#000000" font-family="sans-serif" font-size="13" lengthAdjust="spacing" textLength="34" x="1321.9508" y="324.5776">owner</text></g><!--link CreateAnnouncementController to PropertyTypeRepository--><g id="link_CreateAnnouncementController_PropertyTypeRepository"><path
        d="M1230.46,305.21 C1154.14,395.35 994,584.5 994,584.5 C994,584.5 994,584.5 994,1179.5 C994,1179.5 1026.08,1271.92 1045.85,1328.85 " fill="none" id="CreateAnnouncementController-to-PropertyTypeRepository" style="stroke:#181818;stroke-width:1.0;"/><polygon fill="#181818" points="1047.6,1333.91,1048.4248,1324.0957,1045.9591,1329.1869,1040.8679,1326.7212,1047.6,1333.91" style="stroke:#181818;stroke-width:1.0;"/><text fill="#000000" font-family="sans-serif" font-size="13" lengthAdjust="spacing" textLength="75" x="995" y="902.2686">propertyType</text></g><!--link Property to Land--><g id="link_Property_Land"><path
        d="M335,711.25 C335,768.98 335,832.53 335,868.17 " fill="none" id="Property-to-Land" style="stroke:#181818;stroke-width:1.0;"/><polygon fill="#181818" points="335,873.23,339,864.23,335,868.23,331,864.23,335,873.23" style="stroke:#181818;stroke-width:1.0;"/><text fill="#000000" font-family="sans-serif" font-size="13" lengthAdjust="spacing" textLength="46" x="287.5984" y="731.114">extends</text></g><!--link CreateAnnouncementUI to CreateAnnouncementController--><g id="link_CreateAnnouncementUI_CreateAnnouncementController"><path
        d="M1270,55.18 C1270,90.2 1270,157.51 1270,204.62 " fill="none" id="CreateAnnouncementUI-to-CreateAnnouncementController" style="stroke:#181818;stroke-width:1.0;stroke-dasharray:7.0,7.0;"/><polygon fill="#181818" points="1270,209.69,1274,200.69,1270,204.69,1266,200.69,1270,209.69" style="stroke:#181818;stroke-width:1.0;"/></g><!--link CreateAnnouncementController to Property--><g id="link_CreateAnnouncementController_Property"><path
        d="M1136.53,305.03 C947.95,370.79 607.58,489.46 437.51,548.76 " fill="none" id="CreateAnnouncementController-to-Property" style="stroke:#181818;stroke-width:1.0;"/><polygon fill="#181818" points="432.78,550.41,442.5972,551.199,437.4971,548.7519,439.9442,543.6517,432.78,550.41" style="stroke:#181818;stroke-width:1.0;"/></g><!--link TypeOfTransaction to Property--><g id="link_TypeOfTransaction_Property"><path
        d="M171.12,373.88 C181.74,388.79 189,399 189,399 C189,399 209.06,424.49 234.31,456.57 " fill="none" id="TypeOfTransaction-to-Property" style="stroke:#181818;stroke-width:1.0;stroke-dasharray:7.0,7.0;"/><polygon fill="#181818" points="237.41,460.51,234.9964,450.9615,234.3215,456.5779,228.7051,455.903,237.41,460.51" style="stroke:#181818;stroke-width:1.0;"/><text fill="#000000" font-family="sans-serif" font-size="13" lengthAdjust="spacing" textLength="105" x="93.3269" y="399.0846">transaction</text></g><!--link Address to Property--><g id="link_Address_Property"><path
        d="M292.92,399.12 C297.12,417.63 301.41,436.53 305.57,454.84 " fill="none" id="Address-to-Property" style="stroke:#181818;stroke-width:1.0;stroke-dasharray:7.0,7.0;"/><polygon fill="#181818" points="306.74,459.99,308.6655,450.3312,305.6418,455.1121,300.8609,452.0884,306.74,459.99" style="stroke:#181818;stroke-width:1.0;"/><text fill="#000000" font-family="sans-serif" font-size="13" lengthAdjust="spacing" textLength="46" x="257.4562" y="449.2759">address</text></g><!--link Equipment to Building--><g id="link_Equipment_Building"><path
        d="M130.67,633.25 C135.01,676.59 141.6,742.48 147.1,797.5 " fill="none" id="Equipment-to-Building" style="stroke:#181818;stroke-width:1.0;stroke-dasharray:7.0,7.0;"/><polygon fill="#181818" points="147.63,802.79,150.7093,793.4349,147.1297,797.8151,142.7494,794.2355,147.63,802.79" style="stroke:#181818;stroke-width:1.0;"/><text fill="#000000" font-family="sans-serif" font-size="13" lengthAdjust="spacing" textLength="81" x="62.5001" y="792.1671">equipmentList</text></g><!--link Photo to Property--><g id="link_Photo_Property"><path
        d="M398.4,305.21 C389.53,344.27 376.45,401.91 364.46,454.7 " fill="none" id="Photo-to-Property" style="stroke:#181818;stroke-width:1.0;stroke-dasharray:7.0,7.0;"/><polygon fill="#181818" points="363.31,459.8,369.2161,451.9185,364.4249,454.9259,361.4175,450.1347,363.31,459.8" style="stroke:#181818;stroke-width:1.0;"/><text fill="#000000" font-family="sans-serif" font-size="13" lengthAdjust="spacing" textLength="53" x="310.426" y="449.0737">photoList</text></g><!--reverse link Owner to PassportCard--><g id="link_Owner_PassportCard"><path
        d="M1545,1028.71 C1545,1065.32 1545,1102.8 1545,1130.98 " fill="none" id="Owner-backto-PassportCard" style="stroke:#181818;stroke-width:1.0;stroke-dasharray:7.0,7.0;"/><polygon fill="#181818" points="1545,1023.31,1541,1032.31,1545,1028.31,1549,1032.31,1545,1023.31" style="stroke:#181818;stroke-width:1.0;"/><text fill="#000000" font-family="sans-serif" font-size="13" lengthAdjust="spacing" textLength="77" x="1465.6539" y="1043.1776">passportCard</text></g><!--link Property to Building--><g id="link_Property_Building"><path
        d="M263.37,711.25 C246.68,740.31 229.14,770.86 213.23,798.57 " fill="none" id="Property-to-Building" style="stroke:#181818;stroke-width:1.0;"/><polygon fill="#181818" points="210.69,802.99,218.6467,797.1857,213.1845,798.6567,211.7135,793.1945,210.69,802.99" style="stroke:#181818;stroke-width:1.0;"/><text fill="#000000" font-family="sans-serif" font-size="13" lengthAdjust="spacing" textLength="46" x="211.6035" y="731.114">extends</text></g><!--link Building to House--><g id="link_Building_House"><path
        d="M131.15,992.18 C123.46,1020.01 115.03,1050.59 107.26,1078.73 " fill="none" id="Building-to-House" style="stroke:#181818;stroke-width:1.0;"/><polygon fill="#181818" points="105.92,1083.59,112.1701,1075.9784,107.2501,1078.7702,104.4583,1073.8502,105.92,1083.59" style="stroke:#181818;stroke-width:1.0;"/><text fill="#000000" font-family="sans-serif" font-size="13" lengthAdjust="spacing" textLength="46" x="81.5626" y="1011.4435">extends</text></g><!--link CreateAnnouncementController to AnnouncementRepository--><g id="link_CreateAnnouncementController_AnnouncementRepository"><path
        d="M1278.88,305.21 C1296.03,395.35 1332,584.5 1332,584.5 C1332,584.5 1332,584.5 1332,1179.5 C1332,1179.5 1324.82,1271.92 1320.39,1328.85 " fill="none" id="CreateAnnouncementController-to-AnnouncementRepository" style="stroke:#181818;stroke-width:1.0;"/><polygon fill="#181818" points="1320,1333.91,1324.6823,1325.2453,1320.3857,1328.9249,1316.7061,1324.6283,1320,1333.91" style="stroke:#181818;stroke-width:1.0;"/></g><!--link Building to Apartment--><g id="link_Building_Apartment"><path
        d="M182.85,992.18 C198.01,1047.1 216.11,1112.68 226.21,1149.26 " fill="none" id="Building-to-Apartment" style="stroke:#181818;stroke-width:1.0;"/><polygon fill="#181818" points="227.64,1154.44,229.1017,1144.7002,226.3099,1149.6202,221.3899,1146.8284,227.64,1154.44" style="stroke:#181818;stroke-width:1.0;"/><text fill="#000000" font-family="sans-serif" font-size="13" lengthAdjust="spacing" textLength="46" x="137.0593" y="1011.4435">extends</text></g><!--link CreateAnnouncementController to ComissionRepository--><g id="link_CreateAnnouncementController_ComissionRepository"><path
        d="M1289.06,305.21 C1325.83,395.35 1403,584.5 1403,584.5 C1403,584.5 1403,584.5 1403,1179.5 C1403,1179.5 1450,1273 1450,1273 C1450,1273 1484.13,1303.05 1514.87,1330.12 " fill="none" id="CreateAnnouncementController-to-ComissionRepository" style="stroke:#181818;stroke-width:1.0;"/><polygon fill="#181818" points="1518.99,1333.75,1514.8846,1324.7976,1515.2396,1330.4433,1509.5939,1330.7983,1518.99,1333.75" style="stroke:#181818;stroke-width:1.0;"/><text fill="#000000" font-family="sans-serif" font-size="13" lengthAdjust="spacing" textLength="59" x="1228.5919" y="324.7144">comission</text></g><!--link CreateAnnouncementController to PropertyRepository--><g id="link_CreateAnnouncementController_PropertyRepository"><path
        d="M1204.13,305.23 C1120.23,364.76 986,460 986,460 C986,460 871,584.5 871,584.5 C871,584.5 871,584.5 871,1179.5 C871,1179.5 861.9,1271.92 856.3,1328.85 " fill="none" id="CreateAnnouncementController-to-PropertyRepository" style="stroke:#181818;stroke-width:1.0;"/><polygon fill="#181818" points="855.8,1333.91,860.6562,1325.3416,856.2862,1328.9337,852.6941,1324.5637,855.8,1333.91" style="stroke:#181818;stroke-width:1.0;"/></g><!--SRC=[pLTBR-Cs4BxhLn2w946OeEUYMC1sjgY1T1F4sJtqnaXZcrYPr99KDzaW_xqa9L53YdRwkDI789uNPpv-CqEVwQzSj4on0pb88QkzaWSWHdLGJ9gMLL_P3ZRcfG6Ye39Cx1fieFUibj-vs94jQpJMD5o0UMc1jB9vSL-AiunIAYCBv5KrJEk5COe_TGRMbHGR_WF8JqLnri3M42E9uhkz8JLtwN0fYiBxa7ibMr3cvRKWzdDr8xidcpDJmEwseovIrLpRSYhurHQ-0c4KzEgDFTpMmweAMczmmqoiKl2j0ssyl5TeC8lefFEBeBYPdOEK3rCe95r4Pm-AortEt4aNyrIzE9UHKsGpAjv691_jnTnj7nKJcdc8NwFgpQHmbf7ECWaCKozVMDF5caeUkDQHpt0FGTCx1H0UutCGFB_ZKv1yXS_8oR630o9_XDFaZd3ot16HV7G8Q2xgMe7MCORQOWuc1eYF_1m4Zf-ALoPnJCduWxShMIFSDZusBf_F-EZY8j76nFpxeu-9wek2-eBvZ58eQEyIitGA-fRsh0Fp0LgfkP5gwE1BLjSPxcANADHU6Zc0l1O6Tg18wsJhcmWkB_lyiExnkhJ5Ua_RE0o7MtQygQrz4l49QYNbGITIPlOPiPreTgxjDdQ8WfxkPpd4G7Wlnm18Te-z4G29knSbxXwdn3rKzl5Rnzk3xVgOaO8T48U2qIShHb5JUOZwc-mq316NKZR0X8L5WxEDfOtS9fJknCTdU_UTGWai1ry4oArrn9oTt28e8ZydGdwUbf7Vsv1_wDyS3OCor_0OXRll0bG6ruWMXZr_wWvFe28xE33U3BCYiOS6B6i535xJz8eL-9fGC3pknfEH35sm7xgpc1Cdva6zHnBKoL9shEmcCh0GGdPsxRZxMKcxTcJJZ71TaihRt39Hdqi78yLhbYRhcFh5JZCxd8OEfyEKfNwqqZ1FQJz4wJWvQRhHQBp6Bg845xQhZMVO_ojBEeucEeqZ6e-Wk13ViV-nY4urH6w9sKDVppyenZ_-jhWeIlvqXSoaxnT6mwYXVhnGF5FyosPOnOY0ipvt3oQa7ri4RQ58tGv2n7B7tTTf8Ta_hNtUhfYg-oFQGPBsyNqaZrP0efWjpbmLwTB4UnHdFM0oyddAF0JbeCampI8X6XzhqRFY_8By7DbaGPtInQDtDXm-hrqofuO6kRw-lleG7nYbNKQvbUJgfBNJvlESs-NVBCVjJjbajixfialVhoNvnTRVRvlJziSJjjVL8aKnMf4IdWs8MlUOEKuNkHkoD_3Xv5p_-uaLinySf3IfgFG71fTX3tbXoVelvQGExvJU0CQljtOWbU5nL_YdNs_YvrUl3b4ym5Q5Ejb37_NsCUJ28UC_YTxFt_T1EaBB8q53Dxz3e_2Rg_ntF3n2SFlv2m00]--></g></svg>