<?xml version="1.0" encoding="us-ascii" standalone="no"?><svg xmlns="http://www.w3.org/2000/svg" xmlns:xlink="http://www.w3.org/1999/xlink" contentStyleType="text/css" height="1002.4px" preserveAspectRatio="none" style="width:1315px;height:1002px;background:#FFFFFF;" version="1.1" viewBox="0 0 1315 1002" width="1315.2px" zoomAndPan="magnify"><defs/><g><rect fill="#FFFFFF" height="846.8125" style="stroke:#181818;stroke-width:0.8000000000000002;" width="8" x="42.8" y="74.8969"/><rect fill="#FFFFFF" height="25.0328" style="stroke:#181818;stroke-width:0.8000000000000002;" width="8" x="178" y="93.5297"/><rect fill="#FFFFFF" height="84.9625" style="stroke:#181818;stroke-width:0.8000000000000002;" width="8" x="317.2" y="118.5625"/><rect fill="#FFFFFF" height="693.1516" style="stroke:#181818;stroke-width:0.8000000000000002;" width="8" x="317.2" y="228.5578"/><rect fill="#FFFFFF" height="296.3938" style="stroke:#181818;stroke-width:0.8000000000000002;" width="8" x="594.8" y="316.6891"/><rect fill="#FFFFFF" height="239.1281" style="stroke:#181818;stroke-width:0.8000000000000002;" width="8" x="594.8" y="651.9484"/><rect fill="#FFFFFF" height="25.0328" style="stroke:#181818;stroke-width:0.8000000000000002;" width="8" x="794.8" y="341.7219"/><rect fill="#FFFFFF" height="25.0328" style="stroke:#181818;stroke-width:0.8000000000000002;" width="8" x="860.4" y="391.7875"/><rect fill="#FFFFFF" height="25.0328" style="stroke:#181818;stroke-width:0.8000000000000002;" width="8" x="860.4" y="740.8797"/><rect fill="#FFFFFF" height="25.0328" style="stroke:#181818;stroke-width:0.8000000000000002;" width="8" x="946" y="441.8531"/><rect fill="#FFFFFF" height="25.0328" style="stroke:#181818;stroke-width:0.8000000000000002;" width="8" x="946" y="790.9453"/><rect fill="#FFFFFF" height="25.0328" style="stroke:#181818;stroke-width:0.8000000000000002;" width="8" x="1061.6" y="491.9188"/><rect fill="#FFFFFF" height="25.0328" style="stroke:#181818;stroke-width:0.8000000000000002;" width="8" x="1061.6" y="563.0172"/><rect fill="#FFFFFF" height="25.0328" style="stroke:#181818;stroke-width:0.8000000000000002;" width="8" x="1163.6" y="690.8141"/><rect fill="#FFFFFF" height="25.0328" style="stroke:#181818;stroke-width:0.8000000000000002;" width="8" x="1247.6" y="841.0109"/><rect fill="none" height="368.525" style="stroke:#000000;stroke-width:1.2000000000000002;" width="1042" x="268.4" y="528.9516"/><line style="stroke:#181818;stroke-width:0.4000000000000001;stroke-dasharray:5.0,5.0;" x1="46.4" x2="46.4" y1="66.8969" y2="936.1094"/><line style="stroke:#181818;stroke-width:0.4000000000000001;stroke-dasharray:5.0,5.0;" x1="181.6" x2="181.6" y1="66.8969" y2="936.1094"/><line style="stroke:#181818;stroke-width:0.4000000000000001;stroke-dasharray:5.0,5.0;" x1="321.2" x2="321.2" y1="66.8969" y2="936.1094"/><line style="stroke:#181818;stroke-width:0.4000000000000001;stroke-dasharray:5.0,5.0;" x1="598.8" x2="598.8" y1="150.4109" y2="936.1094"/><line style="stroke:#181818;stroke-width:0.4000000000000001;stroke-dasharray:5.0,5.0;" x1="798.4" x2="798.4" y1="66.8969" y2="936.1094"/><line style="stroke:#181818;stroke-width:0.4000000000000001;stroke-dasharray:5.0,5.0;" x1="864" x2="864" y1="66.8969" y2="936.1094"/><line style="stroke:#181818;stroke-width:0.4000000000000001;stroke-dasharray:5.0,5.0;" x1="949.6" x2="949.6" y1="66.8969" y2="936.1094"/><line style="stroke:#181818;stroke-width:0.4000000000000001;stroke-dasharray:5.0,5.0;" x1="1065.6" x2="1065.6" y1="66.8969" y2="936.1094"/><line style="stroke:#181818;stroke-width:0.4000000000000001;stroke-dasharray:5.0,5.0;" x1="1167.2" x2="1167.2" y1="66.8969" y2="936.1094"/><line style="stroke:#181818;stroke-width:0.4000000000000001;stroke-dasharray:5.0,5.0;" x1="1251.2" x2="1251.2" y1="66.8969" y2="936.1094"/><text fill="#000000" font-family="sans-serif" font-size="11.2" lengthAdjust="spacing" textLength="80.8" x="4" y="64.0859">Unregisted User</text><ellipse cx="46.8" cy="10.8" fill="#E3E3E3" rx="6.4" ry="6.4" style="stroke:#181818;stroke-width:0.4000000000000001;"/><path d="M46.8,17.2 L46.8,38.8 M36.4,23.6 L57.2,23.6 M46.8,38.8 L36.4,50.8 M46.8,38.8 L57.2,50.8 " fill="none" style="stroke:#181818;stroke-width:0.4000000000000001;"/><text fill="#000000" font-family="sans-serif" font-size="11.2" lengthAdjust="spacing" textLength="80.8" x="4" y="947.3953">Unregisted User</text><ellipse cx="46.8" cy="957.0063" fill="#E3E3E3" rx="6.4" ry="6.4" style="stroke:#181818;stroke-width:0.4000000000000001;"/><path d="M46.8,963.4063 L46.8,985.0063 M36.4,969.8063 L57.2,969.8063 M46.8,985.0063 L36.4,997.0063 M46.8,985.0063 L57.2,997.0063 " fill="none" style="stroke:#181818;stroke-width:0.4000000000000001;"/><rect fill="#E3E3E3" height="26.0969" rx="2" ry="2" style="stroke:#181818;stroke-width:0.4000000000000001;" width="76" x="144" y="40"/><text fill="#000000" font-family="sans-serif" font-size="11.2" lengthAdjust="spacing" textLength="64.8" x="149.6" y="57.6859">:MainMenuUI</text><rect fill="#E3E3E3" height="26.0969" rx="2" ry="2" style="stroke:#181818;stroke-width:0.4000000000000001;" width="76" x="144" y="935.3094"/><text fill="#000000" font-family="sans-serif" font-size="11.2" lengthAdjust="spacing" textLength="64.8" x="149.6" y="952.9953">:MainMenuUI</text><rect fill="#E3E3E3" height="26.0969" rx="2" ry="2" style="stroke:#181818;stroke-width:0.4000000000000001;" width="89.6" x="276.4" y="40"/><text fill="#000000" font-family="sans-serif" font-size="11.2" lengthAdjust="spacing" textLength="78.4" x="282" y="57.6859">:UserRegisterUI</text><rect fill="#E3E3E3" height="26.0969" rx="2" ry="2" style="stroke:#181818;stroke-width:0.4000000000000001;" width="89.6" x="276.4" y="935.3094"/><text fill="#000000" font-family="sans-serif" font-size="11.2" lengthAdjust="spacing" textLength="78.4" x="282" y="952.9953">:UserRegisterUI</text><rect fill="#E3E3E3" height="26.0969" rx="2" ry="2" style="stroke:#181818;stroke-width:0.4000000000000001;" width="129.6" x="534" y="935.3094"/><text fill="#000000" font-family="sans-serif" font-size="11.2" lengthAdjust="spacing" textLength="118.4" x="539.6" y="952.9953">:UserRegisterController</text><rect fill="#E3E3E3" height="26.0969" rx="2" ry="2" style="stroke:#181818;stroke-width:0.4000000000000001;" width="37.6" x="780" y="40"/><text fill="#000000" font-family="sans-serif" font-size="11.2" lengthAdjust="spacing" textLength="26.4" x="785.6" y="57.6859">:User</text><rect fill="#E3E3E3" height="26.0969" rx="2" ry="2" style="stroke:#181818;stroke-width:0.4000000000000001;" width="37.6" x="780" y="935.3094"/><text fill="#000000" font-family="sans-serif" font-size="11.2" lengthAdjust="spacing" textLength="26.4" x="785.6" y="952.9953">:User</text><rect fill="#E3E3E3" height="26.0969" rx="2" ry="2" style="stroke:#181818;stroke-width:0.4000000000000001;" width="77.6" x="825.6" y="40"/><text fill="#000000" font-family="sans-serif" font-size="11.2" lengthAdjust="spacing" textLength="66.4" x="831.2" y="57.6859">:Repositories</text><rect fill="#E3E3E3" height="26.0969" rx="2" ry="2" style="stroke:#181818;stroke-width:0.4000000000000001;" width="77.6" x="825.6" y="935.3094"/><text fill="#000000" font-family="sans-serif" font-size="11.2" lengthAdjust="spacing" textLength="66.4" x="831.2" y="952.9953">:Repositories</text><rect fill="#E3E3E3" height="40.9938" rx="2" ry="2" style="stroke:#181818;stroke-width:0.4000000000000001;" width="77.6" x="911.2" y="25.1031"/><text fill="#000000" font-family="sans-serif" font-size="11.2" lengthAdjust="spacing" textLength="59.2" x="920.4" y="42.7891">repositories</text><text fill="#000000" font-family="sans-serif" font-size="11.2" lengthAdjust="spacing" textLength="66.4" x="916.8" y="57.6859">:Repositories</text><rect fill="#E3E3E3" height="40.9938" rx="2" ry="2" style="stroke:#181818;stroke-width:0.4000000000000001;" width="77.6" x="911.2" y="935.3094"/><text fill="#000000" font-family="sans-serif" font-size="11.2" lengthAdjust="spacing" textLength="59.2" x="920.4" y="952.9953">repositories</text><text fill="#000000" font-family="sans-serif" font-size="11.2" lengthAdjust="spacing" textLength="66.4" x="916.8" y="967.8922">:Repositories</text><rect fill="#E3E3E3" height="40.9938" rx="2" ry="2" style="stroke:#181818;stroke-width:0.4000000000000001;" width="137.6" x="996.8" y="25.1031"/><text fill="#000000" font-family="sans-serif" font-size="11.2" lengthAdjust="spacing" textLength="25.6" x="1052.8" y="42.7891">user:</text><text fill="#000000" font-family="sans-serif" font-size="11.2" lengthAdjust="spacing" textLength="126.4" x="1002.4" y="57.6859">AuthenticationRepository</text><rect fill="#E3E3E3" height="40.9938" rx="2" ry="2" style="stroke:#181818;stroke-width:0.4000000000000001;" width="137.6" x="996.8" y="935.3094"/><text fill="#000000" font-family="sans-serif" font-size="11.2" lengthAdjust="spacing" textLength="25.6" x="1052.8" y="952.9953">user:</text><text fill="#000000" font-family="sans-serif" font-size="11.2" lengthAdjust="spacing" textLength="126.4" x="1002.4" y="967.8922">AuthenticationRepository</text><rect fill="#E3E3E3" height="26.0969" rx="2" ry="2" style="stroke:#181818;stroke-width:0.4000000000000001;" width="50.4" x="1142.4" y="40"/><text fill="#000000" font-family="sans-serif" font-size="11.2" lengthAdjust="spacing" textLength="39.2" x="1148" y="57.6859">:Person</text><rect fill="#E3E3E3" height="26.0969" rx="2" ry="2" style="stroke:#181818;stroke-width:0.4000000000000001;" width="50.4" x="1142.4" y="935.3094"/><text fill="#000000" font-family="sans-serif" font-size="11.2" lengthAdjust="spacing" textLength="39.2" x="1148" y="952.9953">:Person</text><rect fill="#E3E3E3" height="40.9938" rx="2" ry="2" style="stroke:#181818;stroke-width:0.4000000000000001;" width="101.6" x="1200.8" y="25.1031"/><text fill="#000000" font-family="sans-serif" font-size="11.2" lengthAdjust="spacing" textLength="38.4" x="1232.4" y="42.7891">person:</text><text fill="#000000" font-family="sans-serif" font-size="11.2" lengthAdjust="spacing" textLength="90.4" x="1206.4" y="57.6859">PersonRepository</text><rect fill="#E3E3E3" height="40.9938" rx="2" ry="2" style="stroke:#181818;stroke-width:0.4000000000000001;" width="101.6" x="1200.8" y="935.3094"/><text fill="#000000" font-family="sans-serif" font-size="11.2" lengthAdjust="spacing" textLength="38.4" x="1232.4" y="952.9953">person:</text><text fill="#000000" font-family="sans-serif" font-size="11.2" lengthAdjust="spacing" textLength="90.4" x="1206.4" y="967.8922">PersonRepository</text><rect fill="#FFFFFF" height="846.8125" style="stroke:#181818;stroke-width:0.8000000000000002;" width="8" x="42.8" y="74.8969"/><rect fill="#FFFFFF" height="25.0328" style="stroke:#181818;stroke-width:0.8000000000000002;" width="8" x="178" y="93.5297"/><rect fill="#FFFFFF" height="84.9625" style="stroke:#181818;stroke-width:0.8000000000000002;" width="8" x="317.2" y="118.5625"/><rect fill="#FFFFFF" height="693.1516" style="stroke:#181818;stroke-width:0.8000000000000002;" width="8" x="317.2" y="228.5578"/><rect fill="#FFFFFF" height="296.3938" style="stroke:#181818;stroke-width:0.8000000000000002;" width="8" x="594.8" y="316.6891"/><rect fill="#FFFFFF" height="239.1281" style="stroke:#181818;stroke-width:0.8000000000000002;" width="8" x="594.8" y="651.9484"/><rect fill="#FFFFFF" height="25.0328" style="stroke:#181818;stroke-width:0.8000000000000002;" width="8" x="794.8" y="341.7219"/><rect fill="#FFFFFF" height="25.0328" style="stroke:#181818;stroke-width:0.8000000000000002;" width="8" x="860.4" y="391.7875"/><rect fill="#FFFFFF" height="25.0328" style="stroke:#181818;stroke-width:0.8000000000000002;" width="8" x="860.4" y="740.8797"/><rect fill="#FFFFFF" height="25.0328" style="stroke:#181818;stroke-width:0.8000000000000002;" width="8" x="946" y="441.8531"/><rect fill="#FFFFFF" height="25.0328" style="stroke:#181818;stroke-width:0.8000000000000002;" width="8" x="946" y="790.9453"/><rect fill="#FFFFFF" height="25.0328" style="stroke:#181818;stroke-width:0.8000000000000002;" width="8" x="1061.6" y="491.9188"/><rect fill="#FFFFFF" height="25.0328" style="stroke:#181818;stroke-width:0.8000000000000002;" width="8" x="1061.6" y="563.0172"/><rect fill="#FFFFFF" height="25.0328" style="stroke:#181818;stroke-width:0.8000000000000002;" width="8" x="1163.6" y="690.8141"/><rect fill="#FFFFFF" height="25.0328" style="stroke:#181818;stroke-width:0.8000000000000002;" width="8" x="1247.6" y="841.0109"/><polygon fill="#181818" points="168.4,90.3297,176.4,93.5297,168.4,96.7297,171.6,93.5297" style="stroke:#181818;stroke-width:0.8000000000000002;"/><line style="stroke:#181818;stroke-width:0.8000000000000002;" x1="50.8" x2="173.2" y1="93.5297" y2="93.5297"/><text fill="#000000" font-family="sans-serif" font-size="10.4" font-weight="bold" lengthAdjust="spacing" textLength="5.6" x="56.4" y="89.3195">1</text><text fill="#000000" font-family="sans-serif" font-size="10.4" lengthAdjust="spacing" textLength="103.2" x="65.2" y="89.3195">selects register button</text><polygon fill="#181818" points="307.6,115.3625,315.6,118.5625,307.6,121.7625,310.8,118.5625" style="stroke:#181818;stroke-width:0.8000000000000002;"/><line style="stroke:#181818;stroke-width:0.8000000000000002;" x1="182" x2="312.4" y1="118.5625" y2="118.5625"/><text fill="#000000" font-family="sans-serif" font-size="10.4" font-weight="bold" lengthAdjust="spacing" textLength="5.6" x="187.6" y="114.3523">2</text><text fill="#000000" font-family="sans-serif" font-size="10.4" lengthAdjust="spacing" textLength="43.2" x="196.4" y="114.3523">changeUI</text><polygon fill="#181818" points="524.4,140.3953,532.4,143.5953,524.4,146.7953,527.6,143.5953" style="stroke:#181818;stroke-width:0.8000000000000002;"/><line style="stroke:#181818;stroke-width:0.8000000000000002;" x1="325.2" x2="529.2" y1="143.5953" y2="143.5953"/><text fill="#000000" font-family="sans-serif" font-size="10.4" font-weight="bold" lengthAdjust="spacing" textLength="5.6" x="330.8" y="139.3852">3</text><text fill="#000000" font-family="sans-serif" font-size="10.4" lengthAdjust="spacing" textLength="28.8" x="339.6" y="139.3852">create</text><rect fill="#E3E3E3" height="26.0969" rx="2" ry="2" style="stroke:#181818;stroke-width:0.4000000000000001;" width="129.6" x="534" y="124.9625"/><text fill="#000000" font-family="sans-serif" font-size="11.2" lengthAdjust="spacing" textLength="118.4" x="539.6" y="142.6484">:UserRegisterController</text><polygon fill="#181818" points="59.6,175.2922,51.6,178.4922,59.6,181.6922,56.4,178.4922" style="stroke:#181818;stroke-width:0.8000000000000002;"/><line style="stroke:#181818;stroke-width:0.8000000000000002;stroke-dasharray:2.0,2.0;" x1="54.8" x2="316.4" y1="178.4922" y2="178.4922"/><text fill="#000000" font-family="sans-serif" font-size="10.4" font-weight="bold" lengthAdjust="spacing" textLength="5.6" x="64.4" y="174.282">4</text><text fill="#000000" font-family="sans-serif" font-size="10.4" lengthAdjust="spacing" textLength="102.4" x="73.2" y="174.282">shows UserRegisterUI</text><polygon fill="#181818" points="59.6,200.325,51.6,203.525,59.6,206.725,56.4,203.525" style="stroke:#181818;stroke-width:0.8000000000000002;"/><line style="stroke:#181818;stroke-width:0.8000000000000002;stroke-dasharray:2.0,2.0;" x1="54.8" x2="320.4" y1="203.525" y2="203.525"/><text fill="#000000" font-family="sans-serif" font-size="10.4" font-weight="bold" lengthAdjust="spacing" textLength="5.6" x="64.4" y="199.3148">5</text><text fill="#000000" font-family="sans-serif" font-size="10.4" lengthAdjust="spacing" textLength="63.2" x="73.2" y="199.3148">requests data</text><polygon fill="#181818" points="307.6,225.3578,315.6,228.5578,307.6,231.7578,310.8,228.5578" style="stroke:#181818;stroke-width:0.8000000000000002;"/><line style="stroke:#181818;stroke-width:0.8000000000000002;" x1="50.8" x2="312.4" y1="228.5578" y2="228.5578"/><text fill="#000000" font-family="sans-serif" font-size="10.4" font-weight="bold" lengthAdjust="spacing" textLength="5.6" x="56.4" y="224.3477">6</text><text fill="#000000" font-family="sans-serif" font-size="10.4" lengthAdjust="spacing" textLength="91.2" x="65.2" y="224.3477">provides information</text><line style="stroke:#181818;stroke-width:0.8000000000000002;" x1="325.2" x2="358.8" y1="281.2563" y2="281.2563"/><line style="stroke:#181818;stroke-width:0.8000000000000002;" x1="358.8" x2="358.8" y1="281.2563" y2="291.6563"/><line style="stroke:#181818;stroke-width:0.8000000000000002;" x1="326" x2="358.8" y1="291.6563" y2="291.6563"/><polygon fill="#181818" points="334,288.4563,326,291.6563,334,294.8563,330.8,291.6563" style="stroke:#181818;stroke-width:0.8000000000000002;"/><text fill="#000000" font-family="sans-serif" font-size="10.4" font-weight="bold" lengthAdjust="spacing" textLength="5.6" x="330.8" y="263.2133">7</text><text fill="#000000" font-family="sans-serif" font-size="10.4" lengthAdjust="spacing" textLength="234.4" x="339.6" y="249.3805">keepAllData(name, passportNumber, emailAdress,</text><text fill="#000000" font-family="sans-serif" font-size="10.4" lengthAdjust="spacing" textLength="224" x="339.6" y="263.2133">taxNumber, telephoneNumber, password, street,</text><text fill="#000000" font-family="sans-serif" font-size="10.4" lengthAdjust="spacing" textLength="156" x="339.6" y="277.0461">city, district, state, zip code, role)</text><polygon fill="#181818" points="585.2,313.4891,593.2,316.6891,585.2,319.8891,588.4,316.6891" style="stroke:#181818;stroke-width:0.8000000000000002;"/><line style="stroke:#181818;stroke-width:0.8000000000000002;" x1="325.2" x2="590" y1="316.6891" y2="316.6891"/><text fill="#000000" font-family="sans-serif" font-size="10.4" font-weight="bold" lengthAdjust="spacing" textLength="5.6" x="330.8" y="312.4789">8</text><text fill="#000000" font-family="sans-serif" font-size="10.4" lengthAdjust="spacing" textLength="196.8" x="339.6" y="312.4789">createUser(name, emailAdress, password)</text><polygon fill="#181818" points="785.2,338.5219,793.2,341.7219,785.2,344.9219,788.4,341.7219" style="stroke:#181818;stroke-width:0.8000000000000002;"/><line style="stroke:#181818;stroke-width:0.8000000000000002;" x1="602.8" x2="790" y1="341.7219" y2="341.7219"/><text fill="#000000" font-family="sans-serif" font-size="10.4" font-weight="bold" lengthAdjust="spacing" textLength="5.6" x="608.4" y="337.5117">9</text><text fill="#000000" font-family="sans-serif" font-size="10.4" lengthAdjust="spacing" textLength="168" x="617.2" y="337.5117">User(name, emailAdress, password)</text><polygon fill="#181818" points="611.6,363.5547,603.6,366.7547,611.6,369.9547,608.4,366.7547" style="stroke:#181818;stroke-width:0.8000000000000002;"/><line style="stroke:#181818;stroke-width:0.8000000000000002;stroke-dasharray:2.0,2.0;" x1="606.8" x2="798" y1="366.7547" y2="366.7547"/><text fill="#000000" font-family="sans-serif" font-size="10.4" font-weight="bold" lengthAdjust="spacing" textLength="11.2" x="616.4" y="362.5445">10</text><text fill="#000000" font-family="sans-serif" font-size="10.4" lengthAdjust="spacing" textLength="20" x="630.8" y="362.5445">user</text><polygon fill="#181818" points="850.8,388.5875,858.8,391.7875,850.8,394.9875,854,391.7875" style="stroke:#181818;stroke-width:0.8000000000000002;"/><line style="stroke:#181818;stroke-width:0.8000000000000002;" x1="602.8" x2="855.6" y1="391.7875" y2="391.7875"/><text fill="#000000" font-family="sans-serif" font-size="10.4" font-weight="bold" lengthAdjust="spacing" textLength="11.2" x="608.4" y="387.5773">11</text><text fill="#000000" font-family="sans-serif" font-size="10.4" lengthAdjust="spacing" textLength="60" x="622.8" y="387.5773">getInstance()</text><polygon fill="#181818" points="611.6,413.6203,603.6,416.8203,611.6,420.0203,608.4,416.8203" style="stroke:#181818;stroke-width:0.8000000000000002;"/><line style="stroke:#181818;stroke-width:0.8000000000000002;stroke-dasharray:2.0,2.0;" x1="606.8" x2="863.6" y1="416.8203" y2="416.8203"/><text fill="#000000" font-family="sans-serif" font-size="10.4" font-weight="bold" lengthAdjust="spacing" textLength="11.2" x="616.4" y="412.6102">12</text><text fill="#000000" font-family="sans-serif" font-size="10.4" lengthAdjust="spacing" textLength="53.6" x="630.8" y="412.6102">repositories</text><polygon fill="#181818" points="936.4,438.6531,944.4,441.8531,936.4,445.0531,939.6,441.8531" style="stroke:#181818;stroke-width:0.8000000000000002;"/><line style="stroke:#181818;stroke-width:0.8000000000000002;" x1="602.8" x2="941.2" y1="441.8531" y2="441.8531"/><text fill="#000000" font-family="sans-serif" font-size="10.4" font-weight="bold" lengthAdjust="spacing" textLength="11.2" x="608.4" y="437.643">13</text><text fill="#000000" font-family="sans-serif" font-size="10.4" lengthAdjust="spacing" textLength="136.8" x="622.8" y="437.643">getAuthenticationRepository()</text><polygon fill="#181818" points="611.6,463.6859,603.6,466.8859,611.6,470.0859,608.4,466.8859" style="stroke:#181818;stroke-width:0.8000000000000002;"/><line style="stroke:#181818;stroke-width:0.8000000000000002;stroke-dasharray:2.0,2.0;" x1="606.8" x2="949.2" y1="466.8859" y2="466.8859"/><text fill="#000000" font-family="sans-serif" font-size="10.4" font-weight="bold" lengthAdjust="spacing" textLength="11.2" x="616.4" y="462.6758">14</text><text fill="#000000" font-family="sans-serif" font-size="10.4" lengthAdjust="spacing" textLength="130.4" x="630.8" y="462.6758">getAuthenticationRepository</text><polygon fill="#181818" points="1052,488.7188,1060,491.9188,1052,495.1188,1055.2,491.9188" style="stroke:#181818;stroke-width:0.8000000000000002;"/><line style="stroke:#181818;stroke-width:0.8000000000000002;" x1="602.8" x2="1056.8" y1="491.9188" y2="491.9188"/><text fill="#000000" font-family="sans-serif" font-size="10.4" font-weight="bold" lengthAdjust="spacing" textLength="11.2" x="608.4" y="487.7086">15</text><text fill="#000000" font-family="sans-serif" font-size="10.4" lengthAdjust="spacing" textLength="82.4" x="622.8" y="487.7086">validateUser(user)</text><polygon fill="#181818" points="611.6,513.7516,603.6,516.9516,611.6,520.1516,608.4,516.9516" style="stroke:#181818;stroke-width:0.8000000000000002;"/><line style="stroke:#181818;stroke-width:0.8000000000000002;stroke-dasharray:2.0,2.0;" x1="606.8" x2="1064.8" y1="516.9516" y2="516.9516"/><text fill="#000000" font-family="sans-serif" font-size="10.4" font-weight="bold" lengthAdjust="spacing" textLength="11.2" x="616.4" y="512.7414">16</text><text fill="#000000" font-family="sans-serif" font-size="10.4" lengthAdjust="spacing" textLength="56" x="630.8" y="512.7414">validateUser</text><path d="M268.4,528.9516 L317.2,528.9516 L317.2,536.3844 L309.2,544.3844 L268.4,544.3844 L268.4,528.9516 " fill="#EEEEEE" style="stroke:#000000;stroke-width:1.2000000000000002;"/><rect fill="none" height="368.525" style="stroke:#000000;stroke-width:1.2000000000000002;" width="1042" x="268.4" y="528.9516"/><text fill="#000000" font-family="sans-serif" font-size="10.4" font-weight="bold" lengthAdjust="spacing" textLength="12.8" x="280.4" y="540.9742">alt</text><text fill="#000000" font-family="sans-serif" font-size="8.8" font-weight="bold" lengthAdjust="spacing" textLength="111.2" x="329.2" y="540.0477">[validation was a sucess]</text><polygon fill="#181818" points="1052,559.8172,1060,563.0172,1052,566.2172,1055.2,563.0172" style="stroke:#181818;stroke-width:0.8000000000000002;"/><line style="stroke:#181818;stroke-width:0.8000000000000002;" x1="602.8" x2="1056.8" y1="563.0172" y2="563.0172"/><text fill="#000000" font-family="sans-serif" font-size="10.4" font-weight="bold" lengthAdjust="spacing" textLength="11.2" x="608.4" y="558.807">17</text><text fill="#000000" font-family="sans-serif" font-size="10.4" lengthAdjust="spacing" textLength="66.4" x="622.8" y="558.807">addUser(User)</text><polygon fill="#181818" points="611.6,584.85,603.6,588.05,611.6,591.25,608.4,588.05" style="stroke:#181818;stroke-width:0.8000000000000002;"/><line style="stroke:#181818;stroke-width:0.8000000000000002;stroke-dasharray:2.0,2.0;" x1="606.8" x2="1064.8" y1="588.05" y2="588.05"/><text fill="#000000" font-family="sans-serif" font-size="10.4" font-weight="bold" lengthAdjust="spacing" textLength="11.2" x="616.4" y="583.8398">18</text><text fill="#000000" font-family="sans-serif" font-size="10.4" lengthAdjust="spacing" textLength="38.4" x="630.8" y="583.8398">addUser</text><polygon fill="#181818" points="334,609.8828,326,613.0828,334,616.2828,330.8,613.0828" style="stroke:#181818;stroke-width:0.8000000000000002;"/><line style="stroke:#181818;stroke-width:0.8000000000000002;stroke-dasharray:2.0,2.0;" x1="329.2" x2="598" y1="613.0828" y2="613.0828"/><text fill="#000000" font-family="sans-serif" font-size="10.4" font-weight="bold" lengthAdjust="spacing" textLength="11.2" x="338.8" y="608.8727">19</text><text fill="#000000" font-family="sans-serif" font-size="10.4" lengthAdjust="spacing" textLength="50.4" x="353.2" y="608.8727">createUser</text><polygon fill="#181818" points="585.2,648.7484,593.2,651.9484,585.2,655.1484,588.4,651.9484" style="stroke:#181818;stroke-width:0.8000000000000002;"/><line style="stroke:#181818;stroke-width:0.8000000000000002;" x1="325.2" x2="590" y1="651.9484" y2="651.9484"/><text fill="#000000" font-family="sans-serif" font-size="10.4" font-weight="bold" lengthAdjust="spacing" textLength="11.2" x="330.8" y="640.8219">20</text><text fill="#000000" font-family="sans-serif" font-size="10.4" lengthAdjust="spacing" textLength="240" x="345.2" y="633.9055">createPerson(name, passportNumber, emailAdress,</text><text fill="#000000" font-family="sans-serif" font-size="10.4" lengthAdjust="spacing" textLength="207.2" x="345.2" y="647.7383">taxNumber, telephoneNumber, address, role)</text><polygon fill="#181818" points="1154,687.6141,1162,690.8141,1154,694.0141,1157.2,690.8141" style="stroke:#181818;stroke-width:0.8000000000000002;"/><line style="stroke:#181818;stroke-width:0.8000000000000002;" x1="602.8" x2="1158.8" y1="690.8141" y2="690.8141"/><text fill="#000000" font-family="sans-serif" font-size="10.4" font-weight="bold" lengthAdjust="spacing" textLength="11.2" x="608.4" y="679.6875">21</text><text fill="#000000" font-family="sans-serif" font-size="10.4" lengthAdjust="spacing" textLength="211.2" x="622.8" y="672.7711">Person(name, passportNumber, emailAdress,</text><text fill="#000000" font-family="sans-serif" font-size="10.4" lengthAdjust="spacing" textLength="207.2" x="622.8" y="686.6039">taxNumber, telephoneNumber, address, role)</text><polygon fill="#181818" points="611.6,712.6469,603.6,715.8469,611.6,719.0469,608.4,715.8469" style="stroke:#181818;stroke-width:0.8000000000000002;"/><line style="stroke:#181818;stroke-width:0.8000000000000002;stroke-dasharray:2.0,2.0;" x1="606.8" x2="1166.8" y1="715.8469" y2="715.8469"/><text fill="#000000" font-family="sans-serif" font-size="10.4" font-weight="bold" lengthAdjust="spacing" textLength="11.2" x="616.4" y="711.6367">22</text><text fill="#000000" font-family="sans-serif" font-size="10.4" lengthAdjust="spacing" textLength="31.2" x="630.8" y="711.6367">person</text><polygon fill="#181818" points="850.8,737.6797,858.8,740.8797,850.8,744.0797,854,740.8797" style="stroke:#181818;stroke-width:0.8000000000000002;"/><line style="stroke:#181818;stroke-width:0.8000000000000002;" x1="602.8" x2="855.6" y1="740.8797" y2="740.8797"/><text fill="#000000" font-family="sans-serif" font-size="10.4" font-weight="bold" lengthAdjust="spacing" textLength="11.2" x="608.4" y="736.6695">23</text><text fill="#000000" font-family="sans-serif" font-size="10.4" lengthAdjust="spacing" textLength="60" x="622.8" y="736.6695">getInstance()</text><polygon fill="#181818" points="611.6,762.7125,603.6,765.9125,611.6,769.1125,608.4,765.9125" style="stroke:#181818;stroke-width:0.8000000000000002;"/><line style="stroke:#181818;stroke-width:0.8000000000000002;stroke-dasharray:2.0,2.0;" x1="606.8" x2="863.6" y1="765.9125" y2="765.9125"/><text fill="#000000" font-family="sans-serif" font-size="10.4" font-weight="bold" lengthAdjust="spacing" textLength="11.2" x="616.4" y="761.7023">24</text><text fill="#000000" font-family="sans-serif" font-size="10.4" lengthAdjust="spacing" textLength="53.6" x="630.8" y="761.7023">repositories</text><polygon fill="#181818" points="936.4,787.7453,944.4,790.9453,936.4,794.1453,939.6,790.9453" style="stroke:#181818;stroke-width:0.8000000000000002;"/><line style="stroke:#181818;stroke-width:0.8000000000000002;" x1="602.8" x2="941.2" y1="790.9453" y2="790.9453"/><text fill="#000000" font-family="sans-serif" font-size="10.4" font-weight="bold" lengthAdjust="spacing" textLength="11.2" x="608.4" y="786.7352">25</text><text fill="#000000" font-family="sans-serif" font-size="10.4" lengthAdjust="spacing" textLength="103.2" x="622.8" y="786.7352">getPersonRepository()</text><polygon fill="#181818" points="611.6,812.7781,603.6,815.9781,611.6,819.1781,608.4,815.9781" style="stroke:#181818;stroke-width:0.8000000000000002;"/><line style="stroke:#181818;stroke-width:0.8000000000000002;stroke-dasharray:2.0,2.0;" x1="606.8" x2="949.2" y1="815.9781" y2="815.9781"/><text fill="#000000" font-family="sans-serif" font-size="10.4" font-weight="bold" lengthAdjust="spacing" textLength="11.2" x="616.4" y="811.768">26</text><text fill="#000000" font-family="sans-serif" font-size="10.4" lengthAdjust="spacing" textLength="96.8" x="630.8" y="811.768">getPersonRepository</text><polygon fill="#181818" points="1238,837.8109,1246,841.0109,1238,844.2109,1241.2,841.0109" style="stroke:#181818;stroke-width:0.8000000000000002;"/><line style="stroke:#181818;stroke-width:0.8000000000000002;" x1="602.8" x2="1242.8" y1="841.0109" y2="841.0109"/><text fill="#000000" font-family="sans-serif" font-size="10.4" font-weight="bold" lengthAdjust="spacing" textLength="11.2" x="608.4" y="836.8008">27</text><text fill="#000000" font-family="sans-serif" font-size="10.4" lengthAdjust="spacing" textLength="87.2" x="622.8" y="836.8008">addPerson(person)</text><polygon fill="#181818" points="611.6,862.8438,603.6,866.0438,611.6,869.2438,608.4,866.0438" style="stroke:#181818;stroke-width:0.8000000000000002;"/><line style="stroke:#181818;stroke-width:0.8000000000000002;stroke-dasharray:2.0,2.0;" x1="606.8" x2="1250.8" y1="866.0438" y2="866.0438"/><text fill="#000000" font-family="sans-serif" font-size="10.4" font-weight="bold" lengthAdjust="spacing" textLength="11.2" x="616.4" y="861.8336">28</text><text fill="#000000" font-family="sans-serif" font-size="10.4" lengthAdjust="spacing" textLength="49.6" x="630.8" y="861.8336">addPerson</text><polygon fill="#181818" points="334,887.8766,326,891.0766,334,894.2766,330.8,891.0766" style="stroke:#181818;stroke-width:0.8000000000000002;"/><line style="stroke:#181818;stroke-width:0.8000000000000002;stroke-dasharray:2.0,2.0;" x1="329.2" x2="598" y1="891.0766" y2="891.0766"/><text fill="#000000" font-family="sans-serif" font-size="10.4" font-weight="bold" lengthAdjust="spacing" textLength="11.2" x="338.8" y="886.8664">29</text><text fill="#000000" font-family="sans-serif" font-size="10.4" lengthAdjust="spacing" textLength="61.6" x="353.2" y="886.8664">createPerson</text><polygon fill="#181818" points="55.6,918.5094,47.6,921.7094,55.6,924.9094,52.4,921.7094" style="stroke:#181818;stroke-width:0.8000000000000002;"/><line style="stroke:#181818;stroke-width:0.8000000000000002;stroke-dasharray:2.0,2.0;" x1="50.8" x2="320.4" y1="921.7094" y2="921.7094"/><text fill="#000000" font-family="sans-serif" font-size="10.4" font-weight="bold" lengthAdjust="spacing" textLength="11.2" x="60.4" y="917.4992">30</text><text fill="#000000" font-family="sans-serif" font-size="10.4" lengthAdjust="spacing" textLength="232.8" x="74.8" y="917.4992">shows opperation result (successful/unsuccessful)</text><!--SRC=[jLTDRzim3BtxLmYzh2rIxDx3WAAx56Y7eLjklQWs4mkr9O-IctQ_VfJy4LcM4gV5V78ayf6Ff9uS_I9amv7Nh5PIvIMg6fZ15Z8zxZGyV-5R-6NUAs08kU5oM_a6kkI5sWcvPHjUQSWotXebs_ePCCk-bA80jb7AFAktZET68JjRIuIjq0OAjjQ0PunhTbi9a2OZI2DoqN1fsDdr0nVo0MIxldCszsehvFekCB8GZnqUzeRxdmTiRvKqgAggJs1S_lru7_5oDlObs7k4Hcb1j0Je7cU_CBL5R-T9pZqnwTbItEidUTEQaeeaScw4agF_k_DERGRv_WJKIZgFxdMwtxWrYjLj1Z72nIopBHMltC3Gm8pHqxspgsz3ozWrqr3Hy5YMNPtPSsjeJfpz239qcFNFu4v8-vuIM5xI549lM43KVrpqfc70zS0yQDlwoqiBZq2EKMioxzaHfLBjkg4u4i9tGlZJWgP25DpmC7yF9oZaX7w3wfNEbMP2RXJMhkCVvEpmNW2QcwhwJXcTIrx3Yawzrer2yyETunM3celgfa3GUlKa3NyRDWorjIcLX671UkuK5Ykc3G8OCi-5UL-nWkAXo8tTe1HNxAzeMAuAUgDZ21SBcZEsnjQypzJFR0o-1vjLn9rlvZsJ01JGObEWvI4cOPn4iE1na5TpCcrex8s20pgOg2yW1BO5SoUfj3A7yqHo4sqAavp0HPB5bFDaVZsRWydZBFcKWAN8u24oU8JCWNWfRhYOMmgPuhxoIXJ30Dls9yWjIiu-oLWHqdxm5CjauFs9gio0H1PiH_S2PxhDwNH4PcfnPNXHkAAiPqNvM65EBKuVVuQpf3Q7QSykhr72ikWHydGgYNn06xjB-jCwJlNe1AyJvnC4DTRuBYdAyVzabnoN_XidDXnzIf5HQE9ENfDws3dkXpNwDAt-j6QVfDqB1JpyEZp649SmN23aiw_I8qJnDA8XVASL_Hnten8X6epAaUncCU82bPhcsMJ6TFiaTGeYfVHfs0TPs7iXM_Z9h1ggMtTzq2bkwK8vfml4tY2RjlhQolsFYsDVo8ajRxd_O_8F]--></g></svg>