<?xml version="1.0" encoding="us-ascii" standalone="no"?><svg xmlns="http://www.w3.org/2000/svg" xmlns:xlink="http://www.w3.org/1999/xlink" contentStyleType="text/css" height="520.8px" preserveAspectRatio="none" style="width:1169px;height:520px;background:#FFFFFF;" version="1.1" viewBox="0 0 1169 520" width="1169.6px" zoomAndPan="magnify"><defs/><g><!--class MainMenuUI--><g id="elem_MainMenuUI"><rect fill="#F1F1F1" height="38.4" id="MainMenuUI" rx="2" ry="2" style="stroke:#181818;stroke-width:0.4000000000000001;" width="87.2" x="318.8" y="35.2"/><ellipse cx="330.8" cy="48" fill="#ADD1B2" rx="8.8" ry="8.8" style="stroke:#181818;stroke-width:0.8000000000000002;"/><path d="M333.0125,44.7 Q333.1375,44.525 333.2875,44.4375 Q333.4375,44.35 333.6125,44.35 Q333.9125,44.35 334.1,44.5625 Q334.2875,44.7625 334.2875,45.25 L334.2875,46.4125 Q334.2875,46.9 334.1,47.1125 Q333.9125,47.325 333.6125,47.325 Q333.3375,47.325 333.175,47.1625 Q333.0125,47.0125 332.925,46.6 Q332.8875,46.3125 332.7375,46.1625 Q332.475,45.8625 331.9875,45.6875 Q331.5,45.5125 331,45.5125 Q330.3875,45.5125 329.875,45.775 Q329.375,46.0375 328.975,46.6375 Q328.5875,47.2375 328.5875,48.0625 L328.5875,48.9375 Q328.5875,49.925 329.3,50.5875 Q330.0125,51.2375 331.2875,51.2375 Q332.0375,51.2375 332.5625,51.0375 Q332.875,50.9125 333.2125,50.5625 Q333.425,50.35 333.5375,50.2875 Q333.6625,50.225 333.825,50.225 Q334.0875,50.225 334.2875,50.4375 Q334.5,50.6375 334.5,50.9125 Q334.5,51.1875 334.225,51.5125 Q333.825,51.975 333.1875,52.2375 Q332.325,52.6 331.2875,52.6 Q330.075,52.6 329.1125,52.1 Q328.325,51.7 327.775,50.85 Q327.225,49.9875 327.225,48.9625 L327.225,48.0375 Q327.225,46.975 327.7125,46.0625 Q328.2125,45.1375 329.0875,44.65 Q329.9625,44.15 330.95,44.15 Q331.5375,44.15 332.05,44.2875 Q332.575,44.4125 333.0125,44.7 Z " fill="#000000"/><text fill="#000000" font-family="sans-serif" font-size="11.2" lengthAdjust="spacing" textLength="61.6" x="342" y="52.6375">MainMenuUI</text><line style="stroke:#181818;stroke-width:0.4000000000000001;" x1="319.6" x2="405.2" y1="60.8" y2="60.8"/><line style="stroke:#181818;stroke-width:0.4000000000000001;" x1="319.6" x2="405.2" y1="67.2" y2="67.2"/></g><!--class UserRegisterUI--><g id="elem_UserRegisterUI"><rect fill="#F1F1F1" height="38.4" id="UserRegisterUI" rx="2" ry="2" style="stroke:#181818;stroke-width:0.4000000000000001;" width="100.8" x="434.4" y="35.2"/><ellipse cx="446.4" cy="48" fill="#ADD1B2" rx="8.8" ry="8.8" style="stroke:#181818;stroke-width:0.8000000000000002;"/><path d="M448.6125,44.7 Q448.7375,44.525 448.8875,44.4375 Q449.0375,44.35 449.2125,44.35 Q449.5125,44.35 449.7,44.5625 Q449.8875,44.7625 449.8875,45.25 L449.8875,46.4125 Q449.8875,46.9 449.7,47.1125 Q449.5125,47.325 449.2125,47.325 Q448.9375,47.325 448.775,47.1625 Q448.6125,47.0125 448.525,46.6 Q448.4875,46.3125 448.3375,46.1625 Q448.075,45.8625 447.5875,45.6875 Q447.1,45.5125 446.6,45.5125 Q445.9875,45.5125 445.475,45.775 Q444.975,46.0375 444.575,46.6375 Q444.1875,47.2375 444.1875,48.0625 L444.1875,48.9375 Q444.1875,49.925 444.9,50.5875 Q445.6125,51.2375 446.8875,51.2375 Q447.6375,51.2375 448.1625,51.0375 Q448.475,50.9125 448.8125,50.5625 Q449.025,50.35 449.1375,50.2875 Q449.2625,50.225 449.425,50.225 Q449.6875,50.225 449.8875,50.4375 Q450.1,50.6375 450.1,50.9125 Q450.1,51.1875 449.825,51.5125 Q449.425,51.975 448.7875,52.2375 Q447.925,52.6 446.8875,52.6 Q445.675,52.6 444.7125,52.1 Q443.925,51.7 443.375,50.85 Q442.825,49.9875 442.825,48.9625 L442.825,48.0375 Q442.825,46.975 443.3125,46.0625 Q443.8125,45.1375 444.6875,44.65 Q445.5625,44.15 446.55,44.15 Q447.1375,44.15 447.65,44.2875 Q448.175,44.4125 448.6125,44.7 Z " fill="#000000"/><text fill="#000000" font-family="sans-serif" font-size="11.2" lengthAdjust="spacing" textLength="75.2" x="457.6" y="52.6375">UserRegisterUI</text><line style="stroke:#181818;stroke-width:0.4000000000000001;" x1="435.2" x2="534.4" y1="60.8" y2="60.8"/><line style="stroke:#181818;stroke-width:0.4000000000000001;" x1="435.2" x2="534.4" y1="67.2" y2="67.2"/></g><!--class UserRegisterController--><g id="elem_UserRegisterController"><rect fill="#F1F1F1" height="83.0906" id="UserRegisterController" rx="2" ry="2" style="stroke:#181818;stroke-width:0.4000000000000001;" width="253.6" x="563.6" y="12.8"/><ellipse cx="629.4" cy="25.6" fill="#ADD1B2" rx="8.8" ry="8.8" style="stroke:#181818;stroke-width:0.8000000000000002;"/><path d="M631.6125,22.3 Q631.7375,22.125 631.8875,22.0375 Q632.0375,21.95 632.2125,21.95 Q632.5125,21.95 632.7,22.1625 Q632.8875,22.3625 632.8875,22.85 L632.8875,24.0125 Q632.8875,24.5 632.7,24.7125 Q632.5125,24.925 632.2125,24.925 Q631.9375,24.925 631.775,24.7625 Q631.6125,24.6125 631.525,24.2 Q631.4875,23.9125 631.3375,23.7625 Q631.075,23.4625 630.5875,23.2875 Q630.1,23.1125 629.6,23.1125 Q628.9875,23.1125 628.475,23.375 Q627.975,23.6375 627.575,24.2375 Q627.1875,24.8375 627.1875,25.6625 L627.1875,26.5375 Q627.1875,27.525 627.9,28.1875 Q628.6125,28.8375 629.8875,28.8375 Q630.6375,28.8375 631.1625,28.6375 Q631.475,28.5125 631.8125,28.1625 Q632.025,27.95 632.1375,27.8875 Q632.2625,27.825 632.425,27.825 Q632.6875,27.825 632.8875,28.0375 Q633.1,28.2375 633.1,28.5125 Q633.1,28.7875 632.825,29.1125 Q632.425,29.575 631.7875,29.8375 Q630.925,30.2 629.8875,30.2 Q628.675,30.2 627.7125,29.7 Q626.925,29.3 626.375,28.45 Q625.825,27.5875 625.825,26.5625 L625.825,25.6375 Q625.825,24.575 626.3125,23.6625 Q626.8125,22.7375 627.6875,22.25 Q628.5625,21.75 629.55,21.75 Q630.1375,21.75 630.65,21.8875 Q631.175,22.0125 631.6125,22.3 Z " fill="#000000"/><text fill="#000000" font-family="sans-serif" font-size="11.2" lengthAdjust="spacing" textLength="115.2" x="645.8" y="30.2375">UserRegisterController</text><line style="stroke:#181818;stroke-width:0.4000000000000001;" x1="564.4" x2="816.4" y1="38.4" y2="38.4"/><line style="stroke:#181818;stroke-width:0.8000000000000002;" x1="564.4" x2="816.4" y1="44.8" y2="44.8"/><text fill="#000000" font-family="sans-serif" font-size="11.2" lengthAdjust="spacing" textLength="244" x="568.4" y="60.0859">+createPerson(name, taxNumber, emailAddress,</text><text fill="#000000" font-family="sans-serif" font-size="11.2" lengthAdjust="spacing" textLength="216.8" x="568.4" y="74.9828">telephoneNumber, address, passport, role)</text><text fill="#000000" font-family="sans-serif" font-size="11.2" lengthAdjust="spacing" textLength="226.4" x="568.4" y="89.8797">+createUser(name, emailAddress, password)</text></g><!--class Repositories--><g id="elem_Repositories"><rect fill="#F1F1F1" height="97.9875" id="Repositories" rx="2" ry="2" style="stroke:#181818;stroke-width:0.4000000000000001;" width="166.4" x="900" y="5.6"/><ellipse cx="948.2" cy="18.4" fill="#ADD1B2" rx="8.8" ry="8.8" style="stroke:#181818;stroke-width:0.8000000000000002;"/><path d="M950.4125,15.1 Q950.5375,14.925 950.6875,14.8375 Q950.8375,14.75 951.0125,14.75 Q951.3125,14.75 951.5,14.9625 Q951.6875,15.1625 951.6875,15.65 L951.6875,16.8125 Q951.6875,17.3 951.5,17.5125 Q951.3125,17.725 951.0125,17.725 Q950.7375,17.725 950.575,17.5625 Q950.4125,17.4125 950.325,17 Q950.2875,16.7125 950.1375,16.5625 Q949.875,16.2625 949.3875,16.0875 Q948.9,15.9125 948.4,15.9125 Q947.7875,15.9125 947.275,16.175 Q946.775,16.4375 946.375,17.0375 Q945.9875,17.6375 945.9875,18.4625 L945.9875,19.3375 Q945.9875,20.325 946.7,20.9875 Q947.4125,21.6375 948.6875,21.6375 Q949.4375,21.6375 949.9625,21.4375 Q950.275,21.3125 950.6125,20.9625 Q950.825,20.75 950.9375,20.6875 Q951.0625,20.625 951.225,20.625 Q951.4875,20.625 951.6875,20.8375 Q951.9,21.0375 951.9,21.3125 Q951.9,21.5875 951.625,21.9125 Q951.225,22.375 950.5875,22.6375 Q949.725,23 948.6875,23 Q947.475,23 946.5125,22.5 Q945.725,22.1 945.175,21.25 Q944.625,20.3875 944.625,19.3625 L944.625,18.4375 Q944.625,17.375 945.1125,16.4625 Q945.6125,15.5375 946.4875,15.05 Q947.3625,14.55 948.35,14.55 Q948.9375,14.55 949.45,14.6875 Q949.975,14.8125 950.4125,15.1 Z " fill="#000000"/><text fill="#000000" font-family="sans-serif" font-size="11.2" lengthAdjust="spacing" textLength="63.2" x="964.6" y="23.0375">Repositories</text><line style="stroke:#181818;stroke-width:0.4000000000000001;" x1="900.8" x2="1065.6" y1="31.2" y2="31.2"/><line style="stroke:#181818;stroke-width:0.8000000000000002;" x1="900.8" x2="1065.6" y1="37.6" y2="37.6"/><text fill="#000000" font-family="sans-serif" font-size="11.2" lengthAdjust="spacing" textLength="75.2" x="904.8" y="52.8859">-Repositories()</text><text fill="#000000" font-family="sans-serif" font-size="11.2" lengthAdjust="spacing" textLength="145.6" x="904.8" y="67.7828">+getInstance() : Repositories</text><text fill="#000000" font-family="sans-serif" font-size="11.2" lengthAdjust="spacing" textLength="120.8" x="904.8" y="82.6797">+getPersonRepository()</text><text fill="#000000" font-family="sans-serif" font-size="11.2" lengthAdjust="spacing" textLength="156.8" x="904.8" y="97.5766">+getAuthenticationRepository()</text></g><!--class PersonRepository--><g id="elem_PersonRepository"><rect fill="#F1F1F1" height="53.2969" id="PersonRepository" rx="2" ry="2" style="stroke:#181818;stroke-width:0.4000000000000001;" width="116" x="793.2" y="218.8"/><ellipse cx="805.2" cy="231.6" fill="#ADD1B2" rx="8.8" ry="8.8" style="stroke:#181818;stroke-width:0.8000000000000002;"/><path d="M807.4125,228.3 Q807.5375,228.125 807.6875,228.0375 Q807.8375,227.95 808.0125,227.95 Q808.3125,227.95 808.5,228.1625 Q808.6875,228.3625 808.6875,228.85 L808.6875,230.0125 Q808.6875,230.5 808.5,230.7125 Q808.3125,230.925 808.0125,230.925 Q807.7375,230.925 807.575,230.7625 Q807.4125,230.6125 807.325,230.2 Q807.2875,229.9125 807.1375,229.7625 Q806.875,229.4625 806.3875,229.2875 Q805.9,229.1125 805.4,229.1125 Q804.7875,229.1125 804.275,229.375 Q803.775,229.6375 803.375,230.2375 Q802.9875,230.8375 802.9875,231.6625 L802.9875,232.5375 Q802.9875,233.525 803.7,234.1875 Q804.4125,234.8375 805.6875,234.8375 Q806.4375,234.8375 806.9625,234.6375 Q807.275,234.5125 807.6125,234.1625 Q807.825,233.95 807.9375,233.8875 Q808.0625,233.825 808.225,233.825 Q808.4875,233.825 808.6875,234.0375 Q808.9,234.2375 808.9,234.5125 Q808.9,234.7875 808.625,235.1125 Q808.225,235.575 807.5875,235.8375 Q806.725,236.2 805.6875,236.2 Q804.475,236.2 803.5125,235.7 Q802.725,235.3 802.175,234.45 Q801.625,233.5875 801.625,232.5625 L801.625,231.6375 Q801.625,230.575 802.1125,229.6625 Q802.6125,228.7375 803.4875,228.25 Q804.3625,227.75 805.35,227.75 Q805.9375,227.75 806.45,227.8875 Q806.975,228.0125 807.4125,228.3 Z " fill="#000000"/><text fill="#000000" font-family="sans-serif" font-size="11.2" lengthAdjust="spacing" textLength="90.4" x="816.4" y="236.2375">PersonRepository</text><line style="stroke:#181818;stroke-width:0.4000000000000001;" x1="794" x2="908.4" y1="244.4" y2="244.4"/><line style="stroke:#181818;stroke-width:0.4000000000000001;" x1="794" x2="908.4" y1="250.8" y2="250.8"/><text fill="#000000" font-family="sans-serif" font-size="11.2" lengthAdjust="spacing" textLength="105.6" x="798" y="266.0859">+addPerson(Person)</text></g><!--class AuthenticationRepository--><g id="elem_AuthenticationRepository"><rect fill="#F1F1F1" height="68.1938" id="AuthenticationRepository" rx="2" ry="2" style="stroke:#181818;stroke-width:0.4000000000000001;" width="152" x="937.6" y="211.6"/><ellipse cx="949.6" cy="224.4" fill="#ADD1B2" rx="8.8" ry="8.8" style="stroke:#181818;stroke-width:0.8000000000000002;"/><path d="M951.8125,221.1 Q951.9375,220.925 952.0875,220.8375 Q952.2375,220.75 952.4125,220.75 Q952.7125,220.75 952.9,220.9625 Q953.0875,221.1625 953.0875,221.65 L953.0875,222.8125 Q953.0875,223.3 952.9,223.5125 Q952.7125,223.725 952.4125,223.725 Q952.1375,223.725 951.975,223.5625 Q951.8125,223.4125 951.725,223 Q951.6875,222.7125 951.5375,222.5625 Q951.275,222.2625 950.7875,222.0875 Q950.3,221.9125 949.8,221.9125 Q949.1875,221.9125 948.675,222.175 Q948.175,222.4375 947.775,223.0375 Q947.3875,223.6375 947.3875,224.4625 L947.3875,225.3375 Q947.3875,226.325 948.1,226.9875 Q948.8125,227.6375 950.0875,227.6375 Q950.8375,227.6375 951.3625,227.4375 Q951.675,227.3125 952.0125,226.9625 Q952.225,226.75 952.3375,226.6875 Q952.4625,226.625 952.625,226.625 Q952.8875,226.625 953.0875,226.8375 Q953.3,227.0375 953.3,227.3125 Q953.3,227.5875 953.025,227.9125 Q952.625,228.375 951.9875,228.6375 Q951.125,229 950.0875,229 Q948.875,229 947.9125,228.5 Q947.125,228.1 946.575,227.25 Q946.025,226.3875 946.025,225.3625 L946.025,224.4375 Q946.025,223.375 946.5125,222.4625 Q947.0125,221.5375 947.8875,221.05 Q948.7625,220.55 949.75,220.55 Q950.3375,220.55 950.85,220.6875 Q951.375,220.8125 951.8125,221.1 Z " fill="#000000"/><text fill="#000000" font-family="sans-serif" font-size="11.2" lengthAdjust="spacing" textLength="126.4" x="960.8" y="229.0375">AuthenticationRepository</text><line style="stroke:#181818;stroke-width:0.4000000000000001;" x1="938.4" x2="1088.8" y1="237.2" y2="237.2"/><line style="stroke:#181818;stroke-width:0.8000000000000002;" x1="938.4" x2="1088.8" y1="243.6" y2="243.6"/><text fill="#000000" font-family="sans-serif" font-size="11.2" lengthAdjust="spacing" textLength="80" x="942.4" y="258.8859">+addUser(User)</text><text fill="#000000" font-family="sans-serif" font-size="11.2" lengthAdjust="spacing" textLength="100" x="942.4" y="273.7828">+validateUser(User)</text></g><!--class Person--><g id="elem_Person"><rect fill="#F1F1F1" height="187.3688" id="Person" rx="2" ry="2" style="stroke:#181818;stroke-width:0.4000000000000001;" width="226.4" x="306.8" y="152"/><ellipse cx="398.6" cy="164.8" fill="#ADD1B2" rx="8.8" ry="8.8" style="stroke:#181818;stroke-width:0.8000000000000002;"/><path d="M400.8125,161.5 Q400.9375,161.325 401.0875,161.2375 Q401.2375,161.15 401.4125,161.15 Q401.7125,161.15 401.9,161.3625 Q402.0875,161.5625 402.0875,162.05 L402.0875,163.2125 Q402.0875,163.7 401.9,163.9125 Q401.7125,164.125 401.4125,164.125 Q401.1375,164.125 400.975,163.9625 Q400.8125,163.8125 400.725,163.4 Q400.6875,163.1125 400.5375,162.9625 Q400.275,162.6625 399.7875,162.4875 Q399.3,162.3125 398.8,162.3125 Q398.1875,162.3125 397.675,162.575 Q397.175,162.8375 396.775,163.4375 Q396.3875,164.0375 396.3875,164.8625 L396.3875,165.7375 Q396.3875,166.725 397.1,167.3875 Q397.8125,168.0375 399.0875,168.0375 Q399.8375,168.0375 400.3625,167.8375 Q400.675,167.7125 401.0125,167.3625 Q401.225,167.15 401.3375,167.0875 Q401.4625,167.025 401.625,167.025 Q401.8875,167.025 402.0875,167.2375 Q402.3,167.4375 402.3,167.7125 Q402.3,167.9875 402.025,168.3125 Q401.625,168.775 400.9875,169.0375 Q400.125,169.4 399.0875,169.4 Q397.875,169.4 396.9125,168.9 Q396.125,168.5 395.575,167.65 Q395.025,166.7875 395.025,165.7625 L395.025,164.8375 Q395.025,163.775 395.5125,162.8625 Q396.0125,161.9375 396.8875,161.45 Q397.7625,160.95 398.75,160.95 Q399.3375,160.95 399.85,161.0875 Q400.375,161.2125 400.8125,161.5 Z " fill="#000000"/><text fill="#000000" font-family="sans-serif" font-size="11.2" lengthAdjust="spacing" textLength="36" x="415" y="169.4375">Person</text><line style="stroke:#181818;stroke-width:0.4000000000000001;" x1="307.6" x2="532.4" y1="177.6" y2="177.6"/><text fill="#000000" font-family="sans-serif" font-size="11.2" lengthAdjust="spacing" textLength="64.8" x="311.6" y="192.8859">-String name</text><text fill="#000000" font-family="sans-serif" font-size="11.2" lengthAdjust="spacing" textLength="72.8" x="311.6" y="207.7828">-int taxNumber</text><text fill="#000000" font-family="sans-serif" font-size="11.2" lengthAdjust="spacing" textLength="104.8" x="311.6" y="222.6797">-String emailAddress</text><text fill="#000000" font-family="sans-serif" font-size="11.2" lengthAdjust="spacing" textLength="108.8" x="311.6" y="237.5766">-int telephoneNumber</text><line style="stroke:#181818;stroke-width:0.8000000000000002;" x1="307.6" x2="532.4" y1="243.5875" y2="243.5875"/><text fill="#000000" font-family="sans-serif" font-size="11.2" lengthAdjust="spacing" textLength="212" x="311.6" y="258.8734">+Person(name, taxNumber, emailAddress,</text><text fill="#000000" font-family="sans-serif" font-size="11.2" lengthAdjust="spacing" textLength="216.8" x="311.6" y="273.7703">telephoneNumber, address, passport, role)</text><text fill="#000000" font-family="sans-serif" font-size="11.2" lengthAdjust="spacing" textLength="51.2" x="311.6" y="288.6672">+getName</text><text fill="#000000" font-family="sans-serif" font-size="11.2" lengthAdjust="spacing" textLength="80" x="311.6" y="303.5641">+getTaxNumber</text><text fill="#000000" font-family="sans-serif" font-size="11.2" lengthAdjust="spacing" textLength="91.2" x="311.6" y="318.4609">+getEmailAddress</text><text fill="#000000" font-family="sans-serif" font-size="11.2" lengthAdjust="spacing" textLength="116" x="311.6" y="333.3578">+getTelephoneNumber</text></g><!--class User--><g id="elem_User"><rect fill="#F1F1F1" height="142.6781" id="User" rx="2" ry="2" style="stroke:#181818;stroke-width:0.4000000000000001;" width="204" x="561.2" y="174.4"/><ellipse cx="648.2" cy="187.2" fill="#ADD1B2" rx="8.8" ry="8.8" style="stroke:#181818;stroke-width:0.8000000000000002;"/><path d="M650.4125,183.9 Q650.5375,183.725 650.6875,183.6375 Q650.8375,183.55 651.0125,183.55 Q651.3125,183.55 651.5,183.7625 Q651.6875,183.9625 651.6875,184.45 L651.6875,185.6125 Q651.6875,186.1 651.5,186.3125 Q651.3125,186.525 651.0125,186.525 Q650.7375,186.525 650.575,186.3625 Q650.4125,186.2125 650.325,185.8 Q650.2875,185.5125 650.1375,185.3625 Q649.875,185.0625 649.3875,184.8875 Q648.9,184.7125 648.4,184.7125 Q647.7875,184.7125 647.275,184.975 Q646.775,185.2375 646.375,185.8375 Q645.9875,186.4375 645.9875,187.2625 L645.9875,188.1375 Q645.9875,189.125 646.7,189.7875 Q647.4125,190.4375 648.6875,190.4375 Q649.4375,190.4375 649.9625,190.2375 Q650.275,190.1125 650.6125,189.7625 Q650.825,189.55 650.9375,189.4875 Q651.0625,189.425 651.225,189.425 Q651.4875,189.425 651.6875,189.6375 Q651.9,189.8375 651.9,190.1125 Q651.9,190.3875 651.625,190.7125 Q651.225,191.175 650.5875,191.4375 Q649.725,191.8 648.6875,191.8 Q647.475,191.8 646.5125,191.3 Q645.725,190.9 645.175,190.05 Q644.625,189.1875 644.625,188.1625 L644.625,187.2375 Q644.625,186.175 645.1125,185.2625 Q645.6125,184.3375 646.4875,183.85 Q647.3625,183.35 648.35,183.35 Q648.9375,183.35 649.45,183.4875 Q649.975,183.6125 650.4125,183.9 Z " fill="#000000"/><text fill="#000000" font-family="sans-serif" font-size="11.2" lengthAdjust="spacing" textLength="23.2" x="664.6" y="191.8375">User</text><line style="stroke:#181818;stroke-width:0.4000000000000001;" x1="562" x2="764.4" y1="200" y2="200"/><text fill="#000000" font-family="sans-serif" font-size="11.2" lengthAdjust="spacing" textLength="64.8" x="566" y="215.2859">-String name</text><text fill="#000000" font-family="sans-serif" font-size="11.2" lengthAdjust="spacing" textLength="104.8" x="566" y="230.1828">-String emailAddress</text><text fill="#000000" font-family="sans-serif" font-size="11.2" lengthAdjust="spacing" textLength="84.8" x="566" y="245.0797">-String password</text><line style="stroke:#181818;stroke-width:0.8000000000000002;" x1="562" x2="764.4" y1="251.0906" y2="251.0906"/><text fill="#000000" font-family="sans-serif" font-size="11.2" lengthAdjust="spacing" textLength="194.4" x="566" y="266.3766">+User(name, emailAddress, password)</text><text fill="#000000" font-family="sans-serif" font-size="11.2" lengthAdjust="spacing" textLength="51.2" x="566" y="281.2734">+getName</text><text fill="#000000" font-family="sans-serif" font-size="11.2" lengthAdjust="spacing" textLength="91.2" x="566" y="296.1703">+getEmailAddress</text><text fill="#000000" font-family="sans-serif" font-size="11.2" lengthAdjust="spacing" textLength="71.2" x="566" y="311.0672">+getPassword</text></g><!--class PassportCard--><g id="elem_PassportCard"><rect fill="#F1F1F1" height="83.0906" id="PassportCard" rx="2" ry="2" style="stroke:#181818;stroke-width:0.4000000000000001;" width="176.8" x="244.4" y="417.2"/><ellipse cx="294.6" cy="430" fill="#ADD1B2" rx="8.8" ry="8.8" style="stroke:#181818;stroke-width:0.8000000000000002;"/><path d="M296.8125,426.7 Q296.9375,426.525 297.0875,426.4375 Q297.2375,426.35 297.4125,426.35 Q297.7125,426.35 297.9,426.5625 Q298.0875,426.7625 298.0875,427.25 L298.0875,428.4125 Q298.0875,428.9 297.9,429.1125 Q297.7125,429.325 297.4125,429.325 Q297.1375,429.325 296.975,429.1625 Q296.8125,429.0125 296.725,428.6 Q296.6875,428.3125 296.5375,428.1625 Q296.275,427.8625 295.7875,427.6875 Q295.3,427.5125 294.8,427.5125 Q294.1875,427.5125 293.675,427.775 Q293.175,428.0375 292.775,428.6375 Q292.3875,429.2375 292.3875,430.0625 L292.3875,430.9375 Q292.3875,431.925 293.1,432.5875 Q293.8125,433.2375 295.0875,433.2375 Q295.8375,433.2375 296.3625,433.0375 Q296.675,432.9125 297.0125,432.5625 Q297.225,432.35 297.3375,432.2875 Q297.4625,432.225 297.625,432.225 Q297.8875,432.225 298.0875,432.4375 Q298.3,432.6375 298.3,432.9125 Q298.3,433.1875 298.025,433.5125 Q297.625,433.975 296.9875,434.2375 Q296.125,434.6 295.0875,434.6 Q293.875,434.6 292.9125,434.1 Q292.125,433.7 291.575,432.85 Q291.025,431.9875 291.025,430.9625 L291.025,430.0375 Q291.025,428.975 291.5125,428.0625 Q292.0125,427.1375 292.8875,426.65 Q293.7625,426.15 294.75,426.15 Q295.3375,426.15 295.85,426.2875 Q296.375,426.4125 296.8125,426.7 Z " fill="#000000"/><text fill="#000000" font-family="sans-serif" font-size="11.2" lengthAdjust="spacing" textLength="69.6" x="311" y="434.6375">PassportCard</text><line style="stroke:#181818;stroke-width:0.4000000000000001;" x1="245.2" x2="420.4" y1="442.8" y2="442.8"/><text fill="#000000" font-family="sans-serif" font-size="11.2" lengthAdjust="spacing" textLength="102.4" x="249.2" y="458.0859">-int passportNumber</text><line style="stroke:#181818;stroke-width:0.8000000000000002;" x1="245.2" x2="420.4" y1="464.0969" y2="464.0969"/><text fill="#000000" font-family="sans-serif" font-size="11.2" lengthAdjust="spacing" textLength="167.2" x="249.2" y="479.3828">+PassportCard(passportNumber)</text><text fill="#000000" font-family="sans-serif" font-size="11.2" lengthAdjust="spacing" textLength="106.4" x="249.2" y="494.2797">+getPassportNumber</text></g><!--class Role--><g id="elem_Role"><rect fill="#F1F1F1" height="112.8844" id="Role" rx="2" ry="2" style="stroke:#181818;stroke-width:0.4000000000000001;" width="117.6" x="449.2" y="402.4"/><ellipse cx="493" cy="415.2" fill="#ADD1B2" rx="8.8" ry="8.8" style="stroke:#181818;stroke-width:0.8000000000000002;"/><path d="M495.2125,411.9 Q495.3375,411.725 495.4875,411.6375 Q495.6375,411.55 495.8125,411.55 Q496.1125,411.55 496.3,411.7625 Q496.4875,411.9625 496.4875,412.45 L496.4875,413.6125 Q496.4875,414.1 496.3,414.3125 Q496.1125,414.525 495.8125,414.525 Q495.5375,414.525 495.375,414.3625 Q495.2125,414.2125 495.125,413.8 Q495.0875,413.5125 494.9375,413.3625 Q494.675,413.0625 494.1875,412.8875 Q493.7,412.7125 493.2,412.7125 Q492.5875,412.7125 492.075,412.975 Q491.575,413.2375 491.175,413.8375 Q490.7875,414.4375 490.7875,415.2625 L490.7875,416.1375 Q490.7875,417.125 491.5,417.7875 Q492.2125,418.4375 493.4875,418.4375 Q494.2375,418.4375 494.7625,418.2375 Q495.075,418.1125 495.4125,417.7625 Q495.625,417.55 495.7375,417.4875 Q495.8625,417.425 496.025,417.425 Q496.2875,417.425 496.4875,417.6375 Q496.7,417.8375 496.7,418.1125 Q496.7,418.3875 496.425,418.7125 Q496.025,419.175 495.3875,419.4375 Q494.525,419.8 493.4875,419.8 Q492.275,419.8 491.3125,419.3 Q490.525,418.9 489.975,418.05 Q489.425,417.1875 489.425,416.1625 L489.425,415.2375 Q489.425,414.175 489.9125,413.2625 Q490.4125,412.3375 491.2875,411.85 Q492.1625,411.35 493.15,411.35 Q493.7375,411.35 494.25,411.4875 Q494.775,411.6125 495.2125,411.9 Z " fill="#000000"/><text fill="#000000" font-family="sans-serif" font-size="11.2" lengthAdjust="spacing" textLength="23.2" x="509.4" y="419.8375">Role</text><line style="stroke:#181818;stroke-width:0.4000000000000001;" x1="450" x2="566" y1="428" y2="428"/><text fill="#000000" font-family="sans-serif" font-size="11.2" lengthAdjust="spacing" textLength="45.6" x="454" y="443.2859">-String id</text><text fill="#000000" font-family="sans-serif" font-size="11.2" lengthAdjust="spacing" textLength="92" x="454" y="458.1828">-String description</text><line style="stroke:#181818;stroke-width:0.8000000000000002;" x1="450" x2="566" y1="464.1938" y2="464.1938"/><text fill="#000000" font-family="sans-serif" font-size="11.2" lengthAdjust="spacing" textLength="108" x="454" y="479.4797">+Role(id, description)</text><text fill="#000000" font-family="sans-serif" font-size="11.2" lengthAdjust="spacing" textLength="32.8" x="454" y="494.3766">+getID</text><text fill="#000000" font-family="sans-serif" font-size="11.2" lengthAdjust="spacing" textLength="79.2" x="454" y="509.2734">+getDescription</text></g><!--class Address--><g id="elem_Address"><rect fill="#F1F1F1" height="142.6781" id="Address" rx="2" ry="2" style="stroke:#181818;stroke-width:0.4000000000000001;" width="235.2" x="5.6" y="174.4"/><ellipse cx="99" cy="187.2" fill="#ADD1B2" rx="8.8" ry="8.8" style="stroke:#181818;stroke-width:0.8000000000000002;"/><path d="M101.2125,183.9 Q101.3375,183.725 101.4875,183.6375 Q101.6375,183.55 101.8125,183.55 Q102.1125,183.55 102.3,183.7625 Q102.4875,183.9625 102.4875,184.45 L102.4875,185.6125 Q102.4875,186.1 102.3,186.3125 Q102.1125,186.525 101.8125,186.525 Q101.5375,186.525 101.375,186.3625 Q101.2125,186.2125 101.125,185.8 Q101.0875,185.5125 100.9375,185.3625 Q100.675,185.0625 100.1875,184.8875 Q99.7,184.7125 99.2,184.7125 Q98.5875,184.7125 98.075,184.975 Q97.575,185.2375 97.175,185.8375 Q96.7875,186.4375 96.7875,187.2625 L96.7875,188.1375 Q96.7875,189.125 97.5,189.7875 Q98.2125,190.4375 99.4875,190.4375 Q100.2375,190.4375 100.7625,190.2375 Q101.075,190.1125 101.4125,189.7625 Q101.625,189.55 101.7375,189.4875 Q101.8625,189.425 102.025,189.425 Q102.2875,189.425 102.4875,189.6375 Q102.7,189.8375 102.7,190.1125 Q102.7,190.3875 102.425,190.7125 Q102.025,191.175 101.3875,191.4375 Q100.525,191.8 99.4875,191.8 Q98.275,191.8 97.3125,191.3 Q96.525,190.9 95.975,190.05 Q95.425,189.1875 95.425,188.1625 L95.425,187.2375 Q95.425,186.175 95.9125,185.2625 Q96.4125,184.3375 97.2875,183.85 Q98.1625,183.35 99.15,183.35 Q99.7375,183.35 100.25,183.4875 Q100.775,183.6125 101.2125,183.9 Z " fill="#000000"/><text fill="#000000" font-family="sans-serif" font-size="11.2" lengthAdjust="spacing" textLength="41.6" x="115.4" y="191.8375">Address</text><line style="stroke:#181818;stroke-width:0.4000000000000001;" x1="6.4" x2="240" y1="200" y2="200"/><text fill="#000000" font-family="sans-serif" font-size="11.2" lengthAdjust="spacing" textLength="65.6" x="10.4" y="215.2859">-String street</text><text fill="#000000" font-family="sans-serif" font-size="11.2" lengthAdjust="spacing" textLength="53.6" x="10.4" y="230.1828">-String city</text><text fill="#000000" font-family="sans-serif" font-size="11.2" lengthAdjust="spacing" textLength="69.6" x="10.4" y="245.0797">-String district</text><text fill="#000000" font-family="sans-serif" font-size="11.2" lengthAdjust="spacing" textLength="61.6" x="10.4" y="259.9766">-String state</text><text fill="#000000" font-family="sans-serif" font-size="11.2" lengthAdjust="spacing" textLength="77.6" x="10.4" y="274.8734">-String zipCode</text><line style="stroke:#181818;stroke-width:0.8000000000000002;" x1="6.4" x2="240" y1="280.8844" y2="280.8844"/><text fill="#000000" font-family="sans-serif" font-size="11.2" lengthAdjust="spacing" textLength="225.6" x="10.4" y="296.1703">+Address(street, city, district, state, zipCode)</text><text fill="#000000" font-family="sans-serif" font-size="11.2" lengthAdjust="spacing" textLength="87.2" x="10.4" y="311.0672">+setAddressData</text></g><!--link MainMenuUI to UserRegisterUI--><g id="link_MainMenuUI_UserRegisterUI"><path d="M406.136,54.4 C411.096,54.4 421.448,54.4 430.072,54.4 " fill="none" id="MainMenuUI-to-UserRegisterUI" style="stroke:#181818;stroke-width:0.8000000000000002;stroke-dasharray:7.0,7.0;"/><polygon fill="#181818" points="434.136,54.4,426.936,51.2,430.136,54.4,426.936,57.6,434.136,54.4" style="stroke:#181818;stroke-width:0.8000000000000002;"/></g><!--link UserRegisterUI to UserRegisterController--><g id="link_UserRegisterUI_UserRegisterController"><path d="M535.328,54.4 C545.6,54.4 553.336,54.4 553.336,54.4 C553.336,54.4 555.592,54.4 559.296,54.4 " fill="none" id="UserRegisterUI-to-UserRegisterController" style="stroke:#181818;stroke-width:0.8000000000000002;stroke-dasharray:7.0,7.0;"/><polygon fill="#181818" points="563.448,54.4,556.248,51.2,559.448,54.4,556.248,57.6,563.448,54.4" style="stroke:#181818;stroke-width:0.8000000000000002;"/></g><!--link UserRegisterController to Repositories--><g id="link_UserRegisterController_Repositories"><path d="M817.336,54.4 C843.76,54.4 871.048,54.4 895.672,54.4 " fill="none" id="UserRegisterController-to-Repositories" style="stroke:#181818;stroke-width:0.8000000000000002;stroke-dasharray:7.0,7.0;"/><polygon fill="#181818" points="899.92,54.4,892.72,51.2,895.92,54.4,892.72,57.6,899.92,54.4" style="stroke:#181818;stroke-width:0.8000000000000002;"/><text fill="#000000" font-family="sans-serif" font-size="10.4" lengthAdjust="spacing" textLength="53.6" x="831.8" y="48.8227">repositories</text></g><!--link UserRegisterController to Person--><g id="link_UserRegisterController_Person"><path d="M629.88,96.112 C590.792,122.528 547.2,152 547.2,152 C547.2,152 543.248,154.88 536.744,159.632 " fill="none" id="UserRegisterController-to-Person" style="stroke:#181818;stroke-width:0.8000000000000002;stroke-dasharray:7.0,7.0;"/><polygon fill="#181818" points="533.344,162.104,541.0484,160.4539,536.578,159.75,537.2819,155.2796,533.344,162.104" style="stroke:#181818;stroke-width:0.8000000000000002;"/></g><!--link UserRegisterController to User--><g id="link_UserRegisterController_User"><path d="M684.528,96.104 C681.432,117.704 677.536,144.888 673.92,170.088 " fill="none" id="UserRegisterController-to-User" style="stroke:#181818;stroke-width:0.8000000000000002;stroke-dasharray:7.0,7.0;"/><polygon fill="#181818" points="673.344,174.112,677.5381,167.442,673.9145,170.1529,671.2036,166.5292,673.344,174.112" style="stroke:#181818;stroke-width:0.8000000000000002;"/></g><!--link UserRegisterController to PersonRepository--><g id="link_UserRegisterController_PersonRepository"><path d="M728.056,96.248 C752.264,122.632 779.2,152 779.2,152 C779.2,152 807.32,188.248 828.416,215.432 " fill="none" id="UserRegisterController-to-PersonRepository" style="stroke:#181818;stroke-width:0.8000000000000002;stroke-dasharray:7.0,7.0;"/><polygon fill="#181818" points="830.952,218.704,829.0825,211.0499,828.5065,215.5386,824.0179,214.9627,830.952,218.704" style="stroke:#181818;stroke-width:0.8000000000000002;"/></g><!--link UserRegisterController to AuthenticationRepository--><g id="link_UserRegisterController_AuthenticationRepository"><path d="M788.792,96.112 C852.328,122.528 923.2,152 923.2,152 C923.2,152 952.824,182.408 978.152,208.416 " fill="none" id="UserRegisterController-to-AuthenticationRepository" style="stroke:#181818;stroke-width:0.8000000000000002;stroke-dasharray:7.0,7.0;"/><polygon fill="#181818" points="981.216,211.56,978.4918,204.1668,978.4278,208.6919,973.9028,208.6279,981.216,211.56" style="stroke:#181818;stroke-width:0.8000000000000002;"/></g><!--link Repositories to Repositories--><g id="link_Repositories_Repositories"><path d="M1066.608,41.504 C1082.864,43 1094.4,47.296 1094.4,54.4 C1094.4,60.888 1084.76,65.04 1070.688,66.848 " fill="none" id="Repositories-to-Repositories" style="stroke:#181818;stroke-width:0.8000000000000002;"/><polygon fill="#181818" points="1066.608,67.296,1074.1196,69.6742,1070.5831,66.8505,1073.4068,63.314,1066.608,67.296" style="stroke:#181818;stroke-width:0.8000000000000002;"/><text fill="#000000" font-family="sans-serif" font-size="10.4" lengthAdjust="spacing" textLength="60" x="1099.2" y="58.8227">getInstance()</text></g><!--link Repositories to AuthenticationRepository--><g id="link_Repositories_AuthenticationRepository"><path d="M990.912,103.288 C996.072,135.496 1002.776,177.288 1007.552,207.096 " fill="none" id="Repositories-to-AuthenticationRepository" style="stroke:#181818;stroke-width:0.8000000000000002;"/><polygon fill="#181818" points="1008.248,211.4,1010.2746,203.786,1007.6183,207.4499,1003.9544,204.7936,1008.248,211.4" style="stroke:#181818;stroke-width:0.8000000000000002;"/></g><!--link Repositories to PersonRepository--><g id="link_Repositories_PersonRepository"><path d="M949.72,103.288 C925.208,138.504 892.712,185.176 871.872,215.104 " fill="none" id="Repositories-to-PersonRepository" style="stroke:#181818;stroke-width:0.8000000000000002;"/><polygon fill="#181818" points="869.392,218.664,876.1339,214.5864,871.6789,215.3822,870.8831,210.9273,869.392,218.664" style="stroke:#181818;stroke-width:0.8000000000000002;"/></g><!--link Address to Person--><g id="link_Address_Person"><path d="M240.928,245.6 C259.144,245.6 278,245.6 296.344,245.6 " fill="none" id="Address-to-Person" style="stroke:#181818;stroke-width:0.8000000000000002;stroke-dasharray:7.0,7.0;"/><polygon fill="#181818" points="306.768,245.6,301.968,242.4,297.168,245.6,301.968,248.8,306.768,245.6" style="stroke:#181818;stroke-width:0.8000000000000002;"/><text fill="#000000" font-family="sans-serif" font-size="10.4" lengthAdjust="spacing" textLength="36.8" x="255.4" y="240.0227">address</text></g><!--reverse link Person to PassportCard--><g id="link_Person_PassportCard"><path d="M377.664,349.136 C367.744,373.2 357.744,397.472 349.704,416.976 " fill="none" id="Person-backto-PassportCard" style="stroke:#181818;stroke-width:0.8000000000000002;stroke-dasharray:7.0,7.0;"/><polygon fill="#181818" points="381.752,339.208,376.9631,342.4246,378.0904,348.0823,382.8793,344.8657,381.752,339.208" style="stroke:#181818;stroke-width:0.8000000000000002;"/><text fill="#000000" font-family="sans-serif" font-size="10.4" lengthAdjust="spacing" textLength="40" x="372" y="375.2227">passport</text></g><!--reverse link Person to Role--><g id="link_Person_Role"><path d="M462.6,348.84 C470.28,367.304 478.016,385.896 484.872,402.384 " fill="none" id="Person-backto-Role" style="stroke:#181818;stroke-width:0.8000000000000002;stroke-dasharray:7.0,7.0;"/><polygon fill="#181818" points="458.6,339.208,457.4866,344.8684,462.2833,348.0733,463.3968,342.4129,458.6,339.208" style="stroke:#181818;stroke-width:0.8000000000000002;"/><text fill="#000000" font-family="sans-serif" font-size="10.4" lengthAdjust="spacing" textLength="16.8" x="476" y="375.2227">role</text></g><!--SRC=[jLKzRzim4DtvAxXPRYIZiuS2Hjp1Gu8WRhOkZ7YHYL2aG9wREaN_Uqc9aaZ6ThlKWsNntjsz- -3pmhuArJ73MjfgfUk3qIrGD4SWiwLZzIjhO8yd2TH0ZKmrCWRO0-FwJQY6lZ1fOuiK2l3K0UsqFFaNiZXZr0OrYRngoQpT81hnV4JOrLhjnJlGpuGi9BmWHKsDQ0v8kV1qX5Q4z3xqZWbr1-hujAE_2Faz7ZzPC8_G28jWhfXkjKAZfGJZ8DHzgghgdpUr0ORm0CPgLIZMGacH_Rm_jizWIWej4tB3kG5ho-yAGK9tq0f6EmicrqbhErTjILqQMCQnFOyGEGdN-xnfmvSpvqVej1MeZG2RCQqIOn5ID80xPTtSQYYMT9rW9iHGtMGwHSwR8nv0eQYPRtO2cKZbxe7OZIi-z6ruH2wNmkRTTo7wzlYlGEe7auAFRHlECoPZaBrR8xUPlhLauKzgWMwRbBrbXWyJ6e12uJpKn3SUI8HDnvnI_Z-huaPnx-iONxubTFt9rvng3ykO9ij_ha_NYm-6SJ7JmlzXZy-MSfRumvXYdcreYn_UoDmFOspNsLb4FaKAN2QfeW3pNNFTpreaUFBAmTP6TBqC9NczQo5u6IEY2xcTVcwZ2FFb67gHfhPe030vSkjyIlauBJEYnipHNPRav5rqjvf3IZaaBOOyPH-yd2AMGvXoz0t5M2SGWz-M8VCLH3Ay-fAfByd4E0FC6ap81Mrs7ea2haqiPvUSdDTmAQyXlEdl4MQbkeQzf6w49Eohl1gQg7K6hgx4_O3ym9O4QVoqwlz7mzHSoY0xitsLthJrTC5YI7ytrhr0aJy0]--></g></svg>