<?xml version="1.0" encoding="us-ascii" standalone="no"?><svg xmlns="http://www.w3.org/2000/svg" xmlns:xlink="http://www.w3.org/1999/xlink" contentStyleType="text/css" height="916px" preserveAspectRatio="none" style="width:1407px;height:916px;background:#FFFFFF;" version="1.1" viewBox="0 0 1407 916" width="1407px" zoomAndPan="magnify"><defs/><g><text fill="#000000" font-family="sans-serif" font-size="14" font-weight="bold" lengthAdjust="spacing" textLength="100" x="646.5" y="22.6738">Domain Model</text><!--class Person--><g id="elem_Person"><rect
        fill="#F1F1F1" height="96.2031" id="Person" rx="2.5" ry="2.5" style="stroke:#181818;stroke-width:0.5;" width="124" x="135.5" y="83.5306"/><text fill="#000000" font-family="sans-serif" font-size="14" lengthAdjust="spacing" textLength="45" x="175" y="101.2045">Person</text><line style="stroke:#181818;stroke-width:0.5;" x1="136.5" x2="258.5" y1="109.1712" y2="109.1712"/><text fill="#000000" font-family="sans-serif" font-size="14" lengthAdjust="spacing" textLength="35" x="141.5" y="125.8451">name</text><text fill="#000000" font-family="sans-serif" font-size="14" lengthAdjust="spacing" textLength="67" x="141.5" y="141.4857">taxNumber</text><text fill="#000000" font-family="sans-serif" font-size="14" lengthAdjust="spacing" textLength="85" x="141.5" y="157.1263">emailAddress</text><text fill="#000000" font-family="sans-serif" font-size="14" lengthAdjust="spacing" textLength="112" x="141.5" y="172.767">telephoneNumber</text></g><!--class User--><g id="elem_User"><rect
        fill="#F1F1F1" height="80.5625" id="User" rx="2.5" ry="2.5" style="stroke:#181818;stroke-width:0.5;" width="97" x="7" y="539.0306"/><text fill="#000000" font-family="sans-serif" font-size="14" lengthAdjust="spacing" textLength="29" x="41" y="556.7045">User</text><line style="stroke:#181818;stroke-width:0.5;" x1="8" x2="103" y1="564.6713" y2="564.6713"/><text fill="#000000" font-family="sans-serif" font-size="14" lengthAdjust="spacing" textLength="35" x="13" y="581.3451">name</text><text fill="#000000" font-family="sans-serif" font-size="14" lengthAdjust="spacing" textLength="85" x="13" y="596.9857">emailAddress</text><text fill="#000000" font-family="sans-serif" font-size="14" lengthAdjust="spacing" textLength="60" x="13" y="612.6263">password</text></g><!--class Apartment--><g id="elem_Apartment"><rect
        fill="#F1F1F1" height="33.6406" id="Apartment" rx="2.5" ry="2.5" style="stroke:#181818;stroke-width:0.5;" width="71" x="1189" y="875.5306"/><text fill="#000000" font-family="sans-serif" font-size="14" lengthAdjust="spacing" textLength="65" x="1192" y="893.2045">Apartment</text><line style="stroke:#181818;stroke-width:0.5;" x1="1190" x2="1259" y1="901.1713" y2="901.1713"/></g><!--class PassportCard--><g id="elem_PassportCard"><rect
        fill="#F1F1F1" height="49.2813" id="PassportCard" rx="2.5" ry="2.5" style="stroke:#181818;stroke-width:0.5;" width="116" x="294.5" y="107.0306"/><text fill="#000000" font-family="sans-serif" font-size="14" lengthAdjust="spacing" textLength="87" x="309" y="124.7045">PassportCard</text><line style="stroke:#181818;stroke-width:0.5;" x1="295.5" x2="409.5" y1="132.6713" y2="132.6713"/><text fill="#000000" font-family="sans-serif" font-size="14" lengthAdjust="spacing" textLength="104" x="300.5" y="149.3451">passportNumber</text></g><!--class Role--><g id="elem_Role"><rect
        fill="#F1F1F1" height="64.9219" id="Role" rx="2.5" ry="2.5" style="stroke:#181818;stroke-width:0.5;" width="81" x="19" y="99.0306"/><text fill="#000000" font-family="sans-serif" font-size="14" lengthAdjust="spacing" textLength="29" x="45" y="116.7045">Role</text><line style="stroke:#181818;stroke-width:0.5;" x1="20" x2="99" y1="124.6712" y2="124.6712"/><text fill="#000000" font-family="sans-serif" font-size="14" lengthAdjust="spacing" textLength="11" x="25" y="141.3451">id</text><text fill="#000000" font-family="sans-serif" font-size="14" lengthAdjust="spacing" textLength="69" x="25" y="156.9857">description</text></g><!--class Owner--><g id="elem_Owner"><rect
        fill="#F1F1F1" height="33.6406" id="Owner" rx="2.5" ry="2.5" style="stroke:#181818;stroke-width:0.5;" width="47" x="242" y="562.5306"/><text fill="#000000" font-family="sans-serif" font-size="14" lengthAdjust="spacing" textLength="41" x="245" y="580.2045">Owner</text><line style="stroke:#181818;stroke-width:0.5;" x1="243" x2="288" y1="588.1713" y2="588.1713"/></g><!--class Agency--><g id="elem_Agency"><rect
        fill="#F1F1F1" height="96.2031" id="Agency" rx="2.5" ry="2.5" style="stroke:#181818;stroke-width:0.5;" width="124" x="310.5" y="248.5306"/><text fill="#000000" font-family="sans-serif" font-size="14" lengthAdjust="spacing" textLength="47" x="349" y="266.2045">Agency</text><line style="stroke:#181818;stroke-width:0.5;" x1="311.5" x2="433.5" y1="274.1713" y2="274.1713"/><text fill="#000000" font-family="sans-serif" font-size="14" lengthAdjust="spacing" textLength="11" x="316.5" y="290.8451">id</text><text fill="#000000" font-family="sans-serif" font-size="14" lengthAdjust="spacing" textLength="82" x="316.5" y="306.4857">agencyName</text><text fill="#000000" font-family="sans-serif" font-size="14" lengthAdjust="spacing" textLength="85" x="316.5" y="322.1263">emailAddress</text><text fill="#000000" font-family="sans-serif" font-size="14" lengthAdjust="spacing" textLength="112" x="316.5" y="337.767">telephoneNumber</text></g><!--class Property--><g id="elem_Property"><rect
        fill="#F1F1F1" height="96.2031" id="Property" rx="2.5" ry="2.5" style="stroke:#181818;stroke-width:0.5;" width="141" x="696" y="531.5306"/><text fill="#000000" font-family="sans-serif" font-size="14" lengthAdjust="spacing" textLength="54" x="739.5" y="549.2045">Property</text><line style="stroke:#181818;stroke-width:0.5;" x1="697" x2="836" y1="557.1713" y2="557.1713"/><text fill="#000000" font-family="sans-serif" font-size="14" lengthAdjust="spacing" textLength="98" x="702" y="573.8451">areaOfProperty</text><text fill="#000000" font-family="sans-serif" font-size="14" lengthAdjust="spacing" textLength="129" x="702" y="589.4857">distanceFromCentre</text><text fill="#000000" font-family="sans-serif" font-size="14" lengthAdjust="spacing" textLength="117" x="702" y="605.1263">dateOfAcceptance</text><text fill="#000000" font-family="sans-serif" font-size="14" lengthAdjust="spacing" textLength="96" x="702" y="620.767">dateOfRequest</text></g><!--class TypeOfTransaction--><g id="elem_TypeOfTransaction"><rect
        fill="#F1F1F1" height="64.9219" id="TypeOfTransaction" rx="2.5" ry="2.5" style="stroke:#181818;stroke-width:0.5;" width="128" x="631.5" y="405.5306"/><text fill="#000000" font-family="sans-serif" font-size="14" lengthAdjust="spacing" textLength="122" x="634.5" y="423.2045">TypeOfTransaction</text><line style="stroke:#181818;stroke-width:0.5;" x1="632.5" x2="758.5" y1="431.1713" y2="431.1713"/><text fill="#000000" font-family="sans-serif" font-size="14" lengthAdjust="spacing" textLength="102" x="637.5" y="447.8451">transactionType</text><text fill="#000000" font-family="sans-serif" font-size="14" lengthAdjust="spacing" textLength="95" x="637.5" y="463.4857">monetaryValue</text></g><!--class Photo--><g id="elem_Photo"><rect
        fill="#F1F1F1" height="64.9219" id="Photo" rx="2.5" ry="2.5" style="stroke:#181818;stroke-width:0.5;" width="86" x="794.5" y="405.5306"/><text fill="#000000" font-family="sans-serif" font-size="14" lengthAdjust="spacing" textLength="37" x="819" y="423.2045">Photo</text><line style="stroke:#181818;stroke-width:0.5;" x1="795.5" x2="879.5" y1="431.1713" y2="431.1713"/><text fill="#000000" font-family="sans-serif" font-size="14" lengthAdjust="spacing" textLength="49" x="800.5" y="447.8451">photoID</text><text fill="#000000" font-family="sans-serif" font-size="14" lengthAdjust="spacing" textLength="74" x="800.5" y="463.4857">pathToPNG</text></g><!--class PropertyType--><g id="elem_PropertyType"><rect
        fill="#F1F1F1" height="49.2813" id="PropertyType" rx="2.5" ry="2.5" style="stroke:#181818;stroke-width:0.5;" width="92" x="872.5" y="555.0306"/><text fill="#000000" font-family="sans-serif" font-size="14" lengthAdjust="spacing" textLength="86" x="875.5" y="572.7045">PropertyType</text><line style="stroke:#181818;stroke-width:0.5;" x1="873.5" x2="963.5" y1="580.6713" y2="580.6713"/><text fill="#000000" font-family="sans-serif" font-size="14" lengthAdjust="spacing" textLength="73" x="878.5" y="597.3451">designation</text></g><!--class Building--><g id="elem_Building"><rect
        fill="#F1F1F1" height="96.2031" id="Building" rx="2.5" ry="2.5" style="stroke:#181818;stroke-width:0.5;" width="135" x="1157" y="703.5306"/><text fill="#000000" font-family="sans-serif" font-size="14" lengthAdjust="spacing" textLength="50" x="1199.5" y="721.2045">Building</text><line style="stroke:#181818;stroke-width:0.5;" x1="1158" x2="1291" y1="729.1713" y2="729.1713"/><text fill="#000000" font-family="sans-serif" font-size="14" lengthAdjust="spacing" textLength="63" x="1163" y="745.8451">bedrooms</text><text fill="#000000" font-family="sans-serif" font-size="14" lengthAdjust="spacing" textLength="67" x="1163" y="761.4857">bathrooms</text><text fill="#000000" font-family="sans-serif" font-size="14" lengthAdjust="spacing" textLength="94" x="1163" y="777.1263">parkingSpaces</text><text fill="#000000" font-family="sans-serif" font-size="14" lengthAdjust="spacing" textLength="123" x="1163" y="792.767">availableEquipment</text></g><!--class House--><g id="elem_House"><rect
        fill="#F1F1F1" height="80.5625" id="House" rx="2.5" ry="2.5" style="stroke:#181818;stroke-width:0.5;" width="94" x="1027.5" y="711.0306"/><text fill="#000000" font-family="sans-serif" font-size="14" lengthAdjust="spacing" textLength="40" x="1054.5" y="728.7045">House</text><line style="stroke:#181818;stroke-width:0.5;" x1="1028.5" x2="1120.5" y1="736.6713" y2="736.6713"/><text fill="#000000" font-family="sans-serif" font-size="14" lengthAdjust="spacing" textLength="62" x="1033.5" y="753.3451">basement</text><text fill="#000000" font-family="sans-serif" font-size="14" lengthAdjust="spacing" textLength="19" x="1033.5" y="768.9857">loft</text><text fill="#000000" font-family="sans-serif" font-size="14" lengthAdjust="spacing" textLength="82" x="1033.5" y="784.6263">sunExposure</text></g><!--class Agent--><g id="elem_Agent"><rect
        fill="#F1F1F1" height="33.6406" id="Agent" rx="2.5" ry="2.5" style="stroke:#181818;stroke-width:0.5;" width="43" x="253" y="875.5306"/><text fill="#000000" font-family="sans-serif" font-size="14" lengthAdjust="spacing" textLength="37" x="256" y="893.2045">Agent</text><line style="stroke:#181818;stroke-width:0.5;" x1="254" x2="295" y1="901.1713" y2="901.1713"/></g><!--class Address--><g id="elem_Address"><rect
        fill="#F1F1F1" height="111.8438" id="Address" rx="2.5" ry="2.5" style="stroke:#181818;stroke-width:0.5;" width="63" x="446" y="75.5306"/><text fill="#000000" font-family="sans-serif" font-size="14" lengthAdjust="spacing" textLength="52" x="451.5" y="93.2045">Address</text><line style="stroke:#181818;stroke-width:0.5;" x1="447" x2="508" y1="101.1712" y2="101.1712"/><text fill="#000000" font-family="sans-serif" font-size="14" lengthAdjust="spacing" textLength="36" x="452" y="117.8451">street</text><text fill="#000000" font-family="sans-serif" font-size="14" lengthAdjust="spacing" textLength="21" x="452" y="133.4857">city</text><text fill="#000000" font-family="sans-serif" font-size="14" lengthAdjust="spacing" textLength="41" x="452" y="149.1263">district</text><text fill="#000000" font-family="sans-serif" font-size="14" lengthAdjust="spacing" textLength="31" x="452" y="164.767">state</text><text fill="#000000" font-family="sans-serif" font-size="14" lengthAdjust="spacing" textLength="51" x="452" y="180.4076">zipCode</text></g><!--class AnnouncementRepository--><g id="elem_AnnouncementRepository"><rect
        fill="#F1F1F1" height="33.6406" id="AnnouncementRepository" rx="2.5" ry="2.5" style="stroke:#181818;stroke-width:0.5;" width="169" x="532" y="734.5306"/><text fill="#000000" font-family="sans-serif" font-size="14" lengthAdjust="spacing" textLength="163" x="535" y="752.2045">AnnouncementRepository</text><line style="stroke:#181818;stroke-width:0.5;" x1="533" x2="700" y1="760.1713" y2="760.1713"/></g><!--class Equipment--><g id="elem_Equipment"><rect
        fill="#F1F1F1" height="49.2813" id="Equipment" rx="2.5" ry="2.5" style="stroke:#181818;stroke-width:0.5;" width="73" x="1327" y="727.0306"/><text fill="#000000" font-family="sans-serif" font-size="14" lengthAdjust="spacing" textLength="67" x="1330" y="744.7045">Equipment</text><line style="stroke:#181818;stroke-width:0.5;" x1="1328" x2="1399" y1="752.6713" y2="752.6713"/><text fill="#000000" font-family="sans-serif" font-size="14" lengthAdjust="spacing" textLength="35" x="1333" y="769.3451">name</text></g><!--class Employee--><g id="elem_Employee"><rect
        fill="#F1F1F1" height="33.6406" id="Employee" rx="2.5" ry="2.5" style="stroke:#181818;stroke-width:0.5;" width="68" x="125.5" y="421.0306"/><text fill="#000000" font-family="sans-serif" font-size="14" lengthAdjust="spacing" textLength="62" x="128.5" y="438.7045">Employee</text><line style="stroke:#181818;stroke-width:0.5;" x1="126.5" x2="192.5" y1="446.6713" y2="446.6713"/></g><!--class PropertyRepository--><g id="elem_PropertyRepository"><rect
        fill="#F1F1F1" height="33.6406" id="PropertyRepository" rx="2.5" ry="2.5" style="stroke:#181818;stroke-width:0.5;" width="128" x="210.5" y="734.5306"/><text fill="#000000" font-family="sans-serif" font-size="14" lengthAdjust="spacing" textLength="122" x="213.5" y="752.2045">PropertyRepository</text><line style="stroke:#181818;stroke-width:0.5;" x1="211.5" x2="337.5" y1="760.1713" y2="760.1713"/></g><!--class Land--><g id="elem_Land"><rect fill="#F1F1F1" height="33.6406" id="Land" rx="2.5" ry="2.5" style="stroke:#181818;stroke-width:0.5;" width="38" x="955.5" y="875.5306"/><text fill="#000000" font-family="sans-serif" font-size="14" lengthAdjust="spacing" textLength="32" x="958.5" y="893.2045">Land</text><line style="stroke:#181818;stroke-width:0.5;" x1="956.5" x2="992.5" y1="901.1713" y2="901.1713"/></g><!--reverse link Person to Employee--><g id="link_Person_Employee"><path
        d="M189.1,199.8306 C180.15,271.5606 166.58,380.2806 161.51,420.9406 " fill="none" id="Person-backto-Employee" style="stroke:#181818;stroke-width:1.0;"/><polygon fill="none" points="182.18,198.7506,191.6,179.7706,196.07,200.4906,182.18,198.7506" style="stroke:#181818;stroke-width:1.0;"/></g><!--link Employee to User--><g id="link_Employee_User"><path
        d="M147.57,455.0306 C135.26,471.5506 115.34,498.2606 97.18,522.6206 " fill="none" id="Employee-to-User" style="stroke:#181818;stroke-width:1.0;"/><polygon fill="none" points="102.56,527.1106,85,538.9606,91.34,518.7406,102.56,527.1106" style="stroke:#181818;stroke-width:1.0;"/></g><!--link Agency to Employee--><g id="link_Agency_Employee"><path
        d="M310.32,338.2506 C272.97,362.7106 226.78,392.9706 195.42,413.5006 " fill="none" id="Agency-to-Employee" style="stroke:#181818;stroke-width:1.0;"/><polygon fill="#181818" points="184.18,420.8706,191.3909,420.9256,194.215,414.2905,187.0041,414.2355,184.18,420.8706" style="stroke:#181818;stroke-width:1.0;"/></g><!--reverse link User to Owner--><g id="link_User_Owner"><path
        d="M124.46,579.5306 C163.6,579.5306 202.75,579.5306 241.89,579.5306 " fill="none" id="User-backto-Owner" style="stroke:#181818;stroke-width:1.0;"/><polygon fill="none" points="124.31,586.5306,104.31,579.5306,124.31,572.5306,124.31,586.5306" style="stroke:#181818;stroke-width:1.0;"/></g><!--reverse link Employee to Agent--><g id="link_Employee_Agent"><path
        d="M155.55,475.6706 C149.85,542.9706 144.69,689.4306 192.5,799.5306 C206.05,830.7306 234.4,858.6706 253.94,875.3506 " fill="none" id="Employee-backto-Agent" style="stroke:#181818;stroke-width:1.0;"/><polygon fill="none" points="148.62,474.6006,157.51,455.3606,162.56,475.9406,148.62,474.6006" style="stroke:#181818;stroke-width:1.0;"/></g><!--reverse link Person to Owner--><g id="link_Person_Owner"><path
        d="M210.39,199.5006 C211.47,205.5906 212.53,211.6706 213.5,217.5306 C235.54,350.2706 256.82,511.3806 263.42,562.3006 " fill="none" id="Person-backto-Owner" style="stroke:#181818;stroke-width:1.0;"/><polygon fill="none" points="203.47,200.6106,206.75,179.6706,217.24,198.0806,203.47,200.6106" style="stroke:#181818;stroke-width:1.0;"/></g><!--link Role to Person--><g id="link_Role_Person"><path
        d="M100.2,131.5306 C107.48,131.5306 114.77,131.5306 122.05,131.5306 " fill="none" id="Role-to-Person" style="stroke:#181818;stroke-width:1.0;"/><polygon fill="#181818" points="135.17,131.5306,129.17,127.5306,123.17,131.5306,129.17,135.5306,135.17,131.5306" style="stroke:#181818;stroke-width:1.0;"/></g><!--reverse link Person to PassportCard--><g id="link_Person_PassportCard"><path
        d="M272.63,131.5306 C279.89,131.5306 287.15,131.5306 294.41,131.5306 " fill="none" id="Person-backto-PassportCard" style="stroke:#181818;stroke-width:1.0;"/><polygon fill="#181818" points="259.56,131.5306,265.56,135.5306,271.56,131.5306,265.56,127.5306,259.56,131.5306" style="stroke:#181818;stroke-width:1.0;"/></g><!--reverse link Property to Land--><g id="link_Property_Land"><path
        d="M853.88,629.6806 C881.78,649.3206 910.35,674.2906 929.5,703.5306 C965.9,759.1306 972.91,841.1806 974.22,875.5106 " fill="none" id="Property-backto-Land" style="stroke:#181818;stroke-width:1.0;"/><polygon fill="none" points="849.84,635.4106,837.14,618.4406,857.65,623.7806,849.84,635.4106" style="stroke:#181818;stroke-width:1.0;"/></g><!--reverse link Property to PropertyType--><g id="link_Property_PropertyType"><path
        d="M850.38,579.5306 C857.73,579.5306 865.08,579.5306 872.43,579.5306 " fill="none" id="Property-backto-PropertyType" style="stroke:#181818;stroke-width:1.0;"/><polygon fill="#181818" points="837.16,579.5306,843.16,583.5306,849.16,579.5306,843.16,575.5306,837.16,579.5306" style="stroke:#181818;stroke-width:1.0;"/></g><!--reverse link PropertyRepository to Agent--><g id="link_PropertyRepository_Agent"><path
        d="M274.5,774.0706 C274.5,802.0706 274.5,850.3706 274.5,875.4206 " fill="none" id="PropertyRepository-backto-Agent" style="stroke:#181818;stroke-width:1.0;"/><polygon fill="#181818" points="274.5,768.7506,270.5,777.7506,274.5,773.7506,278.5,777.7506,274.5,768.7506" style="stroke:#181818;stroke-width:1.0;"/><polygon fill="#000000" points="279.5,832.7923,276.5611,841.8374,282.4389,841.8374,279.5,832.7923" style="stroke:#000000;stroke-width:1.0;"/><text fill="#000000" font-family="sans-serif" font-size="13" lengthAdjust="spacing" textLength="138" x="288.5" y="842.2992">sends agent information</text><text fill="#000000" font-family="sans-serif" font-size="13" lengthAdjust="spacing" textLength="7" x="261.8156" y="788.0717">1</text><text fill="#000000" font-family="sans-serif" font-size="13" lengthAdjust="spacing" textLength="7" x="261.5406" y="864.7572">1</text></g><!--link Property to PropertyRepository--><g id="link_Property_PropertyRepository"><path
        d="M695.75,604.9806 C595.4,639.6506 414.14,702.2806 325.75,732.8206 " fill="none" id="Property-to-PropertyRepository" style="stroke:#181818;stroke-width:1.0;"/><polygon fill="#181818" points="320.84,734.5206,330.652,735.3719,325.5675,732.8924,328.0469,727.8079,320.84,734.5206" style="stroke:#181818;stroke-width:1.0;"/><polygon fill="#000000" points="535.7741,667.4252,545.2831,667.2491,543.3635,661.6935,535.7741,667.4252" style="stroke:#000000;stroke-width:1.0;"/><text fill="#000000" font-family="sans-serif" font-size="13" lengthAdjust="spacing" textLength="155" x="549.5" y="670.2992">wants to store the property</text><text fill="#000000" font-family="sans-serif" font-size="13" lengthAdjust="spacing" textLength="7" x="681.093" y="604.6684">1</text><text fill="#000000" font-family="sans-serif" font-size="13" lengthAdjust="spacing" textLength="7" x="329.1018" y="723.8929">1</text></g><!--reverse link Property to Agent--><g id="link_Property_Agent"><path
        d="M770.01,632.7106 C770.32,682.4906 762.39,756.1406 718.5,799.5306 C657.27,860.0606 376.49,884.3206 296.08,890.1006 " fill="none" id="Property-backto-Agent" style="stroke:#181818;stroke-width:1.0;"/><polygon fill="#181818" points="769.95,627.6606,766.079,636.7168,770.0214,632.6601,774.0782,636.6026,769.95,627.6606" style="stroke:#181818;stroke-width:1.0;"/><text fill="#000000" font-family="sans-serif" font-size="13" lengthAdjust="spacing" textLength="148" x="765.5" y="756.2992">wants to input information</text><text fill="#000000" font-family="sans-serif" font-size="13" lengthAdjust="spacing" textLength="7" x="758.6489" y="647.5499">1</text><text fill="#000000" font-family="sans-serif" font-size="13" lengthAdjust="spacing" textLength="7" x="304.0743" y="885.0041">1</text></g><!--reverse link Property to Building--><g id="link_Property_Building"><path
        d="M856.12,626.7706 C921.02,648.4106 942.27,641.9306 1000.5,657.5306 C1063.36,674.3706 1079.88,677.4506 1139.5,703.5306 C1145.22,706.0306 1151.06,708.7906 1156.86,711.6806 " fill="none" id="Property-backto-Building" style="stroke:#181818;stroke-width:1.0;"/><polygon fill="none" points="853.64,633.3206,837.1,620.0706,858.29,620.1106,853.64,633.3206" style="stroke:#181818;stroke-width:1.0;"/></g><!--link TypeOfTransaction to Property--><g id="link_TypeOfTransaction_Property"><path
        d="M711.61,470.6806 C718.95,485.1106 727.89,502.6706 736.4,519.4006 " fill="none" id="TypeOfTransaction-to-Property" style="stroke:#181818;stroke-width:1.0;"/><polygon fill="#181818" points="742.5,531.3706,743.3417,524.2088,737.0545,520.6773,736.2128,527.8392,742.5,531.3706" style="stroke:#181818;stroke-width:1.0;"/></g><!--link House to Building--><g id="link_House_Building"><path
        d="M1121.67,751.5306 C1126.58,751.5306 1131.5,751.5306 1136.41,751.5306 " fill="none" id="House-to-Building" style="stroke:#181818;stroke-width:1.0;"/><polygon fill="none" points="1136.61,744.5306,1156.61,751.5306,1136.61,758.5306,1136.61,744.5306" style="stroke:#181818;stroke-width:1.0;"/></g><!--link Owner to Property--><g id="link_Owner_Property"><path
        d="M289.33,579.5306 C360.7,579.5306 574.97,579.5306 690.58,579.5306 " fill="none" id="Owner-to-Property" style="stroke:#181818;stroke-width:1.0;"/><polygon fill="#181818" points="695.67,579.5306,686.67,575.5306,690.67,579.5306,686.67,583.5306,695.67,579.5306" style="stroke:#181818;stroke-width:1.0;"/><polygon fill="#000000" points="437,568.7923,427.9549,565.8534,427.9549,571.7313,437,568.7923" style="stroke:#000000;stroke-width:1.0;"/><text fill="#000000" font-family="sans-serif" font-size="13" lengthAdjust="spacing" textLength="116" x="441" y="573.2992">creates the property</text></g><!--link Owner to PropertyRepository--><g id="link_Owner_PropertyRepository"><path
        d="M266.36,596.8306 C268,627.7506 271.56,694.9106 273.38,729.3006 " fill="none" id="Owner-to-PropertyRepository" style="stroke:#181818;stroke-width:1.0;"/><polygon fill="#181818" points="273.65,734.5306,277.1563,725.327,273.379,729.538,269.168,725.7607,273.65,734.5306" style="stroke:#181818;stroke-width:1.0;"/><polygon fill="#000000" points="275.7646,670.7853,278.2207,661.5974,272.3511,661.9085,275.7646,670.7853" style="stroke:#000000;stroke-width:1.0;"/><text fill="#000000" font-family="sans-serif" font-size="13" lengthAdjust="spacing" textLength="140" x="284.5" y="670.2992">sends owner information</text><text fill="#000000" font-family="sans-serif" font-size="13" lengthAdjust="spacing" textLength="7" x="253.997" y="615.867">1</text><text fill="#000000" font-family="sans-serif" font-size="13" lengthAdjust="spacing" textLength="7" x="260.3878" y="723.9064">1</text></g><!--link PropertyRepository to AnnouncementRepository--><g id="link_PropertyRepository_AnnouncementRepository"><path
        d="M338.83,751.5306 C391.79,751.5306 467.5,751.5306 526.48,751.5306 " fill="none" id="PropertyRepository-to-AnnouncementRepository" style="stroke:#181818;stroke-width:1.0;"/><polygon fill="#181818" points="531.78,751.5306,522.78,747.5306,526.78,751.5306,522.78,755.5306,531.78,751.5306" style="stroke:#181818;stroke-width:1.0;"/><polygon fill="#000000" points="365.75,740.7923,356.7049,737.8534,356.7049,743.7313,365.75,740.7923" style="stroke:#000000;stroke-width:1.0;"/><text fill="#000000" font-family="sans-serif" font-size="13" lengthAdjust="spacing" textLength="144" x="369.75" y="745.2992">publishes announcement</text><text fill="#000000" font-family="sans-serif" font-size="13" lengthAdjust="spacing" textLength="7" x="346.6728" y="748.5408">1</text><text fill="#000000" font-family="sans-serif" font-size="13" lengthAdjust="spacing" textLength="7" x="516.9229" y="748.7151">1</text></g><!--reverse link Building to Equipment--><g id="link_Building_Equipment"><path
        d="M1305.17,751.5306 C1312.44,751.5306 1319.7,751.5306 1326.96,751.5306 " fill="none" id="Building-backto-Equipment" style="stroke:#181818;stroke-width:1.0;"/><polygon fill="#181818" points="1292.1,751.5306,1298.1,755.5306,1304.1,751.5306,1298.1,747.5306,1292.1,751.5306" style="stroke:#181818;stroke-width:1.0;"/></g><!--link Photo to Property--><g id="link_Photo_Property"><path
        d="M821.39,470.6806 C814.05,485.1106 805.11,502.6706 796.6,519.4006 " fill="none" id="Photo-to-Property" style="stroke:#181818;stroke-width:1.0;"/><polygon fill="#181818" points="790.5,531.3706,796.7872,527.8392,795.9455,520.6773,789.6583,524.2088,790.5,531.3706" style="stroke:#181818;stroke-width:1.0;"/></g><!--reverse link Person to Address--><g id="link_Person_Address"><path
        d="M261.41,76.2006 C271.74,69.7806 282.75,64.2206 294,60.5306 C342.98,44.4506 361.65,42.6406 410,60.5306 C423.72,65.6006 435.84,75.2806 445.88,85.9006 " fill="none" id="Person-backto-Address" style="stroke:#181818;stroke-width:1.0;"/><polygon fill="#181818" points="250.48,83.4406,257.6911,83.4604,260.4828,76.8116,253.2717,76.7919,250.48,83.4406" style="stroke:#181818;stroke-width:1.0;"/></g><!--link Address to Property--><g id="link_Address_Property"><path
        d="M489.4,187.7806 C506.92,259.0906 545.21,384.2206 613.5,470.5306 C632.83,494.9606 659.13,516.2406 684.46,533.2906 " fill="none" id="Address-to-Property" style="stroke:#181818;stroke-width:1.0;"/><polygon fill="#181818" points="695.62,540.5806,692.7858,533.9499,685.575,534.0158,688.4092,540.6465,695.62,540.5806" style="stroke:#181818;stroke-width:1.0;"/></g><!--link Address to Agency--><g id="link_Address_Agency"><path
        d="M446,181.4406 C434.69,198.9906 421.83,218.9506 410.06,237.2206 " fill="none" id="Address-to-Agency" style="stroke:#181818;stroke-width:1.0;"/><polygon fill="#181818" points="402.9,248.3406,409.5098,245.4579,409.3911,238.2478,402.7813,241.1305,402.9,248.3406" style="stroke:#181818;stroke-width:1.0;"/></g><!--reverse link Building to Apartment--><g id="link_Building_Apartment"><path
        d="M1224.5,819.6206 C1224.5,840.4406 1224.5,861.5506 1224.5,875.4606 " fill="none" id="Building-backto-Apartment" style="stroke:#181818;stroke-width:1.0;"/><polygon fill="none" points="1217.5,819.5906,1224.5,799.5906,1231.5,819.5906,1217.5,819.5906" style="stroke:#181818;stroke-width:1.0;"/></g><!--SRC=[TLLDJnin4BtxLrYv84LQgVI8KAGKQ8lKaWXexuuzoLfuRMDx6mBjV-_iU3y9uS3kZcVUp3o_cSGdRRq8ekALiqwMmLN0KwY1nVx42_aaTl2G3WPu09c4tPcnGoo5SdjjTtmhJ0HsDXmPRI4TF70NKkdOcO5juidne7TbuaetSDhP4PWq8iPbIa5lwWItqja7_GhyyoTMQWLSwY0nERrNW9WgCfPqmjAkNIMqvJ-T0iCOuV0rXEWiVsCS_woeW5wIUBchgmq4-W8CCqkb0iIOZy60Bvs5rkbVX_OhGdYFTHJjqNFlWXh2bjXPgi0cZ1siQ_pdaPOh4LGBwblJ-xpt3jlBBbhHGq6KGNlYhdTRxItLDoJUWPM7QQGWszt9yayslmxEGqWTd0WWLjlEc8lI4RKXuIkgw0hR3Jc54WbMswMKuEbuPBo7vnfY6f8yebPMsySWR1IaZ9mi3OR6WsmeM4WY77uBWt8ToYnTSYsTpUljTKjjAX_T-kxRSKCDOjiKqgftLanf_L9henfrPvyDgE1SbTdQ8EpmXVUCEjuzuCH0jeW_IA_O6BXvhhLlD33WVdTrX1PJHA33viEuRNw9jRrvyIxM0QPtciPtdEykuqJa77AmrADR2Lgsa0bvfxTNxQzmKaP0rheQhwUfunumhKuk74QP-XP64p0SLjwu0y3RCRyZC3ph77bH-x-BTa17rWADpPonLhn5CU_16GtWvTyYIts8Qan43CipCC5kTy0SZJH9Ws4oWwmNEA8L1VyXxCWsBt35sObcs763V7REP_mIe-c5Ik8N_997i2hIx2MkxTQ5Aekinv-Tpx3L1Jq_mBtW2xuNDiLcUKOquPOkWVjk_4OuL03XTEdxGDonzOdyJS-zqjdH67AwXtxQ-v70C5hffEME_CMmAvgw9MwA175QS7QbQdFR_6JVcJj70H_LFg4VuPgBoaH-B6a2zVN6w5XYMMBan7gDS-fhFb12UsNAGgyZaaQtHDldr7LipC9cmwz2aUNQfVeF]--></g></svg>