<?xml version="1.0" encoding="us-ascii" standalone="no"?><svg xmlns="http://www.w3.org/2000/svg" xmlns:xlink="http://www.w3.org/1999/xlink" contentStyleType="text/css" height="459px" preserveAspectRatio="none" style="width:405px;height:459px;background:#FFFFFF;" version="1.1" viewBox="0 0 405 459" width="405px" zoomAndPan="magnify"><defs/><g><text fill="#000000" font-family="sans-serif" font-size="14" font-weight="bold" lengthAdjust="spacing" textLength="156" x="117.75" y="22.6738">Domain Model - US007</text><!--class Person--><g id="elem_Person"><rect
        fill="#F1F1F1" height="96.2031" id="Person" rx="2.5" ry="2.5" style="stroke:#181818;stroke-width:0.5;" width="124" x="123.5" y="215.6406"/><text fill="#000000" font-family="sans-serif" font-size="14" lengthAdjust="spacing" textLength="45" x="163" y="233.3145">Person</text><line style="stroke:#181818;stroke-width:0.5;" x1="124.5" x2="246.5" y1="241.2813" y2="241.2813"/><text fill="#000000" font-family="sans-serif" font-size="14" lengthAdjust="spacing" textLength="35" x="129.5" y="257.9551">name</text><text fill="#000000" font-family="sans-serif" font-size="14" lengthAdjust="spacing" textLength="67" x="129.5" y="273.5957">taxNumber</text><text fill="#000000" font-family="sans-serif" font-size="14" lengthAdjust="spacing" textLength="85" x="129.5" y="289.2363">emailAddress</text><text fill="#000000" font-family="sans-serif" font-size="14" lengthAdjust="spacing" textLength="112" x="129.5" y="304.877">telephoneNumber</text></g><!--class PassportCard--><g id="elem_PassportCard"><rect
        fill="#F1F1F1" height="49.2813" id="PassportCard" rx="2.5" ry="2.5" style="stroke:#181818;stroke-width:0.5;" width="116" x="282.5" y="239.1406"/><text fill="#000000" font-family="sans-serif" font-size="14" lengthAdjust="spacing" textLength="87" x="297" y="256.8145">PassportCard</text><line style="stroke:#181818;stroke-width:0.5;" x1="283.5" x2="397.5" y1="264.7813" y2="264.7813"/><text fill="#000000" font-family="sans-serif" font-size="14" lengthAdjust="spacing" textLength="104" x="288.5" y="281.4551">passportNumber</text></g><!--class Owner--><g id="elem_Owner"><rect
        fill="#F1F1F1" height="33.6406" id="Owner" rx="2.5" ry="2.5" style="stroke:#181818;stroke-width:0.5;" width="47" x="162" y="395.1406"/><text fill="#000000" font-family="sans-serif" font-size="14" lengthAdjust="spacing" textLength="41" x="165" y="412.8145">Owner</text><line style="stroke:#181818;stroke-width:0.5;" x1="163" x2="208" y1="420.7813" y2="420.7813"/></g><!--class User--><g id="elem_User"><rect
        fill="#F1F1F1" height="80.5625" id="User" rx="2.5" ry="2.5" style="stroke:#181818;stroke-width:0.5;" width="97" x="244" y="371.6406"/><text fill="#000000" font-family="sans-serif" font-size="14" lengthAdjust="spacing" textLength="29" x="278" y="389.3145">User</text><line style="stroke:#181818;stroke-width:0.5;" x1="245" x2="340" y1="397.2813" y2="397.2813"/><text fill="#000000" font-family="sans-serif" font-size="14" lengthAdjust="spacing" textLength="35" x="250" y="413.9551">name</text><text fill="#000000" font-family="sans-serif" font-size="14" lengthAdjust="spacing" textLength="85" x="250" y="429.5957">emailAddress</text><text fill="#000000" font-family="sans-serif" font-size="14" lengthAdjust="spacing" textLength="60" x="250" y="445.2363">password</text></g><!--class Address--><g id="elem_Address"><rect
        fill="#F1F1F1" height="111.8438" id="Address" rx="2.5" ry="2.5" style="stroke:#181818;stroke-width:0.5;" width="63" x="154" y="43.6406"/><text fill="#000000" font-family="sans-serif" font-size="14" lengthAdjust="spacing" textLength="52" x="159.5" y="61.3145">Address</text><line style="stroke:#181818;stroke-width:0.5;" x1="155" x2="216" y1="69.2813" y2="69.2813"/><text fill="#000000" font-family="sans-serif" font-size="14" lengthAdjust="spacing" textLength="36" x="160" y="85.9551">street</text><text fill="#000000" font-family="sans-serif" font-size="14" lengthAdjust="spacing" textLength="21" x="160" y="101.5957">city</text><text fill="#000000" font-family="sans-serif" font-size="14" lengthAdjust="spacing" textLength="41" x="160" y="117.2363">district</text><text fill="#000000" font-family="sans-serif" font-size="14" lengthAdjust="spacing" textLength="31" x="160" y="132.877">state</text><text fill="#000000" font-family="sans-serif" font-size="14" lengthAdjust="spacing" textLength="51" x="160" y="148.5176">zipCode</text></g><!--class Role--><g id="elem_Role"><rect
        fill="#F1F1F1" height="64.9219" id="Role" rx="2.5" ry="2.5" style="stroke:#181818;stroke-width:0.5;" width="81" x="7" y="231.1406"/><text fill="#000000" font-family="sans-serif" font-size="14" lengthAdjust="spacing" textLength="29" x="33" y="248.8145">Role</text><line style="stroke:#181818;stroke-width:0.5;" x1="8" x2="87" y1="256.7813" y2="256.7813"/><text fill="#000000" font-family="sans-serif" font-size="14" lengthAdjust="spacing" textLength="11" x="13" y="273.4551">id</text><text fill="#000000" font-family="sans-serif" font-size="14" lengthAdjust="spacing" textLength="69" x="13" y="289.0957">description</text></g><!--link Role to Person--><g id="link_Role_Person"><path
        d="M88.2,263.6406 C95.48,263.6406 102.77,263.6406 110.05,263.6406 " fill="none" id="Role-to-Person" style="stroke:#181818;stroke-width:1.0;"/><polygon fill="#181818" points="123.17,263.6406,117.17,259.6406,111.17,263.6406,117.17,267.6406,123.17,263.6406" style="stroke:#181818;stroke-width:1.0;"/></g><!--link Address to Person--><g id="link_Address_Person"><path
        d="M185.5,155.9406 C185.5,170.9006 185.5,187.1606 185.5,202.3806 " fill="none" id="Address-to-Person" style="stroke:#181818;stroke-width:1.0;"/><polygon fill="#181818" points="185.5,215.4206,189.5,209.4206,185.5,203.4206,181.5,209.4206,185.5,215.4206" style="stroke:#181818;stroke-width:1.0;"/></g><!--reverse link Person to PassportCard--><g id="link_Person_PassportCard"><path
        d="M260.63,263.6406 C267.89,263.6406 275.15,263.6406 282.41,263.6406 " fill="none" id="Person-backto-PassportCard" style="stroke:#181818;stroke-width:1.0;"/><polygon fill="#181818" points="247.56,263.6406,253.56,267.6406,259.56,263.6406,253.56,259.6406,247.56,263.6406" style="stroke:#181818;stroke-width:1.0;"/></g><!--reverse link Person to Owner--><g id="link_Person_Owner"><path
        d="M185.5,331.9406 C185.5,355.3806 185.5,379.6306 185.5,395.0206 " fill="none" id="Person-backto-Owner" style="stroke:#181818;stroke-width:1.0;"/><polygon fill="none" points="178.5,331.8006,185.5,311.8006,192.5,331.8006,178.5,331.8006" style="stroke:#181818;stroke-width:1.0;"/></g><!--link Owner to User--><g id="link_Owner_User"><path
        d="M209.32,412.1406 C214.08,412.1406 218.83,412.1406 223.58,412.1406 " fill="none" id="Owner-to-User" style="stroke:#181818;stroke-width:1.0;"/><polygon fill="none" points="223.76,405.1406,243.76,412.1406,223.76,419.1406,223.76,405.1406" style="stroke:#181818;stroke-width:1.0;"/></g><!--SRC=[PPBFRi8m3CRlUGhVa2PLuhRBD0cnomxxeo4U82IcjPOcbUEAmU3T5v80tTP3vDYVFrk_9dwI7pJh7lhWW-auz0Z28wfuhGpQVEeMLx9t28n6j6_TL10xRSEEV0jRxI8gDNEu5P00J6qdOEdSHS6hIPDnEiQ52DDc57msmQ_eW31NgYEBO8XD6fBZ7gKBDYeb96c5fz1hyl0IB3feOBsQp-_Jp6m8xqxBDd0Ftse6q5YCXcd8msSdfQe8EGQV990-htlCWUYlrx7V8ESRfY5kOIrZZAMC3eSkUAoYcriwXi2or6ohvr1JVwLlEu-SDDV4EkRxhpt-JJwxxGBRMrkjbiOeZ2WvD2Jx75XAMJ9I1LgAzO66PS9sC_e82MYn8Liw9yHELwfrWmnrij0PQOLvrpJvhvyT9xbnk2mxIPPdCULsAJuScoQz9Lz8gSAhEJvcKEe7]--></g></svg>