<?xml version="1.0" encoding="us-ascii" standalone="no"?>
<svg xmlns="http://www.w3.org/2000/svg" contentStyleType="text/css" height="525px" preserveAspectRatio="none"
     style="width:832px;height:525px;background:#FFFFFF;" version="1.1" viewBox="0 0 832 525" width="832px"
     zoomAndPan="magnify"><defs/><g><text fill="#000000" font-family="sans-serif" font-size="14" font-weight="bold" lengthAdjust="spacing" textLength="156" x="331" y="25.1074">Domain Model - US009</text><!--class Person--><g id="elem_Person"><rect
        fill="#F1F1F1" height="111.1055" id="Person" rx="2.5" ry="2.5" style="stroke:#181818;stroke-width:0.5;" width="124" x="7" y="236.6211"/><text fill="#000000" font-family="sans-serif" font-size="14" lengthAdjust="spacing" textLength="45" x="46.5" y="256.7285">Person</text><line style="stroke:#181818;stroke-width:0.5;" x1="8" x2="130" y1="265.2422" y2="265.2422"/><text fill="#000000" font-family="sans-serif" font-size="14" lengthAdjust="spacing" textLength="35" x="13" y="284.3496">name</text><text fill="#000000" font-family="sans-serif" font-size="14" lengthAdjust="spacing" textLength="67" x="13" y="302.9707">taxNumber</text><text fill="#000000" font-family="sans-serif" font-size="14" lengthAdjust="spacing" textLength="85" x="13" y="321.5918">emailAddress</text><text fill="#000000" font-family="sans-serif" font-size="14" lengthAdjust="spacing" textLength="112" x="13" y="340.2129">telephoneNumber</text></g><!--class PassportCard--><g id="elem_PassportCard"><rect
        fill="#F1F1F1" height="55.2422" id="PassportCard" rx="2.5" ry="2.5" style="stroke:#181818;stroke-width:0.5;" width="116" x="166" y="264.6211"/><text fill="#000000" font-family="sans-serif" font-size="14" lengthAdjust="spacing" textLength="87" x="180.5" y="284.7285">PassportCard</text><line style="stroke:#181818;stroke-width:0.5;" x1="167" x2="281" y1="293.2422" y2="293.2422"/><text fill="#000000" font-family="sans-serif" font-size="14" lengthAdjust="spacing" textLength="104" x="172" y="312.3496">passportNumber</text></g><!--class Owner--><g id="elem_Owner"><rect
        fill="#F1F1F1" height="36.6211" id="Owner" rx="2.5" ry="2.5" style="stroke:#181818;stroke-width:0.5;" width="47" x="17.5" y="444.6211"/><text fill="#000000" font-family="sans-serif" font-size="14" lengthAdjust="spacing" textLength="41" x="20.5" y="464.7285">Owner</text><line style="stroke:#181818;stroke-width:0.5;" x1="18.5" x2="63.5" y1="473.2422" y2="473.2422"/></g><!--class Address--><g id="elem_Address"><rect
        fill="#F1F1F1" height="129.7266" id="Address" rx="2.5" ry="2.5" style="stroke:#181818;stroke-width:0.5;" width="63" x="37.5" y="46.6211"/><text fill="#000000" font-family="sans-serif" font-size="14" lengthAdjust="spacing" textLength="52" x="43" y="66.7285">Address</text><line style="stroke:#181818;stroke-width:0.5;" x1="38.5" x2="99.5" y1="75.2422" y2="75.2422"/><text fill="#000000" font-family="sans-serif" font-size="14" lengthAdjust="spacing" textLength="36" x="43.5" y="94.3496">street</text><text fill="#000000" font-family="sans-serif" font-size="14" lengthAdjust="spacing" textLength="21" x="43.5" y="112.9707">city</text><text fill="#000000" font-family="sans-serif" font-size="14" lengthAdjust="spacing" textLength="41" x="43.5" y="131.5918">district</text><text fill="#000000" font-family="sans-serif" font-size="14" lengthAdjust="spacing" textLength="31" x="43.5" y="150.2129">state</text><text fill="#000000" font-family="sans-serif" font-size="14" lengthAdjust="spacing" textLength="51" x="43.5" y="168.834">zipCode</text></g><!--class Agent--><g id="elem_Agent"><rect
        fill="#F1F1F1" height="73.8633" id="Agent" rx="2.5" ry="2.5" style="stroke:#181818;stroke-width:0.5;" width="122" x="317" y="255.1211"/><text fill="#000000" font-family="sans-serif" font-size="14" lengthAdjust="spacing" textLength="37" x="359.5" y="275.2285">Agent</text><line style="stroke:#181818;stroke-width:0.5;" x1="318" x2="438" y1="283.7422" y2="283.7422"/><text fill="#000000" font-family="sans-serif" font-size="14" lengthAdjust="spacing" textLength="94" x="323" y="302.8496">comissionType</text><text fill="#000000" font-family="sans-serif" font-size="14" lengthAdjust="spacing" textLength="110" x="323" y="321.4707">comissionAmount</text></g><!--class AnnouncementRepository--><g id="elem_AnnouncementRepository"><rect
        fill="#F1F1F1" height="36.6211" id="AnnouncementRepository" rx="2.5" ry="2.5" style="stroke:#181818;stroke-width:0.5;" width="169" x="259.5" y="444.6211"/><text fill="#000000" font-family="sans-serif" font-size="14" lengthAdjust="spacing" textLength="163" x="262.5" y="464.7285">AnnouncementRepository</text><line style="stroke:#181818;stroke-width:0.5;" x1="260.5" x2="427.5" y1="473.2422" y2="473.2422"/></g><!--class VisitRequestsRepository--><g id="elem_VisitsRepository"><rect
        fill="#F1F1F1" height="36.6211" id="VisitsRepository" rx="2.5" ry="2.5" style="stroke:#181818;stroke-width:0.5;" width="107" x="662.5" y="273.6211"/><text fill="#000000" font-family="sans-serif" font-size="14" lengthAdjust="spacing" textLength="101" x="665.5" y="293.7285">VisitsRepository</text><line style="stroke:#181818;stroke-width:0.5;" x1="663.5" x2="768.5" y1="302.2422" y2="302.2422"/></g><!--class VisitRequestsRepository--><g id="elem_VisitsRequestRepository"><rect
        fill="#F1F1F1" height="36.6211" id="VisitsRequestRepository" rx="2.5" ry="2.5" style="stroke:#181818;stroke-width:0.5;" width="160" x="665" y="444.6211"/><text fill="#000000" font-family="sans-serif" font-size="14" lengthAdjust="spacing" textLength="154" x="668" y="464.7285">VisitsRequestRepository</text><line style="stroke:#181818;stroke-width:0.5;" x1="666" x2="824" y1="473.2422" y2="473.2422"/></g><!--class VisitsAcceptedRepository--><g id="elem_VisitsAcceptedRepository"><rect
        fill="#F1F1F1" height="36.6211" id="VisitsAcceptedRepository" rx="2.5" ry="2.5" style="stroke:#181818;stroke-width:0.5;" width="166" x="464" y="444.6211"/><text fill="#000000" font-family="sans-serif" font-size="14" lengthAdjust="spacing" textLength="160" x="467" y="464.7285">VisitsAcceptedRepository</text><line style="stroke:#181818;stroke-width:0.5;" x1="465" x2="629" y1="473.2422" y2="473.2422"/></g><!--class VisitRequest--><g id="elem_VisitRequest"><rect
        fill="#F1F1F1" height="111.1055" id="VisitRequest" rx="2.5" ry="2.5" style="stroke:#181818;stroke-width:0.5;" width="124" x="100" y="407.6211"/><text fill="#000000" font-family="sans-serif" font-size="14" lengthAdjust="spacing" textLength="79" x="122.5" y="427.7285">VisitRequest</text><line style="stroke:#181818;stroke-width:0.5;" x1="101" x2="223" y1="436.2422" y2="436.2422"/><text fill="#000000" font-family="sans-serif" font-size="14" lengthAdjust="spacing" textLength="35" x="106" y="455.3496">name</text><text fill="#000000" font-family="sans-serif" font-size="14" lengthAdjust="spacing" textLength="112" x="106" y="473.9707">telephoneNumber</text><text fill="#000000" font-family="sans-serif" font-size="14" lengthAdjust="spacing" textLength="28" x="106" y="492.5918">date</text><text fill="#000000" font-family="sans-serif" font-size="14" lengthAdjust="spacing" textLength="50" x="106" y="511.2129">timeSlot</text></g><!--class Repositories--><g id="elem_Repositories"><rect
        fill="#F1F1F1" height="36.6211" id="Repositories" rx="2.5" ry="2.5" style="stroke:#181818;stroke-width:0.5;" width="85" x="619.5" y="93.1211"/><text fill="#000000" font-family="sans-serif" font-size="14" lengthAdjust="spacing" textLength="79" x="622.5" y="113.2285">Repositories</text><line style="stroke:#181818;stroke-width:0.5;" x1="620.5" x2="703.5" y1="121.7422" y2="121.7422"/></g><!--class Role--><g id="elem_Role"><rect
        fill="#F1F1F1" height="73.8633" id="Role" rx="2.5" ry="2.5" style="stroke:#181818;stroke-width:0.5;" width="81" x="474.5" y="255.1211"/><text fill="#000000" font-family="sans-serif" font-size="14" lengthAdjust="spacing" textLength="29" x="500.5" y="275.2285">Role</text><line style="stroke:#181818;stroke-width:0.5;" x1="475.5" x2="554.5" y1="283.7422" y2="283.7422"/><text fill="#000000" font-family="sans-serif" font-size="14" lengthAdjust="spacing" textLength="11" x="480.5" y="302.8496">id</text><text fill="#000000" font-family="sans-serif" font-size="14" lengthAdjust="spacing" textLength="69" x="480.5" y="321.4707">description</text></g><!--reverse link Agent to Role--><g id="link_Agent_Role"><path
        d="M452.25,292.1211 C459.61,292.1211 466.97,292.1211 474.33,292.1211 " fill="none" id="Agent-backto-Role" style="stroke:#181818;stroke-width:1.0;"/><polygon fill="#181818" points="439.01,292.1211,445.01,296.1211,451.01,292.1211,445.01,288.1211,439.01,292.1211" style="stroke:#181818;stroke-width:1.0;"/></g><!--link Role to Person--><g id="link_Role_Person"><path
        d="M493.02,254.9811 C480,236.7611 461.7,216.6311 439.5,206.6211 C384,181.5911 222.43,185.0311 165.5,206.6211 C152.28,211.6311 139.71,219.3811 128.27,228.2011 " fill="none" id="Role-to-Person" style="stroke:#181818;stroke-width:1.0;"/><polygon fill="#181818" points="118.1,236.5611,125.2756,235.8464,127.3757,228.9479,120.2001,229.6626,118.1,236.5611" style="stroke:#181818;stroke-width:1.0;"/></g><!--link Address to Person--><g id="link_Address_Person"><path
        d="M69,176.8111 C69,191.8811 69,208.0011 69,223.2311 " fill="none" id="Address-to-Person" style="stroke:#181818;stroke-width:1.0;"/><polygon fill="#181818" points="69,236.3411,73,230.3411,69,224.3411,65,230.3411,69,236.3411" style="stroke:#181818;stroke-width:1.0;"/></g><!--reverse link Person to PassportCard--><g id="link_Person_PassportCard"><path
        d="M144.13,292.1211 C151.39,292.1211 158.65,292.1211 165.91,292.1211 " fill="none" id="Person-backto-PassportCard" style="stroke:#181818;stroke-width:1.0;"/><polygon fill="#181818" points="131.06,292.1211,137.06,296.1211,143.06,292.1211,137.06,288.1211,131.06,292.1211" style="stroke:#181818;stroke-width:1.0;"/></g><!--reverse link Person to Owner--><g id="link_Person_Owner"><path
        d="M56.64,367.7411 C51.93,396.1511 46.97,426.0811 43.93,444.4211 " fill="none" id="Person-backto-Owner" style="stroke:#181818;stroke-width:1.0;"/><polygon fill="none" points="49.73,366.5811,59.91,347.9911,63.55,368.8611,49.73,366.5811" style="stroke:#181818;stroke-width:1.0;"/></g><!--reverse link Repositories to AnnouncementRepository--><g id="link_Repositories_AnnouncementRepository"><path
        d="M656.66,150.2011 C647.69,200.8011 625.14,291.0011 573,347.6211 C530.99,393.2511 502.42,379.7811 447,407.6211 C423.14,419.6111 396.5,433.7211 376.29,444.5811 " fill="none" id="Repositories-backto-AnnouncementRepository" style="stroke:#181818;stroke-width:1.0;"/><polygon fill="none" points="649.78,148.9311,659.85,130.2911,663.6,151.1411,649.78,148.9311" style="stroke:#181818;stroke-width:1.0;"/></g><!--reverse link Repositories to VisitRequestsRepository--><g id="link_Repositories_VisitsRepository"><path
        d="M673.19,149.6111 C684.65,187.4811 701.97,244.7411 710.65,273.4211 " fill="none" id="Repositories-backto-VisitsRepository" style="stroke:#181818;stroke-width:1.0;"/><polygon fill="none" points="666.47,151.5611,667.38,130.3911,679.87,147.5011,666.47,151.5611" style="stroke:#181818;stroke-width:1.0;"/></g><!--reverse link VisitRequestsRepository to VisitsAcceptedRepository--><g id="link_VisitsRepository_VisitsAcceptedRepository"><path
        d="M684,325.1211 C648.56,360.5611 592.72,416.4011 564.53,444.5911 " fill="none" id="VisitsRepository-backto-VisitsAcceptedRepository" style="stroke:#181818;stroke-width:1.0;"/><polygon fill="none" points="679.14,320.0811,698.23,310.8911,689.04,329.9811,679.14,320.0811" style="stroke:#181818;stroke-width:1.0;"/></g><!--reverse link VisitRequestsRepository to VisitRequestsRepository--><g id="link_VisitsRepository_VisitsRequestRepository"><path
        d="M722.46,330.7611 C728.55,366.2511 737.4,417.8511 741.99,444.5911 " fill="none" id="VisitsRepository-backto-VisitsRequestRepository" style="stroke:#181818;stroke-width:1.0;"/><polygon fill="none" points="715.53,331.7811,719.05,310.8911,729.33,329.4111,715.53,331.7811" style="stroke:#181818;stroke-width:1.0;"/></g><!--link VisitRequest to VisitRequestsRepository--><g id="link_VisitRequest_VisitsRequestRepository"><path
        d="M211.7,407.5511 C225.81,395.3711 242.12,384.1611 259.5,377.6211 C336.66,348.5811 552.26,351.6311 630.5,377.6211 C667.89,390.0411 702.96,419.9511 724.19,440.8811 " fill="none" id="VisitRequest-to-VisitsRequestRepository" style="stroke:#181818;stroke-width:1.0;"/><polygon fill="#181818" points="727.73,444.4111,724.1759,435.2259,724.1873,440.8827,718.5305,440.8941,727.73,444.4111" style="stroke:#181818;stroke-width:1.0;"/></g><!--link Person to VisitRequest--><g id="link_Person_VisitRequest"><path
        d="M99.19,347.9911 C108.88,365.5811 119.64,385.1411 129.48,403.0211 " fill="none" id="Person-to-VisitRequest" style="stroke:#181818;stroke-width:1.0;"/><polygon fill="#181818" points="131.96,407.5311,131.1239,397.7178,129.5488,403.1509,124.1156,401.5758,131.96,407.5311" style="stroke:#181818;stroke-width:1.0;"/></g><!--link Person to AnnouncementRepository--><g id="link_Person_AnnouncementRepository"><path
        d="M131.24,336.7011 C136.87,340.4411 142.52,344.1311 148,347.6211 C202.65,382.3611 267.89,419.6811 307.62,441.9511 " fill="none" id="Person-to-AnnouncementRepository" style="stroke:#181818;stroke-width:1.0;"/><polygon fill="#181818" points="312.33,444.5911,306.4248,436.7089,307.9653,442.152,302.5222,443.6925,312.33,444.5911" style="stroke:#181818;stroke-width:1.0;"/></g><!--SRC=[XLDDRniX4BtpAxXPYhIIhvMYIbPwwQ4VYjFU2OntHm66mgnS9yr_BmjhcsvgPmy8thnv0pDlqnFweA9oqf4dFKHo83cE8D8f4fH-KZri-M11Hj2iV6zRGXgKeJtwNkwKJI34oiAE9PECs0yi3KvPI5uqITggb3RC4Hz7Xi-Q_1QVGQw56D20r1XrBbBs3dWWauHWv7o5J-GKUlc535ZPoH_RzVf3hba4vNUhU4VHoHUnah8pa7J4K8glNeMOIH0J-KoH-VFAGTcm-lrrT8yGombo4Rin9a9ADGmMma0UPj9PBI-18j-fQ6RDC4DBwhUzXvWv9s0kKBCIHm0kMuryA1k36KNDCq5nlUipXhly_Ymqw_JWkQfeSfXIVl338S2_oCRHw5aqvRtFY0QNi-yXK4AcU7Xf63ynO-bwxDS8wMhwHci83EOAPrPPZcJHyzAHOmyO7MmjyLdff8-GsWhtb6rJfT5KaSONhoVlv6LFqHJhr25EnyaufR_ofkkgeoT1CRieWyNk2smCn-4sOCrk3NCCtlxfklmJ-MeHqRxa7Fl_k2wGbvCJIs19VJkbTrFUp5vSmENjtALssA8zJ8pSizgEOrUwxkE5H_y5]--></g></svg>