<?xml version="1.0" encoding="us-ascii" standalone="no"?><svg xmlns="http://www.w3.org/2000/svg" xmlns:xlink="http://www.w3.org/1999/xlink" contentStyleType="text/css" height="2738px" preserveAspectRatio="none" style="width:1222px;height:2738px;background:#FFFFFF;" version="1.1" viewBox="0 0 1222 2738" width="1222px" zoomAndPan="magnify"><defs><filter height="300%" id="foz0sq9uilec9" width="300%" x="-1" y="-1"><feGaussianBlur result="blurOut" stdDeviation="2.0"/><feColorMatrix in="blurOut" result="blurOut2" type="matrix" values="0 0 0 0 0 0 0 0 0 0 0 0 0 0 0 0 0 0 .4 0"/><feOffset dx="4.0" dy="4.0" in="blurOut2" result="blurOut3"/><feBlend in="SourceGraphic" in2="blurOut3" mode="normal"/></filter></defs><g><text fill="#000000" font-family="sans-serif" font-size="14" font-weight="bold" lengthAdjust="spacing" textLength="100" x="554.3631" y="25.1074">Domain Model</text><!--class Person--><g id="elem_Person"><rect
        fill="#F1F1F1" filter="url(#foz0sq9uilec9)" height="111.1055" id="Person" rx="2.5" ry="2.5" style="stroke:#181818;stroke-width:0.5;" width="124" x="347.2261" y="180.6211"/><text fill="#000000" font-family="sans-serif" font-size="14" lengthAdjust="spacing" textLength="45" x="386.7261" y="200.7285">Person</text><line style="stroke:#181818;stroke-width:0.5;" x1="348.2261" x2="470.2261" y1="209.2422" y2="209.2422"/><text fill="#000000" font-family="sans-serif" font-size="14" lengthAdjust="spacing" textLength="35" x="353.2261" y="228.3496">name</text><text fill="#000000" font-family="sans-serif" font-size="14" lengthAdjust="spacing" textLength="67" x="353.2261" y="246.9707">taxNumber</text><text fill="#000000" font-family="sans-serif" font-size="14" lengthAdjust="spacing" textLength="85" x="353.2261" y="265.5918">emailAddress</text><text fill="#000000" font-family="sans-serif" font-size="14" lengthAdjust="spacing" textLength="112" x="353.2261" y="284.2129">telephoneNumber</text></g><!--class User--><g id="elem_User"><rect
        fill="#F1F1F1" filter="url(#foz0sq9uilec9)" height="92.4844" id="User" rx="2.5" ry="2.5" style="stroke:#181818;stroke-width:0.5;" width="97" x="226.7261" y="1503.6211"/><text fill="#000000" font-family="sans-serif" font-size="14" lengthAdjust="spacing" textLength="29" x="260.7261" y="1523.7285">User</text><line style="stroke:#181818;stroke-width:0.5;" x1="227.7261" x2="322.7261" y1="1532.2422" y2="1532.2422"/><text fill="#000000" font-family="sans-serif" font-size="14" lengthAdjust="spacing" textLength="35" x="232.7261" y="1551.3496">name</text><text fill="#000000" font-family="sans-serif" font-size="14" lengthAdjust="spacing" textLength="85" x="232.7261" y="1569.9707">emailAddress</text><text fill="#000000" font-family="sans-serif" font-size="14" lengthAdjust="spacing" textLength="60" x="232.7261" y="1588.5918">password</text></g><!--class Apartment--><g id="elem_Apartment"><rect
        fill="#F1F1F1" filter="url(#foz0sq9uilec9)" height="36.6211" id="Apartment" rx="2.5" ry="2.5" style="stroke:#181818;stroke-width:0.5;" width="71" x="583.7261" y="1120.6211"/><text fill="#000000" font-family="sans-serif" font-size="14" lengthAdjust="spacing" textLength="65" x="586.7261" y="1140.7285">Apartment</text><line style="stroke:#181818;stroke-width:0.5;" x1="584.7261" x2="653.7261" y1="1149.2422" y2="1149.2422"/></g><!--class PassportCard--><g id="elem_PassportCard"><rect
        fill="#F1F1F1" filter="url(#foz0sq9uilec9)" height="55.2422" id="PassportCard" rx="2.5" ry="2.5" style="stroke:#181818;stroke-width:0.5;" width="116" x="506.2261" y="208.6211"/><text fill="#000000" font-family="sans-serif" font-size="14" lengthAdjust="spacing" textLength="87" x="520.7261" y="228.7285">PassportCard</text><line style="stroke:#181818;stroke-width:0.5;" x1="507.2261" x2="621.2261" y1="237.2422" y2="237.2422"/><text fill="#000000" font-family="sans-serif" font-size="14" lengthAdjust="spacing" textLength="104" x="512.2261" y="256.3496">passportNumber</text></g><!--class Role--><g id="elem_Role"><rect
        fill="#F1F1F1" filter="url(#foz0sq9uilec9)" height="73.8633" id="Role" rx="2.5" ry="2.5" style="stroke:#181818;stroke-width:0.5;" width="81" x="368.7261" y="46.6211"/><text fill="#000000" font-family="sans-serif" font-size="14" lengthAdjust="spacing" textLength="29" x="394.7261" y="66.7285">Role</text><line style="stroke:#181818;stroke-width:0.5;" x1="369.7261" x2="448.7261" y1="75.2422" y2="75.2422"/><text fill="#000000" font-family="sans-serif" font-size="14" lengthAdjust="spacing" textLength="11" x="374.7261" y="94.3496">id</text><text fill="#000000" font-family="sans-serif" font-size="14" lengthAdjust="spacing" textLength="69" x="374.7261" y="112.9707">description</text></g><!--class Owner--><g id="elem_Owner"><rect
        fill="#F1F1F1" filter="url(#foz0sq9uilec9)" height="36.6211" id="Owner" rx="2.5" ry="2.5" style="stroke:#181818;stroke-width:0.5;" width="47" x="163.7261" y="431.1211"/><text fill="#000000" font-family="sans-serif" font-size="14" lengthAdjust="spacing" textLength="41" x="166.7261" y="451.2285">Owner</text><line style="stroke:#181818;stroke-width:0.5;" x1="164.7261" x2="209.7261" y1="459.7422" y2="459.7422"/></g><!--class Agency--><g id="elem_Agency"><rect
        fill="#F1F1F1" filter="url(#foz0sq9uilec9)" height="111.1055" id="Agency" rx="2.5" ry="2.5" style="stroke:#181818;stroke-width:0.5;" width="124" x="470.2261" y="556.1211"/><text fill="#000000" font-family="sans-serif" font-size="14" lengthAdjust="spacing" textLength="47" x="508.7261" y="576.2285">Agency</text><line style="stroke:#181818;stroke-width:0.5;" x1="471.2261" x2="593.2261" y1="584.7422" y2="584.7422"/><text fill="#000000" font-family="sans-serif" font-size="14" lengthAdjust="spacing" textLength="11" x="476.2261" y="603.8496">id</text><text fill="#000000" font-family="sans-serif" font-size="14" lengthAdjust="spacing" textLength="82" x="476.2261" y="622.4707">agencyName</text><text fill="#000000" font-family="sans-serif" font-size="14" lengthAdjust="spacing" textLength="85" x="476.2261" y="641.0918">emailAddress</text><text fill="#000000" font-family="sans-serif" font-size="14" lengthAdjust="spacing" textLength="112" x="476.2261" y="659.7129">telephoneNumber</text></g><!--class Property--><g id="elem_Property"><rect
        fill="#F1F1F1" filter="url(#foz0sq9uilec9)" height="111.1055" id="Property" rx="2.5" ry="2.5" style="stroke:#181818;stroke-width:0.5;" width="141" x="319.7261" y="797.6211"/><text fill="#000000" font-family="sans-serif" font-size="14" lengthAdjust="spacing" textLength="54" x="363.2261" y="817.7285">Property</text><line style="stroke:#181818;stroke-width:0.5;" x1="320.7261" x2="459.7261" y1="826.2422" y2="826.2422"/><text fill="#000000" font-family="sans-serif" font-size="14" lengthAdjust="spacing" textLength="98" x="325.7261" y="845.3496">areaOfProperty</text><text fill="#000000" font-family="sans-serif" font-size="14" lengthAdjust="spacing" textLength="129" x="325.7261" y="863.9707">distanceFromCentre</text><text fill="#000000" font-family="sans-serif" font-size="14" lengthAdjust="spacing" textLength="117" x="325.7261" y="882.5918">dateOfAcceptance</text><text fill="#000000" font-family="sans-serif" font-size="14" lengthAdjust="spacing" textLength="96" x="325.7261" y="901.2129">dateOfRequest</text></g><!--class TypeOfTransaction--><g id="elem_TypeOfTransaction"><rect
        fill="#F1F1F1" filter="url(#foz0sq9uilec9)" height="73.8633" id="TypeOfTransaction" rx="2.5" ry="2.5" style="stroke:#181818;stroke-width:0.5;" width="128" x="583.2261" y="412.6211"/><text fill="#000000" font-family="sans-serif" font-size="14" lengthAdjust="spacing" textLength="122" x="586.2261" y="432.7285">TypeOfTransaction</text><line style="stroke:#181818;stroke-width:0.5;" x1="584.2261" x2="710.2261" y1="441.2422" y2="441.2422"/><text fill="#000000" font-family="sans-serif" font-size="14" lengthAdjust="spacing" textLength="102" x="589.2261" y="460.3496">transactionType</text><text fill="#000000" font-family="sans-serif" font-size="14" lengthAdjust="spacing" textLength="95" x="589.2261" y="478.9707">monetaryValue</text></g><!--class Photo--><g id="elem_Photo"><rect
        fill="#F1F1F1" filter="url(#foz0sq9uilec9)" height="73.8633" id="Photo" rx="2.5" ry="2.5" style="stroke:#181818;stroke-width:0.5;" width="86" x="270.2261" y="412.6211"/><text fill="#000000" font-family="sans-serif" font-size="14" lengthAdjust="spacing" textLength="37" x="294.7261" y="432.7285">Photo</text><line style="stroke:#181818;stroke-width:0.5;" x1="271.2261" x2="355.2261" y1="441.2422" y2="441.2422"/><text fill="#000000" font-family="sans-serif" font-size="14" lengthAdjust="spacing" textLength="49" x="276.2261" y="460.3496">photoID</text><text fill="#000000" font-family="sans-serif" font-size="14" lengthAdjust="spacing" textLength="74" x="276.2261" y="478.9707">pathToPNG</text></g><!--class PropertyType--><g id="elem_PropertyType"><rect
        fill="#F1F1F1" filter="url(#foz0sq9uilec9)" height="55.2422" id="PropertyType" rx="2.5" ry="2.5" style="stroke:#181818;stroke-width:0.5;" width="92" x="336.2261" y="968.6211"/><text fill="#000000" font-family="sans-serif" font-size="14" lengthAdjust="spacing" textLength="86" x="339.2261" y="988.7285">PropertyType</text><line style="stroke:#181818;stroke-width:0.5;" x1="337.2261" x2="427.2261" y1="997.2422" y2="997.2422"/><text fill="#000000" font-family="sans-serif" font-size="14" lengthAdjust="spacing" textLength="73" x="342.2261" y="1016.3496">designation</text></g><!--class Building--><g id="elem_Building"><rect
        fill="#F1F1F1" filter="url(#foz0sq9uilec9)" height="111.1055" id="Building" rx="2.5" ry="2.5" style="stroke:#181818;stroke-width:0.5;" width="135" x="413.7261" y="1083.6211"/><text fill="#000000" font-family="sans-serif" font-size="14" lengthAdjust="spacing" textLength="50" x="456.2261" y="1103.7285">Building</text><line style="stroke:#181818;stroke-width:0.5;" x1="414.7261" x2="547.7261" y1="1112.2422" y2="1112.2422"/><text fill="#000000" font-family="sans-serif" font-size="14" lengthAdjust="spacing" textLength="63" x="419.7261" y="1131.3496">bedrooms</text><text fill="#000000" font-family="sans-serif" font-size="14" lengthAdjust="spacing" textLength="67" x="419.7261" y="1149.9707">bathrooms</text><text fill="#000000" font-family="sans-serif" font-size="14" lengthAdjust="spacing" textLength="94" x="419.7261" y="1168.5918">parkingSpaces</text><text fill="#000000" font-family="sans-serif" font-size="14" lengthAdjust="spacing" textLength="123" x="419.7261" y="1187.2129">availableEquipment</text></g><!--class House--><g id="elem_House"><rect
        fill="#F1F1F1" filter="url(#foz0sq9uilec9)" height="92.4844" id="House" rx="2.5" ry="2.5" style="stroke:#181818;stroke-width:0.5;" width="94" x="284.2261" y="1093.1211"/><text fill="#000000" font-family="sans-serif" font-size="14" lengthAdjust="spacing" textLength="40" x="311.2261" y="1113.2285">House</text><line style="stroke:#181818;stroke-width:0.5;" x1="285.2261" x2="377.2261" y1="1121.7422" y2="1121.7422"/><text fill="#000000" font-family="sans-serif" font-size="14" lengthAdjust="spacing" textLength="62" x="290.2261" y="1140.8496">basement</text><text fill="#000000" font-family="sans-serif" font-size="14" lengthAdjust="spacing" textLength="19" x="290.2261" y="1159.4707">loft</text><text fill="#000000" font-family="sans-serif" font-size="14" lengthAdjust="spacing" textLength="82" x="290.2261" y="1178.0918">sunExposure</text></g><!--class Agent--><g id="elem_Agent"><rect
        fill="#F1F1F1" filter="url(#foz0sq9uilec9)" height="92.4844" id="Agent" rx="2.5" ry="2.5" style="stroke:#181818;stroke-width:0.5;" width="97" x="684.7261" y="1254.6211"/><text fill="#000000" font-family="sans-serif" font-size="14" lengthAdjust="spacing" textLength="37" x="714.7261" y="1274.7285">Agent</text><line style="stroke:#181818;stroke-width:0.5;" x1="685.7261" x2="780.7261" y1="1283.2422" y2="1283.2422"/><text fill="#000000" font-family="sans-serif" font-size="14" lengthAdjust="spacing" textLength="35" x="690.7261" y="1302.3496">name</text><text fill="#000000" font-family="sans-serif" font-size="14" lengthAdjust="spacing" textLength="85" x="690.7261" y="1320.9707">emailAddress</text><text fill="#000000" font-family="sans-serif" font-size="14" lengthAdjust="spacing" textLength="60" x="690.7261" y="1339.5918">password</text></g><!--class VisitRequest--><g id="elem_VisitRequest"><rect
        fill="#F1F1F1" filter="url(#foz0sq9uilec9)" height="111.1055" id="VisitRequest" rx="2.5" ry="2.5" style="stroke:#181818;stroke-width:0.5;" width="124" x="213.2261" y="1807.6211"/><text fill="#000000" font-family="sans-serif" font-size="14" lengthAdjust="spacing" textLength="79" x="235.7261" y="1827.7285">VisitRequest</text><line style="stroke:#181818;stroke-width:0.5;" x1="214.2261" x2="336.2261" y1="1836.2422" y2="1836.2422"/><text fill="#000000" font-family="sans-serif" font-size="14" lengthAdjust="spacing" textLength="35" x="219.2261" y="1855.3496">name</text><text fill="#000000" font-family="sans-serif" font-size="14" lengthAdjust="spacing" textLength="112" x="219.2261" y="1873.9707">telephoneNumber</text><text fill="#000000" font-family="sans-serif" font-size="14" lengthAdjust="spacing" textLength="28" x="219.2261" y="1892.5918">date</text><text fill="#000000" font-family="sans-serif" font-size="14" lengthAdjust="spacing" textLength="50" x="219.2261" y="1911.2129">timeSlot</text></g><!--class VisitRequestsRepository--><g id="elem_VisitsRequestRepository"><rect
        fill="#F1F1F1" filter="url(#foz0sq9uilec9)" height="36.6211" id="VisitsRequestRepository" rx="2.5" ry="2.5" style="stroke:#181818;stroke-width:0.5;" width="160" x="195.2261" y="2136.6211"/><text fill="#000000" font-family="sans-serif" font-size="14" lengthAdjust="spacing" textLength="154" x="198.2261" y="2156.7285">VisitsRequestRepository</text><line style="stroke:#181818;stroke-width:0.5;" x1="196.2261" x2="354.2261" y1="2165.2422" y2="2165.2422"/></g><!--class Address--><g id="elem_Address"><rect
        fill="#F1F1F1" filter="url(#foz0sq9uilec9)" height="129.7266" id="Address" rx="2.5" ry="2.5" style="stroke:#181818;stroke-width:0.5;" width="63" x="371.7261" y="546.6211"/><text fill="#000000" font-family="sans-serif" font-size="14" lengthAdjust="spacing" textLength="52" x="377.2261" y="566.7285">Address</text><line style="stroke:#181818;stroke-width:0.5;" x1="372.7261" x2="433.7261" y1="575.2422" y2="575.2422"/><text fill="#000000" font-family="sans-serif" font-size="14" lengthAdjust="spacing" textLength="36" x="377.7261" y="594.3496">street</text><text fill="#000000" font-family="sans-serif" font-size="14" lengthAdjust="spacing" textLength="21" x="377.7261" y="612.9707">city</text><text fill="#000000" font-family="sans-serif" font-size="14" lengthAdjust="spacing" textLength="41" x="377.7261" y="631.5918">district</text><text fill="#000000" font-family="sans-serif" font-size="14" lengthAdjust="spacing" textLength="31" x="377.7261" y="650.2129">state</text><text fill="#000000" font-family="sans-serif" font-size="14" lengthAdjust="spacing" textLength="51" x="377.7261" y="668.834">zipCode</text></g><!--class AnnouncementRepository--><g id="elem_AnnouncementRepository"><rect
        fill="#F1F1F1" filter="url(#foz0sq9uilec9)" height="36.6211" id="AnnouncementRepository" rx="2.5" ry="2.5" style="stroke:#181818;stroke-width:0.5;" width="169" x="190.7261" y="1406.6211"/><text fill="#000000" font-family="sans-serif" font-size="14" lengthAdjust="spacing" textLength="163" x="193.7261" y="1426.7285">AnnouncementRepository</text><line style="stroke:#181818;stroke-width:0.5;" x1="191.7261" x2="358.7261" y1="1435.2422" y2="1435.2422"/></g><!--class Equipment--><g id="elem_Equipment"><rect
        fill="#F1F1F1" filter="url(#foz0sq9uilec9)" height="55.2422" id="Equipment" rx="2.5" ry="2.5" style="stroke:#181818;stroke-width:0.5;" width="73" x="689.7261" y="1111.6211"/><text fill="#000000" font-family="sans-serif" font-size="14" lengthAdjust="spacing" textLength="67" x="692.7261" y="1131.7285">Equipment</text><line style="stroke:#181818;stroke-width:0.5;" x1="690.7261" x2="761.7261" y1="1140.2422" y2="1140.2422"/><text fill="#000000" font-family="sans-serif" font-size="14" lengthAdjust="spacing" textLength="35" x="695.7261" y="1159.3496">name</text></g><!--class Employee--><g id="elem_Employee"><rect
        fill="#F1F1F1" filter="url(#foz0sq9uilec9)" height="36.6211" id="Employee" rx="2.5" ry="2.5" style="stroke:#181818;stroke-width:0.5;" width="68" x="853.2261" y="593.1211"/><text fill="#000000" font-family="sans-serif" font-size="14" lengthAdjust="spacing" textLength="62" x="856.2261" y="613.2285">Employee</text><line style="stroke:#181818;stroke-width:0.5;" x1="854.2261" x2="920.2261" y1="621.7422" y2="621.7422"/></g><!--class PropertyRequestRepository--><g id="elem_PropertyRequestRepository"><rect
        fill="#F1F1F1" filter="url(#foz0sq9uilec9)" height="36.6211" id="PropertyRequestRepository" rx="2.5" ry="2.5" style="stroke:#181818;stroke-width:0.5;" width="181" x="67.7261" y="1120.6211"/><text fill="#000000" font-family="sans-serif" font-size="14" lengthAdjust="spacing" textLength="175" x="70.7261" y="1140.7285">PropertyRequestRepository</text><line style="stroke:#181818;stroke-width:0.5;" x1="68.7261" x2="247.7261" y1="1149.2422" y2="1149.2422"/></g><!--class PurchaseOrderTBARepository--><g id="elem_PurchaseOrderTBARepository"><rect
        fill="#F1F1F1" filter="url(#foz0sq9uilec9)" height="36.6211" id="PurchaseOrderTBARepository" rx="2.5" ry="2.5" style="stroke:#181818;stroke-width:0.5;" width="198" x="573.2261" y="1978.6211"/><text fill="#000000" font-family="sans-serif" font-size="14" lengthAdjust="spacing" textLength="192" x="576.2261" y="1998.7285">PurchaseOrderTBARepository</text><line style="stroke:#181818;stroke-width:0.5;" x1="574.2261" x2="770.2261" y1="2007.2422" y2="2007.2422"/></g><!--class Email--><g id="elem_Email"><rect
        fill="#F1F1F1" filter="url(#foz0sq9uilec9)" height="55.2422" id="Email" rx="2.5" ry="2.5" style="stroke:#181818;stroke-width:0.5;" width="97" x="622.7261" y="2671.6211"/><text fill="#000000" font-family="sans-serif" font-size="14" lengthAdjust="spacing" textLength="34" x="654.2261" y="2691.7285">Email</text><line style="stroke:#181818;stroke-width:0.5;" x1="623.7261" x2="718.7261" y1="2700.2422" y2="2700.2422"/><text fill="#000000" font-family="sans-serif" font-size="14" lengthAdjust="spacing" textLength="85" x="628.7261" y="2719.3496">emailAddress</text></g><!--class PurchaseOrderARepository--><g id="elem_PurchaseOrderARepository"><rect
        fill="#F1F1F1" filter="url(#foz0sq9uilec9)" height="36.6211" id="PurchaseOrderARepository" rx="2.5" ry="2.5" style="stroke:#181818;stroke-width:0.5;" width="180" x="689.2261" y="2233.6211"/><text fill="#000000" font-family="sans-serif" font-size="14" lengthAdjust="spacing" textLength="174" x="692.2261" y="2253.7285">PurchaseOrderARepository</text><line style="stroke:#181818;stroke-width:0.5;" x1="690.2261" x2="868.2261" y1="2262.2422" y2="2262.2422"/></g><!--class PurchaseOrder--><g id="elem_PurchaseOrder"><rect
        fill="#F1F1F1" filter="url(#foz0sq9uilec9)" height="92.4844" id="PurchaseOrder" rx="2.5" ry="2.5" style="stroke:#181818;stroke-width:0.5;" width="106" x="341.2261" y="1655.6211"/><text fill="#000000" font-family="sans-serif" font-size="14" lengthAdjust="spacing" textLength="97" x="345.7261" y="1675.7285">PurchaseOrder</text><line style="stroke:#181818;stroke-width:0.5;" x1="342.2261" x2="446.2261" y1="1684.2422" y2="1684.2422"/><text fill="#000000" font-family="sans-serif" font-size="14" lengthAdjust="spacing" textLength="28" x="347.2261" y="1703.3496">user</text><text fill="#000000" font-family="sans-serif" font-size="14" lengthAdjust="spacing" textLength="94" x="347.2261" y="1721.9707">announcement</text><text fill="#000000" font-family="sans-serif" font-size="14" lengthAdjust="spacing" textLength="82" x="347.2261" y="1740.5918">orderAmount</text></g><!--class LegacyFile--><g id="elem_LegacyFile"><rect
        fill="#F1F1F1" filter="url(#foz0sq9uilec9)" height="55.2422" id="LegacyFile" rx="2.5" ry="2.5" style="stroke:#181818;stroke-width:0.5;" width="75" x="1042.7261" y="825.6211"/><text fill="#000000" font-family="sans-serif" font-size="14" lengthAdjust="spacing" textLength="69" x="1045.7261" y="845.7285">LegacyFile</text><line style="stroke:#181818;stroke-width:0.5;" x1="1043.7261" x2="1116.7261" y1="854.2422" y2="854.2422"/><text fill="#000000" font-family="sans-serif" font-size="14" lengthAdjust="spacing" textLength="47" x="1048.7261" y="873.3496">filePath</text></g><!--class ImportedInformationRepository--><g id="elem_ImportedInformationRepository"><rect
        fill="#F1F1F1" filter="url(#foz0sq9uilec9)" height="36.6211" id="ImportedInformationRepository" rx="2.5" ry="2.5" style="stroke:#181818;stroke-width:0.5;" width="199" x="1011.7261" y="1120.6211"/><text fill="#000000" font-family="sans-serif" font-size="14" lengthAdjust="spacing" textLength="193" x="1014.7261" y="1140.7285">ImportedInformationRepository</text><line style="stroke:#181818;stroke-width:0.5;" x1="1012.7261" x2="1209.7261" y1="1149.2422" y2="1149.2422"/></g><!--class Land--><g id="elem_Land"><rect fill="#F1F1F1" filter="url(#foz0sq9uilec9)" height="36.6211" id="Land" rx="2.5" ry="2.5" style="stroke:#181818;stroke-width:0.5;" width="38" x="496.2261" y="834.6211"/><text fill="#000000" font-family="sans-serif" font-size="14" lengthAdjust="spacing" textLength="32" x="499.2261" y="854.7285">Land</text><line style="stroke:#181818;stroke-width:0.5;" x1="497.2261" x2="533.2261" y1="863.2422" y2="863.2422"/></g><!--class System--><g id="elem_System"><rect fill="#F1F1F1" filter="url(#foz0sq9uilec9)" height="36.6211" id="System" rx="2.5" ry="2.5" style="stroke:#181818;stroke-width:0.5;" width="52" x="645.2261" y="2452.6211"/><text fill="#000000" font-family="sans-serif" font-size="14" lengthAdjust="spacing" textLength="46" x="648.2261" y="2472.7285">System</text><line style="stroke:#181818;stroke-width:0.5;" x1="646.2261" x2="696.2261" y1="2481.2422" y2="2481.2422"/></g><!--link Employee to Person--><g id="link_Employee_Person"><path
        d="M887.2261,592.7111 C887.2261,522.0511 887.2261,277.6211 887.2261,277.6211 C887.2261,277.6211 491.2261,277.6211 491.2261,277.6211 " fill="none" id="Employee-to-Person" style="stroke:#181818;stroke-width:1.0;"/><polygon fill="none" points="491.2261,284.6211,471.2261,277.6211,491.2261,270.6211,491.2261,284.6211" style="stroke:#181818;stroke-width:1.0;"/></g><!--link Employee to User--><g id="link_Employee_User"><path
        d="M861.2261,630.4811 C861.2261,761.8011 861.2261,1534.6211 861.2261,1534.6211 C861.2261,1534.6211 343.9261,1534.6211 343.9261,1534.6211 " fill="none" id="Employee-to-User" style="stroke:#181818;stroke-width:1.0;"/><polygon fill="none" points="343.9261,1541.6211,323.9261,1534.6211,343.9261,1527.6211,343.9261,1541.6211" style="stroke:#181818;stroke-width:1.0;"/></g><!--reverse link Employee to Agent--><g id="link_Employee_Agent"><path
        d="M833.0661,618.6211 C833.0661,618.6211 775.3961,618.6211 775.3961,618.6211 C775.3961,618.6211 775.3961,1101.3411 775.3961,1254.5511 " fill="none" id="Employee-backto-Agent" style="stroke:#181818;stroke-width:1.0;"/><polygon fill="none" points="833.0661,611.6211,853.0661,618.6211,833.0661,625.6211,833.0661,611.6211" style="stroke:#181818;stroke-width:1.0;"/></g><!--link Employee to LegacyFile--><g id="link_Employee_LegacyFile"><path
        d="M895.2261,630.2911 C895.2261,683.2511 895.2261,830.6211 895.2261,830.6211 C895.2261,830.6211 1037.3461,830.6211 1037.3461,830.6211 " fill="none" id="Employee-to-LegacyFile" style="stroke:#181818;stroke-width:1.0;"/><polygon fill="#181818" points="1042.3461,830.6211,1033.3461,826.6211,1037.3461,830.6211,1033.3461,834.6211,1042.3461,830.6211" style="stroke:#181818;stroke-width:1.0;"/><text fill="#000000" font-family="sans-serif" font-size="13" lengthAdjust="spacing" textLength="89" x="805.2261" y="797.5394">wants to import</text><text fill="#000000" font-family="sans-serif" font-size="13" lengthAdjust="spacing" textLength="7" x="889.4355" y="651.7114">1</text><text fill="#000000" font-family="sans-serif" font-size="13" lengthAdjust="spacing" textLength="5" x="1029.6487" y="821.7447">*</text></g><!--link Agency to Employee--><g id="link_Agency_Employee"><path
        d="M594.4661,605.6211 C594.4661,605.6211 840.0061,605.6211 840.0061,605.6211 " fill="none" id="Agency-to-Employee" style="stroke:#181818;stroke-width:1.0;"/><polygon fill="#181818" points="853.0061,605.6211,847.0061,601.6211,841.0061,605.6211,847.0061,609.6211,853.0061,605.6211" style="stroke:#181818;stroke-width:1.0;"/></g><!--link Owner to User--><g id="link_Owner_User"><path
        d="M163.5861,449.6211 C124.2761,449.6211 49.7261,449.6211 49.7261,449.6211 C49.7261,449.6211 49.7261,1549.6211 49.7261,1549.6211 C49.7261,1549.6211 206.5761,1549.6211 206.5761,1549.6211 " fill="none" id="Owner-to-User" style="stroke:#181818;stroke-width:1.0;"/><polygon fill="none" points="206.5761,1542.6211,226.5761,1549.6211,206.5761,1556.6211,206.5761,1542.6211" style="stroke:#181818;stroke-width:1.0;"/></g><!--link User to VisitRequest--><g id="link_User_VisitRequest"><path
        d="M275.2261,1595.8811 C275.2261,1595.8811 275.2261,1802.4011 275.2261,1802.4011 " fill="none" id="User-to-VisitRequest" style="stroke:#181818;stroke-width:1.0;"/><polygon fill="#181818" points="275.2261,1807.4011,279.2261,1798.4011,275.2261,1802.4011,271.2261,1798.4011,275.2261,1807.4011" style="stroke:#181818;stroke-width:1.0;"/><text fill="#000000" font-family="sans-serif" font-size="13" lengthAdjust="spacing" textLength="43" x="231.2261" y="1695.1694">creates</text><text fill="#000000" font-family="sans-serif" font-size="13" lengthAdjust="spacing" textLength="7" x="267.6902" y="1618.2797">1</text><text fill="#000000" font-family="sans-serif" font-size="13" lengthAdjust="spacing" textLength="7" x="267.7777" y="1796.2131">1</text></g><!--link User to AnnouncementRepository--><g id="link_User_AnnouncementRepository"><path
        d="M259.0561,1503.6111 C259.0561,1503.6111 259.0561,1448.6611 259.0561,1448.6611 " fill="none" id="User-to-AnnouncementRepository" style="stroke:#181818;stroke-width:1.0;"/><polygon fill="#181818" points="259.0561,1443.6611,255.0561,1452.6611,259.0561,1448.6611,263.0561,1452.6611,259.0561,1443.6611" style="stroke:#181818;stroke-width:1.0;"/><text fill="#000000" font-family="sans-serif" font-size="13" lengthAdjust="spacing" textLength="185" x="73.0561" y="1472.1694">requests available properties list</text></g><!--link AnnouncementRepository to User--><g id="link_AnnouncementRepository_User"><path
        d="M291.3961,1443.7611 C291.3961,1443.7611 291.3961,1498.3911 291.3961,1498.3911 " fill="none" id="AnnouncementRepository-to-User" style="stroke:#181818;stroke-width:1.0;"/><polygon fill="#181818" points="291.3961,1503.3911,295.3961,1494.3911,291.3961,1498.3911,287.3961,1494.3911,291.3961,1503.3911" style="stroke:#181818;stroke-width:1.0;"/><text fill="#000000" font-family="sans-serif" font-size="13" lengthAdjust="spacing" textLength="58" x="292.3961" y="1467.0994">shows list</text></g><!--link User to PurchaseOrder--><g id="link_User_PurchaseOrder"><path
        d="M323.7361,1565.6211 C338.2961,1565.6211 350.4761,1565.6211 350.4761,1565.6211 C350.4761,1565.6211 350.4761,1650.5811 350.4761,1650.5811 " fill="none" id="User-to-PurchaseOrder" style="stroke:#181818;stroke-width:1.0;"/><polygon fill="#181818" points="350.4761,1655.5811,354.4761,1646.5811,350.4761,1650.5811,346.4761,1646.5811,350.4761,1655.5811" style="stroke:#181818;stroke-width:1.0;"/><text fill="#000000" font-family="sans-serif" font-size="13" lengthAdjust="spacing" textLength="236" x="351.4761" y="1590.7594">selects announcement and order amount</text></g><!--reverse link Person to Owner--><g id="link_Person_Owner"><path
        d="M327.0961,236.6211 C327.0961,236.6211 187.2261,236.6211 187.2261,236.6211 C187.2261,236.6211 187.2261,379.2711 187.2261,431.0911 " fill="none" id="Person-backto-Owner" style="stroke:#181818;stroke-width:1.0;"/><polygon fill="none" points="327.0961,229.6211,347.0961,236.6211,327.0961,243.6211,327.0961,229.6211" style="stroke:#181818;stroke-width:1.0;"/></g><!--link Owner to Property--><g id="link_Owner_Property"><path
        d="M195.0561,468.1911 C195.0561,545.0911 195.0561,834.6211 195.0561,834.6211 C195.0561,834.6211 314.4861,834.6211 314.4861,834.6211 " fill="none" id="Owner-to-Property" style="stroke:#181818;stroke-width:1.0;"/><polygon fill="#181818" points="319.4861,834.6211,310.4861,830.6211,314.4861,834.6211,310.4861,838.6211,319.4861,834.6211" style="stroke:#181818;stroke-width:1.0;"/><polygon fill="#000000" points="70.6056,706.5205,70.5969,697.0099,65.0084,698.8314,70.6056,706.5205" style="stroke:#000000;stroke-width:1.0;"/><text fill="#000000" font-family="sans-serif" font-size="13" lengthAdjust="spacing" textLength="116" x="78.0561" y="707.1494">creates the property</text></g><!--link Owner to PropertyRequestRepository--><g id="link_Owner_PropertyRequestRepository"><path
        d="M179.3961,468.4211 C179.3961,468.4211 179.3961,1115.3411 179.3961,1115.3411 " fill="none" id="Owner-to-PropertyRequestRepository" style="stroke:#181818;stroke-width:1.0;"/><polygon fill="#181818" points="179.3961,1120.3411,183.3961,1111.3411,179.3961,1115.3411,175.3961,1111.3411,179.3961,1120.3411" style="stroke:#181818;stroke-width:1.0;"/><polygon fill="#000000" points="29.3961,787.5266,32.3351,778.4815,26.4572,778.4815,29.3961,787.5266" style="stroke:#000000;stroke-width:1.0;"/><text fill="#000000" font-family="sans-serif" font-size="13" lengthAdjust="spacing" textLength="140" x="38.3961" y="787.9094">sends owner information</text><text fill="#000000" font-family="sans-serif" font-size="13" lengthAdjust="spacing" textLength="7" x="164.8137" y="489.8763">1</text><text fill="#000000" font-family="sans-serif" font-size="13" lengthAdjust="spacing" textLength="7" x="172.9992" y="1109.4543">1</text></g><!--link Role to Person--><g id="link_Role_Person"><path
        d="M409.2261,120.9311 C409.2261,120.9311 409.2261,167.4511 409.2261,167.4511 " fill="none" id="Role-to-Person" style="stroke:#181818;stroke-width:1.0;"/><polygon fill="#181818" points="409.2261,180.4511,413.2261,174.4511,409.2261,168.4511,405.2261,174.4511,409.2261,180.4511" style="stroke:#181818;stroke-width:1.0;"/></g><!--reverse link Person to PassportCard--><g id="link_Person_PassportCard"><path
        d="M484.3761,236.6211 C484.3761,236.6211 506.0861,236.6211 506.0861,236.6211 " fill="none" id="Person-backto-PassportCard" style="stroke:#181818;stroke-width:1.0;"/><polygon fill="#181818" points="471.3761,236.6211,477.3761,240.6211,483.3761,236.6211,477.3761,232.6211,471.3761,236.6211" style="stroke:#181818;stroke-width:1.0;"/></g><!--reverse link Person to Address--><g id="link_Person_Address"><path
        d="M403.2261,304.9311 C403.2261,304.9311 403.2261,546.3411 403.2261,546.3411 " fill="none" id="Person-backto-Address" style="stroke:#181818;stroke-width:1.0;"/><polygon fill="#181818" points="403.2261,291.9311,399.2261,297.9311,403.2261,303.9311,407.2261,297.9311,403.2261,291.9311" style="stroke:#181818;stroke-width:1.0;"/></g><!--reverse link Property to Land--><g id="link_Property_Land"><path
        d="M480.7661,853.6211 C480.7661,853.6211 496.2061,853.6211 496.2061,853.6211 " fill="none" id="Property-backto-Land" style="stroke:#181818;stroke-width:1.0;"/><polygon fill="none" points="480.7661,860.6211,460.7661,853.6211,480.7661,846.6211,480.7661,860.6211" style="stroke:#181818;stroke-width:1.0;"/></g><!--reverse link Property to PropertyType--><g id="link_Property_PropertyType"><path
        d="M382.2261,921.8211 C382.2261,921.8211 382.2261,968.3111 382.2261,968.3111 " fill="none" id="Property-backto-PropertyType" style="stroke:#181818;stroke-width:1.0;"/><polygon fill="#181818" points="382.2261,908.8211,378.2261,914.8211,382.2261,920.8211,386.2261,914.8211,382.2261,908.8211" style="stroke:#181818;stroke-width:1.0;"/></g><!--link Property to PropertyRequestRepository--><g id="link_Property_PropertyRequestRepository"><path
        d="M319.3661,871.6211 C276.3661,871.6211 229.7261,871.6211 229.7261,871.6211 C229.7261,871.6211 229.7261,1115.3111 229.7261,1115.3111 " fill="none" id="Property-to-PropertyRequestRepository" style="stroke:#181818;stroke-width:1.0;"/><polygon fill="#181818" points="229.7261,1120.3111,233.7261,1111.3111,229.7261,1115.3111,225.7261,1111.3111,229.7261,1120.3111" style="stroke:#181818;stroke-width:1.0;"/><polygon fill="#000000" points="16,943.9892,21.8809,936.5148,16.3644,934.4856,16,943.9892" style="stroke:#000000;stroke-width:1.0;"/><text fill="#000000" font-family="sans-serif" font-size="13" lengthAdjust="spacing" textLength="202" x="26.7261" y="944.6794">wants to store the property request</text><text fill="#000000" font-family="sans-serif" font-size="13" lengthAdjust="spacing" textLength="7" x="304.6978" y="869.6902">1</text><text fill="#000000" font-family="sans-serif" font-size="13" lengthAdjust="spacing" textLength="7" x="242.7011" y="1109.4155">1</text></g><!--reverse link Property to Agent--><g id="link_Property_Agent"><path
        d="M466.0361,894.6211 C466.0361,894.6211 769.0561,894.6211 769.0561,894.6211 C769.0561,894.6211 769.0561,1148.0311 769.0561,1254.4411 " fill="none" id="Property-backto-Agent" style="stroke:#181818;stroke-width:1.0;"/><polygon fill="#181818" points="461.0361,894.6211,470.0361,898.6211,466.0361,894.6211,470.0361,890.6211,461.0361,894.6211" style="stroke:#181818;stroke-width:1.0;"/><text fill="#000000" font-family="sans-serif" font-size="13" lengthAdjust="spacing" textLength="148" x="620.0561" y="919.0494">wants to input information</text><text fill="#000000" font-family="sans-serif" font-size="13" lengthAdjust="spacing" textLength="7" x="468.9056" y="895.0621">1</text><text fill="#000000" font-family="sans-serif" font-size="13" lengthAdjust="spacing" textLength="7" x="766.8046" y="1243.4241">1</text></g><!--reverse link Property to Building--><g id="link_Property_Building"><path
        d="M444.4761,928.9411 C444.4761,928.9411 444.4761,1083.4411 444.4761,1083.4411 " fill="none" id="Property-backto-Building" style="stroke:#181818;stroke-width:1.0;"/><polygon fill="none" points="437.4761,928.9411,444.4761,908.9411,451.4761,928.9411,437.4761,928.9411" style="stroke:#181818;stroke-width:1.0;"/></g><!--reverse link PropertyRequestRepository to Agent--><g id="link_PropertyRequestRepository_Agent"><path
        d="M229.3961,1162.6511 C229.3961,1162.6511 229.3961,1300.6211 229.3961,1300.6211 C229.3961,1300.6211 558.0161,1300.6211 684.4561,1300.6211 " fill="none" id="PropertyRequestRepository-backto-Agent" style="stroke:#181818;stroke-width:1.0;"/><polygon fill="#181818" points="229.3961,1157.6511,225.3961,1166.6511,229.3961,1162.6511,233.3961,1166.6511,229.3961,1157.6511" style="stroke:#181818;stroke-width:1.0;"/><polygon fill="#000000" points="235.1512,1289.8159,242.9545,1295.2528,244.6599,1289.6278,235.1512,1289.8159" style="stroke:#000000;stroke-width:1.0;"/><text fill="#000000" font-family="sans-serif" font-size="13" lengthAdjust="spacing" textLength="138" x="248.9361" y="1296.6494">sends agent information</text><text fill="#000000" font-family="sans-serif" font-size="13" lengthAdjust="spacing" textLength="7" x="236.8658" y="1179.3758">1</text><text fill="#000000" font-family="sans-serif" font-size="13" lengthAdjust="spacing" textLength="7" x="665.8244" y="1296.4405">1</text></g><!--link PropertyRequestRepository to AnnouncementRepository--><g id="link_PropertyRequestRepository_AnnouncementRepository"><path
        d="M210.0561,1157.8911 C210.0561,1157.8911 210.0561,1401.2911 210.0561,1401.2911 " fill="none" id="PropertyRequestRepository-to-AnnouncementRepository" style="stroke:#181818;stroke-width:1.0;"/><polygon fill="#181818" points="210.0561,1406.2911,214.0561,1397.2911,210.0561,1401.2911,206.0561,1397.2911,210.0561,1406.2911" style="stroke:#181818;stroke-width:1.0;"/><polygon fill="#000000" points="56.0561,1275.2366,58.9951,1266.1915,53.1172,1266.1915,56.0561,1275.2366" style="stroke:#000000;stroke-width:1.0;"/><text fill="#000000" font-family="sans-serif" font-size="13" lengthAdjust="spacing" textLength="144" x="65.0561" y="1275.6194">publishes announcement</text><text fill="#000000" font-family="sans-serif" font-size="13" lengthAdjust="spacing" textLength="7" x="216.0448" y="1179.3382">1</text><text fill="#000000" font-family="sans-serif" font-size="13" lengthAdjust="spacing" textLength="7" x="182.8843" y="1395.3896">1</text></g><!--link TypeOfTransaction to Property--><g id="link_TypeOfTransaction_Property"><path
        d="M583.0061,449.6211 C524.6861,449.6211 447.7261,449.6211 447.7261,449.6211 C447.7261,449.6211 447.7261,784.4411 447.7261,784.4411 " fill="none" id="TypeOfTransaction-to-Property" style="stroke:#181818;stroke-width:1.0;"/><polygon fill="#181818" points="447.7261,797.4411,451.7261,791.4411,447.7261,785.4411,443.7261,791.4411,447.7261,797.4411" style="stroke:#181818;stroke-width:1.0;"/></g><!--link House to Building--><g id="link_House_Building"><path
        d="M378.2761,1139.6211 C378.2761,1139.6211 393.4661,1139.6211 393.4661,1139.6211 " fill="none" id="House-to-Building" style="stroke:#181818;stroke-width:1.0;"/><polygon fill="none" points="393.4661,1132.6211,413.4661,1139.6211,393.4661,1146.6211,393.4661,1132.6211" style="stroke:#181818;stroke-width:1.0;"/></g><!--reverse link Building to Equipment--><g id="link_Building_Equipment"><path
        d="M561.8261,1116.6211 C561.8261,1116.6211 689.5661,1116.6211 689.5661,1116.6211 " fill="none" id="Building-backto-Equipment" style="stroke:#181818;stroke-width:1.0;"/><polygon fill="#181818" points="548.8261,1116.6211,554.8261,1120.6211,560.8261,1116.6211,554.8261,1112.6211,548.8261,1116.6211" style="stroke:#181818;stroke-width:1.0;"/></g><!--link Photo to Property--><g id="link_Photo_Property"><path
        d="M337.9761,486.8611 C337.9761,486.8611 337.9761,784.4911 337.9761,784.4911 " fill="none" id="Photo-to-Property" style="stroke:#181818;stroke-width:1.0;"/><polygon fill="#181818" points="337.9761,797.4911,341.9761,791.4911,337.9761,785.4911,333.9761,791.4911,337.9761,797.4911" style="stroke:#181818;stroke-width:1.0;"/></g><!--link Address to Property--><g id="link_Address_Property"><path
        d="M403.2261,676.6611 C403.2261,676.6611 403.2261,784.4011 403.2261,784.4011 " fill="none" id="Address-to-Property" style="stroke:#181818;stroke-width:1.0;"/><polygon fill="#181818" points="403.2261,797.4011,407.2261,791.4011,403.2261,785.4011,399.2261,791.4011,403.2261,797.4011" style="stroke:#181818;stroke-width:1.0;"/></g><!--link Address to Agency--><g id="link_Address_Agency"><path
        d="M434.7861,611.6211 C434.7861,611.6211 457.2161,611.6211 457.2161,611.6211 " fill="none" id="Address-to-Agency" style="stroke:#181818;stroke-width:1.0;"/><polygon fill="#181818" points="470.2161,611.6211,464.2161,607.6211,458.2161,611.6211,464.2161,615.6211,470.2161,611.6211" style="stroke:#181818;stroke-width:1.0;"/></g><!--reverse link Building to Apartment--><g id="link_Building_Apartment"><path
        d="M569.0161,1139.6211 C569.0161,1139.6211 583.6961,1139.6211 583.6961,1139.6211 " fill="none" id="Building-backto-Apartment" style="stroke:#181818;stroke-width:1.0;"/><polygon fill="none" points="569.0161,1146.6211,549.0161,1139.6211,569.0161,1132.6211,569.0161,1146.6211" style="stroke:#181818;stroke-width:1.0;"/></g><!--link VisitRequest to VisitRequestsRepository--><g id="link_VisitRequest_VisitsRequestRepository"><path
        d="M275.2261,1918.7311 C275.2261,1918.7311 275.2261,2131.6111 275.2261,2131.6111 " fill="none" id="VisitRequest-to-VisitsRequestRepository" style="stroke:#181818;stroke-width:1.0;"/><polygon fill="#181818" points="275.2261,2136.6111,279.2261,2127.6111,275.2261,2131.6111,271.2261,2127.6111,275.2261,2136.6111" style="stroke:#181818;stroke-width:1.0;"/><text fill="#000000" font-family="sans-serif" font-size="13" lengthAdjust="spacing" textLength="177" x="97.2261" y="2021.1994">wants to store the visit request</text><text fill="#000000" font-family="sans-serif" font-size="13" lengthAdjust="spacing" textLength="7" x="267.7996" y="1940.5841">1</text><text fill="#000000" font-family="sans-serif" font-size="13" lengthAdjust="spacing" textLength="7" x="267.1543" y="2125.4702">1</text></g><!--link PurchaseOrder to PurchaseOrderTBARepository--><g id="link_PurchaseOrder_PurchaseOrderTBARepository"><path
        d="M447.5261,1701.6211 C502.4861,1701.6211 580.2261,1701.6211 580.2261,1701.6211 C580.2261,1701.6211 580.2261,1973.1911 580.2261,1973.1911 " fill="none" id="PurchaseOrder-to-PurchaseOrderTBARepository" style="stroke:#181818;stroke-width:1.0;"/><polygon fill="#181818" points="580.2261,1978.1911,584.2261,1969.1911,580.2261,1973.1911,576.2261,1969.1911,580.2261,1978.1911" style="stroke:#181818;stroke-width:1.0;"/><polygon fill="#000000" points="364.4213,1766.189,363.0908,1756.7719,357.8097,1759.3525,364.4213,1766.189" style="stroke:#000000;stroke-width:1.0;"/><text fill="#000000" font-family="sans-serif" font-size="13" lengthAdjust="spacing" textLength="208" x="371.2261" y="1767.0794">wants to store the purchase order in</text></g><!--link Agent to PurchaseOrderTBARepository--><g id="link_Agent_PurchaseOrderTBARepository"><path
        d="M727.9761,1346.8611 C727.9761,1346.8611 727.9761,1973.3911 727.9761,1973.3911 " fill="none" id="Agent-to-PurchaseOrderTBARepository" style="stroke:#181818;stroke-width:1.0;"/><polygon fill="#181818" points="727.9761,1978.3911,731.9761,1969.3911,727.9761,1973.3911,723.9761,1969.3911,727.9761,1978.3911" style="stroke:#181818;stroke-width:1.0;"/><polygon fill="#000000" points="579.9761,1655.7666,582.9151,1646.7215,577.0372,1646.7215,579.9761,1655.7666" style="stroke:#000000;stroke-width:1.0;"/><text fill="#000000" font-family="sans-serif" font-size="13" lengthAdjust="spacing" textLength="138" x="588.9761" y="1656.1494">approves/declines offers</text></g><!--link LegacyFile to ImportedInformationRepository--><g id="link_LegacyFile_ImportedInformationRepository"><path
        d="M1080.2261,880.8011 C1080.2261,880.8011 1080.2261,1115.3811 1080.2261,1115.3811 " fill="none" id="LegacyFile-to-ImportedInformationRepository" style="stroke:#181818;stroke-width:1.0;"/><polygon fill="#181818" points="1080.2261,1120.3811,1084.2518,1111.3926,1080.2404,1115.3811,1076.2519,1111.3697,1080.2261,1120.3811" style="stroke:#181818;stroke-width:1.0;"/><polygon fill="#000000" points="974.2261,993.7366,977.1651,984.6915,971.2872,984.6915,974.2261,993.7366" style="stroke:#000000;stroke-width:1.0;"/><text fill="#000000" font-family="sans-serif" font-size="13" lengthAdjust="spacing" textLength="96" x="983.2261" y="994.1194">wants to store in</text><text fill="#000000" font-family="sans-serif" font-size="13" lengthAdjust="spacing" textLength="7" x="1072.4605" y="902.7491">1</text><text fill="#000000" font-family="sans-serif" font-size="13" lengthAdjust="spacing" textLength="7" x="1063.0918" y="1109.5061">1</text></g><!--link PurchaseOrderTBARepository to PurchaseOrderARepository--><g id="link_PurchaseOrderTBARepository_PurchaseOrderARepository"><path
        d="M730.2261,2015.8711 C730.2261,2015.8711 730.2261,2228.3411 730.2261,2228.3411 " fill="none" id="PurchaseOrderTBARepository-to-PurchaseOrderARepository" style="stroke:#181818;stroke-width:1.0;"/><polygon fill="#181818" points="730.2261,2233.3411,734.2261,2224.3411,730.2261,2228.3411,726.2261,2224.3411,730.2261,2233.3411" style="stroke:#181818;stroke-width:1.0;"/><polygon fill="#000000" points="578.2261,2117.7566,581.1651,2108.7115,575.2872,2108.7115,578.2261,2117.7566" style="stroke:#000000;stroke-width:1.0;"/><text fill="#000000" font-family="sans-serif" font-size="13" lengthAdjust="spacing" textLength="142" x="587.2261" y="2118.1394">sends accepted offers to</text></g><!--link PurchaseOrderTBARepository to System--><g id="link_PurchaseOrderTBARepository_System"><path
        d="M667.2261,2015.7011 C667.2261,2015.7011 667.2261,2447.4111 667.2261,2447.4111 " fill="none" id="PurchaseOrderTBARepository-to-System" style="stroke:#181818;stroke-width:1.0;"/><polygon fill="#181818" points="667.2261,2452.4111,671.2261,2443.4111,667.2261,2447.4111,663.2261,2443.4111,667.2261,2452.4111" style="stroke:#181818;stroke-width:1.0;"/><polygon fill="#000000" points="528.2261,2227.2066,531.1651,2218.1615,525.2872,2218.1615,528.2261,2227.2066" style="stroke:#000000;stroke-width:1.0;"/><text fill="#000000" font-family="sans-serif" font-size="13" lengthAdjust="spacing" textLength="129" x="537.2261" y="2227.5894">gets updated order list</text></g><!--link PurchaseOrderTBARepository to PurchaseOrderTBARepository--><g id="link_PurchaseOrderTBARepository_PurchaseOrderTBARepository"><path
        d="M576.7261,1978.5111 C576.7261,1964.8311 576.7261,1948.6211 576.7261,1948.6211 C576.7261,1948.6211 560.9761,1948.6211 560.9761,1948.6211 C560.9761,1948.6211 560.9761,2076.6211 560.9761,2076.6211 C560.9761,2076.6211 597.9761,2076.6211 597.9761,2076.6211 C597.9761,2076.6211 597.9761,2020.9611 597.9761,2020.9611 " fill="none" id="PurchaseOrderTBARepository-to-PurchaseOrderTBARepository" style="stroke:#181818;stroke-width:1.0;"/><polygon fill="#181818" points="597.9761,2015.9611,593.9761,2024.9611,597.9761,2020.9611,601.9761,2024.9611,597.9761,2015.9611" style="stroke:#181818;stroke-width:1.0;"/><polygon fill="#000000" points="354.9761,2021.7766,364.0212,2024.7155,364.0212,2018.8377,354.9761,2021.7766" style="stroke:#000000;stroke-width:1.0;"/><text fill="#000000" font-family="sans-serif" font-size="13" lengthAdjust="spacing" textLength="181" x="373.9761" y="2027.1594">deletes denied purchase orders</text></g><!--link System to Email--><g id="link_System_Email"><path
        d="M671.2261,2489.7811 C671.2261,2489.7811 671.2261,2666.5011 671.2261,2666.5011 " fill="none" id="System-to-Email" style="stroke:#181818;stroke-width:1.0;"/><polygon fill="#181818" points="671.2261,2671.5011,675.2261,2662.5011,671.2261,2666.5011,667.2261,2662.5011,671.2261,2671.5011" style="stroke:#181818;stroke-width:1.0;"/><polygon fill="#000000" points="379.2261,2573.7866,382.1651,2564.7415,376.2872,2564.7415,379.2261,2573.7866" style="stroke:#000000;stroke-width:1.0;"/><text fill="#000000" font-family="sans-serif" font-size="13" lengthAdjust="spacing" textLength="282" x="388.2261" y="2574.1694">sends an email to the user that created the order</text></g><!--link PurchaseOrderARepository to System--><g id="link_PurchaseOrderARepository_System"><path
        d="M693.2261,2270.7911 C693.2261,2270.7911 693.2261,2447.5011 693.2261,2447.5011 " fill="none" id="PurchaseOrderARepository-to-System" style="stroke:#181818;stroke-width:1.0;"/><polygon fill="#181818" points="693.2261,2452.5011,697.2261,2443.5011,693.2261,2447.5011,689.2261,2443.5011,693.2261,2452.5011" style="stroke:#181818;stroke-width:1.0;"/><polygon fill="#000000" points="497.2261,2354.7866,500.1651,2345.7415,494.2872,2345.7415,497.2261,2354.7866" style="stroke:#000000;stroke-width:1.0;"/><text fill="#000000" font-family="sans-serif" font-size="13" lengthAdjust="spacing" textLength="186" x="506.2261" y="2355.1694">gets updated accepted order list</text></g><!--SRC=[bLPBRziu4BxhLn0-6Z1skySYCE2cxJP06nj9jdUQ75j49P8bgRZkux_ly26Hakm6pS6XXiDlNjyCQRy8gQcXBMcLLAmsgWNYJ0UL7NOqPL_e4HxTkG5YW3agZqsfO6lArKd8u_GaQwYr6-UCs7SExfYIZ-8xa7_-BdGQ8S6TDH1bNAsgMd0WJ1Y65iAw1HHpMrLEEBJ_LhLKIF99SMYgAXWWEp1MIVAZ8lWdQGjXuUYt-wxTWmbVWCUQ3US6h8tRq82kbOIazAj7-y-2cMBDJclKF2d3yx4DXkDQa0xFPkaEVpH6TaiDJw0wYQPs7nI65rK43_yuM6Q4TaB9hBOzoU1VDdm4oSxZapJ8xg-wVpNudL4QZElXg06wFVJ2w9ImI006xv4gjnYkYIOuTR0zR1W37ROBuGDyxS2wREG9oxqzF1agBMK-kcZCPO7N239a9JXgpfzfWypARjRAgPHElxnxcrBhwYUrk_zt7f17J45XMiLHqd5QttIYuPx2KMSFt2ZLncpj4JP_OPsHlCT7R0k84lgCwQNx1jvzxOJs7CYu7rHd8M5I2s7JVpJg41Usa- - -QMKx0-EQkZ_du6TXXKlfddR3fE9zUUAcQE6nKMw2P1FK0w1_mYbpZjJkdOo-H4CMYG0n8YOAgXZ1Kfokj_PTw5jito9QALM7dF79AMqD2aDUYw3oPgiRTGRuCI_wtFzVlKPdM8trs1eEvkdDvh9Pd_54Y57sBw9CCIxfH2naH2m0BG8F0XM0MXGMjVW8HyhExyKm7Wwut24diyfTwoSAy3jvKAODr9vwqwU9h5O_rsbaJeH-ycNHpS_LAX8nonQl5gYwmcalrsInN9I-lIOdAfqbJX4Ht46ZQJQjbaELgYhCLmHluE3YD8kYXBtsYvB82BnWE8SSs4NKz4gNEOEw9fwokIk9ZdGGOF6smK4qW8ngWsSjDWdpHmjm_E2nBeJ6mbHLdC7eRATpBWUX1-x7w6ko9ibvukh1bNFINhmY2n9ZniLLsWOO2v9Rei8vaUkCxgJxR-dz2TT8bXXnhDte5ifxleg-n8dKYDDxZTKX7p7kB4dQet6QTylIlH35m16B8XZbf2zTYOjPkK4VFMwWueXbKdTkb8eo03pLp_GYjBbJXGsIZToaTDFmVSd69QGY2rVvkIQwsoCDQnZphAfcro89R5eE6QsguPRg-oTSBzZS_O0aGRmiGWzNvGme5PsCnODqcLuLg3WyQoBPC_2eHrFiAVWhjuVlv0lrV_RQVV4NQF9owZnuw5piqrgTKYzNunvUpTfwDDolKZ2TI8qkP1nT6FIBQ5GZVv_1_iM1-RSijkZXW2rMLSLi757ZjyCQCUSkUdz-uyPg7lNcul2WuNa6FBc81bw6VJnR1sq0EG8wrMd_REX7OgZ1dxasJo4-vS4FI0vI8FAu69Z8v4B4YfTo4PECTxFFbY-blrnnGLsQkpn80zGaYTTZdOIQqpR4_3y0]--></g></svg>