<?xml version="1.0" encoding="us-ascii" standalone="no"?><svg xmlns="http://www.w3.org/2000/svg" xmlns:xlink="http://www.w3.org/1999/xlink" contentStyleType="text/css" height="919.8px" preserveAspectRatio="none" style="width:770px;height:919px;background:#FFFFFF;" version="1.1" viewBox="0 0 770 919" width="770.4px" zoomAndPan="magnify"><defs/><g><!--class User--><g id="elem_User"><rect
        fill="#F1F1F1" height="129.3539" id="User" rx="1.5" ry="1.5" style="stroke:#181818;stroke-width:0.3;" width="153" x="387.9" y="4.2"/><ellipse cx="453.15" cy="13.8" fill="#ADD1B2" rx="6.6" ry="6.6" style="stroke:#181818;stroke-width:0.6;"/><path d="M454.8094,11.325 Q454.9031,11.1938 455.0156,11.1281 Q455.1281,11.0625 455.2594,11.0625 Q455.4844,11.0625 455.625,11.2219 Q455.7656,11.3719 455.7656,11.7375 L455.7656,12.6094 Q455.7656,12.975 455.625,13.1344 Q455.4844,13.2938 455.2594,13.2938 Q455.0531,13.2938 454.9313,13.1719 Q454.8094,13.0594 454.7438,12.75 Q454.7156,12.5344 454.6031,12.4219 Q454.4063,12.1969 454.0406,12.0656 Q453.675,11.9344 453.3,11.9344 Q452.8406,11.9344 452.4563,12.1313 Q452.0813,12.3281 451.7813,12.7781 Q451.4906,13.2281 451.4906,13.8469 L451.4906,14.5031 Q451.4906,15.2437 452.025,15.7406 Q452.5594,16.2281 453.5156,16.2281 Q454.0781,16.2281 454.4719,16.0781 Q454.7063,15.9844 454.9594,15.7219 Q455.1188,15.5625 455.2031,15.5156 Q455.2969,15.4688 455.4188,15.4688 Q455.6156,15.4688 455.7656,15.6281 Q455.925,15.7781 455.925,15.9844 Q455.925,16.1906 455.7188,16.4344 Q455.4188,16.7813 454.9406,16.9781 Q454.2938,17.25 453.5156,17.25 Q452.6063,17.25 451.8844,16.875 Q451.2938,16.575 450.8812,15.9375 Q450.4688,15.2906 450.4688,14.5219 L450.4688,13.8281 Q450.4688,13.0313 450.8344,12.3469 Q451.2094,11.6531 451.8656,11.2875 Q452.5219,10.9125 453.2625,10.9125 Q453.7031,10.9125 454.0875,11.0156 Q454.4813,11.1094 454.8094,11.325 Z " fill="#000000"/><text fill="#000000" font-family="sans-serif" font-size="8.4" lengthAdjust="spacing" textLength="17.4" x="465.45" y="17.2781">User</text><line style="stroke:#181818;stroke-width:0.3;" x1="388.5" x2="540.3" y1="23.4" y2="23.4"/><text fill="#000000" font-family="sans-serif" font-size="8.4" lengthAdjust="spacing" textLength="48.6" x="391.5" y="34.8645">-String name</text><text fill="#000000" font-family="sans-serif" font-size="8.4" lengthAdjust="spacing" textLength="78.6" x="391.5" y="46.0371">-String emailAddress</text><text fill="#000000" font-family="sans-serif" font-size="8.4" lengthAdjust="spacing" textLength="63.6" x="391.5" y="57.2098">-String password</text><text fill="#000000" font-family="sans-serif" font-size="8.4" lengthAdjust="spacing" textLength="94.8" x="391.5" y="68.3824">-String telephoneNumber</text><line style="stroke:#181818;stroke-width:0.6;" x1="388.5" x2="540.3" y1="72.8906" y2="72.8906"/><text fill="#000000" font-family="sans-serif" font-size="8.4" lengthAdjust="spacing" textLength="145.8" x="391.5" y="84.3551">+User(name, emailAddress, password)</text><text fill="#000000" font-family="sans-serif" font-size="8.4" lengthAdjust="spacing" textLength="38.4" x="391.5" y="95.5277">+getName</text><text fill="#000000" font-family="sans-serif" font-size="8.4" lengthAdjust="spacing" textLength="68.4" x="391.5" y="106.7004">+getEmailAddress</text><text fill="#000000" font-family="sans-serif" font-size="8.4" lengthAdjust="spacing" textLength="53.4" x="391.5" y="117.873">+getPassword</text><text fill="#000000" font-family="sans-serif" font-size="8.4" lengthAdjust="spacing" textLength="87" x="391.5" y="129.0457">+getTelephoneNumber</text></g><!--class AnnouncementRepository--><g id="elem_AnnouncementRepository"><rect
        fill="#F1F1F1" height="51.1453" id="AnnouncementRepository" rx="1.5" ry="1.5" style="stroke:#181818;stroke-width:0.3;" width="153.6" x="403.8" y="727.5"/><ellipse cx="429.27" cy="737.1" fill="#ADD1B2" rx="6.6" ry="6.6" style="stroke:#181818;stroke-width:0.6;"/><path d="M430.9294,734.625 Q431.0231,734.4938 431.1356,734.4281 Q431.2481,734.3625 431.3794,734.3625 Q431.6044,734.3625 431.745,734.5219 Q431.8856,734.6719 431.8856,735.0375 L431.8856,735.9094 Q431.8856,736.275 431.745,736.4344 Q431.6044,736.5938 431.3794,736.5938 Q431.1731,736.5938 431.0513,736.4719 Q430.9294,736.3594 430.8638,736.05 Q430.8356,735.8344 430.7231,735.7219 Q430.5263,735.4969 430.1606,735.3656 Q429.795,735.2344 429.42,735.2344 Q428.9606,735.2344 428.5763,735.4313 Q428.2013,735.6281 427.9013,736.0781 Q427.6106,736.5281 427.6106,737.1469 L427.6106,737.8031 Q427.6106,738.5437 428.145,739.0406 Q428.6794,739.5281 429.6356,739.5281 Q430.1981,739.5281 430.5919,739.3781 Q430.8263,739.2844 431.0794,739.0219 Q431.2388,738.8625 431.3231,738.8156 Q431.4169,738.7688 431.5388,738.7688 Q431.7356,738.7688 431.8856,738.9281 Q432.045,739.0781 432.045,739.2844 Q432.045,739.4906 431.8388,739.7344 Q431.5388,740.0813 431.0606,740.2781 Q430.4138,740.55 429.6356,740.55 Q428.7263,740.55 428.0044,740.175 Q427.4138,739.875 427.0013,739.2375 Q426.5888,738.5906 426.5888,737.8219 L426.5888,737.1281 Q426.5888,736.3313 426.9544,735.6469 Q427.3294,734.9531 427.9856,734.5875 Q428.6419,734.2125 429.3825,734.2125 Q429.8231,734.2125 430.2075,734.3156 Q430.6013,734.4094 430.9294,734.625 Z " fill="#000000"/><text fill="#000000" font-family="sans-serif" font-size="8.4" lengthAdjust="spacing" textLength="97.8" x="441.33" y="740.5781">AnnouncementRepository</text><line style="stroke:#181818;stroke-width:0.3;" x1="404.4" x2="556.8" y1="746.7" y2="746.7"/><line style="stroke:#181818;stroke-width:0.3;" x1="404.4" x2="556.8" y1="751.5" y2="751.5"/><text fill="#000000" font-family="sans-serif" font-size="8.4" lengthAdjust="spacing" textLength="79.8" x="407.4" y="762.9645">+getAnnouncement()</text><text fill="#000000" font-family="sans-serif" font-size="8.4" lengthAdjust="spacing" textLength="146.4" x="407.4" y="774.1371">+addPropertyAnnouncement(property)</text></g><!--class VisitRequestsRepository--><g id="elem_VisitsRepository"><rect
        fill="#F1F1F1" height="73.4906" id="VisitsRepository" rx="1.5" ry="1.5" style="stroke:#181818;stroke-width:0.3;" width="126" x="590.4" y="716.4"/><ellipse cx="620.55" cy="726" fill="#ADD1B2" rx="6.6" ry="6.6" style="stroke:#181818;stroke-width:0.6;"/><path d="M622.2094,723.525 Q622.3031,723.3938 622.4156,723.3281 Q622.5281,723.2625 622.6594,723.2625 Q622.8844,723.2625 623.025,723.4219 Q623.1656,723.5719 623.1656,723.9375 L623.1656,724.8094 Q623.1656,725.175 623.025,725.3344 Q622.8844,725.4938 622.6594,725.4938 Q622.4531,725.4938 622.3313,725.3719 Q622.2094,725.2594 622.1438,724.95 Q622.1156,724.7344 622.0031,724.6219 Q621.8063,724.3969 621.4406,724.2656 Q621.075,724.1344 620.7,724.1344 Q620.2406,724.1344 619.8562,724.3313 Q619.4812,724.5281 619.1813,724.9781 Q618.8906,725.4281 618.8906,726.0469 L618.8906,726.7031 Q618.8906,727.4438 619.425,727.9406 Q619.9594,728.4281 620.9156,728.4281 Q621.4781,728.4281 621.8719,728.2781 Q622.1062,728.1844 622.3594,727.9219 Q622.5188,727.7625 622.6031,727.7156 Q622.6969,727.6687 622.8188,727.6687 Q623.0156,727.6687 623.1656,727.8281 Q623.325,727.9781 623.325,728.1844 Q623.325,728.3906 623.1188,728.6344 Q622.8188,728.9812 622.3406,729.1781 Q621.6938,729.45 620.9156,729.45 Q620.0063,729.45 619.2844,729.075 Q618.6938,728.775 618.2813,728.1375 Q617.8688,727.4906 617.8688,726.7219 L617.8688,726.0281 Q617.8688,725.2312 618.2344,724.5469 Q618.6094,723.8531 619.2656,723.4875 Q619.9219,723.1125 620.6625,723.1125 Q621.1031,723.1125 621.4875,723.2156 Q621.8813,723.3094 622.2094,723.525 Z " fill="#000000"/><text fill="#000000" font-family="sans-serif" font-size="8.4" lengthAdjust="spacing" textLength="60.6" x="632.85" y="729.4781">VisitsRepository</text><line style="stroke:#181818;stroke-width:0.3;" x1="591" x2="715.8" y1="735.6" y2="735.6"/><line style="stroke:#181818;stroke-width:0.3;" x1="591" x2="715.8" y1="740.4" y2="740.4"/><text fill="#000000" font-family="sans-serif" font-size="8.4" lengthAdjust="spacing" textLength="69.6" x="594" y="751.8645">-VisitsRepository()</text><text fill="#000000" font-family="sans-serif" font-size="8.4" lengthAdjust="spacing" textLength="54.6" x="594" y="763.0371">+getInstance()</text><text fill="#000000" font-family="sans-serif" font-size="8.4" lengthAdjust="spacing" textLength="115.2" x="594" y="774.2098">+getVisitsRequestRepository()</text><text fill="#000000" font-family="sans-serif" font-size="8.4" lengthAdjust="spacing" textLength="118.8" x="594" y="785.3824">+getVisitsAcceptedRepository()</text></g><polygon fill="none" points="634.7048,789.8906,633.0066,802.4905,625.5199,798.6814" style="stroke:#181818;stroke-width:0.6;"/><line style="stroke:#181818;stroke-width:0.6;" x1="629.2633" x2="631.8" y1="800.5859" y2="795.6"/><polygon fill="none" points="653.4,789.8906,657.6,801.8906,649.2,801.8906" style="stroke:#181818;stroke-width:0.6;"/><line style="stroke:#181818;stroke-width:0.6;" x1="653.4" x2="653.4" y1="801.8906" y2="801.6"/><line style="stroke:#181818;stroke-width:0.6;" x1="609.1938" x2="594.75" y1="716.4" y2="704.394"/><!--class VisitRequestsRepository--><g id="elem_VisitsRequestRepository"><rect
        fill="#F1F1F1" height="51.1453" id="VisitsRequestRepository" rx="1.5" ry="1.5" style="stroke:#181818;stroke-width:0.3;" width="126" x="441.6" y="859.5"/><ellipse cx="457.08" cy="869.1" fill="#ADD1B2" rx="6.6" ry="6.6" style="stroke:#181818;stroke-width:0.6;"/><path d="M458.7394,866.625 Q458.8331,866.4938 458.9456,866.4281 Q459.0581,866.3625 459.1894,866.3625 Q459.4144,866.3625 459.555,866.5219 Q459.6956,866.6719 459.6956,867.0375 L459.6956,867.9094 Q459.6956,868.275 459.555,868.4344 Q459.4144,868.5938 459.1894,868.5938 Q458.9831,868.5938 458.8613,868.4719 Q458.7394,868.3594 458.6738,868.05 Q458.6456,867.8344 458.5331,867.7219 Q458.3362,867.4969 457.9706,867.3656 Q457.605,867.2344 457.23,867.2344 Q456.7706,867.2344 456.3862,867.4313 Q456.0112,867.6281 455.7112,868.0781 Q455.4206,868.5281 455.4206,869.1469 L455.4206,869.8031 Q455.4206,870.5437 455.955,871.0406 Q456.4894,871.5281 457.4456,871.5281 Q458.0081,871.5281 458.4019,871.3781 Q458.6362,871.2844 458.8894,871.0219 Q459.0488,870.8625 459.1331,870.8156 Q459.2269,870.7688 459.3487,870.7688 Q459.5456,870.7688 459.6956,870.9281 Q459.855,871.0781 459.855,871.2844 Q459.855,871.4906 459.6487,871.7344 Q459.3487,872.0813 458.8706,872.2781 Q458.2237,872.55 457.4456,872.55 Q456.5362,872.55 455.8144,872.175 Q455.2237,871.875 454.8113,871.2375 Q454.3987,870.5906 454.3987,869.8219 L454.3987,869.1281 Q454.3987,868.3313 454.7644,867.6469 Q455.1394,866.9531 455.7956,866.5875 Q456.4519,866.2125 457.1925,866.2125 Q457.6331,866.2125 458.0175,866.3156 Q458.4112,866.4094 458.7394,866.625 Z " fill="#000000"/><text fill="#000000" font-family="sans-serif" font-size="8.4" lengthAdjust="spacing" textLength="92.4" x="466.92" y="872.5781">VisitsRequestRepository</text><line style="stroke:#181818;stroke-width:0.3;" x1="442.2" x2="567" y1="878.7" y2="878.7"/><line style="stroke:#181818;stroke-width:0.3;" x1="442.2" x2="567" y1="883.5" y2="883.5"/><text fill="#000000" font-family="sans-serif" font-size="8.4" lengthAdjust="spacing" textLength="70.2" x="445.2" y="894.9645">+getVisitRequest()</text><text fill="#000000" font-family="sans-serif" font-size="8.4" lengthAdjust="spacing" textLength="118.8" x="445.2" y="906.1371">+addVisitRequest(visitRequest)</text></g><!--class VisitsAcceptedRepository--><g id="elem_VisitsAcceptedRepository"><rect
        fill="#F1F1F1" height="51.1453" id="VisitsAcceptedRepository" rx="1.5" ry="1.5" style="stroke:#181818;stroke-width:0.3;" width="129.6" x="588.6" y="859.5"/><ellipse cx="604.08" cy="869.1" fill="#ADD1B2" rx="6.6" ry="6.6" style="stroke:#181818;stroke-width:0.6;"/><path d="M605.7394,866.625 Q605.8331,866.4938 605.9456,866.4281 Q606.0581,866.3625 606.1894,866.3625 Q606.4144,866.3625 606.555,866.5219 Q606.6956,866.6719 606.6956,867.0375 L606.6956,867.9094 Q606.6956,868.275 606.555,868.4344 Q606.4144,868.5938 606.1894,868.5938 Q605.9831,868.5938 605.8612,868.4719 Q605.7394,868.3594 605.6737,868.05 Q605.6456,867.8344 605.5331,867.7219 Q605.3363,867.4969 604.9706,867.3656 Q604.605,867.2344 604.23,867.2344 Q603.7706,867.2344 603.3862,867.4313 Q603.0112,867.6281 602.7113,868.0781 Q602.4206,868.5281 602.4206,869.1469 L602.4206,869.8031 Q602.4206,870.5437 602.955,871.0406 Q603.4894,871.5281 604.4456,871.5281 Q605.0081,871.5281 605.4019,871.3781 Q605.6362,871.2844 605.8894,871.0219 Q606.0487,870.8625 606.1331,870.8156 Q606.2269,870.7688 606.3488,870.7688 Q606.5456,870.7688 606.6956,870.9281 Q606.855,871.0781 606.855,871.2844 Q606.855,871.4906 606.6488,871.7344 Q606.3488,872.0813 605.8706,872.2781 Q605.2238,872.55 604.4456,872.55 Q603.5363,872.55 602.8144,872.175 Q602.2238,871.875 601.8113,871.2375 Q601.3988,870.5906 601.3988,869.8219 L601.3988,869.1281 Q601.3988,868.3313 601.7644,867.6469 Q602.1394,866.9531 602.7956,866.5875 Q603.4519,866.2125 604.1925,866.2125 Q604.6331,866.2125 605.0175,866.3156 Q605.4113,866.4094 605.7394,866.625 Z " fill="#000000"/><text fill="#000000" font-family="sans-serif" font-size="8.4" lengthAdjust="spacing" textLength="96" x="613.92" y="872.5781">VisitsAcceptedRepository</text><line style="stroke:#181818;stroke-width:0.3;" x1="589.2" x2="717.6" y1="878.7" y2="878.7"/><line style="stroke:#181818;stroke-width:0.3;" x1="589.2" x2="717.6" y1="883.5" y2="883.5"/><text fill="#000000" font-family="sans-serif" font-size="8.4" lengthAdjust="spacing" textLength="73.8" x="592.2" y="894.9645">+getVisitAccepted()</text><text fill="#000000" font-family="sans-serif" font-size="8.4" lengthAdjust="spacing" textLength="122.4" x="592.2" y="906.1371">+addVisitAccepted(visitRequest)</text></g><!--class VisitRequest--><g id="elem_VisitRequest"><rect
        fill="#F1F1F1" height="73.4906" id="VisitRequest" rx="1.5" ry="1.5" style="stroke:#181818;stroke-width:0.3;" width="76.8" x="306" y="716.4"/><ellipse cx="319.59" cy="726" fill="#ADD1B2" rx="6.6" ry="6.6" style="stroke:#181818;stroke-width:0.6;"/><path d="M321.2494,723.525 Q321.3431,723.3938 321.4556,723.3281 Q321.5681,723.2625 321.6994,723.2625 Q321.9244,723.2625 322.065,723.4219 Q322.2056,723.5719 322.2056,723.9375 L322.2056,724.8094 Q322.2056,725.175 322.065,725.3344 Q321.9244,725.4938 321.6994,725.4938 Q321.4931,725.4938 321.3713,725.3719 Q321.2494,725.2594 321.1838,724.95 Q321.1556,724.7344 321.0431,724.6219 Q320.8463,724.3969 320.4806,724.2656 Q320.115,724.1344 319.74,724.1344 Q319.2806,724.1344 318.8962,724.3313 Q318.5212,724.5281 318.2213,724.9781 Q317.9306,725.4281 317.9306,726.0469 L317.9306,726.7031 Q317.9306,727.4438 318.465,727.9406 Q318.9994,728.4281 319.9556,728.4281 Q320.5181,728.4281 320.9119,728.2781 Q321.1462,728.1844 321.3994,727.9219 Q321.5588,727.7625 321.6431,727.7156 Q321.7369,727.6687 321.8588,727.6687 Q322.0556,727.6687 322.2056,727.8281 Q322.365,727.9781 322.365,728.1844 Q322.365,728.3906 322.1588,728.6344 Q321.8588,728.9812 321.3806,729.1781 Q320.7338,729.45 319.9556,729.45 Q319.0463,729.45 318.3244,729.075 Q317.7338,728.775 317.3212,728.1375 Q316.9088,727.4906 316.9088,726.7219 L316.9088,726.0281 Q316.9088,725.2312 317.2744,724.5469 Q317.6494,723.8531 318.3056,723.4875 Q318.9619,723.1125 319.7025,723.1125 Q320.1431,723.1125 320.5275,723.2156 Q320.9213,723.3094 321.2494,723.525 Z " fill="#000000"/><text fill="#000000" font-family="sans-serif" font-size="8.4" lengthAdjust="spacing" textLength="47.4" x="329.01" y="729.4781">VisitRequest</text><line style="stroke:#181818;stroke-width:0.3;" x1="306.6" x2="382.2" y1="735.6" y2="735.6"/><text fill="#000000" font-family="sans-serif" font-size="8.4" lengthAdjust="spacing" textLength="39.6" x="309.6" y="747.0645">-User user</text><text fill="#000000" font-family="sans-serif" font-size="8.4" lengthAdjust="spacing" textLength="69.6" x="309.6" y="758.2371">-Property property</text><text fill="#000000" font-family="sans-serif" font-size="8.4" lengthAdjust="spacing" textLength="44.4" x="309.6" y="769.4098">-String date</text><text fill="#000000" font-family="sans-serif" font-size="8.4" lengthAdjust="spacing" textLength="67.8" x="309.6" y="780.5824">-String timeFrame</text><line style="stroke:#181818;stroke-width:0.3;" x1="306.6" x2="382.2" y1="785.0906" y2="785.0906"/></g><!--class Property--><g id="elem_Property"><rect
        fill="#F1F1F1" height="174.0445" id="Property" rx="1.5" ry="1.5" style="stroke:#181818;stroke-width:0.3;" width="117" x="95.7" y="478.2"/><ellipse cx="135.45" cy="487.8" fill="#ADD1B2" rx="6.6" ry="6.6" style="stroke:#181818;stroke-width:0.6;"/><path d="M137.1094,485.325 Q137.2031,485.1937 137.3156,485.1281 Q137.4281,485.0625 137.5594,485.0625 Q137.7844,485.0625 137.925,485.2219 Q138.0656,485.3719 138.0656,485.7375 L138.0656,486.6094 Q138.0656,486.975 137.925,487.1344 Q137.7844,487.2938 137.5594,487.2938 Q137.3531,487.2938 137.2313,487.1719 Q137.1094,487.0594 137.0438,486.75 Q137.0156,486.5344 136.9031,486.4219 Q136.7062,486.1969 136.3406,486.0656 Q135.975,485.9344 135.6,485.9344 Q135.1406,485.9344 134.7563,486.1312 Q134.3813,486.3281 134.0812,486.7781 Q133.7906,487.2281 133.7906,487.8469 L133.7906,488.5031 Q133.7906,489.2438 134.325,489.7406 Q134.8594,490.2281 135.8156,490.2281 Q136.3781,490.2281 136.7719,490.0781 Q137.0063,489.9844 137.2594,489.7219 Q137.4188,489.5625 137.5031,489.5156 Q137.5969,489.4688 137.7188,489.4688 Q137.9156,489.4688 138.0656,489.6281 Q138.225,489.7781 138.225,489.9844 Q138.225,490.1906 138.0187,490.4344 Q137.7188,490.7813 137.2406,490.9781 Q136.5938,491.25 135.8156,491.25 Q134.9063,491.25 134.1844,490.875 Q133.5938,490.575 133.1813,489.9375 Q132.7687,489.2906 132.7687,488.5219 L132.7687,487.8281 Q132.7687,487.0313 133.1344,486.3469 Q133.5094,485.6531 134.1656,485.2875 Q134.8219,484.9125 135.5625,484.9125 Q136.0031,484.9125 136.3875,485.0156 Q136.7813,485.1094 137.1094,485.325 Z " fill="#000000"/><text fill="#000000" font-family="sans-serif" font-size="8.4" lengthAdjust="spacing" textLength="32.4" x="147.75" y="491.2781">Property</text><line style="stroke:#181818;stroke-width:0.3;" x1="96.3" x2="212.1" y1="497.4" y2="497.4"/><text fill="#000000" font-family="sans-serif" font-size="8.4" lengthAdjust="spacing" textLength="91.2" x="99.3" y="508.8645">-Double areaOfProperty</text><text fill="#000000" font-family="sans-serif" font-size="8.4" lengthAdjust="spacing" textLength="109.8" x="99.3" y="520.0371">-Double distanceFromCentre</text><text fill="#000000" font-family="sans-serif" font-size="8.4" lengthAdjust="spacing" textLength="89.4" x="99.3" y="531.2098">-String acceptanceDate</text><text fill="#000000" font-family="sans-serif" font-size="8.4" lengthAdjust="spacing" textLength="74.4" x="99.3" y="542.3824">-String requestDate</text><text fill="#000000" font-family="sans-serif" font-size="8.4" lengthAdjust="spacing" textLength="2.4" x="99.3" y="553.5551">&#160;</text><text fill="#000000" font-family="sans-serif" font-size="8.4" lengthAdjust="spacing" textLength="79.2" x="99.3" y="564.7277">+getAcceptanceDate</text><line style="stroke:#181818;stroke-width:0.3;" x1="96.3" x2="212.1" y1="569.2359" y2="569.2359"/><text fill="#000000" font-family="sans-serif" font-size="8.4" lengthAdjust="spacing" textLength="79.8" x="99.3" y="580.7004">-setAreaOfProperty()</text><text fill="#000000" font-family="sans-serif" font-size="8.4" lengthAdjust="spacing" textLength="99" x="99.3" y="591.873">-setDistanceFromCentre()</text><text fill="#000000" font-family="sans-serif" font-size="8.4" lengthAdjust="spacing" textLength="70.2" x="99.3" y="603.0457">-setRequestDate()</text><text fill="#000000" font-family="sans-serif" font-size="8.4" lengthAdjust="spacing" textLength="82.8" x="99.3" y="614.2184">-setAcceptanceDate()</text><text fill="#000000" font-family="sans-serif" font-size="8.4" lengthAdjust="spacing" textLength="72.6" x="99.3" y="625.391">+getRequestDate()</text><text fill="#000000" font-family="sans-serif" font-size="8.4" lengthAdjust="spacing" textLength="82.2" x="99.3" y="636.5637">+getAreaOfProperty()</text><text fill="#000000" font-family="sans-serif" font-size="8.4" lengthAdjust="spacing" textLength="101.4" x="99.3" y="647.7363">+getDistanceFromCentre()</text></g><!--class UserID--><g id="elem_UserID"><rect
        fill="#F1F1F1" height="28.8" id="UserID" rx="1.5" ry="1.5" style="stroke:#181818;stroke-width:0.3;" width="44.4" x="562.2" y="54.6"/><ellipse cx="571.2" cy="64.2" fill="#ADD1B2" rx="6.6" ry="6.6" style="stroke:#181818;stroke-width:0.6;"/><path d="M572.8594,61.725 Q572.9531,61.5938 573.0656,61.5281 Q573.1781,61.4625 573.3094,61.4625 Q573.5344,61.4625 573.675,61.6219 Q573.8156,61.7719 573.8156,62.1375 L573.8156,63.0094 Q573.8156,63.375 573.675,63.5344 Q573.5344,63.6937 573.3094,63.6937 Q573.1031,63.6937 572.9812,63.5719 Q572.8594,63.4594 572.7937,63.15 Q572.7656,62.9344 572.6531,62.8219 Q572.4563,62.5969 572.0906,62.4656 Q571.725,62.3344 571.35,62.3344 Q570.8906,62.3344 570.5063,62.5313 Q570.1313,62.7281 569.8313,63.1781 Q569.5406,63.6281 569.5406,64.2469 L569.5406,64.9031 Q569.5406,65.6438 570.075,66.1406 Q570.6094,66.6281 571.5656,66.6281 Q572.1281,66.6281 572.5219,66.4781 Q572.7563,66.3844 573.0094,66.1219 Q573.1687,65.9625 573.2531,65.9156 Q573.3469,65.8687 573.4688,65.8687 Q573.6656,65.8687 573.8156,66.0281 Q573.975,66.1781 573.975,66.3844 Q573.975,66.5906 573.7688,66.8344 Q573.4688,67.1812 572.9906,67.3781 Q572.3438,67.65 571.5656,67.65 Q570.6563,67.65 569.9344,67.275 Q569.3438,66.975 568.9313,66.3375 Q568.5188,65.6906 568.5188,64.9219 L568.5188,64.2281 Q568.5188,63.4313 568.8844,62.7469 Q569.2594,62.0531 569.9156,61.6875 Q570.5719,61.3125 571.3125,61.3125 Q571.7531,61.3125 572.1375,61.4156 Q572.5313,61.5094 572.8594,61.725 Z " fill="#000000"/><text fill="#000000" font-family="sans-serif" font-size="8.4" lengthAdjust="spacing" textLength="25.2" x="579.6" y="67.6781">UserID</text><line style="stroke:#181818;stroke-width:0.3;" x1="562.8" x2="606" y1="73.8" y2="73.8"/><line style="stroke:#181818;stroke-width:0.3;" x1="562.8" x2="606" y1="78.6" y2="78.6"/></g><!--class TypeOfTransaction--><g id="elem_TypeOfTransaction"><rect
        fill="#F1F1F1" height="95.8359" id="TypeOfTransaction" rx="1.5" ry="1.5" style="stroke:#181818;stroke-width:0.3;" width="96" x="4.2" y="296.1"/><ellipse cx="14.82" cy="305.7" fill="#ADD1B2" rx="6.6" ry="6.6" style="stroke:#181818;stroke-width:0.6;"/><path d="M16.4794,303.225 Q16.5731,303.0938 16.6856,303.0281 Q16.7981,302.9625 16.9294,302.9625 Q17.1544,302.9625 17.295,303.1219 Q17.4356,303.2719 17.4356,303.6375 L17.4356,304.5094 Q17.4356,304.875 17.295,305.0344 Q17.1544,305.1937 16.9294,305.1937 Q16.7231,305.1937 16.6013,305.0719 Q16.4794,304.9594 16.4138,304.65 Q16.3856,304.4344 16.2731,304.3219 Q16.0762,304.0969 15.7106,303.9656 Q15.345,303.8344 14.97,303.8344 Q14.5106,303.8344 14.1262,304.0313 Q13.7512,304.2281 13.4513,304.6781 Q13.1606,305.1281 13.1606,305.7469 L13.1606,306.4031 Q13.1606,307.1438 13.695,307.6406 Q14.2294,308.1281 15.1856,308.1281 Q15.7481,308.1281 16.1419,307.9781 Q16.3763,307.8844 16.6294,307.6219 Q16.7888,307.4625 16.8731,307.4156 Q16.9669,307.3688 17.0887,307.3688 Q17.2856,307.3688 17.4356,307.5281 Q17.595,307.6781 17.595,307.8844 Q17.595,308.0906 17.3887,308.3344 Q17.0887,308.6813 16.6106,308.8781 Q15.9638,309.15 15.1856,309.15 Q14.2763,309.15 13.5544,308.775 Q12.9638,308.475 12.5513,307.8375 Q12.1388,307.1906 12.1388,306.4219 L12.1388,305.7281 Q12.1388,304.9313 12.5044,304.2469 Q12.8794,303.5531 13.5356,303.1875 Q14.1919,302.8125 14.9325,302.8125 Q15.3731,302.8125 15.7575,302.9156 Q16.1512,303.0094 16.4794,303.225 Z " fill="#000000"/><text fill="#000000" font-family="sans-serif" font-size="8.4" lengthAdjust="spacing" textLength="73.2" x="23.58" y="309.1781">TypeOfTransaction</text><line style="stroke:#181818;stroke-width:0.3;" x1="4.8" x2="99.6" y1="315.3" y2="315.3"/><text fill="#000000" font-family="sans-serif" font-size="8.4" lengthAdjust="spacing" textLength="88.8" x="7.8" y="326.7645">-String transactionType</text><text fill="#000000" font-family="sans-serif" font-size="8.4" lengthAdjust="spacing" textLength="84.6" x="7.8" y="337.9371">-String monetaryValue</text><line style="stroke:#181818;stroke-width:0.3;" x1="4.8" x2="99.6" y1="342.4453" y2="342.4453"/><text fill="#000000" font-family="sans-serif" font-size="8.4" lengthAdjust="spacing" textLength="84.6" x="7.8" y="353.9098">-setTransactionType()</text><text fill="#000000" font-family="sans-serif" font-size="8.4" lengthAdjust="spacing" textLength="77.4" x="7.8" y="365.0824">-setMonetaryValue()</text><text fill="#000000" font-family="sans-serif" font-size="8.4" lengthAdjust="spacing" textLength="87" x="7.8" y="376.2551">+getTransactionType()</text><text fill="#000000" font-family="sans-serif" font-size="8.4" lengthAdjust="spacing" textLength="79.8" x="7.8" y="387.4277">+getMonetaryValue()</text></g><!--class Address--><g id="elem_Address"><rect
        fill="#F1F1F1" height="196.3898" id="Address" rx="1.5" ry="1.5" style="stroke:#181818;stroke-width:0.3;" width="65.4" x="121.5" y="246"/><ellipse cx="137.25" cy="255.6" fill="#ADD1B2" rx="6.6" ry="6.6" style="stroke:#181818;stroke-width:0.6;"/><path d="M138.9094,253.125 Q139.0031,252.9937 139.1156,252.9281 Q139.2281,252.8625 139.3594,252.8625 Q139.5844,252.8625 139.725,253.0219 Q139.8656,253.1719 139.8656,253.5375 L139.8656,254.4094 Q139.8656,254.775 139.725,254.9344 Q139.5844,255.0938 139.3594,255.0938 Q139.1531,255.0938 139.0313,254.9719 Q138.9094,254.8594 138.8438,254.55 Q138.8156,254.3344 138.7031,254.2219 Q138.5063,253.9969 138.1406,253.8656 Q137.775,253.7344 137.4,253.7344 Q136.9406,253.7344 136.5563,253.9312 Q136.1813,254.1281 135.8813,254.5781 Q135.5906,255.0281 135.5906,255.6469 L135.5906,256.3031 Q135.5906,257.0438 136.125,257.5406 Q136.6594,258.0281 137.6156,258.0281 Q138.1781,258.0281 138.5719,257.8781 Q138.8063,257.7844 139.0594,257.5219 Q139.2188,257.3625 139.3031,257.3156 Q139.3969,257.2688 139.5187,257.2688 Q139.7156,257.2688 139.8656,257.4281 Q140.025,257.5781 140.025,257.7844 Q140.025,257.9906 139.8188,258.2344 Q139.5187,258.5813 139.0406,258.7781 Q138.3937,259.05 137.6156,259.05 Q136.7062,259.05 135.9844,258.675 Q135.3937,258.375 134.9813,257.7375 Q134.5688,257.0906 134.5688,256.3219 L134.5688,255.6281 Q134.5688,254.8312 134.9344,254.1469 Q135.3094,253.4531 135.9656,253.0875 Q136.6219,252.7125 137.3625,252.7125 Q137.8031,252.7125 138.1875,252.8156 Q138.5812,252.9094 138.9094,253.125 Z " fill="#000000"/><text fill="#000000" font-family="sans-serif" font-size="8.4" lengthAdjust="spacing" textLength="31.2" x="147.15" y="259.0781">Address</text><line style="stroke:#181818;stroke-width:0.3;" x1="122.1" x2="186.3" y1="265.2" y2="265.2"/><text fill="#000000" font-family="sans-serif" font-size="8.4" lengthAdjust="spacing" textLength="49.2" x="125.1" y="276.6645">-String street</text><text fill="#000000" font-family="sans-serif" font-size="8.4" lengthAdjust="spacing" textLength="40.2" x="125.1" y="287.8371">-String city</text><text fill="#000000" font-family="sans-serif" font-size="8.4" lengthAdjust="spacing" textLength="52.2" x="125.1" y="299.0098">-String district</text><text fill="#000000" font-family="sans-serif" font-size="8.4" lengthAdjust="spacing" textLength="46.2" x="125.1" y="310.1824">-String state</text><text fill="#000000" font-family="sans-serif" font-size="8.4" lengthAdjust="spacing" textLength="58.2" x="125.1" y="321.3551">-String zipCode</text><line style="stroke:#181818;stroke-width:0.3;" x1="122.1" x2="186.3" y1="325.8633" y2="325.8633"/><text fill="#000000" font-family="sans-serif" font-size="8.4" lengthAdjust="spacing" textLength="43.2" x="125.1" y="337.3277">-setStreet()</text><text fill="#000000" font-family="sans-serif" font-size="8.4" lengthAdjust="spacing" textLength="34.8" x="125.1" y="348.5004">-setCity()</text><text fill="#000000" font-family="sans-serif" font-size="8.4" lengthAdjust="spacing" textLength="46.2" x="125.1" y="359.673">-setDistrict()</text><text fill="#000000" font-family="sans-serif" font-size="8.4" lengthAdjust="spacing" textLength="40.2" x="125.1" y="370.8457">-setState()</text><text fill="#000000" font-family="sans-serif" font-size="8.4" lengthAdjust="spacing" textLength="52.2" x="125.1" y="382.0184">-setZipCode()</text><text fill="#000000" font-family="sans-serif" font-size="8.4" lengthAdjust="spacing" textLength="45.6" x="125.1" y="393.191">+getStreet()</text><text fill="#000000" font-family="sans-serif" font-size="8.4" lengthAdjust="spacing" textLength="37.2" x="125.1" y="404.3637">+getCity()</text><text fill="#000000" font-family="sans-serif" font-size="8.4" lengthAdjust="spacing" textLength="48.6" x="125.1" y="415.5363">+getDistrict()</text><text fill="#000000" font-family="sans-serif" font-size="8.4" lengthAdjust="spacing" textLength="42.6" x="125.1" y="426.709">+getState()</text><text fill="#000000" font-family="sans-serif" font-size="8.4" lengthAdjust="spacing" textLength="54.6" x="125.1" y="437.8816">+getZipCode()</text></g><!--class PropertyTypeRepository--><g id="elem_PropertyTypeRepository"><rect
        fill="#F1F1F1" height="51.1453" id="PropertyTypeRepository" rx="1.5" ry="1.5" style="stroke:#181818;stroke-width:0.3;" width="111.6" x="234" y="539.7"/><ellipse cx="243" cy="549.3" fill="#ADD1B2" rx="6.6" ry="6.6" style="stroke:#181818;stroke-width:0.6;"/><path d="M244.6594,546.825 Q244.7531,546.6938 244.8656,546.6281 Q244.9781,546.5625 245.1094,546.5625 Q245.3344,546.5625 245.475,546.7219 Q245.6156,546.8719 245.6156,547.2375 L245.6156,548.1094 Q245.6156,548.475 245.475,548.6344 Q245.3344,548.7937 245.1094,548.7937 Q244.9031,548.7937 244.7813,548.6719 Q244.6594,548.5594 244.5938,548.25 Q244.5656,548.0344 244.4531,547.9219 Q244.2563,547.6969 243.8906,547.5656 Q243.525,547.4344 243.15,547.4344 Q242.6906,547.4344 242.3062,547.6313 Q241.9312,547.8281 241.6313,548.2781 Q241.3406,548.7281 241.3406,549.3469 L241.3406,550.0031 Q241.3406,550.7438 241.875,551.2406 Q242.4094,551.7281 243.3656,551.7281 Q243.9281,551.7281 244.3219,551.5781 Q244.5562,551.4844 244.8094,551.2219 Q244.9688,551.0625 245.0531,551.0156 Q245.1469,550.9688 245.2687,550.9688 Q245.4656,550.9688 245.6156,551.1281 Q245.775,551.2781 245.775,551.4844 Q245.775,551.6906 245.5688,551.9344 Q245.2687,552.2813 244.7906,552.4781 Q244.1437,552.75 243.3656,552.75 Q242.4562,552.75 241.7344,552.375 Q241.1437,552.075 240.7313,551.4375 Q240.3188,550.7906 240.3188,550.0219 L240.3188,549.3281 Q240.3188,548.5313 240.6844,547.8469 Q241.0594,547.1531 241.7156,546.7875 Q242.3719,546.4125 243.1125,546.4125 Q243.5531,546.4125 243.9375,546.5156 Q244.3312,546.6094 244.6594,546.825 Z " fill="#000000"/><text fill="#000000" font-family="sans-serif" font-size="8.4" lengthAdjust="spacing" textLength="92.4" x="251.4" y="552.7781">PropertyTypeRepository</text><line style="stroke:#181818;stroke-width:0.3;" x1="234.6" x2="345" y1="558.9" y2="558.9"/><line style="stroke:#181818;stroke-width:0.3;" x1="234.6" x2="345" y1="563.7" y2="563.7"/><text fill="#000000" font-family="sans-serif" font-size="8.4" lengthAdjust="spacing" textLength="57.6" x="237.6" y="575.1645">+addProperty()</text><text fill="#000000" font-family="sans-serif" font-size="8.4" lengthAdjust="spacing" textLength="74.4" x="237.6" y="586.3371">+getPropertyType()</text></g><!--class Photo--><g id="elem_Photo"><rect
        fill="#F1F1F1" height="62.318" id="Photo" rx="1.5" ry="1.5" style="stroke:#181818;stroke-width:0.3;" width="69.6" x="208.2" y="312.9"/><ellipse cx="229.89" cy="322.5" fill="#ADD1B2" rx="6.6" ry="6.6" style="stroke:#181818;stroke-width:0.6;"/><path d="M231.5494,320.025 Q231.6431,319.8938 231.7556,319.8281 Q231.8681,319.7625 231.9994,319.7625 Q232.2244,319.7625 232.365,319.9219 Q232.5056,320.0719 232.5056,320.4375 L232.5056,321.3094 Q232.5056,321.675 232.365,321.8344 Q232.2244,321.9938 231.9994,321.9938 Q231.7931,321.9938 231.6713,321.8719 Q231.5494,321.7594 231.4838,321.45 Q231.4556,321.2344 231.3431,321.1219 Q231.1462,320.8969 230.7806,320.7656 Q230.415,320.6344 230.04,320.6344 Q229.5806,320.6344 229.1963,320.8313 Q228.8213,321.0281 228.5212,321.4781 Q228.2306,321.9281 228.2306,322.5469 L228.2306,323.2031 Q228.2306,323.9437 228.765,324.4406 Q229.2994,324.9281 230.2556,324.9281 Q230.8181,324.9281 231.2119,324.7781 Q231.4462,324.6844 231.6994,324.4219 Q231.8588,324.2625 231.9431,324.2156 Q232.0369,324.1688 232.1587,324.1688 Q232.3556,324.1688 232.5056,324.3281 Q232.665,324.4781 232.665,324.6844 Q232.665,324.8906 232.4587,325.1344 Q232.1587,325.4813 231.6806,325.6781 Q231.0337,325.95 230.2556,325.95 Q229.3462,325.95 228.6244,325.575 Q228.0337,325.275 227.6212,324.6375 Q227.2087,323.9906 227.2087,323.2219 L227.2087,322.5281 Q227.2087,321.7313 227.5744,321.0469 Q227.9494,320.3531 228.6056,319.9875 Q229.2619,319.6125 230.0025,319.6125 Q230.4431,319.6125 230.8275,319.7156 Q231.2212,319.8094 231.5494,320.025 Z " fill="#000000"/><text fill="#000000" font-family="sans-serif" font-size="8.4" lengthAdjust="spacing" textLength="22.2" x="241.11" y="325.9781">Photo</text><line style="stroke:#181818;stroke-width:0.3;" x1="208.8" x2="277.2" y1="332.1" y2="332.1"/><text fill="#000000" font-family="sans-serif" font-size="8.4" lengthAdjust="spacing" textLength="61.2" x="211.8" y="343.5645">-Integer photoID</text><text fill="#000000" font-family="sans-serif" font-size="8.4" lengthAdjust="spacing" textLength="62.4" x="211.8" y="354.7371">-String photoURI</text><line style="stroke:#181818;stroke-width:0.3;" x1="208.8" x2="277.2" y1="359.2453" y2="359.2453"/><text fill="#000000" font-family="sans-serif" font-size="8.4" lengthAdjust="spacing" textLength="62.4" x="211.8" y="370.7098">+setPhotoData()</text></g><!--class Building--><g id="elem_Building"><rect
        fill="#F1F1F1" height="129.3539" id="Building" rx="1.5" ry="1.5" style="stroke:#181818;stroke-width:0.3;" width="95.4" x="20.7" y="688.2"/><ellipse cx="50.85" cy="697.8" fill="#ADD1B2" rx="6.6" ry="6.6" style="stroke:#181818;stroke-width:0.6;"/><path d="M52.5094,695.325 Q52.6031,695.1938 52.7156,695.1281 Q52.8281,695.0625 52.9594,695.0625 Q53.1844,695.0625 53.325,695.2219 Q53.4656,695.3719 53.4656,695.7375 L53.4656,696.6094 Q53.4656,696.975 53.325,697.1344 Q53.1844,697.2937 52.9594,697.2937 Q52.7531,697.2937 52.6313,697.1719 Q52.5094,697.0594 52.4438,696.75 Q52.4156,696.5344 52.3031,696.4219 Q52.1062,696.1969 51.7406,696.0656 Q51.375,695.9344 51,695.9344 Q50.5406,695.9344 50.1563,696.1313 Q49.7813,696.3281 49.4812,696.7781 Q49.1906,697.2281 49.1906,697.8469 L49.1906,698.5031 Q49.1906,699.2438 49.725,699.7406 Q50.2594,700.2281 51.2156,700.2281 Q51.7781,700.2281 52.1719,700.0781 Q52.4063,699.9844 52.6594,699.7219 Q52.8188,699.5625 52.9031,699.5156 Q52.9969,699.4688 53.1188,699.4688 Q53.3156,699.4688 53.4656,699.6281 Q53.625,699.7781 53.625,699.9844 Q53.625,700.1906 53.4187,700.4344 Q53.1188,700.7813 52.6406,700.9781 Q51.9938,701.25 51.2156,701.25 Q50.3063,701.25 49.5844,700.875 Q48.9938,700.575 48.5813,699.9375 Q48.1687,699.2906 48.1687,698.5219 L48.1687,697.8281 Q48.1687,697.0313 48.5344,696.3469 Q48.9094,695.6531 49.5656,695.2875 Q50.2219,694.9125 50.9625,694.9125 Q51.4031,694.9125 51.7875,695.0156 Q52.1813,695.1094 52.5094,695.325 Z " fill="#000000"/><text fill="#000000" font-family="sans-serif" font-size="8.4" lengthAdjust="spacing" textLength="30" x="63.15" y="701.2781">Building</text><line style="stroke:#181818;stroke-width:0.3;" x1="21.3" x2="115.5" y1="707.4" y2="707.4"/><text fill="#000000" font-family="sans-serif" font-size="8.4" lengthAdjust="spacing" textLength="69.6" x="24.3" y="718.8645">-Integer bedrooms</text><text fill="#000000" font-family="sans-serif" font-size="8.4" lengthAdjust="spacing" textLength="72" x="24.3" y="730.0371">-Integer bathrooms</text><text fill="#000000" font-family="sans-serif" font-size="8.4" lengthAdjust="spacing" textLength="88.2" x="24.3" y="741.2098">-Integer parkingSpaces</text><line style="stroke:#181818;stroke-width:0.3;" x1="21.3" x2="115.5" y1="745.718" y2="745.718"/><text fill="#000000" font-family="sans-serif" font-size="8.4" lengthAdjust="spacing" textLength="58.8" x="24.3" y="757.1824">-setBedrooms()</text><text fill="#000000" font-family="sans-serif" font-size="8.4" lengthAdjust="spacing" textLength="61.2" x="24.3" y="768.3551">-setBathrooms()</text><text fill="#000000" font-family="sans-serif" font-size="8.4" lengthAdjust="spacing" textLength="77.4" x="24.3" y="779.5277">-setParkingSpaces()</text><text fill="#000000" font-family="sans-serif" font-size="8.4" lengthAdjust="spacing" textLength="61.2" x="24.3" y="790.7004">+getBedrooms()</text><text fill="#000000" font-family="sans-serif" font-size="8.4" lengthAdjust="spacing" textLength="63.6" x="24.3" y="801.873">+getBathrooms()</text><text fill="#000000" font-family="sans-serif" font-size="8.4" lengthAdjust="spacing" textLength="79.8" x="24.3" y="813.0457">+getParkingSpaces()</text></g><!--class Equipment--><g id="elem_Equipment"><rect
        fill="#F1F1F1" height="62.318" id="Equipment" rx="1.5" ry="1.5" style="stroke:#181818;stroke-width:0.3;" width="91.8" x="22.5" y="853.8"/><ellipse cx="46.08" cy="863.4" fill="#ADD1B2" rx="6.6" ry="6.6" style="stroke:#181818;stroke-width:0.6;"/><path d="M47.7394,860.925 Q47.8331,860.7937 47.9456,860.7281 Q48.0581,860.6625 48.1894,860.6625 Q48.4144,860.6625 48.555,860.8219 Q48.6956,860.9719 48.6956,861.3375 L48.6956,862.2094 Q48.6956,862.575 48.555,862.7344 Q48.4144,862.8938 48.1894,862.8938 Q47.9831,862.8938 47.8613,862.7719 Q47.7394,862.6594 47.6738,862.35 Q47.6456,862.1344 47.5331,862.0219 Q47.3363,861.7969 46.9706,861.6656 Q46.605,861.5344 46.23,861.5344 Q45.7706,861.5344 45.3863,861.7312 Q45.0113,861.9281 44.7113,862.3781 Q44.4206,862.8281 44.4206,863.4469 L44.4206,864.1031 Q44.4206,864.8438 44.955,865.3406 Q45.4894,865.8281 46.4456,865.8281 Q47.0081,865.8281 47.4019,865.6781 Q47.6363,865.5844 47.8894,865.3219 Q48.0488,865.1625 48.1331,865.1156 Q48.2269,865.0688 48.3487,865.0688 Q48.5456,865.0688 48.6956,865.2281 Q48.855,865.3781 48.855,865.5844 Q48.855,865.7906 48.6488,866.0344 Q48.3487,866.3813 47.8706,866.5781 Q47.2237,866.85 46.4456,866.85 Q45.5362,866.85 44.8144,866.475 Q44.2237,866.175 43.8112,865.5375 Q43.3988,864.8906 43.3988,864.1219 L43.3988,863.4281 Q43.3988,862.6313 43.7644,861.9469 Q44.1394,861.2531 44.7956,860.8875 Q45.4519,860.5125 46.1925,860.5125 Q46.6331,860.5125 47.0175,860.6156 Q47.4112,860.7094 47.7394,860.925 Z " fill="#000000"/><text fill="#000000" font-family="sans-serif" font-size="8.4" lengthAdjust="spacing" textLength="40.2" x="57.72" y="866.8781">Equipment</text><line style="stroke:#181818;stroke-width:0.3;" x1="23.1" x2="113.7" y1="873" y2="873"/><text fill="#000000" font-family="sans-serif" font-size="8.4" lengthAdjust="spacing" textLength="48.6" x="26.1" y="884.4645">-String name</text><line style="stroke:#181818;stroke-width:0.3;" x1="23.1" x2="113.7" y1="888.9727" y2="888.9727"/><text fill="#000000" font-family="sans-serif" font-size="8.4" lengthAdjust="spacing" textLength="82.2" x="26.1" y="900.4371">-setEquipmentName()</text><text fill="#000000" font-family="sans-serif" font-size="8.4" lengthAdjust="spacing" textLength="84.6" x="26.1" y="911.6098">+getEquipmentName()</text></g><!--class House--><g id="elem_House"><rect
        fill="#F1F1F1" height="129.3539" id="House" rx="1.5" ry="1.5" style="stroke:#181818;stroke-width:0.3;" width="84" x="196.8" y="688.2"/><ellipse cx="224.25" cy="697.8" fill="#ADD1B2" rx="6.6" ry="6.6" style="stroke:#181818;stroke-width:0.6;"/><path d="M225.9094,695.325 Q226.0031,695.1938 226.1156,695.1281 Q226.2281,695.0625 226.3594,695.0625 Q226.5844,695.0625 226.725,695.2219 Q226.8656,695.3719 226.8656,695.7375 L226.8656,696.6094 Q226.8656,696.975 226.725,697.1344 Q226.5844,697.2937 226.3594,697.2937 Q226.1531,697.2937 226.0313,697.1719 Q225.9094,697.0594 225.8438,696.75 Q225.8156,696.5344 225.7031,696.4219 Q225.5063,696.1969 225.1406,696.0656 Q224.775,695.9344 224.4,695.9344 Q223.9406,695.9344 223.5563,696.1313 Q223.1813,696.3281 222.8813,696.7781 Q222.5906,697.2281 222.5906,697.8469 L222.5906,698.5031 Q222.5906,699.2438 223.125,699.7406 Q223.6594,700.2281 224.6156,700.2281 Q225.1781,700.2281 225.5719,700.0781 Q225.8063,699.9844 226.0594,699.7219 Q226.2188,699.5625 226.3031,699.5156 Q226.3969,699.4688 226.5187,699.4688 Q226.7156,699.4688 226.8656,699.6281 Q227.025,699.7781 227.025,699.9844 Q227.025,700.1906 226.8188,700.4344 Q226.5187,700.7813 226.0406,700.9781 Q225.3937,701.25 224.6156,701.25 Q223.7062,701.25 222.9844,700.875 Q222.3937,700.575 221.9813,699.9375 Q221.5688,699.2906 221.5688,698.5219 L221.5688,697.8281 Q221.5688,697.0313 221.9344,696.3469 Q222.3094,695.6531 222.9656,695.2875 Q223.6219,694.9125 224.3625,694.9125 Q224.8031,694.9125 225.1875,695.0156 Q225.5812,695.1094 225.9094,695.325 Z " fill="#000000"/><text fill="#000000" font-family="sans-serif" font-size="8.4" lengthAdjust="spacing" textLength="24" x="236.55" y="701.2781">House</text><line style="stroke:#181818;stroke-width:0.3;" x1="197.4" x2="280.2" y1="707.4" y2="707.4"/><text fill="#000000" font-family="sans-serif" font-size="8.4" lengthAdjust="spacing" textLength="73.8" x="200.4" y="718.8645">-Boolean basement</text><text fill="#000000" font-family="sans-serif" font-size="8.4" lengthAdjust="spacing" textLength="48" x="200.4" y="730.0371">-Boolean loft</text><text fill="#000000" font-family="sans-serif" font-size="8.4" lengthAdjust="spacing" textLength="76.8" x="200.4" y="741.2098">-String sunExposure</text><line style="stroke:#181818;stroke-width:0.3;" x1="197.4" x2="280.2" y1="745.718" y2="745.718"/><text fill="#000000" font-family="sans-serif" font-size="8.4" lengthAdjust="spacing" textLength="58.2" x="200.4" y="757.1824">-setBasement()</text><text fill="#000000" font-family="sans-serif" font-size="8.4" lengthAdjust="spacing" textLength="34.8" x="200.4" y="768.3551">-setLoft()</text><text fill="#000000" font-family="sans-serif" font-size="8.4" lengthAdjust="spacing" textLength="70.8" x="200.4" y="779.5277">-setSunExposure()</text><text fill="#000000" font-family="sans-serif" font-size="8.4" lengthAdjust="spacing" textLength="60.6" x="200.4" y="790.7004">+getBasement()</text><text fill="#000000" font-family="sans-serif" font-size="8.4" lengthAdjust="spacing" textLength="37.2" x="200.4" y="801.873">+getLoft()</text><text fill="#000000" font-family="sans-serif" font-size="8.4" lengthAdjust="spacing" textLength="73.2" x="200.4" y="813.0457">+getSunExposure()</text></g><!--class Repositories--><g id="elem_Repositories"><rect
        fill="#F1F1F1" height="84.6633" id="Repositories" rx="1.5" ry="1.5" style="stroke:#181818;stroke-width:0.3;" width="122.4" x="421.2" y="522.9"/><ellipse cx="456.15" cy="532.5" fill="#ADD1B2" rx="6.6" ry="6.6" style="stroke:#181818;stroke-width:0.6;"/><path d="M457.8094,530.025 Q457.9031,529.8938 458.0156,529.8281 Q458.1281,529.7625 458.2594,529.7625 Q458.4844,529.7625 458.625,529.9219 Q458.7656,530.0719 458.7656,530.4375 L458.7656,531.3094 Q458.7656,531.675 458.625,531.8344 Q458.4844,531.9938 458.2594,531.9938 Q458.0531,531.9938 457.9313,531.8719 Q457.8094,531.7594 457.7438,531.45 Q457.7156,531.2344 457.6031,531.1219 Q457.4063,530.8969 457.0406,530.7656 Q456.675,530.6344 456.3,530.6344 Q455.8406,530.6344 455.4563,530.8313 Q455.0813,531.0281 454.7813,531.4781 Q454.4906,531.9281 454.4906,532.5469 L454.4906,533.2031 Q454.4906,533.9438 455.025,534.4406 Q455.5594,534.9281 456.5156,534.9281 Q457.0781,534.9281 457.4719,534.7781 Q457.7063,534.6844 457.9594,534.4219 Q458.1188,534.2625 458.2031,534.2156 Q458.2969,534.1687 458.4188,534.1687 Q458.6156,534.1687 458.7656,534.3281 Q458.925,534.4781 458.925,534.6844 Q458.925,534.8906 458.7188,535.1344 Q458.4188,535.4812 457.9406,535.6781 Q457.2938,535.95 456.5156,535.95 Q455.6063,535.95 454.8844,535.575 Q454.2938,535.275 453.8812,534.6375 Q453.4688,533.9906 453.4688,533.2219 L453.4688,532.5281 Q453.4688,531.7312 453.8344,531.0469 Q454.2094,530.3531 454.8656,529.9875 Q455.5219,529.6125 456.2625,529.6125 Q456.7031,529.6125 457.0875,529.7156 Q457.4813,529.8094 457.8094,530.025 Z " fill="#000000"/><text fill="#000000" font-family="sans-serif" font-size="8.4" lengthAdjust="spacing" textLength="47.4" x="468.45" y="535.9781">Repositories</text><line style="stroke:#181818;stroke-width:0.3;" x1="421.8" x2="543" y1="542.1" y2="542.1"/><line style="stroke:#181818;stroke-width:0.3;" x1="421.8" x2="543" y1="546.9" y2="546.9"/><text fill="#000000" font-family="sans-serif" font-size="8.4" lengthAdjust="spacing" textLength="56.4" x="424.8" y="558.3645">-Repositories()</text><text fill="#000000" font-family="sans-serif" font-size="8.4" lengthAdjust="spacing" textLength="54.6" x="424.8" y="569.5371">+getInstance()</text><text fill="#000000" font-family="sans-serif" font-size="8.4" lengthAdjust="spacing" textLength="85.8" x="424.8" y="580.7098">+getAgentRepository()</text><text fill="#000000" font-family="sans-serif" font-size="8.4" lengthAdjust="spacing" textLength="115.2" x="424.8" y="591.8824">+getPropertyTypeRepository()</text><text fill="#000000" font-family="sans-serif" font-size="8.4" lengthAdjust="spacing" textLength="96" x="424.8" y="603.0551">+getPropertyRepository()</text></g><polygon fill="none" points="482.4,607.5633,486.6,619.5633,478.2,619.5633" style="stroke:#181818;stroke-width:0.6;"/><line style="stroke:#181818;stroke-width:0.6;" x1="482.4" x2="482.4" y1="619.5633" y2="619.8"/><line style="stroke:#181818;stroke-width:0.6;" x1="482.4" x2="482.4" y1="522.9" y2="507.804"/><line style="stroke:#181818;stroke-width:0.6;" x1="421.2" x2="397.068" y1="565.2089" y2="565.2"/><!--class VisitRequestUI--><g id="elem_VisitRequestUI"><rect
        fill="#F1F1F1" height="39.9727" id="VisitRequestUI" rx="1.5" ry="1.5" style="stroke:#181818;stroke-width:0.3;" width="73.8" x="427.5" y="169.8"/><ellipse cx="436.5" cy="179.4" fill="#ADD1B2" rx="6.6" ry="6.6" style="stroke:#181818;stroke-width:0.6;"/><path d="M438.1594,176.925 Q438.2531,176.7938 438.3656,176.7281 Q438.4781,176.6625 438.6094,176.6625 Q438.8344,176.6625 438.975,176.8219 Q439.1156,176.9719 439.1156,177.3375 L439.1156,178.2094 Q439.1156,178.575 438.975,178.7344 Q438.8344,178.8937 438.6094,178.8937 Q438.4031,178.8937 438.2813,178.7719 Q438.1594,178.6594 438.0938,178.35 Q438.0656,178.1344 437.9531,178.0219 Q437.7562,177.7969 437.3906,177.6656 Q437.025,177.5344 436.65,177.5344 Q436.1906,177.5344 435.8063,177.7313 Q435.4313,177.9281 435.1312,178.3781 Q434.8406,178.8281 434.8406,179.4469 L434.8406,180.1031 Q434.8406,180.8438 435.375,181.3406 Q435.9094,181.8281 436.8656,181.8281 Q437.4281,181.8281 437.8219,181.6781 Q438.0563,181.5844 438.3094,181.3219 Q438.4688,181.1625 438.5531,181.1156 Q438.6469,181.0688 438.7688,181.0688 Q438.9656,181.0688 439.1156,181.2281 Q439.275,181.3781 439.275,181.5844 Q439.275,181.7906 439.0687,182.0344 Q438.7688,182.3813 438.2906,182.5781 Q437.6438,182.85 436.8656,182.85 Q435.9563,182.85 435.2344,182.475 Q434.6438,182.175 434.2313,181.5375 Q433.8187,180.8906 433.8187,180.1219 L433.8187,179.4281 Q433.8187,178.6313 434.1844,177.9469 Q434.5594,177.2531 435.2156,176.8875 Q435.8719,176.5125 436.6125,176.5125 Q437.0531,176.5125 437.4375,176.6156 Q437.8313,176.7094 438.1594,176.925 Z " fill="#000000"/><text fill="#000000" font-family="sans-serif" font-size="8.4" lengthAdjust="spacing" textLength="54.6" x="444.9" y="182.8781">VisitRequestUI</text><line style="stroke:#181818;stroke-width:0.3;" x1="428.1" x2="500.7" y1="189" y2="189"/><line style="stroke:#181818;stroke-width:0.3;" x1="428.1" x2="500.7" y1="193.8" y2="193.8"/><text fill="#000000" font-family="sans-serif" font-size="8.4" lengthAdjust="spacing" textLength="61.8" x="431.1" y="205.2645">+keepProperty()</text></g><!--class VisitRequestController--><g id="elem_VisitRequestController"><rect
        fill="#F1F1F1" height="39.9727" id="VisitRequestController" rx="1.5" ry="1.5" style="stroke:#181818;stroke-width:0.3;" width="293.4" x="317.7" y="324"/><ellipse cx="419.55" cy="333.6" fill="#ADD1B2" rx="6.6" ry="6.6" style="stroke:#181818;stroke-width:0.6;"/><path d="M421.2094,331.125 Q421.3031,330.9938 421.4156,330.9281 Q421.5281,330.8625 421.6594,330.8625 Q421.8844,330.8625 422.025,331.0219 Q422.1656,331.1719 422.1656,331.5375 L422.1656,332.4094 Q422.1656,332.775 422.025,332.9344 Q421.8844,333.0938 421.6594,333.0938 Q421.4531,333.0938 421.3313,332.9719 Q421.2094,332.8594 421.1438,332.55 Q421.1156,332.3344 421.0031,332.2219 Q420.8063,331.9969 420.4406,331.8656 Q420.075,331.7344 419.7,331.7344 Q419.2406,331.7344 418.8563,331.9313 Q418.4813,332.1281 418.1813,332.5781 Q417.8906,333.0281 417.8906,333.6469 L417.8906,334.3031 Q417.8906,335.0438 418.425,335.5406 Q418.9594,336.0281 419.9156,336.0281 Q420.4781,336.0281 420.8719,335.8781 Q421.1063,335.7844 421.3594,335.5219 Q421.5188,335.3625 421.6031,335.3156 Q421.6969,335.2688 421.8187,335.2688 Q422.0156,335.2688 422.1656,335.4281 Q422.325,335.5781 422.325,335.7844 Q422.325,335.9906 422.1188,336.2344 Q421.8187,336.5813 421.3406,336.7781 Q420.6937,337.05 419.9156,337.05 Q419.0062,337.05 418.2844,336.675 Q417.6937,336.375 417.2813,335.7375 Q416.8688,335.0906 416.8688,334.3219 L416.8688,333.6281 Q416.8688,332.8313 417.2344,332.1469 Q417.6094,331.4531 418.2656,331.0875 Q418.9219,330.7125 419.6625,330.7125 Q420.1031,330.7125 420.4875,330.8156 Q420.8812,330.9094 421.2094,331.125 Z " fill="#000000"/><text fill="#000000" font-family="sans-serif" font-size="8.4" lengthAdjust="spacing" textLength="84.6" x="431.85" y="337.0781">VisitRequestController</text><line style="stroke:#181818;stroke-width:0.3;" x1="318.3" x2="610.5" y1="343.2" y2="343.2"/><line style="stroke:#181818;stroke-width:0.3;" x1="318.3" x2="610.5" y1="348" y2="348"/><text fill="#000000" font-family="sans-serif" font-size="8.4" lengthAdjust="spacing" textLength="286.2" x="321.3" y="359.4645">+createVisitRequest(name, telephoneNumber, date, timeFrame, propertyID)</text></g><!--class Controller--><g id="elem_Controller"><rect fill="#F1F1F1" height="28.8" id="Controller" rx="1.5" ry="1.5" style="stroke:#181818;stroke-width:0.3;" width="56.4" x="627.6" y="54.6"/><ellipse cx="636.6" cy="64.2" fill="#ADD1B2" rx="6.6" ry="6.6" style="stroke:#181818;stroke-width:0.6;"/><path d="M638.2594,61.725 Q638.3531,61.5938 638.4656,61.5281 Q638.5781,61.4625 638.7094,61.4625 Q638.9344,61.4625 639.075,61.6219 Q639.2156,61.7719 639.2156,62.1375 L639.2156,63.0094 Q639.2156,63.375 639.075,63.5344 Q638.9344,63.6937 638.7094,63.6937 Q638.5031,63.6937 638.3813,63.5719 Q638.2594,63.4594 638.1938,63.15 Q638.1656,62.9344 638.0531,62.8219 Q637.8562,62.5969 637.4906,62.4656 Q637.125,62.3344 636.75,62.3344 Q636.2906,62.3344 635.9063,62.5313 Q635.5313,62.7281 635.2312,63.1781 Q634.9406,63.6281 634.9406,64.2469 L634.9406,64.9031 Q634.9406,65.6438 635.475,66.1406 Q636.0094,66.6281 636.9656,66.6281 Q637.5281,66.6281 637.9219,66.4781 Q638.1563,66.3844 638.4094,66.1219 Q638.5688,65.9625 638.6531,65.9156 Q638.7469,65.8687 638.8688,65.8687 Q639.0656,65.8687 639.2156,66.0281 Q639.375,66.1781 639.375,66.3844 Q639.375,66.5906 639.1687,66.8344 Q638.8688,67.1812 638.3906,67.3781 Q637.7438,67.65 636.9656,67.65 Q636.0563,67.65 635.3344,67.275 Q634.7438,66.975 634.3313,66.3375 Q633.9187,65.6906 633.9187,64.9219 L633.9187,64.2281 Q633.9187,63.4313 634.2844,62.7469 Q634.6594,62.0531 635.3156,61.6875 Q635.9719,61.3125 636.7125,61.3125 Q637.1531,61.3125 637.5375,61.4156 Q637.9313,61.5094 638.2594,61.725 Z " fill="#000000"/><text fill="#000000" font-family="sans-serif" font-size="8.4" lengthAdjust="spacing" textLength="37.2" x="645" y="67.6781">Controller</text><line style="stroke:#181818;stroke-width:0.3;" x1="628.2" x2="683.4" y1="73.8" y2="73.8"/><line style="stroke:#181818;stroke-width:0.3;" x1="628.2" x2="683.4" y1="78.6" y2="78.6"/></g><!--class Email--><g id="elem_Email"><rect fill="#F1F1F1" height="28.8" id="Email" rx="1.5" ry="1.5" style="stroke:#181818;stroke-width:0.3;" width="39.6" x="585.6" y="175.5"/><ellipse cx="594.6" cy="185.1" fill="#ADD1B2" rx="6.6" ry="6.6" style="stroke:#181818;stroke-width:0.6;"/><path d="M596.2594,182.625 Q596.3531,182.4938 596.4656,182.4281 Q596.5781,182.3625 596.7094,182.3625 Q596.9344,182.3625 597.075,182.5219 Q597.2156,182.6719 597.2156,183.0375 L597.2156,183.9094 Q597.2156,184.275 597.075,184.4344 Q596.9344,184.5938 596.7094,184.5938 Q596.5031,184.5938 596.3813,184.4719 Q596.2594,184.3594 596.1938,184.05 Q596.1656,183.8344 596.0531,183.7219 Q595.8562,183.4969 595.4906,183.3656 Q595.125,183.2344 594.75,183.2344 Q594.2906,183.2344 593.9063,183.4313 Q593.5313,183.6281 593.2312,184.0781 Q592.9406,184.5281 592.9406,185.1469 L592.9406,185.8031 Q592.9406,186.5438 593.475,187.0406 Q594.0094,187.5281 594.9656,187.5281 Q595.5281,187.5281 595.9219,187.3781 Q596.1563,187.2844 596.4094,187.0219 Q596.5688,186.8625 596.6531,186.8156 Q596.7469,186.7687 596.8688,186.7687 Q597.0656,186.7687 597.2156,186.9281 Q597.375,187.0781 597.375,187.2844 Q597.375,187.4906 597.1687,187.7344 Q596.8688,188.0812 596.3906,188.2781 Q595.7438,188.55 594.9656,188.55 Q594.0563,188.55 593.3344,188.175 Q592.7438,187.875 592.3313,187.2375 Q591.9187,186.5906 591.9187,185.8219 L591.9187,185.1281 Q591.9187,184.3312 592.2844,183.6469 Q592.6594,182.9531 593.3156,182.5875 Q593.9719,182.2125 594.7125,182.2125 Q595.1531,182.2125 595.5375,182.3156 Q595.9313,182.4094 596.2594,182.625 Z " fill="#000000"/><text fill="#000000" font-family="sans-serif" font-size="8.4" lengthAdjust="spacing" textLength="20.4" x="603" y="188.5781">Email</text><line style="stroke:#181818;stroke-width:0.3;" x1="586.2" x2="624.6" y1="194.7" y2="194.7"/><line style="stroke:#181818;stroke-width:0.3;" x1="586.2" x2="624.6" y1="199.5" y2="199.5"/></g><!--class PropertRequestRepository--><g id="elem_PropertRequestRepository"><rect fill="#F1F1F1" height="28.8" id="PropertRequestRepository" rx="1.5" ry="1.5" style="stroke:#181818;stroke-width:0.3;" width="120" x="646.2" y="175.5"/><ellipse cx="655.2" cy="185.1" fill="#ADD1B2" rx="6.6" ry="6.6" style="stroke:#181818;stroke-width:0.6;"/><path d="M656.8594,182.625 Q656.9531,182.4938 657.0656,182.4281 Q657.1781,182.3625 657.3094,182.3625 Q657.5344,182.3625 657.675,182.5219 Q657.8156,182.6719 657.8156,183.0375 L657.8156,183.9094 Q657.8156,184.275 657.675,184.4344 Q657.5344,184.5938 657.3094,184.5938 Q657.1031,184.5938 656.9812,184.4719 Q656.8594,184.3594 656.7937,184.05 Q656.7656,183.8344 656.6531,183.7219 Q656.4563,183.4969 656.0906,183.3656 Q655.725,183.2344 655.35,183.2344 Q654.8906,183.2344 654.5063,183.4313 Q654.1313,183.6281 653.8313,184.0781 Q653.5406,184.5281 653.5406,185.1469 L653.5406,185.8031 Q653.5406,186.5438 654.075,187.0406 Q654.6094,187.5281 655.5656,187.5281 Q656.1281,187.5281 656.5219,187.3781 Q656.7563,187.2844 657.0094,187.0219 Q657.1687,186.8625 657.2531,186.8156 Q657.3469,186.7687 657.4688,186.7687 Q657.6656,186.7687 657.8156,186.9281 Q657.975,187.0781 657.975,187.2844 Q657.975,187.4906 657.7688,187.7344 Q657.4688,188.0812 656.9906,188.2781 Q656.3438,188.55 655.5656,188.55 Q654.6563,188.55 653.9344,188.175 Q653.3438,187.875 652.9313,187.2375 Q652.5188,186.5906 652.5188,185.8219 L652.5188,185.1281 Q652.5188,184.3312 652.8844,183.6469 Q653.2594,182.9531 653.9156,182.5875 Q654.5719,182.2125 655.3125,182.2125 Q655.7531,182.2125 656.1375,182.3156 Q656.5313,182.4094 656.8594,182.625 Z " fill="#000000"/><text fill="#000000" font-family="sans-serif" font-size="8.4" lengthAdjust="spacing" textLength="100.8" x="663.6" y="188.5781">PropertRequestRepository</text><line style="stroke:#181818;stroke-width:0.3;" x1="646.8" x2="765.6" y1="194.7" y2="194.7"/><line style="stroke:#181818;stroke-width:0.3;" x1="646.8" x2="765.6" y1="199.5" y2="199.5"/></g><!--class Land--><g id="elem_Land"><rect fill="#F1F1F1" height="28.8" id="Land" rx="1.5" ry="1.5" style="stroke:#181818;stroke-width:0.3;" width="38.4" x="137.4" y="738.6"/><ellipse cx="146.4" cy="748.2" fill="#ADD1B2" rx="6.6" ry="6.6" style="stroke:#181818;stroke-width:0.6;"/><path d="M148.0594,745.725 Q148.1531,745.5938 148.2656,745.5281 Q148.3781,745.4625 148.5094,745.4625 Q148.7344,745.4625 148.875,745.6219 Q149.0156,745.7719 149.0156,746.1375 L149.0156,747.0094 Q149.0156,747.375 148.875,747.5344 Q148.7344,747.6938 148.5094,747.6938 Q148.3031,747.6938 148.1813,747.5719 Q148.0594,747.4594 147.9938,747.15 Q147.9656,746.9344 147.8531,746.8219 Q147.6563,746.5969 147.2906,746.4656 Q146.925,746.3344 146.55,746.3344 Q146.0906,746.3344 145.7062,746.5313 Q145.3312,746.7281 145.0313,747.1781 Q144.7406,747.6281 144.7406,748.2469 L144.7406,748.9031 Q144.7406,749.6438 145.275,750.1406 Q145.8094,750.6281 146.7656,750.6281 Q147.3281,750.6281 147.7219,750.4781 Q147.9562,750.3844 148.2094,750.1219 Q148.3688,749.9625 148.4531,749.9156 Q148.5469,749.8688 148.6688,749.8688 Q148.8656,749.8688 149.0156,750.0281 Q149.175,750.1781 149.175,750.3844 Q149.175,750.5906 148.9688,750.8344 Q148.6688,751.1813 148.1906,751.3781 Q147.5438,751.65 146.7656,751.65 Q145.8563,751.65 145.1344,751.275 Q144.5438,750.975 144.1313,750.3375 Q143.7188,749.6906 143.7188,748.9219 L143.7188,748.2281 Q143.7188,747.4313 144.0844,746.7469 Q144.4594,746.0531 145.1156,745.6875 Q145.7719,745.3125 146.5125,745.3125 Q146.9531,745.3125 147.3375,745.4156 Q147.7313,745.5094 148.0594,745.725 Z " fill="#000000"/><text fill="#000000" font-family="sans-serif" font-size="8.4" lengthAdjust="spacing" textLength="19.2" x="154.8" y="751.6781">Land</text><line style="stroke:#181818;stroke-width:0.3;" x1="138" x2="175.2" y1="757.8" y2="757.8"/><line style="stroke:#181818;stroke-width:0.3;" x1="138" x2="175.2" y1="762.6" y2="762.6"/></g><!--link User to VisitRequestUI--><g id="link_User_VisitRequestUI"><path
        d="M464.4,133.872 C464.4,133.872 464.4,166.62 464.4,166.62 " fill="none" id="User-to-VisitRequestUI" style="stroke:#181818;stroke-width:0.6;stroke-dasharray:7.0,7.0;"/><polygon fill="#181818" points="464.4,169.62,466.8,164.22,464.4,166.62,462,164.22,464.4,169.62" style="stroke:#181818;stroke-width:0.6;"/></g><!--link VisitRequestUI to VisitRequestController--><g id="link_VisitRequestUI_VisitRequestController"><path
        d="M464.4,210.06 C464.4,210.06 464.4,320.934 464.4,320.934 " fill="none" id="VisitRequestUI-to-VisitRequestController" style="stroke:#181818;stroke-width:0.6;stroke-dasharray:7.0,7.0;"/><polygon fill="#181818" points="464.4,323.934,466.8,318.534,464.4,320.934,462,318.534,464.4,323.934" style="stroke:#181818;stroke-width:0.6;"/></g><!--reverse link Repositories to AnnouncementRepository--><g id="link_Repositories_AnnouncementRepository"><path
        d="M482.4,619.8 C482.4,619.8 482.4,688.8 482.4,727.476 " fill="none" id="Repositories-backto-AnnouncementRepository" style="stroke:#181818;stroke-width:0.6;"/></g><!--reverse link Repositories to VisitRequestsRepository--><g id="link_Repositories_VisitsRepository"><path
        d="M503.4,565.2 C503.4,565.2 594.75,565.2 594.75,565.2 C594.75,565.2 594.75,648.75 594.75,704.394 " fill="none" id="Repositories-backto-VisitsRepository" style="stroke:#181818;stroke-width:0.6;"/></g><!--reverse link VisitRequestsRepository to VisitRequestsRepository--><g id="link_VisitsRepository_VisitsRequestRepository"><path
        d="M631.8,795.6 C631.8,795.6 562.5,795.6 562.5,795.6 C562.5,795.6 562.5,832.962 562.5,859.38 " fill="none" id="VisitsRepository-backto-VisitsRequestRepository" style="stroke:#181818;stroke-width:0.6;"/></g><!--link VisitRequest to VisitRequestsRepository--><g id="link_VisitRequest_VisitsRequestRepository"><path
        d="M382.938,784.2 C428.874,784.2 499.5,784.2 499.5,784.2 C499.5,784.2 499.5,856.302 499.5,856.302 " fill="none" id="VisitRequest-to-VisitsRequestRepository" style="stroke:#181818;stroke-width:0.6;"/><polygon fill="#181818" points="499.5,859.302,501.9,853.902,499.5,856.302,497.1,853.902,499.5,859.302" style="stroke:#181818;stroke-width:0.6;"/><text fill="#000000" font-family="sans-serif" font-size="7.8" lengthAdjust="spacing" textLength="38.4" x="457.3791" y="852.8053">is stored in</text></g><!--link VisitRequestController to Repositories--><g id="link_VisitRequestController_Repositories"><path
        d="M482.4,364.308 C482.4,364.308 482.4,507.804 482.4,507.804 " fill="none" id="VisitRequestController-to-Repositories" style="stroke:#181818;stroke-width:0.6;stroke-dasharray:7.0,7.0;"/><polygon fill="#181818" points="482.4,510.804,484.8,505.404,482.4,507.804,480,505.404,482.4,510.804" style="stroke:#181818;stroke-width:0.6;"/></g><!--link VisitRequestController to VisitRequest--><g id="link_VisitRequestController_VisitRequest"><path
        d="M364.2,364.38 C364.2,364.38 364.2,713.334 364.2,713.334 " fill="none" id="VisitRequestController-to-VisitRequest" style="stroke:#181818;stroke-width:0.6;stroke-dasharray:7.0,7.0;"/><polygon fill="#181818" points="364.2,716.334,366.6,710.934,364.2,713.334,361.8,710.934,364.2,716.334" style="stroke:#181818;stroke-width:0.6;"/></g><!--reverse link VisitRequestsRepository to VisitsAcceptedRepository--><g id="link_VisitsRepository_VisitsAcceptedRepository"><path
        d="M653.4,801.6 C653.4,801.6 653.4,834.792 653.4,859.296 " fill="none" id="VisitsRepository-backto-VisitsAcceptedRepository" style="stroke:#181818;stroke-width:0.6;"/></g><!--link VisitRequestsRepository to VisitsAcceptedRepository--><g id="link_VisitsRequestRepository_VisitsAcceptedRepository"><path
        d="M567.702,885 C567.702,885 585.534,885 585.534,885 " fill="none" id="VisitsRequestRepository-to-VisitsAcceptedRepository" style="stroke:#181818;stroke-width:0.6;stroke-dasharray:7.0,7.0;"/><polygon fill="#181818" points="588.534,885,583.134,882.6,585.534,885,583.134,887.4,588.534,885" style="stroke:#181818;stroke-width:0.6;"/></g><!--link Property to PropertyTypeRepository--><g id="link_Property_PropertyTypeRepository"><path
        d="M212.886,565.2 C219.828,565.2 226.902,565.2 233.808,565.2 " fill="none" id="Property-PropertyTypeRepository" style="stroke:#181818;stroke-width:0.6;"/><text fill="#000000" font-family="sans-serif" font-size="7.8" lengthAdjust="spacing" textLength="45" x="200.85" y="574.217">propertyType</text></g><!--link Address to Property--><g id="link_Address_Property"><path
        d="M154.2,442.206 C154.2,442.206 154.2,475.062 154.2,475.062 " fill="none" id="Address-to-Property" style="stroke:#181818;stroke-width:0.6;stroke-dasharray:7.0,7.0;"/><polygon fill="#181818" points="154.2,478.062,156.6,472.662,154.2,475.062,151.8,472.662,154.2,478.062" style="stroke:#181818;stroke-width:0.6;"/><text fill="#000000" font-family="sans-serif" font-size="7.8" lengthAdjust="spacing" textLength="27.6" x="125.8884" y="471.5263">address</text></g><!--reverse link Building to Equipment--><g id="link_Building_Equipment"><path
        d="M68.4,820.842 C68.4,820.842 68.4,853.758 68.4,853.758 " fill="none" id="Building-backto-Equipment" style="stroke:#181818;stroke-width:0.6;stroke-dasharray:7.0,7.0;"/><polygon fill="#181818" points="68.4,817.842,66,823.242,68.4,820.842,70.8,823.242,68.4,817.842" style="stroke:#181818;stroke-width:0.6;"/><text fill="#000000" font-family="sans-serif" font-size="7.8" lengthAdjust="spacing" textLength="48.6" x="18.2433" y="830.7531">equipmentList</text></g><!--link Photo to Property--><g id="link_Photo_Property"><path
        d="M210.45,375.312 C210.45,375.312 210.45,475.098 210.45,475.098 " fill="none" id="Photo-to-Property" style="stroke:#181818;stroke-width:0.6;stroke-dasharray:7.0,7.0;"/><polygon fill="#181818" points="210.45,478.098,212.85,472.698,210.45,475.098,208.05,472.698,210.45,478.098" style="stroke:#181818;stroke-width:0.6;"/><text fill="#000000" font-family="sans-serif" font-size="7.8" lengthAdjust="spacing" textLength="31.8" x="180.7305" y="471.5642">photoList</text></g><!--link Property to Building--><g id="link_Property_Building"><path
        d="M105.9,652.23 C105.9,652.23 105.9,685.146 105.9,685.146 " fill="none" id="Property-to-Building" style="stroke:#181818;stroke-width:0.6;"/><polygon fill="#181818" points="105.9,688.146,108.3,682.746,105.9,685.146,103.5,682.746,105.9,688.146" style="stroke:#181818;stroke-width:0.6;"/><text fill="#000000" font-family="sans-serif" font-size="7.8" lengthAdjust="spacing" textLength="27.6" x="75.098" y="665.4008">extends</text></g><!--link Building to House--><g id="link_Building_House"><path
        d="M116.322,713.4 C116.322,713.4 193.746,713.4 193.746,713.4 " fill="none" id="Building-to-House" style="stroke:#181818;stroke-width:0.6;"/><polygon fill="#181818" points="196.746,713.4,191.346,711,193.746,713.4,191.346,715.8,196.746,713.4" style="stroke:#181818;stroke-width:0.6;"/><text fill="#000000" font-family="sans-serif" font-size="7.8" lengthAdjust="spacing" textLength="27.6" x="120.8547" y="708.3498">extends</text></g><!--link Controller to Email--><g id="link_Controller_Email"><path
        d="M627.438,69 C620.94,69 615.9,69 615.9,69 C615.9,69 615.9,163.314 615.9,163.314 " fill="none" id="Controller-to-Email" style="stroke:#181818;stroke-width:0.6;"/><polygon fill="none" points="620.1,163.314,615.9,175.314,611.7,163.314,620.1,163.314" style="stroke:#181818;stroke-width:0.6;"/></g><!--link TypeOfTransaction to Property--><g id="link_TypeOfTransaction_Property"><path
        d="M97.95,392.346 C97.95,392.346 97.95,475.074 97.95,475.074 " fill="none" id="TypeOfTransaction-to-Property" style="stroke:#181818;stroke-width:0.6;stroke-dasharray:7.0,7.0;"/><polygon fill="#181818" points="97.95,478.074,100.35,472.674,97.95,475.074,95.55,472.674,97.95,478.074" style="stroke:#181818;stroke-width:0.6;"/><text fill="#000000" font-family="sans-serif" font-size="7.8" lengthAdjust="spacing" textLength="63" x="36.1301" y="405.1947">transaction</text></g><!--link Controller to PropertRequestRepository--><g id="link_Controller_PropertRequestRepository"><path
        d="M665.1,83.586 C665.1,83.586 665.1,163.452 665.1,163.452 " fill="none" id="Controller-to-PropertRequestRepository" style="stroke:#181818;stroke-width:0.6;"/><polygon fill="none" points="669.3,163.452,665.1,175.452,660.9,163.452,669.3,163.452" style="stroke:#181818;stroke-width:0.6;"/></g><!--reverse link Property to Land--><g id="link_Property_Land"><path
        d="M156.6,655.23 C156.6,655.23 156.6,738.558 156.6,738.558 " fill="none" id="Property-backto-Land" style="stroke:#181818;stroke-width:0.6;"/><polygon fill="#181818" points="156.6,652.23,154.2,657.63,156.6,655.23,159,657.63,156.6,652.23" style="stroke:#181818;stroke-width:0.6;"/><text fill="#000000" font-family="sans-serif" font-size="7.8" lengthAdjust="spacing" textLength="27.6" x="128.4" y="694.511">extends</text></g><!--reverse link Property to VisitRequest--><g id="link_Property_VisitRequest"><path
        d="M220.578,636 C220.578,636 325.8,636 325.8,636 C325.8,636 325.8,681.99 325.8,716.304 " fill="none" id="Property-backto-VisitRequest" style="stroke:#181818;stroke-width:0.6;"/><polygon fill="#181818" points="212.778,636,216.378,638.4,219.978,636,216.378,633.6,212.778,636" style="stroke:#181818;stroke-width:0.6;"/></g><!--link PropertyTypeRepository to Repositories--><g id="link_PropertyTypeRepository_Repositories"><path
        d="M345.768,565.2 C345.768,565.2 397.068,565.2 397.068,565.2 " fill="none" id="PropertyTypeRepository-to-Repositories" style="stroke:#181818;stroke-width:0.6;"/><polygon fill="none" points="397.068,561,409.068,565.2,397.068,569.4,397.068,561" style="stroke:#181818;stroke-width:0.6;"/></g><!--SRC=[VLTDRziu4BtpLn2-9DrQGR77HH70ZbEiWRGDugI7lJ7Is2OYaof9RUkw-UybAOeQKd9oIVHcviq7XpECVk6YOOeTQCFA5xQ3ZJdMG1MKXebT3KH71RrdbVp1nOvkMQsnPATaswp57XItLYNGlv6mvWBCiG4gbTbBGf2eh9dM2sCKVsuDh4ifDlmNq0-4NDImDTH8glXkRsZ5NK1S2aAy3NtIeEY9KFjJRAoz3Kgm0oG071Yl5rMbGEj4q5Y67r9L2MYWXcOl1Nnf3y-WEbbH-D_ldRjBvs2UiCuZrRjERmVcIn-6-xZDGt3WFNRlWCVCzIlfqrm88LjRq0C8ym2DrDn8TJn5Ioo_336mghfNiW5bZecu2U0xnz_HV-EMKEV4HGvV3jcjXVOdZA1U-tiBsamQTHgBieJ6G9MeZ4B9M4ufIP2ZL1FuV_GnuXxxpyXxXPmzuYDwp1_mK4BVdwtk-wW_4DeVGj9w5JDfvnf-W4_ADLBCeMS8_2lPFjjhoXImhzlxX3I8AjwTr2Sb3pVs_5NgWlcadC8gzwwwJ3pU2RJjjCHJA94Jh4P-aF1Xe4Be8l6D6cMixfjy7Ag7fo9oWic8XagwerclJg_Xyz6Efg_RHyM4Pdx4f5F530AdcSWEzieQfexVMDsYKZsc9YZnpzW0HJnjuIIvHSmY39KqM6rp1PD09S-RpLP7yT9aXdaJ_EBDZQnGLXlFZPAvuQC-SBm8sfZqtF_hE55w2Qa346b_b8YqCqcxOo0TtHLNoz5jH-CHiM2JX6elZGn5NWi3Etkj6uUjL-bASTZJmxghrtkRhBUq3SimtRBbTMNrCyPdg9IK1vsXpEmdOBiwxGBTRUo-1ZsSpp9me7elUmA4tMDhL83Ct4EPURUxKlEOsUttbZTkpqmivUWyAhabYLXpFBB-A-qC3OnBAMjWmfP5-uMMehNSPYtTYjkVzknRXG9O1bjKa3jhY7jsC4jAaTWv2DdvjapiXjqG-u-3xXyi67jxjovsoU8_qx1lAcJhThondjRXPhm0DEXgl4wjjnjfvwciQr31gBHJs42oXRjtKlQUclijDnzMsppkmlNAExi8DowyZaxamZc8RxMBL-ANwjNLTHO-IJz76aFC93cDZx-BmZvenPbNrXdb_754Sc2ichrfo1cSphYsarWgg2WNiuz5uH_1E1KodPTF6OVxbjwOxutWnu-ciz7tr5CsyVrJd1dEz9_O3dxDXlNc0vwnxcCMRKaS6FIgRPmAzC2TtHYpE6U9dy8TYn_HdJZonBXcyDE0gAoFehWUpFi_iDp_HsAL_6mYgBZMzFSrzKz-CdfLq9d9ePcFAyQ2c3nH48pRvuw9YXPjKmp6jdmXm26blueYFUipbNU-ajxv0m00]--></g></svg>