<?xml version="1.0" encoding="us-ascii" standalone="no"?><svg xmlns="http://www.w3.org/2000/svg" xmlns:xlink="http://www.w3.org/1999/xlink" contentStyleType="text/css" height="1092px" preserveAspectRatio="none" style="width:2176px;height:1092px;background:#FFFFFF;" version="1.1" viewBox="0 0 2176 1092" width="2176px" zoomAndPan="magnify"><defs/><g><rect fill="#FFFFFF" height="906.1484" style="stroke:#181818;stroke-width:1.0;" width="10" x="32.5" y="93.6211"/><rect fill="#FFFFFF" height="250.3281" style="stroke:#181818;stroke-width:1.0;" width="10" x="304.5" y="116.9121"/><rect fill="#FFFFFF" height="75.582" style="stroke:#181818;stroke-width:1.0;" width="10" x="430" y="398.5313"/><rect fill="#FFFFFF" height="494.3652" style="stroke:#181818;stroke-width:1.0;" width="10" x="430" y="505.4043"/><rect fill="#FFFFFF" height="187.7461" style="stroke:#181818;stroke-width:1.0;" width="10" x="995" y="148.2031"/><rect fill="#FFFFFF" height="164.4551" style="stroke:#181818;stroke-width:1.0;" width="10" x="995" y="536.6953"/><rect fill="#FFFFFF" height="229.0371" style="stroke:#181818;stroke-width:1.0;" width="10" x="1492" y="567.9863"/><rect fill="#FFFFFF" height="62.582" style="stroke:#181818;stroke-width:1.0;" width="10" x="1497" y="607.2773"/><rect fill="#FFFFFF" height="93.873" style="stroke:#181818;stroke-width:1.0;" width="10" x="1633" y="210.7852"/><rect fill="#FFFFFF" height="93.873" style="stroke:#181818;stroke-width:1.0;" width="10" x="1633" y="828.3145"/><rect fill="#FFFFFF" height="31.291" style="stroke:#181818;stroke-width:1.0;" width="10" x="1778" y="242.0762"/><rect fill="#FFFFFF" height="62.582" style="stroke:#181818;stroke-width:1.0;" width="10" x="1930.5" y="859.6055"/><rect fill="#FFFFFF" height="31.291" style="stroke:#181818;stroke-width:1.0;" width="10" x="2075" y="890.8965"/><rect fill="none" height="113.1641" style="stroke:#000000;stroke-width:1.5;" width="1543.5" x="10" y="627.2773"/><rect fill="none" height="238.3281" style="stroke:#000000;stroke-width:1.5;" width="2160.5" x="10" y="754.4414"/><line style="stroke:#181818;stroke-width:0.5;stroke-dasharray:5.0,5.0;" x1="37" x2="37" y1="83.6211" y2="1009.7695"/><line style="stroke:#181818;stroke-width:0.5;stroke-dasharray:5.0,5.0;" x1="309.5" x2="309.5" y1="83.6211" y2="1009.7695"/><line style="stroke:#181818;stroke-width:0.5;stroke-dasharray:5.0,5.0;" x1="434.5" x2="434.5" y1="83.6211" y2="1009.7695"/><line style="stroke:#181818;stroke-width:0.5;stroke-dasharray:5.0,5.0;" x1="999.5" x2="999.5" y1="83.6211" y2="1009.7695"/><line style="stroke:#181818;stroke-width:0.5;stroke-dasharray:5.0,5.0;" x1="1496.5" x2="1496.5" y1="83.6211" y2="1009.7695"/><line style="stroke:#181818;stroke-width:0.5;stroke-dasharray:5.0,5.0;" x1="1637.5" x2="1637.5" y1="83.6211" y2="1009.7695"/><line style="stroke:#181818;stroke-width:0.5;stroke-dasharray:5.0,5.0;" x1="1782.5" x2="1782.5" y1="83.6211" y2="1009.7695"/><line style="stroke:#181818;stroke-width:0.5;stroke-dasharray:5.0,5.0;" x1="1935.5" x2="1935.5" y1="83.6211" y2="1009.7695"/><line style="stroke:#181818;stroke-width:0.5;stroke-dasharray:5.0,5.0;" x1="2079.5" x2="2079.5" y1="83.6211" y2="1009.7695"/><text fill="#000000" font-family="sans-serif" font-size="14" lengthAdjust="spacing" textLength="29" x="20" y="80.1074">User</text><ellipse cx="37.5" cy="13.5" fill="#E3E3E3" rx="8" ry="8" style="stroke:#181818;stroke-width:0.5;"/><path d="M37.5,21.5 L37.5,48.5 M24.5,29.5 L50.5,29.5 M37.5,48.5 L24.5,63.5 M37.5,48.5 L50.5,63.5 " fill="none" style="stroke:#181818;stroke-width:0.5;"/><text fill="#000000" font-family="sans-serif" font-size="14" lengthAdjust="spacing" textLength="29" x="20" y="1023.877">User</text><ellipse cx="37.5" cy="1035.8906" fill="#E3E3E3" rx="8" ry="8" style="stroke:#181818;stroke-width:0.5;"/><path d="M37.5,1043.8906 L37.5,1070.8906 M24.5,1051.8906 L50.5,1051.8906 M37.5,1070.8906 L24.5,1085.8906 M37.5,1070.8906 L50.5,1085.8906 " fill="none" style="stroke:#181818;stroke-width:0.5;"/><rect fill="#E3E3E3" height="32.6211" rx="2.5" ry="2.5" style="stroke:#181818;stroke-width:0.5;" width="126" x="246.5" y="50"/><text fill="#000000" font-family="sans-serif" font-size="14" lengthAdjust="spacing" textLength="112" x="253.5" y="72.1074">DisplayPropertyUI</text><rect fill="#E3E3E3" height="32.6211" rx="2.5" ry="2.5" style="stroke:#181818;stroke-width:0.5;" width="126" x="246.5" y="1008.7695"/><text fill="#000000" font-family="sans-serif" font-size="14" lengthAdjust="spacing" textLength="112" x="253.5" y="1030.877">DisplayPropertyUI</text><rect fill="#E3E3E3" height="32.6211" rx="2.5" ry="2.5" style="stroke:#181818;stroke-width:0.5;" width="105" x="382.5" y="50"/><text fill="#000000" font-family="sans-serif" font-size="14" lengthAdjust="spacing" textLength="91" x="389.5" y="72.1074">VisitRequestUI</text><rect fill="#E3E3E3" height="32.6211" rx="2.5" ry="2.5" style="stroke:#181818;stroke-width:0.5;" width="105" x="382.5" y="1008.7695"/><text fill="#000000" font-family="sans-serif" font-size="14" lengthAdjust="spacing" textLength="91" x="389.5" y="1030.877">VisitRequestUI</text><rect fill="#E3E3E3" height="32.6211" rx="2.5" ry="2.5" style="stroke:#181818;stroke-width:0.5;" width="155" x="922.5" y="50"/><text fill="#000000" font-family="sans-serif" font-size="14" lengthAdjust="spacing" textLength="141" x="929.5" y="72.1074">VisitRequestController</text><rect fill="#E3E3E3" height="32.6211" rx="2.5" ry="2.5" style="stroke:#181818;stroke-width:0.5;" width="155" x="922.5" y="1008.7695"/><text fill="#000000" font-family="sans-serif" font-size="14" lengthAdjust="spacing" textLength="141" x="929.5" y="1030.877">VisitRequestController</text><rect fill="#E3E3E3" height="32.6211" rx="2.5" ry="2.5" style="stroke:#181818;stroke-width:0.5;" width="93" x="1450.5" y="50"/><text fill="#000000" font-family="sans-serif" font-size="14" lengthAdjust="spacing" textLength="79" x="1457.5" y="72.1074">VisitRequest</text><rect fill="#E3E3E3" height="32.6211" rx="2.5" ry="2.5" style="stroke:#181818;stroke-width:0.5;" width="93" x="1450.5" y="1008.7695"/><text fill="#000000" font-family="sans-serif" font-size="14" lengthAdjust="spacing" textLength="79" x="1457.5" y="1030.877">VisitRequest</text><rect fill="#E3E3E3" height="32.6211" rx="2.5" ry="2.5" style="stroke:#181818;stroke-width:0.5;" width="93" x="1591.5" y="50"/><text fill="#000000" font-family="sans-serif" font-size="14" lengthAdjust="spacing" textLength="79" x="1598.5" y="72.1074">Repositories</text><rect fill="#E3E3E3" height="32.6211" rx="2.5" ry="2.5" style="stroke:#181818;stroke-width:0.5;" width="93" x="1591.5" y="1008.7695"/><text fill="#000000" font-family="sans-serif" font-size="14" lengthAdjust="spacing" textLength="79" x="1598.5" y="1030.877">Repositories</text><rect fill="#E3E3E3" height="32.6211" rx="2.5" ry="2.5" style="stroke:#181818;stroke-width:0.5;" width="177" x="1694.5" y="50"/><text fill="#000000" font-family="sans-serif" font-size="14" lengthAdjust="spacing" textLength="163" x="1701.5" y="72.1074">AnnouncementRepository</text><rect fill="#E3E3E3" height="32.6211" rx="2.5" ry="2.5" style="stroke:#181818;stroke-width:0.5;" width="177" x="1694.5" y="1008.7695"/><text fill="#000000" font-family="sans-serif" font-size="14" lengthAdjust="spacing" textLength="163" x="1701.5" y="1030.877">AnnouncementRepository</text><rect fill="#E3E3E3" height="32.6211" rx="2.5" ry="2.5" style="stroke:#181818;stroke-width:0.5;" width="108" x="1881.5" y="50"/><text fill="#000000" font-family="sans-serif" font-size="14" lengthAdjust="spacing" textLength="94" x="1888.5" y="72.1074">VisitRepository</text><rect fill="#E3E3E3" height="32.6211" rx="2.5" ry="2.5" style="stroke:#181818;stroke-width:0.5;" width="108" x="1881.5" y="1008.7695"/><text fill="#000000" font-family="sans-serif" font-size="14" lengthAdjust="spacing" textLength="94" x="1888.5" y="1030.877">VisitRepository</text><rect fill="#E3E3E3" height="32.6211" rx="2.5" ry="2.5" style="stroke:#181818;stroke-width:0.5;" width="161" x="1999.5" y="50"/><text fill="#000000" font-family="sans-serif" font-size="14" lengthAdjust="spacing" textLength="147" x="2006.5" y="72.1074">VisitRequestRepository</text><rect fill="#E3E3E3" height="32.6211" rx="2.5" ry="2.5" style="stroke:#181818;stroke-width:0.5;" width="161" x="1999.5" y="1008.7695"/><text fill="#000000" font-family="sans-serif" font-size="14" lengthAdjust="spacing" textLength="147" x="2006.5" y="1030.877">VisitRequestRepository</text><rect fill="#FFFFFF" height="906.1484" style="stroke:#181818;stroke-width:1.0;" width="10" x="32.5" y="93.6211"/><rect fill="#FFFFFF" height="250.3281" style="stroke:#181818;stroke-width:1.0;" width="10" x="304.5" y="116.9121"/><rect fill="#FFFFFF" height="75.582" style="stroke:#181818;stroke-width:1.0;" width="10" x="430" y="398.5313"/><rect fill="#FFFFFF" height="494.3652" style="stroke:#181818;stroke-width:1.0;" width="10" x="430" y="505.4043"/><rect fill="#FFFFFF" height="187.7461" style="stroke:#181818;stroke-width:1.0;" width="10" x="995" y="148.2031"/><rect fill="#FFFFFF" height="164.4551" style="stroke:#181818;stroke-width:1.0;" width="10" x="995" y="536.6953"/><rect fill="#FFFFFF" height="229.0371" style="stroke:#181818;stroke-width:1.0;" width="10" x="1492" y="567.9863"/><rect fill="#FFFFFF" height="62.582" style="stroke:#181818;stroke-width:1.0;" width="10" x="1497" y="607.2773"/><rect fill="#FFFFFF" height="93.873" style="stroke:#181818;stroke-width:1.0;" width="10" x="1633" y="210.7852"/><rect fill="#FFFFFF" height="93.873" style="stroke:#181818;stroke-width:1.0;" width="10" x="1633" y="828.3145"/><rect fill="#FFFFFF" height="31.291" style="stroke:#181818;stroke-width:1.0;" width="10" x="1778" y="242.0762"/><rect fill="#FFFFFF" height="62.582" style="stroke:#181818;stroke-width:1.0;" width="10" x="1930.5" y="859.6055"/><rect fill="#FFFFFF" height="31.291" style="stroke:#181818;stroke-width:1.0;" width="10" x="2075" y="890.8965"/><polygon fill="#181818" points="292.5,112.9121,302.5,116.9121,292.5,120.9121,296.5,116.9121" style="stroke:#181818;stroke-width:1.0;"/><line style="stroke:#181818;stroke-width:1.0;" x1="42.5" x2="298.5" y1="116.9121" y2="116.9121"/><text fill="#000000" font-family="sans-serif" font-size="13" font-weight="bold" lengthAdjust="spacing" textLength="7" x="49.5" y="111.6494">1</text><text fill="#000000" font-family="sans-serif" font-size="13" lengthAdjust="spacing" textLength="183" x="60.5" y="111.6494">asks to create new visit request</text><polygon fill="#181818" points="983,144.2031,993,148.2031,983,152.2031,987,148.2031" style="stroke:#181818;stroke-width:1.0;"/><line style="stroke:#181818;stroke-width:1.0;" x1="314.5" x2="989" y1="148.2031" y2="148.2031"/><text fill="#000000" font-family="sans-serif" font-size="13" font-weight="bold" lengthAdjust="spacing" textLength="7" x="321.5" y="142.9404">2</text><text fill="#000000" font-family="sans-serif" font-size="13" lengthAdjust="spacing" textLength="137" x="332.5" y="142.9404">VisitRequestController()</text><polygon fill="#181818" points="983,175.4941,993,179.4941,983,183.4941,987,179.4941" style="stroke:#181818;stroke-width:1.0;"/><line style="stroke:#181818;stroke-width:1.0;" x1="314.5" x2="989" y1="179.4941" y2="179.4941"/><text fill="#000000" font-family="sans-serif" font-size="13" font-weight="bold" lengthAdjust="spacing" textLength="7" x="321.5" y="174.2314">3</text><text fill="#000000" font-family="sans-serif" font-size="13" lengthAdjust="spacing" textLength="96" x="332.5" y="174.2314">getPropertyList()</text><polygon fill="#181818" points="1621,206.7852,1631,210.7852,1621,214.7852,1625,210.7852" style="stroke:#181818;stroke-width:1.0;"/><line style="stroke:#181818;stroke-width:1.0;" x1="1005" x2="1627" y1="210.7852" y2="210.7852"/><text fill="#000000" font-family="sans-serif" font-size="13" font-weight="bold" lengthAdjust="spacing" textLength="7" x="1012" y="205.5225">4</text><text fill="#000000" font-family="sans-serif" font-size="13" lengthAdjust="spacing" textLength="96" x="1023" y="205.5225">getPropertyList()</text><polygon fill="#181818" points="1766,238.0762,1776,242.0762,1766,246.0762,1770,242.0762" style="stroke:#181818;stroke-width:1.0;"/><line style="stroke:#181818;stroke-width:1.0;" x1="1643" x2="1772" y1="242.0762" y2="242.0762"/><text fill="#000000" font-family="sans-serif" font-size="13" font-weight="bold" lengthAdjust="spacing" textLength="7" x="1650" y="236.8135">5</text><text fill="#000000" font-family="sans-serif" font-size="13" lengthAdjust="spacing" textLength="96" x="1661" y="236.8135">getPropertyList()</text><polygon fill="#181818" points="1654,269.3672,1644,273.3672,1654,277.3672,1650,273.3672" style="stroke:#181818;stroke-width:1.0;"/><line style="stroke:#181818;stroke-width:1.0;stroke-dasharray:2.0,2.0;" x1="1648" x2="1782" y1="273.3672" y2="273.3672"/><text fill="#000000" font-family="sans-serif" font-size="13" font-weight="bold" lengthAdjust="spacing" textLength="7" x="1660" y="268.1045">6</text><text fill="#000000" font-family="sans-serif" font-size="13" lengthAdjust="spacing" textLength="68" x="1671" y="268.1045">propertyList</text><polygon fill="#181818" points="1016,300.6582,1006,304.6582,1016,308.6582,1012,304.6582" style="stroke:#181818;stroke-width:1.0;"/><line style="stroke:#181818;stroke-width:1.0;stroke-dasharray:2.0,2.0;" x1="1010" x2="1637" y1="304.6582" y2="304.6582"/><text fill="#000000" font-family="sans-serif" font-size="13" font-weight="bold" lengthAdjust="spacing" textLength="7" x="1022" y="299.3955">7</text><text fill="#000000" font-family="sans-serif" font-size="13" lengthAdjust="spacing" textLength="68" x="1033" y="299.3955">propertyList</text><polygon fill="#181818" points="325.5,331.9492,315.5,335.9492,325.5,339.9492,321.5,335.9492" style="stroke:#181818;stroke-width:1.0;"/><line style="stroke:#181818;stroke-width:1.0;stroke-dasharray:2.0,2.0;" x1="319.5" x2="999" y1="335.9492" y2="335.9492"/><text fill="#000000" font-family="sans-serif" font-size="13" font-weight="bold" lengthAdjust="spacing" textLength="7" x="331.5" y="330.6865">8</text><text fill="#000000" font-family="sans-serif" font-size="13" lengthAdjust="spacing" textLength="68" x="342.5" y="330.6865">propertyList</text><polygon fill="#181818" points="53.5,363.2402,43.5,367.2402,53.5,371.2402,49.5,367.2402" style="stroke:#181818;stroke-width:1.0;"/><line style="stroke:#181818;stroke-width:1.0;stroke-dasharray:2.0,2.0;" x1="47.5" x2="308.5" y1="367.2402" y2="367.2402"/><text fill="#000000" font-family="sans-serif" font-size="13" font-weight="bold" lengthAdjust="spacing" textLength="7" x="59.5" y="361.9775">9</text><text fill="#000000" font-family="sans-serif" font-size="13" lengthAdjust="spacing" textLength="227" x="70.5" y="361.9775">shows list of available properties to visit</text><polygon fill="#181818" points="418,394.5313,428,398.5313,418,402.5313,422,398.5313" style="stroke:#181818;stroke-width:1.0;"/><line style="stroke:#181818;stroke-width:1.0;" x1="42.5" x2="424" y1="398.5313" y2="398.5313"/><text fill="#000000" font-family="sans-serif" font-size="13" font-weight="bold" lengthAdjust="spacing" textLength="14" x="49.5" y="393.2686">10</text><text fill="#000000" font-family="sans-serif" font-size="13" lengthAdjust="spacing" textLength="197" x="67.5" y="393.2686">chooses one property from the list</text><line style="stroke:#181818;stroke-width:1.0;stroke-dasharray:2.0,2.0;" x1="440" x2="482" y1="429.8223" y2="429.8223"/><line style="stroke:#181818;stroke-width:1.0;stroke-dasharray:2.0,2.0;" x1="482" x2="482" y1="429.8223" y2="442.8223"/><line style="stroke:#181818;stroke-width:1.0;stroke-dasharray:2.0,2.0;" x1="441" x2="482" y1="442.8223" y2="442.8223"/><polygon fill="#181818" points="451,438.8223,441,442.8223,451,446.8223,447,442.8223" style="stroke:#181818;stroke-width:1.0;"/><text fill="#000000" font-family="sans-serif" font-size="13" font-weight="bold" lengthAdjust="spacing" textLength="14" x="447" y="424.5596">11</text><text fill="#000000" font-family="sans-serif" font-size="13" lengthAdjust="spacing" textLength="85" x="465" y="424.5596">keepProperty()</text><polygon fill="#181818" points="53.5,470.1133,43.5,474.1133,53.5,478.1133,49.5,474.1133" style="stroke:#181818;stroke-width:1.0;"/><line style="stroke:#181818;stroke-width:1.0;stroke-dasharray:2.0,2.0;" x1="47.5" x2="434" y1="474.1133" y2="474.1133"/><text fill="#000000" font-family="sans-serif" font-size="13" font-weight="bold" lengthAdjust="spacing" textLength="14" x="59.5" y="468.8506">12</text><text fill="#000000" font-family="sans-serif" font-size="13" lengthAdjust="spacing" textLength="300" x="77.5" y="468.8506">asks for required data (Prefered time frame and day)</text><polygon fill="#181818" points="418,501.4043,428,505.4043,418,509.4043,422,505.4043" style="stroke:#181818;stroke-width:1.0;"/><line style="stroke:#181818;stroke-width:1.0;" x1="42.5" x2="424" y1="505.4043" y2="505.4043"/><text fill="#000000" font-family="sans-serif" font-size="13" font-weight="bold" lengthAdjust="spacing" textLength="14" x="49.5" y="500.1416">13</text><text fill="#000000" font-family="sans-serif" font-size="13" lengthAdjust="spacing" textLength="122" x="67.5" y="500.1416">types requested data</text><polygon fill="#181818" points="983,532.6953,993,536.6953,983,540.6953,987,536.6953" style="stroke:#181818;stroke-width:1.0;"/><line style="stroke:#181818;stroke-width:1.0;" x1="440" x2="989" y1="536.6953" y2="536.6953"/><text fill="#000000" font-family="sans-serif" font-size="13" font-weight="bold" lengthAdjust="spacing" textLength="14" x="447" y="531.4326">14</text><text fill="#000000" font-family="sans-serif" font-size="13" lengthAdjust="spacing" textLength="518" x="465" y="531.4326">createVisitRequest(name of the user, telephone number, property id, time frame and date)</text><polygon fill="#181818" points="1480,563.9863,1490,567.9863,1480,571.9863,1484,567.9863" style="stroke:#181818;stroke-width:1.0;"/><line style="stroke:#181818;stroke-width:1.0;" x1="1005" x2="1486" y1="567.9863" y2="567.9863"/><text fill="#000000" font-family="sans-serif" font-size="13" font-weight="bold" lengthAdjust="spacing" textLength="14" x="1012" y="562.7236">15</text><text fill="#000000" font-family="sans-serif" font-size="13" lengthAdjust="spacing" textLength="450" x="1030" y="562.7236">createVisitRequest(name, telephoneNumber, propertyID, timeFrame and date)</text><line style="stroke:#181818;stroke-width:1.0;stroke-dasharray:2.0,2.0;" x1="1502" x2="1549" y1="594.2773" y2="594.2773"/><line style="stroke:#181818;stroke-width:1.0;stroke-dasharray:2.0,2.0;" x1="1549" x2="1549" y1="594.2773" y2="607.2773"/><line style="stroke:#181818;stroke-width:1.0;stroke-dasharray:2.0,2.0;" x1="1508" x2="1549" y1="607.2773" y2="607.2773"/><polygon fill="#181818" points="1518,603.2773,1508,607.2773,1518,611.2773,1514,607.2773" style="stroke:#181818;stroke-width:1.0;"/><text fill="#000000" font-family="sans-serif" font-size="13" font-weight="bold" lengthAdjust="spacing" textLength="14" x="1514" y="589.0146">16</text><text fill="#000000" font-family="sans-serif" font-size="13" lengthAdjust="spacing" textLength="99" x="1532" y="589.0146">checkIfOverlaps()</text><path d="M10,627.2773 L71,627.2773 L71,636.5684 L61,646.5684 L10,646.5684 L10,627.2773 " fill="#EEEEEE" style="stroke:#000000;stroke-width:1.5;"/><rect fill="none" height="113.1641" style="stroke:#000000;stroke-width:1.5;" width="1543.5" x="10" y="627.2773"/><text fill="#000000" font-family="sans-serif" font-size="13" font-weight="bold" lengthAdjust="spacing" textLength="16" x="25" y="642.3057">alt</text><text fill="#000000" font-family="sans-serif" font-size="11" font-weight="bold" lengthAdjust="spacing" textLength="242" x="86" y="641.1475">[if request does overlap with existing ones]</text><polygon fill="#181818" points="1016,665.8594,1006,669.8594,1016,673.8594,1012,669.8594" style="stroke:#181818;stroke-width:1.0;"/><line style="stroke:#181818;stroke-width:1.0;stroke-dasharray:2.0,2.0;" x1="1010" x2="1491" y1="669.8594" y2="669.8594"/><text fill="#000000" font-family="sans-serif" font-size="13" font-weight="bold" lengthAdjust="spacing" textLength="14" x="1022" y="664.5967">17</text><text fill="#000000" font-family="sans-serif" font-size="13" lengthAdjust="spacing" textLength="82" x="1040" y="664.5967">invalid request</text><polygon fill="#181818" points="451,697.1504,441,701.1504,451,705.1504,447,701.1504" style="stroke:#181818;stroke-width:1.0;"/><line style="stroke:#181818;stroke-width:1.0;stroke-dasharray:2.0,2.0;" x1="445" x2="999" y1="701.1504" y2="701.1504"/><text fill="#000000" font-family="sans-serif" font-size="13" font-weight="bold" lengthAdjust="spacing" textLength="14" x="457" y="695.8877">18</text><text fill="#000000" font-family="sans-serif" font-size="13" lengthAdjust="spacing" textLength="82" x="475" y="695.8877">invalid request</text><polygon fill="#181818" points="53.5,728.4414,43.5,732.4414,53.5,736.4414,49.5,732.4414" style="stroke:#181818;stroke-width:1.0;"/><line style="stroke:#181818;stroke-width:1.0;stroke-dasharray:2.0,2.0;" x1="47.5" x2="429" y1="732.4414" y2="732.4414"/><text fill="#000000" font-family="sans-serif" font-size="13" font-weight="bold" lengthAdjust="spacing" textLength="14" x="59.5" y="727.1787">19</text><text fill="#000000" font-family="sans-serif" font-size="13" lengthAdjust="spacing" textLength="219" x="77.5" y="727.1787">informs user that the request is invalid</text><path d="M10,754.4414 L71,754.4414 L71,763.7324 L61,773.7324 L10,773.7324 L10,754.4414 " fill="#EEEEEE" style="stroke:#000000;stroke-width:1.5;"/><rect fill="none" height="238.3281" style="stroke:#000000;stroke-width:1.5;" width="2160.5" x="10" y="754.4414"/><text fill="#000000" font-family="sans-serif" font-size="13" font-weight="bold" lengthAdjust="spacing" textLength="16" x="25" y="769.4697">alt</text><text fill="#000000" font-family="sans-serif" font-size="11" font-weight="bold" lengthAdjust="spacing" textLength="256" x="86" y="768.3115">[if request doesn't overlap with existing ones]</text><polygon fill="#181818" points="1011,793.0234,1001,797.0234,1011,801.0234,1007,797.0234" style="stroke:#181818;stroke-width:1.0;"/><line style="stroke:#181818;stroke-width:1.0;stroke-dasharray:2.0,2.0;" x1="1005" x2="1496" y1="797.0234" y2="797.0234"/><text fill="#000000" font-family="sans-serif" font-size="13" font-weight="bold" lengthAdjust="spacing" textLength="14" x="1017" y="791.7607">20</text><text fill="#000000" font-family="sans-serif" font-size="13" lengthAdjust="spacing" textLength="100" x="1035" y="791.7607">getVisitRequest()</text><polygon fill="#181818" points="1621,824.3145,1631,828.3145,1621,832.3145,1625,828.3145" style="stroke:#181818;stroke-width:1.0;"/><line style="stroke:#181818;stroke-width:1.0;" x1="1000" x2="1627" y1="828.3145" y2="828.3145"/><text fill="#000000" font-family="sans-serif" font-size="13" font-weight="bold" lengthAdjust="spacing" textLength="14" x="1007" y="823.0518">21</text><text fill="#000000" font-family="sans-serif" font-size="13" lengthAdjust="spacing" textLength="70" x="1025" y="823.0518">visitRequest</text><polygon fill="#181818" points="1918.5,855.6055,1928.5,859.6055,1918.5,863.6055,1922.5,859.6055" style="stroke:#181818;stroke-width:1.0;"/><line style="stroke:#181818;stroke-width:1.0;" x1="1643" x2="1924.5" y1="859.6055" y2="859.6055"/><text fill="#000000" font-family="sans-serif" font-size="13" font-weight="bold" lengthAdjust="spacing" textLength="14" x="1650" y="854.3428">22</text><text fill="#000000" font-family="sans-serif" font-size="13" lengthAdjust="spacing" textLength="70" x="1668" y="854.3428">visitRequest</text><polygon fill="#181818" points="2063,886.8965,2073,890.8965,2063,894.8965,2067,890.8965" style="stroke:#181818;stroke-width:1.0;"/><line style="stroke:#181818;stroke-width:1.0;" x1="1940.5" x2="2069" y1="890.8965" y2="890.8965"/><text fill="#000000" font-family="sans-serif" font-size="13" font-weight="bold" lengthAdjust="spacing" textLength="14" x="1947.5" y="885.6338">23</text><text fill="#000000" font-family="sans-serif" font-size="13" lengthAdjust="spacing" textLength="70" x="1965.5" y="885.6338">visitRequest</text><polygon fill="#181818" points="1011,918.1875,1001,922.1875,1011,926.1875,1007,922.1875" style="stroke:#181818;stroke-width:1.0;"/><line style="stroke:#181818;stroke-width:1.0;stroke-dasharray:2.0,2.0;" x1="1005" x2="2079" y1="922.1875" y2="922.1875"/><text fill="#000000" font-family="sans-serif" font-size="13" font-weight="bold" lengthAdjust="spacing" textLength="14" x="1017" y="916.9248">24</text><text fill="#000000" font-family="sans-serif" font-size="13" lengthAdjust="spacing" textLength="70" x="1035" y="916.9248">visitRequest</text><polygon fill="#181818" points="451,949.4785,441,953.4785,451,957.4785,447,953.4785" style="stroke:#181818;stroke-width:1.0;"/><line style="stroke:#181818;stroke-width:1.0;stroke-dasharray:2.0,2.0;" x1="445" x2="999" y1="953.4785" y2="953.4785"/><text fill="#000000" font-family="sans-serif" font-size="13" font-weight="bold" lengthAdjust="spacing" textLength="14" x="457" y="948.2158">25</text><text fill="#000000" font-family="sans-serif" font-size="13" lengthAdjust="spacing" textLength="98" x="475" y="948.2158">succefull request</text><polygon fill="#181818" points="53.5,980.7695,43.5,984.7695,53.5,988.7695,49.5,984.7695" style="stroke:#181818;stroke-width:1.0;"/><line style="stroke:#181818;stroke-width:1.0;stroke-dasharray:2.0,2.0;" x1="47.5" x2="429" y1="984.7695" y2="984.7695"/><text fill="#000000" font-family="sans-serif" font-size="13" font-weight="bold" lengthAdjust="spacing" textLength="14" x="59.5" y="979.5068">26</text><text fill="#000000" font-family="sans-serif" font-size="13" lengthAdjust="spacing" textLength="187" x="77.5" y="979.5068">informs user of succefull request</text><!--SRC=[hLRBRjim4BphA_OM1qWEzJ670aQI0WQ2Dd0QtnbfPH6cIPMaxEZlkzJBr8EM6vG70pQ7CylTsQNDdikSQNQ0Wv8gphGw85XTO6IwdPp5UxR3DriA18snPN8dV839MA9ENEuWPS9W5B72AbaSFb17BBPAmxj13Sp0-zlp9g93biSyPzB24pUvOEMhLZbgMxwlAzJwMm-qvORR3VufqDWMiGmY7fMqMWbHApx-thm4eGwmxGUqmLmHG6cEncrldbzx-oifLI5ZFA2q7RPqoDKGsYZvc6q0KqKpX3giMvH2VcGMw-n5xXFklxiimGCXzmQiWbYZWqWymT5nKg4gqYW2McSAIctrYrkEWOXSYeXfEeUBspE-OwcI6g3PeMsh-SADzS-xLQ48JPUR1tU2LIfWi1m5CQskekhHhIRvtAh8xhluSeznV2316SQMh4bDcCrZ6X7L6UiAFatY4KmKnnrshdcWLbKd0uBEWag17HaNx8FQkc5rfYSpLGwgEJpYpZjd1ow9CiwKCdHEoOwcX9G62TWCAwcH1vT-VClcSevhZvYtLQGAZa3r9IhFfpHMdCUvnWGIPXaiNZMcwBvQJbCifT64mAJRBMydRhESkeqjSxfBqpmDyspyNONhBlGxQI5T59Hhbuo2nk0TM1IOPovTzOoyEwUD9tVZu2tEzw3VMjjDE19F_UT0VFrKQ_y8IVVaQMoEx4x2zvr-Xl5-dVuweXOiDvFjA2pmjCqr9CgPgCR3YTiCy9FCuvuLYjPCzskmnQVY2wqcxgQ6N1wPu4b_WCujprZNAdjzlVmFicC_XDQWcxYaLZgOofpaKcOhgxPLuQQDR9ORPH9TLMLvOxzKw7wTQE3tx7qRVR4m_IVfw75Euo-_IeFNQNijwy2zbwZhNBJy_o8m49bLgPK6pzZrKhtaNnJh8KF0IwzaeAjC4SUO5aA4-sgsXoxr2mtsAoJ6dH6mvMGimqVB_rxz8xp9U49FXbBsGtr6Vm40]--></g></svg>