<?xml version="1.0" encoding="us-ascii" standalone="no"?><svg xmlns="http://www.w3.org/2000/svg" xmlns:xlink="http://www.w3.org/1999/xlink" contentStyleType="text/css" height="794.4px" preserveAspectRatio="none" style="width:1179px;height:794px;background:#FFFFFF;" version="1.1" viewBox="0 0 1179 794" width="1179.6px" zoomAndPan="magnify"><defs/><g><text fill="#000000" font-family="sans-serif" font-size="8.4" font-weight="bold" lengthAdjust="spacing" textLength="93.6" x="538.95" y="15.0645">Domain Model - US009</text><!--class User--><g id="elem_User"><rect codeLine="18" fill="#F1F1F1" height="66.6633" id="User" rx="1.5" ry="1.5" style="stroke:#181818;stroke-width:0.3;" width="74.4" x="335.4" y="27.9727"/><text fill="#000000" font-family="sans-serif" font-size="8.4" lengthAdjust="spacing" textLength="17.4" x="363.9" y="40.0371">User</text><line style="stroke:#181818;stroke-width:0.3;" x1="336" x2="409.2" y1="45.1453" y2="45.1453"/><text fill="#000000" font-family="sans-serif" font-size="8.4" lengthAdjust="spacing" textLength="21" x="339" y="56.6098">name</text><text fill="#000000" font-family="sans-serif" font-size="8.4" lengthAdjust="spacing" textLength="51" x="339" y="67.7824">emailAddress</text><text fill="#000000" font-family="sans-serif" font-size="8.4" lengthAdjust="spacing" textLength="36" x="339" y="78.9551">password</text><text fill="#000000" font-family="sans-serif" font-size="8.4" lengthAdjust="spacing" textLength="67.2" x="339" y="90.1277">telephoneNumber</text></g><!--class AnnouncementRepository--><g id="elem_AnnouncementRepository"><rect codeLine="27" fill="#F1F1F1" height="21.9727" id="AnnouncementRepository" rx="1.5" ry="1.5" style="stroke:#181818;stroke-width:0.3;" width="101.4" x="165.9" y="278.1727"/><text fill="#000000" font-family="sans-serif" font-size="8.4" lengthAdjust="spacing" textLength="97.8" x="167.7" y="290.2371">AnnouncementRepository</text><line style="stroke:#181818;stroke-width:0.3;" x1="166.5" x2="266.7" y1="295.3453" y2="295.3453"/></g><!--class VisitsRequestRepository--><g id="elem_VisitsRequestRepository"><rect codeLine="31" fill="#F1F1F1" height="21.9727" id="VisitsRequestRepository" rx="1.5" ry="1.5" style="stroke:#181818;stroke-width:0.3;" width="96" x="586.2" y="556.8727"/><text fill="#000000" font-family="sans-serif" font-size="8.4" lengthAdjust="spacing" textLength="92.4" x="588" y="568.9371">VisitsRequestRepository</text><line style="stroke:#181818;stroke-width:0.3;" x1="586.8" x2="681.6" y1="574.0453" y2="574.0453"/></g><!--class VisitRequest--><g id="elem_VisitRequest"><rect codeLine="35" fill="#F1F1F1" height="66.6633" id="VisitRequest" rx="1.5" ry="1.5" style="stroke:#181818;stroke-width:0.3;" width="74.4" x="597" y="255.9727"/><text fill="#000000" font-family="sans-serif" font-size="8.4" lengthAdjust="spacing" textLength="47.4" x="610.5" y="268.0371">VisitRequest</text><line style="stroke:#181818;stroke-width:0.3;" x1="597.6" x2="670.8" y1="273.1453" y2="273.1453"/><text fill="#000000" font-family="sans-serif" font-size="8.4" lengthAdjust="spacing" textLength="21" x="600.6" y="284.6098">name</text><text fill="#000000" font-family="sans-serif" font-size="8.4" lengthAdjust="spacing" textLength="67.2" x="600.6" y="295.7824">telephoneNumber</text><text fill="#000000" font-family="sans-serif" font-size="8.4" lengthAdjust="spacing" textLength="16.8" x="600.6" y="306.9551">date</text><text fill="#000000" font-family="sans-serif" font-size="8.4" lengthAdjust="spacing" textLength="30" x="600.6" y="318.1277">timeSlot</text></g><!--class Repositories--><g id="elem_Repositories"><rect codeLine="42" fill="#F1F1F1" height="21.9727" id="Repositories" rx="1.5" ry="1.5" style="stroke:#181818;stroke-width:0.3;" width="51" x="492.9" y="556.8727"/><text fill="#000000" font-family="sans-serif" font-size="8.4" lengthAdjust="spacing" textLength="47.4" x="494.7" y="568.9371">Repositories</text><line style="stroke:#181818;stroke-width:0.3;" x1="493.5" x2="543.3" y1="574.0453" y2="574.0453"/></g><!--class PassportCard--><g id="elem_PassportCard"><rect codeLine="46" fill="#F1F1F1" height="33.1453" id="PassportCard" rx="1.5" ry="1.5" style="stroke:#181818;stroke-width:0.3;" width="88.2" x="895.5" y="551.4727"/><text fill="#000000" font-family="sans-serif" font-size="8.4" lengthAdjust="spacing" textLength="52.2" x="913.5" y="563.5371">PassportCard</text><line style="stroke:#181818;stroke-width:0.3;" x1="896.1" x2="983.1" y1="568.6453" y2="568.6453"/><text fill="#000000" font-family="sans-serif" font-size="8.4" lengthAdjust="spacing" textLength="81" x="899.1" y="580.1098">passportCardNumber</text></g><!--class Address--><g id="elem_Address"><rect codeLine="50" fill="#F1F1F1" height="77.8359" id="Address" rx="1.5" ry="1.5" style="stroke:#181818;stroke-width:0.3;" width="37.8" x="1068.3" y="528.9727"/><text fill="#000000" font-family="sans-serif" font-size="8.4" lengthAdjust="spacing" textLength="31.2" x="1071.6" y="541.0371">Address</text><line style="stroke:#181818;stroke-width:0.3;" x1="1068.9" x2="1105.5" y1="546.1453" y2="546.1453"/><text fill="#000000" font-family="sans-serif" font-size="8.4" lengthAdjust="spacing" textLength="21.6" x="1071.9" y="557.6098">street</text><text fill="#000000" font-family="sans-serif" font-size="8.4" lengthAdjust="spacing" textLength="12.6" x="1071.9" y="568.7824">city</text><text fill="#000000" font-family="sans-serif" font-size="8.4" lengthAdjust="spacing" textLength="24.6" x="1071.9" y="579.9551">district</text><text fill="#000000" font-family="sans-serif" font-size="8.4" lengthAdjust="spacing" textLength="18.6" x="1071.9" y="591.1277">state</text><text fill="#000000" font-family="sans-serif" font-size="8.4" lengthAdjust="spacing" textLength="30.6" x="1071.9" y="602.3004">zipCode</text></g><!--class Property--><g id="elem_Property"><rect codeLine="60" fill="#F1F1F1" height="111.3539" id="Property" rx="1.5" ry="1.5" style="stroke:#181818;stroke-width:0.3;" width="84.6" x="762.3" y="369.9727"/><text fill="#000000" font-family="sans-serif" font-size="8.4" lengthAdjust="spacing" textLength="32.4" x="788.4" y="382.0371">Property</text><line style="stroke:#181818;stroke-width:0.3;" x1="762.9" x2="846.3" y1="387.1453" y2="387.1453"/><text fill="#000000" font-family="sans-serif" font-size="8.4" lengthAdjust="spacing" textLength="51" x="765.9" y="398.6098">propertyType</text><text fill="#000000" font-family="sans-serif" font-size="8.4" lengthAdjust="spacing" textLength="58.8" x="765.9" y="409.7824">areaOfProperty</text><text fill="#000000" font-family="sans-serif" font-size="8.4" lengthAdjust="spacing" textLength="77.4" x="765.9" y="420.9551">distanceFromCentre</text><text fill="#000000" font-family="sans-serif" font-size="8.4" lengthAdjust="spacing" textLength="70.2" x="765.9" y="432.1277">dateOfAcceptance</text><text fill="#000000" font-family="sans-serif" font-size="8.4" lengthAdjust="spacing" textLength="57.6" x="765.9" y="443.3004">dateOfRequest</text><text fill="#000000" font-family="sans-serif" font-size="8.4" lengthAdjust="spacing" textLength="2.4" x="765.9" y="454.473">&#160;</text><text fill="#000000" font-family="sans-serif" font-size="8.4" lengthAdjust="spacing" textLength="22.2" x="765.9" y="465.6457">Photo</text><text fill="#000000" font-family="sans-serif" font-size="8.4" lengthAdjust="spacing" textLength="45" x="765.9" y="476.8184">Transaction</text></g><!--class Building--><g id="elem_Building"><rect codeLine="72" fill="#F1F1F1" height="77.8359" id="Building" rx="1.5" ry="1.5" style="stroke:#181818;stroke-width:0.3;" width="81" x="703.5" y="528.9727"/><text fill="#000000" font-family="sans-serif" font-size="8.4" lengthAdjust="spacing" textLength="30" x="729" y="541.0371">Building</text><line style="stroke:#181818;stroke-width:0.3;" x1="704.1" x2="783.9" y1="546.1453" y2="546.1453"/><text fill="#000000" font-family="sans-serif" font-size="8.4" lengthAdjust="spacing" textLength="37.8" x="707.1" y="557.6098">bedrooms</text><text fill="#000000" font-family="sans-serif" font-size="8.4" lengthAdjust="spacing" textLength="40.2" x="707.1" y="568.7824">bathrooms</text><text fill="#000000" font-family="sans-serif" font-size="8.4" lengthAdjust="spacing" textLength="56.4" x="707.1" y="579.9551">parkingSpaces</text><text fill="#000000" font-family="sans-serif" font-size="8.4" lengthAdjust="spacing" textLength="73.8" x="707.1" y="591.1277">availableEquipment</text><text fill="#000000" font-family="sans-serif" font-size="8.4" lengthAdjust="spacing" textLength="39.6" x="707.1" y="602.3004">equipment</text></g><!--class House--><g id="elem_House"><rect codeLine="80" fill="#F1F1F1" height="55.4906" id="House" rx="1.5" ry="1.5" style="stroke:#181818;stroke-width:0.3;" width="56.4" x="675" y="660.0727"/><text fill="#000000" font-family="sans-serif" font-size="8.4" lengthAdjust="spacing" textLength="24" x="691.2" y="672.1371">House</text><line style="stroke:#181818;stroke-width:0.3;" x1="675.6" x2="730.8" y1="677.2453" y2="677.2453"/><text fill="#000000" font-family="sans-serif" font-size="8.4" lengthAdjust="spacing" textLength="37.2" x="678.6" y="688.7098">basement</text><text fill="#000000" font-family="sans-serif" font-size="8.4" lengthAdjust="spacing" textLength="11.4" x="678.6" y="699.8824">loft</text><text fill="#000000" font-family="sans-serif" font-size="8.4" lengthAdjust="spacing" textLength="49.2" x="678.6" y="711.0551">sunExposure</text></g><!--class Employee--><g id="elem_Employee"><rect codeLine="86" fill="#F1F1F1" height="33.1453" id="Employee" rx="1.5" ry="1.5" style="stroke:#181818;stroke-width:0.3;" width="40.8" x="393" y="757.5727"/><text fill="#000000" font-family="sans-serif" font-size="8.4" lengthAdjust="spacing" textLength="37.2" x="394.8" y="769.6371">Employee</text><line style="stroke:#181818;stroke-width:0.3;" x1="393.6" x2="433.2" y1="774.7453" y2="774.7453"/><text fill="#000000" font-family="sans-serif" font-size="8.4" lengthAdjust="spacing" textLength="27.6" x="396.6" y="786.2098">agency</text></g><!--class Equipment--><g id="elem_Equipment"><rect codeLine="90" fill="#F1F1F1" height="44.318" id="Equipment" rx="1.5" ry="1.5" style="stroke:#181818;stroke-width:0.3;" width="64.2" x="752.7" y="665.4727"/><text fill="#000000" font-family="sans-serif" font-size="8.4" lengthAdjust="spacing" textLength="40.2" x="764.7" y="677.5371">Equipment</text><line style="stroke:#181818;stroke-width:0.3;" x1="753.3" x2="816.3" y1="682.6453" y2="682.6453"/><text fill="#000000" font-family="sans-serif" font-size="8.4" lengthAdjust="spacing" textLength="54.6" x="756.3" y="694.1098">centralHeating</text><text fill="#000000" font-family="sans-serif" font-size="8.4" lengthAdjust="spacing" textLength="57" x="756.3" y="705.2824">airConditioning</text></g><!--class Commission--><g id="elem_Commission"><rect codeLine="96" fill="#F1F1F1" height="44.318" id="Commission" rx="1.5" ry="1.5" style="stroke:#181818;stroke-width:0.3;" width="72.6" x="287.7" y="153.0727"/><text fill="#000000" font-family="sans-serif" font-size="8.4" lengthAdjust="spacing" textLength="45.6" x="301.2" y="165.1371">Commission</text><line style="stroke:#181818;stroke-width:0.3;" x1="288.3" x2="359.7" y1="170.2453" y2="170.2453"/><text fill="#000000" font-family="sans-serif" font-size="8.4" lengthAdjust="spacing" textLength="63" x="291.3" y="181.7098">commissionType</text><text fill="#000000" font-family="sans-serif" font-size="8.4" lengthAdjust="spacing" textLength="65.4" x="291.3" y="192.8824">commissionValue</text></g><!--class Photo--><g id="elem_Photo"><rect codeLine="101" fill="#F1F1F1" height="55.4906" id="Photo" rx="1.5" ry="1.5" style="stroke:#181818;stroke-width:0.3;" width="42" x="1005" y="540.3727"/><text fill="#000000" font-family="sans-serif" font-size="8.4" lengthAdjust="spacing" textLength="22.2" x="1014.9" y="552.4371">Photo</text><line style="stroke:#181818;stroke-width:0.3;" x1="1005.6" x2="1046.4" y1="557.5453" y2="557.5453"/><text fill="#000000" font-family="sans-serif" font-size="8.4" lengthAdjust="spacing" textLength="34.8" x="1008.6" y="569.0098">photoURI</text><text fill="#000000" font-family="sans-serif" font-size="8.4" lengthAdjust="spacing" textLength="29.4" x="1008.6" y="580.1824">photoID</text><text fill="#000000" font-family="sans-serif" font-size="8.4" lengthAdjust="spacing" textLength="34.8" x="1008.6" y="591.3551">photoList</text></g><!--class Transaction--><g id="elem_Transaction"><rect codeLine="107" fill="#F1F1F1" height="44.318" id="Transaction" rx="1.5" ry="1.5" style="stroke:#181818;stroke-width:0.3;" width="68.4" x="805.8" y="545.7727"/><text fill="#000000" font-family="sans-serif" font-size="8.4" lengthAdjust="spacing" textLength="45" x="817.5" y="557.8371">Transaction</text><line style="stroke:#181818;stroke-width:0.3;" x1="806.4" x2="873.6" y1="562.9453" y2="562.9453"/><text fill="#000000" font-family="sans-serif" font-size="8.4" lengthAdjust="spacing" textLength="61.2" x="809.4" y="574.4098">transactionType</text><text fill="#000000" font-family="sans-serif" font-size="8.4" lengthAdjust="spacing" textLength="57" x="809.4" y="585.5824">monetaryValue</text></g><!--class Request--><g id="elem_Request"><rect codeLine="112" fill="#F1F1F1" height="44.318" id="Request" rx="1.5" ry="1.5" style="stroke:#181818;stroke-width:0.3;" width="54" x="343.8" y="403.5727"/><text fill="#000000" font-family="sans-serif" font-size="8.4" lengthAdjust="spacing" textLength="31.8" x="354.9" y="415.6371">Request</text><line style="stroke:#181818;stroke-width:0.3;" x1="344.4" x2="397.2" y1="420.7453" y2="420.7453"/><text fill="#000000" font-family="sans-serif" font-size="8.4" lengthAdjust="spacing" textLength="6.6" x="347.4" y="432.2098">id</text><text fill="#000000" font-family="sans-serif" font-size="8.4" lengthAdjust="spacing" textLength="46.8" x="347.4" y="443.3824">requestDate</text></g><!--class Agency--><g id="elem_Agency"><rect codeLine="118" fill="#F1F1F1" height="66.6633" id="Agency" rx="1.5" ry="1.5" style="stroke:#181818;stroke-width:0.3;" width="74.4" x="4.2" y="141.9727"/><text fill="#000000" font-family="sans-serif" font-size="8.4" lengthAdjust="spacing" textLength="28.2" x="27.3" y="154.0371">Agency</text><line style="stroke:#181818;stroke-width:0.3;" x1="4.8" x2="78" y1="159.1453" y2="159.1453"/><text fill="#000000" font-family="sans-serif" font-size="8.4" lengthAdjust="spacing" textLength="35.4" x="7.8" y="170.6098">agencyID</text><text fill="#000000" font-family="sans-serif" font-size="8.4" lengthAdjust="spacing" textLength="21" x="7.8" y="181.7824">name</text><text fill="#000000" font-family="sans-serif" font-size="8.4" lengthAdjust="spacing" textLength="19.8" x="7.8" y="192.9551">email</text><text fill="#000000" font-family="sans-serif" font-size="8.4" lengthAdjust="spacing" textLength="67.2" x="7.8" y="204.1277">telephoneNumber</text></g><!--class Person--><g id="elem_Person"><rect codeLine="126" fill="#F1F1F1" height="66.6633" id="Person" rx="1.5" ry="1.5" style="stroke:#181818;stroke-width:0.3;" width="74.4" x="962.4" y="654.3727"/><text fill="#000000" font-family="sans-serif" font-size="8.4" lengthAdjust="spacing" textLength="27" x="986.1" y="666.4371">Person</text><line style="stroke:#181818;stroke-width:0.3;" x1="963" x2="1036.2" y1="671.5453" y2="671.5453"/><text fill="#000000" font-family="sans-serif" font-size="8.4" lengthAdjust="spacing" textLength="21" x="966" y="683.0098">name</text><text fill="#000000" font-family="sans-serif" font-size="8.4" lengthAdjust="spacing" textLength="40.2" x="966" y="694.1824">taxNumber</text><text fill="#000000" font-family="sans-serif" font-size="8.4" lengthAdjust="spacing" textLength="51" x="966" y="705.3551">emailAddress</text><text fill="#000000" font-family="sans-serif" font-size="8.4" lengthAdjust="spacing" textLength="67.2" x="966" y="716.5277">telephoneNumber</text></g><!--class Role--><g id="elem_Role"><rect codeLine="133" fill="#F1F1F1" height="44.318" id="Role" rx="1.5" ry="1.5" style="stroke:#181818;stroke-width:0.3;" width="48.6" x="1127.1" y="545.7727"/><text fill="#000000" font-family="sans-serif" font-size="8.4" lengthAdjust="spacing" textLength="17.4" x="1142.7" y="557.8371">Role</text><line style="stroke:#181818;stroke-width:0.3;" x1="1127.7" x2="1175.1" y1="562.9453" y2="562.9453"/><text fill="#000000" font-family="sans-serif" font-size="8.4" lengthAdjust="spacing" textLength="6.6" x="1130.7" y="574.4098">id</text><text fill="#000000" font-family="sans-serif" font-size="8.4" lengthAdjust="spacing" textLength="41.4" x="1130.7" y="585.5824">description</text></g><!--class Announcement--><g id="elem_Announcement"><rect codeLine="140" fill="#F1F1F1" height="44.318" id="Announcement" rx="1.5" ry="1.5" style="stroke:#181818;stroke-width:0.3;" width="69" x="453.9" y="153.0727"/><text fill="#000000" font-family="sans-serif" font-size="8.4" lengthAdjust="spacing" textLength="57" x="459.9" y="165.1371">Announcement</text><line style="stroke:#181818;stroke-width:0.3;" x1="454.5" x2="522.3" y1="170.2453" y2="170.2453"/><text fill="#000000" font-family="sans-serif" font-size="8.4" lengthAdjust="spacing" textLength="6.6" x="457.5" y="181.7098">id</text><text fill="#000000" font-family="sans-serif" font-size="8.4" lengthAdjust="spacing" textLength="61.8" x="457.5" y="192.8824">acceptanceDate</text></g><!--class Agent--><g id="elem_Agent"><rect fill="#F1F1F1" height="21.9727" id="Agent" rx="1.5" ry="1.5" style="stroke:#181818;stroke-width:0.3;" width="25.8" x="419.7" y="278.1727"/><text fill="#000000" font-family="sans-serif" font-size="8.4" lengthAdjust="spacing" textLength="22.2" x="421.5" y="290.2371">Agent</text><line style="stroke:#181818;stroke-width:0.3;" x1="420.3" x2="444.9" y1="295.3453" y2="295.3453"/></g><!--class StoreManager--><g id="elem_StoreManager"><rect fill="#F1F1F1" height="21.9727" id="StoreManager" rx="1.5" ry="1.5" style="stroke:#181818;stroke-width:0.3;" width="57.6" x="5.4" y="50.1727"/><text fill="#000000" font-family="sans-serif" font-size="8.4" lengthAdjust="spacing" textLength="54" x="7.2" y="62.2371">StoreManager</text><line style="stroke:#181818;stroke-width:0.3;" x1="6" x2="62.4" y1="67.3453" y2="67.3453"/></g><!--reverse link Property to Building--><g id="link_Property_Building"><path d="M776.07,492.7567 C770.736,505.1707 765.324,517.7527 760.506,528.9607 " fill="none" id="Property-backto-Building" style="stroke:#181818;stroke-width:0.6;"/><polygon fill="none" points="772.224,491.0587,780.822,481.6927,779.946,494.3767,772.224,491.0587" style="stroke:#181818;stroke-width:0.6;"/></g><!--reverse link Building to House--><g id="link_Building_House"><path d="M726.81,618.5047 C721.908,632.7427 716.748,647.7247 712.512,660.0367 " fill="none" id="Building-backto-House" style="stroke:#181818;stroke-width:0.6;"/><polygon fill="none" points="722.874,617.0227,730.752,607.0447,730.818,619.7587,722.874,617.0227" style="stroke:#181818;stroke-width:0.6;"/></g><!--link VisitRequest to Property--><g id="link_VisitRequest_Property"><path codeLine="144" d="M671.598,319.5667 C698.34,340.8007 734.376,369.4147 762.198,391.5007 " fill="none" id="VisitRequest-Property" style="stroke:#181818;stroke-width:0.6;"/><polygon fill="#000000" points="709.8505,344.4945,713.0043,349.2501,715.1973,346.4881,709.8505,344.4945" style="stroke:#000000;stroke-width:0.6;"/><text fill="#000000" font-family="sans-serif" font-size="7.8" lengthAdjust="spacing" textLength="43.2" x="717.6" y="349.5896">has property</text><text fill="#000000" font-family="sans-serif" font-size="7.8" lengthAdjust="spacing" textLength="14.4" x="676.1972" y="320.3875">1...*</text><text fill="#000000" font-family="sans-serif" font-size="7.8" lengthAdjust="spacing" textLength="4.2" x="753.4087" y="385.6791">1</text></g><!--link Announcement to AnnouncementRepository--><g id="link_Announcement_AnnouncementRepository"><path codeLine="145" d="M453.876,186.3667 C430.554,193.2367 398.994,202.1047 370.8,208.5727 C327.21,218.5747 310.788,204.6607 271.8,226.5727 C249.54,239.0827 231.672,263.9767 222.768,278.1547 " fill="none" id="Announcement-AnnouncementRepository" style="stroke:#181818;stroke-width:0.6;"/><polygon fill="#000000" points="272.0119,233.4673,277.7065,233.1029,276.4048,229.8253,272.0119,233.4673" style="stroke:#000000;stroke-width:0.6;"/><text fill="#000000" font-family="sans-serif" font-size="7.8" lengthAdjust="spacing" textLength="38.4" x="280.2" y="235.5896">is stored in</text><text fill="#000000" font-family="sans-serif" font-size="7.8" lengthAdjust="spacing" textLength="14.4" x="434.6517" y="185.2915">1...*</text><text fill="#000000" font-family="sans-serif" font-size="7.8" lengthAdjust="spacing" textLength="4.2" x="219.8138" y="271.4664">1</text></g><!--link Agent to Employee--><g id="link_Agent_Employee"><path codeLine="146" d="M432.18,300.4207 C429.708,362.6527 417.048,681.6067 414.042,757.3327 " fill="none" id="Agent-Employee" style="stroke:#181818;stroke-width:0.6;"/><polygon fill="#000000" points="426.481,571.0576,428.4582,565.7048,424.9343,565.5649,426.481,571.0576" style="stroke:#000000;stroke-width:0.6;"/><text fill="#000000" font-family="sans-serif" font-size="7.8" lengthAdjust="spacing" textLength="49.2" x="432" y="571.2896">represented in</text></g><!--link Agency to Announcement--><g id="link_Agency_Announcement"><path codeLine="147" d="M57.024,141.9547 C62.538,133.8247 69.588,126.1567 78.3,121.5727 C104.022,108.0367 114.66,120.2707 143.7,121.5727 C244.938,126.1087 271.146,123.5527 370.8,141.9727 C399.18,147.2167 430.596,156.2887 453.81,163.6387 " fill="none" id="Agency-Announcement" style="stroke:#181818;stroke-width:0.6;"/><polygon fill="#000000" points="84.2955,118.5237,78.9728,116.4668,78.7803,119.9883,84.2955,118.5237" style="stroke:#000000;stroke-width:0.6;"/><text fill="#000000" font-family="sans-serif" font-size="7.8" lengthAdjust="spacing" textLength="56.4" x="86.7" y="121.5896">wants to publish</text><text fill="#000000" font-family="sans-serif" font-size="7.8" lengthAdjust="spacing" textLength="4.2" x="54.5568" y="135.2565">1</text><text fill="#000000" font-family="sans-serif" font-size="7.8" lengthAdjust="spacing" textLength="7.8" x="441.319" y="159.8318">..*</text></g><!--link Announcement to Request--><g id="link_Announcement_Request"><path codeLine="148" d="M453.726,196.0687 C431.988,210.3247 404.898,231.2467 387.6,255.9727 C362.106,292.4107 355.968,307.6387 359.4,351.9727 C360.75,369.4147 363.882,388.9807 366.522,403.4947 " fill="none" id="Announcement-Request" style="stroke:#181818;stroke-width:0.6;"/><polygon fill="#000000" points="389.4373,292.1255,393.1662,287.806,389.9151,286.4392,389.4373,292.1255" style="stroke:#000000;stroke-width:0.6;"/><text fill="#000000" font-family="sans-serif" font-size="7.8" lengthAdjust="spacing" textLength="12.6" x="396" y="292.5896">of a</text><text fill="#000000" font-family="sans-serif" font-size="7.8" lengthAdjust="spacing" textLength="4.2" x="444.8143" y="196.3131">1</text></g><!--link Property to Address--><g id="link_Property_Address"><path codeLine="149" d="M847.086,432.9547 C913.5,444.0667 1037.532,468.4207 1068.6,499.5727 C1076.4,507.3967 1081.008,518.1607 1083.708,528.8107 " fill="none" id="Property-Address" style="stroke:#181818;stroke-width:0.6;"/><text fill="#000000" font-family="sans-serif" font-size="7.8" lengthAdjust="spacing" textLength="21.6" x="1077" y="508.5896">stores</text><text fill="#000000" font-family="sans-serif" font-size="7.8" lengthAdjust="spacing" textLength="4.2" x="851.6839" y="431.408">1</text><text fill="#000000" font-family="sans-serif" font-size="7.8" lengthAdjust="spacing" textLength="4.2" x="1078.8964" y="522.205">1</text></g><!--link Address to Property--><g id="link_Address_Property"><path codeLine="165" d="M1068.276,538.8667 C1065.072,535.2367 1061.55,531.8047 1057.8,528.9727 C1040.412,515.8447 1031.766,520.5667 1012.2,510.9727 C1003.29,506.6047 1001.922,503.9167 993,499.5727 C944.256,475.8367 885.726,454.0867 846.978,440.5747 " fill="none" id="Address-Property" style="stroke:#181818;stroke-width:0.6;"/><polygon fill="#000000" points="1017.9417,506.5777,1013.6977,502.7632,1012.2661,505.9863,1017.9417,506.5777" style="stroke:#000000;stroke-width:0.6;"/><text fill="#000000" font-family="sans-serif" font-size="7.8" lengthAdjust="spacing" textLength="42.6" x="1020.6" y="508.5896">has address</text><text fill="#000000" font-family="sans-serif" font-size="7.8" lengthAdjust="spacing" textLength="4.2" x="1059.2142" y="529.2127">1</text><text fill="#000000" font-family="sans-serif" font-size="7.8" lengthAdjust="spacing" textLength="4.2" x="851.5648" y="439.8139">1</text></g><!--link StoreManager to Agency--><g id="link_StoreManager_Agency"><path codeLine="150" d="M33.144,72.4447 C32.082,84.8167 30.81,105.9247 32.4,123.9727 C32.91,129.7627 33.738,135.8767 34.698,141.7867 " fill="none" id="StoreManager-Agency" style="stroke:#181818;stroke-width:0.6;"/><polygon fill="#000000" points="35.4672,121.3592,37.1085,115.894,33.5827,115.973,35.4672,121.3592" style="stroke:#000000;stroke-width:0.6;"/><text fill="#000000" font-family="sans-serif" font-size="7.8" lengthAdjust="spacing" textLength="31.8" x="40.8" y="121.5896">manages</text></g><!--link Agency to Employee--><g id="link_Agency_Employee"><path codeLine="151" d="M58.092,208.7767 C67.746,230.8087 78,260.7727 78,288.6727 C78,288.6727 78,288.6727 78,688.2727 C78,753.6067 320.106,769.4227 392.922,772.7047 " fill="none" id="Agency-Employee" style="stroke:#181818;stroke-width:0.6;"/><polygon fill="#000000" points="79.4684,502.7804,80.7229,508.3471,83.7553,506.5466,79.4684,502.7804" style="stroke:#000000;stroke-width:0.6;"/><text fill="#000000" font-family="sans-serif" font-size="7.8" lengthAdjust="spacing" textLength="52.8" x="86.4" y="508.5896">is in an agency</text><text fill="#000000" font-family="sans-serif" font-size="7.8" lengthAdjust="spacing" textLength="4.2" x="55.6704" y="221.9053">1</text><text fill="#000000" font-family="sans-serif" font-size="7.8" lengthAdjust="spacing" textLength="4.2" x="384.0653" y="769.5906">1</text></g><!--link Property to Transaction--><g id="link_Property_Transaction"><path codeLine="152" d="M818.49,481.6927 C824.106,504.0667 830.262,528.5827 834.546,545.6347 " fill="none" id="Property-Transaction" style="stroke:#181818;stroke-width:0.6;"/><polygon fill="#000000" points="829.3306,508.2696,829.7192,502.5765,826.2986,503.4354,829.3306,508.2696" style="stroke:#000000;stroke-width:0.6;"/><text fill="#000000" font-family="sans-serif" font-size="7.8" lengthAdjust="spacing" textLength="77.4" x="834" y="508.5896">has a transaction type</text><text fill="#000000" font-family="sans-serif" font-size="7.8" lengthAdjust="spacing" textLength="4.2" x="815.1558" y="494.6063">1</text><text fill="#000000" font-family="sans-serif" font-size="7.8" lengthAdjust="spacing" textLength="4.2" x="829.0004" y="538.9871">1</text></g><!--link Property to Photo--><g id="link_Property_Photo"><path codeLine="153" d="M846.996,455.4487 C873.792,473.0047 909.588,495.0007 943.2,510.9727 C964.908,521.2927 974.49,515.2207 994.2,528.9727 C998.742,532.1407 1003.002,536.1247 1006.836,540.3247 " fill="none" id="Property-Photo" style="stroke:#181818;stroke-width:0.6;"/><polygon fill="#000000" points="948.8496,506.7669,944.8834,502.6643,943.2294,505.7791,948.8496,506.7669" style="stroke:#000000;stroke-width:0.6;"/><text fill="#000000" font-family="sans-serif" font-size="7.8" lengthAdjust="spacing" textLength="38.4" x="951.6" y="508.5896">has photos</text><text fill="#000000" font-family="sans-serif" font-size="7.8" lengthAdjust="spacing" textLength="4.2" x="851.5847" y="456.2217">1</text><text fill="#000000" font-family="sans-serif" font-size="7.8" lengthAdjust="spacing" textLength="7.8" x="995.5043" y="533.5182">..*</text></g><!--link Commission to Announcement--><g id="link_Commission_Announcement"><path codeLine="154" d="M360.486,175.2727 C388.296,175.2727 426.348,175.2727 453.702,175.2727 " fill="none" id="Commission-Announcement" style="stroke:#181818;stroke-width:0.6;"/><polygon fill="#000000" points="370.8,167.86,376.2271,169.6233,376.2271,166.0966,370.8,167.86" style="stroke:#000000;stroke-width:0.6;"/><text fill="#000000" font-family="sans-serif" font-size="7.8" lengthAdjust="spacing" textLength="63.6" x="379.2" y="171.0896">has a commission</text><text fill="#000000" font-family="sans-serif" font-size="7.8" lengthAdjust="spacing" textLength="4.2" x="365.1887" y="172.8837">1</text><text fill="#000000" font-family="sans-serif" font-size="7.8" lengthAdjust="spacing" textLength="4.2" x="444.7873" y="172.8527">1</text></g><!--link Building to Equipment--><g id="link_Building_Equipment"><path codeLine="155" d="M757.248,607.0447 C763.902,626.3767 771.72,649.0807 777.324,665.3587 " fill="none" id="Building-Equipment" style="stroke:#181818;stroke-width:0.6;"/><polygon fill="#000000" points="771.3766,633.5966,771.2773,627.8911,767.9426,629.0391,771.3766,633.5966" style="stroke:#000000;stroke-width:0.6;"/><text fill="#000000" font-family="sans-serif" font-size="7.8" lengthAdjust="spacing" textLength="51" x="775.8" y="633.9896">has equipment</text><text fill="#000000" font-family="sans-serif" font-size="7.8" lengthAdjust="spacing" textLength="4.2" x="754.1976" y="620.0343">1</text><text fill="#000000" font-family="sans-serif" font-size="7.8" lengthAdjust="spacing" textLength="7.8" x="767.4976" y="658.7154">..*</text></g><!--link Role to Person--><g id="link_Role_Person"><path codeLine="156" d="M1138.614,590.1847 C1129.254,604.6267 1115.484,623.3107 1099.8,636.3727 C1081.146,651.9067 1056.936,664.3207 1036.992,672.9787 " fill="none" id="Role-Person" style="stroke:#181818;stroke-width:0.6;"/><polygon fill="#000000" points="1116.5258,628.8651,1111.2046,630.9259,1113.4322,633.66,1116.5258,628.8651" style="stroke:#000000;stroke-width:0.6;"/><text fill="#000000" font-family="sans-serif" font-size="7.8" lengthAdjust="spacing" textLength="34.2" x="1119.6" y="633.9896">has a role</text><text fill="#000000" font-family="sans-serif" font-size="7.8" lengthAdjust="spacing" textLength="4.2" x="1131.8555" y="603.318">1</text><text fill="#000000" font-family="sans-serif" font-size="7.8" lengthAdjust="spacing" textLength="4.2" x="1041.5583" y="668.9134">1</text></g><!--link PassportCard to Person--><g id="link_PassportCard_Person"><path codeLine="157" d="M941.058,584.6767 C942.858,598.9147 946.788,619.9207 955.2,636.3727 C958.344,642.5167 962.394,648.5227 966.774,654.1267 " fill="none" id="PassportCard-Person" style="stroke:#181818;stroke-width:0.6;"/><polygon fill="#000000" points="957.1583,627.9466,957.3891,633.6483,960.6964,632.4237,957.1583,627.9466" style="stroke:#000000;stroke-width:0.6;"/><text fill="#000000" font-family="sans-serif" font-size="7.8" lengthAdjust="spacing" textLength="69" x="963.6" y="633.9896">has a passport card</text><text fill="#000000" font-family="sans-serif" font-size="7.8" lengthAdjust="spacing" textLength="4.2" x="936.7176" y="597.8665">1</text><text fill="#000000" font-family="sans-serif" font-size="7.8" lengthAdjust="spacing" textLength="4.2" x="958.3174" y="647.6405">1</text></g><!--link Address to Person--><g id="link_Address_Person"><path codeLine="158" d="M1068.192,594.2827 C1055.208,611.8447 1037.892,635.2687 1023.906,654.1867 " fill="none" id="Address-Person" style="stroke:#181818;stroke-width:0.6;"/><polygon fill="#000000" points="1048.1834,628.3476,1043.5392,631.6633,1046.3751,633.7599,1048.1834,628.3476" style="stroke:#000000;stroke-width:0.6;"/><text fill="#000000" font-family="sans-serif" font-size="7.8" lengthAdjust="spacing" textLength="42.6" x="1051.8" y="633.9896">has address</text><text fill="#000000" font-family="sans-serif" font-size="7.8" lengthAdjust="spacing" textLength="4.2" x="1059.3746" y="597.1764">1</text><text fill="#000000" font-family="sans-serif" font-size="7.8" lengthAdjust="spacing" textLength="4.2" x="1022.4124" y="647.7078">1</text></g><!--link Request to Property--><g id="link_Request_Property"><path codeLine="159" d="M397.866,410.9887 C431.94,393.2947 492.828,364.6927 549,353.7727 C613.26,341.2807 633.156,349.6927 695.4,369.9727 C718.374,377.4607 742.446,389.2747 762.12,400.1107 " fill="none" id="Request-Property" style="stroke:#181818;stroke-width:0.6;"/><polygon fill="#000000" points="554.9987,346.2704,549.5214,344.6698,549.6267,348.195,554.9987,346.2704" style="stroke:#000000;stroke-width:0.6;"/><text fill="#000000" font-family="sans-serif" font-size="7.8" lengthAdjust="spacing" textLength="35.4" x="557.4" y="349.5896">listing of a</text><text fill="#000000" font-family="sans-serif" font-size="7.8" lengthAdjust="spacing" textLength="4.2" x="402.5143" y="406.0571">1</text><text fill="#000000" font-family="sans-serif" font-size="7.8" lengthAdjust="spacing" textLength="4.2" x="753.3227" y="395.177">1</text></g><!--link Person to Employee--><g id="link_Person_Employee"><path codeLine="162" d="M962.262,696.0487 C927.462,703.1347 874.062,713.5927 827.4,720.9727 C676.944,744.7747 494.376,764.8927 433.926,771.3247 " fill="none" id="Person-Employee" style="stroke:#181818;stroke-width:0.6;"/></g><!--link Agent to Request--><g id="link_Agent_Request"><path codeLine="163" d="M419.454,295.6687 C403.818,303.3727 378.498,318.6127 367.8,340.5727 C358.206,360.2587 360.798,385.6867 364.638,403.5067 " fill="none" id="Agent-Request" style="stroke:#181818;stroke-width:0.6;"/><polygon fill="#000000" points="369.4406,349.0343,373.4717,344.9954,370.3279,343.3973,369.4406,349.0343" style="stroke:#000000;stroke-width:0.6;"/><text fill="#000000" font-family="sans-serif" font-size="7.8" lengthAdjust="spacing" textLength="40.2" x="376.2" y="349.5896">assigned to</text><text fill="#000000" font-family="sans-serif" font-size="7.8" lengthAdjust="spacing" textLength="4.2" x="410.7755" y="294.3254">1</text><text fill="#000000" font-family="sans-serif" font-size="7.8" lengthAdjust="spacing" textLength="7.8" x="355.0457" y="396.8719">..*</text></g><!--link Announcement to Agent--><g id="link_Announcement_Agent"><path codeLine="164" d="M477.642,197.6227 C465.732,221.6947 447.024,259.5127 437.928,277.9087 " fill="none" id="Announcement-Agent" style="stroke:#181818;stroke-width:0.6;"/><polygon fill="#000000" points="466.9301,229.671,462.9433,233.7536,466.1045,235.3172,466.9301,229.671" style="stroke:#000000;stroke-width:0.6;"/><text fill="#000000" font-family="sans-serif" font-size="7.8" lengthAdjust="spacing" textLength="25.8" x="471" y="235.5896">creates</text><text fill="#000000" font-family="sans-serif" font-size="7.8" lengthAdjust="spacing" textLength="7.8" x="467.4143" y="210.6073">..*</text><text fill="#000000" font-family="sans-serif" font-size="7.8" lengthAdjust="spacing" textLength="4.2" x="434.6762" y="271.3484">1</text></g><!--link User to VisitRequest--><g id="link_User_VisitRequest"><path codeLine="166" d="M409.896,74.2567 C444.666,87.1507 496.56,109.9567 533.4,141.9727 C570.72,174.4027 600.762,223.6027 618.048,255.9367 " fill="none" id="User-VisitRequest" style="stroke:#181818;stroke-width:0.6;"/><polygon fill="#000000" points="594.4602,177.3327,591.531,172.4355,589.2119,175.0925,594.4602,177.3327" style="stroke:#000000;stroke-width:0.6;"/><text fill="#000000" font-family="sans-serif" font-size="7.8" lengthAdjust="spacing" textLength="25.8" x="597.6" y="178.5896">creates</text><text fill="#000000" font-family="sans-serif" font-size="7.8" lengthAdjust="spacing" textLength="4.2" x="414.6974" y="73.4413">1</text><text fill="#000000" font-family="sans-serif" font-size="7.8" lengthAdjust="spacing" textLength="14.4" x="600.656" y="249.2362">1...*</text></g><!--link User to AnnouncementRepository--><g id="link_User_AnnouncementRepository"><path codeLine="167" d="M335.34,62.9587 C283.752,66.7147 192.162,81.9967 150,141.9727 C132.978,166.1887 139.938,180.7327 150,208.5727 C160.632,237.9967 187.308,264.2347 203.49,278.1547 " fill="none" id="User-AnnouncementRepository" style="stroke:#181818;stroke-width:0.6;"/><polygon fill="#000000" points="151.4327,177.918,155.7716,174.2117,152.7644,172.3692,151.4327,177.918" style="stroke:#000000;stroke-width:0.6;"/><text fill="#000000" font-family="sans-serif" font-size="7.8" lengthAdjust="spacing" textLength="118.2" x="158.4" y="178.5896">sees and chooses a property from</text><text fill="#000000" font-family="sans-serif" font-size="7.8" lengthAdjust="spacing" textLength="4.2" x="326.343" y="60.7664">1</text><text fill="#000000" font-family="sans-serif" font-size="7.8" lengthAdjust="spacing" textLength="4.2" x="194.6319" y="271.4664">1</text></g><!--link VisitRequest to VisitsRequestRepository--><g id="link_VisitRequest_VisitsRequestRepository"><path codeLine="168" d="M634.2,322.7947 C634.2,385.2487 634.2,518.1247 634.2,556.6807 " fill="none" id="VisitRequest-VisitsRequestRepository" style="stroke:#181818;stroke-width:0.6;"/><polygon fill="#000000" points="637.2,428.86,638.9634,423.4329,635.4366,423.4329,637.2,428.86" style="stroke:#000000;stroke-width:0.6;"/><text fill="#000000" font-family="sans-serif" font-size="7.8" lengthAdjust="spacing" textLength="47.4" x="642.6" y="429.0896">gets stored in</text><text fill="#000000" font-family="sans-serif" font-size="7.8" lengthAdjust="spacing" textLength="14.4" x="618.9225" y="335.9255">1...*</text><text fill="#000000" font-family="sans-serif" font-size="7.8" lengthAdjust="spacing" textLength="4.2" x="629.3831" y="550.1415">1</text></g><!--link Repositories to VisitsRequestRepository--><g id="link_Repositories_VisitsRequestRepository"><path codeLine="169" d="M544.098,567.9727 C556.428,567.9727 571.608,567.9727 585.972,567.9727 " fill="none" id="Repositories-VisitsRequestRepository" style="stroke:#181818;stroke-width:0.6;"/><polygon fill="#000000" points="554.25,560.56,559.6771,562.3233,559.6771,558.7966,554.25,560.56" style="stroke:#000000;stroke-width:0.6;"/><text fill="#000000" font-family="sans-serif" font-size="7.8" lengthAdjust="spacing" textLength="12.6" x="562.65" y="563.7896">is a</text><text fill="#000000" font-family="sans-serif" font-size="7.8" lengthAdjust="spacing" textLength="4.2" x="548.702" y="565.3782">1</text><text fill="#000000" font-family="sans-serif" font-size="7.8" lengthAdjust="spacing" textLength="4.2" x="577.1324" y="565.738">1</text></g><!--SRC=[VLPRJzmw47xthx1uGQgqYDEt8eH45weYzOBOqdUlCvjOTUpKTWwagF_zZ2-ndOKS7XPxFDVFtunZVmarCCDwsckbUMTq3zIP4OZD9mFZlrWBEpT9e0QuOwgLjOBjMAEVX6hfWKbRdxH6ZyETwi08jE90tvDJ2GT7dQP6j9sZZV0UXLQaCkEIMNljd17xqS4Trsed_W0z9wGJ3L0k3CS4mhe7r-d64kA4m_HkTC-4ebzr0v9kwEFk_Fm38QV18RsNp1sqwUaBEQLqqu3bHWmX-EbVGgBIemM32XJ_5EiXB02TokkcCM1j40oe-QHD4pOE90oTLl1jxFTW2BgQdLqhfKUikmVb7c3GLZXjfXT2ShYV0cNs0NwFOFzF9MaS9NOSsiiQvjAXw64djIkUidy1jevmZp-3DcxBJ9Dg7ofHgIjL5P68YjOP01UMNBWffY1GAhXB2dD2VyImnOkf0RetUW3ZfZbgslwOXcZ23B3lXrahE_TS-eHStIAk1dBPtm_NdCCGZYjXmeu4qNsddGwh7uOfonBvSd4VHo4RpsLuTg2QLodkeJ5Qzv47U-QwiaFo8eNR7JOCH0dx5ud3zX9kVuzYy2o8VCgx7FQp7Ytac7CIAIIpa6sbFYHSHtNxZFSv6YXkRlj1wWaW6cBNAZvLftFSbuW5z_0n-HcOms3HH9YjLetmg7XPjjtglXVMeZW1mRCWtrOH_MHohD8AeCztxDUF3tTbStTJrb_mTejTTKN9sXL93ekZ2nmpqr7GHSk8sAicocuy9V-MDWqurPYbb9OJOBNRKv5WRCwpj2XxhfhprIHvmrtANkCuM-HUpwkL6RFGPxaNKhdr8A4d_voTdRqxePiDBayAoo_e9UsOpQr8Ql_7Lc_FDtfnHON5njS66YeKyVWw7CSpEp785Lx5W2ZWGT7XK_2AlaEGHMHlyiIKi_xj6CQz5BOxpisRplLvVNsWZEJAmddAEzu0AeKaBTdvVr-PmjitNYbbSq7x8BFqQf5Wz9BB2Q1XnVZoC3LttLjnQpvV19XPpMZgaD8OwfLfW2CsKJGBlHAoUeM0VrzZjAfbvs2bGz4sZxf5c3maab4ULcWHI5dLaoW_UpV- -98idfDrxVc9eTphNPBvKbOjqlabAHmEP5dIzueYDVmyYzTFI7AoAVnBX5oKNNY3QObM8IiHxME0WsfcKHjHulX8ER0h9PJCbaM43usekCbzjMXHNqloVQoztdfeOm6JOQgXlDFQGi1wpkA0h-RQ88YELxv8WkSMNDtNQwgPXs5LVtK4BzWfZFm7]--></g></svg>