<?xml version="1.0" encoding="us-ascii" standalone="no"?><svg xmlns="http://www.w3.org/2000/svg" xmlns:xlink="http://www.w3.org/1999/xlink" contentStyleType="text/css" height="641px" preserveAspectRatio="none" style="width:467px;height:641px;background:#FFFFFF;" version="1.1" viewBox="0 0 467 641" width="467px" zoomAndPan="magnify"><defs/><g><text fill="#000000" font-family="sans-serif" font-size="14" font-weight="bold" lengthAdjust="spacing" textLength="228" x="121.25" y="30.1074">System Sequence Diagram (SSD)</text><rect fill="#FFFFFF" height="416.3652" style="stroke:#181818;stroke-width:1.0;" width="10" x="36.5" y="133.2422"/><rect fill="#FFFFFF" height="31.291" style="stroke:#181818;stroke-width:1.0;" width="10" x="414.5" y="156.5332"/><rect fill="#FFFFFF" height="65.873" style="stroke:#181818;stroke-width:1.0;" width="10" x="414.5" y="245.4063"/><rect fill="#FFFFFF" height="79.873" style="stroke:#181818;stroke-width:1.0;" width="10" x="414.5" y="342.5703"/><rect fill="#FFFFFF" height="48.582" style="stroke:#181818;stroke-width:1.0;" width="10" x="414.5" y="453.7344"/><rect fill="none" height="307.4922" style="stroke:#000000;stroke-width:1.5;" width="451.5" x="10" y="202.8242"/><line style="stroke:#181818;stroke-width:0.5;stroke-dasharray:5.0,5.0;" x1="41" x2="41" y1="123.2422" y2="558.6074"/><line style="stroke:#181818;stroke-width:0.5;stroke-dasharray:5.0,5.0;" x1="419.5" x2="419.5" y1="123.2422" y2="558.6074"/><text fill="#000000" font-family="sans-serif" font-size="14" lengthAdjust="spacing" textLength="37" x="20" y="119.7285">Agent</text><ellipse cx="41.5" cy="53.1211" fill="#E3E3E3" rx="8" ry="8" style="stroke:#181818;stroke-width:0.5;"/><path d="M41.5,61.1211 L41.5,88.1211 M28.5,69.1211 L54.5,69.1211 M41.5,88.1211 L28.5,103.1211 M41.5,88.1211 L54.5,103.1211 " fill="none" style="stroke:#181818;stroke-width:0.5;"/><text fill="#000000" font-family="sans-serif" font-size="14" lengthAdjust="spacing" textLength="37" x="20" y="572.7148">Agent</text><ellipse cx="41.5" cy="584.7285" fill="#E3E3E3" rx="8" ry="8" style="stroke:#181818;stroke-width:0.5;"/><path d="M41.5,592.7285 L41.5,619.7285 M28.5,600.7285 L54.5,600.7285 M41.5,619.7285 L28.5,634.7285 M41.5,619.7285 L54.5,634.7285 " fill="none" style="stroke:#181818;stroke-width:0.5;"/><rect fill="#E3E3E3" height="32.6211" rx="2.5" ry="2.5" style="stroke:#181818;stroke-width:0.5;" width="64" x="387.5" y="89.6211"/><text fill="#000000" font-family="sans-serif" font-size="14" lengthAdjust="spacing" textLength="50" x="394.5" y="111.7285">:System</text><rect fill="#E3E3E3" height="32.6211" rx="2.5" ry="2.5" style="stroke:#181818;stroke-width:0.5;" width="64" x="387.5" y="557.6074"/><text fill="#000000" font-family="sans-serif" font-size="14" lengthAdjust="spacing" textLength="50" x="394.5" y="579.7148">:System</text><rect fill="#FFFFFF" height="416.3652" style="stroke:#181818;stroke-width:1.0;" width="10" x="36.5" y="133.2422"/><rect fill="#FFFFFF" height="31.291" style="stroke:#181818;stroke-width:1.0;" width="10" x="414.5" y="156.5332"/><rect fill="#FFFFFF" height="65.873" style="stroke:#181818;stroke-width:1.0;" width="10" x="414.5" y="245.4063"/><rect fill="#FFFFFF" height="79.873" style="stroke:#181818;stroke-width:1.0;" width="10" x="414.5" y="342.5703"/><rect fill="#FFFFFF" height="48.582" style="stroke:#181818;stroke-width:1.0;" width="10" x="414.5" y="453.7344"/><polygon fill="#181818" points="402.5,152.5332,412.5,156.5332,402.5,160.5332,406.5,156.5332" style="stroke:#181818;stroke-width:1.0;"/><line style="stroke:#181818;stroke-width:1.0;" x1="46.5" x2="408.5" y1="156.5332" y2="156.5332"/><text fill="#000000" font-family="sans-serif" font-size="13" font-weight="bold" lengthAdjust="spacing" textLength="7" x="53.5" y="151.2705">1</text><text fill="#000000" font-family="sans-serif" font-size="13" lengthAdjust="spacing" textLength="266" x="64.5" y="151.2705">asks to receive the list of properties to choose</text><polygon fill="#181818" points="57.5,183.8242,47.5,187.8242,57.5,191.8242,53.5,187.8242" style="stroke:#181818;stroke-width:1.0;"/><line style="stroke:#181818;stroke-width:1.0;stroke-dasharray:2.0,2.0;" x1="51.5" x2="418.5" y1="187.8242" y2="187.8242"/><text fill="#000000" font-family="sans-serif" font-size="13" font-weight="bold" lengthAdjust="spacing" textLength="7" x="63.5" y="182.5615">2</text><text fill="#000000" font-family="sans-serif" font-size="13" lengthAdjust="spacing" textLength="333" x="74.5" y="182.5615">shows the list of announcements and asks to choose one</text><path d="M10,202.8242 L83,202.8242 L83,212.1152 L73,222.1152 L10,222.1152 L10,202.8242 " fill="#EEEEEE" style="stroke:#000000;stroke-width:1.5;"/><rect fill="none" height="307.4922" style="stroke:#000000;stroke-width:1.5;" width="451.5" x="10" y="202.8242"/><text fill="#000000" font-family="sans-serif" font-size="13" font-weight="bold" lengthAdjust="spacing" textLength="28" x="25" y="217.8525">loop</text><text fill="#000000" font-family="sans-serif" font-size="11" font-weight="bold" lengthAdjust="spacing" textLength="180" x="98" y="216.6943">[until the agent decides to leave]</text><polygon fill="#181818" points="402.5,241.4063,412.5,245.4063,402.5,249.4063,406.5,245.4063" style="stroke:#181818;stroke-width:1.0;"/><line style="stroke:#181818;stroke-width:1.0;" x1="46.5" x2="408.5" y1="245.4063" y2="245.4063"/><text fill="#000000" font-family="sans-serif" font-size="13" font-weight="bold" lengthAdjust="spacing" textLength="7" x="53.5" y="240.1436">3</text><text fill="#000000" font-family="sans-serif" font-size="13" lengthAdjust="spacing" textLength="111" x="64.5" y="240.1436">chooses a property</text><polygon fill="#181818" points="57.5,307.2793,47.5,311.2793,57.5,315.2793,53.5,311.2793" style="stroke:#181818;stroke-width:1.0;"/><line style="stroke:#181818;stroke-width:1.0;stroke-dasharray:2.0,2.0;" x1="51.5" x2="418.5" y1="311.2793" y2="311.2793"/><text fill="#000000" font-family="sans-serif" font-size="13" font-weight="bold" lengthAdjust="spacing" textLength="7" x="63.5" y="288.7256">4</text><text fill="#000000" font-family="sans-serif" font-size="13" lengthAdjust="spacing" textLength="191" x="74.5" y="271.4346">shows the list of purchase orders</text><text fill="#000000" font-family="sans-serif" font-size="13" lengthAdjust="spacing" textLength="167" x="78.5" y="288.7256">associated with that property</text><text fill="#000000" font-family="sans-serif" font-size="13" lengthAdjust="spacing" textLength="132" x="74.5" y="306.0166">and asks to select one</text><polygon fill="#181818" points="402.5,338.5703,412.5,342.5703,402.5,346.5703,406.5,342.5703" style="stroke:#181818;stroke-width:1.0;"/><line style="stroke:#181818;stroke-width:1.0;" x1="46.5" x2="408.5" y1="342.5703" y2="342.5703"/><text fill="#000000" font-family="sans-serif" font-size="13" font-weight="bold" lengthAdjust="spacing" textLength="7" x="53.5" y="337.3076">5</text><text fill="#000000" font-family="sans-serif" font-size="13" lengthAdjust="spacing" textLength="92" x="64.5" y="337.3076">accepts an offer</text><polygon fill="#181818" points="57.5,387.1523,47.5,391.1523,57.5,395.1523,53.5,391.1523" style="stroke:#181818;stroke-width:1.0;"/><line style="stroke:#181818;stroke-width:1.0;stroke-dasharray:2.0,2.0;" x1="51.5" x2="413.5" y1="391.1523" y2="391.1523"/><text fill="#000000" font-family="sans-serif" font-size="13" font-weight="bold" lengthAdjust="spacing" textLength="7" x="63.5" y="377.2441">6</text><text fill="#000000" font-family="sans-serif" font-size="13" lengthAdjust="spacing" textLength="243" x="74.5" y="368.5986">informs agent of successful acceptance of</text><text fill="#000000" font-family="sans-serif" font-size="13" lengthAdjust="spacing" textLength="298" x="74.5" y="385.8896">purchase order and that the user has been informed</text><polygon fill="#181818" points="57.5,418.4434,47.5,422.4434,57.5,426.4434,53.5,422.4434" style="stroke:#181818;stroke-width:1.0;"/><line style="stroke:#181818;stroke-width:1.0;stroke-dasharray:2.0,2.0;" x1="51.5" x2="418.5" y1="422.4434" y2="422.4434"/><text fill="#000000" font-family="sans-serif" font-size="13" font-weight="bold" lengthAdjust="spacing" textLength="7" x="63.5" y="417.1807">7</text><text fill="#000000" font-family="sans-serif" font-size="13" lengthAdjust="spacing" textLength="327" x="74.5" y="417.1807">asks agent if they want to continue or if they want to exit</text><polygon fill="#181818" points="402.5,449.7344,412.5,453.7344,402.5,457.7344,406.5,453.7344" style="stroke:#181818;stroke-width:1.0;"/><line style="stroke:#181818;stroke-width:1.0;" x1="46.5" x2="408.5" y1="453.7344" y2="453.7344"/><text fill="#000000" font-family="sans-serif" font-size="13" font-weight="bold" lengthAdjust="spacing" textLength="7" x="53.5" y="448.4717">8</text><text fill="#000000" font-family="sans-serif" font-size="13" lengthAdjust="spacing" textLength="102" x="64.5" y="448.4717">wants to continue</text><polygon fill="#181818" points="57.5,498.3164,47.5,502.3164,57.5,506.3164,53.5,502.3164" style="stroke:#181818;stroke-width:1.0;"/><line style="stroke:#181818;stroke-width:1.0;stroke-dasharray:2.0,2.0;" x1="51.5" x2="418.5" y1="502.3164" y2="502.3164"/><text fill="#000000" font-family="sans-serif" font-size="13" font-weight="bold" lengthAdjust="spacing" textLength="7" x="63.5" y="488.4082">9</text><text fill="#000000" font-family="sans-serif" font-size="13" lengthAdjust="spacing" textLength="155" x="74.5" y="479.7627">shows the list of properties</text><text fill="#000000" font-family="sans-serif" font-size="13" lengthAdjust="spacing" textLength="132" x="74.5" y="497.0537">and asks to select one</text><polygon fill="#181818" points="57.5,536.6074,47.5,540.6074,57.5,544.6074,53.5,540.6074" style="stroke:#181818;stroke-width:1.0;"/><line style="stroke:#181818;stroke-width:1.0;stroke-dasharray:2.0,2.0;" x1="51.5" x2="418.5" y1="540.6074" y2="540.6074"/><text fill="#000000" font-family="sans-serif" font-size="13" font-weight="bold" lengthAdjust="spacing" textLength="14" x="63.5" y="535.3447">10</text><text fill="#000000" font-family="sans-serif" font-size="13" lengthAdjust="spacing" textLength="158" x="81.5" y="535.3447">displays operation success</text><!--SRC=[bLExZkCm3Epz5KIgtM9_8CK11-mVk4sZbMXRY4twH2av__rHyWC9ulLXLHXAE9xXa6EvUXfDC0CCJ6oxm0D230ahsIgZiLVJOXsd7Y6WZORQ_X4WdN5yzzH2Oth1gee-AhIU9E80DVv9I1RXqvismz_g-lEzgaoAJ6dumg1t6pd0wNUB54zW1CgjKlhehHyDHJYTPxvIdg_bFNyp4HSyw2at-FYrofyLVnM8d5j7VrDx7KBl9G8tC0OUKKMm86p7hFrdclBOw1UzhP3Fml-XKhFcMGV1TtdYDqISrFoW0D5VRkjcrWAc1ps7UuezymY9ekyBjIbY3grtSzSzcXlkUvz5L7WrEbMxndvcQap1TYOt7nm6kP2Q4hPU2HtSVUmKRU8c2HTwD2xOQuOsuw-Ug-_sQ2sEPOhQHAEnMPlU6zg18KyDXq6MGQeVISeiqgH-qJ0vhbguqBFLii3YBOyZYVwZHVX2f8KLtV_KonXcQTzadWdkETyv4gnBffJ5NchuryUDUZydwtcTN2QHHuKd_17N3qAnVKc7wpwsWEIEekYyZBsP1BAKYPvftTqtKVe7]--></g></svg>