<?xml version="1.0" encoding="us-ascii" standalone="no"?><svg xmlns="http://www.w3.org/2000/svg" xmlns:xlink="http://www.w3.org/1999/xlink" contentStyleType="text/css" height="600px" preserveAspectRatio="none" style="width:695px;height:600px;background:#FFFFFF;" version="1.1" viewBox="0 0 695 600" width="695px" zoomAndPan="magnify"><defs/><g><text fill="#000000" font-family="sans-serif" font-size="14" font-weight="bold" lengthAdjust="spacing" textLength="156" x="262.75" y="22.6738">Domain Model - US004</text><!--class Role--><g id="elem_Role"><rect
        fill="#F1F1F1" height="64.9219" id="Role" rx="2.5" ry="2.5" style="stroke:#181818;stroke-width:0.5;" width="81" x="425.5" y="67.1406"/><text fill="#000000" font-family="sans-serif" font-size="14" lengthAdjust="spacing" textLength="29" x="451.5" y="84.8145">Role</text><line style="stroke:#181818;stroke-width:0.5;" x1="426.5" x2="505.5" y1="92.7813" y2="92.7813"/><text fill="#000000" font-family="sans-serif" font-size="14" lengthAdjust="spacing" textLength="11" x="431.5" y="109.4551">id</text><text fill="#000000" font-family="sans-serif" font-size="14" lengthAdjust="spacing" textLength="69" x="431.5" y="125.0957">description</text></g><!--class Property--><g id="elem_Property"><rect
        fill="#F1F1F1" height="96.2031" id="Property" rx="2.5" ry="2.5" style="stroke:#181818;stroke-width:0.5;" width="141" x="150.5" y="215.6406"/><text fill="#000000" font-family="sans-serif" font-size="14" lengthAdjust="spacing" textLength="54" x="194" y="233.3145">Property</text><line style="stroke:#181818;stroke-width:0.5;" x1="151.5" x2="290.5" y1="241.2813" y2="241.2813"/><text fill="#000000" font-family="sans-serif" font-size="14" lengthAdjust="spacing" textLength="98" x="156.5" y="257.9551">areaOfProperty</text><text fill="#000000" font-family="sans-serif" font-size="14" lengthAdjust="spacing" textLength="129" x="156.5" y="273.5957">distanceFromCentre</text><text fill="#000000" font-family="sans-serif" font-size="14" lengthAdjust="spacing" textLength="117" x="156.5" y="289.2363">dateOfAcceptance</text><text fill="#000000" font-family="sans-serif" font-size="14" lengthAdjust="spacing" textLength="96" x="156.5" y="304.877">dateOfRequest</text></g><!--class TypeOfTransaction--><g id="elem_TypeOfTransaction"><rect
        fill="#F1F1F1" height="64.9219" id="TypeOfTransaction" rx="2.5" ry="2.5" style="stroke:#181818;stroke-width:0.5;" width="128" x="19" y="67.1406"/><text fill="#000000" font-family="sans-serif" font-size="14" lengthAdjust="spacing" textLength="122" x="22" y="84.8145">TypeOfTransaction</text><line style="stroke:#181818;stroke-width:0.5;" x1="20" x2="146" y1="92.7813" y2="92.7813"/><text fill="#000000" font-family="sans-serif" font-size="14" lengthAdjust="spacing" textLength="102" x="25" y="109.4551">transactionType</text><text fill="#000000" font-family="sans-serif" font-size="14" lengthAdjust="spacing" textLength="95" x="25" y="125.0957">monetaryValue</text></g><!--class Address--><g id="elem_Address"><rect
        fill="#F1F1F1" height="111.8438" id="Address" rx="2.5" ry="2.5" style="stroke:#181818;stroke-width:0.5;" width="63" x="319.5" y="43.6406"/><text fill="#000000" font-family="sans-serif" font-size="14" lengthAdjust="spacing" textLength="52" x="325" y="61.3145">Address</text><line style="stroke:#181818;stroke-width:0.5;" x1="320.5" x2="381.5" y1="69.2813" y2="69.2813"/><text fill="#000000" font-family="sans-serif" font-size="14" lengthAdjust="spacing" textLength="36" x="325.5" y="85.9551">street</text><text fill="#000000" font-family="sans-serif" font-size="14" lengthAdjust="spacing" textLength="21" x="325.5" y="101.5957">city</text><text fill="#000000" font-family="sans-serif" font-size="14" lengthAdjust="spacing" textLength="41" x="325.5" y="117.2363">district</text><text fill="#000000" font-family="sans-serif" font-size="14" lengthAdjust="spacing" textLength="31" x="325.5" y="132.877">state</text><text fill="#000000" font-family="sans-serif" font-size="14" lengthAdjust="spacing" textLength="51" x="325.5" y="148.5176">zipCode</text></g><!--class Photo--><g id="elem_Photo"><rect
        fill="#F1F1F1" height="64.9219" id="Photo" rx="2.5" ry="2.5" style="stroke:#181818;stroke-width:0.5;" width="86" x="182" y="67.1406"/><text fill="#000000" font-family="sans-serif" font-size="14" lengthAdjust="spacing" textLength="37" x="206.5" y="84.8145">Photo</text><line style="stroke:#181818;stroke-width:0.5;" x1="183" x2="267" y1="92.7813" y2="92.7813"/><text fill="#000000" font-family="sans-serif" font-size="14" lengthAdjust="spacing" textLength="49" x="188" y="109.4551">photoID</text><text fill="#000000" font-family="sans-serif" font-size="14" lengthAdjust="spacing" textLength="74" x="188" y="125.0957">pathToPNG</text></g><!--class Building--><g id="elem_Building"><rect
        fill="#F1F1F1" height="80.5625" id="Building" rx="2.5" ry="2.5" style="stroke:#181818;stroke-width:0.5;" width="106" x="60" y="371.6406"/><text fill="#000000" font-family="sans-serif" font-size="14" lengthAdjust="spacing" textLength="50" x="88" y="389.3145">Building</text><line style="stroke:#181818;stroke-width:0.5;" x1="61" x2="165" y1="397.2813" y2="397.2813"/><text fill="#000000" font-family="sans-serif" font-size="14" lengthAdjust="spacing" textLength="63" x="66" y="413.9551">bedrooms</text><text fill="#000000" font-family="sans-serif" font-size="14" lengthAdjust="spacing" textLength="67" x="66" y="429.5957">bathrooms</text><text fill="#000000" font-family="sans-serif" font-size="14" lengthAdjust="spacing" textLength="94" x="66" y="445.2363">parkingSpaces</text></g><!--class Equipment--><g id="elem_Equipment"><rect
        fill="#F1F1F1" height="49.2813" id="Equipment" rx="2.5" ry="2.5" style="stroke:#181818;stroke-width:0.5;" width="73" x="201.5" y="387.6406"/><text fill="#000000" font-family="sans-serif" font-size="14" lengthAdjust="spacing" textLength="67" x="204.5" y="405.3145">Equipment</text><line style="stroke:#181818;stroke-width:0.5;" x1="202.5" x2="273.5" y1="413.2813" y2="413.2813"/><text fill="#000000" font-family="sans-serif" font-size="14" lengthAdjust="spacing" textLength="35" x="207.5" y="429.9551">name</text></g><!--class House--><g id="elem_House"><rect
        fill="#F1F1F1" height="80.5625" id="House" rx="2.5" ry="2.5" style="stroke:#181818;stroke-width:0.5;" width="94" x="7" y="512.6406"/><text fill="#000000" font-family="sans-serif" font-size="14" lengthAdjust="spacing" textLength="40" x="34" y="530.3145">House</text><line style="stroke:#181818;stroke-width:0.5;" x1="8" x2="100" y1="538.2813" y2="538.2813"/><text fill="#000000" font-family="sans-serif" font-size="14" lengthAdjust="spacing" textLength="62" x="13" y="554.9551">basement</text><text fill="#000000" font-family="sans-serif" font-size="14" lengthAdjust="spacing" textLength="19" x="13" y="570.5957">loft</text><text fill="#000000" font-family="sans-serif" font-size="14" lengthAdjust="spacing" textLength="82" x="13" y="586.2363">sunExposure</text></g><!--class Land--><g id="elem_Land"><rect
        fill="#F1F1F1" height="33.6406" id="Land" rx="2.5" ry="2.5" style="stroke:#181818;stroke-width:0.5;" width="38" x="310" y="395.1406"/><text fill="#000000" font-family="sans-serif" font-size="14" lengthAdjust="spacing" textLength="32" x="313" y="412.8145">Land</text><line style="stroke:#181818;stroke-width:0.5;" x1="311" x2="347" y1="420.7813" y2="420.7813"/></g><!--class PassportCard--><g id="elem_PassportCard"><rect
        fill="#F1F1F1" height="49.2813" id="PassportCard" rx="2.5" ry="2.5" style="stroke:#181818;stroke-width:0.5;" width="147" x="541.5" y="75.1406"/><text fill="#000000" font-family="sans-serif" font-size="14" lengthAdjust="spacing" textLength="87" x="571.5" y="92.8145">PassportCard</text><line style="stroke:#181818;stroke-width:0.5;" x1="542.5" x2="687.5" y1="100.7813" y2="100.7813"/><text fill="#000000" font-family="sans-serif" font-size="14" lengthAdjust="spacing" textLength="135" x="547.5" y="117.4551">passportCardNumber</text></g><!--class Apartment--><g id="elem_Apartment"><rect
        fill="#F1F1F1" height="33.6406" id="Apartment" rx="2.5" ry="2.5" style="stroke:#181818;stroke-width:0.5;" width="71" x="136.5" y="536.1406"/><text fill="#000000" font-family="sans-serif" font-size="14" lengthAdjust="spacing" textLength="65" x="139.5" y="553.8145">Apartment</text><line style="stroke:#181818;stroke-width:0.5;" x1="137.5" x2="206.5" y1="561.7813" y2="561.7813"/></g><!--class Owner--><g id="elem_Owner"><rect
        fill="#F1F1F1" height="33.6406" id="Owner" rx="2.5" ry="2.5" style="stroke:#181818;stroke-width:0.5;" width="47" x="326.5" y="246.6406"/><text fill="#000000" font-family="sans-serif" font-size="14" lengthAdjust="spacing" textLength="41" x="329.5" y="264.3145">Owner</text><line style="stroke:#181818;stroke-width:0.5;" x1="327.5" x2="372.5" y1="272.2813" y2="272.2813"/></g><!--class Person--><g id="elem_Person"><rect
        fill="#F1F1F1" height="96.2031" id="Person" rx="2.5" ry="2.5" style="stroke:#181818;stroke-width:0.5;" width="124" x="409" y="215.6406"/><text fill="#000000" font-family="sans-serif" font-size="14" lengthAdjust="spacing" textLength="45" x="448.5" y="233.3145">Person</text><line style="stroke:#181818;stroke-width:0.5;" x1="410" x2="532" y1="241.2813" y2="241.2813"/><text fill="#000000" font-family="sans-serif" font-size="14" lengthAdjust="spacing" textLength="35" x="415" y="257.9551">name</text><text fill="#000000" font-family="sans-serif" font-size="14" lengthAdjust="spacing" textLength="67" x="415" y="273.5957">taxNumber</text><text fill="#000000" font-family="sans-serif" font-size="14" lengthAdjust="spacing" textLength="85" x="415" y="289.2363">emailAddress</text><text fill="#000000" font-family="sans-serif" font-size="14" lengthAdjust="spacing" textLength="112" x="415" y="304.877">telephoneNumber</text></g><!--class PropertyType--><g id="elem_PropertyType"><rect
        fill="#F1F1F1" height="49.2813" id="PropertyType" rx="2.5" ry="2.5" style="stroke:#181818;stroke-width:0.5;" width="92" x="23" y="239.1406"/><text fill="#000000" font-family="sans-serif" font-size="14" lengthAdjust="spacing" textLength="86" x="26" y="256.8145">PropertyType</text><line style="stroke:#181818;stroke-width:0.5;" x1="24" x2="114" y1="264.7813" y2="264.7813"/><text fill="#000000" font-family="sans-serif" font-size="14" lengthAdjust="spacing" textLength="73" x="29" y="281.4551">designation</text></g><!--link PropertyType to Property--><g id="link_PropertyType_Property"><path
        d="M115.02,263.6406 C122.35,263.6406 129.68,263.6406 137.01,263.6406 " fill="none" id="PropertyType-to-Property" style="stroke:#181818;stroke-width:1.0;"/><polygon fill="#181818" points="150.21,263.6406,144.21,259.6406,138.21,263.6406,144.21,267.6406,150.21,263.6406" style="stroke:#181818;stroke-width:1.0;"/></g><!--reverse link Property to Land--><g id="link_Property_Land"><path
        d="M267.74,328.0406 C285.88,352.6506 305.14,378.7706 317.12,395.0206 " fill="none" id="Property-backto-Land" style="stroke:#181818;stroke-width:1.0;"/><polygon fill="none" points="262,332.0506,255.77,311.8006,273.27,323.7406,262,332.0506" style="stroke:#181818;stroke-width:1.0;"/></g><!--link TypeOfTransaction to Property--><g id="link_TypeOfTransaction_Property"><path
        d="M109.94,132.2606 C127.65,153.0606 151.35,180.8806 172.31,205.4806 " fill="none" id="TypeOfTransaction-to-Property" style="stroke:#181818;stroke-width:1.0;"/><polygon fill="#181818" points="180.79,215.4406,179.9462,208.2791,173.0109,206.3035,173.8548,213.4651,180.79,215.4406" style="stroke:#181818;stroke-width:1.0;"/></g><!--link Owner to Person--><g id="link_Owner_Person"><path
        d="M373.63,263.6406 C378.55,263.6406 383.47,263.6406 388.39,263.6406 " fill="none" id="Owner-to-Person" style="stroke:#181818;stroke-width:1.0;"/><polygon fill="none" points="388.62,256.6406,408.62,263.6406,388.62,270.6406,388.62,256.6406" style="stroke:#181818;stroke-width:1.0;"/></g><!--reverse link Property to Owner--><g id="link_Property_Owner"><path
        d="M304.56,263.6406 C311.79,263.6406 319.02,263.6406 326.25,263.6406 " fill="none" id="Property-backto-Owner" style="stroke:#181818;stroke-width:1.0;"/><polygon fill="#181818" points="291.55,263.6406,297.55,267.6406,303.55,263.6406,297.55,259.6406,291.55,263.6406" style="stroke:#181818;stroke-width:1.0;"/></g><!--link Address to Person--><g id="link_Address_Person"><path
        d="M382.53,143.2006 C396.48,162.0406 413.1,184.4806 428.15,204.8006 " fill="none" id="Address-to-Person" style="stroke:#181818;stroke-width:1.0;"/><polygon fill="#181818" points="436.09,215.5106,435.7296,208.3085,428.9429,205.8712,429.3033,213.0733,436.09,215.5106" style="stroke:#181818;stroke-width:1.0;"/></g><!--link Role to Person--><g id="link_Role_Person"><path
        d="M466.98,132.2606 C467.59,152.1306 468.4,178.4206 469.13,202.1906 " fill="none" id="Role-to-Person" style="stroke:#181818;stroke-width:1.0;"/><polygon fill="#181818" points="469.54,215.4406,473.3536,209.3204,469.1709,203.4463,465.3574,209.5665,469.54,215.4406" style="stroke:#181818;stroke-width:1.0;"/></g><!--link PassportCard to Person--><g id="link_PassportCard_Person"><path
        d="M594.06,124.2006 C575.08,145.5506 546.35,177.8706 521.42,205.9206 " fill="none" id="PassportCard-to-Person" style="stroke:#181818;stroke-width:1.0;"/><polygon fill="#181818" points="512.78,215.6306,519.7567,213.8068,520.7565,206.6654,513.7798,208.4892,512.78,215.6306" style="stroke:#181818;stroke-width:1.0;"/></g><!--link Address to Property--><g id="link_Address_Property"><path
        d="M319.2,140.2706 C303.57,159.7506 284.43,183.6006 267.22,205.0406 " fill="none" id="Address-to-Property" style="stroke:#181818;stroke-width:1.0;"/><polygon fill="#181818" points="258.95,215.3506,265.8235,213.1701,266.4544,205.9866,259.5809,208.1672,258.95,215.3506" style="stroke:#181818;stroke-width:1.0;"/></g><!--reverse link Building to Equipment--><g id="link_Building_Equipment"><path
        d="M179.37,412.1406 C186.67,412.1406 193.97,412.1406 201.27,412.1406 " fill="none" id="Building-backto-Equipment" style="stroke:#181818;stroke-width:1.0;"/><polygon fill="#181818" points="166.22,412.1406,172.22,416.1406,178.22,412.1406,172.22,408.1406,166.22,412.1406" style="stroke:#181818;stroke-width:1.0;"/></g><!--link Photo to Property--><g id="link_Photo_Property"><path
        d="M224.22,132.2606 C223.73,152.1306 223.08,178.4206 222.49,202.1906 " fill="none" id="Photo-to-Property" style="stroke:#181818;stroke-width:1.0;"/><polygon fill="#181818" points="222.17,215.4406,226.3205,209.5437,222.4735,203.4445,218.323,209.3414,222.17,215.4406" style="stroke:#181818;stroke-width:1.0;"/></g><!--reverse link Property to Building--><g id="link_Property_Building"><path
        d="M174.24,328.0706 C163.38,342.8006 152.12,358.0706 142.27,371.4406 " fill="none" id="Property-backto-Building" style="stroke:#181818;stroke-width:1.0;"/><polygon fill="none" points="168.73,323.7406,186.23,311.8006,180,332.0506,168.73,323.7406" style="stroke:#181818;stroke-width:1.0;"/></g><!--reverse link Building to House--><g id="link_Building_House"><path
        d="M88.14,471.7006 C82.33,485.3906 76.28,499.6506 70.91,512.3006 " fill="none" id="Building-backto-House" style="stroke:#181818;stroke-width:1.0;"/><polygon fill="none" points="81.83,468.6506,96.09,452.9706,94.72,474.1206,81.83,468.6506" style="stroke:#181818;stroke-width:1.0;"/></g><!--reverse link Building to Apartment--><g id="link_Building_Apartment"><path
        d="M137.81,471.6006 C147.76,495.0306 158.44,520.1806 165.16,536.0306 " fill="none" id="Building-backto-Apartment" style="stroke:#181818;stroke-width:1.0;"/><polygon fill="none" points="131.28,474.1206,129.91,452.9706,144.17,468.6506,131.28,474.1206" style="stroke:#181818;stroke-width:1.0;"/></g><!--SRC=[PLDDRnen4BtxL_XMAT9AEVHOLQ8aJIEr0GNQkx67NIjUsndFAY6a_xspzdwHSe2PvpVVZ_HaVLIeMja67tI3eGL9s858qqjK-adLiAEJ0ucWIVdQBGcfKIQyM5_Bet89XFZau4YIWaHRDoIDxQDiy68Hf9rAQKM4zj0HtElWT_ODvBKGZJKWjKNDHRBT0ZN192784hTm4rfblVmL33XPoT-xw-lFGkHyyZ4uE0l97sloZu6aqSPS_Uz0scA8W7GgH8MWDiSHAq4syP0QllCwrk09eS2AO7DSQGqnFo_0HtZk816N66hiJv7XFIgVL9wz5ACPw1aPuyq3AJpzKOxtFcLO6OEGKebBt0DGDhLTT8bMqq3WFhBrPkEQLzCd6kTj0eMI9_Rc_Ksn5JNxi7sucsj-wwmpVCX2Fe314DfK76RF7j-GBrdlM1kGvlZRvyx6bZTM4dZLBWRw4Req7EUW4lIqxBXm76Re_Erh3Ad3HTHFvSrvThVy5GFIMg6HPn4NxaFN7W0N2-GcgJGpOPiN3tYUbG2OnjFaPlEDrEkGglU0nUQ6MvHdSC1hzF2ntYYX_h3oFAhFrbuDwXCNZEfgYfWUv9VtgieZY_y496Mr3CcJoEhzwp342FH_lGLjwBp45cB_7rdw5ojTu1UXOxxfmhBgujKa694rTacz76fYZaQ1ioW-ODFXMC7_0000]--></g></svg>