<?xml version="1.0" encoding="us-ascii" standalone="no"?><svg xmlns="http://www.w3.org/2000/svg" xmlns:xlink="http://www.w3.org/1999/xlink" contentStyleType="text/css" height="764px" preserveAspectRatio="none" style="width:2372px;height:764px;background:#FFFFFF;" version="1.1" viewBox="0 0 2372 764" width="2372px" zoomAndPan="magnify"><defs/><g><text fill="#000000" font-family="sans-serif" font-size="14" font-weight="bold" lengthAdjust="spacing" textLength="228" x="1073.75" y="30.1074">System Sequence Diagram (SSD)</text><rect fill="#FFFFFF" height="538.9473" style="stroke:#181818;stroke-width:1.0;" width="10" x="38.5" y="133.2422"/><rect fill="#FFFFFF" height="31.291" style="stroke:#181818;stroke-width:1.0;" width="10" x="2319.5" y="156.5332"/><rect fill="#FFFFFF" height="31.291" style="stroke:#181818;stroke-width:1.0;" width="10" x="2319.5" y="219.1152"/><rect fill="#FFFFFF" height="31.291" style="stroke:#181818;stroke-width:1.0;" width="10" x="2319.5" y="307.9883"/><rect fill="#FFFFFF" height="31.291" style="stroke:#181818;stroke-width:1.0;" width="10" x="2319.5" y="435.1523"/><rect fill="#FFFFFF" height="31.291" style="stroke:#181818;stroke-width:1.0;" width="10" x="2319.5" y="562.3164"/><rect fill="none" height="113.1641" style="stroke:#000000;stroke-width:1.5;" width="2356.5" x="10" y="265.4063"/><rect fill="none" height="113.1641" style="stroke:#000000;stroke-width:1.5;" width="2356.5" x="10" y="392.5703"/><rect fill="none" height="113.1641" style="stroke:#000000;stroke-width:1.5;" width="2356.5" x="10" y="519.7344"/><line style="stroke:#181818;stroke-width:0.5;stroke-dasharray:5.0,5.0;" x1="43" x2="43" y1="123.2422" y2="681.1895"/><line style="stroke:#181818;stroke-width:0.5;stroke-dasharray:5.0,5.0;" x1="2324.5" x2="2324.5" y1="123.2422" y2="681.1895"/><text fill="#000000" font-family="sans-serif" font-size="14" lengthAdjust="spacing" textLength="41" x="20" y="119.7285">Owner</text><ellipse cx="43.5" cy="53.1211" fill="#E3E3E3" rx="8" ry="8" style="stroke:#181818;stroke-width:0.5;"/><path d="M43.5,61.1211 L43.5,88.1211 M30.5,69.1211 L56.5,69.1211 M43.5,88.1211 L30.5,103.1211 M43.5,88.1211 L56.5,103.1211 " fill="none" style="stroke:#181818;stroke-width:0.5;"/><text fill="#000000" font-family="sans-serif" font-size="14" lengthAdjust="spacing" textLength="41" x="20" y="695.2969">Owner</text><ellipse cx="43.5" cy="707.3105" fill="#E3E3E3" rx="8" ry="8" style="stroke:#181818;stroke-width:0.5;"/><path d="M43.5,715.3105 L43.5,742.3105 M30.5,723.3105 L56.5,723.3105 M43.5,742.3105 L30.5,757.3105 M43.5,742.3105 L56.5,757.3105 " fill="none" style="stroke:#181818;stroke-width:0.5;"/><rect fill="#E3E3E3" height="32.6211" rx="2.5" ry="2.5" style="stroke:#181818;stroke-width:0.5;" width="64" x="2292.5" y="89.6211"/><text fill="#000000" font-family="sans-serif" font-size="14" lengthAdjust="spacing" textLength="50" x="2299.5" y="111.7285">:System</text><rect fill="#E3E3E3" height="32.6211" rx="2.5" ry="2.5" style="stroke:#181818;stroke-width:0.5;" width="64" x="2292.5" y="680.1895"/><text fill="#000000" font-family="sans-serif" font-size="14" lengthAdjust="spacing" textLength="50" x="2299.5" y="702.2969">:System</text><rect fill="#FFFFFF" height="538.9473" style="stroke:#181818;stroke-width:1.0;" width="10" x="38.5" y="133.2422"/><rect fill="#FFFFFF" height="31.291" style="stroke:#181818;stroke-width:1.0;" width="10" x="2319.5" y="156.5332"/><rect fill="#FFFFFF" height="31.291" style="stroke:#181818;stroke-width:1.0;" width="10" x="2319.5" y="219.1152"/><rect fill="#FFFFFF" height="31.291" style="stroke:#181818;stroke-width:1.0;" width="10" x="2319.5" y="307.9883"/><rect fill="#FFFFFF" height="31.291" style="stroke:#181818;stroke-width:1.0;" width="10" x="2319.5" y="435.1523"/><rect fill="#FFFFFF" height="31.291" style="stroke:#181818;stroke-width:1.0;" width="10" x="2319.5" y="562.3164"/><polygon fill="#181818" points="2307.5,152.5332,2317.5,156.5332,2307.5,160.5332,2311.5,156.5332" style="stroke:#181818;stroke-width:1.0;"/><line style="stroke:#181818;stroke-width:1.0;" x1="48.5" x2="2313.5" y1="156.5332" y2="156.5332"/><text fill="#000000" font-family="sans-serif" font-size="13" font-weight="bold" lengthAdjust="spacing" textLength="7" x="55.5" y="151.2705">1</text><text fill="#000000" font-family="sans-serif" font-size="13" lengthAdjust="spacing" textLength="210" x="66.5" y="151.2705">asks to create a new property listing</text><polygon fill="#181818" points="59.5,183.8242,49.5,187.8242,59.5,191.8242,55.5,187.8242" style="stroke:#181818;stroke-width:1.0;"/><line style="stroke:#181818;stroke-width:1.0;stroke-dasharray:2.0,2.0;" x1="53.5" x2="2323.5" y1="187.8242" y2="187.8242"/><text fill="#000000" font-family="sans-serif" font-size="13" font-weight="bold" lengthAdjust="spacing" textLength="7" x="65.5" y="182.5615">2</text><text fill="#000000" font-family="sans-serif" font-size="13" lengthAdjust="spacing" textLength="280" x="76.5" y="182.5615">shows the list of agents and asks to choose one</text><polygon fill="#181818" points="2307.5,215.1152,2317.5,219.1152,2307.5,223.1152,2311.5,219.1152" style="stroke:#181818;stroke-width:1.0;"/><line style="stroke:#181818;stroke-width:1.0;" x1="48.5" x2="2313.5" y1="219.1152" y2="219.1152"/><text fill="#000000" font-family="sans-serif" font-size="13" font-weight="bold" lengthAdjust="spacing" textLength="7" x="55.5" y="213.8525">3</text><text fill="#000000" font-family="sans-serif" font-size="13" lengthAdjust="spacing" textLength="103" x="66.5" y="213.8525">chooses an agent</text><polygon fill="#181818" points="59.5,246.4063,49.5,250.4063,59.5,254.4063,55.5,250.4063" style="stroke:#181818;stroke-width:1.0;"/><line style="stroke:#181818;stroke-width:1.0;stroke-dasharray:2.0,2.0;" x1="53.5" x2="2323.5" y1="250.4063" y2="250.4063"/><text fill="#000000" font-family="sans-serif" font-size="13" font-weight="bold" lengthAdjust="spacing" textLength="7" x="65.5" y="245.1436">4</text><text fill="#000000" font-family="sans-serif" font-size="13" lengthAdjust="spacing" textLength="281" x="76.5" y="245.1436">shows types of property and asks to choose one</text><path d="M10,265.4063 L71,265.4063 L71,274.6973 L61,284.6973 L10,284.6973 L10,265.4063 " fill="#EEEEEE" style="stroke:#000000;stroke-width:1.5;"/><rect fill="none" height="113.1641" style="stroke:#000000;stroke-width:1.5;" width="2356.5" x="10" y="265.4063"/><text fill="#000000" font-family="sans-serif" font-size="13" font-weight="bold" lengthAdjust="spacing" textLength="16" x="25" y="280.4346">alt</text><text fill="#000000" font-family="sans-serif" font-size="11" font-weight="bold" lengthAdjust="spacing" textLength="173" x="86" y="279.2764">[property type choosen is land]</text><polygon fill="#181818" points="2307.5,303.9883,2317.5,307.9883,2307.5,311.9883,2311.5,307.9883" style="stroke:#181818;stroke-width:1.0;"/><line style="stroke:#181818;stroke-width:1.0;" x1="48.5" x2="2313.5" y1="307.9883" y2="307.9883"/><text fill="#000000" font-family="sans-serif" font-size="13" font-weight="bold" lengthAdjust="spacing" textLength="7" x="55.5" y="302.7256">5</text><text fill="#000000" font-family="sans-serif" font-size="13" lengthAdjust="spacing" textLength="158" x="66.5" y="302.7256">types requested data (land)</text><polygon fill="#181818" points="59.5,335.2793,49.5,339.2793,59.5,343.2793,55.5,339.2793" style="stroke:#181818;stroke-width:1.0;"/><line style="stroke:#181818;stroke-width:1.0;stroke-dasharray:2.0,2.0;" x1="53.5" x2="2323.5" y1="339.2793" y2="339.2793"/><text fill="#000000" font-family="sans-serif" font-size="13" font-weight="bold" lengthAdjust="spacing" textLength="7" x="65.5" y="334.0166">6</text><text fill="#000000" font-family="sans-serif" font-size="13" lengthAdjust="spacing" textLength="188" x="76.5" y="334.0166">requests data about the property</text><polygon fill="#181818" points="2312.5,366.5703,2322.5,370.5703,2312.5,374.5703,2316.5,370.5703" style="stroke:#181818;stroke-width:1.0;"/><line style="stroke:#181818;stroke-width:1.0;" x1="48.5" x2="2318.5" y1="370.5703" y2="370.5703"/><text fill="#000000" font-family="sans-serif" font-size="13" font-weight="bold" lengthAdjust="spacing" textLength="7" x="55.5" y="365.3076">7</text><text fill="#000000" font-family="sans-serif" font-size="13" lengthAdjust="spacing" textLength="945" x="66.5" y="365.3076">submits data (type of transaction, value of transaction, the area in m2, the location, the distance from the city centre, the requested price, one or more photographs)</text><path d="M10,392.5703 L71,392.5703 L71,401.8613 L61,411.8613 L10,411.8613 L10,392.5703 " fill="#EEEEEE" style="stroke:#000000;stroke-width:1.5;"/><rect fill="none" height="113.1641" style="stroke:#000000;stroke-width:1.5;" width="2356.5" x="10" y="392.5703"/><text fill="#000000" font-family="sans-serif" font-size="13" font-weight="bold" lengthAdjust="spacing" textLength="16" x="25" y="407.5986">alt</text><text fill="#000000" font-family="sans-serif" font-size="11" font-weight="bold" lengthAdjust="spacing" textLength="207" x="86" y="406.4404">[property type choosen is apartment]</text><polygon fill="#181818" points="2307.5,431.1523,2317.5,435.1523,2307.5,439.1523,2311.5,435.1523" style="stroke:#181818;stroke-width:1.0;"/><line style="stroke:#181818;stroke-width:1.0;" x1="48.5" x2="2313.5" y1="435.1523" y2="435.1523"/><text fill="#000000" font-family="sans-serif" font-size="13" font-weight="bold" lengthAdjust="spacing" textLength="7" x="55.5" y="429.8896">8</text><text fill="#000000" font-family="sans-serif" font-size="13" lengthAdjust="spacing" textLength="192" x="66.5" y="429.8896">types requested data (apartment)</text><polygon fill="#181818" points="59.5,462.4434,49.5,466.4434,59.5,470.4434,55.5,466.4434" style="stroke:#181818;stroke-width:1.0;"/><line style="stroke:#181818;stroke-width:1.0;stroke-dasharray:2.0,2.0;" x1="53.5" x2="2323.5" y1="466.4434" y2="466.4434"/><text fill="#000000" font-family="sans-serif" font-size="13" font-weight="bold" lengthAdjust="spacing" textLength="7" x="65.5" y="461.1807">9</text><text fill="#000000" font-family="sans-serif" font-size="13" lengthAdjust="spacing" textLength="188" x="76.5" y="461.1807">requests data about the property</text><polygon fill="#181818" points="2312.5,493.7344,2322.5,497.7344,2312.5,501.7344,2316.5,497.7344" style="stroke:#181818;stroke-width:1.0;"/><line style="stroke:#181818;stroke-width:1.0;" x1="48.5" x2="2318.5" y1="497.7344" y2="497.7344"/><text fill="#000000" font-family="sans-serif" font-size="13" font-weight="bold" lengthAdjust="spacing" textLength="14" x="55.5" y="492.4717">10</text><text fill="#000000" font-family="sans-serif" font-size="13" lengthAdjust="spacing" textLength="1845" x="73.5" y="492.4717">submits data (type of transaction, value of transaction, the area in m2, the location, the distance from the city centre, the requested price, one or more photographs, the number of bedrooms, the number of bathrooms, the number of parking spaces, the available equipment (such as central heating and/or air conditioning))</text><path d="M10,519.7344 L71,519.7344 L71,529.0254 L61,539.0254 L10,539.0254 L10,519.7344 " fill="#EEEEEE" style="stroke:#000000;stroke-width:1.5;"/><rect fill="none" height="113.1641" style="stroke:#000000;stroke-width:1.5;" width="2356.5" x="10" y="519.7344"/><text fill="#000000" font-family="sans-serif" font-size="13" font-weight="bold" lengthAdjust="spacing" textLength="16" x="25" y="534.7627">alt</text><text fill="#000000" font-family="sans-serif" font-size="11" font-weight="bold" lengthAdjust="spacing" textLength="185" x="86" y="533.6045">[property type choosen is house]</text><polygon fill="#181818" points="2307.5,558.3164,2317.5,562.3164,2307.5,566.3164,2311.5,562.3164" style="stroke:#181818;stroke-width:1.0;"/><line style="stroke:#181818;stroke-width:1.0;" x1="48.5" x2="2313.5" y1="562.3164" y2="562.3164"/><text fill="#000000" font-family="sans-serif" font-size="13" font-weight="bold" lengthAdjust="spacing" textLength="14" x="55.5" y="557.0537">11</text><text fill="#000000" font-family="sans-serif" font-size="13" lengthAdjust="spacing" textLength="169" x="73.5" y="557.0537">types requested data (house)</text><polygon fill="#181818" points="59.5,589.6074,49.5,593.6074,59.5,597.6074,55.5,593.6074" style="stroke:#181818;stroke-width:1.0;"/><line style="stroke:#181818;stroke-width:1.0;stroke-dasharray:2.0,2.0;" x1="53.5" x2="2323.5" y1="593.6074" y2="593.6074"/><text fill="#000000" font-family="sans-serif" font-size="13" font-weight="bold" lengthAdjust="spacing" textLength="14" x="65.5" y="588.3447">12</text><text fill="#000000" font-family="sans-serif" font-size="13" lengthAdjust="spacing" textLength="188" x="83.5" y="588.3447">requests data about the property</text><polygon fill="#181818" points="2312.5,620.8984,2322.5,624.8984,2312.5,628.8984,2316.5,624.8984" style="stroke:#181818;stroke-width:1.0;"/><line style="stroke:#181818;stroke-width:1.0;" x1="48.5" x2="2318.5" y1="624.8984" y2="624.8984"/><text fill="#000000" font-family="sans-serif" font-size="13" font-weight="bold" lengthAdjust="spacing" textLength="14" x="55.5" y="619.6357">13</text><text fill="#000000" font-family="sans-serif" font-size="13" lengthAdjust="spacing" textLength="2234" x="73.5" y="619.6357">submits data (type of transaction, value of transaction, the area in m2, the location, the distance from the city centre, the requested price, one or more photographs, the number of bedrooms, the number of bathrooms, the number of parking spaces, the available equipment (such as central heating and/or air conditioning), the existence of a basement, an inhabitable loft, the sun exposure)</text><polygon fill="#181818" points="59.5,659.1895,49.5,663.1895,59.5,667.1895,55.5,663.1895" style="stroke:#181818;stroke-width:1.0;"/><line style="stroke:#181818;stroke-width:1.0;stroke-dasharray:2.0,2.0;" x1="53.5" x2="2323.5" y1="663.1895" y2="663.1895"/><text fill="#000000" font-family="sans-serif" font-size="13" font-weight="bold" lengthAdjust="spacing" textLength="14" x="65.5" y="657.9268">14</text><text fill="#000000" font-family="sans-serif" font-size="13" lengthAdjust="spacing" textLength="151" x="83.5" y="657.9268">displays sucess message</text><!--SRC=[xLMvZXin3EtdAmXNDh2B02bTfDe-XP4Fu6XeZs2DE14vTlpteIGVsTXxE8iK0JA58LDyJpoUADdwE6B20GQExFh40u6cYHevxupejhYXbHu2GIAd63VXLmVfiUEzZnjOOn1g6lLghgk3A0smekyJHKVmv76JtUUhrTEYQN1IZjFGKhArKqum-xgFb6Q00j_4pCQktlaHey9iMUdARbqMcD-XKdLlmBwyWiSlfyENvhuLK0QNA7iYHDh3c7Yaf0S8NjG2Bz0psuaUZj-Hwz5e2_tICkQziVPK283NO0MAAe2nkvpOCmi1HofC7Tqyu2hW2ijKbVGFOpkCnc61dLEzFpGCUe5dmYCkWXS8ndSxWNfqocqtImSTAi8y-o_kpUL88fK3MvwqLFqKrLs5bQaT_8bhNlAn-cZ2A9c0umFiC4pNrdmYcdp0HnW-r_-17LvsErC1PeslxG8LY_DMCsVjIrHTBlKOatTcjEA3YNxWPFdqh6oNO-obreYik6_t0FCD6KuQkQCPP-3YZ7onAn_ep2lT-OSxLBthwCgHjDGbvk7QZjhVtB3YR_Eq59kiTDp57Vg0hOrDYyAFkJSmbydrUTwLA350RoCi0-qgVRB0q2Tm73kVqpJxuXxjz3m9FMloExLJW8jdo5Uryq7zlA6X_phw2pggLFJ3SYqlTtxVB0oXJFUGNoOVUsozbeC2hxKYP8g66bccHBzhyVr3tqey1Zo8qLbQ0eFzs4lumgp_2G00]--></g></svg>