<?xml version="1.0" encoding="us-ascii" standalone="no"?><svg xmlns="http://www.w3.org/2000/svg" xmlns:xlink="http://www.w3.org/1999/xlink" contentStyleType="text/css" height="1598px" preserveAspectRatio="none" style="width:1804px;height:1598px;background:#FFFFFF;" version="1.1" viewBox="0 0 1804 1598" width="1804px" zoomAndPan="magnify"><defs/><g><rect fill="#FFFFFF" height="1409.2891" style="stroke:#181818;stroke-width:1.0;" width="10" x="44.5" y="90.6406"/><rect fill="#FFFFFF" height="69.1641" style="stroke:#181818;stroke-width:1.0;" width="10" x="526.5" y="111.1641"/><rect fill="#FFFFFF" height="327.2813" style="stroke:#181818;stroke-width:1.0;" width="10" x="526.5" y="208.8516"/><rect fill="#FFFFFF" height="241.1875" style="stroke:#181818;stroke-width:1.0;" width="10" x="526.5" y="564.6563"/><rect fill="#FFFFFF" height="70.0469" style="stroke:#181818;stroke-width:1.0;" width="10" x="526.5" y="834.3672"/><rect fill="#FFFFFF" height="566.9922" style="stroke:#181818;stroke-width:1.0;" width="10" x="526.5" y="932.9375"/><rect fill="#FFFFFF" height="199.6641" style="stroke:#181818;stroke-width:1.0;" width="10" x="897.5" y="307.9453"/><rect fill="#FFFFFF" height="142.6172" style="stroke:#181818;stroke-width:1.0;" width="10" x="897.5" y="634.7031"/><rect fill="#FFFFFF" height="480.8984" style="stroke:#181818;stroke-width:1.0;" width="10" x="897.5" y="990.5078"/><rect fill="#FFFFFF" height="96.5703" style="stroke:#181818;stroke-width:1.0;" width="10" x="902.5" y="1027.0313"/><rect fill="#FFFFFF" height="96.5703" style="stroke:#181818;stroke-width:1.0;" width="10" x="902.5" y="1167.125"/><rect fill="#FFFFFF" height="28.5234" style="stroke:#181818;stroke-width:1.0;" width="10" x="1091.5" y="336.4688"/><rect fill="#FFFFFF" height="28.5234" style="stroke:#181818;stroke-width:1.0;" width="10" x="1198.5" y="393.5156"/><rect fill="#FFFFFF" height="28.5234" style="stroke:#181818;stroke-width:1.0;" width="10" x="1198.5" y="663.2266"/><rect fill="#FFFFFF" height="28.5234" style="stroke:#181818;stroke-width:1.0;" width="10" x="1323.5" y="450.5625"/><rect fill="#FFFFFF" height="28.5234" style="stroke:#181818;stroke-width:1.0;" width="10" x="1323.5" y="1060.5547"/><rect fill="#FFFFFF" height="28.5234" style="stroke:#181818;stroke-width:1.0;" width="10" x="1457.5" y="720.2734"/><rect fill="#FFFFFF" height="28.5234" style="stroke:#181818;stroke-width:1.0;" width="10" x="1457.5" y="1200.6484"/><rect fill="#FFFFFF" height="28.5234" style="stroke:#181818;stroke-width:1.0;" width="10" x="1591.5" y="1328.2656"/><rect fill="#FFFFFF" height="28.5234" style="stroke:#181818;stroke-width:1.0;" width="10" x="1730.5" y="1414.3594"/><line style="stroke:#181818;stroke-width:0.5;stroke-dasharray:5.0,5.0;" x1="49" x2="49" y1="80.6406" y2="1517.9297"/><line style="stroke:#181818;stroke-width:0.5;stroke-dasharray:5.0,5.0;" x1="531" x2="531" y1="80.6406" y2="1517.9297"/><line style="stroke:#181818;stroke-width:0.5;stroke-dasharray:5.0,5.0;" x1="902" x2="902" y1="149.4844" y2="1517.9297"/><line style="stroke:#181818;stroke-width:0.5;stroke-dasharray:5.0,5.0;" x1="1096" x2="1096" y1="80.6406" y2="1517.9297"/><line style="stroke:#181818;stroke-width:0.5;stroke-dasharray:5.0,5.0;" x1="1203" x2="1203" y1="80.6406" y2="1517.9297"/><line style="stroke:#181818;stroke-width:0.5;stroke-dasharray:5.0,5.0;" x1="1328" x2="1328" y1="80.6406" y2="1517.9297"/><line style="stroke:#181818;stroke-width:0.5;stroke-dasharray:5.0,5.0;" x1="1462" x2="1462" y1="80.6406" y2="1517.9297"/><line style="stroke:#181818;stroke-width:0.5;stroke-dasharray:5.0,5.0;" x1="1596" x2="1596" y1="80.6406" y2="1517.9297"/><line style="stroke:#181818;stroke-width:0.5;stroke-dasharray:5.0,5.0;" x1="1735" x2="1735" y1="80.6406" y2="1517.9297"/><text fill="#000000" font-family="sans-serif" font-size="14" lengthAdjust="spacing" textLength="83" x="5" y="77.6738">Administrator</text><ellipse cx="49.5" cy="13.5" fill="#E3E3E3" rx="8" ry="8" style="stroke:#181818;stroke-width:0.5;"/><path d="M49.5,21.5 L49.5,48.5 M36.5,29.5 L62.5,29.5 M49.5,48.5 L36.5,63.5 M49.5,48.5 L62.5,63.5 " fill="none" style="stroke:#181818;stroke-width:0.5;"/><text fill="#000000" font-family="sans-serif" font-size="14" lengthAdjust="spacing" textLength="83" x="5" y="1529.6035">Administrator</text><ellipse cx="49.5" cy="1541.0703" fill="#E3E3E3" rx="8" ry="8" style="stroke:#181818;stroke-width:0.5;"/><path d="M49.5,1549.0703 L49.5,1576.0703 M36.5,1557.0703 L62.5,1557.0703 M49.5,1576.0703 L36.5,1591.0703 M49.5,1576.0703 L62.5,1591.0703 " fill="none" style="stroke:#181818;stroke-width:0.5;"/><rect fill="#E3E3E3" height="29.6406" rx="2.5" ry="2.5" style="stroke:#181818;stroke-width:0.5;" width="145" x="459" y="50"/><text fill="#000000" font-family="sans-serif" font-size="14" lengthAdjust="spacing" textLength="131" x="466" y="69.6738">:RegisterEmployeeUI</text><rect fill="#E3E3E3" height="29.6406" rx="2.5" ry="2.5" style="stroke:#181818;stroke-width:0.5;" width="145" x="459" y="1516.9297"/><text fill="#000000" font-family="sans-serif" font-size="14" lengthAdjust="spacing" textLength="131" x="466" y="1536.6035">:RegisterEmployeeUI</text><rect fill="#E3E3E3" height="29.6406" rx="2.5" ry="2.5" style="stroke:#181818;stroke-width:0.5;" width="195" x="805" y="1516.9297"/><text fill="#000000" font-family="sans-serif" font-size="14" lengthAdjust="spacing" textLength="181" x="812" y="1536.6035">:RegisterEmployeeController</text><rect fill="#E3E3E3" height="29.6406" rx="2.5" ry="2.5" style="stroke:#181818;stroke-width:0.5;" width="97" x="1048" y="50"/><text fill="#000000" font-family="sans-serif" font-size="14" lengthAdjust="spacing" textLength="83" x="1055" y="69.6738">:Repositories</text><rect fill="#E3E3E3" height="29.6406" rx="2.5" ry="2.5" style="stroke:#181818;stroke-width:0.5;" width="97" x="1048" y="1516.9297"/><text fill="#000000" font-family="sans-serif" font-size="14" lengthAdjust="spacing" textLength="83" x="1055" y="1536.6035">:Repositories</text><rect fill="#E3E3E3" height="45.2813" rx="2.5" ry="2.5" style="stroke:#181818;stroke-width:0.5;" width="97" x="1155" y="34.3594"/><text fill="#000000" font-family="sans-serif" font-size="14" lengthAdjust="spacing" textLength="74" x="1166.5" y="54.0332">repositories</text><text fill="#000000" font-family="sans-serif" font-size="14" lengthAdjust="spacing" textLength="83" x="1162" y="69.6738">:Repositories</text><rect fill="#E3E3E3" height="45.2813" rx="2.5" ry="2.5" style="stroke:#181818;stroke-width:0.5;" width="97" x="1155" y="1516.9297"/><text fill="#000000" font-family="sans-serif" font-size="14" lengthAdjust="spacing" textLength="74" x="1166.5" y="1536.6035">repositories</text><text fill="#000000" font-family="sans-serif" font-size="14" lengthAdjust="spacing" textLength="83" x="1162" y="1552.2441">:Repositories</text><rect fill="#E3E3E3" height="45.2813" rx="2.5" ry="2.5" style="stroke:#181818;stroke-width:0.5;" width="133" x="1262" y="34.3594"/><text fill="#000000" font-family="sans-serif" font-size="14" lengthAdjust="spacing" textLength="114" x="1271.5" y="54.0332">agencyRepository</text><text fill="#000000" font-family="sans-serif" font-size="14" lengthAdjust="spacing" textLength="119" x="1269" y="69.6738">:AgencyRepository</text><rect fill="#E3E3E3" height="45.2813" rx="2.5" ry="2.5" style="stroke:#181818;stroke-width:0.5;" width="133" x="1262" y="1516.9297"/><text fill="#000000" font-family="sans-serif" font-size="14" lengthAdjust="spacing" textLength="114" x="1271.5" y="1536.6035">agencyRepository</text><text fill="#000000" font-family="sans-serif" font-size="14" lengthAdjust="spacing" textLength="119" x="1269" y="1552.2441">:AgencyRepository</text><rect fill="#E3E3E3" height="45.2813" rx="2.5" ry="2.5" style="stroke:#181818;stroke-width:0.5;" width="115" x="1405" y="34.3594"/><text fill="#000000" font-family="sans-serif" font-size="14" lengthAdjust="spacing" textLength="92" x="1416.5" y="54.0332">roleRepository</text><text fill="#000000" font-family="sans-serif" font-size="14" lengthAdjust="spacing" textLength="101" x="1412" y="69.6738">:RoleRepository</text><rect fill="#E3E3E3" height="45.2813" rx="2.5" ry="2.5" style="stroke:#181818;stroke-width:0.5;" width="115" x="1405" y="1516.9297"/><text fill="#000000" font-family="sans-serif" font-size="14" lengthAdjust="spacing" textLength="92" x="1416.5" y="1536.6035">roleRepository</text><text fill="#000000" font-family="sans-serif" font-size="14" lengthAdjust="spacing" textLength="101" x="1412" y="1552.2441">:RoleRepository</text><rect fill="#E3E3E3" height="45.2813" rx="2.5" ry="2.5" style="stroke:#181818;stroke-width:0.5;" width="133" x="1530" y="34.3594"/><text fill="#000000" font-family="sans-serif" font-size="14" lengthAdjust="spacing" textLength="119" x="1537" y="54.0332">personRespository</text><text fill="#000000" font-family="sans-serif" font-size="14" lengthAdjust="spacing" textLength="117" x="1538" y="69.6738">:PersonRepository</text><rect fill="#E3E3E3" height="45.2813" rx="2.5" ry="2.5" style="stroke:#181818;stroke-width:0.5;" width="133" x="1530" y="1516.9297"/><text fill="#000000" font-family="sans-serif" font-size="14" lengthAdjust="spacing" textLength="119" x="1537" y="1536.6035">personRespository</text><text fill="#000000" font-family="sans-serif" font-size="14" lengthAdjust="spacing" textLength="117" x="1538" y="1552.2441">:PersonRepository</text><rect fill="#E3E3E3" height="45.2813" rx="2.5" ry="2.5" style="stroke:#181818;stroke-width:0.5;" width="125" x="1673" y="34.3594"/><text fill="#000000" font-family="sans-serif" font-size="14" lengthAdjust="spacing" textLength="111" x="1680" y="54.0332">agentRespository</text><text fill="#000000" font-family="sans-serif" font-size="14" lengthAdjust="spacing" textLength="109" x="1681" y="69.6738">:AgentRepository</text><rect fill="#E3E3E3" height="45.2813" rx="2.5" ry="2.5" style="stroke:#181818;stroke-width:0.5;" width="125" x="1673" y="1516.9297"/><text fill="#000000" font-family="sans-serif" font-size="14" lengthAdjust="spacing" textLength="111" x="1680" y="1536.6035">agentRespository</text><text fill="#000000" font-family="sans-serif" font-size="14" lengthAdjust="spacing" textLength="109" x="1681" y="1552.2441">:AgentRepository</text><rect fill="#FFFFFF" height="1409.2891" style="stroke:#181818;stroke-width:1.0;" width="10" x="44.5" y="90.6406"/><rect fill="#FFFFFF" height="69.1641" style="stroke:#181818;stroke-width:1.0;" width="10" x="526.5" y="111.1641"/><rect fill="#FFFFFF" height="327.2813" style="stroke:#181818;stroke-width:1.0;" width="10" x="526.5" y="208.8516"/><rect fill="#FFFFFF" height="241.1875" style="stroke:#181818;stroke-width:1.0;" width="10" x="526.5" y="564.6563"/><rect fill="#FFFFFF" height="70.0469" style="stroke:#181818;stroke-width:1.0;" width="10" x="526.5" y="834.3672"/><rect fill="#FFFFFF" height="566.9922" style="stroke:#181818;stroke-width:1.0;" width="10" x="526.5" y="932.9375"/><rect fill="#FFFFFF" height="199.6641" style="stroke:#181818;stroke-width:1.0;" width="10" x="897.5" y="307.9453"/><rect fill="#FFFFFF" height="142.6172" style="stroke:#181818;stroke-width:1.0;" width="10" x="897.5" y="634.7031"/><rect fill="#FFFFFF" height="480.8984" style="stroke:#181818;stroke-width:1.0;" width="10" x="897.5" y="990.5078"/><rect fill="#FFFFFF" height="96.5703" style="stroke:#181818;stroke-width:1.0;" width="10" x="902.5" y="1027.0313"/><rect fill="#FFFFFF" height="96.5703" style="stroke:#181818;stroke-width:1.0;" width="10" x="902.5" y="1167.125"/><rect fill="#FFFFFF" height="28.5234" style="stroke:#181818;stroke-width:1.0;" width="10" x="1091.5" y="336.4688"/><rect fill="#FFFFFF" height="28.5234" style="stroke:#181818;stroke-width:1.0;" width="10" x="1198.5" y="393.5156"/><rect fill="#FFFFFF" height="28.5234" style="stroke:#181818;stroke-width:1.0;" width="10" x="1198.5" y="663.2266"/><rect fill="#FFFFFF" height="28.5234" style="stroke:#181818;stroke-width:1.0;" width="10" x="1323.5" y="450.5625"/><rect fill="#FFFFFF" height="28.5234" style="stroke:#181818;stroke-width:1.0;" width="10" x="1323.5" y="1060.5547"/><rect fill="#FFFFFF" height="28.5234" style="stroke:#181818;stroke-width:1.0;" width="10" x="1457.5" y="720.2734"/><rect fill="#FFFFFF" height="28.5234" style="stroke:#181818;stroke-width:1.0;" width="10" x="1457.5" y="1200.6484"/><rect fill="#FFFFFF" height="28.5234" style="stroke:#181818;stroke-width:1.0;" width="10" x="1591.5" y="1328.2656"/><rect fill="#FFFFFF" height="28.5234" style="stroke:#181818;stroke-width:1.0;" width="10" x="1730.5" y="1414.3594"/><polygon fill="#181818" points="514.5,107.1641,524.5,111.1641,514.5,115.1641,518.5,111.1641" style="stroke:#181818;stroke-width:1.0;"/><line style="stroke:#181818;stroke-width:1.0;" x1="54.5" x2="520.5" y1="111.1641" y2="111.1641"/><text fill="#000000" font-family="sans-serif" font-size="13" font-weight="bold" lengthAdjust="spacing" textLength="7" x="61.5" y="106.4092">1</text><text fill="#000000" font-family="sans-serif" font-size="13" lengthAdjust="spacing" textLength="181" x="72.5" y="106.4092">asks to create a new employee</text><polygon fill="#181818" points="793,135.6875,803,139.6875,793,143.6875,797,139.6875" style="stroke:#181818;stroke-width:1.0;"/><line style="stroke:#181818;stroke-width:1.0;" x1="536.5" x2="799" y1="139.6875" y2="139.6875"/><text fill="#000000" font-family="sans-serif" font-size="13" font-weight="bold" lengthAdjust="spacing" textLength="7" x="543.5" y="134.9326">2</text><text fill="#000000" font-family="sans-serif" font-size="13" lengthAdjust="spacing" textLength="36" x="554.5" y="134.9326">create</text><rect fill="#E3E3E3" height="29.6406" rx="2.5" ry="2.5" style="stroke:#181818;stroke-width:0.5;" width="195" x="805" y="119.1641"/><text fill="#000000" font-family="sans-serif" font-size="14" lengthAdjust="spacing" textLength="181" x="812" y="138.8379">:RegisterEmployeeController</text><polygon fill="#181818" points="65.5,176.3281,55.5,180.3281,65.5,184.3281,61.5,180.3281" style="stroke:#181818;stroke-width:1.0;"/><line style="stroke:#181818;stroke-width:1.0;stroke-dasharray:2.0,2.0;" x1="59.5" x2="530.5" y1="180.3281" y2="180.3281"/><text fill="#000000" font-family="sans-serif" font-size="13" font-weight="bold" lengthAdjust="spacing" textLength="7" x="71.5" y="175.5732">3</text><text fill="#000000" font-family="sans-serif" font-size="13" lengthAdjust="spacing" textLength="79" x="82.5" y="175.5732">requests data</text><polygon fill="#181818" points="514.5,204.8516,524.5,208.8516,514.5,212.8516,518.5,208.8516" style="stroke:#181818;stroke-width:1.0;"/><line style="stroke:#181818;stroke-width:1.0;" x1="54.5" x2="520.5" y1="208.8516" y2="208.8516"/><text fill="#000000" font-family="sans-serif" font-size="13" font-weight="bold" lengthAdjust="spacing" textLength="7" x="61.5" y="204.0967">4</text><text fill="#000000" font-family="sans-serif" font-size="13" lengthAdjust="spacing" textLength="122" x="72.5" y="204.0967">types requested data</text><line style="stroke:#181818;stroke-width:1.0;stroke-dasharray:2.0,2.0;" x1="536.5" x2="578.5" y1="271.4219" y2="271.4219"/><line style="stroke:#181818;stroke-width:1.0;stroke-dasharray:2.0,2.0;" x1="578.5" x2="578.5" y1="271.4219" y2="284.4219"/><line style="stroke:#181818;stroke-width:1.0;stroke-dasharray:2.0,2.0;" x1="531.5" x2="578.5" y1="284.4219" y2="284.4219"/><polygon fill="#181818" points="541.5,280.4219,531.5,284.4219,541.5,288.4219,537.5,284.4219" style="stroke:#181818;stroke-width:1.0;"/><text fill="#000000" font-family="sans-serif" font-size="13" font-weight="bold" lengthAdjust="spacing" textLength="7" x="543.5" y="252.1436">5</text><text fill="#000000" font-family="sans-serif" font-size="13" lengthAdjust="spacing" textLength="313" x="554.5" y="237.6201">keepTypedData(name, passportNumber, emailAdress,</text><text fill="#000000" font-family="sans-serif" font-size="13" lengthAdjust="spacing" textLength="263" x="554.5" y="252.1436">taxNumber, contactTelephoneNumber, street,</text><text fill="#000000" font-family="sans-serif" font-size="13" lengthAdjust="spacing" textLength="164" x="554.5" y="266.667">city, district, state, zipCode)</text><polygon fill="#181818" points="885.5,303.9453,895.5,307.9453,885.5,311.9453,889.5,307.9453" style="stroke:#181818;stroke-width:1.0;"/><line style="stroke:#181818;stroke-width:1.0;" x1="536.5" x2="891.5" y1="307.9453" y2="307.9453"/><text fill="#000000" font-family="sans-serif" font-size="13" font-weight="bold" lengthAdjust="spacing" textLength="7" x="543.5" y="303.1904">6</text><text fill="#000000" font-family="sans-serif" font-size="13" lengthAdjust="spacing" textLength="91" x="554.5" y="303.1904">getAgencyList()</text><polygon fill="#181818" points="1079.5,332.4688,1089.5,336.4688,1079.5,340.4688,1083.5,336.4688" style="stroke:#181818;stroke-width:1.0;"/><line style="stroke:#181818;stroke-width:1.0;" x1="907.5" x2="1085.5" y1="336.4688" y2="336.4688"/><text fill="#000000" font-family="sans-serif" font-size="13" font-weight="bold" lengthAdjust="spacing" textLength="7" x="914.5" y="331.7139">7</text><text fill="#000000" font-family="sans-serif" font-size="13" lengthAdjust="spacing" textLength="75" x="925.5" y="331.7139">getInstance()</text><polygon fill="#181818" points="918.5,360.9922,908.5,364.9922,918.5,368.9922,914.5,364.9922" style="stroke:#181818;stroke-width:1.0;"/><line style="stroke:#181818;stroke-width:1.0;stroke-dasharray:2.0,2.0;" x1="912.5" x2="1095.5" y1="364.9922" y2="364.9922"/><text fill="#000000" font-family="sans-serif" font-size="13" font-weight="bold" lengthAdjust="spacing" textLength="7" x="924.5" y="360.2373">8</text><text fill="#000000" font-family="sans-serif" font-size="13" lengthAdjust="spacing" textLength="67" x="935.5" y="360.2373">repositories</text><polygon fill="#181818" points="1186.5,389.5156,1196.5,393.5156,1186.5,397.5156,1190.5,393.5156" style="stroke:#181818;stroke-width:1.0;"/><line style="stroke:#181818;stroke-width:1.0;" x1="907.5" x2="1192.5" y1="393.5156" y2="393.5156"/><text fill="#000000" font-family="sans-serif" font-size="13" font-weight="bold" lengthAdjust="spacing" textLength="7" x="914.5" y="388.7607">9</text><text fill="#000000" font-family="sans-serif" font-size="13" lengthAdjust="spacing" textLength="132" x="925.5" y="388.7607">getAgencyRepository()</text><polygon fill="#181818" points="918.5,418.0391,908.5,422.0391,918.5,426.0391,914.5,422.0391" style="stroke:#181818;stroke-width:1.0;"/><line style="stroke:#181818;stroke-width:1.0;stroke-dasharray:2.0,2.0;" x1="912.5" x2="1202.5" y1="422.0391" y2="422.0391"/><text fill="#000000" font-family="sans-serif" font-size="13" font-weight="bold" lengthAdjust="spacing" textLength="14" x="924.5" y="417.2842">10</text><text fill="#000000" font-family="sans-serif" font-size="13" lengthAdjust="spacing" textLength="104" x="942.5" y="417.2842">agencyRepository</text><polygon fill="#181818" points="1311.5,446.5625,1321.5,450.5625,1311.5,454.5625,1315.5,450.5625" style="stroke:#181818;stroke-width:1.0;"/><line style="stroke:#181818;stroke-width:1.0;" x1="907.5" x2="1317.5" y1="450.5625" y2="450.5625"/><text fill="#000000" font-family="sans-serif" font-size="13" font-weight="bold" lengthAdjust="spacing" textLength="14" x="914.5" y="445.8076">11</text><text fill="#000000" font-family="sans-serif" font-size="13" lengthAdjust="spacing" textLength="91" x="932.5" y="445.8076">getAgencyList()</text><polygon fill="#181818" points="918.5,475.0859,908.5,479.0859,918.5,483.0859,914.5,479.0859" style="stroke:#181818;stroke-width:1.0;"/><line style="stroke:#181818;stroke-width:1.0;stroke-dasharray:2.0,2.0;" x1="912.5" x2="1327.5" y1="479.0859" y2="479.0859"/><text fill="#000000" font-family="sans-serif" font-size="13" font-weight="bold" lengthAdjust="spacing" textLength="14" x="924.5" y="474.3311">12</text><text fill="#000000" font-family="sans-serif" font-size="13" lengthAdjust="spacing" textLength="63" x="942.5" y="474.3311">agencyList</text><polygon fill="#181818" points="547.5,503.6094,537.5,507.6094,547.5,511.6094,543.5,507.6094" style="stroke:#181818;stroke-width:1.0;"/><line style="stroke:#181818;stroke-width:1.0;stroke-dasharray:2.0,2.0;" x1="541.5" x2="901.5" y1="507.6094" y2="507.6094"/><text fill="#000000" font-family="sans-serif" font-size="13" font-weight="bold" lengthAdjust="spacing" textLength="14" x="553.5" y="502.8545">13</text><text fill="#000000" font-family="sans-serif" font-size="13" lengthAdjust="spacing" textLength="63" x="571.5" y="502.8545">agencyList</text><polygon fill="#181818" points="65.5,532.1328,55.5,536.1328,65.5,540.1328,61.5,536.1328" style="stroke:#181818;stroke-width:1.0;"/><line style="stroke:#181818;stroke-width:1.0;stroke-dasharray:2.0,2.0;" x1="59.5" x2="530.5" y1="536.1328" y2="536.1328"/><text fill="#000000" font-family="sans-serif" font-size="13" font-weight="bold" lengthAdjust="spacing" textLength="14" x="71.5" y="531.3779">14</text><text fill="#000000" font-family="sans-serif" font-size="13" lengthAdjust="spacing" textLength="104" x="89.5" y="531.3779">shows agency list</text><polygon fill="#181818" points="514.5,560.6563,524.5,564.6563,514.5,568.6563,518.5,564.6563" style="stroke:#181818;stroke-width:1.0;"/><line style="stroke:#181818;stroke-width:1.0;" x1="54.5" x2="520.5" y1="564.6563" y2="564.6563"/><text fill="#000000" font-family="sans-serif" font-size="13" font-weight="bold" lengthAdjust="spacing" textLength="14" x="61.5" y="559.9014">15</text><text fill="#000000" font-family="sans-serif" font-size="13" lengthAdjust="spacing" textLength="106" x="79.5" y="559.9014">selects an agency</text><line style="stroke:#181818;stroke-width:1.0;stroke-dasharray:2.0,2.0;" x1="536.5" x2="578.5" y1="598.1797" y2="598.1797"/><line style="stroke:#181818;stroke-width:1.0;stroke-dasharray:2.0,2.0;" x1="578.5" x2="578.5" y1="598.1797" y2="611.1797"/><line style="stroke:#181818;stroke-width:1.0;stroke-dasharray:2.0,2.0;" x1="531.5" x2="578.5" y1="611.1797" y2="611.1797"/><polygon fill="#181818" points="541.5,607.1797,531.5,611.1797,541.5,615.1797,537.5,611.1797" style="stroke:#181818;stroke-width:1.0;"/><text fill="#000000" font-family="sans-serif" font-size="13" font-weight="bold" lengthAdjust="spacing" textLength="14" x="543.5" y="593.4248">16</text><text fill="#000000" font-family="sans-serif" font-size="13" lengthAdjust="spacing" textLength="173" x="561.5" y="593.4248">keepSelectedAgency(agency)</text><polygon fill="#181818" points="885.5,630.7031,895.5,634.7031,885.5,638.7031,889.5,634.7031" style="stroke:#181818;stroke-width:1.0;"/><line style="stroke:#181818;stroke-width:1.0;" x1="536.5" x2="891.5" y1="634.7031" y2="634.7031"/><text fill="#000000" font-family="sans-serif" font-size="13" font-weight="bold" lengthAdjust="spacing" textLength="14" x="543.5" y="629.9482">17</text><text fill="#000000" font-family="sans-serif" font-size="13" lengthAdjust="spacing" textLength="73" x="561.5" y="629.9482">getRoleList()</text><polygon fill="#181818" points="1186.5,659.2266,1196.5,663.2266,1186.5,667.2266,1190.5,663.2266" style="stroke:#181818;stroke-width:1.0;"/><line style="stroke:#181818;stroke-width:1.0;" x1="907.5" x2="1192.5" y1="663.2266" y2="663.2266"/><text fill="#000000" font-family="sans-serif" font-size="13" font-weight="bold" lengthAdjust="spacing" textLength="14" x="914.5" y="658.4717">18</text><text fill="#000000" font-family="sans-serif" font-size="13" lengthAdjust="spacing" textLength="114" x="932.5" y="658.4717">getRoleRepository()</text><polygon fill="#181818" points="918.5,687.75,908.5,691.75,918.5,695.75,914.5,691.75" style="stroke:#181818;stroke-width:1.0;"/><line style="stroke:#181818;stroke-width:1.0;stroke-dasharray:2.0,2.0;" x1="912.5" x2="1202.5" y1="691.75" y2="691.75"/><text fill="#000000" font-family="sans-serif" font-size="13" font-weight="bold" lengthAdjust="spacing" textLength="14" x="924.5" y="686.9951">19</text><text fill="#000000" font-family="sans-serif" font-size="13" lengthAdjust="spacing" textLength="83" x="942.5" y="686.9951">roleRepository</text><polygon fill="#181818" points="1445.5,716.2734,1455.5,720.2734,1445.5,724.2734,1449.5,720.2734" style="stroke:#181818;stroke-width:1.0;"/><line style="stroke:#181818;stroke-width:1.0;" x1="907.5" x2="1451.5" y1="720.2734" y2="720.2734"/><text fill="#000000" font-family="sans-serif" font-size="13" font-weight="bold" lengthAdjust="spacing" textLength="14" x="914.5" y="715.5186">20</text><text fill="#000000" font-family="sans-serif" font-size="13" lengthAdjust="spacing" textLength="73" x="932.5" y="715.5186">getRoleList()</text><polygon fill="#181818" points="918.5,744.7969,908.5,748.7969,918.5,752.7969,914.5,748.7969" style="stroke:#181818;stroke-width:1.0;"/><line style="stroke:#181818;stroke-width:1.0;stroke-dasharray:2.0,2.0;" x1="912.5" x2="1461.5" y1="748.7969" y2="748.7969"/><text fill="#000000" font-family="sans-serif" font-size="13" font-weight="bold" lengthAdjust="spacing" textLength="14" x="924.5" y="744.042">21</text><text fill="#000000" font-family="sans-serif" font-size="13" lengthAdjust="spacing" textLength="42" x="942.5" y="744.042">roleList</text><polygon fill="#181818" points="547.5,773.3203,537.5,777.3203,547.5,781.3203,543.5,777.3203" style="stroke:#181818;stroke-width:1.0;"/><line style="stroke:#181818;stroke-width:1.0;stroke-dasharray:2.0,2.0;" x1="541.5" x2="901.5" y1="777.3203" y2="777.3203"/><text fill="#000000" font-family="sans-serif" font-size="13" font-weight="bold" lengthAdjust="spacing" textLength="14" x="553.5" y="772.5654">22</text><text fill="#000000" font-family="sans-serif" font-size="13" lengthAdjust="spacing" textLength="42" x="571.5" y="772.5654">roleList</text><polygon fill="#181818" points="65.5,801.8438,55.5,805.8438,65.5,809.8438,61.5,805.8438" style="stroke:#181818;stroke-width:1.0;"/><line style="stroke:#181818;stroke-width:1.0;stroke-dasharray:2.0,2.0;" x1="59.5" x2="530.5" y1="805.8438" y2="805.8438"/><text fill="#000000" font-family="sans-serif" font-size="13" font-weight="bold" lengthAdjust="spacing" textLength="14" x="71.5" y="801.0889">23</text><text fill="#000000" font-family="sans-serif" font-size="13" lengthAdjust="spacing" textLength="83" x="89.5" y="801.0889">shows role list</text><polygon fill="#181818" points="514.5,830.3672,524.5,834.3672,514.5,838.3672,518.5,834.3672" style="stroke:#181818;stroke-width:1.0;"/><line style="stroke:#181818;stroke-width:1.0;" x1="54.5" x2="520.5" y1="834.3672" y2="834.3672"/><text fill="#000000" font-family="sans-serif" font-size="13" font-weight="bold" lengthAdjust="spacing" textLength="14" x="61.5" y="829.6123">24</text><text fill="#000000" font-family="sans-serif" font-size="13" lengthAdjust="spacing" textLength="78" x="79.5" y="829.6123">selects a role</text><line style="stroke:#181818;stroke-width:1.0;stroke-dasharray:2.0,2.0;" x1="536.5" x2="578.5" y1="867.8906" y2="867.8906"/><line style="stroke:#181818;stroke-width:1.0;stroke-dasharray:2.0,2.0;" x1="578.5" x2="578.5" y1="867.8906" y2="880.8906"/><line style="stroke:#181818;stroke-width:1.0;stroke-dasharray:2.0,2.0;" x1="531.5" x2="578.5" y1="880.8906" y2="880.8906"/><polygon fill="#181818" points="541.5,876.8906,531.5,880.8906,541.5,884.8906,537.5,880.8906" style="stroke:#181818;stroke-width:1.0;"/><text fill="#000000" font-family="sans-serif" font-size="13" font-weight="bold" lengthAdjust="spacing" textLength="14" x="543.5" y="863.1357">25</text><text fill="#000000" font-family="sans-serif" font-size="13" lengthAdjust="spacing" textLength="134" x="561.5" y="863.1357">keepSelectedRole(role)</text><polygon fill="#181818" points="65.5,900.4141,55.5,904.4141,65.5,908.4141,61.5,904.4141" style="stroke:#181818;stroke-width:1.0;"/><line style="stroke:#181818;stroke-width:1.0;stroke-dasharray:2.0,2.0;" x1="59.5" x2="530.5" y1="904.4141" y2="904.4141"/><text fill="#000000" font-family="sans-serif" font-size="13" font-weight="bold" lengthAdjust="spacing" textLength="14" x="71.5" y="899.6592">26</text><text fill="#000000" font-family="sans-serif" font-size="13" lengthAdjust="spacing" textLength="430" x="89.5" y="899.6592">shows selected agency, selected role, requested data and asks to confirm</text><polygon fill="#181818" points="514.5,928.9375,524.5,932.9375,514.5,936.9375,518.5,932.9375" style="stroke:#181818;stroke-width:1.0;"/><line style="stroke:#181818;stroke-width:1.0;" x1="54.5" x2="520.5" y1="932.9375" y2="932.9375"/><text fill="#000000" font-family="sans-serif" font-size="13" font-weight="bold" lengthAdjust="spacing" textLength="14" x="61.5" y="928.1826">27</text><text fill="#000000" font-family="sans-serif" font-size="13" lengthAdjust="spacing" textLength="75" x="79.5" y="928.1826">submits data</text><polygon fill="#181818" points="885.5,986.5078,895.5,990.5078,885.5,994.5078,889.5,990.5078" style="stroke:#181818;stroke-width:1.0;"/><line style="stroke:#181818;stroke-width:1.0;" x1="536.5" x2="891.5" y1="990.5078" y2="990.5078"/><text fill="#000000" font-family="sans-serif" font-size="13" font-weight="bold" lengthAdjust="spacing" textLength="14" x="543.5" y="971.2295">28</text><text fill="#000000" font-family="sans-serif" font-size="13" lengthAdjust="spacing" textLength="324" x="561.5" y="956.7061">registerEmployee(name, passportNumber, emailAdress,</text><text fill="#000000" font-family="sans-serif" font-size="13" lengthAdjust="spacing" textLength="263" x="561.5" y="971.2295">taxNumber, contactTelephoneNumber, street,</text><text fill="#000000" font-family="sans-serif" font-size="13" lengthAdjust="spacing" textLength="243" x="561.5" y="985.7529">city, district, state, zipCode, role, agency)</text><line style="stroke:#181818;stroke-width:1.0;" x1="907.5" x2="954.5" y1="1014.0313" y2="1014.0313"/><line style="stroke:#181818;stroke-width:1.0;" x1="954.5" x2="954.5" y1="1014.0313" y2="1027.0313"/><line style="stroke:#181818;stroke-width:1.0;" x1="913.5" x2="954.5" y1="1027.0313" y2="1027.0313"/><polygon fill="#181818" points="923.5,1023.0313,913.5,1027.0313,923.5,1031.0313,919.5,1027.0313" style="stroke:#181818;stroke-width:1.0;"/><text fill="#000000" font-family="sans-serif" font-size="13" font-weight="bold" lengthAdjust="spacing" textLength="14" x="919.5" y="1009.2764">29</text><text fill="#000000" font-family="sans-serif" font-size="13" lengthAdjust="spacing" textLength="152" x="937.5" y="1009.2764">getAgencyByID(agencyID)</text><polygon fill="#181818" points="1311.5,1056.5547,1321.5,1060.5547,1311.5,1064.5547,1315.5,1060.5547" style="stroke:#181818;stroke-width:1.0;"/><line style="stroke:#181818;stroke-width:1.0;" x1="912.5" x2="1317.5" y1="1060.5547" y2="1060.5547"/><text fill="#000000" font-family="sans-serif" font-size="13" font-weight="bold" lengthAdjust="spacing" textLength="14" x="919.5" y="1055.7998">30</text><text fill="#000000" font-family="sans-serif" font-size="13" lengthAdjust="spacing" textLength="98" x="937.5" y="1055.7998">getAgencyByID()</text><polygon fill="#181818" points="923.5,1085.0781,913.5,1089.0781,923.5,1093.0781,919.5,1089.0781" style="stroke:#181818;stroke-width:1.0;"/><line style="stroke:#181818;stroke-width:1.0;stroke-dasharray:2.0,2.0;" x1="917.5" x2="1327.5" y1="1089.0781" y2="1089.0781"/><text fill="#000000" font-family="sans-serif" font-size="13" font-weight="bold" lengthAdjust="spacing" textLength="14" x="929.5" y="1084.3232">31</text><text fill="#000000" font-family="sans-serif" font-size="13" lengthAdjust="spacing" textLength="42" x="947.5" y="1084.3232">agency</text><line style="stroke:#181818;stroke-width:1.0;stroke-dasharray:2.0,2.0;" x1="912.5" x2="954.5" y1="1122.6016" y2="1122.6016"/><line style="stroke:#181818;stroke-width:1.0;stroke-dasharray:2.0,2.0;" x1="954.5" x2="954.5" y1="1122.6016" y2="1135.6016"/><line style="stroke:#181818;stroke-width:1.0;stroke-dasharray:2.0,2.0;" x1="907.5" x2="954.5" y1="1135.6016" y2="1135.6016"/><polygon fill="#181818" points="917.5,1131.6016,907.5,1135.6016,917.5,1139.6016,913.5,1135.6016" style="stroke:#181818;stroke-width:1.0;"/><text fill="#000000" font-family="sans-serif" font-size="13" font-weight="bold" lengthAdjust="spacing" textLength="14" x="919.5" y="1117.8467">32</text><text fill="#000000" font-family="sans-serif" font-size="13" lengthAdjust="spacing" textLength="42" x="937.5" y="1117.8467">agency</text><line style="stroke:#181818;stroke-width:1.0;" x1="907.5" x2="954.5" y1="1154.125" y2="1154.125"/><line style="stroke:#181818;stroke-width:1.0;" x1="954.5" x2="954.5" y1="1154.125" y2="1167.125"/><line style="stroke:#181818;stroke-width:1.0;" x1="913.5" x2="954.5" y1="1167.125" y2="1167.125"/><polygon fill="#181818" points="923.5,1163.125,913.5,1167.125,923.5,1171.125,919.5,1167.125" style="stroke:#181818;stroke-width:1.0;"/><text fill="#000000" font-family="sans-serif" font-size="13" font-weight="bold" lengthAdjust="spacing" textLength="14" x="919.5" y="1149.3701">33</text><text fill="#000000" font-family="sans-serif" font-size="13" lengthAdjust="spacing" textLength="113" x="937.5" y="1149.3701">getRoleByID(roleID)</text><polygon fill="#181818" points="1445.5,1196.6484,1455.5,1200.6484,1445.5,1204.6484,1449.5,1200.6484" style="stroke:#181818;stroke-width:1.0;"/><line style="stroke:#181818;stroke-width:1.0;" x1="912.5" x2="1451.5" y1="1200.6484" y2="1200.6484"/><text fill="#000000" font-family="sans-serif" font-size="13" font-weight="bold" lengthAdjust="spacing" textLength="14" x="919.5" y="1195.8936">34</text><text fill="#000000" font-family="sans-serif" font-size="13" lengthAdjust="spacing" textLength="80" x="937.5" y="1195.8936">getRoleByID()</text><polygon fill="#181818" points="923.5,1225.1719,913.5,1229.1719,923.5,1233.1719,919.5,1229.1719" style="stroke:#181818;stroke-width:1.0;"/><line style="stroke:#181818;stroke-width:1.0;stroke-dasharray:2.0,2.0;" x1="917.5" x2="1461.5" y1="1229.1719" y2="1229.1719"/><text fill="#000000" font-family="sans-serif" font-size="13" font-weight="bold" lengthAdjust="spacing" textLength="14" x="929.5" y="1224.417">35</text><text fill="#000000" font-family="sans-serif" font-size="13" lengthAdjust="spacing" textLength="21" x="947.5" y="1224.417">role</text><line style="stroke:#181818;stroke-width:1.0;stroke-dasharray:2.0,2.0;" x1="912.5" x2="954.5" y1="1262.6953" y2="1262.6953"/><line style="stroke:#181818;stroke-width:1.0;stroke-dasharray:2.0,2.0;" x1="954.5" x2="954.5" y1="1262.6953" y2="1275.6953"/><line style="stroke:#181818;stroke-width:1.0;stroke-dasharray:2.0,2.0;" x1="907.5" x2="954.5" y1="1275.6953" y2="1275.6953"/><polygon fill="#181818" points="917.5,1271.6953,907.5,1275.6953,917.5,1279.6953,913.5,1275.6953" style="stroke:#181818;stroke-width:1.0;"/><text fill="#000000" font-family="sans-serif" font-size="13" font-weight="bold" lengthAdjust="spacing" textLength="14" x="919.5" y="1257.9404">36</text><text fill="#000000" font-family="sans-serif" font-size="13" lengthAdjust="spacing" textLength="21" x="937.5" y="1257.9404">role</text><polygon fill="#181818" points="1579.5,1324.2656,1589.5,1328.2656,1579.5,1332.2656,1583.5,1328.2656" style="stroke:#181818;stroke-width:1.0;"/><line style="stroke:#181818;stroke-width:1.0;" x1="907.5" x2="1585.5" y1="1328.2656" y2="1328.2656"/><text fill="#000000" font-family="sans-serif" font-size="13" font-weight="bold" lengthAdjust="spacing" textLength="14" x="914.5" y="1308.9873">37</text><text fill="#000000" font-family="sans-serif" font-size="13" lengthAdjust="spacing" textLength="324" x="932.5" y="1294.4639">registerEmployee(name, passportNumber, emailAdress,</text><text fill="#000000" font-family="sans-serif" font-size="13" lengthAdjust="spacing" textLength="269" x="932.5" y="1308.9873">taxNumber, contactTelephoneNumber, adress,</text><text fill="#000000" font-family="sans-serif" font-size="13" lengthAdjust="spacing" textLength="37" x="932.5" y="1323.5107">roleID)</text><polygon fill="#181818" points="918.5,1352.7891,908.5,1356.7891,918.5,1360.7891,914.5,1356.7891" style="stroke:#181818;stroke-width:1.0;"/><line style="stroke:#181818;stroke-width:1.0;stroke-dasharray:2.0,2.0;" x1="912.5" x2="1595.5" y1="1356.7891" y2="1356.7891"/><text fill="#000000" font-family="sans-serif" font-size="13" font-weight="bold" lengthAdjust="spacing" textLength="14" x="924.5" y="1352.0342">38</text><text fill="#000000" font-family="sans-serif" font-size="13" lengthAdjust="spacing" textLength="56" x="942.5" y="1352.0342">employee</text><polygon fill="#181818" points="1718.5,1410.3594,1728.5,1414.3594,1718.5,1418.3594,1722.5,1414.3594" style="stroke:#181818;stroke-width:1.0;"/><line style="stroke:#181818;stroke-width:1.0;" x1="907.5" x2="1724.5" y1="1414.3594" y2="1414.3594"/><text fill="#000000" font-family="sans-serif" font-size="13" font-weight="bold" lengthAdjust="spacing" textLength="14" x="914.5" y="1395.0811">39</text><text fill="#000000" font-family="sans-serif" font-size="13" lengthAdjust="spacing" textLength="324" x="932.5" y="1380.5576">registerEmployee(name, passportNumber, emailAdress,</text><text fill="#000000" font-family="sans-serif" font-size="13" lengthAdjust="spacing" textLength="269" x="932.5" y="1395.0811">taxNumber, contactTelephoneNumber, adress,</text><text fill="#000000" font-family="sans-serif" font-size="13" lengthAdjust="spacing" textLength="99" x="932.5" y="1409.6045">roleID, agencyID)</text><polygon fill="#181818" points="918.5,1438.8828,908.5,1442.8828,918.5,1446.8828,914.5,1442.8828" style="stroke:#181818;stroke-width:1.0;"/><line style="stroke:#181818;stroke-width:1.0;stroke-dasharray:2.0,2.0;" x1="912.5" x2="1734.5" y1="1442.8828" y2="1442.8828"/><text fill="#000000" font-family="sans-serif" font-size="13" font-weight="bold" lengthAdjust="spacing" textLength="14" x="924.5" y="1438.1279">40</text><text fill="#000000" font-family="sans-serif" font-size="13" lengthAdjust="spacing" textLength="56" x="942.5" y="1438.1279">employee</text><polygon fill="#181818" points="547.5,1467.4063,537.5,1471.4063,547.5,1475.4063,543.5,1471.4063" style="stroke:#181818;stroke-width:1.0;"/><line style="stroke:#181818;stroke-width:1.0;stroke-dasharray:2.0,2.0;" x1="541.5" x2="901.5" y1="1471.4063" y2="1471.4063"/><text fill="#000000" font-family="sans-serif" font-size="13" font-weight="bold" lengthAdjust="spacing" textLength="14" x="553.5" y="1466.6514">41</text><text fill="#000000" font-family="sans-serif" font-size="13" lengthAdjust="spacing" textLength="56" x="571.5" y="1466.6514">employee</text><polygon fill="#181818" points="60.5,1495.9297,50.5,1499.9297,60.5,1503.9297,56.5,1499.9297" style="stroke:#181818;stroke-width:1.0;"/><line style="stroke:#181818;stroke-width:1.0;stroke-dasharray:2.0,2.0;" x1="54.5" x2="530.5" y1="1499.9297" y2="1499.9297"/><text fill="#000000" font-family="sans-serif" font-size="13" font-weight="bold" lengthAdjust="spacing" textLength="14" x="66.5" y="1495.1748">42</text><text fill="#000000" font-family="sans-serif" font-size="13" lengthAdjust="spacing" textLength="158" x="84.5" y="1495.1748">displays operation success</text><!--SRC=[nLTDRzim3BtxLmYzB2tSFv33WApf8S0w3FsuzQBQR2B4bZn9MUlz-b7-b2p5TfQjyyqo-SX7wb6osZDUK4bpaWikafqKEH0j3n2fxaj1aptTmeCkCo0I4atvDhCDr8wcuetnBNcbcO8eeWSj-25_0Hb5dtOi1V8gX7uHxn5Dj93aOfNcZ3Eb9SNN2q8LMQtl8aJJB645vPfSBEzXYnOWR_CY4oN0qwOoVDfCsDq8hgN8CgY1-rVFhn2AONm6ghBi5ahNKbg6ptp43nTSJwmQJyeU5xrNWwMQ_61n45zau63SEmjr3iwIwr-0L8BVWx8WlZTh3iXmqIUZNPHLlUHniTOYVB3fx2VLK3Kv8is3B-JwC_QJBD5lhuWM995Wx2ZXy4QWQMZlqW7X9kWM4G1X-ZPVNI5W3TGRjOPeQU8kSH__E83IYgHKqyui1I-4dQOk2r2jAwIzRp0nEsZblWSe7X4YNQFVWjCSOXINmefA_QsIIuoaASjMgGIbucUkwNlx8K626EOHCYXsWaExZY82q6YRC5t693MgOeas7p2XcFnYnOr8uT9DotuiqfPOlDBPDKOoMz3rjlsA4HSk_2IUUImqnEvtJ8szuPW_Js3X9zwXsxiiHCp2l7RID-stD3jIaB4GHmWWebsU7c4M5PFFE1c3FwGp73IpA0L3kQI652Rwxb3oXbgGbXVXUhZHQ1TjZDLqD9jPDtV2s1EAS0Q9seatrG2Hh4MQ62GALPpWyA6yyHoV8iCXyb2vGrgJNjGGvodyYCJDkH9gz2o5Joh4FRK2c-aKWOmhn3r48_B70XcISd37Y-OISXCwGib5zxGXcqZZVAOYXPGHHZvT60RdT5bKRYUUhAqe3Ds5yR-SdtiWSTN0DGAD-mM37Gzk0QZajB_52FxAP3vsg_2O7rvoDhoDpBhkL7SPzmRymLUBkAd8S0nDpWXNIU7RnPToisu6t6PzzYrZx3oh8dtOUNRUMHPGxLIC6MV0U3-ChgeQcMx_XLuScvnJVPWpEEVCpUYSaJbHVm__vEeF_yN-eSnfQnjgRB05te_YCG_lWqThU4vtFtqZtV50scZHkFBr_oXdEnTd5TRxUGwD5trc-KQ3U7U18vZX3Ht-tLwQewF8QAc8A41IpGJ74oz9i4vHw5vW9xk-Ytu3]--></g></svg>