<?xml version="1.0" encoding="us-ascii" standalone="no"?><svg xmlns="http://www.w3.org/2000/svg" xmlns:xlink="http://www.w3.org/1999/xlink" contentStyleType="text/css" height="543px" preserveAspectRatio="none" style="width:646px;height:543px;background:#FFFFFF;" version="1.1" viewBox="0 0 646 543" width="646.5px" zoomAndPan="magnify"><defs/><g><text fill="#000000" font-family="sans-serif" font-size="7" font-weight="bold" lengthAdjust="spacing" textLength="78" x="280.9975" y="11.3369">Domain Model - US002</text><!--class Person--><g id="elem_Person"><rect codeLine="14" fill="#F1F1F1" height="48.1016" id="Person" rx="1.25" ry="1.25" style="stroke:#181818;stroke-width:0.25;" width="62" x="113.495" y="429.3203"/><text fill="#000000" font-family="sans-serif" font-size="7" lengthAdjust="spacing" textLength="22.5" x="133.245" y="438.1572">Person</text><line style="stroke:#181818;stroke-width:0.25;" x1="113.995" x2="174.995" y1="442.1406" y2="442.1406"/><text fill="#000000" font-family="sans-serif" font-size="7" lengthAdjust="spacing" textLength="17.5" x="116.495" y="450.4775">name</text><text fill="#000000" font-family="sans-serif" font-size="7" lengthAdjust="spacing" textLength="33.5" x="116.495" y="458.2979">taxNumber</text><text fill="#000000" font-family="sans-serif" font-size="7" lengthAdjust="spacing" textLength="42.5" x="116.495" y="466.1182">emailAddress</text><text fill="#000000" font-family="sans-serif" font-size="7" lengthAdjust="spacing" textLength="56" x="116.495" y="473.9385">telephoneNumber</text></g><!--class Role--><g id="elem_Role"><rect codeLine="21" fill="#F1F1F1" height="32.4609" id="Role" rx="1.25" ry="1.25" style="stroke:#181818;stroke-width:0.25;" width="40.5" x="49.745" y="347.0703"/><text fill="#000000" font-family="sans-serif" font-size="7" lengthAdjust="spacing" textLength="14.5" x="62.745" y="355.9072">Role</text><line style="stroke:#181818;stroke-width:0.25;" x1="50.245" x2="89.745" y1="359.8906" y2="359.8906"/><text fill="#000000" font-family="sans-serif" font-size="7" lengthAdjust="spacing" textLength="5.5" x="52.745" y="368.2275">id</text><text fill="#000000" font-family="sans-serif" font-size="7" lengthAdjust="spacing" textLength="34.5" x="52.745" y="376.0479">description</text></g><!--class Owner--><g id="elem_Owner"><rect codeLine="26" fill="#F1F1F1" height="16.8203" id="Owner" rx="1.25" ry="1.25" style="stroke:#181818;stroke-width:0.25;" width="23.5" x="41.245" y="519.0703"/><text fill="#000000" font-family="sans-serif" font-size="7" lengthAdjust="spacing" textLength="20.5" x="42.745" y="527.9072">Owner</text><line style="stroke:#181818;stroke-width:0.25;" x1="41.745" x2="64.245" y1="531.8906" y2="531.8906"/></g><!--class PassportCard--><g id="elem_PassportCard"><rect codeLine="29" fill="#F1F1F1" height="24.6406" id="PassportCard" rx="1.25" ry="1.25" style="stroke:#181818;stroke-width:0.25;" width="73.5" x="107.745" y="351.0703"/><text fill="#000000" font-family="sans-serif" font-size="7" lengthAdjust="spacing" textLength="43.5" x="122.745" y="359.9072">PassportCard</text><line style="stroke:#181818;stroke-width:0.25;" x1="108.245" x2="180.745" y1="363.8906" y2="363.8906"/><text fill="#000000" font-family="sans-serif" font-size="7" lengthAdjust="spacing" textLength="67.5" x="110.745" y="372.2275">passportCardNumber</text></g><!--class Address--><g id="elem_Address"><rect codeLine="33" fill="#F1F1F1" height="55.9219" id="Address" rx="1.25" ry="1.25" style="stroke:#181818;stroke-width:0.25;" width="31.5" x="198.745" y="335.3203"/><text fill="#000000" font-family="sans-serif" font-size="7" lengthAdjust="spacing" textLength="26" x="201.495" y="344.1572">Address</text><line style="stroke:#181818;stroke-width:0.25;" x1="199.245" x2="229.745" y1="348.1406" y2="348.1406"/><text fill="#000000" font-family="sans-serif" font-size="7" lengthAdjust="spacing" textLength="18" x="201.745" y="356.4775">street</text><text fill="#000000" font-family="sans-serif" font-size="7" lengthAdjust="spacing" textLength="10.5" x="201.745" y="364.2979">city</text><text fill="#000000" font-family="sans-serif" font-size="7" lengthAdjust="spacing" textLength="20.5" x="201.745" y="372.1182">district</text><text fill="#000000" font-family="sans-serif" font-size="7" lengthAdjust="spacing" textLength="15.5" x="201.745" y="379.9385">state</text><text fill="#000000" font-family="sans-serif" font-size="7" lengthAdjust="spacing" textLength="25.5" x="201.745" y="387.7588">zipCode</text></g><!--class Property--><g id="elem_Property"><rect codeLine="43" fill="#F1F1F1" height="79.3828" id="Property" rx="1.25" ry="1.25" style="stroke:#181818;stroke-width:0.25;" width="70.5" x="273.745" y="217.8203"/><text fill="#000000" font-family="sans-serif" font-size="7" lengthAdjust="spacing" textLength="27" x="295.495" y="226.6572">Property</text><line style="stroke:#181818;stroke-width:0.25;" x1="274.245" x2="343.745" y1="230.6406" y2="230.6406"/><text fill="#000000" font-family="sans-serif" font-size="7" lengthAdjust="spacing" textLength="42.5" x="276.745" y="238.9775">propertyType</text><text fill="#000000" font-family="sans-serif" font-size="7" lengthAdjust="spacing" textLength="49" x="276.745" y="246.7979">areaOfProperty</text><text fill="#000000" font-family="sans-serif" font-size="7" lengthAdjust="spacing" textLength="64.5" x="276.745" y="254.6182">distanceFromCentre</text><text fill="#000000" font-family="sans-serif" font-size="7" lengthAdjust="spacing" textLength="58.5" x="276.745" y="262.4385">dateOfAcceptance</text><text fill="#000000" font-family="sans-serif" font-size="7" lengthAdjust="spacing" textLength="48" x="276.745" y="270.2588">dateOfRequest</text><text fill="#000000" font-family="sans-serif" font-size="7" lengthAdjust="spacing" textLength="2" x="276.745" y="278.0791">&#160;</text><text fill="#000000" font-family="sans-serif" font-size="7" lengthAdjust="spacing" textLength="18.5" x="276.745" y="285.8994">Photo</text><text fill="#000000" font-family="sans-serif" font-size="7" lengthAdjust="spacing" textLength="37.5" x="276.745" y="293.7197">Transaction</text></g><!--class Building--><g id="elem_Building"><rect codeLine="55" fill="#F1F1F1" height="55.9219" id="Building" rx="1.25" ry="1.25" style="stroke:#181818;stroke-width:0.25;" width="67.5" x="300.745" y="335.3203"/><text fill="#000000" font-family="sans-serif" font-size="7" lengthAdjust="spacing" textLength="25" x="321.995" y="344.1572">Building</text><line style="stroke:#181818;stroke-width:0.25;" x1="301.245" x2="367.745" y1="348.1406" y2="348.1406"/><text fill="#000000" font-family="sans-serif" font-size="7" lengthAdjust="spacing" textLength="31.5" x="303.745" y="356.4775">bedrooms</text><text fill="#000000" font-family="sans-serif" font-size="7" lengthAdjust="spacing" textLength="33.5" x="303.745" y="364.2979">bathrooms</text><text fill="#000000" font-family="sans-serif" font-size="7" lengthAdjust="spacing" textLength="47" x="303.745" y="372.1182">parkingSpaces</text><text fill="#000000" font-family="sans-serif" font-size="7" lengthAdjust="spacing" textLength="61.5" x="303.745" y="379.9385">availableEquipment</text><text fill="#000000" font-family="sans-serif" font-size="7" lengthAdjust="spacing" textLength="33" x="303.745" y="387.7588">equipment</text></g><!--class House--><g id="elem_House"><rect codeLine="63" fill="#F1F1F1" height="40.2813" id="House" rx="1.25" ry="1.25" style="stroke:#181818;stroke-width:0.25;" width="47" x="357.995" y="433.0703"/><text fill="#000000" font-family="sans-serif" font-size="7" lengthAdjust="spacing" textLength="20" x="371.495" y="441.9072">House</text><line style="stroke:#181818;stroke-width:0.25;" x1="358.495" x2="404.495" y1="445.8906" y2="445.8906"/><text fill="#000000" font-family="sans-serif" font-size="7" lengthAdjust="spacing" textLength="31" x="360.995" y="454.2275">basement</text><text fill="#000000" font-family="sans-serif" font-size="7" lengthAdjust="spacing" textLength="9.5" x="360.995" y="462.0479">loft</text><text fill="#000000" font-family="sans-serif" font-size="7" lengthAdjust="spacing" textLength="41" x="360.995" y="469.8682">sunExposure</text></g><!--class Employee--><g id="elem_Employee"><rect codeLine="69" fill="#F1F1F1" height="24.6406" id="Employee" rx="1.25" ry="1.25" style="stroke:#181818;stroke-width:0.25;" width="34" x="452.495" y="515.3203"/><text fill="#000000" font-family="sans-serif" font-size="7" lengthAdjust="spacing" textLength="31" x="453.995" y="524.1572">Employee</text><line style="stroke:#181818;stroke-width:0.25;" x1="452.995" x2="485.995" y1="528.1406" y2="528.1406"/><text fill="#000000" font-family="sans-serif" font-size="7" lengthAdjust="spacing" textLength="23" x="455.495" y="536.4775">agency</text></g><!--class Equipment--><g id="elem_Equipment"><rect codeLine="73" fill="#F1F1F1" height="32.4609" id="Equipment" rx="1.25" ry="1.25" style="stroke:#181818;stroke-width:0.25;" width="53.5" x="286.745" y="437.0703"/><text fill="#000000" font-family="sans-serif" font-size="7" lengthAdjust="spacing" textLength="33.5" x="296.745" y="445.9072">Equipment</text><line style="stroke:#181818;stroke-width:0.25;" x1="287.245" x2="339.745" y1="449.8906" y2="449.8906"/><text fill="#000000" font-family="sans-serif" font-size="7" lengthAdjust="spacing" textLength="45.5" x="289.745" y="458.2275">centralHeating</text><text fill="#000000" font-family="sans-serif" font-size="7" lengthAdjust="spacing" textLength="47.5" x="289.745" y="466.0479">airConditioning</text></g><!--class Commission--><g id="elem_Commission"><rect codeLine="79" fill="#F1F1F1" height="32.4609" id="Commission" rx="1.25" ry="1.25" style="stroke:#181818;stroke-width:0.25;" width="60.5" x="336.745" y="84.5703"/><text fill="#000000" font-family="sans-serif" font-size="7" lengthAdjust="spacing" textLength="38" x="347.995" y="93.4072">Commission</text><line style="stroke:#181818;stroke-width:0.25;" x1="337.245" x2="396.745" y1="97.3906" y2="97.3906"/><text fill="#000000" font-family="sans-serif" font-size="7" lengthAdjust="spacing" textLength="52.5" x="339.745" y="105.7275">commissionType</text><text fill="#000000" font-family="sans-serif" font-size="7" lengthAdjust="spacing" textLength="54.5" x="339.745" y="113.5479">commissionValue</text></g><!--class Photo--><g id="elem_Photo"><rect codeLine="84" fill="#F1F1F1" height="40.2813" id="Photo" rx="1.25" ry="1.25" style="stroke:#181818;stroke-width:0.25;" width="35" x="247.995" y="343.0703"/><text fill="#000000" font-family="sans-serif" font-size="7" lengthAdjust="spacing" textLength="18.5" x="256.245" y="351.9072">Photo</text><line style="stroke:#181818;stroke-width:0.25;" x1="248.495" x2="282.495" y1="355.8906" y2="355.8906"/><text fill="#000000" font-family="sans-serif" font-size="7" lengthAdjust="spacing" textLength="29" x="250.995" y="364.2275">photoURI</text><text fill="#000000" font-family="sans-serif" font-size="7" lengthAdjust="spacing" textLength="24.5" x="250.995" y="372.0479">photoID</text><text fill="#000000" font-family="sans-serif" font-size="7" lengthAdjust="spacing" textLength="29" x="250.995" y="379.8682">photoList</text></g><!--class Transaction--><g id="elem_Transaction"><rect codeLine="90" fill="#F1F1F1" height="32.4609" id="Transaction" rx="1.25" ry="1.25" style="stroke:#181818;stroke-width:0.25;" width="57" x="385.995" y="347.0703"/><text fill="#000000" font-family="sans-serif" font-size="7" lengthAdjust="spacing" textLength="37.5" x="395.745" y="355.9072">Transaction</text><line style="stroke:#181818;stroke-width:0.25;" x1="386.495" x2="442.495" y1="359.8906" y2="359.8906"/><text fill="#000000" font-family="sans-serif" font-size="7" lengthAdjust="spacing" textLength="51" x="388.995" y="368.2275">transactionType</text><text fill="#000000" font-family="sans-serif" font-size="7" lengthAdjust="spacing" textLength="47.5" x="388.995" y="376.0479">monetaryValue</text></g><!--class Request--><g id="elem_Request"><rect codeLine="95" fill="#F1F1F1" height="32.4609" id="Request" rx="1.25" ry="1.25" style="stroke:#181818;stroke-width:0.25;" width="45" x="174.495" y="241.3203"/><text fill="#000000" font-family="sans-serif" font-size="7" lengthAdjust="spacing" textLength="26.5" x="183.745" y="250.1572">Request</text><line style="stroke:#181818;stroke-width:0.25;" x1="174.995" x2="218.995" y1="254.1406" y2="254.1406"/><text fill="#000000" font-family="sans-serif" font-size="7" lengthAdjust="spacing" textLength="5.5" x="177.495" y="262.4775">id</text><text fill="#000000" font-family="sans-serif" font-size="7" lengthAdjust="spacing" textLength="39" x="177.495" y="270.2979">requestDate</text></g><!--class Agency--><g id="elem_Agency"><rect codeLine="101" fill="#F1F1F1" height="48.1016" id="Agency" rx="1.25" ry="1.25" style="stroke:#181818;stroke-width:0.25;" width="62" x="414.995" y="76.8203"/><text fill="#000000" font-family="sans-serif" font-size="7" lengthAdjust="spacing" textLength="23.5" x="434.245" y="85.6572">Agency</text><line style="stroke:#181818;stroke-width:0.25;" x1="415.495" x2="476.495" y1="89.6406" y2="89.6406"/><text fill="#000000" font-family="sans-serif" font-size="7" lengthAdjust="spacing" textLength="29.5" x="417.995" y="97.9775">agencyID</text><text fill="#000000" font-family="sans-serif" font-size="7" lengthAdjust="spacing" textLength="17.5" x="417.995" y="105.7979">name</text><text fill="#000000" font-family="sans-serif" font-size="7" lengthAdjust="spacing" textLength="16.5" x="417.995" y="113.6182">email</text><text fill="#000000" font-family="sans-serif" font-size="7" lengthAdjust="spacing" textLength="56" x="417.995" y="121.4385">telephoneNumber</text></g><!--class Agent--><g id="elem_Agent"><rect codeLine="108" fill="#F1F1F1" height="16.8203" id="Agent" rx="1.25" ry="1.25" style="stroke:#181818;stroke-width:0.25;" width="21.5" x="566.745" y="162.8203"/><text fill="#000000" font-family="sans-serif" font-size="7" lengthAdjust="spacing" textLength="18.5" x="568.245" y="171.6572">Agent</text><line style="stroke:#181818;stroke-width:0.25;" x1="567.245" x2="587.745" y1="175.6406" y2="175.6406"/></g><!--class Announcement--><g id="elem_Announcement"><rect codeLine="110" fill="#F1F1F1" height="32.4609" id="Announcement" rx="1.25" ry="1.25" style="stroke:#181818;stroke-width:0.25;" width="57.5" x="548.745" y="84.5703"/><text fill="#000000" font-family="sans-serif" font-size="7" lengthAdjust="spacing" textLength="47.5" x="553.745" y="93.4072">Announcement</text><line style="stroke:#181818;stroke-width:0.25;" x1="549.245" x2="605.745" y1="97.3906" y2="97.3906"/><text fill="#000000" font-family="sans-serif" font-size="7" lengthAdjust="spacing" textLength="5.5" x="551.745" y="105.7275">id</text><text fill="#000000" font-family="sans-serif" font-size="7" lengthAdjust="spacing" textLength="51.5" x="551.745" y="113.5479">acceptanceDate</text></g><!--class StoreManager--><g id="elem_StoreManager"><rect fill="#F1F1F1" height="16.8203" id="StoreManager" rx="1.25" ry="1.25" style="stroke:#181818;stroke-width:0.25;" width="48" x="453.995" y="21.8203"/><text fill="#000000" font-family="sans-serif" font-size="7" lengthAdjust="spacing" textLength="45" x="455.495" y="30.6572">StoreManager</text><line style="stroke:#181818;stroke-width:0.25;" x1="454.495" x2="501.495" y1="34.6406" y2="34.6406"/></g><!--reverse link Property to Building--><g id="link_Property_Building"><path d="M322.25,307.2703 C322.675,308.9703 323.09,310.6603 323.495,312.3203 C325.29,319.7303 327.105,327.7903 328.73,335.2453 " fill="none" id="Property-backto-Building" style="stroke:#181818;stroke-width:0.5;"/><polygon fill="none" points="318.82,307.9753,319.745,297.4253,325.605,306.2503,318.82,307.9753" style="stroke:#181818;stroke-width:0.5;"/></g><!--reverse link Building to House--><g id="link_Building_House"><path d="M366.885,399.9403 C368.195,402.0403 369.41,404.1703 370.495,406.3203 C374.645,414.5403 377.265,424.3753 378.9,432.8753 " fill="none" id="Building-backto-House" style="stroke:#181818;stroke-width:0.5;"/><polygon fill="none" points="363.885,401.7553,361.07,391.5403,369.64,397.7703,363.885,401.7553" style="stroke:#181818;stroke-width:0.5;"/></g><!--link Agent to Employee--><g id="link_Agent_Employee"><path codeLine="115" d="M580.305,179.9353 C585.25,194.9603 594.995,228.2103 594.995,257.0703 C594.995,257.0703 594.995,257.0703 594.995,453.8203 C594.995,503.4553 520.865,520.0653 486.55,525.0903 " fill="none" id="Agent-Employee" style="stroke:#181818;stroke-width:0.5;"/><polygon fill="#000000" points="596.8397,365.8638,599.4433,361.8845,596.6071,361.1142,596.8397,365.8638" style="stroke:#000000;stroke-width:0.5;"/><text fill="#000000" font-family="sans-serif" font-size="6.5" lengthAdjust="spacing" textLength="41" x="601.995" y="365.7046">represented in</text></g><!--link Agency to Announcement--><g id="link_Agency_Announcement"><path codeLine="116" d="M477.155,100.8203 C498.805,100.8203 527.44,100.8203 548.58,100.8203 " fill="none" id="Agency-Announcement" style="stroke:#181818;stroke-width:0.5;"/><polygon fill="#000000" points="490.62,95.4512,486.0975,93.9817,486.0975,96.9206,490.62,95.4512" style="stroke:#000000;stroke-width:0.5;"/><text fill="#000000" font-family="sans-serif" font-size="6.5" lengthAdjust="spacing" textLength="47" x="492.62" y="97.7046">wants to publish</text><text fill="#000000" font-family="sans-serif" font-size="6.5" lengthAdjust="spacing" textLength="3.5" x="480.9602" y="99.3092">1</text><text fill="#000000" font-family="sans-serif" font-size="6.5" lengthAdjust="spacing" textLength="6.5" x="538.1599" y="99.2964">..*</text></g><!--link Announcement to Request--><g id="link_Announcement_Request"><path codeLine="117" d="M548.67,116.7753 C530.085,126.4003 505.23,138.6503 482.495,147.8203 C388.31,185.7953 357.825,176.6503 264.995,217.8203 C249.295,224.7853 232.575,234.4003 219.645,242.3703 " fill="none" id="Announcement-Request" style="stroke:#181818;stroke-width:0.5;"/><polygon fill="#000000" points="440.1594,172.3427,444.9086,172.1027,443.8605,169.357,440.1594,172.3427" style="stroke:#000000;stroke-width:0.5;"/><text fill="#000000" font-family="sans-serif" font-size="6.5" lengthAdjust="spacing" textLength="10.5" x="446.995" y="173.7046">of a</text><text fill="#000000" font-family="sans-serif" font-size="6.5" lengthAdjust="spacing" textLength="3.5" x="541.2526" y="117.2747">1</text></g><!--link Property to Address--><g id="link_Property_Address"><path codeLine="118" d="M273.625,292.0603 C267.12,298.6503 260.495,305.6003 254.495,312.3203 C246.15,321.6653 237.45,332.5003 230.305,341.7303 " fill="none" id="Property-Address" style="stroke:#181818;stroke-width:0.5;"/><text fill="#000000" font-family="sans-serif" font-size="6.5" lengthAdjust="spacing" textLength="18" x="254.995" y="318.7046">stores</text><text fill="#000000" font-family="sans-serif" font-size="6.5" lengthAdjust="spacing" textLength="3.5" x="266.297" y="294.16">1</text><text fill="#000000" font-family="sans-serif" font-size="6.5" lengthAdjust="spacing" textLength="3.5" x="234.1462" y="335.1633">1</text></g><!--link Address to Property--><g id="link_Address_Property"><path codeLine="134" d="M199.38,335.2953 C197.095,327.4853 196.73,319.2353 200.995,312.3203 C202.075,310.5653 242.58,290.4953 273.665,275.2753 " fill="none" id="Address-Property" style="stroke:#181818;stroke-width:0.5;"/><polygon fill="#000000" points="201.5504,318.0223,205.9917,316.3231,204.1447,314.0371,201.5504,318.0223" style="stroke:#000000;stroke-width:0.5;"/><text fill="#000000" font-family="sans-serif" font-size="6.5" lengthAdjust="spacing" textLength="35.5" x="207.995" y="318.7046">has address</text><text fill="#000000" font-family="sans-serif" font-size="6.5" lengthAdjust="spacing" textLength="3.5" x="193.6138" y="329.9663">1</text><text fill="#000000" font-family="sans-serif" font-size="6.5" lengthAdjust="spacing" textLength="3.5" x="266.3411" y="275.644">1</text></g><!--link StoreManager to Agency--><g id="link_StoreManager_Agency"><path codeLine="119" d="M474.26,38.9303 C470.005,48.1653 462.86,63.6853 456.82,76.8053 " fill="none" id="StoreManager-Agency" style="stroke:#181818;stroke-width:0.5;"/><polygon fill="#000000" points="467.9494,60.222,471.1757,56.7286,468.5062,55.4994,467.9494,60.222" style="stroke:#000000;stroke-width:0.5;"/><text fill="#000000" font-family="sans-serif" font-size="6.5" lengthAdjust="spacing" textLength="26.5" x="473.495" y="60.2046">manages</text></g><!--link Agency to Employee--><g id="link_Agency_Employee"><path codeLine="120" d="M458.225,124.9403 C463.935,138.0903 469.495,154.9603 469.495,170.8203 C469.495,170.8203 469.495,170.8203 469.495,453.8203 C469.495,475.5053 469.495,500.7953 469.495,515.2703 " fill="none" id="Agency-Employee" style="stroke:#181818;stroke-width:0.5;"/><polygon fill="#000000" points="471.9228,313.9522,470.5845,318.5153,473.5222,318.4305,471.9228,313.9522" style="stroke:#000000;stroke-width:0.5;"/><text fill="#000000" font-family="sans-serif" font-size="6.5" lengthAdjust="spacing" textLength="44" x="476.495" y="318.7046">is in an agency</text><text fill="#000000" font-family="sans-serif" font-size="6.5" lengthAdjust="spacing" textLength="3.5" x="456.1988" y="134.7199">1</text><text fill="#000000" font-family="sans-serif" font-size="6.5" lengthAdjust="spacing" textLength="3.5" x="465.5247" y="509.9246">1</text></g><!--link Property to Transaction--><g id="link_Property_Transaction"><path codeLine="121" d="M344.27,293.0953 C362.66,311.3553 384.245,332.7853 398.58,347.0203 " fill="none" id="Property-Transaction" style="stroke:#181818;stroke-width:0.5;"/><polygon fill="#000000" points="375.269,318.2126,373.0951,313.9834,371.0244,316.0689,375.269,318.2126" style="stroke:#000000;stroke-width:0.5;"/><text fill="#000000" font-family="sans-serif" font-size="6.5" lengthAdjust="spacing" textLength="64.5" x="377.995" y="318.7046">has a transaction type</text><text fill="#000000" font-family="sans-serif" font-size="6.5" lengthAdjust="spacing" textLength="3.5" x="348.3196" y="295.503">1</text><text fill="#000000" font-family="sans-serif" font-size="6.5" lengthAdjust="spacing" textLength="3.5" x="391.2158" y="341.6062">1</text></g><!--link Property to Photo--><g id="link_Property_Photo"><path codeLine="122" d="M286.705,297.4553 C284.285,302.3903 281.98,307.4203 279.995,312.3203 C276.015,322.1253 272.665,333.4153 270.19,342.8253 " fill="none" id="Property-Photo" style="stroke:#181818;stroke-width:0.5;"/><polygon fill="#000000" points="281.6399,318.8004,284.5676,315.0533,281.806,314.048,281.6399,318.8004" style="stroke:#000000;stroke-width:0.5;"/><text fill="#000000" font-family="sans-serif" font-size="6.5" lengthAdjust="spacing" textLength="32" x="286.995" y="318.7046">has photos</text><text fill="#000000" font-family="sans-serif" font-size="6.5" lengthAdjust="spacing" textLength="3.5" x="281.1391" y="307.0843">1</text><text fill="#000000" font-family="sans-serif" font-size="6.5" lengthAdjust="spacing" textLength="6.5" x="263.9384" y="337.6267">..*</text></g><!--link Commission to Announcement--><g id="link_Commission_Announcement"><path codeLine="123" d="M374.635,84.5453 C379.705,75.7853 387.265,65.7853 397.245,60.8203 C421.32,48.8453 431.205,56.5053 457.745,60.8203 C489.765,66.0253 524.785,78.5803 548.635,88.2503 " fill="none" id="Commission-Announcement" style="stroke:#181818;stroke-width:0.5;"/><polygon fill="#000000" points="397.2456,57.898,401.7358,59.4634,401.7984,56.5251,397.2456,57.898" style="stroke:#000000;stroke-width:0.5;"/><text fill="#000000" font-family="sans-serif" font-size="6.5" lengthAdjust="spacing" textLength="53" x="404.245" y="60.2046">has a commission</text><text fill="#000000" font-family="sans-serif" font-size="6.5" lengthAdjust="spacing" textLength="3.5" x="372.4234" y="79.1367">1</text><text fill="#000000" font-family="sans-serif" font-size="6.5" lengthAdjust="spacing" textLength="3.5" x="541.2131" y="85.0949">1</text></g><!--link Building to Equipment--><g id="link_Building_Equipment"><path codeLine="124" d="M322.965,391.3953 C321.245,396.3003 319.66,401.4103 318.495,406.3203 C316.105,416.3503 314.855,427.8753 314.205,436.9403 " fill="none" id="Building-Equipment" style="stroke:#181818;stroke-width:0.5;"/><polygon fill="#000000" points="320.5228,412.9062,322.82,408.7426,319.934,408.1875,320.5228,412.9062" style="stroke:#000000;stroke-width:0.5;"/><text fill="#000000" font-family="sans-serif" font-size="6.5" lengthAdjust="spacing" textLength="42.5" x="325.495" y="412.7046">has equipment</text><text fill="#000000" font-family="sans-serif" font-size="6.5" lengthAdjust="spacing" textLength="3.5" x="317.8465" y="401.1485">1</text><text fill="#000000" font-family="sans-serif" font-size="6.5" lengthAdjust="spacing" textLength="6.5" x="307.1811" y="431.7554">..*</text></g><!--link Role to Person--><g id="link_Role_Person"><path codeLine="125" d="M79.03,379.7603 C85.195,390.0603 93.875,403.5153 102.995,414.3203 C107.305,419.4303 112.25,424.5403 117.195,429.2903 " fill="none" id="Role-Person" style="stroke:#181818;stroke-width:0.5;"/><polygon fill="#000000" points="103.9691,408.4709,105.5655,412.9502,107.8935,411.1564,103.9691,408.4709" style="stroke:#000000;stroke-width:0.5;"/><text fill="#000000" font-family="sans-serif" font-size="6.5" lengthAdjust="spacing" textLength="28.5" x="109.995" y="412.7046">has a role</text><text fill="#000000" font-family="sans-serif" font-size="6.5" lengthAdjust="spacing" textLength="3.5" x="76.9187" y="389.4743">1</text><text fill="#000000" font-family="sans-serif" font-size="6.5" lengthAdjust="spacing" textLength="3.5" x="109.2467" y="423.9713">1</text></g><!--link PassportCard to Person--><g id="link_PassportCard_Person"><path codeLine="126" d="M143.815,375.6553 C143.305,385.8903 142.735,401.0803 142.995,414.3203 C143.085,419.1353 143.245,424.2853 143.43,429.2053 " fill="none" id="PassportCard-Person" style="stroke:#181818;stroke-width:0.5;"/><polygon fill="#000000" points="145.513,407.9512,144.011,412.4631,146.9499,412.4842,145.513,407.9512" style="stroke:#000000;stroke-width:0.5;"/><text fill="#000000" font-family="sans-serif" font-size="6.5" lengthAdjust="spacing" textLength="57.5" x="149.995" y="412.7046">has a passport card</text><text fill="#000000" font-family="sans-serif" font-size="6.5" lengthAdjust="spacing" textLength="3.5" x="139.6923" y="385.6128">1</text><text fill="#000000" font-family="sans-serif" font-size="6.5" lengthAdjust="spacing" textLength="3.5" x="139.499" y="423.8733">1</text></g><!--link Address to Person--><g id="link_Address_Person"><path codeLine="127" d="M216.625,391.4103 C216.065,399.3053 214.255,407.5903 209.995,414.3203 C202.025,426.9153 188.33,435.8953 175.515,441.9903 " fill="none" id="Address-Person" style="stroke:#181818;stroke-width:0.5;"/><polygon fill="#000000" points="218.0718,408.5111,214.079,411.0939,216.3597,412.9475,218.0718,408.5111" style="stroke:#000000;stroke-width:0.5;"/><text fill="#000000" font-family="sans-serif" font-size="6.5" lengthAdjust="spacing" textLength="35.5" x="220.995" y="412.7046">has address</text><text fill="#000000" font-family="sans-serif" font-size="6.5" lengthAdjust="spacing" textLength="3.5" x="213.1713" y="401.1653">1</text><text fill="#000000" font-family="sans-serif" font-size="6.5" lengthAdjust="spacing" textLength="3.5" x="179.5088" y="439.0769">1</text></g><!--link Request to Property--><g id="link_Request_Property"><path codeLine="128" d="M219.525,257.5703 C235.045,257.5703 255.99,257.5703 273.71,257.5703 " fill="none" id="Request-Property" style="stroke:#181818;stroke-width:0.5;"/><polygon fill="#000000" points="233.12,252.2012,228.5975,250.7317,228.5975,253.6706,233.12,252.2012" style="stroke:#000000;stroke-width:0.5;"/><text fill="#000000" font-family="sans-serif" font-size="6.5" lengthAdjust="spacing" textLength="29.5" x="235.12" y="254.4546">listing of a</text><text fill="#000000" font-family="sans-serif" font-size="6.5" lengthAdjust="spacing" textLength="3.5" x="223.5464" y="255.8998">1</text><text fill="#000000" font-family="sans-serif" font-size="6.5" lengthAdjust="spacing" textLength="3.5" x="266.1593" y="256.0925">1</text></g><!--link Request to Owner--><g id="link_Request_Owner"><path codeLine="129" d="M174.455,261.6403 C138.815,268.6303 70.48,287.8153 40.995,335.3203 C3,396.5353 37.665,490.9603 49.425,518.9703 " fill="none" id="Request-Owner" style="stroke:#181818;stroke-width:0.5;"/><polygon fill="#000000" points="25.4024,412.6998,28.7006,409.2742,26.0572,407.9898,25.4024,412.6998" style="stroke:#000000;stroke-width:0.5;"/><text fill="#000000" font-family="sans-serif" font-size="6.5" lengthAdjust="spacing" textLength="38.5" x="30.995" y="412.7046">has an owner</text><text fill="#000000" font-family="sans-serif" font-size="6.5" lengthAdjust="spacing" textLength="6.5" x="164.0059" y="260.6349">..*</text><text fill="#000000" font-family="sans-serif" font-size="6.5" lengthAdjust="spacing" textLength="3.5" x="44.0298" y="513.6226">1</text></g><!--link Person to Owner--><g id="link_Person_Owner"><path codeLine="130" d="M115.04,477.4003 C97.17,491.7053 75.49,509.0603 63.06,519.0103 " fill="none" id="Person-Owner" style="stroke:#181818;stroke-width:0.5;"/><polygon fill="#000000" points="100.9467,494.8888,96.4977,496.5679,98.3344,498.8623,100.9467,494.8888" style="stroke:#000000;stroke-width:0.5;"/><text fill="#000000" font-family="sans-serif" font-size="6.5" lengthAdjust="spacing" textLength="41" x="103.495" y="498.7046">represented in</text></g><!--link Person to Employee--><g id="link_Person_Employee"><path codeLine="131" d="M175.51,460.8103 C242.78,475.9753 400.245,511.4653 452.385,523.2153 " fill="none" id="Person-Employee" style="stroke:#181818;stroke-width:0.5;"/></g><!--link Agent to Request--><g id="link_Agent_Request"><path codeLine="132" d="M566.64,178.7853 C553.485,187.0853 531.97,200.1653 522.995,202.8203 C412.85,235.4053 375.03,184.8903 264.995,217.8203 C248.215,222.8403 231.145,232.7103 218.305,241.2953 " fill="none" id="Agent-Request" style="stroke:#181818;stroke-width:0.5;"/><polygon fill="#000000" points="539.0343,199.3928,543.7453,200.0403,543.2262,197.1476,539.0343,199.3928" style="stroke:#000000;stroke-width:0.5;"/><text fill="#000000" font-family="sans-serif" font-size="6.5" lengthAdjust="spacing" textLength="33.5" x="545.995" y="201.2046">assigned to</text><text fill="#000000" font-family="sans-serif" font-size="6.5" lengthAdjust="spacing" textLength="3.5" x="559.2797" y="178.9515">1</text><text fill="#000000" font-family="sans-serif" font-size="6.5" lengthAdjust="spacing" textLength="6.5" x="215.7556" y="235.8867">..*</text></g><!--link Announcement to Agent--><g id="link_Announcement_Agent"><path codeLine="133" d="M577.495,117.0903 C577.495,131.2703 577.495,151.5253 577.495,162.6803 " fill="none" id="Announcement-Agent" style="stroke:#181818;stroke-width:0.5;"/><polygon fill="#000000" points="579.995,141.4512,578.5255,145.9737,581.4645,145.9737,579.995,141.4512" style="stroke:#000000;stroke-width:0.5;"/><text fill="#000000" font-family="sans-serif" font-size="6.5" lengthAdjust="spacing" textLength="21.5" x="584.495" y="146.2046">creates</text><text fill="#000000" font-family="sans-serif" font-size="6.5" lengthAdjust="spacing" textLength="6.5" x="570.3552" y="126.8964">..*</text><text fill="#000000" font-family="sans-serif" font-size="6.5" lengthAdjust="spacing" textLength="3.5" x="573.3934" y="157.4673">1</text></g><!--SRC=[VLLDJnin4BtxLrYvLAf4HNj44L8Qg40g1H7eVUATP2rsxSMUBGJ4V-_uOxsRKCg1jSVpverdtZZ-GPiE7BIojSQgsjaM9RaUXIyd7QW7sEAATWrAXuh0R9kfWw-Xia_QREK66ez2V6fmGvAiT7fRawnqG6bhn0Ia6l1-GUJqkYUyLDQiz0lAOo5gNQ5KsYacYUiMgRQL5u8qSGfdjWLjv9Mji957ydvrVFnDY1XFtg3priXN8VdFG8jnGV3ygs_NwE8E6TuigigXz-aO6-ngQp0xlGtHRYtJfLYwYfyAlNAwYvSfRjTF1Xtx5SCD_-kieoMuAkExYUcG9kUI73qvH8fBfMcNM3LRjQBi09IkzQAx9HSX12hCpdReQ3UmvktThaiGS0ZNcy6h10UZy0VtVec6wPEPMQut2wMmYySJuoq-zkX9HDDDRSd6rPq3uo4tkbpkUw-RAcW3dmbDzIx5DLREsZPrOWrKZpiM2ijbks81OhB07suTh1iyV-nrrtAsgQDbLsWlRE-nS0v9P4hmMB2DtUIwzkRykRE-TpY6EM-xnkuG4v2dmAZTv7JWVKsrKA5yq5mW49CbY7PBQoeTgX9i1RkqRQkzrqMjgXXAjqRJRsZwILgnw4EFm_h-zdBSN9wDwv_StH4tQL56qsWfjFmK887R7P3cjk_DWqksio39jwB2HQpJj6OvfJAHSGR_FtmX2BsEMsDippfCvPwa04MYGnOHoI_3q3nv8ayvquw7Z0-majg8bAASVPsnu-pBby-pFOO8UG93FZnZNRzkjA_5daU2vg94VxkH88gyu_bH_EG1PoTFbbTY5JvNOBWuBZZbR4va6srUdkubcAAKwx3VN6hFrv1W1b7-YtVQxXDPWvSmRRWaxZXJlOF6SYID9LYKKipgNGN2Kv_O9eeUo4O1CxQy17iqPOOogCmo8-BxExbFVjs7w2uSpyNUQ_knz_02InNyvc9eoeU8V3uNGu-pM8BZKB7GTfP66FVK_lHRCArClEKeataARgGDdY9JSW896HmEf3gw30h82j-huyZ0zzHRmrXkts77eckHvJQLNV6F0g7_e2RZLVUhyXS0]--></g></svg>