<?xml version="1.0" encoding="us-ascii" standalone="no"?><svg xmlns="http://www.w3.org/2000/svg" xmlns:xlink="http://www.w3.org/1999/xlink" contentStyleType="text/css" height="774px" preserveAspectRatio="none" style="width:1047px;height:774px;background:#FFFFFF;" version="1.1" viewBox="0 0 1047 774" width="1047px" zoomAndPan="magnify"><defs/><g><text fill="#000000" font-family="sans-serif" font-size="14" font-weight="bold" lengthAdjust="spacing" textLength="156" x="438.5" y="22.6738">Domain Model - US002</text><!--class Person--><g id="elem_Person"><rect
        fill="#F1F1F1" height="96.2031" id="Person" rx="2.5" ry="2.5" style="stroke:#181818;stroke-width:0.5;" width="124" x="189.5" y="177.6406"/><text fill="#000000" font-family="sans-serif" font-size="14" lengthAdjust="spacing" textLength="45" x="229" y="195.3145">Person</text><line style="stroke:#181818;stroke-width:0.5;" x1="190.5" x2="312.5" y1="203.2813" y2="203.2813"/><text fill="#000000" font-family="sans-serif" font-size="14" lengthAdjust="spacing" textLength="35" x="195.5" y="219.9551">name</text><text fill="#000000" font-family="sans-serif" font-size="14" lengthAdjust="spacing" textLength="67" x="195.5" y="235.5957">taxNumber</text><text fill="#000000" font-family="sans-serif" font-size="14" lengthAdjust="spacing" textLength="85" x="195.5" y="251.2363">emailAddress</text><text fill="#000000" font-family="sans-serif" font-size="14" lengthAdjust="spacing" textLength="112" x="195.5" y="266.877">telephoneNumber</text></g><!--class Role--><g id="elem_Role"><rect
        fill="#F1F1F1" height="64.9219" id="Role" rx="2.5" ry="2.5" style="stroke:#181818;stroke-width:0.5;" width="81" x="211" y="43.6406"/><text fill="#000000" font-family="sans-serif" font-size="14" lengthAdjust="spacing" textLength="29" x="237" y="61.3145">Role</text><line style="stroke:#181818;stroke-width:0.5;" x1="212" x2="291" y1="69.2813" y2="69.2813"/><text fill="#000000" font-family="sans-serif" font-size="14" lengthAdjust="spacing" textLength="11" x="217" y="85.9551">id</text><text fill="#000000" font-family="sans-serif" font-size="14" lengthAdjust="spacing" textLength="69" x="217" y="101.5957">description</text></g><!--class Owner--><g id="elem_Owner"><rect
        fill="#F1F1F1" height="33.6406" id="Owner" rx="2.5" ry="2.5" style="stroke:#181818;stroke-width:0.5;" width="47" x="228" y="373.6406"/><text fill="#000000" font-family="sans-serif" font-size="14" lengthAdjust="spacing" textLength="41" x="231" y="391.3145">Owner</text><line style="stroke:#181818;stroke-width:0.5;" x1="229" x2="274" y1="399.2813" y2="399.2813"/></g><!--class PassportCard--><g id="elem_PassportCard"><rect
        fill="#F1F1F1" height="49.2813" id="PassportCard" rx="2.5" ry="2.5" style="stroke:#181818;stroke-width:0.5;" width="147" x="7" y="201.1406"/><text fill="#000000" font-family="sans-serif" font-size="14" lengthAdjust="spacing" textLength="87" x="37" y="218.8145">PassportCard</text><line style="stroke:#181818;stroke-width:0.5;" x1="8" x2="153" y1="226.7813" y2="226.7813"/><text fill="#000000" font-family="sans-serif" font-size="14" lengthAdjust="spacing" textLength="135" x="13" y="243.4551">passportCardNumber</text></g><!--class Adress--><g id="elem_Adress"><rect
        fill="#F1F1F1" height="111.8438" id="Adress" rx="2.5" ry="2.5" style="stroke:#181818;stroke-width:0.5;" width="63" x="349" y="169.6406"/><text fill="#000000" font-family="sans-serif" font-size="14" lengthAdjust="spacing" textLength="44" x="358.5" y="187.3145">Adress</text><line style="stroke:#181818;stroke-width:0.5;" x1="350" x2="411" y1="195.2813" y2="195.2813"/><text fill="#000000" font-family="sans-serif" font-size="14" lengthAdjust="spacing" textLength="36" x="355" y="211.9551">street</text><text fill="#000000" font-family="sans-serif" font-size="14" lengthAdjust="spacing" textLength="21" x="355" y="227.5957">city</text><text fill="#000000" font-family="sans-serif" font-size="14" lengthAdjust="spacing" textLength="41" x="355" y="243.2363">district</text><text fill="#000000" font-family="sans-serif" font-size="14" lengthAdjust="spacing" textLength="31" x="355" y="258.877">state</text><text fill="#000000" font-family="sans-serif" font-size="14" lengthAdjust="spacing" textLength="51" x="355" y="274.5176">zipCode</text></g><!--class Equipment--><g id="elem_Equipment"><rect
        fill="#F1F1F1" height="49.2813" id="Equipment" rx="2.5" ry="2.5" style="stroke:#181818;stroke-width:0.5;" width="73" x="967" y="538.1406"/><text fill="#000000" font-family="sans-serif" font-size="14" lengthAdjust="spacing" textLength="67" x="970" y="555.8145">Equipment</text><line style="stroke:#181818;stroke-width:0.5;" x1="968" x2="1039" y1="563.7813" y2="563.7813"/><text fill="#000000" font-family="sans-serif" font-size="14" lengthAdjust="spacing" textLength="35" x="973" y="580.4551">name</text></g><!--class Apartment--><g id="elem_Apartment"><rect
        fill="#F1F1F1" height="33.6406" id="Apartment" rx="2.5" ry="2.5" style="stroke:#181818;stroke-width:0.5;" width="71" x="947" y="710.1406"/><text fill="#000000" font-family="sans-serif" font-size="14" lengthAdjust="spacing" textLength="65" x="950" y="727.8145">Apartment</text><line style="stroke:#181818;stroke-width:0.5;" x1="948" x2="1017" y1="735.7813" y2="735.7813"/></g><!--class Land--><g id="elem_Land"><rect
        fill="#F1F1F1" height="33.6406" id="Land" rx="2.5" ry="2.5" style="stroke:#181818;stroke-width:0.5;" width="38" x="563.5" y="545.6406"/><text fill="#000000" font-family="sans-serif" font-size="14" lengthAdjust="spacing" textLength="32" x="566.5" y="563.3145">Land</text><line style="stroke:#181818;stroke-width:0.5;" x1="564.5" x2="600.5" y1="571.2813" y2="571.2813"/></g><!--class TypeOfTransaction--><g id="elem_TypeOfTransaction"><rect
        fill="#F1F1F1" height="64.9219" id="TypeOfTransaction" rx="2.5" ry="2.5" style="stroke:#181818;stroke-width:0.5;" width="128" x="447.5" y="193.1406"/><text fill="#000000" font-family="sans-serif" font-size="14" lengthAdjust="spacing" textLength="122" x="450.5" y="210.8145">TypeOfTransaction</text><line style="stroke:#181818;stroke-width:0.5;" x1="448.5" x2="574.5" y1="218.7813" y2="218.7813"/><text fill="#000000" font-family="sans-serif" font-size="14" lengthAdjust="spacing" textLength="102" x="453.5" y="235.4551">transactionType</text><text fill="#000000" font-family="sans-serif" font-size="14" lengthAdjust="spacing" textLength="95" x="453.5" y="251.0957">monetaryValue</text></g><!--class Photo--><g id="elem_Photo"><rect
        fill="#F1F1F1" height="64.9219" id="Photo" rx="2.5" ry="2.5" style="stroke:#181818;stroke-width:0.5;" width="86" x="610.5" y="193.1406"/><text fill="#000000" font-family="sans-serif" font-size="14" lengthAdjust="spacing" textLength="37" x="635" y="210.8145">Photo</text><line style="stroke:#181818;stroke-width:0.5;" x1="611.5" x2="695.5" y1="218.7813" y2="218.7813"/><text fill="#000000" font-family="sans-serif" font-size="14" lengthAdjust="spacing" textLength="49" x="616.5" y="235.4551">photoID</text><text fill="#000000" font-family="sans-serif" font-size="14" lengthAdjust="spacing" textLength="74" x="616.5" y="251.0957">phatToPNG</text></g><!--class Property--><g id="elem_Property"><rect
        fill="#F1F1F1" height="96.2031" id="Property" rx="2.5" ry="2.5" style="stroke:#181818;stroke-width:0.5;" width="141" x="512" y="342.6406"/><text fill="#000000" font-family="sans-serif" font-size="14" lengthAdjust="spacing" textLength="54" x="555.5" y="360.3145">Property</text><line style="stroke:#181818;stroke-width:0.5;" x1="513" x2="652" y1="368.2813" y2="368.2813"/><text fill="#000000" font-family="sans-serif" font-size="14" lengthAdjust="spacing" textLength="98" x="518" y="384.9551">areaOfProperty</text><text fill="#000000" font-family="sans-serif" font-size="14" lengthAdjust="spacing" textLength="129" x="518" y="400.5957">distanceFromCentre</text><text fill="#000000" font-family="sans-serif" font-size="14" lengthAdjust="spacing" textLength="117" x="518" y="416.2363">dateOfAcceptance</text><text fill="#000000" font-family="sans-serif" font-size="14" lengthAdjust="spacing" textLength="96" x="518" y="431.877">dateOfRequest</text></g><!--class Building--><g id="elem_Building"><rect
        fill="#F1F1F1" height="96.2031" id="Building" rx="2.5" ry="2.5" style="stroke:#181818;stroke-width:0.5;" width="135" x="797" y="514.6406"/><text fill="#000000" font-family="sans-serif" font-size="14" lengthAdjust="spacing" textLength="50" x="839.5" y="532.3145">Building</text><line style="stroke:#181818;stroke-width:0.5;" x1="798" x2="931" y1="540.2813" y2="540.2813"/><text fill="#000000" font-family="sans-serif" font-size="14" lengthAdjust="spacing" textLength="63" x="803" y="556.9551">bedrooms</text><text fill="#000000" font-family="sans-serif" font-size="14" lengthAdjust="spacing" textLength="67" x="803" y="572.5957">bathrooms</text><text fill="#000000" font-family="sans-serif" font-size="14" lengthAdjust="spacing" textLength="94" x="803" y="588.2363">parkingSpaces</text><text fill="#000000" font-family="sans-serif" font-size="14" lengthAdjust="spacing" textLength="123" x="803" y="603.877">availableEquipment</text></g><!--class House--><g id="elem_House"><rect
        fill="#F1F1F1" height="80.5625" id="House" rx="2.5" ry="2.5" style="stroke:#181818;stroke-width:0.5;" width="94" x="817.5" y="686.6406"/><text fill="#000000" font-family="sans-serif" font-size="14" lengthAdjust="spacing" textLength="40" x="844.5" y="704.3145">House</text><line style="stroke:#181818;stroke-width:0.5;" x1="818.5" x2="910.5" y1="712.2813" y2="712.2813"/><text fill="#000000" font-family="sans-serif" font-size="14" lengthAdjust="spacing" textLength="62" x="823.5" y="728.9551">basement</text><text fill="#000000" font-family="sans-serif" font-size="14" lengthAdjust="spacing" textLength="19" x="823.5" y="744.5957">loft</text><text fill="#000000" font-family="sans-serif" font-size="14" lengthAdjust="spacing" textLength="82" x="823.5" y="760.2363">sunExposure</text></g><!--class Agent--><g id="elem_Agent"><rect
        fill="#F1F1F1" height="80.5625" id="Agent" rx="2.5" ry="2.5" style="stroke:#181818;stroke-width:0.5;" width="122" x="636.5" y="522.1406"/><text fill="#000000" font-family="sans-serif" font-size="14" lengthAdjust="spacing" textLength="37" x="679" y="539.8145">Agent</text><line style="stroke:#181818;stroke-width:0.5;" x1="637.5" x2="757.5" y1="547.7813" y2="547.7813"/><text fill="#000000" font-family="sans-serif" font-size="14" lengthAdjust="spacing" textLength="94" x="642.5" y="564.4551">comissionType</text><text fill="#000000" font-family="sans-serif" font-size="14" lengthAdjust="spacing" textLength="110" x="642.5" y="580.0957">comissionAmount</text><text fill="#000000" font-family="sans-serif" font-size="14" lengthAdjust="spacing" textLength="24" x="642.5" y="595.7363">role</text></g><!--class Lease--><g id="elem_Lease"><rect
        fill="#F1F1F1" height="49.2813" id="Lease" rx="2.5" ry="2.5" style="stroke:#181818;stroke-width:0.5;" width="64" x="731.5" y="201.1406"/><text fill="#000000" font-family="sans-serif" font-size="14" lengthAdjust="spacing" textLength="39" x="744" y="218.8145">Lease</text><line style="stroke:#181818;stroke-width:0.5;" x1="732.5" x2="794.5" y1="226.7813" y2="226.7813"/><text fill="#000000" font-family="sans-serif" font-size="14" lengthAdjust="spacing" textLength="52" x="737.5" y="243.4551">duration</text></g><!--class PropertyRepository--><g id="elem_PropertyRepository"><rect fill="#F1F1F1" height="33.6406" id="PropertyRepository" rx="2.5" ry="2.5" style="stroke:#181818;stroke-width:0.5;" width="128" x="291.5" y="710.1406"/><text fill="#000000" font-family="sans-serif" font-size="14" lengthAdjust="spacing" textLength="122" x="294.5" y="727.8145">PropertyRepository</text><line style="stroke:#181818;stroke-width:0.5;" x1="292.5" x2="418.5" y1="735.7813" y2="735.7813"/></g><!--class AnnouncementRepository--><g id="elem_AnnouncementRepository"><rect fill="#F1F1F1" height="33.6406" id="AnnouncementRepository" rx="2.5" ry="2.5" style="stroke:#181818;stroke-width:0.5;" width="169" x="613" y="710.1406"/><text fill="#000000" font-family="sans-serif" font-size="14" lengthAdjust="spacing" textLength="163" x="616" y="727.8145">AnnouncementRepository</text><line style="stroke:#181818;stroke-width:0.5;" x1="614" x2="781" y1="735.7813" y2="735.7813"/></g><!--link Role to Person--><g id="link_Role_Person"><path
        d="M251.5,108.7806 C251.5,125.0006 251.5,145.3106 251.5,164.3806 " fill="none" id="Role-to-Person" style="stroke:#181818;stroke-width:1.0;"/><polygon fill="#181818" points="251.5,177.6406,255.5,171.6406,251.5,165.6406,247.5,171.6406,251.5,177.6406" style="stroke:#181818;stroke-width:1.0;"/></g><!--link PassportCard to Person--><g id="link_PassportCard_Person"><path
        d="M154.31,225.6406 C161.59,225.6406 168.86,225.6406 176.14,225.6406 " fill="none" id="PassportCard-to-Person" style="stroke:#181818;stroke-width:1.0;"/><polygon fill="#181818" points="189.24,225.6406,183.24,221.6406,177.24,225.6406,183.24,229.6406,189.24,225.6406" style="stroke:#181818;stroke-width:1.0;"/></g><!--reverse link Person to Adress--><g id="link_Person_Adress"><path
        d="M326.94,225.6406 C334.27,225.6406 341.61,225.6406 348.94,225.6406 " fill="none" id="Person-backto-Adress" style="stroke:#181818;stroke-width:1.0;"/><polygon fill="#181818" points="313.73,225.6406,319.73,229.6406,325.73,225.6406,319.73,221.6406,313.73,225.6406" style="stroke:#181818;stroke-width:1.0;"/></g><!--reverse link Person to Owner--><g id="link_Person_Owner"><path
        d="M251.5,293.9606 C251.5,323.2506 251.5,355.0706 251.5,373.6406 " fill="none" id="Person-backto-Owner" style="stroke:#181818;stroke-width:1.0;"/><polygon fill="none" points="244.5,293.7906,251.5,273.7906,258.5,293.7906,244.5,293.7906" style="stroke:#181818;stroke-width:1.0;"/></g><!--link Owner to Property--><g id="link_Owner_Property"><path
        d="M275.04,390.6406 C322.56,390.6406 431.79,390.6406 506.4,390.6406 " fill="none" id="Owner-to-Property" style="stroke:#181818;stroke-width:1.0;"/><polygon fill="#181818" points="511.71,390.6406,502.71,386.6406,506.71,390.6406,502.71,394.6406,511.71,390.6406" style="stroke:#181818;stroke-width:1.0;"/><polygon fill="#000000" points="338,379.9023,328.9549,376.9634,328.9549,382.8413,338,379.9023" style="stroke:#000000;stroke-width:1.0;"/><text fill="#000000" font-family="sans-serif" font-size="13" lengthAdjust="spacing" textLength="116" x="342" y="384.4092">creates the property</text><text fill="#000000" font-family="sans-serif" font-size="13" lengthAdjust="spacing" textLength="7" x="282.983" y="386.4826">1</text><text fill="#000000" font-family="sans-serif" font-size="13" lengthAdjust="spacing" textLength="7" x="497.0488" y="387.7038">1</text></g><!--link Lease to Property--><g id="link_Lease_Property"><path
        d="M743.29,250.3506 C734.45,260.3206 723.78,271.8506 713.5,281.6406 C694.78,299.4706 673.51,317.7706 653.64,334.1106 " fill="none" id="Lease-to-Property" style="stroke:#181818;stroke-width:1.0;"/><polygon fill="#181818" points="643.39,342.4606,650.5678,341.7681,652.6892,334.8761,645.5115,335.5686,643.39,342.4606" style="stroke:#181818;stroke-width:1.0;"/></g><!--reverse link Property to Land--><g id="link_Property_Land"><path
        d="M582.5,459.0406 C582.5,490.5806 582.5,525.5006 582.5,545.3906 " fill="none" id="Property-backto-Land" style="stroke:#181818;stroke-width:1.0;"/><polygon fill="none" points="575.5,458.9906,582.5,438.9906,589.5,458.9906,575.5,458.9906" style="stroke:#181818;stroke-width:1.0;"/></g><!--reverse link Property to Building--><g id="link_Property_Building"><path
        d="M672.82,405.1706 C719.33,415.9306 774.51,435.0306 814.5,468.6406 C828.81,480.6706 839.66,497.8806 847.53,514.2306 " fill="none" id="Property-backto-Building" style="stroke:#181818;stroke-width:1.0;"/><polygon fill="none" points="671.26,412.0006,653.16,400.9906,674.18,398.3006,671.26,412.0006" style="stroke:#181818;stroke-width:1.0;"/></g><!--reverse link Building to House--><g id="link_Building_House"><path
        d="M864.5,630.9006 C864.5,649.7706 864.5,669.6806 864.5,686.3906 " fill="none" id="Building-backto-House" style="stroke:#181818;stroke-width:1.0;"/><polygon fill="none" points="857.5,630.6406,864.5,610.6406,871.5,630.6406,857.5,630.6406" style="stroke:#181818;stroke-width:1.0;"/></g><!--reverse link Building to Equipment--><g id="link_Building_Equipment"><path
        d="M945.17,562.6406 C952.44,562.6406 959.7,562.6406 966.96,562.6406 " fill="none" id="Building-backto-Equipment" style="stroke:#181818;stroke-width:1.0;"/><polygon fill="#181818" points="932.1,562.6406,938.1,566.6406,944.1,562.6406,938.1,558.6406,932.1,562.6406" style="stroke:#181818;stroke-width:1.0;"/></g><!--link Agent to PropertyRepository--><g id="link_Agent_PropertyRepository"><path
        d="M636.24,601.0706 C630.3,604.4106 624.32,607.6506 618.5,610.6406 C544.04,648.9606 454.09,686.7106 401.02,708.1406 " fill="none" id="Agent-to-PropertyRepository" style="stroke:#181818;stroke-width:1.0;"/><polygon fill="#181818" points="396.32,710.0406,406.1632,710.3754,400.9554,708.1664,403.1644,702.9587,396.32,710.0406" style="stroke:#181818;stroke-width:1.0;"/><polygon fill="#000000" points="555.9493,650.9738,565.3992,649.9014,562.964,644.5517,555.9493,650.9738" style="stroke:#000000;stroke-width:1.0;"/><text fill="#000000" font-family="sans-serif" font-size="13" lengthAdjust="spacing" textLength="138" x="569.5" y="653.4092">sends agent information</text><text fill="#000000" font-family="sans-serif" font-size="13" lengthAdjust="spacing" textLength="7" x="621.3474" y="602.7283">1</text><text fill="#000000" font-family="sans-serif" font-size="13" lengthAdjust="spacing" textLength="7" x="402.6153" y="699.3808">1</text></g><!--link Owner to PropertyRepository--><g id="link_Owner_PropertyRepository"><path
        d="M235.03,407.6706 C198.99,444.7406 119.52,538.7406 160.5,610.6406 C188.98,660.6106 248.51,691.1706 294.35,708.2006 " fill="none" id="Owner-to-PropertyRepository" style="stroke:#181818;stroke-width:1.0;"/><polygon fill="#181818" points="299.3,710.0006,292.2222,703.1519,294.6044,708.2827,289.4736,710.6649,299.3,710.0006" style="stroke:#181818;stroke-width:1.0;"/><polygon fill="#000000" points="166.4682,567.8077,167.6,558.3647,161.8334,559.5029,166.4682,567.8077" style="stroke:#000000;stroke-width:1.0;"/><text fill="#000000" font-family="sans-serif" font-size="13" lengthAdjust="spacing" textLength="140" x="174.5" y="567.4092">sends owner information</text><text fill="#000000" font-family="sans-serif" font-size="13" lengthAdjust="spacing" textLength="7" x="221.9142" y="426.9335">1</text><text fill="#000000" font-family="sans-serif" font-size="13" lengthAdjust="spacing" textLength="7" x="276.2556" y="701.4002">1</text></g><!--reverse link Property to Agent--><g id="link_Property_Agent"><path
        d="M617.47,443.3306 C634.57,468.6206 654.83,498.5706 670.69,522.0106 " fill="none" id="Property-backto-Agent" style="stroke:#181818;stroke-width:1.0;"/><polygon fill="#181818" points="614.53,438.9906,616.2556,448.6871,617.3298,443.1332,622.8837,444.2074,614.53,438.9906" style="stroke:#181818;stroke-width:1.0;"/><polygon fill="#000000" points="645.6986,472.7608,648.332,481.8995,653.2007,478.6063,645.6986,472.7608" style="stroke:#000000;stroke-width:1.0;"/><text fill="#000000" font-family="sans-serif" font-size="13" lengthAdjust="spacing" textLength="148" x="657.5" y="481.4092">wants to input information</text><text fill="#000000" font-family="sans-serif" font-size="13" lengthAdjust="spacing" textLength="7" x="602.9795" y="458.5653">1</text><text fill="#000000" font-family="sans-serif" font-size="13" lengthAdjust="spacing" textLength="7" x="645.2223" y="511.3807">1</text></g><!--link Property to PropertyRepository--><g id="link_Property_PropertyRepository"><path
        d="M511.79,414.4706 C464.94,433.5006 406.58,465.5506 375.5,514.6406 C335.74,577.4306 346.18,672.4106 352.43,710.0006 " fill="none" id="Property-PropertyRepository" style="stroke:#181818;stroke-width:1.0;"/><polygon fill="#000000" points="378.1269,567.3033,385.0067,560.7368,379.8331,557.947,378.1269,567.3033" style="stroke:#000000;stroke-width:1.0;"/><text fill="#000000" font-family="sans-serif" font-size="13" lengthAdjust="spacing" textLength="155" x="389.5" y="567.4092">wants to store the property</text><text fill="#000000" font-family="sans-serif" font-size="13" lengthAdjust="spacing" textLength="7" x="497.1371" y="413.9913">1</text><text fill="#000000" font-family="sans-serif" font-size="13" lengthAdjust="spacing" textLength="7" x="343.0894" y="699.3266">1</text></g><!--link PropertyRepository to AnnouncementRepository--><g id="link_PropertyRepository_AnnouncementRepository"><path
        d="M419.83,727.1406 C472.79,727.1406 548.5,727.1406 607.48,727.1406 " fill="none" id="PropertyRepository-to-AnnouncementRepository" style="stroke:#181818;stroke-width:1.0;"/><polygon fill="#181818" points="612.78,727.1406,603.78,723.1406,607.78,727.1406,603.78,731.1406,612.78,727.1406" style="stroke:#181818;stroke-width:1.0;"/><polygon fill="#000000" points="446.75,716.4023,437.7049,713.4634,437.7049,719.3413,446.75,716.4023" style="stroke:#000000;stroke-width:1.0;"/><text fill="#000000" font-family="sans-serif" font-size="13" lengthAdjust="spacing" textLength="144" x="450.75" y="720.9092">publishes announcement</text><text fill="#000000" font-family="sans-serif" font-size="13" lengthAdjust="spacing" textLength="7" x="427.6728" y="724.1508">1</text><text fill="#000000" font-family="sans-serif" font-size="13" lengthAdjust="spacing" textLength="7" x="597.9229" y="724.3251">1</text></g><!--reverse link Building to Apartment--><g id="link_Building_Apartment"><path
        d="M910.41,626.8606 C932.22,656.9006 956.55,690.4106 970.64,709.8006 " fill="none" id="Building-backto-Apartment" style="stroke:#181818;stroke-width:1.0;"/><polygon fill="none" points="904.72,630.9406,898.63,610.6406,916.05,622.7106,904.72,630.9406" style="stroke:#181818;stroke-width:1.0;"/></g><!--link Photo to Property--><g id="link_Photo_Property"><path
        d="M639.64,258.4506 C630.73,278.9006 618.89,306.1006 608.29,330.4306 " fill="none" id="Photo-to-Property" style="stroke:#181818;stroke-width:1.0;"/><polygon fill="#181818" points="603.05,342.4606,609.1122,338.5555,607.8391,331.4577,601.7769,335.3628,603.05,342.4606" style="stroke:#181818;stroke-width:1.0;"/></g><!--link TypeOfTransaction to Property--><g id="link_TypeOfTransaction_Property"><path
        d="M525.36,258.4506 C534.27,278.9006 546.11,306.1006 556.71,330.4306 " fill="none" id="TypeOfTransaction-to-Property" style="stroke:#181818;stroke-width:1.0;"/><polygon fill="#181818" points="561.95,342.4606,563.2231,335.3628,557.1609,331.4577,555.8878,338.5555,561.95,342.4606" style="stroke:#181818;stroke-width:1.0;"/></g><!--link Adress to Property--><g id="link_Adress_Property"><path
        d="M412.08,264.4306 C417.66,270.4106 423.59,276.3606 429.5,281.6406 C451.48,301.2606 477.07,320.5306 500.96,337.2306 " fill="none" id="Adress-to-Property" style="stroke:#181818;stroke-width:1.0;"/><polygon fill="#181818" points="511.8,344.7106,509.1344,338.0103,501.9242,337.8938,504.5898,344.5942,511.8,344.7106" style="stroke:#181818;stroke-width:1.0;"/></g><!--SRC=[ZLHDRniX4BtpAv0lbIgjbFGOHPRS96qZjR4LfxsFOUn5sGK2GnEdwNyl2xiOfn-g3_RmcE_tZBzNseA3dlT66z4wqoCd5v3vScD1tCCErxJla3iK17hNrGw-1MaUbTxnBNGU6NlJuPOu6UxKhYKkrH2bZ6PLaEZ0-mMHKvj0U2sCNgjdv2UCjKeY5yg9M2JPFL9hf6UC5CKMBaqFIlClHcB76_vrVNBoZh6KZw_GUQFv3yRZHqEFoI1ukWdz1bqwOGpl5b8wz3vVOuUsDHf7fvzJjbiJo-LSIgOVYLuuPTCmnMtvgD55lmAiufSrZYx0oJ7ULj3hCelKIlRpv10fcKBHFXTL4LM2HWUWFDMpiXTn1uSyLmz1sHurLUCVYiIrKxuis6VGCXt7yztUud9xvq1xI8JbH7G01e-4HRaWWTj_WovKLLQj8JDEF9ZNbwCDT6TMDnyhJsSiEjgF-m67iDnEO1aRjC0FKPGNiN6NAyiu_tAx409jkgx0Mtm8wEbGv7rGdHo4cOjiK3fZ-ipw1gWzdE9seZHtwoXsp0XyZpA1JOTbhOUydqpmEEO4Z-boE7HcEx8KzDMJDJwuce9TuKQONdbVBxGWYzw4CPsB-glOGXYAvdc3Wqc4IQLDytOKFpjItm7EAkDDi0NAmcqYz38_ncQdCzxCqqyXwepFkOWq4NfEBN8xaPKQonrCK0awVscQfBDNqCGCAnGbE2sMbOtdRejlMc3kxLLpjnYNhSYutAP7BJs7vAxqrhW-RwiQxdyIcEHU9oX3p4uvd_7psF9WHJFtTiRF-IDeyiFh5v-wG7yBZotygu6In4S8Z_VzXv2AhuNMKK0YYV8egGsRJlasiWUL2v-pyZHCKYWBJt_dOsP_UoEEhoULLTWl]--></g></svg>