<?xml version="1.0" encoding="us-ascii" standalone="no"?><svg xmlns="http://www.w3.org/2000/svg" xmlns:xlink="http://www.w3.org/1999/xlink" contentStyleType="text/css" height="909px" preserveAspectRatio="none" style="width:714px;height:909px;background:#FFFFFF;" version="1.1" viewBox="0 0 714 909" width="714px" zoomAndPan="magnify"><defs/><g><text fill="#000000" font-family="sans-serif" font-size="14" font-weight="bold" lengthAdjust="spacing" textLength="284" x="216.75" y="27.6738">US002 - System Sequence Diagram (SSD)</text><rect fill="#FFFFFF" height="693.5625" style="stroke:#181818;stroke-width:1.0;" width="10" x="46.5" y="127.2813"/><rect fill="#FFFFFF" height="28.5234" style="stroke:#181818;stroke-width:1.0;" width="10" x="651.5" y="147.8047"/><rect fill="#FFFFFF" height="28.5234" style="stroke:#181818;stroke-width:1.0;" width="10" x="651.5" y="204.8516"/><rect fill="#FFFFFF" height="28.5234" style="stroke:#181818;stroke-width:1.0;" width="10" x="651.5" y="261.8984"/><rect fill="#FFFFFF" height="52.0469" style="stroke:#181818;stroke-width:1.0;" width="10" x="651.5" y="318.9453"/><rect fill="#FFFFFF" height="82.5703" style="stroke:#181818;stroke-width:1.0;" width="10" x="651.5" y="399.5156"/><rect fill="#FFFFFF" height="35.5234" style="stroke:#181818;stroke-width:1.0;" width="10" x="651.5" y="510.6094"/><rect fill="#FFFFFF" height="52.0469" style="stroke:#181818;stroke-width:1.0;" width="10" x="651.5" y="574.6563"/><rect fill="#FFFFFF" height="42.5234" style="stroke:#181818;stroke-width:1.0;" width="10" x="651.5" y="655.2266"/><rect fill="#FFFFFF" height="28.5234" style="stroke:#181818;stroke-width:1.0;" width="10" x="651.5" y="726.2734"/><rect fill="#FFFFFF" height="28.5234" style="stroke:#181818;stroke-width:1.0;" width="10" x="651.5" y="783.3203"/><rect fill="none" height="73.5703" style="stroke:#000000;stroke-width:1.5;" width="678.5" x="20" y="333.9453"/><rect fill="none" height="248.7109" style="stroke:#000000;stroke-width:1.5;" width="698.5" x="10" y="421.5156"/><rect fill="none" height="73.5703" style="stroke:#000000;stroke-width:1.5;" width="678.5" x="20" y="445.0391"/><rect fill="none" height="73.5703" style="stroke:#000000;stroke-width:1.5;" width="678.5" x="20" y="589.6563"/><line style="stroke:#181818;stroke-width:0.5;stroke-dasharray:5.0,5.0;" x1="51" x2="51" y1="117.2813" y2="829.8438"/><line style="stroke:#181818;stroke-width:0.5;stroke-dasharray:5.0,5.0;" x1="656.5" x2="656.5" y1="117.2813" y2="829.8438"/><text fill="#000000" font-family="sans-serif" font-size="14" lengthAdjust="spacing" textLength="37" x="30" y="114.3145">Agent</text><ellipse cx="51.5" cy="50.1406" fill="#E3E3E3" rx="8" ry="8" style="stroke:#181818;stroke-width:0.5;"/><path d="M51.5,58.1406 L51.5,85.1406 M38.5,66.1406 L64.5,66.1406 M51.5,85.1406 L38.5,100.1406 M51.5,85.1406 L64.5,100.1406 " fill="none" style="stroke:#181818;stroke-width:0.5;"/><text fill="#000000" font-family="sans-serif" font-size="14" lengthAdjust="spacing" textLength="37" x="30" y="841.5176">Agent</text><ellipse cx="51.5" cy="852.9844" fill="#E3E3E3" rx="8" ry="8" style="stroke:#181818;stroke-width:0.5;"/><path d="M51.5,860.9844 L51.5,887.9844 M38.5,868.9844 L64.5,868.9844 M51.5,887.9844 L38.5,902.9844 M51.5,887.9844 L64.5,902.9844 " fill="none" style="stroke:#181818;stroke-width:0.5;"/><rect fill="#E3E3E3" height="29.6406" rx="2.5" ry="2.5" style="stroke:#181818;stroke-width:0.5;" width="64" x="624.5" y="86.6406"/><text fill="#000000" font-family="sans-serif" font-size="14" lengthAdjust="spacing" textLength="50" x="631.5" y="106.3145">:System</text><rect fill="#E3E3E3" height="29.6406" rx="2.5" ry="2.5" style="stroke:#181818;stroke-width:0.5;" width="64" x="624.5" y="828.8438"/><text fill="#000000" font-family="sans-serif" font-size="14" lengthAdjust="spacing" textLength="50" x="631.5" y="848.5176">:System</text><rect fill="#FFFFFF" height="693.5625" style="stroke:#181818;stroke-width:1.0;" width="10" x="46.5" y="127.2813"/><rect fill="#FFFFFF" height="28.5234" style="stroke:#181818;stroke-width:1.0;" width="10" x="651.5" y="147.8047"/><rect fill="#FFFFFF" height="28.5234" style="stroke:#181818;stroke-width:1.0;" width="10" x="651.5" y="204.8516"/><rect fill="#FFFFFF" height="28.5234" style="stroke:#181818;stroke-width:1.0;" width="10" x="651.5" y="261.8984"/><rect fill="#FFFFFF" height="52.0469" style="stroke:#181818;stroke-width:1.0;" width="10" x="651.5" y="318.9453"/><rect fill="#FFFFFF" height="82.5703" style="stroke:#181818;stroke-width:1.0;" width="10" x="651.5" y="399.5156"/><rect fill="#FFFFFF" height="35.5234" style="stroke:#181818;stroke-width:1.0;" width="10" x="651.5" y="510.6094"/><rect fill="#FFFFFF" height="52.0469" style="stroke:#181818;stroke-width:1.0;" width="10" x="651.5" y="574.6563"/><rect fill="#FFFFFF" height="42.5234" style="stroke:#181818;stroke-width:1.0;" width="10" x="651.5" y="655.2266"/><rect fill="#FFFFFF" height="28.5234" style="stroke:#181818;stroke-width:1.0;" width="10" x="651.5" y="726.2734"/><rect fill="#FFFFFF" height="28.5234" style="stroke:#181818;stroke-width:1.0;" width="10" x="651.5" y="783.3203"/><polygon fill="#181818" points="639.5,143.8047,649.5,147.8047,639.5,151.8047,643.5,147.8047" style="stroke:#181818;stroke-width:1.0;"/><line style="stroke:#181818;stroke-width:1.0;" x1="56.5" x2="645.5" y1="147.8047" y2="147.8047"/><text fill="#000000" font-family="sans-serif" font-size="13" font-weight="bold" lengthAdjust="spacing" textLength="7" x="63.5" y="143.0498">1</text><text fill="#000000" font-family="sans-serif" font-size="13" lengthAdjust="spacing" textLength="210" x="74.5" y="143.0498">asks to create a new announcement</text><polygon fill="#181818" points="67.5,172.3281,57.5,176.3281,67.5,180.3281,63.5,176.3281" style="stroke:#181818;stroke-width:1.0;"/><line style="stroke:#181818;stroke-width:1.0;stroke-dasharray:2.0,2.0;" x1="61.5" x2="655.5" y1="176.3281" y2="176.3281"/><text fill="#000000" font-family="sans-serif" font-size="13" font-weight="bold" lengthAdjust="spacing" textLength="7" x="73.5" y="171.5732">2</text><text fill="#000000" font-family="sans-serif" font-size="13" lengthAdjust="spacing" textLength="274" x="84.5" y="171.5732">shows property type list and asks to select one</text><polygon fill="#181818" points="639.5,200.8516,649.5,204.8516,639.5,208.8516,643.5,204.8516" style="stroke:#181818;stroke-width:1.0;"/><line style="stroke:#181818;stroke-width:1.0;" x1="56.5" x2="645.5" y1="204.8516" y2="204.8516"/><text fill="#000000" font-family="sans-serif" font-size="13" font-weight="bold" lengthAdjust="spacing" textLength="7" x="63.5" y="200.0967">3</text><text fill="#000000" font-family="sans-serif" font-size="13" lengthAdjust="spacing" textLength="122" x="74.5" y="200.0967">selects property type</text><polygon fill="#181818" points="67.5,229.375,57.5,233.375,67.5,237.375,63.5,233.375" style="stroke:#181818;stroke-width:1.0;"/><line style="stroke:#181818;stroke-width:1.0;stroke-dasharray:2.0,2.0;" x1="61.5" x2="655.5" y1="233.375" y2="233.375"/><text fill="#000000" font-family="sans-serif" font-size="13" font-weight="bold" lengthAdjust="spacing" textLength="7" x="73.5" y="228.6201">4</text><text fill="#000000" font-family="sans-serif" font-size="13" lengthAdjust="spacing" textLength="251" x="84.5" y="228.6201">shows list of agents and asks to select one</text><polygon fill="#181818" points="639.5,257.8984,649.5,261.8984,639.5,265.8984,643.5,261.8984" style="stroke:#181818;stroke-width:1.0;"/><line style="stroke:#181818;stroke-width:1.0;" x1="56.5" x2="645.5" y1="261.8984" y2="261.8984"/><text fill="#000000" font-family="sans-serif" font-size="13" font-weight="bold" lengthAdjust="spacing" textLength="7" x="63.5" y="257.1436">5</text><text fill="#000000" font-family="sans-serif" font-size="13" lengthAdjust="spacing" textLength="78" x="74.5" y="257.1436">selects agent</text><polygon fill="#181818" points="67.5,286.4219,57.5,290.4219,67.5,294.4219,63.5,290.4219" style="stroke:#181818;stroke-width:1.0;"/><line style="stroke:#181818;stroke-width:1.0;stroke-dasharray:2.0,2.0;" x1="61.5" x2="655.5" y1="290.4219" y2="290.4219"/><text fill="#000000" font-family="sans-serif" font-size="13" font-weight="bold" lengthAdjust="spacing" textLength="7" x="73.5" y="285.667">6</text><text fill="#000000" font-family="sans-serif" font-size="13" lengthAdjust="spacing" textLength="560" x="84.5" y="285.667">requests data(property size, distance from centre, street name, city name, state name, zip code)</text><polygon fill="#181818" points="639.5,314.9453,649.5,318.9453,639.5,322.9453,643.5,318.9453" style="stroke:#181818;stroke-width:1.0;"/><line style="stroke:#181818;stroke-width:1.0;" x1="56.5" x2="645.5" y1="318.9453" y2="318.9453"/><text fill="#000000" font-family="sans-serif" font-size="13" font-weight="bold" lengthAdjust="spacing" textLength="7" x="63.5" y="314.1904">7</text><text fill="#000000" font-family="sans-serif" font-size="13" lengthAdjust="spacing" textLength="125" x="74.5" y="314.1904">inputs requested data</text><path d="M20,333.9453 L93,333.9453 L93,340.4688 L83,350.4688 L20,350.4688 L20,333.9453 " fill="#EEEEEE" style="stroke:#000000;stroke-width:1.5;"/><rect fill="none" height="73.5703" style="stroke:#000000;stroke-width:1.5;" width="678.5" x="20" y="333.9453"/><text fill="#000000" font-family="sans-serif" font-size="13" font-weight="bold" lengthAdjust="spacing" textLength="28" x="35" y="346.7139">loop</text><text fill="#000000" font-family="sans-serif" font-size="11" font-weight="bold" lengthAdjust="spacing" textLength="182" x="108" y="345.9033">[while agent has photos to input]</text><polygon fill="#181818" points="67.5,366.9922,57.5,370.9922,67.5,374.9922,63.5,370.9922" style="stroke:#181818;stroke-width:1.0;"/><line style="stroke:#181818;stroke-width:1.0;stroke-dasharray:2.0,2.0;" x1="61.5" x2="655.5" y1="370.9922" y2="370.9922"/><text fill="#000000" font-family="sans-serif" font-size="13" font-weight="bold" lengthAdjust="spacing" textLength="7" x="73.5" y="366.2373">8</text><text fill="#000000" font-family="sans-serif" font-size="13" lengthAdjust="spacing" textLength="107" x="84.5" y="366.2373">requests photoURI</text><polygon fill="#181818" points="639.5,395.5156,649.5,399.5156,639.5,403.5156,643.5,399.5156" style="stroke:#181818;stroke-width:1.0;"/><line style="stroke:#181818;stroke-width:1.0;" x1="56.5" x2="645.5" y1="399.5156" y2="399.5156"/><text fill="#000000" font-family="sans-serif" font-size="13" font-weight="bold" lengthAdjust="spacing" textLength="7" x="63.5" y="394.7607">9</text><text fill="#000000" font-family="sans-serif" font-size="13" lengthAdjust="spacing" textLength="125" x="74.5" y="394.7607">inputs requested data</text><path d="M10,421.5156 L71,421.5156 L71,428.0391 L61,438.0391 L10,438.0391 L10,421.5156 " fill="#EEEEEE" style="stroke:#000000;stroke-width:1.5;"/><rect fill="none" height="248.7109" style="stroke:#000000;stroke-width:1.5;" width="698.5" x="10" y="421.5156"/><text fill="#000000" font-family="sans-serif" font-size="13" font-weight="bold" lengthAdjust="spacing" textLength="16" x="25" y="434.2842">alt</text><text fill="#000000" font-family="sans-serif" font-size="11" font-weight="bold" lengthAdjust="spacing" textLength="262" x="86" y="433.4736">[if the property type is "Apartment" or "House"]</text><path d="M20,445.0391 L93,445.0391 L93,451.5625 L83,461.5625 L20,461.5625 L20,445.0391 " fill="#EEEEEE" style="stroke:#000000;stroke-width:1.5;"/><rect fill="none" height="73.5703" style="stroke:#000000;stroke-width:1.5;" width="678.5" x="20" y="445.0391"/><text fill="#000000" font-family="sans-serif" font-size="13" font-weight="bold" lengthAdjust="spacing" textLength="28" x="35" y="457.8076">loop</text><text fill="#000000" font-family="sans-serif" font-size="11" font-weight="bold" lengthAdjust="spacing" textLength="203" x="108" y="456.9971">[while agent has equipment to input]</text><polygon fill="#181818" points="67.5,478.0859,57.5,482.0859,67.5,486.0859,63.5,482.0859" style="stroke:#181818;stroke-width:1.0;"/><line style="stroke:#181818;stroke-width:1.0;stroke-dasharray:2.0,2.0;" x1="61.5" x2="655.5" y1="482.0859" y2="482.0859"/><text fill="#000000" font-family="sans-serif" font-size="13" font-weight="bold" lengthAdjust="spacing" textLength="14" x="73.5" y="477.3311">10</text><text fill="#000000" font-family="sans-serif" font-size="13" lengthAdjust="spacing" textLength="116" x="91.5" y="477.3311">requests Equipment</text><polygon fill="#181818" points="639.5,506.6094,649.5,510.6094,639.5,514.6094,643.5,510.6094" style="stroke:#181818;stroke-width:1.0;"/><line style="stroke:#181818;stroke-width:1.0;" x1="56.5" x2="645.5" y1="510.6094" y2="510.6094"/><text fill="#000000" font-family="sans-serif" font-size="13" font-weight="bold" lengthAdjust="spacing" textLength="14" x="63.5" y="505.8545">11</text><text fill="#000000" font-family="sans-serif" font-size="13" lengthAdjust="spacing" textLength="229" x="81.5" y="505.8545">inputs requested data(equipment name)</text><polygon fill="#181818" points="67.5,542.1328,57.5,546.1328,67.5,550.1328,63.5,546.1328" style="stroke:#181818;stroke-width:1.0;"/><line style="stroke:#181818;stroke-width:1.0;stroke-dasharray:2.0,2.0;" x1="61.5" x2="655.5" y1="546.1328" y2="546.1328"/><text fill="#000000" font-family="sans-serif" font-size="13" font-weight="bold" lengthAdjust="spacing" textLength="14" x="73.5" y="541.3779">12</text><text fill="#000000" font-family="sans-serif" font-size="13" lengthAdjust="spacing" textLength="309" x="91.5" y="541.3779">requests data(bedrooms, bathrooms, parking spaces)</text><polygon fill="#181818" points="639.5,570.6563,649.5,574.6563,639.5,578.6563,643.5,574.6563" style="stroke:#181818;stroke-width:1.0;"/><line style="stroke:#181818;stroke-width:1.0;" x1="56.5" x2="645.5" y1="574.6563" y2="574.6563"/><text fill="#000000" font-family="sans-serif" font-size="13" font-weight="bold" lengthAdjust="spacing" textLength="14" x="63.5" y="569.9014">13</text><text fill="#000000" font-family="sans-serif" font-size="13" lengthAdjust="spacing" textLength="125" x="81.5" y="569.9014">inputs requested data</text><path d="M20,589.6563 L81,589.6563 L81,596.1797 L71,606.1797 L20,606.1797 L20,589.6563 " fill="#EEEEEE" style="stroke:#000000;stroke-width:1.5;"/><rect fill="none" height="73.5703" style="stroke:#000000;stroke-width:1.5;" width="678.5" x="20" y="589.6563"/><text fill="#000000" font-family="sans-serif" font-size="13" font-weight="bold" lengthAdjust="spacing" textLength="16" x="35" y="602.4248">alt</text><text fill="#000000" font-family="sans-serif" font-size="11" font-weight="bold" lengthAdjust="spacing" textLength="175" x="96" y="601.6143">[if the property type is "House"]</text><polygon fill="#181818" points="67.5,622.7031,57.5,626.7031,67.5,630.7031,63.5,626.7031" style="stroke:#181818;stroke-width:1.0;"/><line style="stroke:#181818;stroke-width:1.0;stroke-dasharray:2.0,2.0;" x1="61.5" x2="655.5" y1="626.7031" y2="626.7031"/><text fill="#000000" font-family="sans-serif" font-size="13" font-weight="bold" lengthAdjust="spacing" textLength="14" x="73.5" y="621.9482">14</text><text fill="#000000" font-family="sans-serif" font-size="13" lengthAdjust="spacing" textLength="255" x="91.5" y="621.9482">requests data(basement, loft, sun exposure)</text><polygon fill="#181818" points="639.5,651.2266,649.5,655.2266,639.5,659.2266,643.5,655.2266" style="stroke:#181818;stroke-width:1.0;"/><line style="stroke:#181818;stroke-width:1.0;" x1="56.5" x2="645.5" y1="655.2266" y2="655.2266"/><text fill="#000000" font-family="sans-serif" font-size="13" font-weight="bold" lengthAdjust="spacing" textLength="14" x="63.5" y="650.4717">15</text><text fill="#000000" font-family="sans-serif" font-size="13" lengthAdjust="spacing" textLength="125" x="81.5" y="650.4717">inputs requested data</text><polygon fill="#181818" points="67.5,693.75,57.5,697.75,67.5,701.75,63.5,697.75" style="stroke:#181818;stroke-width:1.0;"/><line style="stroke:#181818;stroke-width:1.0;stroke-dasharray:2.0,2.0;" x1="61.5" x2="655.5" y1="697.75" y2="697.75"/><text fill="#000000" font-family="sans-serif" font-size="13" font-weight="bold" lengthAdjust="spacing" textLength="14" x="73.5" y="692.9951">16</text><text fill="#000000" font-family="sans-serif" font-size="13" lengthAdjust="spacing" textLength="493" x="91.5" y="692.9951">requests data(transaction type, monetary value, commission data, commission value)</text><polygon fill="#181818" points="639.5,722.2734,649.5,726.2734,639.5,730.2734,643.5,726.2734" style="stroke:#181818;stroke-width:1.0;"/><line style="stroke:#181818;stroke-width:1.0;" x1="56.5" x2="645.5" y1="726.2734" y2="726.2734"/><text fill="#000000" font-family="sans-serif" font-size="13" font-weight="bold" lengthAdjust="spacing" textLength="14" x="63.5" y="721.5186">17</text><text fill="#000000" font-family="sans-serif" font-size="13" lengthAdjust="spacing" textLength="125" x="81.5" y="721.5186">inputs requested data</text><polygon fill="#181818" points="67.5,750.7969,57.5,754.7969,67.5,758.7969,63.5,754.7969" style="stroke:#181818;stroke-width:1.0;"/><line style="stroke:#181818;stroke-width:1.0;stroke-dasharray:2.0,2.0;" x1="61.5" x2="655.5" y1="754.7969" y2="754.7969"/><text fill="#000000" font-family="sans-serif" font-size="13" font-weight="bold" lengthAdjust="spacing" textLength="14" x="73.5" y="750.042">18</text><text fill="#000000" font-family="sans-serif" font-size="13" lengthAdjust="spacing" textLength="232" x="91.5" y="750.042">shows owner list and asks to select one</text><polygon fill="#181818" points="639.5,779.3203,649.5,783.3203,639.5,787.3203,643.5,783.3203" style="stroke:#181818;stroke-width:1.0;"/><line style="stroke:#181818;stroke-width:1.0;" x1="56.5" x2="645.5" y1="783.3203" y2="783.3203"/><text fill="#000000" font-family="sans-serif" font-size="13" font-weight="bold" lengthAdjust="spacing" textLength="14" x="63.5" y="778.5654">19</text><text fill="#000000" font-family="sans-serif" font-size="13" lengthAdjust="spacing" textLength="80" x="81.5" y="778.5654">selects owner</text><polygon fill="#181818" points="67.5,807.8438,57.5,811.8438,67.5,815.8438,63.5,811.8438" style="stroke:#181818;stroke-width:1.0;"/><line style="stroke:#181818;stroke-width:1.0;stroke-dasharray:2.0,2.0;" x1="61.5" x2="655.5" y1="811.8438" y2="811.8438"/><text fill="#000000" font-family="sans-serif" font-size="13" font-weight="bold" lengthAdjust="spacing" textLength="14" x="73.5" y="807.0889">20</text><text fill="#000000" font-family="sans-serif" font-size="13" lengthAdjust="spacing" textLength="195" x="91.5" y="807.0889">display operation status message</text><!--SRC=[jLNDZfj03Bxp55PEYPILLZtcKAdILcglHVi03ZXX59YXOxCf-_Jr326RGCZFIZi7ue3zsVx6FxmpjaQF5LJEkgpmhY8Gtr32noyrPZlSKYfjIU0f4xJRybI12ypTtjWjRB1aIX8negglwVFpDtY2j6MX2bBwsv3D25uCReFPF4rV5ac2ZJZRL6loAcVYFCn-RCdA390XIecw4PEP6gt0RDNXnS-T6EtC6meTz1FG4qLu-jxxNwd1Za4SP9w2BeAbFQ2rhj6mgc0Ox8vOFJWSpW7dII4xx9LcxlOCjNSrUMb1sfgWD2oAcX_TCPLA6ZXB4IgdYnx6uNPs0_Zf42V3Ym6v3M1uozT2wyz4YFsP3ZMwEDDzb54VgeGLAaV1-J5rDk-qX5mpmL126wrJoDJ2wrlM9mbOhFHFPbIx4rLNVNRokwaXSpaj7hi2hV16Opa4HNcCAhcPLtzAvshO5qQR8J83XTPiNJXnaVs8depDJiyrYYBIwv_Vam3ZF8SQZwOybNh_dcm-I6X44fO2PWDIqA1n36ldXrQlOlU7GV3BDKmpHRp8f8Pewg3yGUOjodxs9bT9lytR0zpDFy8CjRYuY3NqD-RnhdvPK-wTgtW9QvJY82gbkp2SMGSvyUBEJlz4POoWpZAuUk_zHJ-KB7ASsaljiuq-kR50_sh7ZPzW-MA-oQTlTiB7jR50OVYMalI_oQCtB1uj1m_EHlQMON6Je6_X3SicJ41NLOOvA0IBinTHvOoRhos0-uTQjwhStfA_kK7lkzS9pM5Q9zihUf-ocyA_a8kkgRh45aAHOxofi8eQXegOTNnDxA3_]--></g></svg>