<?xml version="1.0" encoding="us-ascii" standalone="no"?><svg xmlns="http://www.w3.org/2000/svg" xmlns:xlink="http://www.w3.org/1999/xlink" contentStyleType="text/css" height="1207px" preserveAspectRatio="none" style="width:2486px;height:1207px;background:#FFFFFF;" version="1.1" viewBox="0 0 2486 1207" width="2486px" zoomAndPan="magnify"><defs/><g><!--class Employee--><g id="elem_Employee"><rect
        fill="#F1F1F1" height="48" id="Employee" rx="2.5" ry="2.5" style="stroke:#181818;stroke-width:0.5;" width="94" x="707.5" y="571.5"/><ellipse cx="722.5" cy="587.5" fill="#ADD1B2" rx="11" ry="11" style="stroke:#181818;stroke-width:1.0;"/><path d="M725.2656,583.375 Q725.4219,583.1563 725.6094,583.0469 Q725.7969,582.9375 726.0156,582.9375 Q726.3906,582.9375 726.625,583.2031 Q726.8594,583.4531 726.8594,584.0625 L726.8594,585.5156 Q726.8594,586.125 726.625,586.3906 Q726.3906,586.6563 726.0156,586.6563 Q725.6719,586.6563 725.4688,586.4531 Q725.2656,586.2656 725.1563,585.75 Q725.1094,585.3906 724.9219,585.2031 Q724.5938,584.8281 723.9844,584.6094 Q723.375,584.3906 722.75,584.3906 Q721.9844,584.3906 721.3438,584.7188 Q720.7188,585.0469 720.2188,585.7969 Q719.7344,586.5469 719.7344,587.5781 L719.7344,588.6719 Q719.7344,589.9063 720.625,590.7344 Q721.5156,591.5469 723.1094,591.5469 Q724.0469,591.5469 724.7031,591.2969 Q725.0938,591.1406 725.5156,590.7031 Q725.7813,590.4375 725.9219,590.3594 Q726.0781,590.2813 726.2813,590.2813 Q726.6094,590.2813 726.8594,590.5469 Q727.125,590.7969 727.125,591.1406 Q727.125,591.4844 726.7813,591.8906 Q726.2813,592.4688 725.4844,592.7969 Q724.4063,593.25 723.1094,593.25 Q721.5938,593.25 720.3906,592.625 Q719.4063,592.125 718.7188,591.0625 Q718.0313,589.9844 718.0313,588.7031 L718.0313,587.5469 Q718.0313,586.2188 718.6406,585.0781 Q719.2656,583.9219 720.3594,583.3125 Q721.4531,582.6875 722.6875,582.6875 Q723.4219,582.6875 724.0625,582.8594 Q724.7188,583.0156 725.2656,583.375 Z " fill="#000000"/><text fill="#000000" font-family="sans-serif" font-size="14" lengthAdjust="spacing" textLength="62" x="736.5" y="593.2969">Employee</text><line style="stroke:#181818;stroke-width:0.5;" x1="708.5" x2="800.5" y1="603.5" y2="603.5"/><line style="stroke:#181818;stroke-width:0.5;" x1="708.5" x2="800.5" y1="611.5" y2="611.5"/></g><!--class Role--><g id="elem_Role"><rect
        fill="#F1F1F1" height="178.3477" id="Role" rx="2.5" ry="2.5" style="stroke:#181818;stroke-width:0.5;" width="147" x="7" y="1022"/><ellipse cx="61.75" cy="1038" fill="#ADD1B2" rx="11" ry="11" style="stroke:#181818;stroke-width:1.0;"/><path d="M64.5156,1033.875 Q64.6719,1033.6563 64.8594,1033.5469 Q65.0469,1033.4375 65.2656,1033.4375 Q65.6406,1033.4375 65.875,1033.7031 Q66.1094,1033.9531 66.1094,1034.5625 L66.1094,1036.0156 Q66.1094,1036.625 65.875,1036.8906 Q65.6406,1037.1563 65.2656,1037.1563 Q64.9219,1037.1563 64.7188,1036.9531 Q64.5156,1036.7656 64.4063,1036.25 Q64.3594,1035.8906 64.1719,1035.7031 Q63.8438,1035.3281 63.2344,1035.1094 Q62.625,1034.8906 62,1034.8906 Q61.2344,1034.8906 60.5938,1035.2188 Q59.9688,1035.5469 59.4688,1036.2969 Q58.9844,1037.0469 58.9844,1038.0781 L58.9844,1039.1719 Q58.9844,1040.4063 59.875,1041.2344 Q60.7656,1042.0469 62.3594,1042.0469 Q63.2969,1042.0469 63.9531,1041.7969 Q64.3438,1041.6406 64.7656,1041.2031 Q65.0313,1040.9375 65.1719,1040.8594 Q65.3281,1040.7813 65.5313,1040.7813 Q65.8594,1040.7813 66.1094,1041.0469 Q66.375,1041.2969 66.375,1041.6406 Q66.375,1041.9844 66.0313,1042.3906 Q65.5313,1042.9688 64.7344,1043.2969 Q63.6563,1043.75 62.3594,1043.75 Q60.8438,1043.75 59.6406,1043.125 Q58.6563,1042.625 57.9688,1041.5625 Q57.2813,1040.4844 57.2813,1039.2031 L57.2813,1038.0469 Q57.2813,1036.7188 57.8906,1035.5781 Q58.5156,1034.4219 59.6094,1033.8125 Q60.7031,1033.1875 61.9375,1033.1875 Q62.6719,1033.1875 63.3125,1033.3594 Q63.9688,1033.5156 64.5156,1033.875 Z " fill="#000000"/><text fill="#000000" font-family="sans-serif" font-size="14" lengthAdjust="spacing" textLength="29" x="82.25" y="1043.7969">Role</text><line style="stroke:#181818;stroke-width:0.5;" x1="8" x2="153" y1="1054" y2="1054"/><text fill="#000000" font-family="sans-serif" font-size="14" lengthAdjust="spacing" textLength="57" x="13" y="1073.1074">-String id</text><text fill="#000000" font-family="sans-serif" font-size="14" lengthAdjust="spacing" textLength="115" x="13" y="1091.7285">-String description</text><line style="stroke:#181818;stroke-width:1.0;" x1="8" x2="153" y1="1099.2422" y2="1099.2422"/><text fill="#000000" font-family="sans-serif" font-size="14" lengthAdjust="spacing" textLength="135" x="13" y="1118.3496">+Role(id, description)</text><text fill="#000000" font-family="sans-serif" font-size="14" lengthAdjust="spacing" textLength="40" x="13" y="1136.9707">+setID</text><text fill="#000000" font-family="sans-serif" font-size="14" lengthAdjust="spacing" textLength="98" x="13" y="1155.5918">+setDescription</text><text fill="#000000" font-family="sans-serif" font-size="14" lengthAdjust="spacing" textLength="41" x="13" y="1174.2129">+getID</text><text fill="#000000" font-family="sans-serif" font-size="14" lengthAdjust="spacing" textLength="99" x="13" y="1192.834">+getDescription</text></g><!--class Address--><g id="elem_Address"><rect
        fill="#F1F1F1" height="345.9375" id="Address" rx="2.5" ry="2.5" style="stroke:#181818;stroke-width:0.5;" width="294" x="152.5" y="7"/><ellipse cx="269.25" cy="23" fill="#ADD1B2" rx="11" ry="11" style="stroke:#181818;stroke-width:1.0;"/><path d="M272.0156,18.875 Q272.1719,18.6563 272.3594,18.5469 Q272.5469,18.4375 272.7656,18.4375 Q273.1406,18.4375 273.375,18.7031 Q273.6094,18.9531 273.6094,19.5625 L273.6094,21.0156 Q273.6094,21.625 273.375,21.8906 Q273.1406,22.1563 272.7656,22.1563 Q272.4219,22.1563 272.2188,21.9531 Q272.0156,21.7656 271.9063,21.25 Q271.8594,20.8906 271.6719,20.7031 Q271.3438,20.3281 270.7344,20.1094 Q270.125,19.8906 269.5,19.8906 Q268.7344,19.8906 268.0938,20.2188 Q267.4688,20.5469 266.9688,21.2969 Q266.4844,22.0469 266.4844,23.0781 L266.4844,24.1719 Q266.4844,25.4063 267.375,26.2344 Q268.2656,27.0469 269.8594,27.0469 Q270.7969,27.0469 271.4531,26.7969 Q271.8438,26.6406 272.2656,26.2031 Q272.5313,25.9375 272.6719,25.8594 Q272.8281,25.7813 273.0313,25.7813 Q273.3594,25.7813 273.6094,26.0469 Q273.875,26.2969 273.875,26.6406 Q273.875,26.9844 273.5313,27.3906 Q273.0313,27.9688 272.2344,28.2969 Q271.1563,28.75 269.8594,28.75 Q268.3438,28.75 267.1406,28.125 Q266.1563,27.625 265.4688,26.5625 Q264.7813,25.4844 264.7813,24.2031 L264.7813,23.0469 Q264.7813,21.7188 265.3906,20.5781 Q266.0156,19.4219 267.1094,18.8125 Q268.2031,18.1875 269.4375,18.1875 Q270.1719,18.1875 270.8125,18.3594 Q271.4688,18.5156 272.0156,18.875 Z " fill="#000000"/><text fill="#000000" font-family="sans-serif" font-size="14" lengthAdjust="spacing" textLength="52" x="289.75" y="28.7969">Address</text><line style="stroke:#181818;stroke-width:0.5;" x1="153.5" x2="445.5" y1="39" y2="39"/><text fill="#000000" font-family="sans-serif" font-size="14" lengthAdjust="spacing" textLength="82" x="158.5" y="58.1074">-String street</text><text fill="#000000" font-family="sans-serif" font-size="14" lengthAdjust="spacing" textLength="67" x="158.5" y="76.7285">-String city</text><text fill="#000000" font-family="sans-serif" font-size="14" lengthAdjust="spacing" textLength="87" x="158.5" y="95.3496">-String district</text><text fill="#000000" font-family="sans-serif" font-size="14" lengthAdjust="spacing" textLength="77" x="158.5" y="113.9707">-String state</text><text fill="#000000" font-family="sans-serif" font-size="14" lengthAdjust="spacing" textLength="97" x="158.5" y="132.5918">-String zipCode</text><line style="stroke:#181818;stroke-width:1.0;" x1="153.5" x2="445.5" y1="140.1055" y2="140.1055"/><text fill="#000000" font-family="sans-serif" font-size="14" lengthAdjust="spacing" textLength="282" x="158.5" y="159.2129">+Address(street, city, district, state, zipCode)</text><text fill="#000000" font-family="sans-serif" font-size="14" lengthAdjust="spacing" textLength="75" x="158.5" y="177.834">+setStreet()</text><text fill="#000000" font-family="sans-serif" font-size="14" lengthAdjust="spacing" textLength="61" x="158.5" y="196.4551">+setCity()</text><text fill="#000000" font-family="sans-serif" font-size="14" lengthAdjust="spacing" textLength="80" x="158.5" y="215.0762">+setDistrict()</text><text fill="#000000" font-family="sans-serif" font-size="14" lengthAdjust="spacing" textLength="70" x="158.5" y="233.6973">+setState()</text><text fill="#000000" font-family="sans-serif" font-size="14" lengthAdjust="spacing" textLength="90" x="158.5" y="252.3184">+setZipCode()</text><text fill="#000000" font-family="sans-serif" font-size="14" lengthAdjust="spacing" textLength="76" x="158.5" y="270.9395">+getStreet()</text><text fill="#000000" font-family="sans-serif" font-size="14" lengthAdjust="spacing" textLength="62" x="158.5" y="289.5605">+getCity()</text><text fill="#000000" font-family="sans-serif" font-size="14" lengthAdjust="spacing" textLength="81" x="158.5" y="308.1816">+getDistrict()</text><text fill="#000000" font-family="sans-serif" font-size="14" lengthAdjust="spacing" textLength="71" x="158.5" y="326.8027">+getState()</text><text fill="#000000" font-family="sans-serif" font-size="14" lengthAdjust="spacing" textLength="91" x="158.5" y="345.4238">+getZipCode()</text></g><!--class PassportCard--><g id="elem_PassportCard"><rect
        fill="#F1F1F1" height="122.4844" id="PassportCard" rx="2.5" ry="2.5" style="stroke:#181818;stroke-width:0.5;" width="221" x="189" y="1050"/><ellipse cx="251.75" cy="1066" fill="#ADD1B2" rx="11" ry="11" style="stroke:#181818;stroke-width:1.0;"/><path d="M254.5156,1061.875 Q254.6719,1061.6563 254.8594,1061.5469 Q255.0469,1061.4375 255.2656,1061.4375 Q255.6406,1061.4375 255.875,1061.7031 Q256.1094,1061.9531 256.1094,1062.5625 L256.1094,1064.0156 Q256.1094,1064.625 255.875,1064.8906 Q255.6406,1065.1563 255.2656,1065.1563 Q254.9219,1065.1563 254.7188,1064.9531 Q254.5156,1064.7656 254.4063,1064.25 Q254.3594,1063.8906 254.1719,1063.7031 Q253.8438,1063.3281 253.2344,1063.1094 Q252.625,1062.8906 252,1062.8906 Q251.2344,1062.8906 250.5938,1063.2188 Q249.9688,1063.5469 249.4688,1064.2969 Q248.9844,1065.0469 248.9844,1066.0781 L248.9844,1067.1719 Q248.9844,1068.4063 249.875,1069.2344 Q250.7656,1070.0469 252.3594,1070.0469 Q253.2969,1070.0469 253.9531,1069.7969 Q254.3438,1069.6406 254.7656,1069.2031 Q255.0313,1068.9375 255.1719,1068.8594 Q255.3281,1068.7813 255.5313,1068.7813 Q255.8594,1068.7813 256.1094,1069.0469 Q256.375,1069.2969 256.375,1069.6406 Q256.375,1069.9844 256.0313,1070.3906 Q255.5313,1070.9688 254.7344,1071.2969 Q253.6563,1071.75 252.3594,1071.75 Q250.8438,1071.75 249.6406,1071.125 Q248.6563,1070.625 247.9688,1069.5625 Q247.2813,1068.4844 247.2813,1067.2031 L247.2813,1066.0469 Q247.2813,1064.7188 247.8906,1063.5781 Q248.5156,1062.4219 249.6094,1061.8125 Q250.7031,1061.1875 251.9375,1061.1875 Q252.6719,1061.1875 253.3125,1061.3594 Q253.9688,1061.5156 254.5156,1061.875 Z " fill="#000000"/><text fill="#000000" font-family="sans-serif" font-size="14" lengthAdjust="spacing" textLength="87" x="272.25" y="1071.7969">PassportCard</text><line style="stroke:#181818;stroke-width:0.5;" x1="190" x2="409" y1="1082" y2="1082"/><text fill="#000000" font-family="sans-serif" font-size="14" lengthAdjust="spacing" textLength="157" x="195" y="1101.1074">-Integer passportNumber</text><line style="stroke:#181818;stroke-width:1.0;" x1="190" x2="409" y1="1108.6211" y2="1108.6211"/><text fill="#000000" font-family="sans-serif" font-size="14" lengthAdjust="spacing" textLength="209" x="195" y="1127.7285">+PassportCard(passportNumber)</text><text fill="#000000" font-family="sans-serif" font-size="14" lengthAdjust="spacing" textLength="143" x="195" y="1146.3496">+getPassportNumber()</text><text fill="#000000" font-family="sans-serif" font-size="14" lengthAdjust="spacing" textLength="142" x="195" y="1164.9707">+setPassportNumber()</text></g><!--class Person--><g id="elem_Person"><rect
        fill="#F1F1F1" height="327.3164" id="Person" rx="2.5" ry="2.5" style="stroke:#181818;stroke-width:0.5;" width="306" x="146.5" y="432"/><ellipse cx="272.75" cy="448" fill="#ADD1B2" rx="11" ry="11" style="stroke:#181818;stroke-width:1.0;"/><path d="M275.5156,443.875 Q275.6719,443.6563 275.8594,443.5469 Q276.0469,443.4375 276.2656,443.4375 Q276.6406,443.4375 276.875,443.7031 Q277.1094,443.9531 277.1094,444.5625 L277.1094,446.0156 Q277.1094,446.625 276.875,446.8906 Q276.6406,447.1563 276.2656,447.1563 Q275.9219,447.1563 275.7188,446.9531 Q275.5156,446.7656 275.4063,446.25 Q275.3594,445.8906 275.1719,445.7031 Q274.8438,445.3281 274.2344,445.1094 Q273.625,444.8906 273,444.8906 Q272.2344,444.8906 271.5938,445.2188 Q270.9688,445.5469 270.4688,446.2969 Q269.9844,447.0469 269.9844,448.0781 L269.9844,449.1719 Q269.9844,450.4063 270.875,451.2344 Q271.7656,452.0469 273.3594,452.0469 Q274.2969,452.0469 274.9531,451.7969 Q275.3438,451.6406 275.7656,451.2031 Q276.0313,450.9375 276.1719,450.8594 Q276.3281,450.7813 276.5313,450.7813 Q276.8594,450.7813 277.1094,451.0469 Q277.375,451.2969 277.375,451.6406 Q277.375,451.9844 277.0313,452.3906 Q276.5313,452.9688 275.7344,453.2969 Q274.6563,453.75 273.3594,453.75 Q271.8438,453.75 270.6406,453.125 Q269.6563,452.625 268.9688,451.5625 Q268.2813,450.4844 268.2813,449.2031 L268.2813,448.0469 Q268.2813,446.7188 268.8906,445.5781 Q269.5156,444.4219 270.6094,443.8125 Q271.7031,443.1875 272.9375,443.1875 Q273.6719,443.1875 274.3125,443.3594 Q274.9688,443.5156 275.5156,443.875 Z " fill="#000000"/><text fill="#000000" font-family="sans-serif" font-size="14" lengthAdjust="spacing" textLength="45" x="293.25" y="453.7969">Person</text><line style="stroke:#181818;stroke-width:0.5;" x1="147.5" x2="451.5" y1="464" y2="464"/><text fill="#000000" font-family="sans-serif" font-size="14" lengthAdjust="spacing" textLength="81" x="152.5" y="483.1074">-String name</text><text fill="#000000" font-family="sans-serif" font-size="14" lengthAdjust="spacing" textLength="131" x="152.5" y="501.7285">-String emailAddress</text><text fill="#000000" font-family="sans-serif" font-size="14" lengthAdjust="spacing" textLength="120" x="152.5" y="520.3496">-Integer taxNumber</text><text fill="#000000" font-family="sans-serif" font-size="14" lengthAdjust="spacing" textLength="165" x="152.5" y="538.9707">-Integer telephoneNumber</text><line style="stroke:#181818;stroke-width:1.0;" x1="147.5" x2="451.5" y1="546.4844" y2="546.4844"/><text fill="#000000" font-family="sans-serif" font-size="14" lengthAdjust="spacing" textLength="294" x="152.5" y="565.5918">+Person(name, passportNumber, emailAdress,</text><text fill="#000000" font-family="sans-serif" font-size="14" lengthAdjust="spacing" textLength="293" x="152.5" y="584.2129">taxNumber, contactTelephoneNumber, adress,</text><text fill="#000000" font-family="sans-serif" font-size="14" lengthAdjust="spacing" textLength="83" x="152.5" y="602.834">role, agency)</text><text fill="#000000" font-family="sans-serif" font-size="14" lengthAdjust="spacing" textLength="73" x="152.5" y="621.4551">+setName()</text><text fill="#000000" font-family="sans-serif" font-size="14" lengthAdjust="spacing" textLength="123" x="152.5" y="640.0762">+setEmailAddress()</text><text fill="#000000" font-family="sans-serif" font-size="14" lengthAdjust="spacing" textLength="109" x="152.5" y="658.6973">+setTaxNumber()</text><text fill="#000000" font-family="sans-serif" font-size="14" lengthAdjust="spacing" textLength="154" x="152.5" y="677.3184">+setTelephoneNumber()</text><text fill="#000000" font-family="sans-serif" font-size="14" lengthAdjust="spacing" textLength="74" x="152.5" y="695.9395">+getName()</text><text fill="#000000" font-family="sans-serif" font-size="14" lengthAdjust="spacing" textLength="124" x="152.5" y="714.5605">+getEmailAddress()</text><text fill="#000000" font-family="sans-serif" font-size="14" lengthAdjust="spacing" textLength="110" x="152.5" y="733.1816">+getTaxNumber()</text><text fill="#000000" font-family="sans-serif" font-size="14" lengthAdjust="spacing" textLength="155" x="152.5" y="751.8027">+getTelephoneNumber()</text></g><!--class Repositories--><g id="elem_Repositories"><rect
        fill="#F1F1F1" height="141.1055" id="Repositories" rx="2.5" ry="2.5" style="stroke:#181818;stroke-width:0.5;" width="220" x="1048.5" y="820"/><ellipse cx="1114.75" cy="836" fill="#ADD1B2" rx="11" ry="11" style="stroke:#181818;stroke-width:1.0;"/><path d="M1117.5156,831.875 Q1117.6719,831.6563 1117.8594,831.5469 Q1118.0469,831.4375 1118.2656,831.4375 Q1118.6406,831.4375 1118.875,831.7031 Q1119.1094,831.9531 1119.1094,832.5625 L1119.1094,834.0156 Q1119.1094,834.625 1118.875,834.8906 Q1118.6406,835.1563 1118.2656,835.1563 Q1117.9219,835.1563 1117.7188,834.9531 Q1117.5156,834.7656 1117.4063,834.25 Q1117.3594,833.8906 1117.1719,833.7031 Q1116.8438,833.3281 1116.2344,833.1094 Q1115.625,832.8906 1115,832.8906 Q1114.2344,832.8906 1113.5938,833.2188 Q1112.9688,833.5469 1112.4688,834.2969 Q1111.9844,835.0469 1111.9844,836.0781 L1111.9844,837.1719 Q1111.9844,838.4063 1112.875,839.2344 Q1113.7656,840.0469 1115.3594,840.0469 Q1116.2969,840.0469 1116.9531,839.7969 Q1117.3438,839.6406 1117.7656,839.2031 Q1118.0313,838.9375 1118.1719,838.8594 Q1118.3281,838.7813 1118.5313,838.7813 Q1118.8594,838.7813 1119.1094,839.0469 Q1119.375,839.2969 1119.375,839.6406 Q1119.375,839.9844 1119.0313,840.3906 Q1118.5313,840.9688 1117.7344,841.2969 Q1116.6563,841.75 1115.3594,841.75 Q1113.8438,841.75 1112.6406,841.125 Q1111.6563,840.625 1110.9688,839.5625 Q1110.2813,838.4844 1110.2813,837.2031 L1110.2813,836.0469 Q1110.2813,834.7188 1110.8906,833.5781 Q1111.5156,832.4219 1112.6094,831.8125 Q1113.7031,831.1875 1114.9375,831.1875 Q1115.6719,831.1875 1116.3125,831.3594 Q1116.9688,831.5156 1117.5156,831.875 Z " fill="#000000"/><text fill="#000000" font-family="sans-serif" font-size="14" lengthAdjust="spacing" textLength="79" x="1135.25" y="841.7969">Repositories</text><line style="stroke:#181818;stroke-width:0.5;" x1="1049.5" x2="1267.5" y1="852" y2="852"/><text fill="#000000" font-family="sans-serif" font-size="14" lengthAdjust="spacing" textLength="94" x="1054.5" y="871.1074">-Repositories()</text><line style="stroke:#181818;stroke-width:1.0;" x1="1049.5" x2="1267.5" y1="878.6211" y2="878.6211"/><text fill="#000000" font-family="sans-serif" font-size="14" lengthAdjust="spacing" textLength="182" x="1054.5" y="897.7285">+getInstance() : Repositories</text><text fill="#000000" font-family="sans-serif" font-size="14" lengthAdjust="spacing" textLength="182" x="1054.5" y="916.3496">+getLegacyFilesRepository()</text><text fill="#000000" font-family="sans-serif" font-size="14" lengthAdjust="spacing" textLength="147" x="1054.5" y="934.9707">+getOwnerRepository()</text><text fill="#000000" font-family="sans-serif" font-size="14" lengthAdjust="spacing" textLength="208" x="1054.5" y="953.5918">+getAnnouncementsRepository()</text></g><!--class LegacyFileRepository--><g id="elem_LegacyFileRepository"><rect
        fill="#F1F1F1" height="66.6211" id="LegacyFileRepository" rx="2.5" ry="2.5" style="stroke:#181818;stroke-width:0.5;" width="170" x="1073.5" y="1077.5"/><ellipse cx="1088.95" cy="1093.5" fill="#ADD1B2" rx="11" ry="11" style="stroke:#181818;stroke-width:1.0;"/><path d="M1091.7156,1089.375 Q1091.8719,1089.1563 1092.0594,1089.0469 Q1092.2469,1088.9375 1092.4656,1088.9375 Q1092.8406,1088.9375 1093.075,1089.2031 Q1093.3094,1089.4531 1093.3094,1090.0625 L1093.3094,1091.5156 Q1093.3094,1092.125 1093.075,1092.3906 Q1092.8406,1092.6563 1092.4656,1092.6563 Q1092.1219,1092.6563 1091.9188,1092.4531 Q1091.7156,1092.2656 1091.6063,1091.75 Q1091.5594,1091.3906 1091.3719,1091.2031 Q1091.0438,1090.8281 1090.4344,1090.6094 Q1089.825,1090.3906 1089.2,1090.3906 Q1088.4344,1090.3906 1087.7938,1090.7188 Q1087.1688,1091.0469 1086.6688,1091.7969 Q1086.1844,1092.5469 1086.1844,1093.5781 L1086.1844,1094.6719 Q1086.1844,1095.9063 1087.075,1096.7344 Q1087.9656,1097.5469 1089.5594,1097.5469 Q1090.4969,1097.5469 1091.1531,1097.2969 Q1091.5438,1097.1406 1091.9656,1096.7031 Q1092.2313,1096.4375 1092.3719,1096.3594 Q1092.5281,1096.2813 1092.7313,1096.2813 Q1093.0594,1096.2813 1093.3094,1096.5469 Q1093.575,1096.7969 1093.575,1097.1406 Q1093.575,1097.4844 1093.2313,1097.8906 Q1092.7313,1098.4688 1091.9344,1098.7969 Q1090.8563,1099.25 1089.5594,1099.25 Q1088.0438,1099.25 1086.8406,1098.625 Q1085.8563,1098.125 1085.1688,1097.0625 Q1084.4813,1095.9844 1084.4813,1094.7031 L1084.4813,1093.5469 Q1084.4813,1092.2188 1085.0906,1091.0781 Q1085.7156,1089.9219 1086.8094,1089.3125 Q1087.9031,1088.6875 1089.1375,1088.6875 Q1089.8719,1088.6875 1090.5125,1088.8594 Q1091.1688,1089.0156 1091.7156,1089.375 Z " fill="#000000"/><text fill="#000000" font-family="sans-serif" font-size="14" lengthAdjust="spacing" textLength="137" x="1103.05" y="1099.2969">LegacyFileRepository</text><line style="stroke:#181818;stroke-width:0.5;" x1="1074.5" x2="1242.5" y1="1109.5" y2="1109.5"/><line style="stroke:#181818;stroke-width:0.5;" x1="1074.5" x2="1242.5" y1="1117.5" y2="1117.5"/><text fill="#000000" font-family="sans-serif" font-size="14" lengthAdjust="spacing" textLength="158" x="1079.5" y="1136.6074">+addLegacyFile(filePath)</text></g><!--class OwnerRepository--><g id="elem_OwnerRepository"><rect
        fill="#F1F1F1" height="66.6211" id="OwnerRepository" rx="2.5" ry="2.5" style="stroke:#181818;stroke-width:0.5;" width="581" x="432" y="857"/><ellipse cx="663.75" cy="873" fill="#ADD1B2" rx="11" ry="11" style="stroke:#181818;stroke-width:1.0;"/><path d="M666.5156,868.875 Q666.6719,868.6563 666.8594,868.5469 Q667.0469,868.4375 667.2656,868.4375 Q667.6406,868.4375 667.875,868.7031 Q668.1094,868.9531 668.1094,869.5625 L668.1094,871.0156 Q668.1094,871.625 667.875,871.8906 Q667.6406,872.1563 667.2656,872.1563 Q666.9219,872.1563 666.7188,871.9531 Q666.5156,871.7656 666.4063,871.25 Q666.3594,870.8906 666.1719,870.7031 Q665.8438,870.3281 665.2344,870.1094 Q664.625,869.8906 664,869.8906 Q663.2344,869.8906 662.5938,870.2188 Q661.9688,870.5469 661.4688,871.2969 Q660.9844,872.0469 660.9844,873.0781 L660.9844,874.1719 Q660.9844,875.4063 661.875,876.2344 Q662.7656,877.0469 664.3594,877.0469 Q665.2969,877.0469 665.9531,876.7969 Q666.3438,876.6406 666.7656,876.2031 Q667.0313,875.9375 667.1719,875.8594 Q667.3281,875.7813 667.5313,875.7813 Q667.8594,875.7813 668.1094,876.0469 Q668.375,876.2969 668.375,876.6406 Q668.375,876.9844 668.0313,877.3906 Q667.5313,877.9688 666.7344,878.2969 Q665.6563,878.75 664.3594,878.75 Q662.8438,878.75 661.6406,878.125 Q660.6563,877.625 659.9688,876.5625 Q659.2813,875.4844 659.2813,874.2031 L659.2813,873.0469 Q659.2813,871.7188 659.8906,870.5781 Q660.5156,869.4219 661.6094,868.8125 Q662.7031,868.1875 663.9375,868.1875 Q664.6719,868.1875 665.3125,868.3594 Q665.9688,868.5156 666.5156,868.875 Z " fill="#000000"/><text fill="#000000" font-family="sans-serif" font-size="14" lengthAdjust="spacing" textLength="109" x="684.25" y="878.7969">OwnerRepository</text><line style="stroke:#181818;stroke-width:0.5;" x1="433" x2="1012" y1="889" y2="889"/><line style="stroke:#181818;stroke-width:0.5;" x1="433" x2="1012" y1="897" y2="897"/><text fill="#000000" font-family="sans-serif" font-size="14" lengthAdjust="spacing" textLength="569" x="438" y="916.1074">+addOwner(name, passportNumber, taxNumber, emailAddress, contactTelephoneNumber)</text></g><!--class AnnouncementRepository--><g id="elem_AnnouncementRepository"><rect
        fill="#F1F1F1" height="66.6211" id="AnnouncementRepository" rx="2.5" ry="2.5" style="stroke:#181818;stroke-width:0.5;" width="1176" x="1303.5" y="857"/><ellipse cx="1805.75" cy="873" fill="#ADD1B2" rx="11" ry="11" style="stroke:#181818;stroke-width:1.0;"/><path d="M1808.5156,868.875 Q1808.6719,868.6563 1808.8594,868.5469 Q1809.0469,868.4375 1809.2656,868.4375 Q1809.6406,868.4375 1809.875,868.7031 Q1810.1094,868.9531 1810.1094,869.5625 L1810.1094,871.0156 Q1810.1094,871.625 1809.875,871.8906 Q1809.6406,872.1563 1809.2656,872.1563 Q1808.9219,872.1563 1808.7188,871.9531 Q1808.5156,871.7656 1808.4063,871.25 Q1808.3594,870.8906 1808.1719,870.7031 Q1807.8438,870.3281 1807.2344,870.1094 Q1806.625,869.8906 1806,869.8906 Q1805.2344,869.8906 1804.5938,870.2188 Q1803.9688,870.5469 1803.4688,871.2969 Q1802.9844,872.0469 1802.9844,873.0781 L1802.9844,874.1719 Q1802.9844,875.4063 1803.875,876.2344 Q1804.7656,877.0469 1806.3594,877.0469 Q1807.2969,877.0469 1807.9531,876.7969 Q1808.3438,876.6406 1808.7656,876.2031 Q1809.0313,875.9375 1809.1719,875.8594 Q1809.3281,875.7813 1809.5313,875.7813 Q1809.8594,875.7813 1810.1094,876.0469 Q1810.375,876.2969 1810.375,876.6406 Q1810.375,876.9844 1810.0313,877.3906 Q1809.5313,877.9688 1808.7344,878.2969 Q1807.6563,878.75 1806.3594,878.75 Q1804.8438,878.75 1803.6406,878.125 Q1802.6563,877.625 1801.9688,876.5625 Q1801.2813,875.4844 1801.2813,874.2031 L1801.2813,873.0469 Q1801.2813,871.7188 1801.8906,870.5781 Q1802.5156,869.4219 1803.6094,868.8125 Q1804.7031,868.1875 1805.9375,868.1875 Q1806.6719,868.1875 1807.3125,868.3594 Q1807.9688,868.5156 1808.5156,868.875 Z " fill="#000000"/><text fill="#000000" font-family="sans-serif" font-size="14" lengthAdjust="spacing" textLength="163" x="1826.25" y="878.7969">AnnouncementRepository</text><line style="stroke:#181818;stroke-width:0.5;" x1="1304.5" x2="2478.5" y1="889" y2="889"/><line style="stroke:#181818;stroke-width:0.5;" x1="1304.5" x2="2478.5" y1="897" y2="897"/><text fill="#000000" font-family="sans-serif" font-size="14" lengthAdjust="spacing" textLength="1164" x="1309.5" y="916.1074">+addProperty(propertyType, agent, areaOfProperty, distanceFromCentre, acceptanceDate, requestDate, street, city, district, state, zipCode, photoURI, transactionType, monetaryValue)</text></g><!--class ImportLegacyFileController--><g id="elem_ImportLegacyFileController"><rect
        fill="#F1F1F1" height="66.6211" id="ImportLegacyFileController" rx="2.5" ry="2.5" style="stroke:#181818;stroke-width:0.5;" width="202" x="946.5" y="562"/><ellipse cx="961.5" cy="578" fill="#ADD1B2" rx="11" ry="11" style="stroke:#181818;stroke-width:1.0;"/><path d="M964.2656,573.875 Q964.4219,573.6563 964.6094,573.5469 Q964.7969,573.4375 965.0156,573.4375 Q965.3906,573.4375 965.625,573.7031 Q965.8594,573.9531 965.8594,574.5625 L965.8594,576.0156 Q965.8594,576.625 965.625,576.8906 Q965.3906,577.1563 965.0156,577.1563 Q964.6719,577.1563 964.4688,576.9531 Q964.2656,576.7656 964.1563,576.25 Q964.1094,575.8906 963.9219,575.7031 Q963.5938,575.3281 962.9844,575.1094 Q962.375,574.8906 961.75,574.8906 Q960.9844,574.8906 960.3438,575.2188 Q959.7188,575.5469 959.2188,576.2969 Q958.7344,577.0469 958.7344,578.0781 L958.7344,579.1719 Q958.7344,580.4063 959.625,581.2344 Q960.5156,582.0469 962.1094,582.0469 Q963.0469,582.0469 963.7031,581.7969 Q964.0938,581.6406 964.5156,581.2031 Q964.7813,580.9375 964.9219,580.8594 Q965.0781,580.7813 965.2813,580.7813 Q965.6094,580.7813 965.8594,581.0469 Q966.125,581.2969 966.125,581.6406 Q966.125,581.9844 965.7813,582.3906 Q965.2813,582.9688 964.4844,583.2969 Q963.4063,583.75 962.1094,583.75 Q960.5938,583.75 959.3906,583.125 Q958.4063,582.625 957.7188,581.5625 Q957.0313,580.4844 957.0313,579.2031 L957.0313,578.0469 Q957.0313,576.7188 957.6406,575.5781 Q958.2656,574.4219 959.3594,573.8125 Q960.4531,573.1875 961.6875,573.1875 Q962.4219,573.1875 963.0625,573.3594 Q963.7188,573.5156 964.2656,573.875 Z " fill="#000000"/><text fill="#000000" font-family="sans-serif" font-size="14" lengthAdjust="spacing" textLength="170" x="975.5" y="583.7969">ImportLegacyFileController</text><line style="stroke:#181818;stroke-width:0.5;" x1="947.5" x2="1147.5" y1="594" y2="594"/><line style="stroke:#181818;stroke-width:0.5;" x1="947.5" x2="1147.5" y1="602" y2="602"/><text fill="#000000" font-family="sans-serif" font-size="14" lengthAdjust="spacing" textLength="190" x="952.5" y="621.1074">+ImportLegacyFile(legacyFile)</text></g><!--class ImportLegacyFileUI--><g id="elem_ImportLegacyFileUI"><rect
        fill="#F1F1F1" height="85.2422" id="ImportLegacyFileUI" rx="2.5" ry="2.5" style="stroke:#181818;stroke-width:0.5;" width="157" x="969" y="137.5"/><ellipse cx="986.25" cy="153.5" fill="#ADD1B2" rx="11" ry="11" style="stroke:#181818;stroke-width:1.0;"/><path d="M989.0156,149.375 Q989.1719,149.1563 989.3594,149.0469 Q989.5469,148.9375 989.7656,148.9375 Q990.1406,148.9375 990.375,149.2031 Q990.6094,149.4531 990.6094,150.0625 L990.6094,151.5156 Q990.6094,152.125 990.375,152.3906 Q990.1406,152.6563 989.7656,152.6563 Q989.4219,152.6563 989.2188,152.4531 Q989.0156,152.2656 988.9063,151.75 Q988.8594,151.3906 988.6719,151.2031 Q988.3438,150.8281 987.7344,150.6094 Q987.125,150.3906 986.5,150.3906 Q985.7344,150.3906 985.0938,150.7188 Q984.4688,151.0469 983.9688,151.7969 Q983.4844,152.5469 983.4844,153.5781 L983.4844,154.6719 Q983.4844,155.9063 984.375,156.7344 Q985.2656,157.5469 986.8594,157.5469 Q987.7969,157.5469 988.4531,157.2969 Q988.8438,157.1406 989.2656,156.7031 Q989.5313,156.4375 989.6719,156.3594 Q989.8281,156.2813 990.0313,156.2813 Q990.3594,156.2813 990.6094,156.5469 Q990.875,156.7969 990.875,157.1406 Q990.875,157.4844 990.5313,157.8906 Q990.0313,158.4688 989.2344,158.7969 Q988.1563,159.25 986.8594,159.25 Q985.3438,159.25 984.1406,158.625 Q983.1563,158.125 982.4688,157.0625 Q981.7813,155.9844 981.7813,154.7031 L981.7813,153.5469 Q981.7813,152.2188 982.3906,151.0781 Q983.0156,149.9219 984.1094,149.3125 Q985.2031,148.6875 986.4375,148.6875 Q987.1719,148.6875 987.8125,148.8594 Q988.4688,149.0156 989.0156,149.375 Z " fill="#000000"/><text fill="#000000" font-family="sans-serif" font-size="14" lengthAdjust="spacing" textLength="120" x="1000.75" y="159.2969">ImportLegacyFileUI</text><line style="stroke:#181818;stroke-width:0.5;" x1="970" x2="1125" y1="169.5" y2="169.5"/><text fill="#000000" font-family="sans-serif" font-size="14" lengthAdjust="spacing" textLength="125" x="975" y="188.6074">-ImportLegacyFileUI</text><line style="stroke:#181818;stroke-width:1.0;" x1="970" x2="1125" y1="196.1211" y2="196.1211"/><text fill="#000000" font-family="sans-serif" font-size="14" lengthAdjust="spacing" textLength="145" x="975" y="215.2285">+readFileCSV(filePath)</text></g><!--reverse link Person to Employee--><g id="link_Person_Employee"><path
        d="M473.18,595.5 C551.24,595.5 629.3,595.5 707.36,595.5 " fill="none" id="Person-backto-Employee" style="stroke:#181818;stroke-width:1.0;"/><polygon fill="none" points="472.8,602.5,452.8,595.5,472.8,588.5,472.8,602.5" style="stroke:#181818;stroke-width:1.0;"/></g><!--reverse link Person to Role--><g id="link_Person_Role"><path
        d="M224.91,771.4 C188.95,855.72 147.37,953.2 118.09,1021.85 " fill="none" id="Person-backto-Role" style="stroke:#181818;stroke-width:1.0;stroke-dasharray:7.0,7.0;"/><polygon fill="#181818" points="230.06,759.33,224.0267,763.2796,225.3521,770.3679,231.3853,766.4183,230.06,759.33" style="stroke:#181818;stroke-width:1.0;"/><text fill="#000000" font-family="sans-serif" font-size="13" lengthAdjust="spacing" textLength="21" x="204.5" y="896.0283">role</text></g><!--link Address to Person--><g id="link_Address_Person"><path
        d="M299.5,353.07 C299.5,374.75 299.5,396.95 299.5,418.68 " fill="none" id="Address-to-Person" style="stroke:#181818;stroke-width:1.0;stroke-dasharray:7.0,7.0;"/><polygon fill="#181818" points="299.5,431.78,303.5,425.78,299.5,419.78,295.5,425.78,299.5,431.78" style="stroke:#181818;stroke-width:1.0;"/><text fill="#000000" font-family="sans-serif" font-size="13" lengthAdjust="spacing" textLength="46" x="300.5" y="398.0283">address</text></g><!--reverse link Person to PassportCard--><g id="link_Person_PassportCard"><path
        d="M299.5,772.5 C299.5,868.82 299.5,982.04 299.5,1049.8 " fill="none" id="Person-backto-PassportCard" style="stroke:#181818;stroke-width:1.0;stroke-dasharray:7.0,7.0;"/><polygon fill="#181818" points="299.5,759.33,295.5,765.33,299.5,771.33,303.5,765.33,299.5,759.33" style="stroke:#181818;stroke-width:1.0;"/><text fill="#000000" font-family="sans-serif" font-size="13" lengthAdjust="spacing" textLength="95" x="300.5" y="896.0283">passportNumber</text></g><!--link ImportLegacyFileUI to ImportLegacyFileController--><g id="link_ImportLegacyFileUI_ImportLegacyFileController"><path
        d="M1047.5,222.54 C1047.5,302.94 1047.5,478.73 1047.5,556.35 " fill="none" id="ImportLegacyFileUI-to-ImportLegacyFileController" style="stroke:#181818;stroke-width:1.0;stroke-dasharray:7.0,7.0;"/><polygon fill="#181818" points="1047.5,561.77,1051.5,552.77,1047.5,556.77,1043.5,552.77,1047.5,561.77" style="stroke:#181818;stroke-width:1.0;"/></g><!--link ImportLegacyFileController to Repositories--><g id="link_ImportLegacyFileController_Repositories"><path
        d="M1059.91,629.26 C1076.8,673.85 1107.53,754.95 1130.2,814.8 " fill="none" id="ImportLegacyFileController-to-Repositories" style="stroke:#181818;stroke-width:1.0;stroke-dasharray:7.0,7.0;"/><polygon fill="#181818" points="1132.09,819.8,1132.639,809.9665,1130.3172,815.1248,1125.1588,812.803,1132.09,819.8" style="stroke:#181818;stroke-width:1.0;"/></g><!--link Repositories to LegacyFileRepository--><g id="link_Repositories_LegacyFileRepository"><path
        d="M1158.5,961.24 C1158.5,998.07 1158.5,1041.83 1158.5,1072.32 " fill="none" id="Repositories-to-LegacyFileRepository" style="stroke:#181818;stroke-width:1.0;stroke-dasharray:7.0,7.0;"/><polygon fill="#181818" points="1158.5,1077.47,1162.5,1068.47,1158.5,1072.47,1154.5,1068.47,1158.5,1077.47" style="stroke:#181818;stroke-width:1.0;"/></g><!--reverse link OwnerRepository to Repositories--><g id="link_OwnerRepository_Repositories"><path
        d="M1018.53,890.5 C1028.51,890.5 1038.49,890.5 1048.47,890.5 " fill="none" id="OwnerRepository-backto-Repositories" style="stroke:#181818;stroke-width:1.0;stroke-dasharray:7.0,7.0;"/><polygon fill="#181818" points="1013.31,890.5,1022.31,894.5,1018.31,890.5,1022.31,886.5,1013.31,890.5" style="stroke:#181818;stroke-width:1.0;"/></g><!--link Repositories to AnnouncementRepository--><g id="link_Repositories_AnnouncementRepository"><path
        d="M1268.74,890.5 C1278.58,890.5 1288.42,890.5 1298.26,890.5 " fill="none" id="Repositories-to-AnnouncementRepository" style="stroke:#181818;stroke-width:1.0;stroke-dasharray:7.0,7.0;"/><polygon fill="#181818" points="1303.4,890.5,1294.4,886.5,1298.4,890.5,1294.4,894.5,1303.4,890.5" style="stroke:#181818;stroke-width:1.0;"/></g><!--link Employee to ImportLegacyFileController--><g id="link_Employee_ImportLegacyFileController"><path
        d="M801.71,595.5 C848.18,595.5 894.66,595.5 941.13,595.5 " fill="none" id="Employee-to-ImportLegacyFileController" style="stroke:#181818;stroke-width:1.0;stroke-dasharray:7.0,7.0;"/><polygon fill="#181818" points="946.21,595.5,937.21,591.5,941.21,595.5,937.21,599.5,946.21,595.5" style="stroke:#181818;stroke-width:1.0;"/></g><!--SRC=[ZLPBJzmm4BxdL_ZMj6HHpwYgX7P1Mgc25GiSgbwCC-krS6pNTaH3s__UoSE97SAg79Puvfjl7faPvuDx5ifGIojIQQNPqUeAYBSrP9F6KFPCEUnz8u5OO9ugBcE0Ez9IlmZ5oO5A5skaKE0R0yHesRI79PssNcUHWadgtANtLZpL7hPCgxru1V8vopv8E7ZYDR627pqfHHkDq2hBEXjoLHcf6m3oEyl-1k6Tbgs0uDzgZwGOfYYJOmcEMM4wfaw-wlwTjPQvA8iOyB5NEV3RpVYucH6SyKdDK_KOrcLPMd0k3Snv2-0J4HE-IQCLY1BCpmofXqJoAinQbv0aDFZCUpT5nrsCX4NFKWJJATLzXyydmHeDe-DcOCXZ4wIApjzxpY3XSrAUalAtf7n6ocFIiQmx_37OKMjgow6sM-M1WyK-xbKtTVK4DYbCR9MdkCdRBf57kRrHJD60TLgbxrZHAdrJK54XXrUJHkpfhpZOKGmIp54hMCgayvYtJefPnaNmr3egVgYH7Hj1uudv-vIu83HWBOu27Zaerao9tw2Ng0vNKIAH-3xuYMMff-YTnfnycPClSF8bpca7WD5EU6q5kB0B4k504wf8sW5ME0wAOJ3a8i5Ea6_0AMkkXGGt0iOMRW6tBmhiikfIALqZVGNAfzPZr1Fzf1-YFwDbEQdp0_xig3z6nZFNaLsdUQT3efw8s_Az3edynVaikjrPRS3YY9lXuHwNVzzJk7ge1Nfx29X-ARNLlyORQOq8sq8P0zD9DzsUil2p1kVxm__jDCpugBr-kDjYhfOgHxiBf0y5hq3mr3QFLDOGfRQjsX9DvLvZBN0W98xYaDuSaSlnyGJFmpRqubjDqevOcx9pl7zCNtK_xUJBdrL_8uOBC2W-dQzM_GLuGTeHZkIr2LSGwkYmVMApU2SYPBOz5t9PuKU0ElzwebpPYKe6wsJIahaDYAMnc27RxmH4pcPW1kfAXgZbpit6ZucJAVq3]--></g></svg>