<?xml version="1.0" encoding="us-ascii" standalone="no"?><svg xmlns="http://www.w3.org/2000/svg" xmlns:xlink="http://www.w3.org/1999/xlink" contentStyleType="text/css" height="1072px" preserveAspectRatio="none" style="width:1587px;height:1072px;background:#FFFFFF;" version="1.1" viewBox="0 0 1587 1072" width="1587px" zoomAndPan="magnify"><defs/><g><text fill="#000000" font-family="sans-serif" font-size="14" font-weight="bold" lengthAdjust="spacing" textLength="192" x="699.25" y="30.1074">UI Sequence Diagram (SSD)</text><rect fill="#FFFFFF" height="837.6934" style="stroke:#181818;stroke-width:1.0;" width="10" x="36.5" y="133.2422"/><rect fill="#FFFFFF" height="57.582" style="stroke:#181818;stroke-width:1.0;" width="10" x="322.5" y="156.5332"/><rect fill="#FFFFFF" height="156.4551" style="stroke:#181818;stroke-width:1.0;" width="10" x="322.5" y="245.4063"/><rect fill="#FFFFFF" height="468.2012" style="stroke:#181818;stroke-width:1.0;" width="10" x="322.5" y="433.1523"/><rect fill="#FFFFFF" height="38.291" style="stroke:#181818;stroke-width:1.0;" width="10" x="322.5" y="932.6445"/><rect fill="#FFFFFF" height="93.873" style="stroke:#181818;stroke-width:1.0;" width="10" x="774.5" y="276.6973"/><rect fill="#FFFFFF" height="405.6191" style="stroke:#181818;stroke-width:1.0;" width="10" x="774.5" y="464.4434"/><rect fill="#FFFFFF" height="31.291" style="stroke:#181818;stroke-width:1.0;" width="10" x="1058" y="307.9883"/><rect fill="#FFFFFF" height="30" style="stroke:#181818;stroke-width:1.0;" width="10" x="1058" y="553.3164"/><rect fill="#FFFFFF" height="30" style="stroke:#181818;stroke-width:1.0;" width="10" x="1058" y="614.6074"/><rect fill="#FFFFFF" height="61.291" style="stroke:#181818;stroke-width:1.0;" width="10" x="1058" y="770.4805"/><rect fill="#FFFFFF" height="183.873" style="stroke:#181818;stroke-width:1.0;" width="10" x="1333" y="522.0254"/><rect fill="#FFFFFF" height="92.582" style="stroke:#181818;stroke-width:1.0;" width="10" x="1333" y="739.1895"/><rect fill="#FFFFFF" height="30" style="stroke:#181818;stroke-width:1.0;" width="10" x="1514" y="675.8984"/><rect fill="#FFFFFF" height="30" style="stroke:#181818;stroke-width:1.0;" width="10" x="1514" y="801.7715"/><rect fill="none" height="769.1113" style="stroke:#000000;stroke-width:1.5;" width="1571.5" x="10" y="171.5332"/><rect fill="none" height="360.3281" style="stroke:#000000;stroke-width:1.5;" width="911.5" x="660" y="479.4434"/><line style="stroke:#181818;stroke-width:0.5;stroke-dasharray:5.0,5.0;" x1="41" x2="41" y1="123.2422" y2="988.9355"/><line style="stroke:#181818;stroke-width:0.5;stroke-dasharray:5.0,5.0;" x1="327" x2="327" y1="123.2422" y2="988.9355"/><line style="stroke:#181818;stroke-width:0.5;stroke-dasharray:5.0,5.0;" x1="779" x2="779" y1="123.2422" y2="988.9355"/><line style="stroke:#181818;stroke-width:0.5;stroke-dasharray:5.0,5.0;" x1="1063" x2="1063" y1="123.2422" y2="988.9355"/><line style="stroke:#181818;stroke-width:0.5;stroke-dasharray:5.0,5.0;" x1="1337.5" x2="1337.5" y1="123.2422" y2="988.9355"/><line style="stroke:#181818;stroke-width:0.5;stroke-dasharray:5.0,5.0;" x1="1518.5" x2="1518.5" y1="123.2422" y2="988.9355"/><text fill="#000000" font-family="sans-serif" font-size="14" lengthAdjust="spacing" textLength="37" x="20" y="119.7285">Agent</text><ellipse cx="41.5" cy="53.1211" fill="#E3E3E3" rx="8" ry="8" style="stroke:#181818;stroke-width:0.5;"/><path d="M41.5,61.1211 L41.5,88.1211 M28.5,69.1211 L54.5,69.1211 M41.5,88.1211 L28.5,103.1211 M41.5,88.1211 L54.5,103.1211 " fill="none" style="stroke:#181818;stroke-width:0.5;"/><text fill="#000000" font-family="sans-serif" font-size="14" lengthAdjust="spacing" textLength="37" x="20" y="1003.043">Agent</text><ellipse cx="41.5" cy="1015.0566" fill="#E3E3E3" rx="8" ry="8" style="stroke:#181818;stroke-width:0.5;"/><path d="M41.5,1023.0566 L41.5,1050.0566 M28.5,1031.0566 L54.5,1031.0566 M41.5,1050.0566 L28.5,1065.0566 M41.5,1050.0566 L54.5,1065.0566 " fill="none" style="stroke:#181818;stroke-width:0.5;"/><rect fill="#E3E3E3" height="32.6211" rx="2.5" ry="2.5" style="stroke:#181818;stroke-width:0.5;" width="169" x="243" y="89.6211"/><text fill="#000000" font-family="sans-serif" font-size="14" lengthAdjust="spacing" textLength="155" x="250" y="111.7285">:ApproveVisitRequestsUI</text><rect fill="#E3E3E3" height="32.6211" rx="2.5" ry="2.5" style="stroke:#181818;stroke-width:0.5;" width="169" x="243" y="987.9355"/><text fill="#000000" font-family="sans-serif" font-size="14" lengthAdjust="spacing" textLength="155" x="250" y="1010.043">:ApproveVisitRequestsUI</text><rect fill="#E3E3E3" height="32.6211" rx="2.5" ry="2.5" style="stroke:#181818;stroke-width:0.5;" width="219" x="670" y="89.6211"/><text fill="#000000" font-family="sans-serif" font-size="14" lengthAdjust="spacing" textLength="205" x="677" y="111.7285">:ApproveVisitRequestsController</text><rect fill="#E3E3E3" height="32.6211" rx="2.5" ry="2.5" style="stroke:#181818;stroke-width:0.5;" width="219" x="670" y="987.9355"/><text fill="#000000" font-family="sans-serif" font-size="14" lengthAdjust="spacing" textLength="205" x="677" y="1010.043">:ApproveVisitRequestsController</text><rect fill="#E3E3E3" height="32.6211" rx="2.5" ry="2.5" style="stroke:#181818;stroke-width:0.5;" width="328" x="899" y="89.6211"/><text fill="#000000" font-family="sans-serif" font-size="14" lengthAdjust="spacing" textLength="314" x="906" y="111.7285">visitRequestsRepository: VisitRequestsRepository</text><rect fill="#E3E3E3" height="32.6211" rx="2.5" ry="2.5" style="stroke:#181818;stroke-width:0.5;" width="328" x="899" y="987.9355"/><text fill="#000000" font-family="sans-serif" font-size="14" lengthAdjust="spacing" textLength="314" x="906" y="1010.043">visitRequestsRepository: VisitRequestsRepository</text><rect fill="#E3E3E3" height="32.6211" rx="2.5" ry="2.5" style="stroke:#181818;stroke-width:0.5;" width="135" x="1270.5" y="89.6211"/><text fill="#000000" font-family="sans-serif" font-size="14" lengthAdjust="spacing" textLength="121" x="1277.5" y="111.7285">:JudgeVisitRequest</text><rect fill="#E3E3E3" height="32.6211" rx="2.5" ry="2.5" style="stroke:#181818;stroke-width:0.5;" width="135" x="1270.5" y="987.9355"/><text fill="#000000" font-family="sans-serif" font-size="14" lengthAdjust="spacing" textLength="121" x="1277.5" y="1010.043">:JudgeVisitRequest</text><rect fill="#E3E3E3" height="51.2422" rx="2.5" ry="2.5" style="stroke:#181818;stroke-width:0.5;" width="85" x="1476.5" y="71"/><text fill="#000000" font-family="sans-serif" font-size="14" lengthAdjust="spacing" textLength="65" x="1486.5" y="93.1074">sendEmail</text><text fill="#000000" font-family="sans-serif" font-size="14" lengthAdjust="spacing" textLength="71" x="1483.5" y="111.7285">:SendEmail</text><rect fill="#E3E3E3" height="51.2422" rx="2.5" ry="2.5" style="stroke:#181818;stroke-width:0.5;" width="85" x="1476.5" y="987.9355"/><text fill="#000000" font-family="sans-serif" font-size="14" lengthAdjust="spacing" textLength="65" x="1486.5" y="1010.043">sendEmail</text><text fill="#000000" font-family="sans-serif" font-size="14" lengthAdjust="spacing" textLength="71" x="1483.5" y="1028.6641">:SendEmail</text><rect fill="#FFFFFF" height="837.6934" style="stroke:#181818;stroke-width:1.0;" width="10" x="36.5" y="133.2422"/><rect fill="#FFFFFF" height="57.582" style="stroke:#181818;stroke-width:1.0;" width="10" x="322.5" y="156.5332"/><rect fill="#FFFFFF" height="156.4551" style="stroke:#181818;stroke-width:1.0;" width="10" x="322.5" y="245.4063"/><rect fill="#FFFFFF" height="468.2012" style="stroke:#181818;stroke-width:1.0;" width="10" x="322.5" y="433.1523"/><rect fill="#FFFFFF" height="38.291" style="stroke:#181818;stroke-width:1.0;" width="10" x="322.5" y="932.6445"/><rect fill="#FFFFFF" height="93.873" style="stroke:#181818;stroke-width:1.0;" width="10" x="774.5" y="276.6973"/><rect fill="#FFFFFF" height="405.6191" style="stroke:#181818;stroke-width:1.0;" width="10" x="774.5" y="464.4434"/><rect fill="#FFFFFF" height="31.291" style="stroke:#181818;stroke-width:1.0;" width="10" x="1058" y="307.9883"/><rect fill="#FFFFFF" height="30" style="stroke:#181818;stroke-width:1.0;" width="10" x="1058" y="553.3164"/><rect fill="#FFFFFF" height="30" style="stroke:#181818;stroke-width:1.0;" width="10" x="1058" y="614.6074"/><rect fill="#FFFFFF" height="61.291" style="stroke:#181818;stroke-width:1.0;" width="10" x="1058" y="770.4805"/><rect fill="#FFFFFF" height="183.873" style="stroke:#181818;stroke-width:1.0;" width="10" x="1333" y="522.0254"/><rect fill="#FFFFFF" height="92.582" style="stroke:#181818;stroke-width:1.0;" width="10" x="1333" y="739.1895"/><rect fill="#FFFFFF" height="30" style="stroke:#181818;stroke-width:1.0;" width="10" x="1514" y="675.8984"/><rect fill="#FFFFFF" height="30" style="stroke:#181818;stroke-width:1.0;" width="10" x="1514" y="801.7715"/><polygon fill="#181818" points="310.5,152.5332,320.5,156.5332,310.5,160.5332,314.5,156.5332" style="stroke:#181818;stroke-width:1.0;"/><line style="stroke:#181818;stroke-width:1.0;" x1="46.5" x2="316.5" y1="156.5332" y2="156.5332"/><text fill="#000000" font-family="sans-serif" font-size="13" font-weight="bold" lengthAdjust="spacing" textLength="7" x="53.5" y="151.2705">1</text><text fill="#000000" font-family="sans-serif" font-size="13" lengthAdjust="spacing" textLength="158" x="64.5" y="151.2705">asks to judge visit requests</text><path d="M10,171.5332 L83,171.5332 L83,180.8242 L73,190.8242 L10,190.8242 L10,171.5332 " fill="#EEEEEE" style="stroke:#000000;stroke-width:1.5;"/><rect fill="none" height="769.1113" style="stroke:#000000;stroke-width:1.5;" width="1571.5" x="10" y="171.5332"/><text fill="#000000" font-family="sans-serif" font-size="13" font-weight="bold" lengthAdjust="spacing" textLength="28" x="25" y="186.5615">loop</text><text fill="#000000" font-family="sans-serif" font-size="11" font-weight="bold" lengthAdjust="spacing" textLength="119" x="98" y="185.4033">[while (again == true)]</text><polygon fill="#181818" points="57.5,210.1152,47.5,214.1152,57.5,218.1152,53.5,214.1152" style="stroke:#181818;stroke-width:1.0;"/><line style="stroke:#181818;stroke-width:1.0;stroke-dasharray:2.0,2.0;" x1="51.5" x2="326.5" y1="214.1152" y2="214.1152"/><text fill="#000000" font-family="sans-serif" font-size="13" font-weight="bold" lengthAdjust="spacing" textLength="7" x="63.5" y="208.8525">2</text><text fill="#000000" font-family="sans-serif" font-size="13" lengthAdjust="spacing" textLength="166" x="74.5" y="208.8525">asks to select a visit request</text><polygon fill="#181818" points="310.5,241.4063,320.5,245.4063,310.5,249.4063,314.5,245.4063" style="stroke:#181818;stroke-width:1.0;"/><line style="stroke:#181818;stroke-width:1.0;" x1="46.5" x2="316.5" y1="245.4063" y2="245.4063"/><text fill="#000000" font-family="sans-serif" font-size="13" font-weight="bold" lengthAdjust="spacing" textLength="7" x="53.5" y="240.1436">3</text><text fill="#000000" font-family="sans-serif" font-size="13" lengthAdjust="spacing" textLength="132" x="64.5" y="240.1436">selects requested data</text><polygon fill="#181818" points="762.5,272.6973,772.5,276.6973,762.5,280.6973,766.5,276.6973" style="stroke:#181818;stroke-width:1.0;"/><line style="stroke:#181818;stroke-width:1.0;" x1="332.5" x2="768.5" y1="276.6973" y2="276.6973"/><text fill="#000000" font-family="sans-serif" font-size="13" font-weight="bold" lengthAdjust="spacing" textLength="7" x="339.5" y="271.4346">4</text><text fill="#000000" font-family="sans-serif" font-size="13" lengthAdjust="spacing" textLength="222" x="350.5" y="271.4346">getVisitRequestedByID(String valueOf)</text><polygon fill="#181818" points="1046,303.9883,1056,307.9883,1046,311.9883,1050,307.9883" style="stroke:#181818;stroke-width:1.0;"/><line style="stroke:#181818;stroke-width:1.0;" x1="784.5" x2="1052" y1="307.9883" y2="307.9883"/><text fill="#000000" font-family="sans-serif" font-size="13" font-weight="bold" lengthAdjust="spacing" textLength="7" x="791.5" y="302.7256">5</text><text fill="#000000" font-family="sans-serif" font-size="13" lengthAdjust="spacing" textLength="224" x="802.5" y="302.7256">getVisitRequestedByID(visitRequestID)</text><polygon fill="#181818" points="795.5,335.2793,785.5,339.2793,795.5,343.2793,791.5,339.2793" style="stroke:#181818;stroke-width:1.0;"/><line style="stroke:#181818;stroke-width:1.0;stroke-dasharray:2.0,2.0;" x1="789.5" x2="1062" y1="339.2793" y2="339.2793"/><text fill="#000000" font-family="sans-serif" font-size="13" font-weight="bold" lengthAdjust="spacing" textLength="7" x="801.5" y="334.0166">6</text><text fill="#000000" font-family="sans-serif" font-size="13" lengthAdjust="spacing" textLength="70" x="812.5" y="334.0166">visitRequest</text><polygon fill="#181818" points="343.5,366.5703,333.5,370.5703,343.5,374.5703,339.5,370.5703" style="stroke:#181818;stroke-width:1.0;"/><line style="stroke:#181818;stroke-width:1.0;stroke-dasharray:2.0,2.0;" x1="337.5" x2="778.5" y1="370.5703" y2="370.5703"/><text fill="#000000" font-family="sans-serif" font-size="13" font-weight="bold" lengthAdjust="spacing" textLength="7" x="349.5" y="365.3076">7</text><text fill="#000000" font-family="sans-serif" font-size="13" lengthAdjust="spacing" textLength="70" x="360.5" y="365.3076">visitRequest</text><polygon fill="#181818" points="57.5,397.8613,47.5,401.8613,57.5,405.8613,53.5,401.8613" style="stroke:#181818;stroke-width:1.0;"/><line style="stroke:#181818;stroke-width:1.0;stroke-dasharray:2.0,2.0;" x1="51.5" x2="326.5" y1="401.8613" y2="401.8613"/><text fill="#000000" font-family="sans-serif" font-size="13" font-weight="bold" lengthAdjust="spacing" textLength="7" x="63.5" y="396.5986">8</text><text fill="#000000" font-family="sans-serif" font-size="13" lengthAdjust="spacing" textLength="241" x="74.5" y="396.5986">asks to accept or decline the visit request</text><polygon fill="#181818" points="310.5,429.1523,320.5,433.1523,310.5,437.1523,314.5,433.1523" style="stroke:#181818;stroke-width:1.0;"/><line style="stroke:#181818;stroke-width:1.0;" x1="46.5" x2="316.5" y1="433.1523" y2="433.1523"/><text fill="#000000" font-family="sans-serif" font-size="13" font-weight="bold" lengthAdjust="spacing" textLength="7" x="53.5" y="427.8896">9</text><text fill="#000000" font-family="sans-serif" font-size="13" lengthAdjust="spacing" textLength="122" x="64.5" y="427.8896">types requested data</text><polygon fill="#181818" points="762.5,460.4434,772.5,464.4434,762.5,468.4434,766.5,464.4434" style="stroke:#181818;stroke-width:1.0;"/><line style="stroke:#181818;stroke-width:1.0;" x1="332.5" x2="768.5" y1="464.4434" y2="464.4434"/><text fill="#000000" font-family="sans-serif" font-size="13" font-weight="bold" lengthAdjust="spacing" textLength="14" x="339.5" y="459.1807">10</text><text fill="#000000" font-family="sans-serif" font-size="13" lengthAdjust="spacing" textLength="405" x="357.5" y="459.1807">judgeVisitRequest(agentName, visitRequest, acceptance, justification)</text><path d="M660,479.4434 L721,479.4434 L721,488.7344 L711,498.7344 L660,498.7344 L660,479.4434 " fill="#EEEEEE" style="stroke:#000000;stroke-width:1.5;"/><rect fill="none" height="360.3281" style="stroke:#000000;stroke-width:1.5;" width="911.5" x="660" y="479.4434"/><text fill="#000000" font-family="sans-serif" font-size="13" font-weight="bold" lengthAdjust="spacing" textLength="16" x="675" y="494.4717">alt</text><text fill="#000000" font-family="sans-serif" font-size="11" font-weight="bold" lengthAdjust="spacing" textLength="88" x="736" y="493.3135">[if (acceptance)]</text><polygon fill="#181818" points="1321,518.0254,1331,522.0254,1321,526.0254,1325,522.0254" style="stroke:#181818;stroke-width:1.0;"/><line style="stroke:#181818;stroke-width:1.0;" x1="784.5" x2="1327" y1="522.0254" y2="522.0254"/><text fill="#000000" font-family="sans-serif" font-size="13" font-weight="bold" lengthAdjust="spacing" textLength="14" x="791.5" y="516.7627">11</text><text fill="#000000" font-family="sans-serif" font-size="13" lengthAdjust="spacing" textLength="4" x="809.5" y="516.7627">&#160;</text><polygon fill="#181818" points="1079,549.3164,1069,553.3164,1079,557.3164,1075,553.3164" style="stroke:#181818;stroke-width:1.0;"/><line style="stroke:#181818;stroke-width:1.0;" x1="1073" x2="1332" y1="553.3164" y2="553.3164"/><text fill="#000000" font-family="sans-serif" font-size="13" font-weight="bold" lengthAdjust="spacing" textLength="14" x="1085" y="548.0537">12</text><text fill="#000000" font-family="sans-serif" font-size="13" lengthAdjust="spacing" textLength="228" x="1103" y="548.0537">addVisitRequestAccepted(visitRequest)</text><polygon fill="#181818" points="1079,610.6074,1069,614.6074,1079,618.6074,1075,614.6074" style="stroke:#181818;stroke-width:1.0;"/><line style="stroke:#181818;stroke-width:1.0;" x1="1073" x2="1332" y1="614.6074" y2="614.6074"/><text fill="#000000" font-family="sans-serif" font-size="13" font-weight="bold" lengthAdjust="spacing" textLength="14" x="1085" y="609.3447">13</text><text fill="#000000" font-family="sans-serif" font-size="13" lengthAdjust="spacing" textLength="193" x="1103" y="609.3447">removeVisitRequest(visitRequest)</text><polygon fill="#181818" points="1502,671.8984,1512,675.8984,1502,679.8984,1506,675.8984" style="stroke:#181818;stroke-width:1.0;"/><line style="stroke:#181818;stroke-width:1.0;" x1="1343" x2="1508" y1="675.8984" y2="675.8984"/><text fill="#000000" font-family="sans-serif" font-size="13" font-weight="bold" lengthAdjust="spacing" textLength="14" x="1350" y="670.6357">14</text><text fill="#000000" font-family="sans-serif" font-size="13" lengthAdjust="spacing" textLength="134" x="1368" y="670.6357">sendEmail(justification)</text><line style="stroke:#000000;stroke-width:1.0;stroke-dasharray:2.0,2.0;" x1="660" x2="1571.5" y1="714.8984" y2="714.8984"/><polygon fill="#181818" points="1321,735.1895,1331,739.1895,1321,743.1895,1325,739.1895" style="stroke:#181818;stroke-width:1.0;"/><line style="stroke:#181818;stroke-width:1.0;" x1="784.5" x2="1327" y1="739.1895" y2="739.1895"/><text fill="#000000" font-family="sans-serif" font-size="13" font-weight="bold" lengthAdjust="spacing" textLength="14" x="791.5" y="733.9268">15</text><text fill="#000000" font-family="sans-serif" font-size="13" lengthAdjust="spacing" textLength="4" x="809.5" y="733.9268">&#160;</text><polygon fill="#181818" points="1079,766.4805,1069,770.4805,1079,774.4805,1075,770.4805" style="stroke:#181818;stroke-width:1.0;"/><line style="stroke:#181818;stroke-width:1.0;" x1="1073" x2="1332" y1="770.4805" y2="770.4805"/><text fill="#000000" font-family="sans-serif" font-size="13" font-weight="bold" lengthAdjust="spacing" textLength="14" x="1085" y="765.2178">16</text><text fill="#000000" font-family="sans-serif" font-size="13" lengthAdjust="spacing" textLength="193" x="1103" y="765.2178">removeVisitRequest(visitRequest)</text><polygon fill="#181818" points="1502,797.7715,1512,801.7715,1502,805.7715,1506,801.7715" style="stroke:#181818;stroke-width:1.0;"/><line style="stroke:#181818;stroke-width:1.0;" x1="1343" x2="1508" y1="801.7715" y2="801.7715"/><text fill="#000000" font-family="sans-serif" font-size="13" font-weight="bold" lengthAdjust="spacing" textLength="14" x="1350" y="796.5088">17</text><text fill="#000000" font-family="sans-serif" font-size="13" lengthAdjust="spacing" textLength="134" x="1368" y="796.5088">sendEmail(justification)</text><polygon fill="#181818" points="343.5,866.0625,333.5,870.0625,343.5,874.0625,339.5,870.0625" style="stroke:#181818;stroke-width:1.0;"/><line style="stroke:#181818;stroke-width:1.0;stroke-dasharray:2.0,2.0;" x1="337.5" x2="778.5" y1="870.0625" y2="870.0625"/><text fill="#000000" font-family="sans-serif" font-size="13" font-weight="bold" lengthAdjust="spacing" textLength="14" x="349.5" y="864.7998">18</text><text fill="#000000" font-family="sans-serif" font-size="13" lengthAdjust="spacing" textLength="4" x="367.5" y="864.7998">&#160;</text><polygon fill="#181818" points="57.5,897.3535,47.5,901.3535,57.5,905.3535,53.5,901.3535" style="stroke:#181818;stroke-width:1.0;"/><line style="stroke:#181818;stroke-width:1.0;stroke-dasharray:2.0,2.0;" x1="51.5" x2="326.5" y1="901.3535" y2="901.3535"/><text fill="#000000" font-family="sans-serif" font-size="13" font-weight="bold" lengthAdjust="spacing" textLength="14" x="63.5" y="896.0908">19</text><text fill="#000000" font-family="sans-serif" font-size="13" lengthAdjust="spacing" textLength="89" x="81.5" y="896.0908">asks to confirm</text><polygon fill="#181818" points="310.5,928.6445,320.5,932.6445,310.5,936.6445,314.5,932.6445" style="stroke:#181818;stroke-width:1.0;"/><line style="stroke:#181818;stroke-width:1.0;" x1="46.5" x2="316.5" y1="932.6445" y2="932.6445"/><text fill="#000000" font-family="sans-serif" font-size="13" font-weight="bold" lengthAdjust="spacing" textLength="14" x="53.5" y="927.3818">20</text><text fill="#000000" font-family="sans-serif" font-size="13" lengthAdjust="spacing" textLength="75" x="71.5" y="927.3818">submits data</text><polygon fill="#181818" points="52.5,966.9355,42.5,970.9355,52.5,974.9355,48.5,970.9355" style="stroke:#181818;stroke-width:1.0;"/><line style="stroke:#181818;stroke-width:1.0;stroke-dasharray:2.0,2.0;" x1="46.5" x2="326.5" y1="970.9355" y2="970.9355"/><text fill="#000000" font-family="sans-serif" font-size="13" font-weight="bold" lengthAdjust="spacing" textLength="14" x="58.5" y="965.6729">21</text><text fill="#000000" font-family="sans-serif" font-size="13" lengthAdjust="spacing" textLength="158" x="76.5" y="965.6729">displays operation success</text><!--SRC=[jLPjRzem4FxkNt7Y4qZm1v1QgIjeIbMLYPHAaoPDRd84jucTsGuL_tuN0vaJaZQKpbzmyDrpRy_vR5w5pBdc6MHAgcYZLOPWTO7CL2SvZrvvWg7TfGWQ8yjbale2PiDZzIPa0ckU6cJC2akYgm12_5EWZ11cWYUbw30CPoF6U66LBB9drBIFhD8mk4bGsW5m0sx72DgAIEHSMXXCR_9Sgoq-2IFiiWGrrgm29xuAUiZUAccrIbFKJkTsyV2uNDpVpvTrtQsliyHSqQVIkoayjHyuiASW31v_B-S_5lIxMFvik7DNn4dD6QTqjvfzdzSb3Sfudd6H_fBJyBXtmk7yOSPSfiIMMpnaY04jjuN9TPdjASc-6h0ANagRuAAXYkszTk8L16MDfKhbyBOHLAiXJxYGS7NbYZ_QOnFaX93t9lw16qo91C3h-4wZN37MZ9mwkTStHqMC8UQMdxft12pTkFPAHX09MZ-Z67_R1RDXQ7L9mYrF2roiHnL0XUgLlJeibuTDbfhrxBJdioMOZMgGbSqJTjJ4JcnDcg7wHcggNfwxRVYH7VFVYkYXDRFKGGCUHPXReDwDCKg5f7jZWv_bXDtbU14ZNffTHemc0myymt4jul71SKxNqfZKZ1Lh4N4hbEpF69vQ46lgcWggLlqwdrohmvIriMD_3K3FjKTgfoYFOp_y6-SPnZMIZdfRwgPMNuJtwDaNWtr1NZHcZM7mkPHS7CrN9EIZ-Cj1uMxOm_GOTl3xawiAm0sa2y6yV9m3nzeXJXe9ovT8EqHhUtQHhM61dStL_qBEywbqCKVwLQjlLTyhtSLjmpxwas9_VqPUC1SZ9TT2PsUyXuhdJD1xg7tcaQjGFjHQRSR2v2dV6L0vQbS_GgERtvWkyzwd0_aB]--></g></svg>