<?xml version="1.0" encoding="us-ascii" standalone="no"?><svg xmlns="http://www.w3.org/2000/svg" xmlns:xlink="http://www.w3.org/1999/xlink" contentStyleType="text/css" height="1192px" preserveAspectRatio="none" style="width:2306px;height:1192px;background:#FFFFFF;" version="1.1" viewBox="0 0 2306 1192" width="2306px" zoomAndPan="magnify"><defs/><g><!--class Employee--><g id="elem_Employee"><rect codeLine="11" fill="#F1F1F1" height="48" id="Employee" rx="2.5" ry="2.5" style="stroke:#181818;stroke-width:0.5;" width="94" x="826" y="609.5"/><ellipse cx="841" cy="625.5" fill="#ADD1B2" rx="11" ry="11" style="stroke:#181818;stroke-width:1.0;"/><path d="M843.7656,621.375 Q843.9219,621.1563 844.1094,621.0469 Q844.2969,620.9375 844.5156,620.9375 Q844.8906,620.9375 845.125,621.2031 Q845.3594,621.4531 845.3594,622.0625 L845.3594,623.5156 Q845.3594,624.125 845.125,624.3906 Q844.8906,624.6563 844.5156,624.6563 Q844.1719,624.6563 843.9688,624.4531 Q843.7656,624.2656 843.6563,623.75 Q843.6094,623.3906 843.4219,623.2031 Q843.0938,622.8281 842.4844,622.6094 Q841.875,622.3906 841.25,622.3906 Q840.4844,622.3906 839.8438,622.7188 Q839.2188,623.0469 838.7188,623.7969 Q838.2344,624.5469 838.2344,625.5781 L838.2344,626.6719 Q838.2344,627.9063 839.125,628.7344 Q840.0156,629.5469 841.6094,629.5469 Q842.5469,629.5469 843.2031,629.2969 Q843.5938,629.1406 844.0156,628.7031 Q844.2813,628.4375 844.4219,628.3594 Q844.5781,628.2813 844.7813,628.2813 Q845.1094,628.2813 845.3594,628.5469 Q845.625,628.7969 845.625,629.1406 Q845.625,629.4844 845.2813,629.8906 Q844.7813,630.4688 843.9844,630.7969 Q842.9063,631.25 841.6094,631.25 Q840.0938,631.25 838.8906,630.625 Q837.9063,630.125 837.2188,629.0625 Q836.5313,627.9844 836.5313,626.7031 L836.5313,625.5469 Q836.5313,624.2188 837.1406,623.0781 Q837.7656,621.9219 838.8594,621.3125 Q839.9531,620.6875 841.1875,620.6875 Q841.9219,620.6875 842.5625,620.8594 Q843.2188,621.0156 843.7656,621.375 Z " fill="#000000"/><text fill="#000000" font-family="sans-serif" font-size="14" lengthAdjust="spacing" textLength="62" x="855" y="631.2969">Employee</text><line style="stroke:#181818;stroke-width:0.5;" x1="827" x2="919" y1="641.5" y2="641.5"/><line style="stroke:#181818;stroke-width:0.5;" x1="827" x2="919" y1="649.5" y2="649.5"/></g><!--class Role--><g id="elem_Role"><rect codeLine="15" fill="#F1F1F1" height="178.3477" id="Role" rx="2.5" ry="2.5" style="stroke:#181818;stroke-width:0.5;" width="147" x="244.5" y="951"/><ellipse cx="299.25" cy="967" fill="#ADD1B2" rx="11" ry="11" style="stroke:#181818;stroke-width:1.0;"/><path d="M302.0156,962.875 Q302.1719,962.6563 302.3594,962.5469 Q302.5469,962.4375 302.7656,962.4375 Q303.1406,962.4375 303.375,962.7031 Q303.6094,962.9531 303.6094,963.5625 L303.6094,965.0156 Q303.6094,965.625 303.375,965.8906 Q303.1406,966.1563 302.7656,966.1563 Q302.4219,966.1563 302.2188,965.9531 Q302.0156,965.7656 301.9063,965.25 Q301.8594,964.8906 301.6719,964.7031 Q301.3438,964.3281 300.7344,964.1094 Q300.125,963.8906 299.5,963.8906 Q298.7344,963.8906 298.0938,964.2188 Q297.4688,964.5469 296.9688,965.2969 Q296.4844,966.0469 296.4844,967.0781 L296.4844,968.1719 Q296.4844,969.4063 297.375,970.2344 Q298.2656,971.0469 299.8594,971.0469 Q300.7969,971.0469 301.4531,970.7969 Q301.8438,970.6406 302.2656,970.2031 Q302.5313,969.9375 302.6719,969.8594 Q302.8281,969.7813 303.0313,969.7813 Q303.3594,969.7813 303.6094,970.0469 Q303.875,970.2969 303.875,970.6406 Q303.875,970.9844 303.5313,971.3906 Q303.0313,971.9688 302.2344,972.2969 Q301.1563,972.75 299.8594,972.75 Q298.3438,972.75 297.1406,972.125 Q296.1563,971.625 295.4688,970.5625 Q294.7813,969.4844 294.7813,968.2031 L294.7813,967.0469 Q294.7813,965.7188 295.3906,964.5781 Q296.0156,963.4219 297.1094,962.8125 Q298.2031,962.1875 299.4375,962.1875 Q300.1719,962.1875 300.8125,962.3594 Q301.4688,962.5156 302.0156,962.875 Z " fill="#000000"/><text fill="#000000" font-family="sans-serif" font-size="14" lengthAdjust="spacing" textLength="29" x="319.75" y="972.7969">Role</text><line style="stroke:#181818;stroke-width:0.5;" x1="245.5" x2="390.5" y1="983" y2="983"/><text fill="#000000" font-family="sans-serif" font-size="14" lengthAdjust="spacing" textLength="57" x="250.5" y="1002.1074">-String id</text><text fill="#000000" font-family="sans-serif" font-size="14" lengthAdjust="spacing" textLength="115" x="250.5" y="1020.7285">-String description</text><line style="stroke:#181818;stroke-width:1.0;" x1="245.5" x2="390.5" y1="1028.2422" y2="1028.2422"/><text fill="#000000" font-family="sans-serif" font-size="14" lengthAdjust="spacing" textLength="135" x="250.5" y="1047.3496">+Role(id, description)</text><text fill="#000000" font-family="sans-serif" font-size="14" lengthAdjust="spacing" textLength="40" x="250.5" y="1065.9707">+setID</text><text fill="#000000" font-family="sans-serif" font-size="14" lengthAdjust="spacing" textLength="98" x="250.5" y="1084.5918">+setDescription</text><text fill="#000000" font-family="sans-serif" font-size="14" lengthAdjust="spacing" textLength="41" x="250.5" y="1103.2129">+getID</text><text fill="#000000" font-family="sans-serif" font-size="14" lengthAdjust="spacing" textLength="99" x="250.5" y="1121.834">+getDescription</text></g><!--class Address--><g id="elem_Address"><rect codeLine="26" fill="#F1F1F1" height="345.9375" id="Address" rx="2.5" ry="2.5" style="stroke:#181818;stroke-width:0.5;" width="294" x="7" y="460.5"/><ellipse cx="123.75" cy="476.5" fill="#ADD1B2" rx="11" ry="11" style="stroke:#181818;stroke-width:1.0;"/><path d="M126.5156,472.375 Q126.6719,472.1563 126.8594,472.0469 Q127.0469,471.9375 127.2656,471.9375 Q127.6406,471.9375 127.875,472.2031 Q128.1094,472.4531 128.1094,473.0625 L128.1094,474.5156 Q128.1094,475.125 127.875,475.3906 Q127.6406,475.6563 127.2656,475.6563 Q126.9219,475.6563 126.7188,475.4531 Q126.5156,475.2656 126.4063,474.75 Q126.3594,474.3906 126.1719,474.2031 Q125.8438,473.8281 125.2344,473.6094 Q124.625,473.3906 124,473.3906 Q123.2344,473.3906 122.5938,473.7188 Q121.9688,474.0469 121.4688,474.7969 Q120.9844,475.5469 120.9844,476.5781 L120.9844,477.6719 Q120.9844,478.9063 121.875,479.7344 Q122.7656,480.5469 124.3594,480.5469 Q125.2969,480.5469 125.9531,480.2969 Q126.3438,480.1406 126.7656,479.7031 Q127.0313,479.4375 127.1719,479.3594 Q127.3281,479.2813 127.5313,479.2813 Q127.8594,479.2813 128.1094,479.5469 Q128.375,479.7969 128.375,480.1406 Q128.375,480.4844 128.0313,480.8906 Q127.5313,481.4688 126.7344,481.7969 Q125.6563,482.25 124.3594,482.25 Q122.8438,482.25 121.6406,481.625 Q120.6563,481.125 119.9688,480.0625 Q119.2813,478.9844 119.2813,477.7031 L119.2813,476.5469 Q119.2813,475.2188 119.8906,474.0781 Q120.5156,472.9219 121.6094,472.3125 Q122.7031,471.6875 123.9375,471.6875 Q124.6719,471.6875 125.3125,471.8594 Q125.9688,472.0156 126.5156,472.375 Z " fill="#000000"/><text fill="#000000" font-family="sans-serif" font-size="14" lengthAdjust="spacing" textLength="52" x="144.25" y="482.2969">Address</text><line style="stroke:#181818;stroke-width:0.5;" x1="8" x2="300" y1="492.5" y2="492.5"/><text fill="#000000" font-family="sans-serif" font-size="14" lengthAdjust="spacing" textLength="82" x="13" y="511.6074">-String street</text><text fill="#000000" font-family="sans-serif" font-size="14" lengthAdjust="spacing" textLength="67" x="13" y="530.2285">-String city</text><text fill="#000000" font-family="sans-serif" font-size="14" lengthAdjust="spacing" textLength="87" x="13" y="548.8496">-String district</text><text fill="#000000" font-family="sans-serif" font-size="14" lengthAdjust="spacing" textLength="77" x="13" y="567.4707">-String state</text><text fill="#000000" font-family="sans-serif" font-size="14" lengthAdjust="spacing" textLength="97" x="13" y="586.0918">-String zipCode</text><line style="stroke:#181818;stroke-width:1.0;" x1="8" x2="300" y1="593.6055" y2="593.6055"/><text fill="#000000" font-family="sans-serif" font-size="14" lengthAdjust="spacing" textLength="282" x="13" y="612.7129">+Address(street, city, district, state, zipCode)</text><text fill="#000000" font-family="sans-serif" font-size="14" lengthAdjust="spacing" textLength="75" x="13" y="631.334">+setStreet()</text><text fill="#000000" font-family="sans-serif" font-size="14" lengthAdjust="spacing" textLength="61" x="13" y="649.9551">+setCity()</text><text fill="#000000" font-family="sans-serif" font-size="14" lengthAdjust="spacing" textLength="80" x="13" y="668.5762">+setDistrict()</text><text fill="#000000" font-family="sans-serif" font-size="14" lengthAdjust="spacing" textLength="70" x="13" y="687.1973">+setState()</text><text fill="#000000" font-family="sans-serif" font-size="14" lengthAdjust="spacing" textLength="90" x="13" y="705.8184">+setZipCode()</text><text fill="#000000" font-family="sans-serif" font-size="14" lengthAdjust="spacing" textLength="76" x="13" y="724.4395">+getStreet()</text><text fill="#000000" font-family="sans-serif" font-size="14" lengthAdjust="spacing" textLength="62" x="13" y="743.0605">+getCity()</text><text fill="#000000" font-family="sans-serif" font-size="14" lengthAdjust="spacing" textLength="81" x="13" y="761.6816">+getDistrict()</text><text fill="#000000" font-family="sans-serif" font-size="14" lengthAdjust="spacing" textLength="71" x="13" y="780.3027">+getState()</text><text fill="#000000" font-family="sans-serif" font-size="14" lengthAdjust="spacing" textLength="91" x="13" y="798.9238">+getZipCode()</text></g><!--class PassportCard--><g id="elem_PassportCard"><rect codeLine="46" fill="#F1F1F1" height="122.4844" id="PassportCard" rx="2.5" ry="2.5" style="stroke:#181818;stroke-width:0.5;" width="221" x="426.5" y="979"/><ellipse cx="489.25" cy="995" fill="#ADD1B2" rx="11" ry="11" style="stroke:#181818;stroke-width:1.0;"/><path d="M492.0156,990.875 Q492.1719,990.6563 492.3594,990.5469 Q492.5469,990.4375 492.7656,990.4375 Q493.1406,990.4375 493.375,990.7031 Q493.6094,990.9531 493.6094,991.5625 L493.6094,993.0156 Q493.6094,993.625 493.375,993.8906 Q493.1406,994.1563 492.7656,994.1563 Q492.4219,994.1563 492.2188,993.9531 Q492.0156,993.7656 491.9063,993.25 Q491.8594,992.8906 491.6719,992.7031 Q491.3438,992.3281 490.7344,992.1094 Q490.125,991.8906 489.5,991.8906 Q488.7344,991.8906 488.0938,992.2188 Q487.4688,992.5469 486.9688,993.2969 Q486.4844,994.0469 486.4844,995.0781 L486.4844,996.1719 Q486.4844,997.4063 487.375,998.2344 Q488.2656,999.0469 489.8594,999.0469 Q490.7969,999.0469 491.4531,998.7969 Q491.8438,998.6406 492.2656,998.2031 Q492.5313,997.9375 492.6719,997.8594 Q492.8281,997.7813 493.0313,997.7813 Q493.3594,997.7813 493.6094,998.0469 Q493.875,998.2969 493.875,998.6406 Q493.875,998.9844 493.5313,999.3906 Q493.0313,999.9688 492.2344,1000.2969 Q491.1563,1000.75 489.8594,1000.75 Q488.3438,1000.75 487.1406,1000.125 Q486.1563,999.625 485.4688,998.5625 Q484.7813,997.4844 484.7813,996.2031 L484.7813,995.0469 Q484.7813,993.7188 485.3906,992.5781 Q486.0156,991.4219 487.1094,990.8125 Q488.2031,990.1875 489.4375,990.1875 Q490.1719,990.1875 490.8125,990.3594 Q491.4688,990.5156 492.0156,990.875 Z " fill="#000000"/><text fill="#000000" font-family="sans-serif" font-size="14" lengthAdjust="spacing" textLength="87" x="509.75" y="1000.7969">PassportCard</text><line style="stroke:#181818;stroke-width:0.5;" x1="427.5" x2="646.5" y1="1011" y2="1011"/><text fill="#000000" font-family="sans-serif" font-size="14" lengthAdjust="spacing" textLength="150" x="432.5" y="1030.1074">-String passportNumber</text><line style="stroke:#181818;stroke-width:1.0;" x1="427.5" x2="646.5" y1="1037.6211" y2="1037.6211"/><text fill="#000000" font-family="sans-serif" font-size="14" lengthAdjust="spacing" textLength="209" x="432.5" y="1056.7285">+PassportCard(passportNumber)</text><text fill="#000000" font-family="sans-serif" font-size="14" lengthAdjust="spacing" textLength="143" x="432.5" y="1075.3496">+getPassportNumber()</text><text fill="#000000" font-family="sans-serif" font-size="14" lengthAdjust="spacing" textLength="142" x="432.5" y="1093.9707">+setPassportNumber()</text></g><!--class Person--><g id="elem_Person"><rect codeLine="54" fill="#F1F1F1" height="327.3164" id="Person" rx="2.5" ry="2.5" style="stroke:#181818;stroke-width:0.5;" width="306" x="384" y="470"/><ellipse cx="510.25" cy="486" fill="#ADD1B2" rx="11" ry="11" style="stroke:#181818;stroke-width:1.0;"/><path d="M513.0156,481.875 Q513.1719,481.6563 513.3594,481.5469 Q513.5469,481.4375 513.7656,481.4375 Q514.1406,481.4375 514.375,481.7031 Q514.6094,481.9531 514.6094,482.5625 L514.6094,484.0156 Q514.6094,484.625 514.375,484.8906 Q514.1406,485.1563 513.7656,485.1563 Q513.4219,485.1563 513.2188,484.9531 Q513.0156,484.7656 512.9063,484.25 Q512.8594,483.8906 512.6719,483.7031 Q512.3438,483.3281 511.7344,483.1094 Q511.125,482.8906 510.5,482.8906 Q509.7344,482.8906 509.0938,483.2188 Q508.4688,483.5469 507.9688,484.2969 Q507.4844,485.0469 507.4844,486.0781 L507.4844,487.1719 Q507.4844,488.4063 508.375,489.2344 Q509.2656,490.0469 510.8594,490.0469 Q511.7969,490.0469 512.4531,489.7969 Q512.8438,489.6406 513.2656,489.2031 Q513.5313,488.9375 513.6719,488.8594 Q513.8281,488.7813 514.0313,488.7813 Q514.3594,488.7813 514.6094,489.0469 Q514.875,489.2969 514.875,489.6406 Q514.875,489.9844 514.5313,490.3906 Q514.0313,490.9688 513.2344,491.2969 Q512.1563,491.75 510.8594,491.75 Q509.3438,491.75 508.1406,491.125 Q507.1563,490.625 506.4688,489.5625 Q505.7813,488.4844 505.7813,487.2031 L505.7813,486.0469 Q505.7813,484.7188 506.3906,483.5781 Q507.0156,482.4219 508.1094,481.8125 Q509.2031,481.1875 510.4375,481.1875 Q511.1719,481.1875 511.8125,481.3594 Q512.4688,481.5156 513.0156,481.875 Z " fill="#000000"/><text fill="#000000" font-family="sans-serif" font-size="14" lengthAdjust="spacing" textLength="45" x="530.75" y="491.7969">Person</text><line style="stroke:#181818;stroke-width:0.5;" x1="385" x2="689" y1="502" y2="502"/><text fill="#000000" font-family="sans-serif" font-size="14" lengthAdjust="spacing" textLength="81" x="390" y="521.1074">-String name</text><text fill="#000000" font-family="sans-serif" font-size="14" lengthAdjust="spacing" textLength="131" x="390" y="539.7285">-String emailAddress</text><text fill="#000000" font-family="sans-serif" font-size="14" lengthAdjust="spacing" textLength="113" x="390" y="558.3496">-String taxNumber</text><text fill="#000000" font-family="sans-serif" font-size="14" lengthAdjust="spacing" textLength="158" x="390" y="576.9707">-String telephoneNumber</text><line style="stroke:#181818;stroke-width:1.0;" x1="385" x2="689" y1="584.4844" y2="584.4844"/><text fill="#000000" font-family="sans-serif" font-size="14" lengthAdjust="spacing" textLength="294" x="390" y="603.5918">+Person(name, passportNumber, emailAdress,</text><text fill="#000000" font-family="sans-serif" font-size="14" lengthAdjust="spacing" textLength="242" x="390" y="622.2129">taxNumber, contactTelephoneNumber,</text><text fill="#000000" font-family="sans-serif" font-size="14" lengthAdjust="spacing" textLength="88" x="390" y="640.834">address, role)</text><text fill="#000000" font-family="sans-serif" font-size="14" lengthAdjust="spacing" textLength="73" x="390" y="659.4551">+setName()</text><text fill="#000000" font-family="sans-serif" font-size="14" lengthAdjust="spacing" textLength="123" x="390" y="678.0762">+setEmailAddress()</text><text fill="#000000" font-family="sans-serif" font-size="14" lengthAdjust="spacing" textLength="109" x="390" y="696.6973">+setTaxNumber()</text><text fill="#000000" font-family="sans-serif" font-size="14" lengthAdjust="spacing" textLength="154" x="390" y="715.3184">+setTelephoneNumber()</text><text fill="#000000" font-family="sans-serif" font-size="14" lengthAdjust="spacing" textLength="74" x="390" y="733.9395">+getName()</text><text fill="#000000" font-family="sans-serif" font-size="14" lengthAdjust="spacing" textLength="124" x="390" y="752.5605">+getEmailAddress()</text><text fill="#000000" font-family="sans-serif" font-size="14" lengthAdjust="spacing" textLength="110" x="390" y="771.1816">+getTaxNumber()</text><text fill="#000000" font-family="sans-serif" font-size="14" lengthAdjust="spacing" textLength="155" x="390" y="789.8027">+getTelephoneNumber()</text></g><!--class ApproveVisitRequestController--><g id="elem_ApproveVisitRequestController"><rect codeLine="72" fill="#F1F1F1" height="66.6211" id="ApproveVisitRequestController" rx="2.5" ry="2.5" style="stroke:#181818;stroke-width:0.5;" width="460" x="1166" y="600"/><ellipse cx="1294.75" cy="616" fill="#ADD1B2" rx="11" ry="11" style="stroke:#181818;stroke-width:1.0;"/><path d="M1297.5156,611.875 Q1297.6719,611.6563 1297.8594,611.5469 Q1298.0469,611.4375 1298.2656,611.4375 Q1298.6406,611.4375 1298.875,611.7031 Q1299.1094,611.9531 1299.1094,612.5625 L1299.1094,614.0156 Q1299.1094,614.625 1298.875,614.8906 Q1298.6406,615.1563 1298.2656,615.1563 Q1297.9219,615.1563 1297.7188,614.9531 Q1297.5156,614.7656 1297.4063,614.25 Q1297.3594,613.8906 1297.1719,613.7031 Q1296.8438,613.3281 1296.2344,613.1094 Q1295.625,612.8906 1295,612.8906 Q1294.2344,612.8906 1293.5938,613.2188 Q1292.9688,613.5469 1292.4688,614.2969 Q1291.9844,615.0469 1291.9844,616.0781 L1291.9844,617.1719 Q1291.9844,618.4063 1292.875,619.2344 Q1293.7656,620.0469 1295.3594,620.0469 Q1296.2969,620.0469 1296.9531,619.7969 Q1297.3438,619.6406 1297.7656,619.2031 Q1298.0313,618.9375 1298.1719,618.8594 Q1298.3281,618.7813 1298.5313,618.7813 Q1298.8594,618.7813 1299.1094,619.0469 Q1299.375,619.2969 1299.375,619.6406 Q1299.375,619.9844 1299.0313,620.3906 Q1298.5313,620.9688 1297.7344,621.2969 Q1296.6563,621.75 1295.3594,621.75 Q1293.8438,621.75 1292.6406,621.125 Q1291.6563,620.625 1290.9688,619.5625 Q1290.2813,618.4844 1290.2813,617.2031 L1290.2813,616.0469 Q1290.2813,614.7188 1290.8906,613.5781 Q1291.5156,612.4219 1292.6094,611.8125 Q1293.7031,611.1875 1294.9375,611.1875 Q1295.6719,611.1875 1296.3125,611.3594 Q1296.9688,611.5156 1297.5156,611.875 Z " fill="#000000"/><text fill="#000000" font-family="sans-serif" font-size="14" lengthAdjust="spacing" textLength="194" x="1315.25" y="621.7969">ApproveVisitRequestController</text><line style="stroke:#181818;stroke-width:0.5;" x1="1167" x2="1625" y1="632" y2="632"/><line style="stroke:#181818;stroke-width:1.0;" x1="1167" x2="1625" y1="640" y2="640"/><text fill="#000000" font-family="sans-serif" font-size="14" lengthAdjust="spacing" textLength="448" x="1172" y="659.1074">+judgeVisitRequest(agentName, visitRequest, acceptance, justification)</text></g><!--class JudgeVisitRequest--><g id="elem_JudgeVisitRequest"><rect codeLine="77" fill="#F1F1F1" height="85.2422" id="JudgeVisitRequest" rx="2.5" ry="2.5" style="stroke:#181818;stroke-width:0.5;" width="460" x="1166" y="997.5"/><ellipse cx="1333.25" cy="1013.5" fill="#ADD1B2" rx="11" ry="11" style="stroke:#181818;stroke-width:1.0;"/><path d="M1336.0156,1009.375 Q1336.1719,1009.1563 1336.3594,1009.0469 Q1336.5469,1008.9375 1336.7656,1008.9375 Q1337.1406,1008.9375 1337.375,1009.2031 Q1337.6094,1009.4531 1337.6094,1010.0625 L1337.6094,1011.5156 Q1337.6094,1012.125 1337.375,1012.3906 Q1337.1406,1012.6563 1336.7656,1012.6563 Q1336.4219,1012.6563 1336.2188,1012.4531 Q1336.0156,1012.2656 1335.9063,1011.75 Q1335.8594,1011.3906 1335.6719,1011.2031 Q1335.3438,1010.8281 1334.7344,1010.6094 Q1334.125,1010.3906 1333.5,1010.3906 Q1332.7344,1010.3906 1332.0938,1010.7188 Q1331.4688,1011.0469 1330.9688,1011.7969 Q1330.4844,1012.5469 1330.4844,1013.5781 L1330.4844,1014.6719 Q1330.4844,1015.9063 1331.375,1016.7344 Q1332.2656,1017.5469 1333.8594,1017.5469 Q1334.7969,1017.5469 1335.4531,1017.2969 Q1335.8438,1017.1406 1336.2656,1016.7031 Q1336.5313,1016.4375 1336.6719,1016.3594 Q1336.8281,1016.2813 1337.0313,1016.2813 Q1337.3594,1016.2813 1337.6094,1016.5469 Q1337.875,1016.7969 1337.875,1017.1406 Q1337.875,1017.4844 1337.5313,1017.8906 Q1337.0313,1018.4688 1336.2344,1018.7969 Q1335.1563,1019.25 1333.8594,1019.25 Q1332.3438,1019.25 1331.1406,1018.625 Q1330.1563,1018.125 1329.4688,1017.0625 Q1328.7813,1015.9844 1328.7813,1014.7031 L1328.7813,1013.5469 Q1328.7813,1012.2188 1329.3906,1011.0781 Q1330.0156,1009.9219 1331.1094,1009.3125 Q1332.2031,1008.6875 1333.4375,1008.6875 Q1334.1719,1008.6875 1334.8125,1008.8594 Q1335.4688,1009.0156 1336.0156,1009.375 Z " fill="#000000"/><text fill="#000000" font-family="sans-serif" font-size="14" lengthAdjust="spacing" textLength="117" x="1353.75" y="1019.2969">JudgeVisitRequest</text><line style="stroke:#181818;stroke-width:0.5;" x1="1167" x2="1625" y1="1029.5" y2="1029.5"/><line style="stroke:#181818;stroke-width:1.0;" x1="1167" x2="1625" y1="1037.5" y2="1037.5"/><text fill="#000000" font-family="sans-serif" font-size="14" lengthAdjust="spacing" textLength="448" x="1172" y="1056.6074">+judgeVisitRequest(agentName, visitRequest, acceptance, justification)</text><text fill="#000000" font-family="sans-serif" font-size="14" lengthAdjust="spacing" textLength="153" x="1172" y="1075.2285">+sendEmail(justification)</text></g><!--class ApproveVisitRequestUI--><g id="elem_ApproveVisitRequestUI"><rect codeLine="83" fill="#F1F1F1" height="85.2422" id="ApproveVisitRequestUI" rx="2.5" ry="2.5" style="stroke:#181818;stroke-width:0.5;" width="176" x="955" y="591"/><ellipse cx="970" cy="607" fill="#ADD1B2" rx="11" ry="11" style="stroke:#181818;stroke-width:1.0;"/><path d="M972.7656,602.875 Q972.9219,602.6563 973.1094,602.5469 Q973.2969,602.4375 973.5156,602.4375 Q973.8906,602.4375 974.125,602.7031 Q974.3594,602.9531 974.3594,603.5625 L974.3594,605.0156 Q974.3594,605.625 974.125,605.8906 Q973.8906,606.1563 973.5156,606.1563 Q973.1719,606.1563 972.9688,605.9531 Q972.7656,605.7656 972.6563,605.25 Q972.6094,604.8906 972.4219,604.7031 Q972.0938,604.3281 971.4844,604.1094 Q970.875,603.8906 970.25,603.8906 Q969.4844,603.8906 968.8438,604.2188 Q968.2188,604.5469 967.7188,605.2969 Q967.2344,606.0469 967.2344,607.0781 L967.2344,608.1719 Q967.2344,609.4063 968.125,610.2344 Q969.0156,611.0469 970.6094,611.0469 Q971.5469,611.0469 972.2031,610.7969 Q972.5938,610.6406 973.0156,610.2031 Q973.2813,609.9375 973.4219,609.8594 Q973.5781,609.7813 973.7813,609.7813 Q974.1094,609.7813 974.3594,610.0469 Q974.625,610.2969 974.625,610.6406 Q974.625,610.9844 974.2813,611.3906 Q973.7813,611.9688 972.9844,612.2969 Q971.9063,612.75 970.6094,612.75 Q969.0938,612.75 967.8906,612.125 Q966.9063,611.625 966.2188,610.5625 Q965.5313,609.4844 965.5313,608.2031 L965.5313,607.0469 Q965.5313,605.7188 966.1406,604.5781 Q966.7656,603.4219 967.8594,602.8125 Q968.9531,602.1875 970.1875,602.1875 Q970.9219,602.1875 971.5625,602.3594 Q972.2188,602.5156 972.7656,602.875 Z " fill="#000000"/><text fill="#000000" font-family="sans-serif" font-size="14" lengthAdjust="spacing" textLength="144" x="984" y="612.7969">ApproveVisitRequestUI</text><line style="stroke:#181818;stroke-width:0.5;" x1="956" x2="1130" y1="623" y2="623"/><line style="stroke:#181818;stroke-width:1.0;" x1="956" x2="1130" y1="631" y2="631"/><text fill="#000000" font-family="sans-serif" font-size="14" lengthAdjust="spacing" textLength="89" x="961" y="650.1074">+submitData()</text><text fill="#000000" font-family="sans-serif" font-size="14" lengthAdjust="spacing" textLength="96" x="961" y="668.7285">+requestData()</text></g><!--class VisitRequest--><g id="elem_VisitRequest"><rect codeLine="89" fill="#F1F1F1" height="364.5586" id="VisitRequest" rx="2.5" ry="2.5" style="stroke:#181818;stroke-width:0.5;" width="638" x="1661" y="451"/><ellipse cx="1936.25" cy="467" fill="#ADD1B2" rx="11" ry="11" style="stroke:#181818;stroke-width:1.0;"/><path d="M1939.0156,462.875 Q1939.1719,462.6563 1939.3594,462.5469 Q1939.5469,462.4375 1939.7656,462.4375 Q1940.1406,462.4375 1940.375,462.7031 Q1940.6094,462.9531 1940.6094,463.5625 L1940.6094,465.0156 Q1940.6094,465.625 1940.375,465.8906 Q1940.1406,466.1563 1939.7656,466.1563 Q1939.4219,466.1563 1939.2188,465.9531 Q1939.0156,465.7656 1938.9063,465.25 Q1938.8594,464.8906 1938.6719,464.7031 Q1938.3438,464.3281 1937.7344,464.1094 Q1937.125,463.8906 1936.5,463.8906 Q1935.7344,463.8906 1935.0938,464.2188 Q1934.4688,464.5469 1933.9688,465.2969 Q1933.4844,466.0469 1933.4844,467.0781 L1933.4844,468.1719 Q1933.4844,469.4063 1934.375,470.2344 Q1935.2656,471.0469 1936.8594,471.0469 Q1937.7969,471.0469 1938.4531,470.7969 Q1938.8438,470.6406 1939.2656,470.2031 Q1939.5313,469.9375 1939.6719,469.8594 Q1939.8281,469.7813 1940.0313,469.7813 Q1940.3594,469.7813 1940.6094,470.0469 Q1940.875,470.2969 1940.875,470.6406 Q1940.875,470.9844 1940.5313,471.3906 Q1940.0313,471.9688 1939.2344,472.2969 Q1938.1563,472.75 1936.8594,472.75 Q1935.3438,472.75 1934.1406,472.125 Q1933.1563,471.625 1932.4688,470.5625 Q1931.7813,469.4844 1931.7813,468.2031 L1931.7813,467.0469 Q1931.7813,465.7188 1932.3906,464.5781 Q1933.0156,463.4219 1934.1094,462.8125 Q1935.2031,462.1875 1936.4375,462.1875 Q1937.1719,462.1875 1937.8125,462.3594 Q1938.4688,462.5156 1939.0156,462.875 Z " fill="#000000"/><text fill="#000000" font-family="sans-serif" font-size="14" lengthAdjust="spacing" textLength="79" x="1956.75" y="472.7969">VisitRequest</text><line style="stroke:#181818;stroke-width:0.5;" x1="1662" x2="2298" y1="483" y2="483"/><text fill="#000000" font-family="sans-serif" font-size="14" lengthAdjust="spacing" textLength="61" x="1667" y="502.1074">-String id;</text><text fill="#000000" font-family="sans-serif" font-size="14" lengthAdjust="spacing" textLength="70" x="1667" y="520.7285">-User user;</text><text fill="#000000" font-family="sans-serif" font-size="14" lengthAdjust="spacing" textLength="202" x="1667" y="539.3496">-Announcement announcement;</text><text fill="#000000" font-family="sans-serif" font-size="14" lengthAdjust="spacing" textLength="78" x="1667" y="557.9707">-String date;</text><text fill="#000000" font-family="sans-serif" font-size="14" lengthAdjust="spacing" textLength="117" x="1667" y="576.5918">-String timeFrame;</text><line style="stroke:#181818;stroke-width:1.0;" x1="1662" x2="2298" y1="584.1055" y2="584.1055"/><text fill="#000000" font-family="sans-serif" font-size="14" lengthAdjust="spacing" textLength="626" x="1667" y="603.2129">+VisitRequest(name, emailAddress, password, telephoneNumber, announcement, date, timeFrame)</text><text fill="#000000" font-family="sans-serif" font-size="14" lengthAdjust="spacing" textLength="129" x="1667" y="621.834">+setVisitRequestID()</text><text fill="#000000" font-family="sans-serif" font-size="14" lengthAdjust="spacing" textLength="130" x="1667" y="640.4551">+getVisitRequestID()</text><text fill="#000000" font-family="sans-serif" font-size="14" lengthAdjust="spacing" textLength="66" x="1667" y="659.0762">+setUser()</text><text fill="#000000" font-family="sans-serif" font-size="14" lengthAdjust="spacing" textLength="67" x="1667" y="677.6973">+getUser()</text><text fill="#000000" font-family="sans-serif" font-size="14" lengthAdjust="spacing" textLength="132" x="1667" y="696.3184">+setAnnouncement()</text><text fill="#000000" font-family="sans-serif" font-size="14" lengthAdjust="spacing" textLength="133" x="1667" y="714.9395">+getAnnouncement()</text><text fill="#000000" font-family="sans-serif" font-size="14" lengthAdjust="spacing" textLength="67" x="1667" y="733.5605">+setDate()</text><text fill="#000000" font-family="sans-serif" font-size="14" lengthAdjust="spacing" textLength="68" x="1667" y="752.1816">+getDate()</text><text fill="#000000" font-family="sans-serif" font-size="14" lengthAdjust="spacing" textLength="109" x="1667" y="770.8027">+setTimeFrame()</text><text fill="#000000" font-family="sans-serif" font-size="14" lengthAdjust="spacing" textLength="110" x="1667" y="789.4238">+getTimeFrame()</text><text fill="#000000" font-family="sans-serif" font-size="14" lengthAdjust="spacing" textLength="67" x="1667" y="808.0449">+toString()</text></g><!--class User--><g id="elem_User"><rect codeLine="110" fill="#F1F1F1" height="290.0742" id="User" rx="2.5" ry="2.5" style="stroke:#181818;stroke-width:0.5;" width="426" x="683" y="895"/><ellipse cx="877.25" cy="911" fill="#ADD1B2" rx="11" ry="11" style="stroke:#181818;stroke-width:1.0;"/><path d="M880.0156,906.875 Q880.1719,906.6563 880.3594,906.5469 Q880.5469,906.4375 880.7656,906.4375 Q881.1406,906.4375 881.375,906.7031 Q881.6094,906.9531 881.6094,907.5625 L881.6094,909.0156 Q881.6094,909.625 881.375,909.8906 Q881.1406,910.1563 880.7656,910.1563 Q880.4219,910.1563 880.2188,909.9531 Q880.0156,909.7656 879.9063,909.25 Q879.8594,908.8906 879.6719,908.7031 Q879.3438,908.3281 878.7344,908.1094 Q878.125,907.8906 877.5,907.8906 Q876.7344,907.8906 876.0938,908.2188 Q875.4688,908.5469 874.9688,909.2969 Q874.4844,910.0469 874.4844,911.0781 L874.4844,912.1719 Q874.4844,913.4063 875.375,914.2344 Q876.2656,915.0469 877.8594,915.0469 Q878.7969,915.0469 879.4531,914.7969 Q879.8438,914.6406 880.2656,914.2031 Q880.5313,913.9375 880.6719,913.8594 Q880.8281,913.7813 881.0313,913.7813 Q881.3594,913.7813 881.6094,914.0469 Q881.875,914.2969 881.875,914.6406 Q881.875,914.9844 881.5313,915.3906 Q881.0313,915.9688 880.2344,916.2969 Q879.1563,916.75 877.8594,916.75 Q876.3438,916.75 875.1406,916.125 Q874.1563,915.625 873.4688,914.5625 Q872.7813,913.4844 872.7813,912.2031 L872.7813,911.0469 Q872.7813,909.7188 873.3906,908.5781 Q874.0156,907.4219 875.1094,906.8125 Q876.2031,906.1875 877.4375,906.1875 Q878.1719,906.1875 878.8125,906.3594 Q879.4688,906.5156 880.0156,906.875 Z " fill="#000000"/><text fill="#000000" font-family="sans-serif" font-size="14" lengthAdjust="spacing" textLength="29" x="897.75" y="916.7969">User</text><line style="stroke:#181818;stroke-width:0.5;" x1="684" x2="1108" y1="927" y2="927"/><text fill="#000000" font-family="sans-serif" font-size="14" lengthAdjust="spacing" textLength="81" x="689" y="946.1074">-String name</text><text fill="#000000" font-family="sans-serif" font-size="14" lengthAdjust="spacing" textLength="131" x="689" y="964.7285">-String emailAddress</text><text fill="#000000" font-family="sans-serif" font-size="14" lengthAdjust="spacing" textLength="106" x="689" y="983.3496">-String password</text><text fill="#000000" font-family="sans-serif" font-size="14" lengthAdjust="spacing" textLength="209" x="689" y="1001.9707">-String contactTelephoneNumber</text><line style="stroke:#181818;stroke-width:1.0;" x1="684" x2="1108" y1="1009.4844" y2="1009.4844"/><text fill="#000000" font-family="sans-serif" font-size="14" lengthAdjust="spacing" textLength="414" x="689" y="1028.5918">+User(name, emailAddress, password, contactTelephoneNumber)</text><text fill="#000000" font-family="sans-serif" font-size="14" lengthAdjust="spacing" textLength="73" x="689" y="1047.2129">+setName()</text><text fill="#000000" font-family="sans-serif" font-size="14" lengthAdjust="spacing" textLength="123" x="689" y="1065.834">+setEmailAddress()</text><text fill="#000000" font-family="sans-serif" font-size="14" lengthAdjust="spacing" textLength="98" x="689" y="1084.4551">+setPassword()</text><text fill="#000000" font-family="sans-serif" font-size="14" lengthAdjust="spacing" textLength="203" x="689" y="1103.0762">+setContactTelephoneNumber()</text><text fill="#000000" font-family="sans-serif" font-size="14" lengthAdjust="spacing" textLength="74" x="689" y="1121.6973">+getName()</text><text fill="#000000" font-family="sans-serif" font-size="14" lengthAdjust="spacing" textLength="124" x="689" y="1140.3184">+getEmailAddress()</text><text fill="#000000" font-family="sans-serif" font-size="14" lengthAdjust="spacing" textLength="99" x="689" y="1158.9395">+getPassword()</text><text fill="#000000" font-family="sans-serif" font-size="14" lengthAdjust="spacing" textLength="204" x="689" y="1177.5605">+getContactTelephoneNumber()</text></g><!--class Agency--><g id="elem_Agency"><rect codeLine="127" fill="#F1F1F1" height="364.5586" id="Agency" rx="2.5" ry="2.5" style="stroke:#181818;stroke-width:0.5;" width="318" x="714" y="7"/><ellipse cx="845.25" cy="23" fill="#ADD1B2" rx="11" ry="11" style="stroke:#181818;stroke-width:1.0;"/><path d="M848.0156,18.875 Q848.1719,18.6563 848.3594,18.5469 Q848.5469,18.4375 848.7656,18.4375 Q849.1406,18.4375 849.375,18.7031 Q849.6094,18.9531 849.6094,19.5625 L849.6094,21.0156 Q849.6094,21.625 849.375,21.8906 Q849.1406,22.1563 848.7656,22.1563 Q848.4219,22.1563 848.2188,21.9531 Q848.0156,21.7656 847.9063,21.25 Q847.8594,20.8906 847.6719,20.7031 Q847.3438,20.3281 846.7344,20.1094 Q846.125,19.8906 845.5,19.8906 Q844.7344,19.8906 844.0938,20.2188 Q843.4688,20.5469 842.9688,21.2969 Q842.4844,22.0469 842.4844,23.0781 L842.4844,24.1719 Q842.4844,25.4063 843.375,26.2344 Q844.2656,27.0469 845.8594,27.0469 Q846.7969,27.0469 847.4531,26.7969 Q847.8438,26.6406 848.2656,26.2031 Q848.5313,25.9375 848.6719,25.8594 Q848.8281,25.7813 849.0313,25.7813 Q849.3594,25.7813 849.6094,26.0469 Q849.875,26.2969 849.875,26.6406 Q849.875,26.9844 849.5313,27.3906 Q849.0313,27.9688 848.2344,28.2969 Q847.1563,28.75 845.8594,28.75 Q844.3438,28.75 843.1406,28.125 Q842.1563,27.625 841.4688,26.5625 Q840.7813,25.4844 840.7813,24.2031 L840.7813,23.0469 Q840.7813,21.7188 841.3906,20.5781 Q842.0156,19.4219 843.1094,18.8125 Q844.2031,18.1875 845.4375,18.1875 Q846.1719,18.1875 846.8125,18.3594 Q847.4688,18.5156 848.0156,18.875 Z " fill="#000000"/><text fill="#000000" font-family="sans-serif" font-size="14" lengthAdjust="spacing" textLength="47" x="865.75" y="28.7969">Agency</text><line style="stroke:#181818;stroke-width:0.5;" x1="715" x2="1031" y1="39" y2="39"/><text fill="#000000" font-family="sans-serif" font-size="14" lengthAdjust="spacing" textLength="105" x="720" y="58.1074">-String agencyID</text><text fill="#000000" font-family="sans-serif" font-size="14" lengthAdjust="spacing" textLength="128" x="720" y="76.7285">-String agencyName</text><text fill="#000000" font-family="sans-serif" font-size="14" lengthAdjust="spacing" textLength="131" x="720" y="95.3496">-String emailAddress</text><text fill="#000000" font-family="sans-serif" font-size="14" lengthAdjust="spacing" textLength="209" x="720" y="113.9707">-String contactTelephoneNumber</text><text fill="#000000" font-family="sans-serif" font-size="14" lengthAdjust="spacing" textLength="97" x="720" y="132.5918">-String address</text><line style="stroke:#181818;stroke-width:1.0;" x1="715" x2="1031" y1="140.1055" y2="140.1055"/><text fill="#000000" font-family="sans-serif" font-size="14" lengthAdjust="spacing" textLength="306" x="720" y="159.2129">+Agency(agencyID, agencyName, emailAddress,</text><text fill="#000000" font-family="sans-serif" font-size="14" lengthAdjust="spacing" textLength="227" x="720" y="177.834">contactTelephoneNumber, address)</text><text fill="#000000" font-family="sans-serif" font-size="14" lengthAdjust="spacing" textLength="97" x="720" y="196.4551">+setAgencyID()</text><text fill="#000000" font-family="sans-serif" font-size="14" lengthAdjust="spacing" textLength="110" x="720" y="215.0762">+setAgencyName</text><text fill="#000000" font-family="sans-serif" font-size="14" lengthAdjust="spacing" textLength="113" x="720" y="233.6973">+setEmailAddress</text><text fill="#000000" font-family="sans-serif" font-size="14" lengthAdjust="spacing" textLength="193" x="720" y="252.3184">+setContactTelephoneNumber</text><text fill="#000000" font-family="sans-serif" font-size="14" lengthAdjust="spacing" textLength="79" x="720" y="270.9395">+setAddress</text><text fill="#000000" font-family="sans-serif" font-size="14" lengthAdjust="spacing" textLength="88" x="720" y="289.5605">+getAgencyID</text><text fill="#000000" font-family="sans-serif" font-size="14" lengthAdjust="spacing" textLength="111" x="720" y="308.1816">+getAgencyName</text><text fill="#000000" font-family="sans-serif" font-size="14" lengthAdjust="spacing" textLength="114" x="720" y="326.8027">+getEmailAddress</text><text fill="#000000" font-family="sans-serif" font-size="14" lengthAdjust="spacing" textLength="194" x="720" y="345.4238">+getContactTelephoneNumber</text><text fill="#000000" font-family="sans-serif" font-size="14" lengthAdjust="spacing" textLength="80" x="720" y="364.0449">+getAddress</text></g><!--reverse link Person to Employee--><g id="link_Person_Employee"><path codeLine="147" d="M710.41,633.5 C736.5,633.5 761,633.5 761,633.5 C761,633.5 795.22,633.5 825.83,633.5 " fill="none" id="Person-backto-Employee" style="stroke:#181818;stroke-width:1.0;"/><polygon fill="none" points="710.07,640.5,690.07,633.5,710.07,626.5,710.07,640.5" style="stroke:#181818;stroke-width:1.0;"/></g><!--reverse link Person to Role--><g id="link_Person_Role"><path codeLine="148" d="M446.37,801.9 C418.69,853.03 389.35,907.22 365.72,950.87 " fill="none" id="Person-backto-Role" style="stroke:#181818;stroke-width:1.0;stroke-dasharray:7.0,7.0;"/><polygon fill="#181818" points="448.87,797.28,441.0638,803.2852,446.4867,801.6755,448.0965,807.0984,448.87,797.28" style="stroke:#181818;stroke-width:1.0;"/><text fill="#000000" font-family="sans-serif" font-size="13" lengthAdjust="spacing" textLength="21" x="422" y="861.0283">role</text></g><!--link Address to Person--><g id="link_Address_Person"><path codeLine="149" d="M301.26,633.5 C326.66,633.5 353.15,633.5 378.83,633.5 " fill="none" id="Address-to-Person" style="stroke:#181818;stroke-width:1.0;stroke-dasharray:7.0,7.0;"/><polygon fill="#181818" points="383.95,633.5,374.95,629.5,378.95,633.5,374.95,637.5,383.95,633.5" style="stroke:#181818;stroke-width:1.0;"/><text fill="#000000" font-family="sans-serif" font-size="13" lengthAdjust="spacing" textLength="46" x="319.5" y="626.5283">address</text></g><!--reverse link Person to PassportCard--><g id="link_Person_PassportCard"><path codeLine="150" d="M537,802.55 C537,865.17 537,932.3 537,978.97 " fill="none" id="Person-backto-PassportCard" style="stroke:#181818;stroke-width:1.0;stroke-dasharray:7.0,7.0;"/><polygon fill="#181818" points="537,797.28,533,806.28,537,802.28,541,806.28,537,797.28" style="stroke:#181818;stroke-width:1.0;"/><text fill="#000000" font-family="sans-serif" font-size="13" lengthAdjust="spacing" textLength="95" x="538" y="861.0283">passportNumber</text></g><!--link Employee to ApproveVisitRequestUI--><g id="link_Employee_ApproveVisitRequestUI"><path codeLine="151" d="M920.05,633.5 C925.79,633.5 929.67,633.5 929.67,633.5 C929.67,633.5 938.72,633.5 949.59,633.5 " fill="none" id="Employee-to-ApproveVisitRequestUI" style="stroke:#181818;stroke-width:1.0;stroke-dasharray:7.0,7.0;"/><polygon fill="#181818" points="954.69,633.5,945.69,629.5,949.69,633.5,945.69,637.5,954.69,633.5" style="stroke:#181818;stroke-width:1.0;"/></g><!--link ApproveVisitRequestUI to ApproveVisitRequestController--><g id="link_ApproveVisitRequestUI_ApproveVisitRequestController"><path codeLine="152" d="M1131.28,633.5 C1148.15,633.5 1160.67,633.5 1160.67,633.5 C1160.67,633.5 1160.7,633.5 1160.75,633.5 " fill="none" id="ApproveVisitRequestUI-to-ApproveVisitRequestController" style="stroke:#181818;stroke-width:1.0;stroke-dasharray:7.0,7.0;"/><polygon fill="#181818" points="1165.72,633.5,1156.72,629.5,1160.72,633.5,1156.72,637.5,1165.72,633.5" style="stroke:#181818;stroke-width:1.0;"/></g><!--link Employee to User--><g id="link_Employee_User"><path codeLine="153" d="M874.32,657.7 C876.71,699.7 881.94,791.68 886.66,874.78 " fill="none" id="Employee-to-User" style="stroke:#181818;stroke-width:1.0;"/><polygon fill="none" points="893.66,874.47,887.8,894.84,879.68,875.27,893.66,874.47" style="stroke:#181818;stroke-width:1.0;"/></g><!--link Agency to Employee--><g id="link_Agency_Employee"><path codeLine="154" d="M873,372.19 C873,460.46 873,557.37 873,604.14 " fill="none" id="Agency-to-Employee" style="stroke:#181818;stroke-width:1.0;stroke-dasharray:7.0,7.0;"/><polygon fill="#181818" points="873,609.32,877,600.32,873,604.32,869,600.32,873,609.32" style="stroke:#181818;stroke-width:1.0;"/><text fill="#000000" font-family="sans-serif" font-size="13" lengthAdjust="spacing" textLength="42" x="874" y="417.0283">agency</text></g><!--link ApproveVisitRequestController to VisitRequest--><g id="link_ApproveVisitRequestController_VisitRequest"><path codeLine="155" d="M1626.37,633.5 C1635.14,633.5 1645.05,633.5 1655.52,633.5 " fill="none" id="ApproveVisitRequestController-to-VisitRequest" style="stroke:#181818;stroke-width:1.0;stroke-dasharray:7.0,7.0;"/><polygon fill="#181818" points="1660.71,633.5,1651.71,629.5,1655.71,633.5,1651.71,637.5,1660.71,633.5" style="stroke:#181818;stroke-width:1.0;"/></g><!--link ApproveVisitRequestController to JudgeVisitRequest--><g id="link_ApproveVisitRequestController_JudgeVisitRequest"><path codeLine="156" d="M1396,667.26 C1396,738.76 1396,909.02 1396,991.97 " fill="none" id="ApproveVisitRequestController-to-JudgeVisitRequest" style="stroke:#181818;stroke-width:1.0;stroke-dasharray:7.0,7.0;"/><polygon fill="#181818" points="1396,997.3,1400,988.3,1396,992.3,1392,988.3,1396,997.3" style="stroke:#181818;stroke-width:1.0;"/></g><!--SRC=[jLRFJzim5Bxdh_2DJBZLpZ0XePP9tG4X2ZjCN4nYN4DYPxO3Azl-zxqwSV9iGXcJraDRV- -zx_sodtrW7wHgc64rgRNInSRecXDdMfwDaeOL3qpmjTjMd1XUEAP4XHNiXfNwIIf1xbXbiQIIYhjjmqcZg-rkaHrC2BLnEaDMHSMiFNNEoDlMyLMXrLe-S_8nomugVkU8qyH8iN6abBjmf5PPvct8MTrKUiiv-PbblmDugQiTGE0pMmCfn2dBQ5boMnZPU2QFp_pFuSuoboN52XywaULkjHp-BXE2Gp6AHImUmZejIyEjZGEppd3k8gYGRXj7Aq5B5YunP8v7oBDi5hhaKKAzpxnpGpqt7GXfnqA3wPZgskld8x00GxHSzWmvDW4gjFxMSGP4fAGY9XKlIKL2AZ3fKDOB-6fWHosOAUFQDhtalArlkOdgWetoM6zqTX7XABKNWZ4ORgnMSHYArN6ZUCrarNSc4ZZs0ySQK5xnPgCLdyh3-yjtBcYIBmr-TcxeZHh8OHTeM1NkAYO67TO5HOc1Wp3cUmxqAFqp53-2hu83ZCKkK2SnfvZc51ESOeeJoX_EMDCO_SY_IYlT9V_USkiMa2oaKt4JPa8etdrRYaWrXwcdV6IKF2AS4bOKl84vM83alhLEtic2TTDXwFsNbEx_-EjBgqfVilorQ2OgSRrA8xBjRItTaZaMwciwrHuQsARI6aRhSRU-jb3Y5hxwzQbIkeKCQiYHCBGuZgSRdF0OSRBcd-5U2728DYfTj-NnKUeEm9CsCB-JCqCZ_zJxfAEVSRzY5wibsdJJ0h3OPOtqy1Aak0P8QmhUJTLus2tZWNeLmiLd8SMSxeg8c-SRywypATGqlg8c1qWqcNmXzZTfckMzO-UYvyENrIJnkuTFoYpsC8_d3evqiKtApJpOFn1YyFolEx6lw84IcuKdW7UJXn0eyfkqvaQzSZ44NhIlUxOyXOPqqewzqPoH1gkBqLC2Z7x4b1-ntuyO_K3ZkakKVFerwrwPuL4v2ERpxarvvEz51FlNQSy4qb1-P8SV6g2HF4c6vsldUNuoFRQpwM4-XqUuEjb_vsN-y4DgixOP4nlyGeY0ztlsgDyQsVvR5AB4ahUqGVt5pPZz0G00]--></g></svg>