<?xml version="1.0" encoding="us-ascii" standalone="no"?><svg xmlns="http://www.w3.org/2000/svg" xmlns:xlink="http://www.w3.org/1999/xlink" contentStyleType="text/css" height="479px" preserveAspectRatio="none" style="width:432px;height:479px;background:#FFFFFF;" version="1.1" viewBox="0 0 432 479" width="432px" zoomAndPan="magnify"><defs/><g><text fill="#000000" font-family="sans-serif" font-size="14" font-weight="bold" lengthAdjust="spacing" textLength="228" x="101.25" y="30.1074">System Sequence Diagram (SSD)</text><rect fill="#FFFFFF" height="245.6191" style="stroke:#181818;stroke-width:1.0;" width="10" x="21.5" y="133.2422"/><rect fill="#FFFFFF" height="48.582" style="stroke:#181818;stroke-width:1.0;" width="10" x="389.5" y="156.5332"/><rect fill="#FFFFFF" height="48.582" style="stroke:#181818;stroke-width:1.0;" width="10" x="389.5" y="236.4063"/><rect fill="#FFFFFF" height="62.582" style="stroke:#181818;stroke-width:1.0;" width="10" x="389.5" y="316.2793"/><line style="stroke:#181818;stroke-width:0.5;stroke-dasharray:5.0,5.0;" x1="26" x2="26" y1="123.2422" y2="396.8613"/><line style="stroke:#181818;stroke-width:0.5;stroke-dasharray:5.0,5.0;" x1="394.5" x2="394.5" y1="123.2422" y2="396.8613"/><text fill="#000000" font-family="sans-serif" font-size="14" lengthAdjust="spacing" textLength="37" x="5" y="119.7285">Agent</text><ellipse cx="26.5" cy="53.1211" fill="#E3E3E3" rx="8" ry="8" style="stroke:#181818;stroke-width:0.5;"/><path d="M26.5,61.1211 L26.5,88.1211 M13.5,69.1211 L39.5,69.1211 M26.5,88.1211 L13.5,103.1211 M26.5,88.1211 L39.5,103.1211 " fill="none" style="stroke:#181818;stroke-width:0.5;"/><text fill="#000000" font-family="sans-serif" font-size="14" lengthAdjust="spacing" textLength="37" x="5" y="410.9688">Agent</text><ellipse cx="26.5" cy="422.9824" fill="#E3E3E3" rx="8" ry="8" style="stroke:#181818;stroke-width:0.5;"/><path d="M26.5,430.9824 L26.5,457.9824 M13.5,438.9824 L39.5,438.9824 M26.5,457.9824 L13.5,472.9824 M26.5,457.9824 L39.5,472.9824 " fill="none" style="stroke:#181818;stroke-width:0.5;"/><rect fill="#E3E3E3" height="32.6211" rx="2.5" ry="2.5" style="stroke:#181818;stroke-width:0.5;" width="64" x="362.5" y="89.6211"/><text fill="#000000" font-family="sans-serif" font-size="14" lengthAdjust="spacing" textLength="50" x="369.5" y="111.7285">:System</text><rect fill="#E3E3E3" height="32.6211" rx="2.5" ry="2.5" style="stroke:#181818;stroke-width:0.5;" width="64" x="362.5" y="395.8613"/><text fill="#000000" font-family="sans-serif" font-size="14" lengthAdjust="spacing" textLength="50" x="369.5" y="417.9688">:System</text><rect fill="#FFFFFF" height="245.6191" style="stroke:#181818;stroke-width:1.0;" width="10" x="21.5" y="133.2422"/><rect fill="#FFFFFF" height="48.582" style="stroke:#181818;stroke-width:1.0;" width="10" x="389.5" y="156.5332"/><rect fill="#FFFFFF" height="48.582" style="stroke:#181818;stroke-width:1.0;" width="10" x="389.5" y="236.4063"/><rect fill="#FFFFFF" height="62.582" style="stroke:#181818;stroke-width:1.0;" width="10" x="389.5" y="316.2793"/><polygon fill="#181818" points="377.5,152.5332,387.5,156.5332,377.5,160.5332,381.5,156.5332" style="stroke:#181818;stroke-width:1.0;"/><line style="stroke:#181818;stroke-width:1.0;" x1="31.5" x2="383.5" y1="156.5332" y2="156.5332"/><text fill="#000000" font-family="sans-serif" font-size="13" font-weight="bold" lengthAdjust="spacing" textLength="7" x="38.5" y="151.2705">1</text><text fill="#000000" font-family="sans-serif" font-size="13" lengthAdjust="spacing" textLength="294" x="49.5" y="151.2705">asks to list all visit requests managed by the agent</text><polygon fill="#181818" points="42.5,201.1152,32.5,205.1152,42.5,209.1152,38.5,205.1152" style="stroke:#181818;stroke-width:1.0;"/><line style="stroke:#181818;stroke-width:1.0;stroke-dasharray:2.0,2.0;" x1="36.5" x2="393.5" y1="205.1152" y2="205.1152"/><text fill="#000000" font-family="sans-serif" font-size="13" font-weight="bold" lengthAdjust="spacing" textLength="7" x="48.5" y="191.207">2</text><text fill="#000000" font-family="sans-serif" font-size="13" lengthAdjust="spacing" textLength="283" x="59.5" y="182.5615">displays the visit requests managed by the agent</text><text fill="#000000" font-family="sans-serif" font-size="13" lengthAdjust="spacing" textLength="154" x="59.5" y="199.8525">and requests the algorithm</text><polygon fill="#181818" points="377.5,232.4063,387.5,236.4063,377.5,240.4063,381.5,236.4063" style="stroke:#181818;stroke-width:1.0;"/><line style="stroke:#181818;stroke-width:1.0;" x1="31.5" x2="383.5" y1="236.4063" y2="236.4063"/><text fill="#000000" font-family="sans-serif" font-size="13" font-weight="bold" lengthAdjust="spacing" textLength="7" x="38.5" y="231.1436">3</text><text fill="#000000" font-family="sans-serif" font-size="13" lengthAdjust="spacing" textLength="111" x="49.5" y="231.1436">types the algorithm</text><polygon fill="#181818" points="42.5,280.9883,32.5,284.9883,42.5,288.9883,38.5,284.9883" style="stroke:#181818;stroke-width:1.0;"/><line style="stroke:#181818;stroke-width:1.0;stroke-dasharray:2.0,2.0;" x1="36.5" x2="393.5" y1="284.9883" y2="284.9883"/><text fill="#000000" font-family="sans-serif" font-size="13" font-weight="bold" lengthAdjust="spacing" textLength="7" x="48.5" y="271.0801">4</text><text fill="#000000" font-family="sans-serif" font-size="13" lengthAdjust="spacing" textLength="310" x="59.5" y="262.4346">displays the visit requests list filtered by the algorithm</text><text fill="#000000" font-family="sans-serif" font-size="13" lengthAdjust="spacing" textLength="211" x="59.5" y="279.7256">and requests the begin and end date</text><polygon fill="#181818" points="377.5,312.2793,387.5,316.2793,377.5,320.2793,381.5,316.2793" style="stroke:#181818;stroke-width:1.0;"/><line style="stroke:#181818;stroke-width:1.0;" x1="31.5" x2="383.5" y1="316.2793" y2="316.2793"/><text fill="#000000" font-family="sans-serif" font-size="13" font-weight="bold" lengthAdjust="spacing" textLength="7" x="38.5" y="311.0166">5</text><text fill="#000000" font-family="sans-serif" font-size="13" lengthAdjust="spacing" textLength="122" x="49.5" y="311.0166">types requested data</text><polygon fill="#181818" points="42.5,343.5703,32.5,347.5703,42.5,351.5703,38.5,347.5703" style="stroke:#181818;stroke-width:1.0;"/><line style="stroke:#181818;stroke-width:1.0;stroke-dasharray:2.0,2.0;" x1="36.5" x2="388.5" y1="347.5703" y2="347.5703"/><text fill="#000000" font-family="sans-serif" font-size="13" font-weight="bold" lengthAdjust="spacing" textLength="7" x="48.5" y="342.3076">6</text><text fill="#000000" font-family="sans-serif" font-size="13" lengthAdjust="spacing" textLength="323" x="59.5" y="342.3076">displays visit requests list filtered by begin and end date</text><polygon fill="#181818" points="37.5,374.8613,27.5,378.8613,37.5,382.8613,33.5,378.8613" style="stroke:#181818;stroke-width:1.0;"/><line style="stroke:#181818;stroke-width:1.0;stroke-dasharray:2.0,2.0;" x1="31.5" x2="393.5" y1="378.8613" y2="378.8613"/><text fill="#000000" font-family="sans-serif" font-size="13" font-weight="bold" lengthAdjust="spacing" textLength="7" x="43.5" y="373.5986">7</text><text fill="#000000" font-family="sans-serif" font-size="13" lengthAdjust="spacing" textLength="158" x="54.5" y="373.5986">displays operation success</text><!--SRC=[hPBFQiCm3CRlVWhHqtRe2_Gm6FGDSjr5TLH7n7yoI-d8syznqgwmhXjb1eEGF_q-VI7ISnmmOu2GOh9TJe50yqX6BYy3sXuTDJfvWanMCJf_BP0Es_J1qS4HlP0nobgapIHA0Hfw7obQWZsZc-LFJRD_DWP7JN4C1ygbjfeoR5uTHTq02jJA5BoovG6ZmcQtyEhpKjOvFg7IgZTGJYrX-tBstvM1Na0JU1O5z1vEBAmbIbbCL21WBFbQE4oW7G5MreowuCz-StF5Rel3OhM3bcNmE4aT_mFyBM9iloIrxrtAh5se7lDfwQRzztWw3NGByX_RrqzsPA-KhpASRMxaE93Z27ERocsB_QE1LYnL2ZwMwBSqFsnx3va6ogYS8iXeBOdSotVLMlxGJm00]--></g></svg>