<?xml version="1.0" encoding="us-ascii" standalone="no"?><svg xmlns="http://www.w3.org/2000/svg" xmlns:xlink="http://www.w3.org/1999/xlink" contentStyleType="text/css" height="1259.1px" preserveAspectRatio="none" style="width:1279px;height:1259px;background:#FFFFFF;" version="1.1" viewBox="0 0 1279 1259" width="1279.8px" zoomAndPan="magnify"><defs/><g><text fill="#000000" font-family="sans-serif" font-size="12.6" font-weight="bold" lengthAdjust="spacing" textLength="140.4" x="563.625" y="20.4064">Domain Model - US018</text><!--class PurchaseOrder--><g id="elem_PurchaseOrder"><rect codeLine="15" fill="#F1F1F1" height="86.5828" id="PurchaseOrder" rx="2.25" ry="2.25" style="stroke:#181818;stroke-width:0.45;" width="92.7" x="556.2" y="293.0766"/><text fill="#000000" font-family="sans-serif" font-size="12.6" lengthAdjust="spacing" textLength="87.3" x="558.9" y="308.983">PurchaseOrder</text><line style="stroke:#181818;stroke-width:0.45;" x1="557.1" x2="648" y1="316.1531" y2="316.1531"/><text fill="#000000" font-family="sans-serif" font-size="12.6" lengthAdjust="spacing" textLength="55.8" x="561.6" y="331.1596">userEmail</text><text fill="#000000" font-family="sans-serif" font-size="12.6" lengthAdjust="spacing" textLength="59.4" x="561.6" y="345.2361">propertyID</text><text fill="#000000" font-family="sans-serif" font-size="12.6" lengthAdjust="spacing" textLength="73.8" x="561.6" y="359.3127">orderAmount</text><text fill="#000000" font-family="sans-serif" font-size="12.6" lengthAdjust="spacing" textLength="65.7" x="561.6" y="373.3893">acceptance</text></g><!--class Person--><g id="elem_Person"><rect codeLine="21" fill="#F1F1F1" height="86.5828" id="Person" rx="2.25" ry="2.25" style="stroke:#181818;stroke-width:0.45;" width="111.6" x="679.95" y="1054.4766"/><text fill="#000000" font-family="sans-serif" font-size="12.6" lengthAdjust="spacing" textLength="40.5" x="715.5" y="1070.383">Person</text><line style="stroke:#181818;stroke-width:0.45;" x1="680.85" x2="790.65" y1="1077.5531" y2="1077.5531"/><text fill="#000000" font-family="sans-serif" font-size="12.6" lengthAdjust="spacing" textLength="31.5" x="685.35" y="1092.5596">name</text><text fill="#000000" font-family="sans-serif" font-size="12.6" lengthAdjust="spacing" textLength="60.3" x="685.35" y="1106.6361">taxNumber</text><text fill="#000000" font-family="sans-serif" font-size="12.6" lengthAdjust="spacing" textLength="76.5" x="685.35" y="1120.7127">emailAddress</text><text fill="#000000" font-family="sans-serif" font-size="12.6" lengthAdjust="spacing" textLength="100.8" x="685.35" y="1134.7893">telephoneNumber</text></g><!--class Role--><g id="elem_Role"><rect codeLine="28" fill="#F1F1F1" height="58.4297" id="Role" rx="2.25" ry="2.25" style="stroke:#181818;stroke-width:0.45;" width="72.9" x="469.8" y="906.4266"/><text fill="#000000" font-family="sans-serif" font-size="12.6" lengthAdjust="spacing" textLength="26.1" x="493.2" y="922.333">Role</text><line style="stroke:#181818;stroke-width:0.45;" x1="470.7" x2="541.8" y1="929.5031" y2="929.5031"/><text fill="#000000" font-family="sans-serif" font-size="12.6" lengthAdjust="spacing" textLength="9.9" x="475.2" y="944.5096">id</text><text fill="#000000" font-family="sans-serif" font-size="12.6" lengthAdjust="spacing" textLength="62.1" x="475.2" y="958.5861">description</text></g><!--class Owner--><g id="elem_Owner"><rect codeLine="33" fill="#F1F1F1" height="30.2766" id="Owner" rx="2.25" ry="2.25" style="stroke:#181818;stroke-width:0.45;" width="42.3" x="394.2" y="1216.0266"/><text fill="#000000" font-family="sans-serif" font-size="12.6" lengthAdjust="spacing" textLength="36.9" x="396.9" y="1231.933">Owner</text><line style="stroke:#181818;stroke-width:0.45;" x1="395.1" x2="435.6" y1="1239.1031" y2="1239.1031"/></g><!--class PassportCard--><g id="elem_PassportCard"><rect codeLine="36" fill="#F1F1F1" height="44.3531" id="PassportCard" rx="2.25" ry="2.25" style="stroke:#181818;stroke-width:0.45;" width="132.3" x="669.6" y="913.6266"/><text fill="#000000" font-family="sans-serif" font-size="12.6" lengthAdjust="spacing" textLength="78.3" x="696.6" y="929.533">PassportCard</text><line style="stroke:#181818;stroke-width:0.45;" x1="670.5" x2="801" y1="936.7031" y2="936.7031"/><text fill="#000000" font-family="sans-serif" font-size="12.6" lengthAdjust="spacing" textLength="121.5" x="675" y="951.7096">passportCardNumber</text></g><!--class Address--><g id="elem_Address"><rect codeLine="40" fill="#F1F1F1" height="100.6594" id="Address" rx="2.25" ry="2.25" style="stroke:#181818;stroke-width:0.45;" width="56.7" x="968.4" y="885.2766"/><text fill="#000000" font-family="sans-serif" font-size="12.6" lengthAdjust="spacing" textLength="46.8" x="973.35" y="901.183">Address</text><line style="stroke:#181818;stroke-width:0.45;" x1="969.3" x2="1024.2" y1="908.3531" y2="908.3531"/><text fill="#000000" font-family="sans-serif" font-size="12.6" lengthAdjust="spacing" textLength="32.4" x="973.8" y="923.3596">street</text><text fill="#000000" font-family="sans-serif" font-size="12.6" lengthAdjust="spacing" textLength="18.9" x="973.8" y="937.4361">city</text><text fill="#000000" font-family="sans-serif" font-size="12.6" lengthAdjust="spacing" textLength="36.9" x="973.8" y="951.5127">district</text><text fill="#000000" font-family="sans-serif" font-size="12.6" lengthAdjust="spacing" textLength="27.9" x="973.8" y="965.5893">state</text><text fill="#000000" font-family="sans-serif" font-size="12.6" lengthAdjust="spacing" textLength="45.9" x="973.8" y="979.6658">zipCode</text></g><!--class Property--><g id="elem_Property"><rect codeLine="50" fill="#F1F1F1" height="142.8891" id="Property" rx="2.25" ry="2.25" style="stroke:#181818;stroke-width:0.45;" width="126.9" x="665.1" y="673.7766"/><text fill="#000000" font-family="sans-serif" font-size="12.6" lengthAdjust="spacing" textLength="48.6" x="704.25" y="689.683">Property</text><line style="stroke:#181818;stroke-width:0.45;" x1="666" x2="791.1" y1="696.8531" y2="696.8531"/><text fill="#000000" font-family="sans-serif" font-size="12.6" lengthAdjust="spacing" textLength="76.5" x="670.5" y="711.8596">propertyType</text><text fill="#000000" font-family="sans-serif" font-size="12.6" lengthAdjust="spacing" textLength="88.2" x="670.5" y="725.9361">areaOfProperty</text><text fill="#000000" font-family="sans-serif" font-size="12.6" lengthAdjust="spacing" textLength="116.1" x="670.5" y="740.0127">distanceFromCentre</text><text fill="#000000" font-family="sans-serif" font-size="12.6" lengthAdjust="spacing" textLength="105.3" x="670.5" y="754.0893">dateOfAcceptance</text><text fill="#000000" font-family="sans-serif" font-size="12.6" lengthAdjust="spacing" textLength="86.4" x="670.5" y="768.1658">dateOfRequest</text><text fill="#000000" font-family="sans-serif" font-size="12.6" lengthAdjust="spacing" textLength="3.6" x="670.5" y="782.2424">&#160;</text><text fill="#000000" font-family="sans-serif" font-size="12.6" lengthAdjust="spacing" textLength="33.3" x="670.5" y="796.3189">Photo</text><text fill="#000000" font-family="sans-serif" font-size="12.6" lengthAdjust="spacing" textLength="67.5" x="670.5" y="810.3955">Transaction</text></g><!--class Building--><g id="elem_Building"><rect codeLine="62" fill="#F1F1F1" height="100.6594" id="Building" rx="2.25" ry="2.25" style="stroke:#181818;stroke-width:0.45;" width="121.5" x="316.8" y="885.2766"/><text fill="#000000" font-family="sans-serif" font-size="12.6" lengthAdjust="spacing" textLength="45" x="355.05" y="901.183">Building</text><line style="stroke:#181818;stroke-width:0.45;" x1="317.7" x2="437.4" y1="908.3531" y2="908.3531"/><text fill="#000000" font-family="sans-serif" font-size="12.6" lengthAdjust="spacing" textLength="56.7" x="322.2" y="923.3596">bedrooms</text><text fill="#000000" font-family="sans-serif" font-size="12.6" lengthAdjust="spacing" textLength="60.3" x="322.2" y="937.4361">bathrooms</text><text fill="#000000" font-family="sans-serif" font-size="12.6" lengthAdjust="spacing" textLength="84.6" x="322.2" y="951.5127">parkingSpaces</text><text fill="#000000" font-family="sans-serif" font-size="12.6" lengthAdjust="spacing" textLength="110.7" x="322.2" y="965.5893">availableEquipment</text><text fill="#000000" font-family="sans-serif" font-size="12.6" lengthAdjust="spacing" textLength="59.4" x="322.2" y="979.6658">equipment</text></g><!--class House--><g id="elem_House"><rect codeLine="70" fill="#F1F1F1" height="72.5063" id="House" rx="2.25" ry="2.25" style="stroke:#181818;stroke-width:0.45;" width="84.6" x="392.85" y="1061.2266"/><text fill="#000000" font-family="sans-serif" font-size="12.6" lengthAdjust="spacing" textLength="36" x="417.15" y="1077.133">House</text><line style="stroke:#181818;stroke-width:0.45;" x1="393.75" x2="476.55" y1="1084.3031" y2="1084.3031"/><text fill="#000000" font-family="sans-serif" font-size="12.6" lengthAdjust="spacing" textLength="55.8" x="398.25" y="1099.3096">basement</text><text fill="#000000" font-family="sans-serif" font-size="12.6" lengthAdjust="spacing" textLength="17.1" x="398.25" y="1113.3861">loft</text><text fill="#000000" font-family="sans-serif" font-size="12.6" lengthAdjust="spacing" textLength="73.8" x="398.25" y="1127.4627">sunExposure</text></g><!--class Employee--><g id="elem_Employee"><rect codeLine="76" fill="#F1F1F1" height="44.3531" id="Employee" rx="2.25" ry="2.25" style="stroke:#181818;stroke-width:0.45;" width="61.2" x="948.15" y="1209.2766"/><text fill="#000000" font-family="sans-serif" font-size="12.6" lengthAdjust="spacing" textLength="55.8" x="950.85" y="1225.183">Employee</text><line style="stroke:#181818;stroke-width:0.45;" x1="949.05" x2="1008.45" y1="1232.3531" y2="1232.3531"/><text fill="#000000" font-family="sans-serif" font-size="12.6" lengthAdjust="spacing" textLength="41.4" x="953.55" y="1247.3596">agency</text></g><!--class Equipment--><g id="elem_Equipment"><rect codeLine="80" fill="#F1F1F1" height="58.4297" id="Equipment" rx="2.25" ry="2.25" style="stroke:#181818;stroke-width:0.45;" width="96.3" x="264.6" y="1068.4266"/><text fill="#000000" font-family="sans-serif" font-size="12.6" lengthAdjust="spacing" textLength="60.3" x="282.6" y="1084.333">Equipment</text><line style="stroke:#181818;stroke-width:0.45;" x1="265.5" x2="360" y1="1091.5031" y2="1091.5031"/><text fill="#000000" font-family="sans-serif" font-size="12.6" lengthAdjust="spacing" textLength="81.9" x="270" y="1106.5096">centralHeating</text><text fill="#000000" font-family="sans-serif" font-size="12.6" lengthAdjust="spacing" textLength="85.5" x="270" y="1120.5861">airConditioning</text></g><!--class Commission--><g id="elem_Commission"><rect codeLine="86" fill="#F1F1F1" height="58.4297" id="Commission" rx="2.25" ry="2.25" style="stroke:#181818;stroke-width:0.45;" width="108.9" x="6.3" y="447.8766"/><text fill="#000000" font-family="sans-serif" font-size="12.6" lengthAdjust="spacing" textLength="68.4" x="26.55" y="463.783">Commission</text><line style="stroke:#181818;stroke-width:0.45;" x1="7.2" x2="114.3" y1="470.9531" y2="470.9531"/><text fill="#000000" font-family="sans-serif" font-size="12.6" lengthAdjust="spacing" textLength="94.5" x="11.7" y="485.9596">commissionType</text><text fill="#000000" font-family="sans-serif" font-size="12.6" lengthAdjust="spacing" textLength="98.1" x="11.7" y="500.0361">commissionValue</text></g><!--class Photo--><g id="elem_Photo"><rect codeLine="91" fill="#F1F1F1" height="72.5063" id="Photo" rx="2.25" ry="2.25" style="stroke:#181818;stroke-width:0.45;" width="63" x="574.65" y="899.2266"/><text fill="#000000" font-family="sans-serif" font-size="12.6" lengthAdjust="spacing" textLength="33.3" x="589.5" y="915.133">Photo</text><line style="stroke:#181818;stroke-width:0.45;" x1="575.55" x2="636.75" y1="922.3031" y2="922.3031"/><text fill="#000000" font-family="sans-serif" font-size="12.6" lengthAdjust="spacing" textLength="52.2" x="580.05" y="937.3096">photoURI</text><text fill="#000000" font-family="sans-serif" font-size="12.6" lengthAdjust="spacing" textLength="44.1" x="580.05" y="951.3861">photoID</text><text fill="#000000" font-family="sans-serif" font-size="12.6" lengthAdjust="spacing" textLength="52.2" x="580.05" y="965.4627">photoList</text></g><!--class Transaction--><g id="elem_Transaction"><rect codeLine="97" fill="#F1F1F1" height="58.4297" id="Transaction" rx="2.25" ry="2.25" style="stroke:#181818;stroke-width:0.45;" width="102.6" x="833.85" y="906.4266"/><text fill="#000000" font-family="sans-serif" font-size="12.6" lengthAdjust="spacing" textLength="67.5" x="851.4" y="922.333">Transaction</text><line style="stroke:#181818;stroke-width:0.45;" x1="834.75" x2="935.55" y1="929.5031" y2="929.5031"/><text fill="#000000" font-family="sans-serif" font-size="12.6" lengthAdjust="spacing" textLength="91.8" x="839.25" y="944.5096">transactionType</text><text fill="#000000" font-family="sans-serif" font-size="12.6" lengthAdjust="spacing" textLength="85.5" x="839.25" y="958.5861">monetaryValue</text></g><!--class Request--><g id="elem_Request"><rect codeLine="102" fill="#F1F1F1" height="58.4297" id="Request" rx="2.25" ry="2.25" style="stroke:#181818;stroke-width:0.45;" width="81" x="53.55" y="716.0766"/><text fill="#000000" font-family="sans-serif" font-size="12.6" lengthAdjust="spacing" textLength="47.7" x="70.2" y="731.983">Request</text><line style="stroke:#181818;stroke-width:0.45;" x1="54.45" x2="133.65" y1="739.1531" y2="739.1531"/><text fill="#000000" font-family="sans-serif" font-size="12.6" lengthAdjust="spacing" textLength="9.9" x="58.95" y="754.1596">id</text><text fill="#000000" font-family="sans-serif" font-size="12.6" lengthAdjust="spacing" textLength="70.2" x="58.95" y="768.2361">requestDate</text></g><!--class Agency--><g id="elem_Agency"><rect codeLine="108" fill="#F1F1F1" height="86.5828" id="Agency" rx="2.25" ry="2.25" style="stroke:#181818;stroke-width:0.45;" width="111.6" x="735.75" y="138.2766"/><text fill="#000000" font-family="sans-serif" font-size="12.6" lengthAdjust="spacing" textLength="42.3" x="770.4" y="154.183">Agency</text><line style="stroke:#181818;stroke-width:0.45;" x1="736.65" x2="846.45" y1="161.3531" y2="161.3531"/><text fill="#000000" font-family="sans-serif" font-size="12.6" lengthAdjust="spacing" textLength="53.1" x="741.15" y="176.3596">agencyID</text><text fill="#000000" font-family="sans-serif" font-size="12.6" lengthAdjust="spacing" textLength="31.5" x="741.15" y="190.4361">name</text><text fill="#000000" font-family="sans-serif" font-size="12.6" lengthAdjust="spacing" textLength="29.7" x="741.15" y="204.5127">email</text><text fill="#000000" font-family="sans-serif" font-size="12.6" lengthAdjust="spacing" textLength="100.8" x="741.15" y="218.5893">telephoneNumber</text></g><!--class Agent--><g id="elem_Agent"><rect codeLine="115" fill="#F1F1F1" height="30.2766" id="Agent" rx="2.25" ry="2.25" style="stroke:#181818;stroke-width:0.45;" width="38.7" x="178.2" y="574.7766"/><text fill="#000000" font-family="sans-serif" font-size="12.6" lengthAdjust="spacing" textLength="33.3" x="180.9" y="590.683">Agent</text><line style="stroke:#181818;stroke-width:0.45;" x1="179.1" x2="216" y1="597.8531" y2="597.8531"/></g><!--class Announcement--><g id="elem_Announcement"><rect codeLine="117" fill="#F1F1F1" height="58.4297" id="Announcement" rx="2.25" ry="2.25" style="stroke:#181818;stroke-width:0.45;" width="103.5" x="255.6" y="447.8766"/><text fill="#000000" font-family="sans-serif" font-size="12.6" lengthAdjust="spacing" textLength="85.5" x="264.6" y="463.783">Announcement</text><line style="stroke:#181818;stroke-width:0.45;" x1="256.5" x2="358.2" y1="470.9531" y2="470.9531"/><text fill="#000000" font-family="sans-serif" font-size="12.6" lengthAdjust="spacing" textLength="9.9" x="261" y="485.9596">id</text><text fill="#000000" font-family="sans-serif" font-size="12.6" lengthAdjust="spacing" textLength="92.7" x="261" y="500.0361">acceptanceDate</text></g><!--class StoreManager--><g id="elem_StoreManager"><rect codeLine="122" fill="#F1F1F1" height="30.2766" id="StoreManager" rx="2.25" ry="2.25" style="stroke:#181818;stroke-width:0.45;" width="86.4" x="748.35" y="39.2766"/><text fill="#000000" font-family="sans-serif" font-size="12.6" lengthAdjust="spacing" textLength="81" x="751.05" y="55.183">StoreManager</text><line style="stroke:#181818;stroke-width:0.45;" x1="749.25" x2="833.85" y1="62.3531" y2="62.3531"/></g><!--reverse link Property to Building--><g id="link_Property_Building"><path d="M648.333,784.0896 C592.965,810.9006 518.067,848.4936 454.05,885.2766 C448.974,888.1926 443.772,891.2976 438.579,894.4836 " fill="none" id="Property-backto-Building" style="stroke:#181818;stroke-width:0.9;"/><polygon fill="none" points="645.912,778.2666,664.866,776.1246,651.375,789.6156,645.912,778.2666" style="stroke:#181818;stroke-width:0.9;"/></g><!--reverse link Building to House--><g id="link_Building_House"><path d="M406.413,1003.5816 C407.637,1006.7766 408.825,1009.9536 409.95,1013.0766 C415.566,1028.6376 420.975,1046.1156 425.322,1061.0646 " fill="none" id="Building-backto-House" style="stroke:#181818;stroke-width:0.9;"/><polygon fill="none" points="400.41,1005.5256,399.6,986.4726,412.11,1000.8636,400.41,1005.5256" style="stroke:#181818;stroke-width:0.9;"/></g><!--link StoreManager to Employee--><g id="link_StoreManager_Employee"><path codeLine="124" d="M834.966,59.9046 C937.602,71.5866 1186.65,107.4606 1186.65,180.5766 C1186.65,180.5766 1186.65,180.5766 1186.65,1098.5766 C1186.65,1181.4936 1067.256,1214.4606 1009.422,1225.5576 " fill="none" id="StoreManager-Employee" style="stroke:#181818;stroke-width:0.9;"/><polygon fill="#000000" points="1191.8161,594.7625,1193.227,586.3201,1187.9952,587.1031,1191.8161,594.7625" style="stroke:#000000;stroke-width:0.9;"/><text fill="#000000" font-family="sans-serif" font-size="11.7" lengthAdjust="spacing" textLength="73.8" x="1199.25" y="594.3683">represented in</text></g><!--link Agent to Employee--><g id="link_Agent_Employee"><path codeLine="125" d="M197.55,605.7906 C197.55,633.1686 197.55,693.5406 197.55,744.4266 C197.55,744.4266 197.55,744.4266 197.55,1098.5766 C197.55,1128.1236 221.841,1128.8886 248.85,1140.8766 C377.505,1197.9816 826.029,1223.1456 947.961,1229.0316 " fill="none" id="Agent-Employee" style="stroke:#181818;stroke-width:0.9;"/><polygon fill="#000000" points="205.5118,938.7872,200.9393,931.5513,197.5594,935.6209,205.5118,938.7872" style="stroke:#000000;stroke-width:0.9;"/><text fill="#000000" font-family="sans-serif" font-size="11.7" lengthAdjust="spacing" textLength="73.8" x="210.15" y="939.9683">represented in</text></g><!--link Agency to PurchaseOrder--><g id="link_Agency_PurchaseOrder"><path codeLine="126" d="M735.687,222.0306 C722.826,231.5166 709.326,241.7766 697.05,251.6766 C680.931,264.6816 663.831,279.4866 648.684,292.9956 " fill="none" id="Agency-PurchaseOrder" style="stroke:#181818;stroke-width:0.9;"/><polygon fill="#000000" points="698.0629,261.9564,706.043,258.8607,702.6993,254.7613,698.0629,261.9564" style="stroke:#000000;stroke-width:0.9;"/><text fill="#000000" font-family="sans-serif" font-size="11.7" lengthAdjust="spacing" textLength="42.3" x="709.65" y="263.1683">receives</text></g><!--link Agency to Announcement--><g id="link_Agency_Announcement"><path codeLine="127" d="M776.475,224.8026 C770.949,238.3926 764.127,253.2246 756.45,266.0766 C723.177,321.7326 715.284,338.9676 664.65,379.4766 C574.326,451.7466 434.376,470.2146 359.244,474.8136 " fill="none" id="Agency-Announcement" style="stroke:#181818;stroke-width:0.9;"/><polygon fill="#000000" points="739.9899,338.8251,748.3324,336.9097,745.6133,332.372,739.9899,338.8251" style="stroke:#000000;stroke-width:0.9;"/><text fill="#000000" font-family="sans-serif" font-size="11.7" lengthAdjust="spacing" textLength="90" x="751.95" y="340.5683">publish publishes</text><text fill="#000000" font-family="sans-serif" font-size="11.7" lengthAdjust="spacing" textLength="6.3" x="767.4982" y="242.7043">1</text><text fill="#000000" font-family="sans-serif" font-size="11.7" lengthAdjust="spacing" textLength="11.7" x="366.2816" y="471.7885">..*</text></g><!--link Announcement to Request--><g id="link_Announcement_Request"><path codeLine="128" d="M255.582,499.1136 C218.133,515.9886 167.697,542.1876 130.05,574.7766 C105.858,595.7196 96.966,602.0196 86.85,632.3766 C77.724,659.7456 81.558,692.9196 86.418,716.0406 " fill="none" id="Announcement-Request" style="stroke:#181818;stroke-width:0.9;"/><polygon fill="#000000" points="131.7828,593.8607,138.8745,589.0678,134.703,585.8147,131.7828,593.8607" style="stroke:#000000;stroke-width:0.9;"/><text fill="#000000" font-family="sans-serif" font-size="11.7" lengthAdjust="spacing" textLength="18.9" x="142.65" y="594.3683">of a</text><text fill="#000000" font-family="sans-serif" font-size="11.7" lengthAdjust="spacing" textLength="6.3" x="242.2456" y="499.1498">1</text></g><!--link Property to Address--><g id="link_Property_Address"><path codeLine="129" d="M792.198,755.4606 C847.557,766.8276 925.992,791.4966 972.45,843.8766 C982.584,855.3066 988.56,870.5076 992.061,885.2046 " fill="none" id="Property-Address" style="stroke:#181818;stroke-width:0.9;"/><text fill="#000000" font-family="sans-serif" font-size="11.7" lengthAdjust="spacing" textLength="32.4" x="981.45" y="855.3683">stores</text><text fill="#000000" font-family="sans-serif" font-size="11.7" lengthAdjust="spacing" textLength="6.3" x="799.0865" y="753.8828">1</text><text fill="#000000" font-family="sans-serif" font-size="11.7" lengthAdjust="spacing" textLength="6.3" x="984.7076" y="875.6086">1</text></g><!--link Address to Property--><g id="link_Address_Property"><path codeLine="145" d="M968.175,898.6956 C963.324,893.8086 958.086,889.1466 952.65,885.2766 C927.234,867.1776 915.174,873.3426 887.85,858.2766 C854.982,840.1506 820.665,816.6786 792.342,795.9066 " fill="none" id="Address-Property" style="stroke:#181818;stroke-width:0.9;"/><polygon fill="#000000" points="896.2349,853.5832,890.5419,847.1913,887.8722,851.7583,896.2349,853.5832" style="stroke:#000000;stroke-width:0.9;"/><text fill="#000000" font-family="sans-serif" font-size="11.7" lengthAdjust="spacing" textLength="63.9" x="900.45" y="855.3683">has address</text><text fill="#000000" font-family="sans-serif" font-size="11.7" lengthAdjust="spacing" textLength="6.3" x="954.9352" y="887.2864">1</text><text fill="#000000" font-family="sans-serif" font-size="11.7" lengthAdjust="spacing" textLength="6.3" x="799.2454" y="798.4998">1</text></g><!--link StoreManager to Agency--><g id="link_StoreManager_Agency"><path codeLine="130" d="M791.55,70.0746 C791.55,86.6976 791.55,114.6336 791.55,138.2496 " fill="none" id="StoreManager-Agency" style="stroke:#181818;stroke-width:0.9;"/><polygon fill="#000000" points="796.05,108.8121,798.695,100.6715,793.405,100.6715,796.05,108.8121" style="stroke:#000000;stroke-width:0.9;"/><text fill="#000000" font-family="sans-serif" font-size="11.7" lengthAdjust="spacing" textLength="47.7" x="804.15" y="108.3683">manages</text></g><!--link Agency to Employee--><g id="link_Agency_Employee"><path codeLine="131" d="M847.539,187.8036 C929.691,199.2066 1073.25,233.6676 1073.25,335.3766 C1073.25,335.3766 1073.25,335.3766 1073.25,1098.5766 C1073.25,1144.6206 1034.703,1185.6336 1006.848,1209.2586 " fill="none" id="Agency-Employee" style="stroke:#181818;stroke-width:0.9;"/><polygon fill="#000000" points="1077.0566,635.3659,1075.6976,643.8168,1080.9245,643.0016,1077.0566,635.3659" style="stroke:#000000;stroke-width:0.9;"/><text fill="#000000" font-family="sans-serif" font-size="11.7" lengthAdjust="spacing" textLength="79.2" x="1085.85" y="643.8683">is in an agency</text><text fill="#000000" font-family="sans-serif" font-size="11.7" lengthAdjust="spacing" textLength="6.3" x="854.3769" y="185.815">1</text><text fill="#000000" font-family="sans-serif" font-size="11.7" lengthAdjust="spacing" textLength="6.3" x="1007.2528" y="1199.6557">1</text></g><!--link Property to Transaction--><g id="link_Property_Transaction"><path codeLine="132" d="M713.286,816.9486 C713.628,831.7536 716.994,846.4326 725.85,858.2766 C751.329,892.3236 779.535,866.4216 817.65,885.2766 C829.242,891.0096 840.933,898.7406 851.256,906.3906 " fill="none" id="Property-Transaction" style="stroke:#181818;stroke-width:0.9;"/><polygon fill="#000000" points="734.126,853.76,728.734,847.1123,725.8564,851.5512,734.126,853.76" style="stroke:#000000;stroke-width:0.9;"/><text fill="#000000" font-family="sans-serif" font-size="11.7" lengthAdjust="spacing" textLength="116.1" x="738.45" y="855.3683">has a transaction type</text><text fill="#000000" font-family="sans-serif" font-size="11.7" lengthAdjust="spacing" textLength="6.3" x="705.346" y="834.5106">1</text><text fill="#000000" font-family="sans-serif" font-size="11.7" lengthAdjust="spacing" textLength="6.3" x="836.8526" y="896.657">1</text></g><!--link Property to Photo--><g id="link_Property_Photo"><path codeLine="133" d="M665.01,789.3726 C647.289,804.5466 629.874,823.0686 618.75,843.8766 C609.813,860.5986 606.465,881.4156 605.439,898.9116 " fill="none" id="Property-Photo" style="stroke:#181818;stroke-width:0.9;"/><polygon fill="#000000" points="621.1001,855.2653,627.3129,849.3776,622.6657,846.8502,621.1001,855.2653" style="stroke:#000000;stroke-width:0.9;"/><text fill="#000000" font-family="sans-serif" font-size="11.7" lengthAdjust="spacing" textLength="57.6" x="631.35" y="855.3683">has photos</text><text fill="#000000" font-family="sans-serif" font-size="11.7" lengthAdjust="spacing" textLength="6.3" x="651.4158" y="791.53">1</text><text fill="#000000" font-family="sans-serif" font-size="11.7" lengthAdjust="spacing" textLength="11.7" x="592.6113" y="889.5758">..*</text></g><!--link Commission to Announcement--><g id="link_Commission_Announcement"><path codeLine="134" d="M115.479,477.1266 C157.194,477.1266 214.272,477.1266 255.303,477.1266 " fill="none" id="Commission-Announcement" style="stroke:#181818;stroke-width:0.9;"/><polygon fill="#000000" points="130.95,467.4621,139.0906,470.1071,139.0906,464.8171,130.95,467.4621" style="stroke:#000000;stroke-width:0.9;"/><text fill="#000000" font-family="sans-serif" font-size="11.7" lengthAdjust="spacing" textLength="95.4" x="143.55" y="471.5183">has a commission</text><text fill="#000000" font-family="sans-serif" font-size="11.7" lengthAdjust="spacing" textLength="6.3" x="122.533" y="474.3834">1</text><text fill="#000000" font-family="sans-serif" font-size="11.7" lengthAdjust="spacing" textLength="6.3" x="241.9309" y="474.3458">1</text></g><!--link Building to Equipment--><g id="link_Building_Equipment"><path codeLine="135" d="M327.15,986.4996 C321.273,994.8066 316.161,1003.7616 312.75,1013.0766 C306.297,1030.6806 306.351,1051.7946 307.989,1068.4086 " fill="none" id="Building-Equipment" style="stroke:#181818;stroke-width:0.9;"/><polygon fill="#000000" points="316.225,1024.8938,320.6548,1017.5697,315.5038,1016.3647,316.225,1024.8938" style="stroke:#000000;stroke-width:0.9;"/><text fill="#000000" font-family="sans-serif" font-size="11.7" lengthAdjust="spacing" textLength="76.5" x="325.35" y="1024.5683">has equipment</text><text fill="#000000" font-family="sans-serif" font-size="11.7" lengthAdjust="spacing" textLength="6.3" x="314.6583" y="1003.7315">1</text><text fill="#000000" font-family="sans-serif" font-size="11.7" lengthAdjust="spacing" textLength="11.7" x="293.9678" y="1058.679">..*</text></g><!--link Role to Person--><g id="link_Role_Person"><path codeLine="136" d="M534.312,965.1516 C541.881,972.2976 550.251,979.7316 558.45,986.0766 C597.051,1015.9476 644.031,1044.9816 679.932,1065.8256 " fill="none" id="Role-Person" style="stroke:#181818;stroke-width:0.9;"/><polygon fill="#000000" points="615.9485,1017.9531,621.1404,1024.7581,624.1488,1020.4067,615.9485,1017.9531" style="stroke:#000000;stroke-width:0.9;"/><text fill="#000000" font-family="sans-serif" font-size="11.7" lengthAdjust="spacing" textLength="51.3" x="627.75" y="1024.5683">has a role</text><text fill="#000000" font-family="sans-serif" font-size="11.7" lengthAdjust="spacing" textLength="6.3" x="532.7608" y="982.6145">1</text><text fill="#000000" font-family="sans-serif" font-size="11.7" lengthAdjust="spacing" textLength="6.3" x="666.4453" y="1059.1852">1</text></g><!--link PassportCard to Person--><g id="link_PassportCard_Person"><path codeLine="137" d="M735.75,957.8526 C735.75,982.3596 735.75,1023.2556 735.75,1054.3416 " fill="none" id="PassportCard-Person" style="stroke:#181818;stroke-width:0.9;"/><polygon fill="#000000" points="740.25,1016.0121,737.605,1024.1527,742.895,1024.1527,740.25,1016.0121" style="stroke:#000000;stroke-width:0.9;"/><text fill="#000000" font-family="sans-serif" font-size="11.7" lengthAdjust="spacing" textLength="103.5" x="748.35" y="1024.5683">has a passport card</text><text fill="#000000" font-family="sans-serif" font-size="11.7" lengthAdjust="spacing" textLength="6.3" x="728.6428" y="975.7692">1</text><text fill="#000000" font-family="sans-serif" font-size="11.7" lengthAdjust="spacing" textLength="6.3" x="728.9677" y="1044.755">1</text></g><!--link Address to Person--><g id="link_Address_Person"><path codeLine="138" d="M968.391,971.7756 C963.441,976.8966 958.113,981.8556 952.65,986.0766 C902.79,1024.5696 837.495,1055.7546 791.622,1075.1046 " fill="none" id="Address-Person" style="stroke:#181818;stroke-width:0.9;"/><polygon fill="#000000" points="916.935,1018.2412,908.5722,1020.0658,911.2418,1024.6328,916.935,1018.2412" style="stroke:#000000;stroke-width:0.9;"/><text fill="#000000" font-family="sans-serif" font-size="11.7" lengthAdjust="spacing" textLength="63.9" x="921.15" y="1024.5683">has address</text><text fill="#000000" font-family="sans-serif" font-size="11.7" lengthAdjust="spacing" textLength="6.3" x="954.8045" y="976.729">1</text><text fill="#000000" font-family="sans-serif" font-size="11.7" lengthAdjust="spacing" textLength="6.3" x="798.8153" y="1069.5951">1</text></g><!--link Request to Property--><g id="link_Request_Property"><path codeLine="139" d="M134.703,745.3266 C242.271,745.3266 534.924,745.3266 664.893,745.3266 " fill="none" id="Request-Property" style="stroke:#181818;stroke-width:0.9;"/><polygon fill="#000000" points="375.525,735.6621,367.3844,733.0171,367.3844,738.3071,375.525,735.6621" style="stroke:#000000;stroke-width:0.9;"/><text fill="#000000" font-family="sans-serif" font-size="11.7" lengthAdjust="spacing" textLength="53.1" x="379.125" y="739.7183">listing of a</text><text fill="#000000" font-family="sans-serif" font-size="11.7" lengthAdjust="spacing" textLength="6.3" x="141.6841" y="742.3573">1</text><text fill="#000000" font-family="sans-serif" font-size="11.7" lengthAdjust="spacing" textLength="6.3" x="651.7035" y="742.7037">1</text></g><!--link Request to Owner--><g id="link_Request_Owner"><path codeLine="140" d="M88.2,774.6486 C73.458,855.3426 44.649,1086.1926 174.15,1182.2766 C209.133,1208.2326 341.523,1223.3976 393.867,1228.4826 " fill="none" id="Request-Owner" style="stroke:#181818;stroke-width:0.9;"/><polygon fill="#000000" points="92.9638,1024.2445,90.6101,1016.015,86.2224,1018.9701,92.9638,1024.2445" style="stroke:#000000;stroke-width:0.9;"/><text fill="#000000" font-family="sans-serif" font-size="11.7" lengthAdjust="spacing" textLength="69.3" x="98.55" y="1024.5683">has an owner</text><text fill="#000000" font-family="sans-serif" font-size="11.7" lengthAdjust="spacing" textLength="11.7" x="74.1966" y="792.3066">..*</text><text fill="#000000" font-family="sans-serif" font-size="11.7" lengthAdjust="spacing" textLength="6.3" x="380.639" y="1224.0142">1</text></g><!--link Person to Owner--><g id="link_Person_Owner"><path codeLine="141" d="M679.941,1121.5446 C607.869,1151.1996 485.856,1201.4106 436.761,1221.6156 " fill="none" id="Person-Owner" style="stroke:#181818;stroke-width:0.9;"/><polygon fill="#000000" points="575.2114,1173.5996,566.6768,1174.2515,568.6899,1179.1435,575.2114,1173.5996" style="stroke:#000000;stroke-width:0.9;"/><text fill="#000000" font-family="sans-serif" font-size="11.7" lengthAdjust="spacing" textLength="73.8" x="579.15" y="1179.3683">represented in</text></g><!--link Person to Employee--><g id="link_Person_Employee"><path codeLine="142" d="M791.802,1128.9876 C840.303,1155.3036 908.622,1192.3746 947.835,1213.6506 " fill="none" id="Person-Employee" style="stroke:#181818;stroke-width:0.9;"/></g><!--link Agent to Request--><g id="link_Agent_Request"><path codeLine="143" d="M178.074,593.2176 C155.25,596.9706 118.269,606.8616 100.35,632.3766 C83.331,656.6136 84.303,691.5696 87.903,715.9776 " fill="none" id="Agent-Request" style="stroke:#181818;stroke-width:0.9;"/><polygon fill="#000000" points="102.186,643.4389,109.1369,638.4438,104.8734,635.3122,102.186,643.4389" style="stroke:#000000;stroke-width:0.9;"/><text fill="#000000" font-family="sans-serif" font-size="11.7" lengthAdjust="spacing" textLength="60.3" x="112.95" y="643.8683">assigned to</text><text fill="#000000" font-family="sans-serif" font-size="11.7" lengthAdjust="spacing" textLength="6.3" x="164.562" y="590.329">1</text><text fill="#000000" font-family="sans-serif" font-size="11.7" lengthAdjust="spacing" textLength="11.7" x="73.5787" y="706.2303">..*</text></g><!--link Announcement to Agent--><g id="link_Announcement_Agent"><path codeLine="144" d="M279.072,506.6466 C257.598,528.3906 228.951,557.3886 211.959,574.5966 " fill="none" id="Announcement-Agent" style="stroke:#181818;stroke-width:0.9;"/><polygon fill="#000000" points="260.1122,537.6105,252.5099,541.5436,256.2736,545.261,260.1122,537.6105" style="stroke:#000000;stroke-width:0.9;"/><text fill="#000000" font-family="sans-serif" font-size="11.7" lengthAdjust="spacing" textLength="38.7" x="265.05" y="544.8683">creates</text><text fill="#000000" font-family="sans-serif" font-size="11.7" lengthAdjust="spacing" textLength="11.7" x="260.8664" y="524.1181">..*</text><text fill="#000000" font-family="sans-serif" font-size="11.7" lengthAdjust="spacing" textLength="6.3" x="209.67" y="564.9707">1</text></g><!--link PurchaseOrder to Announcement--><g id="link_PurchaseOrder_Announcement"><path codeLine="146" d="M556.101,359.0556 C502.596,384.2556 414.936,425.5476 359.244,451.7826 " fill="none" id="PurchaseOrder-Announcement" style="stroke:#181818;stroke-width:0.9;"/><polygon fill="#000000" points="455.379,415.8297,463.8706,414.7536,461.6164,409.9679,455.379,415.8297" style="stroke:#000000;stroke-width:0.9;"/><text fill="#000000" font-family="sans-serif" font-size="11.7" lengthAdjust="spacing" textLength="105.3" x="467.55" y="417.9683">of an announcement</text></g><!--link StoreManager to PurchaseOrder--><g id="link_StoreManager_PurchaseOrder"><path codeLine="147" d="M748.197,63.3606 C707.265,73.2876 647.82,94.6266 617.85,138.2766 C586.575,183.8256 588.582,250.0386 594.387,292.9146 " fill="none" id="StoreManager-PurchaseOrder" style="stroke:#181818;stroke-width:0.9;"/><polygon fill="#000000" points="619.8451,185.4505,626.5739,180.16,622.1791,177.2154,619.8451,185.4505" style="stroke:#000000;stroke-width:0.9;"/><text fill="#000000" font-family="sans-serif" font-size="11.7" lengthAdjust="spacing" textLength="88.2" x="630.45" y="185.7683">wants to analyse</text></g><!--SRC=[XLPDJnin4BtxLrXSAbLA1RSAHKXfI0LIQH21tXrxahNOjHVR2oo8_zxnv-ucHUsXMS_EcuytRxpOHwbQPbX36wqqhunkW3hJ0R7bJSlu8zl3nlKrK0FSCRMlnmwsOaA_IBMdErPR8EHB3Jj7dQP6xYj7XVGegHKPWNZDh5quP-IsSt3DjTh8Dw2dX5HI0ENIS4mIdXjmbHQM42STbd2f6oOLlT42QZgZ3vlJi- -4a12GtdQ6Lyp2sWWmxuJYlyw2MI6a3gVMw1QCwwylmr5xlqMZE-N2cN4EBNR8WNpaa62iLZG6Kwo1yE3Ow- -ksO899_3n5q8Oi3Q-XXhQIYj8JX-vm3kDBSHOKeGV0PORsGQ2YjlwHO51lsAunVzQRToI6P7mxSXqc2RL4XsjCm2nFovT7xDAj4hkaWDpiQqtsIwHM1-eP4wCvQpfUD-t4S8CiFKkUvNWdiEVgASbA4mVpPXblLiC50_6EtZgm3eIJBULTZeytHkcB4lYAStzw6GjlDxWrO4IHoLkGHYjcpY9BNFLS4BneGJt6nGrH0jxnj6nRGshfqws3IGXG3cLj5SQfLHovY9IIjHSmTPwbtZjrEgrrROpC8HPDMsjUu08nCrIl1-zpNdV8nVSqyVgAs0EaqM8D4kjXFIiU5l1BdNJI6jbKIilXZAjmVI7rTseh41wdh5_VhYx7WvfNSBpBvpkW1kDAA7TO2bfyNe1nqn_a3IDVR8F9jeklIG_YWeNWQSnPwcaif5GTlpJvVD1tFjmL0eNdqEaUrJ2S0laAY9WuxI16wQm0EF3ZCzqDYkZfUVq0ljeSGKnD0Wg5GcvwVzzUEyZJUwnvCf1FgDeazF9sGb6E_dsxUl9f97Wt7RRMjeg_thKs2LY4_a1e7UKaR96uVqi_AIB19siRzOUzPpAEQTDi5bwCQamHYbDez-SIelDKgQo-F-LToohSufKK3OM5dMeB4nr10ryH2r7M91igEg80V-PYjb6cvEJ3Ok2s7BZJDAKNKsWScSW8jppetxILoH7D_xrd4nkzS-zyqrFkVURapoKJn7f_Ppa6IUrUCVCc1yxYiDVAt7yyPipPYPqESXa7eChghqdIIcnW8Zq3WU27boo0j8UJ7WSCc2VSgyGY-Cxd5XmBRBSHzevVdmSs4yu6LgTiZBTBY_YmmNoX7Y93kOZuH-lw0jJplhIqQdkyI-Xlm00]--></g></svg>