<?xml version="1.0" encoding="us-ascii" standalone="no"?><svg xmlns="http://www.w3.org/2000/svg" xmlns:xlink="http://www.w3.org/1999/xlink" contentStyleType="text/css" height="1304px" preserveAspectRatio="none" style="width:1328px;height:1304px;background:#FFFFFF;" version="1.1" viewBox="0 0 1328 1304" width="1328px" zoomAndPan="magnify"><defs/><g><text fill="#000000" font-family="sans-serif" font-size="14" font-weight="bold" lengthAdjust="spacing" textLength="156" x="579.475" y="25.1074">Domain Model - US019</text><!--class PurchaseOrder--><g id="elem_PurchaseOrder"><rect codeLine="18" fill="#F1F1F1" height="92.4844" id="PurchaseOrder" rx="2.5" ry="2.5" style="stroke:#181818;stroke-width:0.5;" width="103" x="831.45" y="46.6211"/><text fill="#000000" font-family="sans-serif" font-size="14" lengthAdjust="spacing" textLength="97" x="834.45" y="66.7285">PurchaseOrder</text><line style="stroke:#181818;stroke-width:0.5;" x1="832.45" x2="933.45" y1="75.2422" y2="75.2422"/><text fill="#000000" font-family="sans-serif" font-size="14" lengthAdjust="spacing" textLength="62" x="837.45" y="94.3496">userEmail</text><text fill="#000000" font-family="sans-serif" font-size="14" lengthAdjust="spacing" textLength="82" x="837.45" y="112.9707">orderAmount</text><text fill="#000000" font-family="sans-serif" font-size="14" lengthAdjust="spacing" textLength="73" x="837.45" y="131.5918">acceptance</text></g><!--class Person--><g id="elem_Person"><rect codeLine="24" fill="#F1F1F1" height="111.1055" id="Person" rx="2.5" ry="2.5" style="stroke:#181818;stroke-width:0.5;" width="124" x="453.95" y="1052.6211"/><text fill="#000000" font-family="sans-serif" font-size="14" lengthAdjust="spacing" textLength="45" x="493.45" y="1072.7285">Person</text><line style="stroke:#181818;stroke-width:0.5;" x1="454.95" x2="576.95" y1="1081.2422" y2="1081.2422"/><text fill="#000000" font-family="sans-serif" font-size="14" lengthAdjust="spacing" textLength="35" x="459.95" y="1100.3496">name</text><text fill="#000000" font-family="sans-serif" font-size="14" lengthAdjust="spacing" textLength="67" x="459.95" y="1118.9707">taxNumber</text><text fill="#000000" font-family="sans-serif" font-size="14" lengthAdjust="spacing" textLength="85" x="459.95" y="1137.5918">emailAddress</text><text fill="#000000" font-family="sans-serif" font-size="14" lengthAdjust="spacing" textLength="112" x="459.95" y="1156.2129">telephoneNumber</text></g><!--class Role--><g id="elem_Role"><rect codeLine="31" fill="#F1F1F1" height="73.8633" id="Role" rx="2.5" ry="2.5" style="stroke:#181818;stroke-width:0.5;" width="81" x="466.45" y="871.6211"/><text fill="#000000" font-family="sans-serif" font-size="14" lengthAdjust="spacing" textLength="29" x="492.45" y="891.7285">Role</text><line style="stroke:#181818;stroke-width:0.5;" x1="467.45" x2="546.45" y1="900.2422" y2="900.2422"/><text fill="#000000" font-family="sans-serif" font-size="14" lengthAdjust="spacing" textLength="11" x="472.45" y="919.3496">id</text><text fill="#000000" font-family="sans-serif" font-size="14" lengthAdjust="spacing" textLength="69" x="472.45" y="937.9707">description</text></g><!--class Owner--><g id="elem_Owner"><rect codeLine="36" fill="#F1F1F1" height="36.6211" id="Owner" rx="2.5" ry="2.5" style="stroke:#181818;stroke-width:0.5;" width="47" x="139.45" y="1251.6211"/><text fill="#000000" font-family="sans-serif" font-size="14" lengthAdjust="spacing" textLength="41" x="142.45" y="1271.7285">Owner</text><line style="stroke:#181818;stroke-width:0.5;" x1="140.45" x2="185.45" y1="1280.2422" y2="1280.2422"/></g><!--class PassportCard--><g id="elem_PassportCard"><rect codeLine="39" fill="#F1F1F1" height="55.2422" id="PassportCard" rx="2.5" ry="2.5" style="stroke:#181818;stroke-width:0.5;" width="147" x="582.45" y="881.1211"/><text fill="#000000" font-family="sans-serif" font-size="14" lengthAdjust="spacing" textLength="87" x="612.45" y="901.2285">PassportCard</text><line style="stroke:#181818;stroke-width:0.5;" x1="583.45" x2="728.45" y1="909.7422" y2="909.7422"/><text fill="#000000" font-family="sans-serif" font-size="14" lengthAdjust="spacing" textLength="135" x="588.45" y="928.8496">passportCardNumber</text></g><!--class Address--><g id="elem_Address"><rect codeLine="43" fill="#F1F1F1" height="129.7266" id="Address" rx="2.5" ry="2.5" style="stroke:#181818;stroke-width:0.5;" width="63" x="368.45" y="843.6211"/><text fill="#000000" font-family="sans-serif" font-size="14" lengthAdjust="spacing" textLength="52" x="373.95" y="863.7285">Address</text><line style="stroke:#181818;stroke-width:0.5;" x1="369.45" x2="430.45" y1="872.2422" y2="872.2422"/><text fill="#000000" font-family="sans-serif" font-size="14" lengthAdjust="spacing" textLength="36" x="374.45" y="891.3496">street</text><text fill="#000000" font-family="sans-serif" font-size="14" lengthAdjust="spacing" textLength="21" x="374.45" y="909.9707">city</text><text fill="#000000" font-family="sans-serif" font-size="14" lengthAdjust="spacing" textLength="41" x="374.45" y="928.5918">district</text><text fill="#000000" font-family="sans-serif" font-size="14" lengthAdjust="spacing" textLength="31" x="374.45" y="947.2129">state</text><text fill="#000000" font-family="sans-serif" font-size="14" lengthAdjust="spacing" textLength="51" x="374.45" y="965.834">zipCode</text></g><!--class Property--><g id="elem_Property"><rect codeLine="53" fill="#F1F1F1" height="204.2109" id="Property" rx="2.5" ry="2.5" style="stroke:#181818;stroke-width:0.5;" width="141" x="472.45" y="560.6211"/><text fill="#000000" font-family="sans-serif" font-size="14" lengthAdjust="spacing" textLength="54" x="515.95" y="580.7285">Property</text><line style="stroke:#181818;stroke-width:0.5;" x1="473.45" x2="612.45" y1="589.2422" y2="589.2422"/><text fill="#000000" font-family="sans-serif" font-size="14" lengthAdjust="spacing" textLength="66" x="478.45" y="608.3496">propertyID</text><text fill="#000000" font-family="sans-serif" font-size="14" lengthAdjust="spacing" textLength="85" x="478.45" y="626.9707">propertyType</text><text fill="#000000" font-family="sans-serif" font-size="14" lengthAdjust="spacing" textLength="98" x="478.45" y="645.5918">areaOfProperty</text><text fill="#000000" font-family="sans-serif" font-size="14" lengthAdjust="spacing" textLength="129" x="478.45" y="664.2129">distanceFromCentre</text><text fill="#000000" font-family="sans-serif" font-size="14" lengthAdjust="spacing" textLength="117" x="478.45" y="682.834">dateOfAcceptance</text><text fill="#000000" font-family="sans-serif" font-size="14" lengthAdjust="spacing" textLength="96" x="478.45" y="701.4551">dateOfRequest</text><text fill="#000000" font-family="sans-serif" font-size="14" lengthAdjust="spacing" textLength="4" x="478.45" y="720.0762">&#160;</text><text fill="#000000" font-family="sans-serif" font-size="14" lengthAdjust="spacing" textLength="37" x="478.45" y="738.6973">Photo</text><text fill="#000000" font-family="sans-serif" font-size="14" lengthAdjust="spacing" textLength="75" x="478.45" y="757.3184">Transaction</text></g><!--class Building--><g id="elem_Building"><rect codeLine="66" fill="#F1F1F1" height="129.7266" id="Building" rx="2.5" ry="2.5" style="stroke:#181818;stroke-width:0.5;" width="135" x="92.45" y="843.6211"/><text fill="#000000" font-family="sans-serif" font-size="14" lengthAdjust="spacing" textLength="50" x="134.95" y="863.7285">Building</text><line style="stroke:#181818;stroke-width:0.5;" x1="93.45" x2="226.45" y1="872.2422" y2="872.2422"/><text fill="#000000" font-family="sans-serif" font-size="14" lengthAdjust="spacing" textLength="63" x="98.45" y="891.3496">bedrooms</text><text fill="#000000" font-family="sans-serif" font-size="14" lengthAdjust="spacing" textLength="67" x="98.45" y="909.9707">bathrooms</text><text fill="#000000" font-family="sans-serif" font-size="14" lengthAdjust="spacing" textLength="94" x="98.45" y="928.5918">parkingSpaces</text><text fill="#000000" font-family="sans-serif" font-size="14" lengthAdjust="spacing" textLength="123" x="98.45" y="947.2129">availableEquipment</text><text fill="#000000" font-family="sans-serif" font-size="14" lengthAdjust="spacing" textLength="66" x="98.45" y="965.834">equipment</text></g><!--class House--><g id="elem_House"><rect codeLine="74" fill="#F1F1F1" height="92.4844" id="House" rx="2.5" ry="2.5" style="stroke:#181818;stroke-width:0.5;" width="94" x="254.95" y="1062.1211"/><text fill="#000000" font-family="sans-serif" font-size="14" lengthAdjust="spacing" textLength="40" x="281.95" y="1082.2285">House</text><line style="stroke:#181818;stroke-width:0.5;" x1="255.95" x2="347.95" y1="1090.7422" y2="1090.7422"/><text fill="#000000" font-family="sans-serif" font-size="14" lengthAdjust="spacing" textLength="62" x="260.95" y="1109.8496">basement</text><text fill="#000000" font-family="sans-serif" font-size="14" lengthAdjust="spacing" textLength="19" x="260.95" y="1128.4707">loft</text><text fill="#000000" font-family="sans-serif" font-size="14" lengthAdjust="spacing" textLength="82" x="260.95" y="1147.0918">sunExposure</text></g><!--class Employee--><g id="elem_Employee"><rect codeLine="80" fill="#F1F1F1" height="55.2422" id="Employee" rx="2.5" ry="2.5" style="stroke:#181818;stroke-width:0.5;" width="68" x="989.95" y="1242.6211"/><text fill="#000000" font-family="sans-serif" font-size="14" lengthAdjust="spacing" textLength="62" x="992.95" y="1262.7285">Employee</text><line style="stroke:#181818;stroke-width:0.5;" x1="990.95" x2="1056.95" y1="1271.2422" y2="1271.2422"/><text fill="#000000" font-family="sans-serif" font-size="14" lengthAdjust="spacing" textLength="46" x="995.95" y="1290.3496">agency</text></g><!--class Equipment--><g id="elem_Equipment"><rect codeLine="84" fill="#F1F1F1" height="73.8633" id="Equipment" rx="2.5" ry="2.5" style="stroke:#181818;stroke-width:0.5;" width="107" x="112.45" y="1071.1211"/><text fill="#000000" font-family="sans-serif" font-size="14" lengthAdjust="spacing" textLength="67" x="132.45" y="1091.2285">Equipment</text><line style="stroke:#181818;stroke-width:0.5;" x1="113.45" x2="218.45" y1="1099.7422" y2="1099.7422"/><text fill="#000000" font-family="sans-serif" font-size="14" lengthAdjust="spacing" textLength="91" x="118.45" y="1118.8496">centralHeating</text><text fill="#000000" font-family="sans-serif" font-size="14" lengthAdjust="spacing" textLength="95" x="118.45" y="1137.4707">airConditioning</text></g><!--class Commission--><g id="elem_Commission"><rect codeLine="90" fill="#F1F1F1" height="73.8633" id="Commission" rx="2.5" ry="2.5" style="stroke:#181818;stroke-width:0.5;" width="121" x="441.45" y="407.6211"/><text fill="#000000" font-family="sans-serif" font-size="14" lengthAdjust="spacing" textLength="76" x="463.95" y="427.7285">Commission</text><line style="stroke:#181818;stroke-width:0.5;" x1="442.45" x2="561.45" y1="436.2422" y2="436.2422"/><text fill="#000000" font-family="sans-serif" font-size="14" lengthAdjust="spacing" textLength="105" x="447.45" y="455.3496">commissionType</text><text fill="#000000" font-family="sans-serif" font-size="14" lengthAdjust="spacing" textLength="109" x="447.45" y="473.9707">commissionValue</text></g><!--class Photo--><g id="elem_Photo"><rect codeLine="95" fill="#F1F1F1" height="92.4844" id="Photo" rx="2.5" ry="2.5" style="stroke:#181818;stroke-width:0.5;" width="70" x="262.95" y="862.6211"/><text fill="#000000" font-family="sans-serif" font-size="14" lengthAdjust="spacing" textLength="37" x="279.45" y="882.7285">Photo</text><line style="stroke:#181818;stroke-width:0.5;" x1="263.95" x2="331.95" y1="891.2422" y2="891.2422"/><text fill="#000000" font-family="sans-serif" font-size="14" lengthAdjust="spacing" textLength="58" x="268.95" y="910.3496">photoURI</text><text fill="#000000" font-family="sans-serif" font-size="14" lengthAdjust="spacing" textLength="49" x="268.95" y="928.9707">photoID</text><text fill="#000000" font-family="sans-serif" font-size="14" lengthAdjust="spacing" textLength="58" x="268.95" y="947.5918">photoList</text></g><!--class Transaction--><g id="elem_Transaction"><rect codeLine="101" fill="#F1F1F1" height="73.8633" id="Transaction" rx="2.5" ry="2.5" style="stroke:#181818;stroke-width:0.5;" width="114" x="764.95" y="871.6211"/><text fill="#000000" font-family="sans-serif" font-size="14" lengthAdjust="spacing" textLength="75" x="784.45" y="891.7285">Transaction</text><line style="stroke:#181818;stroke-width:0.5;" x1="765.95" x2="877.95" y1="900.2422" y2="900.2422"/><text fill="#000000" font-family="sans-serif" font-size="14" lengthAdjust="spacing" textLength="102" x="770.95" y="919.3496">transactionType</text><text fill="#000000" font-family="sans-serif" font-size="14" lengthAdjust="spacing" textLength="95" x="770.95" y="937.9707">monetaryValue</text></g><!--class Request--><g id="elem_Request"><rect codeLine="106" fill="#F1F1F1" height="73.8633" id="Request" rx="2.5" ry="2.5" style="stroke:#181818;stroke-width:0.5;" width="90" x="273.95" y="625.6211"/><text fill="#000000" font-family="sans-serif" font-size="14" lengthAdjust="spacing" textLength="53" x="292.45" y="645.7285">Request</text><line style="stroke:#181818;stroke-width:0.5;" x1="274.95" x2="362.95" y1="654.2422" y2="654.2422"/><text fill="#000000" font-family="sans-serif" font-size="14" lengthAdjust="spacing" textLength="11" x="279.95" y="673.3496">id</text><text fill="#000000" font-family="sans-serif" font-size="14" lengthAdjust="spacing" textLength="78" x="279.95" y="691.9707">requestDate</text></g><!--class Agency--><g id="elem_Agency"><rect codeLine="112" fill="#F1F1F1" height="111.1055" id="Agency" rx="2.5" ry="2.5" style="stroke:#181818;stroke-width:0.5;" width="124" x="953.95" y="217.6211"/><text fill="#000000" font-family="sans-serif" font-size="14" lengthAdjust="spacing" textLength="47" x="992.45" y="237.7285">Agency</text><line style="stroke:#181818;stroke-width:0.5;" x1="954.95" x2="1076.95" y1="246.2422" y2="246.2422"/><text fill="#000000" font-family="sans-serif" font-size="14" lengthAdjust="spacing" textLength="59" x="959.95" y="265.3496">agencyID</text><text fill="#000000" font-family="sans-serif" font-size="14" lengthAdjust="spacing" textLength="35" x="959.95" y="283.9707">name</text><text fill="#000000" font-family="sans-serif" font-size="14" lengthAdjust="spacing" textLength="33" x="959.95" y="302.5918">email</text><text fill="#000000" font-family="sans-serif" font-size="14" lengthAdjust="spacing" textLength="112" x="959.95" y="321.2129">telephoneNumber</text></g><!--class Agent--><g id="elem_Agent"><rect codeLine="119" fill="#F1F1F1" height="36.6211" id="Agent" rx="2.5" ry="2.5" style="stroke:#181818;stroke-width:0.5;" width="43" x="804.45" y="426.1211"/><text fill="#000000" font-family="sans-serif" font-size="14" lengthAdjust="spacing" textLength="37" x="807.45" y="446.2285">Agent</text><line style="stroke:#181818;stroke-width:0.5;" x1="805.45" x2="846.45" y1="454.7422" y2="454.7422"/></g><!--class Announcement--><g id="elem_Announcement"><rect codeLine="121" fill="#F1F1F1" height="73.8633" id="Announcement" rx="2.5" ry="2.5" style="stroke:#181818;stroke-width:0.5;" width="115" x="635.45" y="236.1211"/><text fill="#000000" font-family="sans-serif" font-size="14" lengthAdjust="spacing" textLength="95" x="645.45" y="256.2285">Announcement</text><line style="stroke:#181818;stroke-width:0.5;" x1="636.45" x2="749.45" y1="264.7422" y2="264.7422"/><text fill="#000000" font-family="sans-serif" font-size="14" lengthAdjust="spacing" textLength="11" x="641.45" y="283.8496">id</text><text fill="#000000" font-family="sans-serif" font-size="14" lengthAdjust="spacing" textLength="103" x="641.45" y="302.4707">acceptanceDate</text></g><!--class NetworkManager--><g id="elem_NetworkManager"><rect fill="#F1F1F1" height="36.6211" id="NetworkManager" rx="2.5" ry="2.5" style="stroke:#181818;stroke-width:0.5;" width="112" x="1124.95" y="74.1211"/><text fill="#000000" font-family="sans-serif" font-size="14" lengthAdjust="spacing" textLength="106" x="1127.95" y="94.2285">NetworkManager</text><line style="stroke:#181818;stroke-width:0.5;" x1="1125.95" x2="1235.95" y1="102.7422" y2="102.7422"/></g><!--reverse link Property to Building--><g id="link_Property_Building"><path d="M455.1,722.9711 C431.56,737.5911 405.75,752.5111 380.95,764.6211 C346.07,781.6411 332.69,775.4511 298.95,794.6211 C274.21,808.6811 249.39,827.1211 227.72,845.0211 " fill="none" id="Property-backto-Building" style="stroke:#181818;stroke-width:1.0;"/><polygon fill="none" points="451.55,716.9411,472.19,712.1711,459.03,728.7711,451.55,716.9411" style="stroke:#181818;stroke-width:1.0;"/></g><!--reverse link Building to House--><g id="link_Building_House"><path d="M243.06,974.0111 C256.16,985.4211 267.01,996.0511 271.95,1003.6211 C283.28,1021.0211 290.43,1042.7911 294.89,1061.8711 " fill="none" id="Building-backto-House" style="stroke:#181818;stroke-width:1.0;"/><polygon fill="none" points="238.31,979.1611,227.52,960.9311,247.33,968.4511,238.31,979.1611" style="stroke:#181818;stroke-width:1.0;"/></g><!--link Agent to Employee--><g id="link_Agent_Employee"><path codeLine="126" d="M844.63,463.2911 C879.04,497.8611 948.95,578.3311 948.95,661.6211 C948.95,661.6211 948.95,661.6211 948.95,1109.1211 C948.95,1160.0511 980.48,1212.2011 1002.66,1242.5811 " fill="none" id="Agent-Employee" style="stroke:#181818;stroke-width:1.0;"/><polygon fill="#000000" points="954.9437,913.6669,956.0264,904.2181,950.2658,905.3863,954.9437,913.6669" style="stroke:#000000;stroke-width:1.0;"/><text fill="#000000" font-family="sans-serif" font-size="13" lengthAdjust="spacing" textLength="82" x="962.95" y="914.1494">represented in</text></g><!--link Agency to Announcement--><g id="link_Agency_Announcement"><path codeLine="127" d="M953.61,226.5211 C926.24,209.0611 892.79,191.5411 859.45,183.6211 C812.32,172.4211 792.96,160.4011 750.45,183.6211 C730.02,194.7711 715.78,216.6311 706.57,235.9511 " fill="none" id="Agency-Announcement" style="stroke:#181818;stroke-width:1.0;"/><polygon fill="#000000" points="750.4536,178.4573,759.6042,181.0491,759.38,175.1755,750.4536,178.4573" style="stroke:#000000;stroke-width:1.0;"/><text fill="#000000" font-family="sans-serif" font-size="13" lengthAdjust="spacing" textLength="94" x="764.45" y="183.6494">wants to publish</text><text fill="#000000" font-family="sans-serif" font-size="13" lengthAdjust="spacing" textLength="7" x="938.9973" y="217.1892">1</text><text fill="#000000" font-family="sans-serif" font-size="13" lengthAdjust="spacing" textLength="13" x="694.8383" y="224.8825">..*</text></g><!--link Announcement to Request--><g id="link_Announcement_Request"><path codeLine="128" d="M679.86,310.2411 C662.42,354.6111 628.05,430.2911 579.95,481.6211 C535.01,529.5811 509.14,523.4511 454.95,560.6211 C424.02,581.8311 390.17,606.9711 363.97,626.8611 " fill="none" id="Announcement-Request" style="stroke:#181818;stroke-width:1.0;"/><polygon fill="#000000" points="633.4185,448.3062,641.8875,443.9787,637.7265,439.8273,633.4185,448.3062" style="stroke:#000000;stroke-width:1.0;"/><text fill="#000000" font-family="sans-serif" font-size="13" lengthAdjust="spacing" textLength="21" x="645.95" y="450.1494">of a</text><text fill="#000000" font-family="sans-serif" font-size="13" lengthAdjust="spacing" textLength="7" x="670.0086" y="332.1471">1</text></g><!--link Property to Address--><g id="link_Property_Address"><path codeLine="129" d="M528.7,764.9411 C523,782.3611 515.04,799.4111 503.95,813.6211 C486.81,835.5711 470.09,825.5011 448.95,843.6211 C442.78,848.9011 436.9,855.0711 431.48,861.4611 " fill="none" id="Property-Address" style="stroke:#181818;stroke-width:1.0;"/><text fill="#000000" font-family="sans-serif" font-size="13" lengthAdjust="spacing" textLength="36" x="516.95" y="809.6494">stores</text><text fill="#000000" font-family="sans-serif" font-size="13" lengthAdjust="spacing" textLength="7" x="520.452" y="786.7643">1</text><text fill="#000000" font-family="sans-serif" font-size="13" lengthAdjust="spacing" textLength="7" x="439.5807" y="845.6833">1</text></g><!--link Address to Property--><g id="link_Address_Property"><path codeLine="144" d="M397.87,843.4011 C399.39,826.8911 402.89,809.5811 409.95,794.6211 C424.12,764.5711 448.26,737.5911 472.12,716.0311 " fill="none" id="Address-Property" style="stroke:#181818;stroke-width:1.0;"/><polygon fill="#000000" points="412.4319,808.5862,419.5262,802.2521,414.4482,799.2918,412.4319,808.5862" style="stroke:#000000;stroke-width:1.0;"/><text fill="#000000" font-family="sans-serif" font-size="13" lengthAdjust="spacing" textLength="71" x="423.95" y="809.6494">has address</text><text fill="#000000" font-family="sans-serif" font-size="13" lengthAdjust="spacing" textLength="7" x="390.2597" y="832.3972">1</text><text fill="#000000" font-family="sans-serif" font-size="13" lengthAdjust="spacing" textLength="7" x="457.4547" y="736.448">1</text></g><!--link Agency to Employee--><g id="link_Agency_Employee"><path codeLine="130" d="M1058.42,328.9211 C1078.84,360.6311 1098.95,402.3411 1098.95,443.6211 C1098.95,443.6211 1098.95,443.6211 1098.95,1109.1211 C1098.95,1160.0511 1067.41,1212.2011 1045.24,1242.5811 " fill="none" id="Agency-Employee" style="stroke:#181818;stroke-width:1.0;"/><polygon fill="#000000" points="1104.0221,799.2671,1100.953,808.2689,1106.8303,808.3537,1104.0221,799.2671" style="stroke:#000000;stroke-width:1.0;"/><text fill="#000000" font-family="sans-serif" font-size="13" lengthAdjust="spacing" textLength="88" x="1112.95" y="809.6494">is in an agency</text><text fill="#000000" font-family="sans-serif" font-size="13" lengthAdjust="spacing" textLength="7" x="1056.1695" y="350.7973">1</text><text fill="#000000" font-family="sans-serif" font-size="13" lengthAdjust="spacing" textLength="7" x="1042.3539" y="1231.2808">1</text></g><!--link Property to Transaction--><g id="link_Property_Transaction"><path codeLine="131" d="M613.71,725.5111 C666.5,771.6711 736.8,833.1511 780.71,871.5611 " fill="none" id="Property-Transaction" style="stroke:#181818;stroke-width:1.0;"/><polygon fill="#000000" points="715.7137,807.5582,710.8398,799.3914,706.9704,803.8159,715.7137,807.5582" style="stroke:#000000;stroke-width:1.0;"/><text fill="#000000" font-family="sans-serif" font-size="13" lengthAdjust="spacing" textLength="129" x="720.95" y="809.6494">has a transaction type</text><text fill="#000000" font-family="sans-serif" font-size="13" lengthAdjust="spacing" textLength="7" x="621.3681" y="728.1525">1</text><text fill="#000000" font-family="sans-serif" font-size="13" lengthAdjust="spacing" textLength="7" x="765.4611" y="860.2287">1</text></g><!--link Property to Photo--><g id="link_Property_Photo"><path codeLine="132" d="M472.26,710.2411 C444.27,728.0211 411.52,748.0011 380.95,764.6211 C353.35,779.6211 335.95,769.6011 316.95,794.6211 C302.39,813.7911 297.35,840.0811 296.08,862.4811 " fill="none" id="Property-Photo" style="stroke:#181818;stroke-width:1.0;"/><polygon fill="#000000" points="318.1668,807.5357,326.9322,803.8455,323.0891,799.3981,318.1668,807.5357" style="stroke:#000000;stroke-width:1.0;"/><text fill="#000000" font-family="sans-serif" font-size="13" lengthAdjust="spacing" textLength="64" x="330.95" y="809.6494">has photos</text><text fill="#000000" font-family="sans-serif" font-size="13" lengthAdjust="spacing" textLength="7" x="457.6092" y="711.3078">1</text><text fill="#000000" font-family="sans-serif" font-size="13" lengthAdjust="spacing" textLength="13" x="281.8507" y="851.47">..*</text></g><!--link Announcement to Commission--><g id="link_Announcement_Commission"><path codeLine="133" d="M635.33,282.0711 C589.74,291.7211 528.95,312.8311 498.95,358.6211 C489.64,372.8211 489.3,391.4211 491.75,407.5911 " fill="none" id="Announcement-Commission" style="stroke:#181818;stroke-width:1.0;"/><polygon fill="#000000" points="500.1857,371.5575,508.9297,367.8169,505.0611,363.3916,500.1857,371.5575" style="stroke:#000000;stroke-width:1.0;"/><text fill="#000000" font-family="sans-serif" font-size="13" lengthAdjust="spacing" textLength="106" x="512.95" y="373.6494">has a commission</text><text fill="#000000" font-family="sans-serif" font-size="13" lengthAdjust="spacing" textLength="7" x="620.499" y="279.1845">1</text><text fill="#000000" font-family="sans-serif" font-size="13" lengthAdjust="spacing" textLength="7" x="482.2241" y="396.2643">1</text></g><!--link Building to Equipment--><g id="link_Building_Equipment"><path codeLine="134" d="M161.9,973.7411 C162.87,1005.9611 164.02,1043.8011 164.85,1070.9311 " fill="none" id="Building-Equipment" style="stroke:#181818;stroke-width:1.0;"/><polygon fill="#000000" points="169.1017,1018.2643,171.7648,1009.1342,165.8897,1009.3125,169.1017,1018.2643" style="stroke:#000000;stroke-width:1.0;"/><text fill="#000000" font-family="sans-serif" font-size="13" lengthAdjust="spacing" textLength="85" x="177.95" y="1018.6494">has equipment</text><text fill="#000000" font-family="sans-serif" font-size="13" lengthAdjust="spacing" textLength="7" x="154.7402" y="995.3906">1</text><text fill="#000000" font-family="sans-serif" font-size="13" lengthAdjust="spacing" textLength="13" x="150.4962" y="1059.859">..*</text></g><!--link Role to Person--><g id="link_Role_Person"><path codeLine="135" d="M508.6,945.8411 C509.96,975.6911 511.91,1018.4811 513.46,1052.4811 " fill="none" id="Role-Person" style="stroke:#181818;stroke-width:1.0;"/><polygon fill="#000000" points="517.7224,1008.2718,515.1983,1017.4413,521.07,1017.1737,517.7224,1008.2718" style="stroke:#000000;stroke-width:1.0;"/><text fill="#000000" font-family="sans-serif" font-size="13" lengthAdjust="spacing" textLength="57" x="526.95" y="1018.6494">has a role</text><text fill="#000000" font-family="sans-serif" font-size="13" lengthAdjust="spacing" textLength="7" x="501.2936" y="967.4772">1</text><text fill="#000000" font-family="sans-serif" font-size="13" lengthAdjust="spacing" textLength="7" x="505.6925" y="1041.3034">1</text></g><!--link PassportCard to Person--><g id="link_PassportCard_Person"><path codeLine="136" d="M643.31,936.2311 C631.6,959.8111 613.02,994.7311 592.95,1022.6211 C585.76,1032.6111 577.54,1042.7111 569.2,1052.3011 " fill="none" id="PassportCard-Person" style="stroke:#181818;stroke-width:1.0;"/><polygon fill="#000000" points="611.6408,1009.0524,604.2961,1015.0944,609.2502,1018.2576,611.6408,1009.0524" style="stroke:#000000;stroke-width:1.0;"/><text fill="#000000" font-family="sans-serif" font-size="13" lengthAdjust="spacing" textLength="115" x="617.95" y="1018.6494">has a passport card</text><text fill="#000000" font-family="sans-serif" font-size="13" lengthAdjust="spacing" textLength="7" x="632.5776" y="958.6155">1</text><text fill="#000000" font-family="sans-serif" font-size="13" lengthAdjust="spacing" textLength="7" x="568.2633" y="1041.5017">1</text></g><!--link Address to Person--><g id="link_Address_Person"><path codeLine="137" d="M402.31,973.7811 C404.98,990.4611 409.72,1007.8711 417.95,1022.6211 C426.86,1038.6111 440.03,1052.9911 453.85,1065.1511 " fill="none" id="Address-Person" style="stroke:#181818;stroke-width:1.0;"/><polygon fill="#000000" points="420.4935,1008.9117,422.3776,1018.2337,427.4971,1015.3459,420.4935,1008.9117" style="stroke:#000000;stroke-width:1.0;"/><text fill="#000000" font-family="sans-serif" font-size="13" lengthAdjust="spacing" textLength="71" x="431.95" y="1018.6494">has address</text><text fill="#000000" font-family="sans-serif" font-size="13" lengthAdjust="spacing" textLength="7" x="395.1924" y="995.4347">1</text><text fill="#000000" font-family="sans-serif" font-size="13" lengthAdjust="spacing" textLength="7" x="438.855" y="1055.9178">1</text></g><!--link Request to Property--><g id="link_Request_Property"><path codeLine="138" d="M364.01,662.6211 C395.05,662.6211 436.94,662.6211 472.38,662.6211 " fill="none" id="Request-Property" style="stroke:#181818;stroke-width:1.0;"/><polygon fill="#000000" points="391.2,650.2666,382.1549,647.3277,382.1549,653.2055,391.2,650.2666" style="stroke:#000000;stroke-width:1.0;"/><text fill="#000000" font-family="sans-serif" font-size="13" lengthAdjust="spacing" textLength="59" x="395.2" y="655.6494">listing of a</text><text fill="#000000" font-family="sans-serif" font-size="13" lengthAdjust="spacing" textLength="7" x="372.0528" y="658.277">1</text><text fill="#000000" font-family="sans-serif" font-size="13" lengthAdjust="spacing" textLength="7" x="457.2786" y="658.7241">1</text></g><!--link Request to Owner--><g id="link_Request_Owner"><path codeLine="139" d="M273.52,682.5211 C216.06,709.1111 119.26,763.4611 74.95,843.6211 C6,968.3311 39.74,1032.2511 94.95,1163.6211 C108.96,1196.9711 133.39,1231.4311 148.84,1251.5411 " fill="none" id="Request-Owner" style="stroke:#181818;stroke-width:1.0;"/><polygon fill="#000000" points="46.8798,1018.1507,51.6866,1009.9443,45.945,1008.6862,46.8798,1018.1507" style="stroke:#000000;stroke-width:1.0;"/><text fill="#000000" font-family="sans-serif" font-size="13" lengthAdjust="spacing" textLength="77" x="56.95" y="1018.6494">has an owner</text><text fill="#000000" font-family="sans-serif" font-size="13" lengthAdjust="spacing" textLength="13" x="252.8928" y="681.2552">..*</text><text fill="#000000" font-family="sans-serif" font-size="13" lengthAdjust="spacing" textLength="7" x="136.4469" y="1240.3787">1</text></g><!--link Person to Owner--><g id="link_Person_Owner"><path codeLine="140" d="M453.65,1137.3611 C374.28,1173.3311 240.92,1233.7811 186.82,1258.3011 " fill="none" id="Person-Owner" style="stroke:#181818;stroke-width:1.0;"/><polygon fill="#000000" points="338.5041,1201.2025,329.0524,1202.2597,331.4789,1207.6133,338.5041,1201.2025" style="stroke:#000000;stroke-width:1.0;"/><text fill="#000000" font-family="sans-serif" font-size="13" lengthAdjust="spacing" textLength="82" x="342.95" y="1208.6494">represented in</text></g><!--link Person to Employee--><g id="link_Person_Employee"><path codeLine="141" d="M577.98,1128.6611 C686.11,1162.7111 905.58,1231.8411 989.9,1258.4011 " fill="none" id="Person-Employee" style="stroke:#181818;stroke-width:1.0;"/></g><!--link Agent to Request--><g id="link_Agent_Request"><path codeLine="142" d="M804.25,457.0811 C760.34,480.2711 665.06,530.5811 664.95,530.6211 C575.27,559.7211 542.14,524.7511 454.95,560.6211 C418.23,575.7311 382.42,602.9911 356.77,625.3811 " fill="none" id="Agent-Request" style="stroke:#181818;stroke-width:1.0;"/><polygon fill="#000000" points="699.2701,523.0268,708.7707,522.5934,706.7016,517.0918,699.2701,523.0268" style="stroke:#000000;stroke-width:1.0;"/><text fill="#000000" font-family="sans-serif" font-size="13" lengthAdjust="spacing" textLength="67" x="712.95" y="526.6494">assigned to</text><text fill="#000000" font-family="sans-serif" font-size="13" lengthAdjust="spacing" textLength="7" x="789.5325" y="455.4247">1</text><text fill="#000000" font-family="sans-serif" font-size="13" lengthAdjust="spacing" textLength="13" x="349.3489" y="614.3001">..*</text></g><!--link Agent to Request--><g id="link_Agent_Request"><path codeLine="145" d="M823.19,463.2611 C819.06,483.1911 809.22,514.8711 786.95,530.6211 C726.46,573.3811 524.16,534.2211 454.95,560.6211 C417.44,574.9311 381.26,602.6911 355.66,625.5011 " fill="none" id="Agent-Request-1" style="stroke:#181818;stroke-width:1.0;"/><polygon fill="#000000" points="804.2263,522.9058,813.735,522.717,811.808,517.164,804.2263,522.9058" style="stroke:#000000;stroke-width:1.0;"/><text fill="#000000" font-family="sans-serif" font-size="13" lengthAdjust="spacing" textLength="51" x="817.95" y="526.6494">approves</text><text fill="#000000" font-family="sans-serif" font-size="13" lengthAdjust="spacing" textLength="7" x="814.5076" y="484.6733">1</text><text fill="#000000" font-family="sans-serif" font-size="13" lengthAdjust="spacing" textLength="13" x="363.3568" y="614.4414">..*</text></g><!--link Announcement to Agent--><g id="link_Announcement_Agent"><path codeLine="143" d="M721.48,310.4811 C749.42,346.0811 790.79,398.8211 812.12,426.0011 " fill="none" id="Announcement-Agent" style="stroke:#181818;stroke-width:1.0;"/><polygon fill="#000000" points="772.8635,364.3329,776.1348,373.2632,780.7592,369.6348,772.8635,364.3329" style="stroke:#000000;stroke-width:1.0;"/><text fill="#000000" font-family="sans-serif" font-size="13" lengthAdjust="spacing" textLength="43" x="784.95" y="373.6494">creates</text><text fill="#000000" font-family="sans-serif" font-size="13" lengthAdjust="spacing" textLength="13" x="712.1287" y="332.1404">..*</text><text fill="#000000" font-family="sans-serif" font-size="13" lengthAdjust="spacing" textLength="7" x="799.8127" y="414.8265">1</text></g><!--link NetworkManager to Employee--><g id="link_NetworkManager_Employee"><path codeLine="147" d="M1188.31,111.2511 C1200.84,142.8911 1224.95,211.6411 1224.95,272.1211 C1224.95,272.1211 1224.95,272.1211 1224.95,1109.1211 C1224.95,1193.4211 1115.39,1240.4511 1058.04,1259.3011 " fill="none" id="NetworkManager-Employee" style="stroke:#181818;stroke-width:1.0;"/><polygon fill="#000000" points="1229.3863,667.7347,1233.3263,659.0787,1227.4859,658.416,1229.3863,667.7347" style="stroke:#000000;stroke-width:1.0;"/><text fill="#000000" font-family="sans-serif" font-size="13" lengthAdjust="spacing" textLength="82" x="1238.95" y="668.1494">represented in</text></g><!--link NetworkManager to PurchaseOrder--><g id="link_NetworkManager_PurchaseOrder"><path codeLine="148" d="M1124.69,92.6211 C1069.98,92.6211 987.57,92.6211 934.51,92.6211 " fill="none" id="NetworkManager-PurchaseOrder" style="stroke:#181818;stroke-width:1.0;"/><polygon fill="#000000" points="951.7,80.2666,960.7451,83.2055,960.7451,77.3277,951.7,80.2666" style="stroke:#000000;stroke-width:1.0;"/><text fill="#000000" font-family="sans-serif" font-size="13" lengthAdjust="spacing" textLength="141" x="965.7" y="85.6494">analyzes performance of</text></g><!--link PurchaseOrder to NetworkManager--><g id="link_PurchaseOrder_NetworkManager"><path codeLine="149" d="M934.67,104.1611 C955.94,108.3511 980.88,112.5611 1003.7,114.6211 C1044.31,118.2911 1089.97,112.3811 1124.77,105.7711 " fill="none" id="PurchaseOrder-NetworkManager" style="stroke:#181818;stroke-width:1.0;"/><polygon fill="#000000" points="1013.6998,105.3089,1004.6799,102.2935,1004.6302,108.1712,1013.6998,105.3089" style="stroke:#000000;stroke-width:1.0;"/><text fill="#000000" font-family="sans-serif" font-size="13" lengthAdjust="spacing" textLength="37" x="1017.7" y="110.6494">shows</text></g><!--link PurchaseOrder to Announcement--><g id="link_PurchaseOrder_Announcement"><path codeLine="150" d="M831.31,101.5311 C790.91,110.5611 736.74,129.5211 706.95,168.6211 C692.55,187.5111 689.22,214.1711 689.4,235.7011 " fill="none" id="PurchaseOrder-Announcement" style="stroke:#181818;stroke-width:1.0;"/><polygon fill="#000000" points="708.3168,181.7017,716.9084,177.6231,712.8703,173.352,708.3168,181.7017" style="stroke:#000000;stroke-width:1.0;"/><text fill="#000000" font-family="sans-serif" font-size="13" lengthAdjust="spacing" textLength="21" x="720.95" y="183.6494">has</text><text fill="#000000" font-family="sans-serif" font-size="13" lengthAdjust="spacing" textLength="7" x="816.5559" y="98.6035">1</text><text fill="#000000" font-family="sans-serif" font-size="13" lengthAdjust="spacing" textLength="7" x="681.1883" y="224.8737">1</text></g><!--link PurchaseOrder to Agent--><g id="link_PurchaseOrder_Agent"><path codeLine="151" d="M875.68,138.8811 C866.67,194.9411 850.8,293.3411 836.95,377.6211 C834.25,394.0111 831.14,412.6811 828.91,425.9811 " fill="none" id="PurchaseOrder-Agent" style="stroke:#181818;stroke-width:1.0;"/><polygon fill="#000000" points="866.1461,278.2015,870.5011,269.7467,864.6997,268.8016,866.1461,278.2015" style="stroke:#000000;stroke-width:1.0;"/><text fill="#000000" font-family="sans-serif" font-size="13" lengthAdjust="spacing" textLength="21" x="875.95" y="278.6494">has</text><text fill="#000000" font-family="sans-serif" font-size="13" lengthAdjust="spacing" textLength="7" x="867.0308" y="161.2797">1</text><text fill="#000000" font-family="sans-serif" font-size="13" lengthAdjust="spacing" textLength="7" x="821.7446" y="414.8004">1</text></g><!--SRC=[VLRRRjiu47tdLn1v2R10YlQnXH70wsJH06rJ9Es-ZwcnHKGYLN9KnmdwxpkyY9JSUlCGyt9cpbpEqFPFsWpWe9UzDLQrplOeoOqeVBaPG3t17X_fsA5qg0ZClfi3V0kDFMYpbpleF0fnsU6E95dfzBubsUXWfQqHCoFLWVTh8gUt8-6TikPHlw1yAqIh6vHAEyKaSTqZjRRnGf0c3k76zg2D_6mRxEIL_FxuzjrxvemEvTSEQ6TTBr_5fPHN3Nhbz139Bty9aK6ZKorul7SDkbSX-M_qw6xPRnTtDboiUpiQYdjG2WVEMw6eJj1vQsGoDz1ZN10yVndxBRgum-1ntJGElK_NsE7GMeCPLBmzMCui-T9D_9Y7Nc3t1uEESJKA_ZTOHnjmJROVPaUdD3cM1FJa45E2IjCniMe-rOeo02YbzQA73TSxE2hCpWxew9X9y-xkPh7zTXoI0t08zxl9fb25alx3ejkWuM3ICNFUxzQrulNm0N-Cw4d4ew-j9HjNtnmO3rbX9TM_HzqrGPJuJ6YQ6d0kqnORPssV-h85QkkE5SewtJ-oyZ6Tm4zk96mxlFqnwg77h0iikqBxqRAK2kSKHAPapHNRpkvobKTp-pnOFxgPkcxxeRD7n6J8usVKSNOxyRwcMgXGFkW-8X2J9HFjDjOqEbGbd1NRZUrxxRqksbNbe7Ih7lqBtJWNVIZwfBEm_lvmLpTJyyFw4tUtsirQbAsfdXHQVeEGm1rFI7FR5zFXqjbD4EYleibrhDEyPZcaCfzOPlpiA0Odz5gtnl0xe32LUnP2VHIcAA8bFqbJy-G7USsH3ZnoV86Dr4Qa4EN5kmi6NhnvyzV5WY6Q7C2G3-_dC6uxxLknG2JJN9I8jpi9eiWxtb_5Zppk3F9aURLWJv0IAuDMKdkEKOAP5FSdf_DUVf3yZagOTrCIjrDU_suQSqq2IcPH9vwXlwUNc6PIdOYgCjckZFY2eWn7DYf3oXRncPqnv4Tyykx2zKei7jNpwEcXbIhWLcAgzbcBVByIK_Eo2W9mgbRe9_Syp77gQtho8p9yhKvPrlwladCZRK2AJCa19Ci0ED5WXKpTpz9TrB4oS9vwRzYMMtVQhGWjUjkdiYj-xGdzcPhKL9TL-TyOhYKC_AtoaqKilY0Th7lw38PbwfO3jqoLmpq1Cthv_H_oCz0TNpXUZYlyU0Wp7OhF8buWsVR46mzMQm_-55cpFPdjaF1vx7uE4k8_]--></g></svg>