<?xml version="1.0" encoding="us-ascii" standalone="no"?><svg xmlns="http://www.w3.org/2000/svg" xmlns:xlink="http://www.w3.org/1999/xlink" contentStyleType="text/css" height="529px" preserveAspectRatio="none" style="width:359px;height:529px;background:#FFFFFF;" version="1.1" viewBox="0 0 359 529" width="359px" zoomAndPan="magnify"><defs/><g><text fill="#000000" font-family="sans-serif" font-size="14" font-weight="bold" lengthAdjust="spacing" textLength="228" x="67.25" y="30.1074">System Sequence Diagram (SSD)</text><rect fill="#FFFFFF" height="294.9102" style="stroke:#181818;stroke-width:1.0;" width="10" x="32.5" y="133.2422"/><rect fill="#FFFFFF" height="57.582" style="stroke:#181818;stroke-width:1.0;" width="10" x="306.5" y="156.5332"/><rect fill="#FFFFFF" height="38.291" style="stroke:#181818;stroke-width:1.0;" width="10" x="306.5" y="245.4063"/><rect fill="#FFFFFF" height="113.1641" style="stroke:#181818;stroke-width:1.0;" width="10" x="306.5" y="314.9883"/><rect fill="none" height="81.873" style="stroke:#000000;stroke-width:1.5;" width="343.5" x="10" y="171.5332"/><rect fill="none" height="67.873" style="stroke:#000000;stroke-width:1.5;" width="343.5" x="10" y="329.9883"/><line style="stroke:#181818;stroke-width:0.5;stroke-dasharray:5.0,5.0;" x1="37" x2="37" y1="123.2422" y2="446.1523"/><line style="stroke:#181818;stroke-width:0.5;stroke-dasharray:5.0,5.0;" x1="311.5" x2="311.5" y1="123.2422" y2="446.1523"/><text fill="#000000" font-family="sans-serif" font-size="14" lengthAdjust="spacing" textLength="29" x="20" y="119.7285">User</text><ellipse cx="37.5" cy="53.1211" fill="#E3E3E3" rx="8" ry="8" style="stroke:#181818;stroke-width:0.5;"/><path d="M37.5,61.1211 L37.5,88.1211 M24.5,69.1211 L50.5,69.1211 M37.5,88.1211 L24.5,103.1211 M37.5,88.1211 L50.5,103.1211 " fill="none" style="stroke:#181818;stroke-width:0.5;"/><text fill="#000000" font-family="sans-serif" font-size="14" lengthAdjust="spacing" textLength="29" x="20" y="460.2598">User</text><ellipse cx="37.5" cy="472.2734" fill="#E3E3E3" rx="8" ry="8" style="stroke:#181818;stroke-width:0.5;"/><path d="M37.5,480.2734 L37.5,507.2734 M24.5,488.2734 L50.5,488.2734 M37.5,507.2734 L24.5,522.2734 M37.5,507.2734 L50.5,522.2734 " fill="none" style="stroke:#181818;stroke-width:0.5;"/><rect fill="#E3E3E3" height="32.6211" rx="2.5" ry="2.5" style="stroke:#181818;stroke-width:0.5;" width="64" x="279.5" y="89.6211"/><text fill="#000000" font-family="sans-serif" font-size="14" lengthAdjust="spacing" textLength="50" x="286.5" y="111.7285">:System</text><rect fill="#E3E3E3" height="32.6211" rx="2.5" ry="2.5" style="stroke:#181818;stroke-width:0.5;" width="64" x="279.5" y="445.1523"/><text fill="#000000" font-family="sans-serif" font-size="14" lengthAdjust="spacing" textLength="50" x="286.5" y="467.2598">:System</text><rect fill="#FFFFFF" height="294.9102" style="stroke:#181818;stroke-width:1.0;" width="10" x="32.5" y="133.2422"/><rect fill="#FFFFFF" height="57.582" style="stroke:#181818;stroke-width:1.0;" width="10" x="306.5" y="156.5332"/><rect fill="#FFFFFF" height="38.291" style="stroke:#181818;stroke-width:1.0;" width="10" x="306.5" y="245.4063"/><rect fill="#FFFFFF" height="113.1641" style="stroke:#181818;stroke-width:1.0;" width="10" x="306.5" y="314.9883"/><polygon fill="#181818" points="294.5,152.5332,304.5,156.5332,294.5,160.5332,298.5,156.5332" style="stroke:#181818;stroke-width:1.0;"/><line style="stroke:#181818;stroke-width:1.0;" x1="42.5" x2="300.5" y1="156.5332" y2="156.5332"/><text fill="#000000" font-family="sans-serif" font-size="13" font-weight="bold" lengthAdjust="spacing" textLength="7" x="49.5" y="151.2705">1</text><text fill="#000000" font-family="sans-serif" font-size="13" lengthAdjust="spacing" textLength="184" x="60.5" y="151.2705">asks to create a purchase order</text><path d="M10,171.5332 L83,171.5332 L83,180.8242 L73,190.8242 L10,190.8242 L10,171.5332 " fill="#EEEEEE" style="stroke:#000000;stroke-width:1.5;"/><rect fill="none" height="81.873" style="stroke:#000000;stroke-width:1.5;" width="343.5" x="10" y="171.5332"/><text fill="#000000" font-family="sans-serif" font-size="13" font-weight="bold" lengthAdjust="spacing" textLength="28" x="25" y="186.5615">loop</text><text fill="#000000" font-family="sans-serif" font-size="11" font-weight="bold" lengthAdjust="spacing" textLength="151" x="98" y="185.4033">[if propertyID doesn't exist]</text><polygon fill="#181818" points="53.5,210.1152,43.5,214.1152,53.5,218.1152,49.5,214.1152" style="stroke:#181818;stroke-width:1.0;"/><line style="stroke:#181818;stroke-width:1.0;stroke-dasharray:2.0,2.0;" x1="47.5" x2="310.5" y1="214.1152" y2="214.1152"/><text fill="#000000" font-family="sans-serif" font-size="13" font-weight="bold" lengthAdjust="spacing" textLength="7" x="59.5" y="208.8525">2</text><text fill="#000000" font-family="sans-serif" font-size="13" lengthAdjust="spacing" textLength="117" x="70.5" y="208.8525">requests property ID</text><polygon fill="#181818" points="294.5,241.4063,304.5,245.4063,294.5,249.4063,298.5,245.4063" style="stroke:#181818;stroke-width:1.0;"/><line style="stroke:#181818;stroke-width:1.0;" x1="42.5" x2="300.5" y1="245.4063" y2="245.4063"/><text fill="#000000" font-family="sans-serif" font-size="13" font-weight="bold" lengthAdjust="spacing" textLength="7" x="49.5" y="240.1436">3</text><text fill="#000000" font-family="sans-serif" font-size="13" lengthAdjust="spacing" textLength="168" x="60.5" y="240.1436">selects the intended property</text><polygon fill="#181818" points="53.5,279.6973,43.5,283.6973,53.5,287.6973,49.5,283.6973" style="stroke:#181818;stroke-width:1.0;"/><line style="stroke:#181818;stroke-width:1.0;stroke-dasharray:2.0,2.0;" x1="47.5" x2="310.5" y1="283.6973" y2="283.6973"/><text fill="#000000" font-family="sans-serif" font-size="13" font-weight="bold" lengthAdjust="spacing" textLength="7" x="59.5" y="278.4346">4</text><text fill="#000000" font-family="sans-serif" font-size="13" lengthAdjust="spacing" textLength="152" x="70.5" y="278.4346">requests the order amount</text><polygon fill="#181818" points="294.5,310.9883,304.5,314.9883,294.5,318.9883,298.5,314.9883" style="stroke:#181818;stroke-width:1.0;"/><line style="stroke:#181818;stroke-width:1.0;" x1="42.5" x2="300.5" y1="314.9883" y2="314.9883"/><text fill="#000000" font-family="sans-serif" font-size="13" font-weight="bold" lengthAdjust="spacing" textLength="7" x="49.5" y="309.7256">5</text><text fill="#000000" font-family="sans-serif" font-size="13" lengthAdjust="spacing" textLength="136" x="60.5" y="309.7256">writes the order amount</text><path d="M10,329.9883 L71,329.9883 L71,339.2793 L61,349.2793 L10,349.2793 L10,329.9883 " fill="#EEEEEE" style="stroke:#000000;stroke-width:1.5;"/><rect fill="none" height="67.873" style="stroke:#000000;stroke-width:1.5;" width="343.5" x="10" y="329.9883"/><text fill="#000000" font-family="sans-serif" font-size="13" font-weight="bold" lengthAdjust="spacing" textLength="16" x="25" y="345.0166">alt</text><text fill="#000000" font-family="sans-serif" font-size="11" font-weight="bold" lengthAdjust="spacing" textLength="173" x="86" y="343.8584">[if orderAmount already exists]</text><polygon fill="#181818" points="53.5,385.8613,43.5,389.8613,53.5,393.8613,49.5,389.8613" style="stroke:#181818;stroke-width:1.0;"/><line style="stroke:#181818;stroke-width:1.0;stroke-dasharray:2.0,2.0;" x1="47.5" x2="305.5" y1="389.8613" y2="389.8613"/><text fill="#000000" font-family="sans-serif" font-size="13" font-weight="bold" lengthAdjust="spacing" textLength="7" x="59.5" y="375.9531">6</text><text fill="#000000" font-family="sans-serif" font-size="13" lengthAdjust="spacing" textLength="229" x="70.5" y="367.3076">informs the order amount already exists</text><text fill="#000000" font-family="sans-serif" font-size="13" lengthAdjust="spacing" textLength="127" x="74.5" y="384.5986">for the same property.</text><polygon fill="#181818" points="48.5,424.1523,38.5,428.1523,48.5,432.1523,44.5,428.1523" style="stroke:#181818;stroke-width:1.0;"/><line style="stroke:#181818;stroke-width:1.0;stroke-dasharray:2.0,2.0;" x1="42.5" x2="310.5" y1="428.1523" y2="428.1523"/><text fill="#000000" font-family="sans-serif" font-size="13" font-weight="bold" lengthAdjust="spacing" textLength="7" x="54.5" y="422.8896">7</text><text fill="#000000" font-family="sans-serif" font-size="13" lengthAdjust="spacing" textLength="147" x="65.5" y="422.8896">shows opperation sucess</text><!--SRC=[bLAzJiCm4Dxp5ASkm00Fq049AKitf8YDvN2kZTN4PtmNIjwUYvD6LL4gy7GwVt_-4Zdw435X1nq7TatYZa1JJuKiDn7T4GzKwT0I97AAuT1U0gJ1cay-762FhL1Hg5U3LeCeTL3HPq_14PGU3oFylghAXwB0NZdqtGSbcvroWisRKDe02hnI4Ww5oQjtFc9Gs6mdlNm_ZPddlr3fJ2Z0pZJ3u_CvmTOeHm5bS8b6D4BiasjG23ZL5c2aBLgpECodPOxWzn0JHqewx4gecIJSAT2t5rs0izkZ6SyHjbQNFLvK5ZRioaoewTflBRjGQvrR_8R01wLGKxt8hIOtM4x-jtIZTcu2iEC-w3yZdf9NMb5PgnLR7LlD-9SCjvLzddgOQfMRoNtOS-f-Mrvfl0SmN4O9sfzzhkrf4HzxiYWtpQJXam17ew9wMqdlI6Ijf8lL9F43]--></g></svg>