<?xml version="1.0" encoding="us-ascii" standalone="no"?><svg xmlns="http://www.w3.org/2000/svg" xmlns:xlink="http://www.w3.org/1999/xlink" contentStyleType="text/css" height="505px" preserveAspectRatio="none" style="width:1428px;height:505px;background:#FFFFFF;" version="1.1" viewBox="0 0 1428 505" width="1428px" zoomAndPan="magnify"><defs/><g><!--class DisplayPropertyListUI--><g id="elem_DisplayPropertyListUI"><rect fill="#F1F1F1" height="48" id="DisplayPropertyListUI" rx="2.5" ry="2.5" style="stroke:#181818;stroke-width:0.5;" width="166" x="162" y="35"/><ellipse cx="177" cy="51" fill="#ADD1B2" rx="11" ry="11" style="stroke:#181818;stroke-width:1.0;"/><path d="M179.7656,46.875 Q179.9219,46.6563 180.1094,46.5469 Q180.2969,46.4375 180.5156,46.4375 Q180.8906,46.4375 181.125,46.7031 Q181.3594,46.9531 181.3594,47.5625 L181.3594,49.0156 Q181.3594,49.625 181.125,49.8906 Q180.8906,50.1563 180.5156,50.1563 Q180.1719,50.1563 179.9688,49.9531 Q179.7656,49.7656 179.6563,49.25 Q179.6094,48.8906 179.4219,48.7031 Q179.0938,48.3281 178.4844,48.1094 Q177.875,47.8906 177.25,47.8906 Q176.4844,47.8906 175.8438,48.2188 Q175.2188,48.5469 174.7188,49.2969 Q174.2344,50.0469 174.2344,51.0781 L174.2344,52.1719 Q174.2344,53.4063 175.125,54.2344 Q176.0156,55.0469 177.6094,55.0469 Q178.5469,55.0469 179.2031,54.7969 Q179.5938,54.6406 180.0156,54.2031 Q180.2813,53.9375 180.4219,53.8594 Q180.5781,53.7813 180.7813,53.7813 Q181.1094,53.7813 181.3594,54.0469 Q181.625,54.2969 181.625,54.6406 Q181.625,54.9844 181.2813,55.3906 Q180.7813,55.9688 179.9844,56.2969 Q178.9063,56.75 177.6094,56.75 Q176.0938,56.75 174.8906,56.125 Q173.9063,55.625 173.2188,54.5625 Q172.5313,53.4844 172.5313,52.2031 L172.5313,51.0469 Q172.5313,49.7188 173.1406,48.5781 Q173.7656,47.4219 174.8594,46.8125 Q175.9531,46.1875 177.1875,46.1875 Q177.9219,46.1875 178.5625,46.3594 Q179.2188,46.5156 179.7656,46.875 Z " fill="#000000"/><text fill="#000000" font-family="sans-serif" font-size="14" lengthAdjust="spacing" textLength="134" x="191" y="56.7969">DisplayPropertyListUI</text><line style="stroke:#181818;stroke-width:0.5;" x1="163" x2="327" y1="67" y2="67"/><line style="stroke:#181818;stroke-width:0.5;" x1="163" x2="327" y1="75" y2="75"/></g><!--class PropertyListController--><g id="elem_PropertyListController"><rect fill="#F1F1F1" height="103.8633" id="PropertyListController" rx="2.5" ry="2.5" style="stroke:#181818;stroke-width:0.5;" width="620" x="363" y="7"/><ellipse cx="599.75" cy="23" fill="#ADD1B2" rx="11" ry="11" style="stroke:#181818;stroke-width:1.0;"/><path d="M602.5156,18.875 Q602.6719,18.6563 602.8594,18.5469 Q603.0469,18.4375 603.2656,18.4375 Q603.6406,18.4375 603.875,18.7031 Q604.1094,18.9531 604.1094,19.5625 L604.1094,21.0156 Q604.1094,21.625 603.875,21.8906 Q603.6406,22.1563 603.2656,22.1563 Q602.9219,22.1563 602.7188,21.9531 Q602.5156,21.7656 602.4063,21.25 Q602.3594,20.8906 602.1719,20.7031 Q601.8438,20.3281 601.2344,20.1094 Q600.625,19.8906 600,19.8906 Q599.2344,19.8906 598.5938,20.2188 Q597.9688,20.5469 597.4688,21.2969 Q596.9844,22.0469 596.9844,23.0781 L596.9844,24.1719 Q596.9844,25.4063 597.875,26.2344 Q598.7656,27.0469 600.3594,27.0469 Q601.2969,27.0469 601.9531,26.7969 Q602.3438,26.6406 602.7656,26.2031 Q603.0313,25.9375 603.1719,25.8594 Q603.3281,25.7813 603.5313,25.7813 Q603.8594,25.7813 604.1094,26.0469 Q604.375,26.2969 604.375,26.6406 Q604.375,26.9844 604.0313,27.3906 Q603.5313,27.9688 602.7344,28.2969 Q601.6563,28.75 600.3594,28.75 Q598.8438,28.75 597.6406,28.125 Q596.6563,27.625 595.9688,26.5625 Q595.2813,25.4844 595.2813,24.2031 L595.2813,23.0469 Q595.2813,21.7188 595.8906,20.5781 Q596.5156,19.4219 597.6094,18.8125 Q598.7031,18.1875 599.9375,18.1875 Q600.6719,18.1875 601.3125,18.3594 Q601.9688,18.5156 602.5156,18.875 Z " fill="#000000"/><text fill="#000000" font-family="sans-serif" font-size="14" lengthAdjust="spacing" textLength="138" x="620.25" y="28.7969">PropertyListController</text><line style="stroke:#181818;stroke-width:0.5;" x1="364" x2="982" y1="39" y2="39"/><line style="stroke:#181818;stroke-width:1.0;" x1="364" x2="982" y1="47" y2="47"/><text fill="#000000" font-family="sans-serif" font-size="14" lengthAdjust="spacing" textLength="608" x="369" y="66.1074">+createSelectedParameters(businessType, propertyType, numberRooms, priceSorting, location)</text><text fill="#000000" font-family="sans-serif" font-size="14" lengthAdjust="spacing" textLength="140" x="369" y="84.7285">+sortPriceAscending()</text><text fill="#000000" font-family="sans-serif" font-size="14" lengthAdjust="spacing" textLength="149" x="369" y="103.3496">+sortPriceDescending()</text></g><!--class Repositories--><g id="elem_Repositories"><rect fill="#F1F1F1" height="103.8633" id="Repositories" rx="2.5" ry="2.5" style="stroke:#181818;stroke-width:0.5;" width="213" x="1086.5" y="7"/><ellipse cx="1149.25" cy="23" fill="#ADD1B2" rx="11" ry="11" style="stroke:#181818;stroke-width:1.0;"/><path d="M1152.0156,18.875 Q1152.1719,18.6563 1152.3594,18.5469 Q1152.5469,18.4375 1152.7656,18.4375 Q1153.1406,18.4375 1153.375,18.7031 Q1153.6094,18.9531 1153.6094,19.5625 L1153.6094,21.0156 Q1153.6094,21.625 1153.375,21.8906 Q1153.1406,22.1563 1152.7656,22.1563 Q1152.4219,22.1563 1152.2188,21.9531 Q1152.0156,21.7656 1151.9063,21.25 Q1151.8594,20.8906 1151.6719,20.7031 Q1151.3438,20.3281 1150.7344,20.1094 Q1150.125,19.8906 1149.5,19.8906 Q1148.7344,19.8906 1148.0938,20.2188 Q1147.4688,20.5469 1146.9688,21.2969 Q1146.4844,22.0469 1146.4844,23.0781 L1146.4844,24.1719 Q1146.4844,25.4063 1147.375,26.2344 Q1148.2656,27.0469 1149.8594,27.0469 Q1150.7969,27.0469 1151.4531,26.7969 Q1151.8438,26.6406 1152.2656,26.2031 Q1152.5313,25.9375 1152.6719,25.8594 Q1152.8281,25.7813 1153.0313,25.7813 Q1153.3594,25.7813 1153.6094,26.0469 Q1153.875,26.2969 1153.875,26.6406 Q1153.875,26.9844 1153.5313,27.3906 Q1153.0313,27.9688 1152.2344,28.2969 Q1151.1563,28.75 1149.8594,28.75 Q1148.3438,28.75 1147.1406,28.125 Q1146.1563,27.625 1145.4688,26.5625 Q1144.7813,25.4844 1144.7813,24.2031 L1144.7813,23.0469 Q1144.7813,21.7188 1145.3906,20.5781 Q1146.0156,19.4219 1147.1094,18.8125 Q1148.2031,18.1875 1149.4375,18.1875 Q1150.1719,18.1875 1150.8125,18.3594 Q1151.4688,18.5156 1152.0156,18.875 Z " fill="#000000"/><text fill="#000000" font-family="sans-serif" font-size="14" lengthAdjust="spacing" textLength="79" x="1169.75" y="28.7969">Repositories</text><line style="stroke:#181818;stroke-width:0.5;" x1="1087.5" x2="1298.5" y1="39" y2="39"/><line style="stroke:#181818;stroke-width:0.5;" x1="1087.5" x2="1298.5" y1="47" y2="47"/><text fill="#000000" font-family="sans-serif" font-size="14" lengthAdjust="spacing" textLength="94" x="1092.5" y="66.1074">-Repositories()</text><text fill="#000000" font-family="sans-serif" font-size="14" lengthAdjust="spacing" textLength="182" x="1092.5" y="84.7285">+getInstance() : Repositories</text><text fill="#000000" font-family="sans-serif" font-size="14" lengthAdjust="spacing" textLength="201" x="1092.5" y="103.3496">+getAnnouncementRepository()</text></g><!--class AnnouncementRepository--><g id="elem_AnnouncementRepository"><rect fill="#F1F1F1" height="141.1055" id="AnnouncementRepository" rx="2.5" ry="2.5" style="stroke:#181818;stroke-width:0.5;" width="256" x="1031" y="274"/><ellipse cx="1073.45" cy="290" fill="#ADD1B2" rx="11" ry="11" style="stroke:#181818;stroke-width:1.0;"/><path d="M1076.2156,285.875 Q1076.3719,285.6563 1076.5594,285.5469 Q1076.7469,285.4375 1076.9656,285.4375 Q1077.3406,285.4375 1077.575,285.7031 Q1077.8094,285.9531 1077.8094,286.5625 L1077.8094,288.0156 Q1077.8094,288.625 1077.575,288.8906 Q1077.3406,289.1563 1076.9656,289.1563 Q1076.6219,289.1563 1076.4188,288.9531 Q1076.2156,288.7656 1076.1063,288.25 Q1076.0594,287.8906 1075.8719,287.7031 Q1075.5438,287.3281 1074.9344,287.1094 Q1074.325,286.8906 1073.7,286.8906 Q1072.9344,286.8906 1072.2938,287.2188 Q1071.6688,287.5469 1071.1688,288.2969 Q1070.6844,289.0469 1070.6844,290.0781 L1070.6844,291.1719 Q1070.6844,292.4063 1071.575,293.2344 Q1072.4656,294.0469 1074.0594,294.0469 Q1074.9969,294.0469 1075.6531,293.7969 Q1076.0438,293.6406 1076.4656,293.2031 Q1076.7313,292.9375 1076.8719,292.8594 Q1077.0281,292.7813 1077.2313,292.7813 Q1077.5594,292.7813 1077.8094,293.0469 Q1078.075,293.2969 1078.075,293.6406 Q1078.075,293.9844 1077.7313,294.3906 Q1077.2313,294.9688 1076.4344,295.2969 Q1075.3563,295.75 1074.0594,295.75 Q1072.5438,295.75 1071.3406,295.125 Q1070.3563,294.625 1069.6688,293.5625 Q1068.9813,292.4844 1068.9813,291.2031 L1068.9813,290.0469 Q1068.9813,288.7188 1069.5906,287.5781 Q1070.2156,286.4219 1071.3094,285.8125 Q1072.4031,285.1875 1073.6375,285.1875 Q1074.3719,285.1875 1075.0125,285.3594 Q1075.6688,285.5156 1076.2156,285.875 Z " fill="#000000"/><text fill="#000000" font-family="sans-serif" font-size="14" lengthAdjust="spacing" textLength="163" x="1093.55" y="295.7969">AnnouncementRepository</text><line style="stroke:#181818;stroke-width:0.5;" x1="1032" x2="1286" y1="306" y2="306"/><line style="stroke:#181818;stroke-width:1.0;" x1="1032" x2="1286" y1="314" y2="314"/><text fill="#000000" font-family="sans-serif" font-size="14" lengthAdjust="spacing" textLength="133" x="1037" y="333.1074">+getAnnouncement()</text><text fill="#000000" font-family="sans-serif" font-size="14" lengthAdjust="spacing" textLength="115" x="1037" y="351.7285">+getListedLands()</text><text fill="#000000" font-family="sans-serif" font-size="14" lengthAdjust="spacing" textLength="148" x="1037" y="370.3496">+getListedApartments()</text><text fill="#000000" font-family="sans-serif" font-size="14" lengthAdjust="spacing" textLength="123" x="1037" y="388.9707">+getListedHouses()</text><text fill="#000000" font-family="sans-serif" font-size="14" lengthAdjust="spacing" textLength="244" x="1037" y="407.5918">+addPropertyAnnouncement(property)</text></g><!--class SelectedParameters--><g id="elem_SelectedParameters"><rect fill="#F1F1F1" height="308.6953" id="SelectedParameters" rx="2.5" ry="2.5" style="stroke:#181818;stroke-width:0.5;" width="578" x="384" y="190"/><ellipse cx="604.75" cy="206" fill="#ADD1B2" rx="11" ry="11" style="stroke:#181818;stroke-width:1.0;"/><path d="M607.5156,201.875 Q607.6719,201.6563 607.8594,201.5469 Q608.0469,201.4375 608.2656,201.4375 Q608.6406,201.4375 608.875,201.7031 Q609.1094,201.9531 609.1094,202.5625 L609.1094,204.0156 Q609.1094,204.625 608.875,204.8906 Q608.6406,205.1563 608.2656,205.1563 Q607.9219,205.1563 607.7188,204.9531 Q607.5156,204.7656 607.4063,204.25 Q607.3594,203.8906 607.1719,203.7031 Q606.8438,203.3281 606.2344,203.1094 Q605.625,202.8906 605,202.8906 Q604.2344,202.8906 603.5938,203.2188 Q602.9688,203.5469 602.4688,204.2969 Q601.9844,205.0469 601.9844,206.0781 L601.9844,207.1719 Q601.9844,208.4063 602.875,209.2344 Q603.7656,210.0469 605.3594,210.0469 Q606.2969,210.0469 606.9531,209.7969 Q607.3438,209.6406 607.7656,209.2031 Q608.0313,208.9375 608.1719,208.8594 Q608.3281,208.7813 608.5313,208.7813 Q608.8594,208.7813 609.1094,209.0469 Q609.375,209.2969 609.375,209.6406 Q609.375,209.9844 609.0313,210.3906 Q608.5313,210.9688 607.7344,211.2969 Q606.6563,211.75 605.3594,211.75 Q603.8438,211.75 602.6406,211.125 Q601.6563,210.625 600.9688,209.5625 Q600.2813,208.4844 600.2813,207.2031 L600.2813,206.0469 Q600.2813,204.7188 600.8906,203.5781 Q601.5156,202.4219 602.6094,201.8125 Q603.7031,201.1875 604.9375,201.1875 Q605.6719,201.1875 606.3125,201.3594 Q606.9688,201.5156 607.5156,201.875 Z " fill="#000000"/><text fill="#000000" font-family="sans-serif" font-size="14" lengthAdjust="spacing" textLength="128" x="625.25" y="211.7969">SelectedParameters</text><line style="stroke:#181818;stroke-width:0.5;" x1="385" x2="961" y1="222" y2="222"/><text fill="#000000" font-family="sans-serif" font-size="14" lengthAdjust="spacing" textLength="134" x="390" y="241.1074">-String businessType</text><text fill="#000000" font-family="sans-serif" font-size="14" lengthAdjust="spacing" textLength="131" x="390" y="259.7285">-String propertyType</text><text fill="#000000" font-family="sans-serif" font-size="14" lengthAdjust="spacing" textLength="116" x="390" y="278.3496">-int numberRooms</text><text fill="#000000" font-family="sans-serif" font-size="14" lengthAdjust="spacing" textLength="122" x="390" y="296.9707">-String priceSorting</text><line style="stroke:#181818;stroke-width:1.0;" x1="385" x2="961" y1="304.4844" y2="304.4844"/><text fill="#000000" font-family="sans-serif" font-size="14" lengthAdjust="spacing" textLength="566" x="390" y="323.5918">+SelectedParameters(businessType,propertyType, numberRooms, priceSorting, address)</text><text fill="#000000" font-family="sans-serif" font-size="14" lengthAdjust="spacing" textLength="123" x="390" y="342.2129">+setPropertyPrice()</text><text fill="#000000" font-family="sans-serif" font-size="14" lengthAdjust="spacing" textLength="126" x="390" y="360.834">+setBusinessType()</text><text fill="#000000" font-family="sans-serif" font-size="14" lengthAdjust="spacing" textLength="130" x="390" y="379.4551">+setNumberRooms()</text><text fill="#000000" font-family="sans-serif" font-size="14" lengthAdjust="spacing" textLength="89" x="390" y="398.0762">+setAddress()</text><text fill="#000000" font-family="sans-serif" font-size="14" lengthAdjust="spacing" textLength="82" x="390" y="416.6973">+getAdress()</text><text fill="#000000" font-family="sans-serif" font-size="14" lengthAdjust="spacing" textLength="117" x="390" y="435.3184">+getBusinessType</text><text fill="#000000" font-family="sans-serif" font-size="14" lengthAdjust="spacing" textLength="114" x="390" y="453.9395">+getPropertyType</text><text fill="#000000" font-family="sans-serif" font-size="14" lengthAdjust="spacing" textLength="121" x="390" y="472.5605">+getNumberRooms</text><text fill="#000000" font-family="sans-serif" font-size="14" lengthAdjust="spacing" textLength="114" x="390" y="491.1816">+getPropertyPrice</text></g><!--class Address--><g id="elem_Address"><rect fill="#F1F1F1" height="178.3477" id="Address" rx="2.5" ry="2.5" style="stroke:#181818;stroke-width:0.5;" width="294" x="7" y="255.5"/><ellipse cx="123.75" cy="271.5" fill="#ADD1B2" rx="11" ry="11" style="stroke:#181818;stroke-width:1.0;"/><path d="M126.5156,267.375 Q126.6719,267.1563 126.8594,267.0469 Q127.0469,266.9375 127.2656,266.9375 Q127.6406,266.9375 127.875,267.2031 Q128.1094,267.4531 128.1094,268.0625 L128.1094,269.5156 Q128.1094,270.125 127.875,270.3906 Q127.6406,270.6563 127.2656,270.6563 Q126.9219,270.6563 126.7188,270.4531 Q126.5156,270.2656 126.4063,269.75 Q126.3594,269.3906 126.1719,269.2031 Q125.8438,268.8281 125.2344,268.6094 Q124.625,268.3906 124,268.3906 Q123.2344,268.3906 122.5938,268.7188 Q121.9688,269.0469 121.4688,269.7969 Q120.9844,270.5469 120.9844,271.5781 L120.9844,272.6719 Q120.9844,273.9063 121.875,274.7344 Q122.7656,275.5469 124.3594,275.5469 Q125.2969,275.5469 125.9531,275.2969 Q126.3438,275.1406 126.7656,274.7031 Q127.0313,274.4375 127.1719,274.3594 Q127.3281,274.2813 127.5313,274.2813 Q127.8594,274.2813 128.1094,274.5469 Q128.375,274.7969 128.375,275.1406 Q128.375,275.4844 128.0313,275.8906 Q127.5313,276.4688 126.7344,276.7969 Q125.6563,277.25 124.3594,277.25 Q122.8438,277.25 121.6406,276.625 Q120.6563,276.125 119.9688,275.0625 Q119.2813,273.9844 119.2813,272.7031 L119.2813,271.5469 Q119.2813,270.2188 119.8906,269.0781 Q120.5156,267.9219 121.6094,267.3125 Q122.7031,266.6875 123.9375,266.6875 Q124.6719,266.6875 125.3125,266.8594 Q125.9688,267.0156 126.5156,267.375 Z " fill="#000000"/><text fill="#000000" font-family="sans-serif" font-size="14" lengthAdjust="spacing" textLength="52" x="144.25" y="277.2969">Address</text><line style="stroke:#181818;stroke-width:0.5;" x1="8" x2="300" y1="287.5" y2="287.5"/><text fill="#000000" font-family="sans-serif" font-size="14" lengthAdjust="spacing" textLength="82" x="13" y="306.6074">-String street</text><text fill="#000000" font-family="sans-serif" font-size="14" lengthAdjust="spacing" textLength="67" x="13" y="325.2285">-String city</text><text fill="#000000" font-family="sans-serif" font-size="14" lengthAdjust="spacing" textLength="87" x="13" y="343.8496">-String district</text><text fill="#000000" font-family="sans-serif" font-size="14" lengthAdjust="spacing" textLength="77" x="13" y="362.4707">-String state</text><text fill="#000000" font-family="sans-serif" font-size="14" lengthAdjust="spacing" textLength="97" x="13" y="381.0918">-String zipCode</text><line style="stroke:#181818;stroke-width:1.0;" x1="8" x2="300" y1="388.6055" y2="388.6055"/><text fill="#000000" font-family="sans-serif" font-size="14" lengthAdjust="spacing" textLength="282" x="13" y="407.7129">+Address(street, city, district, state, zipCode)</text><text fill="#000000" font-family="sans-serif" font-size="14" lengthAdjust="spacing" textLength="119" x="13" y="426.334">+setAddressData()</text></g><!--link DisplayPropertyListUI to PropertyListController--><g id="link_DisplayPropertyListUI_PropertyListController"><path d="M328.4,59 C338.8,59 348.85,59 357.63,59 " fill="none" id="DisplayPropertyListUI-to-PropertyListController" style="stroke:#181818;stroke-width:1.0;stroke-dasharray:7.0,7.0;"/><polygon fill="#181818" points="362.92,59,353.92,55,357.92,59,353.92,63,362.92,59" style="stroke:#181818;stroke-width:1.0;"/></g><!--link PropertyListController to SelectedParameters--><g id="link_PropertyListController_SelectedParameters"><path d="M673,111.01 C673,132.25 673,158.17 673,184.9 " fill="none" id="PropertyListController-to-SelectedParameters" style="stroke:#181818;stroke-width:1.0;stroke-dasharray:7.0,7.0;"/><polygon fill="#181818" points="673,189.9,677,180.9,673,184.9,669,180.9,673,189.9" style="stroke:#181818;stroke-width:1.0;"/></g><!--link PropertyListController to Repositories--><g id="link_PropertyListController_Repositories"><path d="M983.37,59 C1018.07,59 1051.52,59 1081.13,59 " fill="none" id="PropertyListController-to-Repositories" style="stroke:#181818;stroke-width:1.0;stroke-dasharray:7.0,7.0;"/><polygon fill="#181818" points="1086.23,59,1077.23,55,1081.23,59,1077.23,63,1086.23,59" style="stroke:#181818;stroke-width:1.0;"/><text fill="#000000" font-family="sans-serif" font-size="13" lengthAdjust="spacing" textLength="67" x="1001.25" y="52.0283">repositories</text></g><!--link PropertyListController to AnnouncementRepository--><g id="link_PropertyListController_AnnouncementRepository"><path d="M793.06,111.01 C878.79,147.43 979,190 979,190 C979,190 1027.06,230.99 1073.51,270.6 " fill="none" id="PropertyListController-to-AnnouncementRepository" style="stroke:#181818;stroke-width:1.0;stroke-dasharray:7.0,7.0;"/><polygon fill="#181818" points="1077.43,273.94,1073.1806,265.0551,1073.6267,270.6943,1067.9874,271.1404,1077.43,273.94" style="stroke:#181818;stroke-width:1.0;"/><text fill="#000000" font-family="sans-serif" font-size="13" lengthAdjust="spacing" textLength="149" x="907" y="156.0283">AnnouncementRepository</text></g><!--link Repositories to AnnouncementRepository--><g id="link_Repositories_AnnouncementRepository"><path d="M1186.88,111.01 C1181.61,155.01 1173.91,219.14 1167.95,268.91 " fill="none" id="Repositories-to-AnnouncementRepository" style="stroke:#181818;stroke-width:1.0;"/><polygon fill="#181818" points="1167.34,273.98,1172.3925,265.5259,1167.9408,269.0162,1164.4504,264.5646,1167.34,273.98" style="stroke:#181818;stroke-width:1.0;"/></g><!--link Repositories to Repositories--><g id="link_Repositories_Repositories"><path d="M1299.75,42.93 C1320.11,44.86 1334.5,50.21 1334.5,59 C1334.5,67.03 1322.47,72.2 1304.86,74.5 " fill="none" id="Repositories-to-Repositories" style="stroke:#181818;stroke-width:1.0;"/><polygon fill="#181818" points="1299.75,75.07,1309.1395,78.0428,1304.7189,74.5131,1308.2485,70.0925,1299.75,75.07" style="stroke:#181818;stroke-width:1.0;"/><text fill="#000000" font-family="sans-serif" font-size="13" lengthAdjust="spacing" textLength="75" x="1340.5" y="64.5283">getInstance()</text></g><!--link Address to SelectedParameters--><g id="link_Address_SelectedParameters"><path d="M301.34,344.5 C323.34,344.5 346.67,344.5 370.49,344.5 " fill="none" id="Address-to-SelectedParameters" style="stroke:#181818;stroke-width:1.0;stroke-dasharray:7.0,7.0;"/><polygon fill="#181818" points="383.78,344.5,377.78,340.5,371.78,344.5,377.78,348.5,383.78,344.5" style="stroke:#181818;stroke-width:1.0;"/><text fill="#000000" font-family="sans-serif" font-size="13" lengthAdjust="spacing" textLength="46" x="319.5" y="337.5283">address</text></g><!--SRC=[ZLN1Rjim3BthAtHBkZd1pZq4S9l30XH5q6mVeCfi8bIM38d6u1Rxzz5sP4ksWpMN87ma7_NqnApykpALSABafJLMNfmjWQEhWOr89UIxECC96mtSWKHXpZfEy1THs3_AdFcRq3v6j3A0JGMyihffVx3L0cWTMXPLIIsypn6TUgqH3jAQa_e0_eEnbOOtv6YvK-SByaAruoXh6Ejg-5xvIelcw6m53fidvV7tWNyozZTanD2ZDUYirk0eXTDdizbqtz-vT20GJg2fFnJ7TYn0S7xzMdiQs_jVD7Z6gskt_fUforTmBzQMleMKX1CTZNJ9kBPIj8FUiLLFS0QYhvedOOfsbFKK-6bh3uj8JY9XAGnUqHxqn7HiANClmHH4EeVs46638YzGMQ_GEWK-w904GoFYFnXFjozXVSVlavmX8pV6rfHHWi4XeOdvbZC-sIZ-fCrm48gtPuQYLStFmxqoLB60TNgESL4KmGa9LRZGQDwv2O9A9t8ecJwsH0B4xkW1PJ1soIHxD4nmOr3aVqRyiW_ft8wA1ayjD1vi0nWawjmJ0myHUHn_7fdZSDwpnhUIpo8FKncxw76gOHTzdcYOf7RJjlSN3DUpfvVcqG5W4f8AcoHGa7Ee5quAQJ4aaGzLFTe2HWE7u_OSMTSu6xfbVOiir5qb66NQ2nJzWrbUPzlTZIt6RYotBLNCB_fczYvT2VUqywE7Vhjg-M5J_JB04fRDPlUrlDbqoLfY2w_rstRR_MrSvQMIwojW_m00]--></g></svg>