<?xml version="1.0" encoding="us-ascii" standalone="no"?><svg xmlns="http://www.w3.org/2000/svg" xmlns:xlink="http://www.w3.org/1999/xlink" contentStyleType="text/css" height="1944px" preserveAspectRatio="none" style="width:1369px;height:1944px;background:#FFFFFF;" version="1.1" viewBox="0 0 1369 1944" width="1369.8px" zoomAndPan="magnify"><defs/><g><rect fill="#FFFFFF" height="1776.6738" style="stroke:#181818;stroke-width:0.9;" width="9" x="76.5" y="84.259"/><rect fill="#FFFFFF" height="435.3258" style="stroke:#181818;stroke-width:0.9;" width="9" x="298.8" y="105.2209"/><rect fill="#FFFFFF" height="751.1098" style="stroke:#181818;stroke-width:0.9;" width="9" x="298.8" y="568.7086"/><rect fill="#FFFFFF" height="112.6477" style="stroke:#181818;stroke-width:0.9;" width="9" x="303.3" y="733.1801"/><rect fill="#FFFFFF" height="112.6477" style="stroke:#181818;stroke-width:0.9;" width="9" x="303.3" y="903.9516"/><rect fill="#FFFFFF" height="112.6477" style="stroke:#181818;stroke-width:0.9;" width="9" x="303.3" y="1098.385"/><rect fill="#FFFFFF" height="208.8334" style="stroke:#181818;stroke-width:0.9;" width="9" x="298.8" y="1371.6422"/><rect fill="#FFFFFF" height="208.8334" style="stroke:#181818;stroke-width:0.9;" width="9" x="298.8" y="1638.5994"/><rect fill="#FFFFFF" height="309.7811" style="stroke:#181818;stroke-width:0.9;" width="9" x="765" y="196.3037"/><rect fill="#FFFFFF" height="84.4857" style="stroke:#181818;stroke-width:0.9;" width="9" x="765" y="596.8705"/><rect fill="#FFFFFF" height="84.4857" style="stroke:#181818;stroke-width:0.9;" width="9" x="765" y="761.342"/><rect fill="#FFFFFF" height="84.4857" style="stroke:#181818;stroke-width:0.9;" width="9" x="765" y="932.1135"/><rect fill="#FFFFFF" height="84.4857" style="stroke:#181818;stroke-width:0.9;" width="9" x="765" y="1126.5469"/><rect fill="#FFFFFF" height="84.4857" style="stroke:#181818;stroke-width:0.9;" width="9" x="765" y="1399.8041"/><rect fill="#FFFFFF" height="84.4857" style="stroke:#181818;stroke-width:0.9;" width="9" x="765" y="1666.7613"/><rect fill="#FFFFFF" height="28.1619" style="stroke:#181818;stroke-width:0.9;" width="9" x="887.85" y="224.4656"/><rect fill="#FFFFFF" height="28.1619" style="stroke:#181818;stroke-width:0.9;" width="9" x="984.15" y="280.7895"/><rect fill="#FFFFFF" height="28.1619" style="stroke:#181818;stroke-width:0.9;" width="9" x="1119.15" y="337.1133"/><rect fill="#FFFFFF" height="28.1619" style="stroke:#181818;stroke-width:0.9;" width="9" x="1119.15" y="393.4371"/><rect fill="#FFFFFF" height="28.1619" style="stroke:#181818;stroke-width:0.9;" width="9" x="1119.15" y="449.7609"/><rect fill="#FFFFFF" height="28.1619" style="stroke:#181818;stroke-width:0.9;" width="9" x="1276.2" y="625.0324"/><rect fill="#FFFFFF" height="28.1619" style="stroke:#181818;stroke-width:0.9;" width="9" x="1276.2" y="789.5039"/><rect fill="#FFFFFF" height="28.1619" style="stroke:#181818;stroke-width:0.9;" width="9" x="1276.2" y="960.2754"/><rect fill="#FFFFFF" height="28.1619" style="stroke:#181818;stroke-width:0.9;" width="9" x="1276.2" y="1154.7088"/><rect fill="#FFFFFF" height="28.1619" style="stroke:#181818;stroke-width:0.9;" width="9" x="1276.2" y="1427.966"/><rect fill="#FFFFFF" height="28.1619" style="stroke:#181818;stroke-width:0.9;" width="9" x="1276.2" y="1694.9232"/><rect fill="none" height="355.3049" style="stroke:#000000;stroke-width:1.35;" width="968.4" x="246.6" y="157.9799"/><rect fill="none" height="158.1715" style="stroke:#000000;stroke-width:1.35;" width="1337.4" x="18" y="694.8563"/><rect fill="none" height="158.1715" style="stroke:#000000;stroke-width:1.35;" width="1337.4" x="18" y="865.6277"/><rect fill="none" height="188.1334" style="stroke:#000000;stroke-width:1.35;" width="1355.4" x="9" y="1036.3992"/><rect fill="none" height="158.1715" style="stroke:#000000;stroke-width:1.35;" width="1337.4" x="18" y="1060.0611"/><rect fill="none" height="254.3572" style="stroke:#000000;stroke-width:1.35;" width="1337.4" x="18" y="1333.3184"/><rect fill="none" height="254.3572" style="stroke:#000000;stroke-width:1.35;" width="1337.4" x="18" y="1600.2756"/><line style="stroke:#181818;stroke-width:0.45;stroke-dasharray:5.0,5.0;" x1="81" x2="81" y1="75.259" y2="1869.9328"/><line style="stroke:#181818;stroke-width:0.45;stroke-dasharray:5.0,5.0;" x1="303.3" x2="303.3" y1="75.259" y2="1869.9328"/><line style="stroke:#181818;stroke-width:0.45;stroke-dasharray:5.0,5.0;" x1="769.5" x2="769.5" y1="141.0504" y2="1869.9328"/><line style="stroke:#181818;stroke-width:0.45;stroke-dasharray:5.0,5.0;" x1="891.9" x2="891.9" y1="75.259" y2="1869.9328"/><line style="stroke:#181818;stroke-width:0.45;stroke-dasharray:5.0,5.0;" x1="988.2" x2="988.2" y1="75.259" y2="1869.9328"/><line style="stroke:#181818;stroke-width:0.45;stroke-dasharray:5.0,5.0;" x1="1123.2" x2="1123.2" y1="75.259" y2="1869.9328"/><line style="stroke:#181818;stroke-width:0.45;stroke-dasharray:5.0,5.0;" x1="1280.7" x2="1280.7" y1="75.259" y2="1869.9328"/><text fill="#000000" font-family="sans-serif" font-size="12.6" lengthAdjust="spacing" textLength="102.6" x="27" y="72.0967">Unregistered User</text><ellipse cx="81" cy="12.15" fill="#E3E3E3" rx="7.2" ry="7.2" style="stroke:#181818;stroke-width:0.45;"/><path d="M81,19.35 L81,43.65 M69.3,26.55 L92.7,26.55 M81,43.65 L69.3,57.15 M81,43.65 L92.7,57.15 " fill="none" style="stroke:#181818;stroke-width:0.45;"/><text fill="#000000" font-family="sans-serif" font-size="12.6" lengthAdjust="spacing" textLength="102.6" x="27" y="1882.6295">Unregistered User</text><ellipse cx="81" cy="1893.4418" fill="#E3E3E3" rx="7.2" ry="7.2" style="stroke:#181818;stroke-width:0.45;"/><path d="M81,1900.6418 L81,1924.9418 M69.3,1907.8418 L92.7,1907.8418 M81,1924.9418 L69.3,1938.4418 M81,1924.9418 L92.7,1938.4418 " fill="none" style="stroke:#181818;stroke-width:0.45;"/><rect fill="#E3E3E3" height="29.359" rx="2.25" ry="2.25" style="stroke:#181818;stroke-width:0.45;" width="95.4" x="255.6" y="45"/><text fill="#000000" font-family="sans-serif" font-size="12.6" lengthAdjust="spacing" textLength="82.8" x="261.9" y="64.8967">:PropertyListUI</text><rect fill="#E3E3E3" height="29.359" rx="2.25" ry="2.25" style="stroke:#181818;stroke-width:0.45;" width="95.4" x="255.6" y="1869.0328"/><text fill="#000000" font-family="sans-serif" font-size="12.6" lengthAdjust="spacing" textLength="82.8" x="261.9" y="1888.9295">:PropertyListUI</text><rect fill="#E3E3E3" height="29.359" rx="2.25" ry="2.25" style="stroke:#181818;stroke-width:0.45;" width="140.4" x="699.3" y="1869.0328"/><text fill="#000000" font-family="sans-serif" font-size="12.6" lengthAdjust="spacing" textLength="127.8" x="705.6" y="1888.9295">:PropertyListController</text><rect fill="#E3E3E3" height="29.359" rx="2.25" ry="2.25" style="stroke:#181818;stroke-width:0.45;" width="87.3" x="848.7" y="45"/><text fill="#000000" font-family="sans-serif" font-size="12.6" lengthAdjust="spacing" textLength="74.7" x="855" y="64.8967">:Repositories</text><rect fill="#E3E3E3" height="29.359" rx="2.25" ry="2.25" style="stroke:#181818;stroke-width:0.45;" width="87.3" x="848.7" y="1869.0328"/><text fill="#000000" font-family="sans-serif" font-size="12.6" lengthAdjust="spacing" textLength="74.7" x="855" y="1888.9295">:Repositories</text><rect fill="#E3E3E3" height="46.118" rx="2.25" ry="2.25" style="stroke:#181818;stroke-width:0.45;" width="87.3" x="945" y="28.241"/><text fill="#000000" font-family="sans-serif" font-size="12.6" lengthAdjust="spacing" textLength="66.6" x="955.35" y="48.1377">repositories</text><text fill="#000000" font-family="sans-serif" font-size="12.6" lengthAdjust="spacing" textLength="74.7" x="951.3" y="64.8967">:Repositories</text><rect fill="#E3E3E3" height="46.118" rx="2.25" ry="2.25" style="stroke:#181818;stroke-width:0.45;" width="87.3" x="945" y="1869.0328"/><text fill="#000000" font-family="sans-serif" font-size="12.6" lengthAdjust="spacing" textLength="66.6" x="955.35" y="1888.9295">repositories</text><text fill="#000000" font-family="sans-serif" font-size="12.6" lengthAdjust="spacing" textLength="74.7" x="951.3" y="1905.6885">:Repositories</text><rect fill="#E3E3E3" height="46.118" rx="2.25" ry="2.25" style="stroke:#181818;stroke-width:0.45;" width="164.7" x="1041.3" y="28.241"/><text fill="#000000" font-family="sans-serif" font-size="12.6" lengthAdjust="spacing" textLength="152.1" x="1047.6" y="48.1377">announcementsRepository</text><text fill="#000000" font-family="sans-serif" font-size="12.6" lengthAdjust="spacing" textLength="150.3" x="1048.5" y="64.8967">:AnnouncementRepository</text><rect fill="#E3E3E3" height="46.118" rx="2.25" ry="2.25" style="stroke:#181818;stroke-width:0.45;" width="164.7" x="1041.3" y="1869.0328"/><text fill="#000000" font-family="sans-serif" font-size="12.6" lengthAdjust="spacing" textLength="152.1" x="1047.6" y="1888.9295">announcementsRepository</text><text fill="#000000" font-family="sans-serif" font-size="12.6" lengthAdjust="spacing" textLength="150.3" x="1048.5" y="1905.6885">:AnnouncementRepository</text><rect fill="#E3E3E3" height="29.359" rx="2.25" ry="2.25" style="stroke:#181818;stroke-width:0.45;" width="131.4" x="1215" y="45"/><text fill="#000000" font-family="sans-serif" font-size="12.6" lengthAdjust="spacing" textLength="118.8" x="1221.3" y="64.8967">:SelectedParameters</text><rect fill="#E3E3E3" height="29.359" rx="2.25" ry="2.25" style="stroke:#181818;stroke-width:0.45;" width="131.4" x="1215" y="1869.0328"/><text fill="#000000" font-family="sans-serif" font-size="12.6" lengthAdjust="spacing" textLength="118.8" x="1221.3" y="1888.9295">:SelectedParameters</text><rect fill="#FFFFFF" height="1776.6738" style="stroke:#181818;stroke-width:0.9;" width="9" x="76.5" y="84.259"/><rect fill="#FFFFFF" height="435.3258" style="stroke:#181818;stroke-width:0.9;" width="9" x="298.8" y="105.2209"/><rect fill="#FFFFFF" height="751.1098" style="stroke:#181818;stroke-width:0.9;" width="9" x="298.8" y="568.7086"/><rect fill="#FFFFFF" height="112.6477" style="stroke:#181818;stroke-width:0.9;" width="9" x="303.3" y="733.1801"/><rect fill="#FFFFFF" height="112.6477" style="stroke:#181818;stroke-width:0.9;" width="9" x="303.3" y="903.9516"/><rect fill="#FFFFFF" height="112.6477" style="stroke:#181818;stroke-width:0.9;" width="9" x="303.3" y="1098.385"/><rect fill="#FFFFFF" height="208.8334" style="stroke:#181818;stroke-width:0.9;" width="9" x="298.8" y="1371.6422"/><rect fill="#FFFFFF" height="208.8334" style="stroke:#181818;stroke-width:0.9;" width="9" x="298.8" y="1638.5994"/><rect fill="#FFFFFF" height="309.7811" style="stroke:#181818;stroke-width:0.9;" width="9" x="765" y="196.3037"/><rect fill="#FFFFFF" height="84.4857" style="stroke:#181818;stroke-width:0.9;" width="9" x="765" y="596.8705"/><rect fill="#FFFFFF" height="84.4857" style="stroke:#181818;stroke-width:0.9;" width="9" x="765" y="761.342"/><rect fill="#FFFFFF" height="84.4857" style="stroke:#181818;stroke-width:0.9;" width="9" x="765" y="932.1135"/><rect fill="#FFFFFF" height="84.4857" style="stroke:#181818;stroke-width:0.9;" width="9" x="765" y="1126.5469"/><rect fill="#FFFFFF" height="84.4857" style="stroke:#181818;stroke-width:0.9;" width="9" x="765" y="1399.8041"/><rect fill="#FFFFFF" height="84.4857" style="stroke:#181818;stroke-width:0.9;" width="9" x="765" y="1666.7613"/><rect fill="#FFFFFF" height="28.1619" style="stroke:#181818;stroke-width:0.9;" width="9" x="887.85" y="224.4656"/><rect fill="#FFFFFF" height="28.1619" style="stroke:#181818;stroke-width:0.9;" width="9" x="984.15" y="280.7895"/><rect fill="#FFFFFF" height="28.1619" style="stroke:#181818;stroke-width:0.9;" width="9" x="1119.15" y="337.1133"/><rect fill="#FFFFFF" height="28.1619" style="stroke:#181818;stroke-width:0.9;" width="9" x="1119.15" y="393.4371"/><rect fill="#FFFFFF" height="28.1619" style="stroke:#181818;stroke-width:0.9;" width="9" x="1119.15" y="449.7609"/><rect fill="#FFFFFF" height="28.1619" style="stroke:#181818;stroke-width:0.9;" width="9" x="1276.2" y="625.0324"/><rect fill="#FFFFFF" height="28.1619" style="stroke:#181818;stroke-width:0.9;" width="9" x="1276.2" y="789.5039"/><rect fill="#FFFFFF" height="28.1619" style="stroke:#181818;stroke-width:0.9;" width="9" x="1276.2" y="960.2754"/><rect fill="#FFFFFF" height="28.1619" style="stroke:#181818;stroke-width:0.9;" width="9" x="1276.2" y="1154.7088"/><rect fill="#FFFFFF" height="28.1619" style="stroke:#181818;stroke-width:0.9;" width="9" x="1276.2" y="1427.966"/><rect fill="#FFFFFF" height="28.1619" style="stroke:#181818;stroke-width:0.9;" width="9" x="1276.2" y="1694.9232"/><polygon fill="#181818" points="288,101.6209,297,105.2209,288,108.8209,291.6,105.2209" style="stroke:#181818;stroke-width:0.9;"/><line style="stroke:#181818;stroke-width:0.9;" x1="85.5" x2="293.4" y1="105.2209" y2="105.2209"/><text fill="#000000" font-family="sans-serif" font-size="11.7" font-weight="bold" lengthAdjust="spacing" textLength="6.3" x="91.8" y="100.4845">1</text><text fill="#000000" font-family="sans-serif" font-size="11.7" lengthAdjust="spacing" textLength="86.4" x="101.7" y="100.4845">initiates program</text><polygon fill="#181818" points="688.5,129.7828,697.5,133.3828,688.5,136.9828,692.1,133.3828" style="stroke:#181818;stroke-width:0.9;"/><line style="stroke:#181818;stroke-width:0.9;" x1="307.8" x2="693.9" y1="133.3828" y2="133.3828"/><text fill="#000000" font-family="sans-serif" font-size="11.7" font-weight="bold" lengthAdjust="spacing" textLength="6.3" x="314.1" y="128.6464">2</text><text fill="#000000" font-family="sans-serif" font-size="11.7" lengthAdjust="spacing" textLength="32.4" x="324" y="128.6464">create</text><rect fill="#E3E3E3" height="29.359" rx="2.25" ry="2.25" style="stroke:#181818;stroke-width:0.45;" width="140.4" x="699.3" y="112.4209"/><text fill="#000000" font-family="sans-serif" font-size="12.6" lengthAdjust="spacing" textLength="127.8" x="705.6" y="132.3176">:PropertyListController</text><path d="M246.6,157.9799 L312.3,157.9799 L312.3,166.3418 L303.3,175.3418 L246.6,175.3418 L246.6,157.9799 " fill="#EEEEEE" style="stroke:#000000;stroke-width:1.35;"/><rect fill="none" height="355.3049" style="stroke:#000000;stroke-width:1.35;" width="968.4" x="246.6" y="157.9799"/><text fill="#000000" font-family="sans-serif" font-size="11.7" font-weight="bold" lengthAdjust="spacing" textLength="25.2" x="260.1" y="171.5054">loop</text><text fill="#000000" font-family="sans-serif" font-size="9.9" font-weight="bold" lengthAdjust="spacing" textLength="282.6" x="325.8" y="170.463">[everytime that is required to displayAnnouncementList]</text><polygon fill="#181818" points="754.2,192.7037,763.2,196.3037,754.2,199.9037,757.8,196.3037" style="stroke:#181818;stroke-width:0.9;"/><line style="stroke:#181818;stroke-width:0.9;" x1="307.8" x2="759.6" y1="196.3037" y2="196.3037"/><text fill="#000000" font-family="sans-serif" font-size="11.7" font-weight="bold" lengthAdjust="spacing" textLength="6.3" x="314.1" y="191.5673">3</text><text fill="#000000" font-family="sans-serif" font-size="11.7" lengthAdjust="spacing" textLength="247.5" x="324" y="191.5673">displayAnnouncementList(SelectedParameters)</text><polygon fill="#181818" points="877.05,220.8656,886.05,224.4656,877.05,228.0656,880.65,224.4656" style="stroke:#181818;stroke-width:0.9;"/><line style="stroke:#181818;stroke-width:0.9;" x1="774" x2="882.45" y1="224.4656" y2="224.4656"/><text fill="#000000" font-family="sans-serif" font-size="11.7" font-weight="bold" lengthAdjust="spacing" textLength="6.3" x="780.3" y="219.7292">4</text><text fill="#000000" font-family="sans-serif" font-size="11.7" lengthAdjust="spacing" textLength="67.5" x="790.2" y="219.7292">getInstance()</text><polygon fill="#181818" points="783.9,249.0275,774.9,252.6275,783.9,256.2275,780.3,252.6275" style="stroke:#181818;stroke-width:0.9;"/><line style="stroke:#181818;stroke-width:0.9;stroke-dasharray:2.0,2.0;" x1="778.5" x2="891.45" y1="252.6275" y2="252.6275"/><text fill="#000000" font-family="sans-serif" font-size="11.7" font-weight="bold" lengthAdjust="spacing" textLength="6.3" x="789.3" y="247.8911">5</text><text fill="#000000" font-family="sans-serif" font-size="11.7" lengthAdjust="spacing" textLength="60.3" x="799.2" y="247.8911">repositories</text><polygon fill="#181818" points="973.35,277.1895,982.35,280.7895,973.35,284.3895,976.95,280.7895" style="stroke:#181818;stroke-width:0.9;"/><line style="stroke:#181818;stroke-width:0.9;" x1="774" x2="978.75" y1="280.7895" y2="280.7895"/><text fill="#000000" font-family="sans-serif" font-size="11.7" font-weight="bold" lengthAdjust="spacing" textLength="6.3" x="780.3" y="276.053">6</text><text fill="#000000" font-family="sans-serif" font-size="11.7" lengthAdjust="spacing" textLength="157.5" x="790.2" y="276.053">getAnnouncementRepository()</text><polygon fill="#181818" points="783.9,305.3514,774.9,308.9514,783.9,312.5514,780.3,308.9514" style="stroke:#181818;stroke-width:0.9;"/><line style="stroke:#181818;stroke-width:0.9;stroke-dasharray:2.0,2.0;" x1="778.5" x2="987.75" y1="308.9514" y2="308.9514"/><text fill="#000000" font-family="sans-serif" font-size="11.7" font-weight="bold" lengthAdjust="spacing" textLength="6.3" x="789.3" y="304.2149">7</text><text fill="#000000" font-family="sans-serif" font-size="11.7" lengthAdjust="spacing" textLength="134.1" x="799.2" y="304.2149">AnnouncementRepository</text><polygon fill="#181818" points="1108.35,333.5133,1117.35,337.1133,1108.35,340.7133,1111.95,337.1133" style="stroke:#181818;stroke-width:0.9;"/><line style="stroke:#181818;stroke-width:0.9;" x1="774" x2="1113.75" y1="337.1133" y2="337.1133"/><text fill="#000000" font-family="sans-serif" font-size="11.7" font-weight="bold" lengthAdjust="spacing" textLength="6.3" x="780.3" y="332.3769">8</text><text fill="#000000" font-family="sans-serif" font-size="11.7" lengthAdjust="spacing" textLength="86.4" x="790.2" y="332.3769">getListedLands()</text><polygon fill="#181818" points="783.9,361.6752,774.9,365.2752,783.9,368.8752,780.3,365.2752" style="stroke:#181818;stroke-width:0.9;"/><line style="stroke:#181818;stroke-width:0.9;stroke-dasharray:2.0,2.0;" x1="778.5" x2="1122.75" y1="365.2752" y2="365.2752"/><text fill="#000000" font-family="sans-serif" font-size="11.7" font-weight="bold" lengthAdjust="spacing" textLength="6.3" x="789.3" y="360.5388">9</text><text fill="#000000" font-family="sans-serif" font-size="11.7" lengthAdjust="spacing" textLength="79.2" x="799.2" y="360.5388">getListedLands</text><polygon fill="#181818" points="1108.35,389.8371,1117.35,393.4371,1108.35,397.0371,1111.95,393.4371" style="stroke:#181818;stroke-width:0.9;"/><line style="stroke:#181818;stroke-width:0.9;" x1="774" x2="1113.75" y1="393.4371" y2="393.4371"/><text fill="#000000" font-family="sans-serif" font-size="11.7" font-weight="bold" lengthAdjust="spacing" textLength="12.6" x="780.3" y="388.7007">10</text><text fill="#000000" font-family="sans-serif" font-size="11.7" lengthAdjust="spacing" textLength="115.2" x="796.5" y="388.7007">getListedApartments()</text><polygon fill="#181818" points="783.9,417.999,774.9,421.599,783.9,425.199,780.3,421.599" style="stroke:#181818;stroke-width:0.9;"/><line style="stroke:#181818;stroke-width:0.9;stroke-dasharray:2.0,2.0;" x1="778.5" x2="1122.75" y1="421.599" y2="421.599"/><text fill="#000000" font-family="sans-serif" font-size="11.7" font-weight="bold" lengthAdjust="spacing" textLength="12.6" x="789.3" y="416.8626">11</text><text fill="#000000" font-family="sans-serif" font-size="11.7" lengthAdjust="spacing" textLength="108" x="805.5" y="416.8626">getListedApartments</text><polygon fill="#181818" points="1108.35,446.1609,1117.35,449.7609,1108.35,453.3609,1111.95,449.7609" style="stroke:#181818;stroke-width:0.9;"/><line style="stroke:#181818;stroke-width:0.9;" x1="774" x2="1113.75" y1="449.7609" y2="449.7609"/><text fill="#000000" font-family="sans-serif" font-size="11.7" font-weight="bold" lengthAdjust="spacing" textLength="12.6" x="780.3" y="445.0245">12</text><text fill="#000000" font-family="sans-serif" font-size="11.7" lengthAdjust="spacing" textLength="94.5" x="796.5" y="445.0245">getListedHouses()</text><polygon fill="#181818" points="783.9,474.3229,774.9,477.9229,783.9,481.5229,780.3,477.9229" style="stroke:#181818;stroke-width:0.9;"/><line style="stroke:#181818;stroke-width:0.9;stroke-dasharray:2.0,2.0;" x1="778.5" x2="1122.75" y1="477.9229" y2="477.9229"/><text fill="#000000" font-family="sans-serif" font-size="11.7" font-weight="bold" lengthAdjust="spacing" textLength="12.6" x="789.3" y="473.1864">13</text><text fill="#000000" font-family="sans-serif" font-size="11.7" lengthAdjust="spacing" textLength="87.3" x="805.5" y="473.1864">getListedHouses</text><polygon fill="#181818" points="317.7,502.4848,308.7,506.0848,317.7,509.6848,314.1,506.0848" style="stroke:#181818;stroke-width:0.9;"/><line style="stroke:#181818;stroke-width:0.9;stroke-dasharray:2.0,2.0;" x1="312.3" x2="768.6" y1="506.0848" y2="506.0848"/><text fill="#000000" font-family="sans-serif" font-size="11.7" font-weight="bold" lengthAdjust="spacing" textLength="12.6" x="323.1" y="501.3483">14</text><text fill="#000000" font-family="sans-serif" font-size="11.7" lengthAdjust="spacing" textLength="134.1" x="339.3" y="501.3483">displayAnnouncementList</text><polygon fill="#181818" points="95.4,536.9467,86.4,540.5467,95.4,544.1467,91.8,540.5467" style="stroke:#181818;stroke-width:0.9;"/><line style="stroke:#181818;stroke-width:0.9;stroke-dasharray:2.0,2.0;" x1="90" x2="302.4" y1="540.5467" y2="540.5467"/><text fill="#000000" font-family="sans-serif" font-size="11.7" font-weight="bold" lengthAdjust="spacing" textLength="12.6" x="100.8" y="535.8103">15</text><text fill="#000000" font-family="sans-serif" font-size="11.7" lengthAdjust="spacing" textLength="175.5" x="117" y="535.8103">display list filtered by most recent</text><polygon fill="#181818" points="288,565.1086,297,568.7086,288,572.3086,291.6,568.7086" style="stroke:#181818;stroke-width:0.9;"/><line style="stroke:#181818;stroke-width:0.9;" x1="85.5" x2="293.4" y1="568.7086" y2="568.7086"/><text fill="#000000" font-family="sans-serif" font-size="11.7" font-weight="bold" lengthAdjust="spacing" textLength="12.6" x="91.8" y="563.9722">16</text><text fill="#000000" font-family="sans-serif" font-size="11.7" lengthAdjust="spacing" textLength="141.3" x="108" y="563.9722">wants to select parameters</text><polygon fill="#181818" points="754.2,593.2705,763.2,596.8705,754.2,600.4705,757.8,596.8705" style="stroke:#181818;stroke-width:0.9;"/><line style="stroke:#181818;stroke-width:0.9;" x1="307.8" x2="759.6" y1="596.8705" y2="596.8705"/><text fill="#000000" font-family="sans-serif" font-size="11.7" font-weight="bold" lengthAdjust="spacing" textLength="12.6" x="314.1" y="592.1341">17</text><text fill="#000000" font-family="sans-serif" font-size="11.7" lengthAdjust="spacing" textLength="145.8" x="330.3" y="592.1341">createSelectedParameters()</text><polygon fill="#181818" points="1265.4,621.4324,1274.4,625.0324,1265.4,628.6324,1269,625.0324" style="stroke:#181818;stroke-width:0.9;"/><line style="stroke:#181818;stroke-width:0.9;" x1="774" x2="1270.8" y1="625.0324" y2="625.0324"/><text fill="#000000" font-family="sans-serif" font-size="11.7" font-weight="bold" lengthAdjust="spacing" textLength="12.6" x="780.3" y="620.296">18</text><text fill="#000000" font-family="sans-serif" font-size="11.7" lengthAdjust="spacing" textLength="113.4" x="796.5" y="620.296">SelectedParameters()</text><polygon fill="#181818" points="783.9,649.5943,774.9,653.1943,783.9,656.7943,780.3,653.1943" style="stroke:#181818;stroke-width:0.9;"/><line style="stroke:#181818;stroke-width:0.9;stroke-dasharray:2.0,2.0;" x1="778.5" x2="1279.8" y1="653.1943" y2="653.1943"/><text fill="#000000" font-family="sans-serif" font-size="11.7" font-weight="bold" lengthAdjust="spacing" textLength="12.6" x="789.3" y="648.4579">19</text><text fill="#000000" font-family="sans-serif" font-size="11.7" lengthAdjust="spacing" textLength="106.2" x="805.5" y="648.4579">SelectedParameters</text><polygon fill="#181818" points="317.7,677.7563,308.7,681.3563,317.7,684.9563,314.1,681.3563" style="stroke:#181818;stroke-width:0.9;"/><line style="stroke:#181818;stroke-width:0.9;stroke-dasharray:2.0,2.0;" x1="312.3" x2="768.6" y1="681.3563" y2="681.3563"/><text fill="#000000" font-family="sans-serif" font-size="11.7" font-weight="bold" lengthAdjust="spacing" textLength="12.6" x="323.1" y="676.6198">20</text><text fill="#000000" font-family="sans-serif" font-size="11.7" lengthAdjust="spacing" textLength="138.6" x="339.3" y="676.6198">createSelectedParameters</text><path d="M18,694.8563 L76.5,694.8563 L76.5,703.2182 L67.5,712.2182 L18,712.2182 L18,694.8563 " fill="#EEEEEE" style="stroke:#000000;stroke-width:1.35;"/><rect fill="none" height="158.1715" style="stroke:#000000;stroke-width:1.35;" width="1337.4" x="18" y="694.8563"/><text fill="#000000" font-family="sans-serif" font-size="11.7" font-weight="bold" lengthAdjust="spacing" textLength="18" x="31.5" y="708.3817">opt</text><text fill="#000000" font-family="sans-serif" font-size="9.9" font-weight="bold" lengthAdjust="spacing" textLength="90.9" x="90" y="707.3394">[type of business]</text><polygon fill="#181818" points="292.5,729.5801,301.5,733.1801,292.5,736.7801,296.1,733.1801" style="stroke:#181818;stroke-width:0.9;"/><line style="stroke:#181818;stroke-width:0.9;" x1="85.5" x2="297.9" y1="733.1801" y2="733.1801"/><text fill="#000000" font-family="sans-serif" font-size="11.7" font-weight="bold" lengthAdjust="spacing" textLength="12.6" x="91.8" y="728.4437">21</text><text fill="#000000" font-family="sans-serif" font-size="11.7" lengthAdjust="spacing" textLength="126.9" x="108" y="728.4437">selects type of business</text><polygon fill="#181818" points="754.2,757.742,763.2,761.342,754.2,764.942,757.8,761.342" style="stroke:#181818;stroke-width:0.9;"/><line style="stroke:#181818;stroke-width:0.9;" x1="312.3" x2="759.6" y1="761.342" y2="761.342"/><text fill="#000000" font-family="sans-serif" font-size="11.7" font-weight="bold" lengthAdjust="spacing" textLength="12.6" x="318.6" y="756.6056">22</text><text fill="#000000" font-family="sans-serif" font-size="11.7" lengthAdjust="spacing" textLength="97.2" x="334.8" y="756.6056">setBusinessType()</text><polygon fill="#181818" points="1265.4,785.9039,1274.4,789.5039,1265.4,793.1039,1269,789.5039" style="stroke:#181818;stroke-width:0.9;"/><line style="stroke:#181818;stroke-width:0.9;" x1="774" x2="1270.8" y1="789.5039" y2="789.5039"/><text fill="#000000" font-family="sans-serif" font-size="11.7" font-weight="bold" lengthAdjust="spacing" textLength="12.6" x="780.3" y="784.7675">23</text><text fill="#000000" font-family="sans-serif" font-size="11.7" lengthAdjust="spacing" textLength="97.2" x="796.5" y="784.7675">setBusinessType()</text><polygon fill="#181818" points="783.9,814.0658,774.9,817.6658,783.9,821.2658,780.3,817.6658" style="stroke:#181818;stroke-width:0.9;"/><line style="stroke:#181818;stroke-width:0.9;stroke-dasharray:2.0,2.0;" x1="778.5" x2="1279.8" y1="817.6658" y2="817.6658"/><text fill="#000000" font-family="sans-serif" font-size="11.7" font-weight="bold" lengthAdjust="spacing" textLength="12.6" x="789.3" y="812.9294">24</text><text fill="#000000" font-family="sans-serif" font-size="11.7" lengthAdjust="spacing" textLength="90" x="805.5" y="812.9294">setBusinessType</text><polygon fill="#181818" points="317.7,842.2277,308.7,845.8277,317.7,849.4277,314.1,845.8277" style="stroke:#181818;stroke-width:0.9;"/><line style="stroke:#181818;stroke-width:0.9;stroke-dasharray:2.0,2.0;" x1="312.3" x2="768.6" y1="845.8277" y2="845.8277"/><text fill="#000000" font-family="sans-serif" font-size="11.7" font-weight="bold" lengthAdjust="spacing" textLength="12.6" x="323.1" y="841.0913">25</text><text fill="#000000" font-family="sans-serif" font-size="11.7" lengthAdjust="spacing" textLength="90" x="339.3" y="841.0913">setBusinessType</text><path d="M18,865.6277 L76.5,865.6277 L76.5,873.9896 L67.5,882.9896 L18,882.9896 L18,865.6277 " fill="#EEEEEE" style="stroke:#000000;stroke-width:1.35;"/><rect fill="none" height="158.1715" style="stroke:#000000;stroke-width:1.35;" width="1337.4" x="18" y="865.6277"/><text fill="#000000" font-family="sans-serif" font-size="11.7" font-weight="bold" lengthAdjust="spacing" textLength="18" x="31.5" y="879.1532">opt</text><text fill="#000000" font-family="sans-serif" font-size="9.9" font-weight="bold" lengthAdjust="spacing" textLength="87.3" x="90" y="878.1108">[type of property]</text><polygon fill="#181818" points="292.5,900.3516,301.5,903.9516,292.5,907.5516,296.1,903.9516" style="stroke:#181818;stroke-width:0.9;"/><line style="stroke:#181818;stroke-width:0.9;" x1="85.5" x2="297.9" y1="903.9516" y2="903.9516"/><text fill="#000000" font-family="sans-serif" font-size="11.7" font-weight="bold" lengthAdjust="spacing" textLength="12.6" x="91.8" y="899.2151">26</text><text fill="#000000" font-family="sans-serif" font-size="11.7" lengthAdjust="spacing" textLength="126" x="108" y="899.2151">selects  type of property</text><polygon fill="#181818" points="754.2,928.5135,763.2,932.1135,754.2,935.7135,757.8,932.1135" style="stroke:#181818;stroke-width:0.9;"/><line style="stroke:#181818;stroke-width:0.9;" x1="312.3" x2="759.6" y1="932.1135" y2="932.1135"/><text fill="#000000" font-family="sans-serif" font-size="11.7" font-weight="bold" lengthAdjust="spacing" textLength="12.6" x="318.6" y="927.3771">27</text><text fill="#000000" font-family="sans-serif" font-size="11.7" lengthAdjust="spacing" textLength="92.7" x="334.8" y="927.3771">setPropertyType()</text><polygon fill="#181818" points="1265.4,956.6754,1274.4,960.2754,1265.4,963.8754,1269,960.2754" style="stroke:#181818;stroke-width:0.9;"/><line style="stroke:#181818;stroke-width:0.9;" x1="774" x2="1270.8" y1="960.2754" y2="960.2754"/><text fill="#000000" font-family="sans-serif" font-size="11.7" font-weight="bold" lengthAdjust="spacing" textLength="12.6" x="780.3" y="955.539">28</text><text fill="#000000" font-family="sans-serif" font-size="11.7" lengthAdjust="spacing" textLength="92.7" x="796.5" y="955.539">setPropertyType()</text><polygon fill="#181818" points="783.9,984.8373,774.9,988.4373,783.9,992.0373,780.3,988.4373" style="stroke:#181818;stroke-width:0.9;"/><line style="stroke:#181818;stroke-width:0.9;stroke-dasharray:2.0,2.0;" x1="778.5" x2="1279.8" y1="988.4373" y2="988.4373"/><text fill="#000000" font-family="sans-serif" font-size="11.7" font-weight="bold" lengthAdjust="spacing" textLength="12.6" x="789.3" y="983.7009">29</text><text fill="#000000" font-family="sans-serif" font-size="11.7" lengthAdjust="spacing" textLength="85.5" x="805.5" y="983.7009">setPropertyType</text><polygon fill="#181818" points="317.7,1012.9992,308.7,1016.5992,317.7,1020.1992,314.1,1016.5992" style="stroke:#181818;stroke-width:0.9;"/><line style="stroke:#181818;stroke-width:0.9;stroke-dasharray:2.0,2.0;" x1="312.3" x2="768.6" y1="1016.5992" y2="1016.5992"/><text fill="#000000" font-family="sans-serif" font-size="11.7" font-weight="bold" lengthAdjust="spacing" textLength="12.6" x="323.1" y="1011.8628">30</text><text fill="#000000" font-family="sans-serif" font-size="11.7" lengthAdjust="spacing" textLength="85.5" x="339.3" y="1011.8628">setPropertyType</text><path d="M9,1036.3992 L63.9,1036.3992 L63.9,1044.7611 L54.9,1053.7611 L9,1053.7611 L9,1036.3992 " fill="#EEEEEE" style="stroke:#000000;stroke-width:1.35;"/><rect fill="none" height="188.1334" style="stroke:#000000;stroke-width:1.35;" width="1355.4" x="9" y="1036.3992"/><text fill="#000000" font-family="sans-serif" font-size="11.7" font-weight="bold" lengthAdjust="spacing" textLength="14.4" x="22.5" y="1049.9247">alt</text><text fill="#000000" font-family="sans-serif" font-size="9.9" font-weight="bold" lengthAdjust="spacing" textLength="112.5" x="77.4" y="1048.8823">[propertyType != Land]</text><path d="M18,1060.0611 L76.5,1060.0611 L76.5,1068.423 L67.5,1077.423 L18,1077.423 L18,1060.0611 " fill="#EEEEEE" style="stroke:#000000;stroke-width:1.35;"/><rect fill="none" height="158.1715" style="stroke:#000000;stroke-width:1.35;" width="1337.4" x="18" y="1060.0611"/><text fill="#000000" font-family="sans-serif" font-size="11.7" font-weight="bold" lengthAdjust="spacing" textLength="18" x="31.5" y="1073.5866">opt</text><text fill="#000000" font-family="sans-serif" font-size="9.9" font-weight="bold" lengthAdjust="spacing" textLength="95.4" x="90" y="1072.5442">[number of rooms]</text><polygon fill="#181818" points="292.5,1094.785,301.5,1098.385,292.5,1101.985,296.1,1098.385" style="stroke:#181818;stroke-width:0.9;"/><line style="stroke:#181818;stroke-width:0.9;" x1="85.5" x2="297.9" y1="1098.385" y2="1098.385"/><text fill="#000000" font-family="sans-serif" font-size="11.7" font-weight="bold" lengthAdjust="spacing" textLength="12.6" x="91.8" y="1093.6485">31</text><text fill="#000000" font-family="sans-serif" font-size="11.7" lengthAdjust="spacing" textLength="128.7" x="108" y="1093.6485">selects number of rooms</text><polygon fill="#181818" points="754.2,1122.9469,763.2,1126.5469,754.2,1130.1469,757.8,1126.5469" style="stroke:#181818;stroke-width:0.9;"/><line style="stroke:#181818;stroke-width:0.9;" x1="312.3" x2="759.6" y1="1126.5469" y2="1126.5469"/><text fill="#000000" font-family="sans-serif" font-size="11.7" font-weight="bold" lengthAdjust="spacing" textLength="12.6" x="318.6" y="1121.8104">32</text><text fill="#000000" font-family="sans-serif" font-size="11.7" lengthAdjust="spacing" textLength="100.8" x="334.8" y="1121.8104">setNumberRooms()</text><polygon fill="#181818" points="1265.4,1151.1088,1274.4,1154.7088,1265.4,1158.3088,1269,1154.7088" style="stroke:#181818;stroke-width:0.9;"/><line style="stroke:#181818;stroke-width:0.9;" x1="774" x2="1270.8" y1="1154.7088" y2="1154.7088"/><text fill="#000000" font-family="sans-serif" font-size="11.7" font-weight="bold" lengthAdjust="spacing" textLength="12.6" x="780.3" y="1149.9724">33</text><text fill="#000000" font-family="sans-serif" font-size="11.7" lengthAdjust="spacing" textLength="100.8" x="796.5" y="1149.9724">setNumberRooms()</text><polygon fill="#181818" points="783.9,1179.2707,774.9,1182.8707,783.9,1186.4707,780.3,1182.8707" style="stroke:#181818;stroke-width:0.9;"/><line style="stroke:#181818;stroke-width:0.9;stroke-dasharray:2.0,2.0;" x1="778.5" x2="1279.8" y1="1182.8707" y2="1182.8707"/><text fill="#000000" font-family="sans-serif" font-size="11.7" font-weight="bold" lengthAdjust="spacing" textLength="12.6" x="789.3" y="1178.1343">34</text><text fill="#000000" font-family="sans-serif" font-size="11.7" lengthAdjust="spacing" textLength="93.6" x="805.5" y="1178.1343">setNumberRooms</text><polygon fill="#181818" points="317.7,1207.4326,308.7,1211.0326,317.7,1214.6326,314.1,1211.0326" style="stroke:#181818;stroke-width:0.9;"/><line style="stroke:#181818;stroke-width:0.9;stroke-dasharray:2.0,2.0;" x1="312.3" x2="768.6" y1="1211.0326" y2="1211.0326"/><text fill="#000000" font-family="sans-serif" font-size="11.7" font-weight="bold" lengthAdjust="spacing" textLength="12.6" x="323.1" y="1206.2962">35</text><text fill="#000000" font-family="sans-serif" font-size="11.7" lengthAdjust="spacing" textLength="93.6" x="339.3" y="1206.2962">setNumberRooms</text><line style="stroke:#181818;stroke-width:0.9;" x1="307.8" x2="345.6" y1="1251.7945" y2="1251.7945"/><line style="stroke:#181818;stroke-width:0.9;" x1="345.6" x2="345.6" y1="1251.7945" y2="1263.4945"/><line style="stroke:#181818;stroke-width:0.9;" x1="308.7" x2="345.6" y1="1263.4945" y2="1263.4945"/><polygon fill="#181818" points="317.7,1259.8945,308.7,1263.4945,317.7,1267.0945,314.1,1263.4945" style="stroke:#181818;stroke-width:0.9;"/><text fill="#000000" font-family="sans-serif" font-size="11.7" font-weight="bold" lengthAdjust="spacing" textLength="12.6" x="314.1" y="1247.0581">36</text><text fill="#000000" font-family="sans-serif" font-size="11.7" font-weight="bold" lengthAdjust="spacing" textLength="36" x="330.3" y="1247.0581">loop: [</text><text fill="#000000" font-family="sans-serif" font-size="11.7" lengthAdjust="spacing" textLength="388.8" x="366.3" y="1247.0581">displayAnnouncementList(AnnouncementRepository, SelectedParameters)</text><text fill="#000000" font-family="sans-serif" font-size="11.7" font-weight="bold" lengthAdjust="spacing" textLength="3.6" x="755.1" y="1247.0581">]</text><polygon fill="#181818" points="95.4,1288.0564,86.4,1291.6564,95.4,1295.2564,91.8,1291.6564" style="stroke:#181818;stroke-width:0.9;"/><line style="stroke:#181818;stroke-width:0.9;stroke-dasharray:2.0,2.0;" x1="90" x2="297.9" y1="1291.6564" y2="1291.6564"/><text fill="#000000" font-family="sans-serif" font-size="11.7" font-weight="bold" lengthAdjust="spacing" textLength="12.6" x="100.8" y="1286.92">37</text><text fill="#000000" font-family="sans-serif" font-size="11.7" lengthAdjust="spacing" textLength="107.1" x="117" y="1286.92">shows requested list</text><polygon fill="#181818" points="95.4,1316.2184,86.4,1319.8184,95.4,1323.4184,91.8,1319.8184" style="stroke:#181818;stroke-width:0.9;"/><line style="stroke:#181818;stroke-width:0.9;stroke-dasharray:2.0,2.0;" x1="90" x2="302.4" y1="1319.8184" y2="1319.8184"/><text fill="#000000" font-family="sans-serif" font-size="11.7" font-weight="bold" lengthAdjust="spacing" textLength="12.6" x="100.8" y="1315.0819">38</text><text fill="#000000" font-family="sans-serif" font-size="11.7" lengthAdjust="spacing" textLength="172.8" x="117" y="1315.0819">allows to sort by price or address</text><path d="M18,1333.3184 L72.9,1333.3184 L72.9,1341.6803 L63.9,1350.6803 L18,1350.6803 L18,1333.3184 " fill="#EEEEEE" style="stroke:#000000;stroke-width:1.35;"/><rect fill="none" height="254.3572" style="stroke:#000000;stroke-width:1.35;" width="1337.4" x="18" y="1333.3184"/><text fill="#000000" font-family="sans-serif" font-size="11.7" font-weight="bold" lengthAdjust="spacing" textLength="14.4" x="31.5" y="1346.8438">alt</text><text fill="#000000" font-family="sans-serif" font-size="9.9" font-weight="bold" lengthAdjust="spacing" textLength="70.2" x="86.4" y="1345.8015">[sort by price]</text><polygon fill="#181818" points="288,1368.0422,297,1371.6422,288,1375.2422,291.6,1371.6422" style="stroke:#181818;stroke-width:0.9;"/><line style="stroke:#181818;stroke-width:0.9;" x1="85.5" x2="293.4" y1="1371.6422" y2="1371.6422"/><text fill="#000000" font-family="sans-serif" font-size="11.7" font-weight="bold" lengthAdjust="spacing" textLength="12.6" x="91.8" y="1366.9058">39</text><text fill="#000000" font-family="sans-serif" font-size="11.7" lengthAdjust="spacing" textLength="66.6" x="108" y="1366.9058">selects price</text><polygon fill="#181818" points="754.2,1396.2041,763.2,1399.8041,754.2,1403.4041,757.8,1399.8041" style="stroke:#181818;stroke-width:0.9;"/><line style="stroke:#181818;stroke-width:0.9;" x1="307.8" x2="759.6" y1="1399.8041" y2="1399.8041"/><text fill="#000000" font-family="sans-serif" font-size="11.7" font-weight="bold" lengthAdjust="spacing" textLength="12.6" x="314.1" y="1395.0677">40</text><text fill="#000000" font-family="sans-serif" font-size="11.7" lengthAdjust="spacing" textLength="69.3" x="330.3" y="1395.0677">priceSorting()</text><polygon fill="#181818" points="1265.4,1424.366,1274.4,1427.966,1265.4,1431.566,1269,1427.966" style="stroke:#181818;stroke-width:0.9;"/><line style="stroke:#181818;stroke-width:0.9;" x1="774" x2="1270.8" y1="1427.966" y2="1427.966"/><text fill="#000000" font-family="sans-serif" font-size="11.7" font-weight="bold" lengthAdjust="spacing" textLength="12.6" x="780.3" y="1423.2296">41</text><text fill="#000000" font-family="sans-serif" font-size="11.7" lengthAdjust="spacing" textLength="69.3" x="796.5" y="1423.2296">priceSorting()</text><polygon fill="#181818" points="783.9,1452.5279,774.9,1456.1279,783.9,1459.7279,780.3,1456.1279" style="stroke:#181818;stroke-width:0.9;"/><line style="stroke:#181818;stroke-width:0.9;stroke-dasharray:2.0,2.0;" x1="778.5" x2="1279.8" y1="1456.1279" y2="1456.1279"/><text fill="#000000" font-family="sans-serif" font-size="11.7" font-weight="bold" lengthAdjust="spacing" textLength="12.6" x="789.3" y="1451.3915">42</text><text fill="#000000" font-family="sans-serif" font-size="11.7" lengthAdjust="spacing" textLength="62.1" x="805.5" y="1451.3915">priceSorting</text><polygon fill="#181818" points="317.7,1480.6898,308.7,1484.2898,317.7,1487.8898,314.1,1484.2898" style="stroke:#181818;stroke-width:0.9;"/><line style="stroke:#181818;stroke-width:0.9;stroke-dasharray:2.0,2.0;" x1="312.3" x2="768.6" y1="1484.2898" y2="1484.2898"/><text fill="#000000" font-family="sans-serif" font-size="11.7" font-weight="bold" lengthAdjust="spacing" textLength="12.6" x="323.1" y="1479.5534">43</text><text fill="#000000" font-family="sans-serif" font-size="11.7" lengthAdjust="spacing" textLength="62.1" x="339.3" y="1479.5534">priceSorting</text><line style="stroke:#181818;stroke-width:0.9;" x1="307.8" x2="345.6" y1="1512.4518" y2="1512.4518"/><line style="stroke:#181818;stroke-width:0.9;" x1="345.6" x2="345.6" y1="1512.4518" y2="1524.1518"/><line style="stroke:#181818;stroke-width:0.9;" x1="308.7" x2="345.6" y1="1524.1518" y2="1524.1518"/><polygon fill="#181818" points="317.7,1520.5518,308.7,1524.1518,317.7,1527.7518,314.1,1524.1518" style="stroke:#181818;stroke-width:0.9;"/><text fill="#000000" font-family="sans-serif" font-size="11.7" font-weight="bold" lengthAdjust="spacing" textLength="12.6" x="314.1" y="1507.7153">44</text><text fill="#000000" font-family="sans-serif" font-size="11.7" font-weight="bold" lengthAdjust="spacing" textLength="36" x="330.3" y="1507.7153">loop: [</text><text fill="#000000" font-family="sans-serif" font-size="11.7" lengthAdjust="spacing" textLength="388.8" x="366.3" y="1507.7153">displayAnnouncementList(AnnouncementRepository, SelectedParameters)</text><text fill="#000000" font-family="sans-serif" font-size="11.7" font-weight="bold" lengthAdjust="spacing" textLength="3.6" x="755.1" y="1507.7153">]</text><polygon fill="#181818" points="95.4,1548.7137,86.4,1552.3137,95.4,1555.9137,91.8,1552.3137" style="stroke:#181818;stroke-width:0.9;"/><line style="stroke:#181818;stroke-width:0.9;stroke-dasharray:2.0,2.0;" x1="90" x2="297.9" y1="1552.3137" y2="1552.3137"/><text fill="#000000" font-family="sans-serif" font-size="11.7" font-weight="bold" lengthAdjust="spacing" textLength="12.6" x="100.8" y="1547.5772">45</text><text fill="#000000" font-family="sans-serif" font-size="11.7" lengthAdjust="spacing" textLength="107.1" x="117" y="1547.5772">shows requested list</text><polygon fill="#181818" points="95.4,1576.8756,86.4,1580.4756,95.4,1584.0756,91.8,1580.4756" style="stroke:#181818;stroke-width:0.9;"/><line style="stroke:#181818;stroke-width:0.9;stroke-dasharray:2.0,2.0;" x1="90" x2="302.4" y1="1580.4756" y2="1580.4756"/><text fill="#000000" font-family="sans-serif" font-size="11.7" font-weight="bold" lengthAdjust="spacing" textLength="12.6" x="100.8" y="1575.7392">46</text><text fill="#000000" font-family="sans-serif" font-size="11.7" lengthAdjust="spacing" textLength="172.8" x="117" y="1575.7392">allows to sort by price or address</text><path d="M18,1600.2756 L72.9,1600.2756 L72.9,1608.6375 L63.9,1617.6375 L18,1617.6375 L18,1600.2756 " fill="#EEEEEE" style="stroke:#000000;stroke-width:1.35;"/><rect fill="none" height="254.3572" style="stroke:#000000;stroke-width:1.35;" width="1337.4" x="18" y="1600.2756"/><text fill="#000000" font-family="sans-serif" font-size="11.7" font-weight="bold" lengthAdjust="spacing" textLength="14.4" x="31.5" y="1613.8011">alt</text><text fill="#000000" font-family="sans-serif" font-size="9.9" font-weight="bold" lengthAdjust="spacing" textLength="86.4" x="86.4" y="1612.7587">[sort by address]</text><polygon fill="#181818" points="288,1634.9994,297,1638.5994,288,1642.1994,291.6,1638.5994" style="stroke:#181818;stroke-width:0.9;"/><line style="stroke:#181818;stroke-width:0.9;" x1="85.5" x2="293.4" y1="1638.5994" y2="1638.5994"/><text fill="#000000" font-family="sans-serif" font-size="11.7" font-weight="bold" lengthAdjust="spacing" textLength="12.6" x="91.8" y="1633.863">47</text><text fill="#000000" font-family="sans-serif" font-size="11.7" lengthAdjust="spacing" textLength="82.8" x="108" y="1633.863">selects address</text><polygon fill="#181818" points="754.2,1663.1613,763.2,1666.7613,754.2,1670.3613,757.8,1666.7613" style="stroke:#181818;stroke-width:0.9;"/><line style="stroke:#181818;stroke-width:0.9;" x1="307.8" x2="759.6" y1="1666.7613" y2="1666.7613"/><text fill="#000000" font-family="sans-serif" font-size="11.7" font-weight="bold" lengthAdjust="spacing" textLength="12.6" x="314.1" y="1662.0249">48</text><text fill="#000000" font-family="sans-serif" font-size="11.7" lengthAdjust="spacing" textLength="66.6" x="330.3" y="1662.0249">setAddress()</text><polygon fill="#181818" points="1265.4,1691.3232,1274.4,1694.9232,1265.4,1698.5232,1269,1694.9232" style="stroke:#181818;stroke-width:0.9;"/><line style="stroke:#181818;stroke-width:0.9;" x1="774" x2="1270.8" y1="1694.9232" y2="1694.9232"/><text fill="#000000" font-family="sans-serif" font-size="11.7" font-weight="bold" lengthAdjust="spacing" textLength="12.6" x="780.3" y="1690.1868">49</text><text fill="#000000" font-family="sans-serif" font-size="11.7" lengthAdjust="spacing" textLength="66.6" x="796.5" y="1690.1868">setAddress()</text><polygon fill="#181818" points="783.9,1719.4852,774.9,1723.0852,783.9,1726.6852,780.3,1723.0852" style="stroke:#181818;stroke-width:0.9;"/><line style="stroke:#181818;stroke-width:0.9;stroke-dasharray:2.0,2.0;" x1="778.5" x2="1279.8" y1="1723.0852" y2="1723.0852"/><text fill="#000000" font-family="sans-serif" font-size="11.7" font-weight="bold" lengthAdjust="spacing" textLength="12.6" x="789.3" y="1718.3487">50</text><text fill="#000000" font-family="sans-serif" font-size="11.7" lengthAdjust="spacing" textLength="59.4" x="805.5" y="1718.3487">setAddress</text><polygon fill="#181818" points="317.7,1747.6471,308.7,1751.2471,317.7,1754.8471,314.1,1751.2471" style="stroke:#181818;stroke-width:0.9;"/><line style="stroke:#181818;stroke-width:0.9;stroke-dasharray:2.0,2.0;" x1="312.3" x2="768.6" y1="1751.2471" y2="1751.2471"/><text fill="#000000" font-family="sans-serif" font-size="11.7" font-weight="bold" lengthAdjust="spacing" textLength="12.6" x="323.1" y="1746.5106">51</text><text fill="#000000" font-family="sans-serif" font-size="11.7" lengthAdjust="spacing" textLength="59.4" x="339.3" y="1746.5106">setAddress</text><line style="stroke:#181818;stroke-width:0.9;" x1="307.8" x2="345.6" y1="1779.409" y2="1779.409"/><line style="stroke:#181818;stroke-width:0.9;" x1="345.6" x2="345.6" y1="1779.409" y2="1791.109"/><line style="stroke:#181818;stroke-width:0.9;" x1="308.7" x2="345.6" y1="1791.109" y2="1791.109"/><polygon fill="#181818" points="317.7,1787.509,308.7,1791.109,317.7,1794.709,314.1,1791.109" style="stroke:#181818;stroke-width:0.9;"/><text fill="#000000" font-family="sans-serif" font-size="11.7" font-weight="bold" lengthAdjust="spacing" textLength="12.6" x="314.1" y="1774.6726">52</text><text fill="#000000" font-family="sans-serif" font-size="11.7" font-weight="bold" lengthAdjust="spacing" textLength="36" x="330.3" y="1774.6726">loop: [</text><text fill="#000000" font-family="sans-serif" font-size="11.7" lengthAdjust="spacing" textLength="388.8" x="366.3" y="1774.6726">displayAnnouncementList(AnnouncementRepository, SelectedParameters)</text><text fill="#000000" font-family="sans-serif" font-size="11.7" font-weight="bold" lengthAdjust="spacing" textLength="3.6" x="755.1" y="1774.6726">]</text><polygon fill="#181818" points="95.4,1815.6709,86.4,1819.2709,95.4,1822.8709,91.8,1819.2709" style="stroke:#181818;stroke-width:0.9;"/><line style="stroke:#181818;stroke-width:0.9;stroke-dasharray:2.0,2.0;" x1="90" x2="297.9" y1="1819.2709" y2="1819.2709"/><text fill="#000000" font-family="sans-serif" font-size="11.7" font-weight="bold" lengthAdjust="spacing" textLength="12.6" x="100.8" y="1814.5345">53</text><text fill="#000000" font-family="sans-serif" font-size="11.7" lengthAdjust="spacing" textLength="107.1" x="117" y="1814.5345">shows requested list</text><polygon fill="#181818" points="95.4,1843.8328,86.4,1847.4328,95.4,1851.0328,91.8,1847.4328" style="stroke:#181818;stroke-width:0.9;"/><line style="stroke:#181818;stroke-width:0.9;stroke-dasharray:2.0,2.0;" x1="90" x2="302.4" y1="1847.4328" y2="1847.4328"/><text fill="#000000" font-family="sans-serif" font-size="11.7" font-weight="bold" lengthAdjust="spacing" textLength="12.6" x="100.8" y="1842.6964">54</text><text fill="#000000" font-family="sans-serif" font-size="11.7" lengthAdjust="spacing" textLength="172.8" x="117" y="1842.6964">allows to sort by price or address</text><!--SRC=[tLZDRjim3BxhARHUrXhh2nJOWAwN5IY6e5bEsmwApIH27ScJb7P- -r5suyYn92jjiXNJBJRvyU-ZI4S_S54nnTPqBONCLqgkWHgr0QAxDnNB7zWIfgOkWIh83HFBqXNGArR89owMTC5A3OImZP5Yivw38kJzYXT05rAQkVnDM6waecSpeM39jG451PrfK6UKQNfJSX268AZXEQ-OCFJiQg9a1ShKToW-kstaPhSHcHifZ99bkSNiVkxft4CbDKTlEEX6qdtGbrNEcnyYebdtzPWGSYDoM6DKUYU44DVEczsB1ip_Qi_vAPHO1oWcDl-0QMmTcKw8pJ1_P0QssIJq-RI_wUKdp1-zebnmmr5Eqqh99S9qWXq2vfaw1zLGUPVGB4EON06AzkHAAIiAZw1gmosRLinGhf4vlpRSrjj8Md1TbQnsOxMrwy7uJAB1WEhvC2KN0xXTRdQie9xZ64JpRhtHWIMOMw6n2N8ul_2gTsPwbAA9fsVkSZzyDGPPGBhvG9nr6wMVYSanruT7N0_Z3RH3QkHrGjn-4sqEBBMWk6EYq6E17-2fxmIy62IaxzHO8Wvmwj2aNDihgRdQtbfcTfxzm_HyaHiDRourhLSdIijsjAJUxex5m8KCecZ6oM0EsG3RUTQPeoNQe0jUjbl5lCQL1X_WmcB7eCScZhVGS7p2CQljeDBDLA5LDrGEdfBTZ1mEg3rof4odFWkd4qGVnUrXuuhWAoCY3KWp18vLq0FiuqOe5sIS68JqX6HbgAahe791vnlD1UYXWtjrRSkfn_L2rOrKMOFv_0pt3U77Edza1GaKEyr8IiLZbT-p4jIFbpz6WnGBuzV3iA7tBmyaIPWrrVDdGofhnXLVHfljvyj9QPDWv0YqSQsSXZQZ5av26rQQhkhMCdttaTe5R81h-TL- -bgYA2dNWTNRJx4KrJ6IXOdsjK6_jyWf54ZWMfXlQROEeLo4TewnA4GQyoBiIp6KHi0u2LqYxZz3BXBFoj6uc6LsNRgYtxCizA7iN-u-UCRzHPRzp38INRxqIZwrt_PWzyjc2OjhiBAqAdQvaihOFQrIFCTxLL5M5CgTne5bpJPZJvSaT5OhI58RoTD03S8KxNAnF3_MdmjDkumWfpQ9hpbSQFAobl2rGXGshG7-9cjVnjnNiZVSuOCkTXdjWmbmsYTw8AdnJhjkKOvBwIZkQmYz0puYdIEWusJ-Rw_V108tnqrH-wVp7m00]--></g></svg>