<?xml version="1.0" encoding="us-ascii" standalone="no"?><svg xmlns="http://www.w3.org/2000/svg" xmlns:xlink="http://www.w3.org/1999/xlink" contentStyleType="text/css" height="373.24px" preserveAspectRatio="none" style="width:562px;height:373px;background:#FFFFFF;" version="1.1" viewBox="0 0 562 373" width="562.96px" zoomAndPan="magnify"><defs/><g><!--class ListingDealsUI--><g id="elem_ListingDealsUI"><rect codeLine="12" fill="#F1F1F1" height="14.88" id="ListingDealsUI" rx="0.775" ry="0.775" style="stroke:#181818;stroke-width:0.155;" width="37.51" x="2.17" y="13.64"/><ellipse cx="6.82" cy="18.6" fill="#ADD1B2" rx="3.41" ry="3.41" style="stroke:#181818;stroke-width:0.31;"/><path d="M7.6773,17.3213 Q7.7258,17.2534 7.7839,17.2195 Q7.842,17.1856 7.9098,17.1856 Q8.0261,17.1856 8.0988,17.268 Q8.1714,17.3455 8.1714,17.5344 L8.1714,17.9848 Q8.1714,18.1738 8.0988,18.2561 Q8.0261,18.3384 7.9098,18.3384 Q7.8033,18.3384 7.7403,18.2755 Q7.6773,18.2173 7.6434,18.0575 Q7.6289,17.9461 7.5708,17.888 Q7.4691,17.7717 7.2802,17.7039 Q7.0913,17.6361 6.8975,17.6361 Q6.6602,17.6361 6.4616,17.7378 Q6.2678,17.8395 6.1128,18.072 Q5.9627,18.3045 5.9627,18.6242 L5.9627,18.9633 Q5.9627,19.3459 6.2388,19.6027 Q6.5148,19.8545 7.0089,19.8545 Q7.2995,19.8545 7.503,19.777 Q7.6241,19.7286 7.7548,19.593 Q7.8372,19.5106 7.8808,19.4864 Q7.9292,19.4622 7.9922,19.4622 Q8.0939,19.4622 8.1714,19.5445 Q8.2538,19.622 8.2538,19.7286 Q8.2538,19.8352 8.1472,19.9611 Q7.9922,20.1403 7.7452,20.242 Q7.4109,20.3825 7.0089,20.3825 Q6.5391,20.3825 6.1661,20.1888 Q5.8609,20.0338 5.6478,19.7044 Q5.4347,19.3702 5.4347,18.973 L5.4347,18.6145 Q5.4347,18.2028 5.6236,17.8492 Q5.8173,17.4908 6.1564,17.3019 Q6.4955,17.1081 6.8781,17.1081 Q7.1058,17.1081 7.3044,17.1614 Q7.5078,17.2098 7.6773,17.3213 Z " fill="#000000"/><text fill="#000000" font-family="sans-serif" font-size="4.34" lengthAdjust="spacing" textLength="27.59" x="11.16" y="20.397">ListingDealsUI</text><line style="stroke:#181818;stroke-width:0.155;" x1="2.48" x2="39.37" y1="23.56" y2="23.56"/><line style="stroke:#181818;stroke-width:0.155;" x1="2.48" x2="39.37" y1="26.04" y2="26.04"/></g><!--class PurchaseOrderRepository--><g id="elem_PurchaseOrderRepository"><rect codeLine="16" fill="#F1F1F1" height="26.4251" id="PurchaseOrderRepository" rx="0.775" ry="0.775" style="stroke:#181818;stroke-width:0.155;" width="101.06" x="33.945" y="81.995"/><ellipse cx="57.5825" cy="86.955" fill="#ADD1B2" rx="3.41" ry="3.41" style="stroke:#181818;stroke-width:0.31;"/><path d="M58.4398,85.6763 Q58.4883,85.6084 58.5464,85.5745 Q58.6045,85.5406 58.6723,85.5406 Q58.7886,85.5406 58.8613,85.623 Q58.9339,85.7005 58.9339,85.8894 L58.9339,86.3398 Q58.9339,86.5288 58.8613,86.6111 Q58.7886,86.6934 58.6723,86.6934 Q58.5658,86.6934 58.5028,86.6305 Q58.4398,86.5723 58.4059,86.4125 Q58.3914,86.3011 58.3333,86.243 Q58.2316,86.1267 58.0427,86.0589 Q57.8538,85.9911 57.66,85.9911 Q57.4227,85.9911 57.2241,86.0928 Q57.0303,86.1945 56.8753,86.427 Q56.7252,86.6595 56.7252,86.9792 L56.7252,87.3183 Q56.7252,87.7009 57.0013,87.9577 Q57.2773,88.2095 57.7714,88.2095 Q58.062,88.2095 58.2655,88.132 Q58.3866,88.0836 58.5173,87.948 Q58.5997,87.8656 58.6433,87.8414 Q58.6917,87.8172 58.7547,87.8172 Q58.8564,87.8172 58.9339,87.8995 Q59.0163,87.977 59.0163,88.0836 Q59.0163,88.1902 58.9097,88.3161 Q58.7547,88.4953 58.5077,88.597 Q58.1734,88.7375 57.7714,88.7375 Q57.3016,88.7375 56.9286,88.5438 Q56.6234,88.3888 56.4103,88.0594 Q56.1972,87.7252 56.1972,87.328 L56.1972,86.9695 Q56.1972,86.5578 56.3861,86.2042 Q56.5798,85.8458 56.9189,85.6569 Q57.258,85.4631 57.6406,85.4631 Q57.8683,85.4631 58.0669,85.5164 Q58.2703,85.5648 58.4398,85.6763 Z " fill="#000000"/><text fill="#000000" font-family="sans-serif" font-size="4.34" lengthAdjust="spacing" textLength="51.15" x="63.9375" y="88.752">PurchaseOrderRepository</text><line style="stroke:#181818;stroke-width:0.155;" x1="34.255" x2="134.695" y1="91.915" y2="91.915"/><text fill="#000000" font-family="sans-serif" font-size="4.34" lengthAdjust="spacing" textLength="97.34" x="35.805" y="97.8383">-purchaseOrdersAccepted : List&lt;PurchaseOrder&gt;</text><line style="stroke:#181818;stroke-width:0.31;" x1="34.255" x2="134.695" y1="100.1675" y2="100.1675"/><text fill="#000000" font-family="sans-serif" font-size="4.34" lengthAdjust="spacing" textLength="62.31" x="35.805" y="106.0908">+getPurchaseOrdersAccepted()</text></g><!--class ListingDealsController--><g id="elem_ListingDealsController"><rect codeLine="22" fill="#F1F1F1" height="37.9702" id="ListingDealsController" rx="0.775" ry="0.775" style="stroke:#181818;stroke-width:0.155;" width="67.89" x="50.53" y="2.17"/><ellipse cx="61.876" cy="7.13" fill="#ADD1B2" rx="3.41" ry="3.41" style="stroke:#181818;stroke-width:0.31;"/><path d="M62.7333,5.8513 Q62.7818,5.7834 62.8399,5.7495 Q62.898,5.7156 62.9658,5.7156 Q63.0821,5.7156 63.1548,5.798 Q63.2274,5.8755 63.2274,6.0644 L63.2274,6.5148 Q63.2274,6.7038 63.1548,6.7861 Q63.0821,6.8684 62.9658,6.8684 Q62.8593,6.8684 62.7963,6.8055 Q62.7333,6.7473 62.6994,6.5875 Q62.6849,6.4761 62.6268,6.418 Q62.5251,6.3017 62.3362,6.2339 Q62.1473,6.1661 61.9535,6.1661 Q61.7162,6.1661 61.5176,6.2678 Q61.3238,6.3695 61.1688,6.602 Q61.0187,6.8345 61.0187,7.1542 L61.0187,7.4933 Q61.0187,7.8759 61.2948,8.1327 Q61.5708,8.3845 62.0649,8.3845 Q62.3555,8.3845 62.559,8.307 Q62.6801,8.2586 62.8108,8.123 Q62.8932,8.0406 62.9368,8.0164 Q62.9852,7.9922 63.0482,7.9922 Q63.1499,7.9922 63.2274,8.0745 Q63.3098,8.152 63.3098,8.2586 Q63.3098,8.3652 63.2032,8.4911 Q63.0482,8.6703 62.8012,8.772 Q62.4669,8.9125 62.0649,8.9125 Q61.5951,8.9125 61.2221,8.7188 Q60.9169,8.5638 60.7038,8.2344 Q60.4907,7.9002 60.4907,7.503 L60.4907,7.1445 Q60.4907,6.7328 60.6796,6.3792 Q60.8733,6.0208 61.2124,5.8319 Q61.5515,5.6381 61.9341,5.6381 Q62.1618,5.6381 62.3604,5.6914 Q62.5638,5.7398 62.7333,5.8513 Z " fill="#000000"/><text fill="#000000" font-family="sans-serif" font-size="4.34" lengthAdjust="spacing" textLength="43.09" x="67.704" y="8.927">ListingDealsController</text><line style="stroke:#181818;stroke-width:0.155;" x1="50.84" x2="118.11" y1="12.09" y2="12.09"/><line style="stroke:#181818;stroke-width:0.31;" x1="50.84" x2="118.11" y1="14.57" y2="14.57"/><text fill="#000000" font-family="sans-serif" font-size="4.34" lengthAdjust="spacing" textLength="62.31" x="52.39" y="20.4933">+getPurchaseOrdersAccepted()</text><text fill="#000000" font-family="sans-serif" font-size="4.34" lengthAdjust="spacing" textLength="48.98" x="52.39" y="26.2658">+getProperty(propertyID)</text><text fill="#000000" font-family="sans-serif" font-size="4.34" lengthAdjust="spacing" textLength="64.17" x="52.39" y="32.0384">+sortListBubble(sortingDirection)</text><text fill="#000000" font-family="sans-serif" font-size="4.34" lengthAdjust="spacing" textLength="61.69" x="52.39" y="37.8109">+sortSelection(sortingDirection)</text></g><!--class Repositories--><g id="elem_Repositories"><rect codeLine="30" fill="#F1F1F1" height="37.9702" id="Repositories" rx="0.775" ry="0.775" style="stroke:#181818;stroke-width:0.155;" width="66.65" x="150.66" y="2.17"/><ellipse cx="170.4225" cy="7.13" fill="#ADD1B2" rx="3.41" ry="3.41" style="stroke:#181818;stroke-width:0.31;"/><path d="M171.2798,5.8513 Q171.3283,5.7834 171.3864,5.7495 Q171.4445,5.7156 171.5123,5.7156 Q171.6286,5.7156 171.7013,5.798 Q171.7739,5.8755 171.7739,6.0644 L171.7739,6.5148 Q171.7739,6.7038 171.7013,6.7861 Q171.6286,6.8684 171.5123,6.8684 Q171.4058,6.8684 171.3428,6.8055 Q171.2798,6.7473 171.2459,6.5875 Q171.2314,6.4761 171.1733,6.418 Q171.0716,6.3017 170.8827,6.2339 Q170.6938,6.1661 170.5,6.1661 Q170.2627,6.1661 170.0641,6.2678 Q169.8703,6.3695 169.7153,6.602 Q169.5652,6.8345 169.5652,7.1542 L169.5652,7.4933 Q169.5652,7.8759 169.8413,8.1327 Q170.1173,8.3845 170.6114,8.3845 Q170.902,8.3845 171.1055,8.307 Q171.2266,8.2586 171.3573,8.123 Q171.4397,8.0406 171.4833,8.0164 Q171.5317,7.9922 171.5947,7.9922 Q171.6964,7.9922 171.7739,8.0745 Q171.8563,8.152 171.8563,8.2586 Q171.8563,8.3652 171.7497,8.4911 Q171.5947,8.6703 171.3477,8.772 Q171.0134,8.9125 170.6114,8.9125 Q170.1416,8.9125 169.7686,8.7188 Q169.4634,8.5638 169.2503,8.2344 Q169.0372,7.9002 169.0372,7.503 L169.0372,7.1445 Q169.0372,6.7328 169.2261,6.3792 Q169.4198,6.0208 169.7589,5.8319 Q170.098,5.6381 170.4806,5.6381 Q170.7083,5.6381 170.9069,5.6914 Q171.1103,5.7398 171.2798,5.8513 Z " fill="#000000"/><text fill="#000000" font-family="sans-serif" font-size="4.34" lengthAdjust="spacing" textLength="24.49" x="176.7775" y="8.927">Repositories</text><line style="stroke:#181818;stroke-width:0.155;" x1="150.97" x2="217" y1="12.09" y2="12.09"/><line style="stroke:#181818;stroke-width:0.31;" x1="150.97" x2="217" y1="14.57" y2="14.57"/><text fill="#000000" font-family="sans-serif" font-size="4.34" lengthAdjust="spacing" textLength="29.14" x="152.52" y="20.4933">-Repositories()</text><text fill="#000000" font-family="sans-serif" font-size="4.34" lengthAdjust="spacing" textLength="56.42" x="152.52" y="26.2658">+getInstance() : Repositories</text><text fill="#000000" font-family="sans-serif" font-size="4.34" lengthAdjust="spacing" textLength="62.93" x="152.52" y="32.0384">+getPurchaseOrderRepository()</text><text fill="#000000" font-family="sans-serif" font-size="4.34" lengthAdjust="spacing" textLength="1.24" x="152.52" y="37.8109">&#160;</text></g><!--class PurchaseOrder--><g id="elem_PurchaseOrder"><rect codeLine="38" fill="#F1F1F1" height="49.5152" id="PurchaseOrder" rx="0.775" ry="0.775" style="stroke:#181818;stroke-width:0.155;" width="69.75" x="146.01" y="70.37"/><ellipse cx="164.5325" cy="75.33" fill="#ADD1B2" rx="3.41" ry="3.41" style="stroke:#181818;stroke-width:0.31;"/><path d="M165.3898,74.0513 Q165.4383,73.9834 165.4964,73.9495 Q165.5545,73.9156 165.6223,73.9156 Q165.7386,73.9156 165.8113,73.998 Q165.8839,74.0755 165.8839,74.2644 L165.8839,74.7148 Q165.8839,74.9038 165.8113,74.9861 Q165.7386,75.0684 165.6223,75.0684 Q165.5158,75.0684 165.4528,75.0055 Q165.3898,74.9473 165.3559,74.7875 Q165.3414,74.6761 165.2833,74.618 Q165.1816,74.5017 164.9927,74.4339 Q164.8038,74.3661 164.61,74.3661 Q164.3727,74.3661 164.1741,74.4678 Q163.9803,74.5695 163.8253,74.802 Q163.6752,75.0345 163.6752,75.3542 L163.6752,75.6933 Q163.6752,76.0759 163.9513,76.3327 Q164.2273,76.5845 164.7214,76.5845 Q165.012,76.5845 165.2155,76.507 Q165.3366,76.4586 165.4673,76.323 Q165.5497,76.2406 165.5933,76.2164 Q165.6417,76.1922 165.7047,76.1922 Q165.8064,76.1922 165.8839,76.2745 Q165.9663,76.352 165.9663,76.4586 Q165.9663,76.5652 165.8597,76.6911 Q165.7047,76.8703 165.4577,76.972 Q165.1234,77.1125 164.7214,77.1125 Q164.2516,77.1125 163.8786,76.9188 Q163.5734,76.7638 163.3603,76.4344 Q163.1472,76.1002 163.1472,75.703 L163.1472,75.3445 Q163.1472,74.9328 163.3361,74.5792 Q163.5298,74.2208 163.8689,74.0319 Q164.208,73.8381 164.5906,73.8381 Q164.8183,73.8381 165.0169,73.8914 Q165.2203,73.9398 165.3898,74.0513 Z " fill="#000000"/><text fill="#000000" font-family="sans-serif" font-size="4.34" lengthAdjust="spacing" textLength="30.07" x="170.8875" y="77.127">PurchaseOrder</text><line style="stroke:#181818;stroke-width:0.155;" x1="146.32" x2="215.45" y1="80.29" y2="80.29"/><text fill="#000000" font-family="sans-serif" font-size="4.34" lengthAdjust="spacing" textLength="35.96" x="147.87" y="86.2133">-userEmail : String</text><text fill="#000000" font-family="sans-serif" font-size="4.34" lengthAdjust="spacing" textLength="66.03" x="147.87" y="91.9858">-announcement : Announcements</text><text fill="#000000" font-family="sans-serif" font-size="4.34" lengthAdjust="spacing" textLength="44.02" x="147.87" y="97.7584">-orderAmount : double</text><text fill="#000000" font-family="sans-serif" font-size="4.34" lengthAdjust="spacing" textLength="32.55" x="147.87" y="103.5309">-acceptance : int</text><line style="stroke:#181818;stroke-width:0.31;" x1="146.32" x2="215.45" y1="105.8602" y2="105.8602"/><text fill="#000000" font-family="sans-serif" font-size="4.34" lengthAdjust="spacing" textLength="39.37" x="147.87" y="111.7835">+getAreaOfProperty</text><text fill="#000000" font-family="sans-serif" font-size="4.34" lengthAdjust="spacing" textLength="34.72" x="147.87" y="117.556">+toString(): String</text></g><!--class Announcements--><g id="elem_Announcements"><rect codeLine="56" fill="#F1F1F1" height="26.4251" id="Announcements" rx="0.775" ry="0.775" style="stroke:#181818;stroke-width:0.155;" width="74.09" x="226.61" y="81.995"/><ellipse cx="246.5275" cy="86.955" fill="#ADD1B2" rx="3.41" ry="3.41" style="stroke:#181818;stroke-width:0.31;"/><path d="M247.3848,85.6763 Q247.4333,85.6084 247.4914,85.5745 Q247.5495,85.5406 247.6173,85.5406 Q247.7336,85.5406 247.8063,85.623 Q247.8789,85.7005 247.8789,85.8894 L247.8789,86.3398 Q247.8789,86.5288 247.8063,86.6111 Q247.7336,86.6934 247.6173,86.6934 Q247.5108,86.6934 247.4478,86.6305 Q247.3848,86.5723 247.3509,86.4125 Q247.3364,86.3011 247.2783,86.243 Q247.1766,86.1267 246.9877,86.0589 Q246.7987,85.9911 246.605,85.9911 Q246.3677,85.9911 246.1691,86.0928 Q245.9753,86.1945 245.8203,86.427 Q245.6702,86.6595 245.6702,86.9792 L245.6702,87.3183 Q245.6702,87.7009 245.9463,87.9577 Q246.2223,88.2095 246.7164,88.2095 Q247.007,88.2095 247.2105,88.132 Q247.3316,88.0836 247.4623,87.948 Q247.5447,87.8656 247.5883,87.8414 Q247.6367,87.8172 247.6997,87.8172 Q247.8014,87.8172 247.8789,87.8995 Q247.9613,87.977 247.9613,88.0836 Q247.9613,88.1902 247.8547,88.3161 Q247.6997,88.4953 247.4527,88.597 Q247.1184,88.7375 246.7164,88.7375 Q246.2466,88.7375 245.8736,88.5438 Q245.5684,88.3888 245.3553,88.0594 Q245.1422,87.7252 245.1422,87.328 L245.1422,86.9695 Q245.1422,86.5578 245.3311,86.2042 Q245.5248,85.8458 245.8639,85.6569 Q246.203,85.4631 246.5856,85.4631 Q246.8133,85.4631 247.0119,85.5164 Q247.2153,85.5648 247.3848,85.6763 Z " fill="#000000"/><text fill="#000000" font-family="sans-serif" font-size="4.34" lengthAdjust="spacing" textLength="31.62" x="252.8825" y="88.752">Announcements</text><line style="stroke:#181818;stroke-width:0.155;" x1="226.92" x2="300.39" y1="91.915" y2="91.915"/><text fill="#000000" font-family="sans-serif" font-size="4.34" lengthAdjust="spacing" textLength="62.62" x="228.47" y="97.8383">-List&lt;Property&gt; announcements</text><line style="stroke:#181818;stroke-width:0.31;" x1="226.92" x2="300.39" y1="100.1675" y2="100.1675"/><text fill="#000000" font-family="sans-serif" font-size="4.34" lengthAdjust="spacing" textLength="70.37" x="228.47" y="106.0908">+getAnnouncement(announcement)</text></g><!--class Property--><g id="elem_Property"><rect codeLine="62" fill="#F1F1F1" height="95.6955" id="Property" rx="0.775" ry="0.775" style="stroke:#181818;stroke-width:0.155;" width="81.84" x="274.815" y="150.35"/><ellipse cx="306.0475" cy="155.31" fill="#ADD1B2" rx="3.41" ry="3.41" style="stroke:#181818;stroke-width:0.31;"/><path d="M306.9048,154.0313 Q306.9533,153.9634 307.0114,153.9295 Q307.0695,153.8956 307.1373,153.8956 Q307.2536,153.8956 307.3263,153.978 Q307.3989,154.0555 307.3989,154.2444 L307.3989,154.6948 Q307.3989,154.8838 307.3263,154.9661 Q307.2536,155.0484 307.1373,155.0484 Q307.0308,155.0484 306.9678,154.9855 Q306.9048,154.9273 306.8709,154.7675 Q306.8564,154.6561 306.7983,154.598 Q306.6966,154.4817 306.5077,154.4139 Q306.3188,154.3461 306.125,154.3461 Q305.8877,154.3461 305.6891,154.4478 Q305.4953,154.5495 305.3403,154.782 Q305.1902,155.0145 305.1902,155.3342 L305.1902,155.6733 Q305.1902,156.0559 305.4663,156.3127 Q305.7423,156.5645 306.2364,156.5645 Q306.527,156.5645 306.7305,156.487 Q306.8516,156.4386 306.9823,156.303 Q307.0647,156.2206 307.1083,156.1964 Q307.1567,156.1722 307.2197,156.1722 Q307.3214,156.1722 307.3989,156.2545 Q307.4813,156.332 307.4813,156.4386 Q307.4813,156.5452 307.3747,156.6711 Q307.2197,156.8503 306.9727,156.952 Q306.6384,157.0925 306.2364,157.0925 Q305.7666,157.0925 305.3936,156.8988 Q305.0884,156.7438 304.8753,156.4144 Q304.6622,156.0802 304.6622,155.683 L304.6622,155.3245 Q304.6622,154.9128 304.8511,154.5592 Q305.0448,154.2008 305.3839,154.0119 Q305.723,153.8181 306.1056,153.8181 Q306.3333,153.8181 306.5319,153.8714 Q306.7353,153.9198 306.9048,154.0313 Z " fill="#000000"/><text fill="#000000" font-family="sans-serif" font-size="4.34" lengthAdjust="spacing" textLength="16.74" x="312.4025" y="157.107">Property</text><line style="stroke:#181818;stroke-width:0.155;" x1="275.125" x2="356.345" y1="160.27" y2="160.27"/><text fill="#000000" font-family="sans-serif" font-size="4.34" lengthAdjust="spacing" textLength="41.85" x="276.675" y="166.1933">-propertyType: String</text><text fill="#000000" font-family="sans-serif" font-size="4.34" lengthAdjust="spacing" textLength="28.52" x="276.675" y="171.9658">-owner: Owner</text><text fill="#000000" font-family="sans-serif" font-size="4.34" lengthAdjust="spacing" textLength="63.55" x="276.675" y="177.7384">-commission: CommissionDetails</text><text fill="#000000" font-family="sans-serif" font-size="4.34" lengthAdjust="spacing" textLength="26.66" x="276.675" y="183.5109">-agent: Agent</text><text fill="#000000" font-family="sans-serif" font-size="4.34" lengthAdjust="spacing" textLength="47.74" x="276.675" y="189.2835">-areaOfProperty: double</text><text fill="#000000" font-family="sans-serif" font-size="4.34" lengthAdjust="spacing" textLength="57.35" x="276.675" y="195.056">-distanceFromCentre: double</text><text fill="#000000" font-family="sans-serif" font-size="4.34" lengthAdjust="spacing" textLength="47.43" x="276.675" y="200.8285">-acceptanceDate: String</text><text fill="#000000" font-family="sans-serif" font-size="4.34" lengthAdjust="spacing" textLength="39.68" x="276.675" y="206.6011">-requestDate: String</text><text fill="#000000" font-family="sans-serif" font-size="4.34" lengthAdjust="spacing" textLength="35.96" x="276.675" y="212.3736">-address: Address</text><text fill="#000000" font-family="sans-serif" font-size="4.34" lengthAdjust="spacing" textLength="51.15" x="276.675" y="218.1462">-photos: ArrayList&lt;Photo&gt;</text><text fill="#000000" font-family="sans-serif" font-size="4.34" lengthAdjust="spacing" textLength="26.66" x="276.675" y="223.9187">-photo: Photo</text><text fill="#000000" font-family="sans-serif" font-size="4.34" lengthAdjust="spacing" textLength="78.12" x="276.675" y="229.6912">-typeOfTransaction: TypeOfTransaction</text><text fill="#000000" font-family="sans-serif" font-size="4.34" lengthAdjust="spacing" textLength="29.14" x="276.675" y="235.4638">-propertyID: int</text><line style="stroke:#181818;stroke-width:0.31;" x1="275.125" x2="356.345" y1="237.793" y2="237.793"/><text fill="#000000" font-family="sans-serif" font-size="4.34" lengthAdjust="spacing" textLength="34.72" x="276.675" y="243.7163">+toString(): String</text></g><!--class CommissionDetails--><g id="elem_CommissionDetails"><rect codeLine="102" fill="#F1F1F1" height="32.1976" id="CommissionDetails" rx="0.775" ry="0.775" style="stroke:#181818;stroke-width:0.155;" width="55.49" x="231.57" y="276.365"/><ellipse cx="240.126" cy="281.325" fill="#ADD1B2" rx="3.41" ry="3.41" style="stroke:#181818;stroke-width:0.31;"/><path d="M240.9833,280.0463 Q241.0318,279.9784 241.0899,279.9445 Q241.148,279.9106 241.2158,279.9106 Q241.3321,279.9106 241.4048,279.993 Q241.4774,280.0705 241.4774,280.2594 L241.4774,280.7098 Q241.4774,280.8988 241.4048,280.9811 Q241.3321,281.0634 241.2158,281.0634 Q241.1093,281.0634 241.0463,281.0005 Q240.9833,280.9423 240.9494,280.7825 Q240.9349,280.6711 240.8768,280.613 Q240.7751,280.4967 240.5862,280.4289 Q240.3973,280.3611 240.2035,280.3611 Q239.9662,280.3611 239.7676,280.4628 Q239.5738,280.5645 239.4188,280.797 Q239.2687,281.0295 239.2687,281.3492 L239.2687,281.6883 Q239.2687,282.0709 239.5448,282.3277 Q239.8208,282.5795 240.3149,282.5795 Q240.6055,282.5795 240.809,282.502 Q240.9301,282.4536 241.0608,282.318 Q241.1432,282.2356 241.1868,282.2114 Q241.2352,282.1872 241.2982,282.1872 Q241.3999,282.1872 241.4774,282.2695 Q241.5598,282.347 241.5598,282.4536 Q241.5598,282.5602 241.4532,282.6861 Q241.2982,282.8653 241.0512,282.967 Q240.7169,283.1075 240.3149,283.1075 Q239.8451,283.1075 239.4721,282.9138 Q239.1669,282.7588 238.9538,282.4294 Q238.7407,282.0952 238.7407,281.698 L238.7407,281.3395 Q238.7407,280.9278 238.9296,280.5742 Q239.1233,280.2158 239.4624,280.0269 Q239.8015,279.8331 240.1841,279.8331 Q240.4118,279.8331 240.6104,279.8864 Q240.8138,279.9348 240.9833,280.0463 Z " fill="#000000"/><text fill="#000000" font-family="sans-serif" font-size="4.34" lengthAdjust="spacing" textLength="36.89" x="245.334" y="283.122">CommissionDetails</text><line style="stroke:#181818;stroke-width:0.155;" x1="231.88" x2="286.75" y1="286.285" y2="286.285"/><text fill="#000000" font-family="sans-serif" font-size="4.34" lengthAdjust="spacing" textLength="48.05" x="233.43" y="292.2083">-commissionType: String</text><text fill="#000000" font-family="sans-serif" font-size="4.34" lengthAdjust="spacing" textLength="51.77" x="233.43" y="297.9808">-commissionValue: Double</text><line style="stroke:#181818;stroke-width:0.31;" x1="231.88" x2="286.75" y1="300.3101" y2="300.3101"/><text fill="#000000" font-family="sans-serif" font-size="4.34" lengthAdjust="spacing" textLength="34.72" x="233.43" y="306.2334">+toString(): String</text></g><!--class TypeOfTransaction--><g id="elem_TypeOfTransaction"><rect codeLine="111" fill="#F1F1F1" height="32.1976" id="TypeOfTransaction" rx="0.775" ry="0.775" style="stroke:#181818;stroke-width:0.155;" width="50.84" x="311.705" y="79.05"/><ellipse cx="317.75" cy="84.01" fill="#ADD1B2" rx="3.41" ry="3.41" style="stroke:#181818;stroke-width:0.31;"/><path d="M318.6073,82.7313 Q318.6558,82.6634 318.7139,82.6295 Q318.772,82.5956 318.8398,82.5956 Q318.9561,82.5956 319.0288,82.678 Q319.1014,82.7555 319.1014,82.9444 L319.1014,83.3948 Q319.1014,83.5838 319.0288,83.6661 Q318.9561,83.7484 318.8398,83.7484 Q318.7333,83.7484 318.6703,83.6855 Q318.6073,83.6273 318.5734,83.4675 Q318.5589,83.3561 318.5008,83.298 Q318.3991,83.1817 318.2102,83.1139 Q318.0213,83.0461 317.8275,83.0461 Q317.5902,83.0461 317.3916,83.1478 Q317.1978,83.2495 317.0428,83.482 Q316.8927,83.7145 316.8927,84.0342 L316.8927,84.3733 Q316.8927,84.7559 317.1688,85.0127 Q317.4448,85.2645 317.9389,85.2645 Q318.2295,85.2645 318.433,85.187 Q318.5541,85.1386 318.6848,85.003 Q318.7672,84.9206 318.8108,84.8964 Q318.8592,84.8722 318.9222,84.8722 Q319.0239,84.8722 319.1014,84.9545 Q319.1838,85.032 319.1838,85.1386 Q319.1838,85.2452 319.0772,85.3711 Q318.9222,85.5503 318.6752,85.652 Q318.3409,85.7925 317.9389,85.7925 Q317.4691,85.7925 317.0961,85.5988 Q316.7909,85.4438 316.5778,85.1144 Q316.3647,84.7802 316.3647,84.383 L316.3647,84.0245 Q316.3647,83.6128 316.5536,83.2592 Q316.7473,82.9008 317.0864,82.7119 Q317.4255,82.5181 317.8081,82.5181 Q318.0358,82.5181 318.2344,82.5714 Q318.4378,82.6198 318.6073,82.7313 Z " fill="#000000"/><text fill="#000000" font-family="sans-serif" font-size="4.34" lengthAdjust="spacing" textLength="37.82" x="322.4" y="85.807">TypeOfTransaction</text><line style="stroke:#181818;stroke-width:0.155;" x1="312.015" x2="362.235" y1="88.97" y2="88.97"/><text fill="#000000" font-family="sans-serif" font-size="4.34" lengthAdjust="spacing" textLength="47.12" x="313.565" y="94.8933">-transactionType: String</text><text fill="#000000" font-family="sans-serif" font-size="4.34" lengthAdjust="spacing" textLength="46.81" x="313.565" y="100.6658">-monetaryValue: double</text><line style="stroke:#181818;stroke-width:0.31;" x1="312.015" x2="362.235" y1="102.9951" y2="102.9951"/><text fill="#000000" font-family="sans-serif" font-size="4.34" lengthAdjust="spacing" textLength="34.72" x="313.565" y="108.9184">+toString(): String</text></g><!--class Address--><g id="elem_Address"><rect codeLine="122" fill="#F1F1F1" height="43.7427" id="Address" rx="0.775" ry="0.775" style="stroke:#181818;stroke-width:0.155;" width="38.44" x="394.785" y="270.63"/><ellipse cx="405.015" cy="275.59" fill="#ADD1B2" rx="3.41" ry="3.41" style="stroke:#181818;stroke-width:0.31;"/><path d="M405.8723,274.3113 Q405.9208,274.2434 405.9789,274.2095 Q406.037,274.1756 406.1048,274.1756 Q406.2211,274.1756 406.2938,274.258 Q406.3664,274.3355 406.3664,274.5244 L406.3664,274.9748 Q406.3664,275.1638 406.2938,275.2461 Q406.2211,275.3284 406.1048,275.3284 Q405.9983,275.3284 405.9353,275.2655 Q405.8723,275.2073 405.8384,275.0475 Q405.8239,274.9361 405.7658,274.878 Q405.6641,274.7617 405.4752,274.6939 Q405.2863,274.6261 405.0925,274.6261 Q404.8552,274.6261 404.6566,274.7278 Q404.4628,274.8295 404.3078,275.062 Q404.1577,275.2945 404.1577,275.6142 L404.1577,275.9533 Q404.1577,276.3359 404.4338,276.5927 Q404.7098,276.8445 405.2039,276.8445 Q405.4945,276.8445 405.698,276.767 Q405.8191,276.7186 405.9498,276.583 Q406.0322,276.5006 406.0758,276.4764 Q406.1242,276.4522 406.1872,276.4522 Q406.2889,276.4522 406.3664,276.5345 Q406.4488,276.612 406.4488,276.7186 Q406.4488,276.8252 406.3422,276.9511 Q406.1872,277.1303 405.9402,277.232 Q405.6059,277.3725 405.2039,277.3725 Q404.7341,277.3725 404.3611,277.1788 Q404.0559,277.0238 403.8428,276.6944 Q403.6297,276.3602 403.6297,275.963 L403.6297,275.6045 Q403.6297,275.1928 403.8186,274.8392 Q404.0123,274.4808 404.3514,274.2919 Q404.6905,274.0981 405.0731,274.0981 Q405.3008,274.0981 405.4994,274.1514 Q405.7028,274.1998 405.8723,274.3113 Z " fill="#000000"/><text fill="#000000" font-family="sans-serif" font-size="4.34" lengthAdjust="spacing" textLength="16.12" x="410.595" y="277.387">Address</text><line style="stroke:#181818;stroke-width:0.155;" x1="395.095" x2="432.915" y1="280.55" y2="280.55"/><text fill="#000000" font-family="sans-serif" font-size="4.34" lengthAdjust="spacing" textLength="26.66" x="396.645" y="286.4733">-street: String</text><text fill="#000000" font-family="sans-serif" font-size="4.34" lengthAdjust="spacing" textLength="22.01" x="396.645" y="292.2458">-city: String</text><text fill="#000000" font-family="sans-serif" font-size="4.34" lengthAdjust="spacing" textLength="25.11" x="396.645" y="298.0184">-state: String</text><text fill="#000000" font-family="sans-serif" font-size="4.34" lengthAdjust="spacing" textLength="31.31" x="396.645" y="303.7909">-zipCode: String</text><line style="stroke:#181818;stroke-width:0.31;" x1="395.095" x2="432.915" y1="306.1202" y2="306.1202"/><text fill="#000000" font-family="sans-serif" font-size="4.34" lengthAdjust="spacing" textLength="34.72" x="396.645" y="312.0435">+toString(): String</text></g><!--class Photo--><g id="elem_Photo"><rect codeLine="140" fill="#F1F1F1" height="32.1976" id="Photo" rx="0.775" ry="0.775" style="stroke:#181818;stroke-width:0.155;" width="38.44" x="209.715" y="182.125"/><ellipse cx="222.0375" cy="187.085" fill="#ADD1B2" rx="3.41" ry="3.41" style="stroke:#181818;stroke-width:0.31;"/><path d="M222.8948,185.8063 Q222.9433,185.7384 223.0014,185.7045 Q223.0595,185.6706 223.1273,185.6706 Q223.2436,185.6706 223.3163,185.753 Q223.3889,185.8305 223.3889,186.0194 L223.3889,186.4698 Q223.3889,186.6588 223.3163,186.7411 Q223.2436,186.8234 223.1273,186.8234 Q223.0208,186.8234 222.9578,186.7605 Q222.8948,186.7023 222.8609,186.5425 Q222.8464,186.4311 222.7883,186.373 Q222.6866,186.2567 222.4977,186.1889 Q222.3088,186.1211 222.115,186.1211 Q221.8777,186.1211 221.6791,186.2228 Q221.4853,186.3245 221.3303,186.557 Q221.1802,186.7895 221.1802,187.1092 L221.1802,187.4483 Q221.1802,187.8309 221.4563,188.0877 Q221.7323,188.3395 222.2264,188.3395 Q222.517,188.3395 222.7205,188.262 Q222.8416,188.2136 222.9723,188.078 Q223.0547,187.9956 223.0983,187.9714 Q223.1467,187.9472 223.2097,187.9472 Q223.3114,187.9472 223.3889,188.0295 Q223.4713,188.107 223.4713,188.2136 Q223.4713,188.3202 223.3647,188.4461 Q223.2097,188.6253 222.9627,188.727 Q222.6284,188.8675 222.2264,188.8675 Q221.7566,188.8675 221.3836,188.6738 Q221.0784,188.5188 220.8653,188.1894 Q220.6522,187.8552 220.6522,187.458 L220.6522,187.0995 Q220.6522,186.6878 220.8411,186.3342 Q221.0348,185.9758 221.3739,185.7869 Q221.713,185.5931 222.0956,185.5931 Q222.3233,185.5931 222.5219,185.6464 Q222.7253,185.6948 222.8948,185.8063 Z " fill="#000000"/><text fill="#000000" font-family="sans-serif" font-size="4.34" lengthAdjust="spacing" textLength="11.47" x="228.0825" y="188.882">Photo</text><line style="stroke:#181818;stroke-width:0.155;" x1="210.025" x2="247.845" y1="192.045" y2="192.045"/><text fill="#000000" font-family="sans-serif" font-size="4.34" lengthAdjust="spacing" textLength="23.87" x="211.575" y="197.9683">-photoID: int</text><text fill="#000000" font-family="sans-serif" font-size="4.34" lengthAdjust="spacing" textLength="33.48" x="211.575" y="203.7408">-photoURI: String</text><line style="stroke:#181818;stroke-width:0.31;" x1="210.025" x2="247.845" y1="206.0701" y2="206.0701"/><text fill="#000000" font-family="sans-serif" font-size="4.34" lengthAdjust="spacing" textLength="34.72" x="211.575" y="211.9934">+toString(): String</text></g><!--class Building--><g id="elem_Building"><rect codeLine="151" fill="#F1F1F1" height="43.7427" id="Building" rx="0.775" ry="0.775" style="stroke:#181818;stroke-width:0.155;" width="48.98" x="160.735" y="270.63"/><ellipse cx="176.1575" cy="275.59" fill="#ADD1B2" rx="3.41" ry="3.41" style="stroke:#181818;stroke-width:0.31;"/><path d="M177.0148,274.3113 Q177.0633,274.2434 177.1214,274.2095 Q177.1795,274.1756 177.2473,274.1756 Q177.3636,274.1756 177.4363,274.258 Q177.5089,274.3355 177.5089,274.5244 L177.5089,274.9748 Q177.5089,275.1638 177.4363,275.2461 Q177.3636,275.3284 177.2473,275.3284 Q177.1408,275.3284 177.0778,275.2655 Q177.0148,275.2073 176.9809,275.0475 Q176.9664,274.9361 176.9083,274.878 Q176.8066,274.7617 176.6177,274.6939 Q176.4288,274.6261 176.235,274.6261 Q175.9977,274.6261 175.7991,274.7278 Q175.6053,274.8295 175.4503,275.062 Q175.3002,275.2945 175.3002,275.6142 L175.3002,275.9533 Q175.3002,276.3359 175.5763,276.5927 Q175.8523,276.8445 176.3464,276.8445 Q176.637,276.8445 176.8405,276.767 Q176.9616,276.7186 177.0923,276.583 Q177.1747,276.5006 177.2183,276.4764 Q177.2667,276.4522 177.3297,276.4522 Q177.4314,276.4522 177.5089,276.5345 Q177.5913,276.612 177.5913,276.7186 Q177.5913,276.8252 177.4847,276.9511 Q177.3297,277.1303 177.0827,277.232 Q176.7484,277.3725 176.3464,277.3725 Q175.8766,277.3725 175.5036,277.1788 Q175.1984,277.0238 174.9853,276.6944 Q174.7722,276.3602 174.7722,275.963 L174.7722,275.6045 Q174.7722,275.1928 174.9611,274.8392 Q175.1548,274.4808 175.4939,274.2919 Q175.833,274.0981 176.2156,274.0981 Q176.4433,274.0981 176.6419,274.1514 Q176.8453,274.1998 177.0148,274.3113 Z " fill="#000000"/><text fill="#000000" font-family="sans-serif" font-size="4.34" lengthAdjust="spacing" textLength="15.5" x="182.5125" y="277.387">Building</text><line style="stroke:#181818;stroke-width:0.155;" x1="161.045" x2="209.405" y1="280.55" y2="280.55"/><text fill="#000000" font-family="sans-serif" font-size="4.34" lengthAdjust="spacing" textLength="28.21" x="162.595" y="286.4733">-bedrooms: int</text><text fill="#000000" font-family="sans-serif" font-size="4.34" lengthAdjust="spacing" textLength="29.45" x="162.595" y="292.2458">-bathrooms: int</text><text fill="#000000" font-family="sans-serif" font-size="4.34" lengthAdjust="spacing" textLength="37.82" x="162.595" y="298.0184">-parkingSpaces: int</text><text fill="#000000" font-family="sans-serif" font-size="4.34" lengthAdjust="spacing" textLength="45.26" x="162.595" y="303.7909">-equipment: Equipment</text><line style="stroke:#181818;stroke-width:0.31;" x1="161.045" x2="209.405" y1="306.1202" y2="306.1202"/><text fill="#000000" font-family="sans-serif" font-size="4.34" lengthAdjust="spacing" textLength="34.72" x="162.595" y="312.0435">+toString(): String</text></g><!--class Equipment--><g id="elem_Equipment"><rect codeLine="166" fill="#F1F1F1" height="32.1976" id="Equipment" rx="0.775" ry="0.775" style="stroke:#181818;stroke-width:0.155;" width="48.67" x="150.04" y="182.125"/><ellipse cx="162.781" cy="187.085" fill="#ADD1B2" rx="3.41" ry="3.41" style="stroke:#181818;stroke-width:0.31;"/><path d="M163.6383,185.8063 Q163.6868,185.7384 163.7449,185.7045 Q163.803,185.6706 163.8708,185.6706 Q163.9871,185.6706 164.0598,185.753 Q164.1324,185.8305 164.1324,186.0194 L164.1324,186.4698 Q164.1324,186.6588 164.0598,186.7411 Q163.9871,186.8234 163.8708,186.8234 Q163.7643,186.8234 163.7013,186.7605 Q163.6383,186.7023 163.6044,186.5425 Q163.5899,186.4311 163.5318,186.373 Q163.4301,186.2567 163.2412,186.1889 Q163.0523,186.1211 162.8585,186.1211 Q162.6212,186.1211 162.4226,186.2228 Q162.2288,186.3245 162.0738,186.557 Q161.9237,186.7895 161.9237,187.1092 L161.9237,187.4483 Q161.9237,187.8309 162.1998,188.0877 Q162.4758,188.3395 162.9699,188.3395 Q163.2605,188.3395 163.464,188.262 Q163.5851,188.2136 163.7158,188.078 Q163.7982,187.9956 163.8418,187.9714 Q163.8902,187.9472 163.9532,187.9472 Q164.0549,187.9472 164.1324,188.0295 Q164.2148,188.107 164.2148,188.2136 Q164.2148,188.3202 164.1082,188.4461 Q163.9532,188.6253 163.7062,188.727 Q163.3719,188.8675 162.9699,188.8675 Q162.5001,188.8675 162.1271,188.6738 Q161.8219,188.5188 161.6088,188.1894 Q161.3957,187.8552 161.3957,187.458 L161.3957,187.0995 Q161.3957,186.6878 161.5846,186.3342 Q161.7783,185.9758 162.1174,185.7869 Q162.4565,185.5931 162.8391,185.5931 Q163.0668,185.5931 163.2654,185.6464 Q163.4688,185.6948 163.6383,185.8063 Z " fill="#000000"/><text fill="#000000" font-family="sans-serif" font-size="4.34" lengthAdjust="spacing" textLength="20.77" x="168.919" y="188.882">Equipment</text><line style="stroke:#181818;stroke-width:0.155;" x1="150.35" x2="198.4" y1="192.045" y2="192.045"/><text fill="#000000" font-family="sans-serif" font-size="4.34" lengthAdjust="spacing" textLength="44.95" x="151.9" y="197.9683">-airConditioning: String</text><text fill="#000000" font-family="sans-serif" font-size="4.34" lengthAdjust="spacing" textLength="43.71" x="151.9" y="203.7408">-centralHeating: String</text><line style="stroke:#181818;stroke-width:0.31;" x1="150.35" x2="198.4" y1="206.0701" y2="206.0701"/><text fill="#000000" font-family="sans-serif" font-size="4.34" lengthAdjust="spacing" textLength="34.72" x="151.9" y="211.9934">+toString(): String</text></g><!--class House--><g id="elem_House"><rect codeLine="177" fill="#F1F1F1" height="37.9702" id="House" rx="0.775" ry="0.775" style="stroke:#181818;stroke-width:0.155;" width="44.64" x="138.725" y="333.25"/><ellipse cx="153.5275" cy="338.21" fill="#ADD1B2" rx="3.41" ry="3.41" style="stroke:#181818;stroke-width:0.31;"/><path d="M154.3848,336.9313 Q154.4333,336.8634 154.4914,336.8295 Q154.5495,336.7956 154.6173,336.7956 Q154.7336,336.7956 154.8063,336.878 Q154.8789,336.9555 154.8789,337.1444 L154.8789,337.5948 Q154.8789,337.7838 154.8063,337.8661 Q154.7336,337.9484 154.6173,337.9484 Q154.5108,337.9484 154.4478,337.8855 Q154.3848,337.8273 154.3509,337.6675 Q154.3364,337.5561 154.2783,337.498 Q154.1766,337.3817 153.9877,337.3139 Q153.7988,337.2461 153.605,337.2461 Q153.3677,337.2461 153.1691,337.3478 Q152.9753,337.4495 152.8203,337.682 Q152.6702,337.9145 152.6702,338.2342 L152.6702,338.5733 Q152.6702,338.9559 152.9463,339.2127 Q153.2223,339.4645 153.7164,339.4645 Q154.007,339.4645 154.2105,339.387 Q154.3316,339.3386 154.4623,339.203 Q154.5447,339.1206 154.5883,339.0964 Q154.6367,339.0722 154.6997,339.0722 Q154.8014,339.0722 154.8789,339.1545 Q154.9613,339.232 154.9613,339.3386 Q154.9613,339.4452 154.8547,339.5711 Q154.6997,339.7503 154.4527,339.852 Q154.1184,339.9925 153.7164,339.9925 Q153.2466,339.9925 152.8736,339.7988 Q152.5684,339.6438 152.3553,339.3144 Q152.1422,338.9802 152.1422,338.583 L152.1422,338.2245 Q152.1422,337.8128 152.3311,337.4592 Q152.5248,337.1008 152.8639,336.9119 Q153.203,336.7181 153.5856,336.7181 Q153.8133,336.7181 154.0119,336.7714 Q154.2153,336.8198 154.3848,336.9313 Z " fill="#000000"/><text fill="#000000" font-family="sans-serif" font-size="4.34" lengthAdjust="spacing" textLength="12.4" x="159.8825" y="340.007">House</text><line style="stroke:#181818;stroke-width:0.155;" x1="139.035" x2="183.055" y1="343.17" y2="343.17"/><text fill="#000000" font-family="sans-serif" font-size="4.34" lengthAdjust="spacing" textLength="39.06" x="140.585" y="349.0933">-basement: boolean</text><text fill="#000000" font-family="sans-serif" font-size="4.34" lengthAdjust="spacing" textLength="25.73" x="140.585" y="354.8658">-loft: boolean</text><text fill="#000000" font-family="sans-serif" font-size="4.34" lengthAdjust="spacing" textLength="40.92" x="140.585" y="360.6384">-sunExposure: String</text><line style="stroke:#181818;stroke-width:0.31;" x1="139.035" x2="183.055" y1="362.9676" y2="362.9676"/><text fill="#000000" font-family="sans-serif" font-size="4.34" lengthAdjust="spacing" textLength="34.72" x="140.585" y="368.8909">+toString(): String</text></g><!--class Owner--><g id="elem_Owner"><rect codeLine="193" fill="#F1F1F1" height="43.7427" id="Owner" rx="0.775" ry="0.775" style="stroke:#181818;stroke-width:0.155;" width="55.18" x="328.755" y="270.63"/><ellipse cx="348.6725" cy="275.59" fill="#ADD1B2" rx="3.41" ry="3.41" style="stroke:#181818;stroke-width:0.31;"/><path d="M349.5298,274.3113 Q349.5783,274.2434 349.6364,274.2095 Q349.6945,274.1756 349.7623,274.1756 Q349.8786,274.1756 349.9513,274.258 Q350.0239,274.3355 350.0239,274.5244 L350.0239,274.9748 Q350.0239,275.1638 349.9513,275.2461 Q349.8786,275.3284 349.7623,275.3284 Q349.6558,275.3284 349.5928,275.2655 Q349.5298,275.2073 349.4959,275.0475 Q349.4814,274.9361 349.4233,274.878 Q349.3216,274.7617 349.1327,274.6939 Q348.9438,274.6261 348.75,274.6261 Q348.5127,274.6261 348.3141,274.7278 Q348.1203,274.8295 347.9653,275.062 Q347.8152,275.2945 347.8152,275.6142 L347.8152,275.9533 Q347.8152,276.3359 348.0913,276.5927 Q348.3673,276.8445 348.8614,276.8445 Q349.152,276.8445 349.3555,276.767 Q349.4766,276.7186 349.6073,276.583 Q349.6897,276.5006 349.7333,276.4764 Q349.7817,276.4522 349.8447,276.4522 Q349.9464,276.4522 350.0239,276.5345 Q350.1063,276.612 350.1063,276.7186 Q350.1063,276.8252 349.9997,276.9511 Q349.8447,277.1303 349.5977,277.232 Q349.2634,277.3725 348.8614,277.3725 Q348.3916,277.3725 348.0186,277.1788 Q347.7134,277.0238 347.5003,276.6944 Q347.2872,276.3602 347.2872,275.963 L347.2872,275.6045 Q347.2872,275.1928 347.4761,274.8392 Q347.6698,274.4808 348.0089,274.2919 Q348.348,274.0981 348.7306,274.0981 Q348.9583,274.0981 349.1569,274.1514 Q349.3603,274.1998 349.5298,274.3113 Z " fill="#000000"/><text fill="#000000" font-family="sans-serif" font-size="4.34" lengthAdjust="spacing" textLength="12.71" x="355.0275" y="277.387">Owner</text><line style="stroke:#181818;stroke-width:0.155;" x1="329.065" x2="383.625" y1="280.55" y2="280.55"/><text fill="#000000" font-family="sans-serif" font-size="4.34" lengthAdjust="spacing" textLength="27.59" x="330.615" y="286.4733">-name : String</text><text fill="#000000" font-family="sans-serif" font-size="4.34" lengthAdjust="spacing" textLength="39.68" x="330.615" y="292.2458">-taxNumber : Integer</text><text fill="#000000" font-family="sans-serif" font-size="4.34" lengthAdjust="spacing" textLength="43.09" x="330.615" y="298.0184">-emailAddress : String</text><text fill="#000000" font-family="sans-serif" font-size="4.34" lengthAdjust="spacing" textLength="51.46" x="330.615" y="303.7909">-telephoneNumber : String</text><line style="stroke:#181818;stroke-width:0.31;" x1="329.065" x2="383.625" y1="306.1202" y2="306.1202"/><text fill="#000000" font-family="sans-serif" font-size="4.34" lengthAdjust="spacing" textLength="34.72" x="330.615" y="312.0435">+toString(): String</text></g><!--class Land--><g id="elem_Land"><rect codeLine="210" fill="#F1F1F1" height="14.88" id="Land" rx="0.775" ry="0.775" style="stroke:#181818;stroke-width:0.155;" width="19.84" x="298.065" y="285.045"/><ellipse cx="302.715" cy="290.005" fill="#ADD1B2" rx="3.41" ry="3.41" style="stroke:#181818;stroke-width:0.31;"/><path d="M303.5723,288.7263 Q303.6208,288.6584 303.6789,288.6245 Q303.737,288.5906 303.8048,288.5906 Q303.9211,288.5906 303.9938,288.673 Q304.0664,288.7505 304.0664,288.9394 L304.0664,289.3898 Q304.0664,289.5788 303.9938,289.6611 Q303.9211,289.7434 303.8048,289.7434 Q303.6983,289.7434 303.6353,289.6805 Q303.5723,289.6223 303.5384,289.4625 Q303.5239,289.3511 303.4658,289.293 Q303.3641,289.1767 303.1752,289.1089 Q302.9863,289.0411 302.7925,289.0411 Q302.5552,289.0411 302.3566,289.1428 Q302.1628,289.2445 302.0078,289.477 Q301.8577,289.7095 301.8577,290.0292 L301.8577,290.3683 Q301.8577,290.7509 302.1338,291.0077 Q302.4098,291.2595 302.9039,291.2595 Q303.1945,291.2595 303.398,291.182 Q303.5191,291.1336 303.6498,290.998 Q303.7322,290.9156 303.7758,290.8914 Q303.8242,290.8672 303.8872,290.8672 Q303.9889,290.8672 304.0664,290.9495 Q304.1488,291.027 304.1488,291.1336 Q304.1488,291.2402 304.0422,291.3661 Q303.8872,291.5453 303.6402,291.647 Q303.3059,291.7875 302.9039,291.7875 Q302.4341,291.7875 302.0611,291.5938 Q301.7559,291.4387 301.5428,291.1094 Q301.3297,290.7752 301.3297,290.378 L301.3297,290.0195 Q301.3297,289.6078 301.5186,289.2542 Q301.7123,288.8958 302.0514,288.7069 Q302.3905,288.5131 302.7731,288.5131 Q303.0008,288.5131 303.1994,288.5664 Q303.4028,288.6148 303.5723,288.7263 Z " fill="#000000"/><text fill="#000000" font-family="sans-serif" font-size="4.34" lengthAdjust="spacing" textLength="9.92" x="307.055" y="291.802">Land</text><line style="stroke:#181818;stroke-width:0.155;" x1="298.375" x2="317.595" y1="294.965" y2="294.965"/><line style="stroke:#181818;stroke-width:0.155;" x1="298.375" x2="317.595" y1="297.445" y2="297.445"/></g><!--class PassportCard--><g id="elem_PassportCard"><rect codeLine="212" fill="#F1F1F1" height="32.1976" id="PassportCard" rx="0.775" ry="0.775" style="stroke:#181818;stroke-width:0.155;" width="48.05" x="444.23" y="276.365"/><ellipse cx="453.902" cy="281.325" fill="#ADD1B2" rx="3.41" ry="3.41" style="stroke:#181818;stroke-width:0.31;"/><path d="M454.7593,280.0463 Q454.8078,279.9784 454.8659,279.9445 Q454.924,279.9106 454.9918,279.9106 Q455.1081,279.9106 455.1808,279.993 Q455.2534,280.0705 455.2534,280.2594 L455.2534,280.7098 Q455.2534,280.8988 455.1808,280.9811 Q455.1081,281.0634 454.9918,281.0634 Q454.8853,281.0634 454.8223,281.0005 Q454.7593,280.9423 454.7254,280.7825 Q454.7109,280.6711 454.6528,280.613 Q454.5511,280.4967 454.3622,280.4289 Q454.1733,280.3611 453.9795,280.3611 Q453.7422,280.3611 453.5436,280.4628 Q453.3498,280.5645 453.1948,280.797 Q453.0447,281.0295 453.0447,281.3492 L453.0447,281.6883 Q453.0447,282.0709 453.3208,282.3277 Q453.5968,282.5795 454.0909,282.5795 Q454.3815,282.5795 454.585,282.502 Q454.7061,282.4536 454.8368,282.318 Q454.9192,282.2356 454.9628,282.2114 Q455.0112,282.1872 455.0742,282.1872 Q455.1759,282.1872 455.2534,282.2695 Q455.3358,282.347 455.3358,282.4536 Q455.3358,282.5602 455.2292,282.6861 Q455.0742,282.8653 454.8272,282.967 Q454.4929,283.1075 454.0909,283.1075 Q453.6211,283.1075 453.2481,282.9138 Q452.9429,282.7588 452.7298,282.4294 Q452.5167,282.0952 452.5167,281.698 L452.5167,281.3395 Q452.5167,280.9278 452.7056,280.5742 Q452.8993,280.2158 453.2384,280.0269 Q453.5775,279.8331 453.9601,279.8331 Q454.1878,279.8331 454.3864,279.8864 Q454.5898,279.9348 454.7593,280.0463 Z " fill="#000000"/><text fill="#000000" font-family="sans-serif" font-size="4.34" lengthAdjust="spacing" textLength="26.97" x="459.358" y="283.122">PassportCard</text><line style="stroke:#181818;stroke-width:0.155;" x1="444.54" x2="491.97" y1="286.285" y2="286.285"/><text fill="#000000" font-family="sans-serif" font-size="4.34" lengthAdjust="spacing" textLength="32.24" x="446.09" y="292.2083">passportNumber</text><line style="stroke:#181818;stroke-width:0.155;" x1="444.54" x2="491.97" y1="294.5375" y2="294.5375"/><text fill="#000000" font-family="sans-serif" font-size="4.34" lengthAdjust="spacing" textLength="44.33" x="446.09" y="300.4608">+getPassportNumber()</text><text fill="#000000" font-family="sans-serif" font-size="4.34" lengthAdjust="spacing" textLength="43.09" x="446.09" y="306.2334">-setPassportNumber()</text></g><!--class Apartment--><g id="elem_Apartment"><rect codeLine="219" fill="#F1F1F1" height="14.88" id="Apartment" rx="0.775" ry="0.775" style="stroke:#181818;stroke-width:0.155;" width="30.07" x="194.37" y="344.72"/><ellipse cx="199.02" cy="349.68" fill="#ADD1B2" rx="3.41" ry="3.41" style="stroke:#181818;stroke-width:0.31;"/><path d="M199.8773,348.4013 Q199.9258,348.3334 199.9839,348.2995 Q200.042,348.2656 200.1098,348.2656 Q200.2261,348.2656 200.2988,348.348 Q200.3714,348.4255 200.3714,348.6144 L200.3714,349.0648 Q200.3714,349.2538 200.2988,349.3361 Q200.2261,349.4184 200.1098,349.4184 Q200.0033,349.4184 199.9403,349.3555 Q199.8773,349.2973 199.8434,349.1375 Q199.8289,349.0261 199.7708,348.968 Q199.6691,348.8517 199.4802,348.7839 Q199.2913,348.7161 199.0975,348.7161 Q198.8602,348.7161 198.6616,348.8178 Q198.4678,348.9195 198.3128,349.152 Q198.1627,349.3845 198.1627,349.7042 L198.1627,350.0433 Q198.1627,350.4259 198.4388,350.6827 Q198.7148,350.9345 199.2089,350.9345 Q199.4995,350.9345 199.703,350.857 Q199.8241,350.8086 199.9548,350.673 Q200.0372,350.5906 200.0808,350.5664 Q200.1292,350.5422 200.1922,350.5422 Q200.2939,350.5422 200.3714,350.6245 Q200.4537,350.702 200.4537,350.8086 Q200.4537,350.9152 200.3472,351.0411 Q200.1922,351.2203 199.9452,351.322 Q199.6109,351.4625 199.2089,351.4625 Q198.7391,351.4625 198.3661,351.2688 Q198.0609,351.1138 197.8478,350.7844 Q197.6347,350.4502 197.6347,350.053 L197.6347,349.6945 Q197.6347,349.2828 197.8236,348.9292 Q198.0173,348.5708 198.3564,348.3819 Q198.6955,348.1881 199.0781,348.1881 Q199.3058,348.1881 199.5044,348.2414 Q199.7078,348.2898 199.8773,348.4013 Z " fill="#000000"/><text fill="#000000" font-family="sans-serif" font-size="4.34" lengthAdjust="spacing" textLength="20.15" x="203.36" y="351.477">Apartment</text><line style="stroke:#181818;stroke-width:0.155;" x1="194.68" x2="224.13" y1="354.64" y2="354.64"/><line style="stroke:#181818;stroke-width:0.155;" x1="194.68" x2="224.13" y1="357.12" y2="357.12"/></g><!--class Agency--><g id="elem_Agency"><rect codeLine="221" fill="#F1F1F1" height="72.6054" id="Agency" rx="0.775" ry="0.775" style="stroke:#181818;stroke-width:0.155;" width="101.06" x="459.885" y="58.9"/><ellipse cx="501.8125" cy="63.86" fill="#ADD1B2" rx="3.41" ry="3.41" style="stroke:#181818;stroke-width:0.31;"/><path d="M502.6698,62.5813 Q502.7183,62.5134 502.7764,62.4795 Q502.8345,62.4456 502.9023,62.4456 Q503.0186,62.4456 503.0913,62.528 Q503.1639,62.6055 503.1639,62.7944 L503.1639,63.2448 Q503.1639,63.4337 503.0913,63.5161 Q503.0186,63.5984 502.9023,63.5984 Q502.7958,63.5984 502.7328,63.5355 Q502.6698,63.4773 502.6359,63.3175 Q502.6214,63.2061 502.5633,63.148 Q502.4616,63.0317 502.2727,62.9639 Q502.0838,62.8961 501.89,62.8961 Q501.6527,62.8961 501.4541,62.9978 Q501.2603,63.0995 501.1053,63.332 Q500.9552,63.5645 500.9552,63.8842 L500.9552,64.2233 Q500.9552,64.6059 501.2313,64.8627 Q501.5073,65.1145 502.0014,65.1145 Q502.292,65.1145 502.4955,65.037 Q502.6166,64.9886 502.7473,64.853 Q502.8297,64.7706 502.8733,64.7464 Q502.9217,64.7222 502.9847,64.7222 Q503.0864,64.7222 503.1639,64.8045 Q503.2463,64.882 503.2463,64.9886 Q503.2463,65.0952 503.1397,65.2211 Q502.9847,65.4003 502.7377,65.502 Q502.4034,65.6425 502.0014,65.6425 Q501.5316,65.6425 501.1586,65.4488 Q500.8534,65.2938 500.6403,64.9644 Q500.4272,64.6302 500.4272,64.233 L500.4272,63.8745 Q500.4272,63.4628 500.6161,63.1092 Q500.8098,62.7508 501.1489,62.5619 Q501.488,62.3681 501.8706,62.3681 Q502.0983,62.3681 502.2969,62.4214 Q502.5003,62.4698 502.6698,62.5813 Z " fill="#000000"/><text fill="#000000" font-family="sans-serif" font-size="4.34" lengthAdjust="spacing" textLength="14.57" x="508.1675" y="65.657">Agency</text><line style="stroke:#181818;stroke-width:0.155;" x1="460.195" x2="560.635" y1="68.82" y2="68.82"/><text fill="#000000" font-family="sans-serif" font-size="4.34" lengthAdjust="spacing" textLength="33.79" x="461.745" y="74.7433">-agencyID: String</text><text fill="#000000" font-family="sans-serif" font-size="4.34" lengthAdjust="spacing" textLength="40.92" x="461.745" y="80.5158">-agencyName: String</text><text fill="#000000" font-family="sans-serif" font-size="4.34" lengthAdjust="spacing" textLength="41.85" x="461.745" y="86.2884">-emailAddress: String</text><text fill="#000000" font-family="sans-serif" font-size="4.34" lengthAdjust="spacing" textLength="66.03" x="461.745" y="92.0609">-contactTelephoneNumber: String</text><text fill="#000000" font-family="sans-serif" font-size="4.34" lengthAdjust="spacing" textLength="35.96" x="461.745" y="97.8335">-address: Address</text><text fill="#000000" font-family="sans-serif" font-size="4.34" lengthAdjust="spacing" textLength="97.34" x="461.745" y="103.606">-purchaseOrdersAccepted : List&lt;PurchaseOrder&gt;</text><line style="stroke:#181818;stroke-width:0.155;" x1="460.195" x2="560.635" y1="105.9352" y2="105.9352"/><text fill="#000000" font-family="sans-serif" font-size="4.34" lengthAdjust="spacing" textLength="62.31" x="461.745" y="111.8585">+getPurchaseOrdersAccepted()</text><text fill="#000000" font-family="sans-serif" font-size="4.34" lengthAdjust="spacing" textLength="64.17" x="461.745" y="117.6311">+sortListBubble(sortingDirection)</text><text fill="#000000" font-family="sans-serif" font-size="4.34" lengthAdjust="spacing" textLength="61.69" x="461.745" y="123.4036">+sortSelection(sortingDirection)</text><text fill="#000000" font-family="sans-serif" font-size="4.34" lengthAdjust="spacing" textLength="34.72" x="461.745" y="129.1762">+toString(): String</text></g><!--class Employee--><g id="elem_Employee"><rect codeLine="244" fill="#F1F1F1" height="43.7427" id="Employee" rx="0.775" ry="0.775" style="stroke:#181818;stroke-width:0.155;" width="38.44" x="394.785" y="73.315"/><ellipse cx="403.62" cy="78.275" fill="#ADD1B2" rx="3.41" ry="3.41" style="stroke:#181818;stroke-width:0.31;"/><path d="M404.4773,76.9963 Q404.5258,76.9284 404.5839,76.8945 Q404.642,76.8606 404.7098,76.8606 Q404.8261,76.8606 404.8988,76.943 Q404.9714,77.0205 404.9714,77.2094 L404.9714,77.6598 Q404.9714,77.8488 404.8988,77.9311 Q404.8261,78.0134 404.7098,78.0134 Q404.6033,78.0134 404.5403,77.9505 Q404.4773,77.8923 404.4434,77.7325 Q404.4289,77.6211 404.3708,77.563 Q404.2691,77.4467 404.0802,77.3789 Q403.8913,77.3111 403.6975,77.3111 Q403.4602,77.3111 403.2616,77.4128 Q403.0678,77.5145 402.9128,77.747 Q402.7627,77.9795 402.7627,78.2992 L402.7627,78.6383 Q402.7627,79.0209 403.0388,79.2777 Q403.3148,79.5295 403.8089,79.5295 Q404.0995,79.5295 404.303,79.452 Q404.4241,79.4036 404.5548,79.268 Q404.6372,79.1856 404.6808,79.1614 Q404.7292,79.1372 404.7922,79.1372 Q404.8939,79.1372 404.9714,79.2195 Q405.0538,79.297 405.0538,79.4036 Q405.0538,79.5102 404.9472,79.6361 Q404.7922,79.8153 404.5452,79.917 Q404.2109,80.0575 403.8089,80.0575 Q403.3391,80.0575 402.9661,79.8638 Q402.6609,79.7088 402.4478,79.3794 Q402.2347,79.0452 402.2347,78.648 L402.2347,78.2895 Q402.2347,77.8778 402.4236,77.5242 Q402.6173,77.1658 402.9564,76.9769 Q403.2955,76.7831 403.6781,76.7831 Q403.9058,76.7831 404.1044,76.8364 Q404.3078,76.8848 404.4773,76.9963 Z " fill="#000000"/><text fill="#000000" font-family="sans-serif" font-size="4.34" lengthAdjust="spacing" textLength="19.22" x="408.89" y="80.072">Employee</text><line style="stroke:#181818;stroke-width:0.155;" x1="395.095" x2="432.915" y1="83.235" y2="83.235"/><text fill="#000000" font-family="sans-serif" font-size="4.34" lengthAdjust="spacing" textLength="25.73" x="396.645" y="89.1583">-email: String</text><text fill="#000000" font-family="sans-serif" font-size="4.34" lengthAdjust="spacing" textLength="26.35" x="396.645" y="94.9308">-name: String</text><text fill="#000000" font-family="sans-serif" font-size="4.34" lengthAdjust="spacing" textLength="30.69" x="396.645" y="100.7034">-position: String</text><text fill="#000000" font-family="sans-serif" font-size="4.34" lengthAdjust="spacing" textLength="27.9" x="396.645" y="106.4759">-phone: String</text><line style="stroke:#181818;stroke-width:0.31;" x1="395.095" x2="432.915" y1="108.8052" y2="108.8052"/><text fill="#000000" font-family="sans-serif" font-size="4.34" lengthAdjust="spacing" textLength="34.72" x="396.645" y="114.7285">+toString(): String</text></g><!--class Person--><g id="elem_Person"><rect codeLine="259" fill="#F1F1F1" height="61.0603" id="Person" rx="0.775" ry="0.775" style="stroke:#181818;stroke-width:0.155;" width="61.38" x="383.315" y="167.71"/><ellipse cx="405.7125" cy="172.67" fill="#ADD1B2" rx="3.41" ry="3.41" style="stroke:#181818;stroke-width:0.31;"/><path d="M406.5698,171.3912 Q406.6183,171.3234 406.6764,171.2895 Q406.7345,171.2556 406.8023,171.2556 Q406.9186,171.2556 406.9913,171.338 Q407.0639,171.4155 407.0639,171.6044 L407.0639,172.0548 Q407.0639,172.2438 406.9913,172.3261 Q406.9186,172.4084 406.8023,172.4084 Q406.6958,172.4084 406.6328,172.3455 Q406.5698,172.2873 406.5359,172.1275 Q406.5214,172.0161 406.4633,171.958 Q406.3616,171.8417 406.1727,171.7739 Q405.9838,171.7061 405.79,171.7061 Q405.5527,171.7061 405.3541,171.8078 Q405.1603,171.9095 405.0053,172.142 Q404.8552,172.3745 404.8552,172.6942 L404.8552,173.0333 Q404.8552,173.4159 405.1313,173.6727 Q405.4073,173.9245 405.9014,173.9245 Q406.192,173.9245 406.3955,173.847 Q406.5166,173.7986 406.6473,173.663 Q406.7297,173.5806 406.7733,173.5564 Q406.8217,173.5322 406.8847,173.5322 Q406.9864,173.5322 407.0639,173.6145 Q407.1463,173.692 407.1463,173.7986 Q407.1463,173.9052 407.0397,174.0311 Q406.8847,174.2103 406.6377,174.312 Q406.3034,174.4525 405.9014,174.4525 Q405.4316,174.4525 405.0586,174.2588 Q404.7534,174.1038 404.5403,173.7744 Q404.3272,173.4402 404.3272,173.043 L404.3272,172.6845 Q404.3272,172.2728 404.5161,171.9192 Q404.7098,171.5608 405.0489,171.3719 Q405.388,171.1781 405.7706,171.1781 Q405.9983,171.1781 406.1969,171.2314 Q406.4003,171.2798 406.5698,171.3912 Z " fill="#000000"/><text fill="#000000" font-family="sans-serif" font-size="4.34" lengthAdjust="spacing" textLength="13.95" x="412.0675" y="174.467">Person</text><line style="stroke:#181818;stroke-width:0.155;" x1="383.625" x2="444.385" y1="177.63" y2="177.63"/><text fill="#000000" font-family="sans-serif" font-size="4.34" lengthAdjust="spacing" textLength="26.35" x="385.175" y="183.5533">-name: String</text><text fill="#000000" font-family="sans-serif" font-size="4.34" lengthAdjust="spacing" textLength="36.27" x="385.175" y="189.3258">-taxNumber: String</text><text fill="#000000" font-family="sans-serif" font-size="4.34" lengthAdjust="spacing" textLength="41.85" x="385.175" y="195.0984">-emailAddress: String</text><text fill="#000000" font-family="sans-serif" font-size="4.34" lengthAdjust="spacing" textLength="50.22" x="385.175" y="200.8709">-telephoneNumber: String</text><text fill="#000000" font-family="sans-serif" font-size="4.34" lengthAdjust="spacing" textLength="35.96" x="385.175" y="206.6435">-address: Address</text><text fill="#000000" font-family="sans-serif" font-size="4.34" lengthAdjust="spacing" textLength="20.46" x="385.175" y="212.416">-role: Role</text><text fill="#000000" font-family="sans-serif" font-size="4.34" lengthAdjust="spacing" textLength="57.66" x="385.175" y="218.1885">-passportCard: PassportCard</text><line style="stroke:#181818;stroke-width:0.155;" x1="383.625" x2="444.385" y1="220.5178" y2="220.5178"/><text fill="#000000" font-family="sans-serif" font-size="4.34" lengthAdjust="spacing" textLength="34.72" x="385.175" y="226.4411">+toString(): String</text></g><!--link ListingDealsUI to ListingDealsController--><g id="link_ListingDealsUI_ListingDealsController"><path codeLine="285" d="M39.7606,21.08 C41.199,21.08 42.1073,21.08 42.1073,21.08 C42.1073,21.08 45.1019,21.08 48.8405,21.08 " fill="none" id="ListingDealsUI-to-ListingDealsController" style="stroke:#181818;stroke-width:0.31;stroke-dasharray:7.0,7.0;"/><polygon fill="#181818" points="50.4804,21.08,47.6904,19.84,48.9304,21.08,47.6904,22.32,50.4804,21.08" style="stroke:#181818;stroke-width:0.31;"/></g><!--link ListingDealsController to PurchaseOrder--><g id="link_ListingDealsController_PurchaseOrder"><path codeLine="287" d="M112.2107,40.0365 C126.2165,49.4481 140.275,58.9 140.275,58.9 C140.275,58.9 145.3373,63.3826 151.8845,69.1796 " fill="none" id="ListingDealsController-to-PurchaseOrder" style="stroke:#181818;stroke-width:0.31;stroke-dasharray:7.0,7.0;"/><polygon fill="#181818" points="153.1245,70.277,151.8578,67.499,151.9641,69.2494,150.2137,69.3557,153.1245,70.277" style="stroke:#181818;stroke-width:0.31;"/></g><!--link ListingDealsController to Repositories--><g id="link_ListingDealsController_Repositories"><path codeLine="288" d="M118.4417,21.08 C128.3028,21.08 139.0877,21.08 149.0077,21.08 " fill="none" id="ListingDealsController-to-Repositories" style="stroke:#181818;stroke-width:0.31;stroke-dasharray:7.0,7.0;"/><polygon fill="#181818" points="150.5918,21.08,147.8018,19.84,149.0418,21.08,147.8018,22.32,150.5918,21.08" style="stroke:#181818;stroke-width:0.31;"/><text fill="#000000" font-family="sans-serif" font-size="4.03" lengthAdjust="spacing" textLength="20.77" x="124.155" y="18.9188">repositories</text></g><!--link ListingDealsController to PurchaseOrderRepository--><g id="link_ListingDealsController_PurchaseOrderRepository"><path codeLine="289" d="M84.475,40.0241 C84.475,52.5047 84.475,68.6991 84.475,80.2497 " fill="none" id="ListingDealsController-to-PurchaseOrderRepository" style="stroke:#181818;stroke-width:0.31;stroke-dasharray:7.0,7.0;"/><polygon fill="#181818" points="84.475,81.9175,85.715,79.1275,84.475,80.3675,83.235,79.1275,84.475,81.9175" style="stroke:#181818;stroke-width:0.31;"/></g><!--link PurchaseOrderRepository to PurchaseOrder--><g id="link_PurchaseOrderRepository_PurchaseOrder"><path codeLine="291" d="M135.0267,95.17 C138.5359,95.17 141.8932,95.17 144.4073,95.17 " fill="none" id="PurchaseOrderRepository-to-PurchaseOrder" style="stroke:#181818;stroke-width:0.31;stroke-dasharray:7.0,7.0;"/><polygon fill="#181818" points="146.0069,95.17,143.2169,93.93,144.4569,95.17,143.2169,96.41,146.0069,95.17" style="stroke:#181818;stroke-width:0.31;"/></g><!--link PurchaseOrder to Announcements--><g id="link_PurchaseOrder_Announcements"><path codeLine="293" d="M215.8685,95.17 C218.6678,95.17 221.9197,95.17 224.9856,95.17 " fill="none" id="PurchaseOrder-to-Announcements" style="stroke:#181818;stroke-width:0.31;stroke-dasharray:7.0,7.0;"/><polygon fill="#181818" points="226.5697,95.17,223.7797,93.93,225.0197,95.17,223.7797,96.41,226.5697,95.17" style="stroke:#181818;stroke-width:0.31;"/></g><!--link Repositories to PurchaseOrderRepository--><g id="link_Repositories_PurchaseOrderRepository"><path codeLine="295" d="M158.7448,40.0241 C141.4964,52.7589 119.0059,69.3656 103.3137,80.9534 " fill="none" id="Repositories-to-PurchaseOrderRepository" style="stroke:#181818;stroke-width:0.31;"/><polygon fill="#181818" points="102.0055,81.9175,104.9869,81.2593,103.2529,80.9974,103.5148,79.2635,102.0055,81.9175" style="stroke:#181818;stroke-width:0.31;"/></g><!--link Repositories to Repositories--><g id="link_Repositories_Repositories"><path codeLine="296" d="M217.3131,16.0983 C223.665,16.6966 228.16,18.3551 228.16,21.08 C228.16,23.5693 224.4059,25.172 218.9065,25.885 " fill="none" id="Repositories-to-Repositories" style="stroke:#181818;stroke-width:0.31;"/><polygon fill="#181818" points="217.3131,26.0617,220.2241,26.9823,218.8534,25.8886,219.9471,24.5178,217.3131,26.0617" style="stroke:#181818;stroke-width:0.31;"/><text fill="#000000" font-family="sans-serif" font-size="4.03" lengthAdjust="spacing" textLength="23.25" x="230.02" y="22.7938">getInstance()</text></g><!--link Employee to Person--><g id="link_Employee_Person"><path codeLine="299" d="M414.005,117.0839 C414.005,129.9241 414.005,146.5525 414.005,161.386 " fill="none" id="Employee-to-Person" style="stroke:#181818;stroke-width:0.31;"/><polygon fill="none" points="416.175,161.417,414.005,167.617,411.835,161.417,416.175,161.417" style="stroke:#181818;stroke-width:0.31;"/></g><!--reverse link Person to Owner--><g id="link_Person_Owner"><path codeLine="300" d="M396.9767,234.4716 C390.3179,248.5177 384.245,261.33 384.245,261.33 C384.245,261.33 380.5622,265.4003 375.875,270.5835 " fill="none" id="Person-backto-Owner" style="stroke:#181818;stroke-width:0.31;"/><polygon fill="none" points="395.0299,233.5106,399.6489,228.8389,398.9514,235.3706,395.0299,233.5106" style="stroke:#181818;stroke-width:0.31;"/></g><!--link Employee to Agency--><g id="link_Employee_Agency"><path codeLine="301" d="M433.2839,95.17 C440.5782,95.17 449.2737,95.17 458.1552,95.17 " fill="none" id="Employee-to-Agency" style="stroke:#181818;stroke-width:0.31;"/><polygon fill="#181818" points="459.8137,95.17,457.0237,93.93,458.2637,95.17,457.0237,96.41,459.8137,95.17" style="stroke:#181818;stroke-width:0.31;"/><polygon fill="#000000" points="441.75,91.3401,438.946,90.429,438.946,92.2512,441.75,91.3401" style="stroke:#000000;stroke-width:0.31;"/><text fill="#000000" font-family="sans-serif" font-size="4.03" lengthAdjust="spacing" textLength="11.16" x="442.99" y="93.0088">stores</text><text fill="#000000" font-family="sans-serif" font-size="4.03" lengthAdjust="spacing" textLength="2.17" x="435.7658" y="93.9311">1</text><text fill="#000000" font-family="sans-serif" font-size="4.03" lengthAdjust="spacing" textLength="2.17" x="455.3017" y="94.1299">1</text></g><!--link Property to Person--><g id="link_Property_Person"><path codeLine="303" d="M356.6984,198.245 C365.0436,198.245 373.7112,198.245 381.703,198.245 " fill="none" id="Property-to-Person" style="stroke:#181818;stroke-width:0.31;"/><polygon fill="#181818" points="383.2902,198.245,380.5002,197.005,381.7402,198.245,380.5002,199.485,383.2902,198.245" style="stroke:#181818;stroke-width:0.31;"/><polygon fill="#000000" points="365.18,194.4151,362.376,193.504,362.376,195.3262,365.18,194.4151" style="stroke:#000000;stroke-width:0.31;"/><text fill="#000000" font-family="sans-serif" font-size="4.03" lengthAdjust="spacing" textLength="11.16" x="366.42" y="196.0838">stores</text><text fill="#000000" font-family="sans-serif" font-size="4.03" lengthAdjust="spacing" textLength="2.17" x="359.1293" y="197.1768">1</text><text fill="#000000" font-family="sans-serif" font-size="4.03" lengthAdjust="spacing" textLength="2.17" x="378.6855" y="197.1259">1</text></g><!--link Announcements to Property--><g id="link_Announcements_Property"><path codeLine="304" d="M270.1991,108.3512 C275.4505,118.6866 283.1819,133.8952 290.7893,148.8589 " fill="none" id="Announcements-to-Property" style="stroke:#181818;stroke-width:0.31;"/><polygon fill="#181818" points="291.524,150.3066,291.3698,147.2574,290.8237,148.9238,289.1573,148.3778,291.524,150.3066" style="stroke:#181818;stroke-width:0.31;"/><text fill="#000000" font-family="sans-serif" font-size="4.03" lengthAdjust="spacing" textLength="2.17" x="268.8991" y="115.2219">1</text><text fill="#000000" font-family="sans-serif" font-size="4.03" lengthAdjust="spacing" textLength="1.55" x="288.6857" y="146.7824">*</text></g><!--reverse link Property to Land--><g id="link_Property_Land"><path codeLine="305" d="M311.2772,252.3896 C310.2046,265.3631 309.1909,277.5988 308.5802,284.9892 " fill="none" id="Property-backto-Land" style="stroke:#181818;stroke-width:0.31;"/><polygon fill="none" points="309.1165,252.1881,311.7918,246.1865,313.4441,252.5446,309.1165,252.1881" style="stroke:#181818;stroke-width:0.31;"/></g><!--link TypeOfTransaction to Property--><g id="link_TypeOfTransaction_Property"><path codeLine="306" d="M333.8049,111.3768 C331.9294,120.3668 329.4618,132.1902 326.9539,144.1965 " fill="none" id="TypeOfTransaction-to-Property" style="stroke:#181818;stroke-width:0.31;"/><polygon fill="none" points="329.0743,144.6615,325.6829,150.288,324.8242,143.7749,329.0743,144.6615" style="stroke:#181818;stroke-width:0.31;"/><text fill="#000000" font-family="sans-serif" font-size="4.03" lengthAdjust="spacing" textLength="2.17" x="331.098" y="118.03">1</text><text fill="#000000" font-family="sans-serif" font-size="4.03" lengthAdjust="spacing" textLength="2.17" x="323.9422" y="146.9207">1</text></g><!--link Property to Owner--><g id="link_Property_Owner"><path codeLine="307" d="M331.7403,246.2144 C334.6667,254.9285 336.815,261.33 336.815,261.33 C336.815,261.33 338.9695,264.7307 341.8463,269.2753 " fill="none" id="Property-to-Owner" style="stroke:#181818;stroke-width:0.31;"/><polygon fill="#181818" points="342.674,270.5835,342.2249,267.5636,341.843,269.2751,340.1315,268.8932,342.674,270.5835" style="stroke:#181818;stroke-width:0.31;"/><polygon fill="#000000" points="338.9871,259.8498,338.6961,256.9159,337.0272,257.6473,338.9871,259.8498" style="stroke:#000000;stroke-width:0.31;"/><text fill="#000000" font-family="sans-serif" font-size="4.03" lengthAdjust="spacing" textLength="11.16" x="341.155" y="260.0988">stores</text><text fill="#000000" font-family="sans-serif" font-size="4.03" lengthAdjust="spacing" textLength="2.17" x="330.2464" y="252.8604">1</text><text fill="#000000" font-family="sans-serif" font-size="4.03" lengthAdjust="spacing" textLength="2.17" x="338.9823" y="267.1349">1</text></g><!--link Property to Address--><g id="link_Property_Address"><path codeLine="308" d="M356.6984,237.5809 C369.4022,249.6833 382.8562,262.4987 393.5326,272.6698 " fill="none" id="Property-to-Address" style="stroke:#181818;stroke-width:0.31;"/><polygon fill="#181818" points="394.6889,273.7703,393.524,270.9481,393.5666,272.7012,391.8135,272.7438,394.6889,273.7703" style="stroke:#181818;stroke-width:0.31;"/><polygon fill="#000000" points="381.9573,259.4992,380.5555,256.9055,379.2987,258.2248,381.9573,259.4992" style="stroke:#000000;stroke-width:0.31;"/><text fill="#000000" font-family="sans-serif" font-size="4.03" lengthAdjust="spacing" textLength="11.16" x="383.625" y="260.0988">stores</text><text fill="#000000" font-family="sans-serif" font-size="4.03" lengthAdjust="spacing" textLength="2.17" x="359.1293" y="238.7868">1</text><text fill="#000000" font-family="sans-serif" font-size="4.03" lengthAdjust="spacing" textLength="2.17" x="390.16" y="270.3838">1</text></g><!--link Person to Address--><g id="link_Person_Address"><path codeLine="309" d="M414.005,228.8203 C414.005,241.8589 414.005,256.8598 414.005,268.9932 " fill="none" id="Person-to-Address" style="stroke:#181818;stroke-width:0.31;"/><polygon fill="#181818" points="414.005,270.6083,415.245,267.8183,414.005,269.0583,412.765,267.8183,414.005,270.6083" style="stroke:#181818;stroke-width:0.31;"/><polygon fill="#000000" points="415.555,259.9801,416.4661,257.1761,414.6439,257.1761,415.555,259.9801" style="stroke:#000000;stroke-width:0.31;"/><text fill="#000000" font-family="sans-serif" font-size="4.03" lengthAdjust="spacing" textLength="11.16" x="418.345" y="260.0988">stores</text><text fill="#000000" font-family="sans-serif" font-size="4.03" lengthAdjust="spacing" textLength="2.17" x="411.7553" y="235.6116">1</text><text fill="#000000" font-family="sans-serif" font-size="4.03" lengthAdjust="spacing" textLength="2.17" x="411.7231" y="267.1623">1</text></g><!--link Property to CommissionDetails--><g id="link_Property_CommissionDetails"><path codeLine="310" d="M287.029,246.1865 C280.8259,256.4785 274.6569,266.7178 269.7186,274.9111 " fill="none" id="Property-to-CommissionDetails" style="stroke:#181818;stroke-width:0.31;"/><polygon fill="#181818" points="268.8754,276.3123,271.3784,274.564,269.6761,274.9851,269.255,273.2828,268.8754,276.3123" style="stroke:#181818;stroke-width:0.31;"/><polygon fill="#000000" points="281.455,259.7577,283.6826,257.8263,282.1219,256.8858,281.455,259.7577" style="stroke:#000000;stroke-width:0.31;"/><text fill="#000000" font-family="sans-serif" font-size="4.03" lengthAdjust="spacing" textLength="11.16" x="285.045" y="260.0988">stores</text><text fill="#000000" font-family="sans-serif" font-size="4.03" lengthAdjust="spacing" textLength="2.17" x="283.5091" y="252.8312">1</text><text fill="#000000" font-family="sans-serif" font-size="4.03" lengthAdjust="spacing" textLength="2.17" x="267.8443" y="272.8727">1</text></g><!--reverse link Equipment to Building--><g id="link_Equipment_Building"><path codeLine="311" d="M176.3962,216.0018 C178.1849,231.4367 180.8013,254.0171 182.7233,270.5866 " fill="none" id="Equipment-backto-Building" style="stroke:#181818;stroke-width:0.31;"/><polygon fill="#181818" points="176.2164,214.4363,175.3031,217.3496,176.3934,215.9762,177.7669,217.0665,176.2164,214.4363" style="stroke:#181818;stroke-width:0.31;"/><polygon fill="#000000" points="182.8765,256.8904,182.2944,259.7806,184.1044,259.5708,182.8765,256.8904" style="stroke:#000000;stroke-width:0.31;"/><text fill="#000000" font-family="sans-serif" font-size="4.03" lengthAdjust="spacing" textLength="11.16" x="185.845" y="260.0988">stores</text><text fill="#000000" font-family="sans-serif" font-size="4.03" lengthAdjust="spacing" textLength="2.17" x="174.1433" y="221.2057">1</text><text fill="#000000" font-family="sans-serif" font-size="4.03" lengthAdjust="spacing" textLength="2.17" x="180.1834" y="267.1383">1</text></g><!--reverse link Photo to Property--><g id="link_Photo_Property"><path codeLine="312" d="M249.7856,198.245 C257.3155,198.245 266.0978,198.245 274.753,198.245 " fill="none" id="Photo-backto-Property" style="stroke:#181818;stroke-width:0.31;"/><polygon fill="#181818" points="248.1984,198.245,250.9884,199.485,249.7484,198.245,250.9884,197.005,248.1984,198.245" style="stroke:#181818;stroke-width:0.31;"/><polygon fill="#000000" points="253.58,194.4151,256.384,195.3262,256.384,193.504,253.58,194.4151" style="stroke:#000000;stroke-width:0.31;"/><text fill="#000000" font-family="sans-serif" font-size="4.03" lengthAdjust="spacing" textLength="11.16" x="257.92" y="196.0838">stores</text><text fill="#000000" font-family="sans-serif" font-size="4.03" lengthAdjust="spacing" textLength="2.17" x="250.6784" y="197.0107">1</text><text fill="#000000" font-family="sans-serif" font-size="4.03" lengthAdjust="spacing" textLength="2.17" x="270.151" y="197.1768">1</text></g><!--link Person to PassportCard--><g id="link_Person_PassportCard"><path codeLine="313" d="M431.5448,228.8203 C440.386,244.0785 450.7865,262.0275 458.2544,274.9173 " fill="none" id="Person-to-PassportCard" style="stroke:#181818;stroke-width:0.31;"/><polygon fill="#181818" points="459.0604,276.3061,458.7313,273.2707,458.2819,274.9658,456.5868,274.5164,459.0604,276.3061" style="stroke:#181818;stroke-width:0.31;"/><polygon fill="#000000" points="451.3621,259.7712,450.7446,256.8883,449.168,257.8019,451.3621,259.7712" style="stroke:#000000;stroke-width:0.31;"/><text fill="#000000" font-family="sans-serif" font-size="4.03" lengthAdjust="spacing" textLength="11.16" x="453.375" y="260.0988">stores</text><text fill="#000000" font-family="sans-serif" font-size="4.03" lengthAdjust="spacing" textLength="2.17" x="430.5832" y="235.6116">1</text><text fill="#000000" font-family="sans-serif" font-size="4.03" lengthAdjust="spacing" textLength="2.17" x="455.5091" y="272.8657">1</text></g><!--reverse link Property to Building--><g id="link_Property_Building"><path codeLine="314" d="M269.8209,233.7958 C260.6294,240.8483 253.735,246.14 253.735,246.14 C253.735,246.14 229.4248,262.477 209.7646,275.6861 " fill="none" id="Property-backto-Building" style="stroke:#181818;stroke-width:0.31;"/><polygon fill="none" points="268.5716,232.0164,274.8119,229.9642,271.2159,235.4605,268.5716,232.0164" style="stroke:#181818;stroke-width:0.31;"/></g><!--reverse link Building to House--><g id="link_Building_House"><path codeLine="315" d="M173.9813,320.2517 C172.1926,324.6227 170.3791,329.0557 168.6958,333.1632 " fill="none" id="Building-backto-House" style="stroke:#181818;stroke-width:0.31;"/><polygon fill="none" points="172.0345,319.2814,176.3931,314.3648,176.0521,320.9244,172.0345,319.2814" style="stroke:#181818;stroke-width:0.31;"/></g><!--reverse link Building to Apartment--><g id="link_Building_Apartment"><path codeLine="316" d="M196.4594,320.23 C200.1577,329.2665 203.9645,338.5634 206.4848,344.7169 " fill="none" id="Building-backto-Apartment" style="stroke:#181818;stroke-width:0.31;"/><polygon fill="none" points="194.3979,320.9244,194.0569,314.3648,198.4155,319.2814,194.3979,320.9244" style="stroke:#181818;stroke-width:0.31;"/></g><!--SRC=[lLbBSzis4BxpLs1oCTrOcRP7ZSSpjkHED9F67ilfeJUAX6Ks5C42K1F5oN_l0iHZyQ2jT3h98HRtyM5VM6B14_6nxOUALpkoOpsh7pdRKIBvdXQUCrJrnsfBr_BGKS9fBQj-ss41yLWrx5FRRyb3rGdCwTgUoiD0oS2wWteeJZ9CnYKha5RTLK9SIidRpLxILStwTVk5af-BugIZ3v98HdYxVPIaQPKvBUkBej1Av5qh91Yof638XnLvAeflbdMxv_LZ9UWDRoY_emCJhMJyy5GG-3SZ0sQBoxgcWwGDcMl8yq3vObIPpVJVrrigRxFAvQbV7HksOBtahEie9q_7Gpa1pWRAvQ4Sp8_LqZ0515AjSxNVR3fQgaUrf0qIabhJRgHbX9p9BaOj5P6Xiu29Z5lr0igZfkKfH0xBvFtpQG2CYLJP1Eq5vTUxgkq0UGsrqMyDe-fxjeSrTxINmBj4ZyA8C0LqkGEwacZO7k9ZjNM4bSt0QNlf_3pH5WUcbCw6C-AZVuRXpn3WgS40hp-0ed-wyVAUUEdqNAmkEQrk7cp2ZQW8qE09ExnQUdgwYaXNaMoCPNdgekhI44JILi2u7On95q7mHLBC6A74egZCB1PnEz4Gxg4tHAbcdthAv-H6_J6ackrshH1GkdEoSB-NL4AMRFgXU_KIAaFziQGWj55DDErOnRz1Ero03gUJHREiP6maft_lgP0PJjKqd0e1bem_hCEFJ395vRmwZF5Lb0lCdXDDCoJLDcyUxddLYqflspcvZqbHD5VBN7aJA8aaQkMpCOL2-OUr3GAuHGahSzbBLNGgIfoNI6PhPKvjtZnZcQH7IPa4-JKoOjE9pImVL4XsXKWaNrCPvA1wqCv3oA58ljvIv3jVUbbOpC-KQSRKiL1r5apDUkQjAot5RuCS1JMHzT0WntiYjK4Nli8OTm2gEytGs-F3tMhQYMHhAB1qltZWL47wtxYmpzIn2RO5F_nHTVkfObe9jQdX9Jwuqh3X0SaDOnsjnktwccJwSHopKa3TKkbjg5i5QP-WmYKoy4ixB5YJfDYrtsH_wpwC-shKXp7BUBsqlL6t_YadT2uMeQwIMBfj5Kb4jUDCJj9ZJ9v8akPbypHQR1U-3zLZuqKgCR4WIhy6_Xsl7JOI3HlodwseYUZwL_QuYKn0ma8PSuTgnSY4xwbPN35XaDOQCXCRmmYNZ2EnQCTE6kbgChOirblBfAEPHHKzS25M_NFq9gDiEHCxvBb2XjO9vtZRktx5pSjkPt- -KVt994JtAlycDWJKlC9WtuxYgBlwlWTaZ1QxVMk0CtuxrbJdVAd8hlPjrwXnRtHgGnlEs4vuhpQLV8n8CDd1VBTTmp194Ha2sGuxVGgujZ_365nPh3WAdX4k5qVYofYNw5jwO7yIHsntaeY0cRfuR42Tw-uCNBKSfiIcLQq5HADpPAsEBbNtbbOoOVgZdNfzXp3fIqNjoG0i_zw9O2QiIuzv4NRURX-bb-Bqbi40PgiEXhAnSFmBT4OwzX1HnBw__WnJvfxdEfgken6eJ12JIhAIQ9jRb7UmS1ci7cjhYLXJzJPlOAx38Mx6bPShpCPEpqoslFfgH-CnMbQVt-zt6yg1iUebtReHYwg9rxvPOYtQKUWZFNMwsM9KhzTGiaJJyJLQ0DFlhKcO-1vijyypCOchM3bShHBZAgB1VN4gVbVrpPFlxl3VmBXSLBmPepiOohX2uIy-0hfPQIOo3FysXvOYLSNvzTGiLFjPkTAFwXqG3fgQh3oA63YLSLDXlOIpJ1JE8oVOxxay2oUysemFQTEnpDZ7_AGukliCacQdWKdHmgh9u0K2kOYcc8jiSBFe4wBFf-Tx9hSZXg_ZBYF_d_l6bzl-zMxes85IL_Kwvb5bzccnwxj5VOaHabNufbwQTgqoMCEs7tlmOtDoi_aBF0ZxkPA0S3tQ0oSQYO6iooR2JTJh3enJkjQGP-DZcn0anqn14w5mpVtuVY3_IoFWuCoSt35tKpQW_ZWFkYMgrScTgndzixiLzV8CWESc4VWn6_-O7H_Bo1-onz6j4QHBOUYqeSiYHVO9pLpCe6pg-vbCTaKaDbqFnnm3Y-ZxpfkBYGyheIJwuF86L8AkDYbu4Nu0cNFyDUDOTF-1eoWc62InA9HK_F2RHX4ODfjDhnaAnXwHu8CDHDSrsjdiwuNfAeLfBkTVP-RUtKcz-kML0bL_pB5aJWI00_O5E67lzP6OmK9YuJS6BTgmJxsI_-cLkoRpO636J1_1YlGMI6cFfkkr4bsDRYpHhc13ibB-qElbHXTUaigXfLTjICFFW4hq7BnKVzsexIJFY_52OPGAF0s4KZFnPilQgcDhLopSqfgiHw-8vewdHV4l]--></g></svg>