<?xml version="1.0" encoding="us-ascii" standalone="no"?><svg xmlns="http://www.w3.org/2000/svg" xmlns:xlink="http://www.w3.org/1999/xlink" contentStyleType="text/css" height="1238.3px" preserveAspectRatio="none" style="width:1243px;height:1238px;background:#FFFFFF;" version="1.1" viewBox="0 0 1243 1238" width="1243.9px" zoomAndPan="magnify"><defs/><g><rect fill="#FFFFFF" height="1102.6545" style="stroke:#181818;stroke-width:0.6999999999999998;" width="7" x="39.2" y="65.5348"/><rect fill="#FFFFFF" height="448.1053" style="stroke:#181818;stroke-width:0.6999999999999998;" width="7" x="282.8" y="81.8385"/><rect fill="#FFFFFF" height="21.9037" style="stroke:#181818;stroke-width:0.6999999999999998;" width="7" x="282.8" y="551.8475"/><rect fill="#FFFFFF" height="572.5344" style="stroke:#181818;stroke-width:0.6999999999999998;" width="7" x="282.8" y="595.6549"/><rect fill="#FFFFFF" height="109.5186" style="stroke:#181818;stroke-width:0.6999999999999998;" width="7" x="452.2" y="152.6807"/><rect fill="#FFFFFF" height="207.6334" style="stroke:#181818;stroke-width:0.6999999999999998;" width="7" x="452.2" y="284.1029"/><rect fill="#FFFFFF" height="220.4371" style="stroke:#181818;stroke-width:0.6999999999999998;" width="7" x="452.2" y="635.9623"/><rect fill="#FFFFFF" height="220.4371" style="stroke:#181818;stroke-width:0.6999999999999998;" width="7" x="452.2" y="889.9447"/><rect fill="#FFFFFF" height="21.9037" style="stroke:#181818;stroke-width:0.6999999999999998;" width="7" x="548.1" y="174.5844"/><rect fill="#FFFFFF" height="21.9037" style="stroke:#181818;stroke-width:0.6999999999999998;" width="7" x="746.9" y="218.3918"/><rect fill="#FFFFFF" height="153.326" style="stroke:#181818;stroke-width:0.6999999999999998;" width="7" x="746.9" y="306.0066"/><rect fill="#FFFFFF" height="176.6297" style="stroke:#181818;stroke-width:0.6999999999999998;" width="7" x="746.9" y="657.866"/><rect fill="#FFFFFF" height="176.6297" style="stroke:#181818;stroke-width:0.6999999999999998;" width="7" x="746.9" y="911.8484"/><rect fill="#FFFFFF" height="109.5186" style="stroke:#181818;stroke-width:0.6999999999999998;" width="7" x="916.3" y="327.9104"/><rect fill="#FFFFFF" height="109.5186" style="stroke:#181818;stroke-width:0.6999999999999998;" width="7" x="916.3" y="698.1734"/><rect fill="#FFFFFF" height="109.5186" style="stroke:#181818;stroke-width:0.6999999999999998;" width="7" x="916.3" y="952.1559"/><rect fill="#FFFFFF" height="65.7111" style="stroke:#181818;stroke-width:0.6999999999999998;" width="7" x="1082.9" y="349.8141"/><rect fill="#FFFFFF" height="65.7111" style="stroke:#181818;stroke-width:0.6999999999999998;" width="7" x="1082.9" y="720.0771"/><rect fill="#FFFFFF" height="65.7111" style="stroke:#181818;stroke-width:0.6999999999999998;" width="7" x="1082.9" y="974.0596"/><rect fill="#FFFFFF" height="21.9037" style="stroke:#181818;stroke-width:0.6999999999999998;" width="7" x="1196.3" y="371.7178"/><rect fill="#FFFFFF" height="21.9037" style="stroke:#181818;stroke-width:0.6999999999999998;" width="7" x="1196.3" y="741.9809"/><rect fill="#FFFFFF" height="21.9037" style="stroke:#181818;stroke-width:0.6999999999999998;" width="7" x="1196.3" y="995.9633"/><rect fill="none" height="363.9631" style="stroke:#000000;stroke-width:1.0499999999999998;" width="990.15" x="241.85" y="122.8732"/><rect fill="none" height="509.827" style="stroke:#000000;stroke-width:1.0499999999999998;" width="997.15" x="241.85" y="606.1549"/><rect fill="none" height="144.926" style="stroke:#000000;stroke-width:1.0499999999999998;" width="571.55" x="660.45" y="668.366"/><rect fill="none" height="144.926" style="stroke:#000000;stroke-width:1.0499999999999998;" width="571.55" x="660.45" y="922.3484"/><line style="stroke:#181818;stroke-width:0.3499999999999999;stroke-dasharray:5.0,5.0;" x1="42.7" x2="42.7" y1="58.5348" y2="1180.7893"/><line style="stroke:#181818;stroke-width:0.3499999999999999;stroke-dasharray:5.0,5.0;" x1="285.95" x2="285.95" y1="58.5348" y2="1180.7893"/><line style="stroke:#181818;stroke-width:0.3499999999999999;stroke-dasharray:5.0,5.0;" x1="455.35" x2="455.35" y1="109.7059" y2="1180.7893"/><line style="stroke:#181818;stroke-width:0.3499999999999999;stroke-dasharray:5.0,5.0;" x1="551.25" x2="551.25" y1="58.5348" y2="1180.7893"/><line style="stroke:#181818;stroke-width:0.3499999999999999;stroke-dasharray:5.0,5.0;" x1="626.15" x2="626.15" y1="58.5348" y2="1180.7893"/><line style="stroke:#181818;stroke-width:0.3499999999999999;stroke-dasharray:5.0,5.0;" x1="750.05" x2="750.05" y1="58.5348" y2="1180.7893"/><line style="stroke:#181818;stroke-width:0.3499999999999999;stroke-dasharray:5.0,5.0;" x1="919.45" x2="919.45" y1="58.5348" y2="1180.7893"/><line style="stroke:#181818;stroke-width:0.3499999999999999;stroke-dasharray:5.0,5.0;" x1="1086.05" x2="1086.05" y1="58.5348" y2="1180.7893"/><line style="stroke:#181818;stroke-width:0.3499999999999999;stroke-dasharray:5.0,5.0;" x1="1199.8" x2="1199.8" y1="58.5348" y2="1180.7893"/><text fill="#000000" font-family="sans-serif" font-size="9.8" lengthAdjust="spacing" textLength="74.2" x="3.5" y="56.0752">NetworkManager</text><ellipse cx="42.7" cy="9.45" fill="#E3E3E3" rx="5.6" ry="5.6" style="stroke:#181818;stroke-width:0.3499999999999999;"/><path d="M42.7,15.05 L42.7,33.95 M33.6,20.65 L51.8,20.65 M42.7,33.95 L33.6,44.45 M42.7,33.95 L51.8,44.45 " fill="none" style="stroke:#181818;stroke-width:0.3499999999999999;"/><text fill="#000000" font-family="sans-serif" font-size="9.8" lengthAdjust="spacing" textLength="74.2" x="3.5" y="1190.6645">NetworkManager</text><ellipse cx="42.7" cy="1199.074" fill="#E3E3E3" rx="5.6" ry="5.6" style="stroke:#181818;stroke-width:0.3499999999999999;"/><path d="M42.7,1204.674 L42.7,1223.574 M33.6,1210.274 L51.8,1210.274 M42.7,1223.574 L33.6,1234.074 M42.7,1223.574 L51.8,1234.074 " fill="none" style="stroke:#181818;stroke-width:0.3499999999999999;"/><rect fill="#E3E3E3" height="22.8348" rx="1.75" ry="1.75" style="stroke:#181818;stroke-width:0.3499999999999999;" width="74.9" x="248.85" y="35"/><text fill="#000000" font-family="sans-serif" font-size="9.8" lengthAdjust="spacing" textLength="65.1" x="253.75" y="50.4752">:ListingDealsUI</text><rect fill="#E3E3E3" height="22.8348" rx="1.75" ry="1.75" style="stroke:#181818;stroke-width:0.3499999999999999;" width="74.9" x="248.85" y="1180.0893"/><text fill="#000000" font-family="sans-serif" font-size="9.8" lengthAdjust="spacing" textLength="65.1" x="253.75" y="1195.5645">:ListingDealsUI</text><rect fill="#E3E3E3" height="22.8348" rx="1.75" ry="1.75" style="stroke:#181818;stroke-width:0.3499999999999999;" width="109.9" x="400.75" y="1180.0893"/><text fill="#000000" font-family="sans-serif" font-size="9.8" lengthAdjust="spacing" textLength="100.1" x="405.65" y="1195.5645">:ListingDealsController</text><rect fill="#E3E3E3" height="22.8348" rx="1.75" ry="1.75" style="stroke:#181818;stroke-width:0.3499999999999999;" width="67.9" x="517.65" y="35"/><text fill="#000000" font-family="sans-serif" font-size="9.8" lengthAdjust="spacing" textLength="58.1" x="522.55" y="50.4752">:Repositories</text><rect fill="#E3E3E3" height="22.8348" rx="1.75" ry="1.75" style="stroke:#181818;stroke-width:0.3499999999999999;" width="67.9" x="517.65" y="1180.0893"/><text fill="#000000" font-family="sans-serif" font-size="9.8" lengthAdjust="spacing" textLength="58.1" x="522.55" y="1195.5645">:Repositories</text><rect fill="#E3E3E3" height="35.8695" rx="1.75" ry="1.75" style="stroke:#181818;stroke-width:0.3499999999999999;" width="67.9" x="592.55" y="21.9652"/><text fill="#000000" font-family="sans-serif" font-size="9.8" lengthAdjust="spacing" textLength="51.8" x="600.6" y="37.4404">repositories</text><text fill="#000000" font-family="sans-serif" font-size="9.8" lengthAdjust="spacing" textLength="58.1" x="597.45" y="50.4752">:Repositories</text><rect fill="#E3E3E3" height="35.8695" rx="1.75" ry="1.75" style="stroke:#181818;stroke-width:0.3499999999999999;" width="67.9" x="592.55" y="1180.0893"/><text fill="#000000" font-family="sans-serif" font-size="9.8" lengthAdjust="spacing" textLength="51.8" x="600.6" y="1195.5645">repositories</text><text fill="#000000" font-family="sans-serif" font-size="9.8" lengthAdjust="spacing" textLength="58.1" x="597.45" y="1208.5992">:Repositories</text><rect fill="#E3E3E3" height="35.8695" rx="1.75" ry="1.75" style="stroke:#181818;stroke-width:0.3499999999999999;" width="165.9" x="667.45" y="21.9652"/><text fill="#000000" font-family="sans-serif" font-size="9.8" lengthAdjust="spacing" textLength="156.1" x="672.35" y="37.4404">purchaseOrderAcceptedRepository</text><text fill="#000000" font-family="sans-serif" font-size="9.8" lengthAdjust="spacing" textLength="118.3" x="691.25" y="50.4752">:PurchaseOrderRepository</text><rect fill="#E3E3E3" height="35.8695" rx="1.75" ry="1.75" style="stroke:#181818;stroke-width:0.3499999999999999;" width="165.9" x="667.45" y="1180.0893"/><text fill="#000000" font-family="sans-serif" font-size="9.8" lengthAdjust="spacing" textLength="156.1" x="672.35" y="1195.5645">purchaseOrderAcceptedRepository</text><text fill="#000000" font-family="sans-serif" font-size="9.8" lengthAdjust="spacing" textLength="118.3" x="691.25" y="1208.5992">:PurchaseOrderRepository</text><rect fill="#E3E3E3" height="22.8348" rx="1.75" ry="1.75" style="stroke:#181818;stroke-width:0.3499999999999999;" width="80.5" x="879.55" y="35"/><text fill="#000000" font-family="sans-serif" font-size="9.8" lengthAdjust="spacing" textLength="70.7" x="884.45" y="50.4752">:PurchaseOrder</text><rect fill="#E3E3E3" height="22.8348" rx="1.75" ry="1.75" style="stroke:#181818;stroke-width:0.3499999999999999;" width="80.5" x="879.55" y="1180.0893"/><text fill="#000000" font-family="sans-serif" font-size="9.8" lengthAdjust="spacing" textLength="70.7" x="884.45" y="1195.5645">:PurchaseOrder</text><rect fill="#E3E3E3" height="35.8695" rx="1.75" ry="1.75" style="stroke:#181818;stroke-width:0.3499999999999999;" width="83.3" x="1044.75" y="21.9652"/><text fill="#000000" font-family="sans-serif" font-size="9.8" lengthAdjust="spacing" textLength="73.5" x="1049.65" y="37.4404">announcements:</text><text fill="#000000" font-family="sans-serif" font-size="9.8" lengthAdjust="spacing" textLength="71.4" x="1050.7" y="50.4752">Announcements</text><rect fill="#E3E3E3" height="35.8695" rx="1.75" ry="1.75" style="stroke:#181818;stroke-width:0.3499999999999999;" width="83.3" x="1044.75" y="1180.0893"/><text fill="#000000" font-family="sans-serif" font-size="9.8" lengthAdjust="spacing" textLength="73.5" x="1049.65" y="1195.5645">announcements:</text><text fill="#000000" font-family="sans-serif" font-size="9.8" lengthAdjust="spacing" textLength="71.4" x="1050.7" y="1208.5992">Announcements</text><rect fill="#E3E3E3" height="22.8348" rx="1.75" ry="1.75" style="stroke:#181818;stroke-width:0.3499999999999999;" width="50.4" x="1174.6" y="35"/><text fill="#000000" font-family="sans-serif" font-size="9.8" lengthAdjust="spacing" textLength="40.6" x="1179.5" y="50.4752">:Property</text><rect fill="#E3E3E3" height="22.8348" rx="1.75" ry="1.75" style="stroke:#181818;stroke-width:0.3499999999999999;" width="50.4" x="1174.6" y="1180.0893"/><text fill="#000000" font-family="sans-serif" font-size="9.8" lengthAdjust="spacing" textLength="40.6" x="1179.5" y="1195.5645">:Property</text><rect fill="#FFFFFF" height="1102.6545" style="stroke:#181818;stroke-width:0.6999999999999998;" width="7" x="39.2" y="65.5348"/><rect fill="#FFFFFF" height="448.1053" style="stroke:#181818;stroke-width:0.6999999999999998;" width="7" x="282.8" y="81.8385"/><rect fill="#FFFFFF" height="21.9037" style="stroke:#181818;stroke-width:0.6999999999999998;" width="7" x="282.8" y="551.8475"/><rect fill="#FFFFFF" height="572.5344" style="stroke:#181818;stroke-width:0.6999999999999998;" width="7" x="282.8" y="595.6549"/><rect fill="#FFFFFF" height="109.5186" style="stroke:#181818;stroke-width:0.6999999999999998;" width="7" x="452.2" y="152.6807"/><rect fill="#FFFFFF" height="207.6334" style="stroke:#181818;stroke-width:0.6999999999999998;" width="7" x="452.2" y="284.1029"/><rect fill="#FFFFFF" height="220.4371" style="stroke:#181818;stroke-width:0.6999999999999998;" width="7" x="452.2" y="635.9623"/><rect fill="#FFFFFF" height="220.4371" style="stroke:#181818;stroke-width:0.6999999999999998;" width="7" x="452.2" y="889.9447"/><rect fill="#FFFFFF" height="21.9037" style="stroke:#181818;stroke-width:0.6999999999999998;" width="7" x="548.1" y="174.5844"/><rect fill="#FFFFFF" height="21.9037" style="stroke:#181818;stroke-width:0.6999999999999998;" width="7" x="746.9" y="218.3918"/><rect fill="#FFFFFF" height="153.326" style="stroke:#181818;stroke-width:0.6999999999999998;" width="7" x="746.9" y="306.0066"/><rect fill="#FFFFFF" height="176.6297" style="stroke:#181818;stroke-width:0.6999999999999998;" width="7" x="746.9" y="657.866"/><rect fill="#FFFFFF" height="176.6297" style="stroke:#181818;stroke-width:0.6999999999999998;" width="7" x="746.9" y="911.8484"/><rect fill="#FFFFFF" height="109.5186" style="stroke:#181818;stroke-width:0.6999999999999998;" width="7" x="916.3" y="327.9104"/><rect fill="#FFFFFF" height="109.5186" style="stroke:#181818;stroke-width:0.6999999999999998;" width="7" x="916.3" y="698.1734"/><rect fill="#FFFFFF" height="109.5186" style="stroke:#181818;stroke-width:0.6999999999999998;" width="7" x="916.3" y="952.1559"/><rect fill="#FFFFFF" height="65.7111" style="stroke:#181818;stroke-width:0.6999999999999998;" width="7" x="1082.9" y="349.8141"/><rect fill="#FFFFFF" height="65.7111" style="stroke:#181818;stroke-width:0.6999999999999998;" width="7" x="1082.9" y="720.0771"/><rect fill="#FFFFFF" height="65.7111" style="stroke:#181818;stroke-width:0.6999999999999998;" width="7" x="1082.9" y="974.0596"/><rect fill="#FFFFFF" height="21.9037" style="stroke:#181818;stroke-width:0.6999999999999998;" width="7" x="1196.3" y="371.7178"/><rect fill="#FFFFFF" height="21.9037" style="stroke:#181818;stroke-width:0.6999999999999998;" width="7" x="1196.3" y="741.9809"/><rect fill="#FFFFFF" height="21.9037" style="stroke:#181818;stroke-width:0.6999999999999998;" width="7" x="1196.3" y="995.9633"/><polygon fill="#181818" points="274.4,79.0385,281.4,81.8385,274.4,84.6385,277.2,81.8385" style="stroke:#181818;stroke-width:0.6999999999999998;"/><line style="stroke:#181818;stroke-width:0.6999999999999998;" x1="46.2" x2="278.6" y1="81.8385" y2="81.8385"/><text fill="#000000" font-family="sans-serif" font-size="9.1" font-weight="bold" lengthAdjust="spacing" textLength="4.9" x="51.1" y="78.1546">1</text><text fill="#000000" font-family="sans-serif" font-size="9.1" lengthAdjust="spacing" textLength="96.6" x="58.8" y="78.1546">asks to list all the deals</text><polygon fill="#181818" points="392.35,100.9422,399.35,103.7422,392.35,106.5422,395.15,103.7422" style="stroke:#181818;stroke-width:0.6999999999999998;"/><line style="stroke:#181818;stroke-width:0.6999999999999998;" x1="289.8" x2="396.55" y1="103.7422" y2="103.7422"/><text fill="#000000" font-family="sans-serif" font-size="9.1" font-weight="bold" lengthAdjust="spacing" textLength="4.9" x="294.7" y="100.0583">2</text><text fill="#000000" font-family="sans-serif" font-size="9.1" lengthAdjust="spacing" textLength="30.1" x="302.4" y="100.0583">creates</text><rect fill="#E3E3E3" height="22.8348" rx="1.75" ry="1.75" style="stroke:#181818;stroke-width:0.3499999999999999;" width="109.9" x="400.75" y="87.4385"/><text fill="#000000" font-family="sans-serif" font-size="9.8" lengthAdjust="spacing" textLength="100.1" x="405.65" y="102.9137">:ListingDealsController</text><path d="M241.85,122.8732 L292.95,122.8732 L292.95,129.377 L285.95,136.377 L241.85,136.377 L241.85,122.8732 " fill="#EEEEEE" style="stroke:#000000;stroke-width:1.0499999999999998;"/><rect fill="none" height="363.9631" style="stroke:#000000;stroke-width:1.0499999999999998;" width="990.15" x="241.85" y="122.8732"/><text fill="#000000" font-family="sans-serif" font-size="9.1" font-weight="bold" lengthAdjust="spacing" textLength="19.6" x="252.35" y="133.3931">loop</text><text fill="#000000" font-family="sans-serif" font-size="7.7" font-weight="bold" lengthAdjust="spacing" textLength="161" x="303.45" y="132.5823">[everytime the list needs to be displayed]</text><polygon fill="#181818" points="443.8,149.8807,450.8,152.6807,443.8,155.4807,446.6,152.6807" style="stroke:#181818;stroke-width:0.6999999999999998;"/><line style="stroke:#181818;stroke-width:0.6999999999999998;" x1="289.8" x2="448" y1="152.6807" y2="152.6807"/><text fill="#000000" font-family="sans-serif" font-size="9.1" font-weight="bold" lengthAdjust="spacing" textLength="4.9" x="294.7" y="148.9968">3</text><text fill="#000000" font-family="sans-serif" font-size="9.1" lengthAdjust="spacing" textLength="122.5" x="302.4" y="148.9968">getPurchaseOrdersAccepted()</text><polygon fill="#181818" points="539.7,171.7844,546.7,174.5844,539.7,177.3844,542.5,174.5844" style="stroke:#181818;stroke-width:0.6999999999999998;"/><line style="stroke:#181818;stroke-width:0.6999999999999998;" x1="459.2" x2="543.9" y1="174.5844" y2="174.5844"/><text fill="#000000" font-family="sans-serif" font-size="9.1" font-weight="bold" lengthAdjust="spacing" textLength="4.9" x="464.1" y="170.9005">4</text><text fill="#000000" font-family="sans-serif" font-size="9.1" lengthAdjust="spacing" textLength="52.5" x="471.8" y="170.9005">getInstance()</text><polygon fill="#181818" points="466.9,193.6881,459.9,196.4881,466.9,199.2881,464.1,196.4881" style="stroke:#181818;stroke-width:0.6999999999999998;"/><line style="stroke:#181818;stroke-width:0.6999999999999998;stroke-dasharray:2.0,2.0;" x1="462.7" x2="550.9" y1="196.4881" y2="196.4881"/><text fill="#000000" font-family="sans-serif" font-size="9.1" font-weight="bold" lengthAdjust="spacing" textLength="4.9" x="471.1" y="192.8042">5</text><text fill="#000000" font-family="sans-serif" font-size="9.1" lengthAdjust="spacing" textLength="46.9" x="478.8" y="192.8042">repositories</text><polygon fill="#181818" points="738.5,215.5918,745.5,218.3918,738.5,221.1918,741.3,218.3918" style="stroke:#181818;stroke-width:0.6999999999999998;"/><line style="stroke:#181818;stroke-width:0.6999999999999998;" x1="459.2" x2="742.7" y1="218.3918" y2="218.3918"/><text fill="#000000" font-family="sans-serif" font-size="9.1" font-weight="bold" lengthAdjust="spacing" textLength="4.9" x="464.1" y="214.7079">6</text><text fill="#000000" font-family="sans-serif" font-size="9.1" lengthAdjust="spacing" textLength="122.5" x="471.8" y="214.7079">getPurchaseOrdersAccepted()</text><polygon fill="#181818" points="466.9,237.4955,459.9,240.2955,466.9,243.0955,464.1,240.2955" style="stroke:#181818;stroke-width:0.6999999999999998;"/><line style="stroke:#181818;stroke-width:0.6999999999999998;stroke-dasharray:2.0,2.0;" x1="462.7" x2="749.7" y1="240.2955" y2="240.2955"/><text fill="#000000" font-family="sans-serif" font-size="9.1" font-weight="bold" lengthAdjust="spacing" textLength="4.9" x="471.1" y="236.6116">7</text><text fill="#000000" font-family="sans-serif" font-size="9.1" lengthAdjust="spacing" textLength="102.9" x="478.8" y="236.6116">purchaseOrdersAccepted</text><polygon fill="#181818" points="297.5,259.3992,290.5,262.1992,297.5,264.9992,294.7,262.1992" style="stroke:#181818;stroke-width:0.6999999999999998;"/><line style="stroke:#181818;stroke-width:0.6999999999999998;stroke-dasharray:2.0,2.0;" x1="293.3" x2="455" y1="262.1992" y2="262.1992"/><text fill="#000000" font-family="sans-serif" font-size="9.1" font-weight="bold" lengthAdjust="spacing" textLength="4.9" x="301.7" y="258.5153">8</text><text fill="#000000" font-family="sans-serif" font-size="9.1" lengthAdjust="spacing" textLength="102.9" x="309.4" y="258.5153">purchaseOrdersAccepted</text><polygon fill="#181818" points="443.8,281.3029,450.8,284.1029,443.8,286.9029,446.6,284.1029" style="stroke:#181818;stroke-width:0.6999999999999998;"/><line style="stroke:#181818;stroke-width:0.6999999999999998;" x1="289.8" x2="448" y1="284.1029" y2="284.1029"/><text fill="#000000" font-family="sans-serif" font-size="9.1" font-weight="bold" lengthAdjust="spacing" textLength="4.9" x="294.7" y="280.419">9</text><text fill="#000000" font-family="sans-serif" font-size="9.1" lengthAdjust="spacing" textLength="52.5" x="302.4" y="280.419">getProperty()</text><polygon fill="#181818" points="738.5,303.2066,745.5,306.0066,738.5,308.8066,741.3,306.0066" style="stroke:#181818;stroke-width:0.6999999999999998;"/><line style="stroke:#181818;stroke-width:0.6999999999999998;" x1="459.2" x2="742.7" y1="306.0066" y2="306.0066"/><text fill="#000000" font-family="sans-serif" font-size="9.1" font-weight="bold" lengthAdjust="spacing" textLength="9.8" x="464.1" y="302.3228">10</text><text fill="#000000" font-family="sans-serif" font-size="9.1" lengthAdjust="spacing" textLength="133.7" x="476.7" y="302.3228">getAnnouncement(annoucement)</text><polygon fill="#181818" points="907.9,325.1104,914.9,327.9104,907.9,330.7104,910.7,327.9104" style="stroke:#181818;stroke-width:0.6999999999999998;"/><line style="stroke:#181818;stroke-width:0.6999999999999998;" x1="753.9" x2="912.1" y1="327.9104" y2="327.9104"/><text fill="#000000" font-family="sans-serif" font-size="9.1" font-weight="bold" lengthAdjust="spacing" textLength="9.8" x="758.8" y="324.2265">11</text><text fill="#000000" font-family="sans-serif" font-size="9.1" lengthAdjust="spacing" textLength="136.5" x="771.4" y="324.2265">getAnnouncement(annoucement))</text><polygon fill="#181818" points="1074.5,347.0141,1081.5,349.8141,1074.5,352.6141,1077.3,349.8141" style="stroke:#181818;stroke-width:0.6999999999999998;"/><line style="stroke:#181818;stroke-width:0.6999999999999998;" x1="923.3" x2="1078.7" y1="349.8141" y2="349.8141"/><text fill="#000000" font-family="sans-serif" font-size="9.1" font-weight="bold" lengthAdjust="spacing" textLength="9.8" x="928.2" y="346.1302">12</text><text fill="#000000" font-family="sans-serif" font-size="9.1" lengthAdjust="spacing" textLength="133.7" x="940.8" y="346.1302">getAnnouncement(annoucement)</text><polygon fill="#181818" points="1187.9,368.9178,1194.9,371.7178,1187.9,374.5178,1190.7,371.7178" style="stroke:#181818;stroke-width:0.6999999999999998;"/><line style="stroke:#181818;stroke-width:0.6999999999999998;" x1="1089.9" x2="1192.1" y1="371.7178" y2="371.7178"/><text fill="#000000" font-family="sans-serif" font-size="9.1" font-weight="bold" lengthAdjust="spacing" textLength="9.8" x="1094.8" y="368.0339">13</text><text fill="#000000" font-family="sans-serif" font-size="9.1" lengthAdjust="spacing" textLength="52.5" x="1107.4" y="368.0339">getProperty()</text><polygon fill="#181818" points="1097.6,390.8215,1090.6,393.6215,1097.6,396.4215,1094.8,393.6215" style="stroke:#181818;stroke-width:0.6999999999999998;"/><line style="stroke:#181818;stroke-width:0.6999999999999998;stroke-dasharray:2.0,2.0;" x1="1093.4" x2="1199.1" y1="393.6215" y2="393.6215"/><text fill="#000000" font-family="sans-serif" font-size="9.1" font-weight="bold" lengthAdjust="spacing" textLength="9.8" x="1101.8" y="389.9376">14</text><text fill="#000000" font-family="sans-serif" font-size="9.1" lengthAdjust="spacing" textLength="32.9" x="1114.4" y="389.9376">property</text><polygon fill="#181818" points="931,412.7252,924,415.5252,931,418.3252,928.2,415.5252" style="stroke:#181818;stroke-width:0.6999999999999998;"/><line style="stroke:#181818;stroke-width:0.6999999999999998;stroke-dasharray:2.0,2.0;" x1="926.8" x2="1085.7" y1="415.5252" y2="415.5252"/><text fill="#000000" font-family="sans-serif" font-size="9.1" font-weight="bold" lengthAdjust="spacing" textLength="9.8" x="935.2" y="411.8413">15</text><text fill="#000000" font-family="sans-serif" font-size="9.1" lengthAdjust="spacing" textLength="32.9" x="947.8" y="411.8413">property</text><polygon fill="#181818" points="761.6,434.6289,754.6,437.4289,761.6,440.2289,758.8,437.4289" style="stroke:#181818;stroke-width:0.6999999999999998;"/><line style="stroke:#181818;stroke-width:0.6999999999999998;stroke-dasharray:2.0,2.0;" x1="757.4" x2="919.1" y1="437.4289" y2="437.4289"/><text fill="#000000" font-family="sans-serif" font-size="9.1" font-weight="bold" lengthAdjust="spacing" textLength="9.8" x="765.8" y="433.745">16</text><text fill="#000000" font-family="sans-serif" font-size="9.1" lengthAdjust="spacing" textLength="32.9" x="778.4" y="433.745">property</text><polygon fill="#181818" points="466.9,456.5326,459.9,459.3326,466.9,462.1326,464.1,459.3326" style="stroke:#181818;stroke-width:0.6999999999999998;"/><line style="stroke:#181818;stroke-width:0.6999999999999998;stroke-dasharray:2.0,2.0;" x1="462.7" x2="749.7" y1="459.3326" y2="459.3326"/><text fill="#000000" font-family="sans-serif" font-size="9.1" font-weight="bold" lengthAdjust="spacing" textLength="9.8" x="471.1" y="455.6487">17</text><text fill="#000000" font-family="sans-serif" font-size="9.1" lengthAdjust="spacing" textLength="32.9" x="483.7" y="455.6487">property</text><polygon fill="#181818" points="297.5,478.4363,290.5,481.2363,297.5,484.0363,294.7,481.2363" style="stroke:#181818;stroke-width:0.6999999999999998;"/><line style="stroke:#181818;stroke-width:0.6999999999999998;stroke-dasharray:2.0,2.0;" x1="293.3" x2="451.5" y1="481.2363" y2="481.2363"/><text fill="#000000" font-family="sans-serif" font-size="9.1" font-weight="bold" lengthAdjust="spacing" textLength="9.8" x="301.7" y="477.5524">18</text><text fill="#000000" font-family="sans-serif" font-size="9.1" lengthAdjust="spacing" textLength="32.9" x="314.3" y="477.5524">property</text><polygon fill="#181818" points="53.9,505.24,46.9,508.04,53.9,510.84,51.1,508.04" style="stroke:#181818;stroke-width:0.6999999999999998;"/><line style="stroke:#181818;stroke-width:0.6999999999999998;stroke-dasharray:2.0,2.0;" x1="49.7" x2="282.1" y1="508.04" y2="508.04"/><text fill="#000000" font-family="sans-serif" font-size="9.1" font-weight="bold" lengthAdjust="spacing" textLength="9.8" x="58.1" y="504.3562">19</text><text fill="#000000" font-family="sans-serif" font-size="9.1" lengthAdjust="spacing" textLength="56" x="70.7" y="504.3562">shows the list</text><polygon fill="#181818" points="53.9,527.1437,46.9,529.9437,53.9,532.7437,51.1,529.9437" style="stroke:#181818;stroke-width:0.6999999999999998;"/><line style="stroke:#181818;stroke-width:0.6999999999999998;stroke-dasharray:2.0,2.0;" x1="49.7" x2="285.6" y1="529.9437" y2="529.9437"/><text fill="#000000" font-family="sans-serif" font-size="9.1" font-weight="bold" lengthAdjust="spacing" textLength="9.8" x="58.1" y="526.2599">20</text><text fill="#000000" font-family="sans-serif" font-size="9.1" lengthAdjust="spacing" textLength="158.2" x="70.7" y="526.2599">requests to select the sorting algorithm</text><polygon fill="#181818" points="274.4,549.0475,281.4,551.8475,274.4,554.6475,277.2,551.8475" style="stroke:#181818;stroke-width:0.6999999999999998;"/><line style="stroke:#181818;stroke-width:0.6999999999999998;" x1="46.2" x2="278.6" y1="551.8475" y2="551.8475"/><text fill="#000000" font-family="sans-serif" font-size="9.1" font-weight="bold" lengthAdjust="spacing" textLength="9.8" x="51.1" y="548.1636">21</text><text fill="#000000" font-family="sans-serif" font-size="9.1" lengthAdjust="spacing" textLength="121.8" x="63.7" y="548.1636">selects the intended algorithm</text><polygon fill="#181818" points="53.9,570.9512,46.9,573.7512,53.9,576.5512,51.1,573.7512" style="stroke:#181818;stroke-width:0.6999999999999998;"/><line style="stroke:#181818;stroke-width:0.6999999999999998;stroke-dasharray:2.0,2.0;" x1="49.7" x2="285.6" y1="573.7512" y2="573.7512"/><text fill="#000000" font-family="sans-serif" font-size="9.1" font-weight="bold" lengthAdjust="spacing" textLength="9.8" x="58.1" y="570.0673">22</text><text fill="#000000" font-family="sans-serif" font-size="9.1" lengthAdjust="spacing" textLength="200.9" x="70.7" y="570.0673">requests sorting direction (ascending/descending)</text><polygon fill="#181818" points="274.4,592.8549,281.4,595.6549,274.4,598.4549,277.2,595.6549" style="stroke:#181818;stroke-width:0.6999999999999998;"/><line style="stroke:#181818;stroke-width:0.6999999999999998;" x1="46.2" x2="278.6" y1="595.6549" y2="595.6549"/><text fill="#000000" font-family="sans-serif" font-size="9.1" font-weight="bold" lengthAdjust="spacing" textLength="9.8" x="51.1" y="591.971">23</text><text fill="#000000" font-family="sans-serif" font-size="9.1" lengthAdjust="spacing" textLength="210.7" x="63.7" y="591.971">selects the sorting direction (ascending/descending)</text><path d="M241.85,606.1549 L284.55,606.1549 L284.55,612.6586 L277.55,619.6586 L241.85,619.6586 L241.85,606.1549 " fill="#EEEEEE" style="stroke:#000000;stroke-width:1.0499999999999998;"/><rect fill="none" height="509.827" style="stroke:#000000;stroke-width:1.0499999999999998;" width="997.15" x="241.85" y="606.1549"/><text fill="#000000" font-family="sans-serif" font-size="9.1" font-weight="bold" lengthAdjust="spacing" textLength="11.2" x="252.35" y="616.6747">alt</text><text fill="#000000" font-family="sans-serif" font-size="7.7" font-weight="bold" lengthAdjust="spacing" textLength="97.3" x="295.05" y="615.864">[if selectedAlgorithm==1]</text><polygon fill="#181818" points="443.8,633.1623,450.8,635.9623,443.8,638.7623,446.6,635.9623" style="stroke:#181818;stroke-width:0.6999999999999998;"/><line style="stroke:#181818;stroke-width:0.6999999999999998;" x1="289.8" x2="448" y1="635.9623" y2="635.9623"/><text fill="#000000" font-family="sans-serif" font-size="9.1" font-weight="bold" lengthAdjust="spacing" textLength="9.8" x="294.7" y="632.2784">24</text><text fill="#000000" font-family="sans-serif" font-size="9.1" lengthAdjust="spacing" textLength="126.7" x="307.3" y="632.2784">sortListBubble(sortingDirection)</text><polygon fill="#181818" points="738.5,655.066,745.5,657.866,738.5,660.666,741.3,657.866" style="stroke:#181818;stroke-width:0.6999999999999998;"/><line style="stroke:#181818;stroke-width:0.6999999999999998;" x1="459.2" x2="742.7" y1="657.866" y2="657.866"/><text fill="#000000" font-family="sans-serif" font-size="9.1" font-weight="bold" lengthAdjust="spacing" textLength="9.8" x="464.1" y="654.1821">25</text><text fill="#000000" font-family="sans-serif" font-size="9.1" lengthAdjust="spacing" textLength="149.8" x="476.7" y="654.1821">sortDealsListBubble(sortingDirection)</text><path d="M660.45,668.366 L711.55,668.366 L711.55,674.8697 L704.55,681.8697 L660.45,681.8697 L660.45,668.366 " fill="#EEEEEE" style="stroke:#000000;stroke-width:1.0499999999999998;"/><rect fill="none" height="144.926" style="stroke:#000000;stroke-width:1.0499999999999998;" width="571.55" x="660.45" y="668.366"/><text fill="#000000" font-family="sans-serif" font-size="9.1" font-weight="bold" lengthAdjust="spacing" textLength="19.6" x="670.95" y="678.8858">loop</text><text fill="#000000" font-family="sans-serif" font-size="7.7" font-weight="bold" lengthAdjust="spacing" textLength="154.7" x="722.05" y="678.0751">[for every purchaseOrder while sorting]</text><polygon fill="#181818" points="907.9,695.3734,914.9,698.1734,907.9,700.9734,910.7,698.1734" style="stroke:#181818;stroke-width:0.6999999999999998;"/><line style="stroke:#181818;stroke-width:0.6999999999999998;stroke-dasharray:2.0,2.0;" x1="753.9" x2="912.1" y1="698.1734" y2="698.1734"/><text fill="#000000" font-family="sans-serif" font-size="9.1" font-weight="bold" lengthAdjust="spacing" textLength="9.8" x="758.8" y="694.4896">26</text><text fill="#000000" font-family="sans-serif" font-size="9.1" lengthAdjust="spacing" textLength="80.5" x="771.4" y="694.4896">getAreaOfProperty()</text><polygon fill="#181818" points="1074.5,717.2771,1081.5,720.0771,1074.5,722.8771,1077.3,720.0771" style="stroke:#181818;stroke-width:0.6999999999999998;"/><line style="stroke:#181818;stroke-width:0.6999999999999998;" x1="923.3" x2="1078.7" y1="720.0771" y2="720.0771"/><text fill="#000000" font-family="sans-serif" font-size="9.1" font-weight="bold" lengthAdjust="spacing" textLength="9.8" x="928.2" y="716.3933">27</text><text fill="#000000" font-family="sans-serif" font-size="9.1" lengthAdjust="spacing" textLength="133.7" x="940.8" y="716.3933">getAnnouncement(annoucement)</text><polygon fill="#181818" points="1187.9,739.1809,1194.9,741.9809,1187.9,744.7809,1190.7,741.9809" style="stroke:#181818;stroke-width:0.6999999999999998;"/><line style="stroke:#181818;stroke-width:0.6999999999999998;" x1="1089.9" x2="1192.1" y1="741.9809" y2="741.9809"/><text fill="#000000" font-family="sans-serif" font-size="9.1" font-weight="bold" lengthAdjust="spacing" textLength="9.8" x="1094.8" y="738.297">28</text><text fill="#000000" font-family="sans-serif" font-size="9.1" lengthAdjust="spacing" textLength="80.5" x="1107.4" y="738.297">getAreaOfProperty()</text><polygon fill="#181818" points="1097.6,761.0846,1090.6,763.8846,1097.6,766.6846,1094.8,763.8846" style="stroke:#181818;stroke-width:0.6999999999999998;"/><line style="stroke:#181818;stroke-width:0.6999999999999998;stroke-dasharray:2.0,2.0;" x1="1093.4" x2="1199.1" y1="763.8846" y2="763.8846"/><text fill="#000000" font-family="sans-serif" font-size="9.1" font-weight="bold" lengthAdjust="spacing" textLength="9.8" x="1101.8" y="760.2007">29</text><text fill="#000000" font-family="sans-serif" font-size="9.1" lengthAdjust="spacing" textLength="60.9" x="1114.4" y="760.2007">areaOfProperty</text><polygon fill="#181818" points="931,782.9883,924,785.7883,931,788.5883,928.2,785.7883" style="stroke:#181818;stroke-width:0.6999999999999998;"/><line style="stroke:#181818;stroke-width:0.6999999999999998;stroke-dasharray:2.0,2.0;" x1="926.8" x2="1085.7" y1="785.7883" y2="785.7883"/><text fill="#000000" font-family="sans-serif" font-size="9.1" font-weight="bold" lengthAdjust="spacing" textLength="9.8" x="935.2" y="782.1044">30</text><text fill="#000000" font-family="sans-serif" font-size="9.1" lengthAdjust="spacing" textLength="60.9" x="947.8" y="782.1044">areaOfProperty</text><polygon fill="#181818" points="761.6,804.892,754.6,807.692,761.6,810.492,758.8,807.692" style="stroke:#181818;stroke-width:0.6999999999999998;"/><line style="stroke:#181818;stroke-width:0.6999999999999998;stroke-dasharray:2.0,2.0;" x1="757.4" x2="919.1" y1="807.692" y2="807.692"/><text fill="#000000" font-family="sans-serif" font-size="9.1" font-weight="bold" lengthAdjust="spacing" textLength="9.8" x="765.8" y="804.0081">31</text><text fill="#000000" font-family="sans-serif" font-size="9.1" lengthAdjust="spacing" textLength="60.9" x="778.4" y="804.0081">areaOfProperty</text><polygon fill="#181818" points="466.9,831.6957,459.9,834.4957,466.9,837.2957,464.1,834.4957" style="stroke:#181818;stroke-width:0.6999999999999998;"/><line style="stroke:#181818;stroke-width:0.6999999999999998;stroke-dasharray:2.0,2.0;" x1="462.7" x2="749.7" y1="834.4957" y2="834.4957"/><text fill="#000000" font-family="sans-serif" font-size="9.1" font-weight="bold" lengthAdjust="spacing" textLength="9.8" x="471.1" y="830.8118">32</text><text fill="#000000" font-family="sans-serif" font-size="9.1" lengthAdjust="spacing" textLength="81.2" x="483.7" y="830.8118">sortDealsListBubble</text><polygon fill="#181818" points="297.5,853.5994,290.5,856.3994,297.5,859.1994,294.7,856.3994" style="stroke:#181818;stroke-width:0.6999999999999998;"/><line style="stroke:#181818;stroke-width:0.6999999999999998;stroke-dasharray:2.0,2.0;" x1="293.3" x2="455" y1="856.3994" y2="856.3994"/><text fill="#000000" font-family="sans-serif" font-size="9.1" font-weight="bold" lengthAdjust="spacing" textLength="9.8" x="301.7" y="852.7155">33</text><text fill="#000000" font-family="sans-serif" font-size="9.1" lengthAdjust="spacing" textLength="58.1" x="314.3" y="852.7155">sortListBubble</text><line style="stroke:#000000;stroke-width:0.6999999999999998;stroke-dasharray:2.0,2.0;" x1="241.85" x2="1239" y1="862.6994" y2="862.6994"/><text fill="#000000" font-family="sans-serif" font-size="7.7" font-weight="bold" lengthAdjust="spacing" textLength="97.3" x="245.35" y="871.0085">[if selectedAlgorithm==2]</text><polygon fill="#181818" points="443.8,887.1447,450.8,889.9447,443.8,892.7447,446.6,889.9447" style="stroke:#181818;stroke-width:0.6999999999999998;"/><line style="stroke:#181818;stroke-width:0.6999999999999998;" x1="289.8" x2="448" y1="889.9447" y2="889.9447"/><text fill="#000000" font-family="sans-serif" font-size="9.1" font-weight="bold" lengthAdjust="spacing" textLength="9.8" x="294.7" y="886.2608">34</text><text fill="#000000" font-family="sans-serif" font-size="9.1" lengthAdjust="spacing" textLength="136.5" x="307.3" y="886.2608">sortListSelection(sortingDirection)</text><polygon fill="#181818" points="738.5,909.0484,745.5,911.8484,738.5,914.6484,741.3,911.8484" style="stroke:#181818;stroke-width:0.6999999999999998;"/><line style="stroke:#181818;stroke-width:0.6999999999999998;" x1="459.2" x2="742.7" y1="911.8484" y2="911.8484"/><text fill="#000000" font-family="sans-serif" font-size="9.1" font-weight="bold" lengthAdjust="spacing" textLength="9.8" x="464.1" y="908.1646">35</text><text fill="#000000" font-family="sans-serif" font-size="9.1" lengthAdjust="spacing" textLength="159.6" x="476.7" y="908.1646">sortDealsListSelection(sortingDirection)</text><path d="M660.45,922.3484 L711.55,922.3484 L711.55,928.8521 L704.55,935.8521 L660.45,935.8521 L660.45,922.3484 " fill="#EEEEEE" style="stroke:#000000;stroke-width:1.0499999999999998;"/><rect fill="none" height="144.926" style="stroke:#000000;stroke-width:1.0499999999999998;" width="571.55" x="660.45" y="922.3484"/><text fill="#000000" font-family="sans-serif" font-size="9.1" font-weight="bold" lengthAdjust="spacing" textLength="19.6" x="670.95" y="932.8683">loop</text><text fill="#000000" font-family="sans-serif" font-size="7.7" font-weight="bold" lengthAdjust="spacing" textLength="154.7" x="722.05" y="932.0575">[for every purchaseOrder while sorting]</text><polygon fill="#181818" points="907.9,949.3559,914.9,952.1559,907.9,954.9559,910.7,952.1559" style="stroke:#181818;stroke-width:0.6999999999999998;"/><line style="stroke:#181818;stroke-width:0.6999999999999998;stroke-dasharray:2.0,2.0;" x1="753.9" x2="912.1" y1="952.1559" y2="952.1559"/><text fill="#000000" font-family="sans-serif" font-size="9.1" font-weight="bold" lengthAdjust="spacing" textLength="9.8" x="758.8" y="948.472">36</text><text fill="#000000" font-family="sans-serif" font-size="9.1" lengthAdjust="spacing" textLength="80.5" x="771.4" y="948.472">getAreaOfProperty()</text><polygon fill="#181818" points="1074.5,971.2596,1081.5,974.0596,1074.5,976.8596,1077.3,974.0596" style="stroke:#181818;stroke-width:0.6999999999999998;"/><line style="stroke:#181818;stroke-width:0.6999999999999998;" x1="923.3" x2="1078.7" y1="974.0596" y2="974.0596"/><text fill="#000000" font-family="sans-serif" font-size="9.1" font-weight="bold" lengthAdjust="spacing" textLength="9.8" x="928.2" y="970.3757">37</text><text fill="#000000" font-family="sans-serif" font-size="9.1" lengthAdjust="spacing" textLength="133.7" x="940.8" y="970.3757">getAnnouncement(annoucement)</text><polygon fill="#181818" points="1187.9,993.1633,1194.9,995.9633,1187.9,998.7633,1190.7,995.9633" style="stroke:#181818;stroke-width:0.6999999999999998;"/><line style="stroke:#181818;stroke-width:0.6999999999999998;" x1="1089.9" x2="1192.1" y1="995.9633" y2="995.9633"/><text fill="#000000" font-family="sans-serif" font-size="9.1" font-weight="bold" lengthAdjust="spacing" textLength="9.8" x="1094.8" y="992.2794">38</text><text fill="#000000" font-family="sans-serif" font-size="9.1" lengthAdjust="spacing" textLength="80.5" x="1107.4" y="992.2794">getAreaOfProperty()</text><polygon fill="#181818" points="1097.6,1015.067,1090.6,1017.867,1097.6,1020.667,1094.8,1017.867" style="stroke:#181818;stroke-width:0.6999999999999998;"/><line style="stroke:#181818;stroke-width:0.6999999999999998;stroke-dasharray:2.0,2.0;" x1="1093.4" x2="1199.1" y1="1017.867" y2="1017.867"/><text fill="#000000" font-family="sans-serif" font-size="9.1" font-weight="bold" lengthAdjust="spacing" textLength="9.8" x="1101.8" y="1014.1831">39</text><text fill="#000000" font-family="sans-serif" font-size="9.1" lengthAdjust="spacing" textLength="60.9" x="1114.4" y="1014.1831">areaOfProperty</text><polygon fill="#181818" points="931,1036.9707,924,1039.7707,931,1042.5707,928.2,1039.7707" style="stroke:#181818;stroke-width:0.6999999999999998;"/><line style="stroke:#181818;stroke-width:0.6999999999999998;stroke-dasharray:2.0,2.0;" x1="926.8" x2="1085.7" y1="1039.7707" y2="1039.7707"/><text fill="#000000" font-family="sans-serif" font-size="9.1" font-weight="bold" lengthAdjust="spacing" textLength="9.8" x="935.2" y="1036.0868">40</text><text fill="#000000" font-family="sans-serif" font-size="9.1" lengthAdjust="spacing" textLength="60.9" x="947.8" y="1036.0868">areaOfProperty</text><polygon fill="#181818" points="761.6,1058.8744,754.6,1061.6744,761.6,1064.4744,758.8,1061.6744" style="stroke:#181818;stroke-width:0.6999999999999998;"/><line style="stroke:#181818;stroke-width:0.6999999999999998;stroke-dasharray:2.0,2.0;" x1="757.4" x2="919.1" y1="1061.6744" y2="1061.6744"/><text fill="#000000" font-family="sans-serif" font-size="9.1" font-weight="bold" lengthAdjust="spacing" textLength="9.8" x="765.8" y="1057.9905">41</text><text fill="#000000" font-family="sans-serif" font-size="9.1" lengthAdjust="spacing" textLength="60.9" x="778.4" y="1057.9905">areaOfProperty</text><polygon fill="#181818" points="466.9,1085.6781,459.9,1088.4781,466.9,1091.2781,464.1,1088.4781" style="stroke:#181818;stroke-width:0.6999999999999998;"/><line style="stroke:#181818;stroke-width:0.6999999999999998;stroke-dasharray:2.0,2.0;" x1="462.7" x2="749.7" y1="1088.4781" y2="1088.4781"/><text fill="#000000" font-family="sans-serif" font-size="9.1" font-weight="bold" lengthAdjust="spacing" textLength="9.8" x="471.1" y="1084.7942">42</text><text fill="#000000" font-family="sans-serif" font-size="9.1" lengthAdjust="spacing" textLength="91" x="483.7" y="1084.7942">sortDealsListSelection</text><polygon fill="#181818" points="297.5,1107.5818,290.5,1110.3818,297.5,1113.1818,294.7,1110.3818" style="stroke:#181818;stroke-width:0.6999999999999998;"/><line style="stroke:#181818;stroke-width:0.6999999999999998;stroke-dasharray:2.0,2.0;" x1="293.3" x2="455" y1="1110.3818" y2="1110.3818"/><text fill="#000000" font-family="sans-serif" font-size="9.1" font-weight="bold" lengthAdjust="spacing" textLength="9.8" x="301.7" y="1106.6979">43</text><text fill="#000000" font-family="sans-serif" font-size="9.1" lengthAdjust="spacing" textLength="67.9" x="314.3" y="1106.6979">sortListSelection</text><line style="stroke:#181818;stroke-width:0.6999999999999998;" x1="289.8" x2="319.2" y1="1137.1855" y2="1137.1855"/><line style="stroke:#181818;stroke-width:0.6999999999999998;" x1="319.2" x2="319.2" y1="1137.1855" y2="1146.2855"/><line style="stroke:#181818;stroke-width:0.6999999999999998;" x1="290.5" x2="319.2" y1="1146.2855" y2="1146.2855"/><polygon fill="#181818" points="297.5,1143.4855,290.5,1146.2855,297.5,1149.0855,294.7,1146.2855" style="stroke:#181818;stroke-width:0.6999999999999998;"/><text fill="#000000" font-family="sans-serif" font-size="9.1" font-weight="bold" lengthAdjust="spacing" textLength="9.8" x="294.7" y="1133.5017">44</text><text fill="#000000" font-family="sans-serif" font-size="9.1" lengthAdjust="spacing" textLength="43.4" x="307.3" y="1133.5017">displayList</text><text fill="#000000" font-family="sans-serif" font-size="9.1" font-weight="bold" lengthAdjust="spacing" textLength="19.6" x="353.5" y="1133.5017">loop</text><polygon fill="#181818" points="50.4,1165.3893,43.4,1168.1893,50.4,1170.9893,47.6,1168.1893" style="stroke:#181818;stroke-width:0.6999999999999998;"/><line style="stroke:#181818;stroke-width:0.6999999999999998;stroke-dasharray:2.0,2.0;" x1="46.2" x2="285.6" y1="1168.1893" y2="1168.1893"/><text fill="#000000" font-family="sans-serif" font-size="9.1" font-weight="bold" lengthAdjust="spacing" textLength="9.8" x="54.6" y="1164.5054">45</text><text fill="#000000" font-family="sans-serif" font-size="9.1" lengthAdjust="spacing" textLength="151.9" x="67.2" y="1164.5054">shows the list sorted by the algorithm</text><!--SRC=[xLZ9Rjim4BthAuXSwXW8YlPe80MoN0AqJT4WjrneQMmHfacLfEBwxpka5fFQxJez5D59oynxCnpopTXwmqH65TsIhHGoJfNS0Z4gXqZNNp8QR-WQdioU0r4G6ohMt3VGAKtaZearML6k8OfeRgJ8jqjGKVGXPGcGbPHcANz7D3PIaOllO7PIRRvHWS3gWb1DxZW3OI94D2nc6HM6N2o-CcqGznuGz_d1sJq_3DZSIM6KvBp2h1yRFZyXavfXA0oqi_HVXBRA-_8YsfwgrpFBLPnI3Oyg0NKJnv0PI6h_FOBzy2qENnnkpxT68e5Lso-qfaB8NCImnONMYnTnupyxv-1Daqh939GfeoiVeiYMbBrI0rK58u9NSK-klc2zo08zDfeOIJZMYb3EYKc19BPYphg6mEAIya8_z3vKS3v7d5W1ckdQY4kP4NW5jJVCRbn4THG28764IwHXEkDq3qalD0AlmGGBfwjwpIvhjqEYXsr5lCi3H7X_enG43qBZqOd1WmnWWpr86bS0TzKCN_MvuXftmWy4thFn9YvIa57V7cucrqVPoZFhfE_BU0gzdtkrMqTOF0Pl9upjhlB0dBoV1ilYdzkPE-R5_LlLfH7EI12NBU3kI5fchHWiSw1HnwJV8W_LZlHS8PzDlInbRs7xiwrKamnSDVnLHxBP68A__STi6vbrL7MGpgCQNyb66GStTCLg_QAX10StptHHwKho73BIXGiYSLrhH4ryCR7n5krqWQEMtEcwp_MQAVYLWpQk1MhWEBCv7osL7PMm0w-n3PXq6pKYmFxRrRuBY8AN2OCvGD80wMlXdL5LSIJCZfDC2ZAZEaPOVFanWUhsyeJmZeBk2ffoGzYgn8Jafiho-lhJaCHRNZk9tkRB9OTP6SPz5SNvLTyok9bt4kj9yk-cgnNEwsx22jiYsQMCryjzrE7hQXqurpsk1gJqFseOexc-GTkW0UTVDu_nnZ61S7BxEAPrZF1ERXujcJwwgtISptCtc51pfiwdW3_HUnJkynI5Ut9-g2x_MkIc4ByBtRlGdL7etiNk1B6hpsb4taZmsWp3KxHD4EUwXhevoFBV8OjAvdEx2lFvnEdRXOE3y7BlNWqErNvynTzaVm00]--></g></svg>