<?xml version="1.0" encoding="us-ascii" standalone="no"?><svg xmlns="http://www.w3.org/2000/svg" xmlns:xlink="http://www.w3.org/1999/xlink" contentStyleType="text/css" height="479.57px" preserveAspectRatio="none" style="width:871px;height:479px;background:#FFFFFF;" version="1.1" viewBox="0 0 871 479" width="871.1px" zoomAndPan="magnify"><defs/><g><!--class SendEmail--><g id="elem_SendEmail"><rect codeLine="11" fill="#F1F1F1" height="24.5772" id="SendEmail" rx="0.775" ry="0.775" style="stroke:#181818;stroke-width:0.155;" width="71.61" x="598.3" y="201.2086"/><ellipse cx="622.4025" cy="206.1686" fill="#ADD1B2" rx="3.41" ry="3.41" style="stroke:#181818;stroke-width:0.31;"/><path d="M623.2598,204.8899 Q623.3083,204.822 623.3664,204.7881 Q623.4245,204.7542 623.4923,204.7542 Q623.6086,204.7542 623.6813,204.8366 Q623.7539,204.9141 623.7539,205.103 L623.7539,205.5534 Q623.7539,205.7424 623.6813,205.8247 Q623.6086,205.907 623.4923,205.907 Q623.3858,205.907 623.3228,205.8441 Q623.2598,205.7859 623.2259,205.6261 Q623.2114,205.5147 623.1533,205.4566 Q623.0516,205.3403 622.8627,205.2725 Q622.6738,205.2047 622.48,205.2047 Q622.2427,205.2047 622.0441,205.3064 Q621.8503,205.4081 621.6953,205.6406 Q621.5452,205.8731 621.5452,206.1928 L621.5452,206.5319 Q621.5452,206.9145 621.8213,207.1713 Q622.0973,207.4231 622.5914,207.4231 Q622.882,207.4231 623.0855,207.3456 Q623.2066,207.2972 623.3373,207.1616 Q623.4197,207.0792 623.4633,207.055 Q623.5117,207.0308 623.5747,207.0308 Q623.6764,207.0308 623.7539,207.1131 Q623.8363,207.1906 623.8363,207.2972 Q623.8363,207.4038 623.7297,207.5297 Q623.5747,207.7089 623.3277,207.8106 Q622.9934,207.9511 622.5914,207.9511 Q622.1216,207.9511 621.7486,207.7573 Q621.4434,207.6023 621.2303,207.273 Q621.0172,206.9388 621.0172,206.5416 L621.0172,206.1831 Q621.0172,205.7714 621.2061,205.4178 Q621.3998,205.0594 621.7389,204.8705 Q622.078,204.6767 622.4606,204.6767 Q622.6883,204.6767 622.8869,204.73 Q623.0903,204.7784 623.2598,204.8899 Z " fill="#000000"/><text fill="#000000" font-family="sans-serif" font-size="4.34" lengthAdjust="spacing" textLength="20.77" x="628.7575" y="207.6732">SendEmail</text><line style="stroke:#181818;stroke-width:0.155;" x1="598.61" x2="669.6" y1="211.1286" y2="211.1286"/><text fill="#000000" font-family="sans-serif" font-size="4.34" lengthAdjust="spacing" textLength="30.07" x="600.16" y="216.2975">-filePath: String</text><line style="stroke:#181818;stroke-width:0.155;" x1="598.61" x2="669.6" y1="218.4572" y2="218.4572"/><text fill="#000000" font-family="sans-serif" font-size="4.34" lengthAdjust="spacing" textLength="67.89" x="600.16" y="223.6261">+sendEmail(message: String): void</text></g><!--class ApprovePropertyUI--><g id="elem_ApprovePropertyUI"><rect codeLine="110" fill="#F1F1F1" height="43.9716" id="ApprovePropertyUI" rx="0.775" ry="0.775" style="stroke:#181818;stroke-width:0.155;" width="93.31" x="466.24" y="31.7936"/><ellipse cx="493.1325" cy="36.7536" fill="#ADD1B2" rx="3.41" ry="3.41" style="stroke:#181818;stroke-width:0.31;"/><path d="M493.9898,35.4748 Q494.0383,35.407 494.0964,35.3731 Q494.1545,35.3392 494.2223,35.3392 Q494.3386,35.3392 494.4113,35.4216 Q494.4839,35.4991 494.4839,35.688 L494.4839,36.1384 Q494.4839,36.3273 494.4113,36.4097 Q494.3386,36.492 494.2223,36.492 Q494.1158,36.492 494.0528,36.4291 Q493.9898,36.3709 493.9559,36.2111 Q493.9414,36.0997 493.8833,36.0416 Q493.7816,35.9253 493.5927,35.8575 Q493.4038,35.7897 493.21,35.7897 Q492.9727,35.7897 492.7741,35.8914 Q492.5803,35.9931 492.4253,36.2256 Q492.2752,36.4581 492.2752,36.7778 L492.2752,37.1169 Q492.2752,37.4995 492.5513,37.7563 Q492.8273,38.0081 493.3214,38.0081 Q493.612,38.0081 493.8155,37.9306 Q493.9366,37.8822 494.0673,37.7466 Q494.1497,37.6642 494.1933,37.64 Q494.2417,37.6158 494.3047,37.6158 Q494.4064,37.6158 494.4839,37.6981 Q494.5662,37.7756 494.5662,37.8822 Q494.5662,37.9888 494.4597,38.1147 Q494.3047,38.2939 494.0577,38.3956 Q493.7234,38.5361 493.3214,38.5361 Q492.8516,38.5361 492.4786,38.3423 Q492.1734,38.1873 491.9603,37.858 Q491.7472,37.5238 491.7472,37.1266 L491.7472,36.7681 Q491.7472,36.3564 491.9361,36.0028 Q492.1298,35.6444 492.4689,35.4555 Q492.808,35.2617 493.1906,35.2617 Q493.4183,35.2617 493.6169,35.315 Q493.8203,35.3634 493.9898,35.4748 Z " fill="#000000"/><text fill="#000000" font-family="sans-serif" font-size="4.34" lengthAdjust="spacing" textLength="36.89" x="499.4875" y="38.2582">ApprovePropertyUI</text><line style="stroke:#181818;stroke-width:0.155;" x1="466.55" x2="559.24" y1="41.7136" y2="41.7136"/><text fill="#000000" font-family="sans-serif" font-size="4.34" lengthAdjust="spacing" textLength="29.45" x="468.1" y="46.8825">-read: Scanner</text><text fill="#000000" font-family="sans-serif" font-size="4.34" lengthAdjust="spacing" textLength="49.6" x="468.1" y="51.7311">-requests: List&lt;Property&gt;</text><text fill="#000000" font-family="sans-serif" font-size="4.34" lengthAdjust="spacing" textLength="74.71" x="468.1" y="56.5797">-controller: ApprovePropertyController</text><line style="stroke:#181818;stroke-width:0.155;" x1="466.55" x2="559.24" y1="58.7394" y2="58.7394"/><text fill="#000000" font-family="sans-serif" font-size="4.34" lengthAdjust="spacing" textLength="22.63" x="468.1" y="63.9083">+run(): void</text><text fill="#000000" font-family="sans-serif" font-size="4.34" lengthAdjust="spacing" textLength="89.59" x="468.1" y="68.7569">+displayRequestsList(displayList: String): void</text><text fill="#000000" font-family="sans-serif" font-size="4.34" lengthAdjust="spacing" textLength="56.11" x="468.1" y="73.6055">-requestJustification(): String</text></g><!--class Controller--><g id="elem_Controller"><rect codeLine="28" fill="#F1F1F1" height="58.5173" id="Controller" rx="0.775" ry="0.775" style="stroke:#181818;stroke-width:0.155;" width="136.4" x="575.205" y="24.5086"/><ellipse cx="615.8925" cy="29.4686" fill="#ADD1B2" rx="3.41" ry="3.41" style="stroke:#181818;stroke-width:0.31;"/><path d="M616.7498,28.1898 Q616.7983,28.122 616.8564,28.0881 Q616.9145,28.0542 616.9823,28.0542 Q617.0986,28.0542 617.1713,28.1366 Q617.2439,28.2141 617.2439,28.403 L617.2439,28.8534 Q617.2439,29.0423 617.1713,29.1247 Q617.0986,29.207 616.9823,29.207 Q616.8758,29.207 616.8128,29.1441 Q616.7498,29.0859 616.7159,28.9261 Q616.7014,28.8147 616.6433,28.7566 Q616.5416,28.6403 616.3527,28.5725 Q616.1638,28.5047 615.97,28.5047 Q615.7327,28.5047 615.5341,28.6064 Q615.3403,28.7081 615.1853,28.9406 Q615.0352,29.1731 615.0352,29.4928 L615.0352,29.8319 Q615.0352,30.2145 615.3113,30.4713 Q615.5873,30.7231 616.0814,30.7231 Q616.372,30.7231 616.5755,30.6456 Q616.6966,30.5972 616.8273,30.4616 Q616.9097,30.3792 616.9533,30.355 Q617.0017,30.3308 617.0647,30.3308 Q617.1664,30.3308 617.2439,30.4131 Q617.3263,30.4906 617.3263,30.5972 Q617.3263,30.7038 617.2197,30.8297 Q617.0647,31.0089 616.8177,31.1106 Q616.4834,31.2511 616.0814,31.2511 Q615.6116,31.2511 615.2386,31.0573 Q614.9334,30.9023 614.7203,30.573 Q614.5072,30.2388 614.5072,29.8416 L614.5072,29.4831 Q614.5072,29.0714 614.6961,28.7178 Q614.8898,28.3594 615.2289,28.1705 Q615.568,27.9767 615.9506,27.9767 Q616.1783,27.9767 616.3769,28.03 Q616.5803,28.0784 616.7498,28.1898 Z " fill="#000000"/><text fill="#000000" font-family="sans-serif" font-size="4.34" lengthAdjust="spacing" textLength="52.39" x="622.2475" y="30.9732">ApprovePropertyController</text><line style="stroke:#181818;stroke-width:0.155;" x1="575.515" x2="711.295" y1="34.4286" y2="34.4286"/><text fill="#000000" font-family="sans-serif" font-size="4.34" lengthAdjust="spacing" textLength="112.22" x="577.065" y="39.5975">-propertyRequestRepository: PropertyRequestRepository</text><text fill="#000000" font-family="sans-serif" font-size="4.34" lengthAdjust="spacing" textLength="101.68" x="577.065" y="44.4461">-authenticationRepository: AuthenticationRepository</text><line style="stroke:#181818;stroke-width:0.155;" x1="575.515" x2="711.295" y1="46.6058" y2="46.6058"/><text fill="#000000" font-family="sans-serif" font-size="4.34" lengthAdjust="spacing" textLength="132.68" x="577.065" y="51.7747">+approveProperty(option: int, commission: CommissionDetails): void</text><text fill="#000000" font-family="sans-serif" font-size="4.34" lengthAdjust="spacing" textLength="49.6" x="577.065" y="56.6233">+getLoggedUser(): String</text><text fill="#000000" font-family="sans-serif" font-size="4.34" lengthAdjust="spacing" textLength="111.29" x="577.065" y="61.4719">-getAuthenticationRepository(): AuthenticationRepository</text><text fill="#000000" font-family="sans-serif" font-size="4.34" lengthAdjust="spacing" textLength="121.83" x="577.065" y="66.3205">-getPropertyRequestRepository(): PropertyRequestRepository</text><text fill="#000000" font-family="sans-serif" font-size="4.34" lengthAdjust="spacing" textLength="75.33" x="577.065" y="71.169">+getRequestsList(email: String): String</text><text fill="#000000" font-family="sans-serif" font-size="4.34" lengthAdjust="spacing" textLength="62.93" x="577.065" y="76.0176">+rejectProperty(option: int): void</text><text fill="#000000" font-family="sans-serif" font-size="4.34" lengthAdjust="spacing" textLength="75.33" x="577.065" y="80.8662">+sendEmail(justification: String): String</text></g><!--class PropertyRequestRepository--><g id="elem_PropertyRequestRepository"><rect codeLine="40" fill="#F1F1F1" height="82.7603" id="PropertyRequestRepository" rx="0.775" ry="0.775" style="stroke:#181818;stroke-width:0.155;" width="114.7" x="727.105" y="12.4186"/><ellipse cx="756.0125" cy="17.3786" fill="#ADD1B2" rx="3.41" ry="3.41" style="stroke:#181818;stroke-width:0.31;"/><path d="M756.8698,16.0998 Q756.9183,16.032 756.9764,15.9981 Q757.0345,15.9642 757.1023,15.9642 Q757.2186,15.9642 757.2913,16.0466 Q757.3639,16.1241 757.3639,16.313 L757.3639,16.7634 Q757.3639,16.9523 757.2913,17.0347 Q757.2186,17.117 757.1023,17.117 Q756.9958,17.117 756.9328,17.0541 Q756.8698,16.9959 756.8359,16.8361 Q756.8214,16.7247 756.7633,16.6666 Q756.6616,16.5503 756.4727,16.4825 Q756.2837,16.4147 756.09,16.4147 Q755.8527,16.4147 755.6541,16.5164 Q755.4603,16.6181 755.3053,16.8506 Q755.1552,17.0831 755.1552,17.4028 L755.1552,17.7419 Q755.1552,18.1245 755.4313,18.3813 Q755.7073,18.6331 756.2014,18.6331 Q756.492,18.6331 756.6955,18.5556 Q756.8166,18.5072 756.9473,18.3716 Q757.0297,18.2892 757.0733,18.265 Q757.1217,18.2408 757.1847,18.2408 Q757.2864,18.2408 757.3639,18.3231 Q757.4463,18.4006 757.4463,18.5072 Q757.4463,18.6138 757.3397,18.7397 Q757.1847,18.9189 756.9377,19.0206 Q756.6034,19.1611 756.2014,19.1611 Q755.7316,19.1611 755.3586,18.9673 Q755.0534,18.8123 754.8403,18.483 Q754.6272,18.1488 754.6272,17.7516 L754.6272,17.3931 Q754.6272,16.9814 754.8161,16.6278 Q755.0098,16.2694 755.3489,16.0805 Q755.688,15.8867 756.0706,15.8867 Q756.2983,15.8867 756.4969,15.94 Q756.7003,15.9884 756.8698,16.0998 Z " fill="#000000"/><text fill="#000000" font-family="sans-serif" font-size="4.34" lengthAdjust="spacing" textLength="54.25" x="762.3675" y="18.8832">PropertyRequestRepository</text><line style="stroke:#181818;stroke-width:0.155;" x1="727.415" x2="841.495" y1="22.3386" y2="22.3386"/><text fill="#000000" font-family="sans-serif" font-size="4.34" lengthAdjust="spacing" textLength="80.29" x="728.965" y="27.5075">-announcementRequests: List&lt;Property&gt;</text><line style="stroke:#181818;stroke-width:0.155;" x1="727.415" x2="841.495" y1="29.6672" y2="29.6672"/><text fill="#000000" font-family="sans-serif" font-size="4.34" lengthAdjust="spacing" textLength="99.82" x="728.965" y="34.8361">+getPropertyRequest(property: Property): Property</text><text fill="#000000" font-family="sans-serif" font-size="4.34" lengthAdjust="spacing" textLength="92.38" x="728.965" y="39.6847">+addPropertyRequest(property: Property): void</text><text fill="#000000" font-family="sans-serif" font-size="4.34" lengthAdjust="spacing" textLength="73.47" x="728.965" y="44.5333">+removePropertyRequest(n: int): void</text><text fill="#000000" font-family="sans-serif" font-size="4.34" lengthAdjust="spacing" textLength="70.68" x="728.965" y="49.3819">+addLandRequest(land: Land): void</text><text fill="#000000" font-family="sans-serif" font-size="4.34" lengthAdjust="spacing" textLength="79.36" x="728.965" y="54.2305">+addHouseRequest(house: House): void</text><text fill="#000000" font-family="sans-serif" font-size="4.34" lengthAdjust="spacing" textLength="102.61" x="728.965" y="59.079">+addApartmentRequest(apartment: Apartment): void</text><text fill="#000000" font-family="sans-serif" font-size="4.34" lengthAdjust="spacing" textLength="92.69" x="728.965" y="63.9276">+containsProperty(property: Property): boolean</text><text fill="#000000" font-family="sans-serif" font-size="4.34" lengthAdjust="spacing" textLength="50.22" x="728.965" y="68.7762">+getRequests(): ArrayList</text><text fill="#000000" font-family="sans-serif" font-size="4.34" lengthAdjust="spacing" textLength="57.35" x="728.965" y="73.6248">+getNumberOfRequests(): int</text><text fill="#000000" font-family="sans-serif" font-size="4.34" lengthAdjust="spacing" textLength="73.78" x="728.965" y="78.4734">+getPropertyRequest(n: int): Property</text><text fill="#000000" font-family="sans-serif" font-size="4.34" lengthAdjust="spacing" textLength="110.98" x="728.965" y="83.322">+getRequestListByEmail(email: String): ArrayList&lt;String&gt;</text><text fill="#000000" font-family="sans-serif" font-size="4.34" lengthAdjust="spacing" textLength="46.81" x="728.965" y="88.1706">+sortRequestList(): void</text><text fill="#000000" font-family="sans-serif" font-size="4.34" lengthAdjust="spacing" textLength="71.3" x="728.965" y="93.0192">+swapRequests(n1: int, n2: int): void</text></g><!--class LandRepository--><g id="elem_LandRepository"><rect codeLine="57" fill="#F1F1F1" height="48.8202" id="LandRepository" rx="0.775" ry="0.775" style="stroke:#181818;stroke-width:0.155;" width="58.59" x="87.42" y="29.4686"/><ellipse cx="100.0215" cy="34.4286" fill="#ADD1B2" rx="3.41" ry="3.41" style="stroke:#181818;stroke-width:0.31;"/><path d="M100.8788,33.1498 Q100.9273,33.082 100.9854,33.0481 Q101.0435,33.0142 101.1113,33.0142 Q101.2276,33.0142 101.3002,33.0966 Q101.3729,33.1741 101.3729,33.363 L101.3729,33.8134 Q101.3729,34.0023 101.3002,34.0847 Q101.2276,34.167 101.1113,34.167 Q101.0048,34.167 100.9418,34.1041 Q100.8788,34.0459 100.8449,33.8861 Q100.8304,33.7747 100.7723,33.7166 Q100.6706,33.6003 100.4817,33.5325 Q100.2928,33.4647 100.099,33.4647 Q99.8617,33.4647 99.6631,33.5664 Q99.4693,33.6681 99.3143,33.9006 Q99.1642,34.1331 99.1642,34.4528 L99.1642,34.7919 Q99.1642,35.1745 99.4402,35.4313 Q99.7163,35.6831 100.2104,35.6831 Q100.501,35.6831 100.7045,35.6056 Q100.8256,35.5572 100.9563,35.4216 Q101.0387,35.3392 101.0823,35.315 Q101.1307,35.2908 101.1937,35.2908 Q101.2954,35.2908 101.3729,35.3731 Q101.4552,35.4506 101.4552,35.5572 Q101.4552,35.6638 101.3487,35.7897 Q101.1937,35.9689 100.9467,36.0706 Q100.6124,36.2111 100.2104,36.2111 Q99.7406,36.2111 99.3676,36.0173 Q99.0624,35.8623 98.8493,35.533 Q98.6362,35.1988 98.6362,34.8016 L98.6362,34.4431 Q98.6362,34.0314 98.8251,33.6778 Q99.0188,33.3194 99.3579,33.1305 Q99.697,32.9367 100.0796,32.9367 Q100.3073,32.9367 100.5059,32.99 Q100.7093,33.0384 100.8788,33.1498 Z " fill="#000000"/><text fill="#000000" font-family="sans-serif" font-size="4.34" lengthAdjust="spacing" textLength="31" x="106.1285" y="35.9332">LandRepository</text><line style="stroke:#181818;stroke-width:0.155;" x1="87.73" x2="145.7" y1="39.3886" y2="39.3886"/><text fill="#000000" font-family="sans-serif" font-size="4.34" lengthAdjust="spacing" textLength="36.27" x="89.28" y="44.5575">-lands: List&lt;Land&gt;</text><line style="stroke:#181818;stroke-width:0.155;" x1="87.73" x2="145.7" y1="46.7172" y2="46.7172"/><text fill="#000000" font-family="sans-serif" font-size="4.34" lengthAdjust="spacing" textLength="54.87" x="89.28" y="51.8861">+getLand(land: Land): Land</text><text fill="#000000" font-family="sans-serif" font-size="4.34" lengthAdjust="spacing" textLength="54.25" x="89.28" y="56.7347">+addLand(land: Land): void</text><text fill="#000000" font-family="sans-serif" font-size="4.34" lengthAdjust="spacing" textLength="50.53" x="89.28" y="61.5833">+getLand(n: int): Property</text><text fill="#000000" font-family="sans-serif" font-size="4.34" lengthAdjust="spacing" textLength="43.71" x="89.28" y="66.4319">+getLands(): ArrayList</text><text fill="#000000" font-family="sans-serif" font-size="4.34" lengthAdjust="spacing" textLength="52.08" x="89.28" y="71.2805">+getLandById(n: int): Land</text><text fill="#000000" font-family="sans-serif" font-size="4.34" lengthAdjust="spacing" textLength="44.33" x="89.28" y="76.129">+numberOfLands(): int</text></g><!--class HouseRepository--><g id="elem_HouseRepository"><rect codeLine="67" fill="#F1F1F1" height="48.8202" id="HouseRepository" rx="0.775" ry="0.775" style="stroke:#181818;stroke-width:0.155;" width="69.75" x="2.17" y="29.4686"/><ellipse cx="18.9875" cy="34.4286" fill="#ADD1B2" rx="3.41" ry="3.41" style="stroke:#181818;stroke-width:0.31;"/><path d="M19.8448,33.1498 Q19.8933,33.082 19.9514,33.0481 Q20.0095,33.0142 20.0773,33.0142 Q20.1936,33.0142 20.2663,33.0966 Q20.3389,33.1741 20.3389,33.363 L20.3389,33.8134 Q20.3389,34.0023 20.2663,34.0847 Q20.1936,34.167 20.0773,34.167 Q19.9708,34.167 19.9078,34.1041 Q19.8448,34.0459 19.8109,33.8861 Q19.7964,33.7747 19.7383,33.7166 Q19.6366,33.6003 19.4477,33.5325 Q19.2588,33.4647 19.065,33.4647 Q18.8277,33.4647 18.6291,33.5664 Q18.4353,33.6681 18.2803,33.9006 Q18.1302,34.1331 18.1302,34.4528 L18.1302,34.7919 Q18.1302,35.1745 18.4063,35.4313 Q18.6823,35.6831 19.1764,35.6831 Q19.467,35.6831 19.6705,35.6056 Q19.7916,35.5572 19.9223,35.4216 Q20.0047,35.3392 20.0483,35.315 Q20.0967,35.2908 20.1597,35.2908 Q20.2614,35.2908 20.3389,35.3731 Q20.4213,35.4506 20.4213,35.5572 Q20.4213,35.6638 20.3147,35.7897 Q20.1597,35.9689 19.9127,36.0706 Q19.5784,36.2111 19.1764,36.2111 Q18.7066,36.2111 18.3336,36.0173 Q18.0284,35.8623 17.8153,35.533 Q17.6022,35.1988 17.6022,34.8016 L17.6022,34.4431 Q17.6022,34.0314 17.7911,33.6778 Q17.9848,33.3194 18.3239,33.1305 Q18.663,32.9367 19.0456,32.9367 Q19.2733,32.9367 19.4719,32.99 Q19.6753,33.0384 19.8448,33.1498 Z " fill="#000000"/><text fill="#000000" font-family="sans-serif" font-size="4.34" lengthAdjust="spacing" textLength="33.48" x="25.3425" y="35.9332">HouseRepository</text><line style="stroke:#181818;stroke-width:0.155;" x1="2.48" x2="71.61" y1="39.3886" y2="39.3886"/><text fill="#000000" font-family="sans-serif" font-size="4.34" lengthAdjust="spacing" textLength="42.47" x="4.03" y="44.5575">-houses: List&lt;House&gt;</text><line style="stroke:#181818;stroke-width:0.155;" x1="2.48" x2="71.61" y1="46.7172" y2="46.7172"/><text fill="#000000" font-family="sans-serif" font-size="4.34" lengthAdjust="spacing" textLength="66.03" x="4.03" y="51.8861">+getHouse(house: House): House</text><text fill="#000000" font-family="sans-serif" font-size="4.34" lengthAdjust="spacing" textLength="52.39" x="4.03" y="56.7347">+addHouse(house: House)</text><text fill="#000000" font-family="sans-serif" font-size="4.34" lengthAdjust="spacing" textLength="57.04" x="4.03" y="61.5833">+getHouseById(n: int): House</text><text fill="#000000" font-family="sans-serif" font-size="4.34" lengthAdjust="spacing" textLength="53.01" x="4.03" y="66.4319">+getHouse(n: int): Property</text><text fill="#000000" font-family="sans-serif" font-size="4.34" lengthAdjust="spacing" textLength="46.19" x="4.03" y="71.2805">+getHouses(): ArrayList</text><text fill="#000000" font-family="sans-serif" font-size="4.34" lengthAdjust="spacing" textLength="46.81" x="4.03" y="76.129">+numberOfHouses(): int</text></g><!--class ApartmentRepository--><g id="elem_ApartmentRepository"><rect codeLine="77" fill="#F1F1F1" height="48.8202" id="ApartmentRepository" rx="0.775" ry="0.775" style="stroke:#181818;stroke-width:0.155;" width="100.75" x="482.05" y="189.1186"/><ellipse cx="510.4925" cy="194.0786" fill="#ADD1B2" rx="3.41" ry="3.41" style="stroke:#181818;stroke-width:0.31;"/><path d="M511.3498,192.7999 Q511.3983,192.732 511.4564,192.6981 Q511.5145,192.6642 511.5823,192.6642 Q511.6986,192.6642 511.7713,192.7466 Q511.8439,192.8241 511.8439,193.013 L511.8439,193.4634 Q511.8439,193.6523 511.7713,193.7347 Q511.6986,193.817 511.5823,193.817 Q511.4758,193.817 511.4128,193.7541 Q511.3498,193.6959 511.3159,193.5361 Q511.3014,193.4247 511.2433,193.3666 Q511.1416,193.2503 510.9527,193.1825 Q510.7638,193.1147 510.57,193.1147 Q510.3327,193.1147 510.1341,193.2164 Q509.9403,193.3181 509.7853,193.5506 Q509.6352,193.7831 509.6352,194.1028 L509.6352,194.4419 Q509.6352,194.8245 509.9113,195.0813 Q510.1873,195.3331 510.6814,195.3331 Q510.972,195.3331 511.1755,195.2556 Q511.2966,195.2072 511.4273,195.0716 Q511.5097,194.9892 511.5533,194.965 Q511.6017,194.9408 511.6647,194.9408 Q511.7664,194.9408 511.8439,195.0231 Q511.9263,195.1006 511.9263,195.2072 Q511.9263,195.3138 511.8197,195.4397 Q511.6647,195.6189 511.4177,195.7206 Q511.0834,195.8611 510.6814,195.8611 Q510.2116,195.8611 509.8386,195.6673 Q509.5334,195.5123 509.3203,195.183 Q509.1072,194.8488 509.1072,194.4516 L509.1072,194.0931 Q509.1072,193.6814 509.2961,193.3278 Q509.4898,192.9694 509.8289,192.7805 Q510.168,192.5867 510.5506,192.5867 Q510.7783,192.5867 510.9769,192.64 Q511.1803,192.6884 511.3498,192.7999 Z " fill="#000000"/><text fill="#000000" font-family="sans-serif" font-size="4.34" lengthAdjust="spacing" textLength="41.23" x="516.8475" y="195.5832">ApartmentRepository</text><line style="stroke:#181818;stroke-width:0.155;" x1="482.36" x2="582.49" y1="199.0386" y2="199.0386"/><text fill="#000000" font-family="sans-serif" font-size="4.34" lengthAdjust="spacing" textLength="57.97" x="483.91" y="204.2075">-apartments: List&lt;Apartment&gt;</text><line style="stroke:#181818;stroke-width:0.155;" x1="482.36" x2="582.49" y1="206.3672" y2="206.3672"/><text fill="#000000" font-family="sans-serif" font-size="4.34" lengthAdjust="spacing" textLength="97.03" x="483.91" y="211.5361">+getApartment(apartment: Apartment): Apartment</text><text fill="#000000" font-family="sans-serif" font-size="4.34" lengthAdjust="spacing" textLength="75.64" x="483.91" y="216.3847">+addApartment(apartment: Apartment)</text><text fill="#000000" font-family="sans-serif" font-size="4.34" lengthAdjust="spacing" textLength="64.17" x="483.91" y="221.2333">+getApartment(n: int): Apartment</text><text fill="#000000" font-family="sans-serif" font-size="4.34" lengthAdjust="spacing" textLength="72.54" x="483.91" y="226.0819">+getApartmentById(n: int): Apartment</text><text fill="#000000" font-family="sans-serif" font-size="4.34" lengthAdjust="spacing" textLength="53.94" x="483.91" y="230.9305">+getApartments(): ArrayList</text><text fill="#000000" font-family="sans-serif" font-size="4.34" lengthAdjust="spacing" textLength="54.56" x="483.91" y="235.779">+numberOfApartments(): int</text></g><!--class AnnouncementRepository--><g id="elem_AnnouncementRepository"><rect codeLine="88" fill="#F1F1F1" height="29.4258" id="AnnouncementRepository" rx="0.775" ry="0.775" style="stroke:#181818;stroke-width:0.155;" width="79.36" x="685.565" y="198.7286"/><ellipse cx="698.7245" cy="203.6886" fill="#ADD1B2" rx="3.41" ry="3.41" style="stroke:#181818;stroke-width:0.31;"/><path d="M699.5818,202.4098 Q699.6303,202.342 699.6884,202.3081 Q699.7465,202.2742 699.8143,202.2742 Q699.9306,202.2742 700.0033,202.3566 Q700.0759,202.4341 700.0759,202.623 L700.0759,203.0734 Q700.0759,203.2623 700.0033,203.3447 Q699.9306,203.427 699.8143,203.427 Q699.7078,203.427 699.6448,203.3641 Q699.5818,203.3059 699.5479,203.1461 Q699.5334,203.0347 699.4753,202.9766 Q699.3736,202.8603 699.1847,202.7925 Q698.9957,202.7247 698.802,202.7247 Q698.5647,202.7247 698.3661,202.8264 Q698.1723,202.9281 698.0173,203.1606 Q697.8672,203.3931 697.8672,203.7128 L697.8672,204.0519 Q697.8672,204.4345 698.1433,204.6913 Q698.4193,204.9431 698.9134,204.9431 Q699.204,204.9431 699.4075,204.8656 Q699.5286,204.8172 699.6593,204.6816 Q699.7417,204.5992 699.7853,204.575 Q699.8337,204.5508 699.8967,204.5508 Q699.9984,204.5508 700.0759,204.6331 Q700.1583,204.7106 700.1583,204.8172 Q700.1583,204.9238 700.0517,205.0497 Q699.8967,205.2289 699.6497,205.3306 Q699.3154,205.4711 698.9134,205.4711 Q698.4436,205.4711 698.0706,205.2773 Q697.7654,205.1223 697.5523,204.793 Q697.3392,204.4588 697.3392,204.0616 L697.3392,203.7031 Q697.3392,203.2914 697.5281,202.9378 Q697.7218,202.5794 698.0609,202.3905 Q698.4,202.1967 698.7826,202.1967 Q699.0103,202.1967 699.2089,202.25 Q699.4123,202.2984 699.5818,202.4098 Z " fill="#000000"/><text fill="#000000" font-family="sans-serif" font-size="4.34" lengthAdjust="spacing" textLength="50.53" x="704.9555" y="205.1932">AnnouncementRepository</text><line style="stroke:#181818;stroke-width:0.155;" x1="685.875" x2="764.615" y1="208.6486" y2="208.6486"/><line style="stroke:#181818;stroke-width:0.155;" x1="685.875" x2="764.615" y1="211.1286" y2="211.1286"/><text fill="#000000" font-family="sans-serif" font-size="4.34" lengthAdjust="spacing" textLength="43.71" x="687.425" y="216.2975">+addLand(land: Land)</text><text fill="#000000" font-family="sans-serif" font-size="4.34" lengthAdjust="spacing" textLength="75.64" x="687.425" y="221.1461">+addApartment(apartment: Apartment)</text><text fill="#000000" font-family="sans-serif" font-size="4.34" lengthAdjust="spacing" textLength="52.39" x="687.425" y="225.9947">+addHouse(house: House)</text></g><!--class Repositories--><g id="elem_Repositories"><rect codeLine="94" fill="#F1F1F1" height="29.4258" id="Repositories" rx="0.775" ry="0.775" style="stroke:#181818;stroke-width:0.155;" width="66.03" x="780.58" y="198.7286"/><ellipse cx="800.0325" cy="203.6886" fill="#ADD1B2" rx="3.41" ry="3.41" style="stroke:#181818;stroke-width:0.31;"/><path d="M800.8898,202.4098 Q800.9383,202.342 800.9964,202.3081 Q801.0545,202.2742 801.1223,202.2742 Q801.2386,202.2742 801.3113,202.3566 Q801.3839,202.4341 801.3839,202.623 L801.3839,203.0734 Q801.3839,203.2623 801.3113,203.3447 Q801.2386,203.427 801.1223,203.427 Q801.0158,203.427 800.9528,203.3641 Q800.8898,203.3059 800.8559,203.1461 Q800.8414,203.0347 800.7833,202.9766 Q800.6816,202.8603 800.4927,202.7925 Q800.3038,202.7247 800.11,202.7247 Q799.8727,202.7247 799.6741,202.8264 Q799.4803,202.9281 799.3253,203.1606 Q799.1752,203.3931 799.1752,203.7128 L799.1752,204.0519 Q799.1752,204.4345 799.4513,204.6913 Q799.7273,204.9431 800.2214,204.9431 Q800.512,204.9431 800.7155,204.8656 Q800.8366,204.8172 800.9673,204.6816 Q801.0497,204.5992 801.0933,204.575 Q801.1417,204.5508 801.2047,204.5508 Q801.3064,204.5508 801.3839,204.6331 Q801.4663,204.7106 801.4663,204.8172 Q801.4663,204.9238 801.3597,205.0497 Q801.2047,205.2289 800.9577,205.3306 Q800.6234,205.4711 800.2214,205.4711 Q799.7516,205.4711 799.3786,205.2773 Q799.0734,205.1223 798.8603,204.793 Q798.6472,204.4588 798.6472,204.0616 L798.6472,203.7031 Q798.6472,203.2914 798.8361,202.9378 Q799.0298,202.5794 799.3689,202.3905 Q799.708,202.1967 800.0906,202.1967 Q800.3183,202.1967 800.5169,202.25 Q800.7203,202.2984 800.8898,202.4098 Z " fill="#000000"/><text fill="#000000" font-family="sans-serif" font-size="4.34" lengthAdjust="spacing" textLength="24.49" x="806.3875" y="205.1932">Repositories</text><line style="stroke:#181818;stroke-width:0.155;" x1="780.89" x2="846.3" y1="208.6486" y2="208.6486"/><line style="stroke:#181818;stroke-width:0.155;" x1="780.89" x2="846.3" y1="211.1286" y2="211.1286"/><text fill="#000000" font-family="sans-serif" font-size="4.34" lengthAdjust="spacing" textLength="29.14" x="782.44" y="216.2975">-Repositories()</text><text fill="#000000" font-family="sans-serif" font-size="4.34" lengthAdjust="spacing" textLength="56.42" x="782.44" y="221.1461">+getInstance() : Repositories</text><text fill="#000000" font-family="sans-serif" font-size="4.34" lengthAdjust="spacing" textLength="62.31" x="782.44" y="225.9947">+getAnnouncementRepository()</text></g><!--class AuthorizationRepository--><g id="elem_AuthorizationRepository"><rect codeLine="100" fill="#F1F1F1" height="19.7286" id="AuthorizationRepository" rx="0.775" ry="0.775" style="stroke:#181818;stroke-width:0.155;" width="110.98" x="758.105" y="351.2486"/><ellipse cx="789.0275" cy="356.2086" fill="#ADD1B2" rx="3.41" ry="3.41" style="stroke:#181818;stroke-width:0.31;"/><path d="M789.8848,354.9299 Q789.9333,354.862 789.9914,354.8281 Q790.0495,354.7942 790.1173,354.7942 Q790.2336,354.7942 790.3063,354.8766 Q790.3789,354.9541 790.3789,355.143 L790.3789,355.5934 Q790.3789,355.7824 790.3063,355.8647 Q790.2336,355.947 790.1173,355.947 Q790.0108,355.947 789.9478,355.8841 Q789.8848,355.8259 789.8509,355.6661 Q789.8364,355.5547 789.7783,355.4966 Q789.6766,355.3803 789.4877,355.3125 Q789.2988,355.2447 789.105,355.2447 Q788.8677,355.2447 788.6691,355.3464 Q788.4753,355.4481 788.3203,355.6806 Q788.1702,355.9131 788.1702,356.2328 L788.1702,356.5719 Q788.1702,356.9545 788.4463,357.2113 Q788.7223,357.4631 789.2164,357.4631 Q789.507,357.4631 789.7105,357.3856 Q789.8316,357.3372 789.9623,357.2016 Q790.0447,357.1192 790.0883,357.095 Q790.1367,357.0708 790.1997,357.0708 Q790.3014,357.0708 790.3789,357.1531 Q790.4613,357.2306 790.4613,357.3372 Q790.4613,357.4438 790.3547,357.5697 Q790.1997,357.7489 789.9527,357.8506 Q789.6184,357.9911 789.2164,357.9911 Q788.7466,357.9911 788.3736,357.7974 Q788.0684,357.6423 787.8553,357.313 Q787.6422,356.9788 787.6422,356.5816 L787.6422,356.2231 Q787.6422,355.8114 787.8311,355.4578 Q788.0248,355.0994 788.3639,354.9105 Q788.703,354.7167 789.0856,354.7167 Q789.3133,354.7167 789.5119,354.77 Q789.7153,354.8184 789.8848,354.9299 Z " fill="#000000"/><text fill="#000000" font-family="sans-serif" font-size="4.34" lengthAdjust="spacing" textLength="46.5" x="795.3825" y="357.7132">AuthorizationRepository</text><line style="stroke:#181818;stroke-width:0.155;" x1="758.415" x2="868.775" y1="361.1686" y2="361.1686"/><line style="stroke:#181818;stroke-width:0.155;" x1="758.415" x2="868.775" y1="363.6486" y2="363.6486"/><text fill="#000000" font-family="sans-serif" font-size="4.34" lengthAdjust="spacing" textLength="107.26" x="759.965" y="368.8175">+getAuthorizationRepository(): AuthorizationRepository</text></g><!--class UserSession--><g id="elem_UserSession"><rect codeLine="104" fill="#F1F1F1" height="29.4258" id="UserSession" rx="0.775" ry="0.775" style="stroke:#181818;stroke-width:0.155;" width="66.96" x="780.115" y="431.0736"/><ellipse cx="800.0325" cy="436.0336" fill="#ADD1B2" rx="3.41" ry="3.41" style="stroke:#181818;stroke-width:0.31;"/><path d="M800.8898,434.7549 Q800.9383,434.687 800.9964,434.6531 Q801.0545,434.6192 801.1223,434.6192 Q801.2386,434.6192 801.3113,434.7016 Q801.3839,434.7791 801.3839,434.968 L801.3839,435.4184 Q801.3839,435.6074 801.3113,435.6897 Q801.2386,435.772 801.1223,435.772 Q801.0158,435.772 800.9528,435.7091 Q800.8898,435.6509 800.8559,435.4911 Q800.8414,435.3797 800.7833,435.3216 Q800.6816,435.2053 800.4927,435.1375 Q800.3038,435.0697 800.11,435.0697 Q799.8727,435.0697 799.6741,435.1714 Q799.4803,435.2731 799.3253,435.5056 Q799.1752,435.7381 799.1752,436.0578 L799.1752,436.3969 Q799.1752,436.7795 799.4513,437.0363 Q799.7273,437.2881 800.2214,437.2881 Q800.512,437.2881 800.7155,437.2106 Q800.8366,437.1622 800.9673,437.0266 Q801.0497,436.9442 801.0933,436.92 Q801.1417,436.8958 801.2047,436.8958 Q801.3064,436.8958 801.3839,436.9781 Q801.4663,437.0556 801.4663,437.1622 Q801.4663,437.2688 801.3597,437.3947 Q801.2047,437.5739 800.9577,437.6756 Q800.6234,437.8161 800.2214,437.8161 Q799.7516,437.8161 799.3786,437.6224 Q799.0734,437.4673 798.8603,437.138 Q798.6472,436.8038 798.6472,436.4066 L798.6472,436.0481 Q798.6472,435.6364 798.8361,435.2828 Q799.0298,434.9244 799.3689,434.7355 Q799.708,434.5417 800.0906,434.5417 Q800.3183,434.5417 800.5169,434.595 Q800.7203,434.6434 800.8898,434.7549 Z " fill="#000000"/><text fill="#000000" font-family="sans-serif" font-size="4.34" lengthAdjust="spacing" textLength="24.49" x="806.3875" y="437.5382">UserSession</text><line style="stroke:#181818;stroke-width:0.155;" x1="780.425" x2="846.765" y1="440.9936" y2="440.9936"/><line style="stroke:#181818;stroke-width:0.155;" x1="780.425" x2="846.765" y1="443.4736" y2="443.4736"/><text fill="#000000" font-family="sans-serif" font-size="4.34" lengthAdjust="spacing" textLength="63.24" x="781.975" y="448.6425">+getUserSession(): UserSession</text><text fill="#000000" font-family="sans-serif" font-size="4.34" lengthAdjust="spacing" textLength="40.3" x="781.975" y="453.4911">+getUserID(): UserID</text><text fill="#000000" font-family="sans-serif" font-size="4.34" lengthAdjust="spacing" textLength="44.64" x="781.975" y="458.3397">+getUserEmail(): string</text></g><!--class Property--><g id="elem_Property"><rect codeLine="115" fill="#F1F1F1" height="189.4294" id="Property" rx="0.775" ry="0.775" style="stroke:#181818;stroke-width:0.155;" width="156.86" x="204.445" y="118.7486"/><ellipse cx="273.1875" cy="123.7086" fill="#ADD1B2" rx="3.41" ry="3.41" style="stroke:#181818;stroke-width:0.31;"/><path d="M274.0448,122.4298 Q274.0933,122.362 274.1514,122.3281 Q274.2095,122.2942 274.2773,122.2942 Q274.3936,122.2942 274.4663,122.3766 Q274.5389,122.4541 274.5389,122.643 L274.5389,123.0934 Q274.5389,123.2823 274.4663,123.3647 Q274.3936,123.447 274.2773,123.447 Q274.1708,123.447 274.1078,123.3841 Q274.0448,123.3259 274.0109,123.1661 Q273.9964,123.0547 273.9383,122.9966 Q273.8366,122.8803 273.6477,122.8125 Q273.4588,122.7447 273.265,122.7447 Q273.0277,122.7447 272.8291,122.8464 Q272.6353,122.9481 272.4803,123.1806 Q272.3302,123.4131 272.3302,123.7328 L272.3302,124.0719 Q272.3302,124.4545 272.6063,124.7113 Q272.8823,124.9631 273.3764,124.9631 Q273.667,124.9631 273.8705,124.8856 Q273.9916,124.8372 274.1223,124.7016 Q274.2047,124.6192 274.2483,124.595 Q274.2967,124.5708 274.3597,124.5708 Q274.4614,124.5708 274.5389,124.6531 Q274.6213,124.7306 274.6213,124.8372 Q274.6213,124.9438 274.5147,125.0697 Q274.3597,125.2489 274.1127,125.3506 Q273.7784,125.4911 273.3764,125.4911 Q272.9066,125.4911 272.5336,125.2973 Q272.2284,125.1423 272.0153,124.813 Q271.8022,124.4788 271.8022,124.0816 L271.8022,123.7231 Q271.8022,123.3114 271.9911,122.9578 Q272.1848,122.5994 272.5239,122.4105 Q272.863,122.2167 273.2456,122.2167 Q273.4733,122.2167 273.6719,122.27 Q273.8753,122.3184 274.0448,122.4298 Z " fill="#000000"/><text fill="#000000" font-family="sans-serif" font-size="4.34" lengthAdjust="spacing" textLength="16.74" x="279.5425" y="125.2132">Property</text><line style="stroke:#181818;stroke-width:0.155;" x1="204.755" x2="360.995" y1="128.6686" y2="128.6686"/><text fill="#000000" font-family="sans-serif" font-size="4.34" lengthAdjust="spacing" textLength="17.05" x="206.305" y="133.8375">-cont: int</text><text fill="#000000" font-family="sans-serif" font-size="4.34" lengthAdjust="spacing" textLength="41.85" x="206.305" y="138.6861">-propertyType: String</text><text fill="#000000" font-family="sans-serif" font-size="4.34" lengthAdjust="spacing" textLength="28.52" x="206.305" y="143.5347">-owner: Owner</text><text fill="#000000" font-family="sans-serif" font-size="4.34" lengthAdjust="spacing" textLength="63.55" x="206.305" y="148.3833">-commission: CommissionDetails</text><text fill="#000000" font-family="sans-serif" font-size="4.34" lengthAdjust="spacing" textLength="26.66" x="206.305" y="153.2319">-agent: Agent</text><text fill="#000000" font-family="sans-serif" font-size="4.34" lengthAdjust="spacing" textLength="47.74" x="206.305" y="158.0805">-areaOfProperty: double</text><text fill="#000000" font-family="sans-serif" font-size="4.34" lengthAdjust="spacing" textLength="57.35" x="206.305" y="162.929">-distanceFromCentre: double</text><text fill="#000000" font-family="sans-serif" font-size="4.34" lengthAdjust="spacing" textLength="47.43" x="206.305" y="167.7776">-acceptanceDate: String</text><text fill="#000000" font-family="sans-serif" font-size="4.34" lengthAdjust="spacing" textLength="39.68" x="206.305" y="172.6262">-requestDate: String</text><text fill="#000000" font-family="sans-serif" font-size="4.34" lengthAdjust="spacing" textLength="35.96" x="206.305" y="177.4748">-address: Address</text><text fill="#000000" font-family="sans-serif" font-size="4.34" lengthAdjust="spacing" textLength="26.66" x="206.305" y="182.3234">-photo: Photo</text><text fill="#000000" font-family="sans-serif" font-size="4.34" lengthAdjust="spacing" textLength="78.12" x="206.305" y="187.172">-transaction: TypeOfTransaction</text><text fill="#000000" font-family="sans-serif" font-size="4.34" lengthAdjust="spacing" textLength="29.14" x="206.305" y="192.0206">-propertyID: int</text><line style="stroke:#181818;stroke-width:0.155;" x1="204.755" x2="360.995" y1="194.1803" y2="194.1803"/><text fill="#000000" font-family="sans-serif" font-size="4.34" lengthAdjust="spacing" textLength="120.9" x="206.305" y="199.3492">+setCommissionDetails(commission: CommissionDetails): void</text><text fill="#000000" font-family="sans-serif" font-size="4.34" lengthAdjust="spacing" textLength="88.97" x="206.305" y="204.1978">+setPropertyType(propertyType: String): void</text><text fill="#000000" font-family="sans-serif" font-size="4.34" lengthAdjust="spacing" textLength="58.59" x="206.305" y="209.0464">+setAgent(agent: Agent): void</text><text fill="#000000" font-family="sans-serif" font-size="4.34" lengthAdjust="spacing" textLength="37.2" x="206.305" y="213.895">+getAgent(): Agent</text><text fill="#000000" font-family="sans-serif" font-size="4.34" lengthAdjust="spacing" textLength="68.2" x="206.305" y="218.7436">+getDistanceFromCentre(): double</text><text fill="#000000" font-family="sans-serif" font-size="4.34" lengthAdjust="spacing" textLength="118.42" x="206.305" y="223.5922">+setDistanceFromCentre(distanceFromCentre: double): void</text><text fill="#000000" font-family="sans-serif" font-size="4.34" lengthAdjust="spacing" textLength="58.28" x="206.305" y="228.4408">+getAreaOfProperty(): double</text><text fill="#000000" font-family="sans-serif" font-size="4.34" lengthAdjust="spacing" textLength="98.89" x="206.305" y="233.2894">+setAreaOfProperty(areaOfProperty: double): void</text><text fill="#000000" font-family="sans-serif" font-size="4.34" lengthAdjust="spacing" textLength="57.97" x="206.305" y="238.138">+getAcceptanceDate(): String</text><text fill="#000000" font-family="sans-serif" font-size="4.34" lengthAdjust="spacing" textLength="100.13" x="206.305" y="242.9865">+setAcceptanceDate(acceptanceDate: String): void</text><text fill="#000000" font-family="sans-serif" font-size="4.34" lengthAdjust="spacing" textLength="51.46" x="206.305" y="247.8351">+getRequestDate(): String</text><text fill="#000000" font-family="sans-serif" font-size="4.34" lengthAdjust="spacing" textLength="85.87" x="206.305" y="252.6837">+setRequestDate(requestDate: String): void</text><text fill="#000000" font-family="sans-serif" font-size="4.34" lengthAdjust="spacing" textLength="46.5" x="206.305" y="257.5323">+getAddress(): Address</text><text fill="#000000" font-family="sans-serif" font-size="4.34" lengthAdjust="spacing" textLength="39.68" x="206.305" y="262.3809">+getPropertyID(): int</text><text fill="#000000" font-family="sans-serif" font-size="4.34" lengthAdjust="spacing" textLength="52.39" x="206.305" y="267.2295">+getPropertyType(): String</text><text fill="#000000" font-family="sans-serif" font-size="4.34" lengthAdjust="spacing" textLength="72.54" x="206.305" y="272.0781">+setAddress(address: Address): void</text><text fill="#000000" font-family="sans-serif" font-size="4.34" lengthAdjust="spacing" textLength="37.2" x="206.305" y="276.9267">+getPhoto(): Photo</text><text fill="#000000" font-family="sans-serif" font-size="4.34" lengthAdjust="spacing" textLength="65.41" x="206.305" y="281.7753">+setPhoto(photoURI: String): void</text><text fill="#000000" font-family="sans-serif" font-size="4.34" lengthAdjust="spacing" textLength="89.9" x="206.305" y="286.6239">+getTypeOfTransaction(): TypeOfTransaction</text><text fill="#000000" font-family="sans-serif" font-size="4.34" lengthAdjust="spacing" textLength="153.14" x="206.305" y="291.4725">+setTypeOfTransaction(transactionType: String, monetaryValue: double): void</text><text fill="#000000" font-family="sans-serif" font-size="4.34" lengthAdjust="spacing" textLength="74.4" x="206.305" y="296.3211">+IsListed(property: Property): boolean</text><text fill="#000000" font-family="sans-serif" font-size="4.34" lengthAdjust="spacing" textLength="34.72" x="206.305" y="301.1697">+toString(): String</text><text fill="#000000" font-family="sans-serif" font-size="4.34" lengthAdjust="spacing" textLength="142.29" x="206.305" y="306.0183">+setAddres(street: String, city: String, state: String, zipCode: String): void</text></g><!--class TypeOfTransaction--><g id="elem_TypeOfTransaction"><rect codeLine="154" fill="#F1F1F1" height="48.8202" id="TypeOfTransaction" rx="0.775" ry="0.775" style="stroke:#181818;stroke-width:0.155;" width="104.47" x="161.51" y="29.4686"/><ellipse cx="193.5175" cy="34.4286" fill="#ADD1B2" rx="3.41" ry="3.41" style="stroke:#181818;stroke-width:0.31;"/><path d="M194.3748,33.1498 Q194.4233,33.082 194.4814,33.0481 Q194.5395,33.0142 194.6073,33.0142 Q194.7236,33.0142 194.7963,33.0966 Q194.8689,33.1741 194.8689,33.363 L194.8689,33.8134 Q194.8689,34.0023 194.7963,34.0847 Q194.7236,34.167 194.6073,34.167 Q194.5008,34.167 194.4378,34.1041 Q194.3748,34.0459 194.3409,33.8861 Q194.3264,33.7747 194.2683,33.7166 Q194.1666,33.6003 193.9777,33.5325 Q193.7888,33.4647 193.595,33.4647 Q193.3577,33.4647 193.1591,33.5664 Q192.9653,33.6681 192.8103,33.9006 Q192.6602,34.1331 192.6602,34.4528 L192.6602,34.7919 Q192.6602,35.1745 192.9363,35.4313 Q193.2123,35.6831 193.7064,35.6831 Q193.997,35.6831 194.2005,35.6056 Q194.3216,35.5572 194.4523,35.4216 Q194.5347,35.3392 194.5783,35.315 Q194.6267,35.2908 194.6897,35.2908 Q194.7914,35.2908 194.8689,35.3731 Q194.9513,35.4506 194.9513,35.5572 Q194.9513,35.6638 194.8447,35.7897 Q194.6897,35.9689 194.4427,36.0706 Q194.1084,36.2111 193.7064,36.2111 Q193.2366,36.2111 192.8636,36.0173 Q192.5584,35.8623 192.3453,35.533 Q192.1322,35.1988 192.1322,34.8016 L192.1322,34.4431 Q192.1322,34.0314 192.3211,33.6778 Q192.5148,33.3194 192.8539,33.1305 Q193.193,32.9367 193.5756,32.9367 Q193.8033,32.9367 194.0019,32.99 Q194.2053,33.0384 194.3748,33.1498 Z " fill="#000000"/><text fill="#000000" font-family="sans-serif" font-size="4.34" lengthAdjust="spacing" textLength="37.82" x="199.8725" y="35.9332">TypeOfTransaction</text><line style="stroke:#181818;stroke-width:0.155;" x1="161.82" x2="265.67" y1="39.3886" y2="39.3886"/><text fill="#000000" font-family="sans-serif" font-size="4.34" lengthAdjust="spacing" textLength="47.12" x="163.37" y="44.5575">-transactionType: String</text><text fill="#000000" font-family="sans-serif" font-size="4.34" lengthAdjust="spacing" textLength="46.81" x="163.37" y="49.4061">-monetaryValue: double</text><line style="stroke:#181818;stroke-width:0.31;" x1="161.82" x2="265.67" y1="51.5658" y2="51.5658"/><text fill="#000000" font-family="sans-serif" font-size="4.34" lengthAdjust="spacing" textLength="58.9" x="163.37" y="56.7347">+getTransactionType(): String</text><text fill="#000000" font-family="sans-serif" font-size="4.34" lengthAdjust="spacing" textLength="100.75" x="163.37" y="61.5833">+setTransactionType(transactionType: String): void</text><text fill="#000000" font-family="sans-serif" font-size="4.34" lengthAdjust="spacing" textLength="57.04" x="163.37" y="66.4319">+getMonetaryValue(): double</text><text fill="#000000" font-family="sans-serif" font-size="4.34" lengthAdjust="spacing" textLength="96.72" x="163.37" y="71.2805">+setMonetaryValue(monetaryValue: double): void</text><text fill="#000000" font-family="sans-serif" font-size="4.34" lengthAdjust="spacing" textLength="34.72" x="163.37" y="76.129">+toString(): String</text></g><!--class Address--><g id="elem_Address"><rect codeLine="166" fill="#F1F1F1" height="82.7603" id="Address" rx="0.775" ry="0.775" style="stroke:#181818;stroke-width:0.155;" width="77.5" x="281.635" y="12.4186"/><ellipse cx="311.0075" cy="17.3786" fill="#ADD1B2" rx="3.41" ry="3.41" style="stroke:#181818;stroke-width:0.31;"/><path d="M311.8648,16.0998 Q311.9133,16.032 311.9714,15.9981 Q312.0295,15.9642 312.0973,15.9642 Q312.2136,15.9642 312.2863,16.0466 Q312.3589,16.1241 312.3589,16.313 L312.3589,16.7634 Q312.3589,16.9523 312.2863,17.0347 Q312.2136,17.117 312.0973,17.117 Q311.9908,17.117 311.9278,17.0541 Q311.8648,16.9959 311.8309,16.8361 Q311.8164,16.7247 311.7583,16.6666 Q311.6566,16.5503 311.4677,16.4825 Q311.2788,16.4147 311.085,16.4147 Q310.8477,16.4147 310.6491,16.5164 Q310.4553,16.6181 310.3003,16.8506 Q310.1502,17.0831 310.1502,17.4028 L310.1502,17.7419 Q310.1502,18.1245 310.4263,18.3813 Q310.7023,18.6331 311.1964,18.6331 Q311.487,18.6331 311.6905,18.5556 Q311.8116,18.5072 311.9423,18.3716 Q312.0247,18.2892 312.0683,18.265 Q312.1167,18.2408 312.1797,18.2408 Q312.2814,18.2408 312.3589,18.3231 Q312.4413,18.4006 312.4413,18.5072 Q312.4413,18.6138 312.3347,18.7397 Q312.1797,18.9189 311.9327,19.0206 Q311.5984,19.1611 311.1964,19.1611 Q310.7266,19.1611 310.3536,18.9673 Q310.0484,18.8123 309.8353,18.483 Q309.6222,18.1488 309.6222,17.7516 L309.6222,17.3931 Q309.6222,16.9814 309.8111,16.6278 Q310.0048,16.2694 310.3439,16.0805 Q310.683,15.8867 311.0656,15.8867 Q311.2933,15.8867 311.4919,15.94 Q311.6953,15.9884 311.8648,16.0998 Z " fill="#000000"/><text fill="#000000" font-family="sans-serif" font-size="4.34" lengthAdjust="spacing" textLength="16.12" x="317.3625" y="18.8832">Address</text><line style="stroke:#181818;stroke-width:0.155;" x1="281.945" x2="358.825" y1="22.3386" y2="22.3386"/><text fill="#000000" font-family="sans-serif" font-size="4.34" lengthAdjust="spacing" textLength="26.66" x="283.495" y="27.5075">-street: String</text><text fill="#000000" font-family="sans-serif" font-size="4.34" lengthAdjust="spacing" textLength="22.01" x="283.495" y="32.3561">-city: String</text><text fill="#000000" font-family="sans-serif" font-size="4.34" lengthAdjust="spacing" textLength="25.11" x="283.495" y="37.2047">-state: String</text><text fill="#000000" font-family="sans-serif" font-size="4.34" lengthAdjust="spacing" textLength="31.31" x="283.495" y="42.0533">-zipCode: String</text><line style="stroke:#181818;stroke-width:0.31;" x1="281.945" x2="358.825" y1="44.213" y2="44.213"/><text fill="#000000" font-family="sans-serif" font-size="4.34" lengthAdjust="spacing" textLength="37.51" x="283.495" y="49.3819">+getStreet(): String</text><text fill="#000000" font-family="sans-serif" font-size="4.34" lengthAdjust="spacing" textLength="58.9" x="283.495" y="54.2305">+setStreet(street: String): void</text><text fill="#000000" font-family="sans-serif" font-size="4.34" lengthAdjust="spacing" textLength="33.17" x="283.495" y="59.079">+getCity(): String</text><text fill="#000000" font-family="sans-serif" font-size="4.34" lengthAdjust="spacing" textLength="49.91" x="283.495" y="63.9276">+setCity(city: String): void</text><text fill="#000000" font-family="sans-serif" font-size="4.34" lengthAdjust="spacing" textLength="35.96" x="283.495" y="68.7762">+getState(): String</text><text fill="#000000" font-family="sans-serif" font-size="4.34" lengthAdjust="spacing" textLength="55.8" x="283.495" y="73.6248">+setState(state: String): void</text><text fill="#000000" font-family="sans-serif" font-size="4.34" lengthAdjust="spacing" textLength="42.16" x="283.495" y="78.4734">+getZipCode(): String</text><text fill="#000000" font-family="sans-serif" font-size="4.34" lengthAdjust="spacing" textLength="68.2" x="283.495" y="83.322">+setZipCode(zipCode: String): void</text><text fill="#000000" font-family="sans-serif" font-size="4.34" lengthAdjust="spacing" textLength="34.72" x="283.495" y="88.1706">+toString(): String</text><text fill="#000000" font-family="sans-serif" font-size="4.34" lengthAdjust="spacing" textLength="73.78" x="283.495" y="93.0192">+equals(address2: Address): boolean</text></g><!--class PropertyTypeRepository--><g id="elem_PropertyTypeRepository"><rect codeLine="185" fill="#F1F1F1" height="29.4258" id="PropertyTypeRepository" rx="0.775" ry="0.775" style="stroke:#181818;stroke-width:0.155;" width="65.72" x="400.675" y="198.7286"/><ellipse cx="408.952" cy="203.6886" fill="#ADD1B2" rx="3.41" ry="3.41" style="stroke:#181818;stroke-width:0.31;"/><path d="M409.8093,202.4098 Q409.8578,202.342 409.9159,202.3081 Q409.974,202.2742 410.0418,202.2742 Q410.1581,202.2742 410.2308,202.3566 Q410.3034,202.4341 410.3034,202.623 L410.3034,203.0734 Q410.3034,203.2623 410.2308,203.3447 Q410.1581,203.427 410.0418,203.427 Q409.9353,203.427 409.8723,203.3641 Q409.8093,203.3059 409.7754,203.1461 Q409.7609,203.0347 409.7028,202.9766 Q409.6011,202.8603 409.4122,202.7925 Q409.2233,202.7247 409.0295,202.7247 Q408.7922,202.7247 408.5936,202.8264 Q408.3998,202.9281 408.2448,203.1606 Q408.0947,203.3931 408.0947,203.7128 L408.0947,204.0519 Q408.0947,204.4345 408.3708,204.6913 Q408.6468,204.9431 409.1409,204.9431 Q409.4315,204.9431 409.635,204.8656 Q409.7561,204.8172 409.8868,204.6816 Q409.9692,204.5992 410.0128,204.575 Q410.0612,204.5508 410.1242,204.5508 Q410.2259,204.5508 410.3034,204.6331 Q410.3858,204.7106 410.3858,204.8172 Q410.3858,204.9238 410.2792,205.0497 Q410.1242,205.2289 409.8772,205.3306 Q409.5429,205.4711 409.1409,205.4711 Q408.6711,205.4711 408.2981,205.2773 Q407.9929,205.1223 407.7798,204.793 Q407.5667,204.4588 407.5667,204.0616 L407.5667,203.7031 Q407.5667,203.2914 407.7556,202.9378 Q407.9493,202.5794 408.2884,202.3905 Q408.6275,202.1967 409.0101,202.1967 Q409.2378,202.1967 409.4364,202.25 Q409.6398,202.2984 409.8093,202.4098 Z " fill="#000000"/><text fill="#000000" font-family="sans-serif" font-size="4.34" lengthAdjust="spacing" textLength="47.74" x="414.098" y="205.1932">PropertyTypeRepository</text><line style="stroke:#181818;stroke-width:0.155;" x1="400.985" x2="466.085" y1="208.6486" y2="208.6486"/><text fill="#000000" font-family="sans-serif" font-size="4.34" lengthAdjust="spacing" textLength="46.5" x="402.535" y="213.8175">-propertyTypes: String[]</text><line style="stroke:#181818;stroke-width:0.31;" x1="400.985" x2="466.085" y1="215.9772" y2="215.9772"/><text fill="#000000" font-family="sans-serif" font-size="4.34" lengthAdjust="spacing" textLength="62" x="402.535" y="221.1461">+getPropertyType(n: int): String</text><text fill="#000000" font-family="sans-serif" font-size="4.34" lengthAdjust="spacing" textLength="62" x="402.535" y="225.9947">+displayPropertyTypes(): String</text></g><!--class Photo--><g id="elem_Photo"><rect codeLine="193" fill="#F1F1F1" height="48.8202" id="Photo" rx="0.775" ry="0.775" style="stroke:#181818;stroke-width:0.155;" width="75.95" x="374.79" y="29.4686"/><ellipse cx="405.7125" cy="34.4286" fill="#ADD1B2" rx="3.41" ry="3.41" style="stroke:#181818;stroke-width:0.31;"/><path d="M406.5698,33.1498 Q406.6183,33.082 406.6764,33.0481 Q406.7345,33.0142 406.8023,33.0142 Q406.9186,33.0142 406.9913,33.0966 Q407.0639,33.1741 407.0639,33.363 L407.0639,33.8134 Q407.0639,34.0023 406.9913,34.0847 Q406.9186,34.167 406.8023,34.167 Q406.6958,34.167 406.6328,34.1041 Q406.5698,34.0459 406.5359,33.8861 Q406.5214,33.7747 406.4633,33.7166 Q406.3616,33.6003 406.1727,33.5325 Q405.9838,33.4647 405.79,33.4647 Q405.5527,33.4647 405.3541,33.5664 Q405.1603,33.6681 405.0053,33.9006 Q404.8552,34.1331 404.8552,34.4528 L404.8552,34.7919 Q404.8552,35.1745 405.1313,35.4313 Q405.4073,35.6831 405.9014,35.6831 Q406.192,35.6831 406.3955,35.6056 Q406.5166,35.5572 406.6473,35.4216 Q406.7297,35.3392 406.7733,35.315 Q406.8217,35.2908 406.8847,35.2908 Q406.9864,35.2908 407.0639,35.3731 Q407.1463,35.4506 407.1463,35.5572 Q407.1463,35.6638 407.0397,35.7897 Q406.8847,35.9689 406.6377,36.0706 Q406.3034,36.2111 405.9014,36.2111 Q405.4316,36.2111 405.0586,36.0173 Q404.7534,35.8623 404.5403,35.533 Q404.3272,35.1988 404.3272,34.8016 L404.3272,34.4431 Q404.3272,34.0314 404.5161,33.6778 Q404.7098,33.3194 405.0489,33.1305 Q405.388,32.9367 405.7706,32.9367 Q405.9983,32.9367 406.1969,32.99 Q406.4003,33.0384 406.5698,33.1498 Z " fill="#000000"/><text fill="#000000" font-family="sans-serif" font-size="4.34" lengthAdjust="spacing" textLength="11.47" x="412.0675" y="35.9332">Photo</text><line style="stroke:#181818;stroke-width:0.155;" x1="375.1" x2="450.43" y1="39.3886" y2="39.3886"/><text fill="#000000" font-family="sans-serif" font-size="4.34" lengthAdjust="spacing" textLength="23.87" x="376.65" y="44.5575">-photoID: int</text><text fill="#000000" font-family="sans-serif" font-size="4.34" lengthAdjust="spacing" textLength="33.48" x="376.65" y="49.4061">-photoURI: String</text><line style="stroke:#181818;stroke-width:0.31;" x1="375.1" x2="450.43" y1="51.5658" y2="51.5658"/><text fill="#000000" font-family="sans-serif" font-size="4.34" lengthAdjust="spacing" textLength="34.41" x="376.65" y="56.7347">+getPhotoID(): int</text><text fill="#000000" font-family="sans-serif" font-size="4.34" lengthAdjust="spacing" textLength="59.83" x="376.65" y="61.5833">+setPhotoID(photoID: int): void</text><text fill="#000000" font-family="sans-serif" font-size="4.34" lengthAdjust="spacing" textLength="44.02" x="376.65" y="66.4319">+getPhotoURI(): String</text><text fill="#000000" font-family="sans-serif" font-size="4.34" lengthAdjust="spacing" textLength="72.23" x="376.65" y="71.2805">+setPhotoURI(photoURI: String): void</text><text fill="#000000" font-family="sans-serif" font-size="4.34" lengthAdjust="spacing" textLength="34.72" x="376.65" y="76.129">+toString(): String</text></g><!--class Building--><g id="elem_Building"><rect codeLine="205" fill="#F1F1F1" height="68.2145" id="Building" rx="0.775" ry="0.775" style="stroke:#181818;stroke-width:0.155;" width="91.45" x="237.15" y="327.0686"/><ellipse cx="273.8075" cy="332.0286" fill="#ADD1B2" rx="3.41" ry="3.41" style="stroke:#181818;stroke-width:0.31;"/><path d="M274.6648,330.7499 Q274.7133,330.682 274.7714,330.6481 Q274.8295,330.6142 274.8973,330.6142 Q275.0136,330.6142 275.0863,330.6966 Q275.1589,330.7741 275.1589,330.963 L275.1589,331.4134 Q275.1589,331.6024 275.0863,331.6847 Q275.0136,331.767 274.8973,331.767 Q274.7908,331.767 274.7278,331.7041 Q274.6648,331.6459 274.6309,331.4861 Q274.6164,331.3747 274.5583,331.3166 Q274.4566,331.2003 274.2677,331.1325 Q274.0788,331.0647 273.885,331.0647 Q273.6477,331.0647 273.4491,331.1664 Q273.2553,331.2681 273.1003,331.5006 Q272.9502,331.7331 272.9502,332.0528 L272.9502,332.3919 Q272.9502,332.7745 273.2263,333.0313 Q273.5023,333.2831 273.9964,333.2831 Q274.287,333.2831 274.4905,333.2056 Q274.6116,333.1572 274.7423,333.0216 Q274.8247,332.9392 274.8683,332.915 Q274.9167,332.8908 274.9797,332.8908 Q275.0814,332.8908 275.1589,332.9731 Q275.2413,333.0506 275.2413,333.1572 Q275.2413,333.2638 275.1347,333.3897 Q274.9797,333.5689 274.7327,333.6706 Q274.3984,333.8111 273.9964,333.8111 Q273.5266,333.8111 273.1536,333.6174 Q272.8484,333.4623 272.6353,333.133 Q272.4222,332.7988 272.4222,332.4016 L272.4222,332.0431 Q272.4222,331.6314 272.6111,331.2778 Q272.8048,330.9194 273.1439,330.7305 Q273.483,330.5367 273.8656,330.5367 Q274.0933,330.5367 274.2919,330.59 Q274.4953,330.6384 274.6648,330.7499 Z " fill="#000000"/><text fill="#000000" font-family="sans-serif" font-size="4.34" lengthAdjust="spacing" textLength="15.5" x="280.1625" y="333.5332">Building</text><line style="stroke:#181818;stroke-width:0.155;" x1="237.46" x2="328.29" y1="336.9886" y2="336.9886"/><text fill="#000000" font-family="sans-serif" font-size="4.34" lengthAdjust="spacing" textLength="28.21" x="239.01" y="342.1575">-bedrooms: int</text><text fill="#000000" font-family="sans-serif" font-size="4.34" lengthAdjust="spacing" textLength="29.45" x="239.01" y="347.0061">-bathrooms: int</text><text fill="#000000" font-family="sans-serif" font-size="4.34" lengthAdjust="spacing" textLength="37.82" x="239.01" y="351.8547">-parkingSpaces: int</text><text fill="#000000" font-family="sans-serif" font-size="4.34" lengthAdjust="spacing" textLength="45.26" x="239.01" y="356.7033">-equipment: Equipment</text><line style="stroke:#181818;stroke-width:0.31;" x1="237.46" x2="328.29" y1="358.863" y2="358.863"/><text fill="#000000" font-family="sans-serif" font-size="4.34" lengthAdjust="spacing" textLength="39.99" x="239.01" y="364.0319">+getBathrooms(): int</text><text fill="#000000" font-family="sans-serif" font-size="4.34" lengthAdjust="spacing" textLength="70.99" x="239.01" y="368.8805">+setBathrooms(bathrooms: int): void</text><text fill="#000000" font-family="sans-serif" font-size="4.34" lengthAdjust="spacing" textLength="38.75" x="239.01" y="373.729">+getBedrooms(): int</text><text fill="#000000" font-family="sans-serif" font-size="4.34" lengthAdjust="spacing" textLength="68.51" x="239.01" y="378.5776">+setBedrooms(bedrooms: int): void</text><text fill="#000000" font-family="sans-serif" font-size="4.34" lengthAdjust="spacing" textLength="48.36" x="239.01" y="383.4262">+getParkingSpaces(): int</text><text fill="#000000" font-family="sans-serif" font-size="4.34" lengthAdjust="spacing" textLength="87.73" x="239.01" y="388.2748">+setParkingSpaces(parkingSpaces: int): void</text><text fill="#000000" font-family="sans-serif" font-size="4.34" lengthAdjust="spacing" textLength="34.72" x="239.01" y="393.1234">+toString(): String</text></g><!--class Equipment--><g id="elem_Equipment"><rect codeLine="221" fill="#F1F1F1" height="48.8202" id="Equipment" rx="0.775" ry="0.775" style="stroke:#181818;stroke-width:0.155;" width="98.89" x="288.92" y="421.4636"/><ellipse cx="326.6625" cy="426.4236" fill="#ADD1B2" rx="3.41" ry="3.41" style="stroke:#181818;stroke-width:0.31;"/><path d="M327.5198,425.1448 Q327.5683,425.077 327.6264,425.0431 Q327.6845,425.0092 327.7523,425.0092 Q327.8686,425.0092 327.9413,425.0916 Q328.0139,425.1691 328.0139,425.358 L328.0139,425.8084 Q328.0139,425.9974 327.9413,426.0797 Q327.8686,426.162 327.7523,426.162 Q327.6458,426.162 327.5828,426.0991 Q327.5198,426.0409 327.4859,425.8811 Q327.4714,425.7697 327.4133,425.7116 Q327.3116,425.5953 327.1227,425.5275 Q326.9338,425.4597 326.74,425.4597 Q326.5027,425.4597 326.3041,425.5614 Q326.1103,425.6631 325.9553,425.8956 Q325.8052,426.1281 325.8052,426.4478 L325.8052,426.7869 Q325.8052,427.1695 326.0813,427.4263 Q326.3573,427.6781 326.8514,427.6781 Q327.142,427.6781 327.3455,427.6006 Q327.4666,427.5522 327.5973,427.4166 Q327.6797,427.3342 327.7233,427.31 Q327.7717,427.2858 327.8347,427.2858 Q327.9364,427.2858 328.0139,427.3681 Q328.0963,427.4456 328.0963,427.5522 Q328.0963,427.6588 327.9897,427.7847 Q327.8347,427.9639 327.5877,428.0656 Q327.2534,428.2061 326.8514,428.2061 Q326.3816,428.2061 326.0086,428.0123 Q325.7034,427.8574 325.4903,427.528 Q325.2772,427.1938 325.2772,426.7966 L325.2772,426.4381 Q325.2772,426.0264 325.4661,425.6728 Q325.6598,425.3144 325.9989,425.1255 Q326.338,424.9317 326.7206,424.9317 Q326.9483,424.9317 327.1469,424.985 Q327.3503,425.0334 327.5198,425.1448 Z " fill="#000000"/><text fill="#000000" font-family="sans-serif" font-size="4.34" lengthAdjust="spacing" textLength="20.77" x="333.0175" y="427.9282">Equipment</text><line style="stroke:#181818;stroke-width:0.155;" x1="289.23" x2="387.5" y1="431.3836" y2="431.3836"/><text fill="#000000" font-family="sans-serif" font-size="4.34" lengthAdjust="spacing" textLength="44.95" x="290.78" y="436.5525">-airConditioning: String</text><text fill="#000000" font-family="sans-serif" font-size="4.34" lengthAdjust="spacing" textLength="43.71" x="290.78" y="441.4011">-centralHeating: String</text><line style="stroke:#181818;stroke-width:0.31;" x1="289.23" x2="387.5" y1="443.5608" y2="443.5608"/><text fill="#000000" font-family="sans-serif" font-size="4.34" lengthAdjust="spacing" textLength="55.49" x="290.78" y="448.7297">+getAirConditioning(): String</text><text fill="#000000" font-family="sans-serif" font-size="4.34" lengthAdjust="spacing" textLength="54.87" x="290.78" y="453.5783">+getCentralHeating(): String</text><text fill="#000000" font-family="sans-serif" font-size="4.34" lengthAdjust="spacing" textLength="95.17" x="290.78" y="458.4269">+setAirConditioning(airConditioning: String): void</text><text fill="#000000" font-family="sans-serif" font-size="4.34" lengthAdjust="spacing" textLength="93.31" x="290.78" y="463.2755">+setCentralHeating(centralHeating: String): void</text><text fill="#000000" font-family="sans-serif" font-size="4.34" lengthAdjust="spacing" textLength="34.72" x="290.78" y="468.124">+toString(): String</text></g><!--class House--><g id="elem_House"><rect codeLine="233" fill="#F1F1F1" height="63.3659" id="House" rx="0.775" ry="0.775" style="stroke:#181818;stroke-width:0.155;" width="91.14" x="182.125" y="414.1786"/><ellipse cx="220.1775" cy="419.1386" fill="#ADD1B2" rx="3.41" ry="3.41" style="stroke:#181818;stroke-width:0.31;"/><path d="M221.0348,417.8599 Q221.0833,417.792 221.1414,417.7581 Q221.1995,417.7242 221.2673,417.7242 Q221.3836,417.7242 221.4563,417.8066 Q221.5289,417.8841 221.5289,418.073 L221.5289,418.5234 Q221.5289,418.7123 221.4563,418.7947 Q221.3836,418.877 221.2673,418.877 Q221.1608,418.877 221.0978,418.8141 Q221.0348,418.7559 221.0009,418.5961 Q220.9864,418.4847 220.9283,418.4266 Q220.8266,418.3103 220.6377,418.2425 Q220.4488,418.1747 220.255,418.1747 Q220.0177,418.1747 219.8191,418.2764 Q219.6253,418.3781 219.4703,418.6106 Q219.3202,418.8431 219.3202,419.1628 L219.3202,419.5019 Q219.3202,419.8845 219.5963,420.1413 Q219.8723,420.3931 220.3664,420.3931 Q220.657,420.3931 220.8605,420.3156 Q220.9816,420.2672 221.1123,420.1316 Q221.1947,420.0492 221.2383,420.025 Q221.2867,420.0008 221.3497,420.0008 Q221.4514,420.0008 221.5289,420.0831 Q221.6113,420.1606 221.6113,420.2672 Q221.6113,420.3738 221.5047,420.4997 Q221.3497,420.6789 221.1027,420.7806 Q220.7684,420.9211 220.3664,420.9211 Q219.8966,420.9211 219.5236,420.7274 Q219.2184,420.5724 219.0053,420.243 Q218.7922,419.9088 218.7922,419.5116 L218.7922,419.1531 Q218.7922,418.7414 218.9811,418.3878 Q219.1748,418.0294 219.5139,417.8405 Q219.853,417.6467 220.2356,417.6467 Q220.4633,417.6467 220.6619,417.7 Q220.8653,417.7484 221.0348,417.8599 Z " fill="#000000"/><text fill="#000000" font-family="sans-serif" font-size="4.34" lengthAdjust="spacing" textLength="12.4" x="226.5325" y="420.6432">House</text><line style="stroke:#181818;stroke-width:0.155;" x1="182.435" x2="272.955" y1="424.0986" y2="424.0986"/><text fill="#000000" font-family="sans-serif" font-size="4.34" lengthAdjust="spacing" textLength="39.06" x="183.985" y="429.2675">-basement: boolean</text><text fill="#000000" font-family="sans-serif" font-size="4.34" lengthAdjust="spacing" textLength="25.73" x="183.985" y="434.1161">-loft: boolean</text><text fill="#000000" font-family="sans-serif" font-size="4.34" lengthAdjust="spacing" textLength="40.92" x="183.985" y="438.9647">-sunExposure: String</text><line style="stroke:#181818;stroke-width:0.31;" x1="182.435" x2="272.955" y1="441.1244" y2="441.1244"/><text fill="#000000" font-family="sans-serif" font-size="4.34" lengthAdjust="spacing" textLength="79.05" x="183.985" y="446.2933">+setBasement(basement: boolean): void</text><text fill="#000000" font-family="sans-serif" font-size="4.34" lengthAdjust="spacing" textLength="49.6" x="183.985" y="451.1419">+getBasement(): boolean</text><text fill="#000000" font-family="sans-serif" font-size="4.34" lengthAdjust="spacing" textLength="53.63" x="183.985" y="455.9905">+setLoft(loft: boolean): void</text><text fill="#000000" font-family="sans-serif" font-size="4.34" lengthAdjust="spacing" textLength="37.51" x="183.985" y="460.839">+getLoft(): boolean</text><text fill="#000000" font-family="sans-serif" font-size="4.34" lengthAdjust="spacing" textLength="51.77" x="183.985" y="465.6876">+getSunExposure(): String</text><text fill="#000000" font-family="sans-serif" font-size="4.34" lengthAdjust="spacing" textLength="87.42" x="183.985" y="470.5362">+setSunExposure(sunExposure: String): void</text><text fill="#000000" font-family="sans-serif" font-size="4.34" lengthAdjust="spacing" textLength="34.72" x="183.985" y="475.3848">+toString(): String</text></g><!--class CommissionDetails--><g id="elem_CommissionDetails"><rect codeLine="249" fill="#F1F1F1" height="39.123" id="CommissionDetails" rx="0.775" ry="0.775" style="stroke:#181818;stroke-width:0.155;" width="66.65" x="103.54" y="193.9236"/><ellipse cx="117.118" cy="198.8836" fill="#ADD1B2" rx="3.41" ry="3.41" style="stroke:#181818;stroke-width:0.31;"/><path d="M117.9753,197.6048 Q118.0238,197.537 118.0819,197.5031 Q118.14,197.4692 118.2078,197.4692 Q118.3241,197.4692 118.3968,197.5516 Q118.4694,197.6291 118.4694,197.818 L118.4694,198.2684 Q118.4694,198.4574 118.3968,198.5397 Q118.3241,198.622 118.2078,198.622 Q118.1013,198.622 118.0383,198.5591 Q117.9753,198.5009 117.9414,198.3411 Q117.9269,198.2297 117.8688,198.1716 Q117.7671,198.0553 117.5782,197.9875 Q117.3893,197.9197 117.1955,197.9197 Q116.9582,197.9197 116.7596,198.0214 Q116.5658,198.1231 116.4108,198.3556 Q116.2607,198.5881 116.2607,198.9078 L116.2607,199.2469 Q116.2607,199.6295 116.5368,199.8863 Q116.8128,200.1381 117.3069,200.1381 Q117.5975,200.1381 117.801,200.0606 Q117.9221,200.0122 118.0528,199.8766 Q118.1352,199.7942 118.1788,199.77 Q118.2272,199.7458 118.2902,199.7458 Q118.3919,199.7458 118.4694,199.8281 Q118.5518,199.9056 118.5518,200.0122 Q118.5518,200.1188 118.4452,200.2447 Q118.2902,200.4239 118.0432,200.5256 Q117.7089,200.6661 117.3069,200.6661 Q116.8371,200.6661 116.4641,200.4723 Q116.1589,200.3173 115.9458,199.988 Q115.7327,199.6538 115.7327,199.2566 L115.7327,198.8981 Q115.7327,198.4864 115.9216,198.1328 Q116.1153,197.7744 116.4544,197.5855 Q116.7935,197.3917 117.1761,197.3917 Q117.4038,197.3917 117.6024,197.445 Q117.8058,197.4934 117.9753,197.6048 Z " fill="#000000"/><text fill="#000000" font-family="sans-serif" font-size="4.34" lengthAdjust="spacing" textLength="36.89" x="123.442" y="200.3882">CommissionDetails</text><line style="stroke:#181818;stroke-width:0.155;" x1="103.85" x2="169.88" y1="203.8436" y2="203.8436"/><text fill="#000000" font-family="sans-serif" font-size="4.34" lengthAdjust="spacing" textLength="48.05" x="105.4" y="209.0125">-commissionType: String</text><text fill="#000000" font-family="sans-serif" font-size="4.34" lengthAdjust="spacing" textLength="51.77" x="105.4" y="213.8611">-commissionValue: Double</text><line style="stroke:#181818;stroke-width:0.31;" x1="103.85" x2="169.88" y1="216.0208" y2="216.0208"/><text fill="#000000" font-family="sans-serif" font-size="4.34" lengthAdjust="spacing" textLength="34.72" x="105.4" y="221.1897">+toString(): String</text><text fill="#000000" font-family="sans-serif" font-size="4.34" lengthAdjust="spacing" textLength="62.93" x="105.4" y="226.0383">+getCommissionValue(): Double</text><text fill="#000000" font-family="sans-serif" font-size="4.34" lengthAdjust="spacing" textLength="59.21" x="105.4" y="230.8869">+getCommissionType(): String</text></g><!--class Land--><g id="elem_Land"><rect fill="#F1F1F1" height="14.88" id="Land" rx="0.775" ry="0.775" style="stroke:#181818;stroke-width:0.155;" width="19.84" x="68.045" y="206.0136"/><ellipse cx="72.695" cy="210.9736" fill="#ADD1B2" rx="3.41" ry="3.41" style="stroke:#181818;stroke-width:0.31;"/><path d="M73.5523,209.6948 Q73.6008,209.627 73.6589,209.5931 Q73.717,209.5592 73.7848,209.5592 Q73.9011,209.5592 73.9738,209.6416 Q74.0464,209.7191 74.0464,209.908 L74.0464,210.3584 Q74.0464,210.5474 73.9738,210.6297 Q73.9011,210.712 73.7848,210.712 Q73.6783,210.712 73.6153,210.6491 Q73.5523,210.5909 73.5184,210.4311 Q73.5039,210.3197 73.4458,210.2616 Q73.3441,210.1453 73.1552,210.0775 Q72.9663,210.0097 72.7725,210.0097 Q72.5352,210.0097 72.3366,210.1114 Q72.1428,210.2131 71.9878,210.4456 Q71.8377,210.6781 71.8377,210.9978 L71.8377,211.3369 Q71.8377,211.7195 72.1138,211.9763 Q72.3898,212.2281 72.8839,212.2281 Q73.1745,212.2281 73.378,212.1506 Q73.4991,212.1022 73.6298,211.9666 Q73.7122,211.8842 73.7558,211.86 Q73.8042,211.8358 73.8672,211.8358 Q73.9689,211.8358 74.0464,211.9181 Q74.1288,211.9956 74.1288,212.1022 Q74.1288,212.2088 74.0222,212.3347 Q73.8672,212.5139 73.6202,212.6156 Q73.2859,212.7561 72.8839,212.7561 Q72.4141,212.7561 72.0411,212.5623 Q71.7359,212.4073 71.5228,212.078 Q71.3097,211.7438 71.3097,211.3466 L71.3097,210.9881 Q71.3097,210.5764 71.4986,210.2228 Q71.6923,209.8644 72.0314,209.6755 Q72.3705,209.4817 72.7531,209.4817 Q72.9808,209.4817 73.1794,209.535 Q73.3828,209.5834 73.5523,209.6948 Z " fill="#000000"/><text fill="#000000" font-family="sans-serif" font-size="4.34" lengthAdjust="spacing" textLength="9.92" x="77.035" y="212.4782">Land</text><line style="stroke:#181818;stroke-width:0.155;" x1="68.355" x2="87.575" y1="215.9336" y2="215.9336"/><line style="stroke:#181818;stroke-width:0.155;" x1="68.355" x2="87.575" y1="218.4136" y2="218.4136"/></g><!--class Apartment--><g id="elem_Apartment"><rect fill="#F1F1F1" height="14.88" id="Apartment" rx="0.775" ry="0.775" style="stroke:#181818;stroke-width:0.155;" width="30.07" x="358.98" y="353.7286"/><ellipse cx="363.63" cy="358.6886" fill="#ADD1B2" rx="3.41" ry="3.41" style="stroke:#181818;stroke-width:0.31;"/><path d="M364.4873,357.4099 Q364.5358,357.342 364.5939,357.3081 Q364.652,357.2742 364.7198,357.2742 Q364.8361,357.2742 364.9088,357.3566 Q364.9814,357.4341 364.9814,357.623 L364.9814,358.0734 Q364.9814,358.2623 364.9088,358.3447 Q364.8361,358.427 364.7198,358.427 Q364.6133,358.427 364.5503,358.3641 Q364.4873,358.3059 364.4534,358.1461 Q364.4389,358.0347 364.3808,357.9766 Q364.2791,357.8603 364.0902,357.7925 Q363.9013,357.7247 363.7075,357.7247 Q363.4702,357.7247 363.2716,357.8264 Q363.0778,357.9281 362.9228,358.1606 Q362.7727,358.3931 362.7727,358.7128 L362.7727,359.0519 Q362.7727,359.4345 363.0488,359.6913 Q363.3248,359.9431 363.8189,359.9431 Q364.1095,359.9431 364.313,359.8656 Q364.4341,359.8172 364.5648,359.6816 Q364.6472,359.5992 364.6908,359.575 Q364.7392,359.5508 364.8022,359.5508 Q364.9039,359.5508 364.9814,359.6331 Q365.0637,359.7106 365.0637,359.8172 Q365.0637,359.9238 364.9572,360.0497 Q364.8022,360.2289 364.5552,360.3306 Q364.2209,360.4711 363.8189,360.4711 Q363.3491,360.4711 362.9761,360.2773 Q362.6709,360.1224 362.4578,359.793 Q362.2447,359.4588 362.2447,359.0616 L362.2447,358.7031 Q362.2447,358.2914 362.4336,357.9378 Q362.6273,357.5794 362.9664,357.3905 Q363.3055,357.1967 363.6881,357.1967 Q363.9158,357.1967 364.1144,357.25 Q364.3178,357.2984 364.4873,357.4099 Z " fill="#000000"/><text fill="#000000" font-family="sans-serif" font-size="4.34" lengthAdjust="spacing" textLength="20.15" x="367.97" y="360.1932">Apartment</text><line style="stroke:#181818;stroke-width:0.155;" x1="359.29" x2="388.74" y1="363.6486" y2="363.6486"/><line style="stroke:#181818;stroke-width:0.155;" x1="359.29" x2="388.74" y1="366.1286" y2="366.1286"/></g><!--reverse link LandRepository to Property--><g id="link_LandRepository_Property"><path codeLine="261" d="M127.0225,79.6452 C132.3762,90.1449 139.8627,101.649 149.575,109.4486 C159.867,117.7163 166.3615,112.1301 177.785,118.7486 C186.8029,123.9752 195.7247,130.0667 204.3303,136.5922 " fill="none" id="LandRepository-backto-Property" style="stroke:#181818;stroke-width:0.31;"/><polygon fill="#181818" points="126.3126,78.2378,126.4668,81.287,127.0129,79.6206,128.6793,80.1666,126.3126,78.2378" style="stroke:#181818;stroke-width:0.31;"/></g><!--reverse link HouseRepository to Property--><g id="link_HouseRepository_Property"><path codeLine="262" d="M58.6954,79.329 C64.8892,85.2717 72.013,91.0718 79.515,95.1886 C89.3575,100.5919 167.8433,113.5282 177.785,118.7486 C186.8494,123.5102 195.7526,129.2266 204.3055,135.4638 " fill="none" id="HouseRepository-backto-Property" style="stroke:#181818;stroke-width:0.31;"/><polygon fill="#181818" points="57.4678,78.1386,58.604,80.9725,58.5792,79.219,60.3327,79.1942,57.4678,78.1386" style="stroke:#181818;stroke-width:0.31;"/></g><!--link Property to ApartmentRepository--><g id="link_Property_ApartmentRepository"><path codeLine="263" d="M361.3825,129.0499 C373.6306,120.0754 386.8459,112.2913 400.675,106.9686 C427.9333,96.4751 440.6836,93.1085 466.395,106.9686 C497.3702,123.6683 515.5672,161.7859 524.7649,187.5841 " fill="none" id="Property-to-ApartmentRepository" style="stroke:#181818;stroke-width:0.31;"/><polygon fill="#181818" points="525.3012,189.1093,525.5458,186.066,524.7872,187.647,523.2061,186.8884,525.3012,189.1093" style="stroke:#181818;stroke-width:0.31;"/></g><!--reverse link LandRepository to Controller--><g id="link_LandRepository_Controller"><path codeLine="265" d="M136.0683,24.6791 C142.9565,17.205 151.4939,10.4997 161.355,7.7686 C182.683,1.86 538.2716,2.263 559.705,7.7686 C573.4783,11.3057 587.4159,17.639 599.8624,24.4993 " fill="none" id="LandRepository-backto-Controller" style="stroke:#181818;stroke-width:0.31;"/><polygon fill="none" points="137.6865,26.1237,131.9949,29.4035,134.4005,23.2903,137.6865,26.1237" style="stroke:#181818;stroke-width:0.31;"/></g><!--reverse link HouseRepository to Controller--><g id="link_HouseRepository_Controller"><path codeLine="266" d="M59.5696,24.8961 C67.3537,17.4282 76.7839,10.6702 87.265,7.7686 C99.913,4.2656 546.995,4.5043 559.705,7.7686 C573.4783,11.3057 587.4159,17.639 599.8624,24.4993 " fill="none" id="HouseRepository-backto-Controller" style="stroke:#181818;stroke-width:0.31;"/><polygon fill="none" points="61.0793,26.4554,55.1831,29.3508,57.9855,23.4112,61.0793,26.4554" style="stroke:#181818;stroke-width:0.31;"/></g><!--link Controller to ApartmentRepository--><g id="link_Controller_ApartmentRepository"><path codeLine="267" d="M618.3663,83.1606 C609.3236,94.0757 599.2486,106.7454 590.705,118.7486 C575.7382,139.779 560.4676,164.6596 549.3169,183.5975 " fill="none" id="Controller-to-ApartmentRepository" style="stroke:#181818;stroke-width:0.31;"/><polygon fill="none" points="551.1428,184.7693,546.1394,189.0225,547.398,182.5745,551.1428,184.7693" style="stroke:#181818;stroke-width:0.31;"/></g><!--link CommissionDetails to Property--><g id="link_CommissionDetails_Property"><path codeLine="270" d="M170.2706,213.4536 C180.5843,213.4536 192.4077,213.4536 204.4295,213.4536 " fill="none" id="CommissionDetails-Property" style="stroke:#181818;stroke-width:0.31;"/><text fill="#000000" font-family="sans-serif" font-size="4.03" lengthAdjust="spacing" textLength="18.29" x="178.1725" y="211.5219">comission</text></g><!--link Controller to Repositories--><g id="link_Controller_Repositories"><path codeLine="272" d="M695.7268,83.111 C703.5915,87.2681 711.6484,91.4097 719.355,95.1886 C742.6174,106.5966 754.4191,100.3656 772.675,118.7486 C795.1407,141.3724 806.1705,178.3399 810.7926,198.648 " fill="none" id="Controller-Repositories" style="stroke:#181818;stroke-width:0.31;"/></g><!--link Repositories to AuthorizationRepository--><g id="link_Repositories_AuthorizationRepository"><path codeLine="273" d="M813.595,228.2716 C813.595,258.168 813.595,325.9526 813.595,351.1711 " fill="none" id="Repositories-AuthorizationRepository" style="stroke:#181818;stroke-width:0.31;"/></g><!--link AuthorizationRepository to UserSession--><g id="link_AuthorizationRepository_UserSession"><path codeLine="274" d="M813.595,371.1165 C813.595,385.8136 813.595,413.9213 813.595,431.0612 " fill="none" id="AuthorizationRepository-UserSession" style="stroke:#181818;stroke-width:0.31;"/></g><!--link Land to Property--><g id="link_Land_Property"><path codeLine="276" d="M76.6537,205.8834 C74.0373,187.9778 70.4165,142.9627 95.635,122.1586 C127.3449,95.9977 167.8061,111.0668 202.9973,135.9071 " fill="none" id="Land-to-Property" style="stroke:#181818;stroke-width:0.31;"/><polygon fill="#181818" points="204.3551,136.8712,202.7959,134.2462,203.0905,135.9749,201.3618,136.2695,204.3551,136.8712" style="stroke:#181818;stroke-width:0.31;"/><text fill="#000000" font-family="sans-serif" font-size="4.03" lengthAdjust="spacing" textLength="14.26" x="153.605" y="108.4469">extends</text></g><!--link Apartment to Building--><g id="link_Apartment_Building"><path codeLine="277" d="M358.9676,361.1686 C351.0161,361.1686 340.7644,361.1686 330.3794,361.1686 " fill="none" id="Apartment-to-Building" style="stroke:#181818;stroke-width:0.31;"/><polygon fill="#181818" points="328.7116,361.1686,331.5016,362.4086,330.2616,361.1686,331.5016,359.9286,328.7116,361.1686" style="stroke:#181818;stroke-width:0.31;"/><text fill="#000000" font-family="sans-serif" font-size="4.03" lengthAdjust="spacing" textLength="14.26" x="336.66" y="359.2369">extends</text></g><!--link ApprovePropertyUI to Controller--><g id="link_ApprovePropertyUI_Controller"><path codeLine="278" d="M559.6709,53.8036 C564.82,53.8036 569.9722,53.8036 575.1244,53.8036 " fill="none" id="ApprovePropertyUI-Controller" style="stroke:#181818;stroke-width:0.31;"/></g><!--link Property to PropertyTypeRepository--><g id="link_Property_PropertyTypeRepository"><path codeLine="280" d="M361.4042,213.4536 C375.2612,213.4536 388.9725,213.4536 400.6595,213.4536 " fill="none" id="Property-PropertyTypeRepository" style="stroke:#181818;stroke-width:0.31;"/><text fill="#000000" font-family="sans-serif" font-size="4.03" lengthAdjust="spacing" textLength="23.25" x="369.365" y="211.5219">propertyType</text></g><!--link Address to Property--><g id="link_Address_Property"><path codeLine="281" d="M310.6758,95.2754 C308.9398,102.6379 307.0674,110.577 305.1423,118.7331 " fill="none" id="Address-Property" style="stroke:#181818;stroke-width:0.31;stroke-dasharray:7.0,7.0;"/><text fill="#000000" font-family="sans-serif" font-size="4.03" lengthAdjust="spacing" textLength="14.26" x="291.2844" y="115.4696">address</text></g><!--link Building to Equipment--><g id="link_Building_Equipment"><path codeLine="282" d="M305.2043,395.2841 C310.6696,403.5611 316.4294,412.2783 321.5847,420.0841 " fill="none" id="Building-to-Equipment" style="stroke:#181818;stroke-width:0.31;stroke-dasharray:7.0,7.0;"/><polygon fill="#181818" points="322.4744,421.4295,321.9705,418.4182,321.6197,420.1364,319.9015,419.7857,322.4744,421.4295" style="stroke:#181818;stroke-width:0.31;"/><text fill="#000000" font-family="sans-serif" font-size="4.03" lengthAdjust="spacing" textLength="25.11" x="280.751" y="401.3752">equipmentList</text></g><!--link Photo to Property--><g id="link_Photo_Property"><path codeLine="283" d="M393.1079,78.182 C383.8885,89.4691 372.2449,103.726 359.9999,118.7145 " fill="none" id="Photo-Property" style="stroke:#181818;stroke-width:0.31;stroke-dasharray:7.0,7.0;"/><text fill="#000000" font-family="sans-serif" font-size="4.03" lengthAdjust="spacing" textLength="16.43" x="345.4003" y="115.4505">photoList</text></g><!--link Property to Building--><g id="link_Property_Building"><path codeLine="284" d="M282.875,308.1679 C282.875,314.1509 282.875,319.9355 282.875,325.3388 " fill="none" id="Property-to-Building" style="stroke:#181818;stroke-width:0.31;"/><polygon fill="#181818" points="282.875,327.0035,284.115,324.2135,282.875,325.4535,281.635,324.2135,282.875,327.0035" style="stroke:#181818;stroke-width:0.31;"/><text fill="#000000" font-family="sans-serif" font-size="4.03" lengthAdjust="spacing" textLength="14.26" x="268.4256" y="314.3915">extends</text></g><!--link Building to House--><g id="link_Building_House"><path codeLine="285" d="M260.6697,395.2841 C256.8846,401.0501 252.9569,407.03 249.1873,412.765 " fill="none" id="Building-to-House" style="stroke:#181818;stroke-width:0.31;"/><polygon fill="#181818" points="248.3379,414.0639,250.9068,412.414,249.1895,412.7688,248.8347,411.0514,248.3379,414.0639" style="stroke:#181818;stroke-width:0.31;"/><text fill="#000000" font-family="sans-serif" font-size="4.03" lengthAdjust="spacing" textLength="14.26" x="244.4387" y="401.3752">extends</text></g><!--link Controller to SendEmail--><g id="link_Controller_SendEmail"><path codeLine="286" d="M641.7031,83.1885 C639.7997,115.7726 636.7679,167.5984 635.1714,194.9156 " fill="none" id="Controller-to-SendEmail" style="stroke:#181818;stroke-width:0.31;"/><polygon fill="none" points="637.3352,195.0861,634.8056,201.1497,633.0014,194.835,637.3352,195.0861" style="stroke:#181818;stroke-width:0.31;"/></g><!--link TypeOfTransaction to Property--><g id="link_TypeOfTransaction_Property"><path codeLine="287" d="M224.2075,78.182 C229.1148,89.4691 235.3117,103.726 241.8279,118.7145 " fill="none" id="TypeOfTransaction-Property" style="stroke:#181818;stroke-width:0.31;stroke-dasharray:7.0,7.0;"/><text fill="#000000" font-family="sans-serif" font-size="4.03" lengthAdjust="spacing" textLength="32.55" x="191.0853" y="84.4442">transaction</text></g><!--link Controller to PropertyRequestRepository--><g id="link_Controller_PropertyRequestRepository"><path codeLine="288" d="M711.7259,53.8036 C714.7639,53.8036 717.7988,53.8036 720.8337,53.8036 " fill="none" id="Controller-to-PropertyRequestRepository" style="stroke:#181818;stroke-width:0.31;"/><polygon fill="none" points="720.8678,51.6336,727.0678,53.8036,720.8678,55.9736,720.8678,51.6336" style="stroke:#181818;stroke-width:0.31;"/></g><!--link Controller to Property--><g id="link_Controller_Property"><path codeLine="291" d="M595.9533,83.1327 C586.7587,87.7796 577.0061,92.0762 567.455,95.1886 C493.0333,119.4368 464.3428,86.7194 392.925,118.7486 C383.9133,122.791 375.0814,127.8099 366.5812,133.4116 " fill="none" id="Controller-to-Property" style="stroke:#181818;stroke-width:0.31;"/><polygon fill="none" points="367.6848,135.2871,361.3329,136.9735,365.2451,131.6942,367.6848,135.2871" style="stroke:#181818;stroke-width:0.31;"/></g><!--link Controller to AnnouncementRepository--><g id="link_Controller_AnnouncementRepository"><path codeLine="293" d="M659.0538,83.1544 C664.9872,94.2617 671.77,107.0616 677.815,118.7486 C691.0272,144.2864 705.8452,173.9503 715.3467,193.1052 " fill="none" id="Controller-to-AnnouncementRepository" style="stroke:#181818;stroke-width:0.31;"/><polygon fill="none" points="717.309,192.1783,718.1181,198.6976,713.4216,194.1065,717.309,192.1783" style="stroke:#181818;stroke-width:0.31;"/></g><!--SRC=[ZLbBZzis4BxhLn2-LC76GHgW5oDOO7UT8YxIxcATzD2Y1wv4sqfaKIMfR9t7Vo_V73xax6LNcXTdlXaEX_9F_5CtZ9ZX8phIWJO7Hey42JQHAd16t7p2Ux8LfvuWHXg1XtqF1VW1j_In6_PeXtiEENqt474Q2HffVr8l9HvbWbQ0qVIOyoiXMFSm2R9fwB3jlX3q4eWCj2MSZEYNbrLLQNcq9KFxveYx7dsj45gYNTUJEomEAxILbePz9QaNY3kf-aWubr4vzhCL-aoxjlhk3LwD8wEVoHsZ8s7Yz65Z3JE2MwdLu64Wp5B-dGWNV8NUTLoyTXgNcYdT5upsFM6hrEIDPsdVs3JKpWtrtdPyxF7ftbfNjcjBKy-fvy2JtoOkkbtNOD5HRTD2488BIoFCqMBMiOKEMfaUBS-wSqz6oZj1sMc5xkPOLXLFua06OVs1cbSp7AruWN3iLar79RP2tI2UIs2FnuvpJRZnpsiYP7Pv04NPsHFnZkxtfFt02GDu6FSaTyuF9NlMHwqz6xzIFm-EzYtAC57L2N8BN9KbGZxA_LV28muubFb7M0ebizzTISmwwaj0LZoTXeOS9HptypLleqhirQw00YG07PVmjdsI6WYLaICe4QTL0aKQVuU7redqybbwB_zcOc_fn8cJEwYN5TAqJF9AzYC1yAYn8wZTRXzZBTKGS3TmdyLYX0-KzWGFUP7eacJCz830_cCwFX1skuDY4e7vT7Y4aXI4fTG2roTJHcbLUWzU6vBBEvVD7AZNILa-uj4xEFniD_BmAacMBqcJhgWEbqZbpPMT4hYit1QNBt5MrRyAfBwOyw1RWiHpC-0zv_gq0Rf-pS5cn2khTFZGR8abiUbQSy5f4H-TVakBKV-lODN64f5ox6TGzSPduzVi0W0knC2FOWIR8udJxn8NgnVryNhAt9RoprMw5yiQkM4VRsmAoiIOpSkT0IUMiG0vXAAE6e5qKQXPItv2e3Fbu5FZ5-i8jpc1f5eRaG5k1Yx7lORKpz0gah3ySW0rM4aTdrBZIt9wcXZjqLlWkvEtm0gsrN6-9VhSz_O0JTa0hq1WitQypHgGJQ-J7ExdfPbPy6i5ikZ85aZLu5tp3NFJUpdgWcDtYUZZe6R2sqStHfuTQCossPjKxuarZkKmUhkxymT8IwU7dcYMd1HrvdwL8_sDb6SaOkEc8QCMM6CHEsQ7o8mkQuf99ENwvi64Tw22oewX_cc26kblT-yP7ZXkpD3nFYL5m6pM3YmrjuWiylg9WvxMlWDeroNe4taDPGrnJGu68_0iWAwfwmnS9UBXrQOBClCvILUDyfhRJlZbCaXjHXcFfc1ZC-QN2oInUHzA9JS8cOMQIjqpHQMXzlKLJIvcqtOX2r6oytYimRHiatLrvUf1tPQmgIDDrSNzuNuput9MryfCgTYroLnQX6TOei_LNLnMDplzYVkfM28RVLSWxOzcnmiag34wXqyjMnqX8gpTTCgQUvFrAe1ZNxhnHbwz2vTcqmcp66rBd8bKyuh1AixIunnhvw6a0ZFB9Udx7IwSxx6O_SEK5806vxmfFOj63Bdf_G1rAvEstmJx2A6jjfW3O-dnWWaCDvtfCB6cfaAl4gsjAEvvGuwSJnJ_Cc7ageunKsDdYbds5jpxZVuAxdIt5VB3MXL6DfV24uExDVx-9y8wwZf-D0Jks6yqK8uNgq8t6RUoUWv7eIM0tXFxOAHXF-I12csLkfsqciFlEUUQtjaYlvwwlbLV0Kr43wHbb1vv2Ea1YqD2aaFh9wco7N5305bcj1lDNFl6FKO0N3jJ2GI17Y-Mm71jVKkr7JdoFOKGkfnc8EBbmJqPIn-rkp1rx8OERQTQcfICUuUQ973_biWvEMPvkAvYzIJxgWb4DWg7HM9WnfzakagibXrzCYRw3kEA2tDYwYCSTalKqrr2uTFmvZ-voITMQ9owNeoTEZEOLemJJCvNhZujxaGTBPr-N502YPvgeS6tGYC5p48GJm3DV-bD9cP_It7qx4GEB7lQhPCpUQOFx-7qxa_LTJXL8u7aADSkL_ugjUp9JbmcNu0oTl8L1V0lIryVgWfyzzOclcLB52JILQ18AwzntsOMIznT5dAnKc0RKknSV1-lelkwPCvTZUTksr85teGh5RG2oNkuGkG_GOQMLpuKnVSz7VBJtqMMuES46FJSMRkApjdA3KSlNg25FSCNuHDKw8IlNqoZ5F5dWng15zx3ofocoeW-mGpNc_5UBMmS2ub9YA_oWGA-oktIfXycHshAbFiVdAfywbraj-25yinx4sMQTVk3AhFvNmgIqW2oEQVyHQRw7m00]--></g></svg>