<?xml version="1.0" encoding="us-ascii" standalone="no"?><svg xmlns="http://www.w3.org/2000/svg" xmlns:xlink="http://www.w3.org/1999/xlink" contentStyleType="text/css" height="1153px" preserveAspectRatio="none" style="width:1508px;height:1153px;background:#FFFFFF;" version="1.1" viewBox="0 0 1508 1153" width="1508px" zoomAndPan="magnify"><defs/><g><text fill="#000000" font-family="sans-serif" font-size="14" font-weight="bold" lengthAdjust="spacing" textLength="156" x="669.3099" y="25.1074">Domain Model - US010</text><!--class PurchaseOrder--><g id="elem_PurchaseOrder"><rect
        fill="#F1F1F1" height="92.4844" id="PurchaseOrder" rx="2.5" ry="2.5" style="stroke:#181818;stroke-width:0.5;" width="103" x="1298.1197" y="465.1311"/><text fill="#000000" font-family="sans-serif" font-size="14" lengthAdjust="spacing" textLength="97" x="1301.1197" y="485.2385">PurchaseOrder</text><line style="stroke:#181818;stroke-width:0.5;" x1="1299.1197" x2="1400.1197" y1="493.7522" y2="493.7522"/><text fill="#000000" font-family="sans-serif" font-size="14" lengthAdjust="spacing" textLength="62" x="1304.1197" y="512.8596">userEmail</text><text fill="#000000" font-family="sans-serif" font-size="14" lengthAdjust="spacing" textLength="82" x="1304.1197" y="531.4807">orderAmount</text><text fill="#000000" font-family="sans-serif" font-size="14" lengthAdjust="spacing" textLength="73" x="1304.1197" y="550.1018">acceptance</text></g><!--class Client--><g id="elem_Client"><rect
        fill="#F1F1F1" height="36.6211" id="Client" rx="2.5" ry="2.5" style="stroke:#181818;stroke-width:0.5;" width="42" x="1064.6197" y="293.1311"/><text fill="#000000" font-family="sans-serif" font-size="14" lengthAdjust="spacing" textLength="36" x="1067.6197" y="313.2385">Client</text><line style="stroke:#181818;stroke-width:0.5;" x1="1065.6197" x2="1105.6197" y1="321.7522" y2="321.7522"/></g><!--class Person--><g id="elem_Person"><rect
        fill="#F1F1F1" height="111.1055" id="Person" rx="2.5" ry="2.5" style="stroke:#181818;stroke-width:0.5;" width="124" x="594.6197" y="901.1311"/><text fill="#000000" font-family="sans-serif" font-size="14" lengthAdjust="spacing" textLength="45" x="634.1197" y="921.2385">Person</text><line style="stroke:#181818;stroke-width:0.5;" x1="595.6197" x2="717.6197" y1="929.7522" y2="929.7522"/><text fill="#000000" font-family="sans-serif" font-size="14" lengthAdjust="spacing" textLength="35" x="600.6197" y="948.8596">name</text><text fill="#000000" font-family="sans-serif" font-size="14" lengthAdjust="spacing" textLength="67" x="600.6197" y="967.4807">taxNumber</text><text fill="#000000" font-family="sans-serif" font-size="14" lengthAdjust="spacing" textLength="85" x="600.6197" y="986.1018">emailAddress</text><text fill="#000000" font-family="sans-serif" font-size="14" lengthAdjust="spacing" textLength="112" x="600.6197" y="1004.7229">telephoneNumber</text></g><!--class Role--><g id="elem_Role"><rect
        fill="#F1F1F1" height="73.8633" id="Role" rx="2.5" ry="2.5" style="stroke:#181818;stroke-width:0.5;" width="81" x="843.1197" y="720.1311"/><text fill="#000000" font-family="sans-serif" font-size="14" lengthAdjust="spacing" textLength="29" x="869.1197" y="740.2385">Role</text><line style="stroke:#181818;stroke-width:0.5;" x1="844.1197" x2="923.1197" y1="748.7522" y2="748.7522"/><text fill="#000000" font-family="sans-serif" font-size="14" lengthAdjust="spacing" textLength="11" x="849.1197" y="767.8596">id</text><text fill="#000000" font-family="sans-serif" font-size="14" lengthAdjust="spacing" textLength="69" x="849.1197" y="786.4807">description</text></g><!--class Owner--><g id="elem_Owner"><rect
        fill="#F1F1F1" height="36.6211" id="Owner" rx="2.5" ry="2.5" style="stroke:#181818;stroke-width:0.5;" width="47" x="89.1197" y="1100.1311"/><text fill="#000000" font-family="sans-serif" font-size="14" lengthAdjust="spacing" textLength="41" x="92.1197" y="1120.2385">Owner</text><line style="stroke:#181818;stroke-width:0.5;" x1="90.1197" x2="135.1197" y1="1128.7522" y2="1128.7522"/></g><!--class PassportCard--><g id="elem_PassportCard"><rect
        fill="#F1F1F1" height="55.2422" id="PassportCard" rx="2.5" ry="2.5" style="stroke:#181818;stroke-width:0.5;" width="147" x="413.1197" y="729.6311"/><text fill="#000000" font-family="sans-serif" font-size="14" lengthAdjust="spacing" textLength="87" x="443.1197" y="749.7385">PassportCard</text><line style="stroke:#181818;stroke-width:0.5;" x1="414.1197" x2="559.1197" y1="758.2522" y2="758.2522"/><text fill="#000000" font-family="sans-serif" font-size="14" lengthAdjust="spacing" textLength="135" x="419.1197" y="777.3596">passportCardNumber</text></g><!--class Address--><g id="elem_Address"><rect
        fill="#F1F1F1" height="129.7266" id="Address" rx="2.5" ry="2.5" style="stroke:#181818;stroke-width:0.5;" width="63" x="595.1197" y="692.1311"/><text fill="#000000" font-family="sans-serif" font-size="14" lengthAdjust="spacing" textLength="52" x="600.6197" y="712.2385">Address</text><line style="stroke:#181818;stroke-width:0.5;" x1="596.1197" x2="657.1197" y1="720.7522" y2="720.7522"/><text fill="#000000" font-family="sans-serif" font-size="14" lengthAdjust="spacing" textLength="36" x="601.1197" y="739.8596">street</text><text fill="#000000" font-family="sans-serif" font-size="14" lengthAdjust="spacing" textLength="21" x="601.1197" y="758.4807">city</text><text fill="#000000" font-family="sans-serif" font-size="14" lengthAdjust="spacing" textLength="41" x="601.1197" y="777.1018">district</text><text fill="#000000" font-family="sans-serif" font-size="14" lengthAdjust="spacing" textLength="31" x="601.1197" y="795.7229">state</text><text fill="#000000" font-family="sans-serif" font-size="14" lengthAdjust="spacing" textLength="51" x="601.1197" y="814.344">zipCode</text></g><!--class Property--><g id="elem_Property"><rect
        fill="#F1F1F1" height="204.2109" id="Property" rx="2.5" ry="2.5" style="stroke:#181818;stroke-width:0.5;"
        width="141" x="555.1197" y="409.1311"/><text fill="#000000" font-family="sans-serif" font-size="14" lengthAdjust="spacing" textLength="54" x="598.6197" y="429.2385">Property</text><line style="stroke:#181818;stroke-width:0.5;" x1="556.1197" x2="695.1197" y1="437.7522" y2="437.7522"/><text fill="#000000" font-family="sans-serif" font-size="14" lengthAdjust="spacing" textLength="66" x="561.1197" y="456.8596">propertyID</text><text fill="#000000" font-family="sans-serif" font-size="14" lengthAdjust="spacing" textLength="85" x="561.1197" y="475.4807">propertyType</text><text fill="#000000" font-family="sans-serif" font-size="14" lengthAdjust="spacing" textLength="98" x="561.1197" y="494.1018">areaOfProperty</text><text fill="#000000" font-family="sans-serif" font-size="14" lengthAdjust="spacing" textLength="129" x="561.1197" y="512.7229">distanceFromCentre</text><text fill="#000000" font-family="sans-serif" font-size="14" lengthAdjust="spacing" textLength="117" x="561.1197" y="531.344">dateOfAcceptance</text><text fill="#000000" font-family="sans-serif" font-size="14" lengthAdjust="spacing" textLength="96" x="561.1197" y="549.9651">dateOfRequest</text><text fill="#000000" font-family="sans-serif" font-size="14" lengthAdjust="spacing" textLength="4" x="561.1197" y="568.5862">&#160;</text><text fill="#000000" font-family="sans-serif" font-size="14" lengthAdjust="spacing" textLength="37" x="561.1197" y="587.2073">Photo</text><text fill="#000000" font-family="sans-serif" font-size="14" lengthAdjust="spacing" textLength="75" x="561.1197" y="605.8284">Transaction</text></g><!--class Building--><g id="elem_Building"><rect
        fill="#F1F1F1" height="129.7266" id="Building" rx="2.5" ry="2.5" style="stroke:#181818;stroke-width:0.5;" width="135" x="137.1197" y="692.1311"/><text fill="#000000" font-family="sans-serif" font-size="14" lengthAdjust="spacing" textLength="50" x="179.6197" y="712.2385">Building</text><line style="stroke:#181818;stroke-width:0.5;" x1="138.1197" x2="271.1197" y1="720.7522" y2="720.7522"/><text fill="#000000" font-family="sans-serif" font-size="14" lengthAdjust="spacing" textLength="63" x="143.1197" y="739.8596">bedrooms</text><text fill="#000000" font-family="sans-serif" font-size="14" lengthAdjust="spacing" textLength="67" x="143.1197" y="758.4807">bathrooms</text><text fill="#000000" font-family="sans-serif" font-size="14" lengthAdjust="spacing" textLength="94" x="143.1197" y="777.1018">parkingSpaces</text><text fill="#000000" font-family="sans-serif" font-size="14" lengthAdjust="spacing" textLength="123" x="143.1197" y="795.7229">availableEquipment</text><text fill="#000000" font-family="sans-serif" font-size="14" lengthAdjust="spacing" textLength="66" x="143.1197" y="814.344">equipment</text></g><!--class House--><g id="elem_House"><rect
        fill="#F1F1F1" height="92.4844" id="House" rx="2.5" ry="2.5" style="stroke:#181818;stroke-width:0.5;" width="94" x="304.6197" y="910.6311"/><text fill="#000000" font-family="sans-serif" font-size="14" lengthAdjust="spacing" textLength="40" x="331.6197" y="930.7385">House</text><line style="stroke:#181818;stroke-width:0.5;" x1="305.6197" x2="397.6197" y1="939.2522" y2="939.2522"/><text fill="#000000" font-family="sans-serif" font-size="14" lengthAdjust="spacing" textLength="62" x="310.6197" y="958.3596">basement</text><text fill="#000000" font-family="sans-serif" font-size="14" lengthAdjust="spacing" textLength="19" x="310.6197" y="976.9807">loft</text><text fill="#000000" font-family="sans-serif" font-size="14" lengthAdjust="spacing" textLength="82" x="310.6197" y="995.6018">sunExposure</text></g><!--class Employee--><g id="elem_Employee"><rect
        fill="#F1F1F1" height="55.2422" id="Employee" rx="2.5" ry="2.5" style="stroke:#181818;stroke-width:0.5;" width="68" x="622.6197" y="1091.1311"/><text fill="#000000" font-family="sans-serif" font-size="14" lengthAdjust="spacing" textLength="62" x="625.6197" y="1111.2385">Employee</text><line style="stroke:#181818;stroke-width:0.5;" x1="623.6197" x2="689.6197" y1="1119.7522" y2="1119.7522"/><text fill="#000000" font-family="sans-serif" font-size="14" lengthAdjust="spacing" textLength="46" x="628.6197" y="1138.8596">agency</text></g><!--class Equipment--><g id="elem_Equipment"><rect
        fill="#F1F1F1" height="73.8633" id="Equipment" rx="2.5" ry="2.5" style="stroke:#181818;stroke-width:0.5;" width="107" x="162.1197" y="919.6311"/><text fill="#000000" font-family="sans-serif" font-size="14" lengthAdjust="spacing" textLength="67" x="182.1197" y="939.7385">Equipment</text><line style="stroke:#181818;stroke-width:0.5;" x1="163.1197" x2="268.1197" y1="948.2522" y2="948.2522"/><text fill="#000000" font-family="sans-serif" font-size="14" lengthAdjust="spacing" textLength="91" x="168.1197" y="967.3596">centralHeating</text><text fill="#000000" font-family="sans-serif" font-size="14" lengthAdjust="spacing" textLength="95" x="168.1197" y="985.9807">airConditioning</text></g><!--class Commission--><g id="elem_Commission"><rect
        fill="#F1F1F1" height="73.8633" id="Commission" rx="2.5" ry="2.5" style="stroke:#181818;stroke-width:0.5;" width="121" x="187.1197" y="121.6311"/><text fill="#000000" font-family="sans-serif" font-size="14" lengthAdjust="spacing" textLength="76" x="209.6197" y="141.7385">Commission</text><line style="stroke:#181818;stroke-width:0.5;" x1="188.1197" x2="307.1197" y1="150.2522" y2="150.2522"/><text fill="#000000" font-family="sans-serif" font-size="14" lengthAdjust="spacing" textLength="105" x="193.1197" y="169.3596">commissionType</text><text fill="#000000" font-family="sans-serif" font-size="14" lengthAdjust="spacing" textLength="109" x="193.1197" y="187.9807">commissionValue</text></g><!--class Photo--><g id="elem_Photo"><rect
        fill="#F1F1F1" height="92.4844" id="Photo" rx="2.5" ry="2.5" style="stroke:#181818;stroke-width:0.5;" width="70" x="307.6197" y="711.1311"/><text fill="#000000" font-family="sans-serif" font-size="14" lengthAdjust="spacing" textLength="37" x="324.1197" y="731.2385">Photo</text><line style="stroke:#181818;stroke-width:0.5;" x1="308.6197" x2="376.6197" y1="739.7522" y2="739.7522"/><text fill="#000000" font-family="sans-serif" font-size="14" lengthAdjust="spacing" textLength="58" x="313.6197" y="758.8596">photoURI</text><text fill="#000000" font-family="sans-serif" font-size="14" lengthAdjust="spacing" textLength="49" x="313.6197" y="777.4807">photoID</text><text fill="#000000" font-family="sans-serif" font-size="14" lengthAdjust="spacing" textLength="58" x="313.6197" y="796.1018">photoList</text></g><!--class Transaction--><g id="elem_Transaction"><rect
        fill="#F1F1F1" height="73.8633" id="Transaction" rx="2.5" ry="2.5" style="stroke:#181818;stroke-width:0.5;" width="114" x="693.6197" y="720.1311"/><text fill="#000000" font-family="sans-serif" font-size="14" lengthAdjust="spacing" textLength="75" x="713.1197" y="740.2385">Transaction</text><line style="stroke:#181818;stroke-width:0.5;" x1="694.6197" x2="806.6197" y1="748.7522" y2="748.7522"/><text fill="#000000" font-family="sans-serif" font-size="14" lengthAdjust="spacing" textLength="102" x="699.6197" y="767.8596">transactionType</text><text fill="#000000" font-family="sans-serif" font-size="14" lengthAdjust="spacing" textLength="95" x="699.6197" y="786.4807">monetaryValue</text></g><!--class Request--><g id="elem_Request"><rect
        fill="#F1F1F1" height="73.8633" id="Request" rx="2.5" ry="2.5" style="stroke:#181818;stroke-width:0.5;" width="90" x="356.6197" y="474.1311"/><text fill="#000000" font-family="sans-serif" font-size="14" lengthAdjust="spacing" textLength="53" x="375.1197" y="494.2385">Request</text><line style="stroke:#181818;stroke-width:0.5;" x1="357.6197" x2="445.6197" y1="502.7522" y2="502.7522"/><text fill="#000000" font-family="sans-serif" font-size="14" lengthAdjust="spacing" textLength="11" x="362.6197" y="521.8596">id</text><text fill="#000000" font-family="sans-serif" font-size="14" lengthAdjust="spacing" textLength="78" x="362.6197" y="540.4807">requestDate</text></g><!--class Agency--><g id="elem_Agency"><rect
        fill="#F1F1F1" height="111.1055" id="Agency" rx="2.5" ry="2.5" style="stroke:#181818;stroke-width:0.5;" width="124" x="343.6197" y="103.1311"/><text fill="#000000" font-family="sans-serif" font-size="14" lengthAdjust="spacing" textLength="47" x="382.1197" y="123.2385">Agency</text><line style="stroke:#181818;stroke-width:0.5;" x1="344.6197" x2="466.6197" y1="131.7522" y2="131.7522"/><text fill="#000000" font-family="sans-serif" font-size="14" lengthAdjust="spacing" textLength="59" x="349.6197" y="150.8596">agencyID</text><text fill="#000000" font-family="sans-serif" font-size="14" lengthAdjust="spacing" textLength="35" x="349.6197" y="169.4807">name</text><text fill="#000000" font-family="sans-serif" font-size="14" lengthAdjust="spacing" textLength="33" x="349.6197" y="188.1018">email</text><text fill="#000000" font-family="sans-serif" font-size="14" lengthAdjust="spacing" textLength="112" x="349.6197" y="206.7229">telephoneNumber</text></g><!--class Agent--><g id="elem_Agent"><rect
        fill="#F1F1F1" height="36.6211" id="Agent" rx="2.5" ry="2.5" style="stroke:#181818;stroke-width:0.5;" width="43" x="515.1197" y="293.1311"/><text fill="#000000" font-family="sans-serif" font-size="14" lengthAdjust="spacing" textLength="37" x="518.1197" y="313.2385">Agent</text><line style="stroke:#181818;stroke-width:0.5;" x1="516.1197" x2="557.1197" y1="321.7522" y2="321.7522"/></g><!--class Announcement--><g id="elem_Announcement"><rect
        fill="#F1F1F1" height="73.8633" id="Announcement" rx="2.5" ry="2.5" style="stroke:#181818;stroke-width:0.5;" width="115" x="611.1197" y="121.6311"/><text fill="#000000" font-family="sans-serif" font-size="14" lengthAdjust="spacing" textLength="95" x="621.1197" y="141.7385">Announcement</text><line style="stroke:#181818;stroke-width:0.5;" x1="612.1197" x2="725.1197" y1="150.2522" y2="150.2522"/><text fill="#000000" font-family="sans-serif" font-size="14" lengthAdjust="spacing" textLength="11" x="617.1197" y="169.3596">id</text><text fill="#000000" font-family="sans-serif" font-size="14" lengthAdjust="spacing" textLength="103" x="617.1197" y="187.9807">acceptanceDate</text></g><!--reverse link Property to Building--><g id="link_Property_Building"><path d="M537.7997,569.8011 C514.0897,584.5611 488.1797,599.9711 463.6197,613.1311 C388.7597,653.2411 362.6497,648.7711 289.6197,692.1311 C283.8997,695.5211 278.1097,699.2311 272.3797,703.0911 " fill="none" id="Property-backto-Building" style="stroke:#181818;stroke-width:1.0;"/><polygon fill="none" points="534.3897,563.6711,555.0397,558.9411,541.8497,575.5211,534.3897,563.6711" style="stroke:#181818;stroke-width:1.0;"/></g><!--reverse link Building to House--><g id="link_Building_House"><path d="M287.9297,820.8211 C302.2397,832.8411 314.2497,844.1511 319.6197,852.1311 C331.3297,869.5211 338.9097,891.4011 343.7397,910.5511 " fill="none" id="Building-backto-House" style="stroke:#181818;stroke-width:1.0;"/><polygon fill="none" points="283.4497,826.2011,272.3497,808.1511,292.2797,815.3411,283.4497,826.2011" style="stroke:#181818;stroke-width:1.0;"/></g><!--link Agent to Employee--><g id="link_Agent_Employee"><path
        d="M558.3997,317.0111 C649.4197,335.9011 994.6197,413.9011 994.6197,510.1311 C994.6197,510.1311 994.6197,510.1311 994.6197,957.6311 C994.6197,1091.0511 776.8197,1113.3711 690.8897,1116.9811 " fill="none" id="Agent-Employee" style="stroke:#181818;stroke-width:1.0;"/><polygon fill="#000000" points="1000.4367,762.2094,1001.8582,752.8057,996.0594,753.7661,1000.4367,762.2094" style="stroke:#000000;stroke-width:1.0;"/><text fill="#000000" font-family="sans-serif" font-size="13" lengthAdjust="spacing" textLength="82" x="1008.6197" y="762.6594">represented in</text></g><!--link Agency to Announcement--><g id="link_Agency_Announcement"><path
        d="M467.9497,158.6311 C511.2397,158.6311 568.5097,158.6311 610.7897,158.6311 " fill="none" id="Agency-Announcement" style="stroke:#181818;stroke-width:1.0;"/><polygon fill="#000000" points="494.8697,146.2766,485.8246,143.3377,485.8246,149.2155,494.8697,146.2766" style="stroke:#000000;stroke-width:1.0;"/><text fill="#000000" font-family="sans-serif" font-size="13" lengthAdjust="spacing" textLength="94" x="498.8697" y="151.6594">wants to publish</text><text fill="#000000" font-family="sans-serif" font-size="13" lengthAdjust="spacing" textLength="7" x="475.5613" y="154.6873">1</text><text fill="#000000" font-family="sans-serif" font-size="13" lengthAdjust="spacing" textLength="13" x="589.9495" y="154.6495">..*</text></g><!--link Announcement to Request--><g id="link_Announcement_Request"><path
        d="M664.7297,195.9711 C657.9797,243.1311 640.1397,325.7211 594.6197,379.1311 C576.0497,400.9211 561.8497,393.8811 537.6197,409.1311 C506.1297,428.9411 472.5497,453.8411 446.6397,473.9511 " fill="none" id="Announcement-Request" style="stroke:#181818;stroke-width:1.0;"/><polygon fill="#000000" points="643.5334,315.7104,651.4288,310.4082,646.8043,306.78,643.5334,315.7104" style="stroke:#000000;stroke-width:1.0;"/><text fill="#000000" font-family="sans-serif" font-size="13" lengthAdjust="spacing" textLength="21" x="655.6197" y="317.1594">of a</text><text fill="#000000" font-family="sans-serif" font-size="13" lengthAdjust="spacing" textLength="7" x="656.5058" y="217.6271">1</text></g><!--link Property to Address--><g id="link_Property_Address"><path
        d="M554.9197,587.2811 C540.9697,610.8511 533.5997,637.2311 544.6197,662.1311 C552.6397,680.2611 564.2097,677.5411 577.6197,692.1311 C583.4897,698.5211 589.3897,705.5711 594.9597,712.5811 " fill="none" id="Property-Address" style="stroke:#181818;stroke-width:1.0;"/><text fill="#000000" font-family="sans-serif" font-size="13" lengthAdjust="spacing" textLength="36" x="545.6197" y="658.1594">stores</text><text fill="#000000" font-family="sans-serif" font-size="13" lengthAdjust="spacing" textLength="7" x="540.2678" y="591.2899">1</text><text fill="#000000" font-family="sans-serif" font-size="13" lengthAdjust="spacing" textLength="7" x="580.2685" y="698.0665">1</text></g><!--link Address to Property--><g id="link_Address_Property"><path
        d="M623.5197,691.9211 C623.1497,681.9511 622.8197,671.7711 622.6197,662.1311 C622.2797,646.3811 622.2797,629.6911 622.4597,613.3911 " fill="none" id="Address-Property" style="stroke:#181818;stroke-width:1.0;"/><polygon fill="#000000" points="627.6872,657.7761,630.5038,648.6922,624.6265,648.7716,627.6872,657.7761" style="stroke:#000000;stroke-width:1.0;"/><text fill="#000000" font-family="sans-serif" font-size="13" lengthAdjust="spacing" textLength="71" x="636.6197" y="658.1594">has address</text><text fill="#000000" font-family="sans-serif" font-size="13" lengthAdjust="spacing" textLength="7" x="615.7978" y="680.9183">1</text><text fill="#000000" font-family="sans-serif" font-size="13" lengthAdjust="spacing" textLength="7" x="614.9914" y="635.21">1</text></g><!--link Agency to Employee--><g id="link_Agency_Employee"><path
        d="M343.3497,204.5911 C337.4897,208.0511 331.5297,211.2911 325.6197,214.1311 C194.4497,277.2611 12.6197,165.0611 12.6197,310.6311 C12.6197,310.6311 12.6197,310.6311 12.6197,862.6311 C12.6197,951.2711 67.9397,967.6811 144.6197,1012.1311 C186.5297,1036.4211 514.6497,1093.5711 622.4397,1111.8811 " fill="none" id="Agency-Employee" style="stroke:#181818;stroke-width:1.0;"/><polygon fill="#000000" points="16.1497,647.9976,16,657.507,21.6181,655.7788,16.1497,647.9976" style="stroke:#000000;stroke-width:1.0;"/><text fill="#000000" font-family="sans-serif" font-size="13" lengthAdjust="spacing" textLength="88" x="26.6197" y="658.1594">is in an agency</text><text fill="#000000" font-family="sans-serif" font-size="13" lengthAdjust="spacing" textLength="7" x="328.7451" y="205.9615">1</text><text fill="#000000" font-family="sans-serif" font-size="13" lengthAdjust="spacing" textLength="7" x="607.6682" y="1105.7691">1</text></g><!--link Property to Transaction--><g id="link_Property_Transaction"><path
        d="M696.2197,612.8511 C702.1197,622.8811 707.6997,633.0811 712.6197,643.1311 C724.7297,667.8511 734.5097,697.3911 741.1197,720.0611 " fill="none" id="Property-Transaction" style="stroke:#181818;stroke-width:1.0;"/><polygon fill="#000000" points="728.5512,657.3885,727.7679,647.9102,722.3463,650.1808,728.5512,657.3885" style="stroke:#000000;stroke-width:1.0;"/><text fill="#000000" font-family="sans-serif" font-size="13" lengthAdjust="spacing" textLength="129" x="735.6197" y="658.1594">has a transaction type</text><text fill="#000000" font-family="sans-serif" font-size="13" lengthAdjust="spacing" textLength="7" x="694.3571" y="635.3212">1</text><text fill="#000000" font-family="sans-serif" font-size="13" lengthAdjust="spacing" textLength="7" x="731.7228" y="708.7269">1</text></g><!--link Property to Photo--><g id="link_Property_Photo"><path
        d="M554.9297,560.2811 C507.3897,594.3411 444.6797,642.5911 395.6197,692.1311 C389.6297,698.1811 383.5897,704.8411 377.8297,711.5111 " fill="none" id="Property-Photo" style="stroke:#181818;stroke-width:1.0;"/><polygon fill="#000000" points="449.8174,656.0235,458.6043,652.3848,454.7874,647.9149,449.8174,656.0235" style="stroke:#000000;stroke-width:1.0;"/><text fill="#000000" font-family="sans-serif" font-size="13" lengthAdjust="spacing" textLength="64" x="462.6197" y="658.1594">has photos</text><text fill="#000000" font-family="sans-serif" font-size="13" lengthAdjust="spacing" textLength="7" x="540.2789" y="561.5056">1</text><text fill="#000000" font-family="sans-serif" font-size="13" lengthAdjust="spacing" textLength="13" x="384.4773" y="699.8986">..*</text></g><!--link Commission to Announcement--><g id="link_Commission_Announcement"><path
        d="M297.0597,121.3911 C306.3497,114.9911 316.1297,108.6411 325.6197,103.1311 C401.5197,59.0811 435.5697,45.6211 520.1197,69.1311 C557.2397,79.4511 594.3697,101.8311 622.2097,121.6211 " fill="none" id="Commission-Announcement" style="stroke:#181818;stroke-width:1.0;"/><polygon fill="#000000" points="399.1197,63.7731,408.1627,66.7184,408.1669,60.8405,399.1197,63.7731" style="stroke:#000000;stroke-width:1.0;"/><text fill="#000000" font-family="sans-serif" font-size="13" lengthAdjust="spacing" textLength="106" x="413.1197" y="69.1594">has a commission</text><text fill="#000000" font-family="sans-serif" font-size="13" lengthAdjust="spacing" textLength="7" x="298.2428" y="110.3101">1</text><text fill="#000000" font-family="sans-serif" font-size="13" lengthAdjust="spacing" textLength="7" x="606.0076" y="110.2979">1</text></g><!--link Building to Equipment--><g id="link_Building_Equipment"><path
        d="M208.1897,822.2511 C209.9897,854.4711 212.0897,892.3111 213.5997,919.4411 " fill="none" id="Building-Equipment" style="stroke:#181818;stroke-width:1.0;"/><polygon fill="#000000" points="216.8976,866.7689,219.3293,857.5744,213.4605,857.9011,216.8976,866.7689" style="stroke:#000000;stroke-width:1.0;"/><text fill="#000000" font-family="sans-serif" font-size="13" lengthAdjust="spacing" textLength="85" x="225.6197" y="867.1594">has equipment</text><text fill="#000000" font-family="sans-serif" font-size="13" lengthAdjust="spacing" textLength="7" x="201.1969" y="843.9006">1</text><text fill="#000000" font-family="sans-serif" font-size="13" lengthAdjust="spacing" textLength="13" x="199.0821" y="908.369">..*</text></g><!--link Role to Person--><g id="link_Role_Person"><path
        d="M852.7197,794.3311 C844.2297,803.6811 834.8197,813.5311 825.6197,822.1311 C792.0197,853.5311 751.6897,885.5811 718.8597,910.4011 " fill="none" id="Role-Person" style="stroke:#181818;stroke-width:1.0;"/><polygon fill="#000000" points="798.3974,858.501,789.6382,862.2062,793.4889,866.647,798.3974,858.501" style="stroke:#000000;stroke-width:1.0;"/><text fill="#000000" font-family="sans-serif" font-size="13" lengthAdjust="spacing" textLength="57" x="803.6197" y="867.1594">has a role</text><text fill="#000000" font-family="sans-serif" font-size="13" lengthAdjust="spacing" textLength="7" x="840.0222" y="815.9639">1</text><text fill="#000000" font-family="sans-serif" font-size="13" lengthAdjust="spacing" textLength="7" x="726.4609" y="901.112">1</text></g><!--link PassportCard to Person--><g id="link_PassportCard_Person"><path
        d="M484.2897,784.7611 C483.4997,809.3211 485.9497,845.7211 503.6197,871.1311 C525.2797,902.2711 562.2697,923.1411 594.4497,936.3611 " fill="none" id="PassportCard-Person" style="stroke:#181818;stroke-width:1.0;"/><polygon fill="#000000" points="505.6805,857.7317,508.6201,866.7766,513.3751,863.3214,505.6805,857.7317" style="stroke:#000000;stroke-width:1.0;"/><text fill="#000000" font-family="sans-serif" font-size="13" lengthAdjust="spacing" textLength="115" x="517.6197" y="867.1594">has a passport card</text><text fill="#000000" font-family="sans-serif" font-size="13" lengthAdjust="spacing" textLength="7" x="476.0144" y="806.6982">1</text><text fill="#000000" font-family="sans-serif" font-size="13" lengthAdjust="spacing" textLength="7" x="579.4462" y="929.8944">1</text></g><!--link Address to Person--><g id="link_Address_Person"><path
        d="M636.3597,822.2511 C640.2297,847.7111 644.6297,876.6811 648.3397,901.1011 " fill="none" id="Address-Person" style="stroke:#181818;stroke-width:1.0;"/><polygon fill="#000000" points="647.8687,856.8333,646.3218,866.2172,652.1329,865.3343,647.8687,856.8333" style="stroke:#000000;stroke-width:1.0;"/><text fill="#000000" font-family="sans-serif" font-size="13" lengthAdjust="spacing" textLength="71" x="657.6197" y="867.1594">has address</text><text fill="#000000" font-family="sans-serif" font-size="13" lengthAdjust="spacing" textLength="7" x="630.0032" y="843.9006">1</text><text fill="#000000" font-family="sans-serif" font-size="13" lengthAdjust="spacing" textLength="7" x="639.8304" y="889.9375">1</text></g><!--link Request to Property--><g id="link_Request_Property"><path
        d="M446.6797,511.1311 C477.7297,511.1311 519.6097,511.1311 555.0497,511.1311 " fill="none" id="Request-Property" style="stroke:#181818;stroke-width:1.0;"/><polygon fill="#000000" points="473.8697,498.7766,464.8246,495.8377,464.8246,501.7155,473.8697,498.7766" style="stroke:#000000;stroke-width:1.0;"/><text fill="#000000" font-family="sans-serif" font-size="13" lengthAdjust="spacing" textLength="59" x="477.8697" y="504.1594">listing of a</text><text fill="#000000" font-family="sans-serif" font-size="13" lengthAdjust="spacing" textLength="7" x="454.7225" y="506.787">1</text><text fill="#000000" font-family="sans-serif" font-size="13" lengthAdjust="spacing" textLength="7" x="539.9483" y="507.2341">1</text></g><!--link Request to Owner--><g id="link_Request_Owner"><path
        d="M356.5897,526.1611 C291.3697,549.1311 172.6397,601.5211 119.6197,692.1311 C39.0197,829.8711 89.4497,1038.0911 107.1797,1099.8011 " fill="none" id="Request-Owner" style="stroke:#181818;stroke-width:1.0;"/><polygon fill="#000000" points="79.6261,866.3619,85.9278,859.2388,80.5374,856.8951,79.6261,866.3619" style="stroke:#000000;stroke-width:1.0;"/><text fill="#000000" font-family="sans-serif" font-size="13" lengthAdjust="spacing" textLength="77" x="90.6197" y="867.1594">has an owner</text><text fill="#000000" font-family="sans-serif" font-size="13" lengthAdjust="spacing" textLength="13" x="335.6992" y="524.2221">..*</text><text fill="#000000" font-family="sans-serif" font-size="13" lengthAdjust="spacing" textLength="7" x="97.5536" y="1088.8996">1</text></g><!--link Person to Owner--><g id="link_Person_Owner"><path
        d="M594.4797,975.9111 C474.4697,1011.2011 215.6097,1087.3411 136.2397,1110.6811 " fill="none" id="Person-Owner" style="stroke:#181818;stroke-width:1.0;"/><polygon fill="#000000" points="378.4166,1050.3658,368.9098,1050.0984,370.5682,1055.7375,378.4166,1050.3658" style="stroke:#000000;stroke-width:1.0;"/><text fill="#000000" font-family="sans-serif" font-size="13" lengthAdjust="spacing" textLength="82" x="382.6197" y="1057.1594">represented in</text></g><!--link Person to Employee--><g id="link_Person_Employee"><path
        d="M656.6197,1012.2511 C656.6197,1038.8611 656.6197,1069.6611 656.6197,1091.0611 " fill="none" id="Person-Employee" style="stroke:#181818;stroke-width:1.0;"/></g><!--link Client to Person--><g id="link_Client_Person"><path
        d="M1093.0697,330.2711 C1121.5097,400.7011 1215.9897,665.5211 1099.6197,822.1311 C1053.8697,883.7011 829.7897,927.7111 718.9497,946.0911 " fill="none" id="Client-Person" style="stroke:#181818;stroke-width:1.0;"/></g><!--link Agent to Request--><g id="link_Agent_Request"><path
        d="M524.6397,330.1611 C502.6297,362.3511 455.3697,431.4911 426.2597,474.0911 " fill="none" id="Agent-Request" style="stroke:#181818;stroke-width:1.0;"/><polygon fill="#000000" points="506.7982,373.9045,514.3287,368.0955,509.4761,364.7787,506.7982,373.9045" style="stroke:#000000;stroke-width:1.0;"/><text fill="#000000" font-family="sans-serif" font-size="13" lengthAdjust="spacing" textLength="67" x="518.6197" y="375.1594">assigned to</text><text fill="#000000" font-family="sans-serif" font-size="13" lengthAdjust="spacing" textLength="7" x="513.286" y="351.8858">1</text><text fill="#000000" font-family="sans-serif" font-size="13" lengthAdjust="spacing" textLength="13" x="416.6043" y="462.7624">..*</text></g><!--link Agent to Request--><g id="link_Agent_Request"><path
        d="M514.9597,314.8711 C487.9797,318.8911 442.6397,329.9911 419.6197,360.1311 C394.8597,392.5411 393.5397,440.9211 396.3197,473.9111 " fill="none" id="Agent-Request-1" style="stroke:#181818;stroke-width:1.0;"/><polygon fill="#000000" points="421.6301,373.7843,429.3941,368.2916,424.6827,364.777,421.6301,373.7843" style="stroke:#000000;stroke-width:1.0;"/><text fill="#000000" font-family="sans-serif" font-size="13" lengthAdjust="spacing" textLength="51" x="433.6197" y="375.1594">approves</text><text fill="#000000" font-family="sans-serif" font-size="13" lengthAdjust="spacing" textLength="7" x="500.2545" y="310.3911">1</text><text fill="#000000" font-family="sans-serif" font-size="13" lengthAdjust="spacing" textLength="13" x="381.2178" y="462.8336">..*</text></g><!--link Announcement to Agent--><g id="link_Announcement_Agent"><path
        d="M611.0497,191.2411 C590.5797,205.0511 569.0597,222.9611 554.6197,244.1311 C544.6397,258.7511 540.1897,278.6911 538.1997,292.9211 " fill="none" id="Announcement-Agent" style="stroke:#181818;stroke-width:1.0;"/><polygon fill="#000000" points="562.5318,249.7121,554.8748,255.3532,559.6529,258.7765,562.5318,249.7121" style="stroke:#000000;stroke-width:1.0;"/><text fill="#000000" font-family="sans-serif" font-size="13" lengthAdjust="spacing" textLength="43" x="568.6197" y="259.1594">creates</text><text fill="#000000" font-family="sans-serif" font-size="13" lengthAdjust="spacing" textLength="13" x="590.2412" y="191.2339">..*</text><text fill="#000000" font-family="sans-serif" font-size="13" lengthAdjust="spacing" textLength="7" x="530.6117" y="281.7189">1</text></g><!--link PurchaseOrder to Announcement--><g id="link_PurchaseOrder_Announcement"><path
        d="M1393.7997,465.1211 C1419.0397,433.8411 1441.3597,392.1811 1417.6197,360.1311 C1333.8297,247.0311 887.1197,184.9211 726.3297,165.9611 " fill="none" id="PurchaseOrder-Announcement" style="stroke:#181818;stroke-width:1.0;"/><polygon fill="#000000" points="1384.057,309.7316,1391.109,316.1129,1393.513,310.7492,1384.057,309.7316" style="stroke:#000000;stroke-width:1.0;"/><text fill="#000000" font-family="sans-serif" font-size="13" lengthAdjust="spacing" textLength="103" x="1397.6197" y="317.1594">has annoucement</text><text fill="#000000" font-family="sans-serif" font-size="13" lengthAdjust="spacing" textLength="24" x="1374.7273" y="453.7878">1...*</text><text fill="#000000" font-family="sans-serif" font-size="13" lengthAdjust="spacing" textLength="7" x="734.1723" y="162.8669">1</text></g><!--link Announcement to Client--><g id="link_Announcement_Client"><path
        d="M726.1897,179.6611 C774.6597,196.6111 845.7797,221.6511 907.6197,244.1311 C964.5097,264.8111 1031.2997,290.0111 1064.5697,302.6311 " fill="none" id="Announcement-Client" style="stroke:#181818;stroke-width:1.0;"/><polygon fill="#000000" points="965.319,255.4844,957.8217,249.6328,955.8141,255.1572,965.319,255.4844" style="stroke:#000000;stroke-width:1.0;"/><text fill="#000000" font-family="sans-serif" font-size="13" lengthAdjust="spacing" textLength="58" x="969.6197" y="259.1594">shows list</text></g><!--link Client to Announcement--><g id="link_Client_Announcement"><path
        d="M1064.3697,310.9611 C991.8297,311.6511 755.3397,310.1711 699.6197,263.1311 C680.1297,246.6711 672.5997,218.4911 669.8197,195.6911 " fill="none" id="Client-Announcement" style="stroke:#181818;stroke-width:1.0;"/><polygon fill="#000000" points="699.8204,252.3744,707.6783,257.732,709.3267,252.09,699.8204,252.3744" style="stroke:#000000;stroke-width:1.0;"/><text fill="#000000" font-family="sans-serif" font-size="13" lengthAdjust="spacing" textLength="185" x="713.6197" y="259.1594">requests available properties list</text></g><!--link Client to PurchaseOrder--><g id="link_Client_PurchaseOrder"><path
        d="M1106.6197,324.4111 C1122.5997,333.6111 1144.9397,347.0011 1163.6197,360.1311 C1210.6197,393.1811 1261.2097,434.3711 1297.7397,465.2211 " fill="none" id="Client-PurchaseOrder" style="stroke:#181818;stroke-width:1.0;"/><polygon fill="#000000" points="1193.6452,372.7424,1188.1063,365.0111,1184.6198,369.7433,1193.6452,372.7424" style="stroke:#000000;stroke-width:1.0;"/><text fill="#000000" font-family="sans-serif" font-size="13" lengthAdjust="spacing" textLength="210" x="1198.6197" y="375.1594">selects propertyID and order amount</text></g><!--SRC=[VLPBRniv3BxhLmY-15Z0GNCjZ01U9ui6s3P1qkvTbcYFq1bfAd6Qk47_-rBl6MUpESHwaFpu-4YD_wxDA9mO-62DbPsp0t1q4p1VRqOXluiZFE6f1-v0eZ37VYxWEw7iipP7VX2z1yOkUZWWHykTFdR8bGvQsXesKvAzy7wBwFH-GhYJrZpfNy0_CDPf1Lng9maahWV0pYhF66ea5sxi8BJXdws2dg_vjwSFLwHr4GtoXrxWmRg1lx8BpjSAl7HwZE0NlndBGfEJdV1mxnIuLyRfR_BWRibk7tSsN6m7EncCUo4bZ1It15QDx7eD1Wcd7Js0yzRmPD680U82nSkNQTY3Ypi885kb77YVhg67iRC6ib2rzcWfs6HBg_WpZwQAtJyRS2JNlA1_etMu4qvb_N5sT0wJVKc27Xr0YbbgF2LKJQTQOXOGcCBwfSSTbI0OgiZEZk3mb47pxkvciVrw6fC1uK3S7ufEXGfP_ejukAFikYIf2FF-i6r5Q8UFy6C2ZomUFNGMRLnzTS9uaKbNG_rpqhqAF8KN1AEQmpbDUr3EsY7LPI-mQpiYBL7t-4JD0Eb4_AH2YdqFjpycFGwGgG9rLs4_MM9NnInEP4YYOTNjxI5dUJAtBwFraviHxdOOUti2I8hKaKQUPhS5zpNbGeRqYVuJ22ImfABTpXgbGrR2MQEo7GRjlQxSbVMWLgiT_IFwQUPMJ7hXMLX_UxnhcrByiFwRgjlqPYNAsjXEAYoD9K3XJcUWkUoBxd3fx2OGz7Vbv3RcQPwpx5BjJwXj_suh1YFushR6q6YGaD8zSw7DYU95rAGfLOh7F_9hydIabgCBK5mRbbpagwiL2QukB_zOBH2YohCmwCD87QTzhtt75X99DISboji35wpIEzwluqzkTnBoQ6crG4yYrLSIsd3joKSkJ67SVncTr_8Zfz7AnRoQ7AcS_FgjQemr4IYfHPvu4dqRNdXJ4jgChWMiiPDqQvilO6g3PANQgAGHH-qidZp8YtKNhZTiCLZVbox3biiWjs4bu-zgvFiDAmNCJ0Y29MEXfbJtqCkfjcdippCJesmSs2JZXjiWoJ8aEP0qWy0P3vj8OG3BZzoQtdUppcvdJY-Iss0fU7qqP91gUbx6A5g9U4oraFGC8FXt4jNYNwRgVtsuvcAav-OdiNlnrA-kBgDayU2yoLB2w32TBRrVnoIKPv_QfxFFFjQ4uYnvIZ9dXlDWykt9A8-XXhSMbbyd0OYcaYJjzfwIaofzet0HFr98_ry0]--></g></svg>