<?xml version="1.0" encoding="us-ascii" standalone="no"?><svg xmlns="http://www.w3.org/2000/svg" xmlns:xlink="http://www.w3.org/1999/xlink" contentStyleType="text/css" height="913.5px" preserveAspectRatio="none" style="width:886px;height:913px;background:#FFFFFF;" version="1.1" viewBox="0 0 886 913" width="886.9px" zoomAndPan="magnify"><defs/><g><text fill="#000000" font-family="sans-serif" font-size="9.8" font-weight="bold" lengthAdjust="spacing" textLength="109.2" x="384.2825" y="17.5752">Domain Model - US017</text><!--class PurchaseOrder--><g id="elem_PurchaseOrder"><rect codeLine="18" fill="#F1F1F1" height="77.7738" id="PurchaseOrder" rx="1.75" ry="1.75" style="stroke:#181818;stroke-width:0.3499999999999999;" width="72.1" x="545.615" y="32.6348"/><text fill="#000000" font-family="sans-serif" font-size="9.8" lengthAdjust="spacing" textLength="67.9" x="547.715" y="46.71">PurchaseOrder</text><line style="stroke:#181818;stroke-width:0.3499999999999999;" x1="546.315" x2="617.015" y1="52.6695" y2="52.6695"/><text fill="#000000" font-family="sans-serif" font-size="9.8" lengthAdjust="spacing" textLength="43.4" x="549.815" y="66.0447">userEmail</text><text fill="#000000" font-family="sans-serif" font-size="9.8" lengthAdjust="spacing" textLength="46.2" x="549.815" y="79.0795">propertyID</text><text fill="#000000" font-family="sans-serif" font-size="9.8" lengthAdjust="spacing" textLength="57.4" x="549.815" y="92.1143">orderAmount</text><text fill="#000000" font-family="sans-serif" font-size="9.8" lengthAdjust="spacing" textLength="51.1" x="549.815" y="105.149">acceptance</text></g><!--class Person--><g id="elem_Person"><rect codeLine="25" fill="#F1F1F1" height="77.7738" id="Person" rx="1.75" ry="1.75" style="stroke:#181818;stroke-width:0.3499999999999999;" width="86.8" x="317.765" y="737.5348"/><text fill="#000000" font-family="sans-serif" font-size="9.8" lengthAdjust="spacing" textLength="31.5" x="345.415" y="751.61">Person</text><line style="stroke:#181818;stroke-width:0.3499999999999999;" x1="318.465" x2="403.865" y1="757.5695" y2="757.5695"/><text fill="#000000" font-family="sans-serif" font-size="9.8" lengthAdjust="spacing" textLength="24.5" x="321.965" y="770.9447">name</text><text fill="#000000" font-family="sans-serif" font-size="9.8" lengthAdjust="spacing" textLength="46.9" x="321.965" y="783.9795">taxNumber</text><text fill="#000000" font-family="sans-serif" font-size="9.8" lengthAdjust="spacing" textLength="59.5" x="321.965" y="797.0143">emailAddress</text><text fill="#000000" font-family="sans-serif" font-size="9.8" lengthAdjust="spacing" textLength="78.4" x="321.965" y="810.049">telephoneNumber</text></g><!--class Role--><g id="elem_Role"><rect codeLine="32" fill="#F1F1F1" height="51.7043" id="Role" rx="1.75" ry="1.75" style="stroke:#181818;stroke-width:0.3499999999999999;" width="56.7" x="326.515" y="610.8348"/><text fill="#000000" font-family="sans-serif" font-size="9.8" lengthAdjust="spacing" textLength="20.3" x="344.715" y="624.91">Role</text><line style="stroke:#181818;stroke-width:0.3499999999999999;" x1="327.215" x2="382.515" y1="630.8695" y2="630.8695"/><text fill="#000000" font-family="sans-serif" font-size="9.8" lengthAdjust="spacing" textLength="7.7" x="330.715" y="644.2447">id</text><text fill="#000000" font-family="sans-serif" font-size="9.8" lengthAdjust="spacing" textLength="48.3" x="330.715" y="657.2795">description</text></g><!--class Owner--><g id="elem_Owner"><rect codeLine="37" fill="#F1F1F1" height="25.6348" id="Owner" rx="1.75" ry="1.75" style="stroke:#181818;stroke-width:0.3499999999999999;" width="32.9" x="97.615" y="876.8348"/><text fill="#000000" font-family="sans-serif" font-size="9.8" lengthAdjust="spacing" textLength="28.7" x="99.715" y="890.91">Owner</text><line style="stroke:#181818;stroke-width:0.3499999999999999;" x1="98.315" x2="129.815" y1="896.8695" y2="896.8695"/></g><!--class PassportCard--><g id="elem_PassportCard"><rect codeLine="40" fill="#F1F1F1" height="38.6695" id="PassportCard" rx="1.75" ry="1.75" style="stroke:#181818;stroke-width:0.3499999999999999;" width="102.9" x="407.715" y="617.4848"/><text fill="#000000" font-family="sans-serif" font-size="9.8" lengthAdjust="spacing" textLength="60.9" x="428.715" y="631.56">PassportCard</text><line style="stroke:#181818;stroke-width:0.3499999999999999;" x1="408.415" x2="509.915" y1="637.5195" y2="637.5195"/><text fill="#000000" font-family="sans-serif" font-size="9.8" lengthAdjust="spacing" textLength="94.5" x="411.915" y="650.8947">passportCardNumber</text></g><!--class Address--><g id="elem_Address"><rect codeLine="44" fill="#F1F1F1" height="90.8086" id="Address" rx="1.75" ry="1.75" style="stroke:#181818;stroke-width:0.3499999999999999;" width="44.1" x="257.915" y="591.2348"/><text fill="#000000" font-family="sans-serif" font-size="9.8" lengthAdjust="spacing" textLength="36.4" x="261.765" y="605.31">Address</text><line style="stroke:#181818;stroke-width:0.3499999999999999;" x1="258.615" x2="301.315" y1="611.2695" y2="611.2695"/><text fill="#000000" font-family="sans-serif" font-size="9.8" lengthAdjust="spacing" textLength="25.2" x="262.115" y="624.6447">street</text><text fill="#000000" font-family="sans-serif" font-size="9.8" lengthAdjust="spacing" textLength="14.7" x="262.115" y="637.6795">city</text><text fill="#000000" font-family="sans-serif" font-size="9.8" lengthAdjust="spacing" textLength="28.7" x="262.115" y="650.7143">district</text><text fill="#000000" font-family="sans-serif" font-size="9.8" lengthAdjust="spacing" textLength="21.7" x="262.115" y="663.749">state</text><text fill="#000000" font-family="sans-serif" font-size="9.8" lengthAdjust="spacing" textLength="35.7" x="262.115" y="676.7838">zipCode</text></g><!--class Property--><g id="elem_Property"><rect codeLine="54" fill="#F1F1F1" height="142.9477" id="Property" rx="1.75" ry="1.75" style="stroke:#181818;stroke-width:0.3499999999999999;" width="98.7" x="330.715" y="393.1348"/><text fill="#000000" font-family="sans-serif" font-size="9.8" lengthAdjust="spacing" textLength="37.8" x="361.165" y="407.21">Property</text><line style="stroke:#181818;stroke-width:0.3499999999999999;" x1="331.415" x2="428.715" y1="413.1695" y2="413.1695"/><text fill="#000000" font-family="sans-serif" font-size="9.8" lengthAdjust="spacing" textLength="46.2" x="334.915" y="426.5447">propertyID</text><text fill="#000000" font-family="sans-serif" font-size="9.8" lengthAdjust="spacing" textLength="59.5" x="334.915" y="439.5795">propertyType</text><text fill="#000000" font-family="sans-serif" font-size="9.8" lengthAdjust="spacing" textLength="68.6" x="334.915" y="452.6143">areaOfProperty</text><text fill="#000000" font-family="sans-serif" font-size="9.8" lengthAdjust="spacing" textLength="90.3" x="334.915" y="465.649">distanceFromCentre</text><text fill="#000000" font-family="sans-serif" font-size="9.8" lengthAdjust="spacing" textLength="81.9" x="334.915" y="478.6838">dateOfAcceptance</text><text fill="#000000" font-family="sans-serif" font-size="9.8" lengthAdjust="spacing" textLength="67.2" x="334.915" y="491.7186">dateOfRequest</text><text fill="#000000" font-family="sans-serif" font-size="9.8" lengthAdjust="spacing" textLength="2.8" x="334.915" y="504.7533">&#160;</text><text fill="#000000" font-family="sans-serif" font-size="9.8" lengthAdjust="spacing" textLength="25.9" x="334.915" y="517.7881">Photo</text><text fill="#000000" font-family="sans-serif" font-size="9.8" lengthAdjust="spacing" textLength="52.5" x="334.915" y="530.8229">Transaction</text></g><!--class Building--><g id="elem_Building"><rect codeLine="67" fill="#F1F1F1" height="90.8086" id="Building" rx="1.75" ry="1.75" style="stroke:#181818;stroke-width:0.3499999999999999;" width="94.5" x="64.715" y="591.2348"/><text fill="#000000" font-family="sans-serif" font-size="9.8" lengthAdjust="spacing" textLength="35" x="94.465" y="605.31">Building</text><line style="stroke:#181818;stroke-width:0.3499999999999999;" x1="65.415" x2="158.515" y1="611.2695" y2="611.2695"/><text fill="#000000" font-family="sans-serif" font-size="9.8" lengthAdjust="spacing" textLength="44.1" x="68.915" y="624.6447">bedrooms</text><text fill="#000000" font-family="sans-serif" font-size="9.8" lengthAdjust="spacing" textLength="46.9" x="68.915" y="637.6795">bathrooms</text><text fill="#000000" font-family="sans-serif" font-size="9.8" lengthAdjust="spacing" textLength="65.8" x="68.915" y="650.7143">parkingSpaces</text><text fill="#000000" font-family="sans-serif" font-size="9.8" lengthAdjust="spacing" textLength="86.1" x="68.915" y="663.749">availableEquipment</text><text fill="#000000" font-family="sans-serif" font-size="9.8" lengthAdjust="spacing" textLength="46.2" x="68.915" y="676.7838">equipment</text></g><!--class House--><g id="elem_House"><rect codeLine="75" fill="#F1F1F1" height="64.7391" id="House" rx="1.75" ry="1.75" style="stroke:#181818;stroke-width:0.3499999999999999;" width="65.8" x="178.465" y="744.1848"/><text fill="#000000" font-family="sans-serif" font-size="9.8" lengthAdjust="spacing" textLength="28" x="197.365" y="758.26">House</text><line style="stroke:#181818;stroke-width:0.3499999999999999;" x1="179.165" x2="243.565" y1="764.2195" y2="764.2195"/><text fill="#000000" font-family="sans-serif" font-size="9.8" lengthAdjust="spacing" textLength="43.4" x="182.665" y="777.5947">basement</text><text fill="#000000" font-family="sans-serif" font-size="9.8" lengthAdjust="spacing" textLength="13.3" x="182.665" y="790.6295">loft</text><text fill="#000000" font-family="sans-serif" font-size="9.8" lengthAdjust="spacing" textLength="57.4" x="182.665" y="803.6643">sunExposure</text></g><!--class Employee--><g id="elem_Employee"><rect codeLine="81" fill="#F1F1F1" height="38.6695" id="Employee" rx="1.75" ry="1.75" style="stroke:#181818;stroke-width:0.3499999999999999;" width="47.6" x="692.965" y="870.5348"/><text fill="#000000" font-family="sans-serif" font-size="9.8" lengthAdjust="spacing" textLength="43.4" x="695.065" y="884.61">Employee</text><line style="stroke:#181818;stroke-width:0.3499999999999999;" x1="693.665" x2="739.865" y1="890.5695" y2="890.5695"/><text fill="#000000" font-family="sans-serif" font-size="9.8" lengthAdjust="spacing" textLength="32.2" x="697.165" y="903.9447">agency</text></g><!--class Equipment--><g id="elem_Equipment"><rect codeLine="85" fill="#F1F1F1" height="51.7043" id="Equipment" rx="1.75" ry="1.75" style="stroke:#181818;stroke-width:0.3499999999999999;" width="74.9" x="78.715" y="750.4848"/><text fill="#000000" font-family="sans-serif" font-size="9.8" lengthAdjust="spacing" textLength="46.9" x="92.715" y="764.56">Equipment</text><line style="stroke:#181818;stroke-width:0.3499999999999999;" x1="79.415" x2="152.915" y1="770.5195" y2="770.5195"/><text fill="#000000" font-family="sans-serif" font-size="9.8" lengthAdjust="spacing" textLength="63.7" x="82.915" y="783.8947">centralHeating</text><text fill="#000000" font-family="sans-serif" font-size="9.8" lengthAdjust="spacing" textLength="66.5" x="82.915" y="796.9295">airConditioning</text></g><!--class Commission--><g id="elem_Commission"><rect codeLine="91" fill="#F1F1F1" height="51.7043" id="Commission" rx="1.75" ry="1.75" style="stroke:#181818;stroke-width:0.3499999999999999;" width="84.7" x="139.615" y="286.0348"/><text fill="#000000" font-family="sans-serif" font-size="9.8" lengthAdjust="spacing" textLength="53.2" x="155.365" y="300.11">Commission</text><line style="stroke:#181818;stroke-width:0.3499999999999999;" x1="140.315" x2="223.615" y1="306.0695" y2="306.0695"/><text fill="#000000" font-family="sans-serif" font-size="9.8" lengthAdjust="spacing" textLength="73.5" x="143.815" y="319.4447">commissionType</text><text fill="#000000" font-family="sans-serif" font-size="9.8" lengthAdjust="spacing" textLength="76.3" x="143.815" y="332.4795">commissionValue</text></g><!--class Photo--><g id="elem_Photo"><rect codeLine="96" fill="#F1F1F1" height="64.7391" id="Photo" rx="1.75" ry="1.75" style="stroke:#181818;stroke-width:0.3499999999999999;" width="49" x="184.065" y="604.5348"/><text fill="#000000" font-family="sans-serif" font-size="9.8" lengthAdjust="spacing" textLength="25.9" x="195.615" y="618.61">Photo</text><line style="stroke:#181818;stroke-width:0.3499999999999999;" x1="184.765" x2="232.365" y1="624.5695" y2="624.5695"/><text fill="#000000" font-family="sans-serif" font-size="9.8" lengthAdjust="spacing" textLength="40.6" x="188.265" y="637.9447">photoURI</text><text fill="#000000" font-family="sans-serif" font-size="9.8" lengthAdjust="spacing" textLength="34.3" x="188.265" y="650.9795">photoID</text><text fill="#000000" font-family="sans-serif" font-size="9.8" lengthAdjust="spacing" textLength="40.6" x="188.265" y="664.0143">photoList</text></g><!--class Transaction--><g id="elem_Transaction"><rect codeLine="102" fill="#F1F1F1" height="51.7043" id="Transaction" rx="1.75" ry="1.75" style="stroke:#181818;stroke-width:0.3499999999999999;" width="79.8" x="535.465" y="610.8348"/><text fill="#000000" font-family="sans-serif" font-size="9.8" lengthAdjust="spacing" textLength="52.5" x="549.115" y="624.91">Transaction</text><line style="stroke:#181818;stroke-width:0.3499999999999999;" x1="536.165" x2="614.565" y1="630.8695" y2="630.8695"/><text fill="#000000" font-family="sans-serif" font-size="9.8" lengthAdjust="spacing" textLength="71.4" x="539.665" y="644.2447">transactionType</text><text fill="#000000" font-family="sans-serif" font-size="9.8" lengthAdjust="spacing" textLength="66.5" x="539.665" y="657.2795">monetaryValue</text></g><!--class Request--><g id="elem_Request"><rect codeLine="107" fill="#F1F1F1" height="51.7043" id="Request" rx="1.75" ry="1.75" style="stroke:#181818;stroke-width:0.3499999999999999;" width="63" x="191.765" y="438.6348"/><text fill="#000000" font-family="sans-serif" font-size="9.8" lengthAdjust="spacing" textLength="37.1" x="204.715" y="452.71">Request</text><line style="stroke:#181818;stroke-width:0.3499999999999999;" x1="192.465" x2="254.065" y1="458.6695" y2="458.6695"/><text fill="#000000" font-family="sans-serif" font-size="9.8" lengthAdjust="spacing" textLength="7.7" x="195.965" y="472.0447">id</text><text fill="#000000" font-family="sans-serif" font-size="9.8" lengthAdjust="spacing" textLength="54.6" x="195.965" y="485.0795">requestDate</text></g><!--class Agency--><g id="elem_Agency"><rect codeLine="113" fill="#F1F1F1" height="77.7738" id="Agency" rx="1.75" ry="1.75" style="stroke:#181818;stroke-width:0.3499999999999999;" width="86.8" x="667.065" y="153.0348"/><text fill="#000000" font-family="sans-serif" font-size="9.8" lengthAdjust="spacing" textLength="32.9" x="694.015" y="167.11">Agency</text><line style="stroke:#181818;stroke-width:0.3499999999999999;" x1="667.765" x2="753.165" y1="173.0695" y2="173.0695"/><text fill="#000000" font-family="sans-serif" font-size="9.8" lengthAdjust="spacing" textLength="41.3" x="671.265" y="186.4447">agencyID</text><text fill="#000000" font-family="sans-serif" font-size="9.8" lengthAdjust="spacing" textLength="24.5" x="671.265" y="199.4795">name</text><text fill="#000000" font-family="sans-serif" font-size="9.8" lengthAdjust="spacing" textLength="23.1" x="671.265" y="212.5143">email</text><text fill="#000000" font-family="sans-serif" font-size="9.8" lengthAdjust="spacing" textLength="78.4" x="671.265" y="225.549">telephoneNumber</text></g><!--class Agent--><g id="elem_Agent"><rect codeLine="120" fill="#F1F1F1" height="25.6348" id="Agent" rx="1.75" ry="1.75" style="stroke:#181818;stroke-width:0.3499999999999999;" width="30.1" x="393.715" y="298.9848"/><text fill="#000000" font-family="sans-serif" font-size="9.8" lengthAdjust="spacing" textLength="25.9" x="395.815" y="313.06">Agent</text><line style="stroke:#181818;stroke-width:0.3499999999999999;" x1="394.415" x2="423.115" y1="319.0195" y2="319.0195"/></g><!--class Announcement--><g id="elem_Announcement"><rect codeLine="122" fill="#F1F1F1" height="51.7043" id="Announcement" rx="1.75" ry="1.75" style="stroke:#181818;stroke-width:0.3499999999999999;" width="80.5" x="368.515" y="165.9848"/><text fill="#000000" font-family="sans-serif" font-size="9.8" lengthAdjust="spacing" textLength="66.5" x="375.515" y="180.06">Announcement</text><line style="stroke:#181818;stroke-width:0.3499999999999999;" x1="369.215" x2="448.315" y1="186.0195" y2="186.0195"/><text fill="#000000" font-family="sans-serif" font-size="9.8" lengthAdjust="spacing" textLength="7.7" x="372.715" y="199.3947">id</text><text fill="#000000" font-family="sans-serif" font-size="9.8" lengthAdjust="spacing" textLength="72.1" x="372.715" y="212.4295">acceptanceDate</text></g><!--class NetworkManager--><g id="elem_NetworkManager"><rect fill="#F1F1F1" height="25.6348" id="NetworkManager" rx="1.75" ry="1.75" style="stroke:#181818;stroke-width:0.3499999999999999;" width="78.4" x="702.065" y="58.5348"/><text fill="#000000" font-family="sans-serif" font-size="9.8" lengthAdjust="spacing" textLength="74.2" x="704.165" y="72.61">NetworkManager</text><line style="stroke:#181818;stroke-width:0.3499999999999999;" x1="702.765" x2="779.765" y1="78.5695" y2="78.5695"/></g><!--reverse link Property to Building--><g id="link_Property_Building"><path d="M318.57,506.7798 C302.092,517.0138 284.025,527.4578 266.665,535.9348 C242.249,547.8488 232.883,543.5158 209.265,556.9348 C191.947,566.7768 174.573,579.6848 159.404,592.2148 " fill="none" id="Property-backto-Building" style="stroke:#181818;stroke-width:0.6999999999999998;"/><polygon fill="none" points="316.085,502.5588,330.533,499.2198,321.321,510.8398,316.085,502.5588" style="stroke:#181818;stroke-width:0.6999999999999998;"/></g><!--reverse link Building to House--><g id="link_Building_House"><path d="M170.142,682.5078 C179.312,690.4948 186.907,697.9358 190.365,703.2348 C198.296,715.4148 203.301,730.6538 206.423,744.0098 " fill="none" id="Building-backto-House" style="stroke:#181818;stroke-width:0.6999999999999998;"/><polygon fill="none" points="166.817,686.1128,159.264,673.3518,173.131,678.6158,166.817,686.1128" style="stroke:#181818;stroke-width:0.6999999999999998;"/></g><!--link Agent to Employee--><g id="link_Agent_Employee"><path codeLine="127" d="M423.983,314.2098 C478.982,320.8318 664.265,351.4708 664.265,463.8348 C664.265,463.8348 664.265,463.8348 664.265,777.0848 C664.265,812.7358 686.336,849.2408 701.862,870.5068 " fill="none" id="Agent-Employee" style="stroke:#181818;stroke-width:0.6999999999999998;"/><polygon fill="#000000" points="669.329,639.9677,668.3401,633.3842,664.6593,635.2228,669.329,639.9677" style="stroke:#000000;stroke-width:0.6999999999999998;"/><text fill="#000000" font-family="sans-serif" font-size="9.1" lengthAdjust="spacing" textLength="57.4" x="674.065" y="640.6046">represented in</text></g><!--link Agency to Announcement--><g id="link_Agency_Announcement"><path codeLine="128" d="M666.911,191.8848 C608.559,191.8848 505.82,191.8848 449.141,191.8848 " fill="none" id="Agency-Announcement" style="stroke:#181818;stroke-width:0.6999999999999998;"/><polygon fill="#000000" points="519.89,183.2366,526.2216,185.2939,526.2216,181.1794,519.89,183.2366" style="stroke:#000000;stroke-width:0.6999999999999998;"/><text fill="#000000" font-family="sans-serif" font-size="9.1" lengthAdjust="spacing" textLength="65.8" x="529.69" y="187.0046">wants to publish</text><text fill="#000000" font-family="sans-serif" font-size="9.1" lengthAdjust="spacing" textLength="4.9" x="656.6918" y="189.1241">1</text><text fill="#000000" font-family="sans-serif" font-size="9.1" lengthAdjust="spacing" textLength="9.1" x="454.6164" y="189.0977">..*</text></g><!--link Announcement to Request--><g id="link_Announcement_Request"><path codeLine="129" d="M391.475,217.8618 C356.132,269.5498 275.94,386.8068 240.569,438.5228 " fill="none" id="Announcement-Request" style="stroke:#181818;stroke-width:0.6999999999999998;"/><polygon fill="#000000" points="345.1893,314.9256,350.4615,310.8607,347.0653,308.538,345.1893,314.9256" style="stroke:#000000;stroke-width:0.6999999999999998;"/><text fill="#000000" font-family="sans-serif" font-size="9.1" lengthAdjust="spacing" textLength="14.7" x="353.465" y="315.8046">of a</text><text fill="#000000" font-family="sans-serif" font-size="9.1" lengthAdjust="spacing" textLength="4.9" x="383.1822" y="233.1948">1</text></g><!--link Property to Address--><g id="link_Property_Address"><path codeLine="130" d="M370.09,536.1588 C366.1,548.3528 360.528,560.2878 352.765,570.2348 C340.767,585.5998 329.063,578.5508 314.265,591.2348 C309.946,594.9308 305.83,599.2498 302.036,603.7228 " fill="none" id="Property-Address" style="stroke:#181818;stroke-width:0.6999999999999998;"/><text fill="#000000" font-family="sans-serif" font-size="9.1" lengthAdjust="spacing" textLength="25.2" x="361.865" y="567.4546">stores</text><text fill="#000000" font-family="sans-serif" font-size="9.1" lengthAdjust="spacing" textLength="4.9" x="364.3164" y="551.435">1</text><text fill="#000000" font-family="sans-serif" font-size="9.1" lengthAdjust="spacing" textLength="4.9" x="307.7065" y="592.6783">1</text></g><!--link Address to Property--><g id="link_Address_Property"><path codeLine="145" d="M278.509,591.0808 C279.573,579.5238 282.023,567.4068 286.965,556.9348 C296.884,535.8998 313.782,517.0138 330.484,501.9218 " fill="none" id="Address-Property" style="stroke:#181818;stroke-width:0.6999999999999998;"/><polygon fill="#000000" points="288.7023,566.7104,293.6683,562.2764,290.1137,560.2043,288.7023,566.7104" style="stroke:#000000;stroke-width:0.6999999999999998;"/><text fill="#000000" font-family="sans-serif" font-size="9.1" lengthAdjust="spacing" textLength="49.7" x="296.765" y="567.4546">has address</text><text fill="#000000" font-family="sans-serif" font-size="9.1" lengthAdjust="spacing" textLength="4.9" x="273.1818" y="583.378">1</text><text fill="#000000" font-family="sans-serif" font-size="9.1" lengthAdjust="spacing" textLength="4.9" x="320.2183" y="516.2136">1</text></g><!--link Agency to Employee--><g id="link_Agency_Employee"><path codeLine="131" d="M740.551,230.8888 C755.02,253.0718 769.265,282.2688 769.265,311.2348 C769.265,311.2348 769.265,311.2348 769.265,777.0848 C769.265,812.7358 747.187,849.2408 731.668,870.5068 " fill="none" id="Agency-Employee" style="stroke:#181818;stroke-width:0.6999999999999998;"/><polygon fill="#000000" points="772.8136,560.187,770.6686,566.4893,774.7827,566.5465,772.8136,560.187" style="stroke:#000000;stroke-width:0.6999999999999998;"/><text fill="#000000" font-family="sans-serif" font-size="9.1" lengthAdjust="spacing" textLength="61.6" x="779.065" y="567.4546">is in an agency</text><text fill="#000000" font-family="sans-serif" font-size="9.1" lengthAdjust="spacing" textLength="4.9" x="739.0191" y="246.1953">1</text><text fill="#000000" font-family="sans-serif" font-size="9.1" lengthAdjust="spacing" textLength="4.9" x="729.6478" y="862.5966">1</text></g><!--link Property to Transaction--><g id="link_Property_Transaction"><path codeLine="132" d="M429.597,508.5578 C466.55,540.8698 515.76,583.9058 546.497,610.7928 " fill="none" id="Property-Transaction" style="stroke:#181818;stroke-width:0.6999999999999998;"/><polygon fill="#000000" points="500.9996,565.9907,497.5879,560.274,494.8792,563.3712,500.9996,565.9907" style="stroke:#000000;stroke-width:0.6999999999999998;"/><text fill="#000000" font-family="sans-serif" font-size="9.1" lengthAdjust="spacing" textLength="90.3" x="504.665" y="567.4546">has a transaction type</text><text fill="#000000" font-family="sans-serif" font-size="9.1" lengthAdjust="spacing" textLength="4.9" x="434.9576" y="510.4068">1</text><text fill="#000000" font-family="sans-serif" font-size="9.1" lengthAdjust="spacing" textLength="4.9" x="535.8227" y="602.8601">1</text></g><!--link Property to Photo--><g id="link_Property_Photo"><path codeLine="133" d="M330.582,497.8688 C310.989,510.3148 288.064,524.3008 266.665,535.9348 C247.345,546.4348 235.165,539.4208 221.865,556.9348 C211.673,570.3538 208.145,588.7568 207.256,604.4368 " fill="none" id="Property-Photo" style="stroke:#181818;stroke-width:0.6999999999999998;"/><polygon fill="#000000" points="222.7167,565.975,228.8526,563.3919,226.1624,560.2787,222.7167,565.975" style="stroke:#000000;stroke-width:0.6999999999999998;"/><text fill="#000000" font-family="sans-serif" font-size="9.1" lengthAdjust="spacing" textLength="44.8" x="231.665" y="567.4546">has photos</text><text fill="#000000" font-family="sans-serif" font-size="9.1" lengthAdjust="spacing" textLength="4.9" x="320.3264" y="498.6155">1</text><text fill="#000000" font-family="sans-serif" font-size="9.1" lengthAdjust="spacing" textLength="9.1" x="197.2955" y="596.729">..*</text></g><!--link Announcement to Commission--><g id="link_Announcement_Commission"><path codeLine="134" d="M368.417,197.1208 C309.071,204.7158 202.762,222.1668 179.865,251.7348 C172.522,261.2128 172.263,274.3168 174.181,285.8178 " fill="none" id="Announcement-Commission" style="stroke:#181818;stroke-width:0.6999999999999998;"/><polygon fill="#000000" points="180.1812,259.9405,186.7953,259.1818,185.0862,255.4391,180.1812,259.9405" style="stroke:#000000;stroke-width:0.6999999999999998;"/><text fill="#000000" font-family="sans-serif" font-size="9.1" lengthAdjust="spacing" textLength="74.2" x="189.665" y="262.2546">has a commission</text><text fill="#000000" font-family="sans-serif" font-size="9.1" lengthAdjust="spacing" textLength="4.9" x="358.0335" y="194.9683">1</text><text fill="#000000" font-family="sans-serif" font-size="9.1" lengthAdjust="spacing" textLength="4.9" x="167.4581" y="278.0523">1</text></g><!--link Building to Equipment--><g id="link_Building_Equipment"><path codeLine="135" d="M113.33,682.3188 C114.009,704.8728 114.814,731.3608 115.395,750.3518 " fill="none" id="Building-Equipment" style="stroke:#181818;stroke-width:0.6999999999999998;"/><polygon fill="#000000" points="118.3712,713.485,120.2354,707.094,116.1228,707.2188,118.3712,713.485" style="stroke:#000000;stroke-width:0.6999999999999998;"/><text fill="#000000" font-family="sans-serif" font-size="9.1" lengthAdjust="spacing" textLength="59.5" x="124.565" y="713.7546">has equipment</text><text fill="#000000" font-family="sans-serif" font-size="9.1" lengthAdjust="spacing" textLength="4.9" x="108.3181" y="697.4734">1</text><text fill="#000000" font-family="sans-serif" font-size="9.1" lengthAdjust="spacing" textLength="9.1" x="105.3474" y="742.6013">..*</text></g><!--link Role to Person--><g id="link_Role_Person"><path codeLine="136" d="M356.02,662.7888 C356.972,683.6838 358.337,713.6368 359.422,737.4368 " fill="none" id="Role-Person" style="stroke:#181818;stroke-width:0.6999999999999998;"/><polygon fill="#000000" points="362.4057,706.4903,360.6388,712.9089,364.749,712.7216,362.4057,706.4903" style="stroke:#000000;stroke-width:0.6999999999999998;"/><text fill="#000000" font-family="sans-serif" font-size="9.1" lengthAdjust="spacing" textLength="39.9" x="368.865" y="713.7546">has a role</text><text fill="#000000" font-family="sans-serif" font-size="9.1" lengthAdjust="spacing" textLength="4.9" x="350.9055" y="677.934">1</text><text fill="#000000" font-family="sans-serif" font-size="9.1" lengthAdjust="spacing" textLength="4.9" x="353.9848" y="729.6124">1</text></g><!--link PassportCard to Person--><g id="link_PassportCard_Person"><path codeLine="137" d="M450.317,656.0618 C442.12,672.5678 429.114,697.0118 415.065,716.5348 C410.032,723.5278 404.278,730.5978 398.44,737.3108 " fill="none" id="PassportCard-Person" style="stroke:#181818;stroke-width:0.6999999999999998;"/><polygon fill="#000000" points="428.1485,707.0367,423.0072,711.2661,426.4751,713.4803,428.1485,707.0367" style="stroke:#000000;stroke-width:0.6999999999999998;"/><text fill="#000000" font-family="sans-serif" font-size="9.1" lengthAdjust="spacing" textLength="80.5" x="432.565" y="713.7546">has a passport card</text><text fill="#000000" font-family="sans-serif" font-size="9.1" lengthAdjust="spacing" textLength="4.9" x="442.8043" y="671.7308">1</text><text fill="#000000" font-family="sans-serif" font-size="9.1" lengthAdjust="spacing" textLength="4.9" x="397.7843" y="729.7512">1</text></g><!--link Address to Person--><g id="link_Address_Person"><path codeLine="138" d="M281.617,682.3468 C283.486,694.0228 286.804,706.2098 292.565,716.5348 C298.802,727.7278 308.021,737.7938 317.695,746.3058 " fill="none" id="Address-Person" style="stroke:#181818;stroke-width:0.6999999999999998;"/><polygon fill="#000000" points="294.3454,706.9382,295.6643,713.4636,299.248,711.4421,294.3454,706.9382" style="stroke:#000000;stroke-width:0.6999999999999998;"/><text fill="#000000" font-family="sans-serif" font-size="9.1" lengthAdjust="spacing" textLength="49.7" x="302.365" y="713.7546">has address</text><text fill="#000000" font-family="sans-serif" font-size="9.1" lengthAdjust="spacing" textLength="4.9" x="276.6347" y="697.5043">1</text><text fill="#000000" font-family="sans-serif" font-size="9.1" lengthAdjust="spacing" textLength="4.9" x="307.1985" y="739.8425">1</text></g><!--link Request to Property--><g id="link_Request_Property"><path codeLine="139" d="M254.807,464.5348 C276.535,464.5348 305.858,464.5348 330.666,464.5348 " fill="none" id="Request-Property" style="stroke:#181818;stroke-width:0.6999999999999998;"/><polygon fill="#000000" points="273.84,455.8866,267.5084,453.8294,267.5084,457.9439,273.84,455.8866" style="stroke:#000000;stroke-width:0.6999999999999998;"/><text fill="#000000" font-family="sans-serif" font-size="9.1" lengthAdjust="spacing" textLength="41.3" x="276.64" y="459.6546">listing of a</text><text fill="#000000" font-family="sans-serif" font-size="9.1" lengthAdjust="spacing" textLength="4.9" x="260.4369" y="461.4939">1</text><text fill="#000000" font-family="sans-serif" font-size="9.1" lengthAdjust="spacing" textLength="4.9" x="320.095" y="461.8069">1</text></g><!--link Request to Owner--><g id="link_Request_Owner"><path codeLine="140" d="M191.464,478.4648 C151.242,497.0778 83.482,535.1228 52.465,591.2348 C4.2,678.5318 27.818,723.2758 66.465,815.2348 C76.272,838.5798 93.373,862.7018 104.188,876.7788 " fill="none" id="Request-Owner" style="stroke:#181818;stroke-width:0.6999999999999998;"/><polygon fill="#000000" points="32.8159,713.4055,36.1806,707.661,32.1615,706.7804,32.8159,713.4055" style="stroke:#000000;stroke-width:0.6999999999999998;"/><text fill="#000000" font-family="sans-serif" font-size="9.1" lengthAdjust="spacing" textLength="53.9" x="39.865" y="713.7546">has an owner</text><text fill="#000000" font-family="sans-serif" font-size="9.1" lengthAdjust="spacing" textLength="9.1" x="177.0249" y="477.5786">..*</text><text fill="#000000" font-family="sans-serif" font-size="9.1" lengthAdjust="spacing" textLength="4.9" x="95.5129" y="868.9651">1</text></g><!--link Person to Owner--><g id="link_Person_Owner"><path codeLine="141" d="M317.555,796.8528 C261.996,822.0318 168.644,864.3468 130.774,881.5108 " fill="none" id="Person-Owner" style="stroke:#181818;stroke-width:0.6999999999999998;"/><polygon fill="#000000" points="236.9528,841.5417,230.3367,842.2818,232.0353,846.0293,236.9528,841.5417" style="stroke:#000000;stroke-width:0.6999999999999998;"/><text fill="#000000" font-family="sans-serif" font-size="9.1" lengthAdjust="spacing" textLength="57.4" x="240.065" y="846.7546">represented in</text></g><!--link Person to Employee--><g id="link_Person_Employee"><path codeLine="142" d="M404.586,790.7628 C480.277,814.5978 633.906,862.9888 692.93,881.5808 " fill="none" id="Person-Employee" style="stroke:#181818;stroke-width:0.6999999999999998;"/></g><!--link Agent to Request--><g id="link_Agent_Request"><path codeLine="143" d="M393.631,318.7668 C375.438,326.5438 344.463,341.0968 321.265,358.8348 C290.661,382.2358 261.303,415.6328 242.83,438.4388 " fill="none" id="Agent-Request" style="stroke:#181818;stroke-width:0.6999999999999998;"/><polygon fill="#000000" points="322.0234,367.7623,328.2618,365.4379,325.7042,362.215,322.0234,367.7623" style="stroke:#000000;stroke-width:0.6999999999999998;"/><text fill="#000000" font-family="sans-serif" font-size="9.1" lengthAdjust="spacing" textLength="46.9" x="331.065" y="369.3546">assigned to</text><text fill="#000000" font-family="sans-serif" font-size="9.1" lengthAdjust="spacing" textLength="4.9" x="383.1261" y="317.0425">1</text><text fill="#000000" font-family="sans-serif" font-size="9.1" lengthAdjust="spacing" textLength="9.1" x="236.4045" y="430.6771">..*</text></g><!--link Agent to Request--><g id="link_Agent_Request"><path codeLine="146" d="M406.161,325.0948 C402.731,338.5138 395.423,359.6118 381.465,372.1348 C359.492,391.8468 344.638,379.4988 318.465,393.1348 C294.637,405.5458 270.361,423.6758 252.287,438.4668 " fill="none" id="Agent-Request-1" style="stroke:#181818;stroke-width:0.6999999999999998;"/><polygon fill="#000000" points="392.6472,367.6627,398.9649,365.5633,396.5243,362.2508,392.6472,367.6627" style="stroke:#000000;stroke-width:0.6999999999999998;"/><text fill="#000000" font-family="sans-serif" font-size="9.1" lengthAdjust="spacing" textLength="35.7" x="401.765" y="369.3546">approves</text><text fill="#000000" font-family="sans-serif" font-size="9.1" lengthAdjust="spacing" textLength="4.9" x="399.9027" y="340.1134">1</text><text fill="#000000" font-family="sans-serif" font-size="9.1" lengthAdjust="spacing" textLength="9.1" x="247.5461" y="430.7101">..*</text></g><!--link Announcement to Agent--><g id="link_Announcement_Agent"><path codeLine="144" d="M408.765,218.0368 C408.765,242.9568 408.765,279.8748 408.765,298.9008 " fill="none" id="Announcement-Agent" style="stroke:#181818;stroke-width:0.6999999999999998;"/><polygon fill="#000000" points="412.265,254.9866,410.2078,261.3182,414.3222,261.3182,412.265,254.9866" style="stroke:#000000;stroke-width:0.6999999999999998;"/><text fill="#000000" font-family="sans-serif" font-size="9.1" lengthAdjust="spacing" textLength="30.1" x="418.565" y="262.2546">creates</text><text fill="#000000" font-family="sans-serif" font-size="9.1" lengthAdjust="spacing" textLength="9.1" x="398.9114" y="233.1983">..*</text><text fill="#000000" font-family="sans-serif" font-size="9.1" lengthAdjust="spacing" textLength="4.9" x="403.1147" y="291.0785">1</text></g><!--link NetworkManager to Employee--><g id="link_NetworkManager_Employee"><path codeLine="148" d="M767.634,84.5888 C801.913,102.7538 857.465,140.0778 857.465,191.1848 C857.465,191.1848 857.465,191.1848 857.465,777.0848 C857.465,836.0948 780.773,869.0158 740.628,882.2108 " fill="none" id="NetworkManager-Employee" style="stroke:#181818;stroke-width:0.6999999999999998;"/><polygon fill="#000000" points="860.8466,468.1346,863.1169,461.8763,859.0047,461.7371,860.8466,468.1346" style="stroke:#000000;stroke-width:0.6999999999999998;"/><text fill="#000000" font-family="sans-serif" font-size="9.1" lengthAdjust="spacing" textLength="14.7" x="867.265" y="468.4046">is a</text></g><!--link NetworkManager to PurchaseOrder--><g id="link_NetworkManager_PurchaseOrder"><path codeLine="149" d="M701.834,71.4848 C676.151,71.4848 642.894,71.4848 617.876,71.4848 " fill="none" id="NetworkManager-PurchaseOrder" style="stroke:#181818;stroke-width:0.6999999999999998;"/><polygon fill="#000000" points="629.79,62.8366,636.1216,64.8939,636.1216,60.7794,629.79,62.8366" style="stroke:#000000;stroke-width:0.6999999999999998;"/><text fill="#000000" font-family="sans-serif" font-size="9.1" lengthAdjust="spacing" textLength="49.7" x="639.59" y="66.6046">requests list</text></g><!--link PurchaseOrder to NetworkManager--><g id="link_PurchaseOrder_NetworkManager"><path codeLine="150" d="M617.883,82.3348 C625.667,84.2248 633.899,85.8978 641.69,86.8848 C657.741,88.9078 662.025,88.8168 678.09,86.8848 C685.825,85.9538 693.973,84.4068 701.764,82.6428 " fill="none" id="PurchaseOrder-NetworkManager" style="stroke:#181818;stroke-width:0.6999999999999998;"/><polygon fill="#000000" points="648.69,80.3495,642.366,78.269,642.3509,82.3835,648.69,80.3495" style="stroke:#000000;stroke-width:0.6999999999999998;"/><text fill="#000000" font-family="sans-serif" font-size="9.1" lengthAdjust="spacing" textLength="25.9" x="651.49" y="84.1046">shows</text></g><!--link PurchaseOrder to Announcement--><g id="link_PurchaseOrder_Announcement"><path codeLine="151" d="M545.419,97.1328 C516.11,117.3068 475.013,145.5868 445.557,165.8588 " fill="none" id="PurchaseOrder-Announcement" style="stroke:#181818;stroke-width:0.6999999999999998;"/></g><!--SRC=[VLPDRniv3BthLmYv15WWHNigK1W1l4uM3T0sHTBkNTRG7Y4paYfnwhX6__jItpDEipd4-dZaeyX7slv9QIkS6Fbej96zCoDmT1CmNs-ia4zY3uzu780xa2ZqVfW3V2ywSr1wptTYyC3OvG0xv6YuK_iUUQU2bJAQpOpa8BnV8pgrdH3kfD6FwXVmjuprgWCkbPD44jSZO6ywpnWgf11kp2YKvfzD1mE_ujyVtxvxJvpH8Vyw2DmPD_8Jk-JygWCldRAH_F8tOnaqETaB3_Uk0tTYdFuc3-wM_0vnPvsnuF1uTnEt9k3MevaqnhsG4YobGG9hFi5vetdofiK8SO7Y-SiqRi757GI2TTSvy3vTmm2sDneog7fxCFJGv4jryMF-aWgxFsXmX6jHq3zh76w4wxAzdHsTq-HO4j2Z0qWFb0gFYLNHgPAO0GBJitufkw7q1qULEQVizAS4bksteqqEX0DnloisbIgaz1_Iu0Oq1PEEYVD-jsuPRuSFy6C2ZomUVUqDchZwveJs8WkkFlNlIGrTq2Wy8-Yk1PpJj8NE6JEckcm5zcr7WYNPxX-f4I2TY9zKIB4TuFR7fEm8MHTGTvNseo5bLSuIHAOa2LRRmUnobYTz-soDdznCNRUZ7SmH81bIDsfvdDqMtbFAXGpf4yD744XaoKIvZT6T2ba9PzLsOyPHUQ-gTcKzgDLgH_-AOPgBFYIzw2oilp_SjKqfVbX_ekeskrc9iZMsaqfB8mbGkECPQIxxeZjSEhi90lrTDRcEUPhdB8TK-nDgox_QYi49djfMQve34bAwPo6qeL2YY9OqeKhn-0T-JP5QQZcwW8uhpLA8_EBT1G4lthpvwsB144qEGgCFuzHEsq7vdYqGoJGd9UBDZWjMvHtlh-97RdS2UJIqMh0dI8sLG2kkFCN8XIwA-vFJUIq_S1ghNCohoP7AoQzVciQt9W4biwWJJz2NpqjCCwaMegPCigijlg2epP6DQfEIHHopCuOyn8jt5wvNR35KNqUNGSjbmArOoVQh5lb-nKhniWe2i6Ghr9Dg7leurJMD_8WCtxBbbQt-g-HSSnEGB5DI0Cao0Cuqs22b-bcwYpms1dgdsckofTATLoj2gzxsAUsIfZs2VoKdxQdBhFnl3DTSMFfM-KaYPby03yOzVHQQPEgM3QT2PQxF8OHP_WWWP1uXFgOx27PnJnPdFgY9UdFmBv0Kx3mbx3y0]--></g></svg>