<?xml version="1.0" encoding="us-ascii" standalone="no"?><svg xmlns="http://www.w3.org/2000/svg" xmlns:xlink="http://www.w3.org/1999/xlink" contentStyleType="text/css" height="878.4px" preserveAspectRatio="none" style="width:509px;height:878px;background:#FFFFFF;" version="1.1" viewBox="0 0 509 878" width="509.4px" zoomAndPan="magnify"><defs/><g><text fill="#000000" font-family="sans-serif" font-size="12.6" font-weight="bold" lengthAdjust="spacing" textLength="140.4" x="178.425" y="20.4064">Domain Model - US008</text><!--class Agent--><g id="elem_Agent"><rect codeLine="18" fill="#F1F1F1" height="30.2766" id="Agent" rx="2.25" ry="2.25" style="stroke:#181818;stroke-width:0.45;" width="38.7" x="15.75" y="377.2266"/><text fill="#000000" font-family="sans-serif" font-size="12.6" lengthAdjust="spacing" textLength="33.3" x="18.45" y="393.133">Agent</text><line style="stroke:#181818;stroke-width:0.45;" x1="16.65" x2="53.55" y1="400.3031" y2="400.3031"/></g><!--class Person--><g id="elem_Person"><rect codeLine="25" fill="#F1F1F1" height="86.5828" id="Person" rx="2.25" ry="2.25" style="stroke:#181818;stroke-width:0.45;" width="111.6" x="202.5" y="687.2766"/><text fill="#000000" font-family="sans-serif" font-size="12.6" lengthAdjust="spacing" textLength="40.5" x="238.05" y="703.183">Person</text><line style="stroke:#181818;stroke-width:0.45;" x1="203.4" x2="313.2" y1="710.3531" y2="710.3531"/><text fill="#000000" font-family="sans-serif" font-size="12.6" lengthAdjust="spacing" textLength="31.5" x="207.9" y="725.3596">name</text><text fill="#000000" font-family="sans-serif" font-size="12.6" lengthAdjust="spacing" textLength="60.3" x="207.9" y="739.4361">taxNumber</text><text fill="#000000" font-family="sans-serif" font-size="12.6" lengthAdjust="spacing" textLength="76.5" x="207.9" y="753.5127">emailAddress</text><text fill="#000000" font-family="sans-serif" font-size="12.6" lengthAdjust="spacing" textLength="100.8" x="207.9" y="767.5893">telephoneNumber</text></g><!--class PassportCard--><g id="elem_PassportCard"><rect codeLine="32" fill="#F1F1F1" height="44.3531" id="PassportCard" rx="2.25" ry="2.25" style="stroke:#181818;stroke-width:0.45;" width="104.4" x="206.1" y="546.4266"/><text fill="#000000" font-family="sans-serif" font-size="12.6" lengthAdjust="spacing" textLength="78.3" x="219.15" y="562.333">PassportCard</text><line style="stroke:#181818;stroke-width:0.45;" x1="207" x2="309.6" y1="569.5031" y2="569.5031"/><text fill="#000000" font-family="sans-serif" font-size="12.6" lengthAdjust="spacing" textLength="93.6" x="211.5" y="584.5096">passportNumber</text></g><!--class Address--><g id="elem_Address"><rect codeLine="36" fill="#F1F1F1" height="100.6594" id="Address" rx="2.25" ry="2.25" style="stroke:#181818;stroke-width:0.45;" width="56.7" x="342.45" y="518.0766"/><text fill="#000000" font-family="sans-serif" font-size="12.6" lengthAdjust="spacing" textLength="46.8" x="347.4" y="533.983">Address</text><line style="stroke:#181818;stroke-width:0.45;" x1="343.35" x2="398.25" y1="541.1531" y2="541.1531"/><text fill="#000000" font-family="sans-serif" font-size="12.6" lengthAdjust="spacing" textLength="32.4" x="347.85" y="556.1596">street</text><text fill="#000000" font-family="sans-serif" font-size="12.6" lengthAdjust="spacing" textLength="18.9" x="347.85" y="570.2361">city</text><text fill="#000000" font-family="sans-serif" font-size="12.6" lengthAdjust="spacing" textLength="36.9" x="347.85" y="584.3127">district</text><text fill="#000000" font-family="sans-serif" font-size="12.6" lengthAdjust="spacing" textLength="27.9" x="347.85" y="598.3893">state</text><text fill="#000000" font-family="sans-serif" font-size="12.6" lengthAdjust="spacing" textLength="45.9" x="347.85" y="612.4658">zipCode</text></g><!--class User--><g id="elem_User"><rect codeLine="43" fill="#F1F1F1" height="72.5063" id="User" rx="2.25" ry="2.25" style="stroke:#181818;stroke-width:0.45;" width="87.3" x="365.85" y="694.0266"/><text fill="#000000" font-family="sans-serif" font-size="12.6" lengthAdjust="spacing" textLength="26.1" x="396.45" y="709.933">User</text><line style="stroke:#181818;stroke-width:0.45;" x1="366.75" x2="452.25" y1="717.1031" y2="717.1031"/><text fill="#000000" font-family="sans-serif" font-size="12.6" lengthAdjust="spacing" textLength="31.5" x="371.25" y="732.1096">name</text><text fill="#000000" font-family="sans-serif" font-size="12.6" lengthAdjust="spacing" textLength="76.5" x="371.25" y="746.1861">emailAddress</text><text fill="#000000" font-family="sans-serif" font-size="12.6" lengthAdjust="spacing" textLength="54" x="371.25" y="760.2627">password</text></g><!--class Role--><g id="elem_Role"><rect codeLine="49" fill="#F1F1F1" height="58.4297" id="Role" rx="2.25" ry="2.25" style="stroke:#181818;stroke-width:0.45;" width="72.9" x="430.65" y="539.2266"/><text fill="#000000" font-family="sans-serif" font-size="12.6" lengthAdjust="spacing" textLength="26.1" x="454.05" y="555.133">Role</text><line style="stroke:#181818;stroke-width:0.45;" x1="431.55" x2="502.65" y1="562.3031" y2="562.3031"/><text fill="#000000" font-family="sans-serif" font-size="12.6" lengthAdjust="spacing" textLength="9.9" x="436.05" y="577.3096">id</text><text fill="#000000" font-family="sans-serif" font-size="12.6" lengthAdjust="spacing" textLength="62.1" x="436.05" y="591.3861">description</text></g><!--class Employee--><g id="elem_Employee"><rect codeLine="54" fill="#F1F1F1" height="30.2766" id="Employee" rx="2.25" ry="2.25" style="stroke:#181818;stroke-width:0.45;" width="61.2" x="63" y="842.0766"/><text fill="#000000" font-family="sans-serif" font-size="12.6" lengthAdjust="spacing" textLength="55.8" x="65.7" y="857.983">Employee</text><line style="stroke:#181818;stroke-width:0.45;" x1="63.9" x2="123.3" y1="865.1531" y2="865.1531"/></g><!--class Property--><g id="elem_Property"><rect codeLine="57" fill="#F1F1F1" height="114.7359" id="Property" rx="2.25" ry="2.25" style="stroke:#181818;stroke-width:0.45;" width="126.9" x="106.65" y="335.3766"/><text fill="#000000" font-family="sans-serif" font-size="12.6" lengthAdjust="spacing" textLength="48.6" x="145.8" y="351.283">Property</text><line style="stroke:#181818;stroke-width:0.45;" x1="107.55" x2="232.65" y1="358.4531" y2="358.4531"/><text fill="#000000" font-family="sans-serif" font-size="12.6" lengthAdjust="spacing" textLength="88.2" x="112.05" y="373.4596">areaOfProperty</text><text fill="#000000" font-family="sans-serif" font-size="12.6" lengthAdjust="spacing" textLength="116.1" x="112.05" y="387.5361">distanceFromCentre</text><text fill="#000000" font-family="sans-serif" font-size="12.6" lengthAdjust="spacing" textLength="105.3" x="112.05" y="401.6127">dateOfAcceptance</text><text fill="#000000" font-family="sans-serif" font-size="12.6" lengthAdjust="spacing" textLength="86.4" x="112.05" y="415.6893">dateOfRequest</text><text fill="#000000" font-family="sans-serif" font-size="12.6" lengthAdjust="spacing" textLength="94.5" x="112.05" y="429.7658">comissionDetails</text><text fill="#000000" font-family="sans-serif" font-size="12.6" lengthAdjust="spacing" textLength="105.3" x="112.05" y="443.8424">transaction</text></g><!--class Building--><g id="elem_Building"><rect codeLine="66" fill="#F1F1F1" height="86.5828" id="Building" rx="2.25" ry="2.25" style="stroke:#181818;stroke-width:0.45;" width="121.5" x="40.95" y="180.5766"/><text fill="#000000" font-family="sans-serif" font-size="12.6" lengthAdjust="spacing" textLength="45" x="79.2" y="196.483">Building</text><line style="stroke:#181818;stroke-width:0.45;" x1="41.85" x2="161.55" y1="203.6531" y2="203.6531"/><text fill="#000000" font-family="sans-serif" font-size="12.6" lengthAdjust="spacing" textLength="56.7" x="46.35" y="218.6596">bedrooms</text><text fill="#000000" font-family="sans-serif" font-size="12.6" lengthAdjust="spacing" textLength="60.3" x="46.35" y="232.7361">bathrooms</text><text fill="#000000" font-family="sans-serif" font-size="12.6" lengthAdjust="spacing" textLength="84.6" x="46.35" y="246.8127">parkingSpaces</text><text fill="#000000" font-family="sans-serif" font-size="12.6" lengthAdjust="spacing" textLength="110.7" x="46.35" y="260.8893">availableEquipment</text></g><!--class House--><g id="elem_House"><rect codeLine="73" fill="#F1F1F1" height="72.5063" id="House" rx="2.25" ry="2.25" style="stroke:#181818;stroke-width:0.45;" width="84.6" x="6.3" y="39.2766"/><text fill="#000000" font-family="sans-serif" font-size="12.6" lengthAdjust="spacing" textLength="36" x="30.6" y="55.183">House</text><line style="stroke:#181818;stroke-width:0.45;" x1="7.2" x2="90" y1="62.3531" y2="62.3531"/><text fill="#000000" font-family="sans-serif" font-size="12.6" lengthAdjust="spacing" textLength="55.8" x="11.7" y="77.3596">basement</text><text fill="#000000" font-family="sans-serif" font-size="12.6" lengthAdjust="spacing" textLength="17.1" x="11.7" y="91.4361">loft</text><text fill="#000000" font-family="sans-serif" font-size="12.6" lengthAdjust="spacing" textLength="73.8" x="11.7" y="105.5127">sunExposure</text></g><!--class Owner--><g id="elem_Owner"><rect codeLine="79" fill="#F1F1F1" height="30.2766" id="Owner" rx="2.25" ry="2.25" style="stroke:#181818;stroke-width:0.45;" width="42.3" x="131.85" y="553.1766"/><text fill="#000000" font-family="sans-serif" font-size="12.6" lengthAdjust="spacing" textLength="36.9" x="134.55" y="569.083">Owner</text><line style="stroke:#181818;stroke-width:0.45;" x1="132.75" x2="173.25" y1="576.2531" y2="576.2531"/></g><!--class Apartment--><g id="elem_Apartment"><rect codeLine="81" fill="#F1F1F1" height="30.2766" id="Apartment" rx="2.25" ry="2.25" style="stroke:#181818;stroke-width:0.45;" width="63.9" x="122.85" y="60.4266"/><text fill="#000000" font-family="sans-serif" font-size="12.6" lengthAdjust="spacing" textLength="58.5" x="125.55" y="76.333">Apartment</text><line style="stroke:#181818;stroke-width:0.45;" x1="123.75" x2="185.85" y1="83.5031" y2="83.5031"/></g><!--class Land--><g id="elem_Land"><rect codeLine="83" fill="#F1F1F1" height="30.2766" id="Land" rx="2.25" ry="2.25" style="stroke:#181818;stroke-width:0.45;" width="34.2" x="194.4" y="208.4766"/><text fill="#000000" font-family="sans-serif" font-size="12.6" lengthAdjust="spacing" textLength="28.8" x="197.1" y="224.383">Land</text><line style="stroke:#181818;stroke-width:0.45;" x1="195.3" x2="227.7" y1="231.5531" y2="231.5531"/></g><!--link Property to Owner--><g id="link_Property_Owner"><path codeLine="85" d="M164.574,449.7306 C161.235,483.6876 157.203,524.8086 154.881,548.4066 " fill="none" id="Property-to-Owner" style="stroke:#181818;stroke-width:0.9;"/><polygon fill="#181818" points="154.413,553.1676,158.7836,545.456,154.8506,548.6889,151.6177,544.7559,154.413,553.1676" style="stroke:#181818;stroke-width:0.9;"/><text fill="#000000" font-family="sans-serif" font-size="11.7" lengthAdjust="spacing" textLength="18.9" x="162.9" y="488.1683">has</text></g><!--link Owner to Person--><g id="link_Owner_Person"><path codeLine="86" d="M162.531,583.8756 C177.129,606.0786 205.65,649.4676 227.781,683.1546 " fill="none" id="Owner-to-Person" style="stroke:#181818;stroke-width:0.9;"/><polygon fill="#181818" points="230.454,687.2046,228.9909,678.4622,227.9727,683.4505,222.9844,682.4322,230.454,687.2046" style="stroke:#181818;stroke-width:0.9;"/><text fill="#000000" font-family="sans-serif" font-size="11.7" lengthAdjust="spacing" textLength="18.9" x="213.3" y="657.3683">is a</text></g><!--link Land to Property--><g id="link_Land_Property"><path codeLine="87" d="M207.9,239.2026 C202.851,259.5516 193.374,297.7566 185.175,330.8316 " fill="none" id="Land-to-Property" style="stroke:#181818;stroke-width:0.9;"/><polygon fill="#181818" points="184.077,335.2506,189.5195,328.2542,185.1593,330.8827,182.5308,326.5225,184.077,335.2506" style="stroke:#181818;stroke-width:0.9;"/><text fill="#000000" font-family="sans-serif" font-size="11.7" lengthAdjust="spacing" textLength="18.9" x="194.4" y="305.4683">is a</text></g><!--link Apartment to Building--><g id="link_Apartment_Building"><path codeLine="88" d="M149.517,91.1886 C142.389,110.8086 129.366,146.6826 118.71,176.0316 " fill="none" id="Apartment-to-Building" style="stroke:#181818;stroke-width:0.9;"/><polygon fill="#181818" points="117.153,180.3156,123.3106,173.9395,118.695,176.088,116.5465,171.4724,117.153,180.3156" style="stroke:#181818;stroke-width:0.9;"/></g><!--link House to Building--><g id="link_House_Building"><path codeLine="89" d="M61.587,112.4016 C68.553,131.5896 77.22,155.4576 84.717,176.1036 " fill="none" id="House-to-Building" style="stroke:#181818;stroke-width:0.9;"/><polygon fill="#181818" points="86.301,180.4506,86.9313,171.609,84.7704,176.2189,80.1605,174.058,86.301,180.4506" style="stroke:#181818;stroke-width:0.9;"/><text fill="#000000" font-family="sans-serif" font-size="11.7" lengthAdjust="spacing" textLength="18.9" x="76.5" y="150.6683">is a</text></g><!--link Building to Property--><g id="link_Building_Property"><path codeLine="90" d="M119.133,267.2376 C126.252,284.5986 134.649,305.1006 142.56,324.3966 " fill="none" id="Building-to-Property" style="stroke:#181818;stroke-width:0.9;"/><polygon fill="#181818" points="147.015,335.2776,148.2988,328.9158,142.9202,325.2839,141.6364,331.6457,147.015,335.2776" style="stroke:#181818;stroke-width:0.9;"/><text fill="#000000" font-family="sans-serif" font-size="11.7" lengthAdjust="spacing" textLength="18.9" x="136.8" y="305.4683">is a</text></g><!--link Agent to Employee--><g id="link_Agent_Employee"><path codeLine="91" d="M36.945,408.0516 C45.531,475.9566 81.477,760.5006 91.179,837.3066 " fill="none" id="Agent-to-Employee" style="stroke:#181818;stroke-width:0.9;"/><polygon fill="#181818" points="91.755,841.8516,94.3105,833.364,91.1905,837.3871,87.1674,834.2671,91.755,841.8516" style="stroke:#181818;stroke-width:0.9;"/><text fill="#000000" font-family="sans-serif" font-size="11.7" lengthAdjust="spacing" textLength="18.9" x="69.3" y="657.3683">is a</text></g><!--reverse link Role to Person--><g id="link_Role_Person"><path codeLine="92" d="M434.952,601.2276 C428.463,607.2576 421.578,613.3956 414.9,618.8766 C382.851,645.1656 344.943,672.0666 314.442,692.7666 " fill="none" id="Role-backto-Person" style="stroke:#181818;stroke-width:0.9;"/><polygon fill="#181818" points="438.507,597.8886,430.1352,600.8011,435.2237,600.9659,435.0589,606.0544,438.507,597.8886" style="stroke:#181818;stroke-width:0.9;"/><text fill="#000000" font-family="sans-serif" font-size="11.7" lengthAdjust="spacing" textLength="18.9" x="378" y="657.3683">has</text></g><!--link Address to Person--><g id="link_Address_Person"><path codeLine="93" d="M342.414,609.8046 C325.809,633.4386 304.884,663.2376 288.054,687.2046 " fill="none" id="Address-Person" style="stroke:#181818;stroke-width:0.9;"/><text fill="#000000" font-family="sans-serif" font-size="11.7" lengthAdjust="spacing" textLength="18.9" x="315.9" y="657.3683">has</text></g><!--link PassportCard to Person--><g id="link_PassportCard_Person"><path codeLine="94" d="M258.3,590.6526 C258.3,613.9176 258.3,651.9426 258.3,682.3356 " fill="none" id="PassportCard-to-Person" style="stroke:#181818;stroke-width:0.9;"/><polygon fill="#181818" points="258.3,687.1416,261.9,679.0416,258.3,682.6416,254.7,679.0416,258.3,687.1416" style="stroke:#181818;stroke-width:0.9;"/><text fill="#000000" font-family="sans-serif" font-size="11.7" lengthAdjust="spacing" textLength="18.9" x="259.2" y="657.3683">has</text></g><!--link Person to User--><g id="link_Person_User"><path codeLine="95" d="M314.172,730.4766 C325.062,730.4766 336.528,730.4766 347.598,730.4766 " fill="none" id="Person-to-User" style="stroke:#181818;stroke-width:0.9;"/><polygon fill="none" points="347.67,724.1766,365.67,730.4766,347.67,736.7766,347.67,724.1766" style="stroke:#181818;stroke-width:0.9;"/><text fill="#000000" font-family="sans-serif" font-size="11.7" lengthAdjust="spacing" textLength="18.9" x="330.525" y="724.8683">is a</text></g><!--reverse link Person to Employee--><g id="link_Person_Employee"><path codeLine="96" d="M187.974,784.7916 C160.488,805.6716 131.175,827.9376 112.644,842.0136 " fill="none" id="Person-backto-Employee" style="stroke:#181818;stroke-width:0.9;"/><polygon fill="none" points="184.392,779.5986,202.536,773.7306,192.015,789.6336,184.392,779.5986" style="stroke:#181818;stroke-width:0.9;"/><text fill="#000000" font-family="sans-serif" font-size="11.7" lengthAdjust="spacing" textLength="18.9" x="167.4" y="812.1683">is a</text></g><!--reverse link Agent to Property--><g id="link_Agent_Property"><path codeLine="97" d="M59.427,392.5266 C72.675,392.5266 89.739,392.5266 106.488,392.5266 " fill="none" id="Agent-backto-Property" style="stroke:#181818;stroke-width:0.9;"/><polygon fill="#181818" points="54.729,392.5266,62.829,396.1266,59.229,392.5266,62.829,388.9266,54.729,392.5266" style="stroke:#181818;stroke-width:0.9;"/><text fill="#000000" font-family="sans-serif" font-size="11.7" lengthAdjust="spacing" textLength="18.9" x="71.1" y="386.9183">has</text></g><!--SRC=[PLJ1Rjim3BthAtGBCC10ZqDH1CZI5XkmhKMpVW0ZCR5GML8fUMtQxjz7IxATf3uOqYCVtnD5EpuP5u2WavrtNhNaEvI9UXHnYWHGJx37JJfOb8GgWTlRuuJOWlOlnktb3cn48HOMTqacBydisoIr6LZ6Et54KXPYNAL4Pjid_A6ysvWtb1T2j4QZL8OKY-HrXwdrEWgHJ68Brxu3u-Glhz7AHZvkBYw-icOkAEyjf9sdJhwBXPIDngZ8X2o- -2T4ILhjqINE48o84Rn7YjunAlbnq65U97ZztNTRfBn3LhOhhGbZB66q65hli2PD4lVy2fxI6aZNcg52vwcrNacAYH1JNYgJ3dcX3QD6fPe0gLXxCs7DFU12fSvZH3gt_ydmOEB5avxb7pptjD2CBdf7JPlIRhfW_G67rFcGv0DIEXGs4CBTRiGcv-0Ktl9ShRddL5nfFiBTRgKKXXm-0X_mkSTO6-0x4oExkCR4nwWTFmHE-qFW8gXJYzzwO_KmXiNF5ZLvtnNQ5b8xxtW4UH3t6nvjB0ZyPGNOMhnvxatesEjSzxll8zQQ4347XutrktedlRjv3JxsX3FhxiKXlS-tp9ffeCxGJt1ws8qjaqspB3HvALk8egm7j0xdfJHHWXY81HwPDJ29vEZO3v4FS0ADX6dVD5y-LykV2REckw-1wgPf-h0iyrFy7k7ZL9z6hdBevDiuPUOVniUop79LczG7yiTvBuh9g-RO_L1nUFu3]--></g></svg>